<svg width="240" height="160" viewBox="0 0 240 160" fill="none" xmlns="http://www.w3.org/2000/svg">
<g clip-path="url(#clip0_4727_1936)">
<path d="M156.894 114.395C152.53 118.759 147.348 122.221 141.646 124.583C135.944 126.945 129.832 128.161 123.66 128.161C117.488 128.161 111.376 126.945 105.674 124.583C99.9716 122.221 94.7904 118.759 90.426 114.395" stroke="url(#paint0_linear_4727_1936)" stroke-miterlimit="10" stroke-linecap="round"/>
<path d="M151.945 109.445C148.23 113.16 143.821 116.106 138.968 118.116C134.115 120.126 128.913 121.161 123.66 121.161C118.407 121.161 113.206 120.126 108.353 118.116C103.5 116.106 99.0903 113.16 95.376 109.445" stroke="url(#paint1_linear_4727_1936)" stroke-miterlimit="10" stroke-linecap="round"/>
<path d="M146.995 104.494C143.93 107.558 140.293 109.989 136.289 111.648C132.285 113.306 127.994 114.16 123.66 114.16C119.327 114.16 115.035 113.306 111.032 111.648C107.028 109.989 103.39 107.558 100.326 104.494" stroke="url(#paint2_linear_4727_1936)" stroke-miterlimit="10" stroke-linecap="round"/>
<path d="M159.015 38.7344C163.38 43.0987 166.842 48.28 169.204 53.9823C171.566 59.6846 172.781 65.7963 172.781 71.9684C172.781 78.1405 171.566 84.2522 169.204 89.9545C166.842 95.6568 163.38 100.838 159.015 105.202" stroke="url(#paint3_linear_4727_1936)" stroke-miterlimit="10" stroke-linecap="round"/>
<path d="M154.065 43.6836C157.78 47.3979 160.726 51.8075 162.736 56.6605C164.747 61.5136 165.781 66.715 165.781 71.9679C165.781 77.2207 164.747 82.4222 162.736 87.2752C160.726 92.1282 157.78 96.5378 154.065 100.252" stroke="url(#paint4_linear_4727_1936)" stroke-miterlimit="10" stroke-linecap="round"/>
<path d="M149.116 48.6348C152.18 51.6991 154.611 55.337 156.269 59.3407C157.928 63.3445 158.781 67.6357 158.781 71.9693C158.781 76.3029 157.928 80.5941 156.269 84.5978C154.611 88.6016 152.18 92.2395 149.116 95.3038" stroke="url(#paint5_linear_4727_1936)" stroke-miterlimit="10" stroke-linecap="round"/>
<path d="M83.3557 36.6136C87.7201 32.2493 92.9013 28.7873 98.6036 26.4253C104.306 24.0633 110.418 22.8477 116.59 22.8477C122.762 22.8477 128.874 24.0633 134.576 26.4253C140.278 28.7873 145.459 32.2493 149.824 36.6136" stroke="url(#paint6_linear_4727_1936)" stroke-miterlimit="10" stroke-linecap="round"/>
<path d="M88.3057 41.5634C92.02 37.849 96.4296 34.9027 101.283 32.8925C106.136 30.8823 111.337 29.8477 116.59 29.8477C121.843 29.8477 127.044 30.8823 131.897 32.8925C136.75 34.9027 141.16 37.849 144.874 41.5634" stroke="url(#paint7_linear_4727_1936)" stroke-miterlimit="10" stroke-linecap="round"/>
<path d="M93.2554 46.5131C96.3197 43.4488 99.9576 41.018 103.961 39.3596C107.965 37.7012 112.256 36.8477 116.59 36.8477C120.924 36.8477 125.215 37.7012 129.218 39.3596C133.222 41.018 136.86 43.4488 139.924 46.5131" stroke="url(#paint8_linear_4727_1936)" stroke-miterlimit="10" stroke-linecap="round"/>
<path d="M81.2347 112.273C76.8704 107.908 73.4084 102.727 71.0464 97.0248C68.6844 91.3225 67.4687 85.2108 67.4688 79.0387C67.4688 72.8666 68.6844 66.7549 71.0464 61.0526C73.4084 55.3503 76.8704 50.169 81.2347 45.8047" stroke="url(#paint9_linear_4727_1936)" stroke-miterlimit="10" stroke-linecap="round"/>
<path d="M86.1845 107.322C82.4701 103.608 79.5238 99.1985 77.5136 94.3455C75.5034 89.4925 74.4687 84.2911 74.4688 79.0382C74.4688 73.7853 75.5034 68.5839 77.5136 63.7308C79.5238 58.8778 82.4701 54.4682 86.1845 50.7539" stroke="url(#paint10_linear_4727_1936)" stroke-miterlimit="10" stroke-linecap="round"/>
<path d="M91.1342 102.374C88.0699 99.3098 85.6391 95.6719 83.9807 91.6682C82.3223 87.6644 81.4687 83.3732 81.4688 79.0396C81.4688 74.706 82.3223 70.4148 83.9807 66.411C85.6391 62.4073 88.0699 58.7694 91.1342 55.7051" stroke="url(#paint11_linear_4727_1936)" stroke-miterlimit="10" stroke-linecap="round"/>
<g filter="url(#filter0_d_4727_1936)">
<path d="M135.772 81.4759C135.031 84.239 133.577 86.7585 131.554 88.7812C129.531 90.804 127.012 92.2586 124.248 92.999L123.28 89.3855C125.409 88.8151 127.35 87.6944 128.909 86.136C130.467 84.5776 131.588 82.6365 132.158 80.5077L135.772 81.4759Z" fill="#53FDA9"/>
</g>
<path d="M104.223 72.7936C103.294 76.2587 103.535 79.9333 104.908 83.2476C106.281 86.5618 108.709 89.3305 111.815 91.1241C114.922 92.9178 118.534 93.6362 122.09 93.168C125.647 92.6997 128.95 91.071 131.486 88.5344C134.023 85.9978 135.652 82.695 136.12 79.1384C136.588 75.5818 135.87 71.97 134.076 68.8633C132.283 65.7566 129.514 63.3286 126.2 61.9557C122.885 60.5829 119.211 60.3421 115.746 61.2706L117.534 67.9433C119.53 67.4085 121.647 67.5472 123.556 68.3381C125.465 69.1289 127.06 70.5277 128.094 72.3174C129.127 74.1071 129.541 76.1878 129.271 78.2367C129.001 80.2856 128.063 82.1882 126.602 83.6495C125.14 85.1108 123.238 86.0491 121.189 86.3189C119.14 86.5886 117.059 86.1748 115.269 85.1415C113.48 84.1082 112.081 82.5132 111.29 80.6039C110.499 78.6946 110.361 76.5777 110.895 74.5816L104.223 72.7936Z" stroke="url(#paint12_linear_4727_1936)" stroke-width="0.25" stroke-miterlimit="10" stroke-linecap="round"/>
<g filter="url(#filter1_d_4727_1936)">
<path d="M114.117 73.6094C113.369 74.9045 113.07 76.41 113.265 77.8926C113.46 79.3752 114.139 80.7519 115.197 81.8093C116.254 82.8667 117.631 83.5456 119.113 83.7408C120.596 83.936 122.101 83.6365 123.396 82.8889C124.691 82.1412 125.704 80.9871 126.276 79.6055C126.848 78.224 126.948 76.6922 126.561 75.2478C126.174 73.8034 125.322 72.527 124.135 71.6167C122.949 70.7064 121.495 70.2129 120 70.2129L120 77.0059L114.117 73.6094Z" fill="white"/>
</g>
<g filter="url(#filter2_d_4727_1936)">
<ellipse cx="120" cy="80.1133" rx="110" ry="29" stroke="url(#paint13_linear_4727_1936)" stroke-linecap="round" stroke-linejoin="round" stroke-dasharray="2 2" shape-rendering="crispEdges"/>
</g>
<path d="M119.254 4.1606C119.419 4.13744 119.584 4.12193 119.75 4.11417L119.756 4.23903C119.837 4.23524 119.918 4.23334 120 4.23334C120.081 4.23334 120.162 4.23524 120.244 4.23903L120.249 4.11417C120.415 4.12193 120.581 4.13745 120.746 4.16061L120.729 4.28439C120.888 4.30681 121.048 4.33656 121.207 4.37358L121.235 4.25185C121.395 4.28923 121.555 4.33382 121.715 4.38557L121.676 4.50447C121.83 4.55434 121.983 4.61104 122.136 4.67448L122.184 4.55905C122.334 4.62157 122.484 4.69044 122.634 4.76565L122.577 4.87732C122.723 4.9507 122.869 5.03026 123.014 5.11594L123.077 5.00832C123.216 5.09016 123.354 5.17744 123.491 5.27011L123.422 5.37379C123.557 5.46513 123.693 5.56184 123.827 5.66388L123.903 5.56419C124.032 5.66189 124.161 5.76434 124.289 5.8715L124.209 5.96742C124.333 6.07101 124.456 6.17912 124.579 6.2917L124.664 6.19942C124.787 6.31181 124.909 6.42856 125.031 6.54961L124.943 6.63838C125.056 6.75021 125.169 6.8658 125.281 6.98512L125.372 6.89954C125.485 7.0199 125.598 7.14397 125.71 7.2717L125.616 7.35422C125.724 7.47737 125.832 7.604 125.94 7.7341L126.036 7.65446C126.139 7.77881 126.241 7.90625 126.343 8.03676L126.245 8.11375C126.346 8.24339 126.447 8.37611 126.548 8.51189L126.648 8.43742C126.747 8.57059 126.846 8.70662 126.944 8.84552L126.841 8.9176C126.934 9.04867 127.026 9.18233 127.118 9.31854L127.222 9.24864C127.314 9.38557 127.406 9.52505 127.498 9.66705L127.393 9.73486C127.484 9.87553 127.574 10.0187 127.664 10.1644L127.771 10.0986C127.855 10.2352 127.939 10.3739 128.023 10.5148L127.916 10.5787C128 10.719 128.083 10.8614 128.166 11.006L128.274 10.9438C128.358 11.0889 128.441 11.2362 128.523 11.3855L128.414 11.4461C128.493 11.5895 128.572 11.7349 128.651 11.8822L128.762 11.8232C128.838 11.9664 128.914 12.1114 128.991 12.2581L128.88 12.3157C128.955 12.4619 129.031 12.61 129.106 12.7599L129.218 12.7039C129.293 12.8542 129.369 13.0064 129.443 13.1603L129.331 13.215C129.402 13.3612 129.473 13.5089 129.544 13.6582L129.657 13.6048C129.726 13.7523 129.796 13.9013 129.865 14.0518L129.751 14.104C129.82 14.2542 129.889 14.4059 129.958 14.5591L130.072 14.5081C130.141 14.6617 130.209 14.8168 130.277 14.9735L130.162 15.0233C130.228 15.1729 130.292 15.3238 130.357 15.4761L130.472 15.4273C130.536 15.5775 130.599 15.729 130.662 15.8819L130.547 15.9297C130.61 16.0822 130.673 16.2361 130.735 16.3913L130.851 16.3445C130.914 16.5 130.977 16.6568 131.039 16.815L130.922 16.8607C130.983 17.0145 131.043 17.1696 131.103 17.3259L131.22 17.281C131.278 17.4329 131.337 17.586 131.395 17.7402L131.278 17.7842C131.335 17.9381 131.393 18.0932 131.45 18.2494L131.568 18.2063C131.625 18.3628 131.683 18.5204 131.74 18.6792L131.622 18.7215C131.679 18.88 131.736 19.0396 131.792 19.2003L131.91 19.1589C131.964 19.3122 132.018 19.4666 132.071 19.6219L131.953 19.6626C131.975 19.7257 131.996 19.789 132.018 19.8525C132.021 19.8616 132.024 19.8707 132.027 19.8798C132.056 19.9627 132.084 20.046 132.112 20.1295L132.23 20.0896C132.283 20.2465 132.336 20.4044 132.388 20.5633L132.27 20.6024C132.289 20.6599 132.308 20.7175 132.326 20.7751C132.329 20.7834 132.332 20.7916 132.335 20.7999C132.365 20.8933 132.396 20.9871 132.426 21.0813L132.545 21.0428C132.597 21.2023 132.648 21.3627 132.699 21.524L132.58 21.5618C132.589 21.5896 132.598 21.6173 132.606 21.6451C132.61 21.6578 132.614 21.6704 132.618 21.683C132.655 21.7979 132.691 21.9133 132.727 22.0292L132.846 21.9921C132.895 22.1489 132.943 22.3067 132.992 22.4653L132.872 22.5018C132.92 22.6602 132.969 22.8195 133.016 22.9796L133.136 22.9438C133.184 23.1042 133.232 23.2654 133.279 23.4275L133.16 23.4627C133.207 23.6232 133.254 23.7846 133.3 23.9469L133.42 23.9123C133.465 24.0689 133.51 24.2263 133.555 24.3845L133.435 24.4185C133.479 24.5764 133.524 24.7352 133.568 24.8947L133.689 24.8613C133.733 25.021 133.777 25.1815 133.821 25.3427L133.7 25.3756C133.744 25.5366 133.788 25.6984 133.831 25.861L133.952 25.8287C133.996 25.9914 134.039 26.155 134.082 26.3192L133.961 26.351C134.003 26.5086 134.044 26.6669 134.085 26.826L134.206 26.7947C134.247 26.9537 134.288 27.1133 134.328 27.2736L134.207 27.3044C134.248 27.4645 134.288 27.6253 134.329 27.7868L134.45 27.7566C134.49 27.9183 134.53 28.0806 134.57 28.2437L134.449 28.2734C134.464 28.3367 134.48 28.4001 134.495 28.4637C134.52 28.5635 134.544 28.6636 134.568 28.764L134.689 28.7347C134.728 28.8958 134.767 29.0576 134.805 29.22L134.684 29.2488C134.721 29.408 134.759 29.5678 134.796 29.7283L134.918 29.7C134.955 29.8606 134.992 30.0218 135.029 30.1836L134.907 30.2114C134.944 30.3731 134.981 30.5354 135.018 30.6982L135.14 30.6708C135.176 30.8338 135.213 30.9974 135.249 31.1616L135.127 31.1886C135.163 31.3527 135.199 31.5173 135.235 31.6825L135.357 31.656C135.392 31.8164 135.427 31.9773 135.461 32.1388L135.339 32.1649C135.373 32.3254 135.407 32.4865 135.441 32.6481L135.564 32.6224C135.598 32.7841 135.631 32.9464 135.665 33.1092L135.543 33.1345C135.576 33.2972 135.61 33.4604 135.643 33.6241L135.765 33.5992C135.799 33.7631 135.832 33.9275 135.865 34.0925L135.742 34.117C135.775 34.2818 135.808 34.4471 135.84 34.613L135.963 34.5889C135.995 34.7495 136.026 34.9106 136.057 35.0721L135.934 35.0958C135.966 35.2572 135.997 35.4191 136.027 35.5815L136.15 35.5581C136.181 35.7206 136.212 35.8836 136.242 36.0471L136.12 36.07C136.15 36.2334 136.18 36.3972 136.211 36.5615L136.333 36.5389C136.364 36.7033 136.394 36.8682 136.424 37.0336L136.301 37.0558C136.33 37.221 136.36 37.3867 136.39 37.5529L136.513 37.5311C136.541 37.6927 136.57 37.8547 136.598 38.0172L136.475 38.0387C136.503 38.2007 136.532 38.3631 136.56 38.526L136.683 38.5048C136.711 38.6678 136.739 38.8312 136.766 38.995L136.643 39.0158C136.652 39.068 136.661 39.1203 136.669 39.1726C136.688 39.2843 136.707 39.3962 136.725 39.5083L136.849 39.4878C136.876 39.6525 136.903 39.8177 136.93 39.9832L136.807 40.0033C136.82 40.0817 136.832 40.1601 136.845 40.2387C136.858 40.3151 136.87 40.3916 136.882 40.4681C136.884 40.4791 136.886 40.49 136.887 40.5009L137.011 40.4811C137.037 40.6444 137.063 40.808 137.089 40.9721L136.966 40.9916C136.991 41.1539 137.017 41.3166 137.042 41.4798L137.165 41.4606C137.191 41.6239 137.216 41.7875 137.241 41.9515L137.117 41.9704C137.128 42.0424 137.139 42.1146 137.15 42.1868C137.164 42.2788 137.178 42.371 137.192 42.4633L137.315 42.4448C137.34 42.6096 137.365 42.7748 137.389 42.9404L137.265 42.9586C137.29 43.124 137.314 43.2899 137.338 43.4561L137.462 43.4382C137.485 43.6036 137.509 43.7693 137.533 43.9354L137.409 43.953C137.432 44.1155 137.455 44.2784 137.478 44.4417L137.602 44.4244C137.624 44.5878 137.647 44.7515 137.67 44.9156L137.546 44.9326C137.568 45.0966 137.591 45.2609 137.613 45.4256L137.737 45.4089C137.759 45.5737 137.781 45.7388 137.803 45.9043L137.679 45.9206C137.701 46.086 137.722 46.2517 137.744 46.4178L137.868 46.4017C137.89 46.5679 137.911 46.7344 137.932 46.9013L137.808 46.917C137.821 47.0145 137.833 47.1121 137.845 47.2098C137.852 47.26 137.858 47.3102 137.864 47.3605C137.866 47.3773 137.868 47.394 137.871 47.4108L137.995 47.3953C138.015 47.5587 138.035 47.7224 138.055 47.8864L137.931 47.9017C137.951 48.0656 137.971 48.2298 137.991 48.3944L138.115 48.3795C138.135 48.5441 138.155 48.7091 138.174 48.8744L138.05 48.8891C138.07 49.0543 138.089 49.2198 138.108 49.3856L138.233 49.3712C138.252 49.5372 138.271 49.7034 138.29 49.8699L138.166 49.8841C138.185 50.0505 138.203 50.2173 138.222 50.3843L138.346 50.3705C138.364 50.5345 138.383 50.6988 138.401 50.8634L138.276 50.877C138.294 51.0408 138.312 51.2049 138.33 51.3693L138.454 51.356C138.471 51.5205 138.489 51.6853 138.506 51.8504L138.382 51.8634C138.399 52.0284 138.416 52.1937 138.433 52.3592L138.558 52.3464C138.575 52.5121 138.592 52.678 138.608 52.8442L138.484 52.8567C138.501 53.0228 138.517 53.1892 138.534 53.3559L138.658 53.3436C138.675 53.5104 138.691 53.6774 138.707 53.8447L138.582 53.8567C138.598 54.0208 138.614 54.1852 138.63 54.3498L138.754 54.3381C138.769 54.5024 138.785 54.6669 138.8 54.8317L138.676 54.8432C138.691 55.0079 138.706 55.1729 138.721 55.3382L138.845 55.3269C138.86 55.4923 138.875 55.6578 138.889 55.8237L138.765 55.8346C138.78 56.0004 138.794 56.1664 138.808 56.3327L138.933 56.322C138.947 56.4883 138.961 56.6549 138.975 56.8217L138.851 56.8322C138.865 56.999 138.879 57.166 138.893 57.3333L139.017 57.323C139.031 57.4878 139.044 57.6528 139.057 57.8181L138.933 57.8281C138.946 57.9925 138.959 58.1572 138.972 58.3221L139.096 58.3124C139.109 58.4774 139.122 58.6426 139.135 58.8081L139.01 58.8176C139.023 58.983 139.035 59.1486 139.047 59.3145L139.172 59.3052C139.184 59.4712 139.196 59.6373 139.209 59.8037L139.084 59.8127C139.096 59.979 139.108 60.1456 139.119 60.3124L139.244 60.3036C139.256 60.4704 139.267 60.6375 139.279 60.8048L139.154 60.8133C139.166 60.9789 139.177 61.1447 139.188 61.3107L139.313 61.3024C139.323 61.4671 139.334 61.632 139.345 61.7971L139.22 61.8052C139.231 61.9702 139.241 62.1355 139.252 62.3009L139.377 62.2931C139.387 62.4586 139.397 62.6244 139.407 62.7903L139.283 62.7979C139.293 62.9638 139.303 63.1299 139.312 63.2962L139.437 63.2888C139.447 63.4552 139.457 63.6218 139.466 63.7886L139.341 63.7957C139.351 63.9624 139.36 64.1293 139.369 64.2964L139.494 64.2895C139.504 64.4562 139.513 64.6231 139.522 64.7903L139.397 64.7969C139.405 64.9616 139.414 65.1265 139.423 65.2916L139.547 65.2851C139.556 65.4503 139.564 65.6157 139.573 65.7812L139.448 65.7874C139.451 65.8502 139.454 65.9131 139.457 65.976C139.462 66.0658 139.466 66.1558 139.47 66.2458C139.471 66.2587 139.471 66.2715 139.472 66.2844L139.597 66.2784C139.605 66.4443 139.613 66.6104 139.62 66.7767L139.495 66.7825C139.498 66.8475 139.501 66.9126 139.504 66.9778C139.508 67.0663 139.512 67.155 139.516 67.2437C139.517 67.2563 139.517 67.269 139.518 67.2817L139.643 67.2762C139.65 67.4428 139.658 67.6097 139.665 67.7767L139.54 67.782C139.547 67.949 139.554 68.1161 139.561 68.2834L139.686 68.2783C139.692 68.444 139.699 68.6098 139.705 68.7759L139.58 68.7807C139.587 68.9458 139.593 69.1111 139.599 69.2765L139.724 69.2718C139.73 69.4373 139.736 69.603 139.742 69.7689L139.617 69.7733C139.623 69.939 139.629 70.105 139.634 70.2711L139.759 70.2669C139.765 70.4331 139.77 70.5994 139.776 70.7659L139.651 70.7699C139.656 70.9364 139.661 71.103 139.666 71.2697L139.791 71.266C139.796 71.4328 139.801 71.5998 139.806 71.767L139.681 71.7706C139.686 71.9375 139.69 72.1047 139.695 72.272L139.82 72.2686C139.824 72.4338 139.828 72.599 139.832 72.7645L139.707 72.7676C139.712 72.9329 139.715 73.0984 139.719 73.2641L139.844 73.2612C139.848 73.427 139.852 73.5928 139.855 73.7589L139.73 73.7616C139.734 73.9275 139.737 74.0937 139.741 74.2599L139.866 74.2575C139.869 74.4238 139.872 74.5903 139.875 74.7569L139.75 74.7592C139.753 74.9258 139.756 75.0925 139.758 75.2593L139.883 75.2573C139.886 75.4242 139.889 75.5913 139.891 75.7586L139.766 75.7604C139.769 75.9268 139.771 76.0934 139.773 76.2601L139.898 76.2585C139.9 76.4239 139.902 76.5893 139.904 76.755L139.779 76.7563C139.781 76.9219 139.782 77.0876 139.784 77.2534L139.909 77.2522C139.91 77.4181 139.912 77.5841 139.913 77.7503L139.788 77.7512C139.789 77.8398 139.789 77.9285 139.79 78.0172C139.791 78.0947 139.791 78.1723 139.792 78.2499L139.917 78.2492C139.918 78.4156 139.918 78.5822 139.919 78.7488L139.794 78.7494C139.795 78.916 139.795 79.0827 139.796 79.2496L139.921 79.2493C139.921 79.4163 139.922 79.5833 139.922 79.7505L139.797 79.7506L139.797 80.0014L139.797 80.2523L139.922 80.2524C139.922 80.4196 139.921 80.5867 139.921 80.7536L139.796 80.7533C139.796 80.8346 139.795 80.9158 139.795 80.997C139.795 81.0826 139.794 81.1681 139.794 81.2536L139.919 81.2541C139.918 81.4208 139.918 81.5873 139.917 81.7538L139.792 81.753C139.791 81.9194 139.789 82.0856 139.788 82.2517L139.913 82.2526C139.912 82.4188 139.91 82.5848 139.909 82.7507L139.784 82.7495C139.782 82.9154 139.781 83.081 139.779 83.2466L139.904 83.248C139.902 83.4136 139.9 83.5791 139.898 83.7444L139.773 83.7428C139.771 83.9095 139.769 84.0761 139.766 84.2426L139.891 84.2444C139.889 84.4116 139.886 84.5787 139.883 84.7456L139.758 84.7436C139.756 84.9105 139.753 85.0772 139.75 85.2437L139.875 85.246C139.872 85.4126 139.869 85.5791 139.866 85.7455L139.741 85.743C139.739 85.8025 139.738 85.862 139.737 85.9215C139.735 86.0282 139.733 86.1348 139.73 86.2414L139.855 86.244C139.852 86.4101 139.848 86.576 139.844 86.7417L139.719 86.7388C139.715 86.9045 139.712 87.07 139.707 87.2354L139.832 87.2385C139.828 87.4039 139.824 87.5692 139.82 87.7343L139.695 87.731C139.693 87.8122 139.69 87.8934 139.688 87.9745C139.686 88.0605 139.683 88.1465 139.681 88.2324L139.806 88.2359C139.801 88.4031 139.796 88.5701 139.791 88.7369L139.666 88.7332C139.664 88.8065 139.662 88.8799 139.66 88.9532C139.657 89.0465 139.654 89.1398 139.651 89.233L139.776 89.237C139.77 89.4035 139.765 89.5698 139.759 89.736L139.634 89.7318C139.632 89.7971 139.63 89.8624 139.628 89.9277C139.624 90.0284 139.621 90.129 139.617 90.2297L139.742 90.2341C139.736 90.3999 139.73 90.5656 139.724 90.7311L139.599 90.7264C139.593 90.8919 139.587 91.0571 139.58 91.2222L139.705 91.2271C139.699 91.3931 139.692 91.5589 139.686 91.7246L139.561 91.7195C139.554 91.8868 139.547 92.0539 139.54 92.2209L139.665 92.2262C139.658 92.3932 139.65 92.5601 139.643 92.7268L139.518 92.7212C139.511 92.8878 139.503 93.0542 139.495 93.2204L139.62 93.2262C139.613 93.3925 139.605 93.5586 139.597 93.7245L139.472 93.7185C139.464 93.8844 139.456 94.05 139.448 94.2155L139.573 94.2217C139.564 94.3873 139.556 94.5526 139.547 94.7178L139.423 94.7113C139.414 94.8764 139.405 95.0413 139.397 95.206L139.522 95.2127C139.513 95.3798 139.504 95.5467 139.494 95.7134L139.369 95.7065C139.36 95.8736 139.351 96.0405 139.341 96.2072L139.466 96.2144C139.457 96.3811 139.447 96.5477 139.437 96.7141L139.312 96.7067C139.303 96.873 139.293 97.0391 139.282 97.205L139.407 97.2126C139.397 97.3785 139.387 97.5443 139.377 97.7098L139.252 97.702C139.241 97.8674 139.231 98.0327 139.22 98.1977L139.345 98.2058C139.334 98.3709 139.323 98.5358 139.313 98.7005L139.188 98.6922C139.177 98.8582 139.166 99.024 139.154 99.1896L139.279 99.1981C139.267 99.3654 139.256 99.5325 139.244 99.6993L139.119 99.6905C139.108 99.8573 139.096 100.024 139.084 100.19L139.209 100.199C139.196 100.366 139.184 100.532 139.172 100.698L139.047 100.688C139.035 100.854 139.023 101.02 139.01 101.185L139.135 101.195C139.122 101.36 139.109 101.525 139.096 101.69L138.972 101.681C138.959 101.846 138.946 102.01 138.933 102.175L139.057 102.185C139.044 102.35 139.031 102.515 139.017 102.68L138.893 102.67C138.879 102.837 138.865 103.004 138.851 103.171L138.975 103.181C138.961 103.348 138.947 103.515 138.933 103.681L138.808 103.67C138.794 103.836 138.78 104.002 138.765 104.168L138.889 104.179C138.875 104.345 138.86 104.511 138.845 104.676L138.721 104.665C138.706 104.83 138.691 104.995 138.676 105.16L138.8 105.171C138.785 105.336 138.769 105.5 138.754 105.665L138.63 105.653C138.614 105.818 138.598 105.982 138.583 106.146L138.707 106.158C138.691 106.325 138.675 106.492 138.658 106.659L138.534 106.647C138.517 106.814 138.501 106.98 138.484 107.146L138.608 107.159C138.592 107.325 138.575 107.491 138.558 107.656L138.433 107.644C138.416 107.809 138.399 107.974 138.382 108.139L138.506 108.152C138.489 108.318 138.471 108.482 138.454 108.647L138.33 108.634C138.312 108.798 138.294 108.962 138.276 109.126L138.401 109.139C138.383 109.304 138.364 109.468 138.346 109.632L138.222 109.619C138.203 109.786 138.185 109.952 138.166 110.119L138.29 110.133C138.271 110.299 138.252 110.466 138.233 110.632L138.108 110.617C138.089 110.783 138.07 110.949 138.05 111.114L138.174 111.128C138.155 111.294 138.135 111.459 138.115 111.623L137.991 111.608C137.982 111.684 137.973 111.759 137.964 111.835C137.953 111.923 137.942 112.012 137.931 112.101L138.055 112.116C138.035 112.28 138.015 112.444 137.995 112.608L137.871 112.592C137.85 112.757 137.829 112.922 137.808 113.086L137.932 113.102C137.911 113.268 137.89 113.435 137.868 113.601L137.744 113.585C137.722 113.751 137.701 113.917 137.679 114.082L137.803 114.099C137.781 114.264 137.759 114.429 137.737 114.594L137.613 114.577C137.591 114.742 137.568 114.906 137.546 115.07L137.67 115.087C137.647 115.251 137.624 115.415 137.602 115.578L137.478 115.561C137.455 115.724 137.432 115.887 137.409 116.05L137.533 116.067C137.509 116.234 137.485 116.399 137.462 116.565L137.338 116.547C137.314 116.713 137.29 116.879 137.265 117.044L137.389 117.062C137.365 117.228 137.34 117.393 137.315 117.558L137.192 117.54C137.167 117.704 137.142 117.869 137.117 118.032L137.241 118.051C137.216 118.215 137.191 118.379 137.165 118.542L137.042 118.523C137.017 118.686 136.991 118.849 136.966 119.011L137.089 119.031C137.063 119.195 137.037 119.358 137.011 119.522L136.887 119.502C136.861 119.668 136.834 119.834 136.807 120L136.93 120.02C136.903 120.185 136.876 120.35 136.849 120.515L136.725 120.495C136.698 120.659 136.671 120.823 136.643 120.987L136.766 121.008C136.739 121.172 136.711 121.335 136.683 121.498L136.56 121.477C136.532 121.64 136.503 121.802 136.475 121.964L136.598 121.986C136.57 122.148 136.541 122.31 136.513 122.472L136.39 122.45C136.36 122.616 136.33 122.782 136.301 122.947L136.424 122.969C136.394 123.135 136.364 123.3 136.333 123.464L136.211 123.441C136.18 123.606 136.15 123.769 136.12 123.933L136.242 123.956C136.212 124.119 136.181 124.282 136.15 124.445L136.027 124.421C135.997 124.584 135.966 124.746 135.934 124.907L136.057 124.931C136.026 125.092 135.995 125.253 135.963 125.414L135.84 125.39C135.808 125.556 135.775 125.721 135.742 125.886L135.865 125.91C135.832 126.075 135.799 126.24 135.765 126.404L135.643 126.379C135.61 126.542 135.576 126.706 135.543 126.868L135.665 126.894C135.631 127.056 135.598 127.219 135.564 127.38L135.441 127.355C135.407 127.516 135.373 127.677 135.339 127.838L135.461 127.864C135.427 128.026 135.392 128.186 135.357 128.347L135.235 128.32C135.199 128.486 135.163 128.65 135.127 128.814L135.249 128.841C135.213 129.005 135.176 129.169 135.14 129.332L135.018 129.305C134.981 129.467 134.944 129.63 134.907 129.791L135.029 129.819C134.992 129.981 134.955 130.142 134.918 130.303L134.796 130.275C134.759 130.435 134.721 130.595 134.684 130.754L134.805 130.783C134.767 130.945 134.728 131.107 134.689 131.268L134.568 131.239C134.528 131.403 134.489 131.567 134.449 131.729L134.57 131.759C134.53 131.922 134.49 132.085 134.45 132.246L134.329 132.216C134.288 132.378 134.248 132.538 134.207 132.699L134.328 132.729C134.288 132.89 134.247 133.049 134.206 133.208L134.085 133.177C134.044 133.336 134.003 133.494 133.961 133.652L134.082 133.684C134.039 133.848 133.996 134.011 133.952 134.174L133.831 134.142C133.788 134.304 133.744 134.466 133.7 134.627L133.821 134.66C133.777 134.821 133.733 134.982 133.689 135.142L133.568 135.108C133.524 135.268 133.479 135.426 133.435 135.584L133.555 135.618C133.51 135.777 133.465 135.934 133.42 136.091L133.3 136.056C133.254 136.218 133.207 136.38 133.16 136.54L133.279 136.575C133.232 136.737 133.184 136.899 133.136 137.059L133.016 137.023C132.969 137.183 132.92 137.343 132.872 137.501L132.992 137.538C132.943 137.696 132.895 137.854 132.846 138.011L132.727 137.974C132.678 138.13 132.629 138.286 132.58 138.441L132.699 138.479C132.648 138.64 132.597 138.801 132.545 138.96L132.426 138.922C132.374 139.082 132.322 139.242 132.27 139.4L132.388 139.44C132.336 139.599 132.283 139.756 132.23 139.913L132.112 139.873C132.059 140.03 132.006 140.186 131.953 140.34L132.071 140.381C132.018 140.536 131.964 140.691 131.91 140.844L131.792 140.803C131.736 140.963 131.679 141.123 131.622 141.281L131.74 141.324C131.683 141.482 131.625 141.64 131.568 141.797L131.45 141.753C131.393 141.91 131.335 142.065 131.278 142.219L131.395 142.263C131.337 142.417 131.278 142.57 131.22 142.722L131.103 142.677C131.043 142.833 130.983 142.988 130.922 143.142L131.039 143.188C130.976 143.346 130.914 143.503 130.851 143.658L130.735 143.612C130.673 143.767 130.61 143.921 130.547 144.073L130.662 144.121C130.599 144.274 130.536 144.425 130.472 144.576L130.357 144.527C130.292 144.679 130.228 144.83 130.162 144.98L130.277 145.029C130.209 145.186 130.141 145.341 130.072 145.495L129.958 145.444C129.889 145.597 129.82 145.749 129.751 145.899L129.865 145.951C129.796 146.102 129.726 146.251 129.657 146.398L129.544 146.345C129.473 146.494 129.402 146.642 129.331 146.788L129.443 146.843C129.369 146.997 129.293 147.149 129.218 147.299L129.106 147.243C129.031 147.393 128.955 147.541 128.88 147.687L128.991 147.745C128.914 147.892 128.838 148.037 128.762 148.18L128.651 148.121C128.572 148.268 128.493 148.413 128.414 148.557L128.523 148.617C128.441 148.767 128.358 148.914 128.274 149.059L128.166 148.997C128.083 149.141 128 149.284 127.916 149.424L128.023 149.488C127.939 149.629 127.855 149.768 127.771 149.904L127.664 149.838C127.574 149.984 127.484 150.127 127.393 150.268L127.498 150.336C127.406 150.478 127.314 150.617 127.222 150.754L127.118 150.684C127.026 150.821 126.934 150.954 126.841 151.085L126.944 151.157C126.845 151.296 126.747 151.432 126.648 151.565L126.548 151.491C126.447 151.627 126.346 151.76 126.245 151.889L126.343 151.966C126.241 152.097 126.139 152.224 126.036 152.348L125.94 152.269C125.832 152.399 125.724 152.526 125.616 152.649L125.71 152.731C125.598 152.859 125.485 152.983 125.372 153.103L125.281 153.018C125.169 153.137 125.056 153.253 124.943 153.365L125.031 153.453C124.909 153.574 124.787 153.691 124.664 153.803L124.579 153.711C124.456 153.824 124.333 153.932 124.209 154.035L124.289 154.131C124.161 154.239 124.032 154.341 123.903 154.439L123.827 154.339C123.692 154.441 123.557 154.538 123.422 154.629L123.491 154.733C123.354 154.825 123.216 154.913 123.077 154.995L123.014 154.887C122.869 154.973 122.723 155.052 122.577 155.126L122.633 155.237C122.484 155.312 122.334 155.381 122.183 155.444L122.136 155.328C121.983 155.392 121.83 155.449 121.676 155.498L121.715 155.617C121.555 155.669 121.395 155.714 121.235 155.751L121.207 155.629C121.048 155.666 120.888 155.696 120.729 155.718L120.746 155.842C120.581 155.865 120.415 155.881 120.249 155.889L120.243 155.764C120.162 155.768 120.081 155.77 120 155.77C119.918 155.77 119.837 155.768 119.756 155.764L119.75 155.889C119.584 155.881 119.419 155.865 119.254 155.842L119.271 155.718C119.111 155.696 118.952 155.666 118.793 155.629L118.765 155.751C118.604 155.714 118.444 155.669 118.285 155.617L118.324 155.498C118.17 155.449 118.017 155.392 117.864 155.328L117.816 155.444C117.666 155.381 117.516 155.312 117.366 155.237L117.422 155.126C117.276 155.052 117.131 154.973 116.986 154.887L116.922 154.995C116.784 154.913 116.646 154.825 116.508 154.733L116.578 154.629C116.442 154.538 116.307 154.441 116.172 154.339L116.097 154.439C115.968 154.341 115.839 154.239 115.711 154.131L115.791 154.035C115.667 153.932 115.543 153.824 115.42 153.711L115.336 153.803C115.213 153.691 115.09 153.574 114.968 153.453L115.056 153.364C114.944 153.253 114.831 153.137 114.719 153.018L114.628 153.103C114.515 152.983 114.402 152.859 114.29 152.731L114.384 152.649C114.275 152.525 114.168 152.399 114.06 152.269L113.964 152.348C113.861 152.224 113.758 152.097 113.656 151.966L113.755 151.889C113.653 151.759 113.552 151.627 113.452 151.491L113.351 151.565C113.253 151.432 113.154 151.296 113.056 151.157L113.158 151.085C113.066 150.954 112.973 150.821 112.882 150.684L112.778 150.754C112.686 150.617 112.594 150.478 112.502 150.336L112.607 150.268C112.516 150.127 112.426 149.984 112.335 149.838L112.229 149.904C112.145 149.768 112.06 149.629 111.976 149.488L112.084 149.424C112 149.284 111.917 149.141 111.834 148.997L111.725 149.059C111.642 148.914 111.559 148.767 111.476 148.617L111.586 148.557C111.506 148.413 111.427 148.268 111.348 148.121L111.238 148.18C111.161 148.036 111.085 147.891 111.009 147.745L111.12 147.687C111.044 147.541 110.969 147.393 110.893 147.243L110.782 147.299C110.706 147.149 110.631 146.996 110.556 146.843L110.669 146.788C110.597 146.642 110.527 146.494 110.456 146.345L110.343 146.398C110.273 146.251 110.204 146.102 110.135 145.951L110.248 145.899C110.179 145.749 110.11 145.597 110.042 145.444L109.928 145.495C109.859 145.341 109.791 145.186 109.723 145.029L109.837 144.98C109.772 144.83 109.707 144.679 109.643 144.527L109.528 144.576C109.464 144.425 109.4 144.274 109.337 144.121L109.453 144.073C109.39 143.921 109.327 143.767 109.264 143.612L109.148 143.658C109.086 143.503 109.023 143.346 108.961 143.188L109.077 143.142C109.017 142.988 108.956 142.833 108.896 142.677L108.78 142.722C108.721 142.57 108.663 142.417 108.605 142.263L108.722 142.219C108.664 142.065 108.607 141.91 108.549 141.753L108.432 141.797C108.374 141.64 108.317 141.482 108.26 141.324L108.378 141.281C108.321 141.123 108.264 140.963 108.208 140.803L108.09 140.844C108.036 140.691 107.982 140.536 107.929 140.381L108.047 140.34C107.994 140.186 107.941 140.03 107.888 139.873L107.769 139.913C107.716 139.756 107.664 139.598 107.611 139.44L107.73 139.4C107.678 139.242 107.625 139.082 107.574 138.922L107.455 138.96C107.403 138.801 107.352 138.64 107.3 138.479L107.42 138.441C107.371 138.286 107.322 138.13 107.273 137.974L107.154 138.011C107.105 137.854 107.056 137.696 107.008 137.538L107.127 137.501C107.079 137.343 107.031 137.183 106.983 137.023L106.863 137.059C106.815 136.899 106.768 136.737 106.72 136.575L106.84 136.54C106.793 136.38 106.746 136.218 106.699 136.056L106.579 136.091C106.534 135.934 106.489 135.777 106.445 135.618L106.565 135.584C106.52 135.426 106.476 135.268 106.432 135.108L106.311 135.142C106.267 134.982 106.223 134.821 106.179 134.66L106.299 134.627C106.255 134.466 106.212 134.304 106.168 134.142L106.048 134.174C106.004 134.011 105.961 133.848 105.918 133.684L106.038 133.652C105.997 133.494 105.956 133.336 105.915 133.177L105.794 133.208C105.753 133.049 105.712 132.89 105.671 132.729L105.792 132.699C105.752 132.538 105.711 132.378 105.671 132.216L105.55 132.246C105.509 132.085 105.469 131.922 105.429 131.759L105.551 131.729C105.511 131.567 105.471 131.403 105.432 131.239L105.31 131.268C105.271 131.107 105.233 130.945 105.194 130.783L105.316 130.754C105.278 130.595 105.241 130.435 105.204 130.275L105.082 130.303C105.045 130.142 105.007 129.981 104.97 129.819L105.092 129.791C105.055 129.63 105.019 129.468 104.982 129.305L104.86 129.332C104.823 129.169 104.787 129.005 104.751 128.841L104.873 128.814C104.836 128.65 104.8 128.486 104.764 128.32L104.642 128.347C104.608 128.186 104.573 128.026 104.538 127.864L104.661 127.838C104.626 127.677 104.592 127.516 104.558 127.355L104.436 127.38C104.402 127.219 104.368 127.056 104.335 126.894L104.457 126.868C104.423 126.706 104.39 126.543 104.357 126.379L104.234 126.404C104.201 126.24 104.168 126.075 104.135 125.91L104.257 125.886C104.225 125.721 104.192 125.556 104.159 125.39L104.037 125.414C104.005 125.253 103.974 125.092 103.942 124.931L104.065 124.907C104.034 124.746 104.003 124.584 103.972 124.421L103.849 124.445C103.818 124.282 103.788 124.119 103.757 123.956L103.88 123.933C103.85 123.77 103.819 123.606 103.789 123.441L103.666 123.464C103.636 123.3 103.606 123.135 103.576 122.969L103.699 122.947C103.669 122.782 103.64 122.616 103.61 122.45L103.487 122.472C103.458 122.31 103.43 122.148 103.401 121.986L103.524 121.964C103.496 121.802 103.468 121.64 103.44 121.477L103.317 121.498C103.289 121.335 103.261 121.172 103.233 121.008L103.357 120.987C103.329 120.823 103.302 120.659 103.274 120.495L103.151 120.515C103.124 120.35 103.096 120.185 103.069 120.02L103.193 120C103.166 119.834 103.139 119.668 103.112 119.502L102.989 119.522C102.963 119.358 102.937 119.195 102.911 119.031L103.034 119.011C103.009 118.849 102.983 118.686 102.958 118.523L102.834 118.542C102.809 118.379 102.784 118.215 102.759 118.051L102.882 118.032C102.857 117.869 102.833 117.704 102.808 117.54L102.684 117.558C102.66 117.393 102.635 117.228 102.611 117.063L102.734 117.044C102.71 116.879 102.686 116.713 102.662 116.547L102.538 116.565C102.514 116.399 102.49 116.234 102.467 116.067L102.591 116.05C102.567 115.887 102.545 115.724 102.522 115.561L102.398 115.578C102.375 115.415 102.353 115.251 102.33 115.087L102.454 115.07C102.431 114.906 102.409 114.742 102.387 114.577L102.263 114.594C102.241 114.429 102.219 114.264 102.197 114.099L102.321 114.082C102.299 113.917 102.277 113.751 102.256 113.585L102.132 113.601C102.11 113.435 102.089 113.268 102.067 113.102L102.191 113.086C102.171 112.922 102.15 112.757 102.129 112.592L102.005 112.608C101.985 112.444 101.964 112.28 101.944 112.116L102.068 112.101C102.048 111.937 102.028 111.773 102.008 111.608L101.884 111.623C101.864 111.459 101.845 111.294 101.825 111.128L101.949 111.114C101.93 110.949 101.91 110.783 101.891 110.617L101.767 110.632C101.748 110.466 101.729 110.299 101.71 110.133L101.834 110.119C101.815 109.952 101.796 109.786 101.778 109.619L101.653 109.632C101.635 109.468 101.617 109.304 101.599 109.139L101.723 109.126C101.705 108.962 101.688 108.798 101.67 108.634L101.546 108.647C101.528 108.482 101.511 108.318 101.493 108.152L101.618 108.139C101.6 107.974 101.583 107.809 101.566 107.644L101.442 107.656C101.425 107.491 101.408 107.325 101.391 107.159L101.516 107.146C101.499 106.98 101.482 106.814 101.466 106.647L101.342 106.659C101.325 106.492 101.309 106.325 101.293 106.158L101.417 106.146C101.401 105.982 101.386 105.818 101.37 105.653L101.246 105.665C101.23 105.5 101.215 105.336 101.2 105.171L101.324 105.16C101.309 104.995 101.294 104.83 101.279 104.665L101.154 104.676C101.14 104.511 101.125 104.345 101.11 104.179L101.235 104.168C101.22 104.002 101.206 103.836 101.191 103.67L101.067 103.681C101.052 103.515 101.038 103.348 101.024 103.181L101.149 103.171C101.135 103.004 101.121 102.837 101.107 102.67L100.983 102.68C100.969 102.515 100.956 102.35 100.942 102.185L101.067 102.175C101.054 102.01 101.041 101.846 101.028 101.681L100.903 101.69C100.89 101.525 100.878 101.36 100.865 101.195L100.99 101.185C100.977 101.02 100.965 100.854 100.952 100.688L100.828 100.698C100.815 100.532 100.803 100.366 100.791 100.199L100.916 100.19C100.904 100.024 100.892 99.8573 100.88 99.6905L100.755 99.6993C100.744 99.5324 100.732 99.3654 100.721 99.1981L100.845 99.1895C100.834 99.024 100.823 98.8582 100.812 98.6922L100.687 98.7005C100.676 98.5358 100.665 98.3709 100.655 98.2058L100.779 98.1977C100.769 98.0327 100.758 97.8674 100.748 97.702L100.623 97.7098C100.613 97.5442 100.602 97.3785 100.592 97.2125L100.717 97.2049C100.707 97.0391 100.697 96.873 100.687 96.7067L100.562 96.714C100.553 96.5477 100.543 96.3811 100.533 96.2143L100.658 96.2072C100.649 96.0405 100.639 95.8736 100.63 95.7065L100.505 95.7134C100.496 95.5466 100.487 95.3797 100.478 95.2126L100.603 95.206C100.594 95.0413 100.585 94.8764 100.577 94.7113L100.452 94.7177C100.444 94.5526 100.435 94.3872 100.427 94.2217L100.552 94.2155C100.544 94.05 100.536 93.8843 100.528 93.7185L100.403 93.7245C100.395 93.5586 100.387 93.3924 100.379 93.2262L100.504 93.2204C100.496 93.0542 100.489 92.8878 100.482 92.7212L100.357 92.7267C100.349 92.5601 100.342 92.3932 100.335 92.2262L100.46 92.2209C100.453 92.0539 100.446 91.8868 100.439 91.7194L100.314 91.7245C100.307 91.5589 100.301 91.393 100.294 91.227L100.419 91.2222C100.413 91.0571 100.406 90.8918 100.4 90.7264L100.275 90.731C100.269 90.5655 100.263 90.3998 100.257 90.234L100.382 90.2296C100.376 90.0638 100.371 89.8979 100.365 89.7318L100.24 89.736C100.235 89.5698 100.229 89.4035 100.224 89.2369L100.349 89.2329C100.344 89.0665 100.338 88.8999 100.333 88.7331L100.208 88.7369C100.203 88.57 100.199 88.403 100.194 88.2359L100.319 88.2323C100.314 88.0653 100.309 87.8982 100.305 87.7309L100.18 87.7342C100.176 87.5691 100.171 87.4038 100.167 87.2384L100.292 87.2353C100.288 87.0699 100.284 86.9044 100.28 86.7388L100.155 86.7417C100.152 86.5759 100.148 86.41 100.144 86.244L100.269 86.2413C100.266 86.0753 100.262 85.9092 100.259 85.7429L100.134 85.7454C100.131 85.5791 100.128 85.4126 100.125 85.2459L100.25 85.2437C100.247 85.0771 100.244 84.9104 100.241 84.7435L100.116 84.7456C100.113 84.5786 100.111 84.4115 100.108 84.2443L100.233 84.2425C100.231 84.0761 100.229 83.9095 100.227 83.7428L100.102 83.7443C100.1 83.579 100.098 83.4135 100.096 83.2479L100.221 83.2465C100.219 83.081 100.217 82.9153 100.216 82.7495L100.091 82.7506C100.089 82.5848 100.088 82.4187 100.086 82.2526L100.211 82.2516C100.21 82.0855 100.209 81.9193 100.208 81.753L100.083 81.7537C100.082 81.5873 100.081 81.4207 100.081 81.254L100.206 81.2535C100.205 81.0869 100.204 80.9201 100.204 80.7533L100.079 80.7536C100.078 80.5866 100.078 80.4195 100.078 80.2523L100.203 80.2522L100.203 80.0014L100.203 79.7506L100.078 79.7505C100.078 79.5833 100.078 79.4162 100.079 79.2492L100.204 79.2495C100.204 79.0827 100.205 78.9159 100.206 78.7493L100.081 78.7488C100.081 78.5821 100.082 78.4155 100.083 78.2491L100.208 78.2498C100.209 78.0835 100.21 77.9173 100.211 77.7512L100.086 77.7502C100.088 77.5841 100.089 77.418 100.091 77.2522L100.216 77.2533C100.217 77.0875 100.219 76.9218 100.221 76.7563L100.096 76.7549C100.098 76.5893 100.1 76.4238 100.102 76.2585L100.227 76.26C100.229 76.0933 100.231 75.9267 100.233 75.7603L100.108 75.7585C100.111 75.5913 100.113 75.4242 100.116 75.2572L100.241 75.2593C100.244 75.0924 100.247 74.9257 100.25 74.7591L100.125 74.7569C100.128 74.5902 100.131 74.4238 100.134 74.2574L100.259 74.2599C100.262 74.0936 100.266 73.9275 100.269 73.7615L100.144 73.7588C100.148 73.5928 100.152 73.4269 100.155 73.2612L100.28 73.264C100.284 73.0984 100.288 72.9329 100.292 72.7675L100.167 72.7644C100.171 72.599 100.176 72.4337 100.18 72.2686L100.305 72.2719C100.309 72.1046 100.314 71.9375 100.319 71.7705L100.194 71.767C100.199 71.5998 100.203 71.4328 100.208 71.2659L100.333 71.2697C100.338 71.1029 100.344 70.9363 100.349 70.7699L100.224 70.7659C100.229 70.5994 100.235 70.433 100.24 70.2668L100.365 70.271C100.371 70.1049 100.376 69.939 100.382 69.7732L100.257 69.7688C100.263 69.603 100.269 69.4373 100.275 69.2718L100.4 69.2764C100.406 69.111 100.413 68.9457 100.419 68.7807L100.294 68.7758C100.301 68.6098 100.307 68.444 100.314 68.2783L100.439 68.2834C100.446 68.1161 100.453 67.9489 100.46 67.782L100.335 67.7766C100.342 67.6096 100.349 67.4428 100.357 67.2761L100.482 67.2816C100.489 67.1151 100.496 66.9486 100.504 66.7824L100.379 66.7767C100.387 66.6104 100.395 66.4443 100.403 66.2783L100.528 66.2843C100.536 66.1185 100.544 65.9528 100.552 65.7874L100.427 65.7812C100.435 65.6156 100.444 65.4503 100.452 65.2851L100.577 65.2915C100.585 65.1265 100.594 64.9616 100.603 64.7969L100.478 64.7902C100.487 64.6231 100.496 64.4562 100.505 64.2895L100.63 64.2964C100.639 64.1292 100.649 63.9623 100.658 63.7956L100.533 63.7885C100.543 63.6217 100.553 63.4552 100.562 63.2888L100.687 63.2961C100.697 63.1299 100.707 62.9638 100.717 62.7979L100.592 62.7903C100.602 62.6243 100.613 62.4586 100.623 62.2931L100.748 62.3009C100.758 62.1354 100.769 61.9702 100.779 61.8051L100.655 61.7971C100.665 61.632 100.676 61.4671 100.687 61.3024L100.812 61.3107C100.823 61.1447 100.834 60.9789 100.845 60.8133L100.721 60.8048C100.732 60.6375 100.744 60.4704 100.755 60.3036L100.88 60.3123C100.892 60.1456 100.904 59.979 100.916 59.8127L100.791 59.8037C100.803 59.6373 100.815 59.4711 100.828 59.3052L100.952 59.3144C100.965 59.1486 100.977 58.983 100.99 58.8176L100.865 58.8081C100.878 58.6426 100.89 58.4774 100.903 58.3124L101.028 58.3221C101.041 58.1572 101.054 57.9925 101.067 57.8281L100.942 57.8181C100.956 57.6528 100.969 57.4878 100.983 57.323L101.107 57.3333C101.121 57.166 101.135 56.999 101.149 56.8322L101.024 56.8217C101.038 56.6549 101.052 56.4883 101.067 56.3219L101.191 56.3327C101.206 56.1664 101.22 56.0004 101.235 55.8346L101.11 55.8237C101.125 55.6578 101.14 55.4922 101.154 55.3269L101.279 55.3381C101.294 55.1729 101.309 55.0079 101.324 54.8432L101.2 54.8317C101.215 54.6669 101.23 54.5024 101.246 54.3381L101.37 54.3498C101.386 54.1852 101.401 54.0208 101.417 53.8567L101.293 53.8447C101.309 53.6774 101.325 53.5104 101.342 53.3436L101.466 53.3559C101.482 53.1892 101.499 53.0228 101.516 52.8567L101.391 52.8442C101.408 52.678 101.425 52.5121 101.442 52.3464L101.566 52.3592C101.583 52.1937 101.6 52.0284 101.618 51.8634L101.493 51.8504C101.511 51.6853 101.528 51.5205 101.546 51.356L101.67 51.3693C101.688 51.2049 101.705 51.0408 101.723 50.877L101.599 50.8634C101.617 50.6988 101.635 50.5345 101.653 50.3705L101.778 50.3844C101.796 50.2173 101.815 50.0505 101.834 49.8841L101.71 49.87C101.729 49.7034 101.748 49.5372 101.767 49.3713L101.891 49.3857C101.91 49.2198 101.93 49.0543 101.949 48.8891L101.825 48.8744C101.845 48.7091 101.864 48.5442 101.884 48.3795L102.008 48.3944C102.028 48.2299 102.048 48.0656 102.068 47.9017L101.944 47.8864C101.964 47.7224 101.985 47.5587 102.005 47.3953L102.129 47.4108C102.15 47.2459 102.171 47.0813 102.191 46.9171L102.067 46.9013C102.089 46.7344 102.11 46.5679 102.132 46.4017L102.256 46.4178C102.277 46.2518 102.299 46.086 102.321 45.9207L102.197 45.9043C102.219 45.7388 102.241 45.5737 102.263 45.4089L102.387 45.4256C102.409 45.2609 102.431 45.0966 102.454 44.9326L102.33 44.9156C102.353 44.7515 102.375 44.5878 102.398 44.4244L102.522 44.4417C102.545 44.2785 102.567 44.1155 102.591 43.953L102.467 43.9354C102.49 43.7693 102.514 43.6036 102.538 43.4382L102.662 43.4561C102.686 43.2899 102.71 43.124 102.734 42.9586L102.611 42.9404C102.635 42.7748 102.66 42.6096 102.684 42.4448L102.808 42.4633C102.833 42.2986 102.857 42.1343 102.882 41.9704L102.759 41.9516C102.784 41.7875 102.809 41.6239 102.834 41.4606L102.958 41.4798C102.983 41.3167 103.009 41.1539 103.034 40.9916L102.911 40.9721C102.937 40.8081 102.963 40.6444 102.989 40.4812L103.112 40.501C103.139 40.3347 103.166 40.1688 103.193 40.0034L103.069 39.9832C103.096 39.8177 103.124 39.6525 103.151 39.4878L103.274 39.5083C103.302 39.3437 103.329 39.1796 103.357 39.0159L103.233 38.995C103.261 38.8312 103.289 38.6678 103.317 38.5048L103.44 38.526C103.468 38.3631 103.496 38.2007 103.524 38.0387L103.401 38.0172C103.43 37.8547 103.458 37.6927 103.487 37.5311L103.61 37.5529C103.64 37.3868 103.669 37.221 103.699 37.0558L103.576 37.0336C103.606 36.8682 103.636 36.7033 103.666 36.5389L103.789 36.5615C103.819 36.3972 103.85 36.2334 103.88 36.07L103.757 36.0471C103.788 35.8836 103.818 35.7207 103.849 35.5582L103.972 35.5815C104.003 35.4191 104.034 35.2572 104.065 35.0958L103.942 35.0722C103.974 34.9106 104.005 34.7495 104.037 34.5889L104.159 34.613C104.192 34.4471 104.225 34.2818 104.257 34.117L104.135 34.0925C104.168 33.9275 104.201 33.7631 104.234 33.5993L104.357 33.6241C104.39 33.4604 104.423 33.2972 104.457 33.1345L104.335 33.1092C104.368 32.9464 104.402 32.7841 104.436 32.6224L104.558 32.6481C104.592 32.4865 104.626 32.3254 104.661 32.1649L104.538 32.1388C104.573 31.9773 104.608 31.8164 104.642 31.656L104.764 31.6826C104.8 31.5173 104.836 31.3527 104.873 31.1886L104.751 31.1617C104.787 30.9975 104.823 30.8338 104.86 30.6708L104.982 30.6982C105.019 30.5354 105.055 30.3731 105.092 30.2115L104.97 30.1836C105.007 30.0218 105.045 29.8606 105.082 29.7L105.204 29.7283C105.241 29.5679 105.278 29.408 105.316 29.2488L105.194 29.22C105.233 29.0576 105.271 28.8959 105.31 28.7347L105.432 28.764C105.471 28.5998 105.511 28.4362 105.551 28.2734L105.429 28.2437C105.469 28.0806 105.509 27.9183 105.55 27.7566L105.671 27.7868C105.711 27.6253 105.752 27.4645 105.792 27.3044L105.671 27.2736C105.712 27.1133 105.753 26.9537 105.794 26.7947L105.915 26.826C105.956 26.6669 105.997 26.5086 106.038 26.351L105.918 26.3192C105.961 26.155 106.004 25.9914 106.048 25.8287L106.168 25.861C106.212 25.6984 106.255 25.5366 106.299 25.3755L106.179 25.3427C106.223 25.1815 106.267 25.021 106.311 24.8613L106.432 24.8947C106.476 24.7352 106.52 24.5764 106.565 24.4185L106.445 24.3845C106.489 24.2263 106.534 24.0689 106.579 23.9123L106.699 23.9469C106.746 23.7846 106.793 23.6232 106.84 23.4627L106.72 23.4275C106.768 23.2654 106.815 23.1042 106.863 22.9438L106.983 22.9796C107.031 22.8195 107.079 22.6602 107.127 22.5018L107.008 22.4653C107.056 22.3067 107.105 22.1489 107.154 21.992L107.273 22.0291C107.322 21.8725 107.371 21.7167 107.42 21.5618L107.3 21.524C107.352 21.3627 107.403 21.2023 107.455 21.0428L107.574 21.0813C107.625 20.9207 107.678 20.761 107.73 20.6024L107.611 20.5632C107.664 20.4044 107.716 20.2465 107.769 20.0896L107.888 20.1295C107.941 19.9729 107.994 19.8172 108.047 19.6626L107.929 19.6219C107.982 19.4665 108.036 19.3122 108.09 19.1589L108.208 19.2003C108.264 19.0396 108.321 18.8799 108.378 18.7215L108.26 18.6792C108.317 18.5204 108.374 18.3628 108.432 18.2063L108.549 18.2494C108.607 18.0932 108.664 17.9381 108.722 17.7842L108.605 17.7402C108.663 17.586 108.721 17.4329 108.78 17.281L108.896 17.3258C108.956 17.1696 109.017 17.0145 109.077 16.8607L108.961 16.8149C109.023 16.6568 109.086 16.5 109.148 16.3445L109.264 16.3912C109.327 16.2361 109.39 16.0822 109.453 15.9297L109.337 15.8819C109.4 15.729 109.464 15.5775 109.528 15.4272L109.643 15.476C109.707 15.3237 109.772 15.1728 109.837 15.0233L109.723 14.9734C109.791 14.8168 109.859 14.6617 109.928 14.508L110.042 14.5591C110.11 14.4058 110.179 14.2541 110.248 14.104L110.135 14.0518C110.204 13.9012 110.273 13.7522 110.343 13.6048L110.456 13.6582C110.527 13.5088 110.597 13.3611 110.669 13.215L110.556 13.1603C110.631 13.0063 110.706 12.8542 110.782 12.7038L110.894 12.7599C110.969 12.61 111.044 12.4619 111.12 12.3156L111.009 12.2581C111.085 12.1113 111.162 11.9664 111.238 11.8232L111.348 11.8822C111.427 11.7348 111.506 11.5894 111.586 11.446L111.476 11.3855C111.559 11.2361 111.642 11.0889 111.725 10.9437L111.834 11.006C111.917 10.8614 112 10.719 112.084 10.5787L111.976 10.5147C112.06 10.3739 112.145 10.2351 112.229 10.0986L112.335 10.1644C112.426 10.0187 112.516 9.87549 112.607 9.73482L112.502 9.66701C112.594 9.52499 112.686 9.38553 112.778 9.2486L112.882 9.3185C112.974 9.18228 113.066 9.04863 113.158 8.91756L113.056 8.84547C113.154 8.70657 113.253 8.57053 113.351 8.43736L113.452 8.51184C113.552 8.37607 113.653 8.24335 113.755 8.11371L113.656 8.0367C113.758 7.90619 113.861 7.77875 113.964 7.6544L114.06 7.73404C114.168 7.60396 114.275 7.47732 114.384 7.35416L114.29 7.27164C114.402 7.14391 114.515 7.01984 114.628 6.89947L114.719 6.98508C114.831 6.86575 114.944 6.75017 115.056 6.63832L114.968 6.54956C115.09 6.42851 115.213 6.31177 115.336 6.19937L115.42 6.29164C115.544 6.17908 115.667 6.07097 115.791 5.96738L115.711 5.87146C115.839 5.7643 115.968 5.66185 116.097 5.56415L116.172 5.66383C116.307 5.5618 116.442 5.46509 116.578 5.37375L116.508 5.27006C116.646 5.1774 116.784 5.09012 116.922 5.00827L116.986 5.11591C117.131 5.03021 117.277 4.95065 117.422 4.87729L117.366 4.76562C117.516 4.69041 117.666 4.62152 117.816 4.55902L117.864 4.67445C118.017 4.61101 118.17 4.55432 118.324 4.50444L118.285 4.38556C118.444 4.3338 118.604 4.28918 118.765 4.25181L118.793 4.37356C118.952 4.33653 119.111 4.30679 119.271 4.28438L119.254 4.1606Z" stroke="url(#paint14_linear_4727_1936)" stroke-width="0.25" stroke-dasharray="0.5 0.5"/>
<circle cx="126.5" cy="8.30664" r="1.5" fill="#D9D9D9"/>
<circle cx="131.688" cy="141.5" r="1.5" fill="#D9D9D9"/>
<circle cx="46.5" cy="87.5" r="1.5" fill="#53FEA9"/>
<circle cx="46.5" cy="81.5" r="1.5" fill="#53FEA9"/>
</g>
<defs>
<filter id="filter0_d_4727_1936" x="105.28" y="62.5078" width="48.4912" height="48.4902" filterUnits="userSpaceOnUse" color-interpolation-filters="sRGB">
<feFlood flood-opacity="0" result="BackgroundImageFix"/>
<feColorMatrix in="SourceAlpha" type="matrix" values="0 0 0 0 0 0 0 0 0 0 0 0 0 0 0 0 0 0 127 0" result="hardAlpha"/>
<feOffset/>
<feGaussianBlur stdDeviation="9"/>
<feComposite in2="hardAlpha" operator="out"/>
<feColorMatrix type="matrix" values="0 0 0 0 1 0 0 0 0 1 0 0 0 0 1 0 0 0 0.25 0"/>
<feBlend mode="normal" in2="BackgroundImageFix" result="effect1_dropShadow_4727_1936"/>
<feBlend mode="normal" in="SourceGraphic" in2="effect1_dropShadow_4727_1936" result="shape"/>
</filter>
<filter id="filter1_d_4727_1936" x="95.2068" y="52.2129" width="49.5862" height="49.5859" filterUnits="userSpaceOnUse" color-interpolation-filters="sRGB">
<feFlood flood-opacity="0" result="BackgroundImageFix"/>
<feColorMatrix in="SourceAlpha" type="matrix" values="0 0 0 0 0 0 0 0 0 0 0 0 0 0 0 0 0 0 127 0" result="hardAlpha"/>
<feOffset/>
<feGaussianBlur stdDeviation="9"/>
<feComposite in2="hardAlpha" operator="out"/>
<feColorMatrix type="matrix" values="0 0 0 0 1 0 0 0 0 1 0 0 0 0 1 0 0 0 0.25 0"/>
<feBlend mode="normal" in2="BackgroundImageFix" result="effect1_dropShadow_4727_1936"/>
<feBlend mode="normal" in="SourceGraphic" in2="effect1_dropShadow_4727_1936" result="shape"/>
</filter>
<filter id="filter2_d_4727_1936" x="-3.5" y="37.6133" width="247" height="85" filterUnits="userSpaceOnUse" color-interpolation-filters="sRGB">
<feFlood flood-opacity="0" result="BackgroundImageFix"/>
<feColorMatrix in="SourceAlpha" type="matrix" values="0 0 0 0 0 0 0 0 0 0 0 0 0 0 0 0 0 0 127 0" result="hardAlpha"/>
<feOffset/>
<feGaussianBlur stdDeviation="6.5"/>
<feComposite in2="hardAlpha" operator="out"/>
<feColorMatrix type="matrix" values="0 0 0 0 0 0 0 0 0 1 0 0 0 0 0.7 0 0 0 0.25 0"/>
<feBlend mode="normal" in2="BackgroundImageFix" result="effect1_dropShadow_4727_1936"/>
<feBlend mode="normal" in="SourceGraphic" in2="effect1_dropShadow_4727_1936" result="shape"/>
</filter>
<linearGradient id="paint0_linear_4727_1936" x1="140.277" y1="97.7772" x2="107.043" y2="131.011" gradientUnits="userSpaceOnUse">
<stop stop-color="white"/>
<stop offset="1" stop-color="white" stop-opacity="0"/>
</linearGradient>
<linearGradient id="paint1_linear_4727_1936" x1="137.802" y1="95.3023" x2="109.518" y2="123.587" gradientUnits="userSpaceOnUse">
<stop stop-color="white"/>
<stop offset="1" stop-color="white" stop-opacity="0"/>
</linearGradient>
<linearGradient id="paint2_linear_4727_1936" x1="135.327" y1="92.8274" x2="111.993" y2="116.162" gradientUnits="userSpaceOnUse">
<stop stop-color="white"/>
<stop offset="1" stop-color="white" stop-opacity="0"/>
</linearGradient>
<linearGradient id="paint3_linear_4727_1936" x1="142.398" y1="55.3517" x2="175.632" y2="88.5858" gradientUnits="userSpaceOnUse">
<stop stop-color="white"/>
<stop offset="1" stop-color="white" stop-opacity="0"/>
</linearGradient>
<linearGradient id="paint4_linear_4727_1936" x1="139.923" y1="57.8266" x2="168.208" y2="86.1109" gradientUnits="userSpaceOnUse">
<stop stop-color="white"/>
<stop offset="1" stop-color="white" stop-opacity="0"/>
</linearGradient>
<linearGradient id="paint5_linear_4727_1936" x1="137.449" y1="60.3015" x2="160.783" y2="83.636" gradientUnits="userSpaceOnUse">
<stop stop-color="white"/>
<stop offset="1" stop-color="white" stop-opacity="0"/>
</linearGradient>
<linearGradient id="paint6_linear_4727_1936" x1="99.9728" y1="53.2306" x2="133.207" y2="19.9966" gradientUnits="userSpaceOnUse">
<stop stop-color="white"/>
<stop offset="1" stop-color="white" stop-opacity="0"/>
</linearGradient>
<linearGradient id="paint7_linear_4727_1936" x1="102.448" y1="55.7055" x2="130.732" y2="27.4213" gradientUnits="userSpaceOnUse">
<stop stop-color="white"/>
<stop offset="1" stop-color="white" stop-opacity="0"/>
</linearGradient>
<linearGradient id="paint8_linear_4727_1936" x1="104.923" y1="58.1804" x2="128.257" y2="34.8459" gradientUnits="userSpaceOnUse">
<stop stop-color="white"/>
<stop offset="1" stop-color="white" stop-opacity="0"/>
</linearGradient>
<linearGradient id="paint9_linear_4727_1936" x1="97.8517" y1="95.6561" x2="64.6177" y2="62.4221" gradientUnits="userSpaceOnUse">
<stop stop-color="white"/>
<stop offset="1" stop-color="white" stop-opacity="0"/>
</linearGradient>
<linearGradient id="paint10_linear_4727_1936" x1="100.327" y1="93.1812" x2="72.0423" y2="64.8969" gradientUnits="userSpaceOnUse">
<stop stop-color="white"/>
<stop offset="1" stop-color="white" stop-opacity="0"/>
</linearGradient>
<linearGradient id="paint11_linear_4727_1936" x1="102.801" y1="90.7063" x2="79.467" y2="67.3718" gradientUnits="userSpaceOnUse">
<stop stop-color="white"/>
<stop offset="1" stop-color="white" stop-opacity="0"/>
</linearGradient>
<linearGradient id="paint12_linear_4727_1936" x1="124.181" y1="61.2706" x2="115.746" y2="92.7521" gradientUnits="userSpaceOnUse">
<stop stop-color="white"/>
<stop offset="1" stop-color="white" stop-opacity="0"/>
</linearGradient>
<linearGradient id="paint13_linear_4727_1936" x1="120" y1="51.1133" x2="120" y2="109.113" gradientUnits="userSpaceOnUse">
<stop offset="0.170133" stop-color="#53FDA9" stop-opacity="0"/>
<stop offset="0.878479" stop-color="#53FDA9"/>
</linearGradient>
<linearGradient id="paint14_linear_4727_1936" x1="139.741" y1="79.3093" x2="99.8944" y2="81.678" gradientUnits="userSpaceOnUse">
<stop stop-color="white"/>
<stop offset="1" stop-color="white" stop-opacity="0"/>
</linearGradient>
<clipPath id="clip0_4727_1936">
<rect width="240" height="160" fill="white"/>
</clipPath>
</defs>
</svg>
