<svg width="240" height="160" viewBox="0 0 240 160" fill="none" xmlns="http://www.w3.org/2000/svg">
<g clip-path="url(#clip0_4479_22507)">
<path d="M119.044 43.0637C120.632 43.0637 122.185 42.5927 123.506 41.7101C124.827 40.8276 125.856 39.5732 126.464 38.1055C127.072 36.6379 127.231 35.023 126.921 33.4649C126.611 31.9069 125.846 30.4758 124.723 29.3525C123.6 28.2292 122.169 27.4642 120.611 27.1543C119.053 26.8444 117.438 27.0035 115.97 27.6114C114.503 28.2193 113.248 29.2488 112.366 30.5696C111.483 31.8904 111.012 33.4433 111.012 35.0319C111.012 37.1621 111.858 39.205 113.364 40.7113C114.871 42.2175 116.914 43.0637 119.044 43.0637ZM146.582 54.5379C148.17 54.5379 149.723 54.0668 151.044 53.1842C152.365 52.3017 153.394 51.0473 154.002 49.5796C154.61 48.112 154.769 46.4971 154.459 44.939C154.149 43.381 153.384 41.9499 152.261 40.8266C151.138 39.7033 149.707 38.9383 148.149 38.6284C146.591 38.3185 144.976 38.4776 143.508 39.0855C142.04 39.6934 140.786 40.7229 139.903 42.0437C139.021 43.3645 138.55 44.9174 138.55 46.506C138.55 48.6362 139.396 50.6791 140.902 52.1854C142.409 53.6916 144.451 54.5379 146.582 54.5379ZM158.056 82.0757C159.111 82.0757 160.155 81.8679 161.129 81.4643C162.104 81.0607 162.989 80.469 163.735 79.7232C164.481 78.9774 165.073 78.092 165.476 77.1175C165.88 76.143 166.088 75.0986 166.088 74.0438C166.088 72.9891 165.88 71.9446 165.476 70.9702C165.073 69.9957 164.481 69.1103 163.735 68.3644C162.989 67.6186 162.104 67.027 161.129 66.6233C160.155 66.2197 159.111 66.012 158.056 66.012C157.001 66.012 155.957 66.2197 154.982 66.6233C154.008 67.027 153.122 67.6186 152.376 68.3644C151.631 69.1103 151.039 69.9957 150.635 70.9702C150.232 71.9446 150.024 72.9891 150.024 74.0438C150.024 75.0986 150.232 76.143 150.635 77.1175C151.039 78.092 151.631 78.9774 152.376 79.7232C153.122 80.469 154.008 81.0607 154.982 81.4643C155.957 81.8679 157.001 82.0757 158.056 82.0757ZM146.582 109.614C147.628 109.786 148.699 109.749 149.732 109.506C150.764 109.262 151.738 108.817 152.598 108.194C153.457 107.572 154.185 106.786 154.739 105.881C155.292 104.976 155.661 103.97 155.824 102.922C155.987 101.874 155.941 100.803 155.688 99.7732C155.435 98.7428 154.98 97.7728 154.35 96.9192C153.72 96.0655 152.927 95.3452 152.017 94.7997C151.107 94.2542 150.098 93.8944 149.049 93.741C148.232 93.6076 147.399 93.6076 146.582 93.741C144.688 94.0358 142.963 94.9977 141.717 96.453C140.47 97.9083 139.785 99.7613 139.785 101.677C139.785 103.593 140.47 105.446 141.717 106.902C142.963 108.357 144.688 109.319 146.582 109.614ZM119.044 121.088C120.632 121.088 122.185 120.617 123.506 119.734C124.827 118.851 125.856 117.597 126.464 116.129C127.072 114.662 127.231 113.047 126.921 111.489C126.611 109.931 125.846 108.5 124.723 107.376C123.6 106.253 122.169 105.488 120.611 105.178C119.053 104.868 117.438 105.027 115.97 105.635C114.503 106.243 113.248 107.273 112.366 108.594C111.483 109.914 111.012 111.467 111.012 113.056C111.012 115.186 111.858 117.229 113.364 118.735C114.871 120.241 116.914 121.088 119.044 121.088ZM91.506 109.614C92.5528 109.786 93.6234 109.749 94.656 109.506C95.6886 109.262 96.6627 108.817 97.5221 108.194C98.3815 107.572 99.1091 106.786 99.6629 105.881C100.217 104.976 100.586 103.97 100.749 102.922C100.912 101.874 100.865 100.803 100.612 99.7732C100.359 98.7428 99.9045 97.7728 99.2745 96.9192C98.6445 96.0655 97.8517 95.3452 96.9417 94.7997C96.0317 94.2542 95.0227 93.8944 93.9729 93.741C93.156 93.6076 92.3229 93.6076 91.506 93.741C89.6128 94.0358 87.8873 94.9977 86.641 96.453C85.3947 97.9083 84.7098 99.7613 84.7098 101.677C84.7098 103.593 85.3947 105.446 86.641 106.902C87.8873 108.357 89.6128 109.319 91.506 109.614ZM80.0319 82.0757C81.6204 82.0757 83.1733 81.6046 84.4941 80.7221C85.815 79.8395 86.8444 78.5851 87.4524 77.1175C88.0603 75.6499 88.2193 74.0349 87.9094 72.4769C87.5995 70.9189 86.8345 69.4877 85.7113 68.3644C84.588 67.2412 83.1568 66.4762 81.5988 66.1663C80.0408 65.8564 78.4258 66.0154 76.9582 66.6233C75.4906 67.2313 74.2362 68.2607 73.3536 69.5816C72.4711 70.9024 72 72.4553 72 74.0438C72 76.174 72.8462 78.217 74.3525 79.7232C75.8587 81.2295 77.9017 82.0757 80.0319 82.0757ZM91.506 54.5379C93.0945 54.5379 94.6474 54.0668 95.9682 53.1842C97.2891 52.3017 98.3185 51.0473 98.9265 49.5796C99.5344 48.112 99.6934 46.4971 99.3835 44.939C99.0736 43.381 98.3086 41.9499 97.1854 40.8266C96.0621 39.7033 94.6309 38.9383 93.0729 38.6284C91.5149 38.3185 89.8999 38.4776 88.4323 39.0855C86.9647 39.6934 85.7103 40.7229 84.8277 42.0437C83.9452 43.3645 83.4741 44.9174 83.4741 46.506C83.4741 48.6362 84.3203 50.6791 85.8266 52.1854C87.3329 53.6916 89.3758 54.5379 91.506 54.5379Z" stroke="white" stroke-miterlimit="10" stroke-linecap="round"/>
<path d="M122.056 78.5731C121.151 79.1774 120.088 79.5 119 79.5C117.541 79.5 116.142 78.9205 115.111 77.8891C114.079 76.8576 113.5 75.4587 113.5 74C113.5 72.9122 113.823 71.8488 114.427 70.9444C115.031 70.0399 115.89 69.3349 116.895 68.9187C117.9 68.5024 119.006 68.3935 120.073 68.6057C121.14 68.8179 122.12 69.3417 122.889 70.1109C123.658 70.8801 124.182 71.8601 124.394 72.927C124.607 73.9939 124.498 75.0998 124.081 76.1048C123.665 77.1098 122.96 77.9687 122.056 78.5731Z" stroke="#53FDA9" stroke-width="5" stroke-miterlimit="10" stroke-linecap="round"/>
<path d="M134.241 65.4442C134.241 65.4442 145.661 64.9405 152.693 77.1196M135.691 78.5036C135.691 78.5036 144.096 86.299 140.433 99.9682M127.487 89.1739C127.487 89.1739 127.99 100.594 115.627 107.576M114.612 90.6737C111.808 93.2684 108.359 95.0642 104.626 95.8743C101.273 96.6016 97.8014 96.5106 94.5016 95.6166M104.176 82.3339C100.315 82.3256 96.5301 81.2637 93.2286 79.2626C89.927 77.2615 87.2343 74.3972 85.4407 70.9784M102.257 69.5449C102.257 69.5449 93.853 61.7496 97.7004 48.1299M110.597 59.1088C110.734 55.2578 111.908 51.5152 113.996 48.2763C116.083 45.0373 119.007 42.4221 122.457 40.7068" stroke="url(#paint0_radial_4479_22507)" stroke-miterlimit="10" stroke-linecap="round"/>
<path d="M123.62 57.0546C123.62 57.0546 131.181 48.7856 144.85 52.4482" stroke="url(#paint1_radial_4479_22507)" stroke-miterlimit="10" stroke-linecap="round"/>
<g filter="url(#filter0_d_4479_22507)">
<ellipse cx="118.763" cy="80.1147" rx="110" ry="29" transform="rotate(30 118.763 80.1147)" stroke="url(#paint2_linear_4479_22507)" stroke-linecap="round" stroke-linejoin="round" stroke-dasharray="2 2" shape-rendering="crispEdges"/>
</g>
<path d="M213.621 24.4859C213.718 24.6213 213.81 24.7595 213.897 24.9007L213.791 24.9667C213.834 25.0361 213.876 25.1063 213.917 25.1772C213.958 25.2482 213.998 25.3197 214.037 25.3918L214.147 25.3328C214.225 25.4793 214.299 25.6282 214.368 25.7794L214.254 25.8313C214.322 25.9801 214.385 26.1312 214.444 26.2846L214.561 26.24C214.62 26.3941 214.674 26.5505 214.724 26.7091L214.605 26.7466C214.653 26.901 214.697 27.0577 214.737 27.2165L214.858 27.1861C214.898 27.3473 214.934 27.5106 214.966 27.676L214.843 27.6993C214.873 27.8591 214.9 28.021 214.922 28.1848L215.046 28.1681C215.068 28.3294 215.085 28.4925 215.099 28.6575L214.975 28.668C214.988 28.831 214.998 28.9959 215.004 29.1626L215.129 29.1581C215.135 29.3248 215.137 29.4932 215.136 29.6634L215.011 29.6622C215.009 29.8214 215.004 29.9822 214.996 30.1446L215.121 30.1509C215.113 30.315 215.101 30.4807 215.086 30.6479L214.961 30.6367C214.947 30.8023 214.928 30.9695 214.907 31.1383L215.031 31.1541C215.01 31.315 214.987 31.4773 214.961 31.641L214.837 31.6211C214.811 31.7799 214.783 31.94 214.752 32.1015L214.874 32.1252C214.843 32.2879 214.809 32.4518 214.772 32.617L214.65 32.5896C214.613 32.7537 214.573 32.919 214.531 33.0855L214.652 33.1164C214.612 33.2711 214.571 33.427 214.527 33.5838L214.406 33.55C214.362 33.7057 214.316 33.8625 214.268 34.0203L214.387 34.057C214.339 34.2157 214.287 34.3755 214.234 34.5363L214.115 34.4969C214.062 34.6568 214.007 34.8177 213.949 34.9797L214.067 35.0217C214.013 35.1728 213.957 35.3247 213.899 35.4775L213.782 35.4332C213.725 35.5844 213.666 35.7364 213.605 35.8893L213.721 35.9357C213.659 36.0893 213.596 36.2437 213.531 36.3989L213.415 36.3504C213.35 36.505 213.283 36.6604 213.215 36.8166L213.329 36.867C213.262 37.0176 213.194 37.169 213.124 37.3211L213.011 37.2689C212.944 37.4149 212.875 37.5616 212.804 37.709L212.917 37.7629C212.846 37.9109 212.774 38.0595 212.7 38.2088L212.588 38.1533C212.514 38.3021 212.439 38.4515 212.362 38.6016L212.473 38.6587C212.396 38.8093 212.317 38.9606 212.237 39.1125L212.126 39.0541C212.05 39.1971 211.973 39.3408 211.895 39.4851L212.004 39.5449C211.927 39.6873 211.848 39.8301 211.767 39.9736L211.658 39.9125C211.578 40.0555 211.497 40.1991 211.414 40.3432L211.522 40.4055C211.439 40.5501 211.355 40.6952 211.269 40.8408L211.161 40.7773C211.076 40.9226 210.989 41.0684 210.9 41.2147L211.007 41.2793C210.923 41.4195 210.837 41.5602 210.75 41.7013L210.643 41.6357C210.558 41.7732 210.472 41.9112 210.385 42.0497L210.491 42.1163C210.403 42.2551 210.315 42.3944 210.225 42.5341L210.12 42.4665C210.03 42.6059 209.94 42.7457 209.848 42.886L209.952 42.9545C209.86 43.0951 209.767 43.2361 209.672 43.3776L209.568 43.3082C209.475 43.4477 209.381 43.5877 209.286 43.7281L209.389 43.7984C209.298 43.9318 209.207 44.0657 209.114 44.1999L209.011 44.1289C208.957 44.2077 208.902 44.2866 208.847 44.3656C208.808 44.421 208.769 44.4764 208.73 44.5319L208.833 44.6037C208.738 44.7387 208.642 44.8741 208.546 45.0098L208.444 44.9372C208.347 45.0727 208.25 45.2086 208.151 45.3448L208.252 45.4181C208.154 45.5545 208.054 45.6913 207.953 45.8285L207.852 45.7546C207.754 45.8888 207.654 46.0234 207.554 46.1583L207.654 46.233C207.557 46.3628 207.46 46.493 207.361 46.6235L207.262 46.5483C207.163 46.6786 207.064 46.8092 206.964 46.9401L207.064 47.016C206.963 47.1471 206.862 47.2785 206.76 47.4103L206.661 47.3338C206.56 47.4653 206.457 47.5972 206.354 47.7294L206.452 47.8064C206.348 47.9388 206.244 48.0714 206.138 48.2044L206.04 48.1268C205.936 48.2586 205.831 48.3906 205.725 48.523L205.822 48.6012C205.721 48.7275 205.619 48.8541 205.516 48.981L205.419 48.9023C205.316 49.0289 205.213 49.1559 205.108 49.2831L205.205 49.3623C205.101 49.4896 204.996 49.6173 204.89 49.7451L204.794 49.6654C204.688 49.7931 204.581 49.9211 204.474 50.0493L204.57 50.1295C204.463 50.2579 204.355 50.3866 204.246 50.5154L204.15 50.4348C204.041 50.5635 203.932 50.6925 203.822 50.8217L203.917 50.9029C203.81 51.0285 203.702 51.1544 203.593 51.2805L203.499 51.1989C203.392 51.3221 203.286 51.4455 203.178 51.5691L203.273 51.6511C203.165 51.7748 203.057 51.8988 202.948 52.023L202.854 51.9406C202.745 52.0646 202.636 52.1889 202.526 52.3134L202.62 52.3962C202.509 52.5208 202.398 52.6456 202.287 52.7707L202.194 52.6875C202.082 52.8124 201.97 52.9375 201.857 53.0628L201.95 53.1464C201.838 53.2719 201.724 53.3975 201.61 53.5234L201.517 53.4394C201.407 53.5612 201.296 53.6832 201.184 53.8054L201.276 53.8898C201.166 54.0101 201.056 54.1306 200.945 54.2513L200.853 54.1666C200.742 54.2872 200.63 54.408 200.518 54.5289L200.609 54.614C200.497 54.735 200.384 54.8563 200.27 54.9777L200.179 54.8923C200.066 55.0136 199.952 55.1351 199.837 55.2568L199.928 55.3425C199.813 55.4643 199.698 55.5862 199.582 55.7084L199.491 55.6223C199.376 55.7443 199.259 55.8665 199.142 55.9889L199.233 56.0752C199.118 56.1955 199.002 56.3159 198.886 56.4364L198.796 56.3497C198.683 56.4671 198.57 56.5846 198.456 56.7022L198.545 56.7892C198.431 56.9069 198.317 57.0248 198.202 57.1429L198.112 57.0556C198.053 57.1163 197.994 57.177 197.934 57.2377C197.885 57.2879 197.836 57.3381 197.787 57.3884C197.779 57.3955 197.772 57.4027 197.765 57.4099L197.855 57.4975C197.738 57.6158 197.622 57.7343 197.504 57.8529L197.416 57.7651C197.298 57.8836 197.181 58.0023 197.063 58.1212L197.151 58.2093C197.033 58.3282 196.914 58.4473 196.795 58.5665L196.706 58.4781C196.587 58.5972 196.467 58.7165 196.347 58.8359L196.435 58.9246C196.319 59.04 196.202 59.1556 196.085 59.2713L195.997 59.1823C195.881 59.2971 195.764 59.4121 195.647 59.5271L195.735 59.6164C195.617 59.7315 195.499 59.8468 195.381 59.9622L195.294 59.8727C195.176 59.988 195.057 60.1035 194.938 60.2191L195.025 60.3088C194.906 60.4244 194.786 60.5402 194.666 60.6561L194.579 60.5661C194.459 60.6819 194.338 60.7979 194.217 60.9139L194.304 61.0041C194.183 61.1203 194.061 61.2365 193.939 61.3529L193.853 61.2624C193.731 61.3787 193.609 61.4951 193.486 61.6117L193.572 61.7024C193.453 61.8148 193.334 61.9274 193.215 62.0401L193.129 61.9492C193.01 62.0615 192.89 62.1739 192.77 62.2865L192.856 62.3776C192.736 62.4902 192.616 62.6029 192.495 62.7158L192.409 62.6244C192.368 62.6629 192.327 62.7014 192.286 62.74C192.206 62.8142 192.126 62.8886 192.046 62.963L192.131 63.0545C192.009 63.1676 191.887 63.2807 191.765 63.3939L191.68 63.3021C191.557 63.4153 191.435 63.5285 191.311 63.6419L191.396 63.7339C191.273 63.8473 191.149 63.9608 191.025 64.0744L190.94 63.9822C190.816 64.0958 190.692 64.2094 190.567 64.3232L190.651 64.4156C190.529 64.5265 190.407 64.6375 190.284 64.7485L190.2 64.6559C190.079 64.7658 189.957 64.8758 189.835 64.9859L189.919 65.0787C189.797 65.1889 189.674 65.2991 189.551 65.4094L189.468 65.3164C189.345 65.4266 189.222 65.537 189.098 65.6474L189.181 65.7406C189.058 65.8511 188.934 65.9617 188.809 66.0723L188.726 65.9789C188.664 66.0344 188.601 66.0898 188.539 66.1453C188.477 66.2005 188.414 66.2557 188.352 66.3109L188.435 66.4045C188.31 66.5153 188.184 66.6262 188.058 66.7372L187.975 66.6434C187.85 66.7543 187.723 66.8653 187.597 66.9763L187.679 67.0703C187.553 67.1806 187.427 67.2911 187.301 67.4016L187.218 67.3074C187.095 67.415 186.972 67.5226 186.848 67.6303L186.93 67.7247C186.806 67.8324 186.682 67.9403 186.557 68.0482L186.475 67.9536C186.35 68.0615 186.226 68.1694 186.1 68.2774L186.182 68.3721C186.057 68.4801 185.931 68.5882 185.805 68.6964L185.723 68.6015C185.597 68.7096 185.471 68.8178 185.345 68.9261L185.426 69.0211C185.299 69.1294 185.172 69.2378 185.045 69.3462L184.964 69.251C184.891 69.3126 184.819 69.3741 184.746 69.4357C184.691 69.4826 184.636 69.5294 184.581 69.5763L184.661 69.6717C184.533 69.7803 184.405 69.8889 184.276 69.9976L184.195 69.902C184.068 70.0093 183.941 70.1166 183.813 70.224L183.894 70.3197C183.768 70.4252 183.642 70.5307 183.516 70.6363L183.436 70.5404C183.31 70.646 183.184 70.7516 183.057 70.8572L183.137 70.9532C183.01 71.0589 182.883 71.1647 182.756 71.2705L182.676 71.1743L182.556 71.2741C182.469 71.3466 182.381 71.4191 182.293 71.4917L182.373 71.588C182.245 71.6939 182.117 71.7999 181.988 71.9059L181.909 71.8095C181.78 71.9154 181.651 72.0214 181.522 72.1275L181.601 72.2241C181.472 72.3302 181.342 72.4364 181.213 72.5426L181.133 72.4458C181.004 72.552 180.874 72.6582 180.743 72.7645L180.822 72.8614C180.693 72.9667 180.563 73.072 180.434 73.1774L180.355 73.0804C180.227 73.1837 180.1 73.2871 179.972 73.3905L180.051 73.4877C179.923 73.5911 179.794 73.6946 179.666 73.7982L179.587 73.7008C179.459 73.8043 179.33 73.9079 179.201 74.0114L179.28 74.1089C179.15 74.2125 179.021 74.3162 178.891 74.4199L178.813 74.3223C178.684 74.426 178.554 74.5296 178.424 74.6334L178.502 74.7311C178.371 74.8349 178.241 74.9387 178.11 75.0426L178.032 74.9447C177.902 75.0485 177.771 75.1524 177.639 75.2563L177.717 75.3543C177.585 75.4582 177.454 75.5622 177.322 75.6662L177.245 75.5681C177.113 75.672 176.98 75.776 176.848 75.88L176.925 75.9783C176.796 76.0797 176.667 76.1811 176.537 76.2825L176.46 76.1841C176.331 76.2854 176.201 76.3868 176.071 76.4882L176.148 76.5867C176.018 76.6882 175.888 76.7897 175.757 76.8912L175.68 76.7925C175.55 76.8939 175.419 76.9954 175.288 77.097L175.365 77.1958C175.234 77.2973 175.102 77.3989 174.971 77.5005L174.894 77.4016C174.763 77.5032 174.631 77.6048 174.499 77.7064L174.575 77.8055C174.443 77.9072 174.31 78.0089 174.178 78.1106L174.102 78.0114C173.969 78.1131 173.836 78.2148 173.703 78.3166L173.779 78.4159C173.646 78.5177 173.513 78.6195 173.379 78.7213L173.303 78.6219C173.171 78.7227 173.038 78.8235 172.905 78.9244L172.981 79.0239C172.85 79.1233 172.719 79.2227 172.587 79.3221L172.512 79.2224C172.381 79.3218 172.249 79.4212 172.117 79.5206L172.193 79.6204C172.061 79.7198 171.929 79.8193 171.796 79.9188L171.721 79.8189C171.589 79.9183 171.456 80.0178 171.324 80.1173L171.399 80.2173C171.266 80.3169 171.133 80.4164 170.999 80.516L170.924 80.4158C170.791 80.5154 170.658 80.6149 170.524 80.7145L170.599 80.8147C170.465 80.9143 170.331 81.0139 170.197 81.1136L170.122 81.0132C169.988 81.1128 169.853 81.2124 169.719 81.312L169.793 81.4125C169.658 81.5122 169.523 81.6119 169.388 81.7116L169.314 81.611C169.181 81.7094 169.047 81.8078 168.913 81.9062L168.987 82.007C168.854 82.1044 168.722 82.2018 168.589 82.2993L168.515 82.1985C168.382 82.2959 168.249 82.3933 168.115 82.4908L168.189 82.5917C168.055 82.6892 167.922 82.7867 167.788 82.8842L167.714 82.7832C167.58 82.8806 167.446 82.9781 167.312 83.0756L167.385 83.1767C167.251 83.2743 167.116 83.3718 166.982 83.4694L166.908 83.3681C166.774 83.4656 166.639 83.5631 166.504 83.6606L166.577 83.762C166.441 83.8596 166.306 83.9571 166.17 84.0547L166.097 83.9532C166.056 83.9829 166.015 84.0125 165.974 84.0421C165.955 84.0556 165.936 84.069 165.917 84.0825C165.842 84.137 165.766 84.1914 165.69 84.2459L165.763 84.3475C165.627 84.445 165.49 84.5426 165.354 84.6402L165.281 84.5386C165.146 84.6351 165.011 84.7317 164.875 84.8283L164.948 84.9301C164.813 85.0257 164.679 85.1212 164.545 85.2167L164.472 85.1148C164.412 85.1575 164.352 85.2001 164.292 85.2427C164.232 85.2857 164.171 85.3287 164.11 85.3716C164.096 85.3815 164.082 85.3915 164.068 85.4014L164.141 85.5034C164.006 85.5989 163.871 85.6945 163.735 85.79L163.663 85.6879C163.528 85.7834 163.393 85.879 163.257 85.9745L163.329 86.0767C163.193 86.1723 163.057 86.2678 162.921 86.3634L162.849 86.2611C162.713 86.3566 162.577 86.4521 162.441 86.5476L162.512 86.6501C162.376 86.7456 162.239 86.8412 162.102 86.9367L162.031 86.8342C161.97 86.8766 161.909 86.919 161.848 86.9613C161.834 86.9711 161.82 86.9809 161.806 86.9907C161.744 87.034 161.682 87.0774 161.619 87.1208L161.691 87.2234C161.553 87.319 161.416 87.4145 161.278 87.5101L161.207 87.4074C161.07 87.5025 160.932 87.5977 160.795 87.6929L160.866 87.7957C160.731 87.8894 160.595 87.983 160.459 88.0767L160.388 87.9738C160.252 88.0674 160.117 88.161 159.98 88.2546L160.051 88.3576C159.915 88.4513 159.779 88.5449 159.642 88.6386L159.572 88.5355C159.435 88.6291 159.298 88.7227 159.161 88.8163L159.232 88.9195C159.095 89.0131 158.958 89.1067 158.821 89.2003L158.75 89.097C158.613 89.1906 158.476 89.2842 158.338 89.3778L158.408 89.4811C158.271 89.5747 158.133 89.6683 157.995 89.7619L157.925 89.6584C157.787 89.752 157.648 89.8455 157.51 89.9391L157.58 90.0426C157.442 90.1362 157.303 90.2297 157.164 90.3233L157.094 90.2196C156.956 90.3132 156.817 90.4067 156.677 90.5002L156.747 90.6039C156.61 90.6963 156.472 90.7886 156.334 90.881L156.265 90.7771C156.128 90.8689 155.991 90.9607 155.853 91.0524L155.923 91.1563C155.786 91.2481 155.648 91.3399 155.51 91.4317L155.441 91.3276C155.303 91.4194 155.166 91.5111 155.028 91.6028L155.097 91.7069C154.959 91.7986 154.821 91.8903 154.682 91.982L154.613 91.8778C154.475 91.9695 154.336 92.0612 154.198 92.1528L154.267 92.2571C154.128 92.3488 153.989 92.4405 153.85 92.5321L153.781 92.4277C153.642 92.5194 153.503 92.611 153.363 92.7025L153.432 92.807C153.293 92.8986 153.153 92.9902 153.013 93.0818L152.945 92.9773C152.805 93.0688 152.665 93.1604 152.525 93.2519L152.593 93.3565C152.453 93.4481 152.313 93.5396 152.173 93.6311L152.104 93.5264C152.015 93.5845 151.926 93.6426 151.837 93.7006L151.69 93.7963L151.758 93.9011C151.619 93.991 151.481 94.081 151.342 94.1709L151.274 94.066C151.135 94.1559 150.996 94.2457 150.857 94.3356L150.925 94.4406C150.786 94.5304 150.647 94.6203 150.508 94.7101L150.44 94.605C150.301 94.6948 150.161 94.7846 150.021 94.8744L150.089 94.9796C149.949 95.0694 149.809 95.1591 149.669 95.2489L149.602 95.1436C149.462 95.2334 149.322 95.3231 149.181 95.4128L149.249 95.5181C149.108 95.6078 148.968 95.6975 148.827 95.7871L148.76 95.6817C148.619 95.7714 148.479 95.861 148.338 95.9506L148.405 96.0561C148.264 96.1457 148.123 96.2353 147.981 96.3249L147.914 96.2193C147.773 96.3087 147.632 96.3981 147.491 96.4874L147.558 96.5931C147.418 96.6812 147.279 96.7693 147.139 96.8574L147.072 96.7517C146.932 96.8398 146.793 96.9278 146.653 97.0158L146.719 97.1216C146.579 97.2097 146.439 97.2977 146.299 97.3857L146.232 97.2798C146.092 97.3678 145.951 97.4557 145.811 97.5436L145.877 97.6496C145.736 97.7376 145.596 97.8255 145.455 97.9134L145.389 97.8073C145.248 97.8952 145.107 97.983 144.965 98.0708L145.031 98.177C144.89 98.2648 144.749 98.3526 144.607 98.4404L144.541 98.3342C144.4 98.422 144.258 98.5097 144.116 98.5974L144.182 98.7037C144.04 98.7914 143.898 98.8791 143.756 98.9668L143.691 98.8604C143.549 98.9481 143.406 99.0357 143.264 99.1233L143.329 99.2297C143.187 99.3173 143.045 99.4048 142.902 99.4922L142.837 99.3857L142.414 99.6445L142.48 99.7511C142.339 99.8373 142.198 99.9236 142.056 100.01L141.991 99.903L141.567 100.161L141.632 100.268C141.491 100.354 141.349 100.44 141.207 100.527L141.142 100.42L140.717 100.678L140.781 100.785C140.639 100.871 140.497 100.957 140.355 101.043L140.29 100.936L139.863 101.193L139.927 101.3C139.785 101.386 139.642 101.472 139.499 101.558L139.435 101.451L139.006 101.708L139.07 101.815C138.927 101.901 138.783 101.987 138.64 102.072L138.576 101.965L138.145 102.222L138.209 102.329C138.067 102.414 137.925 102.498 137.782 102.583L137.718 102.475L137.292 102.728L137.355 102.836C137.213 102.92 137.071 103.005 136.928 103.089L136.864 102.981L136.436 103.234L136.5 103.342C136.357 103.426 136.214 103.51 136.071 103.594L136.007 103.486L135.577 103.738L135.641 103.846C135.497 103.93 135.354 104.014 135.21 104.098L135.147 103.99L134.716 104.242L134.779 104.35C134.635 104.434 134.491 104.518 134.346 104.602L134.284 104.494L133.851 104.745L133.914 104.853C133.769 104.937 133.625 105.02 133.48 105.104L133.417 104.996L133.2 105.121L132.983 105.247L133.046 105.355C132.901 105.438 132.756 105.522 132.611 105.605L132.549 105.496L132.115 105.746L132.177 105.854C132.033 105.937 131.888 106.02 131.743 106.103L131.681 105.994L131.248 106.242L131.31 106.35C131.165 106.433 131.02 106.515 130.876 106.597L130.814 106.489L130.381 106.735L130.443 106.843C130.298 106.925 130.154 107.007 130.009 107.089L129.948 106.98L129.515 107.224L129.576 107.333C129.432 107.415 129.288 107.496 129.144 107.577L129.082 107.468L128.65 107.711L128.711 107.82C128.567 107.901 128.422 107.982 128.278 108.063L128.217 107.954L127.779 108.198L127.84 108.307C127.694 108.389 127.548 108.47 127.402 108.551L127.342 108.442L126.904 108.685L126.965 108.794C126.819 108.875 126.673 108.956 126.528 109.036L126.467 108.927L126.03 109.168L126.091 109.278C125.945 109.358 125.8 109.438 125.654 109.518L125.594 109.409L125.158 109.648L125.218 109.758C125.072 109.838 124.927 109.917 124.781 109.997L124.721 109.887L124.286 110.125L124.346 110.235C124.2 110.314 124.055 110.393 123.91 110.472L123.85 110.363L123.415 110.599L123.474 110.709C123.327 110.789 123.18 110.868 123.033 110.948L122.974 110.838C122.908 110.874 122.841 110.909 122.775 110.945C122.694 110.989 122.614 111.032 122.533 111.076L122.592 111.186C122.445 111.265 122.298 111.344 122.152 111.423L122.092 111.313C122.026 111.349 121.96 111.384 121.893 111.42C121.813 111.463 121.732 111.506 121.652 111.549L121.711 111.66C121.564 111.738 121.417 111.817 121.271 111.895L121.212 111.785C121.065 111.863 120.919 111.942 120.772 112.02L120.831 112.13C120.684 112.208 120.538 112.286 120.391 112.364L120.333 112.253C120.186 112.331 120.04 112.409 119.893 112.486L119.952 112.597C119.806 112.674 119.659 112.752 119.513 112.829L119.455 112.719C119.308 112.796 119.162 112.873 119.016 112.95L119.074 113.06C118.928 113.137 118.782 113.214 118.636 113.291L118.578 113.18C118.43 113.258 118.282 113.336 118.134 113.413L118.192 113.524C118.044 113.601 117.895 113.679 117.747 113.756L117.69 113.645C117.541 113.723 117.393 113.8 117.246 113.877L117.303 113.988C117.155 114.065 117.007 114.141 116.859 114.218L116.802 114.107C116.654 114.184 116.506 114.26 116.359 114.337L116.416 114.448C116.268 114.524 116.121 114.6 115.973 114.676L115.916 114.565C115.768 114.641 115.621 114.717 115.473 114.793L115.53 114.904C115.383 114.98 115.235 115.056 115.088 115.131L115.031 115.02C114.884 115.095 114.736 115.171 114.589 115.246L114.646 115.357C114.499 115.432 114.352 115.508 114.205 115.582L114.148 115.471C114.063 115.514 113.978 115.558 113.892 115.601C113.831 115.632 113.769 115.664 113.707 115.695L113.763 115.807C113.614 115.883 113.464 115.958 113.315 116.034L113.259 115.922C113.109 115.998 112.96 116.073 112.811 116.148L112.867 116.26C112.718 116.335 112.569 116.41 112.42 116.485L112.364 116.374C112.215 116.449 112.066 116.523 111.917 116.598L111.973 116.71C111.824 116.784 111.675 116.859 111.526 116.933L111.471 116.821C111.322 116.896 111.173 116.97 111.025 117.044L111.08 117.156C110.932 117.23 110.783 117.303 110.635 117.377L110.579 117.265C110.431 117.339 110.282 117.412 110.134 117.486L110.19 117.598C110.041 117.671 109.893 117.744 109.745 117.817L109.69 117.705C109.629 117.735 109.569 117.765 109.508 117.794C109.421 117.838 109.333 117.881 109.246 117.924L109.301 118.036C109.152 118.109 109.003 118.182 108.854 118.255L108.799 118.143C108.649 118.216 108.498 118.29 108.348 118.363L108.403 118.476C108.253 118.549 108.102 118.622 107.952 118.695L107.897 118.583C107.747 118.656 107.597 118.729 107.447 118.802L107.501 118.914C107.351 118.987 107.201 119.059 107.052 119.132L106.997 119.019C106.847 119.092 106.698 119.164 106.548 119.236L106.602 119.349C106.452 119.421 106.303 119.493 106.153 119.565L106.099 119.452C105.95 119.524 105.8 119.595 105.651 119.667L105.705 119.779C105.555 119.851 105.406 119.922 105.257 119.993L105.203 119.88C105.054 119.951 104.905 120.022 104.756 120.093L104.81 120.206C104.661 120.277 104.512 120.347 104.363 120.418L104.31 120.305C104.158 120.376 104.007 120.448 103.856 120.519L103.91 120.632C103.758 120.703 103.606 120.775 103.455 120.846L103.402 120.733C103.25 120.804 103.099 120.875 102.948 120.946L103.001 121.059C102.85 121.13 102.699 121.2 102.548 121.271L102.495 121.157C102.344 121.228 102.193 121.298 102.042 121.368L102.095 121.481C101.944 121.552 101.793 121.621 101.643 121.691L101.59 121.578C101.44 121.647 101.289 121.717 101.139 121.786L101.191 121.9C101.041 121.969 100.891 122.038 100.74 122.108L100.688 121.994C100.538 122.063 100.388 122.132 100.238 122.2L100.29 122.314C100.14 122.383 99.9904 122.451 99.8406 122.52L99.7887 122.406C99.6373 122.475 99.486 122.544 99.3348 122.613L99.3865 122.726C99.2337 122.796 99.081 122.865 98.9284 122.934L98.8769 122.82C98.7244 122.889 98.572 122.958 98.4197 123.027L98.4711 123.141C98.3187 123.21 98.1665 123.278 98.0144 123.346L97.9632 123.232C97.8111 123.301 97.6592 123.369 97.5074 123.437L97.5584 123.551C97.4066 123.619 97.2548 123.687 97.1032 123.754L97.0523 123.64C96.9007 123.708 96.7493 123.775 96.5979 123.842L96.6486 123.956C96.4972 124.024 96.346 124.091 96.1948 124.157L96.1443 124.043C95.9932 124.11 95.8422 124.177 95.6913 124.243L95.7417 124.357C95.5908 124.424 95.44 124.49 95.2894 124.556L95.2391 124.442C95.0869 124.509 94.9348 124.575 94.7829 124.642L94.8329 124.756C94.679 124.823 94.5252 124.89 94.3715 124.957L94.3216 124.843C94.168 124.909 94.0145 124.976 93.8612 125.042L93.9108 125.157C93.7574 125.224 93.6041 125.29 93.451 125.356L93.4015 125.241C93.2484 125.307 93.0954 125.373 92.9426 125.439L92.992 125.554C92.8391 125.619 92.6863 125.685 92.5337 125.75L92.4846 125.635C92.332 125.7 92.1796 125.765 92.0273 125.83L92.0763 125.945C91.924 126.01 91.7718 126.075 91.6197 126.139L91.5709 126.024C91.4189 126.089 91.2671 126.153 91.1154 126.217L91.164 126.332C91.0122 126.396 90.8605 126.46 90.709 126.524L90.6606 126.408C90.5068 126.473 90.3532 126.537 90.1997 126.602L90.248 126.717C90.0929 126.782 89.938 126.846 89.7833 126.911L89.7353 126.795C89.5806 126.86 89.4261 126.924 89.2717 126.988L89.3196 127.104C89.1651 127.168 89.0109 127.231 88.8567 127.295L88.8091 127.179C88.655 127.243 88.5011 127.306 88.3473 127.369L88.3948 127.485C88.241 127.548 88.0874 127.611 87.9339 127.674L87.8866 127.558C87.7331 127.621 87.5798 127.684 87.4267 127.746L87.4738 127.862C87.3206 127.924 87.1676 127.986 87.0147 128.048L86.9678 127.932C86.815 127.994 86.6624 128.056 86.5099 128.117L86.5566 128.233C86.404 128.294 86.2515 128.356 86.0993 128.417L86.0527 128.301C85.8964 128.363 85.7403 128.426 85.5843 128.488L85.6306 128.604C85.4746 128.666 85.3187 128.728 85.163 128.79L85.1169 128.674C84.9613 128.736 84.8059 128.797 84.6506 128.859L84.6965 128.975C84.5411 129.036 84.386 129.097 84.231 129.158L84.1853 129.042C84.0304 129.103 83.8756 129.163 83.721 129.224L83.7665 129.34C83.6119 129.401 83.4574 129.461 83.3032 129.521L83.2579 129.404C83.1036 129.464 82.9496 129.524 82.7958 129.584L82.8408 129.7C82.6869 129.76 82.5332 129.819 82.3796 129.878L82.3347 129.761C82.1812 129.82 82.0279 129.879 81.8748 129.938L81.9195 130.055C81.7633 130.114 81.6073 130.174 81.4515 130.233L81.407 130.116C81.2498 130.176 81.0928 130.236 80.9359 130.295L80.9801 130.412C80.8232 130.471 80.6665 130.53 80.51 130.589L80.466 130.472C80.3096 130.531 80.1533 130.59 79.9973 130.648L80.041 130.765C79.8849 130.823 79.729 130.882 79.5733 130.939L79.5297 130.822C79.3741 130.88 79.2187 130.938 79.0634 130.995L79.1068 131.112C78.9515 131.17 78.7963 131.227 78.6414 131.284L78.5983 131.166C78.4435 131.223 78.2889 131.28 78.1345 131.336L78.1773 131.454C78.0229 131.51 77.8686 131.566 77.7145 131.622L77.6718 131.505C77.515 131.562 77.3583 131.618 77.2019 131.675L77.2443 131.792C77.0858 131.85 76.9275 131.906 76.7695 131.963L76.7273 131.845C76.5694 131.902 76.4116 131.958 76.2541 132.014L76.296 132.132C76.1384 132.188 75.981 132.244 75.8239 132.3L75.7822 132.182C75.6251 132.237 75.4683 132.293 75.3117 132.348L75.3531 132.466C75.1964 132.521 75.0399 132.576 74.8837 132.63L74.8425 132.512C74.6864 132.567 74.5305 132.621 74.3748 132.675L74.4157 132.793C74.2599 132.847 74.1044 132.901 73.9491 132.954L73.9084 132.836C73.7532 132.889 73.5982 132.942 73.4435 132.995L73.4839 133.114C73.3249 133.168 73.1662 133.222 73.0078 133.276L72.9676 133.157C72.8756 133.189 72.7836 133.22 72.6917 133.251C72.6244 133.274 72.5571 133.296 72.4899 133.319L72.5298 133.437C72.3707 133.491 72.2119 133.544 72.0533 133.597L72.0137 133.479C71.8552 133.532 71.697 133.584 71.5391 133.637L71.5784 133.756C71.4204 133.808 71.2626 133.86 71.1051 133.912L71.066 133.793C70.9086 133.845 70.7514 133.897 70.5945 133.948L70.6333 134.067C70.4763 134.118 70.3196 134.169 70.1631 134.22L70.1246 134.101C69.9682 134.151 69.8121 134.202 69.6563 134.252L69.6945 134.371C69.537 134.422 69.3798 134.472 69.2229 134.522L69.1849 134.403C69.0239 134.454 68.8632 134.505 68.7028 134.556L68.7405 134.675C68.58 134.726 68.4198 134.776 68.2599 134.826L68.2226 134.707C68.0628 134.757 67.9032 134.807 67.744 134.856L67.7811 134.976C67.6218 135.025 67.4628 135.075 67.3041 135.123L67.2673 135.004C67.1087 135.053 66.9503 135.101 66.7923 135.149L66.8288 135.269C66.6707 135.317 66.5129 135.365 66.3553 135.413L66.3192 135.293C66.1618 135.341 66.0046 135.388 65.8478 135.435L65.8837 135.555C65.7264 135.602 65.5694 135.649 65.4127 135.695L65.3772 135.575C65.2148 135.623 65.0528 135.671 64.8911 135.719L64.9263 135.838C64.7645 135.886 64.6031 135.933 64.442 135.98L64.4071 135.86C64.2461 135.907 64.0854 135.953 63.9251 135.999L63.9596 136.119C63.7991 136.165 63.639 136.211 63.4793 136.257L63.4451 136.136C63.2854 136.182 63.1261 136.227 62.9671 136.272L63.001 136.392C62.8419 136.437 62.6831 136.481 62.5247 136.525L62.4912 136.405C62.333 136.449 62.175 136.492 62.0174 136.536L62.0506 136.656C61.8918 136.7 61.7333 136.743 61.5752 136.786L61.5425 136.665C61.3789 136.71 61.2158 136.754 61.053 136.798L61.0854 136.918C60.9225 136.962 60.76 137.005 60.5978 137.048L60.5658 136.928C60.4038 136.97 60.2422 137.013 60.081 137.055L60.1126 137.176C59.9512 137.218 59.7903 137.26 59.6297 137.302L59.5984 137.181C59.438 137.222 59.2779 137.263 59.1183 137.304L59.1491 137.425C58.9893 137.466 58.8299 137.506 58.6709 137.546L58.6404 137.425C58.4816 137.464 58.3231 137.504 58.165 137.543L58.195 137.664C58.0326 137.705 57.8706 137.744 57.709 137.784L57.6794 137.662C57.515 137.703 57.3509 137.742 57.1874 137.781L57.2166 137.903C57.0529 137.942 56.8896 137.981 56.7268 138.02L56.698 137.898C56.5354 137.936 56.3731 137.974 56.2114 138.012L56.2396 138.134C56.0777 138.171 55.9162 138.209 55.7552 138.245L55.7274 138.124C55.5665 138.16 55.4061 138.197 55.2461 138.233L55.2735 138.355C55.1133 138.39 54.9537 138.426 54.7944 138.461L54.7675 138.339C54.6058 138.375 54.4446 138.41 54.2839 138.445L54.3103 138.567C54.1443 138.603 53.9787 138.638 53.8136 138.673L53.7877 138.551C53.6228 138.586 53.4584 138.62 53.2946 138.654L53.32 138.777C53.1559 138.811 52.9924 138.844 52.8294 138.878L52.8045 138.755C52.6416 138.788 52.4793 138.821 52.3175 138.853L52.3419 138.975C52.1799 139.008 52.0184 139.039 51.8575 139.071L51.8337 138.948C51.6729 138.979 51.5127 139.01 51.353 139.04L51.3763 139.163C51.2128 139.194 51.0498 139.224 50.8875 139.254L50.8647 139.131C50.6977 139.162 50.5313 139.193 50.3654 139.222L50.3875 139.345C50.2215 139.375 50.056 139.405 49.8911 139.433L49.8696 139.31C49.705 139.339 49.5409 139.367 49.3774 139.395L49.3983 139.518C49.2346 139.546 49.0716 139.573 48.9091 139.6L48.8888 139.476C48.7266 139.503 48.5649 139.529 48.4039 139.555L48.4235 139.678C48.2623 139.704 48.1016 139.729 47.9416 139.754L47.9226 139.63C47.7549 139.656 47.5879 139.681 47.4215 139.705L47.4397 139.829C47.2719 139.854 47.1048 139.878 46.9383 139.902L46.9208 139.778C46.7546 139.801 46.5891 139.824 46.4242 139.847L46.4411 139.971C46.276 139.993 46.1116 140.015 45.948 140.036L45.9319 139.912C45.7685 139.933 45.6058 139.954 45.4438 139.974L45.4591 140.098C45.2969 140.118 45.1354 140.137 44.9745 140.156L44.96 140.032C44.7929 140.051 44.6266 140.07 44.4611 140.089L44.4748 140.213C44.3056 140.231 44.1372 140.249 43.9697 140.267L43.9569 140.142C43.7896 140.16 43.6232 140.176 43.4576 140.192L43.4695 140.316C43.3036 140.332 43.1385 140.348 42.9743 140.362L42.9633 140.238C42.7993 140.252 42.6362 140.266 42.4739 140.279L42.484 140.404C42.3214 140.417 42.1596 140.429 41.9987 140.441L41.9896 140.317C41.8202 140.329 41.6519 140.341 41.4845 140.352L41.4926 140.476C41.3228 140.487 41.1541 140.498 40.9863 140.507L40.9792 140.382C40.8118 140.392 40.6453 140.4 40.4798 140.408L40.4857 140.533C40.3199 140.541 40.155 140.548 39.9911 140.554L39.9863 140.429C39.8227 140.436 39.6602 140.441 39.4986 140.446L39.5023 140.571C39.3365 140.576 39.1717 140.58 39.008 140.583L39.0056 140.458C38.8347 140.461 38.6649 140.464 38.4963 140.465L38.4975 140.59C38.3284 140.592 38.1605 140.592 37.9938 140.592L37.994 140.467C37.8278 140.467 37.6627 140.466 37.4988 140.464L37.4971 140.589C37.3327 140.586 37.1695 140.583 37.0075 140.579L37.0105 140.454C36.8463 140.45 36.6832 140.445 36.5214 140.439L36.5169 140.564C36.345 140.558 36.1746 140.551 36.0055 140.542L36.0118 140.417C35.8432 140.409 35.6761 140.4 35.5104 140.389L35.5025 140.514C35.3362 140.503 35.1713 140.492 35.0078 140.479L35.0175 140.354C34.8547 140.341 34.6932 140.328 34.5332 140.313L34.5216 140.437C34.3549 140.422 34.1897 140.405 34.0261 140.388L34.0396 140.263C33.8698 140.245 33.7018 140.225 33.5354 140.204L33.5198 140.328C33.3527 140.307 33.1873 140.285 33.0236 140.261L33.0414 140.137C32.8784 140.114 32.7172 140.089 32.5576 140.063L32.5375 140.187C32.3763 140.16 32.2167 140.133 32.059 140.104L32.0815 139.981C31.9123 139.95 31.7452 139.918 31.5802 139.884L31.555 140.006C31.389 139.972 31.2251 139.936 31.0632 139.899L31.0912 139.777C30.9303 139.74 30.7715 139.702 30.6147 139.662L30.5839 139.783C30.426 139.743 30.2701 139.701 30.1164 139.658L30.1503 139.538C29.9848 139.491 29.8218 139.443 29.6614 139.393L29.6241 139.512C29.4625 139.461 29.3034 139.409 29.1467 139.355L29.1875 139.237C29.0321 139.183 28.8792 139.128 28.7288 139.071L28.6844 139.188C28.5294 139.129 28.3771 139.068 28.2275 139.005L28.2758 138.89C28.1189 138.824 27.965 138.756 27.8142 138.686L27.7616 138.8C27.6093 138.729 27.46 138.656 27.3138 138.581L27.3707 138.47C27.226 138.396 27.0842 138.32 26.9456 138.242L26.8841 138.35C26.7359 138.267 26.5912 138.181 26.4498 138.092L26.5162 137.986C26.3748 137.898 26.2369 137.807 26.1026 137.713L26.0313 137.816C25.8953 137.721 25.7629 137.624 25.6342 137.525L25.7106 137.426C25.5797 137.325 25.4527 137.221 25.3295 137.115L25.2479 137.21C25.1204 137.1 24.9969 136.987 24.8775 136.871L24.9644 136.782C24.8468 136.668 24.7332 136.551 24.6236 136.432L24.5316 136.517C24.4191 136.394 24.3108 136.269 24.2068 136.141L24.3038 136.062C24.2003 135.935 24.1011 135.804 24.0061 135.671L23.9043 135.744C23.8079 135.608 23.7158 135.47 23.6282 135.329L23.7344 135.263C23.6912 135.193 23.6492 135.123 23.6083 135.052C23.5673 134.981 23.5275 134.91 23.4889 134.838L23.3787 134.897C23.3002 134.75 23.2265 134.601 23.1576 134.45L23.2713 134.398C23.2034 134.249 23.1401 134.098 23.0815 133.945L22.9647 133.989C22.9058 133.835 22.8515 133.679 22.8017 133.52L22.921 133.483C22.8725 133.328 22.8284 133.172 22.7887 133.013L22.6674 133.043C22.6271 132.882 22.5912 132.719 22.5597 132.554L22.6825 132.53C22.6521 132.37 22.6259 132.209 22.6037 132.045L22.4798 132.061C22.4581 131.9 22.4402 131.737 22.4264 131.572L22.5509 131.561C22.5372 131.398 22.5274 131.234 22.5214 131.067L22.3965 131.071C22.3905 130.905 22.3883 130.736 22.3899 130.566L22.5149 130.567C22.5165 130.408 22.5213 130.247 22.5295 130.085L22.4047 130.079C22.413 129.914 22.4246 129.749 22.4396 129.582L22.5641 129.593C22.579 129.427 22.5972 129.26 22.6187 129.091L22.4947 129.075C22.5152 128.914 22.5386 128.752 22.5651 128.588L22.6885 128.608C22.7141 128.45 22.7426 128.289 22.7738 128.128L22.6511 128.104C22.6826 127.942 22.7169 127.778 22.754 127.612L22.876 127.64C22.9128 127.476 22.9524 127.311 22.9948 127.144L22.8737 127.113C22.9131 126.958 22.9549 126.803 22.999 126.646L23.1193 126.68C23.1631 126.524 23.2093 126.367 23.2577 126.209L23.1382 126.172C23.187 126.014 23.2381 125.854 23.2915 125.693L23.4102 125.733C23.4633 125.573 23.5187 125.412 23.5765 125.25L23.4588 125.208C23.5127 125.057 23.5685 124.905 23.6264 124.752L23.7433 124.796C23.8005 124.645 23.8597 124.493 23.9209 124.34L23.8048 124.294C23.8663 124.14 23.9296 123.986 23.9949 123.831L24.1102 123.879C24.1752 123.725 24.2422 123.569 24.3111 123.413L24.1967 123.362C24.2631 123.212 24.3313 123.06 24.4013 122.908L24.5149 122.961C24.5821 122.815 24.6509 122.668 24.7213 122.52L24.6086 122.467C24.6793 122.319 24.7516 122.17 24.8256 122.021L24.9376 122.076C25.0113 121.927 25.0867 121.778 25.1637 121.628L25.0524 121.571C25.1296 121.42 25.2085 121.269 25.289 121.117L25.3994 121.175C25.4752 121.032 25.5524 120.889 25.631 120.744L25.5213 120.685C25.5989 120.542 25.6778 120.399 25.7582 120.256L25.8672 120.317C25.9473 120.174 26.0288 120.03 26.1117 119.886L26.0033 119.824C26.0864 119.679 26.1709 119.534 26.2567 119.389L26.3644 119.452C26.45 119.307 26.537 119.161 26.6253 119.015L26.5183 118.95C26.6029 118.81 26.6888 118.669 26.7759 118.528L26.8823 118.594C26.9672 118.456 27.0532 118.318 27.1405 118.18L27.0347 118.113C27.1221 117.974 27.2107 117.835 27.3005 117.695L27.4057 117.763C27.4952 117.624 27.586 117.484 27.6779 117.343L27.5733 117.275C27.6654 117.134 27.7587 116.993 27.8531 116.852L27.9571 116.921C28.0502 116.782 28.1445 116.642 28.2399 116.501L28.1365 116.431C28.2272 116.298 28.3189 116.164 28.4116 116.03L28.5145 116.101C28.607 115.967 28.7005 115.832 28.7951 115.698L28.6928 115.626C28.7875 115.491 28.8832 115.355 28.98 115.22L29.0818 115.292C29.1783 115.157 29.2759 115.021 29.3744 114.885L29.2732 114.811C29.3719 114.675 29.4716 114.538 29.5724 114.401L29.6731 114.475C29.7717 114.341 29.8712 114.206 29.9716 114.071L29.8714 113.997C29.9681 113.867 30.0657 113.736 30.1641 113.606L30.2639 113.681C30.3622 113.551 30.4613 113.42 30.5614 113.289L30.4621 113.213C30.5623 113.082 30.6633 112.951 30.7652 112.819L30.8641 112.896C30.9659 112.764 31.0685 112.632 31.172 112.5L31.0736 112.423C31.1773 112.291 31.2818 112.158 31.3872 112.025L31.4851 112.103C31.5896 111.971 31.6949 111.839 31.8011 111.706L31.7035 111.628C31.8048 111.502 31.9069 111.375 32.0097 111.249L32.1068 111.327C32.2095 111.201 32.3129 111.074 32.4171 110.946L32.3204 110.867C32.4247 110.74 32.5298 110.612 32.6357 110.484L32.732 110.564C32.8377 110.436 32.9442 110.308 33.0514 110.18L32.9555 110.1C33.0629 109.972 33.171 109.843 33.2799 109.714L33.3754 109.795C33.4841 109.666 33.5936 109.537 33.7038 109.408L33.6087 109.327C33.7159 109.201 33.8238 109.075 33.9324 108.949L34.0271 109.031C34.1331 108.907 34.2399 108.784 34.3473 108.66L34.2529 108.578C34.3604 108.455 34.4686 108.331 34.5775 108.206L34.6715 108.289C34.7802 108.165 34.8896 108.041 34.9997 107.916L34.9061 107.833C35.0163 107.709 35.1271 107.584 35.2386 107.459L35.3319 107.542C35.4433 107.417 35.5554 107.292 35.6681 107.167L35.5752 107.083C35.688 106.958 35.8015 106.832 35.9156 106.706L36.0082 106.79C36.1187 106.668 36.2298 106.546 36.3415 106.424L36.2492 106.34C36.3592 106.219 36.4698 106.099 36.581 105.978L36.673 106.063C36.784 105.942 36.8957 105.821 37.008 105.701L36.9164 105.615C37.0288 105.494 37.1417 105.373 37.2553 105.252L37.3466 105.337C37.46 105.216 37.574 105.094 37.6887 104.973L37.5977 104.887C37.7124 104.765 37.8277 104.643 37.9436 104.521L38.0343 104.607C38.1501 104.485 38.2664 104.363 38.3834 104.241L38.293 104.154C38.4079 104.034 38.5234 103.914 38.6395 103.793L38.7295 103.88C38.8425 103.762 38.9559 103.645 39.0699 103.527L38.9801 103.44C39.0942 103.323 39.2089 103.205 39.324 103.087L39.4135 103.174C39.5285 103.056 39.6441 102.938 39.7602 102.82L39.671 102.732C39.7872 102.614 39.9039 102.495 40.0211 102.377L40.11 102.464C40.2272 102.346 40.3448 102.227 40.463 102.108L40.3744 102.02C40.4927 101.901 40.6115 101.782 40.7308 101.663L40.8191 101.751C40.9384 101.632 41.0581 101.513 41.1783 101.394L41.0903 101.305C41.2065 101.189 41.3232 101.074 41.4404 100.958L41.5283 101.047C41.6446 100.932 41.7614 100.817 41.8786 100.702L41.7911 100.613C41.9084 100.498 42.0263 100.383 42.1445 100.267L42.2318 100.357C42.35 100.241 42.4687 100.126 42.5879 100.01L42.5008 99.9207C42.62 99.805 42.7397 99.6893 42.8599 99.5734L42.9467 99.6633C43.0668 99.5475 43.1873 99.4316 43.3083 99.3155L43.2218 99.2253C43.3429 99.1092 43.4644 98.9929 43.5864 98.8766L43.6727 98.967C43.7947 98.8507 43.9171 98.7343 44.0399 98.6178L43.9539 98.5271C44.0725 98.4146 44.1915 98.3021 44.3109 98.1894L44.3967 98.2803C44.5158 98.168 44.6352 98.0555 44.7551 97.943L44.6696 97.8519C44.7896 97.7392 44.91 97.6265 45.0308 97.5137L45.1161 97.6051C45.2369 97.4923 45.3581 97.3795 45.4797 97.2665L45.3946 97.1749C45.5163 97.0619 45.6384 96.9488 45.7609 96.8356L45.8457 96.9274C45.9682 96.8142 46.091 96.701 46.2143 96.5876L46.1297 96.4956C46.253 96.3822 46.3768 96.2686 46.501 96.155L46.5854 96.2473C46.7095 96.1337 46.834 96.0201 46.959 95.9063L46.8748 95.8139C46.9966 95.703 47.1188 95.592 47.2414 95.4809L47.3254 95.5736C47.4467 95.4637 47.5684 95.3537 47.6904 95.2436L47.6067 95.1507C47.7289 95.0406 47.8514 94.9304 47.9743 94.8201L48.0578 94.9131C48.1807 94.8028 48.3039 94.6925 48.4275 94.5821L48.3442 94.4889C48.4679 94.3784 48.592 94.2678 48.7164 94.1572L48.7995 94.2506C48.9238 94.14 49.0486 94.0293 49.1737 93.9186L49.0908 93.825C49.216 93.7142 49.3416 93.6033 49.4675 93.4923L49.5502 93.5861C49.6761 93.4752 49.8023 93.3642 49.9289 93.2531L49.8465 93.1592C49.9723 93.0488 50.0985 92.9384 50.225 92.8279L50.3072 92.9221C50.4304 92.8145 50.554 92.7069 50.6779 92.5992L50.5958 92.5048C50.7198 92.3971 50.8441 92.2892 50.9687 92.1813L51.0505 92.2758C51.1751 92.168 51.3 92.0601 51.4253 91.9521L51.3437 91.8574C51.469 91.7494 51.5947 91.6413 51.7207 91.5331L51.8021 91.6279C51.9281 91.5198 52.0544 91.4116 52.1811 91.3034L52.0998 91.2084C52.2266 91.1001 52.3536 90.9917 52.481 90.8833L52.562 90.9785C52.6894 90.8701 52.817 90.7616 52.945 90.6531L52.8642 90.5578C52.9923 90.4492 53.1207 90.3406 53.2495 90.2319L53.3301 90.3274C53.4572 90.2202 53.5846 90.1128 53.7123 90.0055L53.6319 89.9098C53.7573 89.8043 53.8831 89.6988 54.0092 89.5932L54.0895 89.689C54.2155 89.5835 54.3419 89.4779 54.4685 89.3723L54.3885 89.2763C54.5152 89.1706 54.6423 89.0648 54.7696 88.959L54.8495 89.0552C54.9768 88.9494 55.1044 88.8436 55.2323 88.7377L55.1526 88.6414C55.2806 88.5355 55.4089 88.4296 55.5375 88.3236L55.6171 88.42C55.7456 88.314 55.8745 88.208 56.0036 88.102L55.9243 88.0054C56.0536 87.8992 56.1831 87.7931 56.313 87.6869L56.3921 87.7836C56.5219 87.6775 56.652 87.5713 56.7824 87.465L56.7035 87.3681C56.8327 87.2628 56.9622 87.1574 57.0921 87.0521L57.1709 87.1491C57.2982 87.0458 57.4257 86.9424 57.5536 86.839L57.475 86.7418C57.6029 86.6384 57.7312 86.5349 57.8597 86.4313L57.9381 86.5286C58.0665 86.4251 58.1953 86.3216 58.3243 86.218L58.246 86.1206C58.3751 86.0169 58.5045 85.9133 58.6342 85.8096L58.7122 85.9072C58.8418 85.8035 58.9717 85.6998 59.1019 85.5961L59.024 85.4983C59.1542 85.3945 59.2847 85.2907 59.4155 85.1869L59.4933 85.2848C59.624 85.1809 59.755 85.0771 59.8863 84.9732L59.8088 84.8752C59.9401 84.7712 60.0718 84.6673 60.2037 84.5633L60.2811 84.6614C60.4129 84.5575 60.5451 84.4535 60.6775 84.3494L60.6003 84.2511C60.7293 84.1498 60.8586 84.0484 60.9882 83.947L61.0652 84.0454C61.1947 83.9441 61.3244 83.8427 61.4544 83.7413L61.3775 83.6427C61.5075 83.5413 61.6378 83.4398 61.7684 83.3383L61.8451 83.437C61.9756 83.3355 62.1064 83.234 62.2374 83.1325L62.1609 83.0337C62.292 82.9321 62.4233 82.8305 62.5549 82.7289L62.6313 82.8279C62.7629 82.7263 62.8947 82.6247 63.0268 82.523L62.9506 82.424C63.0827 82.3223 63.2151 82.2206 63.3477 82.1189L63.4238 82.2181C63.5564 82.1164 63.6893 82.0147 63.8224 81.9129L63.7465 81.8136C63.8797 81.7118 64.0131 81.61 64.1468 81.5082L64.2225 81.6076C64.3549 81.5068 64.4875 81.406 64.6203 81.3051L64.5448 81.2055C64.6756 81.1062 64.8068 81.0068 64.9382 80.9074L65.0136 81.0071C65.1449 80.9077 65.2765 80.8083 65.4083 80.7089L65.333 80.6091C65.4649 80.5096 65.597 80.4102 65.7293 80.3107L65.8044 80.4106C65.9367 80.3111 66.0693 80.2117 66.202 80.1122L66.1271 80.0121C66.2599 79.9126 66.393 79.8131 66.5263 79.7135L66.6011 79.8136C66.7343 79.7141 66.8678 79.6146 67.0016 79.515L66.9269 79.4147C67.0607 79.3151 67.1947 79.2155 67.329 79.1159L67.4035 79.2163C67.5377 79.1167 67.6721 79.0171 67.8068 78.9174L67.7325 78.8169C67.8672 78.7173 68.0022 78.6176 68.1374 78.5179L68.2116 78.6185C68.3451 78.5201 68.4788 78.4217 68.6127 78.3232L68.5387 78.2225C68.6712 78.1251 68.804 78.0276 68.937 77.9302L69.0109 78.031C69.1439 77.9336 69.2771 77.8361 69.4105 77.7387L69.3367 77.6378C69.4702 77.5403 69.6039 77.4428 69.7378 77.3453L69.8114 77.4463C69.9452 77.3488 70.0793 77.2514 70.2136 77.1539L70.1402 77.0527C70.2745 76.9552 70.4091 76.8577 70.5439 76.7601L70.6172 76.8614C70.7519 76.7639 70.8869 76.6664 71.022 76.5688L70.9489 76.4675C71.0841 76.3699 71.2196 76.2723 71.3553 76.1748L71.4283 76.2762C71.5639 76.1787 71.6997 76.0811 71.8358 75.9836L71.7629 75.882C71.899 75.7844 72.0354 75.6868 72.1719 75.5892L72.2446 75.6909C72.3797 75.5943 72.515 75.4977 72.6506 75.4011L72.578 75.2993C72.7121 75.2038 72.8464 75.1083 72.9808 75.0127L73.0532 75.1146C73.1877 75.0191 73.3223 74.9236 73.4571 74.8281L73.3849 74.7261C73.5197 74.6305 73.6548 74.535 73.7901 74.4394L73.8622 74.5415C73.9975 74.446 74.1329 74.3505 74.2686 74.255L74.1966 74.1528C74.3323 74.0572 74.4682 73.9617 74.6043 73.8661L74.6762 73.9684C74.8122 73.8729 74.9485 73.7774 75.0849 73.6818L75.0133 73.5794C75.1498 73.4839 75.2865 73.3883 75.4234 73.2927L75.495 73.3952C75.6318 73.2997 75.7689 73.2042 75.9062 73.1087L75.8348 73.0061C75.9721 72.9105 76.1096 72.815 76.2473 72.7194L76.3186 72.8221C76.4558 72.7269 76.5932 72.6318 76.7307 72.5366L76.6596 72.4338C76.795 72.3401 76.9306 72.2465 77.0664 72.1528L77.1374 72.2557C77.2731 72.1621 77.409 72.0685 77.5452 71.9748L77.4743 71.8718C77.6105 71.7782 77.7468 71.6846 77.8834 71.5909L77.9541 71.694C78.0906 71.6004 78.2273 71.5068 78.3641 71.4132L78.2936 71.31C78.4305 71.2164 78.5676 71.1228 78.7049 71.0292L78.7753 71.1324C78.9126 71.0389 79.05 70.9453 79.1876 70.8517L79.1174 70.7483C79.255 70.6547 79.3929 70.5612 79.5309 70.4676L79.6011 70.571C79.7391 70.4775 79.8773 70.3839 80.0156 70.2904L79.9456 70.1868C80.0841 70.0933 80.2227 69.9997 80.3614 69.9062L80.4313 70.0098C80.5701 69.9163 80.709 69.8228 80.8481 69.7293L80.7784 69.6256C80.9158 69.5332 81.0534 69.4408 81.1912 69.3485L81.2608 69.4523C81.3977 69.3606 81.5348 69.2688 81.6721 69.177L81.6027 69.0731C81.74 68.9813 81.8775 68.8896 82.0152 68.7978L82.0845 68.9018C82.2221 68.8101 82.36 68.7184 82.498 68.6267L82.4288 68.5226C82.5668 68.4309 82.705 68.3391 82.8434 68.2474L82.9124 68.3516C83.0508 68.26 83.1893 68.1683 83.328 68.0766L83.2591 67.9724C83.3978 67.8807 83.5367 67.789 83.6758 67.6974L83.7446 67.8017C83.8836 67.7101 84.0228 67.6185 84.1622 67.5269L84.0935 67.4225C84.233 67.3308 84.3726 67.2392 84.5123 67.1477L84.5808 67.2522C84.7206 67.1606 84.8604 67.0691 85.0005 66.9776L84.9321 66.8729C85.0722 66.7814 85.2125 66.6899 85.353 66.5983L85.4212 66.7031C85.5593 66.6131 85.6975 66.5231 85.8359 66.4332L85.7678 66.3284C85.9062 66.2384 86.0448 66.1485 86.1836 66.0586L86.2515 66.1635C86.3902 66.0736 86.5291 65.9838 86.6681 65.8939L86.6003 65.7889C86.7393 65.6991 86.8786 65.6092 87.018 65.5194L87.0857 65.6244C87.225 65.5346 87.3645 65.4448 87.5042 65.3551L87.4366 65.2499C87.5763 65.1601 87.7162 65.0704 87.8563 64.9806L87.9237 65.0858C88.0637 64.9961 88.2039 64.9064 88.3442 64.8167L88.2768 64.7114C88.4172 64.6217 88.5577 64.532 88.6984 64.4423L88.7656 64.5477C88.9062 64.4581 89.047 64.3685 89.188 64.2789L89.1209 64.1734C89.2619 64.0838 89.403 63.9942 89.5444 63.9046L89.6113 64.0102C89.7523 63.9208 89.8935 63.8314 90.0348 63.7421L89.968 63.6364C90.1075 63.5483 90.2471 63.4601 90.3868 63.372L90.4535 63.4778C90.5932 63.3897 90.733 63.3017 90.873 63.2137L90.8065 63.1078C90.9465 63.0198 91.0867 62.9318 91.227 62.8438L91.2934 62.9497C91.4337 62.8617 91.5742 62.7738 91.7148 62.6858L91.6485 62.5799C91.7892 62.4919 91.93 62.404 92.0709 62.3161L92.137 62.4222C92.2779 62.3343 92.419 62.2464 92.5602 62.1586L92.4942 62.0525C92.6354 61.9646 92.7768 61.8768 92.9183 61.7891L92.9842 61.8953C93.1257 61.8075 93.2673 61.7198 93.4091 61.6321L93.3434 61.5258C93.4852 61.4381 93.6272 61.3503 93.7693 61.2627L93.8349 61.3691C93.977 61.2814 94.1192 61.1938 94.2616 61.1062L94.1961 60.9998C94.3384 60.9122 94.4809 60.8247 94.6234 60.7372L94.6888 60.8438L95.1112 60.585L95.0459 60.4784C95.1869 60.3921 95.328 60.3059 95.4692 60.2197L95.5344 60.3264L95.9584 60.068L95.8934 59.9612C96.0349 59.8751 96.1766 59.789 96.3184 59.7029L96.3833 59.8098L96.809 59.5518L96.7442 59.4448C96.8863 59.3588 97.0285 59.2729 97.1709 59.1869L97.2355 59.2939L97.6629 59.0363L97.5984 58.9292C97.741 58.8433 97.8838 58.7575 98.0267 58.6717L98.0911 58.7789L98.5201 58.5216L98.4558 58.4144C98.599 58.3287 98.7423 58.243 98.8858 58.1573L98.9499 58.2646L99.3805 58.0078L99.3166 57.9004C99.4587 57.8158 99.601 57.7312 99.7434 57.6466L99.8072 57.7541L100.234 57.501L100.17 57.3935C100.312 57.3091 100.455 57.2248 100.598 57.1405L100.661 57.2482L101.089 56.9955L101.026 56.8878C101.169 56.8036 101.312 56.7195 101.455 56.6354L101.518 56.7431L101.948 56.491L101.885 56.3831C102.028 56.2991 102.172 56.2151 102.316 56.1311L102.379 56.239L102.81 55.9873L102.747 55.8793C102.891 55.7954 103.035 55.7116 103.179 55.6278L103.242 55.7359L103.675 55.4846L103.612 55.3765C103.756 55.2928 103.901 55.2091 104.046 55.1254L104.108 55.2337L104.325 55.1083L104.542 54.9829L104.48 54.8746C104.625 54.7912 104.77 54.7078 104.914 54.6246L104.977 54.733L105.411 54.4838L105.348 54.3754C105.493 54.2924 105.638 54.2096 105.782 54.1269L105.844 54.2354L106.278 53.9877L106.216 53.8792C106.361 53.7967 106.505 53.7144 106.65 53.6322L106.711 53.7409L107.145 53.4948L107.083 53.3861C107.227 53.3042 107.372 53.2224 107.516 53.1407L107.578 53.2495L108.011 53.005L107.949 52.8961C108.093 52.8147 108.238 52.7335 108.382 52.6523L108.443 52.7613L108.876 52.5183L108.815 52.4093C108.959 52.3283 109.103 52.2474 109.248 52.1666L109.309 52.2757L109.747 52.0312L109.686 51.922C109.832 51.8406 109.977 51.7593 110.123 51.6782L110.184 51.7874L110.621 51.5445L110.561 51.4352C110.706 51.3544 110.852 51.2736 110.998 51.193L111.058 51.3024L111.495 51.0611L111.435 50.9517C111.58 50.8714 111.726 50.7912 111.871 50.7111L111.932 50.8206L112.368 50.581L112.308 50.4714C112.453 50.3916 112.599 50.312 112.744 50.2325L112.804 50.3421L113.24 50.1041L113.18 49.9944C113.325 49.9152 113.471 49.8361 113.616 49.7571L113.675 49.8669L114.111 49.6305L114.051 49.5207C114.198 49.4409 114.345 49.3613 114.492 49.2818L114.552 49.3918C114.699 49.3123 114.846 49.2329 114.993 49.1537L114.933 49.0437C115.08 48.9644 115.227 48.8853 115.374 48.8064L115.433 48.9165C115.58 48.8375 115.727 48.7587 115.874 48.6801L115.815 48.5699C115.961 48.4912 116.108 48.4127 116.255 48.3343L116.314 48.4445C116.46 48.3661 116.607 48.2879 116.754 48.2098L116.695 48.0995C116.841 48.0214 116.988 47.9434 117.134 47.8656L117.193 47.976C117.339 47.8982 117.486 47.8205 117.632 47.743L117.574 47.6326C117.72 47.555 117.866 47.4776 118.013 47.4004L118.071 47.5109C118.217 47.4337 118.363 47.3566 118.51 47.2796L118.451 47.169C118.597 47.0921 118.744 47.0152 118.89 46.9385L118.948 47.0492C119.096 46.9715 119.244 46.8939 119.392 46.8165L119.334 46.7057C119.482 46.6281 119.63 46.5507 119.778 46.4734L119.836 46.5842C119.984 46.507 120.132 46.4298 120.28 46.3529L120.222 46.242C120.37 46.165 120.518 46.0881 120.666 46.0114L120.724 46.1224C120.872 46.0457 121.019 45.9692 121.167 45.8928L121.11 45.7818C121.257 45.7054 121.405 45.6291 121.553 45.553L121.61 45.6641C121.757 45.5881 121.905 45.5121 122.052 45.4364L121.995 45.3252C122.143 45.2494 122.29 45.1737 122.438 45.0982L122.495 45.2095C122.642 45.134 122.789 45.0587 122.936 44.9835L122.88 44.8722C123.027 44.797 123.174 44.7219 123.321 44.647L123.378 44.7584C123.525 44.6835 123.672 44.6088 123.819 44.5342L123.762 44.4227C123.912 44.3469 124.061 44.2712 124.21 44.1956L124.267 44.3071C124.416 44.2316 124.565 44.1562 124.715 44.081L124.658 43.9694C124.807 43.8941 124.957 43.819 125.106 43.7441L125.162 43.8558C125.311 43.7809 125.46 43.7061 125.609 43.6315L125.553 43.5198C125.702 43.4451 125.85 43.3707 125.999 43.2964L126.055 43.4082C126.204 43.3339 126.352 43.2598 126.501 43.1858L126.445 43.0739C126.594 42.9999 126.742 42.9261 126.891 42.8524L126.946 42.9644C127.095 42.8907 127.243 42.8173 127.391 42.7439L127.336 42.6319C127.484 42.5585 127.632 42.4853 127.781 42.4123L127.836 42.5244C127.984 42.4514 128.132 42.3785 128.28 42.3058L128.225 42.1936C128.374 42.1205 128.522 42.0475 128.671 41.9746L128.726 42.0869C128.877 42.0132 129.027 41.9396 129.178 41.8662L129.123 41.7539C129.273 41.6805 129.423 41.6072 129.574 41.5341L129.628 41.6465C129.779 41.5734 129.929 41.5005 130.079 41.4278L130.024 41.3153C130.174 41.2426 130.324 41.17 130.474 41.0975L130.528 41.2101C130.678 41.1377 130.828 41.0655 130.978 40.9934L130.923 40.8808C131.073 40.8087 131.223 40.7367 131.372 40.665L131.426 40.7777C131.576 40.7059 131.725 40.6344 131.875 40.563L131.821 40.4502C131.97 40.3787 132.119 40.3075 132.269 40.2364L132.322 40.3492C132.471 40.2782 132.62 40.2073 132.769 40.1365L132.716 40.0236C132.865 39.9528 133.014 39.8822 133.163 39.8118L133.216 39.9248C133.367 39.8532 133.518 39.7819 133.669 39.7106L133.616 39.5976C133.768 39.5261 133.919 39.4548 134.071 39.3836L134.124 39.4967C134.275 39.4256 134.426 39.3547 134.578 39.2839L134.525 39.1707C134.676 39.0999 134.827 39.0293 134.978 38.9588L135.031 39.0721C135.182 39.0017 135.333 38.9314 135.483 38.8614L135.431 38.748C135.581 38.6779 135.732 38.608 135.883 38.5383L135.935 38.6517C136.086 38.582 136.236 38.5124 136.387 38.4431L136.334 38.3296C136.485 38.2602 136.635 38.191 136.785 38.1219L136.837 38.2355C136.987 38.1665 137.138 38.0977 137.287 38.029L137.235 37.9154C137.385 37.8467 137.535 37.7782 137.685 37.7098L137.737 37.8236C137.888 37.7545 138.04 37.6856 138.191 37.6168L138.139 37.503C138.292 37.4336 138.445 37.3643 138.597 37.2953L138.649 37.4091C138.801 37.3401 138.954 37.2712 139.106 37.2025L139.055 37.0886C139.207 37.0199 139.359 36.9514 139.511 36.883L139.562 36.9971C139.714 36.9287 139.866 36.8606 140.018 36.7927L139.967 36.6786C140.119 36.6106 140.271 36.5429 140.422 36.4753L140.473 36.5894C140.625 36.5219 140.776 36.4545 140.928 36.3873L140.877 36.2731C141.028 36.2059 141.18 36.1388 141.331 36.072L141.381 36.1863C141.532 36.1195 141.683 36.0529 141.834 35.9864L141.784 35.872C141.935 35.8056 142.086 35.7393 142.236 35.6732L142.286 35.7877C142.439 35.7209 142.591 35.6544 142.743 35.588L142.693 35.4734C142.847 35.4062 143 35.3391 143.154 35.2723L143.204 35.3869C143.358 35.3201 143.511 35.2534 143.664 35.187L143.615 35.0723C143.768 35.0058 143.921 34.9396 144.075 34.8735L144.124 34.9883C144.277 34.9223 144.43 34.8564 144.583 34.7908L144.534 34.6759C144.687 34.6103 144.839 34.5448 144.992 34.4795L145.041 34.5945C145.194 34.5292 145.346 34.4642 145.498 34.3993L145.449 34.2843C145.602 34.2195 145.754 34.1548 145.906 34.0903L145.955 34.2054C146.107 34.141 146.259 34.0767 146.41 34.0127L146.362 33.8975C146.513 33.8334 146.665 33.7696 146.817 33.7059L146.865 33.8211C147.019 33.7565 147.172 33.6921 147.326 33.6279L147.278 33.5126C147.433 33.4477 147.588 33.3831 147.742 33.3186L147.79 33.434C147.945 33.3696 148.1 33.3054 148.254 33.2414L148.206 33.1259C148.36 33.0619 148.515 32.9981 148.669 32.9345L148.717 33.0501C148.871 32.9865 149.024 32.9231 149.178 32.86L149.131 32.7444C149.285 32.6812 149.438 32.6182 149.592 32.5555L149.639 32.6712C149.792 32.6085 149.946 32.546 150.099 32.4837L150.052 32.3679C150.205 32.3056 150.358 32.2435 150.511 32.1816L150.558 32.2974C150.711 32.2356 150.863 32.1739 151.016 32.1125L150.969 31.9965C151.122 31.935 151.274 31.8738 151.426 31.8127L151.473 31.9287C151.629 31.8661 151.785 31.8036 151.941 31.7414L151.895 31.6253C152.051 31.563 152.207 31.501 152.363 31.4392L152.409 31.5554C152.564 31.4936 152.72 31.4321 152.875 31.3708L152.829 31.2545C152.984 31.1932 153.14 31.1321 153.295 31.0712L153.34 31.1875C153.495 31.1267 153.65 31.066 153.805 31.0056L153.759 30.8892C153.914 30.8288 154.068 30.7686 154.222 30.7086L154.268 30.8251C154.422 30.7651 154.576 30.7054 154.73 30.6459L154.685 30.5293C154.839 30.4698 154.992 30.4105 155.146 30.3515L155.191 30.4681C155.344 30.4091 155.498 30.3503 155.651 30.2917L155.606 30.175C155.762 30.1152 155.918 30.0557 156.074 29.9964L156.119 30.1133C156.276 30.0535 156.433 29.9939 156.59 29.9345L156.545 29.8176C156.702 29.7583 156.859 29.6992 157.016 29.6403L157.06 29.7573C157.216 29.6985 157.372 29.6399 157.528 29.5815L157.485 29.4644C157.641 29.4061 157.797 29.3479 157.952 29.29L157.996 29.4072C158.151 29.3494 158.307 29.2917 158.462 29.2344L158.419 29.1171C158.574 29.0597 158.729 29.0026 158.884 28.9457L158.927 29.063C159.082 29.0061 159.237 28.9495 159.391 28.8931L159.348 28.7757C159.503 28.7193 159.657 28.6631 159.811 28.6072L159.854 28.7247C160.011 28.6678 160.167 28.6111 160.324 28.5547L160.281 28.4371C160.44 28.3799 160.598 28.323 160.756 28.2664L160.798 28.3841C160.956 28.3274 161.114 28.2711 161.272 28.215L161.23 28.0973C161.387 28.0411 161.545 27.9853 161.702 27.9297L161.743 28.0476C161.9 27.992 162.057 27.9367 162.214 27.8817L162.172 27.7638C162.329 27.7087 162.486 27.6539 162.642 27.5994L162.683 27.7174C162.839 27.6629 162.995 27.6087 163.151 27.5547L163.11 27.4366C163.266 27.3826 163.421 27.3289 163.576 27.2754L163.617 27.3936C163.772 27.3402 163.927 27.287 164.082 27.2341L164.042 27.1159C164.201 27.0615 164.359 27.0074 164.518 26.9537L164.558 27.072C164.717 27.0179 164.877 26.9641 165.036 26.9105L164.996 26.792C165.155 26.7385 165.314 26.6852 165.472 26.6321L165.512 26.7507C165.67 26.6977 165.829 26.645 165.987 26.5926L165.947 26.474C166.105 26.4215 166.263 26.3694 166.421 26.3175L166.46 26.4362C166.617 26.3844 166.774 26.3329 166.931 26.2816L166.892 26.1628C167.049 26.1115 167.206 26.0605 167.362 26.0098L167.401 26.1287C167.557 26.078 167.713 26.0276 167.869 25.9775L167.831 25.8585C167.989 25.8079 168.146 25.7575 168.303 25.7075L168.341 25.8266C168.502 25.7752 168.662 25.7242 168.823 25.6735L168.785 25.5543C168.946 25.5036 169.106 25.4531 169.266 25.403L169.303 25.5223C169.463 25.4722 169.622 25.4225 169.782 25.373L169.744 25.2536C169.904 25.2041 170.063 25.155 170.222 25.1061L170.258 25.2256C170.417 25.1767 170.575 25.1282 170.733 25.08L170.697 24.9604C170.855 24.9122 171.013 24.8643 171.17 24.8167L171.206 24.9363C171.364 24.8888 171.521 24.8415 171.678 24.7946L171.642 24.6748C171.799 24.6277 171.956 24.5809 172.113 24.5345L172.148 24.6543C172.311 24.6062 172.473 24.5584 172.634 24.5109L172.599 24.391C172.761 24.3435 172.923 24.2964 173.084 24.2496L173.118 24.3696C173.28 24.3228 173.44 24.2764 173.601 24.2303L173.566 24.1102C173.726 24.0641 173.887 24.0183 174.046 23.9729L174.081 24.0931C174.24 24.0477 174.399 24.0027 174.558 23.958L174.525 23.8376C174.684 23.7929 174.842 23.7485 175.001 23.7044L175.034 23.8249C175.193 23.7809 175.351 23.7372 175.508 23.6939L175.475 23.5733C175.634 23.5297 175.792 23.4864 175.95 23.4434L175.983 23.564C176.147 23.5196 176.31 23.4755 176.473 23.4318L176.44 23.3111C176.603 23.2674 176.766 23.2241 176.928 23.1811L176.96 23.3019C177.122 23.259 177.283 23.2164 177.445 23.1743L177.413 23.0533C177.574 23.0111 177.735 22.9693 177.896 22.9278L177.927 23.0489C178.088 23.0075 178.248 22.9664 178.407 22.9258L178.376 22.8046C178.536 22.7639 178.696 22.7236 178.855 22.6837L178.885 22.8049C179.044 22.765 179.203 22.7255 179.361 22.6864L179.331 22.565C179.493 22.5248 179.655 22.485 179.817 22.4456L179.846 22.567C180.011 22.5269 180.175 22.4873 180.338 22.448L180.309 22.3264C180.473 22.2871 180.636 22.2482 180.799 22.2098L180.828 22.3314C180.99 22.293 181.152 22.255 181.314 22.2174L181.286 22.0956C181.448 22.058 181.609 22.0208 181.77 21.984L181.798 22.1059C181.959 22.0691 182.12 22.0328 182.28 21.9969L182.252 21.8749C182.412 21.839 182.572 21.8035 182.731 21.7684L182.758 21.8904C182.92 21.8548 183.081 21.8196 183.242 21.7848L183.215 21.6626C183.381 21.6267 183.547 21.5913 183.712 21.5563L183.738 21.6786C183.903 21.6436 184.067 21.6091 184.231 21.5751L184.206 21.4527C184.37 21.4187 184.533 21.3851 184.696 21.3519L184.721 21.4744C184.884 21.4413 185.046 21.4087 185.208 21.3766L185.184 21.254C185.346 21.2218 185.507 21.1901 185.668 21.1589L185.692 21.2816C185.853 21.2504 186.013 21.2196 186.173 21.1894L186.149 21.0665C186.313 21.0356 186.476 21.0051 186.638 20.9751L186.661 21.098C186.828 21.0672 186.994 21.0368 187.16 21.007L187.138 20.884C187.304 20.8542 187.47 20.8248 187.634 20.7961L187.656 20.9192C187.732 20.906 187.807 20.8929 187.882 20.8799C187.971 20.8646 188.06 20.8495 188.148 20.8345L188.127 20.7113C188.291 20.6835 188.454 20.6563 188.616 20.6297L188.637 20.753C188.799 20.7264 188.961 20.7002 189.122 20.6747L189.102 20.5512C189.263 20.5256 189.424 20.5005 189.584 20.476L189.603 20.5995C189.771 20.5738 189.938 20.5486 190.104 20.524L190.086 20.4004C190.254 20.3756 190.421 20.3514 190.587 20.3278L190.605 20.4516C190.771 20.428 190.937 20.4051 191.101 20.3827L191.085 20.2588C191.25 20.2364 191.414 20.2146 191.578 20.1934L191.594 20.3174C191.757 20.2962 191.92 20.2756 192.082 20.2557L192.066 20.1316C192.229 20.1116 192.39 20.0922 192.551 20.0734L192.566 20.1975C192.733 20.178 192.899 20.1591 193.064 20.1409L193.051 20.0166C193.22 19.998 193.388 19.98 193.556 19.9628L193.569 20.0871C193.736 20.0699 193.902 20.0533 194.068 20.0374L194.056 19.913C194.222 19.8971 194.387 19.8819 194.551 19.8673L194.562 19.9918C194.726 19.9773 194.889 19.9635 195.052 19.9503L195.042 19.8257C195.204 19.8126 195.366 19.8001 195.527 19.7883L195.536 19.9129C195.705 19.9005 195.874 19.8888 196.041 19.878L196.033 19.7532C196.203 19.7422 196.372 19.7319 196.539 19.7225L196.546 19.8473C196.714 19.8378 196.88 19.8291 197.046 19.8213L197.04 19.6964C197.206 19.6885 197.371 19.6814 197.535 19.6751L197.539 19.8C197.703 19.7937 197.865 19.7881 198.027 19.7834L198.023 19.6585C198.189 19.6536 198.354 19.6496 198.518 19.6464L198.52 19.7714C198.691 19.768 198.861 19.7656 199.029 19.7641L199.028 19.6391C199.197 19.6376 199.365 19.637 199.532 19.6373L199.532 19.7623C199.698 19.7626 199.863 19.7638 200.027 19.7659L200.028 19.641C200.193 19.6431 200.356 19.6462 200.518 19.6501L200.515 19.7751C200.679 19.7791 200.842 19.7841 201.004 19.79L201.009 19.6651C201.181 19.6714 201.351 19.6788 201.52 19.6872L201.514 19.8121C201.682 19.8205 201.849 19.8299 202.015 19.8405L202.023 19.7157C202.189 19.7263 202.354 19.738 202.518 19.7507L202.508 19.8753C202.671 19.888 202.832 19.9018 202.992 19.9166L203.004 19.7921C203.171 19.8076 203.336 19.8242 203.5 19.842L203.486 19.9662C203.656 19.9847 203.824 20.0044 203.99 20.0253L204.006 19.9013C204.173 19.9223 204.338 19.9447 204.502 19.9683L204.484 20.092C204.647 20.1155 204.808 20.1402 204.968 20.1662L204.988 20.0428C205.149 20.0691 205.309 20.0967 205.467 20.1256L205.444 20.2485C205.613 20.2795 205.78 20.3119 205.945 20.3459L205.971 20.2234C206.137 20.2576 206.3 20.2932 206.462 20.3303L206.434 20.4522C206.595 20.4891 206.754 20.5275 206.911 20.5675L206.942 20.4463C207.1 20.4865 207.255 20.5283 207.409 20.5715L207.375 20.6919C207.541 20.7384 207.704 20.7868 207.864 20.8369L207.901 20.7176C208.063 20.768 208.222 20.8203 208.379 20.8743L208.338 20.9925C208.493 21.0462 208.646 21.1016 208.797 21.1588L208.841 21.0419C208.996 21.1009 209.148 21.1617 209.298 21.2245L209.25 21.3397C209.407 21.4055 209.561 21.4734 209.711 21.5433L209.764 21.4299C209.916 21.5005 210.066 21.5732 210.212 21.6481L210.155 21.7594C210.3 21.8335 210.441 21.9097 210.58 21.988L210.641 21.8791C210.79 21.9628 210.934 22.0489 211.076 22.1374L211.009 22.2433C211.151 22.3319 211.289 22.4228 211.423 22.5162L211.494 22.4136C211.63 22.5081 211.763 22.6051 211.891 22.7046L211.815 22.8035C211.946 22.9046 212.073 23.0083 212.196 23.1146L212.278 23.0199C212.405 23.1299 212.529 23.2426 212.648 23.3581L212.561 23.4479C212.679 23.5617 212.792 23.6782 212.902 23.7975L212.994 23.7129C213.106 23.8353 213.215 23.9605 213.319 24.0886L213.222 24.1674C213.325 24.2949 213.425 24.4253 213.519 24.5585L213.621 24.4859Z" stroke="url(#paint3_linear_4479_22507)" stroke-width="0.25" stroke-dasharray="0.5 0.5"/>
<circle cx="191.5" cy="63.5" r="1.5" fill="#D9D9D9"/>
<circle cx="195.5" cy="59.5" r="1.5" fill="#D9D9D9"/>
<circle cx="23.5" cy="125.5" r="1.5" fill="#53FEA9"/>
</g>
<defs>
<filter id="filter0_d_4479_22507" x="8.8894" y="6.13672" width="219.747" height="147.955" filterUnits="userSpaceOnUse" color-interpolation-filters="sRGB">
<feFlood flood-opacity="0" result="BackgroundImageFix"/>
<feColorMatrix in="SourceAlpha" type="matrix" values="0 0 0 0 0 0 0 0 0 0 0 0 0 0 0 0 0 0 127 0" result="hardAlpha"/>
<feOffset/>
<feGaussianBlur stdDeviation="6.5"/>
<feComposite in2="hardAlpha" operator="out"/>
<feColorMatrix type="matrix" values="0 0 0 0 0 0 0 0 0 1 0 0 0 0 0.7 0 0 0 0.25 0"/>
<feBlend mode="normal" in2="BackgroundImageFix" result="effect1_dropShadow_4479_22507"/>
<feBlend mode="normal" in="SourceGraphic" in2="effect1_dropShadow_4479_22507" result="shape"/>
</filter>
<radialGradient id="paint0_radial_4479_22507" cx="0" cy="0" r="1" gradientUnits="userSpaceOnUse" gradientTransform="translate(119.042 74.1414) rotate(105) scale(33.1793 33.2749)">
<stop stop-color="white"/>
<stop offset="1" stop-color="white" stop-opacity="0"/>
</radialGradient>
<radialGradient id="paint1_radial_4479_22507" cx="0" cy="0" r="1" gradientUnits="userSpaceOnUse" gradientTransform="translate(134.235 54.7514) rotate(105) scale(4.97211 9.65737)">
<stop stop-color="white"/>
<stop offset="1" stop-color="white" stop-opacity="0"/>
</radialGradient>
<linearGradient id="paint2_linear_4479_22507" x1="118.763" y1="51.1147" x2="118.763" y2="109.115" gradientUnits="userSpaceOnUse">
<stop offset="0.170133" stop-color="#53FDA9" stop-opacity="0"/>
<stop offset="0.878479" stop-color="#53FDA9"/>
</linearGradient>
<linearGradient id="paint3_linear_4479_22507" x1="134" y1="104.5" x2="102" y2="56" gradientUnits="userSpaceOnUse">
<stop stop-color="white"/>
<stop offset="1" stop-color="white" stop-opacity="0"/>
</linearGradient>
<clipPath id="clip0_4479_22507">
<rect width="240" height="160" fill="white"/>
</clipPath>
</defs>
</svg>
