<svg width="348" height="200" viewBox="0 0 348 200" fill="none"
    xmlns="http://www.w3.org/2000/svg">
    <path d="M212.066 112C212.126 114.184 213.882 115.94 216.066 116C213.882 116.06 212.126 117.816 212.066 120C212.006 117.816 210.25 116.06 208.066 116C210.25 115.94 212.006 114.184 212.066 112Z" fill="white"/>
    <path d="M240.066 0C240.126 2.18368 241.882 3.9397 244.066 4C241.882 4.0603 240.126 5.81632 240.066 8C240.006 5.81632 238.25 4.0603 236.066 4C238.25 3.9397 240.006 2.18368 240.066 0Z" fill="#53FDA9"/>
    <path d="M88.0659 41C88.1262 43.1837 89.8822 44.9397 92.0659 45C89.8822 45.0603 88.1262 46.8163 88.0659 49C88.0056 46.8163 86.2496 45.0603 84.0659 45C86.2496 44.9397 88.0056 43.1837 88.0659 41Z" fill="white"/>
    <path d="M133.316 79.5C133.316 73.4219 137.864 67.8634 145.34 63.8099C152.807 59.7616 163.139 57.25 174.566 57.25C185.992 57.25 196.325 59.7616 203.792 63.8099C211.268 67.8635 215.816 73.422 215.816 79.5C215.816 85.5781 211.268 91.1366 203.792 95.1901C196.325 99.2384 185.992 101.75 174.566 101.75C163.139 101.75 152.807 99.2384 145.34 95.1901C137.864 91.1365 133.316 85.578 133.316 79.5Z" stroke="#53FDA9" stroke-width="0.5"/>
    <ellipse cx="174.066" cy="80" rx="23" ry="13" transform="rotate(-180 174.066 80)" stroke="url(#paint0_linear_4612_2406)" stroke-width="0.5" stroke-linecap="round" stroke-linejoin="round" stroke-dasharray="2 2"/>
    <path d="M158.201 82.2004C157.725 81.6562 157.388 81.0813 157.211 80.4843L157.451 80.4131C157.362 80.1132 157.316 79.8086 157.316 79.5C157.316 79.1914 157.362 78.8868 157.451 78.5869L157.211 78.5157C157.388 77.9187 157.725 77.3438 158.201 76.7996L158.389 76.9642C158.777 76.5213 159.265 76.0954 159.843 75.6929L159.701 75.4877C160.213 75.1317 160.791 74.796 161.427 74.484L161.537 74.7085C162.097 74.4342 162.704 74.1779 163.353 73.9422L163.267 73.7072C163.869 73.4888 164.505 73.2882 165.171 73.1073L165.237 73.3486C165.853 73.1812 166.497 73.0308 167.163 72.8988L167.115 72.6536C167.752 72.5275 168.41 72.4181 169.086 72.3269L169.12 72.5746C169.761 72.4881 170.419 72.4179 171.091 72.3652L171.071 72.116C171.724 72.0648 172.39 72.03 173.067 72.0127L173.073 72.2627C173.402 72.2543 173.733 72.25 174.066 72.25C174.399 72.25 174.73 72.2543 175.059 72.2627L175.065 72.0127C175.742 72.03 176.408 72.0648 177.061 72.116L177.041 72.3652C177.713 72.4179 178.371 72.4881 179.012 72.5746L179.046 72.3269C179.722 72.4181 180.38 72.5275 181.017 72.6536L180.969 72.8988C181.635 73.0308 182.279 73.1812 182.895 73.3486L182.961 73.1073C183.627 73.2882 184.263 73.4888 184.865 73.7072L184.779 73.9422C185.428 74.1779 186.035 74.4342 186.595 74.7085L186.705 74.484C187.341 74.796 187.919 75.1317 188.431 75.4877L188.289 75.6929C188.867 76.0954 189.355 76.5213 189.743 76.9642L189.931 76.7996C190.407 77.3438 190.743 77.9187 190.921 78.5157L190.681 78.5869C190.77 78.8868 190.816 79.1914 190.816 79.5C190.816 79.8086 190.77 80.1132 190.681 80.4131L190.921 80.4843C190.743 81.0813 190.407 81.6562 189.931 82.2004L189.743 82.0358C189.355 82.4787 188.867 82.9046 188.289 83.3071L188.431 83.5123C187.919 83.8683 187.341 84.204 186.705 84.516L186.595 84.2915C186.035 84.5658 185.428 84.8221 184.779 85.0578L184.865 85.2928C184.263 85.5112 183.627 85.7118 182.961 85.8927L182.895 85.6514C182.279 85.8188 181.635 85.9692 180.969 86.1012L181.017 86.3464C180.38 86.4725 179.722 86.5819 179.046 86.6731L179.012 86.4254C178.371 86.5119 177.713 86.5821 177.041 86.6348L177.061 86.884C176.408 86.9352 175.742 86.97 175.065 86.9873L175.059 86.7373C174.73 86.7457 174.399 86.75 174.066 86.75C173.733 86.75 173.402 86.7457 173.073 86.7373L173.067 86.9873C172.39 86.97 171.724 86.9352 171.071 86.884L171.091 86.6348C170.419 86.5821 169.761 86.5119 169.12 86.4254L169.086 86.6731C168.41 86.5819 167.752 86.4725 167.115 86.3464L167.163 86.1012C166.497 85.9692 165.853 85.8188 165.237 85.6514L165.171 85.8927C164.505 85.7118 163.869 85.5112 163.267 85.2928L163.353 85.0578C162.704 84.8221 162.097 84.5658 161.537 84.2915L161.427 84.516C160.791 84.204 160.213 83.8683 159.701 83.5123L159.843 83.3071C159.265 82.9046 158.777 82.4787 158.389 82.0358L158.201 82.2004Z" stroke="#53FDA9" stroke-width="0.5" stroke-dasharray="2 2"/>
    <path d="M117.316 80C117.316 71.5743 123.599 63.8909 133.88 58.2993C144.152 52.713 158.359 49.25 174.066 49.25C189.773 49.25 203.98 52.713 214.252 58.2993C224.533 63.8909 230.816 71.5743 230.816 80C230.816 88.4257 224.533 96.1091 214.252 101.701C203.98 107.287 189.773 110.75 174.066 110.75C158.359 110.75 144.152 107.287 133.88 101.701C123.599 96.1091 117.316 88.4257 117.316 80Z" stroke="white" stroke-opacity="0.2" stroke-width="0.5"/>
    <path d="M98.3159 79.5C98.3159 68.1743 106.726 57.866 120.446 50.3745C134.156 42.8881 153.113 38.25 174.066 38.25C195.019 38.25 213.976 42.8881 227.686 50.3745C241.406 57.866 249.816 68.1743 249.816 79.5C249.816 90.8257 241.406 101.134 227.686 108.626C213.976 116.112 195.019 120.75 174.066 120.75C153.113 120.75 134.156 116.112 120.446 108.626C106.726 101.134 98.3159 90.8257 98.3159 79.5Z" stroke="white" stroke-opacity="0.1" stroke-width="0.5"/>
    <path d="M76.3159 79.5C76.3159 64.8606 87.1887 51.5523 104.889 41.8892C122.58 32.2313 147.038 26.25 174.066 26.25C201.094 26.25 225.551 32.2313 243.243 41.8892C260.943 51.5523 271.816 64.8607 271.816 79.5C271.816 94.1394 260.943 107.448 243.243 117.111C225.551 126.769 201.094 132.75 174.066 132.75C147.038 132.75 122.58 126.769 104.889 117.111C87.1887 107.448 76.3159 94.1393 76.3159 79.5Z" stroke="white" stroke-opacity="0.05" stroke-width="0.5"/>
    <path d="M173 200L173 84C173 83.4477 173.448 83 174 83C174.552 83 175 83.4477 175 84L175 200L173 200Z" fill="url(#paint1_linear_4612_2406)"/>
    <path d="M171.066 184L171.066 83C171.066 82.4477 170.618 82 170.066 82C169.514 82 169.066 82.4477 169.066 83L169.066 184L171.066 184Z" fill="url(#paint2_linear_4612_2406)"/>
    <path d="M167.066 153L167.066 80C167.066 79.4477 166.618 79 166.066 79C165.514 79 165.066 79.4477 165.066 80L165.066 153L167.066 153Z" fill="url(#paint3_linear_4612_2406)"/>
    <path d="M177.066 184L177.066 83C177.066 82.4477 177.514 82 178.066 82C178.618 82 179.066 82.4477 179.066 83L179.066 184L177.066 184Z" fill="url(#paint4_linear_4612_2406)"/>
    <path d="M181.066 153L181.066 80C181.066 79.4477 181.514 79 182.066 79C182.618 79 183.066 79.4477 183.066 80L183.066 153L181.066 153Z" fill="url(#paint5_linear_4612_2406)"/>
    <ellipse cx="174.066" cy="79.5" rx="20" ry="10.5" transform="rotate(-180 174.066 79.5)" fill="#53FDA9" fill-opacity="0.75"/>
    <path d="M59.5953 144.14C66.5763 149.094 76.2519 147.451 81.2063 140.47C86.1607 133.489 84.5178 123.814 77.5367 118.859C70.5557 113.905 60.8801 115.548 55.9258 122.529C50.9714 129.51 52.6143 139.186 59.5953 144.14Z" fill="url(#paint6_linear_4612_2406)"/>
    <path d="M261.647 141.722C265.058 138.849 265.494 133.754 262.621 130.343C259.748 126.932 254.653 126.496 251.242 129.37C247.831 132.243 247.395 137.337 250.268 140.748C253.142 144.159 258.236 144.595 261.647 141.722Z" fill="url(#paint7_linear_4612_2406)"/>
    <path d="M203.287 4.77145C200.842 3.65402 197.954 4.73057 196.836 7.176C195.719 9.62142 196.795 12.5097 199.241 13.6271C201.686 14.7445 204.575 13.668 205.692 11.2226C206.809 8.77714 205.733 5.88888 203.287 4.77145Z" fill="url(#paint8_radial_4612_2406)"/>
    <path d="M272.309 57.9846L213.136 71.6573C213.023 71.6834 212.912 71.6093 212.892 71.4954C212.874 71.3901 212.941 71.2889 213.045 71.2649L272.241 57.5871L272.309 57.9846Z" fill="url(#paint9_linear_4612_2406)"/>
    <path d="M75.3456 62.3095L133.996 74.5529C134.109 74.5765 134.179 74.6904 134.149 74.8022C134.122 74.9054 134.018 74.969 133.914 74.9472L75.2412 62.6992L75.3456 62.3095Z" fill="url(#paint10_linear_4612_2406)"/>
    <path d="M122.173 133.564L153.329 98.675C153.413 98.5815 153.561 98.5884 153.635 98.6892C153.691 98.7645 153.686 98.8683 153.624 98.938L122.412 133.889L122.173 133.564Z" fill="url(#paint11_linear_4612_2406)"/>
    <path d="M100.566 92.9297L134.399 85.2137C134.471 85.1974 134.545 85.225 134.589 85.2842C134.668 85.3914 134.611 85.5446 134.481 85.5742L100.806 93.2543L100.566 92.9297Z" fill="url(#paint12_linear_4612_2406)"/>
    <path d="M209.26 30.4727L185.282 58.0662C185.218 58.1397 185.11 58.1562 185.027 58.1051C184.922 58.0407 184.901 57.8978 184.981 57.8051L208.917 30.2611L209.26 30.4727Z" fill="url(#paint13_linear_4612_2406)"/>
    <circle cx="174.05" cy="72.0117" r="8" transform="rotate(-180 174.05 72.0117)" fill="white"/>
    <circle r="1.5" transform="matrix(-0.980954 0.194241 0.194241 0.980954 252.998 48.0655)" fill="white"/>
    <circle r="1.5" transform="matrix(-0.980954 0.194241 0.194241 0.980954 248.297 44.919)" fill="white"/>
    <circle r="1.06125" transform="matrix(-0.980954 0.194241 0.194241 0.980954 119.613 108.343)" fill="white"/>
    <circle r="0.927823" transform="matrix(-0.980954 0.194241 0.194241 0.980954 132.632 58.9576)" fill="#53FDA9"/>
    <circle r="0.927823" transform="matrix(-0.980954 0.194241 0.194241 0.980954 135.251 57.4712)" fill="#53FDA9"/>
    <defs>
        <linearGradient id="paint0_linear_4612_2406" x1="174.066" y1="67" x2="174.066" y2="93" gradientUnits="userSpaceOnUse">
            <stop offset="0.170133" stop-color="white" stop-opacity="0"/>
            <stop offset="0.878479" stop-color="white"/>
        </linearGradient>
        <linearGradient id="paint1_linear_4612_2406" x1="173.999" y1="57.9395" x2="174.114" y2="186.579" gradientUnits="userSpaceOnUse">
            <stop stop-color="white"/>
            <stop offset="1" stop-color="white" stop-opacity="0"/>
        </linearGradient>
        <linearGradient id="paint2_linear_4612_2406" x1="170.067" y1="60.1524" x2="169.979" y2="172.299" gradientUnits="userSpaceOnUse">
            <stop stop-color="white"/>
            <stop offset="1" stop-color="white" stop-opacity="0"/>
        </linearGradient>
        <linearGradient id="paint3_linear_4612_2406" x1="166.067" y1="63.1498" x2="166.021" y2="144.511" gradientUnits="userSpaceOnUse">
            <stop stop-color="white"/>
            <stop offset="1" stop-color="white" stop-opacity="0"/>
        </linearGradient>
        <linearGradient id="paint4_linear_4612_2406" x1="178.065" y1="60.1524" x2="178.152" y2="172.299" gradientUnits="userSpaceOnUse">
            <stop stop-color="white"/>
            <stop offset="1" stop-color="white" stop-opacity="0"/>
        </linearGradient>
        <linearGradient id="paint5_linear_4612_2406" x1="182.065" y1="63.1498" x2="182.111" y2="144.511" gradientUnits="userSpaceOnUse">
            <stop stop-color="white"/>
            <stop offset="1" stop-color="white" stop-opacity="0"/>
        </linearGradient>
        <linearGradient id="paint6_linear_4612_2406" x1="77.5367" y1="118.859" x2="59.5953" y2="144.14" gradientUnits="userSpaceOnUse">
            <stop stop-color="#321289"/>
            <stop offset="1"/>
        </linearGradient>
        <linearGradient id="paint7_linear_4612_2406" x1="251.242" y1="129.37" x2="261.647" y2="141.722" gradientUnits="userSpaceOnUse">
            <stop stop-color="#632BFF"/>
            <stop offset="1"/>
        </linearGradient>
        <radialGradient id="paint8_radial_4612_2406" cx="0" cy="0" r="1" gradientUnits="userSpaceOnUse" gradientTransform="translate(200.566 10.5) rotate(-57.5288) scale(6.5192)">
            <stop stop-color="#5C28ED"/>
            <stop offset="1"/>
        </radialGradient>
        <linearGradient id="paint9_linear_4612_2406" x1="212.874" y1="71.7048" x2="272.876" y2="57.5276" gradientUnits="userSpaceOnUse">
            <stop stop-color="#53FDA9"/>
            <stop offset="1" stop-color="#53FDA9" stop-opacity="0"/>
        </linearGradient>
        <linearGradient id="paint10_linear_4612_2406" x1="133.741" y1="74.6991" x2="77.2292" y2="62.7559" gradientUnits="userSpaceOnUse">
            <stop stop-color="#53FDA9"/>
            <stop offset="1" stop-color="#53FDA9" stop-opacity="0"/>
        </linearGradient>
        <linearGradient id="paint11_linear_4612_2406" x1="153.959" y1="99.1456" x2="123.23" y2="137.904" gradientUnits="userSpaceOnUse">
            <stop stop-color="#53FDA9"/>
            <stop offset="1" stop-color="#53FDA9" stop-opacity="0"/>
        </linearGradient>
        <linearGradient id="paint12_linear_4612_2406" x1="134.31" y1="85.6153" x2="100.575" y2="93.7481" gradientUnits="userSpaceOnUse">
            <stop stop-color="#53FDA9"/>
            <stop offset="1" stop-color="#53FDA9" stop-opacity="0"/>
        </linearGradient>
        <linearGradient id="paint13_linear_4612_2406" x1="185.203" y1="57.7187" x2="202.899" y2="28.9078" gradientUnits="userSpaceOnUse">
            <stop stop-color="#53FDA9"/>
            <stop offset="1" stop-color="#53FDA9" stop-opacity="0"/>
        </linearGradient>
    </defs>
</svg>
