<svg width="348" height="200" viewBox="0 0 348 200" fill="none"
    xmlns="http://www.w3.org/2000/svg">
    <rect width="99.2606" height="63.5659" rx="3" transform="matrix(1 8.76912e-09 -1.59636e-07 -1 69.2751 148.684)" fill="url(#paint0_linear_4612_2164)" fill-opacity="0.9" stroke="url(#paint1_linear_4612_2164)" stroke-width="0.25" stroke-linecap="round" stroke-linejoin="round"/>
    <rect width="99.2606" height="63.5659" rx="3" transform="matrix(1 8.76912e-09 -1.59636e-07 -1 180.145 148.684)" fill="url(#paint2_linear_4612_2164)" fill-opacity="0.9" stroke="url(#paint3_linear_4612_2164)" stroke-width="0.25" stroke-linecap="round" stroke-linejoin="round"/>
    <rect x="82.8613" y="98.1445" width="42.4036" height="2.65967" fill="url(#paint4_linear_4612_2164)"/>
    <rect x="82.8613" y="103.465" width="42.4036" height="2.65967" fill="url(#paint5_linear_4612_2164)"/>
    <rect x="82.8613" y="109.902" width="14.7997" height="0.928279" fill="url(#paint6_linear_4612_2164)"/>
    <rect x="226.019" y="98.1445" width="42.4036" height="2.65967" fill="url(#paint7_linear_4612_2164)"/>
    <rect x="226.019" y="103.465" width="42.4036" height="2.65967" fill="url(#paint8_linear_4612_2164)"/>
    <rect x="226.019" y="109.902" width="14.7997" height="0.928279" fill="url(#paint9_linear_4612_2164)"/>
    <ellipse cx="175.268" cy="108.047" rx="113.881" ry="14.7817" stroke="url(#paint10_linear_4612_2164)" stroke-linecap="round" stroke-linejoin="round" stroke-dasharray="2 2"/>
    <rect width="123.969" height="79.3892" rx="3" transform="matrix(1 8.76912e-09 -1.59636e-07 -1 112.355 145.404)" fill="url(#paint11_linear_4612_2164)" stroke="url(#paint12_linear_4612_2164)" stroke-width="0.25" stroke-linecap="round" stroke-linejoin="round"/>
    <path d="M242.8 55.8566C242.901 55.9893 242.996 56.1259 243.085 56.2664L242.874 56.4005C242.917 56.4677 242.958 56.5359 242.998 56.6051C243.038 56.6741 243.076 56.7438 243.113 56.8142L243.335 56.6985C243.411 56.8456 243.482 56.9959 243.546 57.1492L243.316 57.246C243.377 57.3921 243.433 57.5411 243.483 57.6931L243.72 57.6154C243.771 57.7715 243.816 57.9304 243.856 58.0922L243.613 58.1512C243.651 58.3066 243.683 58.4648 243.709 58.626L243.956 58.5852C243.983 58.7449 244.004 58.9071 244.02 59.0718L243.771 59.0958C243.786 59.2551 243.796 59.4169 243.802 59.5814L244.052 59.5734C244.057 59.7358 244.057 59.9006 244.053 60.0675L243.803 60.0611C243.799 60.2199 243.791 60.3809 243.778 60.5441L244.027 60.5637C244.014 60.7294 243.996 60.8972 243.975 61.0669L243.727 61.035C243.707 61.1905 243.683 61.3479 243.655 61.5071L243.902 61.5497C243.874 61.7123 243.842 61.8767 243.806 62.0428L243.562 61.9903C243.528 62.1479 243.491 62.3072 243.45 62.4681L243.692 62.5296C243.652 62.6861 243.61 62.8441 243.563 63.0034L243.323 62.934C243.278 63.0908 243.229 63.249 243.178 63.4087L243.416 63.4856C243.365 63.6418 243.312 63.7992 243.255 63.9579L243.02 63.8743C242.967 64.0246 242.911 64.1761 242.852 64.3288L243.085 64.4184C243.026 64.573 242.964 64.7288 242.899 64.8857L242.668 64.7904C242.605 64.942 242.54 65.0947 242.473 65.2485L242.702 65.349C242.637 65.4965 242.57 65.6448 242.501 65.7942L242.274 65.689C242.205 65.8368 242.135 65.9856 242.062 66.1354L242.286 66.2449C242.213 66.3961 242.137 66.5482 242.059 66.7012L241.836 66.5875C241.763 66.7299 241.689 66.8732 241.612 67.0172L241.833 67.1346C241.756 67.2785 241.678 67.4232 241.597 67.5686L241.378 67.4478C241.299 67.5921 241.217 67.7372 241.134 67.8831L241.351 68.0072C241.268 68.1524 241.183 68.2983 241.096 68.4449L240.881 68.3176C240.799 68.4553 240.716 68.5937 240.631 68.7327L240.845 68.8628C240.76 69.0027 240.673 69.1433 240.584 69.2845L240.372 69.1517C240.284 69.292 240.195 69.433 240.104 69.5746L240.314 69.71C240.223 69.8503 240.132 69.9913 240.038 70.1328L239.829 69.995C239.741 70.129 239.651 70.2636 239.56 70.3987L239.767 70.5387C239.675 70.6746 239.582 70.8109 239.487 70.9478L239.282 70.8057C239.187 70.9418 239.092 71.0786 238.995 71.2158L239.199 71.36C239.102 71.4977 239.004 71.6359 238.904 71.7746L238.701 71.6284C238.607 71.7587 238.512 71.8895 238.415 72.0206L238.617 72.1686C238.52 72.3004 238.422 72.4326 238.323 72.5653L238.123 72.4156C238.024 72.5477 237.924 72.6802 237.823 72.8132L238.022 72.9645C237.921 73.098 237.818 73.232 237.714 73.3664L237.516 73.2134C237.416 73.3432 237.314 73.4734 237.212 73.604L237.408 73.7585C237.308 73.8864 237.206 74.0146 237.103 74.1432L236.908 73.9873C236.806 74.1155 236.702 74.244 236.598 74.3729L236.792 74.5302C236.688 74.6596 236.582 74.7893 236.475 74.9193L236.282 74.7607C236.175 74.8903 236.068 75.0203 235.959 75.1506L236.151 75.3106C236.047 75.4358 235.942 75.5614 235.836 75.6873L235.645 75.5261C235.54 75.6505 235.434 75.7753 235.327 75.9003L235.517 76.0627C235.41 76.1881 235.302 76.3139 235.193 76.4399L235.004 76.2764C234.895 76.402 234.785 76.528 234.675 76.6543L234.863 76.8189C234.752 76.9456 234.64 77.0725 234.528 77.1997L234.34 77.034C234.302 77.0771 234.264 77.1202 234.226 77.1634C234.22 77.1695 234.215 77.1757 234.209 77.1819C234.145 77.2545 234.08 77.3272 234.015 77.3999L234.201 77.5667C234.092 77.6885 233.982 77.8105 233.871 77.9328L233.686 77.7651C233.575 77.887 233.464 78.0093 233.352 78.1318L233.537 78.3005C233.424 78.4233 233.311 78.5464 233.197 78.6697L233.014 78.5C232.9 78.623 232.785 78.7463 232.67 78.8698L232.853 79.0404C232.741 79.1606 232.628 79.2812 232.514 79.4019L232.332 79.2304C232.22 79.349 232.108 79.4677 231.994 79.5867L232.175 79.7591C232.062 79.8783 231.948 79.9978 231.833 80.1175L231.652 79.9444C231.608 79.9906 231.564 80.0369 231.519 80.0833C231.448 80.1565 231.377 80.2299 231.306 80.3033L231.486 80.4773C231.369 80.5974 231.252 80.7177 231.134 80.8382L230.956 80.6635C230.839 80.7828 230.722 80.9023 230.604 81.0221L230.782 81.1976C230.667 81.3136 230.552 81.4298 230.436 81.5462L230.259 81.3699C230.144 81.486 230.028 81.6023 229.911 81.7188L230.087 81.8958C229.97 82.0125 229.853 82.1295 229.734 82.2465L229.558 82.0688C229.44 82.1857 229.322 82.3027 229.202 82.4199L229.377 82.5983C229.258 82.7158 229.137 82.8334 229.017 82.9511L228.842 82.7721C228.724 82.8874 228.605 83.0028 228.485 83.1184L228.659 83.2982C228.541 83.4118 228.423 83.5255 228.305 83.6395L228.131 83.4591C228.013 83.5728 227.894 83.6867 227.774 83.8007L227.947 83.9817C227.827 84.0959 227.706 84.2102 227.585 84.3248L227.414 84.1431C227.293 84.2574 227.171 84.3719 227.049 84.4865L227.22 84.6687C227.098 84.7835 226.975 84.8985 226.852 85.0136L226.681 84.8307C226.597 84.9098 226.512 84.989 226.426 85.0682C226.397 85.0954 226.368 85.1225 226.338 85.1497C226.332 85.156 226.325 85.1623 226.318 85.1686L226.488 85.3519C226.368 85.4632 226.247 85.5746 226.126 85.6861L225.957 85.5021C225.836 85.6135 225.714 85.7249 225.592 85.8365L225.761 86.021C225.639 86.1327 225.516 86.2446 225.393 86.3566L225.225 86.1716C225.102 86.2834 224.978 86.3953 224.854 86.5074L225.022 86.693C224.897 86.8052 224.772 86.9176 224.647 87.03L224.48 86.8439C224.357 86.9545 224.233 87.0652 224.109 87.176L224.275 87.3626C224.153 87.4716 224.03 87.5806 223.907 87.6898L223.741 87.5027C223.618 87.6117 223.495 87.7208 223.371 87.83L223.536 88.0176C223.412 88.127 223.287 88.2364 223.162 88.346L222.997 88.1579C222.941 88.2076 222.884 88.2573 222.827 88.307C222.767 88.3593 222.707 88.4116 222.647 88.464C222.638 88.4715 222.63 88.479 222.621 88.4865L222.785 88.675C222.659 88.7848 222.533 88.8946 222.406 89.0046L222.242 88.8156C222.116 88.925 221.989 89.0345 221.862 89.1441L222.025 89.3335C221.901 89.4403 221.776 89.5471 221.651 89.654L221.489 89.4641C221.44 89.5059 221.391 89.5478 221.342 89.5896C221.331 89.5993 221.319 89.609 221.308 89.6186C221.251 89.667 221.195 89.7154 221.138 89.7638C221.13 89.7707 221.122 89.7776 221.113 89.7846L221.276 89.9749C221.15 90.082 221.024 90.1891 220.897 90.2964L220.735 90.1056C220.609 90.2126 220.482 90.3198 220.355 90.4271L220.516 90.6183C220.388 90.7257 220.26 90.8331 220.132 90.9407L219.971 90.749C219.908 90.8018 219.845 90.8547 219.782 90.9076C219.716 90.9622 219.651 91.0168 219.585 91.0714L219.745 91.2635C219.618 91.3694 219.491 91.4754 219.363 91.5814L219.203 91.389C219.077 91.4935 218.951 91.5982 218.824 91.7029L218.983 91.8958C218.856 92.0006 218.728 92.1055 218.6 92.2105L218.441 92.0173C218.314 92.1221 218.186 92.227 218.057 92.332L218.215 92.5257C218.086 92.6308 217.957 92.7359 217.828 92.8411L217.67 92.6471C217.541 92.7522 217.411 92.8574 217.281 92.9626L217.438 93.157C217.307 93.2624 217.177 93.3678 217.046 93.4732L216.889 93.2784C216.761 93.3814 216.633 93.4844 216.504 93.5875L216.66 93.7827C216.532 93.8854 216.403 93.9881 216.274 94.091L216.118 93.8954C215.989 93.9981 215.86 94.1009 215.73 94.2037L215.886 94.3996C215.756 94.5025 215.626 94.6055 215.495 94.7085L215.34 94.5122C215.21 94.6151 215.079 94.7181 214.948 94.8211L215.102 95.0177C214.971 95.1208 214.84 95.2239 214.708 95.3271L214.554 95.1302C214.422 95.2333 214.29 95.3364 214.157 95.4395L214.31 95.6368C214.181 95.7378 214.051 95.8387 213.92 95.9397L213.767 95.7421C213.637 95.8427 213.507 95.9434 213.377 96.0441L213.529 96.2421C213.398 96.3429 213.267 96.4438 213.136 96.5447L212.984 96.3464C212.852 96.4472 212.721 96.548 212.589 96.6489L212.741 96.8475C212.609 96.9485 212.476 97.0495 212.343 97.1505L212.192 96.9516C212.059 97.0525 211.927 97.1535 211.793 97.2544L211.944 97.4537C211.811 97.5548 211.677 97.6559 211.543 97.7571L211.392 97.5575C211.261 97.6566 211.129 97.7558 210.997 97.855L211.147 98.0549C211.016 98.1537 210.884 98.2526 210.752 98.3515L210.602 98.1513C210.47 98.2501 210.337 98.3488 210.205 98.4477L210.354 98.6482C210.221 98.7471 210.088 98.846 209.955 98.945L209.806 98.7442C209.672 98.8431 209.539 98.942 209.405 99.0409L209.553 99.242C209.419 99.341 209.285 99.44 209.15 99.5391L209.002 99.3377C208.868 99.4366 208.733 99.5356 208.598 99.6345L208.745 99.8362C208.612 99.9342 208.478 100.032 208.343 100.13L208.196 99.9281C208.164 99.9517 208.131 99.9752 208.099 99.9987C208.092 100.004 208.084 100.01 208.077 100.015C207.984 100.083 207.89 100.151 207.797 100.219L207.944 100.421C207.81 100.518 207.676 100.615 207.542 100.712L207.396 100.509L207.288 100.587C207.19 100.658 207.092 100.729 206.993 100.8L207.139 101.003C207.005 101.1 206.87 101.197 206.734 101.294L206.589 101.091C206.454 101.188 206.318 101.285 206.183 101.382L206.328 101.585C206.192 101.682 206.056 101.779 205.92 101.876L205.775 101.673C205.639 101.769 205.502 101.866 205.366 101.963L205.51 102.167C205.376 102.262 205.242 102.357 205.107 102.452L204.963 102.248C204.829 102.343 204.694 102.438 204.559 102.533L204.702 102.738C204.567 102.833 204.432 102.928 204.296 103.023L204.153 102.818C204.017 102.913 203.881 103.008 203.745 103.103L203.888 103.308C203.752 103.403 203.615 103.499 203.478 103.594L203.336 103.388C203.264 103.438 203.192 103.488 203.12 103.538C203.055 103.583 202.99 103.628 202.925 103.673L203.067 103.879C202.93 103.974 202.792 104.069 202.655 104.164L202.513 103.958C202.461 103.994 202.409 104.03 202.358 104.065C202.346 104.073 202.334 104.082 202.322 104.09C202.249 104.14 202.176 104.19 202.103 104.241L202.244 104.447C202.108 104.54 201.972 104.633 201.836 104.727L201.695 104.52C201.559 104.614 201.422 104.707 201.286 104.8L201.427 105.007C201.29 105.1 201.153 105.193 201.016 105.286L200.875 105.079C200.738 105.173 200.601 105.266 200.463 105.359L200.603 105.566C200.466 105.659 200.328 105.752 200.189 105.846L200.05 105.638C199.912 105.731 199.773 105.825 199.635 105.918L199.774 106.125C199.635 106.218 199.497 106.311 199.357 106.405L199.218 106.197C199.081 106.289 198.944 106.38 198.806 106.472L198.945 106.68C198.807 106.772 198.67 106.863 198.532 106.955L198.394 106.746C198.257 106.838 198.119 106.929 197.981 107.021L198.119 107.229C197.981 107.32 197.842 107.412 197.704 107.503L197.566 107.294C197.526 107.321 197.487 107.347 197.447 107.373C197.429 107.385 197.411 107.397 197.393 107.409C197.312 107.462 197.231 107.515 197.15 107.568L197.287 107.777C197.148 107.869 197.009 107.96 196.87 108.051L196.733 107.842C196.667 107.885 196.602 107.928 196.537 107.97C196.462 108.019 196.388 108.067 196.314 108.116L196.45 108.325C196.311 108.416 196.17 108.507 196.03 108.599L195.894 108.389C195.756 108.479 195.617 108.569 195.478 108.658L195.614 108.868C195.476 108.958 195.337 109.048 195.198 109.137L195.063 108.927C194.924 109.017 194.785 109.106 194.645 109.196L194.781 109.406C194.641 109.496 194.502 109.585 194.362 109.675L194.227 109.464C194.087 109.554 193.947 109.643 193.807 109.733L193.942 109.943C193.802 110.033 193.661 110.122 193.52 110.212L193.386 110.001C193.347 110.026 193.308 110.05 193.269 110.075C193.26 110.081 193.251 110.087 193.242 110.093C193.161 110.144 193.08 110.195 192.999 110.247C192.987 110.254 192.976 110.261 192.964 110.269L193.098 110.48C192.957 110.569 192.816 110.658 192.674 110.748L192.541 110.536C192.401 110.624 192.261 110.712 192.122 110.8L192.255 111.012C192.115 111.1 191.975 111.188 191.835 111.276L191.702 111.064C191.562 111.152 191.422 111.239 191.281 111.327L191.414 111.539C191.273 111.627 191.132 111.714 190.991 111.802L190.859 111.59C190.719 111.678 190.578 111.765 190.436 111.853L190.568 112.065C190.427 112.153 190.285 112.24 190.143 112.328L190.012 112.115C189.87 112.203 189.729 112.29 189.587 112.377L189.718 112.59C189.576 112.678 189.433 112.765 189.291 112.853L189.16 112.64C189.019 112.726 188.878 112.812 188.737 112.899L188.867 113.112C188.726 113.198 188.585 113.284 188.444 113.37L188.314 113.157C188.173 113.243 188.031 113.329 187.89 113.414L188.019 113.628C187.878 113.714 187.736 113.8 187.594 113.886L187.465 113.672C187.323 113.758 187.181 113.844 187.038 113.929L187.167 114.143C187.025 114.229 186.882 114.315 186.74 114.401L186.611 114.186C186.468 114.272 186.326 114.357 186.183 114.443L186.311 114.658C186.168 114.743 186.025 114.829 185.881 114.914L185.753 114.699L185.538 114.828L185.312 114.962L185.439 115.177C185.289 115.267 185.138 115.356 184.986 115.446L184.859 115.23C184.708 115.32 184.557 115.409 184.406 115.498L184.533 115.713C184.382 115.802 184.23 115.891 184.079 115.98L183.952 115.765C183.801 115.854 183.65 115.942 183.498 116.031L183.624 116.247C183.473 116.335 183.321 116.424 183.17 116.512L183.044 116.296C182.892 116.385 182.741 116.473 182.589 116.561L182.714 116.777C182.563 116.865 182.411 116.953 182.259 117.041L182.133 116.825L181.906 116.957L181.689 117.082L181.814 117.298C181.669 117.381 181.525 117.465 181.38 117.548L181.256 117.331C181.111 117.414 180.967 117.496 180.823 117.579L180.947 117.796C180.802 117.879 180.658 117.961 180.514 118.043L180.39 117.826C180.245 117.909 180.101 117.991 179.956 118.073L180.079 118.291C179.934 118.373 179.789 118.455 179.644 118.537L179.521 118.32C179.376 118.402 179.231 118.483 179.087 118.565L179.21 118.783C179.065 118.865 178.92 118.946 178.775 119.028L178.652 118.81C178.507 118.891 178.362 118.973 178.217 119.054L178.339 119.272C178.193 119.354 178.048 119.435 177.902 119.516L177.781 119.298C177.635 119.379 177.49 119.46 177.345 119.54L177.466 119.759C177.321 119.84 177.175 119.92 177.03 120.001L176.909 119.782C176.763 119.863 176.617 119.943 176.471 120.024L176.592 120.243C176.446 120.323 176.3 120.404 176.154 120.484L176.034 120.265C175.95 120.311 175.866 120.357 175.783 120.403C175.721 120.437 175.659 120.471 175.596 120.505L175.717 120.724C175.571 120.804 175.425 120.883 175.279 120.963L175.159 120.743C175.013 120.823 174.866 120.903 174.72 120.983L174.839 121.202C174.693 121.282 174.546 121.361 174.4 121.441L174.281 121.221C174.135 121.3 173.988 121.379 173.842 121.458L173.961 121.678C173.814 121.757 173.668 121.836 173.522 121.914L173.403 121.694C173.343 121.727 173.282 121.759 173.221 121.792C173.135 121.838 173.049 121.884 172.963 121.93L173.081 122.151C172.934 122.229 172.787 122.308 172.64 122.386L172.522 122.166C172.375 122.244 172.229 122.322 172.082 122.4L172.199 122.62C172.052 122.699 171.905 122.776 171.758 122.854L171.641 122.633C171.494 122.711 171.346 122.789 171.199 122.867L171.316 123.088C171.168 123.165 171.021 123.243 170.873 123.32L170.757 123.099C170.61 123.176 170.463 123.253 170.316 123.33L170.432 123.552C170.284 123.629 170.136 123.706 169.989 123.783L169.873 123.561C169.787 123.606 169.701 123.65 169.615 123.695C169.553 123.727 169.491 123.759 169.43 123.791L169.545 124.013C169.397 124.09 169.249 124.166 169.101 124.243L168.986 124.021C168.839 124.097 168.691 124.173 168.544 124.249L168.658 124.471C168.51 124.547 168.361 124.623 168.213 124.699L168.099 124.477C167.951 124.553 167.802 124.629 167.654 124.704L167.768 124.927C167.619 125.003 167.471 125.078 167.323 125.153L167.21 124.93C167.061 125.006 166.913 125.081 166.765 125.156L166.878 125.379C166.729 125.454 166.58 125.529 166.431 125.604L166.319 125.381C166.17 125.456 166.021 125.531 165.873 125.605L165.985 125.829C165.836 125.903 165.687 125.978 165.539 126.052L165.427 125.828C165.278 125.903 165.129 125.977 164.98 126.051L165.092 126.275C164.942 126.349 164.793 126.423 164.643 126.497L164.532 126.273C164.465 126.307 164.397 126.34 164.329 126.374C164.248 126.414 164.166 126.454 164.085 126.494L164.196 126.718C164.046 126.792 163.897 126.865 163.749 126.938L163.638 126.714C163.568 126.748 163.498 126.782 163.428 126.817C163.349 126.856 163.269 126.895 163.189 126.934L163.299 127.158C163.149 127.232 162.999 127.305 162.849 127.378L162.74 127.153C162.591 127.225 162.441 127.298 162.292 127.37L162.401 127.595C162.251 127.668 162.101 127.74 161.952 127.812L161.843 127.587C161.693 127.66 161.542 127.732 161.392 127.804L161.5 128.029C161.35 128.102 161.2 128.174 161.05 128.245L160.942 128.02C160.792 128.091 160.642 128.163 160.492 128.234L160.6 128.46C160.449 128.531 160.298 128.603 160.148 128.674L160.041 128.448C159.89 128.519 159.74 128.591 159.589 128.661L159.696 128.888C159.545 128.959 159.394 129.029 159.244 129.1L159.138 128.874C159.061 128.909 158.984 128.945 158.908 128.981C158.834 129.016 158.761 129.05 158.687 129.084L158.793 129.311C158.641 129.382 158.49 129.452 158.338 129.522L158.233 129.296C158.082 129.366 157.931 129.436 157.78 129.506L157.885 129.732C157.734 129.802 157.583 129.872 157.432 129.941L157.328 129.714C157.176 129.784 157.025 129.853 156.874 129.922L156.978 130.15C156.826 130.219 156.674 130.288 156.523 130.357L156.419 130.13C156.268 130.199 156.116 130.268 155.965 130.336L156.068 130.564C155.917 130.632 155.766 130.701 155.614 130.769L155.512 130.541C155.359 130.61 155.207 130.678 155.055 130.746L155.157 130.974C155.005 131.043 154.853 131.111 154.701 131.178L154.599 130.95C154.448 131.018 154.296 131.085 154.144 131.152L154.246 131.381C154.093 131.449 153.941 131.516 153.789 131.583L153.688 131.355C153.535 131.422 153.383 131.489 153.23 131.556L153.331 131.785C153.178 131.852 153.026 131.918 152.874 131.985L152.774 131.756C152.621 131.822 152.469 131.889 152.317 131.955L152.417 132.184C152.263 132.251 152.11 132.317 151.957 132.383L151.858 132.153C151.705 132.22 151.552 132.285 151.399 132.351L151.498 132.581C151.345 132.646 151.193 132.711 151.04 132.777L150.942 132.547C150.789 132.612 150.635 132.678 150.482 132.743L150.58 132.973C150.426 133.038 150.272 133.103 150.119 133.168L150.022 132.937C149.869 133.002 149.716 133.066 149.563 133.13L149.66 133.361C149.506 133.425 149.352 133.49 149.199 133.554L149.103 133.323C148.948 133.387 148.794 133.451 148.641 133.515L148.736 133.746C148.583 133.81 148.429 133.873 148.275 133.936L148.18 133.705C148.026 133.769 147.873 133.832 147.72 133.894L147.814 134.126C147.66 134.189 147.505 134.252 147.35 134.315L147.256 134.084C147.102 134.146 146.948 134.209 146.794 134.271L146.887 134.503C146.733 134.565 146.58 134.627 146.426 134.689L146.333 134.457C146.178 134.519 146.023 134.581 145.868 134.643L145.961 134.875C145.806 134.937 145.651 134.999 145.496 135.06L145.404 134.828C145.249 134.889 145.095 134.95 144.941 135.01L145.033 135.243C144.877 135.304 144.722 135.365 144.567 135.426L144.476 135.193C144.321 135.254 144.165 135.314 144.01 135.374L144.101 135.607C143.946 135.668 143.791 135.728 143.636 135.787L143.546 135.554C143.391 135.614 143.235 135.673 143.08 135.733L143.17 135.966C143.014 136.026 142.858 136.086 142.702 136.145L142.613 135.911C142.458 135.97 142.302 136.029 142.147 136.087L142.236 136.321C142.08 136.38 141.924 136.438 141.769 136.497L141.681 136.263C141.524 136.321 141.368 136.379 141.212 136.437L141.299 136.672C141.143 136.73 140.987 136.787 140.831 136.845L140.745 136.61C140.589 136.668 140.433 136.725 140.278 136.782L140.363 137.016C140.206 137.074 140.049 137.131 139.892 137.188L139.807 136.953C139.651 137.01 139.494 137.066 139.338 137.122L139.423 137.358C139.266 137.414 139.11 137.47 138.954 137.525L138.87 137.29C138.713 137.346 138.555 137.402 138.398 137.457L138.481 137.693C138.324 137.749 138.167 137.804 138.011 137.859L137.928 137.623C137.771 137.678 137.615 137.732 137.459 137.787L137.541 138.023C137.382 138.078 137.224 138.132 137.066 138.187L136.985 137.95C136.828 138.004 136.67 138.058 136.514 138.112L136.594 138.348C136.437 138.402 136.28 138.455 136.123 138.508L136.043 138.271C135.884 138.325 135.726 138.378 135.568 138.431L135.647 138.668C135.489 138.721 135.331 138.773 135.174 138.826L135.095 138.588C134.937 138.64 134.78 138.692 134.623 138.744L134.701 138.981C134.541 139.034 134.382 139.085 134.224 139.137L134.147 138.899C133.988 138.95 133.83 139.001 133.673 139.052L133.749 139.29C133.59 139.341 133.432 139.391 133.274 139.441L133.198 139.203C133.039 139.253 132.88 139.304 132.721 139.353L132.796 139.592C132.637 139.642 132.478 139.691 132.32 139.74L132.246 139.501L132.01 139.575L131.769 139.648L131.842 139.887C131.682 139.936 131.522 139.985 131.363 140.033L131.29 139.794C131.131 139.842 130.972 139.89 130.814 139.937L130.885 140.177C130.726 140.224 130.568 140.271 130.409 140.318L130.339 140.078C130.178 140.126 130.017 140.173 129.857 140.219L129.927 140.459C129.767 140.506 129.607 140.552 129.447 140.598L129.378 140.357C129.219 140.403 129.06 140.448 128.902 140.493L128.97 140.734C128.808 140.779 128.647 140.824 128.487 140.869L128.42 140.628C128.259 140.673 128.098 140.717 127.938 140.761L128.005 141.002C127.844 141.046 127.685 141.09 127.525 141.133L127.46 140.891C127.299 140.935 127.138 140.978 126.978 141.021L127.042 141.262C126.88 141.305 126.718 141.348 126.557 141.39L126.494 141.148C126.334 141.19 126.174 141.231 126.014 141.272L126.076 141.514C125.914 141.556 125.753 141.597 125.592 141.637L125.531 141.395C125.369 141.436 125.207 141.476 125.046 141.516L125.106 141.759C124.944 141.799 124.783 141.838 124.622 141.877L124.564 141.634C124.402 141.673 124.24 141.712 124.08 141.75L124.137 141.993C123.974 142.032 123.811 142.07 123.649 142.108L123.592 141.864C123.431 141.902 123.269 141.939 123.109 141.975L123.164 142.219C123.001 142.256 122.839 142.292 122.677 142.328L122.623 142.084C122.46 142.12 122.297 142.156 122.134 142.191L122.187 142.435C122.024 142.47 121.862 142.505 121.701 142.539L121.649 142.294C121.486 142.329 121.324 142.362 121.162 142.396L121.212 142.64C121.047 142.674 120.884 142.707 120.72 142.74L120.672 142.494C120.509 142.527 120.347 142.558 120.186 142.589L120.233 142.835C120.068 142.867 119.904 142.898 119.741 142.928L119.695 142.682C119.531 142.713 119.367 142.743 119.205 142.772L119.249 143.018C119.086 143.047 118.923 143.076 118.761 143.104L118.719 142.858C118.553 142.886 118.388 142.914 118.224 142.942L118.265 143.188C118.1 143.216 117.936 143.242 117.773 143.268L117.733 143.021C117.569 143.048 117.406 143.073 117.244 143.098L117.282 143.345C117.115 143.37 116.949 143.395 116.784 143.418L116.749 143.171C116.585 143.194 116.421 143.217 116.259 143.24L116.292 143.487C116.126 143.51 115.961 143.532 115.796 143.553L115.764 143.305C115.599 143.326 115.434 143.347 115.27 143.366L115.3 143.614C115.135 143.634 114.971 143.653 114.808 143.671L114.78 143.423C114.613 143.441 114.447 143.459 114.282 143.476L114.307 143.724C114.141 143.741 113.976 143.757 113.813 143.772L113.79 143.523C113.623 143.539 113.457 143.553 113.293 143.567L113.313 143.816C113.146 143.83 112.98 143.842 112.815 143.854L112.798 143.605C112.632 143.617 112.467 143.628 112.304 143.638L112.319 143.887C112.151 143.897 111.984 143.907 111.818 143.915L111.806 143.665C111.641 143.673 111.477 143.68 111.314 143.686L111.324 143.936C111.154 143.942 110.986 143.948 110.82 143.952L110.814 143.702C110.648 143.706 110.484 143.709 110.322 143.711L110.324 143.961C110.155 143.963 109.988 143.963 109.822 143.963L109.822 143.713C109.656 143.712 109.492 143.711 109.329 143.708L109.325 143.958C109.156 143.955 108.989 143.951 108.823 143.945L108.832 143.695C108.666 143.689 108.502 143.683 108.339 143.674L108.327 143.924C108.158 143.915 107.991 143.905 107.826 143.894L107.843 143.645C107.678 143.633 107.514 143.62 107.353 143.606L107.331 143.855C107.162 143.84 106.996 143.824 106.831 143.806L106.858 143.557C106.694 143.539 106.532 143.52 106.372 143.499L106.339 143.746C106.171 143.724 106.005 143.7 105.841 143.675L105.88 143.428C105.717 143.402 105.556 143.375 105.398 143.346L105.353 143.592C105.186 143.561 105.021 143.528 104.86 143.494L104.912 143.249C104.75 143.215 104.59 143.178 104.434 143.14L104.374 143.383C104.21 143.343 104.05 143.3 103.892 143.256L103.96 143.015C103.799 142.97 103.642 142.923 103.488 142.874L103.412 143.112C103.252 143.06 103.095 143.006 102.942 142.95L103.028 142.715C102.872 142.659 102.721 142.599 102.572 142.537L102.476 142.768C102.32 142.703 102.168 142.635 102.019 142.564L102.126 142.339C101.978 142.268 101.834 142.195 101.694 142.119L101.575 142.339C101.427 142.259 101.283 142.176 101.144 142.089L101.276 141.877C101.136 141.79 101.002 141.701 100.872 141.609L100.727 141.812C100.59 141.715 100.458 141.614 100.33 141.509L100.489 141.316C100.364 141.213 100.244 141.107 100.129 140.998L99.9571 141.179C99.8358 141.064 99.72 140.945 99.6097 140.822L99.7958 140.655C99.6884 140.535 99.5866 140.412 99.4904 140.285L99.2913 140.437C99.1905 140.304 99.0956 140.167 99.0064 140.027L99.2174 139.893C99.1747 139.826 99.1334 139.758 99.0934 139.688C99.0535 139.619 99.0151 139.549 98.9782 139.479L98.7566 139.594C98.6795 139.447 98.6088 139.296 98.5442 139.143L98.7747 139.046C98.7132 138.899 98.6576 138.75 98.6077 138.597L98.3701 138.675C98.319 138.518 98.2739 138.359 98.2347 138.197L98.4776 138.138C98.4399 137.983 98.4077 137.824 98.3811 137.662L98.1344 137.703C98.1081 137.543 98.087 137.38 98.0712 137.215L98.3201 137.191C98.3049 137.032 98.2947 136.87 98.2896 136.706L98.0397 136.714C98.0345 136.55 98.0342 136.383 98.0388 136.214L98.2887 136.221C98.2929 136.063 98.3015 135.903 98.3145 135.74L98.0653 135.721C98.0785 135.554 98.0962 135.385 98.1184 135.215L98.3663 135.247C98.3865 135.09 98.4106 134.932 98.4384 134.772L98.1921 134.729C98.2202 134.568 98.252 134.405 98.2875 134.24L98.5319 134.293C98.5667 134.131 98.6052 133.968 98.6473 133.803L98.4051 133.741C98.4446 133.587 98.4873 133.43 98.5331 133.273L98.7732 133.342C98.8182 133.187 98.8664 133.031 98.9176 132.873L98.6798 132.795C98.7318 132.635 98.7868 132.473 98.845 132.31L99.0805 132.394C99.1336 132.245 99.1894 132.095 99.2478 131.943L99.0145 131.853C99.0734 131.701 99.1348 131.547 99.1989 131.392L99.4299 131.487C99.4932 131.334 99.559 131.18 99.6274 131.025L99.3986 130.924C99.4646 130.774 99.5329 130.623 99.6035 130.472L99.8302 130.577C99.898 130.431 99.9679 130.285 100.04 130.137L99.8154 130.027C99.8883 129.878 99.9632 129.728 100.04 129.578L100.263 129.691C100.339 129.542 100.418 129.392 100.498 129.241L100.278 129.123C100.353 128.982 100.431 128.839 100.51 128.696L100.729 128.817C100.808 128.675 100.888 128.532 100.97 128.388L100.754 128.264C100.836 128.119 100.921 127.974 101.008 127.828L101.223 127.955C101.308 127.812 101.395 127.667 101.483 127.522L101.27 127.392C101.354 127.254 101.44 127.116 101.527 126.977L101.739 127.11C101.826 126.972 101.914 126.834 102.004 126.694L101.794 126.559C101.884 126.419 101.976 126.278 102.069 126.137L102.278 126.275C102.371 126.134 102.465 125.993 102.561 125.852L102.354 125.711C102.445 125.578 102.536 125.444 102.63 125.309L102.835 125.451C102.928 125.318 103.022 125.183 103.117 125.048L102.913 124.904C103.009 124.768 103.106 124.632 103.205 124.496L103.407 124.642C103.505 124.506 103.605 124.37 103.705 124.233L103.504 124.085C103.602 123.952 103.7 123.819 103.801 123.685L104.001 123.835C104.098 123.705 104.196 123.575 104.296 123.444L104.097 123.293C104.197 123.162 104.298 123.03 104.4 122.898L104.598 123.051C104.7 122.919 104.803 122.788 104.907 122.655L104.71 122.501C104.815 122.368 104.921 122.235 105.027 122.101L105.223 122.257C105.324 122.13 105.426 122.003 105.53 121.876L105.335 121.719C105.438 121.591 105.542 121.464 105.648 121.336L105.841 121.495C105.945 121.368 106.051 121.24 106.158 121.112L105.966 120.952C106.073 120.823 106.181 120.695 106.29 120.566L106.481 120.727C106.59 120.598 106.699 120.469 106.81 120.34L106.62 120.177C106.726 120.054 106.833 119.93 106.94 119.805L107.129 119.969C107.236 119.846 107.344 119.722 107.453 119.598L107.265 119.433C107.374 119.309 107.484 119.184 107.595 119.059L107.782 119.225C107.892 119.1 108.003 118.975 108.116 118.85L107.93 118.683C108.042 118.558 108.155 118.432 108.27 118.306L108.455 118.474C108.565 118.352 108.676 118.231 108.788 118.109L108.604 117.94C108.714 117.819 108.825 117.698 108.938 117.577L109.121 117.747C109.233 117.626 109.345 117.505 109.459 117.384L109.276 117.213C109.39 117.091 109.504 116.97 109.619 116.847L109.801 117.019C109.916 116.897 110.032 116.775 110.148 116.653L109.967 116.481C110.083 116.359 110.199 116.238 110.316 116.116L110.496 116.289C110.609 116.172 110.723 116.054 110.837 115.937L110.658 115.763C110.772 115.645 110.887 115.526 111.003 115.408L111.182 115.583C111.298 115.465 111.414 115.346 111.531 115.228L111.353 115.052C111.47 114.933 111.588 114.814 111.707 114.695L111.884 114.872C112.002 114.753 112.122 114.634 112.241 114.514L112.065 114.337C112.183 114.22 112.301 114.103 112.42 113.985L112.595 114.163C112.712 114.048 112.828 113.933 112.946 113.818L112.771 113.639C112.889 113.524 113.007 113.409 113.126 113.293L113.3 113.472C113.419 113.357 113.538 113.241 113.658 113.125L113.484 112.945C113.605 112.829 113.725 112.713 113.847 112.597L114.02 112.777C114.141 112.661 114.263 112.545 114.385 112.428L114.213 112.247C114.333 112.133 114.454 112.018 114.575 111.904L114.747 112.085C114.866 111.973 114.985 111.86 115.105 111.748L114.934 111.565C115.054 111.453 115.175 111.34 115.297 111.227L115.467 111.41C115.588 111.297 115.71 111.184 115.832 111.07L115.662 110.887C115.785 110.774 115.908 110.66 116.032 110.546L116.201 110.731C116.324 110.617 116.448 110.504 116.573 110.39L116.404 110.205C116.527 110.093 116.651 109.98 116.776 109.867L116.944 110.052C117.065 109.942 117.186 109.832 117.309 109.722L117.141 109.536C117.264 109.426 117.386 109.316 117.51 109.205L117.677 109.391C117.8 109.281 117.923 109.17 118.048 109.06L117.881 108.873C118.006 108.762 118.131 108.651 118.256 108.54L118.422 108.727C118.547 108.617 118.673 108.506 118.799 108.395L118.634 108.207C118.76 108.096 118.887 107.985 119.014 107.873L119.179 108.061C119.302 107.953 119.426 107.845 119.551 107.737L119.387 107.548C119.511 107.44 119.636 107.332 119.761 107.224L119.924 107.413C120.049 107.305 120.174 107.197 120.3 107.089L120.137 106.899C120.263 106.791 120.389 106.683 120.516 106.574L120.679 106.764C120.805 106.656 120.933 106.548 121.06 106.439L120.898 106.249C121.026 106.14 121.154 106.031 121.283 105.922L121.444 106.113C121.572 106.005 121.7 105.897 121.829 105.789L121.668 105.598C121.793 105.492 121.919 105.387 122.046 105.281L122.206 105.472C122.332 105.367 122.459 105.261 122.586 105.155L122.426 104.963C122.554 104.857 122.681 104.751 122.809 104.645L122.969 104.838C123.097 104.732 123.225 104.626 123.354 104.52L123.195 104.327C123.324 104.221 123.453 104.114 123.583 104.008L123.741 104.201C123.871 104.095 124.001 103.989 124.131 103.882L123.973 103.689C124.103 103.583 124.232 103.478 124.362 103.372L124.52 103.566C124.647 103.463 124.775 103.36 124.904 103.256L124.747 103.061C124.875 102.958 125.004 102.854 125.133 102.75L125.289 102.945C125.419 102.841 125.548 102.738 125.678 102.634L125.522 102.439C125.651 102.335 125.782 102.231 125.912 102.127L126.068 102.323C126.199 102.219 126.33 102.115 126.461 102.011L126.306 101.815C126.437 101.711 126.569 101.607 126.701 101.502L126.856 101.699C126.987 101.595 127.118 101.492 127.25 101.389L127.096 101.192C127.225 101.091 127.355 100.989 127.485 100.887L127.639 101.084C127.769 100.983 127.899 100.881 128.03 100.78L127.876 100.582C128.007 100.481 128.138 100.379 128.27 100.277L128.423 100.475C128.554 100.373 128.686 100.272 128.818 100.17L128.665 99.9719C128.798 99.8701 128.93 99.7682 129.063 99.6663L129.215 99.8647C129.348 99.7629 129.481 99.6611 129.614 99.5592L129.463 99.3605C129.596 99.2586 129.73 99.1567 129.864 99.0547L130.015 99.2537C130.146 99.1543 130.277 99.0549 130.409 98.9554L130.258 98.756C130.389 98.6565 130.521 98.5569 130.654 98.4572L130.804 98.6569C130.936 98.5574 131.069 98.4578 131.201 98.3582L131.051 98.1583C131.184 98.0586 131.317 97.9589 131.451 97.8591L131.6 98.0594C131.734 97.9598 131.867 97.8601 132.001 97.7605L131.852 97.5599C131.986 97.4601 132.121 97.3603 132.256 97.2605L132.404 97.4614C132.539 97.3616 132.674 97.2619 132.809 97.1621L132.661 96.961C132.794 96.8624 132.928 96.7639 133.062 96.6653L133.21 96.8668C133.343 96.7693 133.476 96.6717 133.61 96.5742L133.462 96.3724C133.595 96.2748 133.729 96.1771 133.863 96.0795L134.011 96.2815C134.144 96.184 134.279 96.0864 134.413 95.9888L134.266 95.7864C134.401 95.6887 134.536 95.591 134.671 95.4933L134.818 95.6959C134.953 95.5983 135.088 95.5007 135.224 95.403L135.078 95.2001C135.214 95.1024 135.35 95.0046 135.486 94.9069L135.632 95.1101C135.768 95.0124 135.905 94.9148 136.041 94.8171L135.896 94.6136C136.03 94.5178 136.165 94.422 136.3 94.3262L136.444 94.53C136.579 94.4344 136.714 94.3388 136.849 94.2432L136.704 94.0391C136.839 93.9434 136.975 93.8477 137.111 93.752L137.255 93.9563C137.39 93.8607 137.526 93.765 137.662 93.6694L137.518 93.4648C137.655 93.3691 137.791 93.2734 137.928 93.1777L138.071 93.3825C138.208 93.2869 138.345 93.1912 138.482 93.0956L138.339 92.8905C138.476 92.7948 138.614 92.6991 138.752 92.6034L138.894 92.8087C139.032 92.7134 139.169 92.6181 139.307 92.5228L139.165 92.3172C139.3 92.2234 139.436 92.1296 139.572 92.0358L139.714 92.2416C139.85 92.1479 139.987 92.0542 140.123 91.9605L139.982 91.7544C140.118 91.6606 140.255 91.5668 140.392 91.473L140.534 91.6794C140.671 91.5857 140.808 91.492 140.945 91.3983L140.805 91.1917C140.942 91.0979 141.08 91.0041 141.218 90.9104L141.359 91.1173C141.497 91.0236 141.635 90.9299 141.774 90.8363L141.634 90.6292C141.772 90.5355 141.911 90.4417 142.05 90.348L142.19 90.5554C142.328 90.4622 142.467 90.369 142.606 90.2758L142.467 90.0682C142.604 89.9762 142.741 89.8843 142.878 89.7923L143.017 90.0002C143.155 89.9083 143.293 89.8165 143.43 89.7247L143.292 89.5166C143.43 89.4247 143.568 89.3328 143.707 89.2409L143.845 89.4492C143.983 89.3574 144.122 89.2657 144.261 89.1739L144.123 88.9654C144.262 88.8735 144.401 88.7817 144.54 88.6899L144.678 88.8987C144.817 88.807 144.956 88.7153 145.096 88.6236L144.959 88.4146C145.099 88.3228 145.239 88.2311 145.379 88.1394L145.516 88.3486C145.656 88.2572 145.796 88.1658 145.936 88.0745L145.8 87.865C145.938 87.7749 146.077 87.6848 146.216 87.5947L146.352 87.8044C146.49 87.7144 146.629 87.6244 146.768 87.5345L146.633 87.3245C146.772 87.2345 146.911 87.1445 147.051 87.0545L147.187 87.2647C147.326 87.1748 147.466 87.0849 147.606 86.995L147.471 86.7846C147.611 86.6947 147.751 86.6048 147.892 86.515L148.027 86.7256C148.167 86.6358 148.308 86.546 148.448 86.4563L148.314 86.2454C148.455 86.1556 148.596 86.0658 148.738 85.9761L148.872 86.1871C149.013 86.0975 149.154 86.0078 149.296 85.9182L149.162 85.7069C149.302 85.6185 149.442 85.5301 149.582 85.4418L149.716 85.6533C149.855 85.5651 149.996 85.477 150.136 85.3889L150.003 85.1771C150.143 85.089 150.284 85.0008 150.425 84.9127L150.557 85.1247C150.698 85.0366 150.839 84.9486 150.98 84.8607L150.848 84.6485C150.989 84.5605 151.13 84.4725 151.272 84.3845L151.404 84.5969C151.545 84.509 151.687 84.4211 151.829 84.3333L151.697 84.1207C151.839 84.0328 151.981 83.945 152.124 83.8571L152.255 84.0699C152.397 83.9822 152.54 83.8945 152.682 83.8068L152.552 83.5938C152.693 83.5068 152.835 83.4198 152.977 83.3328L153.108 83.546C153.249 83.4597 153.39 83.3734 153.531 83.2871L153.401 83.0737C153.542 82.9874 153.684 82.9011 153.826 82.8148L153.956 83.0284C154.098 82.9422 154.239 82.8561 154.382 82.77L154.252 82.5562C154.394 82.47 154.537 82.3839 154.679 82.2978L154.808 82.5118C154.951 82.4258 155.094 82.3398 155.236 82.2539L155.108 82.0397C155.251 81.9537 155.394 81.8677 155.537 81.7818L155.666 81.9962C155.809 81.9104 155.952 81.8246 156.096 81.7389L155.967 81.5242C156.111 81.4385 156.255 81.3529 156.399 81.2672L156.526 81.4821C156.668 81.3975 156.811 81.313 156.953 81.2286L156.826 81.0136C156.968 80.929 157.111 80.8446 157.254 80.7602L157.381 80.9754C157.524 80.891 157.666 80.8067 157.81 80.7225L157.683 80.507C157.826 80.4227 157.969 80.3385 158.113 80.2542L158.239 80.4699C158.383 80.3857 158.526 80.3016 158.67 80.2176L158.544 80.0017C158.688 79.9176 158.832 79.8336 158.976 79.7495L159.102 79.9656C159.246 79.8816 159.39 79.7977 159.535 79.7139L159.409 79.4977C159.554 79.4138 159.699 79.3299 159.843 79.2461L159.969 79.4625L160.186 79.337L160.403 79.2115L160.278 78.9949C160.424 78.9113 160.568 78.8279 160.713 78.7447L160.838 78.9615C160.983 78.8783 161.128 78.7953 161.272 78.7125L161.148 78.4955C161.293 78.4126 161.438 78.3299 161.583 78.2474L161.706 78.4646C161.851 78.3821 161.996 78.2998 162.14 78.2176L162.017 78.0003C162.162 77.9181 162.306 77.836 162.451 77.7542L162.574 77.9717C162.718 77.89 162.863 77.8083 163.007 77.7269L162.885 77.5091C163.029 77.4276 163.174 77.3463 163.318 77.2651L163.441 77.4831C163.585 77.402 163.729 77.321 163.873 77.2403L163.751 77.0221C163.897 76.9404 164.043 76.8587 164.189 76.7773L164.311 76.9956C164.457 76.9142 164.603 76.8329 164.749 76.7518L164.628 76.5333C164.774 76.4521 164.92 76.3711 165.066 76.2903L165.187 76.509C165.333 76.4283 165.478 76.3477 165.624 76.2674L165.503 76.0485C165.649 75.968 165.795 75.8877 165.941 75.8077L166.061 76.0268C166.207 75.9467 166.352 75.8669 166.498 75.7872L166.378 75.5679C166.523 75.4882 166.669 75.4087 166.815 75.3293L166.934 75.5488C167.08 75.4695 167.225 75.3904 167.37 75.3114L167.251 75.0918C167.397 75.0123 167.543 74.933 167.69 74.8538L167.809 75.0737C167.956 74.994 168.103 74.9145 168.25 74.8351L168.132 74.6151C168.279 74.5357 168.426 74.4565 168.573 74.3775L168.691 74.5977C168.838 74.5188 168.985 74.44 169.132 74.3614L169.014 74.141C169.161 74.0623 169.308 73.9839 169.455 73.9056L169.573 74.1262C169.719 74.048 169.866 73.97 170.013 73.8922L169.895 73.6714C170.042 73.5935 170.189 73.5158 170.335 73.4383L170.452 73.6593C170.598 73.5819 170.745 73.5046 170.891 73.4275L170.775 73.2064C170.921 73.1291 171.068 73.0521 171.214 72.9752L171.33 73.1966C171.479 73.1187 171.627 73.041 171.776 72.9635L171.66 72.742C171.808 72.6644 171.956 72.587 172.105 72.5099L172.22 72.7316C172.368 72.6545 172.516 72.5776 172.664 72.5009L172.549 72.279C172.697 72.2022 172.845 72.1256 172.993 72.0493L173.108 72.2714C173.256 72.1951 173.404 72.119 173.551 72.0431L173.437 71.8207C173.585 71.7447 173.732 71.669 173.88 71.5934L173.994 71.8159C174.141 71.7404 174.289 71.6651 174.436 71.5899L174.322 71.3672C174.47 71.292 174.617 71.2171 174.764 71.1423L174.878 71.3652C175.027 71.2894 175.176 71.2137 175.325 71.1383L175.212 70.9153C175.362 70.8396 175.511 70.7642 175.661 70.6889L175.773 70.9122C175.923 70.837 176.072 70.7621 176.221 70.6873L176.109 70.4638C176.258 70.389 176.407 70.3144 176.556 70.24L176.668 70.4637C176.817 70.3893 176.965 70.3152 177.114 70.2413L177.003 70.0174C177.151 69.9434 177.3 69.8696 177.449 69.7961L177.56 70.0201C177.708 69.9466 177.857 69.8733 178.005 69.8002L177.894 69.576C178.043 69.5028 178.191 69.4299 178.339 69.3572L178.449 69.5816C178.599 69.5079 178.749 69.4344 178.899 69.3611L178.79 69.1365C178.94 69.0629 179.091 68.9895 179.241 68.9162L179.351 69.1411C179.501 69.0679 179.651 68.995 179.802 68.9223L179.693 68.6973C179.843 68.6245 179.993 68.552 180.143 68.4796L180.252 68.7048C180.401 68.6326 180.551 68.5605 180.701 68.4887L180.593 68.2633C180.743 68.1914 180.892 68.1197 181.042 68.0483L181.15 68.2739C181.299 68.2025 181.448 68.1313 181.597 68.0604L181.49 67.8346C181.639 67.7636 181.789 67.6928 181.938 67.6223L182.045 67.8482C182.196 67.7766 182.347 67.7051 182.499 67.6339L182.392 67.4077C182.544 67.3362 182.695 67.2649 182.847 67.1939L182.953 67.4202C183.105 67.3492 183.256 67.2785 183.407 67.2079L183.301 66.9814C183.453 66.9108 183.604 66.8404 183.755 66.7703L183.86 66.9971C184.011 66.927 184.162 66.8572 184.312 66.7876L184.207 66.5606C184.358 66.491 184.509 66.4215 184.659 66.3523L184.764 66.5795C184.914 66.5103 185.064 66.4415 185.214 66.3728L185.11 66.1455C185.26 66.0767 185.411 66.0081 185.561 65.9398L185.664 66.1673C185.817 66.0977 185.97 66.0282 186.123 65.959L186.02 65.7313C186.173 65.6621 186.325 65.5931 186.478 65.5243L186.581 65.7522C186.733 65.6835 186.885 65.6151 187.037 65.5469L186.935 65.3188C187.087 65.2505 187.239 65.1825 187.391 65.1147L187.493 65.343C187.645 65.2753 187.797 65.2079 187.948 65.1407L187.847 64.9122C187.998 64.8449 188.15 64.7779 188.301 64.7111L188.402 64.9398C188.553 64.8731 188.704 64.8066 188.855 64.7404L188.754 64.5115C188.907 64.4446 189.059 64.3779 189.211 64.3115L189.311 64.5406C189.465 64.4733 189.619 64.4063 189.773 64.3396L189.673 64.1103C189.827 64.0435 189.981 63.977 190.134 63.9107L190.233 64.1402C190.387 64.074 190.54 64.0081 190.693 63.9424L190.594 63.7127C190.747 63.6469 190.9 63.5814 191.053 63.5162L191.151 63.7461C191.304 63.681 191.456 63.6161 191.608 63.5515L191.511 63.3213C191.663 63.2566 191.815 63.1922 191.967 63.1281L192.065 63.3584C192.216 63.2943 192.368 63.2305 192.52 63.1669L192.423 62.9364C192.578 62.8712 192.733 62.8062 192.888 62.7416L192.985 62.9723C193.14 62.9077 193.294 62.8434 193.449 62.7793L193.353 62.5484C193.508 62.4842 193.662 62.4204 193.817 62.3568L193.912 62.588C194.066 62.5245 194.22 62.4613 194.374 62.3984L194.279 62.167C194.433 62.104 194.586 62.0413 194.74 61.9788L194.834 62.2104C194.987 62.148 195.14 62.086 195.293 62.0242L195.2 61.7924C195.353 61.7305 195.505 61.6689 195.658 61.6076L195.751 61.8396C195.907 61.7772 196.062 61.715 196.217 61.6532L196.124 61.421C196.28 61.3586 196.437 61.2965 196.592 61.2347L196.685 61.4671C196.84 61.4054 196.996 61.344 197.151 61.2829L197.059 61.0503C197.215 60.9891 197.37 60.9282 197.525 60.8677L197.616 61.1005C197.771 61.04 197.925 60.9798 198.079 60.9199L197.989 60.6868C198.143 60.6269 198.298 60.5672 198.452 60.5078L198.542 60.7411C198.695 60.6818 198.849 60.6228 199.002 60.5641L198.913 60.3306C199.069 60.2707 199.225 60.2112 199.381 60.1519L199.47 60.3856C199.627 60.3258 199.785 60.2664 199.941 60.2073L199.853 59.9734C200.01 59.9142 200.167 59.8553 200.323 59.7967L200.411 60.0309C200.567 59.9724 200.723 59.9142 200.879 59.8564L200.792 59.622C200.948 59.5641 201.103 59.5065 201.259 59.4493L201.345 59.6839C201.5 59.6267 201.655 59.5698 201.81 59.5133L201.724 59.2785C201.879 59.2219 202.033 59.1656 202.188 59.1097L202.273 59.3447C202.431 59.2874 202.588 59.2305 202.746 59.1739L202.661 58.9387C202.82 58.8817 202.978 58.825 203.136 58.7687L203.22 59.0041C203.378 58.9479 203.535 58.892 203.692 58.8364L203.609 58.6007C203.766 58.5451 203.923 58.4898 204.08 58.4349L204.163 58.6708C204.319 58.616 204.476 58.5615 204.632 58.5073L204.55 58.2712C204.706 58.217 204.862 58.1631 205.017 58.1096L205.098 58.346C205.254 58.2923 205.41 58.239 205.565 58.186L205.485 57.9494C205.645 57.8948 205.805 57.8406 205.964 57.7867L206.044 58.0236C206.203 57.9698 206.362 57.9164 206.521 57.8634L206.442 57.6263C206.601 57.5732 206.759 57.5205 206.917 57.4682L206.996 57.7055C207.154 57.6533 207.311 57.6014 207.468 57.5499L207.39 57.3123C207.548 57.2608 207.705 57.2096 207.862 57.1588L207.939 57.3966C208.095 57.3459 208.251 57.2955 208.407 57.2456L208.331 57.0075C208.491 56.9562 208.65 56.9053 208.81 56.8548L208.885 57.0931C209.046 57.0422 209.206 56.9916 209.366 56.9415L209.291 56.7029C209.452 56.6527 209.611 56.6029 209.771 56.5535L209.845 56.7923C210.004 56.743 210.163 56.6941 210.321 56.6456L210.248 56.4066C210.406 56.358 210.565 56.3099 210.722 56.2621L210.795 56.5014C210.952 56.4538 211.11 56.4065 211.266 56.3597L211.195 56.1202C211.355 56.0724 211.514 56.025 211.673 55.9781L211.744 56.2179C211.906 56.1701 212.068 56.1228 212.229 56.076L212.159 55.8359C212.321 55.789 212.482 55.7425 212.642 55.6964L212.711 55.9367C212.871 55.8908 213.031 55.8453 213.191 55.8002L213.123 55.5596C213.282 55.5145 213.442 55.4698 213.6 55.4256L213.667 55.6665C213.826 55.6223 213.984 55.5786 214.141 55.5354L214.075 55.2943C214.236 55.2501 214.397 55.2063 214.557 55.1631L214.623 55.4044C214.786 55.3603 214.949 55.3168 215.111 55.2737L215.047 55.0321C215.209 54.9889 215.371 54.9462 215.533 54.9041L215.596 55.1459C215.757 55.1039 215.918 55.0623 216.078 55.0212L216.016 54.7791C216.176 54.7379 216.336 54.6972 216.496 54.6571L216.557 54.8995C216.716 54.8594 216.874 54.8199 217.032 54.7808L216.972 54.5381C217.136 54.4976 217.3 54.4576 217.463 54.4182L217.521 54.6611C217.686 54.6214 217.849 54.5822 218.012 54.5436L217.954 54.3003C218.118 54.2616 218.28 54.2234 218.442 54.1858L218.499 54.4293C218.661 54.3918 218.822 54.3548 218.982 54.3184L218.927 54.0746C219.088 54.0381 219.248 54.0021 219.408 53.9668L219.462 54.2108C219.624 54.175 219.785 54.1398 219.945 54.1052L219.892 53.8608C220.058 53.8249 220.224 53.7895 220.389 53.7548L220.441 53.9995C220.605 53.9649 220.769 53.9309 220.932 53.8975L220.882 53.6526C221.046 53.6191 221.208 53.5863 221.371 53.5541L221.419 53.7993C221.581 53.7672 221.742 53.7356 221.903 53.7048L221.855 53.4593C222.017 53.4282 222.177 53.3977 222.337 53.3679L222.383 53.6137C222.551 53.5825 222.717 53.552 222.883 53.5222L222.839 53.2761C223.005 53.2462 223.171 53.217 223.336 53.1885L223.378 53.4348C223.542 53.4064 223.706 53.3787 223.869 53.3517L223.828 53.105C223.991 53.0779 224.153 53.0515 224.315 53.0258L224.354 53.2727C224.516 53.2469 224.677 53.2218 224.837 53.1975L224.8 52.9503C224.969 52.9246 225.137 52.8997 225.305 52.8756L225.34 53.1231C225.507 53.099 225.673 53.0758 225.837 53.0533L225.804 52.8056C225.969 52.7831 226.134 52.7613 226.297 52.7404L226.329 52.9884C226.492 52.9675 226.654 52.9474 226.815 52.9281L226.785 52.6799C226.951 52.6601 227.116 52.641 227.28 52.6229L227.307 52.8713C227.476 52.8526 227.644 52.8347 227.811 52.8178L227.785 52.5691C227.953 52.5521 228.119 52.5359 228.285 52.5207L228.307 52.7697C228.472 52.7545 228.635 52.7403 228.798 52.727L228.777 52.4778C228.94 52.4644 229.102 52.4519 229.263 52.4403L229.281 52.6897C229.452 52.6774 229.621 52.6661 229.789 52.6559L229.774 52.4064C229.943 52.3961 230.111 52.3868 230.277 52.3786L230.29 52.6283C230.455 52.6202 230.619 52.6131 230.782 52.607L230.773 52.3572C230.937 52.3511 231.099 52.346 231.261 52.342L231.267 52.5919C231.437 52.5877 231.605 52.5846 231.772 52.5827L231.769 52.3327C231.939 52.3308 232.108 52.3301 232.274 52.3306L232.274 52.5806C232.439 52.5811 232.603 52.5828 232.765 52.5857L232.77 52.3358C232.934 52.3387 233.096 52.3428 233.256 52.3482L233.248 52.5981C233.419 52.6038 233.588 52.6109 233.756 52.6194L233.768 52.3697C233.937 52.3783 234.105 52.3884 234.27 52.3998L234.253 52.6492C234.417 52.6605 234.579 52.6733 234.739 52.6875L234.761 52.4384C234.928 52.4532 235.093 52.4694 235.255 52.4872L235.228 52.7357C235.397 52.7542 235.563 52.7743 235.728 52.796L235.76 52.5482C235.927 52.5702 236.09 52.5939 236.252 52.6192L236.213 52.8662C236.374 52.8914 236.532 52.9182 236.688 52.9467L236.733 52.7008C236.903 52.732 237.07 52.7652 237.235 52.8004L237.183 53.0449C237.346 53.0795 237.505 53.1161 237.662 53.1547L237.722 52.9119C237.881 52.9511 238.038 52.9922 238.192 53.0354L238.124 53.2762C238.288 53.3221 238.449 53.3704 238.606 53.421L238.683 53.183C238.843 53.2346 239 53.2886 239.154 53.345L239.068 53.5797C239.22 53.6356 239.369 53.6939 239.515 53.7545L239.611 53.5237C239.77 53.5899 239.925 53.6589 240.076 53.7308L239.969 53.9565C240.116 54.0265 240.259 54.0992 240.398 54.1745L240.517 53.9548C240.665 54.0352 240.809 54.1187 240.949 54.2053L240.817 54.4178C240.957 54.5044 241.092 54.594 241.222 54.6866L241.367 54.483C241.502 54.5793 241.633 54.6789 241.758 54.7819L241.6 54.9752C241.726 55.0791 241.848 55.1862 241.964 55.2968L242.136 55.1159C242.257 55.2308 242.372 55.3495 242.482 55.4718L242.296 55.6388C242.403 55.7582 242.505 55.8812 242.601 56.0078L242.8 55.8566Z" stroke="url(#paint13_linear_4612_2164)" stroke-width="0.5" stroke-dasharray="0.5 0.5"/>
    <ellipse cx="211.691" cy="56.051" rx="0.674048" ry="0.674048" fill="#747185"/>
    <ellipse cx="229.18" cy="82.5289" rx="1.13636" ry="1.13636" fill="#D9D9D9"/>
    <ellipse rx="83.3333" ry="21.9697" transform="matrix(-0.866025 -0.5 -0.5 0.866025 177.361 98.1468)" stroke="url(#paint14_linear_4612_2164)" stroke-width="0.5" stroke-dasharray="0.5 0.5"/>
    <ellipse rx="1.13636" ry="1.13636" transform="matrix(-1 0 0 1 122.257 85.5582)" fill="#D9D9D9"/>
    <ellipse rx="1.13636" ry="1.13636" transform="matrix(-1 0 0 1 119.226 82.5289)" fill="#D9D9D9"/>
    <path d="M141.291 113.485L141.291 120.07L207.388 120.07L207.388 113.485L141.291 113.485Z" fill="url(#paint15_linear_4612_2164)"/>
    <path d="M143.527 115.901L143.527 163.492L205.151 163.492L205.151 115.901L143.527 115.901Z" fill="url(#paint16_linear_4612_2164)"/>
    <g filter="url(#filter0_f_4612_2164)">
        <circle cx="174.339" cy="138.751" r="10.2509" fill="#632BFF"/>
    </g>
    <path d="M177.36 140.828C180.394 140.828 182.854 138.368 182.854 135.334C182.854 132.3 180.394 129.84 177.36 129.84C174.326 129.84 171.866 132.3 171.866 135.334C171.866 138.368 174.326 140.828 177.36 140.828Z" stroke="#53FDA9" stroke-linecap="round" stroke-linejoin="round"/>
    <path d="M176.47 142.981C176.641 144.054 176.491 145.154 176.037 146.141C175.583 147.128 174.846 147.959 173.921 148.528C172.995 149.097 171.921 149.378 170.835 149.337C169.749 149.295 168.7 148.932 167.821 148.295C166.941 147.657 166.27 146.773 165.893 145.754C165.515 144.735 165.449 143.627 165.701 142.57C165.954 141.513 166.514 140.555 167.311 139.816C168.108 139.078 169.107 138.592 170.18 138.421L170.465 138.383" stroke="#53FDA9" stroke-linecap="round" stroke-linejoin="round"/>
    <g filter="url(#filter1_f_4612_2164)">
        <path d="M33.3333 143.447L163.529 143.447C163.738 143.447 163.907 143.617 163.907 143.826C163.907 144.035 163.738 144.205 163.529 144.205H33.3333V143.447Z" fill="url(#paint17_linear_4612_2164)"/>
        <path d="M66.0083 141.918L164.102 141.918C164.278 141.918 164.421 141.775 164.421 141.598C164.421 141.422 164.278 141.278 164.102 141.278H66.0083V141.918Z" fill="url(#paint18_linear_4612_2164)"/>
        <path d="M97.2288 140.115L165.021 140.115C165.187 140.115 165.321 139.981 165.321 139.816C165.321 139.65 165.187 139.516 165.021 139.516H97.2288V140.115Z" fill="url(#paint19_linear_4612_2164)"/>
        <path d="M66.0081 145.809L164.101 145.809C164.278 145.809 164.421 145.952 164.421 146.128C164.421 146.305 164.278 146.448 164.101 146.448H66.0081V145.809Z" fill="url(#paint20_linear_4612_2164)"/>
        <path d="M97.2285 147.623L165.005 147.623C165.179 147.623 165.321 147.764 165.321 147.939C165.321 148.113 165.179 148.255 165.005 148.255H97.2285V147.623Z" fill="url(#paint21_linear_4612_2164)"/>
    </g>
    <g filter="url(#filter2_f_4612_2164)">
        <path d="M314.912 135.58L184.717 135.58C184.507 135.58 184.338 135.411 184.338 135.201C184.338 134.992 184.507 134.823 184.717 134.823L314.912 134.823L314.912 135.58Z" fill="url(#paint22_linear_4612_2164)"/>
        <path d="M282.237 137.109L184.144 137.109C183.967 137.109 183.824 137.253 183.824 137.429C183.824 137.606 183.967 137.749 184.144 137.749L282.237 137.749L282.237 137.109Z" fill="url(#paint23_linear_4612_2164)"/>
        <path d="M251.016 138.912L183.224 138.912C183.058 138.912 182.924 139.046 182.924 139.212C182.924 139.377 183.058 139.511 183.224 139.511L251.016 139.511L251.016 138.912Z" fill="url(#paint24_linear_4612_2164)"/>
        <path d="M282.237 133.219L184.144 133.219C183.967 133.219 183.824 133.076 183.824 132.899C183.824 132.722 183.967 132.579 184.144 132.579L282.237 132.579L282.237 133.219Z" fill="url(#paint25_linear_4612_2164)"/>
        <path d="M251.016 131.404L183.24 131.404C183.066 131.404 182.924 131.263 182.924 131.088C182.924 130.914 183.066 130.773 183.24 130.773L251.016 130.773L251.016 131.404Z" fill="url(#paint26_linear_4612_2164)"/>
    </g>
    <path d="M33.3333 143.447L163.529 143.447C163.738 143.447 163.907 143.617 163.907 143.826C163.907 144.035 163.738 144.205 163.529 144.205H33.3333V143.447Z" fill="url(#paint27_linear_4612_2164)"/>
    <path d="M66.0083 141.918L164.102 141.918C164.278 141.918 164.421 141.775 164.421 141.598C164.421 141.422 164.278 141.278 164.102 141.278H66.0083V141.918Z" fill="url(#paint28_linear_4612_2164)"/>
    <path d="M97.2288 140.115L165.021 140.115C165.187 140.115 165.321 139.981 165.321 139.816C165.321 139.65 165.187 139.516 165.021 139.516H97.2288V140.115Z" fill="url(#paint29_linear_4612_2164)"/>
    <path d="M66.0081 145.809L164.101 145.809C164.278 145.809 164.421 145.952 164.421 146.128C164.421 146.305 164.278 146.448 164.101 146.448H66.0081V145.809Z" fill="url(#paint30_linear_4612_2164)"/>
    <path d="M97.2285 147.623L165.005 147.623C165.179 147.623 165.321 147.764 165.321 147.939C165.321 148.113 165.179 148.255 165.005 148.255H97.2285V147.623Z" fill="url(#paint31_linear_4612_2164)"/>
    <path d="M314.912 135.58L184.717 135.58C184.507 135.58 184.338 135.411 184.338 135.201C184.338 134.992 184.507 134.823 184.717 134.823L314.912 134.823L314.912 135.58Z" fill="url(#paint32_linear_4612_2164)"/>
    <path d="M282.237 137.109L184.144 137.109C183.967 137.109 183.824 137.253 183.824 137.429C183.824 137.606 183.967 137.749 184.144 137.749L282.237 137.749L282.237 137.109Z" fill="url(#paint33_linear_4612_2164)"/>
    <path d="M251.016 138.912L183.224 138.912C183.058 138.912 182.924 139.046 182.924 139.212C182.924 139.377 183.058 139.511 183.224 139.511L251.016 139.511L251.016 138.912Z" fill="url(#paint34_linear_4612_2164)"/>
    <path d="M282.237 133.219L184.144 133.219C183.967 133.219 183.824 133.076 183.824 132.899C183.824 132.722 183.967 132.579 184.144 132.579L282.237 132.579L282.237 133.219Z" fill="url(#paint35_linear_4612_2164)"/>
    <path d="M251.016 131.404L183.24 131.404C183.066 131.404 182.924 131.263 182.924 131.088C182.924 130.914 183.066 130.773 183.24 130.773L251.016 130.773L251.016 131.404Z" fill="url(#paint36_linear_4612_2164)"/>
    <rect x="125.263" y="70.543" width="12.9705" height="2.65967" fill="#53FDA9"/>
    <rect x="125.263" y="90.166" width="42.4036" height="2.65967" fill="url(#paint37_linear_4612_2164)"/>
    <rect x="125.263" y="95.4863" width="42.4036" height="2.65967" fill="url(#paint38_linear_4612_2164)"/>
    <rect x="125.263" y="101.924" width="14.7997" height="0.928279" fill="url(#paint39_linear_4612_2164)"/>
    <rect x="181.011" y="90.166" width="42.4036" height="2.65967" fill="url(#paint40_linear_4612_2164)"/>
    <rect x="181.011" y="95.4863" width="42.4036" height="2.65967" fill="url(#paint41_linear_4612_2164)"/>
    <rect x="181.011" y="101.924" width="14.7997" height="0.928279" fill="url(#paint42_linear_4612_2164)"/>
    <ellipse cx="273.929" cy="127.369" rx="1.13636" ry="1.13636" transform="rotate(90 273.929 127.369)" fill="#53FEA9"/>
    <defs>
        <filter id="filter0_f_4612_2164" x="132.088" y="96.5" width="84.502" height="84.502" filterUnits="userSpaceOnUse" color-interpolation-filters="sRGB">
            <feFlood flood-opacity="0" result="BackgroundImageFix"/>
            <feBlend mode="normal" in="SourceGraphic" in2="BackgroundImageFix" result="shape"/>
            <feGaussianBlur stdDeviation="16" result="effect1_foregroundBlur_4612_2164"/>
        </filter>
        <filter id="filter1_f_4612_2164" x="29.3333" y="135.516" width="139.988" height="16.7383" filterUnits="userSpaceOnUse" color-interpolation-filters="sRGB">
            <feFlood flood-opacity="0" result="BackgroundImageFix"/>
            <feBlend mode="normal" in="SourceGraphic" in2="BackgroundImageFix" result="shape"/>
            <feGaussianBlur stdDeviation="2" result="effect1_foregroundBlur_4612_2164"/>
        </filter>
        <filter id="filter2_f_4612_2164" x="178.924" y="126.773" width="139.988" height="16.7383" filterUnits="userSpaceOnUse" color-interpolation-filters="sRGB">
            <feFlood flood-opacity="0" result="BackgroundImageFix"/>
            <feBlend mode="normal" in="SourceGraphic" in2="BackgroundImageFix" result="shape"/>
            <feGaussianBlur stdDeviation="2" result="effect1_foregroundBlur_4612_2164"/>
        </filter>
        <linearGradient id="paint0_linear_4612_2164" x1="43.5978" y1="63.567" x2="42.9011" y2="17.4504" gradientUnits="userSpaceOnUse">
            <stop stop-color="#010101"/>
            <stop offset="0.631454" stop-color="#010101" stop-opacity="0.600696"/>
            <stop offset="1" stop-opacity="0"/>
        </linearGradient>
        <linearGradient id="paint1_linear_4612_2164" x1="49.6303" y1="0" x2="49.6303" y2="63.5659" gradientUnits="userSpaceOnUse">
            <stop offset="0.170133" stop-color="#53FDA9" stop-opacity="0"/>
            <stop offset="1" stop-color="#53FDA9"/>
        </linearGradient>
        <linearGradient id="paint2_linear_4612_2164" x1="43.5978" y1="63.567" x2="42.9011" y2="17.4504" gradientUnits="userSpaceOnUse">
            <stop stop-color="#010101"/>
            <stop offset="0.631454" stop-color="#010101" stop-opacity="0.600696"/>
            <stop offset="1" stop-opacity="0"/>
        </linearGradient>
        <linearGradient id="paint3_linear_4612_2164" x1="49.6303" y1="0" x2="49.6303" y2="63.5659" gradientUnits="userSpaceOnUse">
            <stop offset="0.170133" stop-color="#53FDA9" stop-opacity="0"/>
            <stop offset="1" stop-color="#53FDA9"/>
        </linearGradient>
        <linearGradient id="paint4_linear_4612_2164" x1="82.8613" y1="99.4747" x2="122.766" y2="99.4747" gradientUnits="userSpaceOnUse">
            <stop stop-color="#53FDA9"/>
            <stop offset="1" stop-color="#53FDA9" stop-opacity="0"/>
        </linearGradient>
        <linearGradient id="paint5_linear_4612_2164" x1="82.8613" y1="104.795" x2="122.766" y2="104.795" gradientUnits="userSpaceOnUse">
            <stop stop-color="#53FDA9"/>
            <stop offset="1" stop-color="#53FDA9" stop-opacity="0"/>
        </linearGradient>
        <linearGradient id="paint6_linear_4612_2164" x1="82.8613" y1="110.367" x2="96.7888" y2="110.367" gradientUnits="userSpaceOnUse">
            <stop stop-color="#53FDA9"/>
            <stop offset="1" stop-color="#53FDA9" stop-opacity="0"/>
        </linearGradient>
        <linearGradient id="paint7_linear_4612_2164" x1="226.019" y1="99.4747" x2="265.924" y2="99.4747" gradientUnits="userSpaceOnUse">
            <stop stop-color="#53FDA9"/>
            <stop offset="1" stop-color="#53FDA9" stop-opacity="0"/>
        </linearGradient>
        <linearGradient id="paint8_linear_4612_2164" x1="226.019" y1="104.795" x2="265.924" y2="104.795" gradientUnits="userSpaceOnUse">
            <stop stop-color="#53FDA9"/>
            <stop offset="1" stop-color="#53FDA9" stop-opacity="0"/>
        </linearGradient>
        <linearGradient id="paint9_linear_4612_2164" x1="226.019" y1="110.367" x2="239.947" y2="110.367" gradientUnits="userSpaceOnUse">
            <stop stop-color="#53FDA9"/>
            <stop offset="1" stop-color="#53FDA9" stop-opacity="0"/>
        </linearGradient>
        <linearGradient id="paint10_linear_4612_2164" x1="175.268" y1="93.2656" x2="175.268" y2="122.829" gradientUnits="userSpaceOnUse">
            <stop offset="0.170133" stop-color="#53FDA9" stop-opacity="0"/>
            <stop offset="0.878479" stop-color="#53FDA9"/>
        </linearGradient>
        <linearGradient id="paint11_linear_4612_2164" x1="54.4504" y1="79.3905" x2="54.4505" y2="8.9259" gradientUnits="userSpaceOnUse">
            <stop stop-color="#010101"/>
            <stop offset="0.631454" stop-color="#010101" stop-opacity="0.600696"/>
            <stop offset="1" stop-opacity="0"/>
        </linearGradient>
        <linearGradient id="paint12_linear_4612_2164" x1="61.9846" y1="0" x2="61.9846" y2="79.3892" gradientUnits="userSpaceOnUse">
            <stop offset="0.170133" stop-color="#53FDA9" stop-opacity="0"/>
            <stop offset="1" stop-color="#53FDA9"/>
        </linearGradient>
        <linearGradient id="paint13_linear_4612_2164" x1="233.196" y1="87.5809" x2="187.147" y2="76.7833" gradientUnits="userSpaceOnUse">
            <stop stop-color="white"/>
            <stop offset="1" stop-color="white" stop-opacity="0"/>
        </linearGradient>
        <linearGradient id="paint14_linear_4612_2164" x1="157.185" y1="35.1725" x2="117.139" y2="5.45082" gradientUnits="userSpaceOnUse">
            <stop stop-color="white"/>
            <stop offset="1" stop-color="white" stop-opacity="0"/>
        </linearGradient>
        <linearGradient id="paint15_linear_4612_2164" x1="169.262" y1="113.486" x2="169.262" y2="120.07" gradientUnits="userSpaceOnUse">
            <stop stop-color="#53FDA9"/>
            <stop offset="1" stop-opacity="0"/>
        </linearGradient>
        <linearGradient id="paint16_linear_4612_2164" x1="173.151" y1="115.887" x2="173.151" y2="157.198" gradientUnits="userSpaceOnUse">
            <stop stop-color="#260671"/>
            <stop offset="1" stop-opacity="0"/>
        </linearGradient>
        <linearGradient id="paint17_linear_4612_2164" x1="166.157" y1="143.741" x2="10.9409" y2="96.7796" gradientUnits="userSpaceOnUse">
            <stop stop-color="#632BFF"/>
            <stop offset="1" stop-opacity="0"/>
        </linearGradient>
        <linearGradient id="paint18_linear_4612_2164" x1="166.117" y1="141.67" x2="47.1054" y2="173.816" gradientUnits="userSpaceOnUse">
            <stop stop-color="#632BFF"/>
            <stop offset="1" stop-opacity="0"/>
        </linearGradient>
        <linearGradient id="paint19_linear_4612_2164" x1="166.494" y1="139.883" x2="81.5221" y2="156.83" gradientUnits="userSpaceOnUse">
            <stop stop-color="#632BFF"/>
            <stop offset="1" stop-opacity="0"/>
        </linearGradient>
        <linearGradient id="paint20_linear_4612_2164" x1="166.116" y1="146.056" x2="47.1051" y2="113.911" gradientUnits="userSpaceOnUse">
            <stop stop-color="#632BFF"/>
            <stop offset="1" stop-opacity="0"/>
        </linearGradient>
        <linearGradient id="paint21_linear_4612_2164" x1="166.494" y1="147.868" x2="81.1962" y2="131.727" gradientUnits="userSpaceOnUse">
            <stop stop-color="#632BFF"/>
            <stop offset="1" stop-opacity="0"/>
        </linearGradient>
        <linearGradient id="paint22_linear_4612_2164" x1="182.088" y1="135.287" x2="337.304" y2="182.248" gradientUnits="userSpaceOnUse">
            <stop stop-color="#632BFF"/>
            <stop offset="1" stop-opacity="0"/>
        </linearGradient>
        <linearGradient id="paint23_linear_4612_2164" x1="182.128" y1="137.357" x2="301.14" y2="105.211" gradientUnits="userSpaceOnUse">
            <stop stop-color="#632BFF"/>
            <stop offset="1" stop-opacity="0"/>
        </linearGradient>
        <linearGradient id="paint24_linear_4612_2164" x1="181.751" y1="139.144" x2="266.723" y2="122.197" gradientUnits="userSpaceOnUse">
            <stop stop-color="#632BFF"/>
            <stop offset="1" stop-opacity="0"/>
        </linearGradient>
        <linearGradient id="paint25_linear_4612_2164" x1="182.128" y1="132.971" x2="301.14" y2="165.117" gradientUnits="userSpaceOnUse">
            <stop stop-color="#632BFF"/>
            <stop offset="1" stop-opacity="0"/>
        </linearGradient>
        <linearGradient id="paint26_linear_4612_2164" x1="181.751" y1="131.16" x2="267.049" y2="147.3" gradientUnits="userSpaceOnUse">
            <stop stop-color="#632BFF"/>
            <stop offset="1" stop-opacity="0"/>
        </linearGradient>
        <linearGradient id="paint27_linear_4612_2164" x1="166.157" y1="143.741" x2="10.9409" y2="96.7796" gradientUnits="userSpaceOnUse">
            <stop stop-color="#632BFF"/>
            <stop offset="1" stop-opacity="0"/>
        </linearGradient>
        <linearGradient id="paint28_linear_4612_2164" x1="166.117" y1="141.67" x2="47.1054" y2="173.816" gradientUnits="userSpaceOnUse">
            <stop stop-color="#632BFF"/>
            <stop offset="1" stop-opacity="0"/>
        </linearGradient>
        <linearGradient id="paint29_linear_4612_2164" x1="166.494" y1="139.883" x2="81.5221" y2="156.83" gradientUnits="userSpaceOnUse">
            <stop stop-color="#632BFF"/>
            <stop offset="1" stop-opacity="0"/>
        </linearGradient>
        <linearGradient id="paint30_linear_4612_2164" x1="166.116" y1="146.056" x2="47.1051" y2="113.911" gradientUnits="userSpaceOnUse">
            <stop stop-color="#632BFF"/>
            <stop offset="1" stop-opacity="0"/>
        </linearGradient>
        <linearGradient id="paint31_linear_4612_2164" x1="166.494" y1="147.868" x2="81.1962" y2="131.727" gradientUnits="userSpaceOnUse">
            <stop stop-color="#632BFF"/>
            <stop offset="1" stop-opacity="0"/>
        </linearGradient>
        <linearGradient id="paint32_linear_4612_2164" x1="182.088" y1="135.287" x2="337.304" y2="182.248" gradientUnits="userSpaceOnUse">
            <stop stop-color="#632BFF"/>
            <stop offset="1" stop-opacity="0"/>
        </linearGradient>
        <linearGradient id="paint33_linear_4612_2164" x1="182.128" y1="137.357" x2="301.14" y2="105.211" gradientUnits="userSpaceOnUse">
            <stop stop-color="#632BFF"/>
            <stop offset="1" stop-opacity="0"/>
        </linearGradient>
        <linearGradient id="paint34_linear_4612_2164" x1="181.751" y1="139.144" x2="266.723" y2="122.197" gradientUnits="userSpaceOnUse">
            <stop stop-color="#632BFF"/>
            <stop offset="1" stop-opacity="0"/>
        </linearGradient>
        <linearGradient id="paint35_linear_4612_2164" x1="182.128" y1="132.971" x2="301.14" y2="165.117" gradientUnits="userSpaceOnUse">
            <stop stop-color="#632BFF"/>
            <stop offset="1" stop-opacity="0"/>
        </linearGradient>
        <linearGradient id="paint36_linear_4612_2164" x1="181.751" y1="131.16" x2="267.049" y2="147.3" gradientUnits="userSpaceOnUse">
            <stop stop-color="#632BFF"/>
            <stop offset="1" stop-opacity="0"/>
        </linearGradient>
        <linearGradient id="paint37_linear_4612_2164" x1="125.263" y1="91.4962" x2="165.168" y2="91.4962" gradientUnits="userSpaceOnUse">
            <stop stop-color="#53FDA9"/>
            <stop offset="1" stop-color="#53FDA9" stop-opacity="0"/>
        </linearGradient>
        <linearGradient id="paint38_linear_4612_2164" x1="125.263" y1="96.8165" x2="165.168" y2="96.8165" gradientUnits="userSpaceOnUse">
            <stop stop-color="#53FDA9"/>
            <stop offset="1" stop-color="#53FDA9" stop-opacity="0"/>
        </linearGradient>
        <linearGradient id="paint39_linear_4612_2164" x1="125.263" y1="102.388" x2="139.191" y2="102.388" gradientUnits="userSpaceOnUse">
            <stop stop-color="#53FDA9"/>
            <stop offset="1" stop-color="#53FDA9" stop-opacity="0"/>
        </linearGradient>
        <linearGradient id="paint40_linear_4612_2164" x1="181.011" y1="91.4962" x2="220.916" y2="91.4962" gradientUnits="userSpaceOnUse">
            <stop stop-color="#53FDA9"/>
            <stop offset="1" stop-color="#53FDA9" stop-opacity="0"/>
        </linearGradient>
        <linearGradient id="paint41_linear_4612_2164" x1="181.011" y1="96.8165" x2="220.916" y2="96.8165" gradientUnits="userSpaceOnUse">
            <stop stop-color="#53FDA9"/>
            <stop offset="1" stop-color="#53FDA9" stop-opacity="0"/>
        </linearGradient>
        <linearGradient id="paint42_linear_4612_2164" x1="181.011" y1="102.388" x2="194.939" y2="102.388" gradientUnits="userSpaceOnUse">
            <stop stop-color="#53FDA9"/>
            <stop offset="1" stop-color="#53FDA9" stop-opacity="0"/>
        </linearGradient>
    </defs>
</svg>
