<svg width="348" height="200" viewBox="0 0 348 200" fill="none"
    xmlns="http://www.w3.org/2000/svg">
    <path d="M111.071 145.892L99.3842 147.225C92.2706 142.604 91.1794 137.46 96.2918 132.647L108.34 133.609C104.016 137.663 104.923 141.997 110.911 145.892H111.071ZM111.915 146.394L100.348 147.826C102.924 149.378 106.145 150.844 109.947 152.197L119.987 150.077C116.77 148.941 114.06 147.704 111.915 146.394ZM156.615 120.835C159.127 120.656 161.675 120.518 164.246 120.419L162.438 116.999C159.392 117.112 156.374 117.277 153.402 117.491L156.615 120.835ZM219.027 156.961L211.918 154.098C210.793 154.306 209.589 154.502 208.384 154.699L214.85 157.671C216.255 157.42 217.661 157.212 219.027 156.961ZM241.919 138.745C241.917 141.198 240.129 143.627 236.658 145.892L248.385 147.225C253.658 143.762 255.596 139.991 254.015 136.268C252.433 132.544 247.385 128.993 239.348 125.949L229.188 127.916C237.509 131.072 241.964 134.861 241.919 138.745ZM110.509 132.003C112.664 130.485 115.569 129.055 119.144 127.752L108.903 125.73C104.691 127.284 101.248 128.981 98.6613 130.779L110.509 132.003ZM166.254 120.354C168.785 120.27 171.334 120.229 173.885 120.234C177.15 120.234 180.41 120.297 183.644 120.419L185.491 116.999C181.646 116.85 177.768 116.774 173.885 116.77C170.865 116.773 167.849 116.82 164.848 116.912L166.254 120.354ZM192.64 156.535C180.561 157.481 167.754 157.496 155.643 156.58C143.533 155.664 132.595 153.851 124.044 151.344L114.726 153.694C124.878 156.667 137.86 158.817 152.23 159.905C166.6 160.993 181.797 160.976 196.134 159.857L192.64 156.535ZM235.814 146.394C234.73 147.041 233.523 147.672 232.2 148.285L243.084 150.066C244.667 149.36 246.102 148.63 247.381 147.88L235.814 146.394ZM200.15 121.665C209.82 122.771 218.423 124.469 225.292 126.626L234.891 124.364C226.738 121.804 216.527 119.788 205.05 118.474L200.15 121.665ZM216.938 153.071L224.971 155.748C231.519 154.29 237.184 152.56 241.758 150.623L231.115 148.755C227.227 150.375 222.445 151.824 216.938 153.049V153.071Z" fill="url(#paint0_linear_4607_3234)"/>
    <ellipse cx="173.834" cy="82.8076" rx="82.9783" ry="21.9697" stroke="url(#paint1_linear_4607_3234)" stroke-linecap="round" stroke-linejoin="round" stroke-dasharray="2 2"/>
    <ellipse cx="174.063" cy="72.1317" rx="71.1379" ry="18.8348" stroke="url(#paint2_linear_4607_3234)" stroke-linecap="round" stroke-linejoin="round" stroke-dasharray="2 2"/>
    <ellipse cx="174.063" cy="104.147" rx="71.1379" ry="18.8348" stroke="url(#paint3_linear_4607_3234)" stroke-linecap="round" stroke-linejoin="round" stroke-dasharray="2 2"/>
    <rect x="118.012" y="53.8867" width="113.152" height="11.3636" rx="5.68182" fill="url(#paint4_linear_4607_3234)"/>
    <rect x="121.051" y="56.918" width="107.077" height="5.30303" rx="2.65152" fill="url(#paint5_linear_4607_3234)"/>
    <rect x="124.802" y="59.1895" width="99.5739" height="81.8182" rx="1" fill="url(#paint6_linear_4607_3234)"/>
    <path opacity="0.5" d="M140.643 59.9473H136.117V143.281H140.643V59.9473Z" fill="url(#paint7_linear_4607_3234)"/>
    <path opacity="0.2" d="M165.536 59.9473H161.01V143.281H165.536V59.9473Z" fill="url(#paint8_linear_4607_3234)"/>
    <path opacity="0.6" d="M214.569 59.9473H211.552V129.644H214.569V59.9473Z" fill="url(#paint9_linear_4607_3234)"/>
    <path opacity="0.2" d="M206.271 59.9473H204.762V129.644H206.271V59.9473Z" fill="url(#paint10_linear_4607_3234)"/>
    <path opacity="0.2" d="M186.658 59.9473H182.132V143.281H186.658V59.9473Z" fill="url(#paint11_linear_4607_3234)"/>
    <path opacity="0.6" d="M200.236 59.9473H197.219V129.644H200.236V59.9473Z" fill="url(#paint12_linear_4607_3234)"/>
    <path opacity="0.2" d="M191.939 59.9473H190.43V129.644H191.939V59.9473Z" fill="url(#paint13_linear_4607_3234)"/>
    <path opacity="0.1" d="M170.817 59.9473H169.308V129.644H170.817V59.9473Z" fill="url(#paint14_linear_4607_3234)"/>
    <path opacity="0.2" d="M146.678 59.9473H144.415V154.644H146.678V59.9473Z" fill="url(#paint15_linear_4607_3234)"/>
    <path d="M173.08 134.947L173.08 60.3249C173.08 60.1163 173.249 59.9473 173.457 59.9473V59.9473C173.666 59.9473 173.835 60.1163 173.835 60.3249L173.835 134.947L173.08 134.947Z" fill="url(#paint16_linear_4607_3234)"/>
    <path d="M174.589 116.008L174.589 60.3248C174.589 60.1163 174.758 59.9472 174.966 59.9472V59.9472C175.175 59.9472 175.344 60.1163 175.344 60.3248L175.344 116.008L174.589 116.008Z" fill="url(#paint17_linear_4607_3234)"/>
    <path d="M167.045 135.705L167.045 60.3251C167.045 60.1166 167.214 59.9475 167.423 59.9475V59.9475C167.631 59.9475 167.8 60.1166 167.8 60.3251L167.8 135.705L167.045 135.705Z" fill="url(#paint18_linear_4607_3234)"/>
    <path d="M132.345 137.221L132.345 60.3256C132.345 60.117 132.514 59.948 132.723 59.948V59.948C132.931 59.948 133.1 60.117 133.1 60.3256L133.1 137.221L132.345 137.221Z" fill="url(#paint19_linear_4607_3234)"/>
    <path d="M223.621 137.221L223.621 60.3256C223.621 60.117 223.79 59.948 223.999 59.948V59.948C224.207 59.948 224.376 60.117 224.376 60.3256L224.376 137.221L223.621 137.221Z" fill="url(#paint20_linear_4607_3234)"/>
    <path d="M222.112 120.553L222.112 60.3243C222.112 60.1158 222.281 59.9467 222.49 59.9467V59.9467C222.699 59.9467 222.868 60.1158 222.868 60.3243L222.868 120.553L222.112 120.553Z" fill="url(#paint21_linear_4607_3234)"/>
    <path d="M130.082 118.281L130.082 60.3256C130.082 60.117 130.251 59.9479 130.46 59.9479V59.9479C130.668 59.9479 130.837 60.117 130.837 60.3256L130.837 118.281L130.082 118.281Z" fill="url(#paint22_linear_4607_3234)"/>
    <path d="M200.991 119.039L200.991 60.3258C200.991 60.1172 201.16 59.9482 201.368 59.9482V59.9482C201.577 59.9482 201.746 60.1172 201.746 60.3258L201.746 119.039L200.991 119.039Z" fill="url(#paint23_linear_4607_3234)"/>
    <path d="M198.728 104.645L198.728 60.3252C198.728 60.1166 198.897 59.9476 199.105 59.9476V59.9476C199.314 59.9476 199.483 60.1166 199.483 60.3252L199.483 104.645L198.728 104.645Z" fill="url(#paint24_linear_4607_3234)"/>
    <path d="M128.573 95.5527L128.573 60.3243C128.573 60.1158 128.742 59.9467 128.951 59.9467V59.9467C129.159 59.9467 129.329 60.1158 129.329 60.3243L129.329 95.5527L128.573 95.5527Z" fill="url(#paint25_linear_4607_3234)"/>
    <path d="M126.31 142.523L126.31 60.3253C126.31 60.1167 126.479 59.9477 126.688 59.9477V59.9477C126.897 59.9477 127.066 60.1167 127.066 60.3253L127.066 142.523L126.31 142.523Z" fill="url(#paint26_linear_4607_3234)"/>
    <path d="M124.047 67.5234L124.047 83.0549C124.047 83.2635 123.878 83.4325 123.669 83.4325V83.4325C123.461 83.4325 123.292 83.2635 123.292 83.0549L123.292 67.5234L124.047 67.5234Z" fill="url(#paint27_linear_4607_3234)"/>
    <path d="M225.884 66.7656L225.884 90.6304C225.884 90.839 225.715 91.008 225.507 91.008V91.008C225.298 91.008 225.129 90.839 225.129 90.6304L225.129 66.7656L225.884 66.7656Z" fill="url(#paint28_linear_4607_3234)"/>
    <path d="M226.638 97.8262L226.638 115.63C226.638 115.839 226.469 116.008 226.261 116.008V116.008C226.052 116.008 225.883 115.839 225.883 115.63L225.883 97.8262L226.638 97.8262Z" fill="url(#paint29_linear_4607_3234)"/>
    <path d="M122.539 88.7344L122.539 95.1749C122.539 95.3835 122.369 95.5526 122.161 95.5526V95.5526C121.952 95.5526 121.783 95.3835 121.783 95.1749L121.783 88.7344L122.539 88.7344Z" fill="url(#paint30_linear_4607_3234)"/>
    <path d="M225.884 128.887L225.884 135.327C225.884 135.536 225.715 135.705 225.507 135.705V135.705C225.298 135.705 225.129 135.536 225.129 135.327L225.129 128.887L225.884 128.887Z" fill="url(#paint31_linear_4607_3234)"/>
    <path d="M124.047 105.402L124.047 108.055C124.047 108.264 123.878 108.433 123.669 108.433V108.433C123.461 108.433 123.292 108.264 123.292 108.055L123.292 105.402L124.047 105.402Z" fill="url(#paint32_linear_4607_3234)"/>
    <path d="M225.884 92.5234L225.884 93.6609C225.884 93.8695 225.715 94.0386 225.507 94.0386V94.0386C225.298 94.0386 225.129 93.8695 225.129 93.6609L225.129 92.5234L225.884 92.5234Z" fill="url(#paint33_linear_4607_3234)"/>
    <path d="M124.047 109.947L124.047 111.085C124.047 111.293 123.878 111.462 123.669 111.462V111.462C123.461 111.462 123.292 111.293 123.292 111.085L123.292 109.947L124.047 109.947Z" fill="url(#paint34_linear_4607_3234)"/>
    <path d="M124.802 116.008L124.802 141.388C124.802 141.596 124.632 141.765 124.424 141.765V141.765C124.215 141.765 124.046 141.596 124.046 141.388L124.046 116.008L124.802 116.008Z" fill="url(#paint35_linear_4607_3234)"/>
    <path d="M192.693 128.887L192.693 148.206C192.693 148.415 192.524 148.584 192.315 148.584V148.584C192.107 148.584 191.938 148.415 191.938 148.206L191.938 128.887L192.693 128.887Z" fill="url(#paint36_linear_4607_3234)"/>
    <path d="M213.06 116.008L213.06 130.024C213.06 130.233 212.891 130.402 212.683 130.402V130.402C212.474 130.402 212.305 130.233 212.305 130.024L212.305 116.008L213.06 116.008Z" fill="url(#paint37_linear_4607_3234)"/>
    <path d="M226.638 136.463L226.638 140.631C226.638 140.839 226.469 141.008 226.261 141.008V141.008C226.052 141.008 225.883 140.839 225.883 140.631L225.883 136.463L226.638 136.463Z" fill="url(#paint38_linear_4607_3234)"/>
    <path d="M164.028 105.402L164.028 60.3254C164.028 60.1169 164.197 59.9478 164.405 59.9478V59.9478C164.614 59.9478 164.783 60.1169 164.783 60.3254L164.783 105.402L164.028 105.402Z" fill="url(#paint39_linear_4607_3234)"/>
    <path d="M167.057 159.756L167.057 109.509C167.057 109.307 167.221 109.143 167.422 109.143V109.143C167.624 109.143 167.788 109.307 167.788 109.509L167.788 159.756L167.057 159.756Z" fill="url(#paint40_linear_4607_3234)"/>
    <path d="M165.538 147.066L165.538 108.808C165.538 108.599 165.369 108.43 165.16 108.43V108.43C164.952 108.43 164.783 108.599 164.783 108.808L164.783 147.066L165.538 147.066Z" fill="url(#paint41_linear_4607_3234)"/>
    <path d="M169.308 147.066L169.308 108.808C169.308 108.599 169.477 108.43 169.686 108.43V108.43C169.894 108.43 170.063 108.599 170.063 108.808L170.063 147.066L169.308 147.066Z" fill="url(#paint42_linear_4607_3234)"/>
    <g filter="url(#filter0_f_4607_3234)">
        <path d="M167.089 159.945L167.089 109.394C167.089 109.191 167.254 109.026 167.457 109.026V109.026C167.66 109.026 167.824 109.191 167.824 109.394L167.824 159.945L167.089 159.945Z" fill="url(#paint43_radial_4607_3234)"/>
        <path d="M165.536 147.066L165.536 108.808C165.536 108.599 165.367 108.43 165.159 108.43V108.43C164.95 108.43 164.781 108.599 164.781 108.808L164.781 147.066L165.536 147.066Z" fill="url(#paint44_radial_4607_3234)"/>
        <path d="M169.308 146.693L169.308 108.834C169.308 108.611 169.489 108.431 169.711 108.431V108.431C169.934 108.431 170.115 108.611 170.115 108.834L170.115 146.693L169.308 146.693Z" fill="url(#paint45_radial_4607_3234)"/>
    </g>
    <path d="M172.061 103.506C172.061 105.952 170.088 107.931 167.658 107.931C165.228 107.931 163.255 105.952 163.255 103.506C163.255 101.061 165.228 99.082 167.658 99.082C170.088 99.082 172.061 101.061 172.061 103.506Z" fill="url(#paint46_linear_4607_3234)" stroke="#53FDA9"/>
    <path d="M141.173 133.242L141.173 82.9949C141.173 82.7931 141.337 82.6295 141.539 82.6295V82.6295C141.74 82.6295 141.904 82.7931 141.904 82.9949L141.904 133.242L141.173 133.242Z" fill="url(#paint47_linear_4607_3234)"/>
    <path d="M139.654 120.553L139.654 82.294C139.654 82.0855 139.485 81.9164 139.276 81.9164V81.9164C139.068 81.9164 138.899 82.0855 138.899 82.294L138.899 120.553L139.654 120.553Z" fill="url(#paint48_linear_4607_3234)"/>
    <path d="M143.424 120.553L143.424 82.294C143.424 82.0854 143.593 81.9164 143.802 81.9164V81.9164C144.011 81.9164 144.18 82.0854 144.18 82.294L144.18 120.553L143.424 120.553Z" fill="url(#paint49_linear_4607_3234)"/>
    <g filter="url(#filter1_f_4607_3234)">
        <path d="M141.206 133.432L141.206 82.8799C141.206 82.6768 141.37 82.5122 141.573 82.5122V82.5122C141.777 82.5122 141.941 82.6768 141.941 82.8799L141.941 133.432L141.206 133.432Z" fill="url(#paint50_radial_4607_3234)"/>
        <path d="M139.653 120.553L139.653 82.294C139.653 82.0855 139.484 81.9164 139.275 81.9164V81.9164C139.067 81.9164 138.898 82.0855 138.898 82.294L138.898 120.553L139.653 120.553Z" fill="url(#paint51_radial_4607_3234)"/>
        <path d="M143.425 120.18L143.425 82.3204C143.425 82.0978 143.605 81.9172 143.828 81.9172V81.9172C144.05 81.9172 144.231 82.0977 144.231 82.3204L144.231 120.18L143.425 120.18Z" fill="url(#paint52_radial_4607_3234)"/>
    </g>
    <path d="M146.178 76.9926C146.178 79.4381 144.204 81.4168 141.774 81.4168C139.345 81.4168 137.371 79.4381 137.371 76.9926C137.371 74.5471 139.345 72.5684 141.774 72.5684C144.204 72.5684 146.178 74.5471 146.178 76.9926Z" fill="url(#paint53_linear_4607_3234)" stroke="#53FDA9"/>
    <path d="M203.784 144.605L203.784 94.3582C203.784 94.1564 203.948 93.9928 204.15 93.9928V93.9928C204.352 93.9928 204.515 94.1564 204.515 94.3582L204.515 144.605L203.784 144.605Z" fill="url(#paint54_linear_4607_3234)"/>
    <path d="M202.265 131.916L202.265 93.6573C202.265 93.4487 202.096 93.2797 201.888 93.2797V93.2797C201.679 93.2797 201.51 93.4487 201.51 93.6573L201.51 131.916L202.265 131.916Z" fill="url(#paint55_linear_4607_3234)"/>
    <path d="M206.036 131.916L206.036 93.6573C206.036 93.4487 206.205 93.2797 206.413 93.2797V93.2797C206.622 93.2797 206.791 93.4487 206.791 93.6573L206.791 131.916L206.036 131.916Z" fill="url(#paint56_linear_4607_3234)"/>
    <g filter="url(#filter2_f_4607_3234)">
        <path d="M203.817 144.795L203.817 94.2432C203.817 94.0401 203.982 93.8755 204.185 93.8755V93.8755C204.388 93.8755 204.552 94.0401 204.552 94.2432L204.552 144.795L203.817 144.795Z" fill="url(#paint57_radial_4607_3234)"/>
        <path d="M202.264 131.916L202.264 93.6573C202.264 93.4487 202.095 93.2797 201.886 93.2797V93.2797C201.678 93.2797 201.509 93.4487 201.509 93.6573L201.509 131.916L202.264 131.916Z" fill="url(#paint58_radial_4607_3234)"/>
        <path d="M206.036 131.543L206.036 93.6837C206.036 93.461 206.216 93.2805 206.439 93.2805V93.2805C206.662 93.2805 206.842 93.461 206.842 93.6837L206.842 131.543L206.036 131.543Z" fill="url(#paint59_radial_4607_3234)"/>
    </g>
    <path d="M208.789 88.3559C208.789 90.8013 206.815 92.7801 204.385 92.7801C201.956 92.7801 199.982 90.8013 199.982 88.3559C199.982 85.9104 201.956 83.9316 204.385 83.9316C206.815 83.9316 208.789 85.9104 208.789 88.3559Z" fill="url(#paint60_linear_4607_3234)" stroke="#53FDA9"/>
    <path opacity="0.2" d="M191.939 81.1582H183.641L187.79 153.885L191.939 81.1582Z" fill="url(#paint61_linear_4607_3234)"/>
    <path d="M187.789 88.7344L191.938 81.1586H183.641L187.789 88.7344Z" fill="url(#paint62_linear_4607_3234)"/>
    <path opacity="0.2" d="M154.976 128.887H149.695L152.335 153.887L154.976 128.887Z" fill="url(#paint63_linear_4607_3234)"/>
    <path d="M152.335 132.674L154.976 128.886H149.695L152.335 132.674Z" fill="url(#paint64_linear_4607_3234)"/>
    <path d="M155.73 93.2793L155.73 118.659C155.73 118.868 155.561 119.037 155.352 119.037V119.037C155.144 119.037 154.975 118.868 154.975 118.659L154.975 93.2793L155.73 93.2793Z" fill="url(#paint65_linear_4607_3234)"/>
    <ellipse cx="127.065" cy="55.4002" rx="0.754348" ry="0.757576" fill="#52F8A7"/>
    <rect x="127.065" y="54.6426" width="23.3848" height="1.51515" fill="url(#paint66_linear_4607_3234)"/>
    <ellipse rx="0.754348" ry="0.757576" transform="matrix(-1 0 0 1 222.112 55.4002)" fill="#52F8A7"/>
    <rect width="23.3848" height="1.51515" transform="matrix(-1 0 0 1 222.112 54.6426)" fill="url(#paint67_linear_4607_3234)"/>
    <path d="M191.184 81.1582L183.265 81.1582C183.056 81.1582 182.887 80.9886 182.887 80.7794V80.7794C182.887 80.5702 183.056 80.4006 183.265 80.4006L191.184 80.4006L191.184 81.1582Z" fill="url(#paint68_radial_4607_3234)"/>
    <path d="M182.886 97.0684L182.886 80.7793C182.886 80.5708 183.056 80.4017 183.264 80.4017V80.4017C183.473 80.4017 183.642 80.5708 183.642 80.7793L183.642 97.0684L182.886 97.0684Z" fill="url(#paint69_radial_4607_3234)"/>
    <path d="M191.938 88.7344L191.938 80.7787C191.938 80.5701 192.108 80.401 192.316 80.401V80.401C192.525 80.401 192.694 80.5701 192.694 80.7787L192.694 88.7344L191.938 88.7344Z" fill="url(#paint70_radial_4607_3234)"/>
    <path d="M192.693 91.7637L192.693 94.4163C192.693 94.6249 192.524 94.794 192.315 94.794V94.794C192.107 94.794 191.938 94.6249 191.938 94.4163L191.938 91.7637L192.693 91.7637Z" fill="url(#paint71_radial_4607_3234)"/>
    <path d="M192.693 96.3105L192.693 97.4481C192.693 97.6566 192.524 97.8257 192.315 97.8257V97.8257C192.107 97.8257 191.938 97.6566 191.938 97.4481L191.938 96.3105L192.693 96.3105Z" fill="url(#paint72_radial_4607_3234)"/>
    <path d="M184.395 80.4004L192.314 80.4004C192.523 80.4004 192.693 80.57 192.693 80.7792V80.7792C192.693 80.9884 192.523 81.158 192.314 81.158H184.395L184.395 80.4004Z" fill="url(#paint73_radial_4607_3234)"/>
    <defs>
        <filter id="filter0_f_4607_3234" x="160.781" y="104.43" width="13.3335" height="59.5156" filterUnits="userSpaceOnUse" color-interpolation-filters="sRGB">
            <feFlood flood-opacity="0" result="BackgroundImageFix"/>
            <feBlend mode="normal" in="SourceGraphic" in2="BackgroundImageFix" result="shape"/>
            <feGaussianBlur stdDeviation="2" result="effect1_foregroundBlur_4607_3234"/>
        </filter>
        <filter id="filter1_f_4607_3234" x="134.897" y="77.916" width="13.3335" height="59.5156" filterUnits="userSpaceOnUse" color-interpolation-filters="sRGB">
            <feFlood flood-opacity="0" result="BackgroundImageFix"/>
            <feBlend mode="normal" in="SourceGraphic" in2="BackgroundImageFix" result="shape"/>
            <feGaussianBlur stdDeviation="2" result="effect1_foregroundBlur_4607_3234"/>
        </filter>
        <filter id="filter2_f_4607_3234" x="197.509" y="89.2793" width="13.3335" height="59.5156" filterUnits="userSpaceOnUse" color-interpolation-filters="sRGB">
            <feFlood flood-opacity="0" result="BackgroundImageFix"/>
            <feBlend mode="normal" in="SourceGraphic" in2="BackgroundImageFix" result="shape"/>
            <feGaussianBlur stdDeviation="2" result="effect1_foregroundBlur_4607_3234"/>
        </filter>
        <linearGradient id="paint0_linear_4607_3234" x1="237.577" y1="188.355" x2="249.932" y2="81.4892" gradientUnits="userSpaceOnUse">
            <stop stop-color="#632BFF"/>
            <stop offset="1" stop-color="#060606" stop-opacity="0"/>
        </linearGradient>
        <linearGradient id="paint1_linear_4607_3234" x1="173.834" y1="60.8379" x2="173.834" y2="104.777" gradientUnits="userSpaceOnUse">
            <stop offset="0.170133" stop-color="#53FDA9" stop-opacity="0"/>
            <stop offset="0.878479" stop-color="#53FDA9"/>
        </linearGradient>
        <linearGradient id="paint2_linear_4607_3234" x1="174.063" y1="53.2969" x2="174.063" y2="90.9665" gradientUnits="userSpaceOnUse">
            <stop offset="0.170133" stop-color="white" stop-opacity="0"/>
            <stop offset="0.878479" stop-color="white"/>
        </linearGradient>
        <linearGradient id="paint3_linear_4607_3234" x1="174.063" y1="85.3125" x2="174.063" y2="122.982" gradientUnits="userSpaceOnUse">
            <stop offset="0.170133" stop-color="white" stop-opacity="0"/>
            <stop offset="0.878479" stop-color="white"/>
        </linearGradient>
        <linearGradient id="paint4_linear_4607_3234" x1="174.968" y1="20.9322" x2="174.968" y2="67.1443" gradientUnits="userSpaceOnUse">
            <stop offset="0.505946" stop-color="#632BFF"/>
            <stop offset="1" stop-color="#632BFF" stop-opacity="0"/>
        </linearGradient>
        <linearGradient id="paint5_linear_4607_3234" x1="174.589" y1="47.4483" x2="174.589" y2="69.7968" gradientUnits="userSpaceOnUse">
            <stop offset="0.505946" stop-color="#150C31"/>
            <stop offset="1" stop-color="#632BFF" stop-opacity="0"/>
        </linearGradient>
        <linearGradient id="paint6_linear_4607_3234" x1="174.589" y1="59.1895" x2="174.589" y2="141.008" gradientUnits="userSpaceOnUse">
            <stop stop-color="#53FDA9"/>
            <stop offset="1" stop-color="#2B0C80" stop-opacity="0"/>
        </linearGradient>
        <linearGradient id="paint7_linear_4607_3234" x1="138.38" y1="59.9473" x2="138.38" y2="143.281" gradientUnits="userSpaceOnUse">
            <stop stop-color="#53FDA9"/>
            <stop offset="1" stop-opacity="0"/>
        </linearGradient>
        <linearGradient id="paint8_linear_4607_3234" x1="163.273" y1="59.9473" x2="163.273" y2="143.281" gradientUnits="userSpaceOnUse">
            <stop stop-color="#53FDA9"/>
            <stop offset="1" stop-opacity="0"/>
        </linearGradient>
        <linearGradient id="paint9_linear_4607_3234" x1="213.06" y1="59.9473" x2="213.06" y2="129.644" gradientUnits="userSpaceOnUse">
            <stop stop-color="#53FDA9"/>
            <stop offset="1" stop-opacity="0"/>
        </linearGradient>
        <linearGradient id="paint10_linear_4607_3234" x1="205.517" y1="59.9473" x2="205.517" y2="129.644" gradientUnits="userSpaceOnUse">
            <stop stop-color="#53FDA9"/>
            <stop offset="1" stop-opacity="0"/>
        </linearGradient>
        <linearGradient id="paint11_linear_4607_3234" x1="184.395" y1="59.9473" x2="184.395" y2="143.281" gradientUnits="userSpaceOnUse">
            <stop stop-color="#53FDA9"/>
            <stop offset="1" stop-opacity="0"/>
        </linearGradient>
        <linearGradient id="paint12_linear_4607_3234" x1="198.728" y1="59.9473" x2="198.728" y2="129.644" gradientUnits="userSpaceOnUse">
            <stop stop-color="#53FDA9"/>
            <stop offset="1" stop-opacity="0"/>
        </linearGradient>
        <linearGradient id="paint13_linear_4607_3234" x1="191.184" y1="59.9473" x2="191.184" y2="129.644" gradientUnits="userSpaceOnUse">
            <stop stop-color="#53FDA9"/>
            <stop offset="1" stop-opacity="0"/>
        </linearGradient>
        <linearGradient id="paint14_linear_4607_3234" x1="170.062" y1="59.9473" x2="170.062" y2="129.644" gradientUnits="userSpaceOnUse">
            <stop stop-color="#53FDA9"/>
            <stop offset="1" stop-opacity="0"/>
        </linearGradient>
        <linearGradient id="paint15_linear_4607_3234" x1="145.546" y1="59.9473" x2="145.546" y2="154.644" gradientUnits="userSpaceOnUse">
            <stop stop-color="#53FDA9"/>
            <stop offset="1" stop-opacity="0"/>
        </linearGradient>
        <linearGradient id="paint16_linear_4607_3234" x1="173.372" y1="58.6553" x2="156.91" y2="153.101" gradientUnits="userSpaceOnUse">
            <stop stop-color="#53FDA9"/>
            <stop offset="1" stop-color="#2F0B8F" stop-opacity="0"/>
        </linearGradient>
        <linearGradient id="paint17_linear_4607_3234" x1="174.881" y1="58.9815" x2="165.562" y2="130.508" gradientUnits="userSpaceOnUse">
            <stop stop-color="#53FDA9"/>
            <stop offset="1" stop-color="#2F0B8F" stop-opacity="0"/>
        </linearGradient>
        <linearGradient id="paint18_linear_4607_3234" x1="167.338" y1="58.6425" x2="150.55" y2="153.985" gradientUnits="userSpaceOnUse">
            <stop stop-color="#53FDA9"/>
            <stop offset="1" stop-color="#2F0B8F" stop-opacity="0"/>
        </linearGradient>
        <linearGradient id="paint19_linear_4607_3234" x1="132.638" y1="58.6168" x2="115.194" y2="155.748" gradientUnits="userSpaceOnUse">
            <stop stop-color="#53FDA9"/>
            <stop offset="1" stop-color="#2F0B8F" stop-opacity="0"/>
        </linearGradient>
        <linearGradient id="paint20_linear_4607_3234" x1="223.914" y1="58.6168" x2="206.47" y2="155.748" gradientUnits="userSpaceOnUse">
            <stop stop-color="#53FDA9"/>
            <stop offset="1" stop-color="#2F0B8F" stop-opacity="0"/>
        </linearGradient>
        <linearGradient id="paint21_linear_4607_3234" x1="222.405" y1="58.9026" x2="211.544" y2="136.011" gradientUnits="userSpaceOnUse">
            <stop stop-color="#53FDA9"/>
            <stop offset="1" stop-color="#2F0B8F" stop-opacity="0"/>
        </linearGradient>
        <linearGradient id="paint22_linear_4607_3234" x1="130.375" y1="58.943" x2="120.298" y2="133.266" gradientUnits="userSpaceOnUse">
            <stop stop-color="#53FDA9"/>
            <stop offset="1" stop-color="#2F0B8F" stop-opacity="0"/>
        </linearGradient>
        <linearGradient id="paint23_linear_4607_3234" x1="201.283" y1="58.9302" x2="190.948" y2="134.183" gradientUnits="userSpaceOnUse">
            <stop stop-color="#53FDA9"/>
            <stop offset="1" stop-color="#2F0B8F" stop-opacity="0"/>
        </linearGradient>
        <linearGradient id="paint24_linear_4607_3234" x1="199.02" y1="59.1776" x2="193.06" y2="116.554" gradientUnits="userSpaceOnUse">
            <stop stop-color="#53FDA9"/>
            <stop offset="1" stop-color="#2F0B8F" stop-opacity="0"/>
        </linearGradient>
        <linearGradient id="paint25_linear_4607_3234" x1="128.866" y1="59.3333" x2="125.069" y2="105.219" gradientUnits="userSpaceOnUse">
            <stop stop-color="#53FDA9"/>
            <stop offset="1" stop-color="#2F0B8F" stop-opacity="0"/>
        </linearGradient>
        <linearGradient id="paint26_linear_4607_3234" x1="126.603" y1="58.5252" x2="106.77" y2="161.864" gradientUnits="userSpaceOnUse">
            <stop stop-color="#53FDA9"/>
            <stop offset="1" stop-color="#2F0B8F" stop-opacity="0"/>
        </linearGradient>
        <linearGradient id="paint27_linear_4607_3234" x1="123.754" y1="83.7066" x2="124.517" y2="63.0922" gradientUnits="userSpaceOnUse">
            <stop stop-color="#53FDA9"/>
            <stop offset="1" stop-color="#2F0B8F" stop-opacity="0"/>
        </linearGradient>
        <linearGradient id="paint28_linear_4607_3234" x1="225.592" y1="91.4257" x2="227.358" y2="60.0699" gradientUnits="userSpaceOnUse">
            <stop stop-color="#53FDA9"/>
            <stop offset="1" stop-color="#2F0B8F" stop-opacity="0"/>
        </linearGradient>
        <linearGradient id="paint29_linear_4607_3234" x1="226.346" y1="116.321" x2="227.341" y2="92.7718" gradientUnits="userSpaceOnUse">
            <stop stop-color="#53FDA9"/>
            <stop offset="1" stop-color="#2F0B8F" stop-opacity="0"/>
        </linearGradient>
        <linearGradient id="paint30_linear_4607_3234" x1="122.246" y1="95.67" x2="122.386" y2="86.8254" gradientUnits="userSpaceOnUse">
            <stop stop-color="#53FDA9"/>
            <stop offset="1" stop-color="#2F0B8F" stop-opacity="0"/>
        </linearGradient>
        <linearGradient id="paint31_linear_4607_3234" x1="225.592" y1="135.822" x2="225.732" y2="126.978" gradientUnits="userSpaceOnUse">
            <stop stop-color="#53FDA9"/>
            <stop offset="1" stop-color="#2F0B8F" stop-opacity="0"/>
        </linearGradient>
        <linearGradient id="paint32_linear_4607_3234" x1="123.754" y1="108.485" x2="123.782" y2="104.553" gradientUnits="userSpaceOnUse">
            <stop stop-color="#53FDA9"/>
            <stop offset="1" stop-color="#2F0B8F" stop-opacity="0"/>
        </linearGradient>
        <linearGradient id="paint33_linear_4607_3234" x1="225.592" y1="94.0647" x2="225.599" y2="92.0988" gradientUnits="userSpaceOnUse">
            <stop stop-color="#53FDA9"/>
            <stop offset="1" stop-color="#2F0B8F" stop-opacity="0"/>
        </linearGradient>
        <linearGradient id="paint34_linear_4607_3234" x1="123.754" y1="111.489" x2="123.761" y2="109.523" gradientUnits="userSpaceOnUse">
            <stop stop-color="#53FDA9"/>
            <stop offset="1" stop-color="#2F0B8F" stop-opacity="0"/>
        </linearGradient>
        <linearGradient id="paint35_linear_4607_3234" x1="124.509" y1="142.209" x2="126.502" y2="108.907" gradientUnits="userSpaceOnUse">
            <stop stop-color="#53FDA9"/>
            <stop offset="1" stop-color="#2F0B8F" stop-opacity="0"/>
        </linearGradient>
        <linearGradient id="paint36_linear_4607_3234" x1="192.4" y1="148.923" x2="193.568" y2="123.419" gradientUnits="userSpaceOnUse">
            <stop stop-color="#53FDA9"/>
            <stop offset="1" stop-color="#2F0B8F" stop-opacity="0"/>
        </linearGradient>
        <linearGradient id="paint37_linear_4607_3234" x1="212.768" y1="130.65" x2="213.392" y2="111.994" gradientUnits="userSpaceOnUse">
            <stop stop-color="#53FDA9"/>
            <stop offset="1" stop-color="#2F0B8F" stop-opacity="0"/>
        </linearGradient>
        <linearGradient id="paint38_linear_4607_3234" x1="226.346" y1="141.087" x2="226.408" y2="135.189" gradientUnits="userSpaceOnUse">
            <stop stop-color="#53FDA9"/>
            <stop offset="1" stop-color="#2F0B8F" stop-opacity="0"/>
        </linearGradient>
        <linearGradient id="paint39_linear_4607_3234" x1="164.32" y1="59.1648" x2="158.158" y2="117.493" gradientUnits="userSpaceOnUse">
            <stop stop-color="#53FDA9"/>
            <stop offset="1" stop-color="#2F0B8F" stop-opacity="0"/>
        </linearGradient>
        <linearGradient id="paint40_linear_4607_3234" x1="167.34" y1="108.271" x2="159.474" y2="172.987" gradientUnits="userSpaceOnUse">
            <stop stop-color="#53FDA9"/>
            <stop offset="1" stop-color="#2F0B8F" stop-opacity="0"/>
        </linearGradient>
        <linearGradient id="paint41_linear_4607_3234" x1="165.245" y1="107.764" x2="169.711" y2="157.495" gradientUnits="userSpaceOnUse">
            <stop stop-color="#53FDA9"/>
            <stop offset="1" stop-color="#2F0B8F" stop-opacity="0"/>
        </linearGradient>
        <linearGradient id="paint42_linear_4607_3234" x1="169.601" y1="107.764" x2="165.135" y2="157.495" gradientUnits="userSpaceOnUse">
            <stop stop-color="#53FDA9"/>
            <stop offset="1" stop-color="#2F0B8F" stop-opacity="0"/>
        </linearGradient>
        <radialGradient id="paint43_radial_4607_3234" cx="0" cy="0" r="1" gradientUnits="userSpaceOnUse" gradientTransform="translate(167.374 108.507) rotate(90) scale(43.6936 22742)">
            <stop stop-color="#53FDA9"/>
            <stop offset="1" stop-color="#00FF81" stop-opacity="0"/>
        </radialGradient>
        <radialGradient id="paint44_radial_4607_3234" cx="0" cy="0" r="1" gradientUnits="userSpaceOnUse" gradientTransform="translate(165.244 108.036) rotate(90) scale(33.1536 23359.3)">
            <stop stop-color="#53FDA9"/>
            <stop offset="1" stop-color="#00FF81" stop-opacity="0"/>
        </radialGradient>
        <radialGradient id="paint45_radial_4607_3234" cx="0" cy="0" r="1" gradientUnits="userSpaceOnUse" gradientTransform="translate(169.62 108.041) rotate(90) scale(32.8327 24939.9)">
            <stop stop-color="#53FDA9"/>
            <stop offset="1" stop-color="#00FF81" stop-opacity="0"/>
        </radialGradient>
        <linearGradient id="paint46_linear_4607_3234" x1="165.395" y1="100.855" x2="165.395" y2="108.052" gradientUnits="userSpaceOnUse">
            <stop stop-color="#53FDA9"/>
            <stop offset="1" stop-color="#D9D9D9" stop-opacity="0"/>
        </linearGradient>
        <linearGradient id="paint47_linear_4607_3234" x1="141.456" y1="81.7576" x2="133.59" y2="146.473" gradientUnits="userSpaceOnUse">
            <stop stop-color="#53FDA9"/>
            <stop offset="1" stop-color="#2F0B8F" stop-opacity="0"/>
        </linearGradient>
        <linearGradient id="paint48_linear_4607_3234" x1="139.361" y1="81.2508" x2="143.827" y2="130.982" gradientUnits="userSpaceOnUse">
            <stop stop-color="#53FDA9"/>
            <stop offset="1" stop-color="#2F0B8F" stop-opacity="0"/>
        </linearGradient>
        <linearGradient id="paint49_linear_4607_3234" x1="143.717" y1="81.2508" x2="139.251" y2="130.982" gradientUnits="userSpaceOnUse">
            <stop stop-color="#53FDA9"/>
            <stop offset="1" stop-color="#2F0B8F" stop-opacity="0"/>
        </linearGradient>
        <radialGradient id="paint50_radial_4607_3234" cx="0" cy="0" r="1" gradientUnits="userSpaceOnUse" gradientTransform="translate(141.49 81.993) rotate(90) scale(43.6936 22742)">
            <stop stop-color="#53FDA9"/>
            <stop offset="1" stop-color="#00FF81" stop-opacity="0"/>
        </radialGradient>
        <radialGradient id="paint51_radial_4607_3234" cx="0" cy="0" r="1" gradientUnits="userSpaceOnUse" gradientTransform="translate(139.36 81.5224) rotate(90) scale(33.1536 23359.3)">
            <stop stop-color="#53FDA9"/>
            <stop offset="1" stop-color="#00FF81" stop-opacity="0"/>
        </radialGradient>
        <radialGradient id="paint52_radial_4607_3234" cx="0" cy="0" r="1" gradientUnits="userSpaceOnUse" gradientTransform="translate(143.737 81.527) rotate(90) scale(32.8327 24939.9)">
            <stop stop-color="#53FDA9"/>
            <stop offset="1" stop-color="#00FF81" stop-opacity="0"/>
        </radialGradient>
        <linearGradient id="paint53_linear_4607_3234" x1="139.511" y1="74.3411" x2="139.511" y2="81.5381" gradientUnits="userSpaceOnUse">
            <stop stop-color="#53FDA9"/>
            <stop offset="1" stop-color="#D9D9D9" stop-opacity="0"/>
        </linearGradient>
        <linearGradient id="paint54_linear_4607_3234" x1="204.068" y1="93.1209" x2="196.201" y2="157.836" gradientUnits="userSpaceOnUse">
            <stop stop-color="#53FDA9"/>
            <stop offset="1" stop-color="#2F0B8F" stop-opacity="0"/>
        </linearGradient>
        <linearGradient id="paint55_linear_4607_3234" x1="201.973" y1="92.6141" x2="206.438" y2="142.345" gradientUnits="userSpaceOnUse">
            <stop stop-color="#53FDA9"/>
            <stop offset="1" stop-color="#2F0B8F" stop-opacity="0"/>
        </linearGradient>
        <linearGradient id="paint56_linear_4607_3234" x1="206.328" y1="92.6141" x2="201.863" y2="142.345" gradientUnits="userSpaceOnUse">
            <stop stop-color="#53FDA9"/>
            <stop offset="1" stop-color="#2F0B8F" stop-opacity="0"/>
        </linearGradient>
        <radialGradient id="paint57_radial_4607_3234" cx="0" cy="0" r="1" gradientUnits="userSpaceOnUse" gradientTransform="translate(204.102 93.3562) rotate(90) scale(43.6936 22742)">
            <stop stop-color="#53FDA9"/>
            <stop offset="1" stop-color="#00FF81" stop-opacity="0"/>
        </radialGradient>
        <radialGradient id="paint58_radial_4607_3234" cx="0" cy="0" r="1" gradientUnits="userSpaceOnUse" gradientTransform="translate(201.972 92.8856) rotate(90) scale(33.1536 23359.3)">
            <stop stop-color="#53FDA9"/>
            <stop offset="1" stop-color="#00FF81" stop-opacity="0"/>
        </radialGradient>
        <radialGradient id="paint59_radial_4607_3234" cx="0" cy="0" r="1" gradientUnits="userSpaceOnUse" gradientTransform="translate(206.348 92.8903) rotate(90) scale(32.8327 24939.9)">
            <stop stop-color="#53FDA9"/>
            <stop offset="1" stop-color="#00FF81" stop-opacity="0"/>
        </radialGradient>
        <linearGradient id="paint60_linear_4607_3234" x1="202.122" y1="85.7044" x2="202.122" y2="92.9013" gradientUnits="userSpaceOnUse">
            <stop stop-color="#53FDA9"/>
            <stop offset="1" stop-color="#D9D9D9" stop-opacity="0"/>
        </linearGradient>
        <linearGradient id="paint61_linear_4607_3234" x1="185.904" y1="81.9158" x2="185.904" y2="165.249" gradientUnits="userSpaceOnUse">
            <stop stop-color="#0A2719"/>
            <stop offset="1" stop-opacity="0"/>
        </linearGradient>
        <linearGradient id="paint62_linear_4607_3234" x1="185.526" y1="86.4616" x2="185.146" y2="66.7647" gradientUnits="userSpaceOnUse">
            <stop stop-color="#324D80"/>
            <stop offset="1" stop-color="#53FDA9"/>
        </linearGradient>
        <linearGradient id="paint63_linear_4607_3234" x1="151.135" y1="129.147" x2="151.135" y2="157.793" gradientUnits="userSpaceOnUse">
            <stop stop-color="#0A1127"/>
            <stop offset="1" stop-opacity="0"/>
        </linearGradient>
        <linearGradient id="paint64_linear_4607_3234" x1="152.335" y1="132.674" x2="152.346" y2="128.886" gradientUnits="userSpaceOnUse">
            <stop stop-color="#290E7C"/>
            <stop offset="1" stop-opacity="0"/>
        </linearGradient>
        <linearGradient id="paint65_linear_4607_3234" x1="155.437" y1="119.481" x2="157.431" y2="86.1786" gradientUnits="userSpaceOnUse">
            <stop stop-color="#53FDA9"/>
            <stop offset="1" stop-color="#2F0B8F" stop-opacity="0"/>
        </linearGradient>
        <linearGradient id="paint66_linear_4607_3234" x1="127.795" y1="55.23" x2="151.893" y2="55.8829" gradientUnits="userSpaceOnUse">
            <stop stop-color="#53FDA9"/>
            <stop offset="1" stop-color="#2F0B8F" stop-opacity="0"/>
        </linearGradient>
        <linearGradient id="paint67_linear_4607_3234" x1="0.730765" y1="0.58741" x2="24.8286" y2="1.24028" gradientUnits="userSpaceOnUse">
            <stop stop-color="#53FDA9"/>
            <stop offset="1" stop-color="#2F0B8F" stop-opacity="0"/>
        </linearGradient>
        <radialGradient id="paint68_radial_4607_3234" cx="0" cy="0" r="1" gradientUnits="userSpaceOnUse" gradientTransform="translate(182.802 80.8649) scale(7.1203 23429.5)">
            <stop stop-color="#53FDA9"/>
            <stop offset="1" stop-color="#00FF81" stop-opacity="0"/>
        </radialGradient>
        <radialGradient id="paint69_radial_4607_3234" cx="0" cy="0" r="1" gradientUnits="userSpaceOnUse" gradientTransform="translate(183.179 80.2317) rotate(90) scale(14.3015 23359)">
            <stop stop-color="#53FDA9"/>
            <stop offset="1" stop-color="#00FF81" stop-opacity="0"/>
        </radialGradient>
        <radialGradient id="paint70_radial_4607_3234" cx="0" cy="0" r="1" gradientUnits="userSpaceOnUse" gradientTransform="translate(192.231 80.3161) rotate(90) scale(7.15077 23359)">
            <stop stop-color="#53FDA9"/>
            <stop offset="1" stop-color="#00FF81" stop-opacity="0"/>
        </radialGradient>
        <radialGradient id="paint71_radial_4607_3234" cx="0" cy="0" r="1" gradientUnits="userSpaceOnUse" gradientTransform="translate(192.4 94.8249) rotate(-90) scale(2.60028 23359)">
            <stop stop-color="#53FDA9"/>
            <stop offset="1" stop-color="#00FF81" stop-opacity="0"/>
        </radialGradient>
        <radialGradient id="paint72_radial_4607_3234" cx="0" cy="0" r="1" gradientUnits="userSpaceOnUse" gradientTransform="translate(192.4 97.8411) rotate(-90) scale(1.30014 23359)">
            <stop stop-color="#53FDA9"/>
            <stop offset="1" stop-color="#00FF81" stop-opacity="0"/>
        </radialGradient>
        <radialGradient id="paint73_radial_4607_3234" cx="0" cy="0" r="1" gradientUnits="userSpaceOnUse" gradientTransform="translate(192.777 80.6937) rotate(180) scale(7.1203 23429.5)">
            <stop stop-color="#53FDA9"/>
            <stop offset="1" stop-color="#00FF81" stop-opacity="0"/>
        </radialGradient>
    </defs>
</svg>
