<svg width="72" height="72" viewBox="0 0 72 72" fill="none"
    xmlns="http://www.w3.org/2000/svg">
    <path d="M36.75 36.375C36.75 36.5821 36.9179 36.75 37.125 36.75H67.125C67.3321 36.75 67.5 36.5821 67.5 36.375C67.5 36.1679 67.3321 36 67.125 36H37.125C36.9179 36 36.75 36.1679 36.75 36.375Z" fill="url(#paint0_linear_4935_2017)"/>
    <path d="M36 36.375C36 36.5821 35.8321 36.75 35.625 36.75H5.62894C5.42336 36.75 5.2561 36.5845 5.25396 36.3789C5.25178 36.1703 5.4203 36 5.62894 36H35.625C35.8321 36 36 36.1679 36 36.375Z" fill="url(#paint1_linear_4935_2017)"/>
    <rect width="31.5" height="0.75" rx="0.375" transform="matrix(1 -5.82025e-08 -5.31832e-08 -1 38.25 38.25)" fill="url(#paint2_linear_4935_2017)"/>
    <rect x="34.5" y="35.25" width="31.5" height="0.75" rx="0.375" transform="rotate(180 34.5 35.25)" fill="url(#paint3_linear_4935_2017)"/>
    <path d="M35.25 34.875C35.25 35.0821 35.4179 35.25 35.625 35.25H55.875C56.0821 35.25 56.25 35.0821 56.25 34.875C56.25 34.6679 56.0821 34.5 55.875 34.5H35.625C35.4179 34.5 35.25 34.6679 35.25 34.875Z" fill="url(#paint4_linear_4935_2017)"/>
    <path d="M36.75 37.875C36.75 38.0821 36.5821 38.25 36.375 38.25H16.125C15.9179 38.25 15.75 38.0821 15.75 37.875C15.75 37.6679 15.9179 37.5 16.125 37.5H36.375C36.5821 37.5 36.75 37.6679 36.75 37.875Z" fill="url(#paint5_linear_4935_2017)"/>
    <defs>
        <linearGradient id="paint0_linear_4935_2017" x1="36.8449" y1="36.0299" x2="67.499" y2="36.5156" gradientUnits="userSpaceOnUse">
            <stop stop-color="#632BFF"/>
            <stop offset="1" stop-opacity="0"/>
        </linearGradient>
        <linearGradient id="paint1_linear_4935_2017" x1="35.8982" y1="36.0299" x2="5.25104" y2="36.5154" gradientUnits="userSpaceOnUse">
            <stop stop-color="#632BFF"/>
            <stop offset="1" stop-opacity="0"/>
        </linearGradient>
        <linearGradient id="paint2_linear_4935_2017" x1="1.1368e-07" y1="0.75001" x2="31.4986" y2="0.279628" gradientUnits="userSpaceOnUse">
            <stop stop-color="#632BFF"/>
            <stop offset="1" stop-opacity="0"/>
        </linearGradient>
        <linearGradient id="paint3_linear_4935_2017" x1="34.5" y1="36" x2="65.9986" y2="35.5296" gradientUnits="userSpaceOnUse">
            <stop stop-color="#632BFF"/>
            <stop offset="1" stop-opacity="0"/>
        </linearGradient>
        <linearGradient id="paint4_linear_4935_2017" x1="35.25" y1="34.5" x2="56.2517" y2="34.7091" gradientUnits="userSpaceOnUse">
            <stop stop-color="#632BFF"/>
            <stop offset="1" stop-opacity="0"/>
        </linearGradient>
        <linearGradient id="paint5_linear_4935_2017" x1="36.75" y1="37.5" x2="15.7483" y2="37.7091" gradientUnits="userSpaceOnUse">
            <stop stop-color="#632BFF"/>
            <stop offset="1" stop-opacity="0"/>
        </linearGradient>
    </defs>
</svg>
