<svg width="64" height="64" viewBox="0 0 64 64" fill="none"
    xmlns="http://www.w3.org/2000/svg">
    <path d="M39.0511 22.2027L32.011 18.2129" stroke="#53FDA9" stroke-width="0.5" stroke-linecap="round" stroke-linejoin="round"/>
    <path d="M39.0511 22.2022V14.2227L32.011 18.2124" stroke="#53FDA9" stroke-width="0.5" stroke-linecap="round" stroke-linejoin="round"/>
    <path d="M43.7434 24.864L50.7836 20.8742L43.7434 16.8818" stroke="#53FDA9" stroke-width="0.5" stroke-linecap="round" stroke-linejoin="round"/>
    <path d="M43.7434 24.8614V16.8818" stroke="#53FDA9" stroke-width="0.5" stroke-linecap="round" stroke-linejoin="round"/>
    <path d="M48.436 27.5203L56.6729 22.8524C57.0206 22.6553 57.3102 22.3679 57.5118 22.0197C57.7133 21.6716 57.8196 21.2752 57.8196 20.8716C57.8196 20.468 57.7133 20.0717 57.5118 19.7235C57.3102 19.3754 57.0206 19.0879 56.6729 18.8909L46.1801 12.9436C45.4354 12.5217 44.5966 12.2998 43.7434 12.2988" stroke="#53FDA9" stroke-width="0.5" stroke-linecap="round" stroke-linejoin="round"/>
    <path d="M43.7435 38.1617L36.7034 34.1719" stroke="#53FDA9" stroke-width="0.5" stroke-linecap="round" stroke-linejoin="round"/>
    <path d="M36.7036 34.1717L32.011 31.5127" stroke="#53FDA9" stroke-width="0.5" stroke-linecap="round" stroke-linejoin="round"/>
    <path d="M13.2404 28.8564L7.34861 32.2092C7.00086 32.4062 6.7113 32.6937 6.50973 33.0418C6.30816 33.39 6.2019 33.7863 6.2019 34.19C6.2019 34.5936 6.30816 34.9898 6.50973 35.3379C6.7113 35.6861 7.00086 35.9735 7.34861 36.1706L17.8414 42.1179C18.5866 42.5391 19.4259 42.7602 20.2793 42.7602C21.1328 42.7602 21.9721 42.5391 22.7173 42.1179L36.7034 34.19" stroke="#53FDA9" stroke-width="0.5" stroke-linecap="round" stroke-linejoin="round"/>
    <path d="M13.2405 28.8501L20.2806 24.8604" stroke="#53FDA9" stroke-width="0.5" stroke-linecap="round" stroke-linejoin="round"/>
    <path d="M20.2806 24.8648L13.2405 20.875V28.852" stroke="#53FDA9" stroke-width="0.5" stroke-linecap="round" stroke-linejoin="round"/>
    <path d="M20.2808 38.1619V35.5029" stroke="#53FDA9" stroke-width="0.5" stroke-linecap="round" stroke-linejoin="round"/>
    <path d="M20.2806 38.1622L13.2405 34.1724L20.2806 30.1826" stroke="#53FDA9" stroke-width="0.5" stroke-linecap="round" stroke-linejoin="round"/>
    <path d="M43.7435 38.1611V46.1407L36.7034 42.1509" stroke="#53FDA9" stroke-width="0.5" stroke-linecap="round" stroke-linejoin="round"/>
    <path d="M20.2781 50.7217V52.9087C20.2785 53.3124 20.3851 53.7088 20.5869 54.0569C20.7887 54.4051 21.0785 54.6924 21.4264 54.8895L28.4512 58.8715" stroke="#53FDA9" stroke-width="0.5" stroke-linecap="round" stroke-linejoin="round"/>
    <path d="M32.011 44.8094L43.0486 51.0662L45.1008 52.2293C45.4419 52.4227 45.8269 52.5224 46.2178 52.5185C46.6086 52.5146 46.9917 52.4072 47.3289 52.207C47.6661 52.0068 47.9457 51.7207 48.1399 51.3771C48.3342 51.0336 48.4364 50.6446 48.4363 50.2487V38.4624C48.4366 37.5645 48.2009 36.6828 47.7534 35.9078C47.3059 35.1327 46.6628 34.4922 45.8901 34.0522L32.0186 26.1836" stroke="#53FDA9" stroke-width="0.5" stroke-linecap="round" stroke-linejoin="round"/>
    <path d="M32.011 52.7901V44.8105" stroke="#53FDA9" stroke-width="0.5" stroke-linecap="round" stroke-linejoin="round"/>
    <path d="M32.011 52.7896L39.0511 48.7998" stroke="#53FDA9" stroke-width="0.5" stroke-linecap="round" stroke-linejoin="round"/>
    <path d="M20.2781 19.5397L11.807 14.7375C11.4736 14.5486 11.0973 14.4513 10.7153 14.4552C10.3333 14.4591 9.95896 14.5643 9.62948 14.7601C9.29999 14.9559 9.02684 15.2356 8.83709 15.5714C8.64735 15.9073 8.54761 16.2875 8.54785 16.6745V26.1834" stroke="#53FDA9" stroke-width="0.5" stroke-linecap="round" stroke-linejoin="round"/>
    <path d="M57.8215 28.8507V20.8711" stroke="#53FDA9" stroke-width="0.5" stroke-linecap="round" stroke-linejoin="round"/>
    <path d="M43.7435 38.1611L36.7034 42.1509" stroke="#53FDA9" stroke-width="0.5" stroke-linecap="round" stroke-linejoin="round"/>
    <path d="M27.3181 47.4721L32.0107 44.8105" stroke="#53FDA9" stroke-width="0.5" stroke-linecap="round" stroke-linejoin="round"/>
    <path d="M20.2781 50.7219C21.1319 50.7219 21.9716 50.5009 22.7173 50.0797L27.3182 47.4697" stroke="#53FDA9" stroke-width="0.5" stroke-linecap="round" stroke-linejoin="round"/>
    <path d="M20.2782 50.7205C19.4252 50.7203 18.5864 50.4993 17.8415 50.0784L7.34869 44.1311C6.99969 43.9357 6.70913 43.6485 6.50751 43.3C6.3059 42.9515 6.20067 42.5543 6.20292 42.1504" stroke="#53FDA9" stroke-width="0.5" stroke-linecap="round" stroke-linejoin="round"/>
    <path d="M32.011 44.8094L36.7036 42.1504" stroke="#53FDA9" stroke-width="0.5" stroke-linecap="round" stroke-linejoin="round"/>
    <path d="M6.20288 42.1514V34.1719" stroke="#53FDA9" stroke-width="0.5" stroke-linecap="round" stroke-linejoin="round"/>
    <path d="M39.0511 22.2027L32.011 18.2129" stroke="#53FDA9" stroke-width="0.5" stroke-linecap="round" stroke-linejoin="round"/>
    <path d="M48.436 27.5219L43.7434 24.8604" stroke="#53FDA9" stroke-width="0.5" stroke-linecap="round" stroke-linejoin="round"/>
    <path d="M32.011 26.1873V18.2129" stroke="#53FDA9" stroke-width="0.5" stroke-linecap="round" stroke-linejoin="round"/>
    <path d="M48.4363 27.5205L52.9201 30.0635C53.6934 30.5035 54.3368 31.1443 54.7844 31.9199C55.2319 32.6955 55.4673 33.5779 55.4663 34.4762" stroke="#53FDA9" stroke-width="0.5" stroke-linecap="round" stroke-linejoin="round"/>
    <path d="M32.011 31.5127L20.2808 38.1615" stroke="#53FDA9" stroke-width="0.5" stroke-linecap="round" stroke-linejoin="round"/>
    <path d="M32.011 26.1865V31.5122" stroke="#53FDA9" stroke-width="0.5" stroke-linecap="round" stroke-linejoin="round"/>
    <path d="M43.7436 24.8611L39.051 22.2021" stroke="#53FDA9" stroke-width="0.5" stroke-linecap="round" stroke-linejoin="round"/>
    <path d="M54.3584 48.2227L47.3335 52.2047" stroke="#53FDA9" stroke-width="0.5" stroke-linecap="round" stroke-linejoin="round"/>
    <path d="M55.4763 34.476V34.4736" stroke="#53FDA9" stroke-width="0.5" stroke-linecap="round" stroke-linejoin="round"/>
    <path d="M55.4738 34.4766V46.2602C55.4761 46.6584 55.3739 47.05 55.1774 47.3949C54.981 47.7399 54.6974 48.0256 54.356 48.2228" stroke="#53FDA9" stroke-width="0.5" stroke-linecap="round" stroke-linejoin="round"/>
    <path d="M27.3181 47.4697V56.8987C27.318 57.2946 27.4202 57.6837 27.6144 58.0273C27.8087 58.3709 28.0883 58.6569 28.4255 58.8572C28.7627 59.0574 29.1458 59.1648 29.5366 59.1687C29.9275 59.1726 30.3126 59.0729 30.6536 58.8795L36.7033 55.4493" stroke="#53FDA9" stroke-width="0.5" stroke-linecap="round" stroke-linejoin="round"/>
    <path d="M54.7815 31.9041L56.6733 30.8313C57.0223 30.6358 57.3128 30.3487 57.5145 30.0002C57.7161 29.6517 57.8213 29.2545 57.8191 28.8506" stroke="#53FDA9" stroke-width="0.5" stroke-linecap="round" stroke-linejoin="round"/>
    <path d="M16.6497 10.7814C16.9801 10.5789 17.3577 10.469 17.7438 10.4631C18.13 10.4572 18.5107 10.5555 18.847 10.7479L20.9731 11.9549" stroke="#53FDA9" stroke-width="0.5" stroke-linecap="round" stroke-linejoin="round"/>
    <path d="M16.6523 10.7852L9.67065 14.7414" stroke="#53FDA9" stroke-width="0.5" stroke-linecap="round" stroke-linejoin="round"/>
    <path d="M43.7434 12.3018V16.8821" stroke="#53FDA9" stroke-width="0.5" stroke-linecap="round" stroke-linejoin="round"/>
    <path d="M43.7438 12.2988V10.1144C43.7461 9.70496 43.638 9.30259 43.4311 8.95081C43.2243 8.59903 42.9266 8.31114 42.5701 8.11816" stroke="#53FDA9" stroke-width="0.5" stroke-linecap="round" stroke-linejoin="round"/>
    <path d="M27.3181 34.1718V18.5144C27.3178 17.6166 27.5536 16.7349 28.001 15.9598C28.4485 15.1848 29.0916 14.5443 29.8643 14.1042L32.0031 12.8922L40.4055 8.13379C40.7345 7.94439 41.1059 7.84359 41.4843 7.84088C41.8627 7.83817 42.2355 7.93363 42.5672 8.1183" stroke="#53FDA9" stroke-width="0.5" stroke-linecap="round" stroke-linejoin="round"/>
    <path d="M43.0562 51.0664C42.6078 51.8348 41.9665 52.4693 41.1975 52.9052L36.7112 55.4481" stroke="#53FDA9" stroke-width="0.5" stroke-linecap="round" stroke-linejoin="round"/>
    <path d="M9.23276 31.1018C8.78404 30.3267 8.54761 29.4444 8.54785 28.5459V26.1836" stroke="#53FDA9" stroke-width="0.5" stroke-linecap="round" stroke-linejoin="round"/>
    <path d="M20.2808 24.8604V30.1809" stroke="#53FDA9" stroke-width="0.5" stroke-linecap="round" stroke-linejoin="round"/>
    <path d="M20.2808 19.543V24.861" stroke="#53FDA9" stroke-width="0.5" stroke-linecap="round" stroke-linejoin="round"/>
    <path d="M20.2781 19.5413V14.5303C20.2774 13.6317 20.5129 12.749 20.9604 11.9731C21.4078 11.1971 22.0512 10.5558 22.8242 10.115L33.3603 4.14453" stroke="#53FDA9" stroke-width="0.5" stroke-linecap="round" stroke-linejoin="round"/>
    <path d="M20.2808 35.5032V30.1826" stroke="#53FDA9" stroke-width="0.5" stroke-linecap="round" stroke-linejoin="round"/>
    <path d="M33.3809 4.14359C33.6833 3.97032 34.0217 3.87122 34.3687 3.8542C34.7158 3.83718 35.062 3.90262 35.3796 4.04549C35.4458 4.07644 35.512 4.11 35.5782 4.14611" stroke="#53FDA9" stroke-width="0.5" stroke-linecap="round" stroke-linejoin="round"/>
    <path d="M42.6183 8.13529L35.5781 4.14551" stroke="#53FDA9" stroke-width="0.5" stroke-linecap="round" stroke-linejoin="round"/>
</svg>
