<svg width="64" height="64" viewBox="0 0 64 64" fill="none"
    xmlns="http://www.w3.org/2000/svg">
    <path d="M32 12.9024C32.9793 12.9024 33.9365 12.6121 34.7508 12.068C35.565 11.524 36.1996 10.7507 36.5743 9.84597C36.9491 8.94125 37.0471 7.94573 36.8561 6.98529C36.665 6.02484 36.1935 5.14262 35.501 4.45018C34.8086 3.75774 33.9264 3.28618 32.9659 3.09514C32.0055 2.90409 31.01 3.00215 30.1053 3.37689C29.2005 3.75164 28.4273 4.38625 27.8832 5.20047C27.3392 6.0147 27.0488 6.97196 27.0488 7.95122C27.0488 9.26437 27.5704 10.5237 28.499 11.4523C29.4275 12.3808 30.6869 12.9024 32 12.9024ZM48.9756 19.9756C49.9549 19.9756 50.9121 19.6852 51.7264 19.1412C52.5406 18.5971 53.1752 17.8239 53.5499 16.9191C53.9247 16.0144 54.0227 15.0189 53.8317 14.0585C53.6406 13.098 53.1691 12.2158 52.4767 11.5234C51.7842 10.8309 50.902 10.3594 49.9415 10.1683C48.9811 9.97727 47.9856 10.0753 47.0809 10.4501C46.1761 10.8248 45.4029 11.4594 44.8588 12.2736C44.3148 13.0879 44.0244 14.0451 44.0244 15.0244C44.0244 16.3375 44.546 17.5969 45.4746 18.5254C46.4031 19.454 47.6625 19.9756 48.9756 19.9756ZM56.0488 36.9512C56.699 36.9512 57.3428 36.8232 57.9435 36.5743C58.5442 36.3255 59.0901 35.9608 59.5498 35.501C60.0096 35.0413 60.3743 34.4955 60.6231 33.8948C60.8719 33.294 61 32.6502 61 32C61 31.3498 60.8719 30.706 60.6231 30.1053C60.3743 29.5045 60.0096 28.9587 59.5498 28.499C59.0901 28.0392 58.5442 27.6745 57.9435 27.4257C57.3428 27.1768 56.699 27.0488 56.0488 27.0488C55.3986 27.0488 54.7547 27.1768 54.154 27.4257C53.5533 27.6745 53.0075 28.0392 52.5477 28.499C52.088 28.9587 51.7233 29.5045 51.4745 30.1053C51.2256 30.706 51.0976 31.3498 51.0976 32C51.0976 32.6502 51.2256 33.294 51.4745 33.8948C51.7233 34.4955 52.088 35.0413 52.5477 35.501C53.0075 35.9608 53.5533 36.3255 54.154 36.5743C54.7547 36.8232 55.3986 36.9512 56.0488 36.9512ZM48.9756 53.9268C49.6209 54.0332 50.2809 54.0106 50.9175 53.8605C51.554 53.7103 52.1545 53.4355 52.6842 53.052C53.214 52.6685 53.6625 52.1838 54.0039 51.626C54.3453 51.0681 54.5728 50.4482 54.6732 49.8019C54.7736 49.1557 54.745 48.4959 54.5891 47.8608C54.4331 47.2256 54.1529 46.6277 53.7645 46.1014C53.3761 45.5752 52.8874 45.1311 52.3264 44.7949C51.7655 44.4586 51.1435 44.2368 50.4963 44.1423C49.9928 44.06 49.4792 44.06 48.9756 44.1423C47.8085 44.324 46.7449 44.9169 45.9766 45.8141C45.2083 46.7112 44.7861 47.8534 44.7861 49.0346C44.7861 50.2157 45.2083 51.3579 45.9766 52.2551C46.7449 53.1522 47.8085 53.7451 48.9756 53.9268ZM32 61C32.9793 61 33.9365 60.7096 34.7508 60.1656C35.565 59.6215 36.1996 58.8482 36.5743 57.9435C36.9491 57.0388 37.0471 56.0433 36.8561 55.0828C36.665 54.1224 36.1935 53.2402 35.501 52.5477C34.8086 51.8553 33.9264 51.3837 32.9659 51.1927C32.0055 51.0017 31.01 51.0997 30.1053 51.4745C29.2005 51.8492 28.4273 52.4838 27.8832 53.298C27.3392 54.1123 27.0488 55.0695 27.0488 56.0488C27.0488 57.3619 27.5704 58.6213 28.499 59.5498C29.4275 60.4784 30.6869 61 32 61ZM15.0244 53.9268C15.6697 54.0332 16.3297 54.0106 16.9662 53.8605C17.6028 53.7103 18.2033 53.4355 18.733 53.052C19.2628 52.6685 19.7113 52.1838 20.0527 51.626C20.3941 51.0681 20.6215 50.4482 20.722 49.8019C20.8224 49.1557 20.7938 48.4959 20.6379 47.8608C20.4819 47.2256 20.2016 46.6277 19.8133 46.1014C19.4249 45.5752 18.9362 45.1311 18.3752 44.7949C17.8143 44.4586 17.1923 44.2368 16.5451 44.1423C16.0416 44.06 15.528 44.06 15.0244 44.1423C13.8573 44.324 12.7936 44.9169 12.0254 45.8141C11.2571 46.7112 10.8349 47.8534 10.8349 49.0346C10.8349 50.2157 11.2571 51.3579 12.0254 52.2551C12.7936 53.1522 13.8573 53.7451 15.0244 53.9268ZM7.95122 36.9512C8.93048 36.9512 9.88775 36.6608 10.702 36.1168C11.5162 35.5727 12.1508 34.7995 12.5256 33.8948C12.9003 32.99 12.9983 31.9945 12.8073 31.0341C12.6163 30.0736 12.1447 29.1914 11.4523 28.499C10.7598 27.8065 9.8776 27.335 8.91715 27.1439C7.95671 26.9529 6.96119 27.0509 6.05647 27.4257C5.15175 27.8004 4.37848 28.435 3.83443 29.2493C3.29038 30.0635 3 31.0207 3 32C3 33.3131 3.52164 34.5725 4.45018 35.501C5.37871 36.4296 6.63807 36.9512 7.95122 36.9512ZM15.0244 19.9756C16.0037 19.9756 16.9609 19.6852 17.7751 19.1412C18.5894 18.5971 19.224 17.8239 19.5987 16.9191C19.9735 16.0144 20.0715 15.0189 19.8805 14.0585C19.6894 13.098 19.2179 12.2158 18.5254 11.5234C17.833 10.8309 16.9508 10.3594 15.9903 10.1683C15.0299 9.97727 14.0344 10.0753 13.1296 10.4501C12.2249 10.8248 11.4516 11.4594 10.9076 12.2736C10.3636 13.0879 10.0732 14.0451 10.0732 15.0244C10.0732 16.3375 10.5948 17.5969 11.5233 18.5254C12.4519 19.454 13.7112 19.9756 15.0244 19.9756Z" stroke="#53FDA9" stroke-width="0.5" stroke-miterlimit="10" stroke-linecap="round"/>
    <path d="M34.639 35.9495C33.8578 36.4714 32.9395 36.75 32 36.75C30.7402 36.75 29.532 36.2496 28.6412 35.3588C27.7504 34.468 27.25 33.2598 27.25 32C27.25 31.0605 27.5286 30.1422 28.0505 29.361C28.5725 28.5799 29.3143 27.9711 30.1823 27.6116C31.0502 27.2521 32.0053 27.158 32.9267 27.3413C33.8481 27.5246 34.6945 27.9769 35.3588 28.6412C36.0231 29.3055 36.4754 30.1519 36.6587 31.0733C36.842 31.9947 36.7479 32.9498 36.3884 33.8177C36.0289 34.6857 35.4201 35.4275 34.639 35.9495Z" stroke="#53FDA9" stroke-width="0.5" stroke-miterlimit="10" stroke-linecap="round"/>
    <path d="M39.5743 24.6296C39.5743 24.6296 46.1787 22.544 52.2039 28.5691M42.471 32.0451C42.471 32.0451 48.612 35.2894 48.612 43.8637M39.3425 39.5766C39.3425 39.5766 41.4282 46.181 35.2872 52.2062M32.0429 42.4733C30.8085 44.4316 29.0719 46.0233 27.0138 47.0829C25.1661 48.0343 23.1197 48.5255 21.0484 48.5197M24.6273 39.229C22.3666 39.8295 19.9848 39.8016 17.7387 39.1482C15.4927 38.4949 13.4676 37.2408 11.8818 35.5212M21.4989 32.0451C21.4989 32.0451 15.3579 28.8008 15.4737 20.2266M24.7432 24.6296C24.2194 22.3544 24.3197 19.9799 25.0335 17.7569C25.7473 15.534 27.0481 13.545 28.7986 12" stroke="#53FDA9" stroke-width="0.5" stroke-miterlimit="10" stroke-linecap="round"/>
    <path d="M32.0425 21.3855C32.0425 21.3855 35.1709 15.3604 43.7451 15.3604" stroke="#53FDA9" stroke-width="0.5" stroke-miterlimit="10" stroke-linecap="round"/>
</svg>
