<svg width="72" height="72" viewBox="0 0 72 72" fill="none"
    xmlns="http://www.w3.org/2000/svg">
    <path d="M37.5007 36.001C37.5007 35.7248 37.7246 35.501 38.0007 35.501H71.5C71.7762 35.501 72 35.7248 72 36.001C72 36.2771 71.7762 36.501 71.5 36.501H38.0007C37.7246 36.501 37.5007 36.2771 37.5007 36.001Z" fill="url(#paint0_linear_4935_2162)"/>
    <path d="M34.4993 36.001C34.4993 35.7248 34.2754 35.501 33.9993 35.501H0.504402C0.229969 35.501 0.00682831 35.7222 0.00441742 35.9966C0.00197601 36.2744 0.22654 36.501 0.504402 36.501H33.9993C34.2754 36.501 34.4993 36.2771 34.4993 36.001Z" fill="url(#paint1_linear_4935_2162)"/>
    <rect x="36.501" y="37" width="35.0003" height="0.999978" rx="0.499989" transform="rotate(90 36.501 37)" fill="url(#paint2_linear_4935_2162)"/>
    <rect width="35.0003" height="0.999981" rx="0.49999" transform="matrix(4.37101e-08 -1 -1 -4.37127e-08 36.4995 35)" fill="url(#paint3_linear_4935_2162)"/>
    <path d="M35.4983 37.5068C35.4983 37.2307 35.7222 37.0068 35.9983 37.0068H58.4978C58.7739 37.0068 58.9978 37.2307 58.9978 37.5068C58.9978 37.783 58.7739 38.0068 58.4978 38.0068H35.9983C35.7221 38.0068 35.4983 37.783 35.4983 37.5068Z" fill="url(#paint4_linear_4935_2162)"/>
    <path d="M36.4966 34.5059C36.4966 34.2297 36.2727 34.0059 35.9966 34.0059H13.4971C13.2209 34.0059 12.9971 34.2297 12.9971 34.5059C12.9971 34.782 13.2209 35.0059 13.4971 35.0059H35.9966C36.2727 35.0059 36.4966 34.782 36.4966 34.5059Z" fill="url(#paint5_linear_4935_2162)"/>
    <defs>
        <linearGradient id="paint0_linear_4935_2162" x1="37.6072" y1="36.4612" x2="72.0014" y2="36.0026" gradientUnits="userSpaceOnUse">
            <stop stop-color="#632BFF"/>
            <stop offset="1" stop-opacity="0"/>
        </linearGradient>
        <linearGradient id="paint1_linear_4935_2162" x1="34.385" y1="36.4612" x2="-0.00136905" y2="36.0028" gradientUnits="userSpaceOnUse">
            <stop stop-color="#632BFF"/>
            <stop offset="1" stop-opacity="0"/>
        </linearGradient>
        <linearGradient id="paint2_linear_4935_2162" x1="36.501" y1="38" x2="71.5021" y2="37.5644" gradientUnits="userSpaceOnUse">
            <stop stop-color="#632BFF"/>
            <stop offset="1" stop-opacity="0"/>
        </linearGradient>
        <linearGradient id="paint3_linear_4935_2162" x1="1.26313e-07" y1="0.999994" x2="35.0011" y2="0.564411" gradientUnits="userSpaceOnUse">
            <stop stop-color="#632BFF"/>
            <stop offset="1" stop-opacity="0"/>
        </linearGradient>
        <linearGradient id="paint4_linear_4935_2162" x1="35.4983" y1="38.0069" x2="59.0003" y2="37.8105" gradientUnits="userSpaceOnUse">
            <stop stop-color="#632BFF"/>
            <stop offset="1" stop-opacity="0"/>
        </linearGradient>
        <linearGradient id="paint5_linear_4935_2162" x1="36.4966" y1="35.0059" x2="12.9945" y2="34.8095" gradientUnits="userSpaceOnUse">
            <stop stop-color="#632BFF"/>
            <stop offset="1" stop-opacity="0"/>
        </linearGradient>
    </defs>
</svg>
