<svg width="40" height="40" viewBox="0 0 40 40" fill="none" xmlns="http://www.w3.org/2000/svg">
<path fill-rule="evenodd" clip-rule="evenodd" d="M20 11.29C15.1898 11.29 11.2903 15.1896 11.2903 19.9997C11.2903 24.8099 15.1898 28.7094 20 28.7094C24.8101 28.7094 28.7096 24.8099 28.7096 19.9997C28.7096 15.1896 24.8101 11.29 20 11.29ZM19.2589 22.466L19.2532 22.4763C19.0602 22.8144 18.9622 22.9858 18.8266 23.1148C18.6788 23.2561 18.5017 23.3587 18.3068 23.4162C18.1288 23.4651 17.9301 23.4651 17.5318 23.4651H15.8415C15.4865 23.4651 15.3103 23.4651 15.2039 23.3964C15.0881 23.3211 15.0175 23.1977 15.009 23.0602C15.0024 22.934 15.09 22.7796 15.2661 22.4716L19.4396 15.1161C19.6177 14.8035 19.7071 14.6472 19.8201 14.5897C19.9416 14.5276 20.0875 14.5276 20.21 14.5897C20.323 14.6472 20.4134 14.8035 20.5904 15.1161L21.4483 16.6134L21.453 16.6209C21.6451 16.9562 21.7421 17.1257 21.7845 17.3046C21.8316 17.4995 21.8316 17.7048 21.7845 17.8998C21.7421 18.0796 21.6451 18.251 21.4502 18.591L19.2579 22.466H19.2589ZM24.8666 23.3945C24.7593 23.4651 24.5803 23.4651 24.2225 23.4651H21.8005C21.4436 23.4651 21.2637 23.4651 21.1582 23.3964C21.0424 23.3211 20.9718 23.1949 20.9633 23.0583C20.9567 22.9331 21.0453 22.7805 21.2223 22.4745L21.226 22.4669L22.4352 20.3915C22.6132 20.0854 22.7026 19.9338 22.8137 19.8754C22.9361 19.8133 23.0793 19.8133 23.2008 19.8754C23.311 19.9319 23.3976 20.0769 23.568 20.366L23.5821 20.3896L24.7951 22.4651C24.8007 22.4754 24.8073 22.4848 24.8129 22.4952C24.9815 22.7852 25.0672 22.9331 25.0606 23.0555C25.054 23.1921 24.9815 23.3182 24.8657 23.3936L24.8666 23.3945Z" fill="white"/>
</svg>
