<svg width="529" height="362" viewBox="0 0 529 362" fill="none" xmlns="http://www.w3.org/2000/svg">
<g filter="url(#filter0_f_1729_4435)">
<ellipse rx="153.526" ry="63.6558" transform="matrix(-1 -8.74228e-08 -0.301031 -0.953614 253.311 180.703)" fill="url(#paint0_linear_1729_4435)"/>
</g>
<path d="M171.177 241.578L155.684 243.337C146.254 237.238 144.807 230.448 151.585 224.095L167.557 225.365C161.824 230.716 163.027 236.438 170.964 241.578H171.177ZM172.295 242.241L156.962 244.131C160.377 246.179 164.646 248.115 169.686 249.901L182.997 247.102C178.731 245.603 175.139 243.971 172.295 242.241ZM231.552 208.503C234.882 208.267 238.26 208.084 241.668 207.955L239.272 203.44C235.234 203.589 231.233 203.806 227.293 204.089L231.552 208.503ZM314.288 256.19L304.864 252.41C303.374 252.685 301.776 252.944 300.179 253.204L308.751 257.127C310.614 256.795 312.478 256.521 314.288 256.19ZM344.635 232.144C344.632 235.383 342.262 238.589 337.66 241.578L353.207 243.337C360.197 238.767 362.766 233.789 360.67 228.874C358.573 223.96 351.881 219.271 341.228 215.253L327.758 217.85C338.789 222.015 344.694 227.017 344.635 232.144ZM170.432 223.244C173.288 221.242 177.139 219.354 181.879 217.633L168.302 214.965C162.719 217.015 158.155 219.256 154.726 221.629L170.432 223.244ZM244.33 207.868C247.686 207.757 251.065 207.704 254.446 207.709C258.774 207.71 263.096 207.792 267.383 207.955L269.832 203.44C264.735 203.243 259.594 203.142 254.446 203.137C250.443 203.141 246.444 203.203 242.466 203.324L244.33 207.868ZM279.309 255.627C263.295 256.875 246.318 256.896 230.264 255.686C214.21 254.477 199.71 252.084 188.374 248.776L176.022 251.877C189.48 255.802 206.689 258.64 225.739 260.076C244.788 261.512 264.934 261.49 283.941 260.012L279.309 255.627ZM336.542 242.241C335.105 243.095 333.505 243.928 331.751 244.737L346.179 247.088C348.278 246.156 350.18 245.193 351.876 244.203L336.542 242.241ZM289.265 209.599C302.084 211.059 313.488 213.3 322.593 216.148L335.318 213.162C324.51 209.782 310.974 207.121 295.76 205.387L289.265 209.599ZM311.519 251.055L322.168 254.589C330.849 252.663 338.359 250.381 344.422 247.824L330.313 245.357C325.159 247.496 318.82 249.408 311.519 251.026V251.055Z" fill="url(#paint1_linear_1729_4435)"/>
<g filter="url(#filter1_d_1729_4435)">
<ellipse cx="254.379" cy="158.305" rx="110" ry="29" stroke="url(#paint2_linear_1729_4435)" stroke-linecap="round" stroke-linejoin="round" stroke-dasharray="2 2" shape-rendering="crispEdges"/>
</g>
<g filter="url(#filter2_d_1729_4435)">
<ellipse cx="254.683" cy="144.214" rx="94.3039" ry="24.8619" stroke="url(#paint3_linear_1729_4435)" stroke-linecap="round" stroke-linejoin="round" stroke-dasharray="2 2" shape-rendering="crispEdges"/>
</g>
<g filter="url(#filter3_d_1729_4435)">
<ellipse cx="254.683" cy="186.475" rx="94.3039" ry="24.8619" stroke="url(#paint4_linear_1729_4435)" stroke-linecap="round" stroke-linejoin="round" stroke-dasharray="2 2" shape-rendering="crispEdges"/>
</g>
<rect x="180.379" y="120.129" width="150" height="15" rx="7.5" fill="url(#paint5_linear_1729_4435)"/>
<rect x="184.406" y="124.129" width="141.946" height="7" rx="3.5" fill="url(#paint6_linear_1729_4435)"/>
<rect x="189.379" y="127.129" width="132" height="108" rx="1" fill="url(#paint7_linear_1729_4435)"/>
<path opacity="0.5" d="M210.379 128.129H204.379V238.129H210.379V128.129Z" fill="url(#paint8_linear_1729_4435)"/>
<path opacity="0.2" d="M243.379 128.129H237.379V238.129H243.379V128.129Z" fill="url(#paint9_linear_1729_4435)"/>
<path opacity="0.6" d="M308.379 128.129H304.379V220.129H308.379V128.129Z" fill="url(#paint10_linear_1729_4435)"/>
<path opacity="0.2" d="M297.379 128.129H295.379V220.129H297.379V128.129Z" fill="url(#paint11_linear_1729_4435)"/>
<path opacity="0.2" d="M271.379 128.129H265.379V238.129H271.379V128.129Z" fill="url(#paint12_linear_1729_4435)"/>
<path opacity="0.6" d="M289.379 128.129H285.379V220.129H289.379V128.129Z" fill="url(#paint13_linear_1729_4435)"/>
<path opacity="0.2" d="M278.379 128.129H276.379V220.129H278.379V128.129Z" fill="url(#paint14_linear_1729_4435)"/>
<path opacity="0.1" d="M250.379 128.129H248.379V220.129H250.379V128.129Z" fill="url(#paint15_linear_1729_4435)"/>
<path opacity="0.2" d="M218.379 128.129H215.379V253.129H218.379V128.129Z" fill="url(#paint16_linear_1729_4435)"/>
<path d="M253.379 227.129L253.379 128.629C253.379 128.353 253.603 128.129 253.879 128.129C254.155 128.129 254.379 128.353 254.379 128.629L254.379 227.129L253.379 227.129Z" fill="url(#paint17_linear_1729_4435)"/>
<path d="M255.379 202.129L255.379 128.629C255.379 128.353 255.603 128.129 255.879 128.129C256.155 128.129 256.379 128.353 256.379 128.629L256.379 202.129L255.379 202.129Z" fill="url(#paint18_linear_1729_4435)"/>
<path d="M245.379 228.129L245.379 128.629C245.379 128.353 245.603 128.129 245.879 128.129C246.155 128.129 246.379 128.353 246.379 128.629L246.379 228.129L245.379 228.129Z" fill="url(#paint19_linear_1729_4435)"/>
<path d="M199.379 230.129L199.379 128.629C199.379 128.353 199.603 128.129 199.879 128.129C200.155 128.129 200.379 128.353 200.379 128.629L200.379 230.129L199.379 230.129Z" fill="url(#paint20_linear_1729_4435)"/>
<path d="M320.379 230.129L320.379 128.629C320.379 128.353 320.603 128.129 320.879 128.129C321.155 128.129 321.379 128.353 321.379 128.629L321.379 230.129L320.379 230.129Z" fill="url(#paint21_linear_1729_4435)"/>
<path d="M318.379 208.129L318.379 128.629C318.379 128.353 318.603 128.129 318.879 128.129C319.155 128.129 319.379 128.353 319.379 128.629L319.379 208.129L318.379 208.129Z" fill="url(#paint22_linear_1729_4435)"/>
<path d="M196.379 205.129L196.379 128.629C196.379 128.353 196.603 128.129 196.879 128.129C197.155 128.129 197.379 128.353 197.379 128.629L197.379 205.129L196.379 205.129Z" fill="url(#paint23_linear_1729_4435)"/>
<path d="M290.379 206.129L290.379 128.629C290.379 128.353 290.603 128.129 290.879 128.129C291.155 128.129 291.379 128.353 291.379 128.629L291.379 206.129L290.379 206.129Z" fill="url(#paint24_linear_1729_4435)"/>
<path d="M287.379 187.129L287.379 128.629C287.379 128.353 287.603 128.129 287.879 128.129C288.155 128.129 288.379 128.353 288.379 128.629L288.379 187.129L287.379 187.129Z" fill="url(#paint25_linear_1729_4435)"/>
<path d="M194.379 175.129L194.379 128.629C194.379 128.353 194.603 128.129 194.879 128.129C195.155 128.129 195.379 128.353 195.379 128.629L195.379 175.129L194.379 175.129Z" fill="url(#paint26_linear_1729_4435)"/>
<path d="M191.379 237.129L191.379 128.629C191.379 128.353 191.603 128.129 191.879 128.129C192.155 128.129 192.379 128.353 192.379 128.629L192.379 237.129L191.379 237.129Z" fill="url(#paint27_linear_1729_4435)"/>
<path d="M188.379 138.129L188.379 158.629C188.379 158.905 188.155 159.129 187.879 159.129C187.603 159.129 187.379 158.905 187.379 158.629L187.379 138.129L188.379 138.129Z" fill="url(#paint28_linear_1729_4435)"/>
<path d="M323.379 137.129L323.379 168.629C323.379 168.905 323.155 169.129 322.879 169.129C322.603 169.129 322.379 168.905 322.379 168.629L322.379 137.129L323.379 137.129Z" fill="url(#paint29_linear_1729_4435)"/>
<path d="M324.379 178.129L324.379 201.629C324.379 201.905 324.155 202.129 323.879 202.129C323.603 202.129 323.379 201.905 323.379 201.629L323.379 178.129L324.379 178.129Z" fill="url(#paint30_linear_1729_4435)"/>
<path d="M186.379 166.129L186.379 174.629C186.379 174.905 186.155 175.129 185.879 175.129C185.603 175.129 185.379 174.905 185.379 174.629L185.379 166.129L186.379 166.129Z" fill="url(#paint31_linear_1729_4435)"/>
<path d="M323.379 219.129L323.379 227.629C323.379 227.905 323.155 228.129 322.879 228.129C322.603 228.129 322.379 227.905 322.379 227.629L322.379 219.129L323.379 219.129Z" fill="url(#paint32_linear_1729_4435)"/>
<path d="M188.379 188.129L188.379 191.629C188.379 191.905 188.155 192.129 187.879 192.129C187.603 192.129 187.379 191.905 187.379 191.629L187.379 188.129L188.379 188.129Z" fill="url(#paint33_linear_1729_4435)"/>
<path d="M323.379 171.129L323.379 172.629C323.379 172.905 323.155 173.129 322.879 173.129C322.603 173.129 322.379 172.905 322.379 172.629L322.379 171.129L323.379 171.129Z" fill="url(#paint34_linear_1729_4435)"/>
<path d="M188.379 194.129L188.379 195.629C188.379 195.905 188.155 196.129 187.879 196.129C187.603 196.129 187.379 195.905 187.379 195.629L187.379 194.129L188.379 194.129Z" fill="url(#paint35_linear_1729_4435)"/>
<path d="M189.379 202.129L189.379 235.629C189.379 235.905 189.155 236.129 188.879 236.129C188.603 236.129 188.379 235.905 188.379 235.629L188.379 202.129L189.379 202.129Z" fill="url(#paint36_linear_1729_4435)"/>
<path d="M279.379 219.129L279.379 244.629C279.379 244.905 279.155 245.129 278.879 245.129C278.603 245.129 278.379 244.905 278.379 244.629L278.379 219.129L279.379 219.129Z" fill="url(#paint37_linear_1729_4435)"/>
<path d="M306.379 202.129L306.379 220.629C306.379 220.905 306.155 221.129 305.879 221.129C305.603 221.129 305.379 220.905 305.379 220.629L305.379 202.129L306.379 202.129Z" fill="url(#paint38_linear_1729_4435)"/>
<path d="M324.379 229.129L324.379 234.629C324.379 234.905 324.155 235.129 323.879 235.129C323.603 235.129 323.379 234.905 323.379 234.629L323.379 229.129L324.379 229.129Z" fill="url(#paint39_linear_1729_4435)"/>
<path d="M241.379 188.129L241.379 128.629C241.379 128.353 241.603 128.129 241.879 128.129C242.155 128.129 242.379 128.353 242.379 128.629L242.379 188.129L241.379 188.129Z" fill="url(#paint40_linear_1729_4435)"/>
<path d="M245.395 259.879L245.395 193.554C245.395 193.287 245.611 193.07 245.878 193.07C246.146 193.07 246.362 193.287 246.362 193.554L246.362 259.879L245.395 259.879Z" fill="url(#paint41_linear_1729_4435)"/>
<path d="M243.379 243.129L243.379 192.629C243.379 192.353 243.155 192.129 242.879 192.129C242.603 192.129 242.379 192.353 242.379 192.629L242.379 243.129L243.379 243.129Z" fill="url(#paint42_linear_1729_4435)"/>
<path d="M248.379 243.129L248.379 192.629C248.379 192.353 248.603 192.129 248.879 192.129C249.155 192.129 249.379 192.353 249.379 192.629L249.379 243.129L248.379 243.129Z" fill="url(#paint43_linear_1729_4435)"/>
<g filter="url(#filter4_f_1729_4435)">
<path d="M245.438 260.129L245.438 193.402C245.438 193.133 245.655 192.915 245.924 192.915C246.193 192.915 246.411 193.133 246.411 193.402L246.411 260.129L245.438 260.129Z" fill="url(#paint44_radial_1729_4435)"/>
<path d="M243.379 243.129L243.379 192.629C243.379 192.353 243.155 192.129 242.879 192.129C242.603 192.129 242.379 192.353 242.379 192.629L242.379 243.129L243.379 243.129Z" fill="url(#paint45_radial_1729_4435)"/>
<path d="M248.379 242.637L248.379 192.665C248.379 192.37 248.618 192.13 248.913 192.13C249.209 192.13 249.448 192.37 249.448 192.665L249.448 242.637L248.379 242.637Z" fill="url(#paint46_radial_1729_4435)"/>
</g>
<circle cx="246.191" cy="185.629" r="6" fill="url(#paint47_linear_1729_4435)" stroke="#53FDA9"/>
<path d="M211.082 224.879L211.082 158.554C211.082 158.287 211.299 158.07 211.566 158.07C211.833 158.07 212.05 158.287 212.05 158.554L212.05 224.879L211.082 224.879Z" fill="url(#paint48_linear_1729_4435)"/>
<path d="M209.066 208.129L209.066 157.629C209.066 157.353 208.843 157.129 208.566 157.129C208.29 157.129 208.066 157.353 208.066 157.629L208.066 208.129L209.066 208.129Z" fill="url(#paint49_linear_1729_4435)"/>
<path d="M214.066 208.129L214.066 157.629C214.066 157.353 214.29 157.129 214.566 157.129C214.843 157.129 215.066 157.353 215.066 157.629L215.066 208.129L214.066 208.129Z" fill="url(#paint50_linear_1729_4435)"/>
<g filter="url(#filter5_f_1729_4435)">
<path d="M211.125 225.129L211.125 158.402C211.125 158.133 211.343 157.915 211.612 157.915C211.881 157.915 212.099 158.133 212.099 158.402L212.099 225.129L211.125 225.129Z" fill="url(#paint51_radial_1729_4435)"/>
<path d="M209.066 208.129L209.066 157.629C209.066 157.353 208.843 157.129 208.566 157.129C208.29 157.129 208.066 157.353 208.066 157.629L208.066 208.129L209.066 208.129Z" fill="url(#paint52_radial_1729_4435)"/>
<path d="M214.066 207.637L214.066 157.665C214.066 157.37 214.306 157.13 214.601 157.13C214.896 157.13 215.135 157.37 215.135 157.665L215.135 207.637L214.066 207.637Z" fill="url(#paint53_radial_1729_4435)"/>
</g>
<circle cx="211.879" cy="150.629" r="6" fill="url(#paint54_linear_1729_4435)" stroke="#53FDA9"/>
<path d="M294.082 239.879L294.082 173.554C294.082 173.287 294.299 173.07 294.566 173.07C294.833 173.07 295.05 173.287 295.05 173.554L295.05 239.879L294.082 239.879Z" fill="url(#paint55_linear_1729_4435)"/>
<path d="M292.066 223.129L292.066 172.629C292.066 172.353 291.843 172.129 291.566 172.129C291.29 172.129 291.066 172.353 291.066 172.629L291.066 223.129L292.066 223.129Z" fill="url(#paint56_linear_1729_4435)"/>
<path d="M297.066 223.129L297.066 172.629C297.066 172.353 297.29 172.129 297.566 172.129C297.843 172.129 298.066 172.353 298.066 172.629L298.066 223.129L297.066 223.129Z" fill="url(#paint57_linear_1729_4435)"/>
<g filter="url(#filter6_f_1729_4435)">
<path d="M294.125 240.129L294.125 173.402C294.125 173.133 294.343 172.915 294.612 172.915C294.881 172.915 295.099 173.133 295.099 173.402L295.099 240.129L294.125 240.129Z" fill="url(#paint58_radial_1729_4435)"/>
<path d="M292.066 223.129L292.066 172.629C292.066 172.353 291.843 172.129 291.566 172.129C291.29 172.129 291.066 172.353 291.066 172.629L291.066 223.129L292.066 223.129Z" fill="url(#paint59_radial_1729_4435)"/>
<path d="M297.066 222.637L297.066 172.665C297.066 172.37 297.306 172.13 297.601 172.13C297.896 172.13 298.135 172.37 298.135 172.665L298.135 222.637L297.066 222.637Z" fill="url(#paint60_radial_1729_4435)"/>
</g>
<circle cx="294.879" cy="165.629" r="6" fill="url(#paint61_linear_1729_4435)" stroke="#53FDA9"/>
<path opacity="0.2" d="M278.379 156.129H267.379L272.879 252.129L278.379 156.129Z" fill="url(#paint62_linear_1729_4435)"/>
<path d="M272.879 166.129L278.379 156.129H267.379L272.879 166.129Z" fill="url(#paint63_linear_1729_4435)"/>
<path opacity="0.2" d="M229.379 219.129H222.379L225.879 252.129L229.379 219.129Z" fill="url(#paint64_linear_1729_4435)"/>
<path d="M225.879 224.129L229.379 219.129H222.379L225.879 224.129Z" fill="url(#paint65_linear_1729_4435)"/>
<path d="M230.379 172.129L230.379 205.629C230.379 205.905 230.155 206.129 229.879 206.129C229.603 206.129 229.379 205.905 229.379 205.629L229.379 172.129L230.379 172.129Z" fill="url(#paint66_linear_1729_4435)"/>
<circle cx="192.379" cy="122.129" r="1" fill="#52F8A7"/>
<rect x="192.379" y="121.129" width="31" height="2" fill="url(#paint67_linear_1729_4435)"/>
<circle r="1" transform="matrix(-1 0 0 1 318.379 122.129)" fill="#52F8A7"/>
<rect width="31" height="2" transform="matrix(-1 0 0 1 318.379 121.129)" fill="url(#paint68_linear_1729_4435)"/>
<path d="M277.379 156.129L266.879 156.129C266.603 156.129 266.379 155.905 266.379 155.629C266.379 155.353 266.603 155.129 266.879 155.129L277.379 155.129L277.379 156.129Z" fill="url(#paint69_radial_1729_4435)"/>
<path d="M266.379 177.129L266.379 155.629C266.379 155.353 266.603 155.129 266.879 155.129C267.155 155.129 267.379 155.353 267.379 155.629L267.379 177.129L266.379 177.129Z" fill="url(#paint70_radial_1729_4435)"/>
<path d="M278.379 166.129L278.379 155.629C278.379 155.353 278.603 155.129 278.879 155.129C279.155 155.129 279.379 155.353 279.379 155.629L279.379 166.129L278.379 166.129Z" fill="url(#paint71_radial_1729_4435)"/>
<path d="M279.379 170.129L279.379 173.629C279.379 173.905 279.155 174.129 278.879 174.129C278.603 174.129 278.379 173.905 278.379 173.629L278.379 170.129L279.379 170.129Z" fill="url(#paint72_radial_1729_4435)"/>
<path d="M279.379 176.129L279.379 177.629C279.379 177.905 279.155 178.129 278.879 178.129C278.603 178.129 278.379 177.905 278.379 177.629L278.379 176.129L279.379 176.129Z" fill="url(#paint73_radial_1729_4435)"/>
<path d="M268.379 155.129L278.879 155.129C279.155 155.129 279.379 155.353 279.379 155.629C279.379 155.905 279.155 156.129 278.879 156.129H268.379L268.379 155.129Z" fill="url(#paint74_radial_1729_4435)"/>
<defs>
<filter id="filter0_f_1729_4435" x="-21.4219" y="0" width="549.469" height="361.406" filterUnits="userSpaceOnUse" color-interpolation-filters="sRGB">
<feFlood flood-opacity="0" result="BackgroundImageFix"/>
<feBlend mode="normal" in="SourceGraphic" in2="BackgroundImageFix" result="shape"/>
<feGaussianBlur stdDeviation="60" result="effect1_foregroundBlur_1729_4435"/>
</filter>
<filter id="filter1_d_1729_4435" x="130.879" y="115.805" width="247" height="85" filterUnits="userSpaceOnUse" color-interpolation-filters="sRGB">
<feFlood flood-opacity="0" result="BackgroundImageFix"/>
<feColorMatrix in="SourceAlpha" type="matrix" values="0 0 0 0 0 0 0 0 0 0 0 0 0 0 0 0 0 0 127 0" result="hardAlpha"/>
<feOffset/>
<feGaussianBlur stdDeviation="6.5"/>
<feComposite in2="hardAlpha" operator="out"/>
<feColorMatrix type="matrix" values="0 0 0 0 0 0 0 0 0 1 0 0 0 0 0.7 0 0 0 0.25 0"/>
<feBlend mode="normal" in2="BackgroundImageFix" result="effect1_dropShadow_1729_4435"/>
<feBlend mode="normal" in="SourceGraphic" in2="effect1_dropShadow_1729_4435" result="shape"/>
</filter>
<filter id="filter2_d_1729_4435" x="146.879" y="105.852" width="215.609" height="76.7227" filterUnits="userSpaceOnUse" color-interpolation-filters="sRGB">
<feFlood flood-opacity="0" result="BackgroundImageFix"/>
<feColorMatrix in="SourceAlpha" type="matrix" values="0 0 0 0 0 0 0 0 0 0 0 0 0 0 0 0 0 0 127 0" result="hardAlpha"/>
<feOffset/>
<feGaussianBlur stdDeviation="6.5"/>
<feComposite in2="hardAlpha" operator="out"/>
<feColorMatrix type="matrix" values="0 0 0 0 0 0 0 0 0 1 0 0 0 0 0.7 0 0 0 0.25 0"/>
<feBlend mode="normal" in2="BackgroundImageFix" result="effect1_dropShadow_1729_4435"/>
<feBlend mode="normal" in="SourceGraphic" in2="effect1_dropShadow_1729_4435" result="shape"/>
</filter>
<filter id="filter3_d_1729_4435" x="146.879" y="148.113" width="215.609" height="76.7227" filterUnits="userSpaceOnUse" color-interpolation-filters="sRGB">
<feFlood flood-opacity="0" result="BackgroundImageFix"/>
<feColorMatrix in="SourceAlpha" type="matrix" values="0 0 0 0 0 0 0 0 0 0 0 0 0 0 0 0 0 0 127 0" result="hardAlpha"/>
<feOffset/>
<feGaussianBlur stdDeviation="6.5"/>
<feComposite in2="hardAlpha" operator="out"/>
<feColorMatrix type="matrix" values="0 0 0 0 0 0 0 0 0 1 0 0 0 0 0.7 0 0 0 0.25 0"/>
<feBlend mode="normal" in2="BackgroundImageFix" result="effect1_dropShadow_1729_4435"/>
<feBlend mode="normal" in="SourceGraphic" in2="effect1_dropShadow_1729_4435" result="shape"/>
</filter>
<filter id="filter4_f_1729_4435" x="238.379" y="188.129" width="15.0703" height="76" filterUnits="userSpaceOnUse" color-interpolation-filters="sRGB">
<feFlood flood-opacity="0" result="BackgroundImageFix"/>
<feBlend mode="normal" in="SourceGraphic" in2="BackgroundImageFix" result="shape"/>
<feGaussianBlur stdDeviation="2" result="effect1_foregroundBlur_1729_4435"/>
</filter>
<filter id="filter5_f_1729_4435" x="204.066" y="153.129" width="15.0703" height="76" filterUnits="userSpaceOnUse" color-interpolation-filters="sRGB">
<feFlood flood-opacity="0" result="BackgroundImageFix"/>
<feBlend mode="normal" in="SourceGraphic" in2="BackgroundImageFix" result="shape"/>
<feGaussianBlur stdDeviation="2" result="effect1_foregroundBlur_1729_4435"/>
</filter>
<filter id="filter6_f_1729_4435" x="287.066" y="168.129" width="15.0703" height="76" filterUnits="userSpaceOnUse" color-interpolation-filters="sRGB">
<feFlood flood-opacity="0" result="BackgroundImageFix"/>
<feBlend mode="normal" in="SourceGraphic" in2="BackgroundImageFix" result="shape"/>
<feGaussianBlur stdDeviation="2" result="effect1_foregroundBlur_1729_4435"/>
</filter>
<linearGradient id="paint0_linear_1729_4435" x1="165.508" y1="24.213" x2="186.84" y2="98.3684" gradientUnits="userSpaceOnUse">
<stop stop-color="#5200FF"/>
<stop offset="1" stop-color="#101B45"/>
</linearGradient>
<linearGradient id="paint1_linear_1729_4435" x1="338.879" y1="297.629" x2="355.121" y2="156.551" gradientUnits="userSpaceOnUse">
<stop stop-color="#632BFF"/>
<stop offset="1" stop-color="#060606" stop-opacity="0"/>
</linearGradient>
<linearGradient id="paint2_linear_1729_4435" x1="254.379" y1="129.305" x2="254.379" y2="187.305" gradientUnits="userSpaceOnUse">
<stop offset="0.170133" stop-color="#53FDA9" stop-opacity="0"/>
<stop offset="0.878479" stop-color="#53FDA9"/>
</linearGradient>
<linearGradient id="paint3_linear_1729_4435" x1="254.683" y1="119.352" x2="254.683" y2="169.075" gradientUnits="userSpaceOnUse">
<stop offset="0.170133" stop-color="white" stop-opacity="0"/>
<stop offset="0.878479" stop-color="white"/>
</linearGradient>
<linearGradient id="paint4_linear_1729_4435" x1="254.683" y1="161.613" x2="254.683" y2="211.337" gradientUnits="userSpaceOnUse">
<stop offset="0.170133" stop-color="white" stop-opacity="0"/>
<stop offset="0.878479" stop-color="white"/>
</linearGradient>
<linearGradient id="paint5_linear_1729_4435" x1="255.882" y1="76.6289" x2="255.882" y2="137.629" gradientUnits="userSpaceOnUse">
<stop offset="0.505946" stop-color="#632BFF"/>
<stop offset="1" stop-color="#632BFF" stop-opacity="0"/>
</linearGradient>
<linearGradient id="paint6_linear_1729_4435" x1="255.379" y1="111.629" x2="255.379" y2="141.129" gradientUnits="userSpaceOnUse">
<stop offset="0.505946" stop-color="#150C31"/>
<stop offset="1" stop-color="#632BFF" stop-opacity="0"/>
</linearGradient>
<linearGradient id="paint7_linear_1729_4435" x1="255.379" y1="127.129" x2="255.379" y2="235.129" gradientUnits="userSpaceOnUse">
<stop stop-color="#53FDA9"/>
<stop offset="1" stop-color="#2B0C80" stop-opacity="0"/>
</linearGradient>
<linearGradient id="paint8_linear_1729_4435" x1="207.379" y1="128.129" x2="207.379" y2="238.129" gradientUnits="userSpaceOnUse">
<stop stop-color="#53FDA9"/>
<stop offset="1" stop-opacity="0"/>
</linearGradient>
<linearGradient id="paint9_linear_1729_4435" x1="240.379" y1="128.129" x2="240.379" y2="238.129" gradientUnits="userSpaceOnUse">
<stop stop-color="#53FDA9"/>
<stop offset="1" stop-opacity="0"/>
</linearGradient>
<linearGradient id="paint10_linear_1729_4435" x1="306.379" y1="128.129" x2="306.379" y2="220.129" gradientUnits="userSpaceOnUse">
<stop stop-color="#53FDA9"/>
<stop offset="1" stop-opacity="0"/>
</linearGradient>
<linearGradient id="paint11_linear_1729_4435" x1="296.379" y1="128.129" x2="296.379" y2="220.129" gradientUnits="userSpaceOnUse">
<stop stop-color="#53FDA9"/>
<stop offset="1" stop-opacity="0"/>
</linearGradient>
<linearGradient id="paint12_linear_1729_4435" x1="268.379" y1="128.129" x2="268.379" y2="238.129" gradientUnits="userSpaceOnUse">
<stop stop-color="#53FDA9"/>
<stop offset="1" stop-opacity="0"/>
</linearGradient>
<linearGradient id="paint13_linear_1729_4435" x1="287.379" y1="128.129" x2="287.379" y2="220.129" gradientUnits="userSpaceOnUse">
<stop stop-color="#53FDA9"/>
<stop offset="1" stop-opacity="0"/>
</linearGradient>
<linearGradient id="paint14_linear_1729_4435" x1="277.379" y1="128.129" x2="277.379" y2="220.129" gradientUnits="userSpaceOnUse">
<stop stop-color="#53FDA9"/>
<stop offset="1" stop-opacity="0"/>
</linearGradient>
<linearGradient id="paint15_linear_1729_4435" x1="249.379" y1="128.129" x2="249.379" y2="220.129" gradientUnits="userSpaceOnUse">
<stop stop-color="#53FDA9"/>
<stop offset="1" stop-opacity="0"/>
</linearGradient>
<linearGradient id="paint16_linear_1729_4435" x1="216.879" y1="128.129" x2="216.879" y2="253.129" gradientUnits="userSpaceOnUse">
<stop stop-color="#53FDA9"/>
<stop offset="1" stop-opacity="0"/>
</linearGradient>
<linearGradient id="paint17_linear_1729_4435" x1="253.766" y1="126.423" x2="232.097" y2="251.113" gradientUnits="userSpaceOnUse">
<stop stop-color="#53FDA9"/>
<stop offset="1" stop-color="#2F0B8F" stop-opacity="0"/>
</linearGradient>
<linearGradient id="paint18_linear_1729_4435" x1="255.766" y1="126.854" x2="243.501" y2="221.278" gradientUnits="userSpaceOnUse">
<stop stop-color="#53FDA9"/>
<stop offset="1" stop-color="#2F0B8F" stop-opacity="0"/>
</linearGradient>
<linearGradient id="paint19_linear_1729_4435" x1="245.766" y1="126.406" x2="223.67" y2="252.281" gradientUnits="userSpaceOnUse">
<stop stop-color="#53FDA9"/>
<stop offset="1" stop-color="#2F0B8F" stop-opacity="0"/>
</linearGradient>
<linearGradient id="paint20_linear_1729_4435" x1="199.766" y1="126.372" x2="176.805" y2="254.609" gradientUnits="userSpaceOnUse">
<stop stop-color="#53FDA9"/>
<stop offset="1" stop-color="#2F0B8F" stop-opacity="0"/>
</linearGradient>
<linearGradient id="paint21_linear_1729_4435" x1="320.766" y1="126.372" x2="297.805" y2="254.609" gradientUnits="userSpaceOnUse">
<stop stop-color="#53FDA9"/>
<stop offset="1" stop-color="#2F0B8F" stop-opacity="0"/>
</linearGradient>
<linearGradient id="paint22_linear_1729_4435" x1="318.766" y1="126.751" x2="304.471" y2="228.546" gradientUnits="userSpaceOnUse">
<stop stop-color="#53FDA9"/>
<stop offset="1" stop-color="#2F0B8F" stop-opacity="0"/>
</linearGradient>
<linearGradient id="paint23_linear_1729_4435" x1="196.766" y1="126.802" x2="183.504" y2="224.92" gradientUnits="userSpaceOnUse">
<stop stop-color="#53FDA9"/>
<stop offset="1" stop-color="#2F0B8F" stop-opacity="0"/>
</linearGradient>
<linearGradient id="paint24_linear_1729_4435" x1="290.766" y1="126.785" x2="277.164" y2="226.13" gradientUnits="userSpaceOnUse">
<stop stop-color="#53FDA9"/>
<stop offset="1" stop-color="#2F0B8F" stop-opacity="0"/>
</linearGradient>
<linearGradient id="paint25_linear_1729_4435" x1="287.766" y1="127.113" x2="279.922" y2="202.855" gradientUnits="userSpaceOnUse">
<stop stop-color="#53FDA9"/>
<stop offset="1" stop-color="#2F0B8F" stop-opacity="0"/>
</linearGradient>
<linearGradient id="paint26_linear_1729_4435" x1="194.766" y1="127.319" x2="189.769" y2="187.891" gradientUnits="userSpaceOnUse">
<stop stop-color="#53FDA9"/>
<stop offset="1" stop-color="#2F0B8F" stop-opacity="0"/>
</linearGradient>
<linearGradient id="paint27_linear_1729_4435" x1="191.766" y1="126.251" x2="165.661" y2="262.687" gradientUnits="userSpaceOnUse">
<stop stop-color="#53FDA9"/>
<stop offset="1" stop-color="#2F0B8F" stop-opacity="0"/>
</linearGradient>
<linearGradient id="paint28_linear_1729_4435" x1="187.991" y1="159.491" x2="188.995" y2="132.279" gradientUnits="userSpaceOnUse">
<stop stop-color="#53FDA9"/>
<stop offset="1" stop-color="#2F0B8F" stop-opacity="0"/>
</linearGradient>
<linearGradient id="paint29_linear_1729_4435" x1="322.991" y1="169.68" x2="325.316" y2="128.29" gradientUnits="userSpaceOnUse">
<stop stop-color="#53FDA9"/>
<stop offset="1" stop-color="#2F0B8F" stop-opacity="0"/>
</linearGradient>
<linearGradient id="paint30_linear_1729_4435" x1="323.991" y1="202.542" x2="325.301" y2="171.457" gradientUnits="userSpaceOnUse">
<stop stop-color="#53FDA9"/>
<stop offset="1" stop-color="#2F0B8F" stop-opacity="0"/>
</linearGradient>
<linearGradient id="paint31_linear_1729_4435" x1="185.991" y1="175.284" x2="186.176" y2="163.609" gradientUnits="userSpaceOnUse">
<stop stop-color="#53FDA9"/>
<stop offset="1" stop-color="#2F0B8F" stop-opacity="0"/>
</linearGradient>
<linearGradient id="paint32_linear_1729_4435" x1="322.991" y1="228.284" x2="323.176" y2="216.609" gradientUnits="userSpaceOnUse">
<stop stop-color="#53FDA9"/>
<stop offset="1" stop-color="#2F0B8F" stop-opacity="0"/>
</linearGradient>
<linearGradient id="paint33_linear_1729_4435" x1="187.991" y1="192.198" x2="188.028" y2="187.008" gradientUnits="userSpaceOnUse">
<stop stop-color="#53FDA9"/>
<stop offset="1" stop-color="#2F0B8F" stop-opacity="0"/>
</linearGradient>
<linearGradient id="paint34_linear_1729_4435" x1="322.991" y1="173.163" x2="323.001" y2="170.568" gradientUnits="userSpaceOnUse">
<stop stop-color="#53FDA9"/>
<stop offset="1" stop-color="#2F0B8F" stop-opacity="0"/>
</linearGradient>
<linearGradient id="paint35_linear_1729_4435" x1="187.991" y1="196.163" x2="188.001" y2="193.568" gradientUnits="userSpaceOnUse">
<stop stop-color="#53FDA9"/>
<stop offset="1" stop-color="#2F0B8F" stop-opacity="0"/>
</linearGradient>
<linearGradient id="paint36_linear_1729_4435" x1="188.991" y1="236.715" x2="191.615" y2="192.755" gradientUnits="userSpaceOnUse">
<stop stop-color="#53FDA9"/>
<stop offset="1" stop-color="#2F0B8F" stop-opacity="0"/>
</linearGradient>
<linearGradient id="paint37_linear_1729_4435" x1="278.991" y1="245.577" x2="280.528" y2="211.911" gradientUnits="userSpaceOnUse">
<stop stop-color="#53FDA9"/>
<stop offset="1" stop-color="#2F0B8F" stop-opacity="0"/>
</linearGradient>
<linearGradient id="paint38_linear_1729_4435" x1="305.991" y1="221.456" x2="306.813" y2="196.83" gradientUnits="userSpaceOnUse">
<stop stop-color="#53FDA9"/>
<stop offset="1" stop-color="#2F0B8F" stop-opacity="0"/>
</linearGradient>
<linearGradient id="paint39_linear_1729_4435" x1="323.991" y1="235.232" x2="324.073" y2="227.448" gradientUnits="userSpaceOnUse">
<stop stop-color="#53FDA9"/>
<stop offset="1" stop-color="#2F0B8F" stop-opacity="0"/>
</linearGradient>
<linearGradient id="paint40_linear_1729_4435" x1="241.766" y1="127.095" x2="233.657" y2="204.093" gradientUnits="userSpaceOnUse">
<stop stop-color="#53FDA9"/>
<stop offset="1" stop-color="#2F0B8F" stop-opacity="0"/>
</linearGradient>
<linearGradient id="paint41_linear_1729_4435" x1="245.769" y1="191.919" x2="235.416" y2="277.351" gradientUnits="userSpaceOnUse">
<stop stop-color="#53FDA9"/>
<stop offset="1" stop-color="#2F0B8F" stop-opacity="0"/>
</linearGradient>
<linearGradient id="paint42_linear_1729_4435" x1="242.991" y1="191.25" x2="248.869" y2="256.898" gradientUnits="userSpaceOnUse">
<stop stop-color="#53FDA9"/>
<stop offset="1" stop-color="#2F0B8F" stop-opacity="0"/>
</linearGradient>
<linearGradient id="paint43_linear_1729_4435" x1="248.766" y1="191.25" x2="242.889" y2="256.898" gradientUnits="userSpaceOnUse">
<stop stop-color="#53FDA9"/>
<stop offset="1" stop-color="#2F0B8F" stop-opacity="0"/>
</linearGradient>
<radialGradient id="paint44_radial_1729_4435" cx="0" cy="0" r="1" gradientUnits="userSpaceOnUse" gradientTransform="translate(245.814 192.23) rotate(90) scale(57.6755 30110)">
<stop stop-color="#53FDA9"/>
<stop offset="1" stop-color="#00FF81" stop-opacity="0"/>
</radialGradient>
<radialGradient id="paint45_radial_1729_4435" cx="0" cy="0" r="1" gradientUnits="userSpaceOnUse" gradientTransform="translate(242.992 191.609) rotate(90) scale(43.7627 30927.3)">
<stop stop-color="#53FDA9"/>
<stop offset="1" stop-color="#00FF81" stop-opacity="0"/>
</radialGradient>
<radialGradient id="paint46_radial_1729_4435" cx="0" cy="0" r="1" gradientUnits="userSpaceOnUse" gradientTransform="translate(248.793 191.615) rotate(90) scale(43.3392 33061.5)">
<stop stop-color="#53FDA9"/>
<stop offset="1" stop-color="#00FF81" stop-opacity="0"/>
</radialGradient>
<linearGradient id="paint47_linear_1729_4435" x1="243.191" y1="182.129" x2="243.191" y2="191.629" gradientUnits="userSpaceOnUse">
<stop stop-color="#53FDA9"/>
<stop offset="1" stop-color="#D9D9D9" stop-opacity="0"/>
</linearGradient>
<linearGradient id="paint48_linear_1729_4435" x1="211.457" y1="156.919" x2="201.104" y2="242.351" gradientUnits="userSpaceOnUse">
<stop stop-color="#53FDA9"/>
<stop offset="1" stop-color="#2F0B8F" stop-opacity="0"/>
</linearGradient>
<linearGradient id="paint49_linear_1729_4435" x1="208.679" y1="156.25" x2="214.556" y2="221.898" gradientUnits="userSpaceOnUse">
<stop stop-color="#53FDA9"/>
<stop offset="1" stop-color="#2F0B8F" stop-opacity="0"/>
</linearGradient>
<linearGradient id="paint50_linear_1729_4435" x1="214.454" y1="156.25" x2="208.577" y2="221.898" gradientUnits="userSpaceOnUse">
<stop stop-color="#53FDA9"/>
<stop offset="1" stop-color="#2F0B8F" stop-opacity="0"/>
</linearGradient>
<radialGradient id="paint51_radial_1729_4435" cx="0" cy="0" r="1" gradientUnits="userSpaceOnUse" gradientTransform="translate(211.502 157.23) rotate(90) scale(57.6755 30110)">
<stop stop-color="#53FDA9"/>
<stop offset="1" stop-color="#00FF81" stop-opacity="0"/>
</radialGradient>
<radialGradient id="paint52_radial_1729_4435" cx="0" cy="0" r="1" gradientUnits="userSpaceOnUse" gradientTransform="translate(208.679 156.609) rotate(90) scale(43.7627 30927.3)">
<stop stop-color="#53FDA9"/>
<stop offset="1" stop-color="#00FF81" stop-opacity="0"/>
</radialGradient>
<radialGradient id="paint53_radial_1729_4435" cx="0" cy="0" r="1" gradientUnits="userSpaceOnUse" gradientTransform="translate(214.48 156.615) rotate(90) scale(43.3392 33061.5)">
<stop stop-color="#53FDA9"/>
<stop offset="1" stop-color="#00FF81" stop-opacity="0"/>
</radialGradient>
<linearGradient id="paint54_linear_1729_4435" x1="208.879" y1="147.129" x2="208.879" y2="156.629" gradientUnits="userSpaceOnUse">
<stop stop-color="#53FDA9"/>
<stop offset="1" stop-color="#D9D9D9" stop-opacity="0"/>
</linearGradient>
<linearGradient id="paint55_linear_1729_4435" x1="294.457" y1="171.919" x2="284.104" y2="257.351" gradientUnits="userSpaceOnUse">
<stop stop-color="#53FDA9"/>
<stop offset="1" stop-color="#2F0B8F" stop-opacity="0"/>
</linearGradient>
<linearGradient id="paint56_linear_1729_4435" x1="291.679" y1="171.25" x2="297.556" y2="236.898" gradientUnits="userSpaceOnUse">
<stop stop-color="#53FDA9"/>
<stop offset="1" stop-color="#2F0B8F" stop-opacity="0"/>
</linearGradient>
<linearGradient id="paint57_linear_1729_4435" x1="297.454" y1="171.25" x2="291.577" y2="236.898" gradientUnits="userSpaceOnUse">
<stop stop-color="#53FDA9"/>
<stop offset="1" stop-color="#2F0B8F" stop-opacity="0"/>
</linearGradient>
<radialGradient id="paint58_radial_1729_4435" cx="0" cy="0" r="1" gradientUnits="userSpaceOnUse" gradientTransform="translate(294.502 172.23) rotate(90) scale(57.6755 30110)">
<stop stop-color="#53FDA9"/>
<stop offset="1" stop-color="#00FF81" stop-opacity="0"/>
</radialGradient>
<radialGradient id="paint59_radial_1729_4435" cx="0" cy="0" r="1" gradientUnits="userSpaceOnUse" gradientTransform="translate(291.679 171.609) rotate(90) scale(43.7627 30927.3)">
<stop stop-color="#53FDA9"/>
<stop offset="1" stop-color="#00FF81" stop-opacity="0"/>
</radialGradient>
<radialGradient id="paint60_radial_1729_4435" cx="0" cy="0" r="1" gradientUnits="userSpaceOnUse" gradientTransform="translate(297.48 171.615) rotate(90) scale(43.3392 33061.5)">
<stop stop-color="#53FDA9"/>
<stop offset="1" stop-color="#00FF81" stop-opacity="0"/>
</radialGradient>
<linearGradient id="paint61_linear_1729_4435" x1="291.879" y1="162.129" x2="291.879" y2="171.629" gradientUnits="userSpaceOnUse">
<stop stop-color="#53FDA9"/>
<stop offset="1" stop-color="#D9D9D9" stop-opacity="0"/>
</linearGradient>
<linearGradient id="paint62_linear_1729_4435" x1="270.379" y1="157.129" x2="270.379" y2="267.129" gradientUnits="userSpaceOnUse">
<stop stop-color="#0A2719"/>
<stop offset="1" stop-opacity="0"/>
</linearGradient>
<linearGradient id="paint63_linear_1729_4435" x1="269.879" y1="163.129" x2="269.379" y2="137.129" gradientUnits="userSpaceOnUse">
<stop stop-color="#324D80"/>
<stop offset="1" stop-color="#53FDA9"/>
</linearGradient>
<linearGradient id="paint64_linear_1729_4435" x1="224.288" y1="219.473" x2="224.288" y2="257.285" gradientUnits="userSpaceOnUse">
<stop stop-color="#0A1127"/>
<stop offset="1" stop-opacity="0"/>
</linearGradient>
<linearGradient id="paint65_linear_1729_4435" x1="225.879" y1="224.129" x2="225.893" y2="219.129" gradientUnits="userSpaceOnUse">
<stop stop-color="#290E7C"/>
<stop offset="1" stop-opacity="0"/>
</linearGradient>
<linearGradient id="paint66_linear_1729_4435" x1="229.991" y1="206.715" x2="232.615" y2="162.755" gradientUnits="userSpaceOnUse">
<stop stop-color="#53FDA9"/>
<stop offset="1" stop-color="#2F0B8F" stop-opacity="0"/>
</linearGradient>
<linearGradient id="paint67_linear_1729_4435" x1="193.348" y1="121.904" x2="225.293" y2="122.773" gradientUnits="userSpaceOnUse">
<stop stop-color="#53FDA9"/>
<stop offset="1" stop-color="#2F0B8F" stop-opacity="0"/>
</linearGradient>
<linearGradient id="paint68_linear_1729_4435" x1="0.968737" y1="0.775382" x2="32.9138" y2="1.64456" gradientUnits="userSpaceOnUse">
<stop stop-color="#53FDA9"/>
<stop offset="1" stop-color="#2F0B8F" stop-opacity="0"/>
</linearGradient>
<radialGradient id="paint69_radial_1729_4435" cx="0" cy="0" r="1" gradientUnits="userSpaceOnUse" gradientTransform="translate(266.267 155.742) scale(9.43902 30926.9)">
<stop stop-color="#53FDA9"/>
<stop offset="1" stop-color="#00FF81" stop-opacity="0"/>
</radialGradient>
<radialGradient id="paint70_radial_1729_4435" cx="0" cy="0" r="1" gradientUnits="userSpaceOnUse" gradientTransform="translate(266.766 154.905) rotate(90) scale(18.878 30927)">
<stop stop-color="#53FDA9"/>
<stop offset="1" stop-color="#00FF81" stop-opacity="0"/>
</radialGradient>
<radialGradient id="paint71_radial_1729_4435" cx="0" cy="0" r="1" gradientUnits="userSpaceOnUse" gradientTransform="translate(278.766 155.017) rotate(90) scale(9.43902 30926.9)">
<stop stop-color="#53FDA9"/>
<stop offset="1" stop-color="#00FF81" stop-opacity="0"/>
</radialGradient>
<radialGradient id="paint72_radial_1729_4435" cx="0" cy="0" r="1" gradientUnits="userSpaceOnUse" gradientTransform="translate(278.992 174.17) rotate(-90) scale(3.43237 30927)">
<stop stop-color="#53FDA9"/>
<stop offset="1" stop-color="#00FF81" stop-opacity="0"/>
</radialGradient>
<radialGradient id="paint73_radial_1729_4435" cx="0" cy="0" r="1" gradientUnits="userSpaceOnUse" gradientTransform="translate(278.992 178.149) rotate(-90) scale(1.71618 30927)">
<stop stop-color="#53FDA9"/>
<stop offset="1" stop-color="#00FF81" stop-opacity="0"/>
</radialGradient>
<radialGradient id="paint74_radial_1729_4435" cx="0" cy="0" r="1" gradientUnits="userSpaceOnUse" gradientTransform="translate(279.491 155.516) rotate(180) scale(9.43902 30926.9)">
<stop stop-color="#53FDA9"/>
<stop offset="1" stop-color="#00FF81" stop-opacity="0"/>
</radialGradient>
</defs>
</svg>
