<svg width="460" height="264" viewBox="0 0 460 264" fill="none" xmlns="http://www.w3.org/2000/svg">
<path d="M268 136V136C268.06 138.184 269.816 139.94 272 140V140V140C269.816 140.06 268.06 141.816 268 144V144V144C267.94 141.816 266.184 140.06 264 140V140V140C266.184 139.94 267.94 138.184 268 136V136Z" fill="white"/>
<path d="M296 24V24C296.06 26.1837 297.816 27.9397 300 28V28V28C297.816 28.0603 296.06 29.8163 296 32V32V32C295.94 29.8163 294.184 28.0603 292 28V28V28C294.184 27.9397 295.94 26.1837 296 24V24Z" fill="#53FDA9"/>
<path d="M144 65V65C144.06 67.1837 145.816 68.9397 148 69V69V69C145.816 69.0603 144.06 70.8163 144 73V73V73C143.94 70.8163 142.184 69.0603 140 69V69V69C142.184 68.9397 143.94 67.1837 144 65V65Z" fill="white"/>
<path d="M189.25 103.5C189.25 97.4219 193.798 91.8634 201.274 87.8099C208.741 83.7616 219.073 81.25 230.5 81.25C241.927 81.25 252.259 83.7616 259.726 87.8099C267.202 91.8635 271.75 97.422 271.75 103.5C271.75 109.578 267.202 115.137 259.726 119.19C252.259 123.238 241.927 125.75 230.5 125.75C219.073 125.75 208.741 123.238 201.274 119.19C193.798 115.137 189.25 109.578 189.25 103.5Z" stroke="#53FDA9" stroke-width="0.5"/>
<g filter="url(#filter0_d_4612_2336)">
<ellipse cx="230" cy="104" rx="23" ry="13" transform="rotate(-180 230 104)" stroke="url(#paint0_linear_4612_2336)" stroke-width="0.5" stroke-linecap="round" stroke-linejoin="round" stroke-dasharray="2 2" shape-rendering="crispEdges"/>
</g>
<path d="M214.135 106.2C213.659 105.656 213.322 105.081 213.145 104.484L213.385 104.413C213.296 104.113 213.25 103.809 213.25 103.5C213.25 103.191 213.296 102.887 213.385 102.587L213.145 102.516C213.322 101.919 213.659 101.344 214.135 100.8L214.323 100.964C214.711 100.521 215.199 100.095 215.777 99.6929L215.635 99.4877C216.147 99.1317 216.725 98.796 217.361 98.484L217.471 98.7085C218.031 98.4342 218.638 98.1779 219.287 97.9422L219.201 97.7072C219.803 97.4888 220.439 97.2882 221.105 97.1073L221.171 97.3486C221.787 97.1812 222.431 97.0308 223.097 96.8988L223.049 96.6536C223.686 96.5275 224.344 96.4181 225.02 96.3269L225.054 96.5746C225.695 96.4881 226.353 96.4179 227.025 96.3652L227.005 96.116C227.658 96.0648 228.324 96.03 229.001 96.0127L229.007 96.2627C229.336 96.2543 229.667 96.25 230 96.25C230.333 96.25 230.664 96.2543 230.993 96.2627L230.999 96.0127C231.676 96.03 232.342 96.0648 232.995 96.116L232.975 96.3652C233.647 96.4179 234.305 96.4881 234.946 96.5746L234.98 96.3269C235.656 96.4181 236.314 96.5275 236.951 96.6536L236.903 96.8988C237.569 97.0308 238.213 97.1812 238.829 97.3486L238.895 97.1073C239.561 97.2882 240.197 97.4888 240.799 97.7072L240.713 97.9422C241.362 98.1779 241.969 98.4342 242.529 98.7085L242.639 98.484C243.275 98.796 243.853 99.1317 244.365 99.4877L244.223 99.6929C244.801 100.095 245.289 100.521 245.677 100.964L245.865 100.8C246.341 101.344 246.678 101.919 246.855 102.516L246.615 102.587C246.704 102.887 246.75 103.191 246.75 103.5C246.75 103.809 246.704 104.113 246.615 104.413L246.855 104.484C246.678 105.081 246.341 105.656 245.865 106.2L245.677 106.036C245.289 106.479 244.801 106.905 244.223 107.307L244.365 107.512C243.853 107.868 243.275 108.204 242.639 108.516L242.529 108.292C241.969 108.566 241.362 108.822 240.713 109.058L240.799 109.293C240.197 109.511 239.561 109.712 238.895 109.893L238.829 109.651C238.213 109.819 237.569 109.969 236.903 110.101L236.951 110.346C236.314 110.473 235.656 110.582 234.98 110.673L234.946 110.425C234.305 110.512 233.647 110.582 232.975 110.635L232.995 110.884C232.342 110.935 231.676 110.97 230.999 110.987L230.993 110.737C230.664 110.746 230.333 110.75 230 110.75C229.667 110.75 229.336 110.746 229.007 110.737L229.001 110.987C228.324 110.97 227.658 110.935 227.005 110.884L227.025 110.635C226.353 110.582 225.695 110.512 225.054 110.425L225.02 110.673C224.344 110.582 223.686 110.473 223.049 110.346L223.097 110.101C222.431 109.969 221.787 109.819 221.171 109.651L221.105 109.893C220.439 109.712 219.803 109.511 219.201 109.293L219.287 109.058C218.638 108.822 218.031 108.566 217.471 108.292L217.361 108.516C216.725 108.204 216.147 107.868 215.635 107.512L215.777 107.307C215.199 106.905 214.711 106.479 214.323 106.036L214.135 106.2Z" stroke="#53FDA9" stroke-width="0.5" stroke-dasharray="2 2"/>
<path d="M173.25 104C173.25 95.5743 179.533 87.8909 189.814 82.2993C200.086 76.713 214.293 73.25 230 73.25C245.707 73.25 259.914 76.713 270.186 82.2993C280.467 87.8909 286.75 95.5743 286.75 104C286.75 112.426 280.467 120.109 270.186 125.701C259.914 131.287 245.707 134.75 230 134.75C214.293 134.75 200.086 131.287 189.814 125.701C179.533 120.109 173.25 112.426 173.25 104Z" stroke="white" stroke-opacity="0.2" stroke-width="0.5"/>
<path d="M154.25 103.5C154.25 92.1743 162.66 81.866 176.38 74.3745C190.09 66.8881 209.047 62.25 230 62.25C250.953 62.25 269.91 66.8881 283.62 74.3745C297.34 81.866 305.75 92.1743 305.75 103.5C305.75 114.826 297.34 125.134 283.62 132.626C269.91 140.112 250.953 144.75 230 144.75C209.047 144.75 190.09 140.112 176.38 132.626C162.66 125.134 154.25 114.826 154.25 103.5Z" stroke="white" stroke-opacity="0.1" stroke-width="0.5"/>
<path d="M132.25 103.5C132.25 88.8606 143.123 75.5523 160.823 65.8892C178.514 56.2313 202.972 50.25 230 50.25C257.028 50.25 281.486 56.2313 299.177 65.8892C316.877 75.5523 327.75 88.8607 327.75 103.5C327.75 118.139 316.877 131.448 299.177 141.111C281.486 150.769 257.028 156.75 230 156.75C202.972 156.75 178.514 150.769 160.823 141.111C143.123 131.448 132.25 118.139 132.25 103.5Z" stroke="white" stroke-opacity="0.05" stroke-width="0.5"/>
<path d="M229 240L229 108C229 107.448 229.448 107 230 107V107C230.552 107 231 107.448 231 108L231 240L229 240Z" fill="url(#paint1_linear_4612_2336)"/>
<path d="M227 208L227 107C227 106.448 226.552 106 226 106V106C225.448 106 225 106.448 225 107L225 208L227 208Z" fill="url(#paint2_linear_4612_2336)"/>
<path d="M223 177L223 104C223 103.448 222.552 103 222 103V103C221.448 103 221 103.448 221 104L221 177L223 177Z" fill="url(#paint3_linear_4612_2336)"/>
<path d="M233 208L233 107C233 106.448 233.448 106 234 106V106C234.552 106 235 106.448 235 107L235 208L233 208Z" fill="url(#paint4_linear_4612_2336)"/>
<path d="M237 177L237 104C237 103.448 237.448 103 238 103V103C238.552 103 239 103.448 239 104L239 177L237 177Z" fill="url(#paint5_linear_4612_2336)"/>
<g filter="url(#filter1_d_4612_2336)">
<ellipse cx="230" cy="103.5" rx="20" ry="10.5" transform="rotate(-180 230 103.5)" fill="#53FDA9" fill-opacity="0.75" shape-rendering="crispEdges"/>
</g>
<path d="M115.529 168.14C122.51 173.094 132.186 171.451 137.14 164.47C142.095 157.489 140.452 147.814 133.471 142.859C126.49 137.905 116.814 139.548 111.86 146.529C106.905 153.51 108.548 163.186 115.529 168.14Z" fill="url(#paint6_linear_4612_2336)"/>
<path d="M317.581 165.722C320.992 162.849 321.428 157.754 318.555 154.343C315.682 150.932 310.587 150.496 307.176 153.37C303.765 156.243 303.329 161.337 306.203 164.748C309.076 168.159 314.17 168.595 317.581 165.722Z" fill="url(#paint7_linear_4612_2336)"/>
<path d="M259.222 28.7715C256.776 27.654 253.888 28.7306 252.77 31.176C251.653 33.6214 252.73 36.5097 255.175 37.6271C257.62 38.7445 260.509 37.668 261.626 35.2226C262.743 32.7771 261.667 29.8889 259.222 28.7715Z" fill="url(#paint8_radial_4612_2336)"/>
<path d="M328.244 81.9846L269.07 95.6573C268.957 95.6834 268.846 95.6093 268.826 95.4954V95.4954C268.808 95.3901 268.875 95.2889 268.98 95.2649L328.175 81.5871L328.244 81.9846Z" fill="url(#paint9_linear_4612_2336)"/>
<path d="M131.28 86.3095L189.93 98.5529C190.043 98.5765 190.113 98.6904 190.083 98.8022V98.8022C190.056 98.9054 189.952 98.969 189.848 98.9472L131.175 86.6992L131.28 86.3095Z" fill="url(#paint10_linear_4612_2336)"/>
<path d="M178.107 157.564L209.263 122.675C209.347 122.582 209.495 122.588 209.57 122.689V122.689C209.625 122.764 209.62 122.868 209.558 122.938L178.347 157.889L178.107 157.564Z" fill="url(#paint11_linear_4612_2336)"/>
<path d="M156.5 116.93L190.333 109.214C190.405 109.197 190.48 109.225 190.523 109.284V109.284C190.602 109.391 190.545 109.545 190.416 109.574L156.74 117.254L156.5 116.93Z" fill="url(#paint12_linear_4612_2336)"/>
<path d="M265.195 54.4727L241.216 82.0662C241.152 82.1397 241.044 82.1562 240.961 82.1051V82.1051C240.857 82.0407 240.835 81.8978 240.915 81.8051L264.851 54.2611L265.195 54.4727Z" fill="url(#paint13_linear_4612_2336)"/>
<g filter="url(#filter2_d_4612_2336)">
<circle cx="229.794" cy="96.0117" r="8" transform="rotate(-180 229.794 96.0117)" fill="white"/>
</g>
<circle r="1.5" transform="matrix(-0.980954 0.194241 0.194241 0.980954 308.932 72.0655)" fill="white"/>
<circle r="1.5" transform="matrix(-0.980954 0.194241 0.194241 0.980954 304.231 68.919)" fill="white"/>
<circle r="1.06125" transform="matrix(-0.980954 0.194241 0.194241 0.980954 175.547 132.343)" fill="white"/>
<circle r="0.927823" transform="matrix(-0.980954 0.194241 0.194241 0.980954 188.566 82.9576)" fill="#53FDA9"/>
<circle r="0.927823" transform="matrix(-0.980954 0.194241 0.194241 0.980954 191.185 81.4712)" fill="#53FDA9"/>
<defs>
<filter id="filter0_d_4612_2336" x="193.75" y="77.75" width="72.5" height="52.5" filterUnits="userSpaceOnUse" color-interpolation-filters="sRGB">
<feFlood flood-opacity="0" result="BackgroundImageFix"/>
<feColorMatrix in="SourceAlpha" type="matrix" values="0 0 0 0 0 0 0 0 0 0 0 0 0 0 0 0 0 0 127 0" result="hardAlpha"/>
<feOffset/>
<feGaussianBlur stdDeviation="6.5"/>
<feComposite in2="hardAlpha" operator="out"/>
<feColorMatrix type="matrix" values="0 0 0 0 0 0 0 0 0 1 0 0 0 0 0.7 0 0 0 0.25 0"/>
<feBlend mode="normal" in2="BackgroundImageFix" result="effect1_dropShadow_4612_2336"/>
<feBlend mode="normal" in="SourceGraphic" in2="effect1_dropShadow_4612_2336" result="shape"/>
</filter>
<filter id="filter1_d_4612_2336" x="200" y="83" width="60" height="41" filterUnits="userSpaceOnUse" color-interpolation-filters="sRGB">
<feFlood flood-opacity="0" result="BackgroundImageFix"/>
<feColorMatrix in="SourceAlpha" type="matrix" values="0 0 0 0 0 0 0 0 0 0 0 0 0 0 0 0 0 0 127 0" result="hardAlpha"/>
<feOffset/>
<feGaussianBlur stdDeviation="5"/>
<feComposite in2="hardAlpha" operator="out"/>
<feColorMatrix type="matrix" values="0 0 0 0 0.32549 0 0 0 0 0.992157 0 0 0 0 0.662745 0 0 0 1 0"/>
<feBlend mode="normal" in2="BackgroundImageFix" result="effect1_dropShadow_4612_2336"/>
<feBlend mode="normal" in="SourceGraphic" in2="effect1_dropShadow_4612_2336" result="shape"/>
</filter>
<filter id="filter2_d_4612_2336" x="218.794" y="85.0117" width="22" height="22" filterUnits="userSpaceOnUse" color-interpolation-filters="sRGB">
<feFlood flood-opacity="0" result="BackgroundImageFix"/>
<feColorMatrix in="SourceAlpha" type="matrix" values="0 0 0 0 0 0 0 0 0 0 0 0 0 0 0 0 0 0 127 0" result="hardAlpha"/>
<feOffset/>
<feGaussianBlur stdDeviation="1.5"/>
<feComposite in2="hardAlpha" operator="out"/>
<feColorMatrix type="matrix" values="0 0 0 0 1 0 0 0 0 1 0 0 0 0 1 0 0 0 1 0"/>
<feBlend mode="normal" in2="BackgroundImageFix" result="effect1_dropShadow_4612_2336"/>
<feBlend mode="normal" in="SourceGraphic" in2="effect1_dropShadow_4612_2336" result="shape"/>
</filter>
<linearGradient id="paint0_linear_4612_2336" x1="230" y1="91" x2="230" y2="117" gradientUnits="userSpaceOnUse">
<stop offset="0.170133" stop-color="white" stop-opacity="0"/>
<stop offset="0.878479" stop-color="white"/>
</linearGradient>
<linearGradient id="paint1_linear_4612_2336" x1="229.999" y1="78.5125" x2="230.148" y2="224.743" gradientUnits="userSpaceOnUse">
<stop stop-color="white"/>
<stop offset="1" stop-color="white" stop-opacity="0"/>
</linearGradient>
<linearGradient id="paint2_linear_4612_2336" x1="226.001" y1="84.1524" x2="225.913" y2="196.299" gradientUnits="userSpaceOnUse">
<stop stop-color="white"/>
<stop offset="1" stop-color="white" stop-opacity="0"/>
</linearGradient>
<linearGradient id="paint3_linear_4612_2336" x1="222.001" y1="87.1498" x2="221.955" y2="168.511" gradientUnits="userSpaceOnUse">
<stop stop-color="white"/>
<stop offset="1" stop-color="white" stop-opacity="0"/>
</linearGradient>
<linearGradient id="paint4_linear_4612_2336" x1="233.999" y1="84.1524" x2="234.086" y2="196.299" gradientUnits="userSpaceOnUse">
<stop stop-color="white"/>
<stop offset="1" stop-color="white" stop-opacity="0"/>
</linearGradient>
<linearGradient id="paint5_linear_4612_2336" x1="237.999" y1="87.1498" x2="238.045" y2="168.511" gradientUnits="userSpaceOnUse">
<stop stop-color="white"/>
<stop offset="1" stop-color="white" stop-opacity="0"/>
</linearGradient>
<linearGradient id="paint6_linear_4612_2336" x1="133.471" y1="142.859" x2="115.529" y2="168.14" gradientUnits="userSpaceOnUse">
<stop stop-color="#321289"/>
<stop offset="1"/>
</linearGradient>
<linearGradient id="paint7_linear_4612_2336" x1="307.176" y1="153.37" x2="317.581" y2="165.722" gradientUnits="userSpaceOnUse">
<stop stop-color="#632BFF"/>
<stop offset="1"/>
</linearGradient>
<radialGradient id="paint8_radial_4612_2336" cx="0" cy="0" r="1" gradientUnits="userSpaceOnUse" gradientTransform="translate(256.5 34.5) rotate(-57.5288) scale(6.5192)">
<stop stop-color="#5C28ED"/>
<stop offset="1"/>
</radialGradient>
<linearGradient id="paint9_linear_4612_2336" x1="268.809" y1="95.7048" x2="328.811" y2="81.5276" gradientUnits="userSpaceOnUse">
<stop stop-color="#53FDA9"/>
<stop offset="1" stop-color="#53FDA9" stop-opacity="0"/>
</linearGradient>
<linearGradient id="paint10_linear_4612_2336" x1="189.675" y1="98.6991" x2="133.163" y2="86.7559" gradientUnits="userSpaceOnUse">
<stop stop-color="#53FDA9"/>
<stop offset="1" stop-color="#53FDA9" stop-opacity="0"/>
</linearGradient>
<linearGradient id="paint11_linear_4612_2336" x1="209.893" y1="123.146" x2="179.164" y2="161.904" gradientUnits="userSpaceOnUse">
<stop stop-color="#53FDA9"/>
<stop offset="1" stop-color="#53FDA9" stop-opacity="0"/>
</linearGradient>
<linearGradient id="paint12_linear_4612_2336" x1="190.244" y1="109.615" x2="156.509" y2="117.748" gradientUnits="userSpaceOnUse">
<stop stop-color="#53FDA9"/>
<stop offset="1" stop-color="#53FDA9" stop-opacity="0"/>
</linearGradient>
<linearGradient id="paint13_linear_4612_2336" x1="241.137" y1="81.7187" x2="258.833" y2="52.9078" gradientUnits="userSpaceOnUse">
<stop stop-color="#53FDA9"/>
<stop offset="1" stop-color="#53FDA9" stop-opacity="0"/>
</linearGradient>
</defs>
</svg>
