<svg width="551" height="363" viewBox="0 0 551 363" fill="none" xmlns="http://www.w3.org/2000/svg">
<g filter="url(#filter0_f_1729_5183)">
<ellipse rx="153.526" ry="63.6558" transform="matrix(-1 -8.74228e-08 -0.301031 -0.953614 275.444 181.496)" fill="url(#paint0_linear_1729_5183)"/>
</g>
<g filter="url(#filter1_d_1729_5183)">
<rect width="131.024" height="83.907" rx="3" transform="matrix(1 8.76912e-09 -1.59636e-07 -1 137.445 245.262)" fill="url(#paint1_linear_1729_5183)" fill-opacity="0.1" shape-rendering="crispEdges"/>
<rect width="131.024" height="83.907" rx="3" transform="matrix(1 8.76912e-09 -1.59636e-07 -1 137.445 245.262)" stroke="url(#paint2_linear_1729_5183)" stroke-width="0.25" stroke-linecap="round" stroke-linejoin="round" shape-rendering="crispEdges"/>
</g>
<g filter="url(#filter2_d_1729_5183)">
<rect width="131.024" height="83.907" rx="3" transform="matrix(1 8.76912e-09 -1.59636e-07 -1 283.789 245.262)" fill="url(#paint3_linear_1729_5183)" fill-opacity="0.1" shape-rendering="crispEdges"/>
<rect width="131.024" height="83.907" rx="3" transform="matrix(1 8.76912e-09 -1.59636e-07 -1 283.789 245.262)" stroke="url(#paint4_linear_1729_5183)" stroke-width="0.25" stroke-linecap="round" stroke-linejoin="round" shape-rendering="crispEdges"/>
</g>
<rect x="155.375" y="178.551" width="55.9728" height="3.51077" fill="url(#paint5_linear_1729_5183)"/>
<rect x="155.375" y="185.574" width="55.9728" height="3.51077" fill="url(#paint6_linear_1729_5183)"/>
<rect x="155.375" y="194.07" width="19.5356" height="1.22533" fill="url(#paint7_linear_1729_5183)"/>
<rect x="344.344" y="178.551" width="55.9728" height="3.51077" fill="url(#paint8_linear_1729_5183)"/>
<rect x="344.344" y="185.574" width="55.9728" height="3.51077" fill="url(#paint9_linear_1729_5183)"/>
<rect x="344.344" y="194.07" width="19.5356" height="1.22533" fill="url(#paint10_linear_1729_5183)"/>
<g filter="url(#filter3_d_1729_5183)">
<ellipse cx="277.354" cy="191.621" rx="150.322" ry="19.5118" stroke="url(#paint11_linear_1729_5183)" stroke-linecap="round" stroke-linejoin="round" stroke-dasharray="2 2" shape-rendering="crispEdges"/>
</g>
<g filter="url(#filter4_b_1729_5183)">
<rect width="163.639" height="104.794" rx="3" transform="matrix(1 8.76912e-09 -1.59636e-07 -1 194.309 240.934)" fill="url(#paint12_linear_1729_5183)" fill-opacity="0.5"/>
<rect width="163.639" height="104.794" rx="3" transform="matrix(1 8.76912e-09 -1.59636e-07 -1 194.309 240.934)" stroke="url(#paint13_linear_1729_5183)" stroke-width="0.25" stroke-linecap="round" stroke-linejoin="round"/>
</g>
<path d="M366.637 122.923C366.733 123.059 366.825 123.197 366.913 123.338L366.807 123.404C366.85 123.474 366.892 123.544 366.933 123.615C366.974 123.686 367.014 123.758 367.053 123.83L367.163 123.771C367.242 123.918 367.316 124.068 367.385 124.22L367.271 124.272C367.339 124.421 367.403 124.573 367.461 124.727L367.578 124.682C367.637 124.837 367.692 124.994 367.741 125.153L367.622 125.19C367.671 125.345 367.715 125.503 367.755 125.663L367.876 125.632C367.916 125.794 367.952 125.959 367.984 126.125L367.861 126.148C367.891 126.308 367.917 126.469 367.939 126.632L368.063 126.616C368.085 126.779 368.102 126.943 368.116 127.11L367.992 127.12C368.005 127.284 368.015 127.451 368.021 127.619L368.145 127.615C368.151 127.779 368.153 127.946 368.151 128.114L368.026 128.113C368.024 128.274 368.019 128.437 368.011 128.601L368.136 128.607C368.127 128.774 368.115 128.941 368.099 129.111L367.975 129.099C367.96 129.264 367.941 129.431 367.92 129.599L368.043 129.615C368.023 129.775 367.999 129.937 367.973 130.099L367.849 130.079C367.823 130.241 367.794 130.403 367.762 130.567L367.885 130.591C367.852 130.756 367.817 130.923 367.779 131.091L367.657 131.063C367.621 131.222 367.583 131.382 367.541 131.543L367.663 131.573C367.622 131.731 367.58 131.889 367.534 132.049L367.414 132.015C367.369 132.174 367.322 132.333 367.272 132.494L367.392 132.531C367.342 132.693 367.289 132.855 367.235 133.019L367.116 132.98C367.065 133.133 367.011 133.287 366.956 133.443L367.073 133.485C367.018 133.638 366.962 133.792 366.903 133.947L366.786 133.903C366.727 134.057 366.666 134.212 366.604 134.368L366.72 134.415C366.657 134.572 366.592 134.729 366.525 134.888L366.41 134.839C366.346 134.99 366.28 135.142 366.212 135.294L366.327 135.345C366.261 135.493 366.194 135.642 366.124 135.792L366.011 135.74C365.942 135.889 365.871 136.039 365.799 136.19L365.912 136.244C365.839 136.395 365.765 136.547 365.689 136.7L365.577 136.644C365.502 136.795 365.425 136.947 365.346 137.1L365.458 137.157C365.384 137.3 365.309 137.444 365.232 137.589L365.121 137.53C365.045 137.674 364.967 137.819 364.888 137.964L364.997 138.024C364.918 138.17 364.837 138.316 364.754 138.463L364.645 138.401C364.563 138.548 364.479 138.695 364.394 138.842L364.502 138.905C364.418 139.051 364.333 139.197 364.246 139.344L364.138 139.28C364.056 139.419 363.973 139.558 363.888 139.698L363.995 139.763C363.91 139.903 363.824 140.044 363.737 140.185L363.63 140.119C363.543 140.26 363.455 140.402 363.365 140.543L363.471 140.61C363.381 140.752 363.29 140.895 363.198 141.038L363.093 140.971C363.001 141.113 362.908 141.256 362.814 141.399L362.918 141.468C362.829 141.603 362.739 141.739 362.648 141.875L362.544 141.805C362.454 141.941 362.362 142.077 362.269 142.213L362.372 142.284C362.279 142.421 362.185 142.558 362.09 142.695L361.987 142.624C361.892 142.761 361.796 142.899 361.698 143.037L361.801 143.109C361.703 143.248 361.605 143.386 361.505 143.526L361.404 143.453C361.307 143.588 361.21 143.723 361.112 143.858L361.213 143.932C361.117 144.063 361.021 144.196 360.923 144.328L360.823 144.254C360.725 144.386 360.627 144.519 360.528 144.652L360.628 144.727C360.529 144.86 360.428 144.993 360.327 145.127L360.227 145.052C360.126 145.185 360.024 145.319 359.922 145.454L360.021 145.53C359.918 145.664 359.814 145.799 359.709 145.934L359.61 145.857C359.509 145.988 359.407 146.118 359.305 146.249L359.403 146.326C359.302 146.455 359.201 146.583 359.098 146.712L359 146.635C358.898 146.763 358.795 146.892 358.691 147.022L358.788 147.1C358.684 147.23 358.579 147.359 358.474 147.49L358.377 147.411C358.271 147.541 358.165 147.671 358.058 147.801L358.154 147.881C358.047 148.011 357.939 148.142 357.83 148.273L357.734 148.194C357.708 148.224 357.683 148.255 357.657 148.286C357.649 148.296 357.64 148.307 357.632 148.317C357.559 148.404 357.486 148.491 357.413 148.579L357.509 148.659C357.404 148.784 357.298 148.909 357.192 149.035L357.097 148.954C356.99 149.08 356.884 149.205 356.776 149.331L356.871 149.412C356.763 149.538 356.655 149.665 356.546 149.791L356.451 149.709C356.342 149.836 356.232 149.962 356.122 150.089L356.216 150.171C356.106 150.298 355.995 150.425 355.883 150.553L355.789 150.47C355.677 150.598 355.565 150.725 355.451 150.853L355.545 150.936C355.436 151.058 355.327 151.181 355.218 151.303L355.124 151.22C355.015 151.342 354.905 151.465 354.795 151.587L354.888 151.671C354.777 151.793 354.666 151.916 354.554 152.039L354.462 151.955C354.35 152.078 354.238 152.201 354.125 152.325L354.217 152.409C354.104 152.532 353.99 152.656 353.876 152.78L353.784 152.695C353.67 152.819 353.555 152.943 353.44 153.067L353.532 153.152C353.416 153.276 353.3 153.4 353.184 153.524L353.093 153.439C352.981 153.558 352.869 153.677 352.756 153.796L352.847 153.882C352.735 154.001 352.621 154.121 352.507 154.241L352.417 154.155C352.303 154.274 352.189 154.394 352.074 154.514L352.164 154.601C352.049 154.721 351.934 154.841 351.817 154.961L351.727 154.875C351.686 154.918 351.645 154.961 351.603 155.004C351.593 155.014 351.584 155.023 351.574 155.033C351.517 155.093 351.46 155.152 351.402 155.211C351.394 155.219 351.386 155.228 351.378 155.236L351.467 155.323C351.35 155.444 351.232 155.565 351.114 155.686L351.025 155.599C350.906 155.72 350.788 155.841 350.668 155.962L350.757 156.05C350.642 156.167 350.527 156.284 350.411 156.401L350.322 156.313C350.248 156.388 350.173 156.463 350.099 156.538C350.065 156.572 350.031 156.606 349.997 156.64C349.99 156.648 349.982 156.656 349.974 156.663L350.062 156.752C349.946 156.869 349.829 156.986 349.711 157.103L349.623 157.015C349.505 157.132 349.388 157.249 349.269 157.366L349.357 157.455C349.238 157.573 349.119 157.69 349 157.808L348.912 157.719C348.793 157.837 348.673 157.955 348.552 158.073L348.64 158.162C348.519 158.28 348.398 158.398 348.277 158.517L348.189 158.427C348.07 158.544 347.95 158.66 347.829 158.777L347.916 158.867C347.798 158.981 347.68 159.095 347.561 159.209L347.475 159.119C347.356 159.233 347.237 159.348 347.117 159.462L347.204 159.552C347.084 159.667 346.964 159.782 346.844 159.896L346.757 159.806C346.637 159.921 346.516 160.035 346.395 160.15L346.481 160.241C346.359 160.356 346.237 160.471 346.115 160.586L346.029 160.495C345.907 160.61 345.784 160.726 345.661 160.841L345.747 160.932C345.623 161.048 345.5 161.163 345.376 161.279L345.29 161.187C345.169 161.3 345.048 161.413 344.926 161.527L345.011 161.618C344.89 161.73 344.769 161.842 344.648 161.954L344.563 161.862C344.518 161.903 344.473 161.945 344.428 161.987C344.417 161.996 344.407 162.006 344.396 162.016C344.339 162.069 344.281 162.122 344.223 162.175C344.215 162.183 344.206 162.19 344.198 162.198L344.283 162.29C344.16 162.402 344.038 162.514 343.915 162.626L343.831 162.534C343.708 162.646 343.584 162.759 343.461 162.871L343.545 162.964C343.421 163.076 343.297 163.189 343.172 163.301L343.088 163.209C342.964 163.321 342.839 163.434 342.714 163.547L342.797 163.64C342.672 163.753 342.546 163.866 342.42 163.979L342.337 163.886C342.306 163.913 342.275 163.94 342.245 163.968C342.231 163.98 342.217 163.992 342.203 164.005C342.124 164.076 342.044 164.147 341.964 164.218L342.048 164.311C341.925 164.421 341.802 164.53 341.678 164.64L341.595 164.547C341.472 164.656 341.348 164.766 341.224 164.875L341.307 164.969C341.182 165.079 341.058 165.189 340.933 165.299L340.85 165.205C340.725 165.315 340.6 165.425 340.474 165.535L340.557 165.629C340.431 165.739 340.305 165.849 340.179 165.959L340.096 165.865C339.97 165.975 339.843 166.085 339.716 166.196L339.798 166.29C339.671 166.4 339.543 166.511 339.416 166.621L339.334 166.527C339.207 166.636 339.08 166.746 338.952 166.856L339.034 166.951C338.909 167.058 338.784 167.165 338.659 167.272L338.578 167.178C338.452 167.285 338.327 167.392 338.201 167.5L338.282 167.595C338.156 167.702 338.03 167.81 337.903 167.917L337.822 167.822C337.775 167.863 337.727 167.903 337.679 167.943C337.668 167.953 337.657 167.962 337.646 167.971C337.629 167.986 337.612 168 337.595 168.015C337.561 168.044 337.527 168.073 337.493 168.102C337.488 168.105 337.484 168.109 337.48 168.112C337.467 168.123 337.454 168.134 337.441 168.145L337.522 168.24C337.395 168.348 337.267 168.456 337.139 168.564L337.059 168.468C336.931 168.576 336.802 168.684 336.674 168.792L336.754 168.888C336.625 168.996 336.496 169.104 336.367 169.212L336.287 169.116C336.158 169.224 336.028 169.332 335.898 169.44L335.978 169.536C335.851 169.642 335.723 169.749 335.595 169.855L335.515 169.759C335.388 169.864 335.261 169.969 335.134 170.074L335.213 170.171C335.086 170.276 334.958 170.381 334.83 170.487L334.75 170.39C334.622 170.495 334.494 170.601 334.365 170.706L334.445 170.803C334.316 170.908 334.187 171.014 334.058 171.119L333.979 171.023C333.849 171.128 333.72 171.234 333.59 171.339L333.669 171.436C333.539 171.542 333.409 171.648 333.278 171.754L333.2 171.656C333.069 171.762 332.938 171.868 332.807 171.974L332.886 172.071C332.755 172.177 332.623 172.283 332.491 172.389L332.413 172.291C332.284 172.395 332.155 172.499 332.026 172.602L332.104 172.7C331.975 172.803 331.846 172.906 331.717 173.009L331.639 172.912C331.51 173.015 331.38 173.118 331.25 173.221L331.328 173.319C331.198 173.423 331.068 173.526 330.938 173.629L330.86 173.531C330.73 173.635 330.599 173.738 330.468 173.842L330.545 173.94C330.414 174.043 330.283 174.147 330.152 174.25L330.074 174.152C329.943 174.255 329.811 174.359 329.679 174.463L329.756 174.561C329.624 174.665 329.492 174.768 329.359 174.872L329.282 174.773C329.217 174.824 329.153 174.874 329.088 174.925C329.02 174.978 328.952 175.031 328.883 175.084L328.96 175.183C328.829 175.285 328.698 175.387 328.567 175.489L328.49 175.39C328.36 175.491 328.229 175.592 328.098 175.694L328.175 175.793C328.044 175.894 327.912 175.995 327.781 176.096L327.705 175.997C327.573 176.099 327.442 176.2 327.31 176.301L327.386 176.4C327.254 176.502 327.122 176.603 326.989 176.705L326.913 176.605L326.811 176.683C326.713 176.759 326.614 176.834 326.515 176.909L326.591 177.009C326.458 177.11 326.325 177.212 326.191 177.313L326.116 177.214C325.982 177.315 325.849 177.417 325.715 177.518L325.79 177.618C325.656 177.719 325.522 177.821 325.387 177.923L325.312 177.823L325.164 177.935C325.08 177.998 324.996 178.062 324.911 178.125L324.987 178.225C324.855 178.324 324.723 178.423 324.59 178.523L324.515 178.423C324.383 178.522 324.25 178.621 324.118 178.721L324.193 178.821C324.06 178.92 323.927 179.019 323.793 179.119L323.719 179.019L323.594 179.111C323.502 179.18 323.41 179.248 323.318 179.317L323.393 179.417C323.259 179.516 323.125 179.616 322.991 179.715L322.916 179.615C322.782 179.714 322.648 179.814 322.513 179.913L322.588 180.014C322.453 180.113 322.318 180.212 322.183 180.312L322.109 180.211C322.028 180.27 321.948 180.33 321.867 180.389C321.812 180.429 321.757 180.469 321.703 180.51L321.776 180.61C321.641 180.71 321.505 180.81 321.369 180.909L321.295 180.808C321.161 180.906 321.027 181.004 320.893 181.102L320.967 181.203C320.833 181.3 320.7 181.397 320.566 181.495L320.492 181.394C320.358 181.491 320.224 181.588 320.089 181.686L320.163 181.787C320.028 181.884 319.894 181.982 319.759 182.079L319.686 181.978C319.63 182.018 319.574 182.058 319.519 182.099C319.506 182.108 319.493 182.117 319.48 182.126C319.414 182.174 319.347 182.222 319.28 182.27L319.353 182.372C319.218 182.469 319.082 182.567 318.947 182.664L318.874 182.563C318.738 182.66 318.602 182.757 318.466 182.855L318.539 182.957C318.403 183.054 318.266 183.152 318.129 183.249L318.057 183.147C317.92 183.245 317.783 183.342 317.646 183.44L317.719 183.542C317.582 183.639 317.445 183.737 317.307 183.834L317.235 183.732C317.1 183.828 316.965 183.923 316.83 184.019L316.902 184.121C316.767 184.216 316.632 184.312 316.496 184.407L316.424 184.305C316.289 184.401 316.153 184.496 316.017 184.592L316.089 184.694C315.953 184.789 315.817 184.885 315.681 184.981L315.609 184.878C315.558 184.914 315.506 184.95 315.455 184.986C315.37 185.046 315.285 185.105 315.199 185.165L315.271 185.267C315.134 185.363 314.997 185.458 314.86 185.554L314.789 185.451C314.652 185.547 314.514 185.642 314.377 185.738L314.448 185.84C314.311 185.936 314.173 186.032 314.035 186.127L313.964 186.024C313.826 186.12 313.688 186.215 313.549 186.311L313.62 186.414C313.482 186.509 313.344 186.605 313.205 186.7L313.134 186.597C312.998 186.691 312.862 186.784 312.725 186.878L312.796 186.981C312.66 187.075 312.523 187.169 312.386 187.262L312.315 187.159C312.179 187.253 312.041 187.346 311.904 187.44L311.975 187.543C311.837 187.637 311.7 187.731 311.562 187.824L311.492 187.721C311.354 187.815 311.217 187.908 311.079 188.002L311.149 188.105C311.011 188.199 310.873 188.293 310.734 188.386L310.664 188.283C310.603 188.324 310.543 188.365 310.482 188.406C310.468 188.416 310.454 188.425 310.44 188.435C310.376 188.478 310.312 188.521 310.248 188.564L310.318 188.667C310.18 188.761 310.041 188.855 309.902 188.948L309.832 188.844C309.693 188.938 309.553 189.032 309.414 189.125L309.484 189.229C309.344 189.323 309.204 189.416 309.064 189.51L308.995 189.406C308.857 189.498 308.719 189.59 308.581 189.682L308.651 189.786C308.513 189.878 308.375 189.97 308.237 190.062L308.168 189.958C308.029 190.049 307.891 190.141 307.753 190.233L307.822 190.337C307.683 190.429 307.545 190.521 307.406 190.613L307.337 190.509L307.202 190.598C307.108 190.66 307.014 190.722 306.92 190.784L306.989 190.888C306.85 190.98 306.71 191.072 306.571 191.164L306.502 191.059C306.363 191.151 306.223 191.243 306.083 191.334L306.152 191.439C306.012 191.531 305.872 191.622 305.731 191.714L305.663 191.609C305.523 191.701 305.382 191.793 305.242 191.884L305.31 191.989C305.17 192.081 305.029 192.172 304.888 192.264L304.82 192.159C304.68 192.25 304.54 192.341 304.4 192.432L304.468 192.537C304.329 192.627 304.19 192.717 304.051 192.807L303.983 192.702C303.844 192.792 303.704 192.882 303.565 192.972L303.633 193.077C303.493 193.167 303.353 193.257 303.213 193.347L303.146 193.242C303.006 193.332 302.866 193.422 302.726 193.512L302.793 193.617C302.653 193.707 302.512 193.797 302.372 193.887L302.304 193.782C302.164 193.871 302.023 193.961 301.882 194.051L301.95 194.157C301.809 194.246 301.668 194.336 301.526 194.426L301.459 194.321C301.318 194.41 301.177 194.5 301.035 194.59L301.102 194.696C300.961 194.785 300.819 194.875 300.677 194.965L300.61 194.859C300.468 194.949 300.326 195.039 300.184 195.128L300.251 195.234C300.111 195.322 299.971 195.411 299.83 195.499L299.764 195.393C299.624 195.481 299.483 195.57 299.342 195.658L299.409 195.764C299.268 195.852 299.127 195.94 298.986 196.028L298.92 195.923C298.864 195.958 298.808 195.993 298.751 196.028C298.666 196.081 298.582 196.134 298.497 196.187L298.563 196.293C298.422 196.381 298.28 196.469 298.139 196.557L298.073 196.451C297.931 196.539 297.79 196.627 297.648 196.715L297.714 196.822C297.572 196.91 297.43 196.998 297.288 197.086L297.222 196.979C297.141 197.029 297.06 197.079 296.98 197.129C296.937 197.155 296.895 197.181 296.853 197.208C296.833 197.219 296.814 197.231 296.795 197.243L296.861 197.349C296.718 197.437 296.576 197.525 296.433 197.613L296.367 197.507C296.225 197.595 296.082 197.682 295.939 197.77L296.004 197.877C295.862 197.964 295.719 198.052 295.577 198.139L295.511 198.032L295.087 198.292L295.152 198.398C295.01 198.485 294.869 198.571 294.727 198.658L294.662 198.551L294.235 198.81L294.3 198.917C294.158 199.003 294.016 199.09 293.873 199.176L293.808 199.069C293.666 199.155 293.523 199.242 293.381 199.328L293.445 199.435C293.303 199.521 293.16 199.607 293.017 199.693L292.952 199.586C292.809 199.672 292.666 199.759 292.523 199.845L292.587 199.952C292.444 200.038 292.3 200.124 292.157 200.21L292.092 200.103C291.949 200.189 291.805 200.275 291.661 200.361L291.725 200.468C291.581 200.554 291.437 200.64 291.293 200.726L291.229 200.618L291.013 200.747L290.814 200.865L290.878 200.973C290.745 201.052 290.612 201.131 290.479 201.209L290.415 201.102L290.017 201.338L290.08 201.446C289.947 201.524 289.814 201.603 289.681 201.681L289.618 201.574L289.218 201.809L289.282 201.917C289.149 201.995 289.016 202.073 288.882 202.151L288.819 202.044L288.419 202.278L288.482 202.386C288.349 202.464 288.216 202.542 288.082 202.62L288.019 202.512L287.619 202.745L287.682 202.853C287.548 202.931 287.415 203.009 287.281 203.086L287.218 202.978L286.818 203.211L286.88 203.319C286.747 203.396 286.613 203.474 286.479 203.551L286.417 203.443L286.216 203.559L286 203.683L286.063 203.791C285.919 203.874 285.775 203.957 285.632 204.04L285.569 203.931L285.138 204.179L285.2 204.287C285.057 204.37 284.913 204.452 284.77 204.534L284.707 204.426L284.277 204.671L284.339 204.78C284.195 204.862 284.051 204.944 283.907 205.026L283.846 204.917L283.413 205.163L283.475 205.272C283.33 205.353 283.186 205.435 283.042 205.517L282.98 205.408L282.548 205.652L282.61 205.761C282.465 205.842 282.321 205.923 282.177 206.004L282.116 205.896L281.684 206.138L281.745 206.247C281.6 206.329 281.455 206.41 281.311 206.491L281.25 206.382L280.816 206.624L280.876 206.733C280.732 206.814 280.587 206.895 280.442 206.975L280.382 206.866L279.948 207.107L280.009 207.216C279.864 207.296 279.72 207.376 279.575 207.456L279.515 207.347L279.079 207.588L279.139 207.697C278.994 207.777 278.849 207.857 278.704 207.937L278.643 207.828L278.208 208.067L278.268 208.176C278.123 208.256 277.978 208.335 277.833 208.415L277.773 208.305L277.338 208.543L277.398 208.652C277.252 208.732 277.107 208.811 276.961 208.891L276.901 208.781L276.464 209.018L276.524 209.128C276.378 209.207 276.232 209.286 276.087 209.365L276.027 209.255L275.591 209.49L275.65 209.6C275.505 209.679 275.359 209.757 275.214 209.835L275.155 209.725C275.009 209.804 274.862 209.882 274.716 209.961L274.775 210.071C274.629 210.149 274.483 210.228 274.337 210.306L274.278 210.196C274.132 210.274 273.986 210.352 273.84 210.429L273.898 210.54C273.752 210.618 273.606 210.695 273.46 210.773L273.402 210.663C273.327 210.702 273.252 210.742 273.177 210.782C273.106 210.82 273.035 210.857 272.964 210.895L273.023 211.005C272.876 211.083 272.729 211.161 272.583 211.238L272.524 211.128C272.378 211.205 272.231 211.282 272.084 211.36L272.143 211.47C271.996 211.547 271.849 211.625 271.703 211.702L271.645 211.591C271.498 211.668 271.352 211.745 271.205 211.821L271.263 211.932C271.117 212.009 270.971 212.085 270.824 212.162L270.766 212.051C270.619 212.128 270.472 212.204 270.325 212.281L270.383 212.392C270.236 212.468 270.088 212.545 269.941 212.621L269.884 212.51C269.737 212.587 269.59 212.663 269.443 212.739L269.5 212.85C269.353 212.926 269.206 213.002 269.059 213.077L269.002 212.966C268.855 213.042 268.708 213.118 268.562 213.193L268.619 213.304C268.471 213.38 268.324 213.456 268.176 213.532L268.119 213.42C267.971 213.496 267.824 213.572 267.676 213.647L267.733 213.758C267.585 213.834 267.438 213.909 267.29 213.984L267.234 213.873C267.086 213.948 266.939 214.023 266.792 214.098L266.848 214.209C266.701 214.284 266.554 214.359 266.406 214.433L266.35 214.322C266.202 214.397 266.054 214.471 265.905 214.546L265.962 214.658C265.814 214.733 265.665 214.807 265.517 214.882L265.461 214.77C265.313 214.844 265.165 214.919 265.017 214.993L265.074 215.105C264.926 215.179 264.778 215.253 264.63 215.327L264.574 215.215C264.514 215.245 264.455 215.274 264.395 215.304C264.307 215.348 264.219 215.392 264.131 215.436L264.187 215.548C264.038 215.622 263.889 215.696 263.74 215.77L263.685 215.658C263.536 215.732 263.388 215.805 263.239 215.879L263.295 215.991C263.146 216.064 262.998 216.138 262.85 216.211L262.794 216.099C262.646 216.172 262.498 216.245 262.35 216.318L262.405 216.43C262.256 216.503 262.108 216.576 261.96 216.648L261.905 216.536C261.755 216.609 261.606 216.682 261.457 216.755L261.512 216.867C261.363 216.94 261.214 217.013 261.065 217.085L261.01 216.973C260.932 217.011 260.853 217.049 260.775 217.088C260.704 217.122 260.634 217.156 260.564 217.19L260.618 217.303C260.47 217.375 260.321 217.447 260.172 217.519L260.118 217.406C260.046 217.441 259.975 217.475 259.904 217.51C259.826 217.547 259.748 217.584 259.671 217.622L259.725 217.734C259.575 217.807 259.426 217.879 259.276 217.95L259.222 217.838C259.073 217.91 258.923 217.981 258.774 218.053L258.828 218.165C258.679 218.237 258.529 218.308 258.38 218.379L258.326 218.267C258.261 218.298 258.195 218.329 258.129 218.36C258.046 218.4 257.963 218.44 257.879 218.479L257.933 218.592C257.783 218.664 257.633 218.735 257.484 218.806L257.43 218.693C257.28 218.764 257.13 218.835 256.98 218.905L257.033 219.018C256.883 219.089 256.734 219.16 256.584 219.23L256.531 219.117C256.381 219.187 256.231 219.258 256.082 219.328L256.135 219.441C255.985 219.511 255.836 219.581 255.686 219.651L255.634 219.537C255.483 219.608 255.332 219.678 255.182 219.748L255.235 219.861C255.084 219.931 254.934 220.001 254.783 220.071L254.731 219.957C254.58 220.027 254.43 220.097 254.28 220.166L254.332 220.279C254.182 220.349 254.032 220.418 253.882 220.487L253.83 220.373C253.745 220.413 253.659 220.452 253.574 220.491C253.509 220.521 253.444 220.551 253.38 220.58L253.432 220.694C253.28 220.763 253.129 220.832 252.978 220.901L252.926 220.788C252.776 220.857 252.625 220.925 252.474 220.994L252.526 221.108C252.375 221.176 252.224 221.245 252.074 221.313L252.022 221.199C251.872 221.267 251.722 221.335 251.571 221.403L251.623 221.517C251.471 221.585 251.32 221.653 251.169 221.721L251.118 221.607C251.076 221.626 251.034 221.645 250.991 221.664C250.882 221.713 250.773 221.762 250.664 221.811L250.715 221.925C250.564 221.993 250.412 222.061 250.261 222.128L250.21 222.014C250.059 222.081 249.908 222.149 249.758 222.216L249.808 222.33C249.657 222.397 249.507 222.464 249.356 222.531L249.305 222.416C249.153 222.484 249.001 222.551 248.849 222.618L248.9 222.732C248.748 222.799 248.596 222.866 248.444 222.933L248.394 222.818C248.242 222.885 248.091 222.951 247.939 223.017L247.989 223.132C247.838 223.198 247.687 223.264 247.535 223.33L247.486 223.216C247.334 223.282 247.182 223.348 247.03 223.414L247.08 223.528C246.927 223.594 246.775 223.66 246.623 223.726L246.573 223.611C246.421 223.677 246.269 223.743 246.117 223.808L246.166 223.923C246.014 223.988 245.862 224.053 245.71 224.118L245.661 224.004C245.509 224.069 245.358 224.133 245.206 224.198L245.255 224.313C245.102 224.378 244.949 224.443 244.796 224.508L244.748 224.393C244.595 224.458 244.442 224.523 244.289 224.587L244.338 224.702C244.186 224.767 244.033 224.831 243.881 224.895L243.832 224.78C243.68 224.844 243.528 224.908 243.376 224.972L243.424 225.087C243.271 225.151 243.118 225.215 242.966 225.279L242.917 225.164C242.764 225.228 242.611 225.291 242.458 225.355L242.506 225.47C242.352 225.534 242.199 225.597 242.046 225.661L241.999 225.545C241.939 225.57 241.879 225.594 241.82 225.619C241.727 225.657 241.634 225.696 241.541 225.734L241.588 225.85C241.435 225.912 241.283 225.975 241.13 226.038L241.083 225.922C240.929 225.985 240.775 226.048 240.621 226.111L240.668 226.226C240.514 226.289 240.361 226.351 240.207 226.414L240.16 226.298C240.007 226.36 239.854 226.422 239.701 226.484L239.748 226.6C239.594 226.662 239.441 226.723 239.289 226.785L239.242 226.669C239.088 226.731 238.934 226.792 238.78 226.854L238.826 226.97C238.672 227.032 238.517 227.093 238.363 227.154L238.317 227.038C238.163 227.099 238.01 227.16 237.856 227.221L237.902 227.337C237.748 227.398 237.595 227.459 237.441 227.519L237.396 227.403C237.345 227.423 237.294 227.443 237.243 227.463C237.14 227.504 237.036 227.544 236.933 227.584L236.979 227.701C236.824 227.762 236.669 227.822 236.515 227.882L236.469 227.766C236.315 227.826 236.16 227.886 236.006 227.946L236.051 228.062C235.897 228.122 235.743 228.181 235.589 228.241L235.544 228.124C235.39 228.184 235.236 228.243 235.082 228.302L235.126 228.419C234.971 228.478 234.816 228.538 234.661 228.597L234.616 228.48C234.461 228.539 234.306 228.598 234.151 228.657L234.196 228.774C234.041 228.832 233.886 228.891 233.732 228.949L233.688 228.832C233.533 228.89 233.379 228.948 233.225 229.006L233.269 229.123C233.113 229.182 232.957 229.24 232.801 229.298L232.758 229.181C232.602 229.239 232.447 229.296 232.292 229.354L232.335 229.471C232.18 229.529 232.025 229.586 231.87 229.643L231.827 229.526C231.672 229.583 231.517 229.64 231.363 229.696L231.406 229.813C231.249 229.871 231.093 229.928 230.937 229.985L230.894 229.867C230.738 229.924 230.582 229.981 230.426 230.037L230.469 230.154C230.313 230.211 230.158 230.267 230.002 230.323L229.96 230.205C229.805 230.261 229.65 230.316 229.495 230.372L229.537 230.489C229.38 230.545 229.223 230.601 229.067 230.657L229.025 230.539C228.868 230.594 228.712 230.65 228.556 230.705L228.597 230.823C228.441 230.878 228.285 230.933 228.13 230.987L228.088 230.869C227.933 230.924 227.777 230.978 227.622 231.032L227.663 231.15C227.505 231.205 227.348 231.259 227.191 231.313L227.15 231.195C226.993 231.25 226.837 231.304 226.68 231.357L226.721 231.475C226.564 231.529 226.407 231.583 226.251 231.636L226.211 231.518C226.055 231.571 225.899 231.624 225.743 231.676L225.783 231.795C225.625 231.848 225.468 231.901 225.31 231.954L225.27 231.836C225.113 231.888 224.955 231.941 224.798 231.993L224.838 232.112C224.681 232.164 224.524 232.216 224.368 232.268L224.328 232.149C224.172 232.201 224.015 232.253 223.859 232.304L223.898 232.423C223.739 232.475 223.581 232.526 223.423 232.578L223.384 232.459C223.226 232.51 223.069 232.562 222.911 232.612L222.95 232.731C222.792 232.782 222.635 232.833 222.478 232.883L222.44 232.764C222.283 232.814 222.125 232.864 221.968 232.914L222.006 233.033C221.847 233.084 221.689 233.134 221.53 233.184L221.493 233.065C221.334 233.115 221.176 233.164 221.019 233.213L221.056 233.333C220.898 233.382 220.741 233.431 220.583 233.479L220.546 233.36L220.311 233.433L220.069 233.507L220.106 233.627C219.945 233.676 219.784 233.725 219.624 233.774L219.587 233.654C219.427 233.703 219.267 233.751 219.107 233.799L219.143 233.919C218.983 233.967 218.824 234.015 218.664 234.062L218.629 233.943C218.469 233.99 218.31 234.037 218.151 234.084L218.187 234.204C218.025 234.252 217.863 234.299 217.702 234.346L217.667 234.226C217.506 234.273 217.345 234.32 217.184 234.366L217.219 234.487C217.058 234.533 216.898 234.579 216.738 234.625L216.704 234.505C216.544 234.55 216.384 234.596 216.225 234.641L216.259 234.761C216.097 234.807 215.935 234.852 215.774 234.897L215.74 234.777C215.578 234.822 215.417 234.867 215.255 234.912L215.289 235.032C215.127 235.077 214.966 235.121 214.806 235.165L214.773 235.044C214.612 235.088 214.452 235.132 214.292 235.175L214.325 235.296C214.163 235.339 214.001 235.383 213.84 235.426L213.808 235.305C213.645 235.348 213.482 235.391 213.32 235.434L213.352 235.555C213.19 235.598 213.028 235.64 212.867 235.682L212.836 235.561C212.674 235.603 212.514 235.644 212.353 235.685L212.384 235.806C212.222 235.848 212.06 235.889 211.899 235.93L211.868 235.809C211.705 235.85 211.542 235.891 211.379 235.931L211.409 236.053C211.246 236.093 211.084 236.133 210.922 236.173L210.892 236.052C210.73 236.091 210.569 236.131 210.408 236.17L210.437 236.291C210.275 236.33 210.113 236.369 209.951 236.408L209.922 236.286C209.758 236.325 209.594 236.364 209.431 236.402L209.459 236.524C209.296 236.562 209.133 236.6 208.971 236.637L208.943 236.515C208.78 236.553 208.618 236.59 208.457 236.626L208.484 236.748C208.321 236.785 208.158 236.821 207.996 236.858L207.969 236.736C207.804 236.772 207.64 236.808 207.476 236.844L207.503 236.966C207.339 237.002 207.175 237.037 207.012 237.072L206.986 236.949C206.824 236.984 206.661 237.019 206.5 237.052L206.525 237.175C206.361 237.209 206.197 237.243 206.033 237.277L206.008 237.154C205.843 237.188 205.678 237.221 205.514 237.254L205.539 237.377C205.375 237.41 205.211 237.442 205.048 237.474L205.024 237.351C204.861 237.383 204.698 237.415 204.536 237.446L204.56 237.568C204.394 237.6 204.228 237.631 204.063 237.662L204.04 237.539C203.875 237.57 203.71 237.6 203.546 237.63L203.568 237.753C203.404 237.783 203.24 237.812 203.077 237.841L203.055 237.718C202.891 237.747 202.727 237.775 202.564 237.803L202.585 237.926C202.419 237.955 202.252 237.983 202.087 238.011L202.066 237.887C201.901 237.915 201.736 237.942 201.572 237.968L201.592 238.091C201.427 238.118 201.264 238.144 201.1 238.169L201.081 238.045C200.915 238.071 200.749 238.096 200.584 238.121L200.602 238.245C200.435 238.27 200.269 238.294 200.104 238.318L200.086 238.194C199.921 238.218 199.756 238.241 199.592 238.263L199.61 238.387C199.444 238.41 199.279 238.432 199.115 238.454L199.098 238.33C198.931 238.352 198.764 238.373 198.598 238.394L198.613 238.518C198.447 238.539 198.281 238.559 198.116 238.579L198.101 238.455C197.937 238.474 197.773 238.493 197.609 238.511L197.623 238.636C197.454 238.654 197.286 238.673 197.119 238.69L197.106 238.566C196.939 238.583 196.773 238.6 196.607 238.617L196.62 238.741C196.454 238.757 196.289 238.773 196.125 238.788L196.114 238.663C195.946 238.678 195.778 238.693 195.612 238.707L195.622 238.831C195.454 238.845 195.287 238.858 195.121 238.871L195.111 238.746C194.945 238.759 194.78 238.77 194.616 238.781L194.624 238.906C194.456 238.917 194.288 238.928 194.122 238.938L194.114 238.813C193.946 238.823 193.779 238.832 193.613 238.84L193.619 238.965C193.452 238.973 193.287 238.981 193.122 238.987L193.117 238.862C192.949 238.869 192.781 238.875 192.615 238.881L192.619 239.005C192.45 239.011 192.282 239.015 192.116 239.019L192.113 238.894C191.947 238.897 191.782 238.9 191.618 238.902L191.619 239.027C191.45 239.029 191.281 239.03 191.114 239.03L191.114 238.905C190.946 238.905 190.779 238.904 190.613 238.902L190.612 239.027C190.445 239.025 190.28 239.023 190.116 239.019L190.119 238.894C189.949 238.89 189.78 238.885 189.613 238.88L189.609 239.005C189.441 238.999 189.275 238.992 189.109 238.984L189.115 238.859C188.948 238.851 188.782 238.842 188.618 238.832L188.61 238.957C188.441 238.947 188.273 238.935 188.106 238.923L188.116 238.798C187.95 238.785 187.786 238.772 187.623 238.757L187.611 238.882C187.442 238.866 187.275 238.85 187.108 238.832L187.122 238.708C186.955 238.69 186.79 238.671 186.626 238.651L186.611 238.775C186.444 238.755 186.279 238.733 186.115 238.71L186.133 238.586C185.966 238.562 185.8 238.537 185.636 238.511L185.617 238.634C185.452 238.608 185.289 238.58 185.128 238.551L185.151 238.428C184.983 238.398 184.818 238.366 184.655 238.333L184.63 238.456C184.466 238.422 184.303 238.388 184.143 238.351L184.171 238.229C184.006 238.192 183.843 238.153 183.683 238.113L183.652 238.234C183.489 238.193 183.328 238.15 183.17 238.106L183.203 237.986C183.041 237.94 182.881 237.893 182.724 237.845L182.687 237.964C182.526 237.914 182.367 237.863 182.211 237.809L182.252 237.691C182.093 237.637 181.936 237.581 181.783 237.523L181.739 237.64C181.581 237.58 181.426 237.519 181.273 237.455L181.321 237.34C181.166 237.275 181.014 237.209 180.865 237.14L180.813 237.254C180.66 237.183 180.51 237.111 180.363 237.036L180.42 236.925C180.27 236.849 180.124 236.77 179.981 236.69L179.919 236.799C179.773 236.717 179.63 236.632 179.49 236.545L179.556 236.439C179.414 236.35 179.275 236.259 179.14 236.166L179.069 236.269C178.931 236.173 178.796 236.075 178.666 235.975L178.742 235.876C178.61 235.774 178.481 235.669 178.357 235.562L178.275 235.657C178.148 235.548 178.024 235.435 177.905 235.32L177.992 235.23C177.873 235.115 177.758 234.998 177.647 234.878L177.555 234.962C177.441 234.839 177.331 234.712 177.226 234.583L177.323 234.504C177.219 234.376 177.12 234.246 177.024 234.112L176.923 234.185C176.826 234.049 176.733 233.91 176.645 233.768L176.751 233.702C176.707 233.632 176.665 233.561 176.624 233.49C176.583 233.419 176.543 233.347 176.505 233.275L176.394 233.334C176.316 233.188 176.242 233.039 176.173 232.888L176.287 232.836C176.219 232.687 176.156 232.536 176.097 232.382L175.98 232.427C175.921 232.273 175.867 232.116 175.817 231.958L175.937 231.92C175.888 231.766 175.844 231.609 175.804 231.451L175.683 231.481C175.643 231.32 175.607 231.156 175.575 230.991L175.698 230.968C175.668 230.808 175.641 230.646 175.619 230.482L175.495 230.499C175.474 230.338 175.456 230.174 175.442 230.009L175.567 229.999C175.553 229.836 175.543 229.671 175.537 229.504L175.412 229.509C175.406 229.342 175.404 229.174 175.406 229.004L175.531 229.005C175.532 228.846 175.537 228.685 175.545 228.522L175.42 228.516C175.429 228.352 175.44 228.186 175.455 228.019L175.58 228.03C175.595 227.865 175.613 227.697 175.634 227.529L175.51 227.513C175.531 227.352 175.554 227.19 175.581 227.026L175.704 227.046C175.73 226.887 175.758 226.727 175.789 226.566L175.667 226.542C175.698 226.379 175.733 226.215 175.77 226.05L175.892 226.077C175.928 225.913 175.968 225.748 176.01 225.581L175.889 225.551C175.929 225.396 175.97 225.24 176.015 225.083L176.135 225.117C176.179 224.961 176.225 224.805 176.273 224.647L176.154 224.61C176.203 224.451 176.254 224.291 176.307 224.131L176.426 224.17C176.479 224.01 176.534 223.849 176.592 223.687L176.474 223.645C176.528 223.494 176.584 223.342 176.642 223.189L176.759 223.234C176.816 223.083 176.875 222.931 176.937 222.778L176.82 222.731C176.882 222.578 176.945 222.423 177.011 222.268L177.126 222.317C177.191 222.162 177.258 222.007 177.327 221.85L177.212 221.8C177.279 221.649 177.347 221.498 177.417 221.346L177.531 221.398C177.598 221.252 177.667 221.105 177.737 220.958L177.624 220.904C177.695 220.756 177.767 220.607 177.841 220.458L177.953 220.514C178.027 220.365 178.102 220.215 178.179 220.065L178.068 220.008C178.145 219.858 178.224 219.706 178.305 219.554L178.415 219.613C178.491 219.47 178.568 219.326 178.647 219.182L178.537 219.122C178.614 218.98 178.693 218.837 178.774 218.693L178.883 218.754C178.963 218.611 179.044 218.468 179.127 218.324L179.019 218.261C179.102 218.117 179.187 217.972 179.272 217.826L179.38 217.89C179.466 217.744 179.553 217.599 179.641 217.452L179.534 217.388C179.619 217.247 179.704 217.107 179.792 216.966L179.898 217.031C179.983 216.894 180.069 216.756 180.156 216.617L180.05 216.551C180.138 216.412 180.226 216.273 180.316 216.133L180.421 216.2C180.511 216.061 180.602 215.921 180.694 215.781L180.589 215.712C180.681 215.572 180.774 215.431 180.869 215.289L180.973 215.359C181.066 215.219 181.16 215.079 181.256 214.939L181.152 214.869C181.243 214.735 181.335 214.601 181.427 214.467L181.53 214.538C181.623 214.404 181.716 214.27 181.811 214.135L181.708 214.063C181.803 213.928 181.899 213.793 181.996 213.657L182.097 213.73C182.194 213.594 182.292 213.458 182.39 213.322L182.289 213.249C182.388 213.112 182.487 212.976 182.588 212.838L182.689 212.912C182.787 212.778 182.887 212.644 182.987 212.509L182.887 212.434C182.984 212.304 183.081 212.174 183.18 212.043L183.28 212.119C183.378 211.988 183.477 211.858 183.577 211.727L183.478 211.651C183.578 211.52 183.679 211.388 183.781 211.257L183.88 211.333C183.982 211.202 184.084 211.07 184.188 210.938L184.089 210.861C184.193 210.728 184.297 210.596 184.403 210.463L184.501 210.54C184.605 210.408 184.711 210.276 184.817 210.144L184.719 210.066C184.82 209.939 184.922 209.813 185.025 209.686L185.122 209.765C185.225 209.638 185.329 209.511 185.433 209.384L185.336 209.305C185.44 209.177 185.545 209.05 185.651 208.922L185.748 209.002C185.853 208.874 185.96 208.746 186.067 208.618L185.971 208.537C186.079 208.409 186.187 208.28 186.296 208.152L186.391 208.232C186.5 208.103 186.609 207.974 186.719 207.845L186.624 207.764C186.732 207.638 186.839 207.513 186.948 207.387L187.043 207.468C187.149 207.345 187.255 207.222 187.363 207.098L187.269 207.016C187.376 206.892 187.484 206.768 187.593 206.644L187.687 206.726C187.796 206.602 187.905 206.478 188.015 206.354L187.922 206.271C188.032 206.146 188.143 206.021 188.254 205.896L188.348 205.98C188.459 205.855 188.571 205.729 188.684 205.604L188.591 205.521C188.704 205.395 188.817 205.269 188.931 205.144L189.024 205.228C189.134 205.106 189.245 204.984 189.357 204.862L189.265 204.777C189.375 204.657 189.485 204.536 189.597 204.416L189.689 204.5C189.8 204.38 189.911 204.259 190.024 204.138L189.932 204.053C190.044 203.932 190.157 203.811 190.271 203.689L190.362 203.775C190.476 203.653 190.59 203.532 190.704 203.41L190.613 203.324C190.728 203.203 190.843 203.081 190.959 202.959L191.05 203.045C191.166 202.923 191.282 202.8 191.399 202.678L191.309 202.592C191.424 202.472 191.539 202.351 191.655 202.231L191.745 202.317C191.858 202.2 191.972 202.082 192.086 201.965L191.996 201.878C192.11 201.76 192.224 201.642 192.34 201.524L192.429 201.611C192.544 201.493 192.66 201.375 192.776 201.257L192.687 201.17C192.803 201.051 192.92 200.933 193.037 200.814L193.126 200.902C193.243 200.783 193.36 200.665 193.479 200.546L193.39 200.458C193.508 200.339 193.627 200.22 193.746 200.1L193.835 200.189C193.954 200.07 194.074 199.95 194.194 199.831L194.106 199.742C194.222 199.627 194.339 199.511 194.456 199.396L194.544 199.485C194.66 199.37 194.777 199.255 194.894 199.14L194.807 199.051C194.924 198.935 195.042 198.82 195.16 198.705L195.247 198.794C195.366 198.679 195.484 198.563 195.603 198.448L195.516 198.358C195.636 198.243 195.755 198.127 195.876 198.011L195.962 198.101C196.082 197.985 196.203 197.869 196.324 197.753L196.237 197.663C196.359 197.547 196.48 197.43 196.602 197.314L196.688 197.405C196.81 197.288 196.933 197.172 197.056 197.055L196.97 196.965C197.088 196.852 197.207 196.74 197.327 196.627L197.412 196.718C197.531 196.605 197.651 196.493 197.771 196.38L197.685 196.289C197.805 196.177 197.926 196.064 198.046 195.951L198.132 196.043C198.253 195.93 198.374 195.817 198.495 195.704L198.41 195.612C198.532 195.499 198.654 195.386 198.777 195.273L198.861 195.365C198.984 195.252 199.107 195.138 199.23 195.025L199.145 194.933C199.269 194.82 199.392 194.706 199.517 194.593L199.601 194.685C199.725 194.571 199.85 194.458 199.975 194.344L199.89 194.251C200.012 194.14 200.134 194.03 200.257 193.918L200.341 194.011C200.462 193.901 200.584 193.791 200.706 193.681L200.622 193.588C200.745 193.478 200.867 193.368 200.99 193.258L201.073 193.351C201.196 193.24 201.32 193.13 201.443 193.02L201.36 192.926C201.484 192.816 201.608 192.705 201.732 192.595L201.815 192.688C201.939 192.577 202.064 192.467 202.189 192.356L202.106 192.262C202.232 192.152 202.357 192.041 202.483 191.93L202.566 192.024C202.692 191.913 202.818 191.802 202.945 191.691L202.862 191.597C202.988 191.486 203.114 191.376 203.241 191.265L203.323 191.36C203.446 191.252 203.57 191.144 203.693 191.037L203.611 190.942C203.735 190.835 203.86 190.727 203.984 190.619L204.066 190.713C204.191 190.605 204.316 190.498 204.441 190.39L204.359 190.295C204.485 190.187 204.61 190.079 204.736 189.971L204.818 190.065C204.944 189.957 205.07 189.849 205.197 189.741L205.115 189.646C205.242 189.538 205.369 189.429 205.497 189.321L205.578 189.416C205.705 189.308 205.833 189.199 205.961 189.091L205.88 188.995C206.008 188.887 206.136 188.778 206.265 188.669L206.346 188.765C206.473 188.658 206.6 188.55 206.728 188.443L206.647 188.347C206.773 188.242 206.899 188.136 207.025 188.031L207.105 188.127C207.231 188.021 207.357 187.915 207.484 187.81L207.404 187.714C207.531 187.608 207.658 187.502 207.785 187.397L207.865 187.493C207.992 187.387 208.12 187.281 208.248 187.175L208.168 187.079C208.296 186.973 208.425 186.867 208.553 186.761L208.633 186.858C208.761 186.752 208.89 186.646 209.019 186.539L208.94 186.443C209.069 186.337 209.199 186.231 209.329 186.124L209.408 186.221C209.538 186.115 209.668 186.009 209.798 185.902L209.719 185.806C209.848 185.7 209.978 185.595 210.108 185.49L210.186 185.587C210.314 185.483 210.441 185.38 210.569 185.277L210.491 185.179C210.619 185.076 210.747 184.972 210.875 184.869L210.954 184.966C211.082 184.863 211.211 184.759 211.34 184.656L211.262 184.558C211.391 184.454 211.52 184.351 211.65 184.247L211.728 184.345C211.857 184.241 211.987 184.137 212.118 184.034L212.04 183.936C212.17 183.832 212.3 183.728 212.431 183.624L212.509 183.722C212.64 183.618 212.771 183.515 212.902 183.411L212.824 183.313C212.956 183.209 213.087 183.105 213.219 183.001L213.297 183.099C213.429 182.995 213.561 182.891 213.693 182.787L213.616 182.689C213.745 182.587 213.874 182.486 214.004 182.384L214.081 182.483C214.21 182.382 214.34 182.28 214.47 182.179L214.393 182.08C214.523 181.979 214.653 181.877 214.784 181.776L214.861 181.874C214.991 181.773 215.122 181.672 215.253 181.57L215.176 181.471C215.308 181.37 215.439 181.268 215.571 181.166L215.647 181.265C215.779 181.164 215.91 181.062 216.042 180.961L215.966 180.861C216.098 180.76 216.231 180.658 216.363 180.556L216.439 180.656C216.572 180.554 216.705 180.452 216.838 180.35L216.762 180.251C216.895 180.149 217.029 180.048 217.162 179.946L217.238 180.045C217.371 179.944 217.503 179.843 217.636 179.743L217.56 179.643C217.691 179.544 217.822 179.444 217.954 179.345L218.029 179.445C218.161 179.345 218.292 179.246 218.424 179.146L218.349 179.047C218.481 178.947 218.613 178.848 218.745 178.748L218.82 178.848C218.952 178.749 219.085 178.649 219.218 178.55L219.143 178.45C219.276 178.35 219.409 178.251 219.542 178.151L219.617 178.251C219.75 178.152 219.883 178.052 220.017 177.953L219.943 177.852C220.076 177.753 220.21 177.653 220.345 177.553L220.419 177.654C220.553 177.554 220.688 177.455 220.822 177.355L220.748 177.254C220.883 177.155 221.018 177.055 221.153 176.955L221.227 177.056C221.361 176.958 221.494 176.859 221.628 176.761L221.554 176.66C221.687 176.563 221.82 176.465 221.953 176.368L222.027 176.469C222.159 176.371 222.293 176.274 222.426 176.176L222.352 176.075C222.486 175.978 222.62 175.88 222.753 175.783L222.827 175.884C222.961 175.786 223.095 175.689 223.229 175.591L223.156 175.49C223.29 175.393 223.425 175.295 223.56 175.198L223.633 175.299C223.768 175.201 223.902 175.104 224.038 175.006L223.965 174.905C224.1 174.807 224.235 174.71 224.371 174.612L224.444 174.714C224.579 174.616 224.715 174.519 224.851 174.421L224.779 174.32C224.915 174.222 225.051 174.124 225.188 174.027L225.26 174.128C225.395 174.032 225.531 173.935 225.666 173.839L225.594 173.737C225.728 173.641 225.862 173.546 225.996 173.45L226.069 173.552C226.203 173.457 226.338 173.361 226.473 173.266L226.4 173.164C226.535 173.068 226.67 172.972 226.806 172.877L226.878 172.979C227.013 172.884 227.149 172.788 227.284 172.692L227.212 172.59C227.348 172.495 227.484 172.399 227.62 172.304L227.692 172.406C227.828 172.31 227.964 172.215 228.101 172.119L228.029 172.017C228.165 171.921 228.302 171.826 228.439 171.73L228.511 171.833C228.647 171.737 228.785 171.642 228.922 171.546L228.85 171.444C228.988 171.348 229.125 171.252 229.263 171.157L229.334 171.26C229.471 171.164 229.609 171.069 229.746 170.974L229.675 170.871C229.811 170.778 229.946 170.684 230.082 170.59L230.153 170.693C230.289 170.6 230.425 170.506 230.561 170.412L230.49 170.309C230.626 170.216 230.762 170.122 230.899 170.028L230.97 170.132C231.106 170.038 231.243 169.944 231.38 169.851L231.309 169.748C231.446 169.654 231.583 169.56 231.721 169.467L231.791 169.57C231.928 169.476 232.066 169.383 232.203 169.289L232.133 169.186C232.271 169.092 232.409 168.999 232.547 168.905L232.617 169.009C232.755 168.915 232.893 168.821 233.031 168.728L232.961 168.624C233.1 168.531 233.238 168.437 233.377 168.344L233.447 168.447C233.586 168.354 233.725 168.26 233.864 168.167L233.794 168.063C233.931 167.971 234.069 167.878 234.207 167.786L234.276 167.89C234.413 167.798 234.55 167.706 234.688 167.615L234.618 167.511C234.756 167.419 234.893 167.327 235.031 167.235L235.1 167.339C235.238 167.248 235.376 167.156 235.514 167.064L235.444 166.96C235.582 166.868 235.721 166.777 235.859 166.685L235.928 166.789C236.066 166.697 236.205 166.606 236.344 166.514L236.275 166.41C236.413 166.318 236.552 166.227 236.691 166.135L236.76 166.239C236.899 166.148 237.038 166.056 237.178 165.964L237.109 165.86C237.249 165.768 237.388 165.677 237.528 165.585L237.596 165.69C237.736 165.598 237.876 165.507 238.016 165.415L237.948 165.31C238.088 165.219 238.228 165.127 238.369 165.036L238.437 165.141C238.575 165.051 238.713 164.961 238.852 164.871L238.783 164.766C238.922 164.676 239.06 164.586 239.199 164.496L239.267 164.601C239.406 164.511 239.545 164.421 239.684 164.331L239.616 164.226C239.755 164.137 239.894 164.047 240.034 163.957L240.101 164.062C240.241 163.972 240.38 163.882 240.52 163.793L240.452 163.687C240.592 163.598 240.732 163.508 240.872 163.418L240.939 163.523C241.079 163.434 241.219 163.344 241.36 163.254L241.292 163.149C241.433 163.059 241.573 162.97 241.714 162.88L241.781 162.985C241.922 162.896 242.063 162.806 242.204 162.716L242.137 162.611C242.278 162.521 242.419 162.432 242.56 162.342L242.627 162.448C242.768 162.358 242.909 162.269 243.05 162.18L242.984 162.074C243.123 161.986 243.263 161.898 243.402 161.81L243.469 161.915C243.609 161.827 243.749 161.739 243.889 161.651L243.822 161.545C243.962 161.457 244.102 161.369 244.243 161.281L244.309 161.387C244.449 161.299 244.59 161.211 244.73 161.123L244.664 161.017C244.805 160.929 244.946 160.841 245.087 160.754L245.153 160.86C245.294 160.772 245.435 160.684 245.576 160.596L245.51 160.49C245.651 160.402 245.792 160.314 245.934 160.227L246 160.333C246.141 160.245 246.283 160.157 246.425 160.07L246.359 159.963C246.501 159.876 246.643 159.788 246.785 159.7L246.851 159.807C246.993 159.719 247.135 159.631 247.277 159.544L247.212 159.437C247.354 159.35 247.496 159.262 247.639 159.175L247.704 159.281L248.127 159.023L248.062 158.916C248.203 158.83 248.344 158.743 248.485 158.657L248.55 158.764L248.974 158.506L248.909 158.399C249.051 158.313 249.192 158.227 249.334 158.14L249.399 158.247L249.825 157.989L249.76 157.882C249.902 157.796 250.044 157.71 250.187 157.624L250.251 157.731L250.678 157.474L250.614 157.367C250.757 157.281 250.899 157.195 251.042 157.109L251.107 157.216L251.536 156.959L251.471 156.852C251.615 156.766 251.758 156.68 251.901 156.595L251.966 156.702L252.396 156.445L252.332 156.338C252.474 156.253 252.617 156.169 252.759 156.084L252.823 156.192L253.249 155.939L253.186 155.831C253.328 155.747 253.471 155.662 253.613 155.578L253.677 155.686L254.105 155.433L254.042 155.325C254.184 155.241 254.328 155.157 254.471 155.073L254.534 155.181L254.964 154.928L254.901 154.821C255.044 154.737 255.188 154.653 255.331 154.569L255.394 154.677L255.826 154.425L255.763 154.317C255.907 154.233 256.051 154.149 256.195 154.065L256.258 154.173L256.69 153.922L256.628 153.814C256.772 153.73 256.917 153.647 257.061 153.563L257.124 153.671L257.341 153.546L257.558 153.42L257.496 153.312C257.64 153.229 257.785 153.145 257.93 153.062L257.992 153.17L258.426 152.921L258.364 152.813C258.509 152.73 258.653 152.647 258.798 152.564L258.86 152.673L259.294 152.425L259.232 152.317C259.376 152.234 259.521 152.152 259.665 152.07L259.727 152.178L260.16 151.932L260.099 151.824C260.243 151.742 260.387 151.66 260.532 151.578L260.593 151.687L261.026 151.442L260.965 151.334C261.109 151.252 261.253 151.171 261.398 151.09L261.459 151.199L261.891 150.956L261.83 150.847C261.975 150.766 262.119 150.685 262.263 150.604L262.324 150.713L262.762 150.469L262.701 150.36C262.847 150.278 262.993 150.197 263.139 150.116L263.2 150.225L263.637 149.982L263.576 149.873C263.722 149.792 263.868 149.711 264.013 149.631L264.074 149.74L264.511 149.499L264.45 149.389C264.596 149.309 264.742 149.229 264.887 149.149L264.947 149.258L265.384 149.018L265.324 148.909C265.469 148.829 265.614 148.749 265.76 148.67L265.82 148.78L266.256 148.542L266.196 148.432C266.341 148.353 266.486 148.274 266.631 148.195L266.691 148.304L267.126 148.068L267.067 147.958C267.214 147.878 267.361 147.799 267.508 147.719L267.567 147.829C267.714 147.75 267.861 147.67 268.008 147.591L267.949 147.481C268.096 147.402 268.243 147.323 268.39 147.244L268.449 147.354C268.596 147.275 268.743 147.196 268.889 147.118L268.83 147.007C268.977 146.929 269.124 146.85 269.27 146.772L269.329 146.882C269.476 146.804 269.623 146.725 269.769 146.647L269.71 146.537C269.857 146.459 270.003 146.381 270.15 146.303L270.209 146.413C270.355 146.336 270.501 146.258 270.648 146.181L270.589 146.07C270.736 145.993 270.882 145.915 271.028 145.838L271.087 145.948C271.233 145.871 271.379 145.794 271.525 145.717L271.467 145.607C271.613 145.53 271.759 145.453 271.905 145.376L271.963 145.487C272.111 145.409 272.259 145.331 272.407 145.254L272.349 145.143C272.498 145.066 272.646 144.988 272.794 144.911L272.852 145.022C273 144.944 273.148 144.867 273.296 144.79L273.238 144.679C273.386 144.602 273.534 144.526 273.682 144.449L273.739 144.56C273.887 144.483 274.035 144.407 274.183 144.33L274.125 144.219C274.273 144.143 274.421 144.067 274.568 143.991L274.626 144.102C274.773 144.026 274.921 143.95 275.068 143.874L275.011 143.763C275.158 143.687 275.306 143.611 275.453 143.536L275.51 143.647C275.658 143.572 275.805 143.496 275.952 143.421L275.895 143.31C276.042 143.234 276.19 143.159 276.337 143.085L276.393 143.196C276.54 143.121 276.687 143.046 276.834 142.972L276.778 142.86C276.927 142.784 277.077 142.709 277.226 142.633L277.283 142.745C277.432 142.669 277.581 142.594 277.73 142.518L277.674 142.407C277.823 142.332 277.972 142.257 278.121 142.182L278.177 142.293C278.326 142.218 278.475 142.144 278.624 142.069L278.568 141.957C278.717 141.883 278.866 141.808 279.015 141.734L279.071 141.846C279.219 141.771 279.368 141.697 279.517 141.623L279.461 141.511C279.609 141.437 279.758 141.364 279.906 141.29L279.962 141.402C280.11 141.328 280.259 141.255 280.407 141.181L280.352 141.069C280.5 140.996 280.648 140.923 280.796 140.85L280.852 140.962C281 140.889 281.148 140.816 281.296 140.743L281.24 140.631C281.389 140.558 281.538 140.485 281.687 140.412L281.742 140.524C281.892 140.451 282.043 140.377 282.193 140.304L282.138 140.191C282.289 140.118 282.439 140.045 282.589 139.972L282.644 140.084C282.794 140.011 282.944 139.938 283.094 139.865L283.04 139.753C283.19 139.68 283.34 139.607 283.49 139.535L283.544 139.648C283.694 139.575 283.844 139.503 283.993 139.431L283.939 139.318C284.089 139.246 284.238 139.174 284.388 139.102L284.442 139.215C284.592 139.143 284.741 139.072 284.89 139L284.836 138.888C284.986 138.816 285.135 138.745 285.284 138.674L285.338 138.787C285.487 138.716 285.636 138.645 285.785 138.574L285.731 138.461C285.88 138.39 286.029 138.32 286.178 138.249L286.232 138.362C286.383 138.291 286.534 138.219 286.685 138.148L286.632 138.035C286.783 137.964 286.935 137.892 287.086 137.821L287.139 137.934C287.291 137.863 287.442 137.792 287.593 137.721L287.54 137.608C287.691 137.537 287.842 137.467 287.993 137.396L288.046 137.51C288.197 137.439 288.348 137.369 288.499 137.299L288.446 137.186C288.597 137.115 288.748 137.046 288.898 136.976L288.951 137.089C289.101 137.019 289.252 136.95 289.402 136.881L289.35 136.767C289.5 136.698 289.651 136.628 289.801 136.559L289.853 136.673C290.003 136.604 290.153 136.535 290.303 136.467L290.251 136.353C290.401 136.284 290.551 136.216 290.701 136.147L290.752 136.261C290.904 136.192 291.055 136.123 291.206 136.054L291.155 135.941C291.308 135.871 291.46 135.802 291.613 135.733L291.664 135.847C291.817 135.778 291.969 135.709 292.122 135.64L292.07 135.526C292.222 135.457 292.375 135.389 292.527 135.321L292.578 135.435C292.73 135.366 292.882 135.298 293.034 135.23L292.983 135.116C293.135 135.048 293.286 134.98 293.438 134.913L293.489 135.027C293.64 134.959 293.792 134.892 293.943 134.825L293.893 134.711C294.044 134.643 294.195 134.576 294.346 134.509L294.397 134.624C294.548 134.557 294.699 134.49 294.85 134.424L294.799 134.31C294.95 134.243 295.101 134.177 295.252 134.111L295.302 134.225C295.454 134.158 295.606 134.092 295.758 134.025L295.708 133.911C295.862 133.844 296.016 133.777 296.17 133.71L296.22 133.824C296.373 133.758 296.527 133.691 296.68 133.625L296.63 133.51C296.784 133.443 296.937 133.377 297.09 133.311L297.14 133.426C297.293 133.36 297.446 133.294 297.599 133.228L297.549 133.113C297.702 133.048 297.855 132.982 298.007 132.917L298.057 133.032C298.209 132.967 298.362 132.902 298.514 132.837L298.465 132.722C298.617 132.657 298.769 132.592 298.921 132.528L298.97 132.643C299.122 132.578 299.274 132.514 299.426 132.45L299.377 132.335C299.529 132.271 299.681 132.207 299.832 132.143L299.881 132.259C300.034 132.194 300.188 132.13 300.341 132.065L300.293 131.95C300.448 131.885 300.603 131.821 300.758 131.756L300.806 131.872C300.961 131.807 301.115 131.743 301.27 131.679L301.222 131.563C301.376 131.499 301.53 131.436 301.684 131.372L301.732 131.488C301.886 131.424 302.04 131.361 302.194 131.297L302.146 131.182C302.3 131.119 302.454 131.056 302.607 130.993L302.655 131.109C302.808 131.046 302.961 130.983 303.114 130.921L303.067 130.805C303.221 130.743 303.374 130.681 303.526 130.619L303.573 130.735C303.726 130.673 303.879 130.611 304.031 130.55L303.985 130.434C304.137 130.373 304.29 130.311 304.442 130.25L304.488 130.366C304.645 130.304 304.801 130.241 304.957 130.179L304.911 130.063C305.067 130.001 305.222 129.939 305.378 129.877L305.424 129.993C305.58 129.931 305.735 129.87 305.891 129.808L305.845 129.692C306 129.631 306.155 129.57 306.31 129.509L306.356 129.625C306.511 129.564 306.666 129.504 306.82 129.443L306.775 129.327C306.929 129.266 307.084 129.206 307.238 129.146L307.283 129.263C307.438 129.203 307.592 129.143 307.745 129.083L307.7 128.967C307.854 128.907 308.008 128.848 308.162 128.789L308.206 128.906C308.36 128.847 308.513 128.788 308.666 128.729L308.622 128.612C308.778 128.553 308.934 128.493 309.09 128.434L309.134 128.551C309.291 128.491 309.448 128.431 309.605 128.372L309.561 128.255C309.718 128.196 309.875 128.137 310.031 128.078L310.075 128.195C310.232 128.136 310.388 128.077 310.544 128.019L310.5 127.902C310.656 127.844 310.812 127.785 310.968 127.728L311.011 127.845C311.167 127.787 311.323 127.729 311.478 127.672L311.434 127.555C311.59 127.497 311.745 127.44 311.9 127.383L311.943 127.501C312.098 127.444 312.252 127.387 312.407 127.331L312.364 127.213C312.518 127.157 312.673 127.101 312.827 127.045L312.869 127.162C313.026 127.105 313.183 127.049 313.339 126.992L313.297 126.875C313.455 126.817 313.614 126.761 313.772 126.704L313.814 126.822C313.972 126.765 314.13 126.709 314.287 126.653L314.245 126.535C314.403 126.479 314.56 126.423 314.717 126.367L314.759 126.485C314.916 126.43 315.073 126.374 315.23 126.319L315.188 126.201C315.345 126.146 315.501 126.091 315.657 126.037L315.699 126.155C315.855 126.1 316.011 126.046 316.166 125.992L316.125 125.874C316.281 125.82 316.437 125.766 316.592 125.713L316.633 125.831C316.788 125.778 316.943 125.725 317.098 125.672L317.057 125.553C317.216 125.499 317.375 125.445 317.533 125.391L317.574 125.51C317.733 125.455 317.892 125.402 318.051 125.348L318.011 125.23C318.171 125.176 318.329 125.123 318.488 125.07L318.528 125.188C318.686 125.135 318.844 125.083 319.002 125.03L318.963 124.911C319.121 124.859 319.279 124.807 319.436 124.755L319.475 124.874C319.633 124.822 319.79 124.77 319.947 124.719L319.908 124.6C320.065 124.549 320.222 124.498 320.378 124.447L320.417 124.566C320.478 124.546 320.54 124.526 320.602 124.506C320.696 124.476 320.791 124.445 320.885 124.415L320.847 124.296C321.004 124.245 321.161 124.195 321.318 124.145L321.356 124.264C321.517 124.213 321.678 124.162 321.838 124.111L321.801 123.992C321.961 123.941 322.121 123.891 322.281 123.841L322.319 123.96C322.478 123.91 322.638 123.86 322.797 123.81L322.76 123.691C322.919 123.642 323.078 123.592 323.237 123.544L323.274 123.663C323.433 123.614 323.591 123.566 323.749 123.518L323.712 123.398C323.871 123.35 324.028 123.302 324.186 123.254L324.222 123.374C324.379 123.326 324.537 123.279 324.693 123.232L324.658 123.112C324.815 123.065 324.972 123.018 325.129 122.972L325.164 123.092C325.326 123.044 325.488 122.996 325.65 122.948L325.615 122.829C325.777 122.781 325.938 122.734 326.099 122.687L326.134 122.807C326.295 122.76 326.456 122.714 326.616 122.668L326.582 122.548C326.742 122.502 326.902 122.456 327.062 122.41L327.096 122.531C327.256 122.485 327.415 122.44 327.574 122.395L327.54 122.275C327.699 122.23 327.858 122.186 328.016 122.142L328.05 122.262C328.208 122.218 328.366 122.175 328.524 122.131L328.491 122.011C328.649 121.967 328.808 121.924 328.966 121.881L328.999 122.002C329.162 121.957 329.325 121.913 329.488 121.869L329.456 121.749C329.619 121.705 329.781 121.662 329.943 121.619L329.975 121.739C330.137 121.696 330.299 121.654 330.46 121.612L330.429 121.491C330.59 121.449 330.751 121.407 330.912 121.365L330.943 121.486C331.103 121.445 331.263 121.404 331.423 121.363L331.392 121.242C331.552 121.201 331.711 121.161 331.87 121.121L331.901 121.242C332.06 121.203 332.218 121.163 332.376 121.124L332.346 121.003C332.509 120.962 332.671 120.923 332.832 120.883L332.862 121.005C333.026 120.964 333.19 120.925 333.354 120.885L333.325 120.764C333.488 120.725 333.652 120.686 333.814 120.647L333.843 120.769C334.006 120.73 334.168 120.692 334.33 120.655L334.302 120.533C334.463 120.496 334.625 120.458 334.786 120.422L334.814 120.543C334.975 120.507 335.135 120.47 335.295 120.434L335.268 120.312C335.428 120.276 335.588 120.241 335.747 120.206L335.774 120.328C335.935 120.292 336.097 120.257 336.257 120.222L336.231 120.1C336.397 120.064 336.563 120.029 336.728 119.994L336.754 120.116C336.918 120.081 337.083 120.047 337.247 120.013L337.221 119.89C337.385 119.856 337.549 119.823 337.712 119.789L337.737 119.912C337.9 119.879 338.062 119.846 338.224 119.814L338.199 119.691C338.361 119.659 338.523 119.628 338.684 119.596L338.708 119.719C338.868 119.688 339.029 119.657 339.188 119.627L339.165 119.504C339.328 119.473 339.491 119.443 339.654 119.413L339.676 119.536C339.843 119.505 340.01 119.474 340.176 119.445L340.154 119.321C340.32 119.292 340.485 119.262 340.65 119.234L340.672 119.357C340.836 119.328 341 119.3 341.164 119.272L341.143 119.149C341.307 119.121 341.47 119.094 341.632 119.067L341.652 119.191C341.815 119.164 341.976 119.138 342.137 119.112L342.118 118.989C342.279 118.963 342.44 118.938 342.6 118.913L342.619 119.037C342.786 119.011 342.953 118.986 343.12 118.962L343.101 118.838C343.269 118.813 343.436 118.789 343.603 118.765L343.62 118.889C343.787 118.866 343.952 118.843 344.117 118.82L344.1 118.696C344.265 118.674 344.43 118.652 344.593 118.631L344.609 118.755C344.773 118.734 344.935 118.713 345.097 118.693L345.082 118.569C345.244 118.549 345.406 118.53 345.567 118.511L345.581 118.635C345.748 118.616 345.915 118.597 346.08 118.578L346.066 118.454C346.236 118.435 346.404 118.418 346.572 118.4L346.584 118.525C346.752 118.507 346.918 118.491 347.084 118.475L347.072 118.35C347.238 118.335 347.403 118.319 347.567 118.305L347.578 118.429C347.742 118.415 347.905 118.401 348.067 118.388L348.057 118.263C348.22 118.25 348.382 118.238 348.543 118.226L348.552 118.35C348.721 118.338 348.889 118.326 349.057 118.315L349.049 118.191C349.218 118.18 349.387 118.169 349.555 118.16L349.562 118.285C349.729 118.275 349.896 118.267 350.061 118.259L350.055 118.134C350.221 118.126 350.386 118.119 350.55 118.113L350.555 118.237C350.718 118.231 350.881 118.226 351.043 118.221L351.039 118.096C351.205 118.091 351.369 118.087 351.533 118.084L351.536 118.209C351.707 118.206 351.876 118.203 352.045 118.202L352.044 118.077C352.213 118.075 352.381 118.074 352.547 118.075L352.547 118.2C352.713 118.2 352.879 118.201 353.042 118.203L353.044 118.078C353.208 118.081 353.372 118.084 353.534 118.088L353.531 118.213C353.695 118.217 353.858 118.222 354.02 118.228L354.024 118.103C354.196 118.109 354.367 118.116 354.536 118.125L354.529 118.25C354.698 118.258 354.865 118.267 355.031 118.278L355.039 118.153C355.205 118.164 355.37 118.175 355.533 118.188L355.524 118.313C355.687 118.326 355.848 118.339 356.008 118.354L356.02 118.23C356.186 118.245 356.351 118.262 356.515 118.279L356.502 118.404C356.671 118.422 356.839 118.442 357.006 118.463L357.021 118.339C357.189 118.36 357.354 118.382 357.518 118.406L357.5 118.529C357.663 118.553 357.824 118.578 357.984 118.604L358.004 118.48C358.165 118.507 358.324 118.534 358.482 118.563L358.46 118.686C358.629 118.717 358.796 118.749 358.961 118.783L358.986 118.661C359.152 118.695 359.316 118.731 359.478 118.768L359.45 118.89C359.611 118.927 359.77 118.965 359.927 119.005L359.957 118.884C360.115 118.924 360.271 118.966 360.425 119.009L360.391 119.129C360.556 119.176 360.719 119.224 360.88 119.274L360.917 119.155C361.079 119.206 361.238 119.258 361.394 119.312L361.354 119.43C361.509 119.484 361.662 119.539 361.812 119.596L361.857 119.479C362.012 119.538 362.164 119.599 362.314 119.662L362.265 119.777C362.422 119.843 362.576 119.911 362.727 119.981L362.78 119.867C362.932 119.938 363.081 120.011 363.227 120.086L363.17 120.197C363.315 120.271 363.457 120.347 363.596 120.425L363.657 120.317C363.805 120.4 363.95 120.486 364.091 120.575L364.025 120.681C364.166 120.769 364.304 120.86 364.439 120.954L364.51 120.851C364.646 120.946 364.778 121.043 364.907 121.142L364.831 121.241C364.961 121.342 365.089 121.446 365.212 121.552L365.293 121.457C365.421 121.567 365.544 121.68 365.664 121.796L365.577 121.885C365.694 121.999 365.808 122.116 365.918 122.235L366.01 122.15C366.122 122.273 366.23 122.398 366.334 122.526L366.237 122.605C366.341 122.732 366.44 122.863 366.535 122.996L366.637 122.923Z" stroke="url(#paint14_linear_1729_5183)" stroke-width="0.25" stroke-dasharray="0.5 0.5"/>
<circle cx="325.433" cy="122.987" r="0.889743" fill="#747185"/>
<circle cx="348.516" cy="157.938" r="1.5" fill="#D9D9D9"/>
<ellipse rx="110" ry="29" transform="matrix(-0.866025 -0.5 -0.5 0.866025 280.116 178.552)" stroke="url(#paint15_linear_1729_5183)" stroke-width="0.25" stroke-dasharray="0.5 0.5"/>
<circle r="1.5" transform="matrix(-1 0 0 1 207.379 161.938)" fill="#D9D9D9"/>
<circle r="1.5" transform="matrix(-1 0 0 1 203.379 157.938)" fill="#D9D9D9"/>
<path d="M232.504 198.799L232.504 207.492L319.752 207.492L319.752 198.799L232.504 198.799Z" fill="url(#paint16_linear_1729_5183)"/>
<path d="M235.457 201.988L235.457 264.809L316.802 264.809L316.802 201.988L235.457 201.988Z" fill="url(#paint17_linear_1729_5183)"/>
<g filter="url(#filter5_f_1729_5183)">
<circle cx="276.125" cy="232.152" r="13.5312" fill="#632BFF"/>
</g>
<path d="M280.115 234.891C284.12 234.891 287.367 231.644 287.367 227.639C287.367 223.634 284.12 220.387 280.115 220.387C276.11 220.387 272.863 223.634 272.863 227.639C272.863 231.644 276.11 234.891 280.115 234.891Z" stroke="#53FDA9" stroke-linecap="round" stroke-linejoin="round"/>
<path d="M278.941 237.734C279.167 239.15 278.967 240.602 278.368 241.905C277.769 243.208 276.797 244.305 275.575 245.055C274.353 245.806 272.936 246.178 271.502 246.123C270.069 246.068 268.684 245.59 267.523 244.748C266.362 243.906 265.476 242.739 264.978 241.394C264.48 240.048 264.393 238.586 264.726 237.191C265.059 235.796 265.799 234.531 266.851 233.556C267.903 232.582 269.221 231.941 270.637 231.715L271.014 231.664" stroke="#53FDA9" stroke-linecap="round" stroke-linejoin="round"/>
<g filter="url(#filter6_f_1729_5183)">
<path d="M90 238.348L261.858 238.348C262.134 238.348 262.358 238.572 262.358 238.848C262.358 239.124 262.134 239.348 261.858 239.348H90V238.348Z" fill="url(#paint18_linear_1729_5183)"/>
<path d="M133.133 236.328L262.616 236.328C262.849 236.328 263.038 236.139 263.038 235.906C263.038 235.673 262.849 235.484 262.616 235.484H133.133V236.328Z" fill="url(#paint19_linear_1729_5183)"/>
<path d="M174.344 233.949L263.83 233.949C264.048 233.949 264.225 233.772 264.225 233.554C264.225 233.335 264.048 233.158 263.83 233.158H174.344V233.949Z" fill="url(#paint20_linear_1729_5183)"/>
<path d="M133.133 241.465L262.616 241.465C262.849 241.465 263.038 241.654 263.038 241.887C263.038 242.12 262.849 242.309 262.616 242.309H133.133V241.465Z" fill="url(#paint21_linear_1729_5183)"/>
<path d="M174.344 243.859L263.808 243.859C264.039 243.859 264.225 244.046 264.225 244.276C264.225 244.507 264.039 244.693 263.808 244.693H174.344V243.859Z" fill="url(#paint22_linear_1729_5183)"/>
</g>
<g filter="url(#filter7_f_1729_5183)">
<path d="M461.684 227.965L289.826 227.965C289.55 227.965 289.326 227.741 289.326 227.465C289.326 227.189 289.55 226.965 289.826 226.965L461.684 226.965L461.684 227.965Z" fill="url(#paint23_linear_1729_5183)"/>
<path d="M418.551 229.984L289.068 229.984C288.835 229.984 288.646 230.173 288.646 230.407C288.646 230.64 288.835 230.829 289.068 230.829L418.551 230.829L418.551 229.984Z" fill="url(#paint24_linear_1729_5183)"/>
<path d="M377.34 232.363L287.854 232.363C287.635 232.363 287.458 232.54 287.458 232.759C287.458 232.977 287.635 233.154 287.854 233.154L377.34 233.154L377.34 232.363Z" fill="url(#paint25_linear_1729_5183)"/>
<path d="M418.551 224.848L289.068 224.848C288.835 224.848 288.646 224.659 288.646 224.426C288.646 224.192 288.835 224.003 289.068 224.003L418.551 224.003L418.551 224.848Z" fill="url(#paint26_linear_1729_5183)"/>
<path d="M377.34 222.453L287.875 222.453C287.645 222.453 287.458 222.266 287.458 222.036C287.458 221.806 287.645 221.619 287.875 221.619L377.34 221.619L377.34 222.453Z" fill="url(#paint27_linear_1729_5183)"/>
</g>
<path d="M90 238.348L261.858 238.348C262.134 238.348 262.358 238.572 262.358 238.848C262.358 239.124 262.134 239.348 261.858 239.348H90V238.348Z" fill="url(#paint28_linear_1729_5183)"/>
<path d="M133.133 236.328L262.616 236.328C262.849 236.328 263.038 236.139 263.038 235.906C263.038 235.673 262.849 235.484 262.616 235.484H133.133V236.328Z" fill="url(#paint29_linear_1729_5183)"/>
<path d="M174.344 233.949L263.83 233.949C264.048 233.949 264.225 233.772 264.225 233.554C264.225 233.335 264.048 233.158 263.83 233.158H174.344V233.949Z" fill="url(#paint30_linear_1729_5183)"/>
<path d="M133.133 241.465L262.616 241.465C262.849 241.465 263.038 241.654 263.038 241.887C263.038 242.12 262.849 242.309 262.616 242.309H133.133V241.465Z" fill="url(#paint31_linear_1729_5183)"/>
<path d="M174.344 243.859L263.808 243.859C264.039 243.859 264.225 244.046 264.225 244.276C264.225 244.507 264.039 244.693 263.808 244.693H174.344V243.859Z" fill="url(#paint32_linear_1729_5183)"/>
<path d="M461.684 227.965L289.826 227.965C289.55 227.965 289.326 227.741 289.326 227.465C289.326 227.189 289.55 226.965 289.826 226.965L461.684 226.965L461.684 227.965Z" fill="url(#paint33_linear_1729_5183)"/>
<path d="M418.551 229.984L289.068 229.984C288.835 229.984 288.646 230.173 288.646 230.407C288.646 230.64 288.835 230.829 289.068 230.829L418.551 230.829L418.551 229.984Z" fill="url(#paint34_linear_1729_5183)"/>
<path d="M377.34 232.363L287.854 232.363C287.635 232.363 287.458 232.54 287.458 232.759C287.458 232.977 287.635 233.154 287.854 233.154L377.34 233.154L377.34 232.363Z" fill="url(#paint35_linear_1729_5183)"/>
<path d="M418.551 224.848L289.068 224.848C288.835 224.848 288.646 224.659 288.646 224.426C288.646 224.192 288.835 224.003 289.068 224.003L418.551 224.003L418.551 224.848Z" fill="url(#paint36_linear_1729_5183)"/>
<path d="M377.34 222.453L287.875 222.453C287.645 222.453 287.458 222.266 287.458 222.036C287.458 221.806 287.645 221.619 287.875 221.619L377.34 221.619L377.34 222.453Z" fill="url(#paint37_linear_1729_5183)"/>
<rect x="211.348" y="142.117" width="17.1211" height="3.51077" fill="#53FDA9"/>
<rect x="211.348" y="168.02" width="55.9728" height="3.51077" fill="url(#paint38_linear_1729_5183)"/>
<rect x="211.348" y="175.043" width="55.9728" height="3.51077" fill="url(#paint39_linear_1729_5183)"/>
<rect x="211.348" y="183.539" width="19.5356" height="1.22533" fill="url(#paint40_linear_1729_5183)"/>
<rect x="284.938" y="168.02" width="55.9728" height="3.51077" fill="url(#paint41_linear_1729_5183)"/>
<rect x="284.938" y="175.043" width="55.9728" height="3.51077" fill="url(#paint42_linear_1729_5183)"/>
<rect x="284.938" y="183.539" width="19.5356" height="1.22533" fill="url(#paint43_linear_1729_5183)"/>
<circle cx="407.586" cy="217.125" r="1.5" transform="rotate(90 407.586 217.125)" fill="#53FEA9"/>
<defs>
<filter id="filter0_f_1729_5183" x="0.710938" y="0.792969" width="549.469" height="361.406" filterUnits="userSpaceOnUse" color-interpolation-filters="sRGB">
<feFlood flood-opacity="0" result="BackgroundImageFix"/>
<feBlend mode="normal" in="SourceGraphic" in2="BackgroundImageFix" result="shape"/>
<feGaussianBlur stdDeviation="60" result="effect1_foregroundBlur_1729_5183"/>
</filter>
<filter id="filter1_d_1729_5183" x="124.32" y="148.23" width="157.273" height="110.156" filterUnits="userSpaceOnUse" color-interpolation-filters="sRGB">
<feFlood flood-opacity="0" result="BackgroundImageFix"/>
<feColorMatrix in="SourceAlpha" type="matrix" values="0 0 0 0 0 0 0 0 0 0 0 0 0 0 0 0 0 0 127 0" result="hardAlpha"/>
<feOffset/>
<feGaussianBlur stdDeviation="6.5"/>
<feComposite in2="hardAlpha" operator="out"/>
<feColorMatrix type="matrix" values="0 0 0 0 0 0 0 0 0 1 0 0 0 0 0.7 0 0 0 0.25 0"/>
<feBlend mode="normal" in2="BackgroundImageFix" result="effect1_dropShadow_1729_5183"/>
<feBlend mode="normal" in="SourceGraphic" in2="effect1_dropShadow_1729_5183" result="shape"/>
</filter>
<filter id="filter2_d_1729_5183" x="270.664" y="148.23" width="157.273" height="110.156" filterUnits="userSpaceOnUse" color-interpolation-filters="sRGB">
<feFlood flood-opacity="0" result="BackgroundImageFix"/>
<feColorMatrix in="SourceAlpha" type="matrix" values="0 0 0 0 0 0 0 0 0 0 0 0 0 0 0 0 0 0 127 0" result="hardAlpha"/>
<feOffset/>
<feGaussianBlur stdDeviation="6.5"/>
<feComposite in2="hardAlpha" operator="out"/>
<feColorMatrix type="matrix" values="0 0 0 0 0 0 0 0 0 1 0 0 0 0 0.7 0 0 0 0.25 0"/>
<feBlend mode="normal" in2="BackgroundImageFix" result="effect1_dropShadow_1729_5183"/>
<feBlend mode="normal" in="SourceGraphic" in2="effect1_dropShadow_1729_5183" result="shape"/>
</filter>
<filter id="filter3_d_1729_5183" x="113.531" y="158.609" width="327.645" height="66.0234" filterUnits="userSpaceOnUse" color-interpolation-filters="sRGB">
<feFlood flood-opacity="0" result="BackgroundImageFix"/>
<feColorMatrix in="SourceAlpha" type="matrix" values="0 0 0 0 0 0 0 0 0 0 0 0 0 0 0 0 0 0 127 0" result="hardAlpha"/>
<feOffset/>
<feGaussianBlur stdDeviation="6.5"/>
<feComposite in2="hardAlpha" operator="out"/>
<feColorMatrix type="matrix" values="0 0 0 0 0 0 0 0 0 1 0 0 0 0 0.7 0 0 0 0.25 0"/>
<feBlend mode="normal" in2="BackgroundImageFix" result="effect1_dropShadow_1729_5183"/>
<feBlend mode="normal" in="SourceGraphic" in2="effect1_dropShadow_1729_5183" result="shape"/>
</filter>
<filter id="filter4_b_1729_5183" x="186.184" y="128.016" width="179.891" height="121.043" filterUnits="userSpaceOnUse" color-interpolation-filters="sRGB">
<feFlood flood-opacity="0" result="BackgroundImageFix"/>
<feGaussianBlur in="BackgroundImage" stdDeviation="4"/>
<feComposite in2="SourceAlpha" operator="in" result="effect1_backgroundBlur_1729_5183"/>
<feBlend mode="normal" in="SourceGraphic" in2="effect1_backgroundBlur_1729_5183" result="shape"/>
</filter>
<filter id="filter5_f_1729_5183" x="230.594" y="186.621" width="91.0625" height="91.0625" filterUnits="userSpaceOnUse" color-interpolation-filters="sRGB">
<feFlood flood-opacity="0" result="BackgroundImageFix"/>
<feBlend mode="normal" in="SourceGraphic" in2="BackgroundImageFix" result="shape"/>
<feGaussianBlur stdDeviation="16" result="effect1_foregroundBlur_1729_5183"/>
</filter>
<filter id="filter6_f_1729_5183" x="86" y="229.156" width="182.227" height="19.5352" filterUnits="userSpaceOnUse" color-interpolation-filters="sRGB">
<feFlood flood-opacity="0" result="BackgroundImageFix"/>
<feBlend mode="normal" in="SourceGraphic" in2="BackgroundImageFix" result="shape"/>
<feGaussianBlur stdDeviation="2" result="effect1_foregroundBlur_1729_5183"/>
</filter>
<filter id="filter7_f_1729_5183" x="283.457" y="217.621" width="182.227" height="19.5352" filterUnits="userSpaceOnUse" color-interpolation-filters="sRGB">
<feFlood flood-opacity="0" result="BackgroundImageFix"/>
<feBlend mode="normal" in="SourceGraphic" in2="BackgroundImageFix" result="shape"/>
<feGaussianBlur stdDeviation="2" result="effect1_foregroundBlur_1729_5183"/>
</filter>
<linearGradient id="paint0_linear_1729_5183" x1="165.508" y1="24.213" x2="186.84" y2="98.3684" gradientUnits="userSpaceOnUse">
<stop stop-color="#5200FF"/>
<stop offset="1" stop-color="#101B45"/>
</linearGradient>
<linearGradient id="paint1_linear_1729_5183" x1="57.5491" y1="83.9084" x2="56.6295" y2="23.0345" gradientUnits="userSpaceOnUse">
<stop stop-color="#010101"/>
<stop offset="0.631454" stop-color="#010101" stop-opacity="0.600696"/>
<stop offset="1" stop-opacity="0"/>
</linearGradient>
<linearGradient id="paint2_linear_1729_5183" x1="65.512" y1="0" x2="65.512" y2="83.907" gradientUnits="userSpaceOnUse">
<stop offset="0.170133" stop-color="#53FDA9" stop-opacity="0"/>
<stop offset="1" stop-color="#53FDA9"/>
</linearGradient>
<linearGradient id="paint3_linear_1729_5183" x1="57.5491" y1="83.9084" x2="56.6295" y2="23.0345" gradientUnits="userSpaceOnUse">
<stop stop-color="#010101"/>
<stop offset="0.631454" stop-color="#010101" stop-opacity="0.600696"/>
<stop offset="1" stop-opacity="0"/>
</linearGradient>
<linearGradient id="paint4_linear_1729_5183" x1="65.512" y1="0" x2="65.512" y2="83.907" gradientUnits="userSpaceOnUse">
<stop offset="0.170133" stop-color="#53FDA9" stop-opacity="0"/>
<stop offset="1" stop-color="#53FDA9"/>
</linearGradient>
<linearGradient id="paint5_linear_1729_5183" x1="155.375" y1="180.307" x2="208.049" y2="180.307" gradientUnits="userSpaceOnUse">
<stop stop-color="#53FDA9"/>
<stop offset="1" stop-color="#53FDA9" stop-opacity="0"/>
</linearGradient>
<linearGradient id="paint6_linear_1729_5183" x1="155.375" y1="187.33" x2="208.049" y2="187.33" gradientUnits="userSpaceOnUse">
<stop stop-color="#53FDA9"/>
<stop offset="1" stop-color="#53FDA9" stop-opacity="0"/>
</linearGradient>
<linearGradient id="paint7_linear_1729_5183" x1="155.375" y1="194.683" x2="173.759" y2="194.683" gradientUnits="userSpaceOnUse">
<stop stop-color="#53FDA9"/>
<stop offset="1" stop-color="#53FDA9" stop-opacity="0"/>
</linearGradient>
<linearGradient id="paint8_linear_1729_5183" x1="344.344" y1="180.307" x2="397.018" y2="180.307" gradientUnits="userSpaceOnUse">
<stop stop-color="#53FDA9"/>
<stop offset="1" stop-color="#53FDA9" stop-opacity="0"/>
</linearGradient>
<linearGradient id="paint9_linear_1729_5183" x1="344.344" y1="187.33" x2="397.018" y2="187.33" gradientUnits="userSpaceOnUse">
<stop stop-color="#53FDA9"/>
<stop offset="1" stop-color="#53FDA9" stop-opacity="0"/>
</linearGradient>
<linearGradient id="paint10_linear_1729_5183" x1="344.344" y1="194.683" x2="362.728" y2="194.683" gradientUnits="userSpaceOnUse">
<stop stop-color="#53FDA9"/>
<stop offset="1" stop-color="#53FDA9" stop-opacity="0"/>
</linearGradient>
<linearGradient id="paint11_linear_1729_5183" x1="277.354" y1="172.109" x2="277.354" y2="211.133" gradientUnits="userSpaceOnUse">
<stop offset="0.170133" stop-color="#53FDA9" stop-opacity="0"/>
<stop offset="0.878479" stop-color="#53FDA9"/>
</linearGradient>
<linearGradient id="paint12_linear_1729_5183" x1="71.8746" y1="104.795" x2="71.8746" y2="11.7822" gradientUnits="userSpaceOnUse">
<stop stop-color="#010101"/>
<stop offset="0.631454" stop-color="#010101" stop-opacity="0.600696"/>
<stop offset="1" stop-opacity="0"/>
</linearGradient>
<linearGradient id="paint13_linear_1729_5183" x1="81.8197" y1="0" x2="81.8197" y2="104.794" gradientUnits="userSpaceOnUse">
<stop offset="0.170133" stop-color="#53FDA9" stop-opacity="0"/>
<stop offset="1" stop-color="#53FDA9"/>
</linearGradient>
<linearGradient id="paint14_linear_1729_5183" x1="353.817" y1="164.605" x2="293.033" y2="150.352" gradientUnits="userSpaceOnUse">
<stop stop-color="white"/>
<stop offset="1" stop-color="white" stop-opacity="0"/>
</linearGradient>
<linearGradient id="paint15_linear_1729_5183" x1="207.484" y1="46.4276" x2="154.623" y2="7.19509" gradientUnits="userSpaceOnUse">
<stop stop-color="white"/>
<stop offset="1" stop-color="white" stop-opacity="0"/>
</linearGradient>
<linearGradient id="paint16_linear_1729_5183" x1="269.427" y1="198.801" x2="269.427" y2="207.492" gradientUnits="userSpaceOnUse">
<stop stop-color="#53FDA9"/>
<stop offset="1" stop-opacity="0"/>
</linearGradient>
<linearGradient id="paint17_linear_1729_5183" x1="274.561" y1="201.97" x2="274.561" y2="256.5" gradientUnits="userSpaceOnUse">
<stop stop-color="#260671"/>
<stop offset="1" stop-opacity="0"/>
</linearGradient>
<linearGradient id="paint18_linear_1729_5183" x1="265.327" y1="238.735" x2="60.442" y2="176.746" gradientUnits="userSpaceOnUse">
<stop stop-color="#632BFF"/>
<stop offset="1" stop-opacity="0"/>
</linearGradient>
<linearGradient id="paint19_linear_1729_5183" x1="265.276" y1="236.001" x2="108.181" y2="278.433" gradientUnits="userSpaceOnUse">
<stop stop-color="#632BFF"/>
<stop offset="1" stop-opacity="0"/>
</linearGradient>
<linearGradient id="paint20_linear_1729_5183" x1="265.774" y1="233.643" x2="153.611" y2="256.013" gradientUnits="userSpaceOnUse">
<stop stop-color="#632BFF"/>
<stop offset="1" stop-opacity="0"/>
</linearGradient>
<linearGradient id="paint21_linear_1729_5183" x1="265.276" y1="241.792" x2="108.181" y2="199.36" gradientUnits="userSpaceOnUse">
<stop stop-color="#632BFF"/>
<stop offset="1" stop-opacity="0"/>
</linearGradient>
<linearGradient id="paint22_linear_1729_5183" x1="265.774" y1="244.182" x2="153.181" y2="222.877" gradientUnits="userSpaceOnUse">
<stop stop-color="#632BFF"/>
<stop offset="1" stop-opacity="0"/>
</linearGradient>
<linearGradient id="paint23_linear_1729_5183" x1="286.357" y1="227.577" x2="491.242" y2="289.566" gradientUnits="userSpaceOnUse">
<stop stop-color="#632BFF"/>
<stop offset="1" stop-opacity="0"/>
</linearGradient>
<linearGradient id="paint24_linear_1729_5183" x1="286.408" y1="230.311" x2="443.503" y2="187.879" gradientUnits="userSpaceOnUse">
<stop stop-color="#632BFF"/>
<stop offset="1" stop-opacity="0"/>
</linearGradient>
<linearGradient id="paint25_linear_1729_5183" x1="285.91" y1="232.67" x2="398.073" y2="210.3" gradientUnits="userSpaceOnUse">
<stop stop-color="#632BFF"/>
<stop offset="1" stop-opacity="0"/>
</linearGradient>
<linearGradient id="paint26_linear_1729_5183" x1="286.408" y1="224.521" x2="443.503" y2="266.953" gradientUnits="userSpaceOnUse">
<stop stop-color="#632BFF"/>
<stop offset="1" stop-opacity="0"/>
</linearGradient>
<linearGradient id="paint27_linear_1729_5183" x1="285.91" y1="222.13" x2="398.502" y2="243.436" gradientUnits="userSpaceOnUse">
<stop stop-color="#632BFF"/>
<stop offset="1" stop-opacity="0"/>
</linearGradient>
<linearGradient id="paint28_linear_1729_5183" x1="265.327" y1="238.735" x2="60.442" y2="176.746" gradientUnits="userSpaceOnUse">
<stop stop-color="#632BFF"/>
<stop offset="1" stop-opacity="0"/>
</linearGradient>
<linearGradient id="paint29_linear_1729_5183" x1="265.276" y1="236.001" x2="108.181" y2="278.433" gradientUnits="userSpaceOnUse">
<stop stop-color="#632BFF"/>
<stop offset="1" stop-opacity="0"/>
</linearGradient>
<linearGradient id="paint30_linear_1729_5183" x1="265.774" y1="233.643" x2="153.611" y2="256.013" gradientUnits="userSpaceOnUse">
<stop stop-color="#632BFF"/>
<stop offset="1" stop-opacity="0"/>
</linearGradient>
<linearGradient id="paint31_linear_1729_5183" x1="265.276" y1="241.792" x2="108.181" y2="199.36" gradientUnits="userSpaceOnUse">
<stop stop-color="#632BFF"/>
<stop offset="1" stop-opacity="0"/>
</linearGradient>
<linearGradient id="paint32_linear_1729_5183" x1="265.774" y1="244.182" x2="153.181" y2="222.877" gradientUnits="userSpaceOnUse">
<stop stop-color="#632BFF"/>
<stop offset="1" stop-opacity="0"/>
</linearGradient>
<linearGradient id="paint33_linear_1729_5183" x1="286.357" y1="227.577" x2="491.242" y2="289.566" gradientUnits="userSpaceOnUse">
<stop stop-color="#632BFF"/>
<stop offset="1" stop-opacity="0"/>
</linearGradient>
<linearGradient id="paint34_linear_1729_5183" x1="286.408" y1="230.311" x2="443.503" y2="187.879" gradientUnits="userSpaceOnUse">
<stop stop-color="#632BFF"/>
<stop offset="1" stop-opacity="0"/>
</linearGradient>
<linearGradient id="paint35_linear_1729_5183" x1="285.91" y1="232.67" x2="398.073" y2="210.3" gradientUnits="userSpaceOnUse">
<stop stop-color="#632BFF"/>
<stop offset="1" stop-opacity="0"/>
</linearGradient>
<linearGradient id="paint36_linear_1729_5183" x1="286.408" y1="224.521" x2="443.503" y2="266.953" gradientUnits="userSpaceOnUse">
<stop stop-color="#632BFF"/>
<stop offset="1" stop-opacity="0"/>
</linearGradient>
<linearGradient id="paint37_linear_1729_5183" x1="285.91" y1="222.13" x2="398.502" y2="243.436" gradientUnits="userSpaceOnUse">
<stop stop-color="#632BFF"/>
<stop offset="1" stop-opacity="0"/>
</linearGradient>
<linearGradient id="paint38_linear_1729_5183" x1="211.348" y1="169.775" x2="264.022" y2="169.775" gradientUnits="userSpaceOnUse">
<stop stop-color="#53FDA9"/>
<stop offset="1" stop-color="#53FDA9" stop-opacity="0"/>
</linearGradient>
<linearGradient id="paint39_linear_1729_5183" x1="211.348" y1="176.799" x2="264.022" y2="176.799" gradientUnits="userSpaceOnUse">
<stop stop-color="#53FDA9"/>
<stop offset="1" stop-color="#53FDA9" stop-opacity="0"/>
</linearGradient>
<linearGradient id="paint40_linear_1729_5183" x1="211.348" y1="184.152" x2="229.732" y2="184.152" gradientUnits="userSpaceOnUse">
<stop stop-color="#53FDA9"/>
<stop offset="1" stop-color="#53FDA9" stop-opacity="0"/>
</linearGradient>
<linearGradient id="paint41_linear_1729_5183" x1="284.937" y1="169.775" x2="337.612" y2="169.775" gradientUnits="userSpaceOnUse">
<stop stop-color="#53FDA9"/>
<stop offset="1" stop-color="#53FDA9" stop-opacity="0"/>
</linearGradient>
<linearGradient id="paint42_linear_1729_5183" x1="284.937" y1="176.799" x2="337.612" y2="176.799" gradientUnits="userSpaceOnUse">
<stop stop-color="#53FDA9"/>
<stop offset="1" stop-color="#53FDA9" stop-opacity="0"/>
</linearGradient>
<linearGradient id="paint43_linear_1729_5183" x1="284.937" y1="184.152" x2="303.322" y2="184.152" gradientUnits="userSpaceOnUse">
<stop stop-color="#53FDA9"/>
<stop offset="1" stop-color="#53FDA9" stop-opacity="0"/>
</linearGradient>
</defs>
</svg>
