<svg width="460" height="264" viewBox="0 0 460 264" fill="none" xmlns="http://www.w3.org/2000/svg">
<g filter="url(#filter0_d_4479_23189)">
<rect width="131.024" height="83.907" rx="3" transform="matrix(1 8.76912e-09 -1.59636e-07 -1 91.4434 196.262)" fill="url(#paint0_linear_4479_23189)" fill-opacity="0.1" shape-rendering="crispEdges"/>
<rect width="131.024" height="83.907" rx="3" transform="matrix(1 8.76912e-09 -1.59636e-07 -1 91.4434 196.262)" stroke="url(#paint1_linear_4479_23189)" stroke-width="0.25" stroke-linecap="round" stroke-linejoin="round" shape-rendering="crispEdges"/>
</g>
<g filter="url(#filter1_d_4479_23189)">
<rect width="131.024" height="83.907" rx="3" transform="matrix(1 8.76912e-09 -1.59636e-07 -1 237.791 196.262)" fill="url(#paint2_linear_4479_23189)" fill-opacity="0.1" shape-rendering="crispEdges"/>
<rect width="131.024" height="83.907" rx="3" transform="matrix(1 8.76912e-09 -1.59636e-07 -1 237.791 196.262)" stroke="url(#paint3_linear_4479_23189)" stroke-width="0.25" stroke-linecap="round" stroke-linejoin="round" shape-rendering="crispEdges"/>
</g>
<rect x="109.377" y="129.551" width="55.9728" height="3.51077" fill="url(#paint4_linear_4479_23189)"/>
<rect x="109.377" y="136.574" width="55.9728" height="3.51077" fill="url(#paint5_linear_4479_23189)"/>
<rect x="109.377" y="145.07" width="19.5356" height="1.22533" fill="url(#paint6_linear_4479_23189)"/>
<rect x="298.346" y="129.551" width="55.9728" height="3.51077" fill="url(#paint7_linear_4479_23189)"/>
<rect x="298.346" y="136.574" width="55.9728" height="3.51077" fill="url(#paint8_linear_4479_23189)"/>
<rect x="298.346" y="145.07" width="19.5356" height="1.22533" fill="url(#paint9_linear_4479_23189)"/>
<g filter="url(#filter2_d_4479_23189)">
<ellipse cx="231.354" cy="142.621" rx="150.322" ry="19.5118" stroke="url(#paint10_linear_4479_23189)" stroke-linecap="round" stroke-linejoin="round" stroke-dasharray="2 2" shape-rendering="crispEdges"/>
</g>
<g filter="url(#filter3_b_4479_23189)">
<rect width="163.639" height="104.794" rx="3" transform="matrix(1 8.76912e-09 -1.59636e-07 -1 148.309 191.934)" fill="url(#paint11_linear_4479_23189)" fill-opacity="0.5"/>
<rect width="163.639" height="104.794" rx="3" transform="matrix(1 8.76912e-09 -1.59636e-07 -1 148.309 191.934)" stroke="url(#paint12_linear_4479_23189)" stroke-width="0.25" stroke-linecap="round" stroke-linejoin="round"/>
</g>
<path d="M320.639 73.9234C320.735 74.0588 320.827 74.197 320.915 74.3382L320.809 74.4042C320.852 74.4736 320.894 74.5438 320.935 74.6147C320.976 74.686 321.016 74.7579 321.055 74.8303L321.165 74.7713C321.244 74.9184 321.318 75.0679 321.387 75.2197L321.273 75.2715C321.341 75.4209 321.405 75.5726 321.463 75.7267L321.58 75.6821C321.639 75.8367 321.694 75.9935 321.743 76.1526L321.624 76.1899C321.673 76.3453 321.717 76.5028 321.757 76.6626L321.878 76.6324C321.918 76.7945 321.954 76.9587 321.986 77.1251L321.863 77.1483C321.893 77.3077 321.919 77.469 321.941 77.6324L322.065 77.6158C322.086 77.7785 322.104 77.9431 322.118 78.1096L321.993 78.12C322.007 78.2844 322.017 78.4508 322.022 78.6191L322.147 78.6148C322.153 78.7794 322.155 78.9458 322.153 79.1139L322.028 79.1126C322.026 79.2737 322.021 79.4365 322.013 79.601L322.137 79.6075C322.129 79.7736 322.117 79.9414 322.101 80.1107L321.977 80.0993C321.962 80.2644 321.943 80.4311 321.921 80.5994L322.045 80.6154C322.025 80.7754 322.001 80.9367 321.975 81.0993L321.851 81.0792C321.825 81.2405 321.796 81.4032 321.764 81.5672L321.887 81.5911C321.854 81.7564 321.819 81.923 321.781 82.0908L321.659 82.0631C321.623 82.2217 321.585 82.3815 321.543 82.5425L321.664 82.5735C321.624 82.7309 321.582 82.8894 321.536 83.049L321.416 83.0149C321.371 83.1735 321.324 83.3332 321.274 83.494L321.394 83.5309C321.344 83.6926 321.291 83.8554 321.236 84.0192L321.118 83.9795C321.067 84.1329 321.013 84.2873 320.958 84.4425L321.075 84.4847C321.02 84.6379 320.964 84.7921 320.905 84.9471L320.788 84.9027C320.729 85.057 320.668 85.2121 320.606 85.3682L320.722 85.4148C320.659 85.5716 320.594 85.7292 320.527 85.8877L320.411 85.839C320.381 85.9111 320.35 85.9834 320.319 86.0559C320.284 86.1351 320.25 86.2145 320.214 86.2941L320.329 86.3447C320.263 86.4931 320.196 86.6423 320.126 86.7921L320.013 86.7397C319.944 86.889 319.873 87.039 319.801 87.1897L319.914 87.2437C319.841 87.395 319.767 87.547 319.691 87.6996L319.579 87.644C319.504 87.7952 319.427 87.9471 319.348 88.0997L319.46 88.1569C319.386 88.3002 319.31 88.4441 319.234 88.5886L319.123 88.53C319.047 88.6741 318.969 88.8187 318.89 88.964L318.999 89.0239C318.92 89.1696 318.839 89.3158 318.756 89.4627L318.647 89.4014C318.618 89.4539 318.588 89.5065 318.558 89.5591C318.505 89.6533 318.451 89.7477 318.396 89.8424L318.504 89.9049C318.42 90.0505 318.335 90.1968 318.248 90.3435L318.14 90.2799C318.098 90.3521 318.055 90.4244 318.011 90.4968C317.971 90.5638 317.931 90.6309 317.89 90.6981L317.997 90.7628C317.912 90.9031 317.826 91.0439 317.739 91.1851L317.632 91.1193C317.545 91.2602 317.457 91.4016 317.367 91.5435L317.473 91.6103C317.383 91.7524 317.292 91.8951 317.2 92.0383L317.095 91.9705C317.003 92.1129 316.91 92.2558 316.816 92.3991L316.92 92.4678C316.831 92.603 316.741 92.7385 316.65 92.8745L316.546 92.805C316.456 92.9407 316.364 93.0768 316.271 93.2134L316.374 93.2837C316.281 93.4205 316.187 93.5577 316.092 93.6953L315.989 93.6242C315.894 93.7615 315.798 93.8992 315.7 94.0373L315.803 94.1093C315.705 94.2477 315.607 94.3864 315.507 94.5256L315.406 94.4529C315.309 94.5877 315.212 94.7228 315.114 94.8583L315.215 94.9317C315.119 95.0635 315.023 95.1957 314.925 95.3282L314.824 95.2541C314.727 95.3864 314.629 95.519 314.53 95.6519L314.63 95.7267C314.531 95.8598 314.43 95.9933 314.329 96.1272L314.229 96.0518C314.128 96.1854 314.026 96.3194 313.924 96.4537L314.023 96.5297C313.92 96.6641 313.816 96.799 313.711 96.9341L313.612 96.8575C313.511 96.9877 313.409 97.1182 313.307 97.249L313.405 97.3262C313.304 97.4546 313.203 97.5833 313.1 97.7123L313.002 97.6346C312.9 97.7634 312.797 97.8925 312.693 98.0218L312.79 98.1001C312.686 98.2297 312.581 98.3595 312.476 98.4896L312.379 98.4108L312.312 98.4933C312.228 98.5958 312.144 98.6985 312.06 98.8014L312.156 98.8807C312.049 99.0114 311.941 99.1423 311.832 99.2735L311.736 99.1937C311.706 99.23 311.676 99.2665 311.645 99.3029C311.638 99.3113 311.631 99.3197 311.624 99.3281C311.555 99.4115 311.485 99.4951 311.415 99.5787L311.511 99.659C311.406 99.7841 311.3 99.9094 311.194 100.035L311.099 99.9542C310.992 100.08 310.886 100.205 310.778 100.331L310.873 100.412C310.765 100.538 310.657 100.665 310.548 100.791L310.453 100.709C310.344 100.836 310.234 100.962 310.124 101.089L310.218 101.171C310.108 101.298 309.997 101.425 309.885 101.553L309.791 101.47C309.679 101.598 309.566 101.725 309.453 101.853L309.547 101.936C309.438 102.058 309.329 102.181 309.219 102.303L309.126 102.22C309.073 102.28 309.019 102.34 308.965 102.4C308.909 102.462 308.853 102.525 308.797 102.587L308.89 102.671C308.779 102.793 308.668 102.916 308.556 103.039L308.464 102.955C308.352 103.078 308.24 103.201 308.127 103.325L308.219 103.409C308.106 103.532 307.992 103.656 307.878 103.78L307.786 103.695C307.672 103.819 307.557 103.943 307.442 104.067L307.533 104.152C307.418 104.276 307.302 104.4 307.186 104.524L307.095 104.439C307.034 104.503 306.974 104.568 306.913 104.632C306.861 104.687 306.81 104.742 306.758 104.796L306.849 104.882C306.737 105.001 306.623 105.121 306.509 105.241L306.419 105.155C306.305 105.274 306.191 105.394 306.076 105.514L306.166 105.601C306.051 105.721 305.935 105.841 305.819 105.961L305.729 105.875C305.698 105.907 305.667 105.939 305.636 105.972C305.625 105.983 305.615 105.993 305.604 106.004C305.53 106.082 305.455 106.159 305.38 106.236L305.469 106.323C305.352 106.444 305.234 106.565 305.116 106.686L305.027 106.599C304.908 106.72 304.79 106.841 304.67 106.962L304.759 107.05C304.644 107.167 304.529 107.284 304.413 107.401L304.324 107.313C304.208 107.43 304.092 107.547 303.976 107.663L304.064 107.752C303.948 107.869 303.831 107.986 303.713 108.103L303.625 108.015C303.507 108.132 303.389 108.249 303.271 108.366L303.359 108.455C303.24 108.573 303.121 108.69 303.002 108.808L302.914 108.719C302.795 108.837 302.675 108.955 302.554 109.073L302.642 109.162C302.521 109.28 302.4 109.398 302.279 109.517L302.191 109.427C302.072 109.544 301.952 109.66 301.831 109.777L301.918 109.867C301.8 109.981 301.682 110.095 301.563 110.209L301.477 110.119C301.358 110.233 301.239 110.348 301.119 110.462L301.206 110.552C301.086 110.667 300.966 110.782 300.846 110.896L300.759 110.806C300.639 110.921 300.518 111.035 300.397 111.15L300.483 111.241C300.361 111.356 300.239 111.471 300.117 111.586L300.031 111.495C299.909 111.61 299.786 111.726 299.663 111.841L299.749 111.932C299.625 112.048 299.502 112.163 299.378 112.279L299.292 112.187C299.171 112.3 299.05 112.413 298.928 112.527L299.013 112.618C298.892 112.73 298.771 112.842 298.65 112.954L298.565 112.862C298.444 112.974 298.322 113.086 298.2 113.198L298.285 113.29C298.162 113.402 298.04 113.514 297.917 113.626L297.833 113.534C297.71 113.646 297.586 113.759 297.463 113.871L297.547 113.964C297.423 114.076 297.299 114.189 297.174 114.301L297.09 114.209C296.966 114.321 296.841 114.434 296.716 114.547L296.799 114.64C296.674 114.753 296.548 114.866 296.422 114.979L296.338 114.886C296.308 114.913 296.277 114.94 296.247 114.968C296.233 114.98 296.219 114.992 296.205 115.005C296.126 115.076 296.046 115.147 295.966 115.218L296.05 115.311C295.927 115.421 295.804 115.53 295.68 115.64L295.597 115.547C295.474 115.656 295.35 115.766 295.226 115.875L295.309 115.969C295.184 116.079 295.06 116.189 294.935 116.299L294.852 116.205C294.727 116.315 294.602 116.425 294.476 116.535L294.559 116.629C294.433 116.739 294.307 116.849 294.181 116.959L294.098 116.865C293.972 116.975 293.845 117.085 293.718 117.196L293.8 117.29C293.673 117.4 293.545 117.511 293.418 117.621L293.336 117.527C293.209 117.636 293.082 117.746 292.954 117.856L293.036 117.951C292.911 118.058 292.786 118.165 292.661 118.272L292.58 118.178C292.454 118.285 292.329 118.392 292.203 118.5L292.284 118.595C292.158 118.702 292.032 118.81 291.905 118.917L291.824 118.822C291.772 118.867 291.719 118.911 291.667 118.956C291.658 118.963 291.648 118.971 291.639 118.979C291.625 118.991 291.611 119.003 291.597 119.015C291.597 119.015 291.597 119.015 291.597 119.015C291.546 119.058 291.495 119.102 291.443 119.145L291.524 119.24C291.397 119.348 291.269 119.456 291.141 119.564L291.06 119.468C290.933 119.576 290.804 119.684 290.676 119.792L290.756 119.888C290.627 119.996 290.498 120.104 290.369 120.212L290.289 120.116C290.217 120.176 290.145 120.236 290.072 120.297C290.062 120.305 290.052 120.314 290.041 120.322C289.994 120.362 289.947 120.401 289.9 120.44L289.98 120.536C289.853 120.642 289.725 120.749 289.597 120.855L289.517 120.759C289.39 120.864 289.263 120.969 289.136 121.074L289.215 121.171C289.088 121.276 288.96 121.381 288.832 121.487L288.752 121.39C288.624 121.495 288.496 121.601 288.367 121.706L288.447 121.803C288.318 121.908 288.189 122.014 288.06 122.119L287.981 122.023C287.851 122.128 287.722 122.234 287.592 122.339L287.671 122.436C287.541 122.542 287.411 122.648 287.28 122.754L287.201 122.656C287.071 122.762 286.94 122.868 286.809 122.974L286.888 123.071C286.757 123.177 286.625 123.283 286.493 123.389L286.415 123.291C286.286 123.395 286.157 123.499 286.028 123.602L286.106 123.7C285.977 123.803 285.848 123.906 285.719 124.009L285.641 123.912C285.512 124.015 285.382 124.118 285.252 124.221L285.33 124.319C285.2 124.423 285.07 124.526 284.939 124.629L284.862 124.531C284.731 124.635 284.601 124.738 284.47 124.842L284.547 124.94C284.416 125.043 284.285 125.147 284.153 125.25L284.076 125.152C283.945 125.255 283.813 125.359 283.681 125.463L283.758 125.561C283.626 125.665 283.493 125.768 283.361 125.872L283.284 125.773C283.151 125.877 283.018 125.981 282.885 126.084L282.962 126.183C282.831 126.285 282.7 126.387 282.568 126.489L282.492 126.39C282.362 126.491 282.231 126.592 282.1 126.694L282.177 126.793C282.046 126.894 281.914 126.995 281.783 127.096L281.707 126.997C281.575 127.099 281.444 127.2 281.312 127.301L281.388 127.4C281.256 127.502 281.124 127.603 280.991 127.705L280.915 127.605L280.813 127.683C280.715 127.759 280.616 127.834 280.517 127.909L280.593 128.009C280.46 128.11 280.327 128.212 280.193 128.313L280.118 128.214C279.984 128.315 279.851 128.417 279.717 128.518L279.792 128.618C279.658 128.719 279.524 128.821 279.389 128.923L279.314 128.823L279.166 128.935C279.082 128.998 278.998 129.062 278.913 129.125L278.988 129.225C278.857 129.324 278.725 129.423 278.592 129.523L278.517 129.423C278.385 129.522 278.252 129.621 278.12 129.721L278.195 129.821C278.062 129.92 277.929 130.019 277.795 130.119L277.721 130.019C277.587 130.118 277.454 130.217 277.32 130.317L277.395 130.417C277.261 130.516 277.127 130.616 276.993 130.715L276.918 130.615C276.784 130.714 276.65 130.814 276.515 130.913L276.589 131.014C276.455 131.113 276.32 131.212 276.185 131.312L276.111 131.211C275.975 131.311 275.84 131.41 275.704 131.51L275.778 131.61C275.643 131.71 275.507 131.81 275.371 131.909L275.297 131.808C275.163 131.906 275.029 132.004 274.895 132.102L274.969 132.203C274.835 132.3 274.702 132.397 274.568 132.495L274.494 132.394C274.36 132.491 274.226 132.588 274.091 132.686L274.165 132.787C274.03 132.884 273.896 132.982 273.761 133.079L273.688 132.978C273.553 133.075 273.418 133.173 273.282 133.27L273.355 133.372C273.22 133.469 273.084 133.567 272.949 133.664L272.876 133.563C272.74 133.66 272.604 133.757 272.468 133.855L272.541 133.957C272.404 134.054 272.268 134.152 272.131 134.249L272.059 134.147C271.922 134.245 271.785 134.342 271.648 134.44L271.721 134.542C271.584 134.639 271.447 134.737 271.309 134.834L271.237 134.732C271.102 134.828 270.967 134.923 270.832 135.019L270.904 135.121C270.769 135.216 270.634 135.312 270.498 135.407L270.426 135.305C270.291 135.401 270.155 135.496 270.019 135.592L270.091 135.694C269.955 135.789 269.819 135.885 269.683 135.981L269.611 135.878C269.56 135.914 269.508 135.95 269.457 135.986C269.372 136.046 269.287 136.105 269.201 136.165L269.273 136.267C269.136 136.363 268.999 136.458 268.862 136.554L268.791 136.451C268.654 136.547 268.516 136.642 268.379 136.738L268.45 136.84C268.313 136.936 268.175 137.032 268.037 137.127L267.966 137.024C267.828 137.12 267.69 137.215 267.551 137.311L267.622 137.414C267.484 137.509 267.346 137.605 267.207 137.7L267.136 137.597C267 137.691 266.864 137.784 266.727 137.878L266.798 137.981C266.662 138.075 266.525 138.169 266.388 138.262L266.317 138.159C266.18 138.253 266.043 138.346 265.906 138.44L265.977 138.543C265.839 138.637 265.702 138.731 265.564 138.824L265.494 138.721C265.356 138.815 265.219 138.908 265.081 139.002L265.151 139.105C265.013 139.199 264.875 139.293 264.736 139.386L264.666 139.283C264.528 139.377 264.389 139.47 264.25 139.564L264.32 139.667C264.182 139.761 264.043 139.855 263.903 139.948L263.834 139.844C263.695 139.938 263.555 140.032 263.416 140.125L263.485 140.229C263.346 140.323 263.206 140.416 263.066 140.51L262.997 140.406C262.859 140.498 262.721 140.59 262.583 140.682L262.653 140.786C262.515 140.878 262.377 140.97 262.239 141.062L262.17 140.958C262.031 141.049 261.893 141.141 261.755 141.233L261.824 141.337C261.685 141.429 261.547 141.521 261.408 141.613L261.339 141.509C261.2 141.6 261.061 141.692 260.922 141.784L260.991 141.888C260.852 141.98 260.712 142.072 260.573 142.164L260.504 142.059C260.364 142.151 260.225 142.243 260.085 142.334L260.154 142.439C260.014 142.531 259.874 142.622 259.733 142.714L259.665 142.609C259.525 142.701 259.384 142.793 259.244 142.884L259.312 142.989C259.172 143.081 259.031 143.172 258.89 143.264L258.822 143.159C258.682 143.25 258.542 143.341 258.402 143.432L258.47 143.537C258.331 143.627 258.192 143.717 258.053 143.807L257.985 143.702C257.846 143.792 257.706 143.882 257.567 143.972L257.635 144.077C257.495 144.167 257.355 144.257 257.215 144.347L257.148 144.242C257.008 144.332 256.868 144.422 256.728 144.512L256.795 144.617C256.655 144.707 256.514 144.797 256.374 144.887L256.306 144.782C256.166 144.871 256.025 144.961 255.884 145.051L255.951 145.157C255.811 145.246 255.67 145.336 255.528 145.426L255.461 145.321C255.32 145.41 255.179 145.5 255.037 145.59L255.104 145.696C254.963 145.785 254.821 145.875 254.679 145.965L254.612 145.859C254.47 145.949 254.328 146.039 254.186 146.128L254.253 146.234C254.113 146.322 253.973 146.411 253.832 146.499L253.766 146.393C253.626 146.481 253.485 146.57 253.344 146.658L253.411 146.764C253.27 146.852 253.129 146.94 252.988 147.028L252.922 146.923C252.866 146.958 252.809 146.993 252.753 147.028C252.668 147.081 252.584 147.134 252.499 147.187L252.565 147.293C252.424 147.381 252.282 147.469 252.141 147.557L252.075 147.451C251.933 147.539 251.792 147.627 251.65 147.715L251.716 147.822C251.574 147.91 251.432 147.998 251.29 148.086L251.224 147.979C251.143 148.029 251.062 148.079 250.981 148.129C250.939 148.155 250.897 148.181 250.855 148.208C250.835 148.219 250.816 148.231 250.797 148.243L250.863 148.349C250.72 148.437 250.578 148.525 250.435 148.613L250.369 148.507C250.227 148.595 250.084 148.682 249.941 148.77L250.006 148.877C249.864 148.964 249.721 149.052 249.578 149.139L249.513 149.032L249.089 149.292L249.154 149.398C249.012 149.485 248.87 149.571 248.729 149.658L248.664 149.551L248.237 149.81L248.302 149.917C248.16 150.003 248.018 150.09 247.875 150.176L247.81 150.069C247.668 150.155 247.525 150.242 247.383 150.328L247.447 150.435C247.305 150.521 247.162 150.607 247.019 150.693L246.954 150.586C246.811 150.672 246.668 150.759 246.525 150.845L246.589 150.952C246.446 151.038 246.302 151.124 246.159 151.21L246.094 151.103C245.951 151.189 245.807 151.275 245.663 151.361L245.727 151.468C245.583 151.554 245.439 151.64 245.295 151.726L245.231 151.618L245.015 151.747L244.816 151.865L244.88 151.973C244.747 152.052 244.614 152.131 244.481 152.209L244.417 152.102L244.019 152.338L244.082 152.446C243.949 152.524 243.816 152.603 243.683 152.681L243.62 152.574L243.22 152.809L243.284 152.917C243.151 152.995 243.018 153.073 242.884 153.151L242.821 153.044L242.421 153.278L242.484 153.386C242.351 153.464 242.218 153.542 242.084 153.62L242.021 153.512L241.621 153.745L241.684 153.853C241.55 153.931 241.417 154.009 241.283 154.086L241.22 153.978L240.82 154.211L240.882 154.319C240.749 154.396 240.615 154.474 240.481 154.551L240.418 154.443L240.218 154.559L240.002 154.683L240.065 154.791C239.921 154.874 239.777 154.957 239.633 155.04L239.571 154.931L239.14 155.179L239.202 155.287C239.059 155.37 238.915 155.452 238.771 155.534L238.709 155.426L238.279 155.671L238.341 155.78C238.197 155.862 238.053 155.944 237.909 156.026L237.848 155.917L237.415 156.163L237.477 156.272C237.332 156.353 237.188 156.435 237.044 156.517L236.982 156.408L236.55 156.652L236.612 156.761C236.467 156.842 236.323 156.923 236.179 157.004L236.118 156.896L235.686 157.138L235.747 157.247C235.602 157.329 235.457 157.41 235.313 157.491L235.251 157.382L234.817 157.624L234.878 157.733C234.734 157.814 234.589 157.895 234.444 157.975L234.384 157.866L233.95 158.107L234.011 158.216C233.866 158.296 233.722 158.376 233.577 158.456L233.517 158.347L233.081 158.588L233.141 158.697C232.996 158.777 232.851 158.857 232.706 158.937L232.645 158.828L232.21 159.067L232.27 159.176C232.125 159.256 231.98 159.335 231.835 159.415L231.775 159.305L231.34 159.543L231.4 159.652C231.254 159.732 231.109 159.811 230.963 159.891L230.903 159.781L230.466 160.018L230.526 160.128C230.38 160.207 230.234 160.286 230.089 160.365L230.029 160.255L229.593 160.49L229.652 160.6C229.507 160.679 229.361 160.757 229.216 160.835L229.157 160.725C229.011 160.804 228.864 160.882 228.718 160.961L228.777 161.071C228.631 161.149 228.485 161.228 228.339 161.306L228.28 161.196C228.134 161.274 227.988 161.352 227.842 161.429L227.9 161.54C227.754 161.618 227.608 161.695 227.462 161.773L227.404 161.663C227.258 161.74 227.112 161.818 226.966 161.895L227.025 162.005C226.878 162.083 226.731 162.161 226.585 162.238L226.526 162.128C226.38 162.205 226.233 162.282 226.086 162.36L226.145 162.47C225.998 162.547 225.851 162.625 225.705 162.702L225.647 162.591C225.5 162.668 225.354 162.745 225.207 162.821L225.265 162.932C225.119 163.009 224.973 163.085 224.826 163.162L224.768 163.051C224.621 163.128 224.474 163.204 224.327 163.281L224.385 163.392C224.238 163.468 224.09 163.545 223.943 163.621L223.886 163.51C223.739 163.587 223.592 163.663 223.445 163.739L223.502 163.85C223.355 163.926 223.208 164.002 223.061 164.077L223.004 163.966C222.857 164.042 222.71 164.118 222.564 164.193L222.621 164.304C222.473 164.38 222.325 164.456 222.178 164.532L222.121 164.42C221.973 164.496 221.826 164.572 221.678 164.647L221.735 164.758C221.587 164.834 221.44 164.909 221.292 164.984L221.236 164.873C221.088 164.948 220.941 165.023 220.794 165.098L220.85 165.209C220.703 165.284 220.556 165.359 220.408 165.433L220.352 165.322C220.204 165.397 220.056 165.471 219.907 165.546L219.964 165.658C219.816 165.733 219.667 165.807 219.519 165.882L219.463 165.77C219.315 165.844 219.167 165.919 219.019 165.993L219.075 166.105C218.928 166.179 218.78 166.253 218.632 166.327L218.576 166.215C218.428 166.289 218.281 166.362 218.133 166.436L218.189 166.548C218.04 166.622 217.891 166.696 217.742 166.77L217.687 166.658C217.538 166.732 217.39 166.805 217.241 166.879L217.297 166.991C217.148 167.064 217 167.138 216.851 167.211L216.796 167.099C216.746 167.123 216.696 167.148 216.646 167.173C216.548 167.221 216.45 167.269 216.352 167.318L216.407 167.43C216.258 167.503 216.11 167.576 215.961 167.648L215.906 167.536C215.757 167.609 215.608 167.682 215.459 167.755L215.514 167.867C215.365 167.94 215.216 168.013 215.067 168.085L215.012 167.973C214.863 168.046 214.714 168.118 214.566 168.19L214.62 168.303C214.472 168.375 214.323 168.447 214.174 168.519L214.12 168.406C214.053 168.438 213.987 168.47 213.92 168.502C213.838 168.542 213.755 168.582 213.673 168.622L213.727 168.734C213.577 168.807 213.428 168.879 213.278 168.95L213.224 168.838C213.075 168.91 212.925 168.981 212.776 169.053L212.83 169.165C212.681 169.237 212.531 169.308 212.382 169.379L212.328 169.267C212.179 169.338 212.03 169.409 211.881 169.479L211.935 169.592C211.785 169.664 211.635 169.735 211.485 169.806L211.432 169.693C211.351 169.731 211.27 169.769 211.189 169.807C211.12 169.84 211.051 169.873 210.982 169.905L211.035 170.018C210.885 170.089 210.736 170.16 210.586 170.23L210.533 170.117C210.383 170.187 210.233 170.258 210.084 170.328L210.137 170.441C209.987 170.511 209.838 170.581 209.688 170.651L209.635 170.537C209.485 170.608 209.334 170.678 209.184 170.748L209.237 170.861C209.086 170.931 208.936 171.001 208.785 171.071L208.733 170.957C208.582 171.027 208.432 171.097 208.282 171.166L208.334 171.279C208.184 171.349 208.034 171.418 207.884 171.487L207.832 171.373C207.682 171.443 207.532 171.512 207.381 171.58L207.434 171.694C207.282 171.763 207.131 171.832 206.98 171.901L206.928 171.788C206.778 171.857 206.627 171.925 206.476 171.994L206.528 172.108C206.377 172.176 206.226 172.245 206.076 172.313L206.024 172.199C205.874 172.267 205.723 172.335 205.573 172.403L205.625 172.517C205.473 172.585 205.322 172.653 205.171 172.721L205.12 172.607C204.968 172.675 204.817 172.743 204.666 172.811L204.717 172.925C204.566 172.993 204.414 173.061 204.263 173.128L204.212 173.014C204.061 173.081 203.91 173.149 203.759 173.216L203.81 173.33C203.659 173.397 203.508 173.464 203.358 173.531L203.307 173.416C203.155 173.484 203.003 173.551 202.851 173.618L202.902 173.732C202.75 173.799 202.598 173.866 202.446 173.933L202.396 173.818C202.244 173.885 202.093 173.951 201.941 174.017L201.991 174.132C201.84 174.198 201.689 174.264 201.537 174.33L201.488 174.216C201.336 174.282 201.184 174.348 201.032 174.414L201.082 174.528C200.929 174.594 200.777 174.66 200.625 174.726L200.575 174.611C200.423 174.677 200.271 174.743 200.119 174.808L200.168 174.923C200.016 174.988 199.864 175.053 199.712 175.118L199.663 175.004C199.511 175.069 199.36 175.133 199.208 175.198L199.257 175.313C199.104 175.378 198.951 175.443 198.798 175.508L198.749 175.393C198.597 175.458 198.444 175.523 198.291 175.587L198.34 175.702C198.188 175.767 198.035 175.831 197.883 175.895L197.834 175.78C197.781 175.802 197.728 175.825 197.675 175.847C197.576 175.889 197.477 175.93 197.378 175.972L197.426 176.087C197.273 176.151 197.12 176.215 196.968 176.279L196.919 176.164C196.766 176.228 196.613 176.291 196.46 176.355L196.508 176.47C196.354 176.534 196.201 176.597 196.048 176.661L196.001 176.545C195.944 176.568 195.888 176.592 195.832 176.615C195.735 176.655 195.639 176.694 195.543 176.734L195.59 176.85C195.437 176.912 195.285 176.975 195.132 177.038L195.085 176.922C194.931 176.985 194.777 177.048 194.623 177.111L194.67 177.226C194.516 177.289 194.363 177.351 194.209 177.414L194.162 177.298C194.009 177.36 193.856 177.422 193.703 177.484L193.749 177.6C193.596 177.662 193.443 177.723 193.291 177.785L193.244 177.669C193.09 177.731 192.936 177.792 192.782 177.854L192.828 177.97C192.674 178.032 192.519 178.093 192.365 178.154L192.319 178.038C192.165 178.099 192.011 178.16 191.858 178.221L191.904 178.337C191.75 178.398 191.597 178.459 191.443 178.519L191.398 178.403C191.243 178.464 191.089 178.524 190.935 178.584L190.981 178.701C190.826 178.762 190.671 178.822 190.516 178.882L190.471 178.766C190.317 178.826 190.162 178.886 190.008 178.946L190.053 179.062C189.899 179.122 189.745 179.181 189.591 179.241L189.546 179.124C189.392 179.184 189.238 179.243 189.084 179.302L189.128 179.419C188.973 179.478 188.818 179.538 188.662 179.597L188.618 179.48C188.463 179.539 188.308 179.598 188.153 179.657L188.198 179.774C188.043 179.832 187.888 179.891 187.734 179.949L187.69 179.832C187.535 179.89 187.381 179.948 187.227 180.006L187.271 180.123C187.115 180.182 186.959 180.24 186.803 180.298L186.76 180.181C186.604 180.239 186.449 180.296 186.294 180.354L186.337 180.471C186.182 180.529 186.027 180.586 185.872 180.643L185.829 180.526C185.674 180.583 185.519 180.64 185.365 180.696L185.408 180.813C185.251 180.871 185.095 180.928 184.939 180.985L184.896 180.867C184.74 180.924 184.584 180.981 184.428 181.037L184.471 181.154C184.315 181.211 184.16 181.267 184.004 181.323L183.962 181.205C183.807 181.261 183.652 181.316 183.497 181.372L183.539 181.489C183.382 181.545 183.225 181.601 183.069 181.657L183.027 181.539C182.87 181.594 182.714 181.65 182.558 181.705L182.599 181.823C182.443 181.878 182.287 181.933 182.131 181.987L182.09 181.869C181.934 181.924 181.779 181.978 181.624 182.032L181.665 182.15C181.507 182.205 181.35 182.259 181.193 182.313L181.152 182.195C180.995 182.25 180.839 182.304 180.682 182.357L180.722 182.475C180.566 182.529 180.409 182.583 180.253 182.636L180.213 182.518C180.057 182.571 179.901 182.624 179.745 182.676L179.785 182.795C179.627 182.848 179.47 182.901 179.312 182.954L179.272 182.836C179.115 182.888 178.957 182.941 178.8 182.993L178.84 183.112C178.683 183.164 178.526 183.216 178.369 183.268L178.33 183.149C178.174 183.201 178.017 183.253 177.861 183.304L177.9 183.423C177.741 183.475 177.583 183.526 177.425 183.578L177.386 183.459C177.228 183.51 177.071 183.562 176.913 183.612L176.952 183.731C176.794 183.782 176.637 183.833 176.48 183.883L176.442 183.764C176.285 183.814 176.127 183.864 175.97 183.914L176.008 184.033C175.849 184.084 175.691 184.134 175.532 184.184L175.495 184.065C175.336 184.115 175.178 184.164 175.021 184.213L175.058 184.333C174.9 184.382 174.743 184.431 174.585 184.479L174.548 184.36L174.313 184.433L174.071 184.507L174.108 184.627C173.947 184.676 173.786 184.725 173.625 184.774L173.589 184.654C173.429 184.703 173.269 184.751 173.109 184.799L173.145 184.919C172.985 184.967 172.826 185.015 172.666 185.062L172.631 184.943C172.471 184.99 172.312 185.037 172.153 185.084L172.189 185.204C172.027 185.252 171.865 185.299 171.704 185.346L171.669 185.226C171.582 185.252 171.495 185.277 171.408 185.302C171.334 185.324 171.26 185.345 171.186 185.366L171.221 185.487C171.06 185.533 170.9 185.579 170.74 185.625L170.706 185.505C170.546 185.55 170.386 185.596 170.227 185.641L170.261 185.761C170.099 185.807 169.937 185.852 169.776 185.897L169.742 185.777C169.58 185.822 169.419 185.867 169.257 185.912L169.291 186.032C169.129 186.077 168.968 186.121 168.808 186.165L168.775 186.044C168.614 186.088 168.454 186.132 168.294 186.175L168.327 186.296C168.165 186.339 168.003 186.383 167.842 186.426L167.81 186.305C167.647 186.348 167.484 186.391 167.322 186.434L167.354 186.555C167.192 186.598 167.03 186.64 166.869 186.682L166.838 186.561C166.676 186.603 166.515 186.644 166.355 186.685L166.386 186.806C166.224 186.848 166.062 186.889 165.901 186.93L165.87 186.809C165.707 186.85 165.544 186.891 165.381 186.931L165.411 187.053C165.248 187.093 165.086 187.133 164.924 187.173L164.894 187.052C164.732 187.091 164.571 187.131 164.41 187.17L164.439 187.291C164.277 187.33 164.115 187.369 163.953 187.408L163.924 187.286C163.76 187.325 163.596 187.364 163.433 187.402L163.461 187.524C163.298 187.562 163.135 187.6 162.973 187.637L162.944 187.515C162.782 187.553 162.62 187.59 162.459 187.626L162.486 187.748C162.323 187.785 162.16 187.821 161.998 187.858L161.971 187.736C161.806 187.772 161.642 187.808 161.478 187.844L161.505 187.966C161.341 188.002 161.177 188.037 161.014 188.072L160.988 187.949C160.826 187.984 160.663 188.019 160.502 188.052L160.527 188.175C160.363 188.209 160.199 188.243 160.035 188.277L160.01 188.154C159.845 188.188 159.68 188.221 159.516 188.254L159.541 188.377C159.377 188.41 159.213 188.442 159.05 188.474L159.026 188.351C158.863 188.383 158.7 188.415 158.538 188.446L158.562 188.568C158.396 188.6 158.23 188.631 158.065 188.662L158.042 188.539C157.877 188.57 157.712 188.6 157.548 188.63L157.57 188.753C157.406 188.783 157.242 188.812 157.079 188.841L157.057 188.718C156.893 188.747 156.729 188.775 156.566 188.803L156.587 188.926C156.421 188.955 156.254 188.983 156.089 189.011L156.068 188.887C155.903 188.915 155.738 188.942 155.574 188.968L155.594 189.091C155.429 189.118 155.265 189.144 155.102 189.169L155.083 189.045C154.917 189.071 154.751 189.096 154.586 189.121L154.604 189.245C154.437 189.27 154.271 189.294 154.106 189.318L154.088 189.194C153.923 189.218 153.758 189.241 153.594 189.263L153.611 189.387C153.446 189.41 153.281 189.432 153.117 189.454L153.1 189.33C152.933 189.352 152.766 189.373 152.6 189.394L152.615 189.518C152.449 189.539 152.283 189.559 152.118 189.579L152.103 189.455C151.939 189.474 151.775 189.493 151.611 189.511L151.625 189.636C151.456 189.654 151.288 189.673 151.121 189.69L151.108 189.566C150.941 189.583 150.775 189.6 150.609 189.617L150.622 189.741C150.456 189.757 150.291 189.773 150.127 189.788L150.116 189.663C149.947 189.678 149.78 189.693 149.614 189.707L149.624 189.831C149.456 189.845 149.289 189.858 149.123 189.871L149.113 189.746C148.947 189.759 148.782 189.77 148.618 189.781L148.626 189.906C148.458 189.917 148.29 189.928 148.124 189.938L148.116 189.813C147.948 189.823 147.781 189.832 147.615 189.84L147.621 189.965C147.454 189.973 147.289 189.981 147.124 189.987L147.119 189.862C146.951 189.869 146.783 189.875 146.617 189.881L146.621 190.005C146.452 190.011 146.284 190.015 146.118 190.019L146.115 189.894C145.949 189.897 145.784 189.9 145.62 189.902L145.621 190.027C145.452 190.029 145.283 190.03 145.116 190.03L145.116 189.905C144.948 189.905 144.781 189.904 144.615 189.902L144.614 190.027C144.447 190.025 144.282 190.023 144.118 190.019L144.121 189.894C143.951 189.89 143.782 189.885 143.615 189.88L143.611 190.005C143.443 189.999 143.276 189.992 143.111 189.984L143.117 189.859C142.95 189.851 142.784 189.842 142.62 189.832L142.612 189.957C142.443 189.947 142.275 189.935 142.108 189.923L142.118 189.798C141.952 189.785 141.788 189.772 141.625 189.757L141.613 189.882C141.444 189.866 141.276 189.85 141.11 189.832L141.124 189.708C140.957 189.69 140.792 189.671 140.628 189.651L140.613 189.775C140.446 189.755 140.281 189.733 140.117 189.71L140.135 189.586C139.968 189.562 139.802 189.537 139.638 189.511L139.619 189.634C139.454 189.608 139.291 189.58 139.13 189.551L139.153 189.428C138.985 189.398 138.82 189.366 138.657 189.333L138.632 189.456C138.468 189.422 138.305 189.388 138.145 189.351L138.173 189.229C138.008 189.192 137.845 189.153 137.685 189.113L137.654 189.234C137.491 189.193 137.33 189.15 137.171 189.106L137.205 188.986C137.043 188.94 136.883 188.893 136.726 188.845L136.689 188.964C136.528 188.914 136.369 188.863 136.213 188.809L136.253 188.691C136.095 188.637 135.938 188.581 135.785 188.523L135.741 188.64C135.583 188.58 135.428 188.519 135.275 188.455L135.323 188.34C135.168 188.275 135.016 188.209 134.867 188.14L134.815 188.254C134.662 188.183 134.512 188.111 134.365 188.036L134.422 187.925C134.272 187.849 134.126 187.77 133.983 187.69L133.921 187.799C133.775 187.717 133.632 187.632 133.492 187.545L133.558 187.439C133.416 187.35 133.277 187.259 133.142 187.166L133.071 187.269C132.933 187.173 132.798 187.075 132.668 186.975L132.744 186.876C132.612 186.774 132.483 186.669 132.359 186.562L132.277 186.657C132.15 186.548 132.026 186.435 131.907 186.32L131.994 186.23C131.874 186.115 131.759 185.998 131.649 185.878L131.557 185.962C131.443 185.839 131.333 185.712 131.228 185.583L131.325 185.504C131.221 185.376 131.122 185.246 131.026 185.112L130.925 185.185C130.827 185.049 130.735 184.91 130.647 184.768L130.753 184.702C130.709 184.632 130.667 184.561 130.626 184.49C130.585 184.419 130.545 184.347 130.506 184.275L130.396 184.334C130.318 184.188 130.244 184.039 130.175 183.888L130.289 183.836C130.221 183.687 130.158 183.536 130.099 183.382L129.982 183.427C129.923 183.273 129.869 183.116 129.819 182.958L129.939 182.92C129.89 182.766 129.846 182.609 129.806 182.451L129.685 182.481C129.645 182.32 129.609 182.156 129.577 181.991L129.7 181.968C129.67 181.808 129.643 181.646 129.621 181.482L129.497 181.499C129.476 181.338 129.458 181.174 129.444 181.009L129.568 180.999C129.555 180.836 129.545 180.671 129.539 180.504L129.414 180.509C129.408 180.342 129.406 180.174 129.408 180.004L129.533 180.005C129.534 179.846 129.539 179.685 129.547 179.522L129.422 179.516C129.431 179.352 129.442 179.186 129.457 179.019L129.582 179.03C129.597 178.865 129.615 178.697 129.636 178.529L129.512 178.513C129.533 178.352 129.556 178.19 129.583 178.026L129.706 178.046C129.732 177.887 129.76 177.727 129.791 177.566L129.669 177.542C129.7 177.379 129.734 177.215 129.772 177.05L129.894 177.077C129.93 176.913 129.97 176.748 130.012 176.581L129.891 176.551C129.931 176.396 129.972 176.24 130.017 176.083L130.137 176.117C130.181 175.961 130.227 175.805 130.275 175.647L130.156 175.61C130.205 175.451 130.256 175.291 130.309 175.131L130.428 175.17C130.481 175.01 130.536 174.849 130.594 174.687L130.476 174.645C130.53 174.494 130.586 174.342 130.644 174.189L130.761 174.234C130.818 174.083 130.877 173.931 130.938 173.778L130.822 173.731C130.884 173.578 130.947 173.423 131.013 173.268L131.128 173.317C131.193 173.162 131.26 173.007 131.329 172.85L131.214 172.8C131.281 172.649 131.349 172.498 131.419 172.346L131.532 172.398C131.6 172.252 131.668 172.105 131.739 171.958L131.626 171.904C131.697 171.756 131.769 171.607 131.843 171.458L131.955 171.514C132.029 171.365 132.104 171.215 132.181 171.065L132.07 171.008C132.147 170.858 132.226 170.706 132.307 170.554L132.417 170.613C132.493 170.47 132.57 170.326 132.649 170.182L132.539 170.122C132.616 169.98 132.695 169.837 132.776 169.693L132.885 169.754C132.965 169.611 133.046 169.468 133.129 169.324L133.021 169.261C133.104 169.117 133.188 168.972 133.274 168.826L133.382 168.89C133.468 168.744 133.555 168.599 133.643 168.452L133.536 168.388C133.621 168.247 133.706 168.107 133.794 167.966L133.9 168.031C133.985 167.894 134.071 167.756 134.158 167.617L134.052 167.551C134.14 167.412 134.228 167.273 134.318 167.133L134.423 167.2C134.513 167.061 134.604 166.921 134.695 166.781L134.591 166.712C134.683 166.572 134.776 166.431 134.871 166.289L134.975 166.359C135.068 166.219 135.162 166.079 135.257 165.939L135.154 165.869C135.245 165.735 135.336 165.601 135.429 165.467L135.532 165.538C135.625 165.404 135.718 165.27 135.813 165.135L135.71 165.063C135.805 164.928 135.901 164.793 135.998 164.657L136.099 164.73C136.196 164.594 136.293 164.458 136.392 164.322L136.291 164.249C136.389 164.112 136.489 163.976 136.59 163.838L136.691 163.912C136.789 163.778 136.889 163.644 136.989 163.509L136.889 163.434C136.986 163.304 137.083 163.174 137.182 163.043L137.281 163.119C137.38 162.988 137.479 162.858 137.579 162.727L137.48 162.651C137.58 162.52 137.681 162.388 137.783 162.257L137.882 162.333C137.983 162.202 138.086 162.07 138.19 161.938L138.091 161.861C138.195 161.728 138.299 161.596 138.405 161.463L138.503 161.54C138.607 161.408 138.712 161.276 138.819 161.144L138.721 161.066C138.822 160.939 138.924 160.813 139.027 160.686L139.124 160.765C139.227 160.638 139.33 160.511 139.435 160.384L139.338 160.305C139.442 160.177 139.547 160.05 139.653 159.922L139.75 160.002C139.855 159.874 139.962 159.746 140.069 159.618L139.973 159.537C140.08 159.409 140.189 159.28 140.297 159.152L140.393 159.232C140.502 159.103 140.611 158.974 140.721 158.845L140.626 158.764C140.733 158.638 140.841 158.513 140.95 158.387L141.045 158.468C141.151 158.345 141.257 158.222 141.365 158.098L141.27 158.016C141.378 157.892 141.486 157.768 141.595 157.644L141.689 157.726C141.798 157.602 141.907 157.478 142.017 157.354L141.924 157.271C142.034 157.146 142.145 157.021 142.256 156.896L142.349 156.98C142.461 156.855 142.573 156.729 142.686 156.604L142.593 156.521C142.706 156.395 142.819 156.269 142.933 156.144L143.026 156.228C143.136 156.106 143.247 155.984 143.359 155.862L143.267 155.777C143.377 155.657 143.487 155.536 143.599 155.416L143.691 155.5C143.802 155.38 143.913 155.259 144.026 155.138L143.934 155.053C144.046 154.932 144.159 154.811 144.273 154.689L144.364 154.775C144.478 154.653 144.592 154.532 144.706 154.41L144.615 154.324C144.73 154.203 144.845 154.081 144.961 153.959L145.052 154.045C145.168 153.923 145.284 153.8 145.401 153.678L145.311 153.592C145.426 153.472 145.541 153.351 145.657 153.231L145.747 153.317C145.86 153.2 145.974 153.082 146.087 152.965L145.998 152.878C146.112 152.76 146.226 152.642 146.342 152.524L146.431 152.611C146.546 152.493 146.662 152.375 146.778 152.257L146.689 152.17C146.805 152.051 146.921 151.933 147.039 151.814L147.128 151.902C147.245 151.783 147.362 151.665 147.481 151.546L147.392 151.458C147.51 151.339 147.629 151.22 147.748 151.1L147.837 151.189C147.956 151.07 148.076 150.95 148.196 150.831L148.108 150.742C148.224 150.627 148.341 150.511 148.458 150.396L148.546 150.485C148.662 150.37 148.779 150.255 148.896 150.14L148.809 150.051C148.926 149.935 149.044 149.82 149.162 149.705L149.249 149.794C149.368 149.679 149.486 149.563 149.605 149.448L149.518 149.358C149.638 149.243 149.757 149.127 149.877 149.011L149.964 149.101C150.084 148.985 150.205 148.869 150.326 148.753L150.239 148.663C150.36 148.547 150.482 148.43 150.604 148.314L150.69 148.405C150.812 148.288 150.935 148.172 151.057 148.055L150.971 147.965C151.09 147.852 151.209 147.74 151.328 147.627L151.414 147.718C151.533 147.605 151.653 147.493 151.773 147.38L151.687 147.289C151.807 147.177 151.928 147.064 152.048 146.951L152.134 147.043C152.254 146.93 152.376 146.817 152.497 146.704L152.412 146.612C152.534 146.499 152.656 146.386 152.778 146.273L152.863 146.365C152.986 146.252 153.109 146.138 153.232 146.025L153.147 145.933C153.271 145.82 153.394 145.706 153.519 145.593L153.603 145.685C153.727 145.571 153.852 145.458 153.977 145.344L153.892 145.251C154.014 145.14 154.136 145.03 154.259 144.918L154.343 145.011C154.464 144.901 154.586 144.791 154.708 144.681L154.624 144.588C154.746 144.478 154.869 144.368 154.992 144.258L155.075 144.351C155.198 144.24 155.321 144.13 155.445 144.02L155.362 143.926C155.485 143.816 155.61 143.705 155.734 143.595L155.817 143.688C155.941 143.577 156.066 143.467 156.191 143.356L156.108 143.262C156.234 143.152 156.359 143.041 156.485 142.93L156.568 143.024C156.694 142.913 156.82 142.802 156.947 142.691L156.864 142.597C156.99 142.486 157.116 142.376 157.243 142.265L157.325 142.36C157.448 142.252 157.572 142.144 157.695 142.037L157.613 141.942C157.737 141.835 157.862 141.727 157.986 141.619L158.068 141.713C158.193 141.605 158.318 141.498 158.443 141.39L158.361 141.295C158.487 141.187 158.612 141.079 158.738 140.971L158.82 141.065C158.946 140.957 159.072 140.849 159.199 140.741L159.117 140.646C159.244 140.538 159.371 140.429 159.499 140.321L159.58 140.416C159.707 140.308 159.835 140.199 159.963 140.091L159.882 139.995C160.01 139.887 160.138 139.778 160.267 139.669L160.348 139.765C160.475 139.658 160.602 139.55 160.73 139.443L160.649 139.347C160.775 139.242 160.901 139.136 161.027 139.031L161.107 139.127C161.233 139.021 161.359 138.915 161.486 138.81L161.406 138.714C161.533 138.608 161.66 138.502 161.787 138.397L161.867 138.493C161.994 138.387 162.122 138.281 162.25 138.175L162.17 138.079C162.298 137.973 162.427 137.867 162.555 137.761L162.635 137.858C162.763 137.752 162.892 137.646 163.021 137.539L162.942 137.443C163.071 137.337 163.201 137.231 163.331 137.124L163.41 137.221C163.539 137.115 163.67 137.009 163.8 136.902L163.721 136.806C163.85 136.7 163.98 136.595 164.11 136.49L164.188 136.587C164.316 136.483 164.443 136.38 164.571 136.277L164.493 136.179C164.621 136.076 164.749 135.972 164.877 135.869L164.956 135.966C165.084 135.863 165.213 135.759 165.342 135.656L165.264 135.558C165.393 135.454 165.522 135.351 165.652 135.247L165.73 135.345C165.859 135.241 165.989 135.137 166.119 135.034L166.042 134.936C166.172 134.832 166.302 134.728 166.433 134.624L166.511 134.722C166.642 134.618 166.773 134.515 166.904 134.411L166.826 134.313C166.958 134.209 167.089 134.105 167.221 134.001L167.299 134.099C167.431 133.995 167.563 133.891 167.695 133.787L167.618 133.689C167.747 133.587 167.876 133.486 168.006 133.384L168.083 133.483C168.212 133.382 168.342 133.28 168.472 133.179L168.395 133.08C168.525 132.979 168.655 132.877 168.786 132.776L168.863 132.874C168.993 132.773 169.124 132.672 169.255 132.57L169.178 132.471C169.31 132.37 169.441 132.268 169.573 132.166L169.649 132.265C169.78 132.164 169.912 132.062 170.044 131.961L169.968 131.861C170.1 131.76 170.233 131.658 170.365 131.556L170.441 131.656C170.574 131.554 170.707 131.452 170.84 131.35L170.764 131.251C170.897 131.149 171.031 131.048 171.164 130.946L171.24 131.045C171.372 130.944 171.505 130.843 171.638 130.743L171.562 130.643C171.693 130.544 171.824 130.444 171.956 130.345L172.031 130.445C172.162 130.345 172.294 130.246 172.426 130.146L172.351 130.047C172.482 129.947 172.615 129.848 172.747 129.748L172.822 129.848C172.954 129.749 173.087 129.649 173.22 129.55L173.145 129.45C173.277 129.35 173.411 129.251 173.544 129.151L173.619 129.251C173.752 129.152 173.885 129.052 174.019 128.953L173.945 128.852C174.078 128.753 174.212 128.653 174.347 128.553L174.421 128.654C174.555 128.554 174.69 128.455 174.824 128.355L174.75 128.254C174.885 128.155 175.02 128.055 175.155 127.955L175.229 128.056C175.363 127.958 175.496 127.859 175.63 127.761L175.556 127.66C175.689 127.563 175.822 127.465 175.955 127.368L176.028 127.469C176.161 127.371 176.295 127.274 176.428 127.176L176.354 127.075C176.488 126.978 176.621 126.88 176.755 126.783L176.829 126.884C176.963 126.786 177.097 126.689 177.231 126.591L177.158 126.49C177.292 126.393 177.427 126.295 177.561 126.198L177.635 126.299C177.769 126.201 177.904 126.104 178.04 126.006L177.966 125.905C178.102 125.807 178.237 125.71 178.373 125.612L178.446 125.714C178.581 125.616 178.717 125.519 178.853 125.421L178.781 125.32C178.917 125.222 179.053 125.124 179.189 125.027L179.262 125.128C179.397 125.032 179.533 124.935 179.668 124.839L179.596 124.737C179.73 124.641 179.864 124.546 179.998 124.45L180.071 124.552C180.205 124.457 180.34 124.361 180.475 124.266L180.402 124.164C180.537 124.068 180.672 123.972 180.808 123.877L180.88 123.979C181.015 123.884 181.151 123.788 181.286 123.692L181.214 123.59C181.35 123.495 181.486 123.399 181.622 123.304L181.694 123.406C181.83 123.31 181.966 123.215 182.103 123.119L182.031 123.017C182.167 122.921 182.304 122.826 182.441 122.73L182.513 122.833C182.649 122.737 182.786 122.642 182.924 122.546L182.852 122.444C182.99 122.348 183.127 122.252 183.265 122.157L183.336 122.26C183.473 122.164 183.611 122.069 183.748 121.974L183.677 121.871C183.813 121.778 183.948 121.684 184.084 121.59L184.155 121.693C184.291 121.6 184.427 121.506 184.563 121.412L184.492 121.309C184.628 121.216 184.764 121.122 184.901 121.028L184.972 121.132C185.108 121.038 185.245 120.944 185.382 120.851L185.311 120.748C185.448 120.654 185.585 120.56 185.722 120.467L185.793 120.57C185.93 120.476 186.068 120.383 186.205 120.289L186.135 120.186C186.273 120.092 186.41 119.999 186.549 119.905L186.619 120.009C186.757 119.915 186.895 119.821 187.033 119.728L186.963 119.624C187.102 119.531 187.24 119.437 187.379 119.344L187.449 119.447C187.588 119.354 187.727 119.26 187.866 119.167L187.796 119.063C187.933 118.971 188.071 118.878 188.209 118.786L188.278 118.89C188.415 118.798 188.552 118.706 188.69 118.615L188.62 118.511C188.758 118.419 188.895 118.327 189.033 118.235L189.102 118.339C189.24 118.248 189.378 118.156 189.516 118.064L189.446 117.96C189.584 117.868 189.723 117.777 189.861 117.685L189.93 117.789C190.068 117.697 190.207 117.606 190.346 117.514L190.277 117.41C190.415 117.318 190.554 117.227 190.693 117.135L190.762 117.239C190.901 117.148 191.04 117.056 191.18 116.964L191.111 116.86C191.251 116.768 191.39 116.677 191.53 116.585L191.598 116.69C191.738 116.598 191.878 116.507 192.018 116.415L191.95 116.31C192.09 116.219 192.23 116.127 192.371 116.036L192.439 116.141C192.577 116.051 192.715 115.961 192.854 115.871L192.785 115.766C192.924 115.676 193.062 115.586 193.201 115.496L193.269 115.601C193.408 115.511 193.547 115.421 193.686 115.331L193.618 115.226C193.757 115.137 193.896 115.047 194.036 114.957L194.103 115.062C194.243 114.972 194.382 114.882 194.522 114.793L194.454 114.687C194.594 114.598 194.734 114.508 194.874 114.418L194.941 114.523C195.081 114.434 195.221 114.344 195.362 114.254L195.294 114.149C195.435 114.059 195.575 113.97 195.716 113.88L195.783 113.985C195.924 113.896 196.065 113.806 196.206 113.716L196.138 113.611C196.279 113.521 196.421 113.432 196.562 113.342L196.629 113.448C196.77 113.358 196.911 113.269 197.052 113.18L196.986 113.074C197.125 112.986 197.265 112.898 197.404 112.81L197.471 112.915C197.611 112.827 197.751 112.739 197.891 112.651L197.824 112.545C197.964 112.457 198.104 112.369 198.245 112.281L198.311 112.387C198.451 112.299 198.592 112.211 198.732 112.123L198.666 112.017C198.807 111.929 198.948 111.841 199.088 111.754L199.155 111.86C199.296 111.772 199.437 111.684 199.578 111.596L199.512 111.49C199.653 111.402 199.794 111.314 199.936 111.227L200.002 111.333C200.143 111.245 200.285 111.157 200.427 111.07L200.361 110.963C200.503 110.876 200.645 110.788 200.787 110.7L200.853 110.807C200.995 110.719 201.137 110.631 201.279 110.544L201.214 110.437C201.356 110.35 201.498 110.262 201.641 110.175L201.706 110.281L202.129 110.023L202.064 109.916C202.204 109.83 202.346 109.743 202.487 109.657L202.552 109.764L202.976 109.506L202.911 109.399C203.053 109.313 203.194 109.227 203.336 109.14L203.401 109.247L203.827 108.989L203.762 108.882C203.904 108.796 204.046 108.71 204.188 108.624L204.253 108.731L204.68 108.474L204.616 108.367C204.759 108.281 204.901 108.195 205.044 108.109L205.109 108.216L205.538 107.959L205.473 107.852C205.617 107.766 205.76 107.68 205.903 107.595L205.967 107.702L206.398 107.445L206.334 107.338C206.476 107.253 206.619 107.169 206.761 107.084L206.825 107.192L207.251 106.939L207.188 106.831C207.33 106.747 207.473 106.662 207.615 106.578L207.679 106.686L208.107 106.433L208.044 106.325C208.186 106.241 208.329 106.157 208.473 106.073L208.536 106.181L208.966 105.928L208.903 105.821C209.046 105.737 209.189 105.653 209.333 105.569L209.396 105.677L209.827 105.425L209.765 105.317C209.908 105.233 210.053 105.149 210.197 105.065L210.26 105.173L210.692 104.922L210.63 104.814C210.774 104.73 210.919 104.647 211.063 104.563L211.126 104.671L211.343 104.546L211.56 104.42L211.498 104.312C211.642 104.229 211.787 104.145 211.932 104.062L211.994 104.17L212.428 103.921L212.366 103.813C212.511 103.73 212.655 103.647 212.8 103.564L212.862 103.673L213.296 103.425L213.234 103.317C213.378 103.234 213.523 103.152 213.667 103.07L213.729 103.178L214.162 102.932L214.101 102.824C214.245 102.742 214.389 102.66 214.534 102.578L214.595 102.687L215.028 102.442L214.967 102.334C215.111 102.252 215.255 102.171 215.4 102.09L215.461 102.199L215.893 101.956L215.832 101.847C215.977 101.766 216.121 101.685 216.265 101.604L216.326 101.713L216.764 101.469L216.703 101.359C216.849 101.278 216.995 101.197 217.141 101.116L217.202 101.225L217.639 100.982L217.578 100.873C217.724 100.792 217.87 100.711 218.015 100.631L218.076 100.74L218.513 100.499L218.452 100.389C218.598 100.309 218.744 100.229 218.889 100.149L218.949 100.258L219.386 100.018L219.325 99.9089C219.471 99.8291 219.616 99.7495 219.762 99.67L219.822 99.7796L220.257 99.5416L220.198 99.4319C220.343 99.3527 220.488 99.2736 220.633 99.1946L220.693 99.3044L221.128 99.068L221.069 98.9582C221.216 98.8784 221.363 98.7988 221.51 98.7193L221.569 98.8293C221.716 98.7498 221.863 98.6704 222.01 98.5912L221.951 98.4812C222.098 98.4019 222.245 98.3228 222.392 98.2439L222.451 98.354C222.598 98.275 222.744 98.1962 222.891 98.1176L222.832 98.0074C222.979 97.9287 223.126 97.8502 223.272 97.7718L223.331 97.882C223.478 97.8036 223.625 97.7254 223.771 97.6473L223.712 97.537C223.859 97.4589 224.005 97.3809 224.152 97.3031L224.211 97.4135C224.357 97.3357 224.503 97.258 224.65 97.1805L224.591 97.0701C224.738 96.9925 224.884 96.9151 225.03 96.8379L225.089 96.9484C225.235 96.8712 225.381 96.7941 225.527 96.7171L225.469 96.6065C225.615 96.5296 225.761 96.4527 225.907 96.376L225.965 96.4867C226.113 96.409 226.261 96.3314 226.409 96.254L226.351 96.1432C226.5 96.0656 226.648 95.9882 226.796 95.9109L226.854 96.0217C227.002 95.9445 227.15 95.8673 227.298 95.7904L227.24 95.6795C227.388 95.6025 227.536 95.5256 227.684 95.4489L227.741 95.5599C227.889 95.4832 228.037 95.4067 228.185 95.3303L228.127 95.2193C228.275 95.1429 228.423 95.0666 228.57 94.9905L228.627 95.1016C228.775 95.0256 228.923 94.9496 229.07 94.8739L229.013 94.7627C229.16 94.6869 229.308 94.6112 229.455 94.5357L229.512 94.647C229.66 94.5715 229.807 94.4962 229.954 94.421L229.897 94.3097C230.044 94.2345 230.192 94.1594 230.339 94.0845L230.395 94.1959C230.542 94.121 230.689 94.0463 230.836 93.9717L230.78 93.8602C230.929 93.7844 231.079 93.7087 231.228 93.6331L231.284 93.7446C231.434 93.6691 231.583 93.5937 231.732 93.5185L231.676 93.4069C231.825 93.3316 231.974 93.2565 232.123 93.1816L232.179 93.2933C232.328 93.2184 232.477 93.1436 232.626 93.069L232.57 92.9573C232.719 92.8826 232.868 92.8082 233.017 92.7339L233.073 92.8457C233.221 92.7714 233.37 92.6973 233.518 92.6233L233.463 92.5114C233.611 92.4374 233.76 92.3636 233.908 92.2899L233.964 92.4019C234.112 92.3282 234.261 92.2548 234.409 92.1814L234.354 92.0694C234.502 91.996 234.65 91.9228 234.798 91.8498L234.853 91.9619C235.002 91.8889 235.15 91.816 235.298 91.7433L235.242 91.6311C235.391 91.558 235.54 91.485 235.689 91.4121L235.744 91.5244C235.894 91.4507 236.045 91.3771 236.195 91.3037L236.14 91.1914C236.291 91.118 236.441 91.0447 236.591 90.9716L236.646 91.084C236.796 91.0109 236.946 90.938 237.096 90.8653L237.042 90.7528C237.192 90.6801 237.342 90.6075 237.492 90.535L237.546 90.6476C237.696 90.5752 237.846 90.503 237.995 90.4309L237.941 90.3183C238.091 90.2462 238.24 90.1742 238.39 90.1025L238.444 90.2152C238.594 90.1434 238.743 90.0719 238.892 90.0005L238.838 89.8877C238.988 89.8162 239.137 89.745 239.286 89.6739L239.34 89.7867C239.489 89.7157 239.638 89.6448 239.787 89.574L239.733 89.4611C239.882 89.3903 240.031 89.3197 240.18 89.2493L240.234 89.3623C240.385 89.2907 240.536 89.2194 240.687 89.1481L240.634 89.0351C240.785 88.9636 240.937 88.8923 241.088 88.8211L241.141 88.9342C241.293 88.8631 241.444 88.7922 241.595 88.7214L241.542 88.6082C241.693 88.5374 241.844 88.4668 241.995 88.3963L242.048 88.5096C242.199 88.4392 242.35 88.3689 242.501 88.2989L242.448 88.1855C242.599 88.1154 242.75 88.0455 242.9 87.9758L242.953 88.0892C243.103 88.0195 243.254 87.9499 243.404 87.8806L243.352 87.7671C243.502 87.6977 243.653 87.6285 243.803 87.5594L243.855 87.673C244.005 87.604 244.155 87.5352 244.305 87.4665L244.253 87.3529C244.403 87.2842 244.553 87.2157 244.703 87.1473L244.754 87.2611C244.906 87.192 245.057 87.1231 245.208 87.0543L245.157 86.9405C245.309 86.8711 245.462 86.8018 245.615 86.7328L245.666 86.8466C245.819 86.7776 245.971 86.7087 246.123 86.64L246.072 86.5261C246.224 86.4574 246.377 86.3889 246.529 86.3205L246.58 86.4346C246.732 86.3662 246.884 86.2981 247.036 86.2302L246.985 86.1161C247.137 86.0481 247.288 85.9804 247.44 85.9128L247.491 86.0269C247.642 85.9594 247.794 85.892 247.945 85.8248L247.895 85.7106C248.046 85.6434 248.197 85.5763 248.348 85.5095L248.399 85.6238C248.55 85.557 248.701 85.4904 248.852 85.4239L248.801 85.3095C248.952 85.2431 249.103 85.1768 249.254 85.1107L249.304 85.2252C249.456 85.1584 249.608 85.0919 249.76 85.0255L249.71 84.9109C249.864 84.8437 250.018 84.7766 250.172 84.7098L250.222 84.8244C250.375 84.7576 250.529 84.6909 250.682 84.6245L250.632 84.5098C250.786 84.4433 250.939 84.3771 251.092 84.311L251.142 84.4258C251.295 84.3598 251.448 84.2939 251.601 84.2283L251.551 84.1134C251.704 84.0478 251.857 83.9823 252.009 83.917L252.059 84.032C252.211 83.9667 252.364 83.9017 252.516 83.8368L252.467 83.7218C252.619 83.657 252.771 83.5923 252.923 83.5278L252.972 83.6429C253.124 83.5785 253.276 83.5142 253.428 83.4502L253.379 83.335C253.531 83.2709 253.683 83.2071 253.834 83.1434L253.883 83.2586C254.036 83.194 254.19 83.1296 254.343 83.0654L254.295 82.9501C254.45 82.8852 254.605 82.8206 254.76 82.7561L254.808 82.8715C254.963 82.8071 255.117 82.7429 255.271 82.6789L255.224 82.5634C255.378 82.4994 255.532 82.4356 255.686 82.372L255.734 82.4876C255.888 82.424 256.042 82.3606 256.196 82.2975L256.148 82.1819C256.302 82.1187 256.456 82.0557 256.609 81.993L256.657 82.1087C256.81 82.046 256.963 81.9835 257.116 81.9212L257.069 81.8054C257.223 81.7431 257.376 81.681 257.528 81.6191L257.575 81.7349C257.728 81.6731 257.881 81.6114 258.033 81.55L257.987 81.434C258.139 81.3725 258.292 81.3113 258.444 81.2502L258.49 81.3662C258.647 81.3036 258.803 81.2411 258.959 81.1789L258.913 81.0628C259.069 81.0005 259.224 80.9385 259.38 80.8767L259.426 80.9929C259.582 80.9311 259.737 80.8696 259.893 80.8083L259.847 80.692C260.002 80.6307 260.157 80.5696 260.312 80.5087L260.358 80.625C260.513 80.5642 260.668 80.5035 260.822 80.4431L260.777 80.3267C260.931 80.2663 261.086 80.2061 261.24 80.1461L261.285 80.2626C261.44 80.2026 261.594 80.1429 261.747 80.0834L261.702 79.9668C261.856 79.9073 262.01 79.848 262.164 79.789L262.208 79.9056C262.362 79.8466 262.515 79.7878 262.668 79.7292L262.624 79.6125C262.78 79.5527 262.936 79.4932 263.092 79.4339L263.136 79.5508C263.293 79.491 263.45 79.4314 263.607 79.372L263.563 79.2551C263.72 79.1958 263.877 79.1367 264.033 79.0778L264.077 79.1948C264.234 79.136 264.39 79.0774 264.546 79.019L264.502 78.9019C264.658 78.8436 264.814 78.7854 264.97 78.7275L265.013 78.8447C265.169 78.7869 265.324 78.7292 265.48 78.6719L265.436 78.5546C265.592 78.4972 265.747 78.4401 265.902 78.3832L265.945 78.5005C266.1 78.4436 266.254 78.387 266.409 78.3306L266.366 78.2132C266.52 78.1568 266.675 78.1006 266.829 78.0447L266.871 78.1622C267.028 78.1053 267.185 78.0486 267.341 77.9922L267.299 77.8746C267.457 77.8174 267.616 77.7605 267.774 77.7039L267.816 77.8216C267.974 77.7649 268.132 77.7086 268.289 77.6525L268.247 77.5348C268.405 77.4786 268.562 77.4228 268.719 77.3672L268.761 77.4851C268.918 77.4295 269.075 77.3742 269.231 77.3192L269.19 77.2013C269.347 77.1462 269.503 77.0914 269.659 77.0369L269.701 77.1549C269.857 77.1004 270.013 77.0462 270.168 76.9922L270.127 76.8741C270.283 76.8201 270.439 76.7664 270.594 76.7129L270.635 76.8311C270.79 76.7777 270.945 76.7245 271.1 76.6716L271.059 76.5534C271.218 76.499 271.377 76.4449 271.535 76.3912L271.576 76.5095C271.735 76.4554 271.894 76.4016 272.053 76.348L272.013 76.2295C272.172 76.176 272.331 76.1227 272.49 76.0696L272.529 76.1882C272.688 76.1352 272.846 76.0825 273.004 76.0301L272.965 75.9115C273.123 75.859 273.281 75.8069 273.438 75.755L273.477 75.8737C273.635 75.8219 273.792 75.7704 273.949 75.7191L273.91 75.6003C274.067 75.549 274.224 75.498 274.38 75.4473L274.419 75.5662C274.575 75.5155 274.731 75.4651 274.887 75.415L274.849 75.296C275.006 75.2453 275.163 75.195 275.32 75.145L275.358 75.2641C275.519 75.2127 275.68 75.1617 275.84 75.111L275.803 74.9918C275.963 74.9411 276.123 74.8906 276.283 74.8405L276.321 74.9598C276.48 74.9097 276.64 74.86 276.799 74.8105L276.762 74.6911C276.921 74.6416 277.08 74.5925 277.239 74.5436L277.276 74.6631C277.434 74.6142 277.593 74.5657 277.751 74.5175L277.714 74.3979C277.872 74.3497 278.03 74.3018 278.188 74.2542L278.224 74.3738C278.381 74.3263 278.539 74.279 278.695 74.2321L278.659 74.1123C278.817 74.0652 278.974 74.0184 279.13 73.972L279.166 74.0918C279.328 74.0437 279.49 73.9959 279.652 73.9484L279.617 73.8285C279.779 73.781 279.94 73.7339 280.101 73.6871L280.136 73.8071C280.297 73.7603 280.458 73.7139 280.618 73.6678L280.584 73.5477C280.744 73.5016 280.904 73.4558 281.064 73.4104L281.098 73.5306C281.258 73.4852 281.417 73.4402 281.576 73.3955L281.542 73.2751C281.701 73.2304 281.86 73.186 282.018 73.1419L282.052 73.2624C282.21 73.2184 282.368 73.1747 282.526 73.1314L282.493 73.0108C282.651 72.9672 282.81 72.9239 282.968 72.8809L283.001 73.0015C283.164 72.9571 283.327 72.913 283.49 72.8693L283.458 72.7486C283.621 72.7049 283.783 72.6616 283.945 72.6186L283.977 72.7394C284.139 72.6965 284.301 72.6539 284.462 72.6118L284.431 72.4908C284.592 72.4486 284.753 72.4068 284.913 72.3653L284.945 72.4864C285.105 72.445 285.265 72.4039 285.425 72.3633L285.394 72.2421C285.554 72.2014 285.713 72.1611 285.872 72.1212L285.903 72.2424C286.062 72.2025 286.22 72.163 286.378 72.1239L286.348 72.0025C286.511 71.9623 286.673 71.9225 286.834 71.8831L286.864 72.0045C287.028 71.9644 287.192 71.9248 287.356 71.8855L287.327 71.7639C287.49 71.7246 287.654 71.6857 287.816 71.6473L287.845 71.7689C288.008 71.7305 288.17 71.6925 288.332 71.6549L288.304 71.5331C288.465 71.4955 288.627 71.4583 288.788 71.4215L288.816 71.5434C288.977 71.5066 289.137 71.4703 289.297 71.4344L289.27 71.3124C289.43 71.2765 289.59 71.241 289.749 71.2059L289.776 71.3279C289.937 71.2923 290.099 71.2571 290.259 71.2223L290.233 71.1001C290.399 71.0642 290.564 71.0288 290.73 70.9938L290.755 71.1161C290.92 71.0811 291.085 71.0466 291.249 71.0126L291.223 70.8902C291.387 70.8561 291.551 70.8226 291.714 70.7894L291.739 70.9119C291.902 70.8788 292.064 70.8462 292.226 70.8141L292.201 70.6915C292.363 70.6593 292.525 70.6276 292.686 70.5964L292.709 70.7191C292.87 70.6879 293.03 70.6571 293.19 70.6269L293.167 70.504C293.33 70.4731 293.493 70.4426 293.656 70.4126L293.678 70.5355C293.845 70.5047 294.012 70.4743 294.178 70.4445L294.156 70.3215C294.322 70.2917 294.487 70.2623 294.652 70.2336L294.674 70.3567C294.751 70.3432 294.828 70.3298 294.905 70.3166C294.992 70.3016 295.079 70.2867 295.166 70.272L295.145 70.1488C295.309 70.121 295.472 70.0938 295.634 70.0672L295.654 70.1905C295.817 70.1639 295.978 70.1377 296.139 70.1122L296.12 69.9887C296.281 69.9631 296.442 69.938 296.602 69.9135L296.621 70.037C296.788 70.0113 296.955 69.9861 297.122 69.9615L297.103 69.8379C297.271 69.8131 297.438 69.7889 297.605 69.7653L297.622 69.8891C297.789 69.8655 297.954 69.8426 298.119 69.8202L298.102 69.6963C298.267 69.6739 298.432 69.6521 298.595 69.6309L298.611 69.7549C298.775 69.7337 298.937 69.7131 299.099 69.6932L299.084 69.5691C299.246 69.5491 299.408 69.5297 299.569 69.5109L299.583 69.635C299.75 69.6155 299.917 69.5966 300.082 69.5784L300.068 69.4541C300.238 69.4355 300.406 69.4175 300.573 69.4003L300.586 69.5246C300.754 69.5074 300.92 69.4908 301.086 69.4749L301.074 69.3505C301.24 69.3346 301.405 69.3194 301.569 69.3048L301.58 69.4293C301.744 69.4148 301.907 69.401 302.069 69.3878L302.059 69.2632C302.222 69.2501 302.384 69.2376 302.544 69.2258L302.554 69.3504C302.723 69.338 302.891 69.3263 303.059 69.3155L303.051 69.1907C303.22 69.1797 303.389 69.1694 303.557 69.16L303.564 69.2848C303.731 69.2753 303.898 69.2666 304.063 69.2588L304.057 69.1339C304.223 69.126 304.388 69.1189 304.552 69.1126L304.557 69.2375C304.72 69.2312 304.883 69.2256 305.045 69.2209L305.041 69.096C305.207 69.0911 305.371 69.0871 305.535 69.0839L305.538 69.2089C305.709 69.2055 305.878 69.2031 306.047 69.2016L306.046 69.0766C306.215 69.0751 306.383 69.0745 306.549 69.0748L306.549 69.1998C306.715 69.2001 306.88 69.2013 307.044 69.2034L307.046 69.0785C307.21 69.0806 307.374 69.0837 307.536 69.0876L307.533 69.2126C307.697 69.2166 307.86 69.2216 308.022 69.2275L308.026 69.1026C308.198 69.1089 308.369 69.1163 308.538 69.1247L308.531 69.2496C308.7 69.258 308.867 69.2674 309.033 69.278L309.041 69.1532C309.207 69.1638 309.372 69.1755 309.535 69.1882L309.526 69.3128C309.688 69.3255 309.85 69.3393 310.01 69.3541L310.022 69.2296C310.188 69.2451 310.353 69.2617 310.517 69.2795L310.504 69.4037C310.673 69.4222 310.841 69.4419 311.008 69.4628L311.023 69.3388C311.19 69.3598 311.356 69.3822 311.52 69.4058L311.502 69.5295C311.665 69.553 311.826 69.5777 311.986 69.6037L312.006 69.4803C312.167 69.5066 312.326 69.5342 312.484 69.5631L312.462 69.686C312.631 69.717 312.798 69.7494 312.963 69.7834L312.988 69.6609C313.154 69.6951 313.318 69.7307 313.48 69.7678L313.452 69.8897C313.613 69.9266 313.772 69.965 313.928 70.005L313.959 69.8838C314.117 69.924 314.273 69.9658 314.427 70.009L314.393 70.1294C314.558 70.1759 314.721 70.2243 314.882 70.2744L314.919 70.1551C315.081 70.2055 315.24 70.2578 315.396 70.3118L315.356 70.43C315.511 70.4837 315.664 70.5391 315.814 70.5963L315.859 70.4794C316.014 70.5384 316.166 70.5992 316.316 70.662L316.267 70.7772C316.424 70.843 316.578 70.9109 316.729 70.9808L316.782 70.8674C316.934 70.938 317.083 71.0107 317.229 71.0856L317.172 71.1969C317.317 71.271 317.459 71.3472 317.598 71.4255L317.659 71.3166C317.807 71.4003 317.952 71.4864 318.093 71.5749L318.027 71.6808C318.168 71.7694 318.306 71.8603 318.441 71.9537L318.512 71.8511C318.648 71.9456 318.78 72.0426 318.909 72.1421L318.833 72.241C318.963 72.3421 319.09 72.4458 319.214 72.5521L319.295 72.4574C319.423 72.5674 319.546 72.6801 319.666 72.7956L319.579 72.8854C319.696 72.9992 319.81 73.1157 319.92 73.235L320.012 73.1504C320.124 73.2728 320.232 73.398 320.336 73.5261L320.239 73.6049C320.343 73.7324 320.442 73.8628 320.537 73.996L320.639 73.9234Z" stroke="url(#paint13_linear_4479_23189)" stroke-width="0.25" stroke-dasharray="0.5 0.5"/>
<circle cx="279.433" cy="73.9874" r="0.889743" fill="#747185"/>
<circle cx="302.518" cy="108.938" r="1.5" fill="#D9D9D9"/>
<ellipse rx="110" ry="29" transform="matrix(-0.866025 -0.5 -0.5 0.866025 234.116 129.552)" stroke="url(#paint14_linear_4479_23189)" stroke-width="0.25" stroke-dasharray="0.5 0.5"/>
<circle r="1.5" transform="matrix(-1 0 0 1 161.379 112.938)" fill="#D9D9D9"/>
<circle r="1.5" transform="matrix(-1 0 0 1 157.379 108.938)" fill="#D9D9D9"/>
<path d="M186.504 149.799L186.504 158.492L273.752 158.492L273.752 149.799L186.504 149.799Z" fill="url(#paint15_linear_4479_23189)"/>
<path d="M189.455 152.988L189.455 215.809L270.8 215.809L270.8 152.988L189.455 152.988Z" fill="url(#paint16_linear_4479_23189)"/>
<g filter="url(#filter4_f_4479_23189)">
<circle cx="230.127" cy="183.152" r="13.5312" fill="#632BFF"/>
</g>
<path d="M234.115 185.891C238.12 185.891 241.367 182.644 241.367 178.639C241.367 174.634 238.12 171.387 234.115 171.387C230.11 171.387 226.863 174.634 226.863 178.639C226.863 182.644 230.11 185.891 234.115 185.891Z" stroke="#53FDA9" stroke-linecap="round" stroke-linejoin="round"/>
<path d="M232.941 188.734C233.167 190.15 232.967 191.602 232.368 192.905C231.769 194.208 230.797 195.305 229.575 196.055C228.353 196.806 226.936 197.178 225.502 197.123C224.069 197.068 222.684 196.59 221.523 195.748C220.362 194.906 219.476 193.739 218.978 192.394C218.48 191.048 218.393 189.586 218.726 188.191C219.059 186.796 219.799 185.531 220.851 184.556C221.903 183.582 223.221 182.941 224.637 182.715L225.014 182.664" stroke="#53FDA9" stroke-linecap="round" stroke-linejoin="round"/>
<g filter="url(#filter5_f_4479_23189)">
<path d="M44 189.348L215.858 189.348C216.134 189.348 216.358 189.572 216.358 189.848V189.848C216.358 190.124 216.134 190.348 215.858 190.348H44V189.348Z" fill="url(#paint17_linear_4479_23189)"/>
<path d="M87.1309 187.328L216.614 187.328C216.847 187.328 217.036 187.139 217.036 186.906V186.906C217.036 186.673 216.847 186.484 216.614 186.484H87.1309V187.328Z" fill="url(#paint18_linear_4479_23189)"/>
<path d="M128.342 184.949L217.828 184.949C218.046 184.949 218.223 184.772 218.223 184.554V184.554C218.223 184.335 218.046 184.158 217.828 184.158H128.342V184.949Z" fill="url(#paint19_linear_4479_23189)"/>
<path d="M87.1309 192.465L216.614 192.465C216.847 192.465 217.036 192.654 217.036 192.887V192.887C217.036 193.12 216.847 193.309 216.614 193.309H87.1309V192.465Z" fill="url(#paint20_linear_4479_23189)"/>
<path d="M128.342 194.859L217.806 194.859C218.037 194.859 218.223 195.046 218.223 195.276V195.276C218.223 195.507 218.037 195.693 217.806 195.693H128.342V194.859Z" fill="url(#paint21_linear_4479_23189)"/>
</g>
<g filter="url(#filter6_f_4479_23189)">
<path d="M415.684 178.965L243.826 178.965C243.55 178.965 243.326 178.741 243.326 178.465V178.465C243.326 178.189 243.55 177.965 243.826 177.965L415.684 177.965L415.684 178.965Z" fill="url(#paint22_linear_4479_23189)"/>
<path d="M372.553 180.984L243.07 180.984C242.837 180.984 242.648 181.173 242.648 181.407V181.407C242.648 181.64 242.837 181.829 243.07 181.829L372.553 181.829L372.553 180.984Z" fill="url(#paint23_linear_4479_23189)"/>
<path d="M331.342 183.363L241.856 183.363C241.637 183.363 241.46 183.54 241.46 183.759V183.759C241.46 183.977 241.637 184.154 241.856 184.154L331.342 184.154L331.342 183.363Z" fill="url(#paint24_linear_4479_23189)"/>
<path d="M372.553 175.848L243.07 175.848C242.837 175.848 242.648 175.659 242.648 175.426V175.426C242.648 175.192 242.837 175.003 243.07 175.003L372.553 175.003L372.553 175.848Z" fill="url(#paint25_linear_4479_23189)"/>
<path d="M331.342 173.453L241.877 173.453C241.647 173.453 241.46 173.266 241.46 173.036V173.036C241.46 172.806 241.647 172.619 241.877 172.619L331.342 172.619L331.342 173.453Z" fill="url(#paint26_linear_4479_23189)"/>
</g>
<path d="M44 189.348L215.858 189.348C216.134 189.348 216.358 189.572 216.358 189.848V189.848C216.358 190.124 216.134 190.348 215.858 190.348H44V189.348Z" fill="url(#paint27_linear_4479_23189)"/>
<path d="M87.1309 187.328L216.614 187.328C216.847 187.328 217.036 187.139 217.036 186.906V186.906C217.036 186.673 216.847 186.484 216.614 186.484H87.1309V187.328Z" fill="url(#paint28_linear_4479_23189)"/>
<path d="M128.342 184.949L217.828 184.949C218.046 184.949 218.223 184.772 218.223 184.554V184.554C218.223 184.335 218.046 184.158 217.828 184.158H128.342V184.949Z" fill="url(#paint29_linear_4479_23189)"/>
<path d="M87.1309 192.465L216.614 192.465C216.847 192.465 217.036 192.654 217.036 192.887V192.887C217.036 193.12 216.847 193.309 216.614 193.309H87.1309V192.465Z" fill="url(#paint30_linear_4479_23189)"/>
<path d="M128.342 194.859L217.806 194.859C218.037 194.859 218.223 195.046 218.223 195.276V195.276C218.223 195.507 218.037 195.693 217.806 195.693H128.342V194.859Z" fill="url(#paint31_linear_4479_23189)"/>
<path d="M415.684 178.965L243.826 178.965C243.55 178.965 243.326 178.741 243.326 178.465V178.465C243.326 178.189 243.55 177.965 243.826 177.965L415.684 177.965L415.684 178.965Z" fill="url(#paint32_linear_4479_23189)"/>
<path d="M372.553 180.984L243.07 180.984C242.837 180.984 242.648 181.173 242.648 181.407V181.407C242.648 181.64 242.837 181.829 243.07 181.829L372.553 181.829L372.553 180.984Z" fill="url(#paint33_linear_4479_23189)"/>
<path d="M331.342 183.363L241.856 183.363C241.637 183.363 241.46 183.54 241.46 183.759V183.759C241.46 183.977 241.637 184.154 241.856 184.154L331.342 184.154L331.342 183.363Z" fill="url(#paint34_linear_4479_23189)"/>
<path d="M372.553 175.848L243.07 175.848C242.837 175.848 242.648 175.659 242.648 175.426V175.426C242.648 175.192 242.837 175.003 243.07 175.003L372.553 175.003L372.553 175.848Z" fill="url(#paint35_linear_4479_23189)"/>
<path d="M331.342 173.453L241.877 173.453C241.647 173.453 241.46 173.266 241.46 173.036V173.036C241.46 172.806 241.647 172.619 241.877 172.619L331.342 172.619L331.342 173.453Z" fill="url(#paint36_linear_4479_23189)"/>
<rect x="165.348" y="93.1172" width="17.1211" height="3.51077" fill="#53FDA9"/>
<rect x="165.348" y="119.02" width="55.9728" height="3.51077" fill="url(#paint37_linear_4479_23189)"/>
<rect x="165.348" y="126.043" width="55.9728" height="3.51077" fill="url(#paint38_linear_4479_23189)"/>
<rect x="165.348" y="134.539" width="19.5356" height="1.22533" fill="url(#paint39_linear_4479_23189)"/>
<rect x="238.936" y="119.02" width="55.9728" height="3.51077" fill="url(#paint40_linear_4479_23189)"/>
<rect x="238.936" y="126.043" width="55.9728" height="3.51077" fill="url(#paint41_linear_4479_23189)"/>
<rect x="238.936" y="134.539" width="19.5356" height="1.22533" fill="url(#paint42_linear_4479_23189)"/>
<circle cx="361.586" cy="168.125" r="1.5" transform="rotate(90 361.586 168.125)" fill="#53FEA9"/>
<defs>
<filter id="filter0_d_4479_23189" x="78.3184" y="99.2305" width="157.274" height="110.156" filterUnits="userSpaceOnUse" color-interpolation-filters="sRGB">
<feFlood flood-opacity="0" result="BackgroundImageFix"/>
<feColorMatrix in="SourceAlpha" type="matrix" values="0 0 0 0 0 0 0 0 0 0 0 0 0 0 0 0 0 0 127 0" result="hardAlpha"/>
<feOffset/>
<feGaussianBlur stdDeviation="6.5"/>
<feComposite in2="hardAlpha" operator="out"/>
<feColorMatrix type="matrix" values="0 0 0 0 0 0 0 0 0 1 0 0 0 0 0.7 0 0 0 0.25 0"/>
<feBlend mode="normal" in2="BackgroundImageFix" result="effect1_dropShadow_4479_23189"/>
<feBlend mode="normal" in="SourceGraphic" in2="effect1_dropShadow_4479_23189" result="shape"/>
</filter>
<filter id="filter1_d_4479_23189" x="224.666" y="99.2305" width="157.274" height="110.156" filterUnits="userSpaceOnUse" color-interpolation-filters="sRGB">
<feFlood flood-opacity="0" result="BackgroundImageFix"/>
<feColorMatrix in="SourceAlpha" type="matrix" values="0 0 0 0 0 0 0 0 0 0 0 0 0 0 0 0 0 0 127 0" result="hardAlpha"/>
<feOffset/>
<feGaussianBlur stdDeviation="6.5"/>
<feComposite in2="hardAlpha" operator="out"/>
<feColorMatrix type="matrix" values="0 0 0 0 0 0 0 0 0 1 0 0 0 0 0.7 0 0 0 0.25 0"/>
<feBlend mode="normal" in2="BackgroundImageFix" result="effect1_dropShadow_4479_23189"/>
<feBlend mode="normal" in="SourceGraphic" in2="effect1_dropShadow_4479_23189" result="shape"/>
</filter>
<filter id="filter2_d_4479_23189" x="67.5312" y="109.609" width="327.645" height="66.0234" filterUnits="userSpaceOnUse" color-interpolation-filters="sRGB">
<feFlood flood-opacity="0" result="BackgroundImageFix"/>
<feColorMatrix in="SourceAlpha" type="matrix" values="0 0 0 0 0 0 0 0 0 0 0 0 0 0 0 0 0 0 127 0" result="hardAlpha"/>
<feOffset/>
<feGaussianBlur stdDeviation="6.5"/>
<feComposite in2="hardAlpha" operator="out"/>
<feColorMatrix type="matrix" values="0 0 0 0 0 0 0 0 0 1 0 0 0 0 0.7 0 0 0 0.25 0"/>
<feBlend mode="normal" in2="BackgroundImageFix" result="effect1_dropShadow_4479_23189"/>
<feBlend mode="normal" in="SourceGraphic" in2="effect1_dropShadow_4479_23189" result="shape"/>
</filter>
<filter id="filter3_b_4479_23189" x="140.184" y="79.0156" width="179.889" height="121.043" filterUnits="userSpaceOnUse" color-interpolation-filters="sRGB">
<feFlood flood-opacity="0" result="BackgroundImageFix"/>
<feGaussianBlur in="BackgroundImage" stdDeviation="4"/>
<feComposite in2="SourceAlpha" operator="in" result="effect1_backgroundBlur_4479_23189"/>
<feBlend mode="normal" in="SourceGraphic" in2="effect1_backgroundBlur_4479_23189" result="shape"/>
</filter>
<filter id="filter4_f_4479_23189" x="184.596" y="137.621" width="91.0625" height="91.0625" filterUnits="userSpaceOnUse" color-interpolation-filters="sRGB">
<feFlood flood-opacity="0" result="BackgroundImageFix"/>
<feBlend mode="normal" in="SourceGraphic" in2="BackgroundImageFix" result="shape"/>
<feGaussianBlur stdDeviation="16" result="effect1_foregroundBlur_4479_23189"/>
</filter>
<filter id="filter5_f_4479_23189" x="40" y="180.158" width="182.223" height="19.5352" filterUnits="userSpaceOnUse" color-interpolation-filters="sRGB">
<feFlood flood-opacity="0" result="BackgroundImageFix"/>
<feBlend mode="normal" in="SourceGraphic" in2="BackgroundImageFix" result="shape"/>
<feGaussianBlur stdDeviation="2" result="effect1_foregroundBlur_4479_23189"/>
</filter>
<filter id="filter6_f_4479_23189" x="237.46" y="168.619" width="182.223" height="19.5352" filterUnits="userSpaceOnUse" color-interpolation-filters="sRGB">
<feFlood flood-opacity="0" result="BackgroundImageFix"/>
<feBlend mode="normal" in="SourceGraphic" in2="BackgroundImageFix" result="shape"/>
<feGaussianBlur stdDeviation="2" result="effect1_foregroundBlur_4479_23189"/>
</filter>
<linearGradient id="paint0_linear_4479_23189" x1="57.5491" y1="83.9084" x2="56.6295" y2="23.0345" gradientUnits="userSpaceOnUse">
<stop stop-color="#010101"/>
<stop offset="0.631454" stop-color="#010101" stop-opacity="0.600696"/>
<stop offset="1" stop-opacity="0"/>
</linearGradient>
<linearGradient id="paint1_linear_4479_23189" x1="65.512" y1="0" x2="65.512" y2="83.907" gradientUnits="userSpaceOnUse">
<stop offset="0.170133" stop-color="#53FDA9" stop-opacity="0"/>
<stop offset="1" stop-color="#53FDA9"/>
</linearGradient>
<linearGradient id="paint2_linear_4479_23189" x1="57.5491" y1="83.9084" x2="56.6295" y2="23.0345" gradientUnits="userSpaceOnUse">
<stop stop-color="#010101"/>
<stop offset="0.631454" stop-color="#010101" stop-opacity="0.600696"/>
<stop offset="1" stop-opacity="0"/>
</linearGradient>
<linearGradient id="paint3_linear_4479_23189" x1="65.512" y1="0" x2="65.512" y2="83.907" gradientUnits="userSpaceOnUse">
<stop offset="0.170133" stop-color="#53FDA9" stop-opacity="0"/>
<stop offset="1" stop-color="#53FDA9"/>
</linearGradient>
<linearGradient id="paint4_linear_4479_23189" x1="109.377" y1="131.307" x2="162.051" y2="131.307" gradientUnits="userSpaceOnUse">
<stop stop-color="#53FDA9"/>
<stop offset="1" stop-color="#53FDA9" stop-opacity="0"/>
</linearGradient>
<linearGradient id="paint5_linear_4479_23189" x1="109.377" y1="138.33" x2="162.051" y2="138.33" gradientUnits="userSpaceOnUse">
<stop stop-color="#53FDA9"/>
<stop offset="1" stop-color="#53FDA9" stop-opacity="0"/>
</linearGradient>
<linearGradient id="paint6_linear_4479_23189" x1="109.377" y1="145.683" x2="127.761" y2="145.683" gradientUnits="userSpaceOnUse">
<stop stop-color="#53FDA9"/>
<stop offset="1" stop-color="#53FDA9" stop-opacity="0"/>
</linearGradient>
<linearGradient id="paint7_linear_4479_23189" x1="298.346" y1="131.307" x2="351.02" y2="131.307" gradientUnits="userSpaceOnUse">
<stop stop-color="#53FDA9"/>
<stop offset="1" stop-color="#53FDA9" stop-opacity="0"/>
</linearGradient>
<linearGradient id="paint8_linear_4479_23189" x1="298.346" y1="138.33" x2="351.02" y2="138.33" gradientUnits="userSpaceOnUse">
<stop stop-color="#53FDA9"/>
<stop offset="1" stop-color="#53FDA9" stop-opacity="0"/>
</linearGradient>
<linearGradient id="paint9_linear_4479_23189" x1="298.346" y1="145.683" x2="316.73" y2="145.683" gradientUnits="userSpaceOnUse">
<stop stop-color="#53FDA9"/>
<stop offset="1" stop-color="#53FDA9" stop-opacity="0"/>
</linearGradient>
<linearGradient id="paint10_linear_4479_23189" x1="231.354" y1="123.109" x2="231.354" y2="162.133" gradientUnits="userSpaceOnUse">
<stop offset="0.170133" stop-color="#53FDA9" stop-opacity="0"/>
<stop offset="0.878479" stop-color="#53FDA9"/>
</linearGradient>
<linearGradient id="paint11_linear_4479_23189" x1="71.8746" y1="104.795" x2="71.8746" y2="11.7822" gradientUnits="userSpaceOnUse">
<stop stop-color="#010101"/>
<stop offset="0.631454" stop-color="#010101" stop-opacity="0.600696"/>
<stop offset="1" stop-opacity="0"/>
</linearGradient>
<linearGradient id="paint12_linear_4479_23189" x1="81.8197" y1="0" x2="81.8197" y2="104.794" gradientUnits="userSpaceOnUse">
<stop offset="0.170133" stop-color="#53FDA9" stop-opacity="0"/>
<stop offset="1" stop-color="#53FDA9"/>
</linearGradient>
<linearGradient id="paint13_linear_4479_23189" x1="307.819" y1="115.605" x2="247.035" y2="101.352" gradientUnits="userSpaceOnUse">
<stop stop-color="white"/>
<stop offset="1" stop-color="white" stop-opacity="0"/>
</linearGradient>
<linearGradient id="paint14_linear_4479_23189" x1="207.484" y1="46.4276" x2="154.623" y2="7.19509" gradientUnits="userSpaceOnUse">
<stop stop-color="white"/>
<stop offset="1" stop-color="white" stop-opacity="0"/>
</linearGradient>
<linearGradient id="paint15_linear_4479_23189" x1="223.427" y1="149.801" x2="223.427" y2="158.492" gradientUnits="userSpaceOnUse">
<stop stop-color="#53FDA9"/>
<stop offset="1" stop-opacity="0"/>
</linearGradient>
<linearGradient id="paint16_linear_4479_23189" x1="228.56" y1="152.97" x2="228.559" y2="207.5" gradientUnits="userSpaceOnUse">
<stop stop-color="#260671"/>
<stop offset="1" stop-opacity="0"/>
</linearGradient>
<linearGradient id="paint17_linear_4479_23189" x1="219.327" y1="189.735" x2="14.442" y2="127.746" gradientUnits="userSpaceOnUse">
<stop stop-color="#632BFF"/>
<stop offset="1" stop-opacity="0"/>
</linearGradient>
<linearGradient id="paint18_linear_4479_23189" x1="219.274" y1="187.001" x2="62.179" y2="229.433" gradientUnits="userSpaceOnUse">
<stop stop-color="#632BFF"/>
<stop offset="1" stop-opacity="0"/>
</linearGradient>
<linearGradient id="paint19_linear_4479_23189" x1="219.772" y1="184.643" x2="107.609" y2="207.013" gradientUnits="userSpaceOnUse">
<stop stop-color="#632BFF"/>
<stop offset="1" stop-opacity="0"/>
</linearGradient>
<linearGradient id="paint20_linear_4479_23189" x1="219.274" y1="192.792" x2="62.179" y2="150.36" gradientUnits="userSpaceOnUse">
<stop stop-color="#632BFF"/>
<stop offset="1" stop-opacity="0"/>
</linearGradient>
<linearGradient id="paint21_linear_4479_23189" x1="219.772" y1="195.182" x2="107.179" y2="173.877" gradientUnits="userSpaceOnUse">
<stop stop-color="#632BFF"/>
<stop offset="1" stop-opacity="0"/>
</linearGradient>
<linearGradient id="paint22_linear_4479_23189" x1="240.357" y1="178.577" x2="445.242" y2="240.566" gradientUnits="userSpaceOnUse">
<stop stop-color="#632BFF"/>
<stop offset="1" stop-opacity="0"/>
</linearGradient>
<linearGradient id="paint23_linear_4479_23189" x1="240.41" y1="181.311" x2="397.505" y2="138.879" gradientUnits="userSpaceOnUse">
<stop stop-color="#632BFF"/>
<stop offset="1" stop-opacity="0"/>
</linearGradient>
<linearGradient id="paint24_linear_4479_23189" x1="239.912" y1="183.67" x2="352.075" y2="161.3" gradientUnits="userSpaceOnUse">
<stop stop-color="#632BFF"/>
<stop offset="1" stop-opacity="0"/>
</linearGradient>
<linearGradient id="paint25_linear_4479_23189" x1="240.41" y1="175.521" x2="397.505" y2="217.953" gradientUnits="userSpaceOnUse">
<stop stop-color="#632BFF"/>
<stop offset="1" stop-opacity="0"/>
</linearGradient>
<linearGradient id="paint26_linear_4479_23189" x1="239.912" y1="173.13" x2="352.504" y2="194.436" gradientUnits="userSpaceOnUse">
<stop stop-color="#632BFF"/>
<stop offset="1" stop-opacity="0"/>
</linearGradient>
<linearGradient id="paint27_linear_4479_23189" x1="219.327" y1="189.735" x2="14.442" y2="127.746" gradientUnits="userSpaceOnUse">
<stop stop-color="#632BFF"/>
<stop offset="1" stop-opacity="0"/>
</linearGradient>
<linearGradient id="paint28_linear_4479_23189" x1="219.274" y1="187.001" x2="62.179" y2="229.433" gradientUnits="userSpaceOnUse">
<stop stop-color="#632BFF"/>
<stop offset="1" stop-opacity="0"/>
</linearGradient>
<linearGradient id="paint29_linear_4479_23189" x1="219.772" y1="184.643" x2="107.609" y2="207.013" gradientUnits="userSpaceOnUse">
<stop stop-color="#632BFF"/>
<stop offset="1" stop-opacity="0"/>
</linearGradient>
<linearGradient id="paint30_linear_4479_23189" x1="219.274" y1="192.792" x2="62.179" y2="150.36" gradientUnits="userSpaceOnUse">
<stop stop-color="#632BFF"/>
<stop offset="1" stop-opacity="0"/>
</linearGradient>
<linearGradient id="paint31_linear_4479_23189" x1="219.772" y1="195.182" x2="107.179" y2="173.877" gradientUnits="userSpaceOnUse">
<stop stop-color="#632BFF"/>
<stop offset="1" stop-opacity="0"/>
</linearGradient>
<linearGradient id="paint32_linear_4479_23189" x1="240.357" y1="178.577" x2="445.242" y2="240.566" gradientUnits="userSpaceOnUse">
<stop stop-color="#632BFF"/>
<stop offset="1" stop-opacity="0"/>
</linearGradient>
<linearGradient id="paint33_linear_4479_23189" x1="240.41" y1="181.311" x2="397.505" y2="138.879" gradientUnits="userSpaceOnUse">
<stop stop-color="#632BFF"/>
<stop offset="1" stop-opacity="0"/>
</linearGradient>
<linearGradient id="paint34_linear_4479_23189" x1="239.912" y1="183.67" x2="352.075" y2="161.3" gradientUnits="userSpaceOnUse">
<stop stop-color="#632BFF"/>
<stop offset="1" stop-opacity="0"/>
</linearGradient>
<linearGradient id="paint35_linear_4479_23189" x1="240.41" y1="175.521" x2="397.505" y2="217.953" gradientUnits="userSpaceOnUse">
<stop stop-color="#632BFF"/>
<stop offset="1" stop-opacity="0"/>
</linearGradient>
<linearGradient id="paint36_linear_4479_23189" x1="239.912" y1="173.13" x2="352.504" y2="194.436" gradientUnits="userSpaceOnUse">
<stop stop-color="#632BFF"/>
<stop offset="1" stop-opacity="0"/>
</linearGradient>
<linearGradient id="paint37_linear_4479_23189" x1="165.348" y1="120.775" x2="218.022" y2="120.775" gradientUnits="userSpaceOnUse">
<stop stop-color="#53FDA9"/>
<stop offset="1" stop-color="#53FDA9" stop-opacity="0"/>
</linearGradient>
<linearGradient id="paint38_linear_4479_23189" x1="165.348" y1="127.799" x2="218.022" y2="127.799" gradientUnits="userSpaceOnUse">
<stop stop-color="#53FDA9"/>
<stop offset="1" stop-color="#53FDA9" stop-opacity="0"/>
</linearGradient>
<linearGradient id="paint39_linear_4479_23189" x1="165.348" y1="135.152" x2="183.732" y2="135.152" gradientUnits="userSpaceOnUse">
<stop stop-color="#53FDA9"/>
<stop offset="1" stop-color="#53FDA9" stop-opacity="0"/>
</linearGradient>
<linearGradient id="paint40_linear_4479_23189" x1="238.936" y1="120.775" x2="291.61" y2="120.775" gradientUnits="userSpaceOnUse">
<stop stop-color="#53FDA9"/>
<stop offset="1" stop-color="#53FDA9" stop-opacity="0"/>
</linearGradient>
<linearGradient id="paint41_linear_4479_23189" x1="238.936" y1="127.799" x2="291.61" y2="127.799" gradientUnits="userSpaceOnUse">
<stop stop-color="#53FDA9"/>
<stop offset="1" stop-color="#53FDA9" stop-opacity="0"/>
</linearGradient>
<linearGradient id="paint42_linear_4479_23189" x1="238.936" y1="135.152" x2="257.32" y2="135.152" gradientUnits="userSpaceOnUse">
<stop stop-color="#53FDA9"/>
<stop offset="1" stop-color="#53FDA9" stop-opacity="0"/>
</linearGradient>
</defs>
</svg>
