<svg width="460" height="264" viewBox="0 0 460 264" fill="none" xmlns="http://www.w3.org/2000/svg">
<path d="M147.175 192.578L131.682 194.337C122.252 188.238 120.806 181.448 127.583 175.095L143.555 176.365C137.822 181.716 139.025 187.437 146.962 192.578H147.175ZM148.293 193.241L132.96 195.131C136.375 197.179 140.644 199.115 145.685 200.901L158.995 198.102C154.729 196.603 151.137 194.971 148.293 193.241ZM207.55 159.503C210.88 159.267 214.258 159.084 217.666 158.955L215.27 154.44C211.232 154.589 207.231 154.806 203.291 155.089L207.55 159.503ZM290.286 207.19L280.862 203.41C279.372 203.685 277.774 203.944 276.177 204.204L284.749 208.127C286.612 207.795 288.476 207.521 290.286 207.19ZM320.633 183.144C320.63 186.383 318.26 189.589 313.658 192.578L329.205 194.337C336.195 189.767 338.764 184.789 336.668 179.874C334.571 174.96 327.88 170.271 317.226 166.253L303.756 168.85C314.787 173.015 320.692 178.017 320.633 183.144ZM146.43 174.244C149.286 172.242 153.137 170.354 157.877 168.633L144.3 165.965C138.717 168.015 134.153 170.256 130.724 172.629L146.43 174.244ZM220.328 158.868C223.684 158.757 227.063 158.704 230.444 158.709C234.772 158.71 239.094 158.792 243.381 158.955L245.83 154.44C240.733 154.243 235.592 154.142 230.444 154.137C226.441 154.141 222.442 154.203 218.464 154.324L220.328 158.868ZM255.307 206.627C239.293 207.875 222.316 207.896 206.262 206.686C190.208 205.477 175.708 203.084 164.372 199.776L152.02 202.877C165.478 206.802 182.687 209.64 201.737 211.076C220.787 212.512 240.932 212.49 259.939 211.012L255.307 206.627ZM312.54 193.241C311.103 194.095 309.503 194.928 307.749 195.737L322.177 198.088C324.276 197.156 326.178 196.193 327.874 195.203L312.54 193.241ZM265.263 160.599C278.082 162.059 289.486 164.3 298.591 167.148L311.316 164.162C300.508 160.782 286.972 158.121 271.758 156.387L265.263 160.599ZM287.517 202.055L298.166 205.589C306.847 203.663 314.357 201.381 320.42 198.824L306.311 196.357C301.157 198.496 294.818 200.408 287.517 202.026V202.055Z" fill="url(#paint0_linear_4479_22530)"/>
<g filter="url(#filter0_d_4479_22530)">
<ellipse cx="230.377" cy="109.305" rx="110" ry="29" stroke="url(#paint1_linear_4479_22530)" stroke-linecap="round" stroke-linejoin="round" stroke-dasharray="2 2" shape-rendering="crispEdges"/>
</g>
<g filter="url(#filter1_d_4479_22530)">
<ellipse cx="230.681" cy="95.2135" rx="94.3039" ry="24.8619" stroke="url(#paint2_linear_4479_22530)" stroke-linecap="round" stroke-linejoin="round" stroke-dasharray="2 2" shape-rendering="crispEdges"/>
</g>
<g filter="url(#filter2_d_4479_22530)">
<ellipse cx="230.681" cy="137.475" rx="94.3039" ry="24.8619" stroke="url(#paint3_linear_4479_22530)" stroke-linecap="round" stroke-linejoin="round" stroke-dasharray="2 2" shape-rendering="crispEdges"/>
</g>
<rect x="156.377" y="71.1289" width="150" height="15" rx="7.5" fill="url(#paint4_linear_4479_22530)"/>
<rect x="160.404" y="75.1289" width="141.946" height="7" rx="3.5" fill="url(#paint5_linear_4479_22530)"/>
<rect x="165.377" y="78.1289" width="132" height="108" rx="1" fill="url(#paint6_linear_4479_22530)"/>
<path opacity="0.5" d="M186.377 79.1289H180.377V189.129H186.377V79.1289Z" fill="url(#paint7_linear_4479_22530)"/>
<path opacity="0.2" d="M219.377 79.1289H213.377V189.129H219.377V79.1289Z" fill="url(#paint8_linear_4479_22530)"/>
<path opacity="0.6" d="M284.377 79.1289H280.377V171.129H284.377V79.1289Z" fill="url(#paint9_linear_4479_22530)"/>
<path opacity="0.2" d="M273.377 79.1289H271.377V171.129H273.377V79.1289Z" fill="url(#paint10_linear_4479_22530)"/>
<path opacity="0.2" d="M247.377 79.1289H241.377V189.129H247.377V79.1289Z" fill="url(#paint11_linear_4479_22530)"/>
<path opacity="0.6" d="M265.377 79.1289H261.377V171.129H265.377V79.1289Z" fill="url(#paint12_linear_4479_22530)"/>
<path opacity="0.2" d="M254.377 79.1289H252.377V171.129H254.377V79.1289Z" fill="url(#paint13_linear_4479_22530)"/>
<path opacity="0.1" d="M226.377 79.1289H224.377V171.129H226.377V79.1289Z" fill="url(#paint14_linear_4479_22530)"/>
<path opacity="0.2" d="M194.377 79.1289H191.377V204.129H194.377V79.1289Z" fill="url(#paint15_linear_4479_22530)"/>
<path d="M229.377 178.129L229.377 79.6289C229.377 79.3528 229.601 79.1289 229.877 79.1289V79.1289C230.153 79.1289 230.377 79.3528 230.377 79.6289L230.377 178.129L229.377 178.129Z" fill="url(#paint16_linear_4479_22530)"/>
<path d="M231.377 153.129L231.377 79.6289C231.377 79.3528 231.601 79.1289 231.877 79.1289V79.1289C232.153 79.1289 232.377 79.3528 232.377 79.6289L232.377 153.129L231.377 153.129Z" fill="url(#paint17_linear_4479_22530)"/>
<path d="M221.377 179.129L221.377 79.6289C221.377 79.3528 221.601 79.1289 221.877 79.1289V79.1289C222.153 79.1289 222.377 79.3528 222.377 79.6289L222.377 179.129L221.377 179.129Z" fill="url(#paint18_linear_4479_22530)"/>
<path d="M175.377 181.129L175.377 79.6289C175.377 79.3528 175.601 79.1289 175.877 79.1289V79.1289C176.153 79.1289 176.377 79.3528 176.377 79.6289L176.377 181.129L175.377 181.129Z" fill="url(#paint19_linear_4479_22530)"/>
<path d="M296.377 181.129L296.377 79.6289C296.377 79.3528 296.601 79.1289 296.877 79.1289V79.1289C297.153 79.1289 297.377 79.3528 297.377 79.6289L297.377 181.129L296.377 181.129Z" fill="url(#paint20_linear_4479_22530)"/>
<path d="M294.377 159.129L294.377 79.6289C294.377 79.3528 294.601 79.1289 294.877 79.1289V79.1289C295.153 79.1289 295.377 79.3528 295.377 79.6289L295.377 159.129L294.377 159.129Z" fill="url(#paint21_linear_4479_22530)"/>
<path d="M172.377 156.129L172.377 79.6289C172.377 79.3528 172.601 79.1289 172.877 79.1289V79.1289C173.153 79.1289 173.377 79.3528 173.377 79.6289L173.377 156.129L172.377 156.129Z" fill="url(#paint22_linear_4479_22530)"/>
<path d="M266.377 157.129L266.377 79.6289C266.377 79.3528 266.601 79.1289 266.877 79.1289V79.1289C267.153 79.1289 267.377 79.3528 267.377 79.6289L267.377 157.129L266.377 157.129Z" fill="url(#paint23_linear_4479_22530)"/>
<path d="M263.377 138.129L263.377 79.6289C263.377 79.3528 263.601 79.1289 263.877 79.1289V79.1289C264.153 79.1289 264.377 79.3528 264.377 79.6289L264.377 138.129L263.377 138.129Z" fill="url(#paint24_linear_4479_22530)"/>
<path d="M170.377 126.129L170.377 79.6289C170.377 79.3528 170.601 79.1289 170.877 79.1289V79.1289C171.153 79.1289 171.377 79.3528 171.377 79.6289L171.377 126.129L170.377 126.129Z" fill="url(#paint25_linear_4479_22530)"/>
<path d="M167.377 188.129L167.377 79.6289C167.377 79.3528 167.601 79.1289 167.877 79.1289V79.1289C168.153 79.1289 168.377 79.3528 168.377 79.6289L168.377 188.129L167.377 188.129Z" fill="url(#paint26_linear_4479_22530)"/>
<path d="M164.377 89.1289L164.377 109.629C164.377 109.905 164.153 110.129 163.877 110.129V110.129C163.601 110.129 163.377 109.905 163.377 109.629L163.377 89.1289L164.377 89.1289Z" fill="url(#paint27_linear_4479_22530)"/>
<path d="M299.377 88.1289L299.377 119.629C299.377 119.905 299.153 120.129 298.877 120.129V120.129C298.601 120.129 298.377 119.905 298.377 119.629L298.377 88.1289L299.377 88.1289Z" fill="url(#paint28_linear_4479_22530)"/>
<path d="M300.377 129.129L300.377 152.629C300.377 152.905 300.153 153.129 299.877 153.129V153.129C299.601 153.129 299.377 152.905 299.377 152.629L299.377 129.129L300.377 129.129Z" fill="url(#paint29_linear_4479_22530)"/>
<path d="M162.377 117.129L162.377 125.629C162.377 125.905 162.153 126.129 161.877 126.129V126.129C161.601 126.129 161.377 125.905 161.377 125.629L161.377 117.129L162.377 117.129Z" fill="url(#paint30_linear_4479_22530)"/>
<path d="M299.377 170.129L299.377 178.629C299.377 178.905 299.153 179.129 298.877 179.129V179.129C298.601 179.129 298.377 178.905 298.377 178.629L298.377 170.129L299.377 170.129Z" fill="url(#paint31_linear_4479_22530)"/>
<path d="M164.377 139.129L164.377 142.629C164.377 142.905 164.153 143.129 163.877 143.129V143.129C163.601 143.129 163.377 142.905 163.377 142.629L163.377 139.129L164.377 139.129Z" fill="url(#paint32_linear_4479_22530)"/>
<path d="M299.377 122.129L299.377 123.629C299.377 123.905 299.153 124.129 298.877 124.129V124.129C298.601 124.129 298.377 123.905 298.377 123.629L298.377 122.129L299.377 122.129Z" fill="url(#paint33_linear_4479_22530)"/>
<path d="M164.377 145.129L164.377 146.629C164.377 146.905 164.153 147.129 163.877 147.129V147.129C163.601 147.129 163.377 146.905 163.377 146.629L163.377 145.129L164.377 145.129Z" fill="url(#paint34_linear_4479_22530)"/>
<path d="M165.377 153.129L165.377 186.629C165.377 186.905 165.153 187.129 164.877 187.129V187.129C164.601 187.129 164.377 186.905 164.377 186.629L164.377 153.129L165.377 153.129Z" fill="url(#paint35_linear_4479_22530)"/>
<path d="M255.377 170.129L255.377 195.629C255.377 195.905 255.153 196.129 254.877 196.129V196.129C254.601 196.129 254.377 195.905 254.377 195.629L254.377 170.129L255.377 170.129Z" fill="url(#paint36_linear_4479_22530)"/>
<path d="M282.377 153.129L282.377 171.629C282.377 171.905 282.153 172.129 281.877 172.129V172.129C281.601 172.129 281.377 171.905 281.377 171.629L281.377 153.129L282.377 153.129Z" fill="url(#paint37_linear_4479_22530)"/>
<path d="M300.377 180.129L300.377 185.629C300.377 185.905 300.153 186.129 299.877 186.129V186.129C299.601 186.129 299.377 185.905 299.377 185.629L299.377 180.129L300.377 180.129Z" fill="url(#paint38_linear_4479_22530)"/>
<path d="M217.377 139.129L217.377 79.6289C217.377 79.3528 217.601 79.1289 217.877 79.1289V79.1289C218.153 79.1289 218.377 79.3528 218.377 79.6289L218.377 139.129L217.377 139.129Z" fill="url(#paint39_linear_4479_22530)"/>
<path d="M221.393 210.879L221.393 144.554C221.393 144.287 221.609 144.07 221.876 144.07V144.07C222.144 144.07 222.36 144.287 222.36 144.554L222.36 210.879L221.393 210.879Z" fill="url(#paint40_linear_4479_22530)"/>
<path d="M219.379 194.129L219.379 143.629C219.379 143.353 219.155 143.129 218.879 143.129V143.129C218.603 143.129 218.379 143.353 218.379 143.629L218.379 194.129L219.379 194.129Z" fill="url(#paint41_linear_4479_22530)"/>
<path d="M224.377 194.129L224.377 143.629C224.377 143.353 224.601 143.129 224.877 143.129V143.129C225.153 143.129 225.377 143.353 225.377 143.629L225.377 194.129L224.377 194.129Z" fill="url(#paint42_linear_4479_22530)"/>
<g filter="url(#filter3_f_4479_22530)">
<path d="M221.436 211.129L221.436 144.402C221.436 144.133 221.654 143.915 221.922 143.915V143.915C222.191 143.915 222.409 144.133 222.409 144.402L222.409 211.129L221.436 211.129Z" fill="url(#paint43_radial_4479_22530)"/>
<path d="M219.377 194.129L219.377 143.629C219.377 143.353 219.153 143.129 218.877 143.129V143.129C218.601 143.129 218.377 143.353 218.377 143.629L218.377 194.129L219.377 194.129Z" fill="url(#paint44_radial_4479_22530)"/>
<path d="M224.377 193.637L224.377 143.665C224.377 143.37 224.616 143.13 224.911 143.13V143.13C225.207 143.13 225.446 143.37 225.446 143.665L225.446 193.637L224.377 193.637Z" fill="url(#paint45_radial_4479_22530)"/>
</g>
<circle cx="222.189" cy="136.629" r="6" fill="url(#paint46_linear_4479_22530)" stroke="#53FDA9"/>
<path d="M187.08 175.879L187.08 109.554C187.08 109.287 187.297 109.07 187.564 109.07V109.07C187.831 109.07 188.048 109.287 188.048 109.554L188.048 175.879L187.08 175.879Z" fill="url(#paint47_linear_4479_22530)"/>
<path d="M185.066 159.129L185.066 108.629C185.066 108.353 184.843 108.129 184.566 108.129V108.129C184.29 108.129 184.066 108.353 184.066 108.629L184.066 159.129L185.066 159.129Z" fill="url(#paint48_linear_4479_22530)"/>
<path d="M190.064 159.129L190.064 108.629C190.064 108.353 190.288 108.129 190.564 108.129V108.129C190.841 108.129 191.064 108.353 191.064 108.629L191.064 159.129L190.064 159.129Z" fill="url(#paint49_linear_4479_22530)"/>
<g filter="url(#filter4_f_4479_22530)">
<path d="M187.123 176.129L187.123 109.402C187.123 109.133 187.341 108.915 187.61 108.915V108.915C187.879 108.915 188.097 109.133 188.097 109.402L188.097 176.129L187.123 176.129Z" fill="url(#paint50_radial_4479_22530)"/>
<path d="M185.064 159.129L185.064 108.629C185.064 108.353 184.841 108.129 184.564 108.129V108.129C184.288 108.129 184.064 108.353 184.064 108.629L184.064 159.129L185.064 159.129Z" fill="url(#paint51_radial_4479_22530)"/>
<path d="M190.064 158.637L190.064 108.665C190.064 108.37 190.304 108.13 190.599 108.13V108.13C190.894 108.13 191.133 108.37 191.133 108.665L191.133 158.637L190.064 158.637Z" fill="url(#paint52_radial_4479_22530)"/>
</g>
<circle cx="187.877" cy="101.629" r="6" fill="url(#paint53_linear_4479_22530)" stroke="#53FDA9"/>
<path d="M270.08 190.879L270.08 124.554C270.08 124.287 270.297 124.07 270.564 124.07V124.07C270.831 124.07 271.048 124.287 271.048 124.554L271.048 190.879L270.08 190.879Z" fill="url(#paint54_linear_4479_22530)"/>
<path d="M268.066 174.129L268.066 123.629C268.066 123.353 267.843 123.129 267.566 123.129V123.129C267.29 123.129 267.066 123.353 267.066 123.629L267.066 174.129L268.066 174.129Z" fill="url(#paint55_linear_4479_22530)"/>
<path d="M273.064 174.129L273.064 123.629C273.064 123.353 273.288 123.129 273.564 123.129V123.129C273.841 123.129 274.064 123.353 274.064 123.629L274.064 174.129L273.064 174.129Z" fill="url(#paint56_linear_4479_22530)"/>
<g filter="url(#filter5_f_4479_22530)">
<path d="M270.123 191.129L270.123 124.402C270.123 124.133 270.341 123.915 270.61 123.915V123.915C270.879 123.915 271.097 124.133 271.097 124.402L271.097 191.129L270.123 191.129Z" fill="url(#paint57_radial_4479_22530)"/>
<path d="M268.064 174.129L268.064 123.629C268.064 123.353 267.841 123.129 267.564 123.129V123.129C267.288 123.129 267.064 123.353 267.064 123.629L267.064 174.129L268.064 174.129Z" fill="url(#paint58_radial_4479_22530)"/>
<path d="M273.064 173.637L273.064 123.665C273.064 123.37 273.304 123.13 273.599 123.13V123.13C273.894 123.13 274.133 123.37 274.133 123.665L274.133 173.637L273.064 173.637Z" fill="url(#paint59_radial_4479_22530)"/>
</g>
<circle cx="270.877" cy="116.629" r="6" fill="url(#paint60_linear_4479_22530)" stroke="#53FDA9"/>
<path opacity="0.2" d="M254.377 107.129H243.377L248.877 203.129L254.377 107.129Z" fill="url(#paint61_linear_4479_22530)"/>
<path d="M248.877 117.129L254.377 107.129H243.377L248.877 117.129Z" fill="url(#paint62_linear_4479_22530)"/>
<path opacity="0.2" d="M205.377 170.129H198.377L201.877 203.129L205.377 170.129Z" fill="url(#paint63_linear_4479_22530)"/>
<path d="M201.877 175.129L205.377 170.129H198.377L201.877 175.129Z" fill="url(#paint64_linear_4479_22530)"/>
<path d="M206.377 123.129L206.377 156.629C206.377 156.905 206.153 157.129 205.877 157.129V157.129C205.601 157.129 205.377 156.905 205.377 156.629L205.377 123.129L206.377 123.129Z" fill="url(#paint65_linear_4479_22530)"/>
<circle cx="168.377" cy="73.1289" r="1" fill="#52F8A7"/>
<rect x="168.377" y="72.1289" width="31" height="2" fill="url(#paint66_linear_4479_22530)"/>
<circle r="1" transform="matrix(-1 0 0 1 294.377 73.1289)" fill="#52F8A7"/>
<rect width="31" height="2" transform="matrix(-1 0 0 1 294.377 72.1289)" fill="url(#paint67_linear_4479_22530)"/>
<path d="M253.377 107.129L242.877 107.129C242.601 107.129 242.377 106.905 242.377 106.629V106.629C242.377 106.353 242.601 106.129 242.877 106.129L253.377 106.129L253.377 107.129Z" fill="url(#paint68_radial_4479_22530)"/>
<path d="M242.377 128.129L242.377 106.629C242.377 106.353 242.601 106.129 242.877 106.129V106.129C243.153 106.129 243.377 106.353 243.377 106.629L243.377 128.129L242.377 128.129Z" fill="url(#paint69_radial_4479_22530)"/>
<path d="M254.377 117.129L254.377 106.629C254.377 106.353 254.601 106.129 254.877 106.129V106.129C255.153 106.129 255.377 106.353 255.377 106.629L255.377 117.129L254.377 117.129Z" fill="url(#paint70_radial_4479_22530)"/>
<path d="M255.377 121.129L255.377 124.629C255.377 124.905 255.153 125.129 254.877 125.129V125.129C254.601 125.129 254.377 124.905 254.377 124.629L254.377 121.129L255.377 121.129Z" fill="url(#paint71_radial_4479_22530)"/>
<path d="M255.377 127.129L255.377 128.629C255.377 128.905 255.153 129.129 254.877 129.129V129.129C254.601 129.129 254.377 128.905 254.377 128.629L254.377 127.129L255.377 127.129Z" fill="url(#paint72_radial_4479_22530)"/>
<path d="M244.377 106.129L254.877 106.129C255.153 106.129 255.377 106.353 255.377 106.629V106.629C255.377 106.905 255.153 107.129 254.877 107.129H244.377L244.377 106.129Z" fill="url(#paint73_radial_4479_22530)"/>
<defs>
<filter id="filter0_d_4479_22530" x="106.877" y="66.8047" width="247" height="85" filterUnits="userSpaceOnUse" color-interpolation-filters="sRGB">
<feFlood flood-opacity="0" result="BackgroundImageFix"/>
<feColorMatrix in="SourceAlpha" type="matrix" values="0 0 0 0 0 0 0 0 0 0 0 0 0 0 0 0 0 0 127 0" result="hardAlpha"/>
<feOffset/>
<feGaussianBlur stdDeviation="6.5"/>
<feComposite in2="hardAlpha" operator="out"/>
<feColorMatrix type="matrix" values="0 0 0 0 0 0 0 0 0 1 0 0 0 0 0.7 0 0 0 0.25 0"/>
<feBlend mode="normal" in2="BackgroundImageFix" result="effect1_dropShadow_4479_22530"/>
<feBlend mode="normal" in="SourceGraphic" in2="effect1_dropShadow_4479_22530" result="shape"/>
</filter>
<filter id="filter1_d_4479_22530" x="122.877" y="56.8516" width="215.608" height="76.7246" filterUnits="userSpaceOnUse" color-interpolation-filters="sRGB">
<feFlood flood-opacity="0" result="BackgroundImageFix"/>
<feColorMatrix in="SourceAlpha" type="matrix" values="0 0 0 0 0 0 0 0 0 0 0 0 0 0 0 0 0 0 127 0" result="hardAlpha"/>
<feOffset/>
<feGaussianBlur stdDeviation="6.5"/>
<feComposite in2="hardAlpha" operator="out"/>
<feColorMatrix type="matrix" values="0 0 0 0 0 0 0 0 0 1 0 0 0 0 0.7 0 0 0 0.25 0"/>
<feBlend mode="normal" in2="BackgroundImageFix" result="effect1_dropShadow_4479_22530"/>
<feBlend mode="normal" in="SourceGraphic" in2="effect1_dropShadow_4479_22530" result="shape"/>
</filter>
<filter id="filter2_d_4479_22530" x="122.877" y="99.1133" width="215.608" height="76.7246" filterUnits="userSpaceOnUse" color-interpolation-filters="sRGB">
<feFlood flood-opacity="0" result="BackgroundImageFix"/>
<feColorMatrix in="SourceAlpha" type="matrix" values="0 0 0 0 0 0 0 0 0 0 0 0 0 0 0 0 0 0 127 0" result="hardAlpha"/>
<feOffset/>
<feGaussianBlur stdDeviation="6.5"/>
<feComposite in2="hardAlpha" operator="out"/>
<feColorMatrix type="matrix" values="0 0 0 0 0 0 0 0 0 1 0 0 0 0 0.7 0 0 0 0.25 0"/>
<feBlend mode="normal" in2="BackgroundImageFix" result="effect1_dropShadow_4479_22530"/>
<feBlend mode="normal" in="SourceGraphic" in2="effect1_dropShadow_4479_22530" result="shape"/>
</filter>
<filter id="filter3_f_4479_22530" x="214.377" y="139.129" width="15.0691" height="76" filterUnits="userSpaceOnUse" color-interpolation-filters="sRGB">
<feFlood flood-opacity="0" result="BackgroundImageFix"/>
<feBlend mode="normal" in="SourceGraphic" in2="BackgroundImageFix" result="shape"/>
<feGaussianBlur stdDeviation="2" result="effect1_foregroundBlur_4479_22530"/>
</filter>
<filter id="filter4_f_4479_22530" x="180.064" y="104.129" width="15.0691" height="76" filterUnits="userSpaceOnUse" color-interpolation-filters="sRGB">
<feFlood flood-opacity="0" result="BackgroundImageFix"/>
<feBlend mode="normal" in="SourceGraphic" in2="BackgroundImageFix" result="shape"/>
<feGaussianBlur stdDeviation="2" result="effect1_foregroundBlur_4479_22530"/>
</filter>
<filter id="filter5_f_4479_22530" x="263.064" y="119.129" width="15.0691" height="76" filterUnits="userSpaceOnUse" color-interpolation-filters="sRGB">
<feFlood flood-opacity="0" result="BackgroundImageFix"/>
<feBlend mode="normal" in="SourceGraphic" in2="BackgroundImageFix" result="shape"/>
<feGaussianBlur stdDeviation="2" result="effect1_foregroundBlur_4479_22530"/>
</filter>
<linearGradient id="paint0_linear_4479_22530" x1="314.877" y1="248.629" x2="331.119" y2="107.551" gradientUnits="userSpaceOnUse">
<stop stop-color="#632BFF"/>
<stop offset="1" stop-color="#060606" stop-opacity="0"/>
</linearGradient>
<linearGradient id="paint1_linear_4479_22530" x1="230.377" y1="80.3047" x2="230.377" y2="138.305" gradientUnits="userSpaceOnUse">
<stop offset="0.170133" stop-color="#53FDA9" stop-opacity="0"/>
<stop offset="0.878479" stop-color="#53FDA9"/>
</linearGradient>
<linearGradient id="paint2_linear_4479_22530" x1="230.681" y1="70.3516" x2="230.681" y2="120.075" gradientUnits="userSpaceOnUse">
<stop offset="0.170133" stop-color="white" stop-opacity="0"/>
<stop offset="0.878479" stop-color="white"/>
</linearGradient>
<linearGradient id="paint3_linear_4479_22530" x1="230.681" y1="112.613" x2="230.681" y2="162.337" gradientUnits="userSpaceOnUse">
<stop offset="0.170133" stop-color="white" stop-opacity="0"/>
<stop offset="0.878479" stop-color="white"/>
</linearGradient>
<linearGradient id="paint4_linear_4479_22530" x1="231.88" y1="27.6289" x2="231.88" y2="88.6289" gradientUnits="userSpaceOnUse">
<stop offset="0.505946" stop-color="#632BFF"/>
<stop offset="1" stop-color="#632BFF" stop-opacity="0"/>
</linearGradient>
<linearGradient id="paint5_linear_4479_22530" x1="231.377" y1="62.6289" x2="231.377" y2="92.1289" gradientUnits="userSpaceOnUse">
<stop offset="0.505946" stop-color="#150C31"/>
<stop offset="1" stop-color="#632BFF" stop-opacity="0"/>
</linearGradient>
<linearGradient id="paint6_linear_4479_22530" x1="231.377" y1="78.1289" x2="231.377" y2="186.129" gradientUnits="userSpaceOnUse">
<stop stop-color="#53FDA9"/>
<stop offset="1" stop-color="#2B0C80" stop-opacity="0"/>
</linearGradient>
<linearGradient id="paint7_linear_4479_22530" x1="183.377" y1="79.1289" x2="183.377" y2="189.129" gradientUnits="userSpaceOnUse">
<stop stop-color="#53FDA9"/>
<stop offset="1" stop-opacity="0"/>
</linearGradient>
<linearGradient id="paint8_linear_4479_22530" x1="216.377" y1="79.1289" x2="216.377" y2="189.129" gradientUnits="userSpaceOnUse">
<stop stop-color="#53FDA9"/>
<stop offset="1" stop-opacity="0"/>
</linearGradient>
<linearGradient id="paint9_linear_4479_22530" x1="282.377" y1="79.1289" x2="282.377" y2="171.129" gradientUnits="userSpaceOnUse">
<stop stop-color="#53FDA9"/>
<stop offset="1" stop-opacity="0"/>
</linearGradient>
<linearGradient id="paint10_linear_4479_22530" x1="272.377" y1="79.1289" x2="272.377" y2="171.129" gradientUnits="userSpaceOnUse">
<stop stop-color="#53FDA9"/>
<stop offset="1" stop-opacity="0"/>
</linearGradient>
<linearGradient id="paint11_linear_4479_22530" x1="244.377" y1="79.1289" x2="244.377" y2="189.129" gradientUnits="userSpaceOnUse">
<stop stop-color="#53FDA9"/>
<stop offset="1" stop-opacity="0"/>
</linearGradient>
<linearGradient id="paint12_linear_4479_22530" x1="263.377" y1="79.1289" x2="263.377" y2="171.129" gradientUnits="userSpaceOnUse">
<stop stop-color="#53FDA9"/>
<stop offset="1" stop-opacity="0"/>
</linearGradient>
<linearGradient id="paint13_linear_4479_22530" x1="253.377" y1="79.1289" x2="253.377" y2="171.129" gradientUnits="userSpaceOnUse">
<stop stop-color="#53FDA9"/>
<stop offset="1" stop-opacity="0"/>
</linearGradient>
<linearGradient id="paint14_linear_4479_22530" x1="225.377" y1="79.1289" x2="225.377" y2="171.129" gradientUnits="userSpaceOnUse">
<stop stop-color="#53FDA9"/>
<stop offset="1" stop-opacity="0"/>
</linearGradient>
<linearGradient id="paint15_linear_4479_22530" x1="192.877" y1="79.1289" x2="192.877" y2="204.129" gradientUnits="userSpaceOnUse">
<stop stop-color="#53FDA9"/>
<stop offset="1" stop-opacity="0"/>
</linearGradient>
<linearGradient id="paint16_linear_4479_22530" x1="229.764" y1="77.4235" x2="208.095" y2="202.113" gradientUnits="userSpaceOnUse">
<stop stop-color="#53FDA9"/>
<stop offset="1" stop-color="#2F0B8F" stop-opacity="0"/>
</linearGradient>
<linearGradient id="paint17_linear_4479_22530" x1="231.764" y1="77.8541" x2="219.499" y2="172.278" gradientUnits="userSpaceOnUse">
<stop stop-color="#53FDA9"/>
<stop offset="1" stop-color="#2F0B8F" stop-opacity="0"/>
</linearGradient>
<linearGradient id="paint18_linear_4479_22530" x1="221.764" y1="77.4062" x2="199.668" y2="203.281" gradientUnits="userSpaceOnUse">
<stop stop-color="#53FDA9"/>
<stop offset="1" stop-color="#2F0B8F" stop-opacity="0"/>
</linearGradient>
<linearGradient id="paint19_linear_4479_22530" x1="175.764" y1="77.3718" x2="152.803" y2="205.609" gradientUnits="userSpaceOnUse">
<stop stop-color="#53FDA9"/>
<stop offset="1" stop-color="#2F0B8F" stop-opacity="0"/>
</linearGradient>
<linearGradient id="paint20_linear_4479_22530" x1="296.764" y1="77.3718" x2="273.803" y2="205.609" gradientUnits="userSpaceOnUse">
<stop stop-color="#53FDA9"/>
<stop offset="1" stop-color="#2F0B8F" stop-opacity="0"/>
</linearGradient>
<linearGradient id="paint21_linear_4479_22530" x1="294.764" y1="77.7508" x2="280.469" y2="179.546" gradientUnits="userSpaceOnUse">
<stop stop-color="#53FDA9"/>
<stop offset="1" stop-color="#2F0B8F" stop-opacity="0"/>
</linearGradient>
<linearGradient id="paint22_linear_4479_22530" x1="172.764" y1="77.8024" x2="159.502" y2="175.92" gradientUnits="userSpaceOnUse">
<stop stop-color="#53FDA9"/>
<stop offset="1" stop-color="#2F0B8F" stop-opacity="0"/>
</linearGradient>
<linearGradient id="paint23_linear_4479_22530" x1="266.764" y1="77.7852" x2="253.162" y2="177.13" gradientUnits="userSpaceOnUse">
<stop stop-color="#53FDA9"/>
<stop offset="1" stop-color="#2F0B8F" stop-opacity="0"/>
</linearGradient>
<linearGradient id="paint24_linear_4479_22530" x1="263.764" y1="78.1125" x2="255.92" y2="153.855" gradientUnits="userSpaceOnUse">
<stop stop-color="#53FDA9"/>
<stop offset="1" stop-color="#2F0B8F" stop-opacity="0"/>
</linearGradient>
<linearGradient id="paint25_linear_4479_22530" x1="170.764" y1="78.3192" x2="165.767" y2="138.891" gradientUnits="userSpaceOnUse">
<stop stop-color="#53FDA9"/>
<stop offset="1" stop-color="#2F0B8F" stop-opacity="0"/>
</linearGradient>
<linearGradient id="paint26_linear_4479_22530" x1="167.764" y1="77.2512" x2="141.659" y2="213.687" gradientUnits="userSpaceOnUse">
<stop stop-color="#53FDA9"/>
<stop offset="1" stop-color="#2F0B8F" stop-opacity="0"/>
</linearGradient>
<linearGradient id="paint27_linear_4479_22530" x1="163.99" y1="110.491" x2="164.993" y2="83.2795" gradientUnits="userSpaceOnUse">
<stop stop-color="#53FDA9"/>
<stop offset="1" stop-color="#2F0B8F" stop-opacity="0"/>
</linearGradient>
<linearGradient id="paint28_linear_4479_22530" x1="298.99" y1="120.68" x2="301.314" y2="79.2897" gradientUnits="userSpaceOnUse">
<stop stop-color="#53FDA9"/>
<stop offset="1" stop-color="#2F0B8F" stop-opacity="0"/>
</linearGradient>
<linearGradient id="paint29_linear_4479_22530" x1="299.99" y1="153.542" x2="301.299" y2="122.457" gradientUnits="userSpaceOnUse">
<stop stop-color="#53FDA9"/>
<stop offset="1" stop-color="#2F0B8F" stop-opacity="0"/>
</linearGradient>
<linearGradient id="paint30_linear_4479_22530" x1="161.99" y1="126.284" x2="162.174" y2="114.609" gradientUnits="userSpaceOnUse">
<stop stop-color="#53FDA9"/>
<stop offset="1" stop-color="#2F0B8F" stop-opacity="0"/>
</linearGradient>
<linearGradient id="paint31_linear_4479_22530" x1="298.99" y1="179.284" x2="299.174" y2="167.609" gradientUnits="userSpaceOnUse">
<stop stop-color="#53FDA9"/>
<stop offset="1" stop-color="#2F0B8F" stop-opacity="0"/>
</linearGradient>
<linearGradient id="paint32_linear_4479_22530" x1="163.99" y1="143.198" x2="164.026" y2="138.008" gradientUnits="userSpaceOnUse">
<stop stop-color="#53FDA9"/>
<stop offset="1" stop-color="#2F0B8F" stop-opacity="0"/>
</linearGradient>
<linearGradient id="paint33_linear_4479_22530" x1="298.99" y1="124.163" x2="298.999" y2="121.568" gradientUnits="userSpaceOnUse">
<stop stop-color="#53FDA9"/>
<stop offset="1" stop-color="#2F0B8F" stop-opacity="0"/>
</linearGradient>
<linearGradient id="paint34_linear_4479_22530" x1="163.99" y1="147.163" x2="163.999" y2="144.568" gradientUnits="userSpaceOnUse">
<stop stop-color="#53FDA9"/>
<stop offset="1" stop-color="#2F0B8F" stop-opacity="0"/>
</linearGradient>
<linearGradient id="paint35_linear_4479_22530" x1="164.99" y1="187.715" x2="167.613" y2="143.755" gradientUnits="userSpaceOnUse">
<stop stop-color="#53FDA9"/>
<stop offset="1" stop-color="#2F0B8F" stop-opacity="0"/>
</linearGradient>
<linearGradient id="paint36_linear_4479_22530" x1="254.99" y1="196.577" x2="256.526" y2="162.911" gradientUnits="userSpaceOnUse">
<stop stop-color="#53FDA9"/>
<stop offset="1" stop-color="#2F0B8F" stop-opacity="0"/>
</linearGradient>
<linearGradient id="paint37_linear_4479_22530" x1="281.99" y1="172.456" x2="282.811" y2="147.83" gradientUnits="userSpaceOnUse">
<stop stop-color="#53FDA9"/>
<stop offset="1" stop-color="#2F0B8F" stop-opacity="0"/>
</linearGradient>
<linearGradient id="paint38_linear_4479_22530" x1="299.99" y1="186.232" x2="300.071" y2="178.448" gradientUnits="userSpaceOnUse">
<stop stop-color="#53FDA9"/>
<stop offset="1" stop-color="#2F0B8F" stop-opacity="0"/>
</linearGradient>
<linearGradient id="paint39_linear_4479_22530" x1="217.764" y1="78.0953" x2="209.655" y2="155.093" gradientUnits="userSpaceOnUse">
<stop stop-color="#53FDA9"/>
<stop offset="1" stop-color="#2F0B8F" stop-opacity="0"/>
</linearGradient>
<linearGradient id="paint40_linear_4479_22530" x1="221.768" y1="142.919" x2="211.414" y2="228.351" gradientUnits="userSpaceOnUse">
<stop stop-color="#53FDA9"/>
<stop offset="1" stop-color="#2F0B8F" stop-opacity="0"/>
</linearGradient>
<linearGradient id="paint41_linear_4479_22530" x1="218.991" y1="142.25" x2="224.869" y2="207.898" gradientUnits="userSpaceOnUse">
<stop stop-color="#53FDA9"/>
<stop offset="1" stop-color="#2F0B8F" stop-opacity="0"/>
</linearGradient>
<linearGradient id="paint42_linear_4479_22530" x1="224.764" y1="142.25" x2="218.887" y2="207.898" gradientUnits="userSpaceOnUse">
<stop stop-color="#53FDA9"/>
<stop offset="1" stop-color="#2F0B8F" stop-opacity="0"/>
</linearGradient>
<radialGradient id="paint43_radial_4479_22530" cx="0" cy="0" r="1" gradientUnits="userSpaceOnUse" gradientTransform="translate(221.812 143.23) rotate(90) scale(57.6755 30110)">
<stop stop-color="#53FDA9"/>
<stop offset="1" stop-color="#00FF81" stop-opacity="0"/>
</radialGradient>
<radialGradient id="paint44_radial_4479_22530" cx="0" cy="0" r="1" gradientUnits="userSpaceOnUse" gradientTransform="translate(218.99 142.609) rotate(90) scale(43.7627 30927.3)">
<stop stop-color="#53FDA9"/>
<stop offset="1" stop-color="#00FF81" stop-opacity="0"/>
</radialGradient>
<radialGradient id="paint45_radial_4479_22530" cx="0" cy="0" r="1" gradientUnits="userSpaceOnUse" gradientTransform="translate(224.791 142.615) rotate(90) scale(43.3392 33061.5)">
<stop stop-color="#53FDA9"/>
<stop offset="1" stop-color="#00FF81" stop-opacity="0"/>
</radialGradient>
<linearGradient id="paint46_linear_4479_22530" x1="219.189" y1="133.129" x2="219.189" y2="142.629" gradientUnits="userSpaceOnUse">
<stop stop-color="#53FDA9"/>
<stop offset="1" stop-color="#D9D9D9" stop-opacity="0"/>
</linearGradient>
<linearGradient id="paint47_linear_4479_22530" x1="187.455" y1="107.919" x2="177.102" y2="193.351" gradientUnits="userSpaceOnUse">
<stop stop-color="#53FDA9"/>
<stop offset="1" stop-color="#2F0B8F" stop-opacity="0"/>
</linearGradient>
<linearGradient id="paint48_linear_4479_22530" x1="184.679" y1="107.25" x2="190.556" y2="172.898" gradientUnits="userSpaceOnUse">
<stop stop-color="#53FDA9"/>
<stop offset="1" stop-color="#2F0B8F" stop-opacity="0"/>
</linearGradient>
<linearGradient id="paint49_linear_4479_22530" x1="190.452" y1="107.25" x2="184.575" y2="172.898" gradientUnits="userSpaceOnUse">
<stop stop-color="#53FDA9"/>
<stop offset="1" stop-color="#2F0B8F" stop-opacity="0"/>
</linearGradient>
<radialGradient id="paint50_radial_4479_22530" cx="0" cy="0" r="1" gradientUnits="userSpaceOnUse" gradientTransform="translate(187.5 108.23) rotate(90) scale(57.6755 30110)">
<stop stop-color="#53FDA9"/>
<stop offset="1" stop-color="#00FF81" stop-opacity="0"/>
</radialGradient>
<radialGradient id="paint51_radial_4479_22530" cx="0" cy="0" r="1" gradientUnits="userSpaceOnUse" gradientTransform="translate(184.677 107.609) rotate(90) scale(43.7627 30927.3)">
<stop stop-color="#53FDA9"/>
<stop offset="1" stop-color="#00FF81" stop-opacity="0"/>
</radialGradient>
<radialGradient id="paint52_radial_4479_22530" cx="0" cy="0" r="1" gradientUnits="userSpaceOnUse" gradientTransform="translate(190.478 107.615) rotate(90) scale(43.3392 33061.5)">
<stop stop-color="#53FDA9"/>
<stop offset="1" stop-color="#00FF81" stop-opacity="0"/>
</radialGradient>
<linearGradient id="paint53_linear_4479_22530" x1="184.877" y1="98.1289" x2="184.877" y2="107.629" gradientUnits="userSpaceOnUse">
<stop stop-color="#53FDA9"/>
<stop offset="1" stop-color="#D9D9D9" stop-opacity="0"/>
</linearGradient>
<linearGradient id="paint54_linear_4479_22530" x1="270.455" y1="122.919" x2="260.102" y2="208.351" gradientUnits="userSpaceOnUse">
<stop stop-color="#53FDA9"/>
<stop offset="1" stop-color="#2F0B8F" stop-opacity="0"/>
</linearGradient>
<linearGradient id="paint55_linear_4479_22530" x1="267.679" y1="122.25" x2="273.556" y2="187.898" gradientUnits="userSpaceOnUse">
<stop stop-color="#53FDA9"/>
<stop offset="1" stop-color="#2F0B8F" stop-opacity="0"/>
</linearGradient>
<linearGradient id="paint56_linear_4479_22530" x1="273.452" y1="122.25" x2="267.575" y2="187.898" gradientUnits="userSpaceOnUse">
<stop stop-color="#53FDA9"/>
<stop offset="1" stop-color="#2F0B8F" stop-opacity="0"/>
</linearGradient>
<radialGradient id="paint57_radial_4479_22530" cx="0" cy="0" r="1" gradientUnits="userSpaceOnUse" gradientTransform="translate(270.5 123.23) rotate(90) scale(57.6755 30110)">
<stop stop-color="#53FDA9"/>
<stop offset="1" stop-color="#00FF81" stop-opacity="0"/>
</radialGradient>
<radialGradient id="paint58_radial_4479_22530" cx="0" cy="0" r="1" gradientUnits="userSpaceOnUse" gradientTransform="translate(267.677 122.609) rotate(90) scale(43.7627 30927.3)">
<stop stop-color="#53FDA9"/>
<stop offset="1" stop-color="#00FF81" stop-opacity="0"/>
</radialGradient>
<radialGradient id="paint59_radial_4479_22530" cx="0" cy="0" r="1" gradientUnits="userSpaceOnUse" gradientTransform="translate(273.478 122.615) rotate(90) scale(43.3392 33061.5)">
<stop stop-color="#53FDA9"/>
<stop offset="1" stop-color="#00FF81" stop-opacity="0"/>
</radialGradient>
<linearGradient id="paint60_linear_4479_22530" x1="267.877" y1="113.129" x2="267.877" y2="122.629" gradientUnits="userSpaceOnUse">
<stop stop-color="#53FDA9"/>
<stop offset="1" stop-color="#D9D9D9" stop-opacity="0"/>
</linearGradient>
<linearGradient id="paint61_linear_4479_22530" x1="246.377" y1="108.129" x2="246.377" y2="218.129" gradientUnits="userSpaceOnUse">
<stop stop-color="#0A2719"/>
<stop offset="1" stop-opacity="0"/>
</linearGradient>
<linearGradient id="paint62_linear_4479_22530" x1="245.877" y1="114.129" x2="245.377" y2="88.1289" gradientUnits="userSpaceOnUse">
<stop stop-color="#324D80"/>
<stop offset="1" stop-color="#53FDA9"/>
</linearGradient>
<linearGradient id="paint63_linear_4479_22530" x1="200.286" y1="170.473" x2="200.286" y2="208.285" gradientUnits="userSpaceOnUse">
<stop stop-color="#0A1127"/>
<stop offset="1" stop-opacity="0"/>
</linearGradient>
<linearGradient id="paint64_linear_4479_22530" x1="201.877" y1="175.129" x2="201.891" y2="170.129" gradientUnits="userSpaceOnUse">
<stop stop-color="#290E7C"/>
<stop offset="1" stop-opacity="0"/>
</linearGradient>
<linearGradient id="paint65_linear_4479_22530" x1="205.99" y1="157.715" x2="208.613" y2="113.755" gradientUnits="userSpaceOnUse">
<stop stop-color="#53FDA9"/>
<stop offset="1" stop-color="#2F0B8F" stop-opacity="0"/>
</linearGradient>
<linearGradient id="paint66_linear_4479_22530" x1="169.346" y1="72.9043" x2="201.291" y2="73.7735" gradientUnits="userSpaceOnUse">
<stop stop-color="#53FDA9"/>
<stop offset="1" stop-color="#2F0B8F" stop-opacity="0"/>
</linearGradient>
<linearGradient id="paint67_linear_4479_22530" x1="0.968737" y1="0.775382" x2="32.9138" y2="1.64456" gradientUnits="userSpaceOnUse">
<stop stop-color="#53FDA9"/>
<stop offset="1" stop-color="#2F0B8F" stop-opacity="0"/>
</linearGradient>
<radialGradient id="paint68_radial_4479_22530" cx="0" cy="0" r="1" gradientUnits="userSpaceOnUse" gradientTransform="translate(242.265 106.742) scale(9.43902 30926.9)">
<stop stop-color="#53FDA9"/>
<stop offset="1" stop-color="#00FF81" stop-opacity="0"/>
</radialGradient>
<radialGradient id="paint69_radial_4479_22530" cx="0" cy="0" r="1" gradientUnits="userSpaceOnUse" gradientTransform="translate(242.764 105.905) rotate(90) scale(18.878 30927)">
<stop stop-color="#53FDA9"/>
<stop offset="1" stop-color="#00FF81" stop-opacity="0"/>
</radialGradient>
<radialGradient id="paint70_radial_4479_22530" cx="0" cy="0" r="1" gradientUnits="userSpaceOnUse" gradientTransform="translate(254.764 106.017) rotate(90) scale(9.43902 30926.9)">
<stop stop-color="#53FDA9"/>
<stop offset="1" stop-color="#00FF81" stop-opacity="0"/>
</radialGradient>
<radialGradient id="paint71_radial_4479_22530" cx="0" cy="0" r="1" gradientUnits="userSpaceOnUse" gradientTransform="translate(254.99 125.17) rotate(-90) scale(3.43237 30927)">
<stop stop-color="#53FDA9"/>
<stop offset="1" stop-color="#00FF81" stop-opacity="0"/>
</radialGradient>
<radialGradient id="paint72_radial_4479_22530" cx="0" cy="0" r="1" gradientUnits="userSpaceOnUse" gradientTransform="translate(254.99 129.149) rotate(-90) scale(1.71618 30927)">
<stop stop-color="#53FDA9"/>
<stop offset="1" stop-color="#00FF81" stop-opacity="0"/>
</radialGradient>
<radialGradient id="paint73_radial_4479_22530" cx="0" cy="0" r="1" gradientUnits="userSpaceOnUse" gradientTransform="translate(255.489 106.516) rotate(180) scale(9.43902 30926.9)">
<stop stop-color="#53FDA9"/>
<stop offset="1" stop-color="#00FF81" stop-opacity="0"/>
</radialGradient>
</defs>
</svg>
