<svg width="64" height="64" viewBox="0 0 64 64" fill="none"
    xmlns="http://www.w3.org/2000/svg">
    <g clip-path="url(#clip0_4950_2988)">
        <g filter="url(#filter0_f_4950_2988)">
            <circle cx="32" cy="31.9991" r="19.8428" fill="url(#paint0_linear_4950_2988)"/>
        </g>
        <ellipse cx="32" cy="31.0007" rx="27.8953" ry="7.35422" stroke="url(#paint1_linear_4950_2988)" stroke-width="0.25" stroke-linecap="round" stroke-linejoin="round" stroke-dasharray="2 2"/>
        <ellipse cx="32.0772" cy="24.7912" rx="23.9149" ry="6.30483" stroke="url(#paint2_linear_4950_2988)" stroke-width="0.25" stroke-linecap="round" stroke-linejoin="round" stroke-dasharray="2 2"/>
        <ellipse cx="32.0773" cy="19.7996" rx="19.4797" ry="5.13555" stroke="url(#paint3_linear_4950_2988)" stroke-width="0.25" stroke-linecap="round" stroke-linejoin="round" stroke-dasharray="2 2"/>
        <ellipse cx="32.0772" cy="39.2111" rx="23.9149" ry="6.30483" stroke="url(#paint4_linear_4950_2988)" stroke-width="0.25" stroke-linecap="round" stroke-linejoin="round" stroke-dasharray="2 2"/>
        <ellipse cx="32.0773" cy="46.2019" rx="19.4794" ry="5.13549" stroke="url(#paint5_linear_4950_2988)" stroke-width="0.25" stroke-linecap="round" stroke-linejoin="round" stroke-dasharray="2 2"/>
        <path d="M31.5 68.0645L31.5 19.5195C31.5 19.2433 31.7239 19.0195 32 19.0195C32.2761 19.0195 32.5 19.2433 32.5 19.5195L32.5 68.0645L31.5 68.0645Z" fill="url(#paint6_linear_4950_2988)"/>
        <path d="M30.5 55.0645L30.5 19.1828C30.5 18.9066 30.2761 18.6827 30 18.6827C29.7239 18.6827 29.5 18.9066 29.5 19.1828L29.5 55.0645L30.5 55.0645Z" fill="url(#paint7_linear_4950_2988)"/>
        <path d="M28.5 43.0645L28.5 18.0918C28.5 17.8157 28.2761 17.5918 28 17.5918C27.7239 17.5918 27.5 17.8157 27.5 18.0918L27.5 43.0645L28.5 43.0645Z" fill="url(#paint8_linear_4950_2988)"/>
        <path d="M33.5 55.0645L33.5 19.1827C33.5 18.9066 33.7239 18.6827 34 18.6827C34.2761 18.6827 34.5 18.9066 34.5 19.1827L34.5 55.0645L33.5 55.0645Z" fill="url(#paint9_linear_4950_2988)"/>
        <path d="M35.5 43.0645L35.5 18.0918C35.5 17.8157 35.7239 17.5918 36 17.5918C36.2761 17.5918 36.5 17.8157 36.5 18.0918L36.5 43.0645L35.5 43.0645Z" fill="url(#paint10_linear_4950_2988)"/>
        <ellipse cx="32" cy="14.0645" rx="4.5" ry="4.5" transform="rotate(-180 32 14.0645)" fill="url(#paint11_linear_4950_2988)"/>
        <path d="M24.0181 18.4415C23.8802 18.574 23.7829 18.7113 23.7301 18.8523L23.8472 18.8961C23.8216 18.9645 23.809 19.0323 23.809 19.1001C23.809 19.1679 23.8216 19.2358 23.8472 19.3042L23.7301 19.348C23.7829 19.489 23.8802 19.6263 24.0181 19.7587L24.1047 19.6686C24.2064 19.7664 24.334 19.8633 24.4868 19.9582L24.4208 20.0644C24.5536 20.147 24.703 20.227 24.8678 20.3042L24.9208 20.191C25.0619 20.2571 25.215 20.3212 25.3794 20.3832L25.3354 20.5002C25.4861 20.557 25.6459 20.6119 25.814 20.6646L25.8514 20.5454C26.0046 20.5934 26.1651 20.6397 26.3323 20.6842L26.3002 20.805C26.4587 20.8471 26.6231 20.8875 26.7929 20.9261L26.8206 20.8042C26.9796 20.8403 27.1437 20.8749 27.3123 20.9078L27.2884 21.0304C27.4506 21.0621 27.617 21.0921 27.7873 21.1205L27.8079 20.9972C27.9702 21.0243 28.136 21.0499 28.3053 21.0739L28.2877 21.1977C28.4524 21.221 28.6203 21.2429 28.791 21.2633L28.8058 21.1392C28.97 21.1588 29.1369 21.1769 29.3064 21.1936L29.2941 21.318C29.46 21.3343 29.6282 21.3492 29.7987 21.3626L29.8085 21.238C29.9743 21.2511 30.1422 21.2628 30.312 21.273L30.3045 21.3978C30.4715 21.4078 30.6404 21.4165 30.811 21.4237L30.8163 21.2988C30.9826 21.3059 31.1506 21.3115 31.3201 21.3158L31.3169 21.4408C31.4844 21.445 31.6532 21.4478 31.8234 21.4492L31.8244 21.3242C31.9084 21.3249 31.9927 21.3253 32.0774 21.3253C32.162 21.3253 32.2463 21.3249 32.3303 21.3242L32.3313 21.4492C32.5015 21.4478 32.6704 21.445 32.8378 21.4408L32.8347 21.3158C33.0041 21.3115 33.1721 21.3059 33.3385 21.2988L33.3437 21.4237C33.5143 21.4165 33.6832 21.4078 33.8502 21.3978L33.8427 21.273C34.0125 21.2628 34.1804 21.2511 34.3462 21.238L34.356 21.3626C34.5265 21.3492 34.6947 21.3343 34.8606 21.318L34.8483 21.1936C35.0178 21.1769 35.1847 21.1588 35.3489 21.1392L35.3637 21.2633C35.5345 21.2429 35.7023 21.221 35.867 21.1977L35.8495 21.0739C36.0187 21.0499 36.1845 21.0243 36.3468 20.9972L36.3674 21.1205C36.5377 21.0921 36.7041 21.0621 36.8663 21.0304L36.8424 20.9078C37.0111 20.8749 37.1751 20.8403 37.3341 20.8042L37.3618 20.9261C37.5317 20.8875 37.696 20.8471 37.8545 20.805L37.8224 20.6842C37.9896 20.6397 38.1501 20.5934 38.3033 20.5454L38.3407 20.6646C38.5088 20.6119 38.6686 20.557 38.8194 20.5002L38.7753 20.3832C38.9397 20.3212 39.0929 20.2571 39.2339 20.191L39.287 20.3042C39.4517 20.227 39.6011 20.147 39.7339 20.0644L39.668 19.9582C39.8208 19.8633 39.9483 19.7664 40.05 19.6686L40.1367 19.7587C40.2745 19.6263 40.3718 19.489 40.4246 19.348L40.3075 19.3042C40.3331 19.2358 40.3457 19.1679 40.3457 19.1001C40.3457 19.0323 40.3331 18.9645 40.3075 18.8961L40.4246 18.8523C40.3718 18.7113 40.2745 18.574 40.1367 18.4415L40.05 18.5317C39.9483 18.4339 39.8208 18.337 39.668 18.242L39.7339 18.1359C39.6011 18.0533 39.4517 17.9733 39.287 17.8961L39.2339 18.0093C39.0929 17.9432 38.9397 17.879 38.7753 17.817L38.8194 17.7001C38.6686 17.6432 38.5088 17.5884 38.3407 17.5356L38.3033 17.6549C38.1501 17.6069 37.9896 17.5605 37.8224 17.5161L37.8545 17.3953C37.696 17.3532 37.5317 17.3128 37.3618 17.2742L37.3341 17.3961C37.1751 17.3599 37.0111 17.3254 36.8424 17.2925L36.8663 17.1698C36.7041 17.1382 36.5377 17.1082 36.3674 17.0798L36.3468 17.203C36.1845 17.176 36.0187 17.1504 35.8495 17.1264L35.867 17.0026C35.7023 16.9792 35.5345 16.9573 35.3637 16.937L35.3489 17.0611C35.1847 17.0415 35.0178 17.0234 34.8483 17.0067L34.8606 16.8823C34.6947 16.866 34.5265 16.8511 34.356 16.8376L34.3462 16.9623C34.1804 16.9492 34.0125 16.9375 33.8427 16.9273L33.8502 16.8025C33.6832 16.7925 33.5143 16.7838 33.3437 16.7766L33.3385 16.9015C33.1721 16.8944 33.0041 16.8887 32.8347 16.8845L32.8378 16.7595C32.6703 16.7553 32.5015 16.7525 32.3313 16.7511L32.3303 16.8761C32.2463 16.8754 32.162 16.875 32.0774 16.875C31.9927 16.875 31.9084 16.8754 31.8244 16.8761L31.8234 16.7511C31.6532 16.7525 31.4844 16.7553 31.3169 16.7595L31.3201 16.8845C31.1506 16.8887 30.9826 16.8944 30.8163 16.9015L30.811 16.7766C30.6404 16.7838 30.4715 16.7925 30.3045 16.8025L30.312 16.9273C30.1422 16.9375 29.9743 16.9492 29.8085 16.9623L29.7987 16.8376C29.6282 16.8511 29.46 16.866 29.2941 16.8823L29.3064 17.0067C29.1369 17.0234 28.97 17.0415 28.8058 17.0611L28.791 16.937C28.6203 16.9573 28.4524 16.9792 28.2877 17.0026L28.3053 17.1264C28.136 17.1504 27.9702 17.176 27.8079 17.203L27.7873 17.0798C27.617 17.1082 27.4506 17.1382 27.2884 17.1698L27.3123 17.2925C27.1437 17.3254 26.9796 17.3599 26.8206 17.3961L26.7929 17.2742C26.6231 17.3128 26.4587 17.3532 26.3002 17.3953L26.3323 17.5161C26.1651 17.5605 26.0046 17.6069 25.8514 17.6549L25.814 17.5356C25.6459 17.5884 25.4861 17.6432 25.3354 17.7001L25.3794 17.817C25.215 17.879 25.0619 17.9432 24.9208 18.0093L24.8678 17.8961C24.703 17.9733 24.5536 18.0533 24.4208 18.1359L24.4868 18.242C24.334 18.337 24.2064 18.4339 24.1047 18.5317L24.0181 18.4415Z" stroke="url(#paint12_linear_4950_2988)" stroke-width="0.25" stroke-dasharray="0.5 0.5"/>
        <path d="M24.0181 13.7423C23.8802 13.8748 23.7829 14.0121 23.7301 14.1531L23.8472 14.1969C23.8216 14.2652 23.809 14.3331 23.809 14.4009C23.809 14.4687 23.8216 14.5366 23.8472 14.6049L23.7301 14.6488C23.7829 14.7898 23.8802 14.9271 24.0181 15.0595L24.1047 14.9694C24.2064 15.0671 24.334 15.164 24.4868 15.259L24.4208 15.3652C24.5536 15.4478 24.703 15.5278 24.8678 15.605L24.9208 15.4918C25.0619 15.5579 25.215 15.622 25.3794 15.684L25.3354 15.801C25.4861 15.8578 25.6459 15.9127 25.814 15.9654L25.8514 15.8461C26.0046 15.8942 26.1651 15.9405 26.3323 15.985L26.3002 16.1058C26.4587 16.1479 26.6231 16.1883 26.7929 16.2269L26.8206 16.105C26.9796 16.1411 27.1437 16.1757 27.3123 16.2085L27.2884 16.3312C27.4506 16.3628 27.617 16.3929 27.7873 16.4213L27.8079 16.298C27.9702 16.3251 28.136 16.3507 28.3053 16.3747L28.2877 16.4984C28.4524 16.5218 28.6203 16.5437 28.791 16.5641L28.8058 16.44C28.97 16.4595 29.1369 16.4777 29.3064 16.4944L29.2941 16.6188C29.46 16.6351 29.6282 16.65 29.7987 16.6634L29.8085 16.5388C29.9743 16.5519 30.1422 16.5635 30.312 16.5738L30.3045 16.6985C30.4715 16.7086 30.6404 16.7173 30.811 16.7245L30.8163 16.5996C30.9826 16.6066 31.1506 16.6123 31.3201 16.6166L31.3169 16.7415C31.4844 16.7458 31.6532 16.7486 31.8234 16.75L31.8244 16.625C31.9084 16.6257 31.9927 16.6261 32.0774 16.6261C32.162 16.6261 32.2463 16.6257 32.3303 16.625L32.3313 16.75C32.5015 16.7486 32.6704 16.7458 32.8378 16.7415L32.8347 16.6166C33.0041 16.6123 33.1721 16.6066 33.3385 16.5996L33.3437 16.7245C33.5143 16.7173 33.6832 16.7086 33.8502 16.6985L33.8427 16.5738C34.0125 16.5635 34.1804 16.5519 34.3462 16.5388L34.356 16.6634C34.5265 16.65 34.6947 16.6351 34.8606 16.6188L34.8483 16.4944C35.0178 16.4777 35.1847 16.4595 35.3489 16.44L35.3637 16.5641C35.5345 16.5437 35.7023 16.5218 35.867 16.4984L35.8495 16.3747C36.0187 16.3507 36.1845 16.3251 36.3468 16.298L36.3674 16.4213C36.5377 16.3929 36.7041 16.3628 36.8663 16.3312L36.8424 16.2085C37.0111 16.1757 37.1751 16.1411 37.3341 16.105L37.3618 16.2269C37.5317 16.1883 37.696 16.1479 37.8545 16.1058L37.8224 15.985C37.9896 15.9405 38.1501 15.8942 38.3033 15.8461L38.3407 15.9654C38.5088 15.9127 38.6686 15.8578 38.8194 15.801L38.7753 15.684C38.9397 15.622 39.0929 15.5579 39.2339 15.4918L39.287 15.605C39.4517 15.5278 39.6011 15.4478 39.7339 15.3652L39.668 15.259C39.8208 15.164 39.9483 15.0671 40.05 14.9694L40.1367 15.0595C40.2745 14.9271 40.3718 14.7898 40.4246 14.6488L40.3075 14.6049C40.3331 14.5366 40.3457 14.4687 40.3457 14.4009C40.3457 14.3331 40.3331 14.2652 40.3075 14.1969L40.4246 14.1531C40.3718 14.0121 40.2745 13.8748 40.1367 13.7423L40.05 13.8325C39.9483 13.7347 39.8208 13.6378 39.668 13.5428L39.7339 13.4367C39.6011 13.3541 39.4517 13.274 39.287 13.1969L39.2339 13.3101C39.0929 13.244 38.9397 13.1798 38.7753 13.1178L38.8194 13.0008C38.6686 12.944 38.5088 12.8892 38.3407 12.8364L38.3033 12.9557C38.1501 12.9076 37.9896 12.8613 37.8224 12.8169L37.8545 12.6961C37.696 12.6539 37.5317 12.6135 37.3618 12.575L37.3341 12.6968C37.1751 12.6607 37.0111 12.6262 36.8424 12.5933L36.8663 12.4706C36.7041 12.439 36.5377 12.4089 36.3674 12.3805L36.3468 12.5038C36.1845 12.4768 36.0187 12.4512 35.8495 12.4272L35.867 12.3034C35.7023 12.28 35.5345 12.2581 35.3637 12.2378L35.3489 12.3619C35.1847 12.3423 35.0178 12.3241 34.8483 12.3075L34.8606 12.1831C34.6947 12.1668 34.5265 12.1519 34.356 12.1384L34.3462 12.263C34.1804 12.25 34.0125 12.2383 33.8427 12.2281L33.8502 12.1033C33.6832 12.0932 33.5143 12.0846 33.3437 12.0774L33.3385 12.2022C33.1721 12.1952 33.0041 12.1895 32.8347 12.1853L32.8378 12.0603C32.6703 12.0561 32.5015 12.0533 32.3313 12.0518L32.3303 12.1768C32.2463 12.1761 32.162 12.1758 32.0774 12.1758C31.9927 12.1758 31.9084 12.1761 31.8244 12.1768L31.8234 12.0518C31.6532 12.0533 31.4844 12.0561 31.3169 12.0603L31.3201 12.1853C31.1506 12.1895 30.9826 12.1952 30.8163 12.2022L30.811 12.0774C30.6404 12.0846 30.4715 12.0932 30.3045 12.1033L30.312 12.2281C30.1422 12.2383 29.9743 12.25 29.8085 12.263L29.7987 12.1384C29.6282 12.1519 29.46 12.1668 29.2941 12.1831L29.3064 12.3075C29.1369 12.3241 28.97 12.3423 28.8058 12.3619L28.791 12.2378C28.6203 12.2581 28.4524 12.28 28.2877 12.3034L28.3053 12.4272C28.136 12.4512 27.9702 12.4768 27.8079 12.5038L27.7873 12.3805C27.617 12.4089 27.4506 12.439 27.2884 12.4706L27.3123 12.5933C27.1437 12.6262 26.9796 12.6607 26.8206 12.6969L26.7929 12.575C26.6231 12.6135 26.4587 12.6539 26.3002 12.6961L26.3323 12.8169C26.1651 12.8613 26.0046 12.9076 25.8514 12.9557L25.814 12.8364C25.6459 12.8892 25.4861 12.944 25.3354 13.0008L25.3794 13.1178C25.215 13.1798 25.0619 13.244 24.9208 13.3101L24.8678 13.1969C24.703 13.274 24.5536 13.3541 24.4208 13.4367L24.4868 13.5428C24.334 13.6378 24.2064 13.7347 24.1047 13.8325L24.0181 13.7423Z" stroke="url(#paint13_linear_4950_2988)" stroke-width="0.25" stroke-dasharray="0.5 0.5"/>
        <path d="M24.0181 8.37123C23.8802 8.50369 23.7829 8.64098 23.7301 8.78199L23.8472 8.82581C23.8216 8.89414 23.809 8.96202 23.809 9.02983C23.809 9.09763 23.8216 9.16551 23.8472 9.23384L23.7301 9.27766C23.7829 9.41867 23.8802 9.55596 24.0181 9.68842L24.1047 9.59829C24.2064 9.69605 24.334 9.79295 24.4868 9.88792L24.4208 9.99409C24.5536 10.0767 24.703 10.1567 24.8678 10.2339L24.9208 10.1207C25.0619 10.1868 25.215 10.2509 25.3794 10.3129L25.3354 10.4299C25.4861 10.4867 25.6459 10.5416 25.814 10.5943L25.8514 10.475C26.0046 10.5231 26.1651 10.5694 26.3323 10.6139L26.3002 10.7347C26.4587 10.7768 26.6231 10.8172 26.7929 10.8558L26.8206 10.7339C26.9796 10.77 27.1437 10.8046 27.3123 10.8374L27.2884 10.9601C27.4506 10.9917 27.617 11.0218 27.7873 11.0502L27.8079 10.9269C27.9702 10.954 28.136 10.9796 28.3053 11.0036L28.2877 11.1273C28.4524 11.1507 28.6203 11.1726 28.791 11.193L28.8058 11.0689C28.97 11.0884 29.1369 11.1066 29.3064 11.1233L29.2941 11.2477C29.46 11.264 29.6282 11.2789 29.7987 11.2923L29.8085 11.1677C29.9743 11.1808 30.1422 11.1924 30.312 11.2027L30.3045 11.3274C30.4715 11.3375 30.6404 11.3462 30.811 11.3534L30.8163 11.2285C30.9826 11.2355 31.1506 11.2412 31.3201 11.2455L31.3169 11.3704C31.4844 11.3747 31.6532 11.3775 31.8234 11.3789L31.8244 11.2539C31.9084 11.2546 31.9927 11.255 32.0774 11.255C32.162 11.255 32.2463 11.2546 32.3303 11.2539L32.3313 11.3789C32.5015 11.3775 32.6704 11.3747 32.8378 11.3704L32.8347 11.2455C33.0041 11.2412 33.1721 11.2355 33.3385 11.2285L33.3437 11.3534C33.5143 11.3462 33.6832 11.3375 33.8502 11.3274L33.8427 11.2027C34.0125 11.1924 34.1804 11.1808 34.3462 11.1677L34.356 11.2923C34.5265 11.2789 34.6947 11.264 34.8606 11.2477L34.8483 11.1233C35.0178 11.1066 35.1847 11.0884 35.3489 11.0689L35.3637 11.193C35.5345 11.1726 35.7023 11.1507 35.867 11.1273L35.8495 11.0036C36.0187 10.9796 36.1845 10.954 36.3468 10.9269L36.3674 11.0502C36.5377 11.0218 36.7041 10.9917 36.8663 10.9601L36.8424 10.8374C37.0111 10.8046 37.1751 10.77 37.3341 10.7339L37.3618 10.8558C37.5317 10.8172 37.696 10.7768 37.8545 10.7347L37.8224 10.6139C37.9896 10.5694 38.1501 10.5231 38.3033 10.475L38.3407 10.5943C38.5088 10.5416 38.6686 10.4867 38.8194 10.4299L38.7753 10.3129C38.9397 10.2509 39.0929 10.1868 39.2339 10.1207L39.287 10.2339C39.4517 10.1567 39.6011 10.0767 39.7339 9.99409L39.668 9.88792C39.8208 9.79295 39.9483 9.69605 40.05 9.59829L40.1367 9.68842C40.2745 9.55596 40.3718 9.41867 40.4246 9.27766L40.3075 9.23384C40.3331 9.16551 40.3457 9.09763 40.3457 9.02982C40.3457 8.96202 40.3331 8.89414 40.3075 8.82581L40.4246 8.78199C40.3718 8.64098 40.2745 8.50369 40.1367 8.37123L40.05 8.46136C39.9483 8.3636 39.8208 8.2667 39.668 8.17172L39.7339 8.06556C39.6011 7.98299 39.4517 7.90295 39.287 7.82577L39.2339 7.93897C39.0929 7.87289 38.9397 7.80871 38.7753 7.74672L38.8194 7.62975C38.6686 7.57292 38.5088 7.51806 38.3407 7.46534L38.3033 7.58461C38.1501 7.53654 37.9896 7.49022 37.8224 7.44577L37.8545 7.32496C37.696 7.28284 37.5317 7.24244 37.3618 7.20386L37.3341 7.32576C37.1751 7.28962 37.0111 7.25507 36.8424 7.22221L36.8663 7.09952C36.7041 7.0679 36.5377 7.03785 36.3674 7.00944L36.3468 7.13273C36.1845 7.10567 36.0187 7.08009 35.8495 7.05607L35.867 6.93231C35.7023 6.90893 35.5345 6.88703 35.3637 6.86666L35.3489 6.99079C35.1847 6.9712 35.0178 6.95305 34.8483 6.93638L34.8606 6.81198C34.6947 6.79566 34.5265 6.78076 34.356 6.76733L34.3462 6.89194C34.1804 6.87888 34.0125 6.86721 33.8427 6.85699L33.8502 6.73221C33.6832 6.72216 33.5143 6.71349 33.3437 6.70626L33.3385 6.83115C33.1721 6.8241 33.0041 6.81842 32.8347 6.81416L32.8378 6.6892C32.6703 6.68499 32.5015 6.68216 32.3313 6.68074L32.3303 6.80574C32.2463 6.80504 32.162 6.80469 32.0774 6.80469C31.9927 6.80469 31.9084 6.80504 31.8244 6.80574L31.8234 6.68074C31.6532 6.68216 31.4844 6.68499 31.3169 6.6892L31.3201 6.81416C31.1506 6.81843 30.9826 6.8241 30.8163 6.83115L30.811 6.70626C30.6404 6.71349 30.4715 6.72216 30.3045 6.73221L30.312 6.85699C30.1422 6.86721 29.9743 6.87888 29.8085 6.89194L29.7987 6.76733C29.6282 6.78076 29.46 6.79566 29.2941 6.81198L29.3064 6.93638C29.1369 6.95305 28.97 6.9712 28.8058 6.99079L28.791 6.86667C28.6203 6.88703 28.4524 6.90893 28.2877 6.93231L28.3053 7.05607C28.136 7.08009 27.9702 7.10567 27.8079 7.13273L27.7873 7.00944C27.617 7.03785 27.4506 7.0679 27.2884 7.09952L27.3123 7.22221C27.1437 7.25507 26.9796 7.28962 26.8206 7.32576L26.7929 7.20386C26.6231 7.24244 26.4587 7.28285 26.3002 7.32496L26.3323 7.44577C26.1651 7.49022 26.0046 7.53654 25.8514 7.58461L25.814 7.46534C25.6459 7.51806 25.4861 7.57292 25.3354 7.62975L25.3794 7.74672C25.215 7.80872 25.0619 7.87289 24.9208 7.93897L24.8678 7.82577C24.703 7.90295 24.5536 7.98299 24.4208 8.06556L24.4868 8.17173C24.334 8.2667 24.2064 8.3636 24.1047 8.46136L24.0181 8.37123Z" stroke="url(#paint14_linear_4950_2988)" stroke-width="0.25" stroke-dasharray="0.5 0.5"/>
    </g>
    <defs>
        <filter id="filter0_f_4950_2988" x="5.15723" y="5.15625" width="53.6855" height="53.6855" filterUnits="userSpaceOnUse" color-interpolation-filters="sRGB">
            <feFlood flood-opacity="0" result="BackgroundImageFix"/>
            <feBlend mode="normal" in="SourceGraphic" in2="BackgroundImageFix" result="shape"/>
            <feGaussianBlur stdDeviation="3.5" result="effect1_foregroundBlur_4950_2988"/>
        </filter>
        <linearGradient id="paint0_linear_4950_2988" x1="45.5275" y1="8.55457" x2="43.5604" y2="54.8579" gradientUnits="userSpaceOnUse">
            <stop stop-color="#572AD7"/>
            <stop offset="1" stop-color="#3E07B3"/>
        </linearGradient>
        <linearGradient id="paint1_linear_4950_2988" x1="32" y1="23.6465" x2="32" y2="38.3549" gradientUnits="userSpaceOnUse">
            <stop offset="0.170133" stop-color="#53FDA9" stop-opacity="0"/>
            <stop offset="0.878479" stop-color="#53FDA9"/>
        </linearGradient>
        <linearGradient id="paint2_linear_4950_2988" x1="32.0772" y1="18.4863" x2="32.0772" y2="31.096" gradientUnits="userSpaceOnUse">
            <stop offset="0.170133" stop-color="white" stop-opacity="0"/>
            <stop offset="0.878479" stop-color="white"/>
        </linearGradient>
        <linearGradient id="paint3_linear_4950_2988" x1="32.0773" y1="14.6641" x2="32.0773" y2="24.9352" gradientUnits="userSpaceOnUse">
            <stop offset="0.170133" stop-color="white" stop-opacity="0"/>
            <stop offset="0.878479" stop-color="white"/>
        </linearGradient>
        <linearGradient id="paint4_linear_4950_2988" x1="32.0772" y1="32.9062" x2="32.0772" y2="45.5159" gradientUnits="userSpaceOnUse">
            <stop offset="0.170133" stop-color="white" stop-opacity="0"/>
            <stop offset="0.878479" stop-color="white"/>
        </linearGradient>
        <linearGradient id="paint5_linear_4950_2988" x1="32.0773" y1="41.0664" x2="32.0773" y2="51.3374" gradientUnits="userSpaceOnUse">
            <stop offset="0.170133" stop-color="white" stop-opacity="0"/>
            <stop offset="0.878479" stop-color="white"/>
        </linearGradient>
        <linearGradient id="paint6_linear_4950_2988" x1="31.9995" y1="8.51444" x2="32.04" y2="62.4384" gradientUnits="userSpaceOnUse">
            <stop stop-color="white"/>
            <stop offset="1" stop-color="white" stop-opacity="0"/>
        </linearGradient>
        <linearGradient id="paint7_linear_4950_2988" x1="30.0006" y1="10.8901" x2="29.9783" y2="50.891" gradientUnits="userSpaceOnUse">
            <stop stop-color="white"/>
            <stop offset="1" stop-color="white" stop-opacity="0"/>
        </linearGradient>
        <linearGradient id="paint8_linear_4950_2988" x1="28.0006" y1="12.1358" x2="27.9896" y2="40.1424" gradientUnits="userSpaceOnUse">
            <stop stop-color="white"/>
            <stop offset="1" stop-color="white" stop-opacity="0"/>
        </linearGradient>
        <linearGradient id="paint9_linear_4950_2988" x1="33.9995" y1="10.8901" x2="34.0217" y2="50.891" gradientUnits="userSpaceOnUse">
            <stop stop-color="white"/>
            <stop offset="1" stop-color="white" stop-opacity="0"/>
        </linearGradient>
        <linearGradient id="paint10_linear_4950_2988" x1="35.9995" y1="12.1358" x2="36.0104" y2="40.1424" gradientUnits="userSpaceOnUse">
            <stop stop-color="white"/>
            <stop offset="1" stop-color="white" stop-opacity="0"/>
        </linearGradient>
        <linearGradient id="paint11_linear_4950_2988" x1="32" y1="9.56446" x2="32" y2="18.5645" gradientUnits="userSpaceOnUse">
            <stop stop-color="#632BFF"/>
            <stop offset="1"/>
        </linearGradient>
        <linearGradient id="paint12_linear_4950_2988" x1="32.0008" y1="21.4289" x2="32.2987" y2="16.7306" gradientUnits="userSpaceOnUse">
            <stop stop-color="#53FDA9"/>
            <stop offset="1" stop-color="white" stop-opacity="0"/>
        </linearGradient>
        <linearGradient id="paint13_linear_4950_2988" x1="32.0008" y1="16.7297" x2="32.2987" y2="12.0314" gradientUnits="userSpaceOnUse">
            <stop stop-color="#53FDA9"/>
            <stop offset="1" stop-color="white" stop-opacity="0"/>
        </linearGradient>
        <linearGradient id="paint14_linear_4950_2988" x1="32.0008" y1="11.3586" x2="32.2987" y2="6.66032" gradientUnits="userSpaceOnUse">
            <stop stop-color="#53FDA9"/>
            <stop offset="1" stop-color="white" stop-opacity="0"/>
        </linearGradient>
        <clipPath id="clip0_4950_2988">
            <rect width="64" height="64" fill="white"/>
        </clipPath>
    </defs>
</svg>
