<svg width="64" height="64" viewBox="0 0 64 64" fill="none"
    xmlns="http://www.w3.org/2000/svg">
    <rect width="24.1591" height="24.1591" transform="matrix(0.869236 0.494398 -0.869236 0.494398 31.9993 35.7285)" fill="url(#paint0_linear_4950_2894)"/>
    <rect width="24.1591" height="24.1591" transform="matrix(0.869236 0.494398 -0.869236 0.494398 31.9993 30.9512)" fill="url(#paint1_linear_4950_2894)"/>
    <rect width="24.1591" height="24.1591" transform="matrix(0.869236 0.494398 -0.869236 0.494398 31.9993 26.1738)" fill="url(#paint2_linear_4950_2894)"/>
    <rect width="24.1591" height="24.1591" transform="matrix(0.869236 0.494398 -0.869236 0.494398 31.9993 21.3965)" fill="url(#paint3_linear_4950_2894)"/>
    <rect width="24.1591" height="24.1591" transform="matrix(0.869236 0.494398 -0.869236 0.494398 31.9993 6.07031)" fill="url(#paint4_linear_4950_2894)"/>
    <rect width="24.1591" height="24.1591" transform="matrix(0.869236 0.494398 -0.869236 0.494398 31.9993 16.8418)" stroke="url(#paint5_linear_4950_2894)" stroke-width="0.25" stroke-linecap="round" stroke-linejoin="round" stroke-dasharray="0.5 0.5"/>
    <rect width="24.1591" height="24.1591" transform="matrix(0.869236 0.494398 -0.869236 0.494398 31.9993 14.8418)" stroke="url(#paint6_linear_4950_2894)" stroke-opacity="0.5" stroke-width="0.25" stroke-linecap="round" stroke-linejoin="round" stroke-dasharray="0.5 0.5"/>
    <rect width="24.1591" height="24.1591" transform="matrix(0.869236 0.494398 -0.869236 0.494398 31.9993 12.8418)" stroke="url(#paint7_linear_4950_2894)" stroke-opacity="0.2" stroke-width="0.25" stroke-linecap="round" stroke-linejoin="round" stroke-dasharray="0.5 0.5"/>
    <rect width="24.1591" height="24.1591" transform="matrix(0.869236 0.494398 -0.869236 0.494398 31.9993 10.8418)" stroke="url(#paint8_linear_4950_2894)" stroke-opacity="0.05" stroke-width="0.25" stroke-linecap="round" stroke-linejoin="round" stroke-dasharray="0.5 0.5"/>
    <path d="M10.8523 16.332L10.8523 28.7125C10.8523 28.816 10.9362 28.9 11.0398 28.9C11.1434 28.9 11.2273 28.816 11.2273 28.7125L11.2273 16.332L10.8523 16.332Z" fill="url(#paint9_linear_4950_2894)"/>
    <path d="M52.7727 16.332L52.7727 28.7125C52.7727 28.816 52.8567 28.9 52.9602 28.9C53.0638 28.9 53.1477 28.816 53.1477 28.7125L53.1477 16.332L52.7727 16.332Z" fill="url(#paint10_linear_4950_2894)"/>
    <path d="M31.8118 28.0918L31.8118 40.4722C31.8118 40.5758 31.8957 40.6597 31.9993 40.6597C32.1028 40.6597 32.1868 40.5758 32.1868 40.4722L32.1868 28.0918L31.8118 28.0918Z" fill="url(#paint11_linear_4950_2894)"/>
    <path d="M31.8118 4.38281L31.8118 16.7633C31.8118 16.8668 31.8957 16.9508 31.9993 16.9508C32.1028 16.9508 32.1868 16.8668 32.1868 16.7633L32.1868 4.38281L31.8118 4.38281Z" fill="url(#paint12_linear_4950_2894)"/>
    <path d="M21.1987 15.5039L21.1987 22.7561C21.1987 22.8597 21.2827 22.9436 21.3862 22.9436C21.4898 22.9436 21.5737 22.8597 21.5737 22.7561L21.5737 15.5039L21.1987 15.5039Z" fill="url(#paint13_linear_4950_2894)"/>
    <path d="M42.437 15.5039L42.437 22.7561C42.437 22.8597 42.521 22.9436 42.6245 22.9436C42.7281 22.9436 42.812 22.8597 42.812 22.7561L42.812 15.5039L42.437 15.5039Z" fill="url(#paint14_linear_4950_2894)"/>
    <path d="M21.1987 27.3438L21.1987 34.596C21.1987 34.6995 21.2827 34.7835 21.3862 34.7835C21.4898 34.7835 21.5737 34.6995 21.5737 34.596L21.5737 27.3437L21.1987 27.3438Z" fill="url(#paint15_linear_4950_2894)"/>
    <path d="M42.437 27.3438L42.437 34.596C42.437 34.6995 42.521 34.7835 42.6245 34.7835C42.7281 34.7835 42.812 34.6995 42.812 34.596L42.812 27.3437L42.437 27.3438Z" fill="url(#paint16_linear_4950_2894)"/>
    <defs>
        <linearGradient id="paint0_linear_4950_2894" x1="27.0022" y1="26.7519" x2="2.3669" y2="12.9923" gradientUnits="userSpaceOnUse">
            <stop stop-color="#632BFF"/>
            <stop offset="1" stop-color="#3B257D" stop-opacity="0"/>
        </linearGradient>
        <linearGradient id="paint1_linear_4950_2894" x1="27.0022" y1="26.7519" x2="2.3669" y2="12.9923" gradientUnits="userSpaceOnUse">
            <stop stop-color="#632BFF"/>
            <stop offset="1" stop-color="#3B257D" stop-opacity="0"/>
        </linearGradient>
        <linearGradient id="paint2_linear_4950_2894" x1="27.0022" y1="26.7519" x2="2.3669" y2="12.9923" gradientUnits="userSpaceOnUse">
            <stop stop-color="#632BFF"/>
            <stop offset="1" stop-color="#3B257D" stop-opacity="0"/>
        </linearGradient>
        <linearGradient id="paint3_linear_4950_2894" x1="27.0022" y1="26.7519" x2="2.3669" y2="12.9923" gradientUnits="userSpaceOnUse">
            <stop stop-color="#632BFF"/>
            <stop offset="1" stop-color="#3B257D" stop-opacity="0"/>
        </linearGradient>
        <linearGradient id="paint4_linear_4950_2894" x1="24.1594" y1="24.1593" x2="-0.213703" y2="0.217553" gradientUnits="userSpaceOnUse">
            <stop stop-color="#53FDA9"/>
            <stop offset="1" stop-color="#2B0C80" stop-opacity="0"/>
        </linearGradient>
        <linearGradient id="paint5_linear_4950_2894" x1="12.0796" y1="0" x2="12.0796" y2="24.1591" gradientUnits="userSpaceOnUse">
            <stop stop-color="#53FDA9"/>
            <stop offset="0.878479" stop-color="#53FDA9"/>
        </linearGradient>
        <linearGradient id="paint6_linear_4950_2894" x1="12.0796" y1="0" x2="12.0796" y2="24.1591" gradientUnits="userSpaceOnUse">
            <stop stop-color="#53FDA9"/>
            <stop offset="0.878479" stop-color="#53FDA9"/>
        </linearGradient>
        <linearGradient id="paint7_linear_4950_2894" x1="12.0796" y1="0" x2="12.0796" y2="24.1591" gradientUnits="userSpaceOnUse">
            <stop stop-color="#53FDA9"/>
            <stop offset="0.878479" stop-color="#53FDA9"/>
        </linearGradient>
        <linearGradient id="paint8_linear_4950_2894" x1="12.0796" y1="0" x2="12.0796" y2="24.1591" gradientUnits="userSpaceOnUse">
            <stop stop-color="#53FDA9"/>
            <stop offset="0.878479" stop-color="#53FDA9"/>
        </linearGradient>
        <linearGradient id="paint9_linear_4950_2894" x1="11.0396" y1="31.5919" x2="11.0467" y2="17.7737" gradientUnits="userSpaceOnUse">
            <stop stop-color="#53FDA9"/>
            <stop offset="1" stop-color="#53FDA9" stop-opacity="0"/>
        </linearGradient>
        <linearGradient id="paint10_linear_4950_2894" x1="52.96" y1="31.5919" x2="52.9671" y2="17.7737" gradientUnits="userSpaceOnUse">
            <stop stop-color="#53FDA9"/>
            <stop offset="1" stop-color="#53FDA9" stop-opacity="0"/>
        </linearGradient>
        <linearGradient id="paint11_linear_4950_2894" x1="31.9991" y1="43.3517" x2="32.0062" y2="29.5335" gradientUnits="userSpaceOnUse">
            <stop stop-color="#53FDA9"/>
            <stop offset="1" stop-color="#53FDA9" stop-opacity="0"/>
        </linearGradient>
        <linearGradient id="paint12_linear_4950_2894" x1="31.9991" y1="19.6427" x2="32.0062" y2="5.8245" gradientUnits="userSpaceOnUse">
            <stop stop-color="#53FDA9"/>
            <stop offset="1" stop-color="#53FDA9" stop-opacity="0"/>
        </linearGradient>
        <linearGradient id="paint13_linear_4950_2894" x1="21.386" y1="24.5371" x2="21.3885" y2="16.3573" gradientUnits="userSpaceOnUse">
            <stop stop-color="#53FDA9"/>
            <stop offset="1" stop-color="#53FDA9" stop-opacity="0"/>
        </linearGradient>
        <linearGradient id="paint14_linear_4950_2894" x1="42.6243" y1="24.5371" x2="42.6268" y2="16.3573" gradientUnits="userSpaceOnUse">
            <stop stop-color="#53FDA9"/>
            <stop offset="1" stop-color="#53FDA9" stop-opacity="0"/>
        </linearGradient>
        <linearGradient id="paint15_linear_4950_2894" x1="21.386" y1="36.377" x2="21.3885" y2="28.1972" gradientUnits="userSpaceOnUse">
            <stop stop-color="#53FDA9"/>
            <stop offset="1" stop-color="#53FDA9" stop-opacity="0"/>
        </linearGradient>
        <linearGradient id="paint16_linear_4950_2894" x1="42.6243" y1="36.377" x2="42.6268" y2="28.1972" gradientUnits="userSpaceOnUse">
            <stop stop-color="#53FDA9"/>
            <stop offset="1" stop-color="#53FDA9" stop-opacity="0"/>
        </linearGradient>
    </defs>
</svg>
