<svg width="73" height="72" viewBox="0 0 73 72" fill="none" xmlns="http://www.w3.org/2000/svg">
<path d="M39.8027 41.7775C44.8154 41.7775 48.879 37.714 48.879 32.7011C48.879 27.6883 44.8154 23.6247 39.8027 23.6247C34.7899 23.6247 30.7263 27.6883 30.7263 32.7011C30.7263 37.714 34.7899 41.7775 39.8027 41.7775ZM39.8027 45.078C32.9673 45.078 27.4258 39.5364 27.4258 32.7011C27.4258 25.8658 32.9673 20.3242 39.8027 20.3242C46.638 20.3242 52.1795 25.8658 52.1795 32.7011C52.1795 39.5364 46.638 45.078 39.8027 45.078Z" fill="white"/>
<path d="M33.2011 48.379C38.214 48.379 42.2775 44.3154 42.2775 39.3027C42.2775 34.2899 38.214 30.2263 33.2011 30.2263C28.1883 30.2263 24.1247 34.2899 24.1247 39.3027C24.1247 44.3154 28.1883 48.379 33.2011 48.379ZM33.2011 51.6795C26.3658 51.6795 20.8242 46.138 20.8242 39.3027C20.8242 32.4673 26.3658 26.9258 33.2011 26.9258C40.0364 26.9258 45.578 32.4673 45.578 39.3027C45.578 46.138 40.0364 51.6795 33.2011 51.6795Z" fill="white"/>
<path d="M40.2096 45.0693C41.0673 44.0302 41.6819 42.8124 42.009 41.5054C43.3159 41.1787 44.5335 40.5637 45.5729 39.7063C45.5253 41.2199 45.1995 42.712 44.611 44.1075C43.2156 44.6959 41.7235 45.0218 40.2096 45.0693ZM30.9975 30.4936C29.6905 30.8203 28.4729 31.4352 27.4336 32.2927C27.4811 30.7791 27.8069 29.2869 28.3954 27.8915C29.7908 27.303 31.283 26.9772 32.7966 26.9297C31.9391 27.969 31.3242 29.1866 30.9975 30.4936Z" fill="white"/>
</svg>
