<svg width="73" height="72" viewBox="0 0 73 72" fill="none" xmlns="http://www.w3.org/2000/svg">
<path d="M41.1715 29.8782C40.7267 34.9011 35.7098 39.4457 34.0139 42.316C32.3425 45.1444 31.7905 47.8136 33.1136 53.1173C33.1373 53.212 33.0455 53.2971 32.9561 53.2578C31.2239 52.4973 25.0234 49.6706 25.0234 42.2014C25.0234 32.2592 36.1351 32.0033 35.3774 18.2734C35.3721 18.1781 35.4764 18.1104 35.5561 18.1628C39.3219 20.6385 41.6087 24.939 41.1715 29.8782Z" fill="white"/>
<path d="M33.9362 53.4383C33.891 53.4236 33.859 53.3818 33.8565 53.3343C33.6754 49.9895 35.454 47.8174 37.4518 46.2118C42.0215 42.5394 44.7596 37.5217 43.2832 31.714C43.2541 31.5988 43.3911 31.516 43.4732 31.6019C44.6504 32.8337 45.9649 34.8616 46.6416 36.2757C49.4377 42.2821 47.9455 49.1653 41.255 52.6389C39.1239 53.6968 36.5866 54.2964 33.9362 53.4383Z" fill="white"/>
</svg>
