<svg width="73" height="72" viewBox="0 0 73 72" fill="none" xmlns="http://www.w3.org/2000/svg">
<path d="M26.8759 23.5562L36.5019 18L46.128 23.5562L42.5889 25.6088L36.5019 22.1052L30.4149 25.6088L26.8759 23.5562ZM46.128 30.5634L42.5889 28.5108L36.5019 32.0144L30.4149 28.5108L26.8759 30.5634V34.6686L32.9629 38.1721V45.1793L36.5019 47.232L40.041 45.1793V38.1721L46.128 34.6686V30.5634ZM46.128 41.6758V37.5706L42.5889 39.6231V43.7283L46.128 41.6758ZM48.6406 43.1268L42.5536 46.6303V50.7355L52.1796 45.1793V34.0669L48.6406 36.1196V43.1268ZM45.1017 27.0598L48.6406 29.1124V33.2176L52.1796 31.165V27.0598L48.6406 25.0072L45.1017 27.0598ZM32.9629 48.1168V52.222L36.5019 54.2745L40.041 52.222V48.1168L36.5019 50.1693L32.9629 48.1168ZM26.8759 41.6758L30.4149 43.7283V39.6231L26.8759 37.5706V41.6758ZM32.9629 27.0598L36.5019 29.1124L40.041 27.0598L36.5019 25.0072L32.9629 27.0598ZM24.3632 29.1124L27.9022 27.0598L24.3632 25.0072L20.8242 27.0598V31.165L24.3632 33.2176V29.1124ZM24.3632 36.1196L20.8242 34.0669V45.1793L30.4502 50.7355V46.6303L24.3632 43.1268V36.1196Z" fill="white"/>
</svg>
