<svg width="73" height="72" viewBox="0 0 73 72" fill="none" xmlns="http://www.w3.org/2000/svg">
<path fill-rule="evenodd" clip-rule="evenodd" d="M36.5019 20.3242C27.8435 20.3242 20.8242 27.3435 20.8242 36.0019C20.8242 44.6603 27.8435 51.6796 36.5019 51.6796C45.1603 51.6796 52.1796 44.6603 52.1796 36.0019C52.1796 27.3435 45.1603 20.3242 36.5019 20.3242ZM35.1679 40.4413L35.1578 40.4599C34.8102 41.0685 34.634 41.377 34.3898 41.6092C34.1237 41.8635 33.8051 42.0482 33.4542 42.1516C33.1338 42.2398 32.7762 42.2398 32.0592 42.2398H29.0165C28.3775 42.2398 28.0605 42.2398 27.8689 42.1161C27.6604 41.9804 27.5333 41.7584 27.5181 41.5109C27.5062 41.2838 27.6638 41.0057 27.9808 40.4515L35.4933 27.2113C35.8138 26.6485 35.9747 26.3671 36.1782 26.2637C36.3968 26.1519 36.6596 26.1519 36.8799 26.2637C37.0834 26.3671 37.2461 26.6485 37.5648 27.2113L39.109 29.9065L39.1174 29.92C39.4632 30.5234 39.6378 30.8286 39.7141 31.1507C39.7989 31.5015 39.7989 31.8711 39.7141 32.2219C39.6378 32.5457 39.4632 32.8542 39.1124 33.4661L35.1662 40.4413H35.1679ZM45.2621 42.1126C45.0688 42.2398 44.7468 42.2398 44.1026 42.2398H39.7429C39.1005 42.2398 38.7767 42.2398 38.5868 42.1161C38.3783 41.9804 38.2513 41.7533 38.236 41.5075C38.2241 41.2821 38.3835 41.0075 38.7021 40.4565L38.7089 40.443L40.8854 36.7071C41.2057 36.1562 41.3668 35.8833 41.5668 35.7782C41.7871 35.6663 42.0448 35.6663 42.2635 35.7782C42.4618 35.8798 42.6177 36.1409 42.9245 36.6613L42.95 36.7037L45.1332 40.4397C45.1434 40.4583 45.1553 40.4752 45.1654 40.4938C45.4688 41.016 45.6231 41.2821 45.6112 41.5024C45.5994 41.7482 45.4688 41.9754 45.2603 42.111L45.2621 42.1126Z" fill="white"/>
</svg>
