<svg width="73" height="72" viewBox="0 0 73 72" fill="none" xmlns="http://www.w3.org/2000/svg">
<path d="M28.9594 35.8831C28.9246 36.489 29.1318 37.084 29.5354 37.5373C29.939 37.9905 30.5061 38.265 31.112 38.3004H31.2369C31.6831 38.2999 32.1194 38.1688 32.492 37.9232C32.8645 37.6776 33.157 37.3283 33.3334 36.9183C33.5097 36.5084 33.5621 36.0558 33.4842 35.6165C33.4063 35.1771 33.2014 34.7701 32.8949 34.4458C32.5884 34.1216 32.1936 33.8941 31.7593 33.7916C31.325 33.6891 30.8702 33.716 30.451 33.8689C30.0318 34.0219 29.6666 34.2943 29.4004 34.6524C29.1342 35.0106 28.9787 35.4388 28.9531 35.8843L28.9594 35.8831Z" fill="white"/>
<path d="M20.4395 35.3058C20.2938 35.2977 20.149 35.3329 20.0233 35.4071C19.8976 35.4812 19.7967 35.5909 19.7333 35.7224C19.67 35.8539 19.647 36.0012 19.6674 36.1457C19.6877 36.2902 19.7504 36.4255 19.8476 36.5343C19.9448 36.6432 20.0721 36.7208 20.2134 36.7574C20.3547 36.794 20.5036 36.7878 20.6414 36.7397C20.7792 36.6917 20.8996 36.6038 20.9875 36.4873C21.0754 36.3708 21.1268 36.2309 21.1352 36.0852C21.1409 35.9883 21.1275 35.8912 21.0956 35.7995C21.0637 35.7078 21.014 35.6234 20.9493 35.5509C20.8847 35.4785 20.8064 35.4196 20.7189 35.3775C20.6314 35.3355 20.5365 35.3111 20.4395 35.3058Z" fill="white"/>
<path d="M28.8116 22.6237C28.9414 22.5571 29.0485 22.4535 29.1196 22.3261C29.1906 22.1987 29.2224 22.0531 29.2109 21.9077C29.1994 21.7622 29.1451 21.6234 29.0549 21.5088C28.9647 21.3941 28.8426 21.3087 28.7039 21.2633C28.5653 21.2179 28.4163 21.2145 28.2757 21.2536C28.1352 21.2927 28.0093 21.3725 27.914 21.4829C27.8187 21.5934 27.7582 21.7296 27.7401 21.8743C27.722 22.0191 27.7471 22.166 27.8124 22.2965C27.8562 22.3839 27.9169 22.4617 27.9909 22.5255C28.065 22.5893 28.1509 22.6378 28.2438 22.6682C28.3367 22.6986 28.4347 22.7103 28.5321 22.7027C28.6296 22.6951 28.7246 22.6682 28.8116 22.6237Z" fill="white"/>
<path d="M31.1323 26.6687C31.3339 26.567 31.5008 26.4079 31.6119 26.2113C31.723 26.0148 31.7734 25.7898 31.7566 25.5647C31.7399 25.3395 31.6567 25.1244 31.5177 24.9465C31.3787 24.7686 31.1901 24.636 30.9757 24.5653C30.7613 24.4945 30.5308 24.489 30.3132 24.5493C30.0957 24.6096 29.9009 24.733 29.7535 24.904C29.6061 25.075 29.5127 25.2859 29.4851 25.5099C29.4575 25.734 29.497 25.9612 29.5985 26.1628C29.666 26.2968 29.7592 26.4162 29.8728 26.5141C29.9864 26.612 30.1182 26.6866 30.2606 26.7336C30.403 26.7806 30.5533 26.799 30.7029 26.7879C30.8525 26.7767 30.9984 26.7362 31.1323 26.6687Z" fill="white"/>
<path d="M23.33 29.449C23.4855 29.5512 23.6678 29.6051 23.8538 29.6037C24.0399 29.6023 24.2214 29.5457 24.3753 29.4411C24.5292 29.3366 24.6486 29.1887 24.7185 29.0162C24.7883 28.8438 24.8055 28.6545 24.7677 28.4723C24.7299 28.2901 24.639 28.1232 24.5063 27.9927C24.3737 27.8622 24.2053 27.774 24.0225 27.7392C23.8397 27.7045 23.6507 27.7247 23.4794 27.7974C23.3081 27.87 23.1622 27.9919 23.0602 28.1475C22.9236 28.3559 22.8752 28.6101 22.9258 28.8541C22.9764 29.0981 23.1218 29.3121 23.33 29.449Z" fill="white"/>
<path d="M24.7215 34.8885C24.4962 34.8758 24.2721 34.9302 24.0776 35.0448C23.8831 35.1594 23.727 35.3291 23.6289 35.5325C23.5309 35.7358 23.4953 35.9636 23.5267 36.1872C23.5581 36.4107 23.6551 36.6199 23.8054 36.7884C23.9557 36.9568 24.1525 37.0769 24.3711 37.1335C24.5896 37.1901 24.82 37.1806 25.0331 37.1063C25.2463 37.0319 25.4326 36.8961 25.5686 36.7159C25.7045 36.5357 25.784 36.3192 25.797 36.0938C25.814 35.7914 25.7103 35.4946 25.5087 35.2686C25.307 35.0426 25.0239 34.9059 24.7215 34.8885Z" fill="white"/>
<path d="M23.4577 42.562C23.2917 42.6459 23.1543 42.7772 23.0629 42.9391C22.9715 43.1011 22.9301 43.2865 22.9441 43.472C22.958 43.6574 23.0266 43.8346 23.1412 43.981C23.2558 44.1275 23.4113 44.2367 23.5879 44.2948C23.7646 44.353 23.9545 44.3574 24.1337 44.3076C24.3129 44.2578 24.4733 44.156 24.5947 44.0151C24.716 43.8741 24.7928 43.7004 24.8155 43.5158C24.8381 43.3312 24.8054 43.144 24.7217 42.978C24.6661 42.8676 24.5892 42.7693 24.4956 42.6887C24.4019 42.6081 24.2933 42.5467 24.1759 42.5081C24.0585 42.4694 23.9347 42.4543 23.8114 42.4636C23.6882 42.4728 23.568 42.5063 23.4577 42.562Z" fill="white"/>
<path d="M27.889 32.5344C28.1113 32.6801 28.3718 32.7566 28.6376 32.7542C28.9034 32.7519 29.1625 32.6708 29.3822 32.5212C29.6019 32.3715 29.7723 32.1601 29.8718 31.9137C29.9714 31.6673 29.9956 31.3968 29.9414 31.1366C29.8873 30.8764 29.7572 30.6381 29.5676 30.4518C29.3781 30.2655 29.1375 30.1396 28.8764 30.09C28.6153 30.0404 28.3453 30.0694 28.1006 30.1732C27.856 30.2771 27.6476 30.4511 27.5018 30.6734C27.4049 30.8209 27.338 30.9862 27.3049 31.1596C27.2719 31.3331 27.2734 31.5113 27.3094 31.6842C27.3454 31.8571 27.4151 32.0212 27.5145 32.167C27.614 32.3129 27.7412 32.4378 27.889 32.5344Z" fill="white"/>
<path d="M41.9604 26.5766C42.1496 26.7001 42.3713 26.7647 42.5973 26.7622C42.8232 26.7597 43.0434 26.6903 43.2299 26.5627C43.4165 26.4352 43.561 26.2551 43.6452 26.0454C43.7295 25.8357 43.7496 25.6058 43.7032 25.3846C43.6568 25.1634 43.5458 24.961 43.3844 24.8029C43.2229 24.6448 43.0182 24.5381 42.7961 24.4963C42.574 24.4545 42.3445 24.4795 42.1366 24.5681C41.9287 24.6567 41.7518 24.805 41.6281 24.9941C41.5458 25.1198 41.4891 25.2604 41.4612 25.4081C41.4334 25.5557 41.4349 25.7073 41.4658 25.8543C41.4966 26.0014 41.5562 26.1408 41.6411 26.2648C41.726 26.3887 41.8345 26.4947 41.9604 26.5766Z" fill="white"/>
<path d="M44.3067 22.5492C44.4291 22.6294 44.5724 22.6715 44.7187 22.6702C44.865 22.6689 45.0076 22.6242 45.1285 22.5418C45.2494 22.4595 45.3431 22.3431 45.3978 22.2074C45.4525 22.0717 45.4658 21.9229 45.4359 21.7797C45.406 21.6365 45.3343 21.5054 45.2299 21.403C45.1254 21.3005 44.993 21.2314 44.8492 21.2042C44.7055 21.1771 44.5569 21.1932 44.4223 21.2505C44.2877 21.3079 44.1732 21.4038 44.0931 21.5263C43.9859 21.6903 43.9482 21.8902 43.9883 22.082C44.0283 22.2738 44.1429 22.4418 44.3067 22.5492Z" fill="white"/>
<path d="M42.1433 33.7108C41.8436 33.6936 41.5435 33.7356 41.2601 33.8343C40.9766 33.9331 40.7154 34.0867 40.4914 34.2864C40.0389 34.6898 39.7651 35.2564 39.7303 35.8615C39.6956 36.4667 39.9026 37.0609 40.306 37.5135C40.7093 37.966 41.2759 38.2397 41.8811 38.2745C41.9248 38.2745 41.9697 38.2745 42.0134 38.2745C42.4543 38.2743 42.8857 38.1465 43.2556 37.9067C43.6255 37.6668 43.9181 37.325 44.0981 36.9226C44.2781 36.5202 44.3379 36.0743 44.2702 35.6386C44.2025 35.203 44.0102 34.7963 43.7166 34.4675C43.5177 34.2432 43.2761 34.0608 43.006 33.9309C42.7359 33.801 42.4426 33.7262 42.1433 33.7108Z" fill="white"/>
<path d="M31.8827 32.3726C32.0724 32.7516 32.3641 33.0701 32.725 33.2922C33.0859 33.5144 33.5017 33.6313 33.9255 33.63C34.3162 33.6301 34.7004 33.53 35.0414 33.3394C35.3825 33.1488 35.669 32.8739 35.8736 32.5411C36.0782 32.2082 36.1941 31.8285 36.2102 31.4381C36.2264 31.0477 36.1422 30.6597 35.9657 30.3111C35.7747 29.9339 35.4824 29.6173 35.1216 29.3968C34.7608 29.1762 34.3458 29.0605 33.923 29.0625C33.5334 29.0632 33.1506 29.1634 32.8106 29.3535C32.4707 29.5437 32.185 29.8176 31.9806 30.1492C31.7762 30.4807 31.66 30.859 31.6428 31.2482C31.6257 31.6373 31.7083 32.0244 31.8827 32.3726Z" fill="white"/>
<path d="M49.7978 29.4442C49.9638 29.3605 50.1013 29.2293 50.1928 29.0675C50.2843 28.9056 50.3258 28.7202 50.312 28.5348C50.2982 28.3493 50.2298 28.1721 50.1153 28.0256C50.0008 27.879 49.8455 27.7697 49.6689 27.7114C49.4923 27.6532 49.3024 27.6485 49.1232 27.6982C48.944 27.7478 48.7835 27.8494 48.662 27.9902C48.5405 28.131 48.4635 28.3046 48.4407 28.4892C48.4179 28.6737 48.4503 28.8609 48.5338 29.0271C48.6462 29.2499 48.8425 29.419 49.0795 29.4972C49.3165 29.5754 49.5749 29.5564 49.7978 29.4442Z" fill="white"/>
<path d="M44.005 30.1753C43.7676 30.2949 43.571 30.4822 43.4401 30.7135C43.3091 30.9448 43.2497 31.2097 43.2693 31.4748C43.2889 31.7399 43.3867 31.9932 43.5503 32.2027C43.7138 32.4122 43.9359 32.5685 44.1883 32.6518C44.4407 32.7352 44.7122 32.7418 44.9683 32.6708C45.2245 32.5999 45.4538 32.4545 45.6274 32.2532C45.801 32.0519 45.911 31.8037 45.9434 31.5398C45.9759 31.276 45.9294 31.0085 45.8099 30.7711C45.7306 30.6134 45.621 30.4728 45.4874 30.3575C45.3537 30.2421 45.1987 30.1543 45.031 30.0989C44.8634 30.0436 44.6865 30.0218 44.5104 30.035C44.3344 30.0481 44.1626 30.0958 44.005 30.1753Z" fill="white"/>
<path d="M36.5394 22.2037C36.7251 22.2143 36.9098 22.1696 37.0701 22.0751C37.2305 21.9807 37.3592 21.8409 37.44 21.6733C37.5208 21.5057 37.5501 21.3179 37.5242 21.1337C37.4983 20.9495 37.4183 20.7771 37.2944 20.6383C37.1705 20.4995 37.0082 20.4006 36.828 20.3541C36.6479 20.3076 36.458 20.3155 36.2824 20.3769C36.1068 20.4384 35.9533 20.5505 35.8414 20.6991C35.7295 20.8478 35.6643 21.0262 35.6538 21.212C35.6398 21.4609 35.7253 21.7052 35.8913 21.8912C36.0574 22.0771 36.2905 22.1895 36.5394 22.2037Z" fill="white"/>
<path d="M36.5304 28.1194C36.7957 28.1343 37.0595 28.0701 37.2883 27.9351C37.5172 27.8002 37.701 27.6003 37.8163 27.361C37.9317 27.1216 37.9735 26.8534 37.9364 26.5902C37.8994 26.3271 37.7852 26.0808 37.6082 25.8826C37.4313 25.6843 37.1995 25.543 36.9423 25.4764C36.685 25.4099 36.4138 25.4211 36.1629 25.5086C35.912 25.5961 35.6927 25.7561 35.5327 25.9682C35.3726 26.1804 35.2791 26.4352 35.2639 26.7005C35.2437 27.0566 35.3659 27.4061 35.6034 27.6721C35.8409 27.9382 36.1743 28.0991 36.5304 28.1194Z" fill="white"/>
<path d="M29.2537 41.8331C29.491 41.7134 29.6876 41.526 29.8184 41.2946C29.9493 41.0632 30.0086 40.7982 29.9889 40.5331C29.9691 40.268 29.8712 40.0148 29.7075 39.8053C29.5438 39.5959 29.3216 39.4397 29.0691 39.3565C28.8166 39.2734 28.5452 39.2669 28.289 39.3381C28.0329 39.4092 27.8036 39.5547 27.6302 39.7562C27.4567 39.9576 27.3469 40.206 27.3146 40.4698C27.2824 40.7337 27.3291 41.0012 27.4488 41.2385C27.6094 41.5567 27.8897 41.798 28.2281 41.9095C28.5666 42.021 28.9355 41.9935 29.2537 41.8331Z" fill="white"/>
<path d="M37.3972 30.0795C37.1186 30.5047 36.9897 31.0107 37.031 31.5175C37.0723 32.0242 37.2814 32.5027 37.6252 32.8772C37.9691 33.2517 38.428 33.5008 38.9293 33.5852C39.4307 33.6695 39.9458 33.5842 40.3933 33.3429C40.8407 33.1015 41.1949 32.7178 41.3997 32.2525C41.6046 31.7871 41.6484 31.2668 41.5242 30.7738C41.4 30.2808 41.115 29.8433 40.7142 29.5305C40.3134 29.2177 39.8197 29.0475 39.3113 29.0469C38.9317 29.0466 38.5579 29.1409 38.2237 29.3211C37.8895 29.5014 37.6055 29.762 37.3972 30.0795Z" fill="white"/>
<path d="M41.3682 39.6311C41.1851 39.2681 40.9085 38.9605 40.5669 38.74C40.2253 38.5196 39.831 38.3943 39.4248 38.3771C39.0186 38.3598 38.6151 38.4513 38.2561 38.642C37.897 38.8327 37.5953 39.1158 37.3822 39.462C37.169 39.8082 37.0521 40.2051 37.0435 40.6115C37.0349 41.018 37.1349 41.4194 37.3331 41.7744C37.5314 42.1293 37.8208 42.4249 38.1715 42.6307C38.5221 42.8365 38.9214 42.945 39.3279 42.945C39.6856 42.9425 40.0378 42.857 40.3568 42.6952C40.8964 42.4221 41.3057 41.9463 41.4953 41.372C41.6848 40.7978 41.6391 40.1718 41.3682 39.6311Z" fill="white"/>
<path d="M45.3627 39.4744C45.1405 39.3285 44.8801 39.2518 44.6143 39.254C44.3485 39.2561 44.0893 39.337 43.8695 39.4865C43.6497 39.636 43.4791 39.8473 43.3794 40.0937C43.2797 40.3401 43.2553 40.6105 43.3093 40.8708C43.3632 41.131 43.4932 41.3694 43.6826 41.5559C43.8721 41.7423 44.1126 41.8683 44.3737 41.9181C44.6348 41.9678 44.9048 41.939 45.1496 41.8353C45.3943 41.7316 45.6028 41.5576 45.7487 41.3354C45.9436 41.0372 46.0125 40.674 45.9401 40.3252C45.8678 39.9763 45.6602 39.6704 45.3627 39.4744Z" fill="white"/>
<path d="M49.7384 36.0419C49.7511 35.8165 49.6968 35.5924 49.5821 35.3979C49.4675 35.2034 49.2978 35.0473 49.0945 34.9493C48.8912 34.8512 48.6633 34.8156 48.4398 34.847C48.2163 34.8784 48.007 34.9754 47.8386 35.1257C47.6702 35.276 47.5501 35.4728 47.4935 35.6914C47.4369 35.9099 47.4464 36.1403 47.5207 36.3535C47.595 36.5666 47.7309 36.7529 47.9111 36.8889C48.0913 37.0248 48.3078 37.1043 48.5331 37.1173C48.8355 37.1343 49.1323 37.0306 49.3583 36.829C49.5843 36.6273 49.721 36.3442 49.7384 36.0419Z" fill="white"/>
<path d="M52.8991 35.2278C52.7531 35.2194 52.6079 35.2545 52.4818 35.3286C52.3557 35.4027 52.2545 35.5126 52.1909 35.6442C52.1272 35.7759 52.1041 35.9235 52.1243 36.0683C52.1446 36.2132 52.2073 36.3488 52.3046 36.4579C52.4019 36.5671 52.5294 36.645 52.6709 36.6817C52.8125 36.7184 52.9618 36.7124 53.0999 36.6642C53.238 36.6161 53.3587 36.5281 53.4468 36.4114C53.5349 36.2947 53.5864 36.1544 53.5948 36.0084C53.6057 35.8127 53.5386 35.6207 53.4082 35.4744C53.2778 35.328 53.0948 35.2394 52.8991 35.2278Z" fill="white"/>
<path d="M49.9207 42.5561C49.7651 42.4542 49.5828 42.4007 49.3968 42.4024C49.2108 42.4041 49.0295 42.4609 48.8758 42.5656C48.7221 42.6703 48.6029 42.8182 48.5333 42.9907C48.4636 43.1631 48.4467 43.3523 48.4846 43.5344C48.5224 43.7165 48.6135 43.8833 48.7461 44.0136C48.8788 44.144 49.0471 44.2321 49.2298 44.2668C49.4125 44.3016 49.6014 44.2813 49.7726 44.2087C49.9438 44.1361 50.0897 44.0143 50.1917 43.8588C50.2595 43.7555 50.3063 43.6398 50.3293 43.5184C50.3524 43.397 50.3513 43.2723 50.3262 43.1513C50.301 43.0303 50.2522 42.9155 50.1826 42.8133C50.1131 42.7112 50.024 42.6238 49.9207 42.5561Z" fill="white"/>
<path d="M28.9498 49.4571C28.8275 49.3769 28.6842 49.3348 28.538 49.336C28.3918 49.3372 28.2492 49.3817 28.1283 49.4639C28.0074 49.5462 27.9135 49.6624 27.8587 49.798C27.8038 49.9335 27.7904 50.0823 27.8201 50.2255C27.8498 50.3686 27.9212 50.4998 28.0255 50.6024C28.1297 50.7049 28.262 50.7743 28.4056 50.8017C28.5493 50.8291 28.6978 50.8133 28.8324 50.7562C28.9671 50.6992 29.0818 50.6036 29.1621 50.4813C29.2154 50.4002 29.2522 50.3093 29.2704 50.2138C29.2886 50.1184 29.2879 50.0204 29.2681 49.9253C29.2484 49.8301 29.2101 49.7398 29.1555 49.6595C29.1009 49.5792 29.031 49.5104 28.9498 49.4571Z" fill="white"/>
<path d="M44.4379 49.3803C44.3073 49.4462 44.1991 49.5492 44.1271 49.6765C44.0551 49.8038 44.0224 49.9496 44.0333 50.0955C44.0441 50.2413 44.098 50.3807 44.1881 50.4959C44.2781 50.6112 44.4003 50.6971 44.5392 50.7429C44.6781 50.7887 44.8275 50.7922 44.9684 50.7531C45.1094 50.714 45.2355 50.634 45.331 50.5231C45.4264 50.4123 45.4868 50.2757 45.5046 50.1305C45.5224 49.9853 45.4967 49.8382 45.4308 49.7076C45.3872 49.6208 45.3269 49.5435 45.2534 49.48C45.1799 49.4166 45.0945 49.3683 45.0023 49.3379C44.91 49.3075 44.8127 49.2956 44.7158 49.3029C44.619 49.3101 44.5245 49.3365 44.4379 49.3803Z" fill="white"/>
<path d="M35.8563 41.9202C36.135 41.4949 36.2639 40.9888 36.2225 40.482C36.1812 39.9753 35.972 39.4967 35.6281 39.1222C35.2842 38.7477 34.8252 38.4987 34.3238 38.4144C33.8223 38.3302 33.3071 38.4155 32.8597 38.6571C32.4123 38.8986 32.0582 39.2825 31.8535 39.7479C31.6488 40.2133 31.6052 40.7337 31.7296 41.2267C31.854 41.7197 32.1392 42.1572 32.5402 42.4698C32.9412 42.7824 33.435 42.9524 33.9435 42.9528C34.3232 42.9541 34.6972 42.8602 35.0313 42.6799C35.3654 42.4995 35.6491 42.2383 35.8563 41.9202Z" fill="white"/>
<path d="M31.29 45.4285C31.1011 45.3049 30.8798 45.2401 30.6541 45.2422C30.4283 45.2444 30.2083 45.3135 30.0218 45.4406C29.8353 45.5678 29.6907 45.7475 29.6063 45.9568C29.5219 46.1662 29.5014 46.3959 29.5475 46.6168C29.5936 46.8378 29.7041 47.0402 29.8652 47.1983C30.0263 47.3565 30.2306 47.4634 30.4524 47.5054C30.6742 47.5475 30.9035 47.5228 31.1112 47.4346C31.319 47.3464 31.496 47.1985 31.6198 47.0097C31.7855 46.7562 31.8439 46.4473 31.7821 46.1509C31.7203 45.8544 31.5433 45.5945 31.29 45.4285Z" fill="white"/>
<path d="M36.6189 49.7984C36.4332 49.7878 36.2486 49.8326 36.0883 49.9269C35.928 50.0213 35.7993 50.1611 35.7185 50.3286C35.6377 50.4961 35.6083 50.6838 35.6341 50.868C35.6599 51.0522 35.7398 51.2246 35.8636 51.3634C35.9874 51.5022 36.1496 51.6012 36.3296 51.6478C36.5096 51.6945 36.6995 51.6867 36.8751 51.6255C37.0507 51.5643 37.2043 51.4523 37.3163 51.3039C37.4283 51.1554 37.4938 50.9771 37.5045 50.7914C37.5116 50.668 37.4943 50.5445 37.4536 50.4278C37.4129 50.3111 37.3497 50.2036 37.2674 50.1114C37.1852 50.0192 37.0856 49.9441 36.9743 49.8904C36.863 49.8367 36.7423 49.8054 36.6189 49.7984Z" fill="white"/>
<path d="M36.6247 43.8853C36.3591 43.8692 36.0948 43.9322 35.8651 44.0664C35.6354 44.2006 35.4507 44.4 35.3344 44.6393C35.2181 44.8786 35.1755 45.147 35.2118 45.4105C35.2482 45.674 35.362 45.9209 35.5387 46.1197C35.7155 46.3185 35.9473 46.4604 36.2047 46.5274C36.4622 46.5944 36.7338 46.5835 36.985 46.496C37.2363 46.4085 37.4559 46.2485 37.6161 46.0361C37.7763 45.8237 37.8699 45.5685 37.885 45.3029C37.9054 44.9479 37.7842 44.5993 37.548 44.3335C37.3117 44.0677 36.9797 43.9065 36.6247 43.8853Z" fill="white"/>
<path d="M42.1218 45.3355C41.9202 45.4378 41.7534 45.5977 41.6426 45.7948C41.5318 45.992 41.482 46.2176 41.4995 46.4431C41.517 46.6685 41.601 46.8838 41.7409 47.0615C41.8808 47.2392 42.0702 47.3714 42.2852 47.4414C42.5003 47.5114 42.7313 47.516 42.9489 47.4547C43.1666 47.3933 43.3612 47.2688 43.5081 47.0968C43.6549 46.9248 43.7474 46.7131 43.7739 46.4885C43.8004 46.2639 43.7597 46.0365 43.6569 45.8351C43.589 45.7014 43.4954 45.5824 43.3815 45.4849C43.2676 45.3874 43.1356 45.3133 42.993 45.2669C42.8504 45.2205 42.7001 45.2027 42.5506 45.2145C42.4011 45.2262 42.2554 45.2673 42.1218 45.3355Z" fill="white"/>
</svg>
