<svg width="73" height="72" viewBox="0 0 73 72" fill="none" xmlns="http://www.w3.org/2000/svg">
<path d="M52.4619 36.0574C52.3994 33.1719 51.56 30.3563 50.0317 27.9062C48.5034 25.456 46.3425 23.4615 43.7759 22.132C41.2092 20.8025 38.3313 20.1869 35.4442 20.3499C32.5571 20.5128 29.7671 21.4483 27.367 23.0582C24.9669 24.6681 23.0451 26.893 21.8033 29.4995C20.5616 32.1061 20.0455 34.9981 20.3094 37.8722C20.5733 40.7464 21.6073 43.4967 23.303 45.8345C24.9987 48.1724 27.2936 50.0117 29.9469 51.1594C30.7306 49.9838 31.3304 48.6959 31.7258 47.3401C32.0488 46.5198 32.3996 45.713 32.7632 44.9325C33.6404 45.1948 34.5725 45.2144 35.4601 44.9893C36.3476 44.7641 37.1572 44.3027 37.8025 43.6542L37.8565 43.6002C37.064 43.3061 36.2098 43.217 35.3735 43.3411C34.5371 43.4653 33.7459 43.7988 33.0735 44.3104C33.5182 43.3822 34.0035 42.4817 34.5016 41.6075C35.3627 41.9115 36.2905 41.9757 37.1854 41.7933C38.0804 41.6109 38.9086 41.1887 39.5814 40.572L39.6354 40.518C38.8698 40.1948 38.0358 40.0661 37.2081 40.1436C36.3805 40.2211 35.585 40.5022 34.8929 40.9619C35.391 40.1416 35.9033 39.3349 36.4427 38.5814C37.3338 38.815 38.2721 38.8006 39.1556 38.5398C40.0392 38.2791 40.8343 37.7818 41.4549 37.1021L41.4954 37.0481C40.7595 36.8086 39.9775 36.7446 39.2123 36.8614C38.4471 36.9782 37.7201 37.2725 37.0895 37.7206C37.13 37.6667 37.1841 37.5999 37.224 37.5459C37.547 37.1291 37.8843 36.7122 38.2201 36.3088C39.2456 35.9738 40.1602 35.3661 40.8653 34.5509C41.5705 33.7358 42.0395 32.7441 42.2219 31.6827L42.2355 31.6017H42.2219C41.1541 31.8789 40.1854 32.4491 39.4257 33.2476C38.6659 34.0462 38.1455 35.0412 37.9234 36.1199C37.6004 36.5098 37.2766 36.9011 36.9671 37.303C37.2284 36.6212 37.335 35.8901 37.2791 35.1622C37.2233 34.4344 37.0064 33.7279 36.6441 33.0938L36.6035 33.1478C36.0538 33.8971 35.7225 34.7837 35.6464 35.7094C35.5703 36.635 35.7523 37.5637 36.1723 38.3925C35.66 39.119 35.1619 39.8583 34.6901 40.6381C34.8421 39.8542 34.8026 39.0453 34.5751 38.2799C34.3476 37.5144 33.9387 36.815 33.383 36.2406L33.356 36.3081C33.0122 37.1629 32.9109 38.0956 33.063 39.004C33.2151 39.9124 33.6148 40.7616 34.2184 41.4583C33.7466 42.2786 33.3019 43.1258 32.8707 44.0001C33.0017 43.1836 32.9355 42.3477 32.6777 41.5619C32.4199 40.776 31.978 40.0629 31.3885 39.4819L31.3615 39.5494C31.054 40.4453 30.997 41.408 31.1964 42.3339C31.3959 43.2598 31.8443 44.114 32.4935 44.8047C32.2089 45.4098 31.9414 46.012 31.6852 46.6469C31.6148 46.5824 31.5323 46.5322 31.4426 46.4992C30.9829 46.3659 30.5432 46.1715 30.1355 45.9211C29.7983 45.7215 29.4405 45.5591 29.0681 45.4368C27.613 44.9659 27.8286 44.2671 27.0758 42.8545C26.8308 42.5637 26.5705 42.2861 26.2959 42.0229C26.0412 41.858 25.8326 41.6312 25.6897 41.3639C25.5237 41.03 25.4186 40.6693 25.3794 40.2986C25.375 40.0936 25.3063 39.8951 25.183 39.731C25.0597 39.567 24.888 39.4456 24.6921 39.3839C22.5496 38.6446 23.5066 35.8742 23.587 35.5105C23.5541 35.0403 23.4495 34.5779 23.2768 34.1392C23.2587 34.0821 23.2452 34.0237 23.2362 33.9645C23.179 33.6774 23.1895 33.381 23.2666 33.0987C23.3438 32.8164 23.4856 32.5558 23.6809 32.3374C23.9371 32.0818 24.8265 31.6649 25.0151 31.4227C25.2037 31.1806 25.3381 30.9114 25.5274 30.6834C26.1261 30.0874 26.8177 29.5924 27.5753 29.2176C28.195 28.8817 28.3032 28.021 28.5451 27.7518C28.9493 27.2944 29.5691 27.2944 30.0273 26.891C30.2564 26.6894 30.5965 26.5814 30.81 26.3669C31.8862 25.3832 33.2426 24.7582 34.6908 24.5787C35.6951 24.497 36.706 24.588 37.6794 24.8479C37.8203 24.8715 37.9597 24.903 38.097 24.9423C40.3199 25.0233 42.9883 25.4799 43.9581 26.4216C44.4383 26.8821 44.795 27.4554 44.9956 28.0891C45.1531 28.5799 45.3704 29.0495 45.6424 29.4875L46.2351 30.4555C46.6128 31.0659 46.7337 31.8004 46.5717 32.4994C46.4625 32.8393 46.4531 33.2033 46.5446 33.5483C46.8573 34.0193 47.2235 34.4526 47.6362 34.8394C47.8001 35.0013 47.9806 35.1456 48.1748 35.2698C48.6309 35.5414 49.0718 35.8377 49.4955 36.1575C49.5094 36.2871 49.4879 36.4181 49.4332 36.5365C49.3786 36.6549 49.2929 36.7563 49.1852 36.8301C48.8081 37.166 48.0802 37.6908 48.0802 37.6908C48.1065 37.8394 48.1517 37.984 48.2147 38.1212C48.3221 38.3094 48.5647 38.6055 48.4843 38.8605C48.4039 39.1154 47.8781 39.3313 48.0261 39.6133C48.1741 39.9094 48.5512 39.9897 48.4438 40.2588C48.3363 40.5145 47.8105 40.969 47.8646 41.1601C47.9186 41.3511 48.3498 43.1486 47.3522 43.4596C46.1177 43.7033 44.8647 43.8428 43.6066 43.8765C43.4037 43.8882 43.207 43.9511 43.035 44.0592C42.863 44.1674 42.7214 44.3174 42.6233 44.4951C42.4323 44.8505 42.309 45.2382 42.2596 45.6385C41.8957 47.0699 41.4135 48.4688 40.818 49.8207C40.818 49.8207 40.7775 49.9017 40.7234 50.0224C40.5927 50.2882 40.5106 50.5751 40.4808 50.8697C40.5655 51.0861 40.6939 51.2828 40.8579 51.4478C40.9442 51.5465 41.0574 51.618 41.1837 51.6538C41.31 51.6896 41.444 51.6881 41.5694 51.6495C44.7987 50.5262 47.5903 48.4142 49.5462 45.6144C51.5021 42.8146 52.5225 39.47 52.4619 36.0574Z" fill="white"/>
</svg>
