<svg width="72" height="72" viewBox="0 0 72 72" fill="none" xmlns="http://www.w3.org/2000/svg">
<path d="M36.1507 26.9016C39.2736 26.9016 41.8053 25.4292 41.8053 23.6129C41.8053 21.7966 39.2736 20.3242 36.1507 20.3242C33.0277 20.3242 30.4961 21.7966 30.4961 23.6129C30.4961 25.4292 33.0277 26.9016 36.1507 26.9016Z" fill="white"/>
<path d="M36.1507 51.6789C39.2736 51.6789 41.8053 50.2065 41.8053 48.3903C41.8053 46.574 39.2736 45.1016 36.1507 45.1016C33.0277 45.1016 30.4961 46.574 30.4961 48.3903C30.4961 50.2065 33.0277 51.6789 36.1507 51.6789Z" fill="white"/>
<path d="M28.2693 31.4526C29.8308 28.7482 29.8207 25.8191 28.2467 24.9103C26.6727 24.0015 24.131 25.4572 22.5695 28.1617C21.008 30.8662 21.0181 33.7953 22.5921 34.7041C24.1661 35.6128 26.7079 34.1571 28.2693 31.4526Z" fill="white"/>
<path d="M49.7264 43.841C51.2879 41.1366 51.2786 38.208 49.7057 37.2998C48.1328 36.3917 45.5919 37.8479 44.0304 40.5523C42.4689 43.2568 42.4782 46.1854 44.0511 47.0936C45.624 48.0017 48.165 46.5455 49.7264 43.841Z" fill="white"/>
<path d="M28.2467 47.0936C29.8207 46.1848 29.8308 43.2557 28.2693 40.5513C26.7079 37.8468 24.1661 36.3911 22.5921 37.2999C21.0181 38.2086 21.008 41.1377 22.5695 43.8422C24.131 46.5467 26.6727 48.0024 28.2467 47.0936Z" fill="white"/>
<path d="M49.7057 34.7041C51.2786 33.7959 51.2879 30.8673 49.7264 28.1629C48.165 25.4584 45.624 24.0022 44.0511 24.9103C42.4782 25.8185 42.4689 28.7471 44.0304 31.4516C45.5919 34.156 48.1328 35.6122 49.7057 34.7041Z" fill="white"/>
</svg>
