<svg width="73" height="72" viewBox="0 0 73 72" fill="none" xmlns="http://www.w3.org/2000/svg">
<path d="M34.956 18.6346C35.8228 18.1791 37.1418 18.1791 38.0086 18.6346L46.854 23.2829C47.376 23.5572 47.6627 23.966 47.7141 24.3881H47.7225V47.7527C47.711 48.213 47.4216 48.6703 46.854 48.9687L38.0086 53.6169C37.1418 54.0725 35.8228 54.0725 34.956 53.6169L26.1107 48.9687C25.5454 48.6717 25.2741 48.2111 25.2606 47.7527C25.2593 47.7076 25.2591 47.67 25.2604 47.6388L25.2604 24.5381C25.2595 24.5128 25.2594 24.4876 25.2601 24.4624L25.2606 24.3881L25.2646 24.388C25.3039 23.9614 25.5776 23.563 26.1107 23.2829L34.956 18.6346ZM46.3301 37.4231L38.0086 41.7961C37.1418 42.2516 35.8228 42.2516 34.956 41.7961L26.6527 37.4328V47.7065L34.956 52.0468C35.4248 52.2962 35.9115 52.5391 36.3873 52.5701L36.4823 52.5731C36.9781 52.5748 37.4595 52.3243 37.9477 52.0872L46.3301 47.6691V37.4231ZM23.822 47.2448C23.822 48.1397 23.9265 48.7282 24.1341 49.1428C24.3062 49.4864 24.5644 49.7489 25.0359 50.0685L25.0628 50.0866C25.1663 50.156 25.2803 50.2287 25.419 50.3139L25.5826 50.4137L26.085 50.7155L25.3644 51.9008L24.8021 51.5628L24.7076 51.5051C24.545 51.4051 24.4102 51.3195 24.2845 51.2351C22.9408 50.3337 22.4397 49.3513 22.4298 47.3069L22.4297 47.2448H23.822ZM35.786 31.1607C35.7216 31.1827 35.6612 31.2081 35.6062 31.237L26.7609 35.8853C26.7516 35.8902 26.7427 35.895 26.7343 35.8998L26.7268 35.9041L26.7407 35.912L26.7609 35.9229L35.6062 40.5712C35.6612 40.6001 35.7216 40.6255 35.786 40.6476V31.1607ZM37.1786 31.1607V40.6476C37.243 40.6255 37.3034 40.6001 37.3584 40.5712L46.2037 35.9229C46.213 35.918 46.2219 35.9132 46.2303 35.9084L46.2378 35.9041L46.2239 35.8962L46.2037 35.8853L37.3584 31.237C37.3034 31.2081 37.243 31.1827 37.1786 31.1607ZM46.3301 26.0455L38.3953 30.2153L46.3301 34.3851V30.2153V26.0455ZM26.6527 26.0552V34.3753L34.5691 30.2153L26.6527 26.0552ZM37.3584 19.8595C36.8984 19.6178 36.0662 19.6178 35.6062 19.8595L26.7609 24.5078C26.7516 24.5127 26.7427 24.5175 26.7343 24.5223L26.7268 24.5266L26.7407 24.5345L26.7609 24.5454L35.6062 29.1937C36.0662 29.4354 36.8984 29.4354 37.3584 29.1937L46.2037 24.5454C46.213 24.5405 46.2219 24.5357 46.2303 24.5309L46.2378 24.5266L46.2239 24.5187L46.2037 24.5078L37.3584 19.8595ZM47.6373 20.3692L48.1996 20.7071L48.2942 20.7649C48.4567 20.8647 48.5915 20.9505 48.7172 21.0348C50.0609 21.9361 50.562 22.9188 50.5718 24.963L50.572 25.0253H49.1798C49.1798 24.1301 49.0752 23.5417 48.8676 23.1272C48.6955 22.7836 48.4373 22.5211 47.9658 22.2016L47.9389 22.1834C47.8355 22.114 47.7215 22.0413 47.5827 21.9559L47.4191 21.8562L46.9167 21.5545L47.6373 20.3692Z" fill="white"/>
</svg>
