<svg width="73" height="72" viewBox="0 0 73 72" fill="none" xmlns="http://www.w3.org/2000/svg">
<path d="M45.4863 29.9032C44.8407 29.5054 44.0014 29.5054 43.2913 29.9032L38.2557 32.9525L34.8342 34.9412L29.7987 37.9906C29.1531 38.3883 28.3138 38.3883 27.6037 37.9906L23.6011 35.6042C22.9555 35.2065 22.5036 34.4773 22.5036 33.6817V28.9751C22.5036 28.1796 22.891 27.4504 23.6011 27.0527L27.5391 24.7325C28.1847 24.3348 29.0239 24.3348 29.7341 24.7325L33.6722 27.0527C34.3177 27.4504 34.7696 28.1796 34.7696 28.9751V32.0245L38.1912 29.9695V26.9201C38.1912 26.1246 37.8039 25.3954 37.0937 24.9977L29.7987 20.6225C29.1531 20.2248 28.3138 20.2248 27.6037 20.6225L20.1795 24.9977C19.4694 25.3954 19.082 26.1246 19.082 26.9201V35.7368C19.082 36.5322 19.4694 37.2614 20.1795 37.6591L27.6037 42.0343C28.2493 42.4321 29.0886 42.4321 29.7987 42.0343L34.8342 39.0512L38.2557 36.9963L43.2913 34.0132C43.9369 33.6155 44.7762 33.6155 45.4863 34.0132L49.4243 36.3334C50.0699 36.7311 50.5219 37.4603 50.5219 38.2558V42.9624C50.5219 43.7579 50.1345 44.4871 49.4243 44.8848L45.4863 47.2713C44.8407 47.669 44.0014 47.669 43.2913 47.2713L39.3533 44.9511C38.7077 44.5534 38.2557 43.8242 38.2557 43.0286V39.9793L34.8342 42.0343V45.0837C34.8342 45.8791 35.2215 46.6084 35.9317 47.0061L43.3559 51.3813C44.0014 51.779 44.8407 51.779 45.5508 51.3813L52.9751 47.0061C53.6206 46.6084 54.0725 45.8791 54.0725 45.0837V36.2671C54.0725 35.4716 53.6852 34.7424 52.9751 34.3447L45.4863 29.9032Z" fill="white"/>
</svg>
