<svg width="73" height="72" viewBox="0 0 73 72" fill="none" xmlns="http://www.w3.org/2000/svg">
<path d="M45.4271 49.0666C43.1216 49.0666 41.2461 47.1911 41.2461 44.8856V37.1882C45.0529 36.8938 47.807 36.0874 49.6081 34.7709V44.8856C49.6081 47.1911 47.7326 49.0666 45.4271 49.0666ZM41.2461 27.1181C41.2461 24.8126 43.1216 22.9371 45.4271 22.9371C47.7326 22.9371 49.6081 24.8126 49.6081 27.1181V29.6438C49.5672 30.5321 49.3744 31.4447 48.5925 32.2304C47.6771 33.1488 45.6505 34.185 41.2461 34.5572V27.1181ZM31.8125 44.8856C31.8125 47.1911 29.937 49.0666 27.6315 49.0666C25.326 49.0666 23.4505 47.1911 23.4505 44.8856V42.5416C23.4924 41.6879 23.6976 40.7567 24.5427 39.9059C25.4934 38.9473 27.5199 37.8704 31.8125 37.4676V44.8856ZM27.6315 22.9371C29.937 22.9371 31.8125 24.8126 31.8125 27.1181V34.8388C28.0342 35.163 25.2781 36.0235 23.4505 37.4238V27.1181C23.4505 24.8126 25.326 22.9371 27.6315 22.9371ZM52.2274 28.607L52.221 28.163V27.1181C52.221 23.3722 49.173 20.3242 45.4271 20.3242C41.6811 20.3242 38.6332 23.3722 38.6332 27.1181V34.6827C37.9727 34.6961 35.1158 34.6924 34.4254 34.7082V27.1181C34.4254 23.3722 31.3774 20.3242 27.6315 20.3242C23.8856 20.3242 20.8375 23.3722 20.8375 27.1181V42.4118C20.8163 42.8269 20.8251 43.1975 20.8324 43.5027L20.8375 43.8408V44.8856C20.8375 48.6315 23.8856 51.6796 27.6315 51.6796C31.3774 51.6796 34.4254 48.6315 34.4254 44.8856V37.3262C35.093 37.3098 37.9511 37.3148 38.6332 37.3027V44.8856C38.6332 48.6315 41.6811 51.6796 45.4271 51.6796C49.173 51.6796 52.221 48.6315 52.221 44.8856V29.7853C52.2428 29.3484 52.2348 28.9484 52.2274 28.607Z" fill="white"/>
</svg>
