<svg width="73" height="72" viewBox="0 0 73 72" fill="none" xmlns="http://www.w3.org/2000/svg">
<path d="M45.9781 21.9268L39.4285 31.647C38.9755 32.3089 39.8464 33.1103 40.4736 32.5528L46.9188 26.9437C47.0931 26.8043 47.3369 26.9089 47.3369 27.1527V44.6769C47.3369 44.9208 47.0234 45.0254 46.884 44.851L27.374 21.5088C26.7469 20.7423 25.8411 20.3242 24.8307 20.3242H24.134C22.3223 20.3242 20.8242 21.8223 20.8242 23.6688V48.3351C20.8242 50.1815 22.3223 51.6796 24.1688 51.6796C25.3185 51.6796 26.3985 51.0873 27.0256 50.077L33.5754 40.3569C34.0283 39.695 33.1573 38.8935 32.5302 39.451L26.085 45.0254C25.9108 45.1646 25.6669 45.0602 25.6669 44.8162V27.3269C25.6669 27.083 25.9804 26.9785 26.1198 27.1527L45.6298 50.495C46.2569 51.2615 47.1976 51.6796 48.173 51.6796H48.8699C50.7164 51.6796 52.2144 50.1815 52.2144 48.3351V23.6688C52.1796 21.8223 50.6815 20.3242 48.8351 20.3242C47.6853 20.3242 46.6053 20.9165 45.9781 21.9268Z" fill="white"/>
</svg>
