<svg width="73" height="72" viewBox="0 0 73 72" fill="none" xmlns="http://www.w3.org/2000/svg">
<path d="M36.6016 41.1243L41.4577 48.6873L45.9434 46.1076L39.5662 36.1328L36.6016 41.1243Z" fill="white"/>
<path d="M50.0274 43.0715L50.0241 41.0051L43.0556 30.2344L40.4688 34.587L47.1959 45.3836L49.6295 43.9849C49.7473 43.8901 49.8437 43.7718 49.9123 43.6375C49.9809 43.5033 50.0202 43.3562 50.0276 43.2059L50.0274 43.0715Z" fill="white"/>
<path d="M20.8242 45.0221L24.2589 46.9861L35.6885 28.7968L33.7488 28.747C32.096 28.7238 30.3156 29.15 29.4985 30.474L23.008 40.4569L20.8255 43.7861V45.0231L20.8242 45.0221Z" fill="white"/>
<path d="M42.2882 28.7969L37.176 28.8153L25.6094 47.7562L29.6521 50.0662L30.7514 48.2158L42.2882 28.7969Z" fill="white"/>
<path d="M52.1796 28.7691C52.1562 28.2455 52.0048 27.7355 51.7385 27.2829C51.4723 26.8303 51.099 26.4488 50.6511 26.1713L37.9415 18.9183C37.4878 18.6971 36.989 18.582 36.4835 18.582C35.9779 18.582 35.4791 18.6971 35.0254 18.9183C34.9193 18.9714 22.6656 26.0239 22.6656 26.0239C22.4953 26.105 22.3325 26.2006 22.1789 26.3097C21.781 26.5905 21.4524 26.9571 21.2178 27.382C20.9832 27.8068 20.8486 28.279 20.8242 28.7629V43.7841L23.0068 40.4548L22.99 28.8652C23.0002 28.7063 23.0458 28.5516 23.1235 28.4123C23.2012 28.273 23.309 28.1525 23.4393 28.0596C23.497 28.0185 35.9599 20.8597 35.9996 20.84C36.1488 20.7679 36.3124 20.7301 36.4783 20.7293C36.6443 20.7285 36.8082 20.7648 36.9581 20.8355L49.5033 27.9966C49.6494 28.0887 49.7711 28.2143 49.858 28.3628C49.9449 28.5113 49.9944 28.6784 50.0026 28.85V43.2075C49.9995 43.3563 49.9645 43.5028 49.8998 43.6372C49.8352 43.7715 49.7423 43.8906 49.6275 43.9865L47.1941 45.3851L45.9398 46.107L41.4542 48.6866L36.9052 51.3029C36.6537 51.3909 36.3786 51.3855 36.1308 51.2877L30.7489 48.2159L29.6496 50.0661L34.4863 52.8294C34.6464 52.9196 34.7889 52.9997 34.9058 53.0649C35.0869 53.1645 35.2103 53.233 35.2537 53.2539C35.6584 53.4299 36.0959 53.5192 36.5377 53.516C36.9428 53.5166 37.3445 53.4416 37.7218 53.295L50.9343 45.702C51.3071 45.4142 51.6117 45.0489 51.8268 44.6317C52.0419 44.2144 52.1621 43.7555 52.1791 43.2872L52.1796 28.7691Z" fill="white"/>
</svg>
