<svg width="124" height="124" viewBox="0 0 124 124" fill="none" xmlns="http://www.w3.org/2000/svg">
<path d="M58.0116 70.5648C55.3617 70.8544 52.6874 70.3064 50.3673 68.9984C48.0472 67.6905 46.1988 65.6887 45.0836 63.2766C43.9684 60.8644 43.643 58.1639 44.1534 55.5574C44.6637 52.9508 45.984 50.5701 47.9274 48.7523L42.4886 42.9883C40.4386 44.9049 38.805 47.2201 37.689 49.7907C36.5729 52.3614 35.9981 55.1327 36 57.9335C36 69.2803 45.2411 78.4779 56.6312 78.4779C59.2029 78.4807 61.7519 78.0002 64.1448 77.0616L58.0116 70.5648Z" fill="white"/>
<path d="M66.4174 57.2539H55.9199L70.7238 72.9237C72.6365 71.1442 74.1907 69.0174 75.303 66.6574L66.4174 57.2539Z" fill="white"/>
<path d="M86.9996 86.6177L79.3125 78.4741V51.8033L86.9996 48.5508V86.6177Z" fill="white"/>
<path d="M56.6315 45.3168C59.2303 45.3122 61.7673 46.1058 63.897 47.5894V47.5977C64.2725 47.8615 64.6339 48.1446 64.9799 48.4458C65.2609 48.6928 65.5254 48.9481 65.7816 49.2116L73.4192 45.992C72.5277 44.7478 71.4991 43.6071 70.3526 42.5912C70.3269 42.5645 70.2993 42.5397 70.2699 42.5171C70.2616 42.5089 70.2451 42.5007 70.2369 42.4842C70.1625 42.4183 70.0881 42.3607 70.0219 42.2948C69.9806 42.2619 69.9476 42.2289 69.9062 42.196C69.8318 42.1301 69.7492 42.0642 69.6748 42.0066L69.5343 41.8913L69.3111 41.7184C69.2615 41.6772 69.2036 41.6361 69.154 41.5949L68.9474 41.4384L68.7656 41.3067C68.6994 41.2573 68.6416 41.2161 68.5754 41.1749C68.5093 41.1338 68.4349 41.0761 68.3605 41.0267C68.3027 40.9938 68.2531 40.9526 68.1952 40.9197C68.1126 40.862 68.0299 40.8044 67.939 40.7468C67.8977 40.7221 67.8563 40.6891 67.815 40.6644C67.7158 40.5986 67.6084 40.5327 67.5092 40.4668L67.4348 40.4174L67.0628 40.1951C67.0606 40.1951 67.0585 40.1942 67.057 40.1927C67.0554 40.1911 67.0546 40.189 67.0546 40.1868C64.3569 38.6151 61.3357 37.6752 58.2196 37.4384C55.1035 37.2016 51.9741 37.674 49.0684 38.82L55.2676 45.3909C55.7057 45.3497 56.1603 45.3168 56.6315 45.3168Z" fill="white"/>
</svg>
