<svg width="96" height="96" viewBox="0 0 96 96" fill="none" xmlns="http://www.w3.org/2000/svg">
<path d="M8.30361 59.7373C7.91779 59.7373 7.56032 59.6494 7.24108 59.4763C7.08095 59.3881 6.93618 59.2818 6.81088 59.1609C6.68489 59.0392 6.57529 58.8999 6.48515 58.7463C6.39467 58.5916 6.32536 58.426 6.27961 58.2536C6.23318 58.0795 6.20996 57.8942 6.20996 57.7034C6.20996 57.5103 6.23284 57.3246 6.27859 57.1512C6.32434 56.9764 6.39399 56.8102 6.48515 56.6569C6.57529 56.5029 6.68523 56.3636 6.81156 56.2423C6.93755 56.1213 7.08334 56.0151 7.24483 55.9265C7.40531 55.8386 7.57841 55.7718 7.75937 55.7279C7.93896 55.6843 8.13084 55.6621 8.32956 55.6621C8.64299 55.6621 8.92364 55.7136 9.18757 55.8188C9.44023 55.9207 9.65908 56.073 9.83765 56.2716L9.48598 56.6095C9.33746 56.4555 9.16742 56.3377 8.98135 56.2597C8.79117 56.1799 8.57914 56.1397 8.35073 56.1397C8.2005 56.1397 8.05539 56.1568 7.9195 56.1902C7.78327 56.2235 7.6525 56.2746 7.53027 56.3418C7.28512 56.4767 7.09256 56.6651 6.95837 56.9022V56.9018C6.88941 57.0197 6.83717 57.1468 6.80302 57.2796C6.76888 57.4115 6.75181 57.5529 6.75181 57.6994C6.75181 57.8458 6.76922 57.9872 6.80302 58.1191C6.83717 58.2516 6.88941 58.3787 6.95837 58.4965C7.09631 58.7336 7.28888 58.922 7.53027 59.0569C7.6525 59.1241 7.78361 59.1748 7.9195 59.2082C8.05539 59.2416 8.2005 59.2586 8.35073 59.2586C8.57607 59.2586 8.78707 59.2177 8.97725 59.137C9.16196 59.0587 9.33268 58.9404 9.48564 58.7858L9.83765 59.1234C9.65908 59.3223 9.4392 59.4746 9.18381 59.5768C9.05441 59.63 8.91647 59.6705 8.77376 59.6967C8.63206 59.723 8.48149 59.7363 8.32614 59.7363C8.31829 59.7373 8.31078 59.7373 8.30361 59.7373ZM76.5322 59.6954H75.9654L75.527 58.6992L75.5226 58.689H75.5113H73.3719H73.3606L73.3562 58.6992L72.9182 59.695H72.362L74.1698 55.7081H74.7171L76.5322 59.6954ZM74.4433 56.2344L74.4276 56.2699L73.5597 58.2403L73.5491 58.2642H73.5754H75.3109H75.3372L75.3266 58.2403L74.459 56.2699L74.4433 56.2344ZM61.3034 59.6954H60.7684V56.1925V56.1755H60.7513H59.3876V55.7084H62.6845V56.1755H61.3208H61.3037V56.1925V59.6954H61.3034ZM48.9075 59.6954H48.3653V55.7084H48.9075V59.6954ZM23.9906 59.6954H23.4238L22.9858 58.6996L22.9813 58.6894H22.9701H20.83H20.8191L20.8146 58.6996L20.3766 59.6954H19.8204L21.6286 55.7084H22.1752L23.9906 59.6954ZM21.8987 56.2344L21.883 56.2699L21.0147 58.2403L21.0041 58.2642H21.0304H22.7666H22.7929L22.7823 58.2403L21.9144 56.2699L21.8987 56.2344ZM89.7172 59.692H86.9932V55.7084H87.5354V59.2113V59.2283H87.5525H89.7175V59.692H89.7172ZM34.9901 59.692H34.4482V55.705H36.0018C36.2606 55.7067 36.4944 55.7391 36.6976 55.8014C36.9001 55.8634 37.0769 55.9571 37.2237 56.0798C37.3705 56.2021 37.4822 56.3493 37.5559 56.5175C37.63 56.6862 37.6672 56.8804 37.6672 57.094C37.6672 57.3076 37.6297 57.5018 37.5559 57.6704C37.4822 57.8387 37.3705 57.9859 37.2237 58.1082C37.0773 58.2301 36.9001 58.3228 36.6976 58.3838C36.4951 58.4444 36.2609 58.4754 36.0018 58.4754H35.0072H34.9901V58.4924V59.692ZM34.9901 56.1755V56.1925V57.9947V58.0118H35.0072H35.984C36.1691 58.0118 36.334 57.992 36.4739 57.9532C36.6146 57.9143 36.7348 57.8547 36.8311 57.7763C36.9291 57.6983 37.0035 57.6006 37.0527 57.4864C37.1012 57.3733 37.1257 57.2411 37.1257 57.0936C37.1257 56.9461 37.1012 56.8139 37.0527 56.7008C37.0038 56.5867 36.9291 56.4889 36.8311 56.4106C36.7328 56.3322 36.6119 56.2729 36.4716 56.2341C36.3316 56.1953 36.1677 56.1755 35.9843 56.1755H35.0075H34.9901Z" fill="white"/>
<path d="M8.30442 59.7194C8.31159 59.7194 8.3191 59.7194 8.32593 59.7194H8.32627C8.4806 59.7194 8.63014 59.7061 8.77081 59.6802C8.91251 59.654 9.04942 59.6138 9.17746 59.5609H9.1778C9.42533 59.4618 9.63941 59.3153 9.81422 59.1242L9.48645 58.8094C9.33485 58.96 9.16619 59.0751 8.98421 59.1525C8.79164 59.2342 8.57859 59.2755 8.35085 59.2755C8.19926 59.2755 8.05313 59.2584 7.91553 59.2247C7.77793 59.191 7.6458 59.1395 7.5222 59.0721H7.52186C7.27774 58.9358 7.08313 58.745 6.94382 58.5052C6.87417 58.386 6.82125 58.2575 6.78676 58.1233C6.75228 57.9901 6.73487 57.8477 6.73487 57.6995C6.73487 57.5513 6.75228 57.4086 6.78676 57.2753C6.82159 57.1411 6.87417 57.0123 6.94382 56.8931C7.07971 56.6536 7.27433 56.4632 7.5222 56.3266C7.64546 56.2588 7.77793 56.2073 7.91553 56.1733C8.05279 56.1395 8.19926 56.1225 8.35085 56.1225C8.58132 56.1225 8.79574 56.1634 8.98796 56.2438C9.17131 56.3208 9.33895 56.4356 9.48645 56.5851L9.81422 56.2704C9.63941 56.0796 9.4267 55.9331 9.18155 55.8339C8.91968 55.7294 8.64107 55.6783 8.33003 55.6783C8.13268 55.6783 7.94216 55.7001 7.76394 55.7433C7.58469 55.7869 7.41295 55.853 7.2535 55.9402C7.09303 56.0281 6.9486 56.1334 6.82364 56.2533C6.69868 56.3736 6.58976 56.5116 6.5003 56.6642V56.6645C6.40983 56.8165 6.34086 56.9813 6.29545 57.1544C6.25038 57.3265 6.2275 57.5108 6.2275 57.7026C6.2275 57.892 6.25072 58.0756 6.29681 58.2487C6.34222 58.4193 6.41085 58.5835 6.50065 58.7369C6.5901 58.8891 6.69868 59.0274 6.82364 59.1477C6.94792 59.2676 7.09132 59.3729 7.25043 59.4604C7.56693 59.6325 7.92168 59.7194 8.30442 59.7194ZM76.5064 59.6775L74.7067 55.7246H74.1812L72.3887 59.6775H72.9074L73.3499 58.6714H75.534L75.5429 58.6919L75.9768 59.6778H76.5064V59.6775ZM74.4441 56.191L74.4755 56.2618L75.3643 58.28H73.5243L74.4441 56.191ZM61.2871 59.6775V56.1576H62.6679V55.7246H59.4052V56.1576H60.7859V59.6775H61.2871ZM48.8912 59.6775V55.7246H48.3831V59.6775H48.8912ZM23.9648 59.6775L22.1651 55.7246H21.6403L19.8475 59.6775H20.3661L20.8086 58.6714H22.9931L23.0019 58.6919L23.4356 59.6778H23.9648V59.6775ZM21.8995 56.191L22.8196 58.28H20.979L21.0001 58.2323L21.8995 56.191ZM89.7009 59.674V59.2445H87.5188V55.7246H87.0108V59.674H89.7009ZM34.9738 59.674V58.4572H36.0026C36.26 58.4572 36.4925 58.4265 36.6933 58.3662C36.8937 58.3059 37.0685 58.2143 37.2133 58.094C37.358 57.9734 37.4683 57.8283 37.5407 57.6624C37.6138 57.4958 37.6506 57.3043 37.6506 57.0927C37.6506 56.8812 37.6138 56.6897 37.5407 56.5231C37.468 56.3576 37.3577 56.2121 37.2133 56.0915C37.0682 55.9706 36.893 55.8779 36.6929 55.8166C36.4918 55.7549 36.2593 55.7225 36.0022 55.7208H34.4658V59.674H34.9738ZM34.9738 56.1576H35.9848C36.1695 56.1576 36.3351 56.1773 36.4765 56.2169C36.6192 56.2564 36.7421 56.317 36.8421 56.3967C36.9425 56.4768 37.0187 56.577 37.0688 56.6938C37.118 56.809 37.1433 56.9435 37.1433 57.0934C37.1433 57.2433 37.1184 57.3779 37.0688 57.4927C37.0187 57.6096 36.9425 57.7094 36.8425 57.7891C36.7445 57.8688 36.6223 57.9294 36.4792 57.969C36.3375 58.0081 36.1712 58.0282 35.9848 58.0282H34.9738V56.1576ZM8.30442 59.7534C7.90904 59.7534 7.55123 59.6625 7.2337 59.4904C6.91002 59.3119 6.65395 59.0663 6.47094 58.7542C6.28828 58.4425 6.19336 58.0916 6.19336 57.7029C6.19336 57.3135 6.28486 56.9595 6.47094 56.6475C6.65395 56.3354 6.91002 56.0901 7.23711 55.9109C7.56352 55.7324 7.92919 55.6445 8.33003 55.6445C8.64619 55.6445 8.93094 55.6973 9.19419 55.8026C9.45435 55.9075 9.67902 56.0656 9.86168 56.2721L9.48577 56.6332C9.18394 56.3136 8.80393 56.1562 8.3512 56.1562C8.0521 56.1562 7.78203 56.2227 7.53928 56.3562C7.29686 56.4897 7.10703 56.6751 6.97387 56.9101C6.83661 57.1449 6.76969 57.4082 6.76969 57.6992C6.76969 57.9901 6.83695 58.2531 6.97387 58.4878C7.11044 58.7225 7.30062 58.9086 7.53928 59.0421C7.78203 59.175 8.05244 59.2414 8.3512 59.2414C8.80052 59.2414 9.17643 59.0806 9.48577 58.7614L9.86168 59.1222C9.67902 59.3293 9.45401 59.487 9.19077 59.5923C8.92753 59.7006 8.63936 59.7531 8.32661 59.7531C8.3191 59.7534 8.31159 59.7534 8.30442 59.7534ZM76.5593 59.7115H75.955L75.5121 58.7055H73.3727L72.9302 59.7115H72.3361L74.1594 55.6905H74.7285L76.5593 59.7115ZM74.4441 56.2758L73.5762 58.2463H75.3117L74.4441 56.2758ZM61.3213 59.7115H60.7521V56.1917H59.3714V55.6905H62.7024V56.1917H61.3216V59.7115H61.3213ZM48.9253 59.7115H48.349V55.6905H48.9253V59.7115ZM24.0177 59.7115H23.4134L22.9709 58.7055H20.8308L20.3883 59.7115H19.7946L21.6185 55.6905H22.1873L24.0177 59.7115ZM21.8995 56.2758L21.0312 58.2463H22.7674L21.8995 56.2758ZM89.7351 59.7081H86.977V55.6905H87.5533V59.2104H89.7354V59.7081H89.7351ZM35.008 59.7081H34.432V55.6871H36.0026C36.526 55.6905 36.9367 55.8166 37.2355 56.0656C37.5342 56.3146 37.6851 56.6584 37.6851 57.0931C37.6851 57.5278 37.5342 57.8712 37.2355 58.1202C36.9367 58.3689 36.526 58.4912 36.0026 58.4912H35.008V59.7081ZM35.008 56.1917V57.9938H35.9848C36.3539 57.9938 36.6315 57.9165 36.821 57.7625C37.0142 57.6085 37.1091 57.384 37.1091 57.0931C37.1091 56.8022 37.0142 56.5776 36.821 56.4233C36.6277 56.2693 36.3501 56.192 35.9848 56.192H35.008V56.1917Z" fill="white"/>
<path d="M8.30361 59.7373C7.91779 59.7373 7.56032 59.6494 7.24108 59.4763C7.08095 59.3881 6.93618 59.2818 6.81088 59.1609C6.68489 59.0392 6.57529 58.8999 6.48515 58.7463C6.39467 58.5916 6.32536 58.426 6.27961 58.2536C6.23318 58.0795 6.20996 57.8942 6.20996 57.7034C6.20996 57.5103 6.23284 57.3246 6.27859 57.1512C6.32434 56.9764 6.39399 56.8102 6.48515 56.6569C6.57529 56.5029 6.68523 56.3636 6.81156 56.2423C6.93755 56.1213 7.08334 56.0151 7.24483 55.9265C7.40531 55.8386 7.57841 55.7718 7.75937 55.7279C7.93896 55.6843 8.13084 55.6621 8.32956 55.6621C8.64299 55.6621 8.92364 55.7136 9.18757 55.8188C9.44023 55.9207 9.65908 56.073 9.83765 56.2716L9.48598 56.6095C9.33746 56.4555 9.16742 56.3377 8.98135 56.2597C8.79117 56.1799 8.57914 56.1397 8.35073 56.1397C8.2005 56.1397 8.05539 56.1568 7.9195 56.1902C7.78327 56.2235 7.6525 56.2746 7.53027 56.3418C7.28512 56.4767 7.09256 56.6651 6.95837 56.9022V56.9018C6.88941 57.0197 6.83717 57.1468 6.80302 57.2796C6.76888 57.4115 6.75181 57.5529 6.75181 57.6994C6.75181 57.8458 6.76922 57.9872 6.80302 58.1191C6.83717 58.2516 6.88941 58.3787 6.95837 58.4965C7.09631 58.7336 7.28888 58.922 7.53027 59.0569C7.6525 59.1241 7.78361 59.1748 7.9195 59.2082C8.05539 59.2416 8.2005 59.2586 8.35073 59.2586C8.57607 59.2586 8.78707 59.2177 8.97725 59.137C9.16196 59.0587 9.33268 58.9404 9.48564 58.7858L9.83765 59.1234C9.65908 59.3223 9.4392 59.4746 9.18381 59.5768C9.05441 59.63 8.91647 59.6705 8.77376 59.6967C8.63206 59.723 8.48149 59.7363 8.32614 59.7363C8.31829 59.7373 8.31078 59.7373 8.30361 59.7373ZM76.5322 59.6954H75.9654L75.527 58.6992L75.5226 58.689H75.5113H73.3719H73.3606L73.3562 58.6992L72.9182 59.695H72.362L74.1698 55.7081H74.7171L76.5322 59.6954ZM74.4433 56.2344L74.4276 56.2699L73.5597 58.2403L73.5491 58.2642H73.5754H75.3109H75.3372L75.3266 58.2403L74.459 56.2699L74.4433 56.2344ZM61.3034 59.6954H60.7684V56.1925V56.1755H60.7513H59.3876V55.7084H62.6845V56.1755H61.3208H61.3037V56.1925V59.6954H61.3034ZM48.9075 59.6954H48.3653V55.7084H48.9075V59.6954ZM23.9906 59.6954H23.4238L22.9858 58.6996L22.9813 58.6894H22.9701H20.83H20.8191L20.8146 58.6996L20.3766 59.6954H19.8204L21.6286 55.7084H22.1752L23.9906 59.6954ZM21.8987 56.2344L21.883 56.2699L21.0147 58.2403L21.0041 58.2642H21.0304H22.7666H22.7929L22.7823 58.2403L21.9144 56.2699L21.8987 56.2344ZM89.7172 59.692H86.9932V55.7084H87.5354V59.2113V59.2283H87.5525H89.7175V59.692H89.7172ZM34.9901 59.692H34.4482V55.705H36.0018C36.2606 55.7067 36.4944 55.7391 36.6976 55.8014C36.9001 55.8634 37.0769 55.9571 37.2237 56.0798C37.3705 56.2021 37.4822 56.3493 37.5559 56.5175C37.63 56.6862 37.6672 56.8804 37.6672 57.094C37.6672 57.3076 37.6297 57.5018 37.5559 57.6704C37.4822 57.8387 37.3705 57.9859 37.2237 58.1082C37.0773 58.2301 36.9001 58.3228 36.6976 58.3838C36.4951 58.4444 36.2609 58.4754 36.0018 58.4754H35.0072H34.9901V58.4924V59.692ZM34.9901 56.1755V56.1925V57.9947V58.0118H35.0072H35.984C36.1691 58.0118 36.334 57.992 36.4739 57.9532C36.6146 57.9143 36.7348 57.8547 36.8311 57.7763C36.9291 57.6983 37.0035 57.6006 37.0527 57.4864C37.1012 57.3733 37.1257 57.2411 37.1257 57.0936C37.1257 56.9461 37.1012 56.8139 37.0527 56.7008C37.0038 56.5867 36.9291 56.4889 36.8311 56.4106C36.7328 56.3322 36.6119 56.2729 36.4716 56.2341C36.3316 56.1953 36.1677 56.1755 35.9843 56.1755H35.0075H34.9901Z" fill="white"/>
<path d="M8.30442 59.7194C8.31159 59.7194 8.3191 59.7194 8.32593 59.7194H8.32627C8.4806 59.7194 8.63014 59.7061 8.77081 59.6802C8.91251 59.654 9.04942 59.6138 9.17746 59.5609H9.1778C9.42533 59.4618 9.63941 59.3153 9.81422 59.1242L9.48645 58.8094C9.33485 58.96 9.16619 59.0751 8.98421 59.1525C8.79164 59.2342 8.57859 59.2755 8.35085 59.2755C8.19926 59.2755 8.05313 59.2584 7.91553 59.2247C7.77793 59.191 7.6458 59.1395 7.5222 59.0721H7.52186C7.27774 58.9358 7.08313 58.745 6.94382 58.5052C6.87417 58.386 6.82125 58.2575 6.78676 58.1233C6.75228 57.9901 6.73487 57.8477 6.73487 57.6995C6.73487 57.5513 6.75228 57.4086 6.78676 57.2753C6.82159 57.1411 6.87417 57.0123 6.94382 56.8931C7.07971 56.6536 7.27433 56.4632 7.5222 56.3266C7.64546 56.2588 7.77793 56.2073 7.91553 56.1733C8.05279 56.1395 8.19926 56.1225 8.35085 56.1225C8.58132 56.1225 8.79574 56.1634 8.98796 56.2438C9.17131 56.3208 9.33895 56.4356 9.48645 56.5851L9.81422 56.2704C9.63941 56.0796 9.4267 55.9331 9.18155 55.8339C8.91968 55.7294 8.64107 55.6783 8.33003 55.6783C8.13268 55.6783 7.94216 55.7001 7.76394 55.7433C7.58469 55.7869 7.41295 55.853 7.25384 55.9402C7.09337 56.0281 6.94894 56.1334 6.82398 56.2533C6.69902 56.3736 6.5901 56.5116 6.50065 56.6642V56.6645C6.41017 56.8165 6.3412 56.9813 6.29579 57.1544C6.25072 57.3265 6.22784 57.5108 6.22784 57.7026C6.22784 57.892 6.25106 58.0756 6.29715 58.2487C6.34256 58.4193 6.41119 58.5835 6.50099 58.7369C6.59044 58.8891 6.69902 59.0274 6.82398 59.1477C6.94826 59.2676 7.09166 59.3729 7.25077 59.4604C7.56693 59.6325 7.92168 59.7194 8.30442 59.7194ZM76.5064 59.6775L74.7067 55.7246H74.1812L72.3887 59.6775H72.9074L73.3499 58.6714H75.534L75.5429 58.6919L75.9768 59.6778H76.5064V59.6775ZM74.4441 56.191L74.4755 56.2618L75.3643 58.28H73.5243L74.4441 56.191ZM61.2871 59.6775V56.1576H62.6679V55.7246H59.4052V56.1576H60.7859V59.6775H61.2871ZM48.8912 59.6775V55.7246H48.3831V59.6775H48.8912ZM23.9648 59.6775L22.1651 55.7246H21.6403L19.8475 59.6775H20.3661L20.8086 58.6714H22.9931L23.0019 58.6919L23.4356 59.6778H23.9648V59.6775ZM21.8995 56.191L22.8196 58.28H20.979L21.0001 58.2323L21.8995 56.191ZM89.7009 59.674V59.2445H87.5188V55.7246H87.0108V59.674H89.7009ZM34.9738 59.674V58.4572H36.0026C36.26 58.4572 36.4925 58.4265 36.6933 58.3662C36.8937 58.3059 37.0685 58.2143 37.2133 58.094C37.358 57.9734 37.4683 57.8283 37.5407 57.6624C37.6138 57.4958 37.6506 57.3043 37.6506 57.0927C37.6506 56.8812 37.6138 56.6897 37.5407 56.5231C37.468 56.3576 37.3577 56.2121 37.2133 56.0915C37.0682 55.9706 36.893 55.8779 36.6929 55.8166C36.4918 55.7549 36.2593 55.7225 36.0022 55.7208H34.4658V59.674H34.9738ZM34.9738 56.1576H35.9848C36.1695 56.1576 36.3351 56.1773 36.4765 56.2169C36.6192 56.2564 36.7421 56.317 36.8421 56.3967C36.9425 56.4768 37.0187 56.577 37.0688 56.6938C37.118 56.809 37.1433 56.9435 37.1433 57.0934C37.1433 57.2433 37.1184 57.3779 37.0688 57.4927C37.0187 57.6096 36.9425 57.7094 36.8425 57.7891C36.7445 57.8688 36.6223 57.9294 36.4792 57.969C36.3375 58.0081 36.1712 58.0282 35.9848 58.0282H34.9738V56.1576ZM8.30442 59.7534C7.90904 59.7534 7.55123 59.6625 7.2337 59.4904C6.91002 59.3119 6.65395 59.0663 6.47094 58.7542C6.28828 58.4425 6.19336 58.0916 6.19336 57.7029C6.19336 57.3135 6.28486 56.9595 6.47094 56.6475C6.65395 56.3354 6.91002 56.0901 7.23711 55.9109C7.56352 55.7324 7.92919 55.6445 8.33003 55.6445C8.64619 55.6445 8.93094 55.6973 9.19419 55.8026C9.45435 55.9075 9.67902 56.0656 9.86168 56.2721L9.48577 56.6332C9.18394 56.3136 8.80393 56.1562 8.3512 56.1562C8.0521 56.1562 7.78203 56.2227 7.53928 56.3562C7.29686 56.4897 7.10703 56.6751 6.97387 56.9101C6.83661 57.1449 6.76969 57.4082 6.76969 57.6992C6.76969 57.9901 6.83695 58.2531 6.97387 58.4878C7.11044 58.7225 7.30062 58.9086 7.53928 59.0421C7.78203 59.175 8.05244 59.2414 8.3512 59.2414C8.80052 59.2414 9.17643 59.0806 9.48577 58.7614L9.86168 59.1222C9.67902 59.3293 9.45401 59.487 9.19077 59.5923C8.92753 59.7006 8.63936 59.7531 8.32661 59.7531C8.3191 59.7534 8.31159 59.7534 8.30442 59.7534ZM76.5593 59.7115H75.955L75.5121 58.7055H73.3727L72.9302 59.7115H72.3361L74.1594 55.6905H74.7285L76.5593 59.7115ZM74.4441 56.2758L73.5762 58.2463H75.3117L74.4441 56.2758ZM61.3213 59.7115H60.7521V56.1917H59.3714V55.6905H62.7024V56.1917H61.3216V59.7115H61.3213ZM48.9253 59.7115H48.349V55.6905H48.9253V59.7115ZM24.0177 59.7115H23.4134L22.9709 58.7055H20.8308L20.3883 59.7115H19.7946L21.6185 55.6905H22.1873L24.0177 59.7115ZM21.8995 56.2758L21.0312 58.2463H22.7674L21.8995 56.2758ZM89.7351 59.7081H86.977V55.6905H87.5533V59.2104H89.7354V59.7081H89.7351ZM35.008 59.7081H34.432V55.6871H36.0026C36.526 55.6905 36.9367 55.8166 37.2355 56.0656C37.5342 56.3146 37.6851 56.6584 37.6851 57.0931C37.6851 57.5278 37.5342 57.8712 37.2355 58.1202C36.9367 58.3689 36.526 58.4912 36.0026 58.4912H35.008V59.7081ZM35.008 56.1917V57.9938H35.9848C36.3539 57.9938 36.6315 57.9165 36.821 57.7625C37.0142 57.6085 37.1091 57.384 37.1091 57.0931C37.1091 56.8022 37.0142 56.5776 36.821 56.4233C36.6277 56.2693 36.3501 56.192 35.9848 56.192H35.008V56.1917Z" fill="white"/>
<path d="M8.30361 59.7373C7.91779 59.7373 7.56032 59.6494 7.24108 59.4763C7.08095 59.3881 6.93618 59.2818 6.81088 59.1609C6.68489 59.0392 6.57529 58.8999 6.48515 58.7463C6.39467 58.5916 6.32536 58.426 6.27961 58.2536C6.23318 58.0795 6.20996 57.8942 6.20996 57.7034C6.20996 57.5103 6.23284 57.3246 6.27859 57.1512C6.32434 56.9764 6.39399 56.8102 6.48515 56.6569C6.57529 56.5029 6.68523 56.3636 6.81156 56.2423C6.93755 56.1213 7.08334 56.0151 7.24483 55.9265C7.40531 55.8386 7.57841 55.7718 7.75937 55.7279C7.93896 55.6843 8.13084 55.6621 8.32956 55.6621C8.64299 55.6621 8.92364 55.7136 9.18757 55.8188C9.44023 55.9207 9.65908 56.073 9.83765 56.2716L9.48598 56.6095C9.33746 56.4555 9.16742 56.3377 8.98135 56.2597C8.79117 56.1799 8.57914 56.1397 8.35073 56.1397C8.2005 56.1397 8.05539 56.1568 7.9195 56.1902C7.78327 56.2235 7.6525 56.2746 7.53027 56.3418C7.28512 56.4767 7.09256 56.6651 6.95837 56.9022V56.9018C6.88941 57.0197 6.83717 57.1468 6.80302 57.2796C6.76888 57.4115 6.75181 57.5529 6.75181 57.6994C6.75181 57.8458 6.76922 57.9872 6.80302 58.1191C6.83717 58.2516 6.88941 58.3787 6.95837 58.4965C7.09631 58.7336 7.28888 58.922 7.53027 59.0569C7.6525 59.1241 7.78361 59.1748 7.9195 59.2082C8.05539 59.2416 8.2005 59.2586 8.35073 59.2586C8.57607 59.2586 8.78707 59.2177 8.97725 59.137C9.16196 59.0587 9.33268 58.9404 9.48564 58.7858L9.83765 59.1234C9.65908 59.3223 9.4392 59.4746 9.18381 59.5768C9.05441 59.63 8.91647 59.6705 8.77376 59.6967C8.63206 59.723 8.48149 59.7363 8.32614 59.7363C8.31829 59.7373 8.31078 59.7373 8.30361 59.7373ZM76.5322 59.6954H75.9654L75.527 58.6992L75.5226 58.689H75.5113H73.3719H73.3606L73.3562 58.6992L72.9182 59.695H72.362L74.1698 55.7081H74.7171L76.5322 59.6954ZM74.4433 56.2344L74.4276 56.2699L73.5597 58.2403L73.5491 58.2642H73.5754H75.3109H75.3372L75.3266 58.2403L74.459 56.2699L74.4433 56.2344ZM61.3034 59.6954H60.7684V56.1925V56.1755H60.7513H59.3876V55.7084H62.6845V56.1755H61.3208H61.3037V56.1925V59.6954H61.3034ZM48.9075 59.6954H48.3653V55.7084H48.9075V59.6954ZM23.9906 59.6954H23.4238L22.9858 58.6996L22.9813 58.6894H22.9701H20.83H20.8191L20.8146 58.6996L20.3766 59.6954H19.8204L21.6286 55.7084H22.1752L23.9906 59.6954ZM21.8987 56.2344L21.883 56.2699L21.0147 58.2403L21.0041 58.2642H21.0304H22.7666H22.7929L22.7823 58.2403L21.9144 56.2699L21.8987 56.2344ZM89.7172 59.692H86.9932V55.7084H87.5354V59.2113V59.2283H87.5525H89.7175V59.692H89.7172ZM34.9901 59.692H34.4482V55.705H36.0018C36.2606 55.7067 36.4944 55.7391 36.6976 55.8014C36.9001 55.8634 37.0769 55.9571 37.2237 56.0798C37.3705 56.2021 37.4822 56.3493 37.5559 56.5175C37.63 56.6862 37.6672 56.8804 37.6672 57.094C37.6672 57.3076 37.6297 57.5018 37.5559 57.6704C37.4822 57.8387 37.3705 57.9859 37.2237 58.1082C37.0773 58.2301 36.9001 58.3228 36.6976 58.3838C36.4951 58.4444 36.2609 58.4754 36.0018 58.4754H35.0072H34.9901V58.4924V59.692ZM34.9901 56.1755V56.1925V57.9947V58.0118H35.0072H35.984C36.1691 58.0118 36.334 57.992 36.4739 57.9532C36.6146 57.9143 36.7348 57.8547 36.8311 57.7763C36.9291 57.6983 37.0035 57.6006 37.0527 57.4864C37.1012 57.3733 37.1257 57.2411 37.1257 57.0936C37.1257 56.9461 37.1012 56.8139 37.0527 56.7008C37.0038 56.5867 36.9291 56.4889 36.8311 56.4106C36.7328 56.3322 36.6119 56.2729 36.4716 56.2341C36.3316 56.1953 36.1677 56.1755 35.9843 56.1755H35.0075H34.9901Z" fill="white"/>
<path d="M8.30442 59.7194C8.31159 59.7194 8.3191 59.7194 8.32593 59.7194H8.32627C8.4806 59.7194 8.63014 59.7061 8.77081 59.6802C8.91251 59.654 9.04942 59.6138 9.17746 59.5609H9.1778C9.42533 59.4618 9.63941 59.3153 9.81422 59.1242L9.48645 58.8094C9.33485 58.96 9.16619 59.0751 8.98421 59.1525C8.79164 59.2342 8.57859 59.2755 8.35085 59.2755C8.19926 59.2755 8.05313 59.2584 7.91553 59.2247C7.77793 59.191 7.6458 59.1395 7.5222 59.0721H7.52186C7.27774 58.9358 7.08313 58.745 6.94382 58.5052C6.87417 58.386 6.82125 58.2575 6.78676 58.1233C6.75228 57.9901 6.73487 57.8477 6.73487 57.6995C6.73487 57.5513 6.75228 57.4086 6.78676 57.2753C6.82159 57.1411 6.87417 57.0123 6.94382 56.8931C7.07971 56.6536 7.27433 56.4632 7.5222 56.3266C7.64546 56.2588 7.77793 56.2073 7.91553 56.1733C8.05279 56.1395 8.19926 56.1225 8.35085 56.1225C8.58132 56.1225 8.79574 56.1634 8.98796 56.2438C9.17131 56.3208 9.33895 56.4356 9.48645 56.5851L9.81422 56.2704C9.63941 56.0796 9.4267 55.9331 9.18155 55.8339C8.91968 55.7294 8.64107 55.6783 8.33003 55.6783C8.13268 55.6783 7.94216 55.7001 7.76394 55.7433C7.58469 55.7869 7.41295 55.853 7.2535 55.9402C7.09303 56.0281 6.9486 56.1334 6.82364 56.2533C6.69868 56.3736 6.58976 56.5116 6.5003 56.6642V56.6645C6.40983 56.8165 6.34086 56.9813 6.29545 57.1544C6.25038 57.3265 6.2275 57.5108 6.2275 57.7026C6.2275 57.892 6.25072 58.0756 6.29681 58.2487C6.34222 58.4193 6.41085 58.5835 6.50065 58.7369C6.5901 58.8891 6.69868 59.0274 6.82364 59.1477C6.94792 59.2676 7.09132 59.3729 7.25043 59.4604C7.56693 59.6325 7.92168 59.7194 8.30442 59.7194ZM76.5064 59.6775L74.7067 55.7246H74.1812L72.3887 59.6775H72.9074L73.3499 58.6714H75.534L75.5429 58.6919L75.9768 59.6778H76.5064V59.6775ZM74.4441 56.191L74.4755 56.2618L75.3643 58.28H73.5243L74.4441 56.191ZM61.2871 59.6775V56.1576H62.6679V55.7246H59.4052V56.1576H60.7859V59.6775H61.2871ZM48.8912 59.6775V55.7246H48.3831V59.6775H48.8912ZM23.9648 59.6775L22.1651 55.7246H21.6403L19.8475 59.6775H20.3661L20.8086 58.6714H22.9931L23.0019 58.6919L23.4356 59.6778H23.9648V59.6775ZM21.8995 56.191L22.8196 58.28H20.979L21.0001 58.2323L21.8995 56.191ZM89.7009 59.674V59.2445H87.5188V55.7246H87.0108V59.674H89.7009ZM34.9738 59.674V58.4572H36.0026C36.26 58.4572 36.4925 58.4265 36.6933 58.3662C36.8937 58.3059 37.0685 58.2143 37.2133 58.094C37.358 57.9734 37.4683 57.8283 37.5407 57.6624C37.6138 57.4958 37.6506 57.3043 37.6506 57.0927C37.6506 56.8812 37.6138 56.6897 37.5407 56.5231C37.468 56.3576 37.3577 56.2121 37.2133 56.0915C37.0682 55.9706 36.893 55.8779 36.6929 55.8166C36.4918 55.7549 36.2593 55.7225 36.0022 55.7208H34.4658V59.674H34.9738ZM34.9738 56.1576H35.9848C36.1695 56.1576 36.3351 56.1773 36.4765 56.2169C36.6192 56.2564 36.7421 56.317 36.8421 56.3967C36.9425 56.4768 37.0187 56.577 37.0688 56.6938C37.118 56.809 37.1433 56.9435 37.1433 57.0934C37.1433 57.2433 37.1184 57.3779 37.0688 57.4927C37.0187 57.6096 36.9425 57.7094 36.8425 57.7891C36.7445 57.8688 36.6223 57.9294 36.4792 57.969C36.3375 58.0081 36.1712 58.0282 35.9848 58.0282H34.9738V56.1576ZM8.30442 59.7534C7.90904 59.7534 7.55123 59.6625 7.2337 59.4904C6.91002 59.3119 6.65395 59.0663 6.47094 58.7542C6.28828 58.4425 6.19336 58.0916 6.19336 57.7029C6.19336 57.3135 6.28486 56.9595 6.47094 56.6475C6.65395 56.3354 6.91002 56.0901 7.23711 55.9109C7.56352 55.7324 7.92919 55.6445 8.33003 55.6445C8.64619 55.6445 8.93094 55.6973 9.19419 55.8026C9.45435 55.9075 9.67902 56.0656 9.86168 56.2721L9.48577 56.6332C9.18394 56.3136 8.80393 56.1562 8.3512 56.1562C8.0521 56.1562 7.78203 56.2227 7.53928 56.3562C7.29686 56.4897 7.10703 56.6751 6.97387 56.9101C6.83661 57.1449 6.76969 57.4082 6.76969 57.6992C6.76969 57.9901 6.83695 58.2531 6.97387 58.4878C7.11044 58.7225 7.30062 58.9086 7.53928 59.0421C7.78203 59.175 8.05244 59.2414 8.3512 59.2414C8.80052 59.2414 9.17643 59.0806 9.48577 58.7614L9.86168 59.1222C9.67902 59.3293 9.45401 59.487 9.19077 59.5923C8.92753 59.7006 8.63936 59.7531 8.32661 59.7531C8.3191 59.7534 8.31159 59.7534 8.30442 59.7534ZM76.5593 59.7115H75.955L75.5121 58.7055H73.3727L72.9302 59.7115H72.3361L74.1594 55.6905H74.7285L76.5593 59.7115ZM74.4441 56.2758L73.5762 58.2463H75.3117L74.4441 56.2758ZM61.3213 59.7115H60.7521V56.1917H59.3714V55.6905H62.7024V56.1917H61.3216V59.7115H61.3213ZM48.9253 59.7115H48.349V55.6905H48.9253V59.7115ZM24.0177 59.7115H23.4134L22.9709 58.7055H20.8308L20.3883 59.7115H19.7946L21.6185 55.6905H22.1873L24.0177 59.7115ZM21.8995 56.2758L21.0312 58.2463H22.7674L21.8995 56.2758ZM89.7351 59.7081H86.977V55.6905H87.5533V59.2104H89.7354V59.7081H89.7351ZM35.008 59.7081H34.432V55.6871H36.0026C36.526 55.6905 36.9367 55.8166 37.2355 56.0656C37.5342 56.3146 37.6851 56.6584 37.6851 57.0931C37.6851 57.5278 37.5342 57.8712 37.2355 58.1202C36.9367 58.3689 36.526 58.4912 36.0026 58.4912H35.008V59.7081ZM35.008 56.1917V57.9938H35.9848C36.3539 57.9938 36.6315 57.9165 36.821 57.7625C37.0142 57.6085 37.1091 57.384 37.1091 57.0931C37.1091 56.8022 37.0142 56.5776 36.821 56.4233C36.6277 56.2693 36.3501 56.192 35.9848 56.192H35.008V56.1917Z" fill="white"/>
<path d="M36.1821 51.006V43.2897H38.6732L39.397 43.3002C40.732 43.3915 43.6273 43.8085 45.6793 45.6949C47.141 47.0412 47.8822 48.8257 47.886 51.0026H44.7592C44.7592 49.6215 44.3447 48.5695 43.4908 47.7842C42.2541 46.6518 40.3848 46.3329 39.3974 46.2416V51.006H36.1821ZM13.7024 50.9498C10.7299 50.9498 8.40032 49.677 7.14966 47.3635C6.25751 45.7156 6.20459 44.1168 6.20117 43.9383V36.5654H9.32491V43.9172C9.34233 44.5764 9.65166 48.0224 13.7027 48.0189H18.5551V50.9498H13.7024ZM30.2969 50.9358V43.9349H30.3003C30.2334 42.7323 29.8261 41.7999 29.0531 41.095C27.3773 39.5593 24.5138 39.5664 24.4506 39.5664V50.9358H21.2357V36.5831H24.4506C25.0372 36.5797 28.7864 36.6707 31.2915 38.96C32.6828 40.2324 33.5121 41.9294 33.5121 43.9349V50.9358H30.2969ZM54.4711 50.9218H50.1043C50.1043 50.8271 50.1247 48.5521 51.4635 46.3081C52.7213 44.201 55.381 41.6909 60.9184 41.6909V44.6217C56.4876 44.6217 54.6152 46.6412 53.8211 48.4008H60.9187V50.9212L54.4711 50.9218ZM63.3347 50.9218C63.3347 47.2654 65.26 45.2285 67.4137 44.1802L68.3974 46.9918C67.3502 47.6544 66.4581 48.8287 66.4581 50.9218H63.3347ZM83.5903 50.9184C80.9623 50.9184 78.8332 48.92 78.8332 46.4556V36.5654H82.0692V45.7787C82.0692 47.1914 83.2919 48.3378 84.7993 48.3378H89.806V50.9181L83.5903 50.9184ZM73.2785 50.9075L68.2751 36.5654H71.8625L76.7853 50.9075H73.2785ZM53.1181 39.0827H49.9031V36.5586H60.9498V39.0827H53.1181Z" fill="white"/>
<path d="M36.1821 51.006V43.2897H38.6732L39.397 43.3002C40.732 43.3915 43.6273 43.8085 45.6793 45.6949C47.141 47.0412 47.8822 48.8257 47.886 51.0026H44.7592C44.7592 49.6215 44.3447 48.5695 43.4908 47.7842C42.2541 46.6518 40.3848 46.3329 39.3974 46.2416V51.006H36.1821ZM13.7024 50.9498C10.7299 50.9498 8.40032 49.677 7.14966 47.3635C6.25751 45.7156 6.20459 44.1168 6.20117 43.9383V36.5654H9.32491V43.9172C9.34233 44.5764 9.65166 48.0224 13.7027 48.0189H18.5551V50.9498H13.7024ZM30.2969 50.9358V43.9349H30.3003C30.2334 42.7323 29.8261 41.7999 29.0531 41.095C27.3773 39.5593 24.5138 39.5664 24.4506 39.5664V50.9358H21.2357V36.5831H24.4506C25.0372 36.5797 28.7864 36.6707 31.2915 38.96C32.6828 40.2324 33.5121 41.9294 33.5121 43.9349V50.9358H30.2969ZM54.4711 50.9218H50.1043C50.1043 50.8271 50.1247 48.5521 51.4635 46.3081C52.7213 44.201 55.381 41.6909 60.9184 41.6909V44.6217C56.4876 44.6217 54.6152 46.6412 53.8211 48.4008H60.9187V50.9212L54.4711 50.9218ZM63.3347 50.9218C63.3347 47.2654 65.26 45.2285 67.4137 44.1802L68.3974 46.9918C67.3502 47.6544 66.4581 48.8287 66.4581 50.9218H63.3347ZM83.5903 50.9184C80.9623 50.9184 78.8332 48.92 78.8332 46.4556V36.5654H82.0692V45.7787C82.0692 47.1914 83.2919 48.3378 84.7993 48.3378H89.806V50.9181L83.5903 50.9184ZM73.2785 50.9075L68.2751 36.5654H71.8625L76.7853 50.9075H73.2785ZM53.1181 39.0827H49.9031V36.5586H60.9498V39.0827H53.1181Z" fill="white"/>
<path d="M15.4658 36.5684V44.2847H18.6807V36.5684H15.4658Z" fill="white"/>
<path d="M15.4697 36.5625H18.6792L18.406 36.8691H15.777L15.4697 36.5625Z" fill="white"/>
<path opacity="0.77" d="M15.4697 44.2929H18.6792L18.406 43.9863H15.777L15.4697 44.2929Z" fill="white"/>
<path opacity="0.597" d="M15.4697 44.2754V36.5625L15.777 36.835V43.9688L15.4697 44.2754Z" fill="white"/>
<path d="M18.6803 44.2754V36.5625L18.373 36.835V43.9688L18.6803 44.2754Z" fill="white"/>
<path d="M40.303 39.1451H41.1078C43.9502 39.1451 44.6529 41.7499 44.6529 43.2993H47.8678V43.2782C47.8678 40.2598 46.3815 36.6523 42.0249 36.6523H36.1816V39.1451H40.303Z" fill="white"/>
<path d="M36.1816 39.1492V36.6523L36.4889 36.9671V38.8419L36.1816 39.1492Z" fill="white"/>
<path opacity="0.658" d="M36.1816 36.6523H42.0245C46.3812 36.6523 47.8674 40.2598 47.8674 43.2782V43.2993L47.5554 42.9927C47.4632 40.1453 45.9776 36.959 42.0242 36.959H36.4886L36.1816 36.6523Z" fill="white"/>
<path opacity="0.77" d="M44.9488 42.998H47.5532L47.8653 43.2835V43.3047H44.6504" fill="white"/>
<path opacity="0.386" d="M36.484 38.8516H41.1029C43.9634 38.8516 44.8511 41.3324 44.9464 43.0058L44.648 43.3124C44.648 41.763 43.9453 39.1582 41.1029 39.1582H36.1768L36.484 38.8516Z" fill="white"/>
</svg>
