<svg width="124" height="124" viewBox="0 0 124 124" fill="none" xmlns="http://www.w3.org/2000/svg">
<path d="M56.5567 83.4169L55.692 81.9507L54.8272 80.4845L53.9648 79.0183L53.1001 77.5545L52.2353 76.0883L51.3706 74.6245L50.5082 73.1583L49.6435 71.6921L48.7787 70.2259L47.9093 68.7598L47.773 68.5267C47.5329 68.58 47.2896 68.6174 47.0445 68.6386C46.7571 68.6649 46.468 68.6704 46.1798 68.6549C45.8888 68.6366 45.5997 68.596 45.315 68.5337C45.0208 68.4673 44.7324 68.3777 44.4526 68.2656C44.2381 68.1831 44.0292 68.0865 43.8276 67.9766L43.5926 68.177L42.7278 68.8996L41.8654 69.6222L41.0007 70.3448L40.136 71.0674L39.4498 71.6408C39.7447 72.7572 39.6815 73.937 39.2689 75.0161C39.2125 75.1699 39.1467 75.3191 39.0762 75.466L39.2689 75.5755L40.1336 76.0603L40.9983 76.5452L41.8631 77.03L42.7396 77.5149L43.6043 77.9974L44.4691 78.4822L45.3315 78.9671L46.1962 79.4519L47.061 79.9367L47.9257 80.4216L48.7881 80.9041L49.6435 81.3843L50.5082 81.8691L51.3706 82.354L52.2353 82.8388L53.1001 83.3236L53.9648 83.8085L54.8272 84.291L55.692 84.7758L56.5567 85.2607L57.0267 85.5264C57.1489 85.3656 57.2805 85.2164 57.4168 85.0602L57.4873 84.9856L57.4168 84.8691L56.5567 83.4169Z" fill="white"/>
<path d="M40.1396 68.0365L41.0044 67.3139L41.8691 66.5913L42.0501 66.4398C41.9843 66.3536 41.9279 66.2627 41.8691 66.1741C41.4239 65.5096 41.1289 64.7573 41.0044 63.969C40.9152 63.3998 40.9152 62.8203 41.0044 62.2511C41.1283 61.4626 41.4233 60.7102 41.8691 60.046C42.0243 59.8119 42.1971 59.5899 42.3861 59.3817L41.8691 58.5029L41.0044 57.0367L40.1396 55.5705L39.2749 54.116L38.4125 52.6498L37.5478 51.1837L37.1389 50.4844C36.9861 50.5007 36.8358 50.51 36.683 50.5147H36.5138C36.3423 50.5147 36.1731 50.5147 36.0039 50.4914V67.8524C36.2368 67.9402 36.4636 68.043 36.683 68.1601C36.9885 68.3234 37.278 68.5146 37.5478 68.7312C37.8455 68.9678 38.1179 69.2342 38.3608 69.526L38.4125 69.4817L39.2749 68.7615L40.1396 68.0365Z" fill="white"/>
<path d="M86.7996 50.8748C86.5049 50.8097 86.2157 50.7216 85.9349 50.6114C85.895 50.5951 85.8527 50.5811 85.8127 50.5625L85.0702 51.8212L84.2078 53.2874L83.343 54.7536L82.4783 56.2104L81.6135 57.6766L80.7511 59.1428L80.6172 59.3759C80.6642 59.4272 80.7065 59.4808 80.7511 59.5344C81.1062 59.951 81.3968 60.4176 81.6135 60.919C81.9117 61.6095 82.0655 62.353 82.0655 63.1043C82.0655 63.8555 81.9117 64.599 81.6135 65.2895C81.4395 65.6954 81.2178 66.0796 80.9532 66.434L81.6135 66.9865L82.4783 67.7091L83.343 68.4317L84.2078 69.1543L84.8939 69.7277C84.9503 69.6671 85.0114 69.6088 85.0702 69.5529C85.3347 69.2972 85.6244 69.0683 85.9349 68.8699C86.2091 68.6941 86.4985 68.5427 86.7996 68.4177L86.9994 68.3361V50.9121L86.7996 50.8748Z" fill="white"/>
<path d="M81.6156 47.4016L80.7532 47.6347L79.8884 47.8678L79.0237 48.1009L78.1613 48.334L77.2966 48.567L76.4318 48.8001L75.5671 49.0332L74.7047 49.2663L73.8399 49.4994L72.9752 49.7325L72.1128 49.9656L71.248 50.1987L70.3833 50.4318L69.5186 50.6649L68.6562 50.898L67.7914 51.1311L67.0865 51.3199C67.0865 51.4271 67.0865 51.5367 67.0865 51.6463C67.0868 52.1182 67.026 52.5882 66.9055 53.0448C66.7977 53.4688 66.6399 53.8788 66.4355 54.2663L66.9055 54.6672L67.7703 55.3898L68.635 56.1124L69.4974 56.835L70.3622 57.5576L71.2269 58.2802L72.0916 59.0028L72.383 59.2359C72.5613 59.05 72.7521 58.8763 72.954 58.7161C73.2247 58.5027 73.5141 58.314 73.8188 58.152C74.1032 58.0248 74.398 57.9219 74.7 57.8443C74.9813 57.7514 75.2697 57.6813 75.5624 57.6345C75.8482 57.5872 76.1374 57.563 76.4271 57.5622C76.7165 57.5591 77.0057 57.5794 77.2919 57.6228C77.5849 57.6661 77.8741 57.7324 78.1566 57.821C78.3422 57.8816 78.5255 57.9445 78.7065 58.0238L79.019 57.4923L79.8837 56.0261L80.7485 54.5623L81.6109 53.0961L82.4756 51.6299L83.3404 50.1638L83.8832 49.2314C83.6853 49.0208 83.5039 48.7956 83.3404 48.5577C83.0367 48.1137 82.7993 47.6285 82.6354 47.1172L82.478 47.1615L81.6156 47.4016Z" fill="white"/>
<path d="M64.3351 46.8874C64.643 47.0666 64.9326 47.275 65.1999 47.5097C65.5235 47.7924 65.8136 48.1107 66.0646 48.4584C66.2165 48.6689 66.3539 48.8893 66.4759 49.1181L66.927 48.9946L67.7918 48.7615L68.6565 48.5284L69.5189 48.2953L70.3837 48.0622L71.2484 47.8291L72.1131 47.596L72.9755 47.3629L73.8403 47.1298L74.705 46.8967L75.5674 46.6636L76.4322 46.4305L77.2969 46.1974L78.1617 45.9643L79.0241 45.7312L79.8888 45.4981L80.7536 45.265L81.6159 45.0319L82.4172 44.8128C82.4337 44.68 82.4548 44.5448 82.4807 44.4119C82.5065 44.279 82.5394 44.1438 82.577 44.0133L82.4807 43.9807L81.6159 43.687L80.7536 43.3933L79.8888 43.0996L79.0241 42.8059L78.1617 42.5122L77.2969 42.2185L76.4322 41.9224L75.5674 41.6287L74.7003 41.2931L73.8356 40.9994L72.9708 40.7057L72.1155 40.4143L71.2484 40.1276L70.3837 39.8339L69.5307 39.5332L68.6683 39.2395L67.8035 38.9458L66.9388 38.6521L66.3795 38.4609C66.2855 38.6163 66.1845 38.7717 66.0764 38.9271C65.8247 39.2744 65.5347 39.5926 65.2116 39.8758C64.9437 40.1091 64.6542 40.3167 64.3469 40.4959C64.0711 40.6565 63.7818 40.793 63.4821 40.9038C63.223 41.0015 62.9567 41.0794 62.6855 41.1369V46.2487C62.9568 46.3059 63.2231 46.3838 63.4821 46.4818C63.7773 46.5934 64.0626 46.729 64.3351 46.8874Z" fill="white"/>
<path d="M83.3443 71.4683L82.4796 70.7457L81.6148 70.0231L80.7524 69.3006L79.8877 68.5803L79.1639 67.9766L79.0182 68.0512C78.7414 68.1932 78.4529 68.3118 78.1558 68.4055C77.8738 68.4959 77.5845 68.5622 77.2911 68.6036C77.0166 68.6456 76.7393 68.6666 76.4616 68.6665H76.4264C76.1367 68.6646 75.8476 68.6404 75.5616 68.5943C75.4465 68.5756 75.3266 68.5546 75.2185 68.5267L74.6992 69.4101L73.8345 70.8763L72.9697 72.3425L72.1144 73.8063L71.2496 75.2725L70.3849 76.7387L69.5295 78.2048L68.6671 79.671L67.8024 81.1372L66.9377 82.6034L66.0753 84.0672L65.5254 84.9996C65.6288 85.1045 65.7275 85.2117 65.8215 85.3236L66.0753 85.1814L66.9377 84.6989L67.8024 84.2141L68.6671 83.7292L69.5295 83.249L70.3943 82.7642L71.259 82.2794L72.1144 81.7922L72.9768 81.3073L73.8415 80.8225L74.7063 80.3377L75.5687 79.8528L76.4334 79.368L77.2981 78.8855L78.1629 78.4006L79.0253 77.9158L79.89 77.431L80.7548 76.9461L81.6172 76.4613L82.4819 75.9788L83.3467 75.4939L83.6639 75.3144C83.2621 74.1567 83.2621 72.8989 83.6639 71.7411L83.3443 71.4683Z" fill="white"/>
<path d="M59.1494 56.7355C58.8472 56.5952 58.5578 56.429 58.2847 56.239C58.2118 56.1853 58.139 56.1341 58.0685 56.0781L57.4199 56.6189L56.5575 57.3415L55.6928 58.0641L54.828 58.7867L53.9656 59.5093L53.1009 60.2319L52.2361 60.9545L51.832 61.2925C52.096 62.0515 52.1907 62.8583 52.1096 63.6572C52.0284 64.4561 51.7734 65.2279 51.362 65.9195C51.1226 66.3223 50.8329 66.6936 50.4996 67.0243C50.3138 67.2128 50.1134 67.3866 49.9004 67.5441L50.4996 68.5581L51.362 70.0243L52.2267 71.4905L53.0915 72.9566L53.9562 74.4228L54.8186 75.889L55.6834 77.3552L56.5575 78.8213L57.4199 80.2875L58.2847 81.7537L59.1494 83.2199L59.4384 83.7164C59.6264 83.6441 59.8191 83.5835 60.0142 83.5299C60.1199 83.5019 60.2233 83.4716 60.3314 83.4483V57.1271C60.2233 57.1037 60.1175 57.0781 60.0142 57.0501C59.7176 56.9694 59.4283 56.8641 59.1494 56.7355Z" fill="white"/>
<path d="M66.9251 78.0024L67.7899 76.5362L68.6546 75.0701L69.517 73.6039L70.3817 72.14L71.2465 70.6739L72.1112 69.2077L72.9736 67.7415L73.0911 67.541L72.9736 67.4455C72.6561 67.1961 72.3669 66.9132 72.1112 66.6017C71.7472 66.1593 71.4554 65.6629 71.2465 65.1308C70.7607 63.9 70.7348 62.5374 71.1736 61.2894L70.3817 60.6367L69.517 59.9141L68.6546 59.1915L67.7899 58.4689L66.9251 57.7463L66.0627 57.0237L65.198 56.3035L64.9348 56.082C64.7435 56.2302 64.5425 56.3657 64.3332 56.4876C64.0575 56.6483 63.7681 56.7848 63.4685 56.8955C63.2093 56.9932 62.943 57.0711 62.6719 57.1286V83.4382C62.9427 83.4968 63.2089 83.5747 63.4685 83.6713L63.5625 83.704L64.3332 82.3986L65.198 80.9324L66.0627 79.4663L66.9251 78.0024Z" fill="white"/>
<path d="M41.0046 52.4353L41.8693 53.9015L42.7317 55.3677L43.5965 56.8339L44.3014 58.0157L44.4683 57.9504C44.7482 57.8394 45.0366 57.7505 45.3306 57.6847C45.6154 57.6225 45.9045 57.5819 46.1954 57.5635C46.4836 57.546 46.7727 57.5506 47.0601 57.5774C47.3519 57.6031 47.6411 57.6522 47.9249 57.7243C48.2198 57.799 48.5082 57.8973 48.7873 58.018C49.0887 58.148 49.3781 58.304 49.652 58.4842C49.9633 58.6922 50.253 58.9304 50.5168 59.1951L50.6084 59.2837L51.3792 58.638L52.2439 57.9178L53.1087 57.1952L53.9734 56.4726L54.8358 55.75L55.7005 55.0274L56.5653 54.3048C56.1285 53.502 55.9 52.604 55.9003 51.6918C55.9003 51.5822 55.9003 51.4727 55.9003 51.3654L55.6864 51.3072L54.8217 51.0741L53.9593 50.841L53.0946 50.6079L52.2298 50.3748L51.3651 50.1417L50.5027 49.9086L49.6379 49.6755L48.7732 49.4424L47.9108 49.2093L47.046 48.9762L46.1813 48.7431L45.3166 48.51L44.4542 48.2769L43.5894 48.0438L42.7247 47.8107L41.8623 47.5776L41.5168 47.4844C41.3683 47.7747 41.1946 48.0516 40.9975 48.3119C40.7448 48.6484 40.4548 48.9557 40.1328 49.2279C39.9011 49.4255 39.6535 49.6041 39.3926 49.7617L40.1328 51.0158L41.0046 52.4353Z" fill="white"/>
<path d="M59.1495 40.7434C58.8468 40.604 58.5573 40.4378 58.2847 40.2469C57.9721 40.0301 57.6824 39.7826 57.42 39.508C57.2993 39.3821 57.1842 39.2492 57.0745 39.1094L56.5576 39.2819L55.6928 39.5662L54.8281 39.853L53.9657 40.128L53.1009 40.4147L52.2362 40.7014L51.3715 40.9858L50.5091 41.2935L49.6443 41.5779L48.7796 41.8646L47.9101 42.1373L47.0454 42.424L46.1806 42.7107L45.3253 42.9951L44.4629 43.2818L43.5981 43.5662L42.7404 43.8575L42.0566 44.0906C42.1035 44.3789 42.1271 44.6704 42.1271 44.9624C42.1271 45.044 42.1271 45.1233 42.1271 45.1955L42.7475 45.3657L43.6122 45.5988L44.477 45.8319L45.3394 46.065L46.2041 46.2981L47.0689 46.5312L47.9336 46.7643L48.796 46.9974L49.6608 47.2305L50.5255 47.4635L51.3879 47.6966L52.2526 47.9297L53.1174 48.1628L53.9821 48.3959L54.8445 48.629L55.7093 48.8621L56.5458 49.0952L56.574 49.0486C56.8062 48.6135 57.0963 48.2113 57.4364 47.8528C57.6982 47.5769 57.988 47.3285 58.3012 47.1116C58.5738 46.9206 58.8632 46.7545 59.1659 46.6151C59.4448 46.4864 59.7341 46.3812 60.0306 46.3004C60.134 46.2701 60.2398 46.2445 60.3479 46.2211V41.1093C60.2398 41.086 60.1364 41.0557 60.0306 41.0254C59.7295 40.9561 59.4347 40.8618 59.1495 40.7434Z" fill="white"/>
</svg>
