<svg width="96" height="96" viewBox="0 0 96 96" fill="none" xmlns="http://www.w3.org/2000/svg">
<path d="M69.8991 48.4066C69.8991 36.3262 60.1045 26.5332 48.0257 26.5332C35.9426 26.5332 26.1504 36.3262 26.1504 48.4066C26.1504 58.7646 33.3551 67.4303 43.0247 69.6919C42.9665 69.5999 42.9274 69.4957 42.9109 69.3864C34.8594 66.6789 29.0553 59.0797 29.0553 50.1151C29.0553 38.8838 38.1602 29.7781 49.3915 29.7781C60.6228 29.7781 69.7277 38.8838 69.7277 50.1151C69.7277 50.5881 69.7074 51.0547 69.6752 51.5196C69.819 50.5015 69.8991 49.4642 69.8991 48.4066Z" fill="white"/>
<path fill-rule="evenodd" clip-rule="evenodd" d="M60.8372 55.9911C60.6494 55.4387 60.1844 55.1286 59.7734 54.7828C59.4491 54.5079 59.0696 54.299 58.717 54.0552C58.6173 53.9832 58.4931 53.8785 58.5238 53.7654C58.5583 53.647 58.6966 53.5849 58.8354 53.5504C59.1904 53.4614 59.5465 53.399 59.9137 53.3955C59.9548 53.3955 60.0096 53.4135 60.026 53.3522C60.0425 53.2981 59.9939 53.2667 59.9586 53.246C59.6201 53.0298 59.2674 52.8374 58.8768 52.7258C58.14 52.5131 57.3952 52.502 56.6427 52.5506C56.6286 52.6066 56.5956 52.6158 56.5611 52.6135C56.5918 52.6097 56.6201 52.5924 56.6427 52.5506C56.586 52.5303 56.5021 52.612 56.4749 52.502C57.2319 51.9967 57.9327 51.4179 58.5974 50.7904C59.3514 50.0785 60.0468 49.3161 60.5336 48.3892C60.6685 48.1316 60.7663 47.8709 60.8456 47.5493C60.5478 47.759 60.2415 47.7536 59.9628 47.8353C59.2636 48.0403 58.5809 47.5186 58.5299 46.7922C58.4601 45.7986 58.8055 44.9039 59.1632 44.0146C59.3453 43.5737 59.589 43.1574 59.8811 42.7216C59.765 42.7404 59.7037 42.7193 59.6282 42.7523C58.8373 43.0815 58.0956 43.4963 57.3948 43.9862C56.8969 44.3373 56.4687 44.7805 55.9493 45.1017C55.6177 45.3076 55.5008 45.2681 55.3682 44.9054C55.2332 44.5409 55.226 44.1484 55.1382 43.7673C54.1821 44.6486 53.5822 45.7334 53.1989 46.9551C53.0363 47.4807 52.7738 47.9526 52.3042 48.278C52.198 48.3505 52.198 48.3512 52.162 48.2719C51.9335 47.7958 51.7905 47.2994 51.7668 46.7723C51.7441 46.2835 51.7276 45.7998 51.7457 45.3102C51.7667 44.8004 51.7112 44.2852 51.6866 43.7731C51.6583 43.172 51.5279 42.5924 51.3301 42.0285C51.2201 41.7081 51.1258 41.3757 50.9288 41.0418C50.8613 41.3151 50.7774 41.529 50.6639 41.7291C50.5029 42.012 50.2948 42.2098 49.9398 42.2279C49.5243 42.2489 49.1835 42.0738 48.8557 41.8595C48.3198 41.5091 47.8525 41.0748 47.4213 40.6048C46.9969 40.1444 46.5871 39.6733 46.2038 39.1777C45.9838 38.8982 45.753 38.6245 45.5556 38.3255C45.5295 38.283 45.4927 38.2266 45.4337 38.2462C45.3582 38.2707 45.3911 38.3443 45.403 38.3892C45.4398 38.5525 45.3724 38.705 45.3628 38.8637C45.3344 39.2731 45.3118 39.6864 45.2401 40.09C45.1381 40.6911 45.0507 41.2948 44.8978 41.884C44.7345 42.5138 44.5145 43.1103 44.1514 43.6474C43.9195 43.9908 43.4837 44.1303 43.0793 44.0134C42.8144 43.9356 42.6235 43.7478 42.4295 43.5672C42.3927 43.5327 42.3582 43.4676 42.2969 43.5082C42.2355 43.5427 42.2601 43.6251 42.2781 43.655C42.3904 43.8183 42.3582 44.0138 42.3942 44.1898C42.5418 44.9265 42.8105 45.6154 43.1467 46.2839C43.6014 47.1771 44.2457 47.9541 44.6862 48.8526C44.9181 49.3249 45.1121 49.8094 45.0956 50.3756C44.9833 50.2476 44.8553 50.3112 44.7468 50.2886C44.0602 50.1525 43.5607 49.709 43.0509 49.2935C42.2294 48.6249 41.286 48.2332 40.289 47.9391C40.2499 47.9288 40.1931 47.9338 40.1671 47.9564C40.1222 48.002 40.1874 48.0304 40.2016 48.0664C40.3242 48.3509 40.4442 48.6311 40.5542 48.9163C40.7091 49.3222 40.5669 49.5564 40.1717 49.5281C40.0348 49.5177 39.888 49.5139 39.7554 49.4855C39.0941 49.3464 38.4241 49.2751 37.7563 49.2662C36.9992 49.2528 36.2348 49.2797 35.4893 49.4798C35.5912 49.5668 35.7193 49.5545 35.8239 49.6093C36.7508 50.0965 37.5907 50.7034 38.3179 51.4585C38.5506 51.7012 38.7767 51.9661 38.9094 52.2792C39.1214 52.7764 39.1639 53.1747 38.6893 53.5918C38.3209 53.9161 37.8575 54.0177 37.3603 54.1472C37.9598 54.6728 38.6345 54.9963 39.3502 55.2478C40.0697 55.5046 40.8072 55.6679 41.559 55.814C42.3019 55.9554 43.0532 55.9891 43.8364 56.1061C42.7312 56.5343 41.3186 57.6394 41.1453 58.6376C41.5325 58.4421 41.9216 58.2753 42.326 58.1427C42.5131 58.0791 42.7086 58.1772 42.684 58.3202C42.6637 58.4279 42.6438 58.5395 42.5963 58.6376C42.3582 59.1467 42.109 59.6527 41.9584 60.1962C41.8564 60.5585 41.7487 60.9253 41.8852 61.3225C41.9442 61.4976 41.9668 61.4616 42.091 61.3957C42.592 61.1239 43.0919 60.846 43.6071 60.6118C44.0054 60.4304 44.3941 60.2016 44.8591 60.2173C45.0933 60.2261 45.1914 60.3208 45.2221 60.5504C45.2769 60.9571 45.1665 61.3501 45.1585 61.7468C45.1688 61.7886 45.1381 61.8553 45.2198 61.8553C45.4161 61.692 45.6189 61.5371 45.8009 61.3619C46.6815 60.509 47.3703 59.497 48.0898 58.513C48.6752 57.7095 49.3924 57.1138 50.389 56.8927C50.5037 56.8674 50.4768 56.8723 50.5117 56.964C50.7436 57.5114 50.8456 58.0856 50.8989 58.6621C50.9736 59.4863 51.0166 60.3181 50.8659 61.1538C50.7498 61.7714 50.5619 62.354 50.3097 62.9072C50.422 62.8286 50.5546 62.7695 50.7275 62.7695C51.2044 62.7695 51.4447 63.1326 51.4574 63.5033C51.7073 62.7105 51.8078 61.8883 51.8407 61.0541C51.8626 60.4918 51.7687 59.9363 51.7058 59.377C51.6713 59.0761 51.6196 58.7683 51.5525 58.4728C51.4244 57.9181 51.2719 57.3699 51.1001 56.8302C51.0599 56.6945 51.1331 56.6588 51.196 56.6423C51.8894 56.4836 52.5744 56.4123 53.2855 56.5975C54.2879 56.8582 55.1911 57.3642 56.1651 57.6965C56.9019 57.9487 57.6536 58.1239 58.4425 58.2612C58.1715 57.8778 57.8108 57.588 57.613 57.1825C57.4615 56.8762 57.5501 56.6711 57.8368 56.5542C58.2807 56.3694 58.7457 56.3594 59.1981 56.3004C59.6899 56.2352 60.1893 56.2398 60.6827 56.2291C60.8751 56.2207 60.8962 56.1705 60.8372 55.9911Z" fill="white"/>
<path fill-rule="evenodd" clip-rule="evenodd" d="M56.3916 52.5743C56.3916 52.5509 56.4081 52.531 56.4318 52.5176C56.4119 52.5306 56.4 52.5486 56.3916 52.5743Z" fill="white"/>
<path fill-rule="evenodd" clip-rule="evenodd" d="M56.4082 52.616C56.4285 52.6107 56.4492 52.6107 56.4672 52.6122C56.4507 52.616 56.4285 52.6229 56.4082 52.616Z" fill="white"/>
<path fill-rule="evenodd" clip-rule="evenodd" d="M56.4375 52.5152C56.4392 52.5152 56.4392 52.5117 56.4436 52.5117C56.4392 52.5117 56.4392 52.5152 56.4375 52.5152Z" fill="white"/>
<path fill-rule="evenodd" clip-rule="evenodd" d="M45.1567 61.7461C45.1647 61.7879 45.1364 61.8546 45.218 61.8546C45.218 61.9094 45.1732 61.9286 45.1283 61.9623C45.1344 61.8856 45.0325 61.807 45.1567 61.7461Z" fill="white"/>
</svg>
