<svg width="96" height="96" viewBox="0 0 96 96" fill="none" xmlns="http://www.w3.org/2000/svg">
<path d="M43.7863 64.5807L43.1168 63.4456L42.4473 62.3105L41.7796 61.1754L41.1102 60.0421L40.4407 58.907L39.7712 57.7737L39.1035 56.6386L38.4341 55.5035L37.7646 54.3684L37.0915 53.2333L36.9859 53.0528C36.8001 53.0942 36.6117 53.1231 36.422 53.1395C36.1994 53.1599 35.9757 53.1641 35.7525 53.1521C35.5272 53.1379 35.3034 53.1065 35.083 53.0583C34.8552 53.0069 34.6319 52.9375 34.4154 52.8507C34.2492 52.7868 34.0876 52.7121 33.9314 52.627L33.7495 52.7822L33.08 53.3416L32.4124 53.901L31.7429 54.4604L31.0734 55.0199L30.5422 55.4638C30.7705 56.3281 30.7216 57.2415 30.4021 58.0769C30.3584 58.196 30.3075 58.3115 30.2529 58.4252L30.4021 58.51L31.0716 58.8854L31.7411 59.2607L32.4105 59.6361L33.0891 60.0114L33.7586 60.385L34.4281 60.7604L35.0957 61.1357L35.7652 61.5111L36.4347 61.8864L37.1042 62.2618L37.7718 62.6354L38.4341 63.0071L39.1035 63.3825L39.7712 63.7578L40.4407 64.1332L41.1102 64.5086L41.7796 64.8839L42.4473 65.2575L43.1168 65.6328L43.7863 66.0082L44.1501 66.2139C44.2447 66.0894 44.3466 65.9739 44.4521 65.853L44.5067 65.7952L44.4521 65.705L43.7863 64.5807Z" fill="white"/>
<path d="M31.0759 52.6728L31.7454 52.1133L32.4148 51.5539L32.5549 51.4366C32.504 51.3698 32.4603 51.2994 32.4148 51.2309C32.0701 50.7164 31.8417 50.134 31.7454 49.5237C31.6763 49.083 31.6763 48.6344 31.7454 48.1937C31.8413 47.5833 32.0697 47.0008 32.4148 46.4865C32.535 46.3053 32.6688 46.1334 32.8151 45.9722L32.4148 45.2919L31.7454 44.1568L31.0759 43.0217L30.4064 41.8956L29.7387 40.7605L29.0693 39.6254L28.7527 39.084C28.6345 39.0966 28.518 39.1038 28.3998 39.1074H28.2688C28.136 39.1074 28.005 39.1074 27.874 39.0894V52.5302C28.0543 52.5982 28.2299 52.6777 28.3998 52.7684C28.6363 52.8948 28.8604 53.0429 29.0693 53.2105C29.2998 53.3937 29.5107 53.6 29.6987 53.8259L29.7387 53.7916L30.4064 53.234L31.0759 52.6728Z" fill="white"/>
<path d="M67.1995 39.3863C66.9713 39.3359 66.7474 39.2677 66.53 39.1824C66.4991 39.1698 66.4663 39.159 66.4354 39.1445L65.8605 40.119L65.1929 41.2541L64.5234 42.3892L63.8539 43.5171L63.1844 44.6522L62.5168 45.7873L62.4131 45.9678C62.4495 46.0075 62.4822 46.049 62.5168 46.0905C62.7916 46.413 63.0167 46.7743 63.1844 47.1624C63.4153 47.6971 63.5343 48.2727 63.5343 48.8543C63.5343 49.4359 63.4153 50.0115 63.1844 50.5461C63.0497 50.8603 62.8781 51.1577 62.6732 51.4322L63.1844 51.8599L63.8539 52.4193L64.5234 52.9787L65.1929 53.5382L65.7241 53.9821C65.7678 53.9352 65.8151 53.8901 65.8605 53.8467C66.0654 53.6488 66.2896 53.4716 66.53 53.318C66.7423 53.1819 66.9663 53.0647 67.1995 52.9679L67.3541 52.9047V39.4152L67.1995 39.3863Z" fill="white"/>
<path d="M63.1859 36.6967L62.5182 36.8772L61.8487 37.0576L61.1793 37.2381L60.5116 37.4186L59.8421 37.599L59.1726 37.7795L58.5032 37.96L57.8355 38.1404L57.166 38.3209L56.4965 38.5013L55.8289 38.6818L55.1594 38.8623L54.4899 39.0427L53.8204 39.2232L53.1528 39.4037L52.4833 39.5841L51.9375 39.7303C51.9375 39.8133 51.9375 39.8981 51.9375 39.9829C51.9378 40.3483 51.8907 40.7122 51.7974 41.0657C51.714 41.394 51.5918 41.7114 51.4336 42.0113L51.7974 42.3217L52.4669 42.8812L53.1364 43.4406L53.8041 44L54.4735 44.5594L55.143 45.1189L55.8125 45.6783L56.0381 45.8588C56.1761 45.7149 56.3238 45.5804 56.4802 45.4563C56.6897 45.2912 56.9138 45.145 57.1496 45.0196C57.3698 44.9212 57.5981 44.8415 57.8319 44.7814C58.0496 44.7095 58.2729 44.6552 58.4995 44.619C58.7208 44.5824 58.9447 44.5637 59.169 44.5631C59.3931 44.5606 59.617 44.5763 59.8385 44.61C60.0654 44.6435 60.2892 44.6948 60.508 44.7634C60.6517 44.8103 60.7936 44.859 60.9337 44.9204L61.1756 44.5089L61.8451 43.3738L62.5146 42.2405L63.1822 41.1054L63.8517 39.9703L64.5212 38.8352L64.9414 38.1134C64.7882 37.9503 64.6478 37.776 64.5212 37.5918C64.2861 37.2481 64.1023 36.8724 63.9754 36.4766L63.8535 36.5109L63.1859 36.6967Z" fill="white"/>
<path d="M49.8084 36.2991C50.0467 36.4378 50.2709 36.5992 50.4778 36.7809C50.7284 36.9997 50.953 37.2462 51.1473 37.5154C51.2649 37.6783 51.3712 37.849 51.4657 38.0261L51.815 37.9305L52.4845 37.75L53.1539 37.5695L53.8216 37.3891L54.4911 37.2086L55.1606 37.0281L55.83 36.8477L56.4977 36.6672L57.1672 36.4868L57.8367 36.3063L58.5043 36.1258L59.1738 35.9454L59.8433 35.7649L60.5128 35.5845L61.1804 35.404L61.8499 35.2235L62.5194 35.0431L63.187 34.8626L63.8074 34.693C63.8201 34.5901 63.8365 34.4854 63.8565 34.3826C63.8765 34.2797 63.902 34.175 63.9311 34.074L63.8565 34.0487L63.187 33.8213L62.5194 33.594L61.8499 33.3666L61.1804 33.1392L60.5128 32.9118L59.8433 32.6844L59.1738 32.4552L58.5043 32.2279L57.833 31.968L57.1635 31.7406L56.4941 31.5132L55.8319 31.2877L55.1606 31.0657L54.4911 30.8383L53.8307 30.6055L53.163 30.3781L52.4936 30.1507L51.8241 29.9234L51.3911 29.7754C51.3183 29.8957 51.2401 30.016 51.1564 30.1363C50.9616 30.4052 50.737 30.6515 50.4869 30.8708C50.2795 31.0514 50.0554 31.2121 49.8175 31.3508C49.604 31.4752 49.38 31.5809 49.148 31.6666C48.9473 31.7422 48.7412 31.8026 48.5312 31.8471V35.8046C48.7412 35.8489 48.9474 35.9092 49.148 35.9851C49.3765 36.0715 49.5974 36.1765 49.8084 36.2991Z" fill="white"/>
<path d="M64.5248 55.3303L63.8553 54.7708L63.1858 54.2114L62.5182 53.652L61.8487 53.0944L61.2884 52.627L61.1756 52.6847C60.9612 52.7947 60.7379 52.8865 60.5079 52.959C60.2896 53.029 60.0656 53.0803 59.8384 53.1124C59.6259 53.1449 59.4112 53.1612 59.1962 53.1611H59.1689C58.9447 53.1596 58.7208 53.1409 58.4995 53.1052C58.4103 53.0907 58.3175 53.0745 58.2339 53.0528L57.8318 53.7368L57.1623 54.8719L56.4928 56.007L55.8306 57.1403L55.1612 58.2754L54.4917 59.4105L53.8295 60.5456L53.1618 61.6807L52.4923 62.8158L51.8229 63.9509L51.1552 65.0842L50.7295 65.8061C50.8095 65.8873 50.8859 65.9703 50.9587 66.0569L51.1552 65.9468L51.8229 65.5733L52.4923 65.1979L53.1618 64.8226L53.8295 64.4508L54.499 64.0754L55.1684 63.7001L55.8306 63.3229L56.4983 62.9476L57.1678 62.5722L57.8373 62.1968L58.5049 61.8215L59.1744 61.4461L59.8439 61.0726L60.5134 60.6972L61.181 60.3218L61.8505 59.9465L62.52 59.5711L63.1876 59.1958L63.8571 58.8222L64.5266 58.4468L64.7722 58.3079C64.4612 57.4115 64.4612 56.4378 64.7722 55.5414L64.5248 55.3303Z" fill="white"/>
<path d="M45.7933 43.923C45.5594 43.8144 45.3353 43.6857 45.1239 43.5386C45.0675 43.4971 45.0111 43.4574 44.9565 43.4141L44.4544 43.8327L43.7867 44.3922L43.1172 44.9516L42.4478 45.511L41.7801 46.0705L41.1106 46.6299L40.4411 47.1893L40.1282 47.451C40.3326 48.0386 40.406 48.6633 40.3431 49.2817C40.2803 49.9002 40.0828 50.4978 39.7644 51.0332C39.5791 51.3451 39.3547 51.6325 39.0967 51.8885C38.9528 52.0344 38.7977 52.169 38.6328 52.291L39.0967 53.076L39.7644 54.2111L40.4339 55.3462L41.1033 56.4813L41.7728 57.6164L42.4405 58.7515L43.11 59.8866L43.7867 61.0217L44.4544 62.1568L45.1239 63.2919L45.7933 64.427L46.0171 64.8114C46.1626 64.7555 46.3118 64.7085 46.4628 64.667C46.5447 64.6454 46.6247 64.6219 46.7084 64.6039V44.2261C46.6247 44.2081 46.5429 44.1882 46.4628 44.1666C46.2332 44.1041 46.0093 44.0226 45.7933 43.923Z" fill="white"/>
<path d="M51.8133 60.3886L52.4828 59.2535L53.1523 58.1184L53.82 56.9833L54.4894 55.85L55.1589 54.7149L55.8284 53.5798L56.4961 52.4447L56.587 52.2895L56.4961 52.2155C56.2502 52.0224 56.0264 51.8034 55.8284 51.5622C55.5466 51.2197 55.3207 50.8354 55.1589 50.4235C54.7828 49.4706 54.7628 48.4157 55.1025 47.4495L54.4894 46.9442L53.82 46.3848L53.1523 45.8253L52.4828 45.2659L51.8133 44.7065L51.1457 44.147L50.4762 43.5894L50.2724 43.418C50.1243 43.5327 49.9687 43.6376 49.8067 43.732C49.5932 43.8563 49.3692 43.962 49.1372 44.0478C48.9366 44.1234 48.7304 44.1837 48.5205 44.2282V64.597C48.7302 64.6423 48.9363 64.7026 49.1372 64.7774L49.21 64.8027L49.8067 63.7921L50.4762 62.657L51.1457 61.5219L51.8133 60.3886Z" fill="white"/>
<path d="M31.7451 40.5947L32.4146 41.7298L33.0822 42.8649L33.7517 44L34.2975 44.915L34.4266 44.8645C34.6434 44.7785 34.8666 44.7097 35.0943 44.6587C35.3147 44.6106 35.5385 44.5792 35.7638 44.5649C35.9869 44.5513 36.2107 44.555 36.4332 44.5757C36.6591 44.5956 36.883 44.6336 37.1027 44.6894C37.3311 44.7473 37.5544 44.8233 37.7704 44.9168C38.0038 45.0174 38.2278 45.1382 38.4399 45.2777C38.6808 45.4387 38.9051 45.6231 39.1093 45.8281L39.1803 45.8967L39.777 45.3968L40.4465 44.8392L41.116 44.2798L41.7854 43.7203L42.4531 43.1609L43.1226 42.6015L43.7921 42.042C43.4539 41.4205 43.277 40.7253 43.2772 40.0191C43.2772 39.9342 43.2772 39.8494 43.2772 39.7664L43.1117 39.7213L42.4422 39.5408L41.7745 39.3604L41.1051 39.1799L40.4356 38.9994L39.7661 38.819L39.0984 38.6385L38.429 38.4581L37.7595 38.2776L37.0918 38.0971L36.4223 37.9167L35.7529 37.7362L35.0834 37.5558L34.4157 37.3753L33.7462 37.1948L33.0768 37.0144L32.4091 36.8339L32.1417 36.7617C32.0267 36.9865 31.8922 37.2008 31.7396 37.4024C31.544 37.6629 31.3194 37.9008 31.0701 38.1116C30.8908 38.2645 30.6991 38.4028 30.4971 38.5248L31.0701 39.4957L31.7451 40.5947Z" fill="white"/>
<path d="M45.7927 31.5424C45.5584 31.4345 45.3343 31.3058 45.1232 31.158C44.8812 30.9902 44.6569 30.7985 44.4538 30.5859C44.3604 30.4885 44.2712 30.3856 44.1863 30.2773L43.7861 30.4109L43.1166 30.631L42.4471 30.853L41.7795 31.066L41.11 31.2879L40.4405 31.5099L39.771 31.7301L39.1034 31.9683L38.4339 32.1884L37.7644 32.4104L37.0913 32.6215L36.4218 32.8435L35.7523 33.0655L35.0901 33.2856L34.4225 33.5076L33.753 33.7278L33.089 33.9533L32.5596 34.1338C32.5959 34.357 32.6141 34.5827 32.6142 34.8087C32.6142 34.8719 32.6142 34.9333 32.6142 34.9892L33.0944 35.1209L33.7639 35.3014L34.4334 35.4819L35.101 35.6623L35.7705 35.8428L36.44 36.0232L37.1095 36.2037L37.7771 36.3842L38.4466 36.5646L39.1161 36.7451L39.7838 36.9256L40.4533 37.106L41.1227 37.2865L41.7922 37.4669L42.4599 37.6474L43.1294 37.8279L43.777 38.0083L43.7988 37.9722C43.9786 37.6354 44.2031 37.324 44.4665 37.0465C44.6692 36.8329 44.8935 36.6406 45.136 36.4726C45.347 36.3248 45.5711 36.1961 45.8055 36.0882C46.0214 35.9886 46.2453 35.9071 46.4749 35.8446C46.555 35.8211 46.6368 35.8013 46.7205 35.7832V31.8257C46.6368 31.8077 46.5568 31.7842 46.4749 31.7607C46.2418 31.7071 46.0135 31.634 45.7927 31.5424Z" fill="white"/>
</svg>
