<svg width="124" height="124" viewBox="0 0 124 124" fill="none" xmlns="http://www.w3.org/2000/svg">
<path d="M90.5635 62.5305C90.5635 46.7735 77.788 34 62.033 34C46.2725 34 33.5 46.7735 33.5 62.5305C33.5 76.041 42.8975 87.344 55.51 90.294C55.434 90.174 55.383 90.038 55.3615 89.8955C44.8595 86.364 37.289 76.452 37.289 64.759C37.289 50.1095 49.165 38.2325 63.8145 38.2325C78.464 38.2325 90.34 50.1095 90.34 64.759C90.34 65.376 90.3135 65.9845 90.2715 66.591C90.459 65.263 90.5635 63.91 90.5635 62.5305Z" fill="white"/>
<path fill-rule="evenodd" clip-rule="evenodd" d="M78.7442 72.4241C78.4992 71.7036 77.8926 71.2991 77.3566 70.8481C76.9336 70.4896 76.4387 70.2171 75.9787 69.8991C75.8487 69.8051 75.6866 69.6686 75.7266 69.5211C75.7716 69.3666 75.9521 69.2856 76.1331 69.2406C76.5961 69.1246 77.0607 69.0431 77.5397 69.0386C77.5932 69.0386 77.6646 69.0621 77.6861 68.9821C77.7076 68.9116 77.6442 68.8706 77.5982 68.8436C77.1567 68.5616 76.6966 68.3106 76.1871 68.1651C75.2261 67.8876 74.2546 67.8731 73.2731 67.9366C73.2546 68.0096 73.2116 68.0216 73.1666 68.0186C73.2066 68.0136 73.2436 67.9911 73.2731 67.9366C73.1991 67.9101 73.0897 68.0166 73.0542 67.8731C74.0417 67.2141 74.9556 66.4591 75.8226 65.6406C76.8061 64.7121 77.7132 63.7176 78.3482 62.5086C78.5242 62.1726 78.6516 61.8326 78.7551 61.4131C78.3666 61.6866 77.9672 61.6796 77.6037 61.7861C76.6917 62.0536 75.8011 61.3731 75.7346 60.4256C75.6436 59.1296 76.0942 57.9626 76.5607 56.8026C76.7982 56.2276 77.1161 55.6846 77.4971 55.1161C77.3456 55.1406 77.2657 55.1131 77.1672 55.1561C76.1357 55.5856 75.1681 56.1266 74.2541 56.7656C73.6046 57.2236 73.0461 57.8016 72.3686 58.2206C71.9361 58.4891 71.7836 58.4376 71.6106 57.9646C71.4346 57.4891 71.4252 56.9771 71.3107 56.4801C70.0637 57.6296 69.2811 59.0446 68.7811 60.6381C68.5691 61.3236 68.2267 61.9391 67.6142 62.3636C67.4757 62.4581 67.4756 62.4591 67.4286 62.3556C67.1306 61.7346 66.9442 61.0871 66.9132 60.3996C66.8837 59.7621 66.8621 59.1311 66.8856 58.4926C66.9131 57.8276 66.8406 57.1556 66.8086 56.4876C66.7716 55.7036 66.6016 54.9476 66.3436 54.2121C66.2001 53.7941 66.0771 53.3606 65.8201 52.9251C65.7321 53.2816 65.6226 53.5606 65.4746 53.8216C65.2646 54.1906 64.9932 54.4486 64.5302 54.4721C63.9882 54.4996 63.5436 54.2711 63.1161 53.9916C62.4172 53.5346 61.8076 52.9681 61.2451 52.3551C60.6916 51.7546 60.1572 51.1401 59.6572 50.4936C59.3702 50.1291 59.0691 49.7721 58.8116 49.3821C58.7776 49.3266 58.7296 49.2531 58.6526 49.2786C58.5541 49.3106 58.5971 49.4066 58.6126 49.4651C58.6606 49.6781 58.5726 49.8771 58.5602 50.0841C58.5232 50.6181 58.4936 51.1571 58.4001 51.6836C58.2671 52.4676 58.1531 53.2551 57.9536 54.0236C57.7406 54.8451 57.4536 55.6231 56.9801 56.3236C56.6776 56.7716 56.1091 56.9536 55.5816 56.8011C55.2361 56.6996 54.9871 56.4546 54.7341 56.2191C54.6861 56.1741 54.6411 56.0891 54.5611 56.1421C54.4811 56.1871 54.5132 56.2946 54.5367 56.3336C54.6832 56.5466 54.6411 56.8016 54.6881 57.0311C54.8806 57.9921 55.2311 58.8906 55.6696 59.7626C56.2626 60.9276 57.1031 61.9411 57.6776 63.1131C57.9801 63.7291 58.2332 64.3611 58.2117 65.0996C58.0652 64.9326 57.8982 65.0156 57.7567 64.9861C56.8612 64.8086 56.2096 64.2301 55.5446 63.6881C54.4731 62.8161 53.2427 62.3051 51.9422 61.9216C51.8912 61.9081 51.8171 61.9146 51.7831 61.9441C51.7246 62.0036 51.8096 62.0406 51.8281 62.0876C51.9881 62.4586 52.1446 62.8241 52.2881 63.1961C52.4901 63.7256 52.3047 64.0311 51.7892 63.9941C51.6107 63.9806 51.4191 63.9756 51.2461 63.9386C50.3836 63.7571 49.5096 63.6641 48.6386 63.6526C47.6511 63.6351 46.6541 63.6701 45.6816 63.9311C45.8146 64.0446 45.9816 64.0286 46.1181 64.1001C47.3271 64.7356 48.4226 65.5271 49.3711 66.5121C49.6746 66.8286 49.9697 67.1741 50.1427 67.5826C50.4192 68.2311 50.4747 68.7506 49.8557 69.2946C49.3752 69.7176 48.7706 69.8501 48.1221 70.0191C48.9041 70.7046 49.7842 71.1266 50.7177 71.4546C51.6562 71.7896 52.6181 72.0026 53.5986 72.1931C54.5676 72.3776 55.5477 72.4216 56.5692 72.5741C55.1277 73.1326 53.2851 74.5741 53.0591 75.8761C53.5641 75.6211 54.0717 75.4036 54.5992 75.2306C54.8432 75.1476 55.0981 75.2756 55.0661 75.4621C55.0396 75.6026 55.0136 75.7481 54.9516 75.8761C54.6411 76.5401 54.3161 77.2001 54.1196 77.9091C53.9866 78.3816 53.8462 78.8601 54.0242 79.3781C54.1012 79.6066 54.1306 79.5596 54.2926 79.4736C54.9461 79.1191 55.5981 78.7566 56.2701 78.4511C56.7896 78.2146 57.2967 77.9161 57.9032 77.9366C58.2087 77.9481 58.3366 78.0716 58.3766 78.3711C58.4481 78.9016 58.3041 79.4141 58.2936 79.9316C58.3071 79.9861 58.2671 80.0731 58.3736 80.0731C58.6296 79.8601 58.8942 79.6581 59.1317 79.4296C60.2802 78.3171 61.1786 76.9971 62.1171 75.7136C62.8806 74.6656 63.8162 73.8886 65.1161 73.6001C65.2656 73.5671 65.2307 73.5736 65.2762 73.6931C65.5787 74.4071 65.7116 75.1561 65.7811 75.9081C65.8786 76.9831 65.9346 78.0681 65.7381 79.1581C65.5866 79.9636 65.3417 80.7236 65.0126 81.4451C65.1591 81.3426 65.3321 81.2656 65.5576 81.2656C66.1796 81.2656 66.4931 81.7391 66.5096 82.2226C66.8356 81.1886 66.9667 80.1161 67.0097 79.0281C67.0382 78.2946 66.9156 77.5701 66.8336 76.8406C66.7886 76.4481 66.7212 76.0466 66.6337 75.6611C66.4667 74.9376 66.2676 74.2226 66.0436 73.5186C65.9911 73.3416 66.0866 73.2951 66.1686 73.2736C67.0731 73.0666 67.9667 72.9736 68.8941 73.2151C70.2017 73.5551 71.3797 74.2151 72.6502 74.6486C73.6112 74.9776 74.5917 75.2061 75.6207 75.3851C75.2672 74.8851 74.7966 74.5071 74.5387 73.9781C74.3412 73.5786 74.4566 73.3111 74.8306 73.1586C75.4096 72.9176 76.0162 72.9046 76.6062 72.8276C77.2477 72.7426 77.8991 72.7486 78.5426 72.7346C78.7936 72.7236 78.8212 72.6581 78.7442 72.4241Z" fill="white"/>
<path fill-rule="evenodd" clip-rule="evenodd" d="M72.9453 67.9685C72.9453 67.938 72.9668 67.912 72.9978 67.8945C72.9718 67.9115 72.9563 67.935 72.9453 67.9685Z" fill="white"/>
<path fill-rule="evenodd" clip-rule="evenodd" d="M72.9668 68.0218C72.9933 68.0148 73.0203 68.0148 73.0438 68.0168C73.0223 68.0218 72.9933 68.0308 72.9668 68.0218Z" fill="white"/>
<path fill-rule="evenodd" clip-rule="evenodd" d="M73.0059 67.891C73.008 67.891 73.008 67.8867 73.0135 67.8867C73.008 67.8867 73.008 67.891 73.0059 67.891Z" fill="white"/>
<path fill-rule="evenodd" clip-rule="evenodd" d="M58.2918 79.9297C58.3023 79.9842 58.2653 80.0712 58.3718 80.0712C58.3718 80.1427 58.3132 80.1677 58.2547 80.2117C58.2627 80.1117 58.1298 80.0092 58.2918 79.9297Z" fill="white"/>
</svg>
