<svg width="96" height="96" viewBox="0 0 96 96" fill="none" xmlns="http://www.w3.org/2000/svg">
<path d="M43.7872 64.5788L43.1177 63.4437L42.4483 62.3086L41.7806 61.1735L41.1111 60.0402L40.4416 58.9051L39.7722 57.7718L39.1045 56.6367L38.435 55.5016L37.7655 54.3665L37.0924 53.2314L36.9869 53.0509C36.8011 53.0922 36.6127 53.1211 36.4229 53.1375C36.2004 53.1579 35.9766 53.1622 35.7535 53.1501C35.5282 53.136 35.3044 53.1046 35.084 53.0563C34.8562 53.005 34.6329 52.9356 34.4163 52.8488C34.2502 52.7849 34.0885 52.7101 33.9324 52.625L33.7505 52.7802L33.081 53.3396L32.4133 53.8991L31.7439 54.4585L31.0744 55.0179L30.5432 55.4619C30.7715 56.3261 30.7225 57.2395 30.4031 58.0749C30.3594 58.194 30.3085 58.3095 30.2539 58.4232L30.4031 58.5081L31.0726 58.8834L31.742 59.2588L32.4115 59.6341L33.0901 60.0095L33.7596 60.3831L34.4291 60.7584L35.0967 61.1338L35.7662 61.5091L36.4357 61.8845L37.1052 62.2599L37.7728 62.6334L38.435 63.0052L39.1045 63.3805L39.7722 63.7559L40.4416 64.1312L41.1111 64.5066L41.7806 64.882L42.4483 65.2555L43.1177 65.6309L43.7872 66.0062L44.1511 66.212C44.2457 66.0874 44.3476 65.972 44.4531 65.851L44.5076 65.7933L44.4531 65.7031L43.7872 64.5788Z" fill="white"/>
<path d="M31.0769 52.6708L31.7463 52.1114L32.4158 51.5519L32.5559 51.4346C32.505 51.3679 32.4613 51.2975 32.4158 51.2289C32.0711 50.7144 31.8427 50.1321 31.7463 49.5217C31.6773 49.0811 31.6773 48.6324 31.7463 48.1917C31.8423 47.5813 32.0707 46.9988 32.4158 46.4846C32.536 46.3034 32.6698 46.1314 32.8161 45.9703L32.4158 45.2899L31.7463 44.1548L31.0769 43.0197L30.4074 41.8936L29.7397 40.7585L29.0702 39.6234L28.7537 39.082C28.6354 39.0947 28.519 39.1019 28.4008 39.1055H28.2698C28.137 39.1055 28.006 39.1055 27.875 39.0874V52.5282C28.0553 52.5962 28.2309 52.6758 28.4008 52.7664C28.6373 52.8929 28.8614 53.0409 29.0702 53.2086C29.3007 53.3918 29.5117 53.598 29.6997 53.824L29.7397 53.7897L30.4074 53.232L31.0769 52.6708Z" fill="white"/>
<path d="M67.2005 39.3824C66.9723 39.332 66.7484 39.2638 66.531 39.1785C66.5001 39.1659 66.4673 39.1551 66.4364 39.1406L65.8615 40.1151L65.1939 41.2502L64.5244 42.3853L63.8549 43.5132L63.1854 44.6483L62.5178 45.7834L62.4141 45.9639C62.4504 46.0036 62.4832 46.0451 62.5178 46.0866C62.7926 46.4091 63.0176 46.7704 63.1854 47.1585C63.4163 47.6932 63.5353 48.2687 63.5353 48.8504C63.5353 49.432 63.4163 50.0076 63.1854 50.5422C63.0507 50.8564 62.8791 51.1538 62.6742 51.4283L63.1854 51.856L63.8549 52.4154L64.5244 52.9748L65.1939 53.5343L65.7251 53.9782C65.7687 53.9313 65.816 53.8862 65.8615 53.8428C66.0663 53.6449 66.2906 53.4677 66.531 53.3141C66.7433 53.178 66.9673 53.0608 67.2005 52.964L67.3551 52.9008V39.4113L67.2005 39.3824Z" fill="white"/>
<path d="M63.1859 36.6967L62.5182 36.8772L61.8487 37.0576L61.1793 37.2381L60.5116 37.4186L59.8421 37.599L59.1726 37.7795L58.5032 37.96L57.8355 38.1404L57.166 38.3209L56.4965 38.5013L55.8289 38.6818L55.1594 38.8623L54.4899 39.0427L53.8204 39.2232L53.1528 39.4037L52.4833 39.5841L51.9375 39.7303C51.9375 39.8133 51.9375 39.8981 51.9375 39.9829C51.9378 40.3483 51.8907 40.7122 51.7974 41.0657C51.714 41.394 51.5918 41.7114 51.4336 42.0113L51.7974 42.3217L52.4669 42.8812L53.1364 43.4406L53.8041 44L54.4735 44.5594L55.143 45.1189L55.8125 45.6783L56.0381 45.8588C56.1761 45.7149 56.3238 45.5804 56.4802 45.4563C56.6897 45.2912 56.9138 45.145 57.1496 45.0196C57.3698 44.9212 57.5981 44.8415 57.8319 44.7814C58.0496 44.7095 58.2729 44.6552 58.4995 44.619C58.7208 44.5824 58.9447 44.5637 59.169 44.5631C59.3931 44.5606 59.617 44.5763 59.8385 44.61C60.0654 44.6435 60.2892 44.6948 60.508 44.7634C60.6517 44.8103 60.7936 44.859 60.9337 44.9204L61.1756 44.5089L61.8451 43.3738L62.5146 42.2405L63.1822 41.1054L63.8517 39.9703L64.5212 38.8352L64.9414 38.1134C64.7883 37.9503 64.6478 37.776 64.5212 37.5918C64.2861 37.2481 64.1023 36.8724 63.9754 36.4766L63.8535 36.5109L63.1859 36.6967Z" fill="white"/>
<path d="M49.8084 36.2971C50.0467 36.4359 50.2709 36.5972 50.4778 36.779C50.7284 36.9978 50.953 37.2442 51.1473 37.5134C51.2649 37.6764 51.3712 37.847 51.4657 38.0241L51.815 37.9285L52.4845 37.748L53.1539 37.5676L53.8216 37.3871L54.4911 37.2067L55.1606 37.0262L55.83 36.8457L56.4977 36.6653L57.1672 36.4848L57.8367 36.3043L58.5043 36.1239L59.1738 35.9434L59.8433 35.763L60.5128 35.5825L61.1804 35.402L61.8499 35.2216L62.5194 35.0411L63.187 34.8607L63.8074 34.691C63.8201 34.5882 63.8365 34.4835 63.8565 34.3806C63.8765 34.2778 63.902 34.1731 63.9311 34.072L63.8565 34.0468L63.187 33.8194L62.5194 33.592L61.8499 33.3646L61.1804 33.1372L60.5128 32.9099L59.8433 32.6825L59.1738 32.4533L58.5043 32.2259L57.833 31.966L57.1635 31.7387L56.4941 31.5113L55.8319 31.2857L55.1606 31.0637L54.4911 30.8364L53.8307 30.6036L53.163 30.3762L52.4936 30.1488L51.8241 29.9214L51.3911 29.7734C51.3183 29.8937 51.2401 30.0141 51.1564 30.1344C50.9616 30.4032 50.737 30.6496 50.4869 30.8688C50.2795 31.0494 50.0554 31.2101 49.8175 31.3489C49.604 31.4732 49.38 31.5789 49.148 31.6647C48.9473 31.7403 48.7412 31.8006 48.5312 31.8451V35.8027C48.7412 35.8469 48.9474 35.9073 49.148 35.9831C49.3765 36.0695 49.5974 36.1745 49.8084 36.2971V36.2971Z" fill="white"/>
<path d="M64.5258 55.3283L63.8563 54.7689L63.1868 54.2095L62.5191 53.65L61.8497 53.0924L61.2893 52.625L61.1765 52.6827C60.9622 52.7927 60.7389 52.8845 60.5089 52.9571C60.2906 53.0271 60.0666 53.0784 59.8394 53.1104C59.6269 53.1429 59.4122 53.1592 59.1972 53.1592H59.1699C58.9456 53.1576 58.7218 53.1389 58.5004 53.1032C58.4113 53.0888 58.3185 53.0725 58.2348 53.0509L57.8328 53.7348L57.1633 54.8699L56.4938 56.0051L55.8316 57.1384L55.1621 58.2735L54.4927 59.4086L53.8305 60.5437L53.1628 61.6788L52.4933 62.8139L51.8238 63.949L51.1562 65.0823L50.7305 65.8041C50.8105 65.8853 50.8869 65.9683 50.9597 66.055L51.1562 65.9449L51.8238 65.5713L52.4933 65.196L53.1628 64.8206L53.8305 64.4489L54.4999 64.0735L55.1694 63.6981L55.8316 63.321L56.4993 62.9456L57.1688 62.5702L57.8382 62.1949L58.5059 61.8195L59.1754 61.4442L59.8449 61.0706L60.5143 60.6952L61.182 60.3199L61.8515 59.9445L62.521 59.5692L63.1886 59.1938L63.8581 58.8203L64.5276 58.4449L64.7732 58.3059C64.4621 57.4096 64.4621 56.4358 64.7732 55.5395L64.5258 55.3283Z" fill="white"/>
<path d="M45.7933 43.923C45.5594 43.8144 45.3353 43.6857 45.1239 43.5386C45.0675 43.4971 45.0111 43.4574 44.9565 43.4141L44.4544 43.8327L43.7867 44.3922L43.1172 44.9516L42.4478 45.511L41.7801 46.0705L41.1106 46.6299L40.4411 47.1893L40.1282 47.451C40.3326 48.0386 40.406 48.6633 40.3431 49.2817C40.2803 49.9002 40.0828 50.4978 39.7644 51.0332C39.5791 51.3451 39.3547 51.6325 39.0967 51.8885C38.9528 52.0344 38.7977 52.169 38.6328 52.291L39.0967 53.076L39.7644 54.2111L40.4339 55.3462L41.1033 56.4813L41.7728 57.6164L42.4405 58.7515L43.11 59.8866L43.7867 61.0217L44.4544 62.1568L45.1239 63.2919L45.7933 64.427L46.0171 64.8114C46.1626 64.7555 46.3118 64.7085 46.4628 64.667C46.5447 64.6454 46.6247 64.6219 46.7084 64.6039V44.2261C46.6247 44.2081 46.5429 44.1882 46.4628 44.1666C46.2332 44.1041 46.0093 44.0226 45.7933 43.923V43.923Z" fill="white"/>
<path d="M51.8163 60.3847L52.4857 59.2496L53.1552 58.1145L53.8229 56.9794L54.4924 55.8461L55.1618 54.711L55.8313 53.5759L56.499 52.4408L56.5899 52.2856L56.499 52.2116C56.2532 52.0185 56.0293 51.7995 55.8313 51.5583C55.5495 51.2158 55.3236 50.8315 55.1618 50.4196C54.7857 49.4667 54.7657 48.4118 55.1054 47.4456L54.4924 46.9403L53.8229 46.3809L53.1552 45.8214L52.4857 45.262L51.8163 44.7026L51.1486 44.1431L50.4791 43.5855L50.2754 43.4141C50.1272 43.5288 49.9717 43.6337 49.8096 43.7281C49.5962 43.8524 49.3721 43.9581 49.1402 44.0439C48.9395 44.1195 48.7333 44.1798 48.5234 44.2243V64.5931C48.7331 64.6384 48.9392 64.6987 49.1402 64.7735L49.2129 64.7988L49.8096 63.7882L50.4791 62.6531L51.1486 61.518L51.8163 60.3847Z" fill="white"/>
<path d="M31.748 40.5908L32.4175 41.7259L33.0851 42.861L33.7546 43.9961L34.3004 44.9111L34.4296 44.8605C34.6463 44.7746 34.8695 44.7058 35.0972 44.6548C35.3176 44.6067 35.5415 44.5753 35.7667 44.561C35.9898 44.5474 36.2136 44.551 36.4362 44.5718C36.6621 44.5916 36.886 44.6297 37.1057 44.6855C37.334 44.7434 37.5573 44.8194 37.7733 44.9129C38.0067 45.0135 38.2307 45.1343 38.4428 45.2738C38.6838 45.4348 38.908 45.6192 39.1123 45.8242L39.1832 45.8928L39.7799 45.3929L40.4494 44.8353L41.1189 44.2758L41.7884 43.7164L42.456 43.157L43.1255 42.5976L43.795 42.0381C43.4569 41.4166 43.28 40.7214 43.2802 40.0151C43.2802 39.9303 43.2802 39.8455 43.2802 39.7625L43.1146 39.7174L42.4451 39.5369L41.7775 39.3565L41.108 39.176L40.4385 38.9955L39.769 38.8151L39.1014 38.6346L38.4319 38.4542L37.7624 38.2737L37.0947 38.0932L36.4253 37.9128L35.7558 37.7323L35.0863 37.5518L34.4186 37.3714L33.7492 37.1909L33.0797 37.0105L32.412 36.83L32.1446 36.7578C32.0296 36.9826 31.8951 37.1969 31.7425 37.3985C31.5469 37.659 31.3223 37.8969 31.0731 38.1077C30.8937 38.2606 30.702 38.3989 30.5 38.5209L31.0731 39.4918L31.748 40.5908Z" fill="white"/>
<path d="M45.7956 31.5385C45.5613 31.4306 45.3372 31.3019 45.1262 31.1541C44.8841 30.9863 44.6598 30.7946 44.4567 30.582C44.3633 30.4846 44.2742 30.3817 44.1893 30.2734L43.789 30.407L43.1195 30.6271L42.4501 30.8491L41.7824 31.0621L41.1129 31.284L40.4434 31.506L39.774 31.7262L39.1063 31.9644L38.4368 32.1845L37.7673 32.4065L37.0942 32.6176L36.4247 32.8396L35.7553 33.0616L35.0931 33.2817L34.4254 33.5037L33.7559 33.7239L33.0919 33.9494L32.5625 34.1299C32.5988 34.3531 32.6171 34.5788 32.6171 34.8048C32.6171 34.868 32.6171 34.9294 32.6171 34.9853L33.0974 35.117L33.7668 35.2975L34.4363 35.478L35.104 35.6584L35.7735 35.8389L36.4429 36.0193L37.1124 36.1998L37.7801 36.3803L38.4496 36.5607L39.119 36.7412L39.7867 36.9216L40.4562 37.1021L41.1257 37.2826L41.7951 37.463L42.4628 37.6435L43.1323 37.824L43.7799 38.0044L43.8018 37.9683C43.9815 37.6315 44.2061 37.3201 44.4694 37.0426C44.6721 36.829 44.8965 36.6367 45.1389 36.4687C45.35 36.3209 45.574 36.1922 45.8084 36.0843C46.0243 35.9847 46.2482 35.9032 46.4779 35.8407C46.5579 35.8172 46.6398 35.7974 46.7235 35.7793V31.8218C46.6398 31.8038 46.5597 31.7803 46.4779 31.7568C46.2447 31.7032 46.0165 31.6301 45.7956 31.5385Z" fill="white"/>
</svg>
