<svg width="124" height="124" viewBox="0 0 124 124" fill="none" xmlns="http://www.w3.org/2000/svg">
<path fill-rule="evenodd" clip-rule="evenodd" d="M12.0002 61.7157C11.9931 67.9608 14.335 73.9719 18.5455 78.5164C18.5778 78.5527 18.6174 78.5819 18.6617 78.6019C18.706 78.622 18.754 78.6326 18.8027 78.6329L21.7453 78.6471C21.8376 78.6476 21.926 78.6844 21.9914 78.7495C25.9352 82.5721 31.1385 84.7618 36.5844 84.8905C42.0303 85.0194 47.3277 83.0782 51.442 79.4461C51.48 79.4138 51.5107 79.3737 51.5319 79.3286C51.5532 79.2835 51.5645 79.2343 51.5651 79.1844C51.5697 79.1324 51.5629 79.0799 51.545 79.0308C51.5271 78.9817 51.4987 78.9371 51.4616 78.9002L49.9776 77.3933C49.914 77.3279 49.8276 77.2896 49.7364 77.2863C49.6453 77.2833 49.5565 77.3155 49.4885 77.3762C45.921 80.5224 41.3913 82.3123 36.6716 82.4408C31.952 82.5695 27.3346 81.0287 23.6067 78.0812C23.5461 78.0312 23.4699 78.004 23.3914 78.0044L20.4124 77.9705C20.3639 77.9708 20.3159 77.9608 20.2716 77.9412C20.2273 77.9216 20.1876 77.8928 20.1552 77.8568L20.0938 77.7885C16.5827 73.7109 14.5982 68.5038 14.4893 63.0842C14.3804 57.6643 16.1542 52.3793 19.4984 48.159C19.5314 48.1158 19.5738 48.081 19.6223 48.0572C19.6707 48.0336 19.7241 48.0217 19.7778 48.0227H22.458C22.5052 48.0231 22.5519 48.0138 22.5952 47.9951C22.6385 47.9765 22.6774 47.9491 22.7096 47.9146L23.2126 47.4198C26.8179 44.0226 31.5076 42.0636 36.4189 41.9026C41.3307 41.7418 46.1341 43.3899 49.9469 46.5441C50.0155 46.5999 50.1024 46.6282 50.1908 46.6235C50.2791 46.6188 50.3626 46.5814 50.4249 46.5186L51.0089 45.9243C51.0439 45.8899 51.0714 45.8487 51.0896 45.8031C51.1079 45.7576 51.1166 45.7088 51.1152 45.6598C51.1144 45.6112 51.1038 45.5633 51.0841 45.5189C51.0644 45.4744 51.0359 45.4344 51.0004 45.4012C46.9505 41.5778 41.6297 39.4531 36.1046 39.4531C30.5797 39.4531 25.2589 41.5778 21.2087 45.4012L20.091 46.5386C20.0583 46.5724 20.0192 46.5993 19.976 46.6178C19.9328 46.6363 19.8864 46.6461 19.8394 46.6465L17.2319 46.6722C17.1775 46.6714 17.1237 46.6839 17.0752 46.7085C17.0267 46.7334 16.9845 46.7695 16.9526 46.8142C13.7378 51.0875 12.0002 56.3205 12.0085 61.7017L12 61.7159L12.0002 61.7157ZM20.9043 61.7157C20.8988 58.208 22.0689 54.8031 24.2215 52.0629C24.2546 52.0201 24.2971 51.9855 24.3457 51.9617C24.3942 51.938 24.4473 51.9259 24.5011 51.9263L27.209 51.9689C27.2569 51.971 27.3047 51.9627 27.349 51.9445C27.3934 51.9264 27.4334 51.8989 27.4661 51.8639L27.5053 51.8241L27.5221 51.8069C29.8918 49.6809 32.9419 48.5061 36.1015 48.5031C39.2612 48.4998 42.3135 49.6685 44.6872 51.79C44.7252 51.8217 44.7559 51.8617 44.7771 51.9069C44.7984 51.952 44.8097 52.0015 44.8103 52.0516C44.8122 52.1011 44.8037 52.1504 44.7854 52.1965C44.7671 52.2425 44.7394 52.2842 44.704 52.3188L44.0697 52.9641C44.0115 53.0247 43.9334 53.0623 43.8498 53.0701C43.7662 53.078 43.6825 53.0555 43.6141 53.0067C41.6272 51.6108 39.2587 50.8871 36.8448 50.938C34.4308 50.9891 32.0938 51.8124 30.166 53.2912C30.102 53.3406 30.0231 53.3667 29.9423 53.3651L27.0694 53.2768C27.0164 53.2744 26.9636 53.2844 26.9152 53.3061C26.8667 53.3279 26.8237 53.3607 26.79 53.4021C24.652 55.8694 23.4397 59.026 23.3671 62.3145C23.2944 65.6028 24.3661 68.8115 26.393 71.3741L27.4829 72.5939C27.5187 72.6357 27.5642 72.6681 27.6153 72.6884C27.6664 72.7087 27.7217 72.7163 27.7764 72.7105L31.3258 72.3977C31.385 72.3915 31.4447 72.4013 31.4989 72.426C33.3888 73.2686 35.4736 73.577 37.5266 73.3175C39.5781 73.0579 41.5228 72.2402 43.1557 70.9505C43.2241 70.8958 43.3104 70.8687 43.3977 70.8743C43.4848 70.8802 43.5668 70.9183 43.628 70.9818L45.1147 72.4887C45.1519 72.5254 45.1805 72.57 45.1984 72.6192C45.2163 72.6683 45.223 72.7208 45.2182 72.7729C45.2161 72.8246 45.2028 72.8753 45.1792 72.921C45.1556 72.9666 45.1221 73.0063 45.0812 73.0373C42.8587 74.8034 40.1321 75.7862 37.3125 75.8376C34.493 75.8887 31.7334 75.0058 29.4504 73.3218C29.3887 73.2745 29.3129 73.2495 29.2352 73.2507L26.1807 73.2961C26.0891 73.2977 26.0007 73.263 25.9346 73.1996L25.2585 72.5683H25.2443C22.4508 69.6761 20.8877 65.782 20.893 61.727L20.9043 61.7157ZM16.4521 61.7157C16.4453 57.271 17.8992 52.9516 20.5829 49.4443C20.615 49.4005 20.6571 49.365 20.7057 49.3408C20.7543 49.3165 20.808 49.3042 20.8623 49.3049H23.5201C23.5674 49.3062 23.6146 49.2975 23.6584 49.2794C23.7022 49.2613 23.7417 49.2342 23.7744 49.1998L24.3556 48.6055L24.3698 48.5914C27.5807 45.6188 31.766 43.9719 36.1074 43.9719C40.4488 43.9719 44.6341 45.619 47.8452 48.5914C47.8816 48.6243 47.9107 48.6645 47.9309 48.7095C47.9511 48.7546 47.9618 48.8035 47.9626 48.853C47.9643 48.9017 47.956 48.9503 47.9382 48.9958C47.9204 49.0412 47.8935 49.0826 47.8592 49.1172L47.2555 49.7314C47.1947 49.7934 47.113 49.8306 47.0262 49.8358C46.9395 49.841 46.8539 49.8139 46.786 49.7596C43.824 47.4526 40.161 46.2748 36.4337 46.4303C32.7064 46.5863 29.1506 48.0663 26.3847 50.6128L26.3203 50.6782L23.4306 50.6469C23.3772 50.6456 23.3243 50.6566 23.276 50.6792C23.2275 50.7021 23.1849 50.7358 23.1512 50.7778C20.4087 54.1209 18.9148 58.3419 18.9328 62.6963C18.9505 67.0506 20.4792 71.2587 23.2489 74.5784L23.8302 75.2153C23.8647 75.2549 23.9078 75.286 23.9563 75.3062C24.0047 75.3265 24.0572 75.3352 24.1096 75.3319L27.2651 75.2608C27.3362 75.2578 27.4065 75.2776 27.4661 75.3178C30.3211 77.2004 33.6934 78.1038 37.0894 77.8955C40.4856 77.6875 43.727 76.3784 46.339 74.1606C46.4071 74.1029 46.4946 74.0732 46.5837 74.0774C46.6729 74.0816 46.7572 74.1194 46.8196 74.1832L48.3065 75.6901C48.3436 75.7269 48.3722 75.7715 48.39 75.8207C48.4079 75.8699 48.4146 75.9224 48.4097 75.9745C48.4083 76.0252 48.3961 76.075 48.374 76.1206C48.3518 76.1662 48.3202 76.2066 48.2812 76.239C45.1078 78.9347 41.0965 80.3964 36.9624 80.3636C32.8284 80.3309 28.8399 78.8057 25.7084 76.0598C25.6442 76.0015 25.5602 75.97 25.4736 75.9717H22.4748C22.4297 75.972 22.385 75.9634 22.3433 75.9463C22.3016 75.9292 22.2637 75.904 22.2318 75.8721L22.117 75.764C18.4802 72.0254 16.4439 66.9755 16.4523 61.7157H16.4521Z" fill="white"/>
<path fill-rule="evenodd" clip-rule="evenodd" d="M36.0598 67.6074C35.0489 67.6242 34.0501 67.3856 33.156 66.9136C32.3162 66.4677 31.6167 65.7974 31.1353 64.9775C30.6531 64.1188 30.4 63.1504 30.4004 62.1655C30.3999 61.1806 30.653 60.2121 31.1353 59.3534C31.6184 58.5347 32.3174 57.8649 33.156 57.4172C34.0501 56.9453 35.0489 56.7067 36.0598 56.7235C36.9331 56.7106 37.7991 56.8842 38.6 57.2326C39.3387 57.5585 39.9856 58.0614 40.4837 58.6968L38.6309 60.4027C38.3488 60.0224 37.9821 59.7129 37.5598 59.4986C37.1399 59.2858 36.6758 59.1747 36.2051 59.1744C35.6831 59.165 35.1681 59.2945 34.7127 59.5498C34.2794 59.7946 33.9276 60.1614 33.701 60.6045C33.4632 61.0915 33.3396 61.6264 33.3398 62.1684C33.3398 62.711 33.4634 63.2463 33.701 63.7322C33.928 64.1743 34.2798 64.5401 34.7127 64.7841C35.1681 65.0393 35.6831 65.1689 36.2051 65.1595C36.6755 65.1589 37.1392 65.0481 37.559 64.8358C37.9812 64.6221 38.3481 64.3134 38.6309 63.934L40.4837 65.6399C39.9857 66.2761 39.3388 66.78 38.6 67.107C37.7985 67.4524 36.9325 67.623 36.0598 67.6074ZM45.9086 64.6221H44.3211V67.4027H41.4118V56.9368H46.1124C46.9453 56.9171 47.7727 57.0771 48.5383 57.4059C49.1887 57.6888 49.741 58.1577 50.1257 58.7536C50.5072 59.3703 50.7013 60.0845 50.6845 60.8094C50.7034 61.5089 50.5221 62.1994 50.1621 62.7995C49.8022 63.3754 49.2841 63.8354 48.6696 64.1245L50.8914 67.414H47.7754L45.9086 64.6334V64.6221ZM47.7445 60.8094C47.757 60.5973 47.7226 60.3851 47.6437 60.1879C47.5653 59.9917 47.4441 59.8154 47.289 59.672C46.903 59.3758 46.4216 59.2321 45.9364 59.2683H44.3211V62.3332H45.9336C46.4174 62.3691 46.8979 62.2288 47.2863 61.9381C47.4418 61.7965 47.5634 61.6218 47.6423 61.4269C47.7218 61.2312 47.7567 61.0203 47.7445 60.8094Z" fill="white"/>
<path d="M54.8312 56.9336H51.9219V67.3995H54.8312V56.9336Z" fill="white"/>
<path fill-rule="evenodd" clip-rule="evenodd" d="M58.7283 59.2798H55.5703V56.9313H64.7845V59.2798H61.6376V67.3972H58.7283V59.2798ZM73.7668 65.1113V67.3972H65.5055V56.9313H73.5738V59.2202H68.3869V60.9828H72.9563V63.1949H68.3869V65.1113H73.7668ZM79.5125 64.6166H77.9252V67.3972H75.0159V56.9313H79.7193C80.5522 56.9119 81.3796 57.0719 82.1452 57.4004C82.618 57.6273 83.0379 57.9509 83.3777 58.3503C83.7199 58.7522 83.975 59.2206 84.1272 59.726C84.28 60.2329 84.327 60.7657 84.2654 61.2915C84.2037 61.8173 84.0347 62.3248 83.7688 62.7826C83.4077 63.3574 82.89 63.8171 82.2765 64.1077L84.5012 67.3972H81.3793L79.5125 64.6166ZM81.3515 60.8038C81.364 60.5918 81.3295 60.3796 81.2507 60.1824C81.1723 59.9862 81.0511 59.8099 80.8959 59.6664C80.51 59.3702 80.0285 59.2266 79.5434 59.2628H77.9252V62.3277H79.5434C80.0271 62.3635 80.5075 62.2232 80.8959 61.9325C81.0499 61.7899 81.1704 61.615 81.2488 61.4204C81.3276 61.2248 81.3627 61.0144 81.3515 60.8038Z" fill="white"/>
<path d="M88.4347 56.9336H85.5254V67.3995H88.4347V56.9336Z" fill="white"/>
<path fill-rule="evenodd" clip-rule="evenodd" d="M95.3302 67.6072C94.3094 67.6237 93.301 67.3822 92.3985 66.9049C91.5451 66.4487 90.833 65.7674 90.3395 64.935C89.8419 64.0968 89.5796 63.14 89.5801 62.1653C89.5801 61.1887 89.8427 60.231 90.3395 59.3956C90.833 58.5632 91.5451 57.882 92.3985 57.4257C93.3077 56.9639 94.313 56.723 95.3328 56.7227C96.3527 56.723 97.3581 56.9638 98.2674 57.4257C99.1207 57.8819 99.8328 58.5631 100.326 59.3954C100.824 60.2336 101.086 61.1905 101.086 62.1653C101.086 63.1417 100.823 64.0997 100.326 64.935C99.8329 65.7674 99.1208 66.4487 98.2674 66.9049C97.364 67.3826 96.3546 67.6242 95.3328 67.6072H95.3302ZM95.3302 65.1564C95.8214 65.1604 96.3044 65.0307 96.7274 64.7811C97.1519 64.5298 97.4983 64.1657 97.728 63.7292C97.9695 63.2432 98.095 62.7079 98.0949 62.1653C98.0949 61.6219 97.9692 61.0863 97.728 60.6015C97.4991 60.1636 97.1525 59.7984 96.7274 59.5467C96.2981 59.3009 95.8121 59.1715 95.3175 59.1714C94.8237 59.1714 94.3381 59.3006 93.9076 59.5467C93.4825 59.7984 93.1361 60.1637 92.9072 60.6015C92.6639 61.0869 92.5373 61.6224 92.5375 62.1653C92.5375 62.7089 92.6641 63.2449 92.9072 63.7292C93.1368 64.1657 93.4831 64.5298 93.9076 64.7811C94.3377 65.0362 94.8302 65.1671 95.3302 65.1593V65.1564ZM112.001 56.9366V67.4025H109.606L105.064 61.8269V67.4025H102.211V56.9366H104.609L109.15 62.515V56.9366H112.001Z" fill="white"/>
</svg>
