<svg width="96" height="96" viewBox="0 0 96 96" fill="none" xmlns="http://www.w3.org/2000/svg">
<path fill-rule="evenodd" clip-rule="evenodd" d="M9.28922 47.7824C9.28374 52.6173 11.0968 57.2711 14.3565 60.7894C14.3816 60.8175 14.4122 60.8401 14.4465 60.8556C14.4808 60.8712 14.518 60.8794 14.5556 60.8796L16.8338 60.8906C16.9053 60.891 16.9737 60.9195 17.0243 60.9699C20.0776 63.9293 24.106 65.6246 28.3221 65.7242C32.5383 65.824 36.6395 64.3211 39.8248 61.5092C39.8543 61.4842 39.878 61.4532 39.8944 61.4182C39.9109 61.3833 39.9196 61.3452 39.9201 61.3066C39.9237 61.2663 39.9184 61.2257 39.9045 61.1877C39.8907 61.1496 39.8687 61.1151 39.84 61.0866L38.6911 59.9199C38.6418 59.8693 38.5749 59.8396 38.5043 59.837C38.4338 59.8348 38.3651 59.8597 38.3124 59.9066C35.5505 62.3425 32.0436 63.7282 28.3897 63.8277C24.7358 63.9273 21.161 62.7344 18.2749 60.4525C18.228 60.4138 18.169 60.3927 18.1082 60.3931L15.8019 60.3668C15.7643 60.367 15.7272 60.3593 15.6929 60.3441C15.6586 60.3289 15.6278 60.3066 15.6028 60.2787L15.5552 60.2259C12.8369 57.069 11.3006 53.0377 11.2163 48.8419C11.132 44.6459 12.5052 40.5542 15.0943 37.2869C15.1198 37.2535 15.1526 37.2266 15.1902 37.2081C15.2277 37.1898 15.269 37.1806 15.3106 37.1814H17.3856C17.4221 37.1817 17.4583 37.1745 17.4918 37.1601C17.5253 37.1456 17.5555 37.1244 17.5803 37.0977L17.9698 36.7146C20.761 34.0846 24.3917 32.5679 28.194 32.4433C31.9967 32.3188 35.7155 33.5947 38.6673 36.0366C38.7204 36.0799 38.7877 36.1018 38.8561 36.0982C38.9245 36.0945 38.9891 36.0656 39.0373 36.0169L39.4895 35.5568C39.5166 35.5302 39.5379 35.4983 39.552 35.463C39.5662 35.4278 39.5729 35.39 39.5718 35.3521C39.5712 35.3144 39.563 35.2773 39.5477 35.2429C39.5325 35.2085 39.5104 35.1776 39.4829 35.1519C36.3475 32.1918 32.2281 30.5469 27.9507 30.5469C23.6733 30.5469 19.554 32.1918 16.4184 35.1519L15.553 36.0324C15.5277 36.0586 15.4975 36.0794 15.4641 36.0937C15.4306 36.1081 15.3947 36.1156 15.3583 36.1159L13.3396 36.1358C13.2975 36.1352 13.2558 36.1449 13.2182 36.164C13.1807 36.1832 13.148 36.2112 13.1233 36.2458C10.6344 39.5542 9.28922 43.6055 9.29563 47.7716L9.28906 47.7825L9.28922 47.7824ZM16.1827 47.7824C16.1785 45.0668 17.0844 42.4307 18.7509 40.3093C18.7765 40.2761 18.8094 40.2493 18.847 40.2309C18.8846 40.2126 18.9257 40.2032 18.9673 40.2035L21.0637 40.2365C21.1008 40.2381 21.1378 40.2317 21.1722 40.2177C21.2066 40.2036 21.2375 40.1823 21.2628 40.1552L21.2932 40.1244L21.3062 40.1111C23.1408 38.4651 25.5022 37.5556 27.9483 37.5533C30.3945 37.5508 32.7576 38.4556 34.5953 40.098C34.6247 40.1225 34.6485 40.1535 34.6649 40.1885C34.6813 40.2234 34.6901 40.2617 34.6906 40.3005C34.692 40.3388 34.6855 40.377 34.6713 40.4127C34.6572 40.4483 34.6357 40.4806 34.6083 40.5074L34.1172 41.007C34.0721 41.0539 34.0117 41.083 33.947 41.0891C33.8822 41.0951 33.8175 41.0777 33.7645 41.04C32.2263 39.9592 30.3926 39.399 28.5237 39.4384C26.6549 39.478 24.8456 40.1153 23.353 41.2602C23.3035 41.2985 23.2424 41.3187 23.1799 41.3175L20.9557 41.2491C20.9147 41.2472 20.8738 41.255 20.8363 41.2718C20.7988 41.2887 20.7655 41.314 20.7394 41.3461C19.0841 43.2562 18.1456 45.7 18.0894 48.246C18.0331 50.7918 18.8628 53.2759 20.432 55.2599L21.2758 56.2043C21.3036 56.2366 21.3387 56.2617 21.3783 56.2774C21.4179 56.2931 21.4607 56.299 21.5031 56.2945L24.2509 56.0524C24.2968 56.0476 24.3431 56.0551 24.385 56.0743C25.8482 56.7266 27.4622 56.9654 29.0516 56.7645C30.6399 56.5635 32.1454 55.9304 33.4096 54.9319C33.4626 54.8896 33.5294 54.8686 33.597 54.8729C33.6644 54.8775 33.7279 54.907 33.7753 54.9562L34.9263 56.1228C34.9551 56.1512 34.9772 56.1857 34.991 56.2238C35.0049 56.2619 35.0101 56.3025 35.0063 56.3428C35.0048 56.3829 34.9945 56.4221 34.9762 56.4575C34.9579 56.4928 34.932 56.5235 34.9003 56.5476C33.1797 57.9148 31.0687 58.6757 28.8858 58.7155C26.703 58.755 24.5666 58.0716 22.799 56.7678C22.7513 56.7312 22.6926 56.7118 22.6325 56.7127L20.2677 56.7479C20.1968 56.7491 20.1283 56.7223 20.0772 56.6732L19.5537 56.1844H19.5427C17.38 53.9453 16.1699 50.9305 16.1739 47.7912L16.1827 47.7824V47.7824ZM12.7359 47.7824C12.7306 44.3414 13.8562 40.9973 15.9339 38.282C15.9587 38.2481 15.9913 38.2206 16.029 38.2018C16.0666 38.1831 16.1081 38.1735 16.1502 38.1741H18.2078C18.2445 38.175 18.281 38.1683 18.3149 38.1543C18.3488 38.1403 18.3794 38.1193 18.4047 38.0927L18.8547 37.6326L18.8657 37.6216C21.3515 35.3203 24.5917 34.0453 27.9529 34.0453C31.314 34.0453 34.5542 35.3205 37.0402 37.6216C37.0684 37.6471 37.0909 37.6783 37.1065 37.7131C37.1222 37.748 37.1305 37.7859 37.1311 37.8242C37.1324 37.8619 37.126 37.8996 37.1122 37.9347C37.0984 37.9699 37.0776 38.0019 37.051 38.0288L36.5837 38.5042C36.5365 38.5522 36.4733 38.581 36.4061 38.5851C36.339 38.5891 36.2727 38.5681 36.2202 38.5261C33.927 36.74 31.0911 35.8282 28.2054 35.9486C25.3198 36.0693 22.5669 37.2151 20.4256 39.1866L20.3757 39.2373L18.1385 39.213C18.0972 39.212 18.0563 39.2206 18.0189 39.2381C17.9813 39.2557 17.9483 39.2819 17.9222 39.3144C15.799 41.9026 14.6424 45.1705 14.6564 48.5416C14.6701 51.9127 15.8536 55.1706 17.9979 57.7406L18.4479 58.2337C18.4746 58.2644 18.508 58.2885 18.5455 58.3041C18.583 58.3198 18.6236 58.3266 18.6642 58.324L21.1072 58.2689C21.1623 58.2666 21.2167 58.2819 21.2628 58.313C23.4731 59.7706 26.084 60.47 28.7131 60.3088C31.3424 60.1477 33.8519 59.1342 35.8741 57.4172C35.9268 57.3725 35.9945 57.3495 36.0636 57.3527C36.1326 57.356 36.1978 57.3853 36.2462 57.4347L37.3973 58.6013C37.4261 58.6298 37.4482 58.6643 37.462 58.7024C37.4758 58.7405 37.481 58.7812 37.4772 58.8215C37.4761 58.8608 37.4667 58.8993 37.4496 58.9346C37.4324 58.9699 37.4079 59.0012 37.3777 59.0262C34.9209 61.1133 31.8154 62.2449 28.6148 62.2195C25.4143 62.1942 22.3264 61.0134 19.902 58.8875C19.8523 58.8424 19.7873 58.818 19.7202 58.8193H17.3986C17.3637 58.8196 17.3291 58.8129 17.2968 58.7996C17.2645 58.7864 17.2351 58.7669 17.2104 58.7422L17.1216 58.6585C14.306 55.7641 12.7295 51.8545 12.736 47.7824H12.7359Z" fill="white"/>
<path fill-rule="evenodd" clip-rule="evenodd" d="M27.9166 52.3409C27.134 52.354 26.3607 52.1692 25.6685 51.8039C25.0184 51.4586 24.4768 50.9397 24.1042 50.3049C23.7308 49.6401 23.5348 48.8904 23.5352 48.1279C23.5348 47.3654 23.7308 46.6156 24.1042 45.9508C24.4781 45.317 25.0193 44.7984 25.6685 44.4518C26.3608 44.0865 27.134 43.9017 27.9166 43.9147C28.5928 43.9048 29.2632 44.0391 29.8833 44.3088C30.4551 44.5612 30.956 44.9505 31.3416 45.4425L29.9072 46.7631C29.6887 46.4687 29.4048 46.2291 29.0779 46.0632C28.7529 45.8984 28.3936 45.8125 28.0291 45.8122C27.625 45.8049 27.2263 45.9052 26.8737 46.1028C26.5383 46.2923 26.2659 46.5763 26.0905 46.9194C25.9063 47.2964 25.8107 47.7105 25.8108 48.1301C25.8108 48.5502 25.9065 48.9647 26.0905 49.3408C26.2662 49.6831 26.5386 49.9663 26.8737 50.1552C27.2263 50.3528 27.625 50.4531 28.0291 50.4458C28.3933 50.4454 28.7523 50.3596 29.0773 50.1952C29.4042 50.0297 29.6882 49.7908 29.9072 49.4971L31.3416 50.8177C30.9561 51.3103 30.4552 51.7004 29.8833 51.9535C29.2627 52.221 28.5923 52.3531 27.9166 52.3409V52.3409ZM35.5415 50.0298H34.3125V52.1825H32.0601V44.0799H35.6993C36.3441 44.0646 36.9847 44.1885 37.5774 44.443C38.0809 44.6621 38.5085 45.0251 38.8064 45.4864C39.1017 45.9638 39.252 46.5167 39.239 47.078C39.2536 47.6196 39.1133 48.1541 38.8346 48.6187C38.5559 49.0646 38.1548 49.4207 37.679 49.6445L39.3992 52.1913H36.9868L35.5415 50.0385V50.0298V50.0298ZM36.9629 47.078C36.9726 46.9138 36.9459 46.7495 36.8848 46.5969C36.8241 46.4449 36.7303 46.3085 36.6102 46.1974C36.3114 45.9681 35.9386 45.8569 35.5631 45.8849H34.3125V48.2577H35.5609C35.9354 48.2855 36.3074 48.1769 36.6081 47.9518C36.7285 47.8422 36.8227 47.707 36.8837 47.5561C36.9452 47.4046 36.9723 47.2412 36.9629 47.078V47.078Z" fill="white"/>
<path d="M42.4477 44.082H40.1953V52.1847H42.4477V44.082Z" fill="white"/>
<path fill-rule="evenodd" clip-rule="evenodd" d="M45.4644 45.8975H43.0195V44.0793H50.1531V45.8975H47.7168V52.182H45.4644V45.8975ZM57.1071 50.4123V52.182H50.7113V44.0793H56.9577V45.8514H52.9421V47.216H56.4796V48.9286H52.9421V50.4123H57.1071V50.4123ZM61.5554 50.0292H60.3265V52.182H58.0742V44.0793H61.7155C62.3604 44.0643 63.0009 44.1882 63.5936 44.4425C63.9597 44.6182 64.2847 44.8687 64.5479 45.1779C64.8127 45.4891 65.0103 45.8517 65.1281 46.243C65.2464 46.6354 65.2828 47.048 65.235 47.455C65.1873 47.8621 65.0565 48.255 64.8507 48.6094C64.5711 49.0544 64.1702 49.4103 63.6953 49.6353L65.4176 52.182H63.0007L61.5554 50.0292V50.0292ZM62.9791 47.0774C62.9888 46.9133 62.9622 46.749 62.9011 46.5963C62.8404 46.4444 62.7466 46.308 62.6264 46.1969C62.3277 45.9676 61.9549 45.8563 61.5793 45.8844H60.3265V48.2572H61.5793C61.9538 48.285 62.3258 48.1763 62.6264 47.9513C62.7456 47.8409 62.8389 47.7055 62.8997 47.5548C62.9607 47.4034 62.9878 47.2404 62.9791 47.0774V47.0774Z" fill="white"/>
<path d="M68.4633 44.082H66.2109V52.1847H68.4633V44.082Z" fill="white"/>
<path fill-rule="evenodd" clip-rule="evenodd" d="M73.8033 52.3408C73.013 52.3536 72.2323 52.1666 71.5335 51.7971C70.8729 51.4439 70.3216 50.9165 69.9395 50.272C69.5543 49.6231 69.3512 48.8824 69.3516 48.1277C69.3516 47.3717 69.5549 46.6302 69.9395 45.9834C70.3216 45.339 70.8729 44.8116 71.5335 44.4583C72.2375 44.1008 73.0158 43.9143 73.8053 43.9141C74.5949 43.9143 75.3733 44.1008 76.0772 44.4583C76.7379 44.8115 77.2892 45.3389 77.6713 45.9833C78.0565 46.6322 78.2596 47.3731 78.2592 48.1277C78.2592 48.8836 78.0559 49.6253 77.6713 50.272C77.2892 50.9165 76.7379 51.4439 76.0772 51.7971C75.3779 52.1669 74.5963 52.3539 73.8053 52.3408H73.8033V52.3408ZM73.8033 50.4434C74.1835 50.4465 74.5575 50.3461 74.885 50.1528C75.2136 49.9583 75.4818 49.6764 75.6596 49.3385C75.8466 48.9622 75.9438 48.5478 75.9437 48.1277C75.9437 47.707 75.8464 47.2924 75.6596 46.917C75.4824 46.5781 75.2141 46.2953 74.885 46.1004C74.5526 45.9102 74.1764 45.81 73.7934 45.8098C73.4112 45.8098 73.0352 45.9099 72.7019 46.1004C72.3728 46.2953 72.1046 46.5781 71.9274 46.917C71.739 47.2928 71.641 47.7074 71.6412 48.1277C71.6412 48.5486 71.7392 48.9636 71.9274 49.3385C72.1052 49.6764 72.3733 49.9583 72.7019 50.1528C73.0349 50.3504 73.4161 50.4517 73.8033 50.4456V50.4434ZM86.7094 44.0797V52.1823H84.8552L81.3393 47.8658V52.1823H79.1302V44.0797H80.9866L84.5025 48.3985V44.0797H86.7094Z" fill="white"/>
</svg>
