<svg width="96" height="96" viewBox="0 0 96 96" fill="none" xmlns="http://www.w3.org/2000/svg">
<path d="M69.8971 48.4046C69.8971 36.3243 60.1026 26.5312 48.0237 26.5312C35.9407 26.5312 26.1484 36.3243 26.1484 48.4046C26.1484 58.7627 33.3532 67.4283 43.0228 69.69C42.9645 69.598 42.9254 69.4937 42.9089 69.3845C34.8574 66.677 29.0533 59.0778 29.0533 50.1132C29.0533 38.8819 38.1583 29.7762 49.3896 29.7762C60.6208 29.7762 69.7258 38.8819 69.7258 50.1132C69.7258 50.5862 69.7055 51.0527 69.6733 51.5177C69.817 50.4996 69.8971 49.4623 69.8971 48.4046Z" fill="white"/>
<path fill-rule="evenodd" clip-rule="evenodd" d="M60.8362 55.9911C60.6484 55.4387 60.1834 55.1286 59.7725 54.7828C59.4482 54.5079 59.0687 54.299 58.716 54.0552C58.6163 53.9832 58.4921 53.8785 58.5228 53.7654C58.5573 53.647 58.6957 53.5849 58.8344 53.5504C59.1894 53.4614 59.5455 53.399 59.9128 53.3955C59.9538 53.3955 60.0086 53.4135 60.0251 53.3522C60.0416 53.2981 59.9929 53.2667 59.9576 53.246C59.6191 53.0298 59.2665 52.8374 58.8758 52.7258C58.1391 52.5131 57.3943 52.502 56.6418 52.5506C56.6276 52.6066 56.5946 52.6158 56.5601 52.6135C56.5908 52.6097 56.6192 52.5924 56.6418 52.5506C56.585 52.5303 56.5011 52.612 56.4739 52.502C57.231 51.9967 57.9317 51.4179 58.5964 50.7904C59.3504 50.0785 60.0458 49.3161 60.5326 48.3892C60.6675 48.1316 60.7653 47.8709 60.8446 47.5493C60.5468 47.759 60.2405 47.7536 59.9618 47.8353C59.2626 48.0403 58.5799 47.5186 58.5289 46.7922C58.4591 45.7986 58.8045 44.9039 59.1622 44.0146C59.3443 43.5737 59.5881 43.1574 59.8802 42.7216C59.764 42.7404 59.7027 42.7193 59.6272 42.7523C58.8364 43.0815 58.0946 43.4963 57.3939 43.9862C56.8959 44.3373 56.4677 44.7805 55.9483 45.1017C55.6167 45.3076 55.4998 45.2681 55.3672 44.9054C55.2322 44.5409 55.225 44.1484 55.1372 43.7673C54.1812 44.6486 53.5812 45.7334 53.1979 46.9551C53.0354 47.4807 52.7728 47.9526 52.3032 48.278C52.197 48.3505 52.197 48.3512 52.161 48.2719C51.9325 47.7958 51.7895 47.2994 51.7658 46.7723C51.7432 46.2835 51.7267 45.7998 51.7447 45.3102C51.7658 44.8004 51.7102 44.2852 51.6856 43.7731C51.6573 43.172 51.527 42.5924 51.3292 42.0285C51.2191 41.7081 51.1248 41.3757 50.9278 41.0418C50.8603 41.3151 50.7764 41.529 50.6629 41.7291C50.5019 42.012 50.2938 42.2098 49.9388 42.2279C49.5233 42.2489 49.1825 42.0738 48.8547 41.8595C48.3188 41.5091 47.8516 41.0748 47.4203 40.6048C46.996 40.1444 46.5862 39.6733 46.2028 39.1777C45.9828 38.8982 45.752 38.6245 45.5546 38.3255C45.5286 38.283 45.4918 38.2266 45.4327 38.2462C45.3572 38.2707 45.3902 38.3443 45.402 38.3892C45.4388 38.5525 45.3714 38.705 45.3618 38.8637C45.3334 39.2731 45.3108 39.6864 45.2391 40.09C45.1372 40.6911 45.0498 41.2948 44.8968 41.884C44.7335 42.5138 44.5135 43.1103 44.1505 43.6474C43.9186 43.9908 43.4827 44.1303 43.0783 44.0134C42.8134 43.9356 42.6225 43.7478 42.4285 43.5672C42.3917 43.5327 42.3572 43.4676 42.2959 43.5082C42.2346 43.5427 42.2591 43.6251 42.2771 43.655C42.3894 43.8183 42.3572 44.0138 42.3933 44.1898C42.5408 44.9265 42.8096 45.6154 43.1458 46.2839C43.6004 47.1771 44.2448 47.9541 44.6852 48.8526C44.9171 49.3249 45.1111 49.8094 45.0946 50.3756C44.9823 50.2476 44.8543 50.3112 44.7458 50.2886C44.0592 50.1525 43.5598 49.709 43.0499 49.2935C42.2284 48.6249 41.2851 48.2332 40.288 47.9392C40.2489 47.9288 40.1922 47.9338 40.1661 47.9564C40.1212 48.002 40.1864 48.0304 40.2006 48.0664C40.3233 48.3509 40.4433 48.6311 40.5533 48.9163C40.7081 49.3222 40.5659 49.5564 40.1707 49.5281C40.0339 49.5177 39.887 49.5139 39.7544 49.4855C39.0931 49.3464 38.4231 49.2751 37.7553 49.2662C36.9982 49.2528 36.2339 49.2797 35.4883 49.4798C35.5902 49.5668 35.7183 49.5545 35.8229 49.6093C36.7498 50.0965 37.5897 50.7034 38.3169 51.4585C38.5496 51.7012 38.7758 51.9661 38.9084 52.2792C39.1204 52.7764 39.1629 53.1747 38.6884 53.5918C38.32 53.9161 37.8565 54.0177 37.3593 54.1472C37.9589 54.6728 38.6335 54.9963 39.3492 55.2478C40.0687 55.5046 40.8063 55.6679 41.558 55.814C42.3009 55.9554 43.0522 55.9892 43.8354 56.1061C42.7302 56.5343 41.3176 57.6394 41.1444 58.6376C41.5315 58.4421 41.9206 58.2753 42.325 58.1427C42.5121 58.0791 42.7076 58.1772 42.6831 58.3202C42.6628 58.4279 42.6428 58.5395 42.5953 58.6376C42.3572 59.1467 42.1081 59.6527 41.9574 60.1962C41.8555 60.5585 41.7477 60.9253 41.8842 61.3225C41.9432 61.4976 41.9659 61.4616 42.0901 61.3957C42.5911 61.1239 43.0909 60.846 43.6061 60.6118C44.0044 60.4304 44.3931 60.2016 44.8581 60.2173C45.0923 60.2261 45.1905 60.3208 45.2211 60.5504C45.2759 60.9571 45.1655 61.3501 45.1575 61.7468C45.1678 61.7886 45.1372 61.8553 45.2188 61.8553C45.4151 61.692 45.6179 61.5371 45.8 61.3619C46.6805 60.509 47.3693 59.497 48.0888 58.513C48.6742 57.7095 49.3914 57.1138 50.3881 56.8927C50.5027 56.8674 50.4759 56.8723 50.5107 56.964C50.7427 57.5114 50.8446 58.0856 50.8979 58.6621C50.9727 59.4863 51.0156 60.3181 50.8649 61.1538C50.7488 61.7714 50.561 62.354 50.3087 62.9072C50.421 62.8286 50.5537 62.7695 50.7266 62.7695C51.2034 62.7695 51.4438 63.1326 51.4564 63.5033C51.7064 62.7105 51.8068 61.8883 51.8398 61.0541C51.8616 60.4918 51.7677 59.9363 51.7048 59.377C51.6703 59.0761 51.6186 58.7683 51.5515 58.4728C51.4235 57.9181 51.2709 57.3699 51.0991 56.8302C51.0589 56.6945 51.1321 56.6588 51.195 56.6423C51.8884 56.4836 52.5735 56.4123 53.2845 56.5975C54.287 56.8582 55.1901 57.3642 56.1641 57.6965C56.9009 57.9487 57.6526 58.1239 58.4415 58.2612C58.1705 57.8778 57.8098 57.588 57.612 57.1825C57.4606 56.8762 57.5491 56.6711 57.8359 56.5542C58.2798 56.3694 58.7447 56.3594 59.1971 56.3004C59.6889 56.2352 60.1884 56.2398 60.6817 56.2291C60.8742 56.2207 60.8952 56.1705 60.8362 55.9911Z" fill="white"/>
<path fill-rule="evenodd" clip-rule="evenodd" d="M56.3906 52.5724C56.3906 52.549 56.4071 52.529 56.4309 52.5156C56.4109 52.5287 56.3991 52.5467 56.3906 52.5724Z" fill="white"/>
<path fill-rule="evenodd" clip-rule="evenodd" d="M56.4062 52.6141C56.4266 52.6087 56.4473 52.6087 56.4653 52.6103C56.4488 52.6141 56.4266 52.621 56.4062 52.6141Z" fill="white"/>
<path fill-rule="evenodd" clip-rule="evenodd" d="M56.4375 52.5152C56.4392 52.5152 56.4392 52.5117 56.4436 52.5117C56.4392 52.5117 56.4392 52.5152 56.4375 52.5152Z" fill="white"/>
<path fill-rule="evenodd" clip-rule="evenodd" d="M45.1557 61.7461C45.1638 61.7879 45.1354 61.8546 45.217 61.8546C45.217 61.9094 45.1722 61.9286 45.1273 61.9623C45.1335 61.8856 45.0315 61.807 45.1557 61.7461Z" fill="white"/>
</svg>
