<svg width="96" height="96" viewBox="0 0 96 96" fill="none" xmlns="http://www.w3.org/2000/svg">
<path d="M8.30458 59.7392C7.91877 59.7392 7.56129 59.6513 7.24206 59.4783C7.08192 59.39 6.93716 59.2837 6.81185 59.1628C6.68587 59.0412 6.57627 58.9019 6.48613 58.7482C6.39565 58.5935 6.32634 58.428 6.28059 58.2556C6.23415 58.0815 6.21094 57.8962 6.21094 57.7054C6.21094 57.5122 6.23381 57.3266 6.27956 57.1532C6.32532 56.9784 6.39497 56.8121 6.48613 56.6588C6.57627 56.5049 6.68621 56.3655 6.81254 56.2442C6.93852 56.1233 7.08431 56.017 7.24581 55.9284C7.40628 55.8405 7.57939 55.7738 7.76035 55.7298C7.93994 55.6862 8.13182 55.6641 8.33053 55.6641C8.64397 55.6641 8.92462 55.7155 9.18855 55.8208C9.4412 55.9226 9.66006 56.0749 9.83863 56.2735L9.48696 56.6115C9.33843 56.4575 9.1684 56.3396 8.98232 56.2616C8.79215 56.1819 8.58012 56.1417 8.3517 56.1417C8.20147 56.1417 8.05637 56.1587 7.92048 56.1921C7.78425 56.2255 7.65348 56.2766 7.53125 56.3437C7.2861 56.4786 7.09353 56.667 6.95935 56.9041V56.9038C6.89038 57.0217 6.83814 57.1487 6.804 57.2816C6.76986 57.4134 6.75279 57.5548 6.75279 57.7013C6.75279 57.8478 6.7702 57.9892 6.804 58.121C6.83814 58.2535 6.89038 58.3806 6.95935 58.4985C7.09729 58.7356 7.28986 58.924 7.53125 59.0589C7.65348 59.126 7.78459 59.1768 7.92048 59.2102C8.05637 59.2435 8.20147 59.2606 8.3517 59.2606C8.57705 59.2606 8.78805 59.2197 8.97823 59.139C9.16294 59.0606 9.33365 58.9424 9.48661 58.7877L9.83863 59.1253C9.66006 59.3243 9.44018 59.4766 9.18479 59.5788C9.05539 59.6319 8.91745 59.6725 8.77473 59.6987C8.63304 59.7249 8.48247 59.7382 8.32712 59.7382C8.31927 59.7392 8.31175 59.7392 8.30458 59.7392ZM76.5332 59.6973H75.9664L75.528 58.7012L75.5236 58.691H75.5123H73.3729H73.3616L73.3572 58.7012L72.9191 59.697H72.3629L74.1708 55.7101H74.7181L76.5332 59.6973ZM74.4443 56.2364L74.4286 56.2718L73.5607 58.2423L73.5501 58.2661H73.5764H75.3119H75.3382L75.3276 58.2423L74.46 56.2718L74.4443 56.2364ZM61.3044 59.6973H60.7694V56.1945V56.1775H60.7523H59.3886V55.7104H62.6855V56.1775H61.3218H61.3047V56.1945V59.6973H61.3044ZM48.9084 59.6973H48.3662V55.7104H48.9084V59.6973ZM23.9916 59.6973H23.4248L22.9867 58.7015L22.9823 58.6913H22.971H20.831H20.82L20.8156 58.7015L20.3775 59.6973H19.8214L21.6296 55.7104H22.1762L23.9916 59.6973ZM21.8996 56.2364L21.8839 56.2718L21.0157 58.2423L21.0051 58.2661H21.0314H22.7675H22.7938L22.7833 58.2423L21.9153 56.2718L21.8996 56.2364ZM89.7182 59.6939H86.9942V55.7104H87.5364V59.2132V59.2303H87.5535H89.7185V59.6939H89.7182ZM34.9911 59.6939H34.4492V55.707H36.0027C36.2615 55.7087 36.4954 55.7411 36.6986 55.8034C36.901 55.8654 37.0779 55.9591 37.2247 56.0817C37.3715 56.204 37.4832 56.3512 37.5569 56.5195C37.631 56.6881 37.6682 56.8823 37.6682 57.0959C37.6682 57.3095 37.6307 57.5037 37.5569 57.6723C37.4832 57.8406 37.3715 57.9878 37.2247 58.1101C37.0782 58.2321 36.901 58.3247 36.6986 58.3857C36.4961 58.4464 36.2619 58.4774 36.0027 58.4774H35.0081H34.9911V58.4944V59.6939ZM34.9911 56.1775V56.1945V57.9967V58.0137H35.0081H35.985C36.17 58.0137 36.3349 57.9939 36.4749 57.9551C36.6156 57.9163 36.7358 57.8567 36.8321 57.7783C36.9301 57.7003 37.0045 57.6025 37.0536 57.4884C37.1021 57.3753 37.1267 57.2431 37.1267 57.0956C37.1267 56.9481 37.1021 56.8159 37.0536 56.7028C37.0048 56.5887 36.9301 56.4909 36.8321 56.4125C36.7337 56.3342 36.6129 56.2749 36.4725 56.2361C36.3325 56.1972 36.1687 56.1775 35.9853 56.1775H35.0085H34.9911Z" fill="white"/>
<path d="M8.30637 59.7194C8.31354 59.7194 8.32105 59.7194 8.32788 59.7194H8.32822C8.48255 59.7194 8.6321 59.7061 8.77277 59.6802C8.91446 59.654 9.05137 59.6138 9.17941 59.5609H9.17975C9.42729 59.4618 9.64136 59.3153 9.81617 59.1242L9.4884 58.8094C9.33681 58.96 9.16814 59.0751 8.98616 59.1525C8.79359 59.2342 8.58054 59.2755 8.35281 59.2755C8.20121 59.2755 8.05508 59.2584 7.91748 59.2247C7.77989 59.191 7.64775 59.1395 7.52416 59.0721H7.52382C7.27969 58.9358 7.08508 58.745 6.94577 58.5052C6.87612 58.386 6.8232 58.2575 6.78872 58.1233C6.75423 57.9901 6.73682 57.8477 6.73682 57.6995C6.73682 57.5513 6.75423 57.4086 6.78872 57.2753C6.82354 57.1411 6.87612 57.0123 6.94577 56.8931C7.08166 56.6536 7.27628 56.4632 7.52416 56.3266C7.64741 56.2588 7.77989 56.2073 7.91748 56.1733C8.05474 56.1395 8.20121 56.1225 8.35281 56.1225C8.58327 56.1225 8.79769 56.1634 8.98991 56.2438C9.17326 56.3208 9.3409 56.4356 9.4884 56.5851L9.81617 56.2704C9.64136 56.0796 9.42865 55.9331 9.18351 55.8339C8.92163 55.7294 8.64302 55.6783 8.33198 55.6783C8.13463 55.6783 7.94412 55.7001 7.76589 55.7433C7.58664 55.7869 7.4149 55.853 7.25545 55.9402C7.09498 56.0281 6.95055 56.1334 6.82559 56.2533C6.70063 56.3736 6.59171 56.5116 6.50226 56.6642V56.6645C6.41178 56.8165 6.34281 56.9813 6.2974 57.1544C6.25233 57.3265 6.22946 57.5108 6.22946 57.7026C6.22946 57.892 6.25267 58.0756 6.29877 58.2487C6.34418 58.4193 6.4128 58.5835 6.5026 58.7369C6.59205 58.8891 6.70063 59.0274 6.82559 59.1477C6.94987 59.2676 7.09327 59.3729 7.25238 59.4604C7.56888 59.6325 7.92363 59.7194 8.30637 59.7194ZM76.5083 59.6775L74.7086 55.7246H74.1832L72.3907 59.6775H72.9093L73.3518 58.6714H75.5359L75.5448 58.6919L75.9788 59.6778H76.5083V59.6775ZM74.4461 56.191L74.4775 56.2618L75.3662 58.28H73.5263L74.4461 56.191ZM61.2891 59.6775V56.1576H62.6698V55.7246H59.4071V56.1576H60.7879V59.6775H61.2891ZM48.8931 59.6775V55.7246H48.3851V59.6775H48.8931ZM23.9667 59.6775L22.1671 55.7246H21.6423L19.8494 59.6775H20.3681L20.8106 58.6714H22.995L23.0039 58.6919L23.4375 59.6778H23.9667V59.6775ZM21.9014 56.191L22.8216 58.28H20.9809L21.0021 58.2323L21.9014 56.191ZM89.7029 59.674V59.2445H87.5208V55.7246H87.0127V59.674H89.7029ZM34.9758 59.674V58.4572H36.0045C36.262 58.4572 36.4945 58.4265 36.6952 58.3662C36.8956 58.3059 37.0705 58.2143 37.2152 58.094C37.36 57.9734 37.4703 57.8283 37.5427 57.6624C37.6157 57.4958 37.6526 57.3043 37.6526 57.0927C37.6526 56.8812 37.6157 56.6897 37.5427 56.5231C37.4699 56.3576 37.3597 56.2121 37.2152 56.0915C37.0701 55.9706 36.895 55.8779 36.6949 55.8166C36.4938 55.7549 36.2613 55.7225 36.0042 55.7208H34.4677V59.674H34.9758ZM34.9758 56.1576H35.9868C36.1715 56.1576 36.3371 56.1773 36.4784 56.2169C36.6211 56.2564 36.7441 56.317 36.8441 56.3967C36.9445 56.4768 37.0206 56.577 37.0708 56.6938C37.12 56.809 37.1452 56.9435 37.1452 57.0934C37.1452 57.2433 37.1203 57.3779 37.0708 57.4927C37.0206 57.6096 36.9445 57.7094 36.8444 57.7891C36.7464 57.8688 36.6242 57.9294 36.4812 57.969C36.3395 58.0081 36.1732 58.0282 35.9868 58.0282H34.9758V56.1576ZM8.30637 59.7534C7.911 59.7534 7.55318 59.6625 7.23565 59.4904C6.91197 59.3119 6.6559 59.0663 6.47289 58.7542C6.29023 58.4425 6.19531 58.0916 6.19531 57.7029C6.19531 57.3135 6.28682 56.9595 6.47289 56.6475C6.6559 56.3354 6.91197 56.0901 7.23906 55.9109C7.56547 55.7324 7.93114 55.6445 8.33198 55.6445C8.64814 55.6445 8.9329 55.6973 9.19614 55.8026C9.45631 55.9075 9.68097 56.0656 9.86363 56.2721L9.48772 56.6332C9.1859 56.3136 8.80588 56.1562 8.35315 56.1562C8.05406 56.1562 7.78398 56.2227 7.54123 56.3562C7.29881 56.4897 7.10898 56.6751 6.97582 56.9101C6.83857 57.1449 6.77165 57.4082 6.77165 57.6991C6.77165 57.9901 6.83891 58.2531 6.97582 58.4878C7.11239 58.7225 7.30257 58.9086 7.54123 59.0421C7.78398 59.175 8.0544 59.2414 8.35315 59.2414C8.80247 59.2414 9.17838 59.0806 9.48772 58.7614L9.86363 59.1222C9.68097 59.3293 9.45597 59.487 9.19272 59.5923C8.92948 59.7006 8.64131 59.7531 8.32857 59.7531C8.32105 59.7534 8.31354 59.7534 8.30637 59.7534ZM76.5612 59.7115H75.9569L75.5141 58.7055H73.3747L72.9322 59.7115H72.3381L74.1613 55.6905H74.7305L76.5612 59.7115ZM74.4461 56.2758L73.5782 58.2463H75.3137L74.4461 56.2758ZM61.3232 59.7115H60.7541V56.1917H59.3733V55.6905H62.7043V56.1917H61.3236V59.7115H61.3232ZM48.9273 59.7115H48.351V55.6905H48.9273V59.7115ZM24.0197 59.7115H23.4153L22.9728 58.7055H20.8327L20.3903 59.7115H19.7965L21.6204 55.6905H22.1892L24.0197 59.7115ZM21.9014 56.2758L21.0332 58.2463H22.7693L21.9014 56.2758ZM89.737 59.7081H86.9789V55.6905H87.5553V59.2104H89.7374V59.7081H89.737ZM35.0099 59.7081H34.4339V55.6871H36.0045C36.5279 55.6905 36.9387 55.8166 37.2374 56.0656C37.5362 56.3146 37.6871 56.6584 37.6871 57.0931C37.6871 57.5278 37.5362 57.8712 37.2374 58.1202C36.9387 58.3689 36.5279 58.4912 36.0045 58.4912H35.0099V59.7081ZM35.0099 56.1917V57.9938H35.9868C36.3558 57.9938 36.6334 57.9165 36.8229 57.7625C37.0162 57.6085 37.1111 57.384 37.1111 57.0931C37.1111 56.8022 37.0162 56.5776 36.8229 56.4233C36.6297 56.2693 36.3521 56.192 35.9868 56.192H35.0099V56.1917Z" fill="white"/>
<path d="M8.30458 59.7392C7.91877 59.7392 7.56129 59.6513 7.24206 59.4783C7.08192 59.39 6.93716 59.2837 6.81185 59.1628C6.68587 59.0412 6.57627 58.9019 6.48613 58.7482C6.39565 58.5935 6.32634 58.428 6.28059 58.2556C6.23415 58.0815 6.21094 57.8962 6.21094 57.7054C6.21094 57.5122 6.23381 57.3266 6.27956 57.1532C6.32532 56.9784 6.39497 56.8121 6.48613 56.6588C6.57627 56.5049 6.68621 56.3655 6.81254 56.2442C6.93852 56.1233 7.08431 56.017 7.24581 55.9284C7.40628 55.8405 7.57939 55.7738 7.76035 55.7298C7.93994 55.6862 8.13182 55.6641 8.33053 55.6641C8.64397 55.6641 8.92462 55.7155 9.18855 55.8208C9.4412 55.9226 9.66006 56.0749 9.83863 56.2735L9.48696 56.6115C9.33843 56.4575 9.1684 56.3396 8.98232 56.2616C8.79215 56.1819 8.58012 56.1417 8.3517 56.1417C8.20147 56.1417 8.05637 56.1587 7.92048 56.1921C7.78425 56.2255 7.65348 56.2766 7.53125 56.3437C7.2861 56.4786 7.09353 56.667 6.95935 56.9041V56.9038C6.89038 57.0217 6.83814 57.1487 6.804 57.2816C6.76986 57.4134 6.75279 57.5548 6.75279 57.7013C6.75279 57.8478 6.7702 57.9892 6.804 58.121C6.83814 58.2535 6.89038 58.3806 6.95935 58.4985C7.09729 58.7356 7.28986 58.924 7.53125 59.0589C7.65348 59.126 7.78459 59.1768 7.92048 59.2102C8.05637 59.2435 8.20147 59.2606 8.3517 59.2606C8.57705 59.2606 8.78805 59.2197 8.97823 59.139C9.16294 59.0606 9.33365 58.9424 9.48661 58.7877L9.83863 59.1253C9.66006 59.3243 9.44018 59.4766 9.18479 59.5788C9.05539 59.6319 8.91745 59.6725 8.77473 59.6987C8.63304 59.7249 8.48247 59.7382 8.32712 59.7382C8.31927 59.7392 8.31175 59.7392 8.30458 59.7392ZM76.5332 59.6973H75.9664L75.528 58.7012L75.5236 58.691H75.5123H73.3729H73.3616L73.3572 58.7012L72.9191 59.697H72.3629L74.1708 55.7101H74.7181L76.5332 59.6973ZM74.4443 56.2364L74.4286 56.2718L73.5607 58.2423L73.5501 58.2661H73.5764H75.3119H75.3382L75.3276 58.2423L74.46 56.2718L74.4443 56.2364ZM61.3044 59.6973H60.7694V56.1945V56.1775H60.7523H59.3886V55.7104H62.6855V56.1775H61.3218H61.3047V56.1945V59.6973H61.3044ZM48.9084 59.6973H48.3662V55.7104H48.9084V59.6973ZM23.9916 59.6973H23.4248L22.9867 58.7015L22.9823 58.6913H22.971H20.831H20.82L20.8156 58.7015L20.3775 59.6973H19.8214L21.6296 55.7104H22.1762L23.9916 59.6973ZM21.8996 56.2364L21.8839 56.2718L21.0157 58.2423L21.0051 58.2661H21.0314H22.7675H22.7938L22.7833 58.2423L21.9153 56.2718L21.8996 56.2364ZM89.7182 59.6939H86.9942V55.7104H87.5364V59.2132V59.2303H87.5535H89.7185V59.6939H89.7182ZM34.9911 59.6939H34.4492V55.707H36.0027C36.2615 55.7087 36.4954 55.7411 36.6986 55.8034C36.901 55.8654 37.0779 55.9591 37.2247 56.0817C37.3715 56.204 37.4832 56.3512 37.5569 56.5195C37.631 56.6881 37.6682 56.8823 37.6682 57.0959C37.6682 57.3095 37.6307 57.5037 37.5569 57.6723C37.4832 57.8406 37.3715 57.9878 37.2247 58.1101C37.0782 58.2321 36.901 58.3247 36.6986 58.3857C36.4961 58.4464 36.2619 58.4774 36.0027 58.4774H35.0081H34.9911V58.4944V59.6939ZM34.9911 56.1775V56.1945V57.9967V58.0137H35.0081H35.985C36.17 58.0137 36.3349 57.9939 36.4749 57.9551C36.6156 57.9163 36.7358 57.8567 36.8321 57.7783C36.9301 57.7003 37.0045 57.6025 37.0536 57.4884C37.1021 57.3753 37.1267 57.2431 37.1267 57.0956C37.1267 56.9481 37.1021 56.8159 37.0536 56.7028C37.0048 56.5887 36.9301 56.4909 36.8321 56.4125C36.7337 56.3342 36.6129 56.2749 36.4725 56.2361C36.3325 56.1972 36.1687 56.1775 35.9853 56.1775H35.0085H34.9911Z" fill="white"/>
<path d="M8.30637 59.7194C8.31354 59.7194 8.32105 59.7194 8.32788 59.7194H8.32822C8.48255 59.7194 8.6321 59.7061 8.77277 59.6802C8.91446 59.654 9.05137 59.6138 9.17941 59.5609H9.17975C9.42729 59.4618 9.64136 59.3153 9.81617 59.1242L9.4884 58.8094C9.33681 58.96 9.16814 59.0751 8.98616 59.1525C8.79359 59.2342 8.58054 59.2755 8.35281 59.2755C8.20121 59.2755 8.05508 59.2584 7.91748 59.2247C7.77989 59.191 7.64775 59.1395 7.52416 59.0721H7.52382C7.27969 58.9358 7.08508 58.745 6.94577 58.5052C6.87612 58.386 6.8232 58.2575 6.78872 58.1233C6.75423 57.9901 6.73682 57.8477 6.73682 57.6995C6.73682 57.5513 6.75423 57.4086 6.78872 57.2753C6.82354 57.1411 6.87612 57.0123 6.94577 56.8931C7.08166 56.6536 7.27628 56.4632 7.52416 56.3266C7.64741 56.2588 7.77989 56.2073 7.91748 56.1733C8.05474 56.1395 8.20121 56.1225 8.35281 56.1225C8.58327 56.1225 8.79769 56.1634 8.98991 56.2438C9.17326 56.3208 9.3409 56.4356 9.4884 56.5851L9.81617 56.2704C9.64136 56.0796 9.42865 55.9331 9.18351 55.8339C8.92163 55.7294 8.64302 55.6783 8.33198 55.6783C8.13463 55.6783 7.94412 55.7001 7.76589 55.7433C7.58664 55.7869 7.4149 55.853 7.25579 55.9402C7.09532 56.0281 6.9509 56.1334 6.82593 56.2533C6.70097 56.3736 6.59205 56.5116 6.5026 56.6642V56.6645C6.41212 56.8165 6.34315 56.9813 6.29774 57.1544C6.25267 57.3265 6.2298 57.5108 6.2298 57.7026C6.2298 57.892 6.25301 58.0756 6.29911 58.2487C6.34452 58.4193 6.41314 58.5835 6.50294 58.7369C6.5924 58.8891 6.70097 59.0274 6.82593 59.1477C6.95021 59.2676 7.09361 59.3729 7.25272 59.4604C7.56888 59.6325 7.92363 59.7194 8.30637 59.7194ZM76.5083 59.6775L74.7086 55.7246H74.1832L72.3907 59.6775H72.9093L73.3518 58.6714H75.5359L75.5448 58.6919L75.9788 59.6778H76.5083V59.6775ZM74.4461 56.191L74.4775 56.2618L75.3662 58.28H73.5263L74.4461 56.191ZM61.2891 59.6775V56.1576H62.6698V55.7246H59.4071V56.1576H60.7879V59.6775H61.2891ZM48.8931 59.6775V55.7246H48.3851V59.6775H48.8931ZM23.9667 59.6775L22.1671 55.7246H21.6423L19.8494 59.6775H20.3681L20.8106 58.6714H22.995L23.0039 58.6919L23.4375 59.6778H23.9667V59.6775ZM21.9014 56.191L22.8216 58.28H20.9809L21.0021 58.2323L21.9014 56.191ZM89.7029 59.674V59.2445H87.5208V55.7246H87.0127V59.674H89.7029ZM34.9758 59.674V58.4572H36.0045C36.262 58.4572 36.4945 58.4265 36.6952 58.3662C36.8956 58.3059 37.0705 58.2143 37.2152 58.094C37.36 57.9734 37.4703 57.8283 37.5427 57.6624C37.6157 57.4958 37.6526 57.3043 37.6526 57.0927C37.6526 56.8812 37.6157 56.6897 37.5427 56.5231C37.4699 56.3576 37.3597 56.2121 37.2152 56.0915C37.0701 55.9706 36.895 55.8779 36.6949 55.8166C36.4938 55.7549 36.2613 55.7225 36.0042 55.7208H34.4677V59.674H34.9758ZM34.9758 56.1576H35.9868C36.1715 56.1576 36.3371 56.1773 36.4784 56.2169C36.6211 56.2564 36.7441 56.317 36.8441 56.3967C36.9445 56.4768 37.0206 56.577 37.0708 56.6938C37.12 56.809 37.1452 56.9435 37.1452 57.0934C37.1452 57.2433 37.1203 57.3779 37.0708 57.4927C37.0206 57.6096 36.9445 57.7094 36.8444 57.7891C36.7464 57.8688 36.6242 57.9294 36.4812 57.969C36.3395 58.0081 36.1732 58.0282 35.9868 58.0282H34.9758V56.1576ZM8.30637 59.7534C7.911 59.7534 7.55318 59.6625 7.23565 59.4904C6.91197 59.3119 6.6559 59.0663 6.47289 58.7542C6.29023 58.4425 6.19531 58.0916 6.19531 57.7029C6.19531 57.3135 6.28682 56.9595 6.47289 56.6475C6.6559 56.3354 6.91197 56.0901 7.23906 55.9109C7.56547 55.7324 7.93114 55.6445 8.33198 55.6445C8.64814 55.6445 8.9329 55.6973 9.19614 55.8026C9.45631 55.9075 9.68097 56.0656 9.86363 56.2721L9.48772 56.6332C9.1859 56.3136 8.80588 56.1562 8.35315 56.1562C8.05406 56.1562 7.78398 56.2227 7.54123 56.3562C7.29881 56.4897 7.10898 56.6751 6.97582 56.9101C6.83857 57.1449 6.77165 57.4082 6.77165 57.6991C6.77165 57.9901 6.83891 58.2531 6.97582 58.4878C7.11239 58.7225 7.30257 58.9086 7.54123 59.0421C7.78398 59.175 8.0544 59.2414 8.35315 59.2414C8.80247 59.2414 9.17838 59.0806 9.48772 58.7614L9.86363 59.1222C9.68097 59.3293 9.45597 59.487 9.19272 59.5923C8.92948 59.7006 8.64131 59.7531 8.32857 59.7531C8.32105 59.7534 8.31354 59.7534 8.30637 59.7534ZM76.5612 59.7115H75.9569L75.5141 58.7055H73.3747L72.9322 59.7115H72.3381L74.1613 55.6905H74.7305L76.5612 59.7115ZM74.4461 56.2758L73.5782 58.2463H75.3137L74.4461 56.2758ZM61.3232 59.7115H60.7541V56.1917H59.3733V55.6905H62.7043V56.1917H61.3236V59.7115H61.3232ZM48.9273 59.7115H48.351V55.6905H48.9273V59.7115ZM24.0197 59.7115H23.4153L22.9728 58.7055H20.8327L20.3903 59.7115H19.7965L21.6204 55.6905H22.1892L24.0197 59.7115ZM21.9014 56.2758L21.0332 58.2463H22.7693L21.9014 56.2758ZM89.737 59.7081H86.9789V55.6905H87.5553V59.2104H89.7374V59.7081H89.737ZM35.0099 59.7081H34.4339V55.6871H36.0045C36.5279 55.6905 36.9387 55.8166 37.2374 56.0656C37.5362 56.3146 37.6871 56.6584 37.6871 57.0931C37.6871 57.5278 37.5362 57.8712 37.2374 58.1202C36.9387 58.3689 36.5279 58.4912 36.0045 58.4912H35.0099V59.7081ZM35.0099 56.1917V57.9938H35.9868C36.3558 57.9938 36.6334 57.9165 36.8229 57.7625C37.0162 57.6085 37.1111 57.384 37.1111 57.0931C37.1111 56.8022 37.0162 56.5776 36.8229 56.4233C36.6297 56.2693 36.3521 56.192 35.9868 56.192H35.0099V56.1917Z" fill="white"/>
<path d="M8.30458 59.7392C7.91877 59.7392 7.56129 59.6513 7.24206 59.4783C7.08192 59.39 6.93716 59.2837 6.81185 59.1628C6.68587 59.0412 6.57627 58.9019 6.48613 58.7482C6.39565 58.5935 6.32634 58.428 6.28059 58.2556C6.23415 58.0815 6.21094 57.8962 6.21094 57.7054C6.21094 57.5122 6.23381 57.3266 6.27956 57.1532C6.32532 56.9784 6.39497 56.8121 6.48613 56.6588C6.57627 56.5049 6.68621 56.3655 6.81254 56.2442C6.93852 56.1233 7.08431 56.017 7.24581 55.9284C7.40628 55.8405 7.57939 55.7738 7.76035 55.7298C7.93994 55.6862 8.13182 55.6641 8.33053 55.6641C8.64397 55.6641 8.92462 55.7155 9.18855 55.8208C9.4412 55.9226 9.66006 56.0749 9.83863 56.2735L9.48696 56.6115C9.33843 56.4575 9.1684 56.3396 8.98232 56.2616C8.79215 56.1819 8.58012 56.1417 8.3517 56.1417C8.20147 56.1417 8.05637 56.1587 7.92048 56.1921C7.78425 56.2255 7.65348 56.2766 7.53125 56.3437C7.2861 56.4786 7.09353 56.667 6.95935 56.9041V56.9038C6.89038 57.0217 6.83814 57.1487 6.804 57.2816C6.76986 57.4134 6.75279 57.5548 6.75279 57.7013C6.75279 57.8478 6.7702 57.9892 6.804 58.121C6.83814 58.2535 6.89038 58.3806 6.95935 58.4985C7.09729 58.7356 7.28986 58.924 7.53125 59.0589C7.65348 59.126 7.78459 59.1768 7.92048 59.2102C8.05637 59.2435 8.20147 59.2606 8.3517 59.2606C8.57705 59.2606 8.78805 59.2197 8.97823 59.139C9.16294 59.0606 9.33365 58.9424 9.48661 58.7877L9.83863 59.1253C9.66006 59.3243 9.44018 59.4766 9.18479 59.5788C9.05539 59.6319 8.91745 59.6725 8.77473 59.6987C8.63304 59.7249 8.48247 59.7382 8.32712 59.7382C8.31927 59.7392 8.31175 59.7392 8.30458 59.7392ZM76.5332 59.6973H75.9664L75.528 58.7012L75.5236 58.691H75.5123H73.3729H73.3616L73.3572 58.7012L72.9191 59.697H72.3629L74.1708 55.7101H74.7181L76.5332 59.6973ZM74.4443 56.2364L74.4286 56.2718L73.5607 58.2423L73.5501 58.2661H73.5764H75.3119H75.3382L75.3276 58.2423L74.46 56.2718L74.4443 56.2364ZM61.3044 59.6973H60.7694V56.1945V56.1775H60.7523H59.3886V55.7104H62.6855V56.1775H61.3218H61.3047V56.1945V59.6973H61.3044ZM48.9084 59.6973H48.3662V55.7104H48.9084V59.6973ZM23.9916 59.6973H23.4248L22.9867 58.7015L22.9823 58.6913H22.971H20.831H20.82L20.8156 58.7015L20.3775 59.6973H19.8214L21.6296 55.7104H22.1762L23.9916 59.6973ZM21.8996 56.2364L21.8839 56.2718L21.0157 58.2423L21.0051 58.2661H21.0314H22.7675H22.7938L22.7833 58.2423L21.9153 56.2718L21.8996 56.2364ZM89.7182 59.6939H86.9942V55.7104H87.5364V59.2132V59.2303H87.5535H89.7185V59.6939H89.7182ZM34.9911 59.6939H34.4492V55.707H36.0027C36.2615 55.7087 36.4954 55.7411 36.6986 55.8034C36.901 55.8654 37.0779 55.9591 37.2247 56.0817C37.3715 56.204 37.4832 56.3512 37.5569 56.5195C37.631 56.6881 37.6682 56.8823 37.6682 57.0959C37.6682 57.3095 37.6307 57.5037 37.5569 57.6723C37.4832 57.8406 37.3715 57.9878 37.2247 58.1101C37.0782 58.2321 36.901 58.3247 36.6986 58.3857C36.4961 58.4464 36.2619 58.4774 36.0027 58.4774H35.0081H34.9911V58.4944V59.6939ZM34.9911 56.1775V56.1945V57.9967V58.0137H35.0081H35.985C36.17 58.0137 36.3349 57.9939 36.4749 57.9551C36.6156 57.9163 36.7358 57.8567 36.8321 57.7783C36.9301 57.7003 37.0045 57.6025 37.0536 57.4884C37.1021 57.3753 37.1267 57.2431 37.1267 57.0956C37.1267 56.9481 37.1021 56.8159 37.0536 56.7028C37.0048 56.5887 36.9301 56.4909 36.8321 56.4125C36.7337 56.3342 36.6129 56.2749 36.4725 56.2361C36.3325 56.1972 36.1687 56.1775 35.9853 56.1775H35.0085H34.9911Z" fill="white"/>
<path d="M8.30637 59.7194C8.31354 59.7194 8.32105 59.7194 8.32788 59.7194H8.32822C8.48255 59.7194 8.6321 59.7061 8.77277 59.6802C8.91446 59.654 9.05137 59.6138 9.17941 59.5609H9.17975C9.42729 59.4618 9.64136 59.3153 9.81617 59.1242L9.4884 58.8094C9.33681 58.96 9.16814 59.0751 8.98616 59.1525C8.79359 59.2342 8.58054 59.2755 8.35281 59.2755C8.20121 59.2755 8.05508 59.2584 7.91748 59.2247C7.77989 59.191 7.64775 59.1395 7.52416 59.0721H7.52382C7.27969 58.9358 7.08508 58.745 6.94577 58.5052C6.87612 58.386 6.8232 58.2575 6.78872 58.1233C6.75423 57.9901 6.73682 57.8477 6.73682 57.6995C6.73682 57.5513 6.75423 57.4086 6.78872 57.2753C6.82354 57.1411 6.87612 57.0123 6.94577 56.8931C7.08166 56.6536 7.27628 56.4632 7.52416 56.3266C7.64741 56.2588 7.77989 56.2073 7.91748 56.1733C8.05474 56.1395 8.20121 56.1225 8.35281 56.1225C8.58327 56.1225 8.79769 56.1634 8.98991 56.2438C9.17326 56.3208 9.3409 56.4356 9.4884 56.5851L9.81617 56.2704C9.64136 56.0796 9.42865 55.9331 9.18351 55.8339C8.92163 55.7294 8.64302 55.6783 8.33198 55.6783C8.13463 55.6783 7.94412 55.7001 7.76589 55.7433C7.58664 55.7869 7.4149 55.853 7.25545 55.9402C7.09498 56.0281 6.95055 56.1334 6.82559 56.2533C6.70063 56.3736 6.59171 56.5116 6.50226 56.6642V56.6645C6.41178 56.8165 6.34281 56.9813 6.2974 57.1544C6.25233 57.3265 6.22946 57.5108 6.22946 57.7026C6.22946 57.892 6.25267 58.0756 6.29877 58.2487C6.34418 58.4193 6.4128 58.5835 6.5026 58.7369C6.59205 58.8891 6.70063 59.0274 6.82559 59.1477C6.94987 59.2676 7.09327 59.3729 7.25238 59.4604C7.56888 59.6325 7.92363 59.7194 8.30637 59.7194ZM76.5083 59.6775L74.7086 55.7246H74.1832L72.3907 59.6775H72.9093L73.3518 58.6714H75.5359L75.5448 58.6919L75.9788 59.6778H76.5083V59.6775ZM74.4461 56.191L74.4775 56.2618L75.3662 58.28H73.5263L74.4461 56.191ZM61.2891 59.6775V56.1576H62.6698V55.7246H59.4071V56.1576H60.7879V59.6775H61.2891ZM48.8931 59.6775V55.7246H48.3851V59.6775H48.8931ZM23.9667 59.6775L22.1671 55.7246H21.6423L19.8494 59.6775H20.3681L20.8106 58.6714H22.995L23.0039 58.6919L23.4375 59.6778H23.9667V59.6775ZM21.9014 56.191L22.8216 58.28H20.9809L21.0021 58.2323L21.9014 56.191ZM89.7029 59.674V59.2445H87.5208V55.7246H87.0127V59.674H89.7029ZM34.9758 59.674V58.4572H36.0045C36.262 58.4572 36.4945 58.4265 36.6952 58.3662C36.8956 58.3059 37.0705 58.2143 37.2152 58.094C37.36 57.9734 37.4703 57.8283 37.5427 57.6624C37.6157 57.4958 37.6526 57.3043 37.6526 57.0927C37.6526 56.8812 37.6157 56.6897 37.5427 56.5231C37.4699 56.3576 37.3597 56.2121 37.2152 56.0915C37.0701 55.9706 36.895 55.8779 36.6949 55.8166C36.4938 55.7549 36.2613 55.7225 36.0042 55.7208H34.4677V59.674H34.9758ZM34.9758 56.1576H35.9868C36.1715 56.1576 36.3371 56.1773 36.4784 56.2169C36.6211 56.2564 36.7441 56.317 36.8441 56.3967C36.9445 56.4768 37.0206 56.577 37.0708 56.6938C37.12 56.809 37.1452 56.9435 37.1452 57.0934C37.1452 57.2433 37.1203 57.3779 37.0708 57.4927C37.0206 57.6096 36.9445 57.7094 36.8444 57.7891C36.7464 57.8688 36.6242 57.9294 36.4812 57.969C36.3395 58.0081 36.1732 58.0282 35.9868 58.0282H34.9758V56.1576ZM8.30637 59.7534C7.911 59.7534 7.55318 59.6625 7.23565 59.4904C6.91197 59.3119 6.6559 59.0663 6.47289 58.7542C6.29023 58.4425 6.19531 58.0916 6.19531 57.7029C6.19531 57.3135 6.28682 56.9595 6.47289 56.6475C6.6559 56.3354 6.91197 56.0901 7.23906 55.9109C7.56547 55.7324 7.93114 55.6445 8.33198 55.6445C8.64814 55.6445 8.9329 55.6973 9.19614 55.8026C9.45631 55.9075 9.68097 56.0656 9.86363 56.2721L9.48772 56.6332C9.1859 56.3136 8.80588 56.1562 8.35315 56.1562C8.05406 56.1562 7.78398 56.2227 7.54123 56.3562C7.29881 56.4897 7.10898 56.6751 6.97582 56.9101C6.83857 57.1449 6.77165 57.4082 6.77165 57.6991C6.77165 57.9901 6.83891 58.2531 6.97582 58.4878C7.11239 58.7225 7.30257 58.9086 7.54123 59.0421C7.78398 59.175 8.0544 59.2414 8.35315 59.2414C8.80247 59.2414 9.17838 59.0806 9.48772 58.7614L9.86363 59.1222C9.68097 59.3293 9.45597 59.487 9.19272 59.5923C8.92948 59.7006 8.64131 59.7531 8.32857 59.7531C8.32105 59.7534 8.31354 59.7534 8.30637 59.7534ZM76.5612 59.7115H75.9569L75.5141 58.7055H73.3747L72.9322 59.7115H72.3381L74.1613 55.6905H74.7305L76.5612 59.7115ZM74.4461 56.2758L73.5782 58.2463H75.3137L74.4461 56.2758ZM61.3232 59.7115H60.7541V56.1917H59.3733V55.6905H62.7043V56.1917H61.3236V59.7115H61.3232ZM48.9273 59.7115H48.351V55.6905H48.9273V59.7115ZM24.0197 59.7115H23.4153L22.9728 58.7055H20.8327L20.3903 59.7115H19.7965L21.6204 55.6905H22.1892L24.0197 59.7115ZM21.9014 56.2758L21.0332 58.2463H22.7693L21.9014 56.2758ZM89.737 59.7081H86.9789V55.6905H87.5553V59.2104H89.7374V59.7081H89.737ZM35.0099 59.7081H34.4339V55.6871H36.0045C36.5279 55.6905 36.9387 55.8166 37.2374 56.0656C37.5362 56.3146 37.6871 56.6584 37.6871 57.0931C37.6871 57.5278 37.5362 57.8712 37.2374 58.1202C36.9387 58.3689 36.5279 58.4912 36.0045 58.4912H35.0099V59.7081ZM35.0099 56.1917V57.9938H35.9868C36.3558 57.9938 36.6334 57.9165 36.8229 57.7625C37.0162 57.6085 37.1111 57.384 37.1111 57.0931C37.1111 56.8022 37.0162 56.5776 36.8229 56.4233C36.6297 56.2693 36.3521 56.192 35.9868 56.192H35.0099V56.1917Z" fill="white"/>
<path d="M36.1841 51.006V43.2897H38.6751L39.399 43.3002C40.734 43.3915 43.6293 43.8085 45.6813 45.6949C47.1429 47.0412 47.8842 48.8257 47.8879 51.0026H44.7611C44.7611 49.6215 44.3466 48.5695 43.4927 47.7842C42.2561 46.6518 40.3867 46.3329 39.3993 46.2416V51.006H36.1841ZM13.7043 50.9498C10.7318 50.9498 8.40227 49.677 7.15162 47.3635C6.25946 45.7156 6.20654 44.1168 6.20312 43.9383V36.5654H9.32687V43.9172C9.34428 44.5764 9.65361 48.0224 13.7047 48.0189H18.5571V50.9498H13.7043V50.9498ZM30.2988 50.9358V43.9349H30.3023C30.2353 42.7323 29.828 41.7999 29.055 41.095C27.3793 39.5593 24.5157 39.5664 24.4525 39.5664V50.9358H21.2376V36.5831H24.4525C25.0391 36.5797 28.7884 36.6707 31.2934 38.96C32.6848 40.2324 33.5141 41.9294 33.5141 43.9349V50.9358H30.2988ZM54.4731 50.9218H50.1062C50.1062 50.8271 50.1267 48.5521 51.4654 46.3081C52.7233 44.201 55.383 41.6909 60.9203 41.6909V44.6217C56.4896 44.6217 54.6172 46.6412 53.823 48.4008H60.9206V50.9212L54.4731 50.9218ZM63.3366 50.9218C63.3366 47.2654 65.2619 45.2285 67.4157 44.1802L68.3993 46.9918C67.3522 47.6544 66.46 48.8287 66.46 50.9218H63.3366ZM83.5923 50.9184C80.9643 50.9184 78.8351 48.92 78.8351 46.4556V36.5654H82.0712V45.7787C82.0712 47.1914 83.2938 48.3378 84.8013 48.3378H89.808V50.9181L83.5923 50.9184ZM73.2804 50.9075L68.2771 36.5654H71.8645L76.7872 50.9075H73.2804ZM53.12 39.0827H49.9051V36.5586H60.9517V39.0827H53.12Z" fill="white"/>
<path d="M36.1841 51.006V43.2897H38.6751L39.399 43.3002C40.734 43.3915 43.6293 43.8085 45.6813 45.6949C47.1429 47.0412 47.8842 48.8257 47.8879 51.0026H44.7611C44.7611 49.6215 44.3466 48.5695 43.4927 47.7842C42.2561 46.6518 40.3867 46.3329 39.3993 46.2416V51.006H36.1841ZM13.7043 50.9498C10.7318 50.9498 8.40227 49.677 7.15162 47.3635C6.25946 45.7156 6.20654 44.1168 6.20312 43.9383V36.5654H9.32687V43.9172C9.34428 44.5764 9.65361 48.0224 13.7047 48.0189H18.5571V50.9498H13.7043V50.9498ZM30.2988 50.9358V43.9349H30.3023C30.2353 42.7323 29.828 41.7999 29.055 41.095C27.3793 39.5593 24.5157 39.5664 24.4525 39.5664V50.9358H21.2376V36.5831H24.4525C25.0391 36.5797 28.7884 36.6707 31.2934 38.96C32.6848 40.2324 33.5141 41.9294 33.5141 43.9349V50.9358H30.2988ZM54.4731 50.9218H50.1062C50.1062 50.8271 50.1267 48.5521 51.4654 46.3081C52.7233 44.201 55.383 41.6909 60.9203 41.6909V44.6217C56.4896 44.6217 54.6172 46.6412 53.823 48.4008H60.9206V50.9212L54.4731 50.9218ZM63.3366 50.9218C63.3366 47.2654 65.2619 45.2285 67.4157 44.1802L68.3993 46.9918C67.3522 47.6544 66.46 48.8287 66.46 50.9218H63.3366ZM83.5923 50.9184C80.9643 50.9184 78.8351 48.92 78.8351 46.4556V36.5654H82.0712V45.7787C82.0712 47.1914 83.2938 48.3378 84.8013 48.3378H89.808V50.9181L83.5923 50.9184ZM73.2804 50.9075L68.2771 36.5654H71.8645L76.7872 50.9075H73.2804ZM53.12 39.0827H49.9051V36.5586H60.9517V39.0827H53.12Z" fill="white"/>
<path d="M15.4688 36.5703V44.2866H18.6837V36.5703H15.4688V36.5703Z" fill="white"/>
<path d="M15.4727 36.5625H18.6821L18.409 36.8691H15.7799L15.4727 36.5625Z" fill="white"/>
<path opacity="0.77" d="M15.4727 44.291H18.6821L18.409 43.9844H15.7799L15.4727 44.291Z" fill="white"/>
<path opacity="0.597" d="M15.4727 44.2754V36.5625L15.7799 36.835V43.9688L15.4727 44.2754Z" fill="white"/>
<path d="M18.6823 44.2754V36.5625L18.375 36.835V43.9688L18.6823 44.2754Z" fill="white"/>
<path d="M40.305 39.1451H41.1097C43.9521 39.1451 44.6548 41.7499 44.6548 43.2993H47.8697V43.2782C47.8697 40.2598 46.3835 36.6523 42.0268 36.6523H36.1836V39.1451H40.305Z" fill="white"/>
<path d="M36.1836 39.1492V36.6523L36.4909 36.9671V38.8419L36.1836 39.1492Z" fill="white"/>
<path opacity="0.658" d="M36.1836 36.6523H42.0265C46.3831 36.6523 47.8694 40.2598 47.8694 43.2782V43.2993L47.5573 42.9927C47.4651 40.1453 45.9796 36.959 42.0261 36.959H36.4905L36.1836 36.6523Z" fill="white"/>
<path opacity="0.77" d="M44.9508 43H47.5552L47.8672 43.2855V43.3066H44.6523" fill="white"/>
<path opacity="0.386" d="M36.487 38.8516H41.1058C43.9663 38.8516 44.8541 41.3324 44.9493 43.0058L44.6509 43.3124C44.6509 41.763 43.9482 39.1582 41.1058 39.1582H36.1797L36.487 38.8516Z" fill="white"/>
</svg>
