<svg width="96" height="96" viewBox="0 0 96 96" fill="none" xmlns="http://www.w3.org/2000/svg">
<path d="M44.9123 54.6308C42.8608 54.855 40.7904 54.4308 38.9942 53.4181C37.198 52.4055 35.7669 50.8558 34.9036 48.9883C34.0402 47.1208 33.7883 45.0302 34.1834 43.0122C34.5785 40.9942 35.6007 39.1511 37.1052 37.7437L32.8945 33.2812C31.3074 34.7651 30.0427 36.5575 29.1787 38.5477C28.3146 40.5378 27.8696 42.6834 27.8711 44.8517C27.8711 53.6363 35.0255 60.7571 43.8437 60.7571C45.8346 60.7592 47.8081 60.3872 49.6606 59.6606L44.9123 54.6308Z" fill="white"/>
<path d="M51.42 44.3242H43.293L54.754 56.4557C56.2348 55.078 57.4381 53.4314 58.2992 51.6044L51.42 44.3242Z" fill="white"/>
<path d="M67.3537 67.0571L61.4023 60.7524V40.104L67.3537 37.5859V67.0571Z" fill="white"/>
<path d="M43.8436 35.083C45.8556 35.0794 47.8197 35.6938 49.4686 36.8424V36.8488C49.7592 37.053 50.0391 37.2722 50.3069 37.5054C50.5244 37.6967 50.7292 37.8943 50.9276 38.0983L56.8405 35.6057C56.1504 34.6425 55.354 33.7593 54.4664 32.9729C54.4465 32.9522 54.4251 32.933 54.4024 32.9155C54.396 32.9091 54.3832 32.9027 54.3768 32.89C54.3192 32.839 54.2616 32.7944 54.2104 32.7434C54.1784 32.7179 54.1528 32.6924 54.1208 32.6669C54.0632 32.6159 53.9992 32.5649 53.9416 32.5202L53.8329 32.431L53.6601 32.2971C53.6217 32.2652 53.5769 32.2334 53.5385 32.2015L53.3785 32.0804L53.2377 31.9784C53.1865 31.9401 53.1417 31.9082 53.0905 31.8764C53.0393 31.8445 52.9818 31.7999 52.9242 31.7616C52.8794 31.7361 52.841 31.7042 52.7962 31.6788C52.7322 31.6341 52.6682 31.5895 52.5978 31.5449C52.5658 31.5258 52.5338 31.5003 52.5018 31.4811C52.425 31.4301 52.3418 31.3791 52.265 31.3281L52.2074 31.2899L51.9195 31.1178C51.9178 31.1178 51.9162 31.1171 51.915 31.1159C51.9138 31.1147 51.9131 31.1131 51.9131 31.1114C49.8246 29.8945 47.4856 29.1669 45.0731 28.9835C42.6606 28.8002 40.2379 29.166 37.9883 30.0531L42.7877 35.1403C43.1269 35.1085 43.4788 35.083 43.8436 35.083Z" fill="white"/>
</svg>
