<svg width="124" height="124" viewBox="0 0 124 124" fill="none" xmlns="http://www.w3.org/2000/svg">
<path d="M10.7258 77.1622C10.2274 77.1622 9.76569 77.0487 9.35334 76.8251C9.14651 76.7112 8.95952 76.5739 8.79767 76.4177C8.63493 76.2606 8.49337 76.0806 8.37694 75.8821C8.26007 75.6823 8.17055 75.4685 8.11145 75.2458C8.05147 75.021 8.02148 74.7816 8.02148 74.5352C8.02148 74.2857 8.05103 74.0458 8.11013 73.8219C8.16922 73.5961 8.25919 73.3814 8.37694 73.1834C8.49337 72.9845 8.63537 72.8045 8.79855 72.6478C8.96128 72.4916 9.1496 72.3543 9.3582 72.2399C9.56547 72.1264 9.78907 72.0401 10.0228 71.9834C10.2548 71.927 10.5026 71.8984 10.7593 71.8984C11.1641 71.8984 11.5267 71.9649 11.8676 72.1009C12.1939 72.2324 12.4766 72.4291 12.7073 72.6857L12.253 73.1222C12.0612 72.9233 11.8415 72.771 11.6012 72.6703C11.3555 72.5673 11.0817 72.5154 10.7866 72.5154C10.5926 72.5154 10.4052 72.5374 10.2296 72.5805C10.0537 72.6236 9.88477 72.6896 9.72688 72.7763C9.41024 72.9506 9.1615 73.1939 8.98819 73.5002V73.4997C8.8991 73.652 8.83163 73.8161 8.78752 73.9877C8.74342 74.158 8.72137 74.3407 8.72137 74.5299C8.72137 74.7191 8.74386 74.9017 8.78752 75.072C8.83163 75.2432 8.8991 75.4073 8.98819 75.5596C9.16636 75.8658 9.41509 76.1092 9.72688 76.2834C9.88477 76.3701 10.0541 76.4357 10.2296 76.4788C10.4052 76.5219 10.5926 76.5439 10.7866 76.5439C11.0777 76.5439 11.3503 76.4911 11.5959 76.3868C11.8345 76.2856 12.055 76.1329 12.2526 75.9332L12.7073 76.3692C12.4766 76.6262 12.1926 76.8229 11.8627 76.9549C11.6956 77.0236 11.5174 77.076 11.3331 77.1098C11.15 77.1437 10.9555 77.1609 10.7549 77.1609C10.7447 77.1622 10.735 77.1622 10.7258 77.1622ZM98.8544 77.1081H98.1223L97.556 75.8214L97.5503 75.8082H97.5357H94.7723H94.7578L94.7521 75.8214L94.1862 77.1076H93.4678L95.803 71.9578H96.5099L98.8544 77.1081ZM96.1562 72.6377L96.1359 72.6835L95.0149 75.2287L95.0012 75.2595H95.0352H97.2769H97.3108L97.2971 75.2287L96.1765 72.6835L96.1562 72.6377ZM79.1838 77.1081H78.4928V72.5836V72.5616H78.4707H76.7093V71.9583H80.9677V72.5616H79.2063H79.1843V72.5836V77.1081H79.1838ZM63.1724 77.1081H62.4721V71.9583H63.1724V77.1081ZM30.9881 77.1081H30.2561L29.6902 75.8218L29.6845 75.8086H29.6699H26.9057H26.8916L26.8858 75.8218L26.32 77.1081H25.6016L27.9372 71.9583H28.6433L30.9881 77.1081ZM28.286 72.6377L28.2658 72.6835L27.1443 75.2287L27.1306 75.2595H27.1646H29.4071H29.4411L29.4274 75.2287L28.3063 72.6835L28.286 72.6377ZM115.885 77.1037H112.367V71.9583H113.067V76.4828V76.5048H113.089H115.885V77.1037H115.885ZM45.1958 77.1037H44.4959V71.9539H46.5025C46.8368 71.9561 47.1389 71.9979 47.4013 72.0784C47.6629 72.1585 47.8913 72.2795 48.0809 72.4379C48.2706 72.5959 48.4148 72.786 48.51 73.0034C48.6057 73.2212 48.6538 73.472 48.6538 73.7479C48.6538 74.0238 48.6053 74.2747 48.51 74.4925C48.4148 74.7099 48.2706 74.9 48.0809 75.0579C47.8917 75.2155 47.6629 75.3352 47.4013 75.4139C47.1398 75.4922 46.8373 75.5323 46.5025 75.5323H45.2179H45.1958V75.5543V77.1037ZM45.1958 72.5616V72.5836V74.9114V74.9334H45.2179H46.4796C46.7186 74.9334 46.9317 74.9079 47.1125 74.8577C47.2942 74.8075 47.4494 74.7305 47.5738 74.6293C47.7003 74.5286 47.7965 74.4023 47.86 74.2549C47.9226 74.1088 47.9544 73.938 47.9544 73.7475C47.9544 73.557 47.9226 73.3862 47.86 73.2401C47.7969 73.0927 47.7003 72.9664 47.5738 72.8652C47.4468 72.764 47.2906 72.6874 47.1094 72.6373C46.9286 72.5871 46.7169 72.5616 46.4801 72.5616H45.2183H45.1958Z" fill="white"/>
<path d="M10.7268 77.1383C10.736 77.1383 10.7457 77.1383 10.7546 77.1383H10.755C10.9543 77.1383 11.1475 77.1212 11.3292 77.0877C11.5122 77.0538 11.6891 77.0019 11.8545 76.9337H11.8549C12.1746 76.8057 12.4511 76.6164 12.6769 76.3696L12.2536 75.963C12.0578 76.1575 11.8399 76.3062 11.6048 76.4061C11.3561 76.5117 11.0809 76.5649 10.7868 76.5649C10.591 76.5649 10.4022 76.5429 10.2245 76.4994C10.0467 76.4558 9.87607 76.3894 9.71642 76.3022H9.71598C9.40066 76.1262 9.14928 75.8798 8.96935 75.57C8.87938 75.416 8.81102 75.2501 8.76648 75.0767C8.72194 74.9047 8.69945 74.7207 8.69945 74.5293C8.69945 74.3379 8.72194 74.1535 8.76648 73.9815C8.81146 73.8081 8.87938 73.6418 8.96935 73.4877C9.14487 73.1784 9.39625 72.9324 9.71642 72.756C9.87563 72.6684 10.0467 72.6019 10.2245 72.5579C10.4018 72.5144 10.591 72.4924 10.7868 72.4924C11.0844 72.4924 11.3614 72.5452 11.6097 72.649C11.8465 72.7485 12.0631 72.8968 12.2536 73.09L12.6769 72.6834C12.4511 72.4369 12.1764 72.2477 11.8597 72.1197C11.5215 71.9846 11.1616 71.9186 10.7599 71.9186C10.505 71.9186 10.2589 71.9467 10.0287 72.0026C9.79713 72.0589 9.5753 72.1443 9.36935 72.257C9.16207 72.3705 8.97552 72.5065 8.81411 72.6614C8.6527 72.8167 8.51202 72.9949 8.39647 73.192V73.1925C8.2796 73.3887 8.19052 73.6017 8.13186 73.8253C8.07365 74.0475 8.0441 74.2855 8.0441 74.5333C8.0441 74.7779 8.07409 75.0151 8.13363 75.2387C8.19228 75.4591 8.28093 75.6712 8.39691 75.8692C8.51246 76.0659 8.6527 76.2446 8.81411 76.3999C8.97464 76.5548 9.15987 76.6908 9.36538 76.8039C9.7742 77.0261 10.2324 77.1383 10.7268 77.1383ZM98.821 77.0842L96.4964 71.9784H95.8177L93.5023 77.0842H94.1722L94.7438 75.7848H97.565L97.5764 75.8112L98.137 77.0846H98.821V77.0842ZM96.1572 72.5808L96.1978 72.6724L97.3458 75.2792H94.9692L96.1572 72.5808ZM79.1628 77.0842V72.5377H80.9463V71.9784H76.7319V72.5377H78.5154V77.0842H79.1628ZM63.1514 77.0842V71.9784H62.4951V77.0842H63.1514ZM30.9547 77.0842L28.6302 71.9784H27.9523L25.6366 77.0842H26.3065L26.878 75.7848H29.6996L29.7111 75.8112L30.2712 77.0846H30.9547V77.0842ZM28.2871 72.5808L29.4756 75.2792H27.0981L27.1254 75.2175L28.2871 72.5808ZM115.864 77.0798V76.5249H113.045V71.9784H112.389V77.0798H115.864ZM45.1748 77.0798V75.508H46.5036C46.8361 75.508 47.1364 75.4684 47.3957 75.3905C47.6546 75.3126 47.8804 75.1942 48.0674 75.0389C48.2544 74.8831 48.3968 74.6957 48.4903 74.4814C48.5847 74.2662 48.6323 74.0189 48.6323 73.7456C48.6323 73.4723 48.5847 73.225 48.4903 73.0099C48.3964 72.796 48.2539 72.6081 48.0674 72.4523C47.88 72.2961 47.6537 72.1764 47.3953 72.0972C47.1355 72.0176 46.8352 71.9758 46.5031 71.9736H44.5186V77.0798H45.1748ZM45.1748 72.5377H46.4806C46.7192 72.5377 46.9331 72.5632 47.1157 72.6143C47.3 72.6653 47.4588 72.7436 47.588 72.8466C47.7177 72.95 47.816 73.0794 47.8808 73.2303C47.9443 73.3791 47.977 73.5529 47.977 73.7465C47.977 73.9401 47.9448 74.1139 47.8808 74.2622C47.816 74.4132 47.7177 74.5421 47.5884 74.6451C47.4619 74.748 47.304 74.8263 47.1192 74.8774C46.9362 74.928 46.7214 74.954 46.4806 74.954H45.1748V72.5377ZM10.7268 77.1823C10.2161 77.1823 9.75391 77.0648 9.34377 76.8426C8.92569 76.612 8.59493 76.2948 8.35854 75.8917C8.1226 75.489 8 75.0358 8 74.5337C8 74.0308 8.11819 73.5736 8.35854 73.1705C8.59493 72.7674 8.92569 72.4506 9.34818 72.2191C9.76979 71.9885 10.2421 71.875 10.7599 71.875C11.1682 71.875 11.536 71.9432 11.8761 72.0792C12.2121 72.2147 12.5023 72.4189 12.7382 72.6856L12.2527 73.152C11.8628 72.7392 11.372 72.5359 10.7872 72.5359C10.4009 72.5359 10.052 72.6217 9.73847 72.7942C9.42536 72.9667 9.18015 73.2061 9.00816 73.5097C8.83087 73.8129 8.74443 74.1531 8.74443 74.5289C8.74443 74.9047 8.83131 75.2444 9.00816 75.5476C9.18456 75.8508 9.43021 76.091 9.73847 76.2635C10.052 76.4351 10.4013 76.5209 10.7872 76.5209C11.3676 76.5209 11.8531 76.3132 12.2527 75.9009L12.7382 76.3669C12.5023 76.6345 12.2117 76.8382 11.8717 76.9742C11.5316 77.1141 11.1594 77.1819 10.7555 77.1819C10.7457 77.1823 10.736 77.1823 10.7268 77.1823ZM98.8893 77.1282H98.1087L97.5367 75.8288H94.7733L94.2018 77.1282H93.4344L95.7894 71.9344H96.5246L98.8893 77.1282ZM96.1572 72.6904L95.0362 75.2356H97.2779L96.1572 72.6904ZM79.2069 77.1282H78.4717V72.5817H76.6883V71.9344H80.9908V72.5817H79.2073V77.1282H79.2069ZM63.1955 77.1282H62.451V71.9344H63.1955V77.1282ZM31.0231 77.1282H30.2425L29.671 75.8288H26.9067L26.3351 77.1282H25.5682L27.9241 71.9344H28.6588L31.0231 77.1282ZM28.2871 72.6904L27.1656 75.2356H29.4081L28.2871 72.6904ZM115.908 77.1238H112.346V71.9344H113.09V76.4809H115.908V77.1238H115.908ZM45.2189 77.1238H44.4749V71.93H46.5036C47.1796 71.9344 47.7102 72.0972 48.0961 72.4189C48.4819 72.7406 48.6769 73.1846 48.6769 73.7461C48.6769 74.3075 48.4819 74.7511 48.0961 75.0728C47.7102 75.394 47.1796 75.552 46.5036 75.552H45.2189V77.1238ZM45.2189 72.5817V74.9095H46.4806C46.9574 74.9095 47.3159 74.8096 47.5607 74.6107C47.8103 74.4118 47.9329 74.1218 47.9329 73.7461C47.9329 73.3703 47.8103 73.0803 47.5607 72.8809C47.3111 72.682 46.9525 72.5821 46.4806 72.5821H45.2189V72.5817Z" fill="white"/>
<path d="M10.7258 77.1622C10.2274 77.1622 9.76569 77.0487 9.35334 76.8251C9.14651 76.7112 8.95952 76.5739 8.79767 76.4177C8.63493 76.2606 8.49337 76.0806 8.37694 75.8821C8.26007 75.6823 8.17055 75.4685 8.11145 75.2458C8.05147 75.021 8.02148 74.7816 8.02148 74.5352C8.02148 74.2857 8.05103 74.0458 8.11013 73.8219C8.16922 73.5961 8.25919 73.3814 8.37694 73.1834C8.49337 72.9845 8.63537 72.8045 8.79855 72.6478C8.96128 72.4916 9.1496 72.3543 9.3582 72.2399C9.56547 72.1264 9.78907 72.0401 10.0228 71.9834C10.2548 71.927 10.5026 71.8984 10.7593 71.8984C11.1641 71.8984 11.5267 71.9649 11.8676 72.1009C12.1939 72.2324 12.4766 72.4291 12.7073 72.6857L12.253 73.1222C12.0612 72.9233 11.8415 72.771 11.6012 72.6703C11.3555 72.5673 11.0817 72.5154 10.7866 72.5154C10.5926 72.5154 10.4052 72.5374 10.2296 72.5805C10.0537 72.6236 9.88477 72.6896 9.72688 72.7763C9.41024 72.9506 9.1615 73.1939 8.98819 73.5002V73.4997C8.8991 73.652 8.83163 73.8161 8.78752 73.9877C8.74342 74.158 8.72137 74.3407 8.72137 74.5299C8.72137 74.7191 8.74386 74.9017 8.78752 75.072C8.83163 75.2432 8.8991 75.4073 8.98819 75.5596C9.16636 75.8658 9.41509 76.1092 9.72688 76.2834C9.88477 76.3701 10.0541 76.4357 10.2296 76.4788C10.4052 76.5219 10.5926 76.5439 10.7866 76.5439C11.0777 76.5439 11.3503 76.4911 11.5959 76.3868C11.8345 76.2856 12.055 76.1329 12.2526 75.9332L12.7073 76.3692C12.4766 76.6262 12.1926 76.8229 11.8627 76.9549C11.6956 77.0236 11.5174 77.076 11.3331 77.1098C11.15 77.1437 10.9555 77.1609 10.7549 77.1609C10.7447 77.1622 10.735 77.1622 10.7258 77.1622ZM98.8544 77.1081H98.1223L97.556 75.8214L97.5503 75.8082H97.5357H94.7723H94.7578L94.7521 75.8214L94.1862 77.1076H93.4678L95.803 71.9578H96.5099L98.8544 77.1081ZM96.1562 72.6377L96.1359 72.6835L95.0149 75.2287L95.0012 75.2595H95.0352H97.2769H97.3108L97.2971 75.2287L96.1765 72.6835L96.1562 72.6377ZM79.1838 77.1081H78.4928V72.5836V72.5616H78.4707H76.7093V71.9583H80.9677V72.5616H79.2063H79.1843V72.5836V77.1081H79.1838ZM63.1724 77.1081H62.4721V71.9583H63.1724V77.1081ZM30.9881 77.1081H30.2561L29.6902 75.8218L29.6845 75.8086H29.6699H26.9057H26.8916L26.8858 75.8218L26.32 77.1081H25.6016L27.9372 71.9583H28.6433L30.9881 77.1081ZM28.286 72.6377L28.2658 72.6835L27.1443 75.2287L27.1306 75.2595H27.1646H29.4071H29.4411L29.4274 75.2287L28.3063 72.6835L28.286 72.6377ZM115.885 77.1037H112.367V71.9583H113.067V76.4828V76.5048H113.089H115.885V77.1037H115.885ZM45.1958 77.1037H44.4959V71.9539H46.5025C46.8368 71.9561 47.1389 71.9979 47.4013 72.0784C47.6629 72.1585 47.8913 72.2795 48.0809 72.4379C48.2706 72.5959 48.4148 72.786 48.51 73.0034C48.6057 73.2212 48.6538 73.472 48.6538 73.7479C48.6538 74.0238 48.6053 74.2747 48.51 74.4925C48.4148 74.7099 48.2706 74.9 48.0809 75.0579C47.8917 75.2155 47.6629 75.3352 47.4013 75.4139C47.1398 75.4922 46.8373 75.5323 46.5025 75.5323H45.2179H45.1958V75.5543V77.1037ZM45.1958 72.5616V72.5836V74.9114V74.9334H45.2179H46.4796C46.7186 74.9334 46.9317 74.9079 47.1125 74.8577C47.2942 74.8075 47.4494 74.7305 47.5738 74.6293C47.7003 74.5286 47.7965 74.4023 47.86 74.2549C47.9226 74.1088 47.9544 73.938 47.9544 73.7475C47.9544 73.557 47.9226 73.3862 47.86 73.2401C47.7969 73.0927 47.7003 72.9664 47.5738 72.8652C47.4468 72.764 47.2906 72.6874 47.1094 72.6373C46.9286 72.5871 46.7169 72.5616 46.4801 72.5616H45.2183H45.1958Z" fill="white"/>
<path d="M10.7268 77.1383C10.736 77.1383 10.7457 77.1383 10.7546 77.1383H10.755C10.9543 77.1383 11.1475 77.1212 11.3292 77.0877C11.5122 77.0538 11.6891 77.0019 11.8545 76.9337H11.8549C12.1746 76.8057 12.4511 76.6164 12.6769 76.3696L12.2536 75.963C12.0578 76.1575 11.8399 76.3062 11.6048 76.4061C11.3561 76.5117 11.0809 76.5649 10.7868 76.5649C10.591 76.5649 10.4022 76.5429 10.2245 76.4994C10.0467 76.4558 9.87607 76.3894 9.71642 76.3022H9.71598C9.40066 76.1262 9.14928 75.8798 8.96935 75.57C8.87938 75.416 8.81102 75.2501 8.76648 75.0767C8.72194 74.9047 8.69945 74.7207 8.69945 74.5293C8.69945 74.3379 8.72194 74.1535 8.76648 73.9815C8.81146 73.8081 8.87938 73.6418 8.96935 73.4877C9.14487 73.1784 9.39625 72.9324 9.71642 72.756C9.87563 72.6684 10.0467 72.6019 10.2245 72.5579C10.4018 72.5144 10.591 72.4924 10.7868 72.4924C11.0844 72.4924 11.3614 72.5452 11.6097 72.649C11.8465 72.7485 12.0631 72.8968 12.2536 73.09L12.6769 72.6834C12.4511 72.4369 12.1764 72.2477 11.8597 72.1197C11.5215 71.9846 11.1616 71.9186 10.7599 71.9186C10.505 71.9186 10.2589 71.9467 10.0287 72.0026C9.79713 72.0589 9.5753 72.1443 9.36979 72.257C9.16251 72.3705 8.97596 72.5065 8.81455 72.6614C8.65314 72.8167 8.51246 72.9949 8.39691 73.192V73.1925C8.28004 73.3887 8.19096 73.6017 8.1323 73.8253C8.07409 74.0475 8.04454 74.2855 8.04454 74.5333C8.04454 74.7779 8.07453 75.0151 8.13407 75.2387C8.19272 75.4591 8.28137 75.6712 8.39735 75.8692C8.5129 76.0659 8.65314 76.2446 8.81455 76.3999C8.97508 76.5548 9.16031 76.6908 9.36582 76.8039C9.7742 77.0261 10.2324 77.1383 10.7268 77.1383ZM98.821 77.0842L96.4964 71.9784H95.8177L93.5023 77.0842H94.1722L94.7438 75.7848H97.565L97.5764 75.8112L98.137 77.0846H98.821V77.0842ZM96.1572 72.5808L96.1978 72.6724L97.3458 75.2792H94.9692L96.1572 72.5808ZM79.1628 77.0842V72.5377H80.9463V71.9784H76.7319V72.5377H78.5154V77.0842H79.1628ZM63.1514 77.0842V71.9784H62.4951V77.0842H63.1514ZM30.9547 77.0842L28.6302 71.9784H27.9523L25.6366 77.0842H26.3065L26.878 75.7848H29.6996L29.7111 75.8112L30.2712 77.0846H30.9547V77.0842ZM28.2871 72.5808L29.4756 75.2792H27.0981L27.1254 75.2175L28.2871 72.5808ZM115.864 77.0798V76.5249H113.045V71.9784H112.389V77.0798H115.864ZM45.1748 77.0798V75.508H46.5036C46.8361 75.508 47.1364 75.4684 47.3957 75.3905C47.6546 75.3126 47.8804 75.1942 48.0674 75.0389C48.2544 74.8831 48.3968 74.6957 48.4903 74.4814C48.5847 74.2662 48.6323 74.0189 48.6323 73.7456C48.6323 73.4723 48.5847 73.225 48.4903 73.0099C48.3964 72.796 48.2539 72.6081 48.0674 72.4523C47.88 72.2961 47.6537 72.1764 47.3953 72.0972C47.1355 72.0176 46.8352 71.9758 46.5031 71.9736H44.5186V77.0798H45.1748ZM45.1748 72.5377H46.4806C46.7192 72.5377 46.9331 72.5632 47.1157 72.6143C47.3 72.6653 47.4588 72.7436 47.588 72.8466C47.7177 72.95 47.816 73.0794 47.8808 73.2303C47.9443 73.3791 47.977 73.5529 47.977 73.7465C47.977 73.9401 47.9448 74.1139 47.8808 74.2622C47.816 74.4132 47.7177 74.5421 47.5884 74.6451C47.4619 74.748 47.304 74.8263 47.1192 74.8774C46.9362 74.928 46.7214 74.954 46.4806 74.954H45.1748V72.5377ZM10.7268 77.1823C10.2161 77.1823 9.75391 77.0648 9.34377 76.8426C8.92569 76.612 8.59493 76.2948 8.35854 75.8917C8.1226 75.489 8 75.0358 8 74.5337C8 74.0308 8.11819 73.5736 8.35854 73.1705C8.59493 72.7674 8.92569 72.4506 9.34818 72.2191C9.76979 71.9885 10.2421 71.875 10.7599 71.875C11.1682 71.875 11.536 71.9432 11.8761 72.0792C12.2121 72.2147 12.5023 72.4189 12.7382 72.6856L12.2527 73.152C11.8628 72.7392 11.372 72.5359 10.7872 72.5359C10.4009 72.5359 10.052 72.6217 9.73847 72.7942C9.42536 72.9667 9.18015 73.2061 9.00816 73.5097C8.83087 73.8129 8.74443 74.1531 8.74443 74.5289C8.74443 74.9047 8.83131 75.2444 9.00816 75.5476C9.18456 75.8508 9.43021 76.091 9.73847 76.2635C10.052 76.4351 10.4013 76.5209 10.7872 76.5209C11.3676 76.5209 11.8531 76.3132 12.2527 75.9009L12.7382 76.3669C12.5023 76.6345 12.2117 76.8382 11.8717 76.9742C11.5316 77.1141 11.1594 77.1819 10.7555 77.1819C10.7457 77.1823 10.736 77.1823 10.7268 77.1823ZM98.8893 77.1282H98.1087L97.5367 75.8288H94.7733L94.2018 77.1282H93.4344L95.7894 71.9344H96.5246L98.8893 77.1282ZM96.1572 72.6904L95.0362 75.2356H97.2779L96.1572 72.6904ZM79.2069 77.1282H78.4717V72.5817H76.6883V71.9344H80.9908V72.5817H79.2073V77.1282H79.2069ZM63.1955 77.1282H62.451V71.9344H63.1955V77.1282ZM31.0231 77.1282H30.2425L29.671 75.8288H26.9067L26.3351 77.1282H25.5682L27.9241 71.9344H28.6588L31.0231 77.1282ZM28.2871 72.6904L27.1656 75.2356H29.4081L28.2871 72.6904ZM115.908 77.1238H112.346V71.9344H113.09V76.4809H115.908V77.1238H115.908ZM45.2189 77.1238H44.4749V71.93H46.5036C47.1796 71.9344 47.7102 72.0972 48.0961 72.4189C48.4819 72.7406 48.6769 73.1846 48.6769 73.7461C48.6769 74.3075 48.4819 74.7511 48.0961 75.0728C47.7102 75.394 47.1796 75.552 46.5036 75.552H45.2189V77.1238ZM45.2189 72.5817V74.9095H46.4806C46.9574 74.9095 47.3159 74.8096 47.5607 74.6107C47.8103 74.4118 47.9329 74.1218 47.9329 73.7461C47.9329 73.3703 47.8103 73.0803 47.5607 72.8809C47.3111 72.682 46.9525 72.5821 46.4806 72.5821H45.2189V72.5817Z" fill="white"/>
<path d="M10.7258 77.1622C10.2274 77.1622 9.76569 77.0487 9.35334 76.8251C9.14651 76.7112 8.95952 76.5739 8.79767 76.4177C8.63493 76.2606 8.49337 76.0806 8.37694 75.8821C8.26007 75.6823 8.17055 75.4685 8.11145 75.2458C8.05147 75.021 8.02148 74.7816 8.02148 74.5352C8.02148 74.2857 8.05103 74.0458 8.11013 73.8219C8.16922 73.5961 8.25919 73.3814 8.37694 73.1834C8.49337 72.9845 8.63537 72.8045 8.79855 72.6478C8.96128 72.4916 9.1496 72.3543 9.3582 72.2399C9.56547 72.1264 9.78907 72.0401 10.0228 71.9834C10.2548 71.927 10.5026 71.8984 10.7593 71.8984C11.1641 71.8984 11.5267 71.9649 11.8676 72.1009C12.1939 72.2324 12.4766 72.4291 12.7073 72.6857L12.253 73.1222C12.0612 72.9233 11.8415 72.771 11.6012 72.6703C11.3555 72.5673 11.0817 72.5154 10.7866 72.5154C10.5926 72.5154 10.4052 72.5374 10.2296 72.5805C10.0537 72.6236 9.88477 72.6896 9.72688 72.7763C9.41024 72.9506 9.1615 73.1939 8.98819 73.5002V73.4997C8.8991 73.652 8.83163 73.8161 8.78752 73.9877C8.74342 74.158 8.72137 74.3407 8.72137 74.5299C8.72137 74.7191 8.74386 74.9017 8.78752 75.072C8.83163 75.2432 8.8991 75.4073 8.98819 75.5596C9.16636 75.8658 9.41509 76.1092 9.72688 76.2834C9.88477 76.3701 10.0541 76.4357 10.2296 76.4788C10.4052 76.5219 10.5926 76.5439 10.7866 76.5439C11.0777 76.5439 11.3503 76.4911 11.5959 76.3868C11.8345 76.2856 12.055 76.1329 12.2526 75.9332L12.7073 76.3692C12.4766 76.6262 12.1926 76.8229 11.8627 76.9549C11.6956 77.0236 11.5174 77.076 11.3331 77.1098C11.15 77.1437 10.9555 77.1609 10.7549 77.1609C10.7447 77.1622 10.735 77.1622 10.7258 77.1622ZM98.8544 77.1081H98.1223L97.556 75.8214L97.5503 75.8082H97.5357H94.7723H94.7578L94.7521 75.8214L94.1862 77.1076H93.4678L95.803 71.9578H96.5099L98.8544 77.1081ZM96.1562 72.6377L96.1359 72.6835L95.0149 75.2287L95.0012 75.2595H95.0352H97.2769H97.3108L97.2971 75.2287L96.1765 72.6835L96.1562 72.6377ZM79.1838 77.1081H78.4928V72.5836V72.5616H78.4707H76.7093V71.9583H80.9677V72.5616H79.2063H79.1843V72.5836V77.1081H79.1838ZM63.1724 77.1081H62.4721V71.9583H63.1724V77.1081ZM30.9881 77.1081H30.2561L29.6902 75.8218L29.6845 75.8086H29.6699H26.9057H26.8916L26.8858 75.8218L26.32 77.1081H25.6016L27.9372 71.9583H28.6433L30.9881 77.1081ZM28.286 72.6377L28.2658 72.6835L27.1443 75.2287L27.1306 75.2595H27.1646H29.4071H29.4411L29.4274 75.2287L28.3063 72.6835L28.286 72.6377ZM115.885 77.1037H112.367V71.9583H113.067V76.4828V76.5048H113.089H115.885V77.1037H115.885ZM45.1958 77.1037H44.4959V71.9539H46.5025C46.8368 71.9561 47.1389 71.9979 47.4013 72.0784C47.6629 72.1585 47.8913 72.2795 48.0809 72.4379C48.2706 72.5959 48.4148 72.786 48.51 73.0034C48.6057 73.2212 48.6538 73.472 48.6538 73.7479C48.6538 74.0238 48.6053 74.2747 48.51 74.4925C48.4148 74.7099 48.2706 74.9 48.0809 75.0579C47.8917 75.2155 47.6629 75.3352 47.4013 75.4139C47.1398 75.4922 46.8373 75.5323 46.5025 75.5323H45.2179H45.1958V75.5543V77.1037ZM45.1958 72.5616V72.5836V74.9114V74.9334H45.2179H46.4796C46.7186 74.9334 46.9317 74.9079 47.1125 74.8577C47.2942 74.8075 47.4494 74.7305 47.5738 74.6293C47.7003 74.5286 47.7965 74.4023 47.86 74.2549C47.9226 74.1088 47.9544 73.938 47.9544 73.7475C47.9544 73.557 47.9226 73.3862 47.86 73.2401C47.7969 73.0927 47.7003 72.9664 47.5738 72.8652C47.4468 72.764 47.2906 72.6874 47.1094 72.6373C46.9286 72.5871 46.7169 72.5616 46.4801 72.5616H45.2183H45.1958Z" fill="white"/>
<path d="M10.7268 77.1383C10.736 77.1383 10.7457 77.1383 10.7546 77.1383H10.755C10.9543 77.1383 11.1475 77.1212 11.3292 77.0877C11.5122 77.0538 11.6891 77.0019 11.8545 76.9337H11.8549C12.1746 76.8057 12.4511 76.6164 12.6769 76.3696L12.2536 75.963C12.0578 76.1575 11.8399 76.3062 11.6048 76.4061C11.3561 76.5117 11.0809 76.5649 10.7868 76.5649C10.591 76.5649 10.4022 76.5429 10.2245 76.4994C10.0467 76.4558 9.87607 76.3894 9.71642 76.3022H9.71598C9.40066 76.1262 9.14928 75.8798 8.96935 75.57C8.87938 75.416 8.81102 75.2501 8.76648 75.0767C8.72194 74.9047 8.69945 74.7207 8.69945 74.5293C8.69945 74.3379 8.72194 74.1535 8.76648 73.9815C8.81146 73.8081 8.87938 73.6418 8.96935 73.4877C9.14487 73.1784 9.39625 72.9324 9.71642 72.756C9.87563 72.6684 10.0467 72.6019 10.2245 72.5579C10.4018 72.5144 10.591 72.4924 10.7868 72.4924C11.0844 72.4924 11.3614 72.5452 11.6097 72.649C11.8465 72.7485 12.0631 72.8968 12.2536 73.09L12.6769 72.6834C12.4511 72.4369 12.1764 72.2477 11.8597 72.1197C11.5215 71.9846 11.1616 71.9186 10.7599 71.9186C10.505 71.9186 10.2589 71.9467 10.0287 72.0026C9.79713 72.0589 9.5753 72.1443 9.36935 72.257C9.16207 72.3705 8.97552 72.5065 8.81411 72.6614C8.6527 72.8167 8.51202 72.9949 8.39647 73.192V73.1925C8.2796 73.3887 8.19052 73.6017 8.13186 73.8253C8.07365 74.0475 8.0441 74.2855 8.0441 74.5333C8.0441 74.7779 8.07409 75.0151 8.13363 75.2387C8.19228 75.4591 8.28093 75.6712 8.39691 75.8692C8.51246 76.0659 8.6527 76.2446 8.81411 76.3999C8.97464 76.5548 9.15987 76.6908 9.36538 76.8039C9.7742 77.0261 10.2324 77.1383 10.7268 77.1383ZM98.821 77.0842L96.4964 71.9784H95.8177L93.5023 77.0842H94.1722L94.7438 75.7848H97.565L97.5764 75.8112L98.137 77.0846H98.821V77.0842ZM96.1572 72.5808L96.1978 72.6724L97.3458 75.2792H94.9692L96.1572 72.5808ZM79.1628 77.0842V72.5377H80.9463V71.9784H76.7319V72.5377H78.5154V77.0842H79.1628ZM63.1514 77.0842V71.9784H62.4951V77.0842H63.1514ZM30.9547 77.0842L28.6302 71.9784H27.9523L25.6366 77.0842H26.3065L26.878 75.7848H29.6996L29.7111 75.8112L30.2712 77.0846H30.9547V77.0842ZM28.2871 72.5808L29.4756 75.2792H27.0981L27.1254 75.2175L28.2871 72.5808ZM115.864 77.0798V76.5249H113.045V71.9784H112.389V77.0798H115.864ZM45.1748 77.0798V75.508H46.5036C46.8361 75.508 47.1364 75.4684 47.3957 75.3905C47.6546 75.3126 47.8804 75.1942 48.0674 75.0389C48.2544 74.8831 48.3968 74.6957 48.4903 74.4814C48.5847 74.2662 48.6323 74.0189 48.6323 73.7456C48.6323 73.4723 48.5847 73.225 48.4903 73.0099C48.3964 72.796 48.2539 72.6081 48.0674 72.4523C47.88 72.2961 47.6537 72.1764 47.3953 72.0972C47.1355 72.0176 46.8352 71.9758 46.5031 71.9736H44.5186V77.0798H45.1748ZM45.1748 72.5377H46.4806C46.7192 72.5377 46.9331 72.5632 47.1157 72.6143C47.3 72.6653 47.4588 72.7436 47.588 72.8466C47.7177 72.95 47.816 73.0794 47.8808 73.2303C47.9443 73.3791 47.977 73.5529 47.977 73.7465C47.977 73.9401 47.9448 74.1139 47.8808 74.2622C47.816 74.4132 47.7177 74.5421 47.5884 74.6451C47.4619 74.748 47.304 74.8263 47.1192 74.8774C46.9362 74.928 46.7214 74.954 46.4806 74.954H45.1748V72.5377ZM10.7268 77.1823C10.2161 77.1823 9.75391 77.0648 9.34377 76.8426C8.92569 76.612 8.59493 76.2948 8.35854 75.8917C8.1226 75.489 8 75.0358 8 74.5337C8 74.0308 8.11819 73.5736 8.35854 73.1705C8.59493 72.7674 8.92569 72.4506 9.34818 72.2191C9.76979 71.9885 10.2421 71.875 10.7599 71.875C11.1682 71.875 11.536 71.9432 11.8761 72.0792C12.2121 72.2147 12.5023 72.4189 12.7382 72.6856L12.2527 73.152C11.8628 72.7392 11.372 72.5359 10.7872 72.5359C10.4009 72.5359 10.052 72.6217 9.73847 72.7942C9.42536 72.9667 9.18015 73.2061 9.00816 73.5097C8.83087 73.8129 8.74443 74.1531 8.74443 74.5289C8.74443 74.9047 8.83131 75.2444 9.00816 75.5476C9.18456 75.8508 9.43021 76.091 9.73847 76.2635C10.052 76.4351 10.4013 76.5209 10.7872 76.5209C11.3676 76.5209 11.8531 76.3132 12.2527 75.9009L12.7382 76.3669C12.5023 76.6345 12.2117 76.8382 11.8717 76.9742C11.5316 77.1141 11.1594 77.1819 10.7555 77.1819C10.7457 77.1823 10.736 77.1823 10.7268 77.1823ZM98.8893 77.1282H98.1087L97.5367 75.8288H94.7733L94.2018 77.1282H93.4344L95.7894 71.9344H96.5246L98.8893 77.1282ZM96.1572 72.6904L95.0362 75.2356H97.2779L96.1572 72.6904ZM79.2069 77.1282H78.4717V72.5817H76.6883V71.9344H80.9908V72.5817H79.2073V77.1282H79.2069ZM63.1955 77.1282H62.451V71.9344H63.1955V77.1282ZM31.0231 77.1282H30.2425L29.671 75.8288H26.9067L26.3351 77.1282H25.5682L27.9241 71.9344H28.6588L31.0231 77.1282ZM28.2871 72.6904L27.1656 75.2356H29.4081L28.2871 72.6904ZM115.908 77.1238H112.346V71.9344H113.09V76.4809H115.908V77.1238H115.908ZM45.2189 77.1238H44.4749V71.93H46.5036C47.1796 71.9344 47.7102 72.0972 48.0961 72.4189C48.4819 72.7406 48.6769 73.1846 48.6769 73.7461C48.6769 74.3075 48.4819 74.7511 48.0961 75.0728C47.7102 75.394 47.1796 75.552 46.5036 75.552H45.2189V77.1238ZM45.2189 72.5817V74.9095H46.4806C46.9574 74.9095 47.3159 74.8096 47.5607 74.6107C47.8103 74.4118 47.9329 74.1218 47.9329 73.7461C47.9329 73.3703 47.8103 73.0803 47.5607 72.8809C47.3111 72.682 46.9525 72.5821 46.4806 72.5821H45.2189V72.5817Z" fill="white"/>
<path d="M46.7351 65.8839V55.917H49.9528L50.8877 55.9306C52.6121 56.0485 56.3519 56.5872 59.0024 59.0237C60.8904 60.7627 61.8478 63.0676 61.8526 65.8795H57.8138C57.8138 64.0956 57.2785 62.7367 56.1755 61.7224C54.5781 60.2597 52.1636 59.8479 50.8882 59.7299V65.8839H46.7351ZM17.6988 65.8113C13.8594 65.8113 10.8503 64.1673 9.2349 61.179C8.08253 59.0505 8.01418 56.9854 8.00977 56.7548V47.2315H12.0446V56.7275C12.0671 57.579 12.4666 62.03 17.6993 62.0256H23.967V65.8113H17.6988ZM39.1334 65.7932V56.7504H39.1378C39.0514 55.1971 38.5252 53.9927 37.5268 53.0822C35.3623 51.0985 31.6635 51.1078 31.5819 51.1078V65.7932H27.4293V47.2543H31.5819C32.3396 47.2499 37.1824 47.3674 40.4181 50.3245C42.2152 51.9681 43.2864 54.1599 43.2864 56.7504V65.7932H39.1334ZM70.3585 65.7752H64.7179C64.7179 65.6529 64.7444 62.7143 66.4736 59.8157C68.0983 57.0941 71.5338 53.8519 78.6861 53.8519V57.6375C72.9631 57.6375 70.5446 60.2461 69.5188 62.5189H78.6866V65.7743L70.3585 65.7752ZM81.8072 65.7752C81.8072 61.0522 84.294 58.4212 87.076 57.0672L88.3465 60.6989C86.9939 61.5548 85.8416 63.0716 85.8416 65.7752H81.8072ZM107.971 65.7708C104.576 65.7708 101.826 63.1895 101.826 60.0063V47.2315H106.006V59.1319C106.006 60.9568 107.585 62.4375 109.532 62.4375H115.999V65.7704L107.971 65.7708ZM94.6512 65.7567L88.1886 47.2315H92.8224L99.1809 65.7567H94.6512ZM68.6107 50.4829H64.4581V47.2227H78.7267V50.4829H68.6107Z" fill="white"/>
<path d="M46.7351 65.8839V55.917H49.9528L50.8877 55.9306C52.6121 56.0485 56.3519 56.5872 59.0024 59.0237C60.8904 60.7627 61.8478 63.0676 61.8526 65.8795H57.8138C57.8138 64.0956 57.2785 62.7367 56.1755 61.7224C54.5781 60.2597 52.1636 59.8479 50.8882 59.7299V65.8839H46.7351ZM17.6988 65.8113C13.8594 65.8113 10.8503 64.1673 9.2349 61.179C8.08253 59.0505 8.01418 56.9854 8.00977 56.7548V47.2315H12.0446V56.7275C12.0671 57.579 12.4666 62.03 17.6993 62.0256H23.967V65.8113H17.6988ZM39.1334 65.7932V56.7504H39.1378C39.0514 55.1971 38.5252 53.9927 37.5268 53.0822C35.3623 51.0985 31.6635 51.1078 31.5819 51.1078V65.7932H27.4293V47.2543H31.5819C32.3396 47.2499 37.1824 47.3674 40.4181 50.3245C42.2152 51.9681 43.2864 54.1599 43.2864 56.7504V65.7932H39.1334ZM70.3585 65.7752H64.7179C64.7179 65.6529 64.7444 62.7143 66.4736 59.8157C68.0983 57.0941 71.5338 53.8519 78.6861 53.8519V57.6375C72.9631 57.6375 70.5446 60.2461 69.5188 62.5189H78.6866V65.7743L70.3585 65.7752ZM81.8072 65.7752C81.8072 61.0522 84.294 58.4212 87.076 57.0672L88.3465 60.6989C86.9939 61.5548 85.8416 63.0716 85.8416 65.7752H81.8072ZM107.971 65.7708C104.576 65.7708 101.826 63.1895 101.826 60.0063V47.2315H106.006V59.1319C106.006 60.9568 107.585 62.4375 109.532 62.4375H115.999V65.7704L107.971 65.7708ZM94.6512 65.7567L88.1886 47.2315H92.8224L99.1809 65.7567H94.6512ZM68.6107 50.4829H64.4581V47.2227H78.7267V50.4829H68.6107Z" fill="white"/>
<path d="M19.9766 47.2344V57.2013H24.1291V47.2344H19.9766Z" fill="white"/>
<path d="M19.9824 47.2266H24.1279L23.7751 47.6226H20.3793L19.9824 47.2266Z" fill="white"/>
<path opacity="0.77" d="M19.9824 57.2124H24.1279L23.7751 56.8164H20.3793L19.9824 57.2124Z" fill="white"/>
<path opacity="0.597" d="M19.9824 57.1891V47.2266L20.3793 47.5786V56.793L19.9824 57.1891Z" fill="white"/>
<path d="M24.1293 57.1891V47.2266L23.7324 47.5786V56.793L24.1293 57.1891Z" fill="white"/>
<path d="M52.0579 50.5635H53.0973C56.7688 50.5635 57.6764 53.9281 57.6764 55.9294H61.8289V55.9021C61.8289 52.0033 59.9092 47.3438 54.2819 47.3438H46.7344V50.5635H52.0579Z" fill="white"/>
<path d="M46.7344 50.5688V47.3438L47.1313 47.7503V50.1719L46.7344 50.5688Z" fill="white"/>
<path opacity="0.658" d="M46.7344 47.3438H54.2814C59.9088 47.3438 61.8285 52.0033 61.8285 55.9021V55.9294L61.4254 55.5333C61.3063 51.8555 59.3875 47.7398 54.281 47.7398H47.1309L46.7344 47.3438Z" fill="white"/>
<path opacity="0.77" d="M58.0593 55.5391H61.4233L61.8264 55.9078V55.9351H57.6738" fill="white"/>
<path opacity="0.386" d="M47.1254 50.1836H53.0915C56.7863 50.1836 57.9329 53.388 58.0559 55.5494L57.6705 55.9455C57.6705 53.9442 56.7629 50.5796 53.0915 50.5796H46.7285L47.1254 50.1836Z" fill="white"/>
</svg>
