<svg width="124" height="124" viewBox="0 0 124 124" fill="none" xmlns="http://www.w3.org/2000/svg">
<path d="M60.0128 80.9896V41.0741L57.3121 37.8906L51.6652 38.1355L43.5631 42.0536L44.0541 46.2166L39.8803 46.9512L35.7065 58.9503L37.9161 61.1543L35.4609 63.6031L38.1616 69.2353L47.9824 68.5007" stroke="white" stroke-linecap="round" stroke-linejoin="round"/>
<path d="M60.0128 80.9912L57.0666 85.8888L54.8569 85.399L52.1562 85.8888L47.9824 83.9297L60.0128 65.8086" stroke="white" stroke-linecap="round" stroke-linejoin="round"/>
<path d="M48.4744 68.5L40.8633 73.8874L46.2647 80.0094L57.0675 85.8865" stroke="white" stroke-linecap="round" stroke-linejoin="round"/>
<path d="M38.4082 69.4805L43.0731 71.9293" stroke="white" stroke-linecap="round" stroke-linejoin="round"/>
<path d="M37.6699 61.1523L55.5928 71.9271L60.0121 77.5593" stroke="white" stroke-linecap="round" stroke-linejoin="round"/>
<path d="M59.7661 80.9883L49.9453 81.478" stroke="white" stroke-linecap="round" stroke-linejoin="round"/>
<path d="M44.0527 45.9727L48.2266 53.5639L49.2086 61.1552L48.9631 80.9905" stroke="white" stroke-linecap="round" stroke-linejoin="round"/>
<path d="M37.6699 61.1532L47.9817 53.3171L59.5211 47.9297" stroke="white" stroke-linecap="round" stroke-linejoin="round"/>
<path d="M37.916 60.663L44.054 46.46L54.1202 38.3789" stroke="white" stroke-linecap="round" stroke-linejoin="round"/>
<path d="M44.0527 46.2148L55.3466 49.888L60.0114 52.8266" stroke="white" stroke-linecap="round" stroke-linejoin="round"/>
<path d="M38.1621 60.9088H48.9649L55.5939 50.1341L57.8036 39.3594" stroke="white" stroke-linecap="round" stroke-linejoin="round"/>
<path d="M59.7663 58.457L49.209 61.1507L55.838 71.6806L56.5745 80.986" stroke="white" stroke-linecap="round" stroke-linejoin="round"/>
<path d="M60.4082 81.2305H62.8094" stroke="white" stroke-linejoin="round"/>
<path d="M60.4082 77.3125H62.8094" stroke="white" stroke-linejoin="round"/>
<path d="M60.4082 66.293H62.8094" stroke="white" stroke-linejoin="round"/>
<path d="M60.4082 58.457H62.8094" stroke="white" stroke-linejoin="round"/>
<path d="M60.4082 52.8281H62.8094" stroke="white" stroke-linejoin="round"/>
<path d="M60.4082 47.9297H62.8094" stroke="white" stroke-linejoin="round"/>
<path d="M62.9629 81.0914V41.1049L65.666 37.9141L71.3203 38.1589L79.4347 42.0844L78.9437 46.2547L83.1224 46.9918L87.3012 59.0129L85.089 61.2218L87.5467 63.6755L84.8411 69.3175L75.0056 68.5804" stroke="white" stroke-linecap="round" stroke-linejoin="round"/>
<path d="M62.9629 81.0923L65.914 85.9997L68.1261 85.51L70.8318 85.9997L75.0105 84.0382L62.9629 65.8828" stroke="white" stroke-linecap="round" stroke-linejoin="round"/>
<path d="M74.5156 68.5781L82.1365 73.9753L76.7277 80.1071L65.9102 85.994" stroke="white" stroke-linecap="round" stroke-linejoin="round"/>
<path d="M84.598 69.5625L79.9258 72.0162" stroke="white" stroke-linecap="round" stroke-linejoin="round"/>
<path d="M85.337 61.2188L67.3896 72.0131L62.9629 77.6551" stroke="white" stroke-linecap="round" stroke-linejoin="round"/>
<path d="M63.207 81.0938L73.0425 81.5835" stroke="white" stroke-linecap="round" stroke-linejoin="round"/>
<path d="M78.9411 46.0117L74.7599 53.6177L73.7754 61.2237L74.0209 81.0957" stroke="white" stroke-linecap="round" stroke-linejoin="round"/>
<path d="M85.3362 61.2207L75.0097 53.3698L63.4531 47.9727" stroke="white" stroke-linecap="round" stroke-linejoin="round"/>
<path d="M85.0877 60.7281L78.9423 46.5005L68.8613 38.4023" stroke="white" stroke-linecap="round" stroke-linejoin="round"/>
<path d="M78.9423 46.2578L67.6312 49.9384L62.959 52.8818" stroke="white" stroke-linecap="round" stroke-linejoin="round"/>
<path d="M84.8423 60.9754H74.0248L67.386 50.181L65.1738 39.3867" stroke="white" stroke-linecap="round" stroke-linejoin="round"/>
<path d="M63.207 58.5234L73.7791 61.222L67.1402 71.7715L66.4037 81.0941" stroke="white" stroke-linecap="round" stroke-linejoin="round"/>
</svg>
