<svg width="96" height="96" viewBox="0 0 96 96" fill="none" xmlns="http://www.w3.org/2000/svg">
<path fill-rule="evenodd" clip-rule="evenodd" d="M9.2902 47.7804C9.28472 52.6153 11.0978 57.2691 14.3575 60.7874C14.3825 60.8156 14.4132 60.8381 14.4475 60.8537C14.4818 60.8692 14.519 60.8774 14.5566 60.8777L16.8348 60.8886C16.9062 60.889 16.9747 60.9175 17.0253 60.9679C20.0786 63.9274 24.1069 65.6226 28.3231 65.7223C32.5393 65.8221 36.6405 64.3192 39.8258 61.5072C39.8552 61.4822 39.879 61.4512 39.8954 61.4163C39.9118 61.3813 39.9206 61.3433 39.9211 61.3047C39.9247 61.2643 39.9194 61.2237 39.9055 61.1857C39.8917 61.1477 39.8696 61.1132 39.841 61.0846L38.692 59.918C38.6428 59.8673 38.5759 59.8376 38.5053 59.8351C38.4348 59.8328 38.366 59.8577 38.3134 59.9047C35.5514 62.3405 32.0446 63.7263 28.3907 63.8257C24.7368 63.9254 21.162 62.7325 18.2759 60.4505C18.229 60.4118 18.17 60.3908 18.1092 60.3911L15.8028 60.3648C15.7653 60.365 15.7282 60.3573 15.6939 60.3421C15.6595 60.327 15.6288 60.3047 15.6037 60.2768L15.5562 60.2239C12.8379 57.0671 11.3015 53.0358 11.2172 48.8399C11.1329 44.6439 12.5062 40.5522 15.0953 37.285C15.1208 37.2515 15.1536 37.2246 15.1911 37.2062C15.2287 37.1879 15.27 37.1786 15.3116 37.1794H17.3866C17.4231 37.1798 17.4592 37.1725 17.4928 37.1581C17.5263 37.1437 17.5564 37.1224 17.5813 37.0957L17.9707 36.7127C20.7619 34.0826 24.3927 32.566 28.195 32.4413C31.9976 32.3168 35.7165 33.5928 38.6683 36.0347C38.7214 36.0779 38.7887 36.0999 38.8571 36.0962C38.9255 36.0926 38.9901 36.0636 39.0383 36.015L39.4905 35.5548C39.5175 35.5282 39.5388 35.4963 39.553 35.4611C39.5671 35.4258 39.5739 35.3881 39.5727 35.3501C39.5721 35.3125 39.564 35.2754 39.5487 35.241C39.5334 35.2066 39.5114 35.1756 39.4839 35.1499C36.3485 32.1898 32.2291 30.5449 27.9516 30.5449C23.6743 30.5449 19.555 32.1898 16.4194 35.1499L15.554 36.0305C15.5287 36.0566 15.4985 36.0774 15.465 36.0918C15.4316 36.1061 15.3957 36.1137 15.3593 36.114L13.3406 36.1338C13.2984 36.1333 13.2568 36.1429 13.2192 36.162C13.1817 36.1812 13.149 36.2092 13.1243 36.2438C10.6354 39.5522 9.2902 43.6035 9.29661 47.7696L9.29004 47.7806L9.2902 47.7804ZM16.1837 47.7804C16.1795 45.0648 17.0853 42.4288 18.7518 40.3073C18.7775 40.2742 18.8104 40.2474 18.848 40.229C18.8856 40.2107 18.9267 40.2013 18.9683 40.2016L21.0647 40.2346C21.1018 40.2362 21.1388 40.2297 21.1732 40.2157C21.2075 40.2017 21.2385 40.1804 21.2638 40.1533L21.2942 40.1225L21.3071 40.1092C23.1418 38.4632 25.5031 37.5537 27.9493 37.5513C30.3954 37.5488 32.7586 38.4536 34.5963 40.096C34.6257 40.1206 34.6495 40.1515 34.6659 40.1866C34.6823 40.2215 34.6911 40.2598 34.6915 40.2986C34.693 40.3369 34.6865 40.3751 34.6723 40.4107C34.6581 40.4464 34.6367 40.4786 34.6093 40.5055L34.1182 41.005C34.0731 41.0519 34.0127 41.0811 33.948 41.0871C33.8832 41.0932 33.8184 41.0758 33.7655 41.038C32.2272 39.9573 30.3936 39.3971 28.5247 39.4365C26.6558 39.476 24.8466 40.1134 23.354 41.2583C23.3045 41.2966 23.2434 41.3168 23.1809 41.3155L20.9566 41.2471C20.9156 41.2453 20.8748 41.253 20.8373 41.2698C20.7998 41.2867 20.7665 41.3121 20.7403 41.3441C19.0851 43.2543 18.1465 45.6981 18.0904 48.244C18.0341 50.7898 18.8638 53.274 20.433 55.2579L21.2768 56.2023C21.3045 56.2346 21.3397 56.2597 21.3793 56.2755C21.4189 56.2912 21.4617 56.297 21.5041 56.2925L24.2519 56.0504C24.2977 56.0456 24.344 56.0532 24.386 56.0723C25.8491 56.7247 27.4632 56.9634 29.0526 56.7625C30.6408 56.5616 32.1464 55.9284 33.4106 54.93C33.4635 54.8877 33.5303 54.8666 33.598 54.871C33.6654 54.8755 33.7289 54.9051 33.7763 54.9542L34.9272 56.1208C34.956 56.1493 34.9782 56.1838 34.992 56.2218C35.0059 56.2599 35.0111 56.3006 35.0073 56.3409C35.0058 56.3809 34.9954 56.4202 34.9771 56.4555C34.9589 56.4908 34.933 56.5216 34.9013 56.5456C33.1807 57.9129 31.0697 58.6738 28.8868 58.7135C26.704 58.7531 24.5675 58.0696 22.8 56.7658C22.7523 56.7292 22.6936 56.7098 22.6335 56.7108L20.2686 56.746C20.1977 56.7472 20.1293 56.7203 20.0781 56.6712L19.5546 56.1824H19.5437C17.381 53.9434 16.1709 50.9285 16.1749 47.7892L16.1837 47.7804ZM12.7369 47.7804C12.7315 44.3394 13.8572 40.9953 15.9348 38.28C15.9597 38.2461 15.9923 38.2187 16.0299 38.1999C16.0676 38.1811 16.1091 38.1716 16.1512 38.1721H18.2088C18.2455 38.1731 18.282 38.1663 18.3159 38.1523C18.3498 38.1383 18.3804 38.1173 18.4057 38.0908L18.8557 37.6306L18.8666 37.6197C21.3525 35.3184 24.5927 34.0434 27.9538 34.0434C31.3149 34.0434 34.5552 35.3185 37.0412 37.6197C37.0693 37.6452 37.0919 37.6763 37.1075 37.7112C37.1231 37.7461 37.1314 37.7839 37.1321 37.8222C37.1334 37.86 37.127 37.8976 37.1132 37.9328C37.0994 37.968 37.0786 38 37.052 38.0268L36.5847 38.5023C36.5375 38.5503 36.4743 38.5791 36.4071 38.5831C36.34 38.5872 36.2737 38.5662 36.2212 38.5242C33.928 36.738 31.0921 35.8262 28.2064 35.9466C25.3208 36.0674 22.5679 37.2132 20.4266 39.1847L20.3767 39.2353L18.1395 39.2111C18.0982 39.21 18.0573 39.2186 18.0199 39.2361C17.9823 39.2538 17.9493 39.2799 17.9232 39.3124C15.8 41.9006 14.6434 45.1685 14.6573 48.5396C14.6711 51.9107 15.8546 55.1686 17.9989 57.7387L18.4489 58.2318C18.4756 58.2624 18.509 58.2865 18.5465 58.3022C18.584 58.3178 18.6246 58.3246 18.6652 58.322L21.1082 58.267C21.1633 58.2646 21.2177 58.28 21.2638 58.3111C23.4741 59.7686 26.085 60.4681 28.7141 60.3068C31.3434 60.1457 33.8529 59.1322 35.875 57.4152C35.9278 57.3706 35.9955 57.3475 36.0645 57.3508C36.1336 57.354 36.1988 57.3833 36.2471 57.4327L37.3983 58.5993C37.427 58.6278 37.4492 58.6624 37.463 58.7005C37.4768 58.7386 37.482 58.7792 37.4782 58.8196C37.4771 58.8588 37.4677 58.8974 37.4505 58.9327C37.4334 58.968 37.4089 58.9992 37.3787 59.0243C34.9219 61.1113 31.8164 62.2429 28.6157 62.2176C25.4152 62.1922 22.3274 61.0114 19.903 58.8856C19.8533 58.8405 19.7883 58.8161 19.7212 58.8174H17.3996C17.3647 58.8176 17.33 58.8109 17.2978 58.7977C17.2655 58.7845 17.2361 58.7649 17.2114 58.7403L17.1226 58.6566C14.307 55.7622 12.7304 51.8526 12.737 47.7804H12.7369Z" fill="white"/>
<path fill-rule="evenodd" clip-rule="evenodd" d="M27.9166 52.3409C27.134 52.354 26.3607 52.1692 25.6685 51.8039C25.0184 51.4586 24.4768 50.9397 24.1042 50.3049C23.7308 49.6401 23.5348 48.8904 23.5352 48.1279C23.5348 47.3654 23.7308 46.6156 24.1042 45.9508C24.4781 45.317 25.0193 44.7984 25.6685 44.4518C26.3608 44.0865 27.134 43.9017 27.9166 43.9147C28.5928 43.9048 29.2632 44.0391 29.8833 44.3088C30.4551 44.5612 30.956 44.9505 31.3416 45.4425L29.9072 46.7631C29.6887 46.4687 29.4048 46.2291 29.0779 46.0632C28.7529 45.8984 28.3936 45.8125 28.0291 45.8122C27.625 45.8049 27.2263 45.9052 26.8737 46.1028C26.5383 46.2923 26.2659 46.5763 26.0905 46.9194C25.9063 47.2964 25.8107 47.7105 25.8108 48.1301C25.8108 48.5502 25.9065 48.9647 26.0905 49.3408C26.2662 49.6831 26.5386 49.9663 26.8737 50.1552C27.2263 50.3528 27.625 50.4531 28.0291 50.4458C28.3933 50.4454 28.7523 50.3596 29.0773 50.1952C29.4042 50.0297 29.6882 49.7908 29.9072 49.4971L31.3416 50.8177C30.9561 51.3103 30.4552 51.7004 29.8833 51.9535C29.2627 52.221 28.5923 52.3531 27.9166 52.3409ZM35.5415 50.0298H34.3125V52.1825H32.0601V44.0799H35.6993C36.3441 44.0646 36.9847 44.1885 37.5774 44.443C38.0809 44.6621 38.5085 45.0251 38.8064 45.4864C39.1017 45.9638 39.252 46.5167 39.239 47.078C39.2536 47.6196 39.1133 48.1541 38.8346 48.6187C38.5559 49.0646 38.1548 49.4207 37.679 49.6445L39.3992 52.1913H36.9868L35.5415 50.0385V50.0298ZM36.9629 47.078C36.9726 46.9138 36.9459 46.7495 36.8848 46.5969C36.8241 46.4449 36.7303 46.3085 36.6102 46.1974C36.3114 45.9681 35.9386 45.8569 35.5631 45.8849H34.3125V48.2577H35.5609C35.9354 48.2855 36.3074 48.1769 36.6081 47.9518C36.7285 47.8422 36.8227 47.707 36.8837 47.5561C36.9452 47.4046 36.9723 47.2412 36.9629 47.078Z" fill="white"/>
<path d="M42.4496 44.0781H40.1973V52.1808H42.4496V44.0781Z" fill="white"/>
<path fill-rule="evenodd" clip-rule="evenodd" d="M45.4664 45.8936H43.0215V44.0754H50.155V45.8936H47.7188V52.1781H45.4664V45.8936ZM57.1091 50.4084V52.1781H50.7133V44.0754H56.9597V45.8475H52.944V47.2121H56.4816V48.9247H52.944V50.4084H57.1091ZM61.5573 50.0253H60.3285V52.1781H58.0761V44.0754H61.7175C62.3623 44.0604 63.0028 44.1843 63.5956 44.4386C63.9616 44.6143 64.2867 44.8648 64.5498 45.174C64.8147 45.4852 65.0122 45.8478 65.1301 46.2391C65.2483 46.6315 65.2847 47.0441 65.237 47.4511C65.1893 47.8582 65.0584 48.2511 64.8526 48.6055C64.573 49.0505 64.1722 49.4064 63.6973 49.6314L65.4196 52.1781H63.0027L61.5573 50.0253ZM62.9811 47.0735C62.9908 46.9094 62.9641 46.7451 62.903 46.5924C62.8423 46.4405 62.7485 46.304 62.6284 46.193C62.3296 45.9637 61.9569 45.8524 61.5813 45.8805H60.3285V48.2533H61.5813C61.9558 48.2811 62.3277 48.1724 62.6284 47.9474C62.7476 47.837 62.8409 47.7016 62.9016 47.5509C62.9626 47.3995 62.9898 47.2365 62.9811 47.0735Z" fill="white"/>
<path d="M68.4653 44.0781H66.2129V52.1808H68.4653V44.0781Z" fill="white"/>
<path fill-rule="evenodd" clip-rule="evenodd" d="M73.8033 52.3408C73.013 52.3536 72.2323 52.1666 71.5335 51.7971C70.8729 51.4439 70.3216 50.9165 69.9395 50.272C69.5543 49.6231 69.3512 48.8824 69.3516 48.1277C69.3516 47.3717 69.5549 46.6302 69.9395 45.9834C70.3216 45.339 70.8729 44.8116 71.5335 44.4583C72.2375 44.1008 73.0158 43.9143 73.8053 43.9141C74.5949 43.9143 75.3733 44.1008 76.0772 44.4583C76.7379 44.8115 77.2892 45.3389 77.6713 45.9833C78.0565 46.6322 78.2596 47.3731 78.2592 48.1277C78.2592 48.8836 78.0559 49.6253 77.6713 50.272C77.2892 50.9165 76.7379 51.4439 76.0772 51.7971C75.3779 52.1669 74.5963 52.3539 73.8053 52.3408H73.8033ZM73.8033 50.4434C74.1835 50.4465 74.5575 50.3461 74.885 50.1528C75.2136 49.9583 75.4818 49.6764 75.6596 49.3385C75.8466 48.9622 75.9438 48.5478 75.9437 48.1277C75.9437 47.707 75.8464 47.2924 75.6596 46.917C75.4824 46.5781 75.2141 46.2953 74.885 46.1004C74.5526 45.9102 74.1764 45.81 73.7934 45.8098C73.4112 45.8098 73.0352 45.9099 72.7019 46.1004C72.3728 46.2953 72.1046 46.5781 71.9274 46.917C71.739 47.2928 71.641 47.7074 71.6412 48.1277C71.6412 48.5486 71.7392 48.9636 71.9274 49.3385C72.1052 49.6764 72.3733 49.9583 72.7019 50.1528C73.0349 50.3504 73.4161 50.4517 73.8033 50.4456V50.4434ZM86.7094 44.0797V52.1823H84.8552L81.3393 47.8658V52.1823H79.1302V44.0797H80.9866L84.5025 48.3985V44.0797H86.7094Z" fill="white"/>
</svg>
