<svg width="96" height="96" viewBox="0 0 96 96" fill="none" xmlns="http://www.w3.org/2000/svg">
<path d="M44.9123 54.6308C42.8608 54.855 40.7904 54.4308 38.9942 53.4181C37.198 52.4055 35.7669 50.8558 34.9036 48.9883C34.0402 47.1208 33.7883 45.0302 34.1834 43.0122C34.5785 40.9942 35.6007 39.1511 37.1052 37.7437L32.8945 33.2812C31.3074 34.7651 30.0427 36.5575 29.1787 38.5477C28.3146 40.5378 27.8696 42.6834 27.8711 44.8517C27.8711 53.6363 35.0255 60.7571 43.8437 60.7571C45.8346 60.7592 47.8081 60.3872 49.6606 59.6606L44.9123 54.6308Z" fill="white"/>
<path d="M51.42 44.3262H43.293L54.754 56.4576C56.2348 55.0799 57.4381 53.4334 58.2992 51.6063L51.42 44.3262Z" fill="white"/>
<path d="M67.3546 67.0591L61.4033 60.7543V40.106L67.3546 37.5879V67.0591Z" fill="white"/>
<path d="M43.8436 35.0849C45.8556 35.0814 47.8197 35.6957 49.4686 36.8444V36.8508C49.7592 37.055 50.0391 37.2742 50.3069 37.5074C50.5244 37.6986 50.7292 37.8962 50.9276 38.1002L56.8405 35.6076C56.1504 34.6444 55.354 33.7613 54.4664 32.9748C54.4465 32.9541 54.4251 32.9349 54.4024 32.9174C54.396 32.9111 54.3832 32.9047 54.3768 32.8919C54.3192 32.8409 54.2616 32.7963 54.2104 32.7453C54.1784 32.7198 54.1528 32.6943 54.1208 32.6688C54.0632 32.6178 53.9992 32.5668 53.9416 32.5222L53.8329 32.4329L53.6601 32.2991C53.6217 32.2672 53.5769 32.2353 53.5385 32.2034L53.3785 32.0823L53.2377 31.9803C53.1865 31.9421 53.1417 31.9102 53.0905 31.8783C53.0393 31.8465 52.9818 31.8018 52.9242 31.7636C52.8794 31.7381 52.841 31.7062 52.7962 31.6807C52.7322 31.6361 52.6682 31.5915 52.5978 31.5468C52.5658 31.5277 52.5338 31.5022 52.5018 31.4831C52.425 31.4321 52.3418 31.3811 52.265 31.3301L52.2074 31.2918L51.9195 31.1197C51.9178 31.1197 51.9162 31.119 51.915 31.1178C51.9138 31.1166 51.9131 31.115 51.9131 31.1133C49.8246 29.8965 47.4856 29.1688 45.0731 28.9855C42.6606 28.8022 40.2379 29.1679 37.9883 30.0551L42.7877 35.1423C43.1269 35.1104 43.4788 35.0849 43.8436 35.0849Z" fill="white"/>
</svg>
