<svg width="88" height="88" viewBox="0 0 88 88" fill="none"
    xmlns="http://www.w3.org/2000/svg">
    <circle cx="43.3489" cy="45.1238" r="38.8747" stroke="url(#paint0_linear_4612_2482)" stroke-width="0.5"/>
    <path d="M43.3489 5.99902L77.2319 64.6861H9.46584L43.3489 5.99902Z" stroke="url(#paint1_linear_4612_2482)" stroke-width="0.5" stroke-linecap="round" stroke-dasharray="1 1"/>
    <path d="M43.3497 63.3848L27.5376 35.9974H59.1618L43.3497 63.3848Z" fill="url(#paint2_linear_4612_2482)" stroke="url(#paint3_linear_4612_2482)" stroke-width="0.5" stroke-linecap="round" stroke-dasharray="1 1"/>
    <path d="M43.8175 43.8466L43.8503 43.8402L43.8832 43.8341L43.9163 43.8284L43.9495 43.8229L43.9828 43.8178L44.0162 43.813L44.0497 43.8086L44.0833 43.8044L44.1171 43.8006L44.1509 43.7971L44.1849 43.794L44.2189 43.7912L44.2531 43.7887L44.2873 43.7866L44.3216 43.7848L44.356 43.7833L44.3905 43.7822L44.4251 43.7814L44.4597 43.781L44.4944 43.7809L44.5292 43.7812L44.5641 43.7818L44.599 43.7828L44.634 43.7841L44.669 43.7857L44.7041 43.7878L44.7392 43.7901L44.7743 43.7929L44.8096 43.796L44.8448 43.7994L44.8801 43.8032L44.9154 43.8074L44.9507 43.8119L44.9861 43.8168L45.0215 43.8221L45.0569 43.8277L45.0923 43.8337L45.1277 43.8401L45.1631 43.8468L45.1986 43.8539L45.234 43.8614L45.2694 43.8692L45.3048 43.8774L45.3402 43.886L45.3756 43.8949L45.4109 43.9042L45.4463 43.9139L45.4816 43.924L45.5169 43.9344L45.5521 43.9452L45.5873 43.9564L45.6225 43.968L45.6576 43.9799L45.6926 43.9922L45.7276 44.0049L45.7626 44.0179L45.7975 44.0314L45.8323 44.0452L45.867 44.0594L45.9017 44.0739L45.9363 44.0889L45.9708 44.1042L46.0052 44.1199L46.0396 44.1359L46.0738 44.1524L46.1079 44.1692L46.142 44.1864L46.1759 44.2039L46.2097 44.2219L46.2435 44.2402L46.2771 44.2589L46.3105 44.2779L46.3439 44.2974L46.3771 44.3172L46.4102 44.3373L46.4431 44.3579L46.4759 44.3788L46.5086 44.4001L46.5411 44.4217L46.5734 44.4438L46.6056 44.4661L46.6377 44.4889L46.6696 44.512L46.7013 44.5355L46.7328 44.5594L46.7641 44.5836L46.7953 44.6081L46.8263 44.6331L46.8571 44.6584L46.8877 44.684L46.9181 44.71L46.9483 44.7364L46.9783 44.7631L47.0081 44.7902L47.0377 44.8176L47.067 44.8454L47.0962 44.8735L47.1251 44.902L47.1538 44.9308L47.1822 44.9599L47.2104 44.9894L47.2384 45.0193L47.2661 45.0494L47.2936 45.0799L47.3208 45.1108L47.3478 45.142L47.3745 45.1735L47.401 45.2053L47.4272 45.2375L47.4531 45.27L47.4787 45.3028L47.5041 45.3359L47.5291 45.3694L47.5539 45.4032L47.5784 45.4373L47.6026 45.4717L47.6265 45.5064L47.6502 45.5414L47.6735 45.5767L47.6964 45.6123L47.7191 45.6482L47.7415 45.6845L47.7635 45.721L47.7853 45.7578L47.8067 45.7949L47.8277 45.8323L47.8485 45.8699L47.8689 45.9079L47.8889 45.9461L47.9086 45.9846L47.928 46.0234L47.947 46.0624L47.9657 46.1017L47.984 46.1413L48.0019 46.1812L48.0195 46.2212L48.0367 46.2616L48.0535 46.3022L48.07 46.343L48.0861 46.3841L48.1018 46.4255L48.1171 46.467L48.1321 46.5089L48.1466 46.5509L48.1608 46.5932L48.1745 46.6356L48.1879 46.6784L48.2009 46.7213L48.2134 46.7644L48.2256 46.8078L48.2373 46.8513L48.2486 46.8951L48.2595 46.9391L48.27 46.9832L48.2801 47.0276L48.2897 47.0721L48.2989 47.1168L48.3077 47.1617L48.3161 47.2068L48.324 47.252L48.3315 47.2974L48.3385 47.343L48.3451 47.3887L48.3512 47.4346L48.3569 47.4807L48.3622 47.5269L48.367 47.5732L48.3713 47.6197L48.3752 47.6663L48.3786 47.713L48.3816 47.7598L48.3841 47.8068L48.3861 47.8539L48.3877 47.9011L48.3888 47.9484L48.3894 47.9959L48.3896 48.0434L48.3893 48.091L48.3885 48.1387L48.3872 48.1865L48.3854 48.2344L48.3832 48.2823L48.3804 48.3303L48.3772 48.3784L48.3735 48.4265L48.3693 48.4747L48.3646 48.523L48.3595 48.5713L48.3538 48.6196L48.3476 48.668L48.341 48.7164L48.3338 48.7649L48.3261 48.8133L48.318 48.8618L48.3093 48.9103L48.3001 48.9588L48.2905 49.0073L48.2803 49.0558L48.2696 49.1043L48.2584 49.1528L48.2467 49.2013L48.2345 49.2497L48.2218 49.2981L48.2086 49.3465L48.1948 49.3948L48.1806 49.4431L48.1658 49.4914L48.1506 49.5396L48.1348 49.5877L48.1185 49.6358L48.1017 49.6838L48.0844 49.7317L48.0665 49.7796L48.0482 49.8273L48.0293 49.875L48.0099 49.9226L47.99 49.9701L47.9696 50.0174L47.9487 50.0647L47.9273 50.1118L47.9053 50.1589L47.8828 50.2058L47.8599 50.2525L47.8364 50.2991L47.8124 50.3456L47.7878 50.3919L47.7628 50.4381L47.7373 50.4841L47.7112 50.5299L47.6847 50.5756L47.6576 50.6211L47.63 50.6664L47.6019 50.7115L47.5733 50.7565L47.5442 50.8012L47.5146 50.8457L47.4845 50.89L47.4539 50.9341L47.4228 50.978L47.3911 51.0217L47.359 51.0651L47.3264 51.1083L47.2933 51.1512L47.2597 51.1939L47.2256 51.2364L47.191 51.2785L47.1559 51.3205L47.1204 51.3621L47.0843 51.4035L47.0478 51.4446L47.0108 51.4854L46.9733 51.5259L46.9353 51.5661L46.8968 51.606L46.8579 51.6456L46.8185 51.6849L46.7786 51.7239L46.7382 51.7626L46.6974 51.8009L46.6562 51.8389L46.6144 51.8765L46.5722 51.9139L46.5296 51.9508L46.4865 51.9874L46.4429 52.0237L46.3989 52.0595L46.3544 52.095L46.3095 52.1302L46.2642 52.1649L46.2184 52.1993L46.1722 52.2333L46.1256 52.2668L46.0785 52.3L46.0311 52.3328L45.9832 52.3651L45.9348 52.3971L45.8861 52.4286L45.8369 52.4597L45.7874 52.4903L45.7374 52.5205L45.6871 52.5503L45.6363 52.5796L45.5852 52.6085L45.5336 52.6369L45.4817 52.6649L45.4294 52.6924L45.3767 52.7194L45.3236 52.746L45.2702 52.7721L45.2164 52.7976L45.1623 52.8227L45.1077 52.8473L45.0529 52.8715L44.9977 52.8951L44.9421 52.9182L44.8862 52.9407L44.83 52.9628L44.7734 52.9844L44.7165 53.0054L44.6593 53.0259L44.6018 53.0458L44.5439 53.0653L44.4858 53.0841L44.4273 53.1025L44.3686 53.1203L44.3096 53.1375L44.2502 53.1542L44.1906 53.1703L44.1307 53.1858L44.0706 53.2008L44.0101 53.2152L43.9494 53.229L43.8885 53.2423L43.8273 53.255L43.7658 53.267L43.7041 53.2785L43.6422 53.2894L43.5801 53.2997L43.5177 53.3094L43.4551 53.3184L43.3923 53.3269L43.3293 53.3347L43.266 53.342L43.2026 53.3486L43.139 53.3546L43.0752 53.36L43.0113 53.3647L42.9471 53.3688L42.8828 53.3723L42.8183 53.3751L42.7537 53.3773L42.6889 53.3789L42.624 53.3798L42.559 53.3801L42.4938 53.3797L42.4285 53.3786L42.3631 53.3769L42.2976 53.3746L42.2319 53.3715L42.1662 53.3678L42.1004 53.3635L42.0345 53.3585L41.9685 53.3528L41.9024 53.3464L41.8363 53.3394L41.7701 53.3317L41.7039 53.3233L41.6376 53.3142L41.5713 53.3045L41.5049 53.294L41.4386 53.2829L41.3722 53.2711L41.3058 53.2586L41.2394 53.2454L41.173 53.2315L41.1066 53.217L41.0402 53.2017L40.9738 53.1857L40.9075 53.1691L40.8412 53.1517L40.775 53.1337L40.7088 53.1149L40.6427 53.0955L40.5766 53.0753L40.5106 53.0545L40.4447 53.0329L40.3789 53.0107L40.3131 52.9877L40.2475 52.9641L40.182 52.9397L40.1166 52.9146L40.0513 52.8889L39.9861 52.8624L39.9211 52.8352L39.8563 52.8073L39.7915 52.7787L39.727 52.7494L39.6626 52.7194L39.5984 52.6887L39.5344 52.6573L39.4705 52.6252L39.4069 52.5924L39.3434 52.5589L39.2802 52.5247L39.2172 52.4898L39.1544 52.4542L39.0919 52.4178L39.0296 52.3808L38.9675 52.3431L38.9057 52.3047L38.8442 52.2656L38.7829 52.2258L38.7219 52.1854L38.6612 52.1442L38.6008 52.1023L38.5407 52.0598L38.481 52.0165L38.4215 51.9726L38.3623 51.928L38.3035 51.8828L38.245 51.8368L38.1869 51.7902L38.1291 51.7429L38.0717 51.6949L38.0146 51.6463L37.958 51.5969L37.9017 51.547L37.8458 51.4963L37.7903 51.445L37.7352 51.3931L37.6805 51.3405L37.6262 51.2872L37.5724 51.2333L37.519 51.1788L37.466 51.1236L37.4135 51.0678L37.3615 51.0113L37.3099 50.9542L37.2588 50.8965L37.2081 50.8381L37.158 50.7792L37.1083 50.7196L37.0592 50.6594L37.0105 50.5986L36.9624 50.5372L36.9147 50.4751L36.8677 50.4125L36.8211 50.3493L36.7751 50.2855L36.7296 50.2211L36.6847 50.1562L36.6404 50.0906L36.5966 50.0245L36.5534 49.9578L36.5108 49.8906L36.4688 49.8228L36.4274 49.7544L36.3866 49.6855L36.3464 49.6161L36.3068 49.5461L36.2678 49.4755L36.2295 49.4045L36.1918 49.3329L36.1547 49.2608L36.1183 49.1882L36.0826 49.1151L36.0475 49.0415L36.0131 48.9674L35.9793 48.8928L35.9463 48.8177L35.9139 48.7422L35.8822 48.6662L35.8512 48.5897L35.821 48.5127L35.7914 48.4353L35.7626 48.3574L35.7344 48.2792L35.7071 48.2004L35.6804 48.1213L35.6545 48.0417L35.6293 47.9617L35.6049 47.8813L35.5813 47.8005L35.5584 47.7193L35.5362 47.6377L35.5149 47.5557L35.4943 47.4734L35.4745 47.3907L35.4556 47.3076L35.4374 47.2242L35.42 47.1404L35.4034 47.0563L35.3876 46.9719L35.3726 46.8871L35.3585 46.8021L35.3451 46.7167L35.3327 46.631L35.321 46.545L35.3102 46.4588L35.3002 46.3722L35.2911 46.2854L35.2828 46.1984L35.2754 46.1111L35.2688 46.0235L35.2631 45.9357L35.2583 45.8477L35.2543 45.7594L35.2513 45.671L35.2491 45.5823L35.2477 45.4935L35.2473 45.4044L35.2478 45.3152L35.2491 45.2258L35.2514 45.1363L35.2546 45.0465L35.2586 44.9567L35.2636 44.8667L35.2695 44.7766L35.2763 44.6864L35.284 44.5961L35.2926 44.5056L35.3022 44.4151L35.3127 44.3245L35.3241 44.2338L35.3364 44.1431L35.3497 44.0523L35.3639 43.9615L35.3791 43.8706L35.3952 43.7797L35.4122 43.6888L35.4302 43.5979L35.4491 43.507L35.469 43.416L35.4898 43.3252L35.5116 43.2343L35.5343 43.1435L35.558 43.0528L35.5826 42.9621L35.6082 42.8714L35.6348 42.7809L35.6623 42.6904L35.6907 42.6001L35.7202 42.5098L35.7506 42.4197L35.7819 42.3297L35.8142 42.2398L35.8475 42.1501L35.8818 42.0605L35.917 41.9711L35.9531 41.8819L35.9903 41.7929L36.0284 41.7041L36.0675 41.6154L36.1075 41.527L36.1485 41.4389L36.1904 41.3509L36.2334 41.2633L36.2772 41.1758L36.3221 41.0887L36.3679 41.0018L36.4147 40.9152L36.4624 40.8289L36.5111 40.743L36.5607 40.6573L36.6113 40.572L36.6629 40.487L36.7154 40.4023L36.7688 40.3181L36.8232 40.2342L36.8785 40.1506L36.9348 40.0675L36.9921 39.9848L37.0503 39.9025L37.1094 39.8206L37.1694 39.7391L37.2304 39.6581L37.2923 39.5775L37.3552 39.4974L37.4189 39.4178L37.4836 39.3386L37.5492 39.26L37.6157 39.1818L37.6832 39.1042L37.7515 39.0271L37.8208 38.9505L37.8909 38.8745L37.962 38.799L38.0339 38.7241L38.1068 38.6497L38.1805 38.576L38.2551 38.5028L38.3306 38.4303L38.407 38.3583L38.4842 38.287L38.5623 38.2163L38.6413 38.1463L38.7211 38.0769L38.8017 38.0082L38.8833 37.9402L38.9656 37.8728L39.0488 37.8061L39.1328 37.7402L39.2177 37.6749L39.3033 37.6104L39.3898 37.5466L39.4771 37.4835L39.5652 37.4212L39.6541 37.3597L39.7437 37.2989L39.8342 37.2389L39.9254 37.1797L40.0174 37.1213L40.1102 37.0638L40.2037 37.007L40.298 36.951L40.393 36.8959L40.4888 36.8416L40.5853 36.7882L40.6825 36.7357L40.7805 36.684L40.8791 36.6332L40.9784 36.5833L41.0785 36.5343L41.1792 36.4862L41.2806 36.439L41.3827 36.3927L41.4854 36.3474L41.5888 36.303L41.6928 36.2595L41.7975 36.217L41.9028 36.1755L42.0088 36.135L42.1153 36.0954L42.2225 36.0568L42.3302 36.0192L42.4385 35.9827L42.5474 35.9471L42.6569 35.9126L42.7669 35.8791L42.8775 35.8466L42.9886 35.8152L43.1003 35.7848L43.2125 35.7555L43.3252 35.7272L43.4384 35.7001L43.5521 35.674L43.6662 35.649L43.7809 35.6251L43.896 35.6023L44.0116 35.5806L44.1276 35.56L44.244 35.5405L44.3609 35.5222L44.4781 35.505L44.5958 35.489L44.7139 35.4741L44.8323 35.4603L44.9511 35.4477L45.0703 35.4363L45.1898 35.426L45.3097 35.417L45.4299 35.4091L45.5503 35.4024L45.6711 35.3969L45.7922 35.3925L45.9136 35.3894L46.0352 35.3875L46.1571 35.3869L46.2793 35.3874L46.4016 35.3892L46.5242 35.3922L46.647 35.3964L46.77 35.4019L46.8932 35.4086L47.0165 35.4165L47.1401 35.4257L47.2637 35.4362L47.3875 35.4479L47.5114 35.4609L47.6355 35.4752L47.7596 35.4907L47.8838 35.5075L48.0081 35.5256L48.1325 35.5449L48.2569 35.5656L48.3813 35.5875L48.5058 35.6107L48.6303 35.6352L48.7548 35.661L48.8792 35.6881L49.0036 35.7165L49.128 35.7462L49.2524 35.7773L49.3766 35.8096L49.5008 35.8432L49.6249 35.8781L49.7489 35.9144L49.8727 35.9519L49.9965 35.9908L50.12 36.031L50.2435 36.0725L50.3667 36.1153L50.4898 36.1595L50.6126 36.2049L50.7352 36.2517L50.8576 36.2998L50.9798 36.3492L51.1017 36.4L51.2233 36.452L51.3447 36.5054L51.4657 36.5601L51.5865 36.6161L51.7069 36.6735L51.827 36.7321L51.9467 36.7921L52.0661 36.8534L52.185 36.916L52.3036 36.9799L52.4218 37.0452L52.5395 37.1117L52.6568 37.1796L52.7737 37.2487L52.8901 37.3192L53.006 37.391L53.1214 37.4641L53.2363 37.5384L53.3507 37.6141L53.4646 37.6911L53.5779 37.7693L53.6907 37.8489L53.8028 37.9297L53.9144 38.0118L54.0254 38.0952L54.1357 38.1799L54.2455 38.2658L54.3545 38.353L54.4629 38.4415L54.5707 38.5312L54.6777 38.6222L54.7841 38.7144L54.8897 38.8079L54.9946 38.9026L55.0988 38.9986L55.2022 39.0957L55.3048 39.1942L55.4066 39.2938L55.5077 39.3946L55.6079 39.4967L55.7073 39.5999L55.8059 39.7044L55.9036 39.81L56.0004 39.9169L56.0964 40.0249L56.1914 40.1341L56.2856 40.2444L56.3788 40.3559L56.4711 40.4686L56.5625 40.5824L56.6529 40.6973L56.7423 40.8134L56.8307 40.9306L56.9181 41.0489L57.0045 41.1683L57.0899 41.2888L57.1742 41.4104L57.2575 41.5331L57.3397 41.6569L57.4209 41.7817L57.5009 41.9076L57.5799 42.0345L57.6577 42.1625L57.7344 42.2915L57.8099 42.4215L57.8843 42.5525L57.9575 42.6846L58.0296 42.8176L58.1004 42.9516L58.1701 43.0866L58.2385 43.2225L58.3057 43.3594L58.3717 43.4972L58.4364 43.636L58.4999 43.7757L58.562 43.9163L58.6229 44.0577L58.6825 44.2001L58.7408 44.3434L58.7977 44.4875L58.8534 44.6324L58.9076 44.7782L58.9605 44.9249L59.0121 45.0723L59.0623 45.2206L59.1111 45.3696L59.1585 45.5194L59.2045 45.67L59.249 45.8214L59.2922 45.9734L59.3339 46.1263L59.3741 46.2798L59.4129 46.434L59.4502 46.5889L59.4861 46.7445L59.5204 46.9008L59.5532 47.0577L59.5846 47.2153L59.6144 47.3734L59.6427 47.5322L59.6695 47.6916L59.6947 47.8515L59.7184 48.012L59.7405 48.1731L59.761 48.3347L59.7799 48.4968L59.7973 48.6595L59.8131 48.8226L59.8272 48.9862L59.8398 49.1502L59.8507 49.3147L59.86 49.4797L59.8677 49.645L59.8737 49.8108L59.8781 49.9769L59.8809 50.1434L59.8819 50.3103L59.8813 50.4774L59.879 50.645L59.8751 50.8128L59.8694 50.9809L59.8621 51.1492L59.853 51.3179L59.8423 51.4867L59.8298 51.6558L59.8156 51.8251L59.7997 51.9946L59.782 52.1643L59.7627 52.3341L59.7415 52.504L59.7187 52.6741L59.6941 52.8442L59.6677 53.0145L59.6396 53.1848L59.6097 53.3552L59.5781 53.5256L59.5446 53.696L59.5095 53.8664L59.4725 54.0368L59.4337 54.2072L59.3932 54.3775L59.3509 54.5477L59.3068 54.7179L59.2609 54.8879L59.2132 55.0578L59.1637 55.2276L59.1125 55.3971L59.0594 55.5666L59.0045 55.7358L58.9478 55.9047L58.8893 56.0735L58.8291 56.242L58.767 56.4102L58.7031 56.5781L58.6373 56.7457L58.5698 56.913L58.5005 57.08L58.4294 57.2465L58.3564 57.4127L58.2817 57.5785L58.2051 57.7438L58.1268 57.9087L58.0466 58.0731L57.9646 58.2371L57.8808 58.4005L57.7953 58.5635L57.7079 58.7259L57.6187 58.8877L57.5278 59.0489L57.435 59.2096L57.3404 59.3696L57.2441 59.529L57.146 59.6878L57.0461 59.8459L56.9444 60.0033L56.8409 60.1599L56.7357 60.3159L56.6287 60.4711L56.5199 60.6255L56.4094 60.7791L56.2971 60.932L56.1831 61.084L56.0673 61.2351L55.9498 61.3854L55.8305 61.5348L55.7095 61.6833L55.5868 61.8309L55.4624 61.9776L55.3363 62.1232L55.2084 62.2679L55.0789 62.4116L54.9477 62.5543L54.8147 62.696L54.6801 62.8366L54.5439 62.9761L54.4059 63.1145L54.2663 63.2518L54.1251 63.388L53.9822 63.523L53.8377 63.6569L53.6916 63.7896L53.5438 63.9211L53.3945 64.0513L53.2435 64.1803L53.091 64.3081L52.9369 64.4345L52.7812 64.5597L52.6239 64.6836L52.4651 64.8061L52.3048 64.9272L52.143 65.047L51.9796 65.1655L51.8147 65.2825L51.6483 65.398L51.4805 65.5122L51.3112 65.6249L51.1404 65.7361L50.9681 65.8458L50.7945 65.954L50.6194 66.0606L50.4429 66.1658L50.265 66.2693L50.0857 66.3713L49.905 66.4717L49.723 66.5705L49.5397 66.6676L49.355 66.7631L49.169 66.8569L48.9816 66.9491L48.793 67.0395L48.6032 67.1282L48.412 67.2152L48.2197 67.3005L48.026 67.384L47.8312 67.4657L47.6352 67.5456L47.438 67.6238L47.2396 67.7001L47.0401 67.7745L46.8394 67.8471L46.6376 67.9179L46.4348 67.9867L46.2308 68.0537L46.0258 68.1187L45.8197 68.1818L45.6125 68.243L45.4044 68.3022L45.1953 68.3595L44.9851 68.4147L44.774 68.468L44.562 68.5192L44.3491 68.5685L44.1352 68.6157L43.9204 68.6608L43.7048 68.7039L43.4883 68.7449L43.271 68.7838L43.0529 68.8206L42.8339 68.8553L42.6142 68.8879L42.3938 68.9183L42.1726 68.9466L41.9507 68.9727L41.7281 68.9966L41.5048 69.0184L41.2809 69.038L41.0563 69.0553L40.8311 69.0705L40.6054 69.0834L40.379 69.0941L40.1522 69.1025L39.9247 69.1087L39.6968 69.1126L39.4684 69.1143L39.2396 69.1136L39.0103 69.1107L38.7805 69.1054L38.5504 69.0979L38.3199 69.088L38.0891 69.0758L37.8579 69.0612L37.6264 69.0444L37.3947 69.0251L37.1627 69.0035L36.9304 68.9795L36.6979 68.9532L36.4653 68.9245L36.2324 68.8934L35.9995 68.8599L35.7664 68.824L35.5332 68.7857L35.3 68.7449L35.0667 68.7018L34.8333 68.6562L34.6 68.6083L34.3667 68.5578L34.1335 68.505L33.9003 68.4497L33.6672 68.392L33.4343 68.3318L33.2015 68.2691L32.9688 68.2041L32.7364 68.1365L32.5042 68.0665L32.2722 67.994L32.0405 67.9191L31.8092 67.8417L31.5781 67.7618L31.3474 67.6795L31.117 67.5946L30.8871 67.5073L30.6576 67.4176L30.4285 67.3253L30.1999 67.2306L29.9719 67.1334L29.7443 67.0338L29.5173 66.9316L29.2909 66.827L29.0651 66.7199L28.8399 66.6104L28.6154 66.4983L28.3915 66.3838L28.1684 66.2669L27.946 66.1474L27.7244 66.0255L27.5036 65.9012L27.2835 65.7744L27.0643 65.6451L26.846 65.5134L26.6286 65.3793L26.4121 65.2427L26.1966 65.1036L25.982 64.9622L25.7684 64.8183L25.5558 64.672L25.3443 64.5233L25.1339 64.3722L24.9245 64.2186L24.7164 64.0627L24.5093 63.9044L24.3034 63.7437L24.0988 63.5806L23.8954 63.4151L23.6932 63.2473L23.4923 63.0772L23.2928 62.9046L23.0946 62.7298L22.8977 62.5526L22.7023 62.3731L22.5082 62.1913L22.3156 62.0072L22.1245 61.8209L21.9348 61.6322L21.7467 61.4412L21.5601 61.2481L21.3751 61.0526L21.1917 60.8549L21.01 60.655L20.8298 60.4529L20.6514 60.2486L20.4746 60.0421L20.2996 59.8335L20.1263 59.6226L19.9548 59.4096L19.785 59.1945L19.6172 58.9773L19.4511 58.758L19.2869 58.5365L19.1247 58.313L18.9643 58.0874L18.8059 57.8598L18.6495 57.6302L18.4951 57.3985L18.3427 57.1648L18.1923 56.9292L18.044 56.6916L17.8978 56.452L17.7537 56.2105L17.6117 55.9671L17.4719 55.7218L17.3343 55.4746L17.1989 55.2256L17.0658 54.9747L16.9348 54.7219L16.8062 54.4674L16.6799 54.2111L16.5558 53.953L16.4342 53.6932L16.3149 53.4317L16.1979 53.1684L16.0834 52.9035L15.9714 52.6369L15.8617 52.3686L15.7546 52.0988L15.6499 51.8273L15.5478 51.5542L15.4482 51.2796L15.3511 51.0035L15.2566 50.7259L15.1648 50.4467L15.0755 50.1661L14.9889 49.8841L14.9049 49.6006L14.8236 49.3157L14.7451 49.0295L14.6692 48.7419L14.596 48.453L14.5256 48.1628L14.458 47.8714L14.3932 47.5787L14.3312 47.2847L14.272 46.9896L14.2156 46.6933L14.1621 46.3959L14.1115 46.0973L14.0637 45.7977L14.0189 45.497L13.977 45.1952L13.9381 44.8925L13.9021 44.5887L13.869 44.284L13.839 43.9784L13.812 43.6719L13.788 43.3645L13.767 43.0563L13.749 42.7473L13.7342 42.4374L13.7224 42.1269L13.7137 41.8156L13.7081 41.5036L13.7056 41.1909L13.7062 40.8776L13.71 40.5637L13.7169 40.2493L13.727 39.9343L13.7403 39.6187L13.7567 39.3027L13.7764 38.9863L13.7993 38.6694L13.8253 38.3521L13.8547 38.0345L13.8872 37.7165L13.923 37.3983L13.9621 37.0797L14.0044 36.761L14.05 36.4421L14.0989 36.1229L14.1511 35.8037L14.2066 35.4844L14.2654 35.1649L14.3275 34.8455L14.3929 34.5261L14.4617 34.2066L14.5338 33.8873L14.6092 33.5681L14.688 33.2489L14.7701 32.93L14.8556 32.6112L14.9444 32.2927L15.0367 31.9745L15.1322 31.6565L15.2312 31.3389L15.3335 31.0217L15.4392 30.7049L15.5483 30.3885L15.6608 30.0726L15.7767 29.7572L15.8959 29.4423L16.0185 29.128L16.1445 28.8144L16.274 28.5014L16.4068 28.189L16.5429 27.8774L16.6825 27.5666L16.8255 27.2565L16.9718 26.9473L17.1216 26.6389L17.2747 26.3315L17.4312 26.0249L17.591 25.7194L17.7543 25.4148L17.9209 25.1113L18.0909 24.8089L18.2642 24.5075L18.4409 24.2073L18.621 23.9084L18.8044 23.6106L18.9911 23.3141L19.1812 23.0188L19.3746 22.7249L19.5713 22.4324L19.7714 22.1413L19.9747 21.8516L20.1814 21.5634L20.3913 21.2766L20.6045 20.9915L20.821 20.7079L21.0408 20.4259L21.2638 20.1456L21.4901 19.8669L21.7196 19.59L21.9523 19.3149L22.1882 19.0415L22.4273 18.77L22.6696 18.5003L22.9151 18.2326L23.1638 17.9667L23.4156 17.7029L23.6705 17.441L23.9286 17.1812L24.1897 16.9235L24.454 16.6679L24.7213 16.4145L24.9917 16.1632L25.2652 15.9141L25.5416 15.6673L25.8211 15.4228L26.1036 15.1806L26.3891 14.9408L26.6775 14.7033L26.9688 14.4683L27.2631 14.2358L27.5603 14.0057L27.8604 13.7782L28.1633 13.5532L28.4691 13.3308L28.7777 13.1111L29.0891 12.894L29.4033 12.6796L29.7203 12.468L30.04 12.2591L30.3624 12.053L30.6875 11.8497L31.0153 11.6493L31.3457 11.4518L31.6787 11.2572L32.0144 11.0656L32.3526 10.8769L32.6934 10.6913L33.0367 10.5088L33.3825 10.3293L33.7308 10.1529L34.0815 9.97968L34.4346 9.80963L34.7902 9.64279L35.1481 9.47919L35.5083 9.31884L35.8708 9.1618L36.2357 9.00809L36.6027 8.85773L36.9721 8.71075L37.3435 8.56719L37.7172 8.42707L38.093 8.29042L38.4709 8.15727L38.8509 8.02765L39.2329 7.90157L39.6169 7.77909L40.0029 7.6602L40.3908 7.54496L40.7807 7.43338L41.1724 7.32549L41.566 7.22131L41.9614 7.12087L42.3585 7.02419L42.7574 6.93131L43.1581 6.84224L43.5604 6.75702" stroke="url(#paint4_linear_4612_2482)" stroke-width="0.25"/>
    <path d="M42.0191 45.355L41.9972 45.3297L41.9755 45.3043L41.9539 45.2785L41.9326 45.2525L41.9116 45.2262L41.8907 45.1997L41.8701 45.1729L41.8497 45.1458L41.8295 45.1185L41.8096 45.0909L41.7899 45.0631L41.7704 45.035L41.7512 45.0067L41.7322 44.9781L41.7135 44.9493L41.695 44.9202L41.6768 44.8909L41.6589 44.8614L41.6412 44.8316L41.6238 44.8015L41.6066 44.7713L41.5897 44.7408L41.5731 44.7101L41.5567 44.6792L41.5407 44.648L41.5249 44.6166L41.5094 44.585L41.4942 44.5532L41.4792 44.5211L41.4646 44.4889L41.4503 44.4564L41.4362 44.4238L41.4225 44.3909L41.409 44.3578L41.3959 44.3245L41.3831 44.2911L41.3706 44.2574L41.3584 44.2236L41.3465 44.1895L41.3349 44.1553L41.3237 44.1209L41.3127 44.0863L41.3021 44.0515L41.2919 44.0166L41.2819 43.9815L41.2723 43.9462L41.263 43.9107L41.2541 43.8751L41.2455 43.8394L41.2372 43.8034L41.2293 43.7674L41.2217 43.7311L41.2145 43.6948L41.2076 43.6583L41.2011 43.6216L41.195 43.5848L41.1891 43.5479L41.1837 43.5108L41.1786 43.4736L41.1739 43.4363L41.1695 43.3989L41.1655 43.3614L41.1619 43.3237L41.1586 43.2859L41.1558 43.2481L41.1533 43.2101L41.1511 43.172L41.1494 43.1338L41.148 43.0956L41.147 43.0572L41.1464 43.0188L41.1461 42.9803L41.1463 42.9417L41.1468 42.903L41.1478 42.8643L41.1491 42.8255L41.1508 42.7866L41.1529 42.7477L41.1554 42.7087L41.1583 42.6697L41.1616 42.6306L41.1653 42.5915L41.1694 42.5523L41.1739 42.5131L41.1787 42.4739L41.184 42.4346L41.1897 42.3953L41.1958 42.356L41.2023 42.3167L41.2093 42.2774L41.2166 42.238L41.2243 42.1987L41.2324 42.1594L41.241 42.12L41.25 42.0807L41.2593 42.0414L41.2691 42.0021L41.2793 41.9628L41.2899 41.9236L41.3009 41.8844L41.3124 41.8452L41.3242 41.806L41.3365 41.7669L41.3492 41.7279L41.3623 41.6889L41.3758 41.6499L41.3897 41.611L41.4041 41.5722L41.4188 41.5335L41.434 41.4948L41.4496 41.4562L41.4656 41.4176L41.4821 41.3792L41.4989 41.3408L41.5162 41.3026L41.5339 41.2644L41.552 41.2263L41.5705 41.1884L41.5895 41.1506L41.6088 41.1128L41.6286 41.0752L41.6488 41.0377L41.6694 41.0004L41.6904 40.9632L41.7118 40.9261L41.7336 40.8892L41.7559 40.8524L41.7786 40.8157L41.8016 40.7793L41.8251 40.7429L41.849 40.7068L41.8733 40.6708L41.898 40.635L41.9232 40.5993L41.9487 40.5639L41.9746 40.5286L42.001 40.4935L42.0277 40.4586L42.0548 40.4239L42.0824 40.3895L42.1103 40.3552L42.1387 40.3211L42.1674 40.2873L42.1965 40.2537L42.2261 40.2203L42.256 40.1871L42.2863 40.1542L42.317 40.1215L42.3481 40.0891L42.3795 40.0569L42.4114 40.0249L42.4436 39.9932L42.4762 39.9618L42.5092 39.9307L42.5426 39.8998L42.5764 39.8692L42.6105 39.8388L42.645 39.8088L42.6798 39.779L42.7151 39.7495L42.7506 39.7203L42.7866 39.6915L42.8229 39.6629L42.8596 39.6346L42.8966 39.6067L42.934 39.579L42.9717 39.5517L43.0098 39.5247L43.0482 39.498L43.0869 39.4717L43.126 39.4457L43.1655 39.42L43.2052 39.3947L43.2453 39.3698L43.2858 39.3452L43.3265 39.3209L43.3676 39.297L43.409 39.2735L43.4507 39.2503L43.4927 39.2275L43.5351 39.2051L43.5777 39.1831L43.6207 39.1615L43.6639 39.1402L43.7075 39.1194L43.7513 39.0989L43.7954 39.0788L43.8398 39.0592L43.8845 39.0399L43.9295 39.0211L43.9748 39.0026L44.0203 38.9846L44.0661 38.967L44.1122 38.9498L44.1585 38.9331L44.2051 38.9168L44.2519 38.9009L44.299 38.8855L44.3464 38.8705L44.394 38.8559L44.4418 38.8418L44.4898 38.8282L44.5381 38.815L44.5866 38.8022L44.6354 38.79L44.6843 38.7781L44.7335 38.7668L44.7829 38.7559L44.8324 38.7455L44.8822 38.7356L44.9322 38.7261L44.9824 38.7172L45.0327 38.7087L45.0833 38.7007L45.134 38.6932L45.1849 38.6862L45.2359 38.6797L45.2872 38.6737L45.3386 38.6682L45.3901 38.6632L45.4418 38.6587L45.4936 38.6547L45.5456 38.6512L45.5977 38.6483L45.65 38.6458L45.7024 38.6439L45.7549 38.6425L45.8075 38.6416L45.8602 38.6412L45.913 38.6414L45.966 38.6421L46.019 38.6433L46.0721 38.6451L46.1253 38.6474L46.1786 38.6502L46.232 38.6536L46.2854 38.6575L46.3389 38.662L46.3925 38.667L46.4461 38.6726L46.4997 38.6787L46.5535 38.6853L46.6072 38.6925L46.661 38.7003L46.7148 38.7086L46.7686 38.7174L46.8224 38.7269L46.8763 38.7368L46.9302 38.7474L46.984 38.7585L47.0379 38.7701L47.0917 38.7823L47.1455 38.7951L47.1993 38.8085L47.2531 38.8224L47.3068 38.8369L47.3605 38.8519L47.4142 38.8675L47.4678 38.8837L47.5213 38.9005L47.5748 38.9178L47.6282 38.9357L47.6815 38.9541L47.7348 38.9732L47.788 38.9928L47.841 39.0129L47.894 39.0337L47.9469 39.055L47.9996 39.0769L48.0523 39.0993L48.1048 39.1224L48.1572 39.146L48.2095 39.1701L48.2616 39.1949L48.3135 39.2202L48.3654 39.2461L48.417 39.2725L48.4685 39.2995L48.5199 39.3271L48.571 39.3553L48.622 39.384L48.6728 39.4133L48.7233 39.4432L48.7737 39.4736L48.8239 39.5046L48.8739 39.5361L48.9236 39.5682L48.9731 39.6009L49.0224 39.6341L49.0715 39.6679L49.1203 39.7023L49.1689 39.7372L49.2172 39.7727L49.2652 39.8087L49.313 39.8452L49.3605 39.8824L49.4077 39.92L49.4547 39.9582L49.5013 39.997L49.5477 40.0363L49.5937 40.0761L49.6395 40.1165L49.6849 40.1574L49.73 40.1989L49.7748 40.2409L49.8192 40.2834L49.8634 40.3264L49.9071 40.37L49.9505 40.4141L49.9936 40.4587L50.0363 40.5038L50.0786 40.5495L50.1205 40.5956L50.1621 40.6423L50.2033 40.6895L50.2441 40.7372L50.2845 40.7854L50.3244 40.8341L50.364 40.8832L50.4032 40.9329L50.4419 40.9831L50.4802 41.0337L50.5181 41.0848L50.5555 41.1365L50.5925 41.1885L50.6291 41.2411L50.6652 41.2941L50.7008 41.3476L50.736 41.4016L50.7707 41.456L50.8049 41.5109L50.8386 41.5662L50.8718 41.6219L50.9046 41.6781L50.9368 41.7348L50.9686 41.7919L50.9998 41.8494L51.0305 41.9073L51.0607 41.9656L51.0904 42.0244L51.1196 42.0836L51.1482 42.1432L51.1762 42.2032L51.2037 42.2636L51.2307 42.3243L51.2571 42.3855L51.283 42.4471L51.3083 42.509L51.333 42.5713L51.3571 42.634L51.3807 42.697L51.4036 42.7604L51.426 42.8242L51.4478 42.8883L51.469 42.9527L51.4896 43.0175L51.5095 43.0826L51.5289 43.1481L51.5476 43.2138L51.5657 43.2799L51.5832 43.3463L51.6001 43.413L51.6163 43.48L51.6319 43.5473L51.6468 43.6149L51.6611 43.6827L51.6748 43.7509L51.6878 43.8193L51.7001 43.8879L51.7117 43.9569L51.7227 44.026L51.7331 44.0955L51.7427 44.1651L51.7517 44.235L51.76 44.3051L51.7675 44.3755L51.7745 44.446L51.7807 44.5168L51.7862 44.5877L51.791 44.6589L51.7951 44.7302L51.7985 44.8018L51.8012 44.8735L51.8032 44.9453L51.8045 45.0173L51.805 45.0895L51.8048 45.1618L51.8039 45.2343L51.8023 45.3069L51.8 45.3796L51.7969 45.4525L51.793 45.5254L51.7885 45.5985L51.7832 45.6716L51.7771 45.7448L51.7703 45.8182L51.7628 45.8916L51.7545 45.965L51.7454 46.0386L51.7356 46.1121L51.7251 46.1858L51.7138 46.2594L51.7017 46.3331L51.6889 46.4068L51.6753 46.4806L51.6609 46.5543L51.6458 46.628L51.6299 46.7018L51.6132 46.7755L51.5957 46.8492L51.5775 46.9228L51.5585 46.9964L51.5388 47.07L51.5182 47.1435L51.4969 47.217L51.4748 47.2904L51.452 47.3637L51.4283 47.4369L51.4039 47.51L51.3787 47.5831L51.3527 47.656L51.3259 47.7288L51.2983 47.8015L51.27 47.874L51.2409 47.9464L51.211 48.0186L51.1803 48.0907L51.1488 48.1627L51.1166 48.2344L51.0836 48.306L51.0497 48.3773L51.0152 48.4485L50.9798 48.5195L50.9436 48.5902L50.9067 48.6607L50.869 48.731L50.8305 48.8011L50.7912 48.8709L50.7512 48.9404L50.7104 49.0097L50.6688 49.0787L50.6264 49.1474L50.5833 49.2159L50.5394 49.284L50.4947 49.3518L50.4493 49.4194L50.4031 49.4865L50.3561 49.5534L50.3084 49.6199L50.2599 49.6861L50.2106 49.7519L50.1606 49.8173L50.1099 49.8824L50.0584 49.9471L50.0061 50.0114L49.9531 50.0753L49.8994 50.1388L49.8449 50.2019L49.7896 50.2646L49.7337 50.3268L49.677 50.3886L49.6196 50.4499L49.5614 50.5108L49.5025 50.5712L49.4429 50.6312L49.3826 50.6907L49.3216 50.7496L49.2599 50.8081L49.1974 50.8661L49.1343 50.9236L49.0704 50.9805L49.0059 51.0369L48.9407 51.0928L48.8747 51.1482L48.8081 51.203L48.7409 51.2572L48.6729 51.3108L48.6043 51.3639L48.535 51.4164L48.465 51.4683L48.3944 51.5196L48.3232 51.5703L48.2513 51.6204L48.1787 51.6699L48.1055 51.7187L48.0317 51.7669L47.9573 51.8145L47.8822 51.8614L47.8065 51.9076L47.7302 51.9532L47.6533 51.998L47.5758 52.0422L47.4977 52.0858L47.419 52.1286L47.3398 52.1707L47.2599 52.2121L47.1795 52.2528L47.0985 52.2927L47.017 52.332L46.9349 52.3705L46.8523 52.4082L46.7691 52.4452L46.6854 52.4814L46.6012 52.5168L46.5164 52.5515L46.4311 52.5854L46.3454 52.6185L46.2591 52.6508L46.1723 52.6824L46.0851 52.7131L45.9974 52.7429L45.9092 52.772L45.8205 52.8003L45.7314 52.8277L45.6418 52.8542L45.5518 52.88L45.4614 52.9048L45.3705 52.9288L45.2792 52.952L45.1875 52.9743L45.0954 52.9957L45.003 53.0162L44.9101 53.0358L44.8168 53.0546L44.7232 53.0724L44.6292 53.0894L44.5349 53.1054L44.4402 53.1206L44.3452 53.1348L44.2498 53.148L44.1542 53.1604L44.0582 53.1718L43.9619 53.1823L43.8653 53.1918L43.7685 53.2004L43.6713 53.208L43.5739 53.2147L43.4763 53.2204L43.3784 53.2251L43.2803 53.2289L43.1819 53.2317L43.0833 53.2335L42.9845 53.2343L42.8855 53.2342L42.7863 53.233L42.6869 53.2309L42.5874 53.2277L42.4877 53.2236L42.3878 53.2184L42.2878 53.2122L42.1877 53.2051L42.0874 53.1969L41.987 53.1876L41.8865 53.1774L41.786 53.1661L41.6853 53.1538L41.5846 53.1405L41.4838 53.1261L41.3829 53.1107L41.282 53.0943L41.1811 53.0768L41.0802 53.0582L40.9792 53.0386L40.8783 53.018L40.7773 52.9963L40.6764 52.9736L40.5755 52.9498L40.4747 52.9249L40.3739 52.899L40.2731 52.872L40.1725 52.844L40.0719 52.8149L39.9714 52.7848L39.871 52.7535L39.7708 52.7212L39.6706 52.6879L39.5706 52.6534L39.4708 52.6179L39.3711 52.5814L39.2716 52.5437L39.1723 52.505L39.0731 52.4652L38.9742 52.4244L38.8755 52.3825L38.777 52.3395L38.6788 52.2954L38.5808 52.2503L38.483 52.204L38.3856 52.1568L38.2884 52.1084L38.1915 52.059L38.0949 52.0085L37.9986 51.957L37.9027 51.9044L37.8071 51.8507L37.7119 51.796L37.617 51.7402L37.5225 51.6833L37.4284 51.6254L37.3346 51.5664L37.2413 51.5064L37.1484 51.4453L37.056 51.3832L36.9639 51.32L36.8724 51.2558L36.7813 51.1905L36.6906 51.1242L36.6005 51.0569L36.5108 50.9885L36.4217 50.9191L36.3331 50.8487L36.245 50.7772L36.1575 50.7047L36.0705 50.6312L35.9841 50.5567L35.8982 50.4812L35.813 50.4046L35.7284 50.3271L35.6443 50.2485L35.5609 50.169L35.4781 50.0885L35.396 50.007L35.3145 49.9245L35.2337 49.841L35.1536 49.7565L35.0741 49.6711L34.9954 49.5848L34.9174 49.4974L34.8401 49.4091L34.7635 49.3199L34.6877 49.2297L34.6126 49.1386L34.5383 49.0466L34.4648 48.9536L34.392 48.8597L34.3201 48.7649L34.249 48.6692L34.1787 48.5726L34.1092 48.4751L34.0405 48.3768L33.9728 48.2775L33.9058 48.1774L33.8398 48.0764L33.7746 47.9745L33.7103 47.8718L33.647 47.7683L33.5845 47.6639L33.523 47.5587L33.4624 47.4526L33.4027 47.3458L33.344 47.2381L33.2863 47.1296L33.2295 47.0204L33.1737 46.9103L33.1189 46.7995L33.0652 46.688L33.0124 46.5756L32.9607 46.4626L32.9099 46.3488L32.8603 46.2342L32.8116 46.1189L32.7641 46.003L32.7176 45.8863L32.6722 45.7689L32.6278 45.6508L32.5846 45.5321L32.5425 45.4127L32.5015 45.2927L32.4616 45.172L32.4228 45.0506L32.3852 44.9287L32.3487 44.8061L32.3134 44.6829L32.2793 44.5591L32.2463 44.4348L32.2145 44.3098L32.1839 44.1843L32.1545 44.0583L32.1263 43.9317L32.0993 43.8046L32.0736 43.677L32.049 43.5488L32.0257 43.4202L32.0037 43.2911L31.9829 43.1615L31.9633 43.0314L31.945 42.9009L31.928 42.77L31.9123 42.6386L31.8979 42.5068L31.8847 42.3746L31.8729 42.242L31.8623 42.1091L31.8531 41.9758L31.8451 41.8421L31.8386 41.7081L31.8333 41.5738L31.8294 41.4391L31.8268 41.3041L31.8255 41.1689L31.8256 41.0334L31.8271 40.8976L31.8299 40.7616L31.8341 40.6253L31.8397 40.4888L31.8467 40.3521L31.855 40.2152L31.8647 40.0781L31.8759 39.9408L31.8884 39.8034L31.9023 39.6659L31.9176 39.5282L31.9343 39.3904L31.9525 39.2525L31.972 39.1145L31.993 38.9764L32.0154 38.8383L32.0393 38.7001L32.0645 38.5619L32.0912 38.4237L32.1194 38.2855L32.1489 38.1473L32.18 38.0091L32.2124 37.871L32.2463 37.7329L32.2817 37.5949L32.3185 37.4569L32.3568 37.3191L32.3965 37.1814L32.4377 37.0438L32.4803 36.9064L32.5244 36.7691L32.57 36.632L32.617 36.4951L32.6655 36.3584L32.7154 36.2219L32.7669 36.0856L32.8197 35.9496L32.8741 35.8138L32.9299 35.6784L32.9872 35.5432L33.0459 35.4083L33.1061 35.2738L33.1678 35.1396L33.231 35.0058L33.2956 34.8723L33.3617 34.7392L33.4292 34.6065L33.4982 34.4743L33.5686 34.3424L33.6406 34.2111L33.7139 34.0801L33.7887 33.9497L33.865 33.8198L33.9428 33.6903L34.0219 33.5614L34.1026 33.4331L34.1846 33.3053L34.2681 33.178L34.3531 33.0514L34.4395 32.9253L34.5273 32.7999L34.6165 32.6751L34.7072 32.551L34.7993 32.4275L34.8928 32.3047L34.9877 32.1826L35.084 32.0613L35.1817 31.9406L35.2809 31.8207L35.3814 31.7016L35.4833 31.5832L35.5866 31.4656L35.6913 31.3488L35.7973 31.2329L35.9048 31.1178L36.0135 31.0035L36.1237 30.8901L36.2352 30.7776L36.348 30.666L36.4622 30.5552L36.5777 30.4455L36.6945 30.3366L36.8127 30.2287L36.9322 30.1218L37.0529 30.0159L37.175 29.911L37.2983 29.8071L37.423 29.7043L37.5489 29.6024L37.6761 29.5017L37.8045 29.402L37.9342 29.3034L38.0651 29.206L38.1973 29.1096L38.3307 29.0144L38.4652 28.9203L38.601 28.8274L38.738 28.7357L38.8762 28.6452L39.0156 28.5559L39.1561 28.4678L39.2978 28.3809L39.4406 28.2953L39.5846 28.2109L39.7297 28.1279L39.8759 28.0461L40.0232 27.9656L40.1716 27.8865L40.3211 27.8086L40.4717 27.7322L40.6233 27.657L40.776 27.5833L40.9297 27.5109L41.0844 27.44L41.2401 27.3704L41.3969 27.3023L41.5546 27.2356L41.7133 27.1704L41.873 27.1066L42.0336 27.0443L42.1952 26.9835L42.3577 26.9242L42.5211 26.8664L42.6854 26.8101L42.8506 26.7554L43.0166 26.7022L43.1835 26.6506L43.3513 26.6005L43.5199 26.5521L43.6893 26.5052L43.8595 26.4599L44.0304 26.4163L44.2022 26.3742L44.3747 26.3339L44.548 26.2951L44.7219 26.258L44.8966 26.2226L45.072 26.1889L45.2481 26.1569L45.4248 26.1265L45.6022 26.0979L45.7802 26.071L45.9588 26.0459L46.138 26.0224L46.3179 26.0008L46.4982 25.9808L46.6792 25.9627L46.8606 25.9463L47.0426 25.9317L47.2251 25.9189L47.4081 25.908L47.5915 25.8988L47.7754 25.8914L47.9597 25.8859L48.1445 25.8822L48.3296 25.8804L48.5151 25.8804L48.701 25.8822L48.8872 25.886L49.0738 25.8916L49.2606 25.899L49.4478 25.9084L49.6352 25.9197L49.8229 25.9328L50.0108 25.9479L50.1989 25.9649L50.3872 25.9838L50.5757 26.0046L50.7643 26.0274L50.9531 26.0521L51.142 26.0787L51.3311 26.1073L51.5202 26.1378L51.7093 26.1702L51.8985 26.2047L52.0878 26.2411L52.277 26.2795L52.4662 26.3198L52.6554 26.3621L52.8445 26.4064L53.0336 26.4527L53.2226 26.5009L53.4114 26.5512L53.6001 26.6034L53.7887 26.6576L53.9771 26.7138L54.1652 26.7721L54.3532 26.8323L54.541 26.8945L54.7284 26.9587L54.9156 27.0249L55.1025 27.0932L55.2891 27.1634L55.4754 27.2356L55.6612 27.3099L55.8467 27.3861L56.0318 27.4644L56.2165 27.5447L56.4008 27.627L56.5845 27.7112L56.7678 27.7975L56.9506 27.8858L57.1328 27.9761L57.3145 28.0684L57.4956 28.1627L57.6762 28.259L57.8561 28.3573L58.0354 28.4576L58.214 28.5599L58.392 28.6642L58.5693 28.7705L58.7458 28.8787L58.9216 28.9889L59.0966 29.1011L59.2709 29.2153L59.4444 29.3315L59.617 29.4496L59.7888 29.5696L59.9597 29.6917L60.1297 29.8156L60.2988 29.9416L60.467 30.0694L60.6342 30.1992L60.8005 30.3309L60.9658 30.4646L61.13 30.6002L61.2932 30.7376L61.4554 30.877L61.6164 31.0183L61.7764 31.1614L61.9353 31.3065L62.093 31.4534L62.2495 31.6022L62.4048 31.7529L62.559 31.9054L62.7119 32.0597L62.8636 32.2159L63.014 32.3739L63.1631 32.5337L63.3109 32.6953L63.4574 32.8587L63.6025 33.0239L63.7462 33.1909L63.8886 33.3597L64.0295 33.5302L64.1691 33.7024L64.3071 33.8764L64.4437 34.0521L64.5788 34.2295L64.7124 34.4086L64.8444 34.5894L64.9749 34.7719L65.1038 34.9561L65.2311 35.1418L65.3568 35.3293L65.4809 35.5183L65.6033 35.709L65.7241 35.9013L65.8431 36.0951L65.9605 36.2906L66.0761 36.4875L66.19 36.6861L66.3021 36.8861L66.4124 37.0877L66.5209 37.2908L66.6276 37.4953L66.7324 37.7013L66.8354 37.9088L66.9365 38.1177L67.0358 38.328L67.1331 38.5398L67.2284 38.7529L67.3219 38.9674L67.4133 39.1832L67.5028 39.4004L67.5903 39.6189L67.6757 39.8387L67.7591 40.0598L67.8405 40.2822L67.9198 40.5058L67.997 40.7307L68.0721 40.9567L68.1451 41.184L68.2159 41.4124L68.2846 41.642L68.3512 41.8727L68.4155 42.1045L68.4777 42.3374L68.5376 42.5715L68.5953 42.8065L68.6508 43.0426L68.704 43.2797L68.755 43.5179L68.8036 43.7569L68.85 43.997L68.894 44.238L68.9358 44.4799L68.9751 44.7226L69.0121 44.9663L69.0468 45.2108L69.0791 45.4561L69.1089 45.7022L69.1364 45.9491L69.1614 46.1968L69.184 46.4452L69.2042 46.6943L69.2219 46.9441L69.2371 47.1945L69.2499 47.4456L69.2602 47.6973L69.2679 47.9496L69.2732 48.2025L69.2759 48.456L69.2761 48.7099L69.2738 48.9644L69.2689 49.2193L69.2614 49.4746L69.2514 49.7304L69.2387 49.9866L69.2235 50.2432L69.2057 50.5001L69.1853 50.7573L69.1622 51.0149L69.1366 51.2727L69.1083 51.5307L69.0773 51.789L69.0438 52.0475L69.0075 52.3061L68.9686 52.5649L68.927 52.8238L68.8828 53.0827L68.8358 53.3418L68.7862 53.6009L68.7339 53.8599L68.6789 54.119L68.6212 54.378L68.5608 54.637L68.4976 54.8958L68.4318 55.1545L68.3632 55.4131L68.2919 55.6715L68.2179 55.9297L68.1411 56.1876L68.0617 56.4453L67.9794 56.7026L67.8945 56.9597L67.8068 57.2164L67.7163 57.4727L67.6231 57.7287L67.5272 57.9841L67.4285 58.2392L67.327 58.4937L67.2229 58.7477L67.1159 59.0012L67.0062 59.2541L66.8938 59.5064L66.7786 59.758L66.6607 60.009L66.54 60.2593L66.4166 60.5089L66.2905 60.7577L66.1616 61.0057L66.03 61.253L65.8956 61.4994L65.7585 61.7449L65.6187 61.9896L65.4761 62.2333L65.3309 62.4761L65.1829 62.7178L65.0322 62.9586L64.8788 63.1983L64.7227 63.437L64.5639 63.6746L64.4024 63.911L64.2382 64.1463L64.0714 64.3804L63.9018 64.6133L63.7296 64.8449L63.5548 65.0753L63.3773 65.3044L63.1972 65.5321L63.0144 65.7585L62.829 65.9834L62.641 66.207L62.4504 66.4291L62.2572 66.6498L62.0614 66.8689L61.863 67.0865L61.662 67.3025L61.4585 67.517L61.2525 67.7298L61.0439 67.941L60.8328 68.1505L60.6191 68.3583L60.403 68.5643L60.1844 68.7686L59.9633 68.9711L59.7398 69.1718L59.5138 69.3706L59.2854 69.5676L59.0546 69.7626L58.8213 69.9558L58.5857 70.1469L58.3477 70.3361L58.1073 70.5233L57.8646 70.7084L57.6195 70.8914L57.3722 71.0724L57.1225 71.2512L56.8706 71.4279L56.6164 71.6023L56.36 71.7746L56.1013 71.9447L55.8404 72.1125L55.5774 72.278L55.3121 72.4412L55.0447 72.602L54.7752 72.7605L54.5036 72.9166L54.2298 73.0703L53.954 73.2215L53.6762 73.3703L53.3963 73.5165L53.1144 73.6603L52.8305 73.8015L52.5446 73.9401L52.2568 74.0762L51.9671 74.2096L51.6755 74.3404L51.3819 74.4685L51.0866 74.5939L50.7894 74.7167L50.4903 74.8366L50.1895 74.9538L49.887 75.0683L49.5827 75.1799L49.2767 75.2887L48.969 75.3946L48.6596 75.4977L48.3486 75.5978L48.036 75.6951L47.7218 75.7894L47.406 75.8807L47.0888 75.969L46.77 76.0544L46.4497 76.1367L46.128 76.216L45.8048 76.2922L45.4803 76.3653L45.1544 76.4353L44.8272 76.5021L44.4986 76.5658L44.1688 76.6264L43.8377 76.6838L43.5054 76.7379L43.172 76.7889L42.8373 76.8366L42.5015 76.881L42.1646 76.9221L41.8267 76.96L41.4877 76.9946L41.1477 77.0258L40.8067 77.0536L40.4648 77.0782L40.122 77.0993L39.7783 77.117L39.4337 77.1314L39.0883 77.1423L38.7422 77.1497L38.3953 77.1537L38.0476 77.1543L37.6993 77.1514L37.3504 77.1449L37.0008 77.135L36.6506 77.1215L36.2999 77.1045L35.9487 77.084L35.597 77.0599L35.2448 77.0322L34.8923 77.0009L34.5393 76.9661L34.1861 76.9276L33.8325 76.8855L33.4786 76.8398L33.1246 76.7905L32.7703 76.7375L32.4158 76.6809L32.0613 76.6206L31.7066 76.5567L31.3519 76.489L30.9972 76.4177L30.6425 76.3427L30.2879 76.264L29.9334 76.1815L29.579 76.0954L29.2247 76.0055L28.8707 75.9119L28.5169 75.8146L28.1634 75.7136L27.8103 75.6088L27.4575 75.5003L27.105 75.388L26.7531 75.272L26.4016 75.1522L26.0506 75.0286L25.7002 74.9013L25.3503 74.7703L25.0011 74.6355L24.6526 74.4969L24.3047 74.3546L23.9577 74.2084L23.6114 74.0586L23.2659 73.905L22.9213 73.7476L22.5776 73.5864L22.2348 73.4215L21.8931 73.2528L21.5523 73.0804L21.2126 72.9042L20.874 72.7243L20.5366 72.5407L20.2003 72.3533L19.8653 72.1621L19.5315 71.9673L19.199 71.7687L18.8679 71.5664L18.5381 71.3603L18.2098 71.1506L17.8829 70.9372L17.5575 70.7201L17.2337 70.4993L16.9114 70.2748L16.5908 70.0466L16.2718 69.8148L15.9545 69.5794L15.639 69.3403L15.3252 69.0976L15.0133 68.8512L14.7032 68.6013L14.3951 68.3477L14.0888 68.0906L13.7846 67.8299L13.4823 67.5657L13.1821 67.2979L12.884 67.0265L12.5881 66.7517L12.2943 66.4734L12.0028 66.1915L11.7135 65.9062L11.4264 65.6175L11.1418 65.3253L10.8595 65.0297L10.5796 64.7306L10.3021 64.4282L10.0272 64.1224" stroke="url(#paint5_linear_4612_2482)" stroke-width="0.25"/>
    <path d="M44.2879 46.0397L44.277 46.0713L44.2658 46.1028L44.2543 46.1343L44.2424 46.1658L44.2302 46.1972L44.2176 46.2285L44.2047 46.2598L44.1915 46.291L44.1779 46.3221L44.164 46.3531L44.1497 46.3841L44.1352 46.415L44.1202 46.4458L44.105 46.4765L44.0894 46.5072L44.0734 46.5377L44.0572 46.5681L44.0405 46.5984L44.0236 46.6286L44.0063 46.6587L43.9887 46.6887L43.9707 46.7186L43.9524 46.7484L43.9338 46.778L43.9149 46.8075L43.8956 46.8368L43.876 46.8661L43.856 46.8952L43.8357 46.9241L43.8151 46.9529L43.7942 46.9816L43.7729 47.01L43.7513 47.0384L43.7294 47.0666L43.7071 47.0946L43.6846 47.1224L43.6617 47.1501L43.6384 47.1776L43.6149 47.2049L43.5911 47.232L43.5669 47.259L43.5424 47.2857L43.5176 47.3123L43.4925 47.3387L43.467 47.3648L43.4413 47.3908L43.4152 47.4166L43.3888 47.4421L43.3622 47.4674L43.3352 47.4926L43.3079 47.5175L43.2803 47.5421L43.2524 47.5666L43.2242 47.5908L43.1958 47.6147L43.167 47.6385L43.1379 47.662L43.1085 47.6852L43.0789 47.7082L43.0489 47.731L43.0187 47.7534L42.9882 47.7757L42.9574 47.7976L42.9263 47.8194L42.8949 47.8408L42.8633 47.8619L42.8314 47.8828L42.7992 47.9034L42.7668 47.9238L42.7341 47.9438L42.7011 47.9636L42.6678 47.983L42.6343 48.0022L42.6006 48.021L42.5666 48.0396L42.5323 48.0579L42.4978 48.0758L42.463 48.0935L42.428 48.1108L42.3928 48.1278L42.3573 48.1445L42.3215 48.1609L42.2856 48.1769L42.2494 48.1926L42.213 48.208L42.1763 48.223L42.1395 48.2377L42.1024 48.2521L42.0651 48.2661L42.0276 48.2798L41.9898 48.2931L41.9519 48.3061L41.9138 48.3187L41.8754 48.331L41.8369 48.3429L41.7982 48.3544L41.7593 48.3656L41.7201 48.3764L41.6808 48.3868L41.6414 48.3969L41.6017 48.4066L41.5619 48.4159L41.5219 48.4248L41.4817 48.4334L41.4414 48.4415L41.4009 48.4493L41.3603 48.4567L41.3195 48.4637L41.2785 48.4703L41.2374 48.4765L41.1962 48.4823L41.1548 48.4876L41.1133 48.4926L41.0717 48.4972L41.0299 48.5014L40.988 48.5052L40.946 48.5085L40.9039 48.5114L40.8616 48.514L40.8193 48.5161L40.7768 48.5177L40.7343 48.519L40.6916 48.5198L40.6489 48.5202L40.6061 48.5202L40.5631 48.5198L40.5202 48.5189L40.4771 48.5176L40.434 48.5158L40.3908 48.5137L40.3475 48.5111L40.3042 48.508L40.2608 48.5045L40.2174 48.5006L40.1739 48.4962L40.1304 48.4914L40.0868 48.4861L40.0433 48.4804L39.9997 48.4742L39.956 48.4676L39.9124 48.4605L39.8687 48.453L39.825 48.4451L39.7813 48.4366L39.7377 48.4278L39.694 48.4184L39.6503 48.4087L39.6067 48.3984L39.563 48.3877L39.5194 48.3766L39.4758 48.3649L39.4323 48.3529L39.3887 48.3403L39.3453 48.3273L39.3018 48.3139L39.2584 48.3L39.2151 48.2856L39.1718 48.2707L39.1286 48.2554L39.0855 48.2397L39.0424 48.2234L38.9994 48.2068L38.9565 48.1896L38.9137 48.172L38.871 48.1539L38.8284 48.1353L38.7858 48.1163L38.7434 48.0969L38.7011 48.0769L38.6589 48.0565L38.6169 48.0357L38.5749 48.0143L38.5331 47.9926L38.4915 47.9703L38.4499 47.9476L38.4086 47.9244L38.3673 47.9008L38.3262 47.8767L38.2853 47.8522L38.2446 47.8272L38.204 47.8017L38.1636 47.7758L38.1234 47.7494L38.0834 47.7226L38.0435 47.6953L38.0039 47.6676L37.9644 47.6394L37.9252 47.6108L37.8862 47.5817L37.8474 47.5521L37.8088 47.5222L37.7704 47.4917L37.7323 47.4609L37.6944 47.4296L37.6567 47.3978L37.6193 47.3656L37.5821 47.333L37.5452 47.2999L37.5085 47.2664L37.4721 47.2325L37.436 47.1981L37.4002 47.1634L37.3646 47.1281L37.3293 47.0925L37.2943 47.0564L37.2596 47.0199L37.2252 46.983L37.1911 46.9457L37.1573 46.908L37.1238 46.8698L37.0906 46.8313L37.0578 46.7923L37.0253 46.7529L36.9931 46.7131L36.9612 46.673L36.9297 46.6324L36.8985 46.5914L36.8677 46.5501L36.8373 46.5083L36.8071 46.4662L36.7774 46.4237L36.748 46.3808L36.719 46.3375L36.6904 46.2938L36.6622 46.2498L36.6343 46.2054L36.6068 46.1606L36.5798 46.1155L36.5531 46.07L36.5268 46.0242L36.501 45.978L36.4755 45.9315L36.4505 45.8846L36.4259 45.8374L36.4017 45.7898L36.3779 45.7419L36.3546 45.6936L36.3317 45.6451L36.3093 45.5962L36.2873 45.547L36.2657 45.4975L36.2446 45.4476L36.224 45.3975L36.2038 45.347L36.1841 45.2963L36.1649 45.2452L36.1461 45.1939L36.1278 45.1423L36.11 45.0904L36.0927 45.0382L36.0759 44.9857L36.0595 44.933L36.0437 44.88L36.0284 44.8267L36.0135 44.7732L35.9992 44.7194L35.9854 44.6654L35.9721 44.6111L35.9593 44.5566L35.947 44.5019L35.9353 44.4469L35.9241 44.3917L35.9134 44.3363L35.9033 44.2806L35.8937 44.2248L35.8846 44.1687L35.8761 44.1125L35.8681 44.056L35.8607 43.9994L35.8538 43.9426L35.8475 43.8856L35.8417 43.8284L35.8365 43.7711L35.8319 43.7136L35.8278 43.6559L35.8243 43.5981L35.8214 43.5401L35.819 43.482L35.8173 43.4238L35.8161 43.3654L35.8155 43.3069L35.8155 43.2483L35.816 43.1895L35.8172 43.1307L35.8189 43.0717L35.8213 43.0127L35.8242 42.9535L35.8277 42.8943L35.8319 42.835L35.8366 42.7756L35.8419 42.7162L35.8479 42.6567L35.8544 42.5971L35.8616 42.5375L35.8694 42.4778L35.8778 42.4181L35.8868 42.3584L35.8964 42.2986L35.9066 42.2388L35.9175 42.179L35.929 42.1192L35.9411 42.0594L35.9538 41.9996L35.9671 41.9399L35.9811 41.8801L35.9957 41.8203L36.0109 41.7606L36.0268 41.7009L36.0433 41.6413L36.0604 41.5817L36.0781 41.5222L36.0965 41.4627L36.1155 41.4033L36.1351 41.3439L36.1554 41.2847L36.1763 41.2255L36.1978 41.1665L36.22 41.1075L36.2428 41.0486L36.2663 40.9899L36.2903 40.9312L36.315 40.8727L36.3404 40.8144L36.3664 40.7561L36.393 40.6981L36.4202 40.6401L36.4481 40.5824L36.4766 40.5248L36.5057 40.4673L36.5355 40.4101L36.5659 40.353L36.597 40.2961L36.6286 40.2395L36.6609 40.183L36.6939 40.1268L36.7274 40.0707L36.7616 40.0149L36.7964 39.9594L36.8318 39.904L36.8679 39.849L36.9046 39.7941L36.9419 39.7396L36.9798 39.6853L37.0183 39.6312L37.0575 39.5775L37.0973 39.524L37.1377 39.4709L37.1786 39.418L37.2202 39.3654L37.2625 39.3132L37.3053 39.2613L37.3487 39.2097L37.3927 39.1584L37.4373 39.1075L37.4826 39.057L37.5284 39.0067L37.5748 38.9569L37.6218 38.9074L37.6694 38.8583L37.7175 38.8096L37.7663 38.7612L37.8156 38.7133L37.8655 38.6657L37.916 38.6186L37.9671 38.5718L38.0187 38.5255L38.0709 38.4797L38.1236 38.4342L38.1769 38.3892L38.2308 38.3446L38.2852 38.3005L38.3402 38.2569L38.3957 38.2137L38.4517 38.171L38.5083 38.1288L38.5654 38.087L38.6231 38.0457L38.6812 38.005L38.7399 37.9647L38.7992 37.925L38.8589 37.8858L38.9191 37.847L38.9799 37.8089L39.0411 37.7712L39.1028 37.7341L39.1651 37.6975L39.2278 37.6615L39.291 37.6261L39.3547 37.5912L39.4188 37.5569L39.4835 37.5231L39.5485 37.49L39.6141 37.4574L39.6801 37.4254L39.7465 37.394L39.8134 37.3633L39.8808 37.3331L39.9486 37.3035L40.0167 37.2746L40.0854 37.2463L40.1544 37.2186L40.2239 37.1916L40.2937 37.1652L40.364 37.1395L40.4346 37.1144L40.5057 37.09L40.5771 37.0662L40.6489 37.0431L40.7211 37.0207L40.7936 36.999L40.8665 36.9779L40.9398 36.9575L41.0133 36.9379L41.0873 36.9189L41.1616 36.9006L41.2362 36.8831L41.3111 36.8662L41.3863 36.8501L41.4619 36.8347L41.5377 36.82L41.6139 36.806L41.6903 36.7928L41.767 36.7804L41.844 36.7686L41.9213 36.7576L41.9988 36.7474L42.0766 36.7379L42.1546 36.7292L42.2328 36.7213L42.3113 36.7141L42.39 36.7077L42.469 36.7021L42.5481 36.6972L42.6275 36.6932L42.707 36.6899L42.7867 36.6874L42.8666 36.6857L42.9467 36.6848L43.027 36.6847L43.1074 36.6854L43.1879 36.6869L43.2686 36.6893L43.3495 36.6924L43.4304 36.6964L43.5115 36.7011L43.5927 36.7067L43.674 36.7132L43.7554 36.7204L43.8368 36.7285L43.9184 36.7374L44 36.7471L44.0817 36.7577L44.1634 36.7691L44.2452 36.7814L44.327 36.7945L44.4089 36.8084L44.4907 36.8232L44.5726 36.8389L44.6545 36.8554L44.7363 36.8727L44.8182 36.8909L44.9 36.91L44.9818 36.9299L45.0636 36.9507L45.1453 36.9723L45.227 36.9948L45.3086 37.0182L45.3901 37.0424L45.4715 37.0675L45.5529 37.0934L45.6341 37.1203L45.7153 37.1479L45.7963 37.1765L45.8772 37.2059L45.9579 37.2362L46.0385 37.2673L46.1189 37.2994L46.1992 37.3322L46.2793 37.366L46.3593 37.4006L46.439 37.4361L46.5185 37.4725L46.5979 37.5097L46.677 37.5478L46.7559 37.5868L46.8345 37.6266L46.9129 37.6673L46.9911 37.7089L47.0689 37.7513L47.1465 37.7946L47.2239 37.8388L47.3009 37.8838L47.3776 37.9296L47.4541 37.9764L47.5302 38.024L47.606 38.0724L47.6814 38.1217L47.7565 38.1719L47.8312 38.2229L47.9056 38.2747L47.9796 38.3274L48.0532 38.3809L48.1264 38.4353L48.1992 38.4905L48.2717 38.5466L48.3436 38.6035L48.4152 38.6612L48.4863 38.7198L48.557 38.7792L48.6272 38.8394L48.697 38.9004L48.7662 38.9622L48.835 39.0249L48.9033 39.0884L48.9711 39.1527L49.0384 39.2177L49.1051 39.2836L49.1714 39.3503L49.2371 39.4178L49.3022 39.4861L49.3668 39.5551L49.4308 39.6249L49.4943 39.6956L49.5571 39.767L49.6194 39.8391L49.6811 39.912L49.7421 39.9857L49.8026 40.0601L49.8624 40.1353L49.9215 40.2113L49.9801 40.2879L50.0379 40.3654L50.0952 40.4435L50.1517 40.5224L50.2076 40.602L50.2627 40.6823L50.3172 40.7633L50.371 40.845L50.424 40.9274L50.4764 41.0105L50.528 41.0943L50.5788 41.1788L50.6289 41.2639L50.6783 41.3497L50.7269 41.4362L50.7747 41.5234L50.8218 41.6111L50.868 41.6996L50.9135 41.7886L50.9582 41.8783L51.002 41.9686L51.045 42.0596L51.0872 42.1511L51.1286 42.2433L51.1691 42.336L51.2088 42.4293L51.2476 42.5232L51.2856 42.6177L51.3227 42.7127L51.3589 42.8083L51.3942 42.9045L51.4286 43.0012L51.4621 43.0984L51.4947 43.1961L51.5264 43.2944L51.5572 43.3932L51.587 43.4924L51.6159 43.5922L51.6439 43.6925L51.6709 43.7932L51.6969 43.8944L51.722 43.996L51.7461 44.0981L51.7693 44.2007L51.7914 44.3037L51.8126 44.4071L51.8328 44.5109L51.852 44.6151L51.8701 44.7197L51.8873 44.8247L51.9034 44.9301L51.9186 45.0358L51.9326 45.1419L51.9457 45.2484L51.9577 45.3552L51.9687 45.4623L51.9786 45.5697L51.9874 45.6775L51.9952 45.7855L52.0019 45.8938L52.0076 46.0024L52.0122 46.1113L52.0157 46.2205L52.0181 46.3299L52.0194 46.4395L52.0196 46.5493L52.0187 46.6594L52.0167 46.7697L52.0136 46.8801L52.0094 46.9908L52.0041 47.1016L51.9976 47.2126L51.9901 47.3238L51.9814 47.435L51.9715 47.5465L51.9606 47.658L51.9485 47.7696L51.9352 47.8814L51.9208 47.9932L51.9053 48.1051L51.8886 48.2171L51.8707 48.3291L51.8517 48.4411L51.8316 48.5532L51.8102 48.6653L51.7877 48.7774L51.7641 48.8895L51.7393 49.0016L51.7133 49.1136L51.6861 49.2256L51.6577 49.3376L51.6282 49.4494L51.5975 49.5613L51.5656 49.673L51.5325 49.7846L51.4983 49.8961L51.4629 50.0075L51.4262 50.1187L51.3884 50.2298L51.3494 50.3407L51.3093 50.4515L51.2679 50.562L51.2253 50.6724L51.1816 50.7826L51.1367 50.8925L51.0905 51.0022L51.0432 51.1117L50.9947 51.2208L50.945 51.3298L50.8941 51.4384L50.8421 51.5467L50.7888 51.6548L50.7344 51.7625L50.6788 51.8698L50.622 51.9768L50.564 52.0835L50.5048 52.1898L50.4444 52.2957L50.3829 52.4012L50.3202 52.5063L50.2563 52.6109L50.1912 52.7152L50.125 52.819L50.0576 52.9223L49.989 53.0251L49.9193 53.1275L49.8484 53.2294L49.7763 53.3307L49.7031 53.4315L49.6288 53.5318L49.5533 53.6316L49.4766 53.7308L49.3988 53.8294L49.3199 53.9274L49.2398 54.0248L49.1586 54.1216L49.0762 54.2178L48.9928 54.3133L48.9082 54.4082L48.8225 54.5025L48.7357 54.596L48.6477 54.6889L48.5587 54.7811L48.4686 54.8725L48.3774 54.9632L48.2851 55.0532L48.1917 55.1425L48.0973 55.231L48.0017 55.3187L47.9051 55.4056L47.8075 55.4917L47.7088 55.5771L47.609 55.6616L47.5082 55.7452L47.4064 55.828L47.3035 55.91L47.1997 55.9911L47.0948 56.0713L46.9889 56.1506L46.882 56.229L46.7741 56.3065L46.6652 56.383L46.5553 56.4586L46.4445 56.5333L46.3327 56.607L46.2199 56.6797L46.1062 56.7514L45.9915 56.8222L45.876 56.8919L45.7595 56.9606L45.642 57.0283L45.5237 57.0949L45.4045 57.1604L45.2844 57.2249L45.1634 57.2884L45.0415 57.3507L44.9188 57.4119L44.7952 57.472L44.6708 57.531L44.5455 57.5889L44.4194 57.6456L44.2925 57.7012L44.1648 57.7556L44.0363 57.8089L43.907 57.8609L43.777 57.9118L43.6461 57.9614L43.5146 58.0099L43.3822 58.0571L43.2492 58.1031L43.1154 58.1478L42.981 58.1913L42.8458 58.2335L42.7099 58.2745L42.5734 58.3142L42.4362 58.3526L42.2983 58.3896L42.1598 58.4254L42.0207 58.4599L41.881 58.493L41.7406 58.5248L41.5997 58.5552L41.4582 58.5843L41.3161 58.6121L41.1734 58.6384L41.0302 58.6634L40.8865 58.687L40.7423 58.7092L40.5976 58.73L40.4523 58.7494L40.3066 58.7674L40.1605 58.784L40.0138 58.7991L39.8668 58.8128L39.7193 58.825L39.5714 58.8358L39.4231 58.8451L39.2744 58.853L39.1254 58.8593L38.976 58.8642L38.8263 58.8677L38.6762 58.8696L38.5258 58.87L38.3752 58.8689L38.2242 58.8663L38.073 58.8622L37.9215 58.8565L37.7698 58.8494L37.6178 58.8407L37.4657 58.8304L37.3134 58.8186L37.1608 58.8053L37.0081 58.7904L36.8553 58.774L36.7023 58.7559L36.5492 58.7364L36.396 58.7152L36.2428 58.6925L36.0894 58.6682L35.936 58.6423L35.7826 58.6148L35.6291 58.5857L35.4756 58.555L35.3221 58.5228L35.1687 58.4889L35.0153 58.4534L34.8619 58.4164L34.7087 58.3777L34.5555 58.3374L34.4024 58.2955L34.2494 58.252L34.0966 58.2068L33.9439 58.16L33.7914 58.1117L33.6391 58.0617L33.487 58.01L33.3351 57.9568L33.1835 57.9019L33.0321 57.8454L32.8809 57.7872L32.7301 57.7275L32.5795 57.6661L32.4293 57.6031L32.2795 57.5384L32.1299 57.4721L31.9808 57.4042L31.832 57.3347L31.6837 57.2636L31.5357 57.1908L31.3882 57.1164L31.2412 57.0403L31.0946 56.9627L30.9486 56.8834L30.803 56.8025L30.658 56.72L30.5135 56.6359L30.3696 56.5502L30.2262 56.4628L30.0835 56.3739L29.9413 56.2833L29.7998 56.1912L29.659 56.0974L29.5188 56.0021L29.3792 55.9051L29.2404 55.8066L29.1023 55.7065L28.965 55.6048L28.8283 55.5016L28.6925 55.3967L28.5574 55.2903L28.4232 55.1824L28.2897 55.0729L28.1571 54.9618L28.0254 54.8492L27.8945 54.7351L27.7645 54.6194L27.6354 54.5022L27.5072 54.3834L27.38 54.2632L27.2537 54.1414L27.1285 54.0182L27.0041 53.8934L26.8809 53.7671L26.7586 53.6394L26.6373 53.5102L26.5172 53.3795L26.3981 53.2474L26.2801 53.1138L26.1632 52.9788L26.0474 52.8423L25.9328 52.7045L25.8193 52.5652L25.707 52.4244L25.5959 52.2823L25.486 52.1388L25.3773 51.9939L25.2699 51.8477L25.1637 51.7001L25.0588 51.5511L24.9551 51.4008L24.8528 51.2491L24.7518 51.0962L24.6521 50.9419L24.5538 50.7863L24.4569 50.6295L24.3613 50.4713L24.2672 50.3119L24.1744 50.1512L24.0831 49.9893L23.9932 49.8262L23.9048 49.6618L23.8178 49.4963L23.7324 49.3295L23.6484 49.1616L23.566 48.9925L23.4851 48.8222L23.4057 48.6508L23.3279 48.4783L23.2517 48.3046L23.1771 48.1299L23.1041 47.954L23.0327 47.7771L22.9629 47.5991L22.8948 47.4201L22.8283 47.24L22.7636 47.059L22.7005 46.8769L22.6391 46.6938L22.5794 46.5098L22.5214 46.3248L22.4652 46.1388L22.4108 45.952L22.3581 45.7642L22.3072 45.5755L22.2581 45.386L22.2107 45.1956L22.1652 45.0043L22.1216 44.8122L22.0797 44.6194L22.0397 44.4257L22.0016 44.2312L21.9654 44.036L21.931 43.84L21.8985 43.6433L21.868 43.4459L21.8393 43.2478L21.8126 43.049L21.7879 42.8496L21.765 42.6495L21.7442 42.4488L21.7253 42.2475L21.7084 42.0456L21.6935 41.8432L21.6805 41.6402L21.6696 41.4367L21.6607 41.2327L21.6539 41.0282L21.649 40.8232L21.6462 40.6178L21.6455 40.412L21.6468 40.2057L21.6502 39.9991L21.6557 39.792L21.6633 39.5847L21.6729 39.377L21.6847 39.169L21.6985 38.9607L21.7145 38.7521L21.7326 38.5433L21.7528 38.3343L21.7751 38.1251L21.7996 37.9157L21.8263 37.7061L21.8551 37.4963L21.886 37.2865L21.9191 37.0766L21.9544 36.8665L21.9919 36.6565L22.0315 36.4463L22.0733 36.2362L22.1173 36.0261L22.1635 35.816L22.2119 35.606L22.2625 35.396L22.3153 35.1861L22.3703 34.9764L22.4275 34.7668L22.4869 34.5574L22.5485 34.3481L22.6124 34.1391L22.6784 33.9302L22.7467 33.7217L22.8172 33.5134L22.89 33.3054L22.9649 33.0978L23.0421 32.8905L23.1215 32.6835L23.2032 32.477L23.287 32.2708L23.3731 32.0651L23.4615 31.8599L23.552 31.6551L23.6448 31.4509L23.7398 31.2472L23.8371 31.044L23.9366 30.8414L24.0382 30.6395L24.1422 30.4381L24.2483 30.2374L24.3566 30.0374L24.4672 29.838L24.58 29.6394L24.695 29.4415L24.8122 29.2444L24.9316 29.0481L25.0532 28.8526L25.177 28.6579L25.303 28.4641L25.4312 28.2712L25.5615 28.0792L25.6941 27.8881L25.8288 27.6979L25.9657 27.5088L26.1047 27.3206L26.2459 27.1335L26.3893 26.9474L26.5348 26.7624L26.6824 26.5785L26.8322 26.3957L26.9841 26.2141L27.1381 26.0336L27.2942 25.8543L27.4524 25.6762L27.6127 25.4994L27.7751 25.3238L27.9396 25.1495L28.1061 24.9766L28.2747 24.8049L28.4454 24.6346L28.618 24.4657L28.7928 24.2982L28.9695 24.1321L29.1482 23.9674L29.329 23.8043L29.5117 23.6426L29.6964 23.4824L29.8831 23.3238L30.0717 23.1667L30.2623 23.0112L30.4548 22.8573L30.6492 22.7051L30.8455 22.5545L31.0437 22.4056L31.2438 22.2583L31.4458 22.1128L31.6496 21.969L31.8552 21.827L32.0627 21.6868L32.272 21.5484L32.4831 21.4118L32.6959 21.277L32.9106 21.1441L33.1269 21.0131L33.345 20.8841L33.5649 20.7569L33.7864 20.6317L34.0096 20.5085L34.2345 20.3873L34.461 20.2681L34.6892 20.1509L34.919 20.0358L35.1504 19.9228L35.3834 19.8119L35.618 19.7031L35.8541 19.5964L36.0917 19.4919L36.3308 19.3895L36.5715 19.2894L36.8136 19.1915L37.0571 19.0958L37.3021 19.0023L37.5485 18.9112L37.7963 18.8223L38.0455 18.7357L38.296 18.6515L38.5479 18.5696L38.8011 18.49L39.0555 18.4129L39.3113 18.3381L39.5682 18.2658L39.8265 18.1959L40.0859 18.1285L40.3465 18.0635L40.6082 18.001L40.8711 17.941L41.1351 17.8835L41.4002 17.8286L41.6664 17.7762L41.9336 17.7263L42.2018 17.6791L42.4711 17.6344L42.7413 17.5924L43.0124 17.553L43.2845 17.5162L43.5575 17.4821L43.8313 17.4506L44.106 17.4218L44.3815 17.3958L44.6579 17.3724L44.935 17.3517L45.2128 17.3338L45.4914 17.3187L45.7706 17.3063L46.0506 17.2966L46.3311 17.2898L46.6123 17.2858L46.8941 17.2845L47.1764 17.2861L47.4593 17.2905L47.7427 17.2978L48.0266 17.3079L48.3109 17.3209L48.5956 17.3368L48.8808 17.3555L49.1663 17.3771L49.4521 17.4017L49.7383 17.4291L50.0247 17.4595L50.3114 17.4928L50.5984 17.529L50.8855 17.5682L51.1728 17.6104L51.4602 17.6555L51.7477 17.7035L52.0354 17.7546L52.323 17.8086L52.6107 17.8656L52.8984 17.9256L53.186 17.9886L53.4736 18.0546L53.7611 18.1236L54.0484 18.1957L54.3356 18.2707L54.6226 18.3488L54.9093 18.4299L55.1958 18.514L55.4821 18.6012L55.768 18.6914L56.0535 18.7847L56.3387 18.881L56.6235 18.9803L56.9079 19.0827L57.1917 19.1881L57.4751 19.2966L57.7579 19.4081L58.0402 19.5227L58.3219 19.6404L58.6029 19.7611L58.8833 19.8848L59.163 20.0116L59.4419 20.1415L59.7202 20.2743L59.9976 20.4103L60.2742 20.5493L60.5499 20.6913L60.8248 20.8364L61.0987 20.9845L61.3717 21.1356L61.6437 21.2898L61.9147 21.447L62.1847 21.6072L62.4536 21.7704L62.7213 21.9367L62.9879 22.1059L63.2534 22.2782L63.5176 22.4535L63.7806 22.6317L64.0424 22.8129L64.3028 22.9971L64.5619 23.1843L64.8196 23.3744L65.0759 23.5675L65.3308 23.7636L65.5842 23.9625L65.8361 24.1644L66.0865 24.3692L66.3353 24.577L66.5825 24.7876L66.8281 25.0011L67.072 25.2175L67.3143 25.4367L67.5548 25.6588L67.7935 25.8838L68.0305 26.1116L68.2657 26.3422L68.499 26.5756L68.7304 26.8118L68.9599 27.0508L69.1874 27.2925L69.413 27.537L69.6366 27.7843L69.8581 28.0342L70.0776 28.2869L70.2949 28.5423L70.5101 28.8003L70.7232 29.061L70.934 29.3243L71.1427 29.5903L71.349 29.8589L71.5531 30.13L71.7549 30.4038L71.9543 30.6801L72.1513 30.9589L72.346 31.2403L72.5381 31.5241L72.7279 31.8105L72.9151 32.0992L73.0998 32.3905L73.2819 32.6841L73.4614 32.9802L73.6384 33.2786L73.8127 33.5794L73.9843 33.8825L74.1532 34.1879L74.3194 34.4956L74.4828 34.8056L74.6434 35.1179L74.8012 35.4323L74.9562 35.7489L75.1083 36.0677L75.2575 36.3887L75.4038 36.7118L75.5471 37.0369L75.6875 37.3642L75.8248 37.6935L75.9592 38.0248L76.0904 38.3581L76.2186 38.6934L76.3437 39.0306L76.4656 39.3697L76.5844 39.7107L76.7 40.0535L76.8123 40.3982L76.9215 40.7447L77.0274 41.0929L77.13 41.4429L77.2293 41.7946L77.3252 42.148L77.4178 42.5031L77.5071 42.8597L77.5929 43.218L77.6753 43.5778L77.7543 43.9391L77.8298 44.3019L77.9018 44.6662L77.9703 45.032L78.0353 45.3991L78.0967 45.7676L78.1546 46.1374L78.2088 46.5086L78.2595 46.881L78.3065 47.2546L78.3498 47.6294L78.3895 48.0054L78.4255 48.3826L78.4578 48.7608L78.4864 49.1401L78.5112 49.5204L78.5323 49.9017L78.5495 50.284L78.563 50.6672L78.5727 51.0512L78.5785 51.4361L78.5805 51.8219L78.5786 52.2084L78.5729 52.5956L78.5633 52.9835L78.5497 53.3721L78.5323 53.7613L78.5109 54.1511L78.4855 54.5415L78.4562 54.9323L78.4229 55.3236L78.3857 55.7154L78.3444 56.1075L78.2991 56.5L78.2498 56.8928L78.1965 57.2859L78.1392 57.6792L78.0777 58.0728L78.0123 58.4664L77.9427 58.8602L77.8691 59.254L77.7913 59.6479L77.7095 60.0418L77.6236 60.4356L77.5335 60.8293L77.4394 61.2229L77.3411 61.6163L77.2387 62.0095L77.1321 62.4024L77.0214 62.7951L76.9065 63.1874L76.7875 63.5793L76.6643 63.9707L76.537 64.3618" stroke="url(#paint6_linear_4612_2482)" stroke-width="0.25"/>
    <g filter="url(#filter0_d_4612_2482)">
        <circle cx="43.3493" cy="45.1242" r="1.95624" fill="#4FEEA2"/>
        <circle cx="43.3493" cy="45.1242" r="1.65624" stroke="#4FEEA2" stroke-width="0.6"/>
    </g>
    <circle cx="39.9995" cy="17.999" r="1" fill="white"/>
    <circle cx="27.9995" cy="54.999" r="1" fill="#53FEA9"/>
    <circle cx="46.9995" cy="75.999" r="1" fill="#A3A0AC"/>
    <circle cx="69.9995" cy="27.999" r="1" fill="#767184"/>
    <defs>
        <filter id="filter0_d_4612_2482" x="38.3931" y="40.168" width="9.91235" height="9.91211" filterUnits="userSpaceOnUse" color-interpolation-filters="sRGB">
            <feFlood flood-opacity="0" result="BackgroundImageFix"/>
            <feColorMatrix in="SourceAlpha" type="matrix" values="0 0 0 0 0 0 0 0 0 0 0 0 0 0 0 0 0 0 127 0" result="hardAlpha"/>
            <feOffset/>
            <feGaussianBlur stdDeviation="1.5"/>
            <feComposite in2="hardAlpha" operator="out"/>
            <feColorMatrix type="matrix" values="0 0 0 0 0.32549 0 0 0 0 0.992157 0 0 0 0 0.662745 0 0 0 1 0"/>
            <feBlend mode="normal" in2="BackgroundImageFix" result="effect1_dropShadow_4612_2482"/>
            <feBlend mode="normal" in="SourceGraphic" in2="effect1_dropShadow_4612_2482" result="shape"/>
        </filter>
        <linearGradient id="paint0_linear_4612_2482" x1="43.3489" y1="5.99902" x2="43.3489" y2="76.4236" gradientUnits="userSpaceOnUse">
            <stop stop-color="#4D23C7"/>
            <stop offset="0.795144" stop-color="#4D23C7" stop-opacity="0"/>
        </linearGradient>
        <linearGradient id="paint1_linear_4612_2482" x1="43.3489" y1="-22.0404" x2="43.3489" y2="84.2485" gradientUnits="userSpaceOnUse">
            <stop offset="0.170133" stop-color="#53FDA9" stop-opacity="0"/>
            <stop offset="1" stop-color="#53FDA9"/>
        </linearGradient>
        <linearGradient id="paint2_linear_4612_2482" x1="43.3497" y1="63.3848" x2="43.3497" y2="26.8683" gradientUnits="userSpaceOnUse">
            <stop stop-color="#100533"/>
            <stop offset="1" stop-color="#00FF81" stop-opacity="0"/>
        </linearGradient>
        <linearGradient id="paint3_linear_4612_2482" x1="43.6019" y1="6.0018" x2="43.6019" y2="83.5992" gradientUnits="userSpaceOnUse">
            <stop offset="0.170133" stop-color="#53FDA9" stop-opacity="0"/>
            <stop offset="1" stop-color="#53FDA9"/>
        </linearGradient>
        <linearGradient id="paint4_linear_4612_2482" x1="41.6456" y1="9.90752" x2="43.6019" y2="45.1198" gradientUnits="userSpaceOnUse">
            <stop stop-color="white" stop-opacity="0"/>
            <stop offset="1" stop-color="white"/>
        </linearGradient>
        <linearGradient id="paint5_linear_4612_2482" x1="16.2127" y1="69.2525" x2="43.6001" y2="44.4735" gradientUnits="userSpaceOnUse">
            <stop stop-color="white" stop-opacity="0"/>
            <stop offset="1" stop-color="white"/>
        </linearGradient>
        <linearGradient id="paint6_linear_4612_2482" x1="78.1603" y1="58.1648" x2="43.6001" y2="44.4712" gradientUnits="userSpaceOnUse">
            <stop stop-color="white" stop-opacity="0"/>
            <stop offset="1" stop-color="white"/>
        </linearGradient>
    </defs>
</svg>
