<svg width="88" height="88" viewBox="0 0 88 88" fill="none"
    xmlns="http://www.w3.org/2000/svg">

    <svg y="11" width="90" height="66" viewBox="0 0 90 66" fill="none">
        <path d="M26.064 29.453V24.3087H27.4612V29.453H26.064Z" fill="url(#paint0_linear_4614_2099)"/>
        <path d="M32.7325 18.4658L27.8422 21.3238L28.6043 22.5304L33.4311 19.736L32.7325 18.4658Z" fill="url(#paint1_linear_4614_2099)"/>
        <path d="M41.8143 22.4669L37.1781 19.736L37.8132 18.4658L42.513 21.1967L41.8143 22.4669Z" fill="url(#paint2_linear_4614_2099)"/>
        <circle cx="45.2441" cy="23.6113" r="3.18356" stroke="#53FDA9"/>
        <circle cx="35.2732" cy="17.8305" r="2.73091" fill="#53FDA9"/>
        <circle cx="26.8266" cy="22.7216" r="1.27827" stroke="#53FDA9"/>
        <path d="M64.2986 37.3292V42.4735H62.9014V37.3292H64.2986Z" fill="url(#paint3_linear_4614_2099)"/>
        <path d="M57.6301 48.3164L62.5203 45.4585L61.7582 44.2518L56.9315 47.0462L57.6301 48.3164Z" fill="url(#paint4_linear_4614_2099)"/>
        <path d="M48.5482 44.3153L53.1844 47.0462L52.5493 48.3164L47.8496 45.5855L48.5482 44.3153Z" fill="url(#paint5_linear_4614_2099)"/>
        <circle cx="45.1184" cy="43.1709" r="3.18356" transform="rotate(-180 45.1184 43.1709)" fill="#53FDA9" stroke="#53FDA9"/>
        <circle cx="55.0894" cy="48.9507" r="2.73091" transform="rotate(-180 55.0894 48.9507)" fill="#53FDA9"/>
        <circle cx="63.5359" cy="44.0606" r="1.27827" transform="rotate(-180 63.5359 44.0606)" stroke="#53FDA9"/>
        <path d="M58.1523 18.8043L62.6074 21.3764L61.9088 22.5864L57.4537 20.0143L58.1523 18.8043Z" fill="url(#paint6_linear_4614_2099)"/>
        <path d="M64.3332 30.073L64.3033 24.4089L62.8772 24.4656L62.8839 30.0429L64.3332 30.073Z" fill="url(#paint7_linear_4614_2099)"/>
        <path d="M56.3272 35.9375L61.0104 33.2879L61.7928 34.473L57.0779 37.1776L56.3272 35.9375Z" fill="url(#paint8_linear_4614_2099)"/>
        <circle cx="53.6222" cy="38.3366" r="3.18356" transform="rotate(120 53.6222 38.3366)" stroke="#53FDA9"/>
        <circle cx="63.6133" cy="32.5904" r="2.73091" transform="rotate(120 63.6133 32.5904)" fill="#53FDA9"/>
        <circle cx="63.6011" cy="22.8286" r="1.27827" transform="rotate(120 63.6011 22.8286)" stroke="#53FDA9"/>
        <path d="M32.2124 47.9877L27.7574 45.4156L28.456 44.2056L32.911 46.7777L32.2124 47.9877Z" fill="url(#paint9_linear_4614_2099)"/>
        <path d="M26.0315 36.719L26.0614 42.3831L27.4875 42.3264L27.4808 36.7491L26.0315 36.719Z" fill="url(#paint10_linear_4614_2099)"/>
        <path d="M34.0375 30.8545L29.3544 33.5041L28.5719 32.319L33.2868 29.6144L34.0375 30.8545Z" fill="url(#paint11_linear_4614_2099)"/>
        <circle cx="36.7425" cy="28.4564" r="3.18356" transform="rotate(-60 36.7425 28.4564)" fill="#53FDA9" stroke="#53FDA9"/>
        <circle cx="26.7515" cy="34.2026" r="2.73091" transform="rotate(-60 26.7515 34.2026)" fill="#53FDA9"/>
        <circle cx="26.7636" cy="43.9634" r="1.27827" transform="rotate(-60 26.7636 43.9634)" stroke="#53FDA9"/>
        <path d="M51.3328 51.9302L46.8777 54.5024L46.1791 53.2924L50.6342 50.7202L51.3328 51.9302Z" fill="url(#paint12_linear_4614_2099)"/>
        <path d="M38.4834 51.6487L43.4035 54.4548L44.0675 53.1915L39.2341 50.4086L38.4834 51.6487Z" fill="url(#paint13_linear_4614_2099)"/>
        <path d="M37.4075 41.783L37.3606 47.1636L35.943 47.2487L35.9582 41.8131L37.4075 41.783Z" fill="url(#paint14_linear_4614_2099)"/>
        <circle cx="36.6827" cy="38.2416" r="3.18356" transform="rotate(-120 36.6827 38.2416)" stroke="#53FDA9"/>
        <circle cx="36.6627" cy="49.7666" r="2.73091" transform="rotate(-120 36.6627 49.7666)" fill="#53FDA9"/>
        <circle cx="45.1213" cy="54.6372" r="1.27827" transform="rotate(-120 45.1213 54.6372)" stroke="#53FDA9"/>
        <path d="M39.0332 14.8676L43.4883 12.2955L44.1869 13.5055L39.7318 16.0776L39.0332 14.8676Z" fill="url(#paint15_linear_4614_2099)"/>
        <path d="M51.8826 15.1491L46.9624 12.343L46.2985 13.6064L51.1319 16.3892L51.8826 15.1491Z" fill="url(#paint16_linear_4614_2099)"/>
        <path d="M52.9585 25.0148L53.0054 19.6343L54.423 19.5492L54.4078 24.9847L52.9585 25.0148Z" fill="url(#paint17_linear_4614_2099)"/>
        <circle cx="53.6832" cy="28.5562" r="3.18356" transform="rotate(60 53.6832 28.5562)" fill="#53FDA9" stroke="#53FDA9"/>
        <circle cx="53.7033" cy="17.0313" r="2.73091" transform="rotate(60 53.7033 17.0313)" fill="#53FDA9"/>
        <circle cx="45.2446" cy="12.1606" r="1.27827" transform="rotate(60 45.2446 12.1606)" stroke="#53FDA9"/>
        <circle cx="45.4405" cy="32.9781" r="1.77669" fill="#4FEEA2" stroke="#4FEEA2" stroke-width="0.6"/>
        <circle cx="45.1287" cy="33.4971" r="32.25" stroke="url(#paint18_linear_4614_2099)" stroke-width="0.5"/>
        <ellipse cx="45.0251" cy="24.6721" rx="44.0258" ry="11.2141" stroke="url(#paint19_linear_4614_2099)" stroke-width="0.5" stroke-linecap="round" stroke-dasharray="1 1"/>
        <ellipse cx="45.0252" cy="18.026" rx="40.7031" ry="10.3835" stroke="url(#paint20_linear_4614_2099)" stroke-width="0.25" stroke-linecap="round" stroke-linejoin="round" stroke-dasharray="2 2"/>
        <ellipse cx="45.0252" cy="35.4704" rx="40.7031" ry="10.3835" stroke="url(#paint21_linear_4614_2099)" stroke-width="0.25" stroke-linecap="round" stroke-linejoin="round" stroke-dasharray="2 2"/>
        <defs>
            <linearGradient id="paint0_linear_4614_2099" x1="43.303" y1="22.6645" x2="26.7978" y2="29.7959" gradientUnits="userSpaceOnUse">
                <stop stop-color="#53FDA9"/>
                <stop offset="1" stop-color="#53FDA9" stop-opacity="0"/>
            </linearGradient>
            <linearGradient id="paint1_linear_4614_2099" x1="43.303" y1="22.6645" x2="26.7978" y2="29.7959" gradientUnits="userSpaceOnUse">
                <stop stop-color="#53FDA9"/>
                <stop offset="1" stop-color="#53FDA9" stop-opacity="0"/>
            </linearGradient>
            <linearGradient id="paint2_linear_4614_2099" x1="43.303" y1="22.6645" x2="26.7978" y2="29.7959" gradientUnits="userSpaceOnUse">
                <stop stop-color="#53FDA9"/>
                <stop offset="1" stop-color="#53FDA9" stop-opacity="0"/>
            </linearGradient>
            <linearGradient id="paint3_linear_4614_2099" x1="47.0596" y1="44.1177" x2="63.5647" y2="36.9864" gradientUnits="userSpaceOnUse">
                <stop stop-color="#53FDA9"/>
                <stop offset="1" stop-color="#53FDA9" stop-opacity="0"/>
            </linearGradient>
            <linearGradient id="paint4_linear_4614_2099" x1="47.0596" y1="44.1177" x2="63.5647" y2="36.9864" gradientUnits="userSpaceOnUse">
                <stop stop-color="#53FDA9"/>
                <stop offset="1" stop-color="#53FDA9" stop-opacity="0"/>
            </linearGradient>
            <linearGradient id="paint5_linear_4614_2099" x1="47.0596" y1="44.1177" x2="63.5647" y2="36.9864" gradientUnits="userSpaceOnUse">
                <stop stop-color="#53FDA9"/>
                <stop offset="1" stop-color="#53FDA9" stop-opacity="0"/>
            </linearGradient>
            <linearGradient id="paint6_linear_4614_2099" x1="55.4118" y1="37.1279" x2="57.4885" y2="19.2684" gradientUnits="userSpaceOnUse">
                <stop stop-color="#53FDA9"/>
                <stop offset="1" stop-color="#53FDA9" stop-opacity="0"/>
            </linearGradient>
            <linearGradient id="paint7_linear_4614_2099" x1="55.4118" y1="37.1279" x2="57.4885" y2="19.2684" gradientUnits="userSpaceOnUse">
                <stop stop-color="#53FDA9"/>
                <stop offset="1" stop-color="#53FDA9" stop-opacity="0"/>
            </linearGradient>
            <linearGradient id="paint8_linear_4614_2099" x1="55.4118" y1="37.1279" x2="57.4885" y2="19.2684" gradientUnits="userSpaceOnUse">
                <stop stop-color="#53FDA9"/>
                <stop offset="1" stop-color="#53FDA9" stop-opacity="0"/>
            </linearGradient>
            <linearGradient id="paint9_linear_4614_2099" x1="34.953" y1="29.6641" x2="32.8763" y2="47.5236" gradientUnits="userSpaceOnUse">
                <stop stop-color="#53FDA9"/>
                <stop offset="1" stop-color="#53FDA9" stop-opacity="0"/>
            </linearGradient>
            <linearGradient id="paint10_linear_4614_2099" x1="34.953" y1="29.6641" x2="32.8763" y2="47.5236" gradientUnits="userSpaceOnUse">
                <stop stop-color="#53FDA9"/>
                <stop offset="1" stop-color="#53FDA9" stop-opacity="0"/>
            </linearGradient>
            <linearGradient id="paint11_linear_4614_2099" x1="34.953" y1="29.6641" x2="32.8763" y2="47.5236" gradientUnits="userSpaceOnUse">
                <stop stop-color="#53FDA9"/>
                <stop offset="1" stop-color="#53FDA9" stop-opacity="0"/>
            </linearGradient>
            <linearGradient id="paint12_linear_4614_2099" x1="36.8343" y1="40.3951" x2="51.2628" y2="51.1233" gradientUnits="userSpaceOnUse">
                <stop stop-color="#53FDA9"/>
                <stop offset="1" stop-color="#53FDA9" stop-opacity="0"/>
            </linearGradient>
            <linearGradient id="paint13_linear_4614_2099" x1="36.8343" y1="40.3951" x2="51.2628" y2="51.1233" gradientUnits="userSpaceOnUse">
                <stop stop-color="#53FDA9"/>
                <stop offset="1" stop-color="#53FDA9" stop-opacity="0"/>
            </linearGradient>
            <linearGradient id="paint14_linear_4614_2099" x1="36.8343" y1="40.3951" x2="51.2628" y2="51.1233" gradientUnits="userSpaceOnUse">
                <stop stop-color="#53FDA9"/>
                <stop offset="1" stop-color="#53FDA9" stop-opacity="0"/>
            </linearGradient>
            <linearGradient id="paint15_linear_4614_2099" x1="53.5316" y1="26.4028" x2="39.1032" y2="15.6746" gradientUnits="userSpaceOnUse">
                <stop stop-color="#53FDA9"/>
                <stop offset="1" stop-color="#53FDA9" stop-opacity="0"/>
            </linearGradient>
            <linearGradient id="paint16_linear_4614_2099" x1="53.5316" y1="26.4028" x2="39.1032" y2="15.6746" gradientUnits="userSpaceOnUse">
                <stop stop-color="#53FDA9"/>
                <stop offset="1" stop-color="#53FDA9" stop-opacity="0"/>
            </linearGradient>
            <linearGradient id="paint17_linear_4614_2099" x1="53.5316" y1="26.4028" x2="39.1032" y2="15.6746" gradientUnits="userSpaceOnUse">
                <stop stop-color="#53FDA9"/>
                <stop offset="1" stop-color="#53FDA9" stop-opacity="0"/>
            </linearGradient>
            <linearGradient id="paint18_linear_4614_2099" x1="45.1287" y1="0.99707" x2="45.1287" y2="59.4971" gradientUnits="userSpaceOnUse">
                <stop stop-color="#4D23C7"/>
                <stop offset="0.90973" stop-color="#4100FF" stop-opacity="0"/>
            </linearGradient>
            <linearGradient id="paint19_linear_4614_2099" x1="45.0251" y1="5.42121" x2="45.0251" y2="35.8863" gradientUnits="userSpaceOnUse">
                <stop offset="0.170133" stop-color="#53FDA9" stop-opacity="0"/>
                <stop offset="1" stop-color="#53FDA9"/>
            </linearGradient>
            <linearGradient id="paint20_linear_4614_2099" x1="45.0252" y1="7.64258" x2="45.0252" y2="28.4095" gradientUnits="userSpaceOnUse">
                <stop offset="0.170133" stop-color="white" stop-opacity="0"/>
                <stop offset="0.878479" stop-color="white"/>
            </linearGradient>
            <linearGradient id="paint21_linear_4614_2099" x1="45.0252" y1="25.0869" x2="45.0252" y2="45.8538" gradientUnits="userSpaceOnUse">
                <stop offset="0.170133" stop-color="white" stop-opacity="0"/>
                <stop offset="0.878479" stop-color="white"/>
            </linearGradient>
        </defs>
    </svg>
</svg>