<svg width="88" height="88" viewBox="0 0 88 88" fill="none"
    xmlns="http://www.w3.org/2000/svg">
    <path d="M56.383 43.7972C56.3203 43.8509 56.2388 43.8832 56.1498 43.883C55.953 43.8825 55.7935 43.7223 55.7941 43.5254L55.8329 29.8335L44.1727 23.0575L32.4745 29.7676L32.4359 43.4594C32.4355 43.6566 32.2752 43.8157 32.078 43.815C31.8812 43.8146 31.7218 43.6544 31.7224 43.4574L31.7616 29.5596C31.7619 29.4321 31.8312 29.3149 31.9408 29.2512L43.9964 22.3363C44.1071 22.273 44.2431 22.2734 44.3532 22.3372L56.3693 29.3201C56.4794 29.3839 56.5472 29.502 56.5468 29.6295L56.5076 43.5273C56.5074 43.6354 56.459 43.732 56.383 43.7972Z" fill="url(#paint0_linear_4612_2840)"/>
    <path d="M53.4939 50.6709C53.4312 50.7247 53.3497 50.757 53.2607 50.7567C53.0638 50.7562 52.9044 50.5961 52.905 50.3991L52.9344 40.0219L44.1401 34.9113L35.3173 39.9725L35.2879 50.3493C35.2875 50.5466 35.1269 50.7055 34.93 50.705C34.7332 50.7045 34.5739 50.5442 34.5744 50.3474L34.6044 39.7644C34.6049 39.6369 34.6743 39.5195 34.7836 39.456L43.9638 34.1901C44.0745 34.1268 44.2104 34.1272 44.3205 34.191L53.4708 39.5085C53.5809 39.5723 53.6487 39.6904 53.6483 39.8178L53.6185 50.4011C53.6183 50.5091 53.5699 50.6057 53.4939 50.6709Z" fill="url(#paint1_linear_4612_2840)"/>
    <path d="M44.2994 60.7455C44.2349 60.8008 44.1522 60.8318 44.066 60.8314C43.9656 60.8313 43.8696 60.7883 43.8024 60.7138L34.6655 50.5873C34.6382 50.5571 34.6161 50.5223 34.6006 50.4847L31.7495 43.5946C31.6746 43.4128 31.7605 43.2038 31.9427 43.1286C32.1247 43.0533 32.3331 43.1397 32.4086 43.3219L35.2362 50.1551L44.0686 59.9439L52.9559 50.2051L55.822 43.3878C55.8988 43.2062 56.1074 43.1209 56.2891 43.1973C56.4707 43.2737 56.556 43.4828 56.4796 43.6644L53.5897 50.5384C53.5738 50.5758 53.5517 50.6104 53.5242 50.6404L44.3305 60.7152C44.3206 60.7259 44.3103 60.7361 44.2994 60.7455Z" fill="url(#paint2_linear_4612_2840)"/>
    <path d="M44.299 60.7461C44.2546 60.7842 44.2003 60.812 44.1397 60.8245C43.9749 60.8589 43.8081 60.7731 43.7404 60.6191L34.6335 39.9096C34.6267 39.8939 34.6209 39.8778 34.6163 39.8615L31.7743 29.6565C31.7213 29.4665 31.8328 29.2704 32.0222 29.2171C32.212 29.1644 32.4088 29.2756 32.4616 29.4652L35.2968 39.6458L43.7151 58.789L43.8355 16.0232C43.8361 15.8262 43.9965 15.6671 44.1933 15.6676C44.3901 15.668 44.5494 15.8283 44.5489 16.0252L44.4236 60.4763C44.4232 60.5831 44.3756 60.6804 44.299 60.7461Z" fill="url(#paint3_linear_4612_2840)"/>
    <path d="M44.2993 60.746C44.1979 60.8329 44.0517 60.8592 43.9216 60.8011C43.7417 60.7208 43.6609 60.5098 43.7411 60.3299L52.9544 39.6954L55.7935 29.7187L44.1906 16.5616L32.3841 29.7984C32.2542 29.9438 32.0278 29.9586 31.8805 29.8271C31.7337 29.696 31.7207 29.4704 31.8518 29.3234L43.9261 15.7867C43.9937 15.7113 44.0911 15.6672 44.1933 15.6676C44.2952 15.6679 44.3923 15.7117 44.4598 15.7883L56.4573 29.3929C56.5376 29.4841 56.5662 29.6097 56.5328 29.7265L53.6334 39.915C53.6289 39.9314 53.6231 39.9473 53.6162 39.9629L44.3927 60.6208C44.3705 60.6706 44.3381 60.7126 44.2993 60.746Z" fill="url(#paint4_linear_4612_2840)"/>
    <circle cx="43.9592" cy="40.8726" r="32.4152" transform="rotate(0.263728 43.9592 40.8726)" stroke="url(#paint5_linear_4612_2840)" stroke-width="0.5" stroke-linecap="round" stroke-linejoin="round"/>
    <path d="M34.8518 54.1999C36.1682 67.5732 39.5077 77.0375 43.4625 77.0557C48.6409 77.0796 52.9134 60.8988 53.0054 40.9149C53.0974 20.9311 48.974 4.71161 43.7956 4.68778C40.6274 4.67319 37.7983 10.7242 36.0581 20.0008" stroke="url(#paint6_linear_4612_2840)" stroke-width="0.25" stroke-dasharray="0.5 0.5"/>
    <ellipse rx="19.913" ry="32.1947" transform="matrix(0.710868 -0.703325 0.704364 0.709839 43.8936 40.8887)" stroke="url(#paint7_linear_4612_2840)" stroke-width="0.5" stroke-linecap="round" stroke-dasharray="1 1"/>
    <path d="M58.5886 54.3524C58.4703 54.4728 58.3513 54.5929 58.2314 54.7126L58.143 54.6243C58.0832 54.684 58.0232 54.7437 57.963 54.8032C57.9028 54.8628 57.8426 54.9221 57.7822 54.9813L57.8698 55.0704C57.7488 55.189 57.6275 55.3067 57.5058 55.4237L57.4191 55.3337C57.2977 55.4504 57.176 55.5663 57.0539 55.6814L57.1398 55.7723C57.0171 55.888 56.8941 56.0029 56.7708 56.1169L56.6858 56.0253C56.5616 56.1402 56.437 56.2543 56.3122 56.3676L56.3963 56.46C56.2712 56.5735 56.1458 56.6863 56.02 56.7981L55.9368 56.7049C55.8113 56.8165 55.6856 56.9273 55.5596 57.0373L55.6419 57.1313C55.514 57.2429 55.3857 57.3537 55.2572 57.4636L55.1758 57.3688C55.0476 57.4784 54.9191 57.5872 54.7904 57.6952L54.8708 57.7909C54.7417 57.8991 54.6124 58.0065 54.4827 58.113L54.4033 58.0165C54.2726 58.1239 54.1417 58.2304 54.0105 58.336L54.089 58.4332C53.9571 58.5394 53.825 58.6447 53.6927 58.7491L53.6151 58.651C53.4831 58.7552 53.3508 58.8584 53.2183 58.9608L53.2949 59.0596C53.1609 59.1631 53.0266 59.2657 52.8922 59.3674L52.8166 59.2678C52.6819 59.3698 52.5469 59.4708 52.4117 59.5709L52.4862 59.6713C52.3506 59.7716 52.2148 59.8711 52.0789 59.9696L52.0054 59.8685C51.8688 59.9675 51.7319 60.0656 51.5948 60.1628L51.6673 60.2646C51.529 60.3627 51.3905 60.4597 51.2518 60.5559L51.1804 60.4533C51.0421 60.5492 50.9036 60.6441 50.765 60.7381L50.8352 60.8414C50.6953 60.9363 50.5551 61.0302 50.4148 61.1231L50.3456 61.019C50.2046 61.1125 50.0634 61.2049 49.9221 61.2963L49.9901 61.4011C49.8484 61.4928 49.7065 61.5835 49.5645 61.6732L49.4977 61.5676C49.3551 61.6577 49.2123 61.7468 49.0695 61.8348L49.1352 61.9411C48.9908 62.0301 48.8462 62.1181 48.7016 62.2051L48.637 62.0981C48.4928 62.1848 48.3484 62.2705 48.204 62.3552L48.2673 62.4629C48.1213 62.5485 47.9753 62.633 47.8292 62.7164L47.7671 62.608C47.6201 62.6919 47.4731 62.7747 47.326 62.8564L47.3869 62.9656C47.2394 63.0476 47.0918 63.1285 46.9442 63.2083L46.8846 63.0985C46.7361 63.1788 46.5875 63.258 46.4389 63.3361L46.4972 63.4467C46.347 63.5256 46.1968 63.6034 46.0466 63.6801L45.9896 63.5689C45.8399 63.6454 45.6901 63.7207 45.5403 63.7949L45.5959 63.9068C45.4439 63.9821 45.2919 64.0563 45.1399 64.1293L45.0857 64.0167C44.9333 64.0899 44.781 64.1619 44.6286 64.2327L44.6814 64.3459C44.5287 64.417 44.3759 64.4869 44.2232 64.5555L44.1718 64.4416C44.0172 64.5112 43.8627 64.5795 43.7083 64.6466L43.7582 64.7611C43.6028 64.8286 43.4475 64.8949 43.2923 64.9599L43.2439 64.8447C43.089 64.9096 42.9342 64.9733 42.7795 65.0357L42.8264 65.1515C42.6685 65.2152 42.5106 65.2777 42.3529 65.3388L42.3076 65.2224C42.1505 65.2833 41.9935 65.343 41.8366 65.4013L41.8803 65.5184C41.7218 65.5773 41.5635 65.635 41.4053 65.6913L41.3633 65.5737C41.2037 65.6305 41.0442 65.686 40.885 65.7401L40.9253 65.8584C40.7655 65.9127 40.6059 65.9657 40.4465 66.0173L40.408 65.8985C40.247 65.9506 40.0862 66.0014 39.9257 66.0507L39.9625 66.1701C39.8004 66.2199 39.6385 66.2684 39.4769 66.3153L39.4419 66.1954C39.2807 66.2423 39.1198 66.2877 38.9591 66.3317L38.9922 66.4522C38.8278 66.4972 38.6637 66.5408 38.4998 66.5829L38.4687 66.4619C38.3055 66.5038 38.1427 66.5442 37.9803 66.5831L38.0094 66.7045C37.8446 66.744 37.6801 66.7819 37.516 66.8183L37.4889 66.6964C37.3237 66.733 37.1589 66.7681 36.9945 66.8015L37.0195 66.9239C36.8544 66.9576 36.6897 66.9896 36.5255 67.0201L36.5027 66.8972C36.3356 66.9282 36.1691 66.9575 36.003 66.9852L36.0236 67.1084C35.8567 67.1362 35.6903 67.1624 35.5244 67.1868L35.5061 67.0633C35.3391 67.0879 35.1726 67.1108 35.0067 67.1321L35.0226 67.256C34.854 67.2775 34.6861 67.2973 34.5187 67.3154L34.5053 67.1912C34.3383 67.2092 34.172 67.2255 34.0062 67.2399L34.0172 67.3644C33.8473 67.3792 33.6781 67.3922 33.5095 67.4034L33.5012 67.2787C33.3336 67.2898 33.1666 67.2991 33.0004 67.3065L33.0059 67.4313C32.8359 67.4388 32.6666 67.4445 32.498 67.4482L32.4953 67.3233C32.3268 67.327 32.1592 67.3288 31.9923 67.3286L31.9922 67.4535C31.8226 67.4534 31.6539 67.4512 31.486 67.447L31.4891 67.3222C31.3203 67.318 31.1523 67.3117 30.9853 67.3035L30.9791 67.4282C30.8102 67.4198 30.6423 67.4094 30.4753 67.3969L30.4847 67.2723C30.316 67.2596 30.1483 67.2448 29.9817 67.2279L29.969 67.3522C29.8012 67.3351 29.6343 67.3159 29.4686 67.2944L29.4846 67.1706C29.3167 67.1489 29.1499 67.125 28.9842 67.0988L28.9647 67.2221C28.7978 67.1958 28.6321 67.1671 28.4676 67.1362L28.4907 67.0135C28.3247 66.9823 28.16 66.9488 27.9965 66.9129L27.9697 67.0349C27.8045 66.9987 27.6406 66.9601 27.4779 66.9191L27.5085 66.798C27.3452 66.7568 27.1832 66.7132 27.0225 66.6672L26.988 66.7873C26.8254 66.7407 26.6641 66.6916 26.5043 66.64L26.5427 66.5212C26.3827 66.4696 26.2242 66.4154 26.0671 66.3588L26.0246 66.4763C25.8655 66.4189 25.7078 66.3589 25.5517 66.2964L25.5983 66.1805C25.4425 66.1181 25.2883 66.0531 25.1358 65.9855L25.0851 66.0997C24.9304 66.0312 24.7774 65.96 24.6261 65.8862L24.681 65.774C24.5305 65.7006 24.3816 65.6245 24.2345 65.5458L24.1754 65.6558C24.0264 65.5761 23.8792 65.4937 23.7337 65.4085L23.797 65.3008C23.6527 65.2163 23.5102 65.1291 23.3696 65.0392L23.3021 65.1444C23.1599 65.0535 23.0195 64.9598 22.881 64.8634L22.9526 64.7609C22.8156 64.6655 22.6805 64.5674 22.5473 64.4666L22.4717 64.5661C22.3373 64.4643 22.2049 64.3598 22.0744 64.2524L22.1539 64.156C22.0252 64.0502 21.8985 63.9415 21.7737 63.8302L21.6903 63.9233C21.5647 63.8112 21.4411 63.6963 21.3196 63.5787L21.4067 63.489C21.3465 63.4308 21.2869 63.3719 21.2277 63.3123C21.1686 63.2527 21.1102 63.1926 21.0524 63.132L20.9618 63.2181C20.8451 63.0957 20.7312 62.9712 20.6201 62.8448L20.7141 62.7624C20.6038 62.6368 20.4962 62.5092 20.3913 62.3797L20.2941 62.4583C20.1878 62.327 20.0843 62.1938 19.9836 62.0586L20.084 61.9841C19.9842 61.8502 19.8872 61.7144 19.7929 61.5767L19.6897 61.6472C19.5944 61.5081 19.5019 61.367 19.4122 61.2242L19.5181 61.1578C19.4294 61.0165 19.3434 60.8735 19.2601 60.7286L19.1516 60.7908C19.0677 60.6448 18.9865 60.497 18.908 60.3475L19.0188 60.2895C18.9413 60.1419 18.8665 59.9925 18.7943 59.8415L18.6814 59.8953C18.6089 59.7436 18.5391 59.5901 18.4719 59.4351L18.5867 59.3855C18.5205 59.2326 18.4568 59.078 18.3957 58.9219L18.2792 58.9673C18.218 58.8109 18.1594 58.6529 18.1034 58.4935L18.2215 58.4521C18.1662 58.2948 18.1135 58.136 18.0633 57.9758L17.9439 58.0131C17.8937 57.853 17.8461 57.6915 17.8009 57.5287L17.9214 57.4953C17.8768 57.3345 17.8347 57.1723 17.7949 57.0089L17.6734 57.0383C17.6338 56.8755 17.5967 56.7115 17.5619 56.5463L17.6843 56.5206C17.6499 56.357 17.6179 56.1922 17.5882 56.0262L17.465 56.0481C17.4356 55.8836 17.4084 55.7178 17.3836 55.551L17.5073 55.5326C17.4826 55.3669 17.4602 55.2002 17.44 55.0323L17.3158 55.0472C17.2959 54.8815 17.2782 54.7147 17.2626 54.547L17.3872 54.5355C17.3718 54.3689 17.3585 54.2014 17.3473 54.0328L17.2225 54.041C17.2115 53.8742 17.2026 53.7064 17.1958 53.5377L17.3208 53.5327C17.314 53.3658 17.3093 53.1981 17.3067 53.0295L17.1816 53.0314C17.179 52.8637 17.1783 52.6952 17.1797 52.5259L17.3048 52.5269C17.3062 52.3603 17.3095 52.1929 17.3148 52.0248L17.1897 52.0209C17.195 51.8526 17.2022 51.6836 17.2114 51.5139L17.3363 51.5206C17.3452 51.3547 17.356 51.188 17.3687 51.0207L17.2439 51.0113C17.2567 50.8431 17.2712 50.6743 17.2877 50.5048L17.4122 50.5169C17.4282 50.3515 17.446 50.1855 17.4656 50.019L17.3413 50.0044C17.361 49.8375 17.3823 49.67 17.4055 49.5019L17.5294 49.5189C17.5522 49.3534 17.5767 49.1874 17.6029 49.0208L17.4793 49.0014C17.5054 48.836 17.5331 48.6701 17.5625 48.5037L17.6857 48.5254C17.7149 48.3599 17.7458 48.1938 17.7783 48.0273L17.6556 48.0034C17.6876 47.8397 17.7212 47.6756 17.7564 47.511L17.8787 47.5371C17.9138 47.3733 17.9504 47.2091 17.9886 47.0445L17.8667 47.0163C17.9047 46.8528 17.9442 46.6889 17.9852 46.5246L18.1066 46.5549C18.147 46.393 18.189 46.2308 18.2324 46.0683L18.1116 46.0361C18.1552 45.8729 18.2003 45.7094 18.247 45.5456L18.3673 45.5798C18.4128 45.4198 18.4598 45.2595 18.5082 45.099L18.3885 45.063C18.437 44.902 18.487 44.7408 18.5384 44.5794L18.6576 44.6172C18.7085 44.4574 18.7608 44.2974 18.8145 44.1371L18.6958 44.0975C18.749 43.9388 18.8035 43.78 18.8594 43.6209L18.9774 43.6622C19.0331 43.5038 19.0902 43.3451 19.1486 43.1862L19.0311 43.1432C19.089 42.9858 19.1482 42.8282 19.2087 42.6705L19.3255 42.7152C19.3854 42.5591 19.4466 42.4029 19.509 42.2465L19.3929 42.2002C19.4555 42.0433 19.5195 41.8863 19.5848 41.7292L19.7003 41.777C19.7643 41.6232 19.8295 41.4692 19.8959 41.3151L19.781 41.2657C19.8475 41.1114 19.9153 40.9569 19.9843 40.8024L20.0985 40.8533C20.1672 40.6997 20.237 40.546 20.308 40.3923L20.1945 40.34C20.2646 40.1881 20.336 40.0363 20.4086 39.8843L20.5215 39.9381C20.5938 39.7867 20.6673 39.6352 20.742 39.4837L20.6298 39.4286C20.7043 39.2775 20.7799 39.1264 20.8568 38.9753L20.9683 39.0318C21.044 38.883 21.1208 38.7341 21.1988 38.5853L21.0879 38.5274C21.1661 38.3781 21.2454 38.2289 21.3258 38.0796L21.436 38.1388C21.5156 37.9912 21.5963 37.8435 21.6781 37.6959L21.5687 37.6355C21.65 37.4888 21.7323 37.3422 21.8158 37.1957L21.9245 37.2575C22.0077 37.1114 22.092 36.9653 22.1774 36.8194L22.0694 36.7564C22.1543 36.6112 22.2403 36.4662 22.3273 36.3212L22.4346 36.3854C22.5207 36.242 22.6078 36.0986 22.696 35.9554L22.5894 35.89C22.6779 35.7463 22.7673 35.6028 22.8578 35.4594L22.9637 35.526C23.0532 35.3842 23.1437 35.2425 23.2352 35.101L23.1301 35.0332C23.2212 34.8923 23.3133 34.7515 23.4064 34.6108L23.5108 34.6797C23.6036 34.5394 23.6975 34.3993 23.7923 34.2593L23.6887 34.1893C23.7831 34.0501 23.8784 33.911 23.9747 33.7721L24.0776 33.8432C24.173 33.7056 24.2693 33.5682 24.3666 33.4309L24.2645 33.3588C24.362 33.2212 24.4606 33.0838 24.56 32.9466L24.6613 33.0198C24.7599 32.8839 24.8594 32.7481 24.9598 32.6126L24.8592 32.5383C24.9591 32.4035 25.06 32.2688 25.1617 32.1344L25.2615 32.2097C25.363 32.0756 25.4654 31.9418 25.5688 31.8081L25.4698 31.7318C25.5729 31.5985 25.6769 31.4654 25.7818 31.3325L25.88 31.4098C25.9837 31.2785 26.0883 31.1474 26.1938 31.0165L26.0964 30.9382C26.2021 30.807 26.3088 30.676 26.4163 30.5454L26.5129 30.6247C26.6199 30.4946 26.7278 30.3649 26.8365 30.2354L26.7406 30.1552C26.8485 30.0267 26.9572 29.8985 27.0668 29.7707L27.1618 29.8518C27.2711 29.7243 27.3813 29.597 27.4923 29.47L27.398 29.3878C27.5093 29.2605 27.6214 29.1335 27.7343 29.0068L27.8278 29.0898C27.9391 28.965 28.0512 28.8405 28.1641 28.7163L28.0715 28.6323C28.1847 28.5078 28.2987 28.3836 28.4135 28.2597L28.5053 28.3445C28.6199 28.2209 28.7353 28.0976 28.8515 27.9747L28.7605 27.8889C28.8759 27.7668 28.9921 27.6451 29.1091 27.5236L29.1993 27.6102C29.3157 27.4894 29.4329 27.369 29.5508 27.2488L29.4615 27.1614C29.5798 27.0409 29.6989 26.9209 29.8187 26.8012L29.9072 26.8895C29.967 26.8297 30.0269 26.7701 30.0871 26.7106C30.1473 26.651 30.2076 26.5917 30.2679 26.5325L30.1803 26.4434C30.3013 26.3248 30.4226 26.2071 30.5443 26.0901L30.6311 26.1801C30.7525 26.0634 30.8742 25.9475 30.9962 25.8323L30.9103 25.7415C31.033 25.6258 31.156 25.5109 31.2794 25.3968L31.3644 25.4885C31.4886 25.3736 31.6131 25.2595 31.7379 25.1462L31.6538 25.0538C31.7789 24.9402 31.9044 24.8275 32.0301 24.7156L32.1134 24.8089C32.2388 24.6973 32.3645 24.5865 32.4906 24.4765L32.4083 24.3825C32.5362 24.2709 32.6644 24.1601 32.7929 24.0502L32.8743 24.145C33.0025 24.0354 33.131 23.9266 33.2598 23.8186L33.1793 23.7229C33.3084 23.6147 33.4378 23.5073 33.5674 23.4008L33.6469 23.4973C33.7776 23.3899 33.9085 23.2834 34.0397 23.1778L33.9612 23.0806C34.093 22.9744 34.2251 22.8691 34.3575 22.7647L34.435 22.8628C34.567 22.7586 34.6993 22.6554 34.8318 22.553L34.7552 22.4542C34.8893 22.3507 35.0235 22.2481 35.158 22.1464L35.2335 22.246C35.3683 22.144 35.5033 22.043 35.6385 21.9429L35.564 21.8425C35.6995 21.7422 35.8353 21.6427 35.9713 21.5442L36.0447 21.6453C36.1814 21.5463 36.3182 21.4482 36.4553 21.351L36.3829 21.2492C36.5212 21.1511 36.6597 21.054 36.7984 20.9579L36.8697 21.0605C37.008 20.9646 37.1465 20.8697 37.2852 20.7757L37.2149 20.6724C37.3549 20.5775 37.4951 20.4836 37.6354 20.3907L37.7045 20.4947C37.8456 20.4013 37.9868 20.3089 38.1281 20.2175L38.0601 20.1126C38.2018 20.021 38.3436 19.9303 38.4856 19.8406L38.5525 19.9462C38.6951 19.8561 38.8378 19.767 38.9806 19.679L38.9149 19.5727C39.0594 19.4837 39.2039 19.3957 39.3486 19.3087L39.4131 19.4157C39.5574 19.329 39.7017 19.2433 39.8462 19.1586L39.7828 19.0509C39.9288 18.9653 40.0749 18.8808 40.221 18.7974L40.2831 18.9058C40.43 18.8219 40.5771 18.7391 40.7241 18.6573L40.6633 18.5482C40.8108 18.4662 40.9583 18.3853 41.1059 18.3055L41.1655 18.4153C41.3141 18.335 41.4626 18.2558 41.6113 18.1776L41.553 18.0671C41.7032 17.9882 41.8534 17.9104 42.0036 17.8337L42.0605 17.9449C42.2103 17.8684 42.3601 17.7931 42.5098 17.7189L42.4542 17.607C42.6062 17.5317 42.7582 17.4575 42.9102 17.3845L42.9645 17.4971C43.1168 17.4239 43.2692 17.3519 43.4215 17.2811L43.3687 17.1679C43.5215 17.0968 43.6742 17.0269 43.8269 16.9583L43.8783 17.0721C44.0329 17.0026 44.1874 16.9343 44.3419 16.8672L44.292 16.7527C44.4473 16.6852 44.6026 16.6189 44.7578 16.5539L44.8062 16.6691C44.9611 16.6042 45.1159 16.5405 45.2706 16.4781L45.2237 16.3623C45.3817 16.2986 45.5395 16.2361 45.6972 16.175L45.7425 16.2914C45.8997 16.2305 46.0567 16.1708 46.2136 16.1125L46.1699 15.9954C46.3284 15.9365 46.4867 15.8788 46.6448 15.8225L46.6869 15.9401C46.8465 15.8833 47.0059 15.8278 47.1651 15.7736L47.1248 15.6554C47.2846 15.6011 47.4442 15.5481 47.6036 15.4965L47.6422 15.6153C47.8032 15.5632 47.9639 15.5124 48.1244 15.4631L48.0876 15.3437C48.2498 15.2939 48.4117 15.2454 48.5733 15.1984L48.6083 15.3184C48.7695 15.2715 48.9304 15.2261 49.091 15.1821L49.0579 15.0616C49.2223 15.0166 49.3865 14.973 49.5503 14.9309L49.5815 15.0519C49.7446 15.01 49.9074 14.9696 50.0699 14.9307L50.0407 14.8093C50.2056 14.7698 50.3701 14.7319 50.5342 14.6955L50.5613 14.8174C50.7265 14.7808 50.8913 14.7457 51.0557 14.7123L51.0307 14.5899C51.1957 14.5562 51.3604 14.5242 51.5246 14.4937L51.5475 14.6165C51.7145 14.5856 51.8811 14.5562 52.0471 14.5286L52.0265 14.4054C52.1934 14.3776 52.3598 14.3514 52.5257 14.327L52.544 14.4505C52.711 14.4259 52.8775 14.4029 53.0435 14.3817L53.0276 14.2578C53.1961 14.2363 53.364 14.2164 53.5314 14.1984L53.5448 14.3226C53.7118 14.3046 53.8782 14.2883 54.0439 14.2738L54.033 14.1494C54.2029 14.1346 54.3721 14.1216 54.5406 14.1104L54.5489 14.2351C54.7166 14.224 54.8835 14.2147 55.0498 14.2073L55.0442 14.0825C55.2143 14.075 55.3836 14.0693 55.5521 14.0656L55.5549 14.1905C55.7233 14.1868 55.891 14.185 56.0578 14.1852L56.058 14.0602C56.2275 14.0604 56.3963 14.0626 56.5642 14.0668L56.5611 14.1916C56.7299 14.1958 56.8978 14.2021 57.0649 14.2103L57.0711 14.0856C57.2399 14.094 57.4078 14.1044 57.5748 14.1169L57.5655 14.2415C57.7341 14.2541 57.9018 14.269 58.0685 14.2859L58.0812 14.1616C58.249 14.1787 58.4158 14.1979 58.5816 14.2193L58.5655 14.3432C58.7334 14.3649 58.9002 14.3888 59.0659 14.415L59.0855 14.2916C59.2523 14.318 59.418 14.3466 59.5826 14.3776L59.5594 14.5003C59.7254 14.5315 59.8902 14.565 60.0537 14.6009L60.0805 14.4789C60.2457 14.5151 60.4096 14.5537 60.5722 14.5947L60.5416 14.7158C60.705 14.757 60.867 14.8006 61.0276 14.8466L61.0621 14.7265C61.2248 14.7731 61.386 14.8222 61.5459 14.8738L61.5074 14.9926C61.6674 15.0442 61.826 15.0984 61.983 15.155L62.0255 15.0375C62.1847 15.0949 62.3423 15.1549 62.4984 15.2174L62.4518 15.3333C62.6076 15.3957 62.7618 15.4607 62.9144 15.5283L62.9651 15.4141C63.1197 15.4826 63.2727 15.5538 63.424 15.6276L63.3691 15.7398C63.5197 15.8132 63.6685 15.8893 63.8157 15.968L63.8747 15.8579C64.0237 15.9377 64.171 16.0201 64.3164 16.1053L64.2531 16.213C64.3974 16.2975 64.5399 16.3847 64.6806 16.4746L64.748 16.3694C64.8903 16.4603 65.0306 16.554 65.1691 16.6504L65.0976 16.7529C65.2346 16.8483 65.3697 16.9464 65.5028 17.0472L65.5784 16.9477C65.7128 17.0495 65.8453 17.154 65.9758 17.2613L65.8962 17.3578C66.0249 17.4636 66.1517 17.5722 66.2764 17.6836L66.3598 17.5905C66.4854 17.7026 66.609 17.8174 66.7305 17.9351L66.6435 18.0248C66.7036 18.083 66.7633 18.1419 66.8224 18.2015C66.8815 18.2611 66.94 18.3212 66.9977 18.3818L67.0884 18.2957C67.205 18.4181 67.3189 18.5426 67.43 18.669L67.336 18.7514C67.4464 18.877 67.554 19.0046 67.6588 19.1341L67.7561 19.0555C67.8624 19.1868 67.9658 19.32 68.0665 19.4551L67.9662 19.5297C68.0659 19.6636 68.1629 19.7994 68.2572 19.9371L68.3605 19.8666C68.4557 20.0057 68.5482 20.1468 68.638 20.2896L68.532 20.356C68.6207 20.4973 68.7067 20.6403 68.79 20.7852L68.8985 20.723C68.9825 20.869 69.0637 21.0168 69.1421 21.1663L69.0313 21.2243C69.1088 21.3719 69.1837 21.5212 69.2558 21.6722L69.3687 21.6185C69.4412 21.7702 69.511 21.9236 69.5782 22.0787L69.4634 22.1283C69.5297 22.2812 69.5933 22.4358 69.6544 22.5919L69.7709 22.5464C69.8321 22.7029 69.8907 22.8609 69.9467 23.0203L69.8287 23.0617C69.8839 23.219 69.9367 23.3778 69.9869 23.538L70.1063 23.5007C70.1564 23.6608 70.2041 23.8223 70.2493 23.9851L70.1287 24.0184C70.1733 24.1793 70.2155 24.3414 70.2552 24.5049L70.3768 24.4755C70.4163 24.6382 70.4535 24.8023 70.4882 24.9675L70.3658 24.9932C70.4002 25.1568 70.4323 25.3216 70.462 25.4876L70.5851 25.4656C70.6145 25.6302 70.6417 25.796 70.6666 25.9628L70.5428 25.9812C70.5675 26.1468 70.59 26.3136 70.6101 26.4815L70.7343 26.4666C70.7542 26.6323 70.772 26.7991 70.7875 26.9668L70.663 26.9783C70.6784 27.1449 70.6917 27.3124 70.7028 27.481L70.8276 27.4728C70.8386 27.6396 70.8475 27.8074 70.8544 27.9761L70.7294 27.9811C70.7361 28.148 70.7408 28.3157 70.7435 28.4843L70.8686 28.4824C70.8712 28.65 70.8718 28.8186 70.8704 28.9879L70.7453 28.9868C70.744 29.1535 70.7406 29.3209 70.7354 29.489L70.8604 29.4929C70.8551 29.6612 70.8479 29.8302 70.8388 29.9999L70.7139 29.9932C70.7049 30.1591 70.6941 30.3258 70.6815 30.4931L70.8062 30.5025C70.7935 30.6706 70.7789 30.8395 70.7625 31.009L70.638 30.9969C70.6219 31.1623 70.6041 31.3283 70.5846 31.4948L70.7088 31.5094C70.6892 31.6763 70.6678 31.8438 70.6447 32.0119L70.5207 31.9948C70.498 32.1603 70.4735 32.3264 70.4472 32.493L70.5708 32.5123C70.5448 32.6778 70.5171 32.8437 70.4877 33.0101L70.3645 32.9884C70.3353 33.1539 70.3044 33.32 70.2718 33.4864L70.3946 33.5104C70.3626 33.6741 70.329 33.8382 70.2938 34.0027L70.1714 33.9767C70.1364 34.1405 70.0998 34.3047 70.0616 34.4693L70.1834 34.4975C70.1455 34.661 70.106 34.8249 70.0649 34.9892L69.9436 34.9589C69.9031 35.1208 69.8612 35.283 69.8177 35.4455L69.9386 35.4777C69.895 35.6409 69.8498 35.8044 69.8032 35.9682L69.6829 35.934C69.6373 36.094 69.5903 36.2543 69.5419 36.4148L69.6617 36.4508C69.6131 36.6118 69.5632 36.773 69.5118 36.9344L69.3925 36.8966C69.3417 37.0564 69.2894 37.2164 69.2357 37.3767L69.3543 37.4163C69.3012 37.575 69.2466 37.7338 69.1908 37.8929L69.0727 37.8515C69.017 38.01 68.96 38.1687 68.9016 38.3276L69.019 38.3706C68.9612 38.528 68.902 38.6856 68.8415 38.8433L68.7247 38.7986C68.6648 38.9547 68.6036 39.1109 68.5411 39.2673L68.6573 39.3136C68.5946 39.4705 68.5306 39.6275 68.4653 39.7846L68.3498 39.7367C68.2859 39.8906 68.2207 40.0446 68.1543 40.1987L68.2692 40.2481C68.2026 40.4024 68.1349 40.5569 68.0658 40.7114L67.9516 40.6605C67.883 40.8141 67.8132 40.9678 67.7421 41.1215L67.8557 41.1738C67.7855 41.3257 67.7141 41.4775 67.6416 41.6294L67.5287 41.5757C67.4563 41.7271 67.3828 41.8786 67.3081 42.0301L67.4204 42.0852C67.3459 42.2363 67.2702 42.3874 67.1934 42.5385L67.0818 42.4819C67.0062 42.6308 66.9293 42.7797 66.8514 42.9285L66.9622 42.9864C66.8841 43.1357 66.8048 43.2849 66.7243 43.4342L66.6142 43.3749C66.5346 43.5226 66.4539 43.6703 66.372 43.8178L66.4815 43.8783C66.4002 44.025 66.3178 44.1716 66.2344 44.3181L66.1256 44.2563C66.0424 44.4024 65.9581 44.5485 65.8727 44.6944L65.9807 44.7574C65.8958 44.9026 65.8099 45.0476 65.7229 45.1926L65.6156 45.1284C65.5295 45.2718 65.4423 45.4152 65.3541 45.5584L65.4607 45.6238C65.3723 45.7675 65.2828 45.911 65.1923 46.0544L65.0865 45.9878C64.997 46.1296 64.9065 46.2713 64.815 46.4128L64.9201 46.4806C64.829 46.6215 64.7368 46.7623 64.6437 46.903L64.5394 46.8341C64.4465 46.9744 64.3527 47.1145 64.2578 47.2545L64.3614 47.3245C64.2671 47.4637 64.1717 47.6028 64.0754 47.7417L63.9726 47.6706C63.8772 47.8082 63.7808 47.9456 63.6835 48.0828L63.7856 48.155C63.6881 48.2926 63.5896 48.43 63.4901 48.5672L63.3888 48.4939C63.2903 48.6299 63.1908 48.7656 63.0903 48.9012L63.1909 48.9755C63.091 49.1103 62.9902 49.245 62.8884 49.3794L62.7886 49.3041C62.6871 49.4382 62.5847 49.572 62.4814 49.7057L62.5804 49.782C62.4773 49.9153 62.3733 50.0484 62.2684 50.1813L62.1702 50.1039C62.0664 50.2353 61.9618 50.3664 61.8563 50.4973L61.9538 50.5756C61.848 50.7068 61.7414 50.8377 61.6339 50.9684L61.5372 50.8891C61.4302 51.0191 61.3224 51.1489 61.2137 51.2784L61.3095 51.3586C61.2017 51.4871 61.0929 51.6152 60.9834 51.7431L60.8883 51.6619C60.779 51.7895 60.6689 51.9168 60.5579 52.0438L60.6521 52.126C60.5409 52.2533 60.4288 52.3803 60.3158 52.507L60.2224 52.424C60.1111 52.5488 59.999 52.6733 59.886 52.7975L59.9787 52.8815C59.8655 53.006 59.7514 53.1302 59.6366 53.2541L59.5448 53.1693C59.4302 53.2929 59.3148 53.4162 59.1986 53.5391L59.2896 53.6249C59.1742 53.747 59.058 53.8687 58.941 53.9902L58.8509 53.9036C58.7345 54.0244 58.6173 54.1448 58.4993 54.265L58.5886 54.3524Z" stroke="url(#paint8_linear_4612_2840)" stroke-width="0.25" stroke-dasharray="0.5 0.5"/>
    <path d="M49.3958 69.3125C49.4039 69.6063 49.6401 69.8425 49.9339 69.8506C49.6401 69.8587 49.4039 70.095 49.3958 70.3888C49.3877 70.095 49.1514 69.8587 48.8577 69.8506C49.1514 69.8425 49.3877 69.6063 49.3958 69.3125Z" fill="white"/>
    <path d="M53.3421 53.5273C53.3502 53.8211 53.5864 54.0574 53.8802 54.0655C53.5864 54.0736 53.3502 54.3098 53.3421 54.6036C53.334 54.3098 53.0977 54.0736 52.804 54.0655C53.0977 54.0574 53.334 53.8211 53.3421 53.5273Z" fill="white"/>
    <path d="M31.8169 59.2676C31.825 59.5614 32.0613 59.7976 32.3551 59.8057C32.0613 59.8138 31.825 60.0501 31.8169 60.3438C31.8088 60.0501 31.5726 59.8138 31.2788 59.8057C31.5726 59.7976 31.8088 59.5614 31.8169 59.2676Z" fill="white"/>
    <path d="M38.4143 64.6944C38.4143 63.9407 38.9747 63.2039 40.001 62.6411C41.0181 62.0834 42.4403 61.7306 44.0249 61.7306C45.6095 61.7306 47.0316 62.0834 48.0488 62.6411C49.075 63.2039 49.6355 63.9407 49.6355 64.6944C49.6355 65.4482 49.075 66.1849 48.0488 66.7477C47.0316 67.3055 45.6095 67.6582 44.0249 67.6582C42.4403 67.6582 41.0181 67.3055 40.001 66.7477C38.9747 66.1849 38.4143 65.4482 38.4143 64.6944Z" stroke="white" stroke-opacity="0.4" stroke-width="0.5"/>
    <path d="M36.3432 64.6954C36.3432 63.628 37.1355 62.6073 38.5366 61.839C39.9285 61.0757 41.8685 60.5959 44.025 60.5959C46.1815 60.5959 48.1215 61.0757 49.5134 61.839C50.9145 62.6073 51.7068 63.628 51.7068 64.6954C51.7068 65.7628 50.9145 66.7835 49.5134 67.5518C48.1215 68.3151 46.1815 68.7949 44.025 68.7949C41.8685 68.7949 39.9285 68.3151 38.5366 67.5518C37.1355 66.7835 36.3432 65.7628 36.3432 64.6954Z" stroke="white" stroke-opacity="0.2" stroke-width="0.5"/>
    <path d="M33.5641 64.6949C33.5641 63.2067 34.6675 61.8051 36.5714 60.761C38.4663 59.7219 41.101 59.0715 44.0249 59.0715C46.9488 59.0715 49.5835 59.7219 51.4783 60.761C53.3823 61.8051 54.4856 63.2067 54.4856 64.6949C54.4856 66.1831 53.3823 67.5848 51.4783 68.6289C49.5835 69.6679 46.9488 70.3184 44.0249 70.3184C41.101 70.3184 38.4663 69.6679 36.5714 68.6289C34.6675 67.5848 33.5641 66.1831 33.5641 64.6949Z" stroke="white" stroke-opacity="0.1" stroke-width="0.5"/>
    <path d="M30.4528 64.6957C30.4528 62.7363 31.9044 60.9081 34.3715 59.5552C36.8294 58.2074 40.242 57.366 44.0251 57.366C47.8082 57.366 51.2208 58.2074 53.6787 59.5552C56.1458 60.9081 57.5974 62.7363 57.5974 64.6957C57.5974 66.6551 56.1458 68.4833 53.6787 69.8361C51.2208 71.184 47.8082 72.0254 44.0251 72.0254C40.242 72.0254 36.8294 71.184 34.3715 69.8361C31.9044 68.4833 30.4528 66.6551 30.4528 64.6957Z" stroke="white" stroke-opacity="0.05" stroke-width="0.5"/>
    <ellipse cx="44.0145" cy="64.649" rx="2.69063" ry="1.435" transform="rotate(-180 44.0145 64.649)" fill="white"/>
    <path d="M43.8352 84.0215L43.8352 64.4696C43.8352 64.3705 43.9155 64.2902 44.0146 64.2902C44.1136 64.2902 44.194 64.3705 44.194 64.4696L44.194 84.0215L43.8352 84.0215Z" fill="url(#paint9_linear_4612_2840)"/>
    <path d="M43.4763 79.3574L43.4763 64.828C43.4763 64.729 43.396 64.6486 43.2969 64.6486C43.1979 64.6486 43.1176 64.729 43.1176 64.828L43.1176 79.3574L43.4763 79.3574Z" fill="url(#paint10_linear_4612_2840)"/>
    <path d="M42.7588 75.0527L42.7588 64.8283C42.7588 64.7293 42.6785 64.649 42.5794 64.649C42.4803 64.649 42.4 64.7293 42.4 64.8283L42.4 75.0527L42.7588 75.0527Z" fill="url(#paint11_linear_4612_2840)"/>
    <path d="M44.5525 79.3574L44.5525 64.828C44.5525 64.729 44.6328 64.6486 44.7319 64.6486C44.8309 64.6486 44.9112 64.729 44.9112 64.828L44.9112 79.3574L44.5525 79.3574Z" fill="url(#paint12_linear_4612_2840)"/>
    <path d="M45.27 75.0527L45.27 64.8283C45.27 64.7293 45.3503 64.649 45.4494 64.649C45.5485 64.649 45.6288 64.7293 45.6288 64.8283L45.6288 75.0527L45.27 75.0527Z" fill="url(#paint13_linear_4612_2840)"/>
    <defs>
        <linearGradient id="paint0_linear_4612_2840" x1="44.1442" y1="22.8926" x2="44.0405" y2="45.4203" gradientUnits="userSpaceOnUse">
            <stop stop-color="#53FDA9"/>
            <stop offset="1" stop-color="#00FF81" stop-opacity="0"/>
        </linearGradient>
        <linearGradient id="paint1_linear_4612_2840" x1="44.4944" y1="29.7653" x2="44.4065" y2="48.8566" gradientUnits="userSpaceOnUse">
            <stop stop-color="#53FDA9"/>
            <stop offset="1" stop-color="#00FF81" stop-opacity="0"/>
        </linearGradient>
        <linearGradient id="paint2_linear_4612_2840" x1="44.2778" y1="-6.12867" x2="43.9772" y2="59.1634" gradientUnits="userSpaceOnUse">
            <stop stop-color="#53FDA9"/>
            <stop offset="1" stop-color="#00FF81" stop-opacity="0"/>
        </linearGradient>
        <linearGradient id="paint3_linear_4612_2840" x1="29.6435" y1="20.9149" x2="44.7425" y2="58.7859" gradientUnits="userSpaceOnUse">
            <stop stop-color="#53FDA9"/>
            <stop offset="1" stop-color="#00FF81" stop-opacity="0"/>
        </linearGradient>
        <linearGradient id="paint4_linear_4612_2840" x1="33.0345" y1="25.1263" x2="55.4127" y2="51.212" gradientUnits="userSpaceOnUse">
            <stop stop-color="#53FDA9"/>
            <stop offset="1" stop-color="#00FF81" stop-opacity="0"/>
        </linearGradient>
        <linearGradient id="paint5_linear_4612_2840" x1="43.9592" y1="8.45746" x2="43.9592" y2="73.2878" gradientUnits="userSpaceOnUse">
            <stop stop-color="#632BFF" stop-opacity="0"/>
            <stop offset="1" stop-color="#632BFF"/>
        </linearGradient>
        <linearGradient id="paint6_linear_4612_2840" x1="56.2972" y1="42.0238" x2="34.1634" y2="41.6326" gradientUnits="userSpaceOnUse">
            <stop stop-color="white"/>
            <stop offset="1" stop-color="white" stop-opacity="0"/>
        </linearGradient>
        <linearGradient id="paint7_linear_4612_2840" x1="19.913" y1="-23.0729" x2="19.913" y2="64.3894" gradientUnits="userSpaceOnUse">
            <stop offset="0.170133" stop-color="#53FDA9" stop-opacity="0"/>
            <stop offset="1" stop-color="#53FDA9"/>
        </linearGradient>
        <linearGradient id="paint8_linear_4612_2840" x1="12.374" y1="71.2254" x2="72.5718" y2="20.8079" gradientUnits="userSpaceOnUse">
            <stop stop-color="white"/>
            <stop offset="1" stop-color="white" stop-opacity="0"/>
        </linearGradient>
        <linearGradient id="paint9_linear_4612_2840" x1="44.0144" y1="60.0639" x2="44.0327" y2="81.7581" gradientUnits="userSpaceOnUse">
            <stop stop-color="white"/>
            <stop offset="1" stop-color="white" stop-opacity="0"/>
        </linearGradient>
        <linearGradient id="paint10_linear_4612_2840" x1="43.2971" y1="61.4981" x2="43.287" y2="77.6702" gradientUnits="userSpaceOnUse">
            <stop stop-color="white"/>
            <stop offset="1" stop-color="white" stop-opacity="0"/>
        </linearGradient>
        <linearGradient id="paint11_linear_4612_2840" x1="42.5796" y1="62.4206" x2="42.5745" y2="73.8593" gradientUnits="userSpaceOnUse">
            <stop stop-color="white"/>
            <stop offset="1" stop-color="white" stop-opacity="0"/>
        </linearGradient>
        <linearGradient id="paint12_linear_4612_2840" x1="44.7317" y1="61.4981" x2="44.7418" y2="77.6702" gradientUnits="userSpaceOnUse">
            <stop stop-color="white"/>
            <stop offset="1" stop-color="white" stop-opacity="0"/>
        </linearGradient>
        <linearGradient id="paint13_linear_4612_2840" x1="45.4492" y1="62.4206" x2="45.4543" y2="73.8593" gradientUnits="userSpaceOnUse">
            <stop stop-color="white"/>
            <stop offset="1" stop-color="white" stop-opacity="0"/>
        </linearGradient>
    </defs>
</svg>
