<svg width="220" height="141" viewBox="0 0 220 141" fill="none" xmlns="http://www.w3.org/2000/svg">
<path d="M143.282 100.095C139.464 103.914 134.93 106.943 129.94 109.01C124.951 111.077 119.603 112.141 114.203 112.141C108.802 112.141 103.454 111.077 98.4648 109.01C93.4753 106.943 88.9417 103.914 85.1229 100.095" stroke="url(#paint0_linear_4607_2861)" stroke-miterlimit="10" stroke-linecap="round"/>
<path d="M138.951 95.7644C135.701 99.0144 131.843 101.592 127.597 103.351C123.35 105.11 118.799 106.016 114.203 106.016C109.606 106.016 105.055 105.11 100.809 103.351C96.5623 101.592 92.704 99.0144 89.4539 95.7644" stroke="url(#paint1_linear_4607_2861)" stroke-miterlimit="10" stroke-linecap="round"/>
<path d="M134.62 91.4333C131.939 94.1146 128.756 96.2415 125.253 97.6926C121.749 99.1438 117.995 99.8906 114.203 99.8906C110.411 99.8906 106.656 99.1438 103.153 97.6926C99.6494 96.2415 96.4662 94.1146 93.7849 91.4333" stroke="url(#paint2_linear_4607_2861)" stroke-miterlimit="10" stroke-linecap="round"/>
<path d="M145.138 33.8929C148.957 37.7117 151.986 42.2453 154.053 47.2348C156.12 52.2243 157.184 57.572 157.184 62.9727C157.184 68.3733 156.12 73.721 154.053 78.7105C151.986 83.7 148.957 88.2336 145.138 92.0524" stroke="url(#paint3_linear_4607_2861)" stroke-miterlimit="10" stroke-linecap="round"/>
<path d="M140.807 38.2239C144.057 41.474 146.635 45.3323 148.394 49.5787C150.153 53.8251 151.059 58.3764 151.059 62.9727C151.059 67.5689 150.153 72.1202 148.394 76.3666C146.635 80.613 144.057 84.4713 140.807 87.7214" stroke="url(#paint4_linear_4607_2861)" stroke-miterlimit="10" stroke-linecap="round"/>
<path d="M136.476 42.5549C139.158 45.2362 141.285 48.4194 142.736 51.9227C144.187 55.4259 144.934 59.1807 144.934 62.9727C144.934 66.7646 144.187 70.5194 142.736 74.0226C141.285 77.5259 139.158 80.7091 136.476 83.3904" stroke="url(#paint5_linear_4607_2861)" stroke-miterlimit="10" stroke-linecap="round"/>
<path d="M78.9363 32.0374C82.7552 28.2186 87.2887 25.1894 92.2783 23.1226C97.2678 21.0559 102.616 19.9922 108.016 19.9922C113.417 19.9922 118.764 21.0559 123.754 23.1226C128.743 25.1894 133.277 28.2186 137.096 32.0374" stroke="url(#paint6_linear_4607_2861)" stroke-miterlimit="10" stroke-linecap="round"/>
<path d="M83.2674 36.3684C86.5174 33.1184 90.3758 30.5403 94.6222 28.7814C98.8686 27.0225 103.42 26.1172 108.016 26.1172C112.612 26.1172 117.164 27.0225 121.41 28.7814C125.656 30.5403 129.515 33.1184 132.765 36.3685" stroke="url(#paint7_linear_4607_2861)" stroke-miterlimit="10" stroke-linecap="round"/>
<path d="M87.5984 40.6995C90.2797 38.0182 93.4629 35.8913 96.9661 34.4402C100.469 32.9891 104.224 32.2422 108.016 32.2422C111.808 32.2422 115.563 32.9891 119.066 34.4402C122.569 35.8913 125.753 38.0182 128.434 40.6995" stroke="url(#paint8_linear_4607_2861)" stroke-miterlimit="10" stroke-linecap="round"/>
<path d="M77.0804 98.238C73.2616 94.4192 70.2323 89.8856 68.1656 84.8961C66.0989 79.9065 65.0352 74.5588 65.0352 69.1582C65.0352 63.7576 66.0989 58.4099 68.1656 53.4203C70.2323 48.4308 73.2616 43.8972 77.0804 40.0784" stroke="url(#paint9_linear_4607_2861)" stroke-miterlimit="10" stroke-linecap="round"/>
<path d="M81.4114 93.9069C78.1614 90.6569 75.5833 86.7985 73.8244 82.5521C72.0655 78.3057 71.1602 73.7545 71.1602 69.1582C71.1602 64.5619 72.0655 60.0107 73.8244 55.7643C75.5833 51.5179 78.1614 47.6595 81.4114 44.4095" stroke="url(#paint10_linear_4607_2861)" stroke-miterlimit="10" stroke-linecap="round"/>
<path d="M85.7424 89.5759C83.0612 86.8946 80.9342 83.7115 79.4831 80.2082C78.032 76.7049 77.2852 72.9501 77.2852 69.1582C77.2852 65.3663 78.032 61.6115 79.4831 58.1082C80.9342 54.6049 83.0612 51.4218 85.7425 48.7405" stroke="url(#paint11_linear_4607_2861)" stroke-miterlimit="10" stroke-linecap="round"/>
<g filter="url(#filter0_d_4607_2861)">
<path d="M124.8 71.27C124.152 73.6877 122.879 75.8922 121.11 77.6621C119.34 79.432 117.135 80.7048 114.717 81.3526L113.87 78.1908C115.733 77.6917 117.431 76.7111 118.795 75.3475C120.159 73.9839 121.139 72.2854 121.638 70.4228L124.8 71.27Z" fill="#53FDA9"/>
</g>
<path d="M97.1948 63.6734C96.3824 66.7054 96.5931 69.9206 97.7943 72.8206C98.9955 75.7206 101.12 78.1432 103.838 79.7126C106.557 81.2821 109.717 81.9107 112.829 81.501C115.941 81.0913 118.831 79.6661 121.051 77.4466C123.27 75.227 124.695 72.3371 125.105 69.2251C125.515 66.113 124.886 62.9528 123.317 60.2344C121.747 57.516 119.325 55.3915 116.425 54.1903C113.525 52.9891 110.309 52.7783 107.277 53.5907L108.842 59.4294C110.589 58.9614 112.441 59.0828 114.111 59.7748C115.782 60.4668 117.178 61.6907 118.082 63.2567C118.986 64.8227 119.348 66.6433 119.112 68.4361C118.876 70.2289 118.055 71.8937 116.776 73.1724C115.498 74.451 113.833 75.272 112.04 75.508C110.247 75.744 108.427 75.3819 106.861 74.4778C105.295 73.5736 104.071 72.178 103.379 70.5074C102.687 68.8368 102.565 66.9845 103.033 65.2379L97.1948 63.6734Z" stroke="url(#paint12_linear_4607_2861)" stroke-width="0.25" stroke-miterlimit="10" stroke-linecap="round"/>
<g filter="url(#filter1_d_4607_2861)">
<path d="M105.852 64.4088C105.198 65.5419 104.936 66.8593 105.107 68.1565C105.278 69.4538 105.872 70.6584 106.797 71.5836C107.722 72.5089 108.927 73.1029 110.224 73.2737C111.521 73.4445 112.839 73.1825 113.972 72.5282C115.105 71.874 115.991 70.8642 116.491 69.6553C116.992 68.4465 117.08 67.1062 116.741 65.8423C116.403 64.5784 115.656 63.4616 114.618 62.6651C113.58 61.8686 112.308 61.4368 111 61.4368L111 67.3807L105.852 64.4088Z" fill="white"/>
</g>
<g filter="url(#filter2_d_4607_2861)">
<ellipse cx="109.918" cy="70.0996" rx="96.25" ry="25.375" stroke="url(#paint13_linear_4607_2861)" stroke-linecap="round" stroke-linejoin="round" stroke-dasharray="2 2" shape-rendering="crispEdges"/>
</g>
<path d="M110.254 0.0570518C110.419 0.031768 110.584 0.014846 110.75 0.00636212L110.757 0.13121C110.838 0.127074 110.919 0.124999 111 0.124999C111.081 0.124999 111.162 0.127074 111.243 0.13121L111.25 0.0063621C111.416 0.014846 111.581 0.0317832 111.746 0.057067L111.728 0.180617C111.886 0.20494 112.045 0.237182 112.202 0.277282L112.233 0.156142C112.393 0.196838 112.553 0.245406 112.712 0.301742L112.67 0.41957C112.821 0.472884 112.971 0.53337 113.121 0.600951L113.172 0.487029C113.322 0.554763 113.472 0.629439 113.621 0.710952L113.561 0.820602C113.701 0.897399 113.841 0.980453 113.98 1.06972L114.048 0.964431C114.186 1.05264 114.323 1.14673 114.46 1.24664L114.386 1.34759C114.517 1.44301 114.647 1.54388 114.777 1.65016L114.856 1.55344C114.981 1.65608 115.106 1.76364 115.231 1.87605L115.147 1.96881C115.27 2.07967 115.392 2.19536 115.514 2.31584L115.602 2.22694C115.715 2.33932 115.829 2.45576 115.941 2.57623L115.85 2.66168C115.962 2.78102 116.073 2.9044 116.184 3.03178L116.279 2.94968C116.387 3.07367 116.494 3.20135 116.601 3.33272L116.505 3.41174C116.606 3.53624 116.707 3.66411 116.808 3.7953L116.907 3.71912C117.009 3.85124 117.11 3.98668 117.211 4.1254L117.11 4.19887C117.205 4.33 117.3 4.46411 117.395 4.60118L117.497 4.5302C117.59 4.66421 117.682 4.80098 117.774 4.94052L117.669 5.0092C117.761 5.14798 117.851 5.28952 117.942 5.43381L118.048 5.36735C118.135 5.50598 118.222 5.64708 118.308 5.79066L118.201 5.85507C118.284 5.9939 118.367 6.13505 118.45 6.27853L118.558 6.21603C118.642 6.36014 118.724 6.50654 118.807 6.65523L118.698 6.71588C118.778 6.86044 118.858 7.0072 118.937 7.15611L119.048 7.09718C119.124 7.24003 119.2 7.38487 119.276 7.53165L119.165 7.58899C119.24 7.73524 119.316 7.88347 119.391 8.03363L119.502 7.97783C119.578 8.12849 119.652 8.28108 119.727 8.43561L119.614 8.48993C119.685 8.63566 119.755 8.78314 119.824 8.93233L119.938 8.87936C120.007 9.02759 120.076 9.17747 120.145 9.32902L120.031 9.38068C120.1 9.53178 120.168 9.68457 120.236 9.839L120.35 9.78862C120.418 9.94231 120.485 10.0976 120.553 10.2545L120.438 10.3037C120.501 10.4522 120.564 10.6021 120.627 10.7534L120.743 10.7054C120.806 10.8571 120.869 11.0103 120.932 11.1649L120.816 11.2118C120.878 11.3661 120.94 11.5217 121.002 11.6788L121.119 11.6329C121.18 11.7889 121.242 11.9462 121.303 12.105L121.186 12.1498C121.244 12.301 121.302 12.4534 121.36 12.6071L121.477 12.5631C121.534 12.7171 121.592 12.8723 121.649 13.0287L121.532 13.0717C121.589 13.2279 121.646 13.3852 121.703 13.5438L121.82 13.5017C121.877 13.6606 121.934 13.8207 121.99 13.982L121.872 14.0232C121.925 14.1762 121.979 14.3304 122.032 14.4856L122.15 14.4453C122.203 14.6006 122.256 14.757 122.308 14.9144L122.19 14.954C122.242 15.1112 122.294 15.2695 122.346 15.4288L122.465 15.3901C122.517 15.5497 122.569 15.7103 122.621 15.872L122.502 15.9101C122.552 16.0672 122.602 16.2254 122.651 16.3846L122.771 16.3473C122.82 16.5034 122.868 16.6604 122.916 16.8184L122.797 16.8549C122.845 17.0126 122.893 17.1713 122.941 17.3309L123.061 17.295C123.109 17.4549 123.156 17.6156 123.204 17.7773L123.084 17.8125C123.131 17.974 123.178 18.1364 123.225 18.2997L123.345 18.2652C123.39 18.422 123.435 18.5798 123.48 18.7383L123.36 18.7722C123.404 18.9301 123.448 19.0888 123.493 19.2483L123.613 19.215C123.657 19.3747 123.701 19.5353 123.745 19.6966L123.624 19.7293C123.668 19.8905 123.711 20.0525 123.755 20.2153L123.875 20.1832C123.918 20.3457 123.961 20.5089 124.004 20.6729L123.883 20.7044C123.924 20.8622 123.965 21.0206 124.006 21.1799L124.127 21.1489C124.168 21.3083 124.208 21.4685 124.249 21.6293L124.127 21.6598C124.168 21.8204 124.208 21.9819 124.248 22.144L124.369 22.1142C124.409 22.2765 124.449 22.4396 124.488 22.6034L124.367 22.6327C124.406 22.7961 124.445 22.9602 124.484 23.1249L124.606 23.0961C124.644 23.2551 124.681 23.4147 124.718 23.575L124.597 23.6033C124.634 23.7634 124.671 23.9242 124.708 24.0856L124.83 24.0577C124.867 24.2193 124.903 24.3816 124.94 24.5444L124.818 24.5718C124.854 24.7345 124.891 24.8979 124.927 25.0619L125.049 25.035C125.085 25.1992 125.121 25.364 125.157 25.5294L125.035 25.5559C125.069 25.7165 125.104 25.8778 125.138 26.0397L125.26 26.0137C125.295 26.1745 125.329 26.3359 125.362 26.4978L125.24 26.5234C125.274 26.6852 125.307 26.8476 125.341 27.0106L125.463 26.9855C125.496 27.1486 125.53 27.3123 125.563 27.4766L125.44 27.5012C125.473 27.6654 125.506 27.8301 125.539 27.9954L125.661 27.9712C125.694 28.1347 125.726 28.2987 125.758 28.4633L125.635 28.4871C125.666 28.6481 125.697 28.8095 125.728 28.9715L125.851 28.9481C125.882 29.1102 125.912 29.2729 125.943 29.436L125.82 29.459C125.85 29.6221 125.881 29.7856 125.911 29.9497L126.034 29.9271C126.064 30.0913 126.094 30.256 126.124 30.4212L126.001 30.4434C126.031 30.6085 126.06 30.7741 126.09 30.9402L126.213 30.9184C126.241 31.081 126.27 31.244 126.299 31.4075L126.175 31.429C126.204 31.5909 126.232 31.7534 126.259 31.9163L126.383 31.8953C126.41 32.0583 126.438 32.2219 126.466 32.3859L126.342 32.4065C126.37 32.5704 126.397 32.7347 126.424 32.8995L126.548 32.8792C126.575 33.0441 126.602 33.2095 126.629 33.3754L126.505 33.3953C126.532 33.561 126.559 33.7272 126.585 33.8938L126.709 33.8743C126.734 34.0366 126.76 34.1994 126.785 34.3626L126.662 34.3819C126.687 34.5446 126.713 34.7078 126.738 34.8713L126.861 34.8524C126.886 35.0161 126.911 35.1803 126.936 35.3448L126.812 35.3634C126.837 35.5278 126.861 35.6926 126.886 35.8579L127.009 35.8397C127.034 36.005 127.058 36.1708 127.082 36.337L126.958 36.3549C126.982 36.521 127.006 36.6875 127.03 36.8544L127.154 36.8368C127.177 36.9997 127.2 37.1629 127.222 37.3264L127.099 37.3437C127.121 37.5069 127.144 37.6705 127.166 37.8346L127.29 37.8176C127.312 37.9818 127.335 38.1463 127.357 38.3111L127.233 38.3277C127.255 38.4925 127.277 38.6577 127.299 38.8232L127.423 38.8069C127.444 38.9725 127.466 39.1385 127.487 39.3049L127.363 39.3209C127.385 39.4871 127.406 39.6538 127.427 39.8208L127.551 39.8051C127.572 39.9689 127.592 40.133 127.613 40.2975L127.489 40.3128C127.509 40.4764 127.529 40.6403 127.549 40.8046L127.673 40.7896C127.693 40.9539 127.713 41.1186 127.732 41.2837L127.608 41.2985C127.628 41.4634 127.647 41.6287 127.666 41.7943L127.79 41.7799C127.81 41.9456 127.829 42.1117 127.848 42.2781L127.724 42.2923C127.743 42.4586 127.761 42.6252 127.78 42.7922L127.904 42.7784C127.923 42.9434 127.941 43.1089 127.959 43.2746L127.835 43.2882C127.853 43.4519 127.87 43.616 127.888 43.7805L128.012 43.7672C128.03 43.9317 128.047 44.0965 128.064 44.2616L127.94 44.2746C127.957 44.4396 127.974 44.605 127.991 44.7706L128.116 44.7579C128.133 44.9237 128.149 45.0897 128.166 45.2561L128.042 45.2685C128.058 45.4348 128.075 45.6013 128.091 45.7682L128.215 45.756C128.232 45.9227 128.248 46.0897 128.264 46.257L128.139 46.2688C128.155 46.4327 128.17 46.5969 128.186 46.7614L128.31 46.7498C128.325 46.9143 128.341 47.0791 128.356 47.2443L128.231 47.2556C128.246 47.4206 128.261 47.5859 128.276 47.7515L128.4 47.7404C128.415 47.9061 128.429 48.072 128.444 48.2383L128.319 48.249C128.334 48.4152 128.348 48.5816 128.362 48.7483L128.487 48.7377C128.501 48.9045 128.515 49.0716 128.528 49.2389L128.404 49.2491C128.417 49.4147 128.431 49.5805 128.444 49.7466L128.569 49.7367C128.582 49.9012 128.595 50.066 128.608 50.231L128.483 50.2407C128.496 50.4057 128.509 50.5709 128.521 50.7364L128.646 50.7269C128.658 50.8924 128.671 51.0582 128.683 51.2243L128.558 51.2335C128.571 51.3995 128.583 51.5657 128.595 51.7321L128.719 51.7232C128.731 51.8897 128.743 52.0565 128.755 52.2235L128.63 52.2322C128.633 52.2736 128.636 52.3149 128.639 52.3563C128.639 52.3658 128.64 52.3754 128.641 52.3849C128.649 52.5011 128.657 52.6174 128.664 52.7338L128.789 52.7254C128.8 52.8905 128.811 53.0559 128.822 53.2215L128.697 53.2296C128.708 53.3945 128.719 53.5596 128.729 53.7249L128.854 53.7169C128.865 53.8823 128.875 54.0479 128.885 54.2138L128.76 54.2215C128.771 54.3872 128.781 54.5532 128.791 54.7194L128.915 54.712C128.925 54.8783 128.935 55.0448 128.945 55.2116L128.82 55.2187C128.829 55.3854 128.839 55.5523 128.848 55.7194L128.973 55.7124C128.982 55.8796 128.991 56.047 129 56.2146L128.875 56.2213C128.884 56.3862 128.893 56.5513 128.901 56.7165L129.026 56.7101C129.035 56.8753 129.043 57.0407 129.051 57.2064L128.926 57.2126C128.935 57.3781 128.943 57.5439 128.951 57.7098L129.076 57.7039C129.083 57.8699 129.091 58.0361 129.099 58.2026L128.974 58.2083C128.982 58.3747 128.989 58.5412 128.996 58.708L129.121 58.7025C129.128 58.8693 129.136 59.0364 129.143 59.2036L129.018 59.2088C129.025 59.376 129.032 59.5433 129.038 59.7109L129.163 59.7059C129.17 59.871 129.176 60.0362 129.182 60.2016L129.057 60.2064C129.064 60.3717 129.07 60.5372 129.076 60.7029L129.201 60.6984C129.207 60.8642 129.213 61.0302 129.218 61.1963L129.093 61.2006C129.096 61.2665 129.098 61.3325 129.1 61.3985C129.101 61.4138 129.101 61.429 129.102 61.4443C129.104 61.5292 129.107 61.6142 129.11 61.6993L129.235 61.6953C129.24 61.8618 129.245 62.0285 129.251 62.1953L129.126 62.1991C129.131 62.3659 129.136 62.5329 129.14 62.7L129.265 62.6965C129.27 62.8637 129.275 63.0311 129.279 63.1986L129.154 63.202C129.159 63.3673 129.163 63.5327 129.167 63.6983L129.292 63.6952C129.296 63.8608 129.3 64.0265 129.304 64.1923L129.179 64.1952C129.183 64.361 129.186 64.5269 129.19 64.693L129.315 64.6904C129.318 64.8566 129.322 65.0229 129.325 65.1894L129.2 65.1918C129.203 65.3583 129.206 65.5248 129.209 65.6916L129.334 65.6894C129.337 65.8563 129.34 66.0232 129.342 66.1904L129.217 66.1923C129.22 66.3594 129.222 66.5266 129.224 66.694L129.349 66.6923C129.352 66.8581 129.354 67.0241 129.356 67.1902L129.231 67.1916C129.233 67.3572 129.235 67.5228 129.236 67.6886L129.361 67.6874C129.363 67.8533 129.364 68.0193 129.366 68.1855L129.241 68.1865C129.242 68.3526 129.243 68.5188 129.244 68.6852L129.369 68.6844C129.37 68.8509 129.371 69.0175 129.372 69.1843L129.247 69.1848C129.248 69.3515 129.249 69.5183 129.249 69.6853L129.374 69.6849C129.374 69.852 129.375 70.0191 129.375 70.1864L129.25 70.1866L129.25 70.4375L129.25 70.6885L129.375 70.6886C129.375 70.8559 129.374 71.0231 129.374 71.1901L129.249 71.1898C129.249 71.3567 129.248 71.5236 129.247 71.6902L129.372 71.6908C129.371 71.8576 129.37 72.0242 129.369 72.1906L129.244 72.1898C129.243 72.3562 129.242 72.5225 129.241 72.6886L129.366 72.6896C129.364 72.8558 129.363 73.0218 129.361 73.1877L129.236 73.1864C129.235 73.3522 129.233 73.5179 129.231 73.6834L129.356 73.6849C129.354 73.851 129.352 74.017 129.349 74.1828L129.224 74.1811C129.224 74.2297 129.223 74.2784 129.222 74.327C129.221 74.4456 129.219 74.5642 129.217 74.6827L129.342 74.6847C129.34 74.8518 129.337 75.0188 129.334 75.1856L129.209 75.1835C129.206 75.3502 129.203 75.5168 129.2 75.6832L129.325 75.6856C129.322 75.8521 129.318 76.0185 129.315 76.1847L129.19 76.182C129.188 76.26 129.186 76.338 129.185 76.4158C129.183 76.5039 129.181 76.5919 129.179 76.6799L129.304 76.6827C129.3 76.8486 129.296 77.0143 129.292 77.1798L129.167 77.1767C129.163 77.3423 129.159 77.5078 129.154 77.6731L129.279 77.6764C129.275 77.844 129.27 78.0114 129.265 78.1786L129.14 78.175C129.136 78.3422 129.131 78.5091 129.126 78.6759L129.251 78.6797C129.245 78.8466 129.24 79.0133 129.235 79.1798L129.11 79.1757C129.105 79.3422 129.099 79.5084 129.093 79.6745L129.218 79.6787C129.213 79.8449 129.207 80.0109 129.201 80.1766L129.076 80.1721C129.07 80.3378 129.064 80.5033 129.057 80.6687L129.182 80.6734C129.176 80.8388 129.17 81.0041 129.163 81.1691L129.038 81.1642C129.032 81.3317 129.025 81.499 129.018 81.6662L129.143 81.6714C129.136 81.8387 129.128 82.0057 129.121 82.1725L128.996 82.1671C128.989 82.3338 128.982 82.5004 128.974 82.6668L129.099 82.6725C129.091 82.8389 129.083 83.0051 129.076 83.1712L128.951 83.1652C128.943 83.3312 128.935 83.4969 128.926 83.6625L129.051 83.6687C129.043 83.8343 129.035 83.9997 129.026 84.1649L128.901 84.1585C128.897 84.2353 128.893 84.3121 128.889 84.3888C128.885 84.4772 128.88 84.5655 128.875 84.6537L129 84.6604C128.991 84.828 128.982 84.9954 128.973 85.1626L128.848 85.1557C128.839 85.3228 128.829 85.4897 128.82 85.6563L128.945 85.6635C128.935 85.8302 128.925 85.9967 128.915 86.163L128.791 86.1556C128.781 86.3218 128.771 86.4878 128.76 86.6536L128.885 86.6612C128.875 86.8271 128.865 86.9927 128.854 87.1581L128.729 87.1502C128.719 87.3155 128.708 87.4806 128.697 87.6454L128.822 87.6536C128.811 87.8192 128.8 87.9845 128.789 88.1497L128.664 88.1412C128.653 88.3087 128.642 88.4759 128.63 88.6428L128.755 88.6515C128.743 88.8185 128.731 88.9853 128.719 89.1519L128.595 89.1429C128.583 89.3094 128.571 89.4756 128.558 89.6415L128.683 89.6507C128.671 89.8168 128.658 89.9826 128.646 90.1481L128.521 90.1387C128.509 90.3041 128.496 90.4693 128.483 90.6343L128.608 90.644C128.595 90.8091 128.582 90.9738 128.569 91.1384L128.444 91.1284C128.431 91.2945 128.417 91.4603 128.404 91.6259L128.528 91.6362C128.515 91.8035 128.501 91.9705 128.487 92.1373L128.362 92.1268C128.348 92.2935 128.334 92.4599 128.319 92.626L128.444 92.6368C128.429 92.803 128.415 92.9689 128.4 93.1346L128.276 93.1236C128.261 93.2891 128.246 93.4544 128.231 93.6195L128.356 93.6308C128.341 93.7959 128.325 93.9607 128.31 94.1253L128.186 94.1137C128.17 94.2781 128.155 94.4423 128.139 94.6062L128.264 94.6181C128.248 94.7854 128.232 94.9523 128.215 95.119L128.091 95.1069C128.075 95.2737 128.058 95.4403 128.042 95.6065L128.166 95.619C128.149 95.7853 128.133 95.9514 128.116 96.1171L127.991 96.1044C127.974 96.27 127.957 96.4354 127.94 96.6004L128.064 96.6134C128.047 96.7785 128.03 96.9434 128.012 97.1079L127.888 97.0946C127.87 97.259 127.853 97.4231 127.835 97.5869L127.959 97.6004C127.941 97.7662 127.923 97.9316 127.904 98.0967L127.78 98.0828C127.761 98.2498 127.743 98.4165 127.724 98.5828L127.848 98.5969C127.829 98.7633 127.81 98.9294 127.79 99.0951L127.666 99.0807C127.647 99.2463 127.628 99.4116 127.608 99.5766L127.732 99.5913C127.713 99.7564 127.693 99.9211 127.673 100.085L127.549 100.07C127.529 100.235 127.509 100.399 127.489 100.562L127.613 100.578C127.592 100.742 127.572 100.906 127.551 101.07L127.427 101.054C127.406 101.221 127.385 101.388 127.363 101.554L127.487 101.57C127.466 101.737 127.444 101.903 127.423 102.068L127.299 102.052C127.277 102.217 127.255 102.383 127.233 102.547L127.357 102.564C127.335 102.729 127.312 102.893 127.29 103.057L127.166 103.04C127.144 103.204 127.121 103.368 127.099 103.531L127.222 103.549C127.2 103.712 127.177 103.875 127.154 104.038L127.03 104.021C127.006 104.188 126.982 104.354 126.958 104.52L127.082 104.538C127.058 104.704 127.034 104.87 127.009 105.035L126.886 105.017C126.861 105.182 126.837 105.347 126.812 105.512L126.936 105.53C126.911 105.695 126.886 105.859 126.861 106.023L126.738 106.004C126.712 106.167 126.687 106.33 126.662 106.493L126.785 106.512C126.76 106.676 126.734 106.838 126.709 107.001L126.585 106.981C126.559 107.148 126.532 107.314 126.505 107.48L126.629 107.5C126.602 107.666 126.575 107.831 126.548 107.996L126.424 107.976C126.397 108.14 126.37 108.305 126.342 108.469L126.466 108.489C126.438 108.653 126.41 108.817 126.383 108.98L126.259 108.959C126.232 109.122 126.204 109.284 126.175 109.446L126.299 109.467C126.27 109.631 126.241 109.794 126.213 109.957L126.09 109.935C126.06 110.101 126.031 110.267 126.001 110.432L126.124 110.454C126.094 110.619 126.064 110.784 126.034 110.948L125.911 110.925C125.881 111.089 125.85 111.253 125.82 111.416L125.943 111.439C125.912 111.602 125.882 111.765 125.851 111.927L125.728 111.904C125.697 112.066 125.666 112.227 125.635 112.388L125.758 112.412C125.726 112.576 125.694 112.74 125.661 112.904L125.539 112.88C125.506 113.045 125.473 113.21 125.44 113.374L125.563 113.398C125.53 113.563 125.496 113.726 125.463 113.89L125.341 113.864C125.307 114.027 125.274 114.19 125.24 114.352L125.362 114.377C125.329 114.539 125.295 114.701 125.26 114.861L125.138 114.835C125.104 114.997 125.069 115.159 125.035 115.319L125.157 115.346C125.121 115.511 125.085 115.676 125.049 115.84L124.927 115.813C124.891 115.977 124.854 116.141 124.818 116.303L124.94 116.331C124.903 116.493 124.867 116.656 124.83 116.817L124.708 116.789C124.671 116.951 124.634 117.112 124.597 117.272L124.718 117.3C124.681 117.46 124.644 117.62 124.606 117.779L124.484 117.75C124.445 117.915 124.406 118.079 124.367 118.242L124.488 118.272C124.449 118.435 124.409 118.599 124.369 118.761L124.248 118.731C124.208 118.893 124.168 119.055 124.127 119.215L124.249 119.246C124.208 119.407 124.168 119.567 124.127 119.726L124.006 119.695C123.965 119.854 123.924 120.013 123.883 120.171L124.004 120.202C123.961 120.366 123.918 120.529 123.875 120.692L123.754 120.66C123.711 120.823 123.668 120.985 123.624 121.146L123.745 121.178C123.701 121.34 123.657 121.5 123.613 121.66L123.493 121.627C123.448 121.786 123.404 121.945 123.36 122.103L123.48 122.137C123.435 122.295 123.39 122.453 123.345 122.61L123.225 122.575C123.178 122.739 123.131 122.901 123.084 123.063L123.204 123.098C123.156 123.259 123.109 123.42 123.061 123.58L122.941 123.544C122.893 123.704 122.845 123.862 122.797 124.02L122.916 124.057C122.868 124.215 122.82 124.372 122.771 124.528L122.651 124.49C122.602 124.65 122.552 124.808 122.502 124.965L122.621 125.003C122.569 125.165 122.517 125.325 122.465 125.485L122.346 125.446C122.294 125.606 122.242 125.764 122.19 125.921L122.308 125.961C122.256 126.118 122.203 126.274 122.15 126.43L122.032 126.389C121.979 126.545 121.925 126.699 121.872 126.852L121.99 126.893C121.934 127.054 121.877 127.214 121.82 127.373L121.703 127.331C121.646 127.49 121.589 127.647 121.532 127.803L121.649 127.846C121.592 128.003 121.534 128.158 121.477 128.312L121.36 128.268C121.302 128.422 121.244 128.574 121.186 128.725L121.303 128.77C121.242 128.929 121.18 129.086 121.119 129.242L121.002 129.196C120.94 129.353 120.878 129.509 120.816 129.663L120.932 129.71C120.869 129.865 120.806 130.018 120.743 130.17L120.627 130.122C120.564 130.273 120.501 130.423 120.438 130.571L120.553 130.621C120.485 130.777 120.418 130.933 120.35 131.086L120.236 131.036C120.168 131.19 120.1 131.343 120.031 131.494L120.145 131.546C120.076 131.698 120.007 131.847 119.938 131.996L119.824 131.943C119.755 132.092 119.685 132.239 119.614 132.385L119.727 132.439C119.652 132.594 119.578 132.747 119.502 132.897L119.39 132.841C119.316 132.992 119.24 133.14 119.165 133.286L119.276 133.343C119.2 133.49 119.124 133.635 119.048 133.778L118.937 133.719C118.858 133.868 118.778 134.015 118.698 134.159L118.807 134.22C118.724 134.369 118.642 134.515 118.558 134.659L118.45 134.597C118.367 134.74 118.284 134.881 118.201 135.02L118.308 135.084C118.222 135.228 118.135 135.369 118.048 135.508L117.942 135.441C117.851 135.586 117.761 135.727 117.669 135.866L117.774 135.935C117.682 136.074 117.59 136.211 117.497 136.345L117.395 136.274C117.3 136.411 117.205 136.545 117.11 136.676L117.211 136.75C117.11 136.888 117.009 137.024 116.907 137.156L116.808 137.08C116.707 137.211 116.606 137.339 116.505 137.463L116.601 137.542C116.494 137.674 116.387 137.801 116.279 137.925L116.184 137.843C116.073 137.971 115.962 138.094 115.85 138.213L115.941 138.299C115.829 138.419 115.715 138.536 115.602 138.648L115.514 138.559C115.392 138.68 115.27 138.795 115.147 138.906L115.231 138.999C115.106 139.111 114.981 139.219 114.856 139.322L114.777 139.225C114.647 139.331 114.517 139.432 114.386 139.527L114.46 139.628C114.323 139.728 114.186 139.822 114.048 139.911L113.98 139.805C113.841 139.895 113.701 139.978 113.561 140.054L113.621 140.164C113.472 140.246 113.322 140.32 113.172 140.388L113.121 140.274C112.971 140.342 112.821 140.402 112.67 140.455L112.712 140.573C112.553 140.63 112.393 140.678 112.233 140.719L112.202 140.598C112.045 140.638 111.886 140.67 111.727 140.694L111.746 140.818C111.581 140.843 111.416 140.86 111.25 140.869L111.243 140.744C111.162 140.748 111.081 140.75 111 140.75C110.919 140.75 110.838 140.748 110.757 140.744L110.75 140.869C110.584 140.86 110.419 140.843 110.254 140.818L110.272 140.694C110.114 140.67 109.955 140.638 109.798 140.598L109.767 140.719C109.607 140.678 109.447 140.63 109.288 140.573L109.33 140.455C109.179 140.402 109.029 140.342 108.879 140.274L108.828 140.388C108.678 140.32 108.528 140.246 108.379 140.164L108.439 140.054C108.299 139.978 108.159 139.895 108.02 139.805L107.952 139.911C107.814 139.822 107.677 139.728 107.54 139.628L107.614 139.527C107.483 139.432 107.353 139.331 107.223 139.225L107.144 139.322C107.019 139.219 106.894 139.111 106.769 138.999L106.853 138.906C106.73 138.795 106.608 138.68 106.486 138.559L106.398 138.648C106.285 138.536 106.171 138.419 106.059 138.299L106.15 138.213C106.038 138.094 105.927 137.971 105.816 137.843L105.721 137.925C105.613 137.801 105.506 137.674 105.399 137.542L105.495 137.463C105.394 137.339 105.293 137.211 105.192 137.08L105.093 137.156C104.991 137.024 104.89 136.888 104.789 136.75L104.89 136.676C104.795 136.545 104.7 136.411 104.605 136.274L104.503 136.345C104.41 136.211 104.318 136.074 104.226 135.934L104.331 135.866C104.239 135.727 104.149 135.585 104.058 135.441L103.952 135.508C103.865 135.369 103.778 135.228 103.692 135.084L103.799 135.02C103.716 134.881 103.633 134.74 103.55 134.596L103.442 134.659C103.358 134.515 103.276 134.368 103.193 134.22L103.302 134.159C103.222 134.015 103.142 133.868 103.063 133.719L102.952 133.778C102.876 133.635 102.8 133.49 102.724 133.343L102.835 133.286C102.76 133.14 102.684 132.992 102.61 132.841L102.498 132.897C102.422 132.747 102.348 132.594 102.273 132.439L102.386 132.385C102.315 132.239 102.245 132.092 102.176 131.943L102.062 131.996C101.993 131.847 101.924 131.698 101.855 131.546L101.969 131.494C101.9 131.343 101.832 131.19 101.764 131.036L101.65 131.086C101.582 130.933 101.515 130.777 101.447 130.62L101.562 130.571C101.499 130.423 101.436 130.273 101.373 130.122L101.257 130.17C101.194 130.018 101.131 129.865 101.068 129.71L101.184 129.663C101.122 129.509 101.06 129.353 100.998 129.196L100.881 129.242C100.82 129.086 100.758 128.929 100.697 128.77L100.814 128.725C100.756 128.574 100.698 128.422 100.64 128.268L100.523 128.312C100.466 128.158 100.408 128.003 100.351 127.846L100.468 127.803C100.411 127.647 100.354 127.49 100.297 127.331L100.18 127.373C100.123 127.214 100.066 127.054 100.01 126.893L100.128 126.852C100.075 126.699 100.021 126.545 99.9684 126.389L99.8501 126.43C99.7971 126.274 99.7443 126.118 99.6918 125.961L99.8103 125.921C99.7579 125.764 99.7057 125.606 99.6537 125.446L99.5348 125.485C99.4827 125.325 99.4309 125.165 99.3793 125.003L99.4984 124.965C99.4482 124.808 99.3982 124.65 99.3485 124.49L99.2292 124.528C99.1805 124.372 99.1319 124.215 99.0836 124.057L99.2031 124.02C99.1549 123.862 99.1068 123.704 99.059 123.544L98.9393 123.58C98.8914 123.42 98.8437 123.259 98.7963 123.098L98.9162 123.062C98.8688 122.901 98.8217 122.739 98.7747 122.575L98.6546 122.61C98.6095 122.453 98.5646 122.295 98.52 122.137L98.6403 122.103C98.5958 121.945 98.5515 121.786 98.5074 121.627L98.387 121.66C98.3428 121.5 98.2989 121.34 98.2552 121.178L98.3758 121.146C98.3322 120.984 98.2887 120.822 98.2455 120.66L98.1247 120.692C98.0815 120.529 98.0386 120.366 97.9959 120.202L98.1169 120.171C98.0758 120.013 98.0349 119.854 97.9942 119.695L97.8731 119.726C97.8324 119.567 97.7918 119.407 97.7515 119.246L97.8727 119.215C97.8324 119.055 97.7923 118.893 97.7524 118.731L97.631 118.761C97.5911 118.598 97.5513 118.435 97.5118 118.272L97.6333 118.242C97.5939 118.079 97.5546 117.915 97.5156 117.75L97.3939 117.779C97.3563 117.62 97.3188 117.46 97.2815 117.3L97.4033 117.272C97.366 117.112 97.329 116.951 97.2921 116.789L97.1702 116.817C97.1333 116.656 97.0966 116.493 97.0601 116.331L97.1821 116.303C97.1456 116.14 97.1093 115.977 97.0732 115.813L96.9511 115.84C96.9149 115.676 96.879 115.511 96.8432 115.346L96.9654 115.319C96.9307 115.158 96.8961 114.997 96.8618 114.835L96.7395 114.861C96.7054 114.701 96.6714 114.539 96.6377 114.377L96.76 114.352C96.7263 114.19 96.6928 114.027 96.6594 113.864L96.5369 113.89C96.5035 113.726 96.4703 113.563 96.4373 113.398L96.5598 113.374C96.5268 113.21 96.494 113.045 96.4614 112.88L96.3387 112.904C96.3065 112.74 96.2744 112.576 96.2425 112.412L96.3652 112.388C96.334 112.227 96.3029 112.065 96.2721 111.903L96.1493 111.927C96.1184 111.765 96.0877 111.602 96.0572 111.439L96.1801 111.416C96.1496 111.253 96.1193 111.089 96.0891 110.925L95.9662 110.948C95.936 110.784 95.906 110.619 95.8762 110.454L95.9992 110.432C95.9694 110.266 95.9398 110.101 95.9104 109.935L95.7873 109.957C95.7585 109.794 95.7299 109.631 95.7015 109.467L95.8246 109.446C95.7964 109.284 95.7684 109.122 95.7406 108.959L95.6174 108.98C95.5895 108.817 95.5618 108.653 95.5343 108.489L95.6576 108.468C95.6301 108.305 95.6028 108.14 95.5756 107.975L95.4523 107.996C95.4251 107.831 95.3981 107.665 95.3713 107.5L95.4947 107.48C95.4679 107.314 95.4413 107.148 95.4148 106.981L95.2914 107.001C95.2656 106.838 95.24 106.676 95.2146 106.512L95.3381 106.493C95.3127 106.33 95.2875 106.167 95.2625 106.004L95.1389 106.023C95.1139 105.859 95.089 105.695 95.0643 105.53L95.1879 105.512C95.1632 105.347 95.1387 105.182 95.1143 105.017L94.9906 105.035C94.9663 104.87 94.9421 104.704 94.918 104.538L95.0417 104.52C95.0177 104.354 94.9939 104.188 94.9702 104.021L94.8464 104.038C94.8233 103.875 94.8004 103.712 94.7776 103.549L94.9015 103.531C94.8787 103.368 94.8562 103.204 94.8338 103.04L94.7099 103.057C94.6875 102.893 94.6653 102.729 94.6432 102.564L94.7671 102.547C94.745 102.382 94.7231 102.217 94.7014 102.052L94.5774 102.068C94.5557 101.902 94.5341 101.736 94.5127 101.57L94.6367 101.554C94.6152 101.388 94.594 101.221 94.5729 101.054L94.4489 101.07C94.4282 100.906 94.4077 100.742 94.3874 100.578L94.5115 100.562C94.4912 100.399 94.4712 100.235 94.4512 100.07L94.3271 100.085C94.3072 99.9211 94.2875 99.7563 94.2679 99.5913L94.392 99.5765C94.3724 99.4116 94.353 99.2463 94.3337 99.0807L94.2095 99.0951C94.1903 98.9294 94.1711 98.7633 94.1522 98.5969L94.2764 98.5827C94.2574 98.4164 94.2387 98.2498 94.22 98.0828L94.0958 98.0966C94.0774 97.9315 94.0592 97.7661 94.0411 97.6004L94.1653 97.5868C94.1475 97.4231 94.1297 97.259 94.1122 97.0945L93.9879 97.1078C93.9703 96.9433 93.9529 96.7785 93.9357 96.6134L94.06 96.6004C94.0427 96.4353 94.0256 96.27 94.0087 96.1044L93.8844 96.1171C93.8674 95.9513 93.8507 95.7853 93.834 95.6189L93.9584 95.6065C93.9418 95.4402 93.9254 95.2737 93.9091 95.1068L93.7847 95.119C93.7684 94.9523 93.7523 94.7853 93.7363 94.618L93.8608 94.6062C93.8451 94.4423 93.8297 94.2781 93.8144 94.1136L93.6899 94.1252C93.6746 93.9607 93.6594 93.7959 93.6444 93.6307L93.7689 93.6194C93.7539 93.4544 93.739 93.2891 93.7243 93.1235L93.5998 93.1346C93.5851 92.9689 93.5706 92.803 93.5562 92.6367L93.6807 92.626C93.6663 92.4598 93.6521 92.2934 93.638 92.1267L93.5135 92.1372C93.4994 91.9705 93.4855 91.8034 93.4717 91.6361L93.5963 91.6259C93.5827 91.4603 93.5692 91.2945 93.5559 91.1283L93.4313 91.1383C93.4182 90.9738 93.4051 90.809 93.3923 90.644L93.5169 90.6343C93.504 90.4693 93.4913 90.3041 93.4788 90.1386L93.3541 90.1481C93.3416 89.9825 93.3291 89.8167 93.3169 89.6507L93.4416 89.6415C93.4293 89.4755 93.4172 89.3093 93.4053 89.1429L93.2806 89.1518C93.2687 88.9853 93.2569 88.8185 93.2452 88.6514L93.3699 88.6428C93.3583 88.4758 93.3468 88.3086 93.3355 88.1412L93.2108 88.1496C93.1997 87.9845 93.1886 87.8191 93.1778 87.6535L93.3025 87.6454C93.2917 87.4805 93.2811 87.3154 93.2706 87.1501L93.1458 87.1581C93.1353 86.9927 93.125 86.8271 93.1148 86.6612L93.2395 86.6535C93.2293 86.4878 93.2193 86.3218 93.2094 86.1556L93.0846 86.163C93.0747 85.9967 93.065 85.8302 93.0554 85.6634L93.1802 85.6563C93.1706 85.4896 93.1612 85.3227 93.1519 85.1556L93.0271 85.1626C93.0179 84.9954 93.0087 84.828 92.9998 84.6604L93.1246 84.6537C93.1158 84.4888 93.1071 84.3237 93.0986 84.1585L92.9738 84.1649C92.9652 83.9997 92.9569 83.8342 92.9487 83.6686L93.0735 83.6624C93.0653 83.4969 93.0572 83.3311 93.0493 83.1652L92.9245 83.1711C92.9166 83.0051 92.9088 82.8389 92.9012 82.6724L93.0261 82.6667C93.0185 82.5003 93.011 82.3338 93.0037 82.167L92.8789 82.1725C92.8716 82.0056 92.8644 81.8386 92.8574 81.6714L92.9823 81.6662C92.9753 81.499 92.9685 81.3316 92.9618 81.1641L92.8369 81.1691C92.8303 81.004 92.8239 80.8388 92.8176 80.6734L92.9425 80.6686C92.9362 80.5033 92.9301 80.3378 92.9241 80.1721L92.7992 80.1766C92.7932 80.0108 92.7874 79.8448 92.7817 79.6787L92.9066 79.6744C92.901 79.5084 92.8954 79.3421 92.8901 79.1757L92.7651 79.1797C92.7598 79.0132 92.7545 78.8465 92.7495 78.6797L92.8744 78.6759C92.8693 78.5091 92.8644 78.3421 92.8596 78.175L92.7347 78.1785C92.7299 78.0113 92.7253 77.8439 92.7208 77.6764L92.8458 77.673C92.8414 77.5077 92.8372 77.3423 92.833 77.1767L92.7081 77.1798C92.704 77.0142 92.7 76.8485 92.6962 76.6827L92.8212 76.6798C92.8174 76.514 92.8138 76.3481 92.8103 76.182L92.6853 76.1846C92.6818 76.0184 92.6784 75.8521 92.6752 75.6856L92.8002 75.6832C92.797 75.5167 92.794 75.3502 92.7911 75.1834L92.6661 75.1856C92.6632 75.0187 92.6604 74.8518 92.6578 74.6846L92.7828 74.6827C92.7802 74.5156 92.7778 74.3484 92.7755 74.181L92.6505 74.1827C92.6483 74.0169 92.6461 73.8509 92.6442 73.6848L92.7692 73.6833C92.7672 73.5178 92.7654 73.3522 92.7637 73.1864L92.6387 73.1876C92.6371 73.0217 92.6356 72.8557 92.6342 72.6895L92.7592 72.6885C92.7578 72.5224 92.7566 72.3562 92.7556 72.1898L92.6306 72.1906C92.6295 72.0241 92.6286 71.8575 92.6278 71.6907L92.7528 71.6902C92.7521 71.5235 92.7515 71.3567 92.751 71.1897L92.626 71.1901C92.6256 71.023 92.6253 70.8559 92.6251 70.6886L92.7501 70.6884L92.75 70.4375L92.7501 70.1865L92.6251 70.1864C92.6253 70.0191 92.6256 69.8519 92.626 69.6849L92.751 69.6852C92.7515 69.5182 92.7521 69.3514 92.7528 69.1848L92.6278 69.1842C92.6286 69.0174 92.6295 68.8508 92.6306 68.6844L92.7556 68.6852C92.7566 68.5188 92.7578 68.3525 92.7592 68.1864L92.6342 68.1854C92.6356 68.0192 92.6371 67.8532 92.6387 67.6873L92.7637 67.6886C92.7654 67.5228 92.7672 67.3571 92.7692 67.1916L92.6442 67.1901C92.6461 67.024 92.6483 66.858 92.6505 66.6922L92.7755 66.6939C92.7778 66.5266 92.7802 66.3593 92.7828 66.1923L92.6578 66.1903C92.6604 66.0232 92.6632 65.8562 92.6661 65.6894L92.7911 65.6915C92.794 65.5248 92.797 65.3582 92.8002 65.1918L92.6752 65.1894C92.6784 65.0229 92.6818 64.8565 92.6853 64.6903L92.8103 64.693C92.8138 64.5268 92.8174 64.3609 92.8212 64.1951L92.6962 64.1923C92.7 64.0264 92.704 63.8607 92.7081 63.6952L92.833 63.6983C92.8372 63.5327 92.8414 63.3672 92.8458 63.2019L92.7208 63.1986C92.7253 63.031 92.7299 62.8636 92.7347 62.6964L92.8596 62.7C92.8644 62.5328 92.8693 62.3659 92.8744 62.1991L92.7495 62.1953C92.7545 62.0284 92.7598 61.8617 92.7651 61.6952L92.8901 61.6993C92.8954 61.5328 92.901 61.3666 92.9066 61.2005L92.7817 61.1963C92.7874 61.0301 92.7932 60.8642 92.7992 60.6984L92.9241 60.7029C92.9301 60.5372 92.9362 60.3717 92.9425 60.2063L92.8176 60.2016C92.8239 60.0362 92.8303 59.8709 92.8369 59.7059L92.9618 59.7108C92.9685 59.5433 92.9753 59.376 92.9823 59.2088L92.8574 59.2036C92.8644 59.0363 92.8716 58.8693 92.8789 58.7025L93.0037 58.7079C93.011 58.5412 93.0185 58.3746 93.0261 58.2083L92.9012 58.2025C92.9088 58.0361 92.9166 57.8699 92.9245 57.7038L93.0493 57.7098C93.0572 57.5438 93.0653 57.3781 93.0735 57.2125L92.9487 57.2063C92.9569 57.0407 92.9652 56.8753 92.9738 56.7101L93.0986 56.7165C93.1071 56.5512 93.1158 56.3861 93.1246 56.2213L92.9998 56.2146C93.0087 56.047 93.0179 55.8796 93.0271 55.7124L93.1519 55.7193C93.1612 55.5522 93.1706 55.3853 93.1802 55.2187L93.0554 55.2115C93.065 55.0448 93.0747 54.8783 93.0846 54.712L93.2094 54.7194C93.2193 54.5532 93.2293 54.3872 93.2395 54.2214L93.1148 54.2138C93.125 54.0479 93.1353 53.8823 93.1458 53.7169L93.2706 53.7248C93.2811 53.5595 93.2917 53.3944 93.3025 53.2296L93.1778 53.2214C93.1887 53.0558 93.1997 52.8905 93.2108 52.7253L93.3355 52.7338C93.3468 52.5663 93.3583 52.3991 93.3699 52.2322L93.2452 52.2235C93.2569 52.0565 93.2687 51.8897 93.2806 51.7231L93.4053 51.7321C93.4172 51.5656 93.4293 51.3994 93.4416 51.2335L93.3169 51.2243C93.3291 51.0582 93.3416 50.8924 93.3541 50.7269L93.4788 50.7363C93.4913 50.5709 93.504 50.4057 93.5169 50.2407L93.3923 50.231C93.4051 50.0659 93.4182 49.9012 93.4313 49.7366L93.5559 49.7466C93.5692 49.5805 93.5827 49.4147 93.5963 49.2491L93.4717 49.2388C93.4855 49.0715 93.4994 48.9045 93.5135 48.7377L93.638 48.7482C93.6521 48.5815 93.6663 48.4151 93.6807 48.249L93.5562 48.2382C93.5706 48.072 93.5851 47.9061 93.5998 47.7404L93.7243 47.7514C93.739 47.5859 93.7539 47.4206 93.7689 47.2555L93.6444 47.2442C93.6594 47.0791 93.6746 46.9143 93.6899 46.7497L93.8144 46.7613C93.8297 46.5969 93.8452 46.4327 93.8608 46.2688L93.7363 46.2569C93.7523 46.0896 93.7684 45.9227 93.7847 45.756L93.9091 45.7681C93.9254 45.6013 93.9418 45.4347 93.9584 45.2685L93.834 45.256C93.8507 45.0897 93.8674 44.9236 93.8844 44.7579L94.0087 44.7706C94.0256 44.6049 94.0427 44.4396 94.06 44.2746L93.9357 44.2616C93.9529 44.0965 93.9703 43.9316 93.9879 43.7671L94.1122 43.7804C94.1297 43.616 94.1475 43.4519 94.1653 43.2881L94.0411 43.2746C94.0592 43.1088 94.0774 42.9434 94.0958 42.7783L94.22 42.7922C94.2387 42.6252 94.2574 42.4585 94.2764 42.2922L94.1522 42.2781C94.1711 42.1117 94.1903 41.9456 94.2095 41.7799L94.3337 41.7943C94.353 41.6287 94.3724 41.4634 94.392 41.2984L94.2679 41.2837C94.2875 41.1186 94.3072 40.9539 94.3271 40.7895L94.4512 40.8046C94.4712 40.6403 94.4912 40.4764 94.5115 40.3128L94.3874 40.2974C94.4077 40.133 94.4283 39.9688 94.4489 39.8051L94.5729 39.8207C94.594 39.6537 94.6152 39.4871 94.6367 39.3208L94.5127 39.3049C94.5341 39.1385 94.5557 38.9725 94.5774 38.8069L94.7014 38.8231C94.7231 38.6576 94.745 38.4925 94.7671 38.3277L94.6432 38.3111C94.6653 38.1462 94.6875 37.9817 94.7099 37.8176L94.8338 37.8345C94.8562 37.6705 94.8787 37.5069 94.9015 37.3436L94.7776 37.3264C94.8004 37.1628 94.8234 36.9996 94.8464 36.8368L94.9702 36.8544C94.9939 36.6874 95.0177 36.521 95.0417 36.3549L94.918 36.337C94.9421 36.1708 94.9663 36.005 94.9906 35.8396L95.1143 35.8578C95.1387 35.6926 95.1632 35.5277 95.1879 35.3633L95.0643 35.3447C95.089 35.1802 95.1139 35.0161 95.1389 34.8524L95.2625 34.8713C95.2875 34.7077 95.3127 34.5446 95.3381 34.3818L95.2146 34.3626C95.24 34.1994 95.2656 34.0366 95.2914 33.8742L95.4148 33.8938C95.4413 33.7272 95.4679 33.561 95.4947 33.3953L95.3713 33.3753C95.3981 33.2095 95.4251 33.0441 95.4523 32.8792L95.5756 32.8995C95.6028 32.7347 95.6301 32.5704 95.6576 32.4065L95.5343 32.3858C95.5618 32.2218 95.5895 32.0583 95.6174 31.8952L95.7406 31.9163C95.7684 31.7534 95.7964 31.5909 95.8246 31.4289L95.7015 31.4075C95.7299 31.244 95.7585 31.081 95.7873 30.9184L95.9104 30.9402C95.9398 30.7741 95.9694 30.6085 95.9992 30.4434L95.8762 30.4212C95.906 30.256 95.936 30.0912 95.9662 29.927L96.0891 29.9496C96.1193 29.7856 96.1496 29.622 96.1801 29.459L96.0572 29.436C96.0877 29.2728 96.1184 29.1102 96.1493 28.9481L96.2721 28.9715C96.3029 28.8095 96.334 28.648 96.3652 28.4871L96.2425 28.4633C96.2744 28.2987 96.3065 28.1346 96.3388 27.9711L96.4614 27.9953C96.494 27.83 96.5268 27.6653 96.5598 27.5012L96.4373 27.4765C96.4703 27.3123 96.5035 27.1486 96.5369 26.9854L96.6594 27.0105C96.6928 26.8475 96.7263 26.6851 96.76 26.5233L96.6377 26.4978C96.6714 26.3358 96.7054 26.1745 96.7395 26.0137L96.8618 26.0396C96.8961 25.8777 96.9307 25.7165 96.9654 25.5558L96.8432 25.5294C96.879 25.364 96.9149 25.1991 96.9511 25.035L97.0732 25.0619C97.1093 24.8978 97.1456 24.7345 97.1821 24.5717L97.0601 24.5444C97.0966 24.3815 97.1333 24.2193 97.1702 24.0577L97.2921 24.0855C97.329 23.9241 97.366 23.7634 97.4033 23.6032L97.2815 23.5749C97.3188 23.4146 97.3563 23.255 97.3939 23.0961L97.5156 23.1249C97.5546 22.9601 97.5939 22.796 97.6333 22.6327L97.5118 22.6033C97.5514 22.4395 97.5911 22.2765 97.631 22.1141L97.7524 22.144C97.7923 21.9818 97.8324 21.8204 97.8727 21.6597L97.7515 21.6293C97.7918 21.4684 97.8324 21.3083 97.8731 21.1489L97.9942 21.1798C98.0349 21.0206 98.0758 20.8621 98.1169 20.7044L97.9959 20.6729C98.0386 20.5088 98.0816 20.3456 98.1247 20.1832L98.2455 20.2153C98.2887 20.0525 98.3322 19.8905 98.3759 19.7293L98.2552 19.6966C98.2989 19.5352 98.3428 19.3747 98.387 19.215L98.5075 19.2482C98.5515 19.0887 98.5958 18.93 98.6403 18.7722L98.52 18.7383C98.5646 18.5797 98.6095 18.422 98.6546 18.2651L98.7747 18.2997C98.8217 18.1363 98.8689 17.9739 98.9162 17.8125L98.7963 17.7773C98.8437 17.6156 98.8914 17.4548 98.9393 17.295L99.059 17.3309C99.1069 17.1713 99.1549 17.0126 99.2031 16.8549L99.0836 16.8183C99.1319 16.6604 99.1805 16.5033 99.2292 16.3473L99.3485 16.3846C99.3983 16.2254 99.4482 16.0672 99.4984 15.91L99.3793 15.872C99.4309 15.7103 99.4828 15.5496 99.5348 15.39L99.6537 15.4288C99.7057 15.2694 99.7579 15.1112 99.8103 14.954L99.6918 14.9144C99.7443 14.7569 99.7971 14.6005 99.8501 14.4452L99.9684 14.4856C100.021 14.3303 100.075 14.1762 100.128 14.0231L100.01 13.9819C100.066 13.8206 100.123 13.6605 100.18 13.5017L100.297 13.5437C100.354 13.3852 100.411 13.2278 100.468 13.0717L100.351 13.0287C100.408 12.8723 100.466 12.7171 100.523 12.5631L100.64 12.607C100.698 12.4534 100.756 12.301 100.814 12.1498L100.697 12.1049C100.758 11.9462 100.82 11.7888 100.881 11.6328L100.998 11.6787C101.06 11.5217 101.122 11.366 101.184 11.2118L101.068 11.1648C101.131 11.0103 101.194 10.8571 101.257 10.7054L101.373 10.7534C101.436 10.6021 101.499 10.4521 101.562 10.3036L101.447 10.2545C101.515 10.0976 101.582 9.94226 101.65 9.78857L101.764 9.83896C101.832 9.68452 101.9 9.53174 101.969 9.38063L101.855 9.32896C101.924 9.17741 101.993 9.02754 102.062 8.87932L102.176 8.93227C102.245 8.7831 102.315 8.63562 102.386 8.48987L102.273 8.43556C102.348 8.28104 102.423 8.12843 102.498 7.97777L102.61 8.03357C102.684 7.88341 102.76 7.7352 102.835 7.58893L102.724 7.5316C102.8 7.38483 102.876 7.23999 102.952 7.09714L103.063 7.15607C103.142 7.00716 103.222 6.8604 103.302 6.71584L103.193 6.65517C103.276 6.50648 103.358 6.36009 103.442 6.21599L103.55 6.27847C103.633 6.13501 103.716 5.99385 103.799 5.85503L103.692 5.79062C103.778 5.64703 103.865 5.50594 103.952 5.36731L104.058 5.43375C104.149 5.28947 104.239 5.14792 104.331 5.00914L104.226 4.94047C104.318 4.80093 104.41 4.66414 104.503 4.53014L104.605 4.60113C104.7 4.46407 104.795 4.32994 104.89 4.19882L104.789 4.12535C104.89 3.98663 104.991 3.8512 105.093 3.71907L105.192 3.79526C105.293 3.66406 105.394 3.53619 105.495 3.4117L105.399 3.33267C105.506 3.20131 105.613 3.07362 105.721 2.94963L105.816 3.03174C105.927 2.90436 106.038 2.78097 106.15 2.66164L106.059 2.57619C106.171 2.45572 106.285 2.33928 106.398 2.2269L106.486 2.31581C106.608 2.19531 106.73 2.07962 106.853 1.96876L106.769 1.87601C106.894 1.76361 107.019 1.65605 107.144 1.55341L107.223 1.65013C107.353 1.54384 107.483 1.44296 107.614 1.34755L107.54 1.24661C107.677 1.1467 107.814 1.0526 107.952 0.964385L108.02 1.06969C108.159 0.980422 108.299 0.897353 108.439 0.820571L108.379 0.710922C108.528 0.629409 108.678 0.554733 108.828 0.486999L108.879 0.600936C109.029 0.53334 109.179 0.472854 109.33 0.41954L109.288 0.301727C109.447 0.245391 109.607 0.196822 109.767 0.156127L109.798 0.277267C109.955 0.237167 110.114 0.204925 110.273 0.180618L110.254 0.0570518Z" stroke="url(#paint14_linear_4607_2861)" stroke-width="0.25" stroke-dasharray="0.5 0.5"/>
<circle cx="116.688" cy="3.9375" r="1.3125" fill="#D9D9D9"/>
<circle cx="122.812" cy="123.812" r="1.3125" fill="#D9D9D9"/>
<circle cx="46.6875" cy="76.5625" r="1.3125" fill="#53FEA9"/>
<circle cx="46.6875" cy="71.3125" r="1.3125" fill="#53FEA9"/>
<defs>
<filter id="filter0_d_4607_2861" x="95.8701" y="52.4219" width="46.9299" height="46.9316" filterUnits="userSpaceOnUse" color-interpolation-filters="sRGB">
<feFlood flood-opacity="0" result="BackgroundImageFix"/>
<feColorMatrix in="SourceAlpha" type="matrix" values="0 0 0 0 0 0 0 0 0 0 0 0 0 0 0 0 0 0 127 0" result="hardAlpha"/>
<feOffset/>
<feGaussianBlur stdDeviation="9"/>
<feComposite in2="hardAlpha" operator="out"/>
<feColorMatrix type="matrix" values="0 0 0 0 1 0 0 0 0 1 0 0 0 0 1 0 0 0 0.25 0"/>
<feBlend mode="normal" in2="BackgroundImageFix" result="effect1_dropShadow_4607_2861"/>
<feBlend mode="normal" in="SourceGraphic" in2="effect1_dropShadow_4607_2861" result="shape"/>
</filter>
<filter id="filter1_d_4607_2861" x="87.0559" y="43.4375" width="47.8879" height="47.8867" filterUnits="userSpaceOnUse" color-interpolation-filters="sRGB">
<feFlood flood-opacity="0" result="BackgroundImageFix"/>
<feColorMatrix in="SourceAlpha" type="matrix" values="0 0 0 0 0 0 0 0 0 0 0 0 0 0 0 0 0 0 127 0" result="hardAlpha"/>
<feOffset/>
<feGaussianBlur stdDeviation="9"/>
<feComposite in2="hardAlpha" operator="out"/>
<feColorMatrix type="matrix" values="0 0 0 0 1 0 0 0 0 1 0 0 0 0 1 0 0 0 0.25 0"/>
<feBlend mode="normal" in2="BackgroundImageFix" result="effect1_dropShadow_4607_2861"/>
<feBlend mode="normal" in="SourceGraphic" in2="effect1_dropShadow_4607_2861" result="shape"/>
</filter>
<filter id="filter2_d_4607_2861" x="0.168213" y="31.2246" width="219.5" height="77.75" filterUnits="userSpaceOnUse" color-interpolation-filters="sRGB">
<feFlood flood-opacity="0" result="BackgroundImageFix"/>
<feColorMatrix in="SourceAlpha" type="matrix" values="0 0 0 0 0 0 0 0 0 0 0 0 0 0 0 0 0 0 127 0" result="hardAlpha"/>
<feOffset/>
<feGaussianBlur stdDeviation="6.5"/>
<feComposite in2="hardAlpha" operator="out"/>
<feColorMatrix type="matrix" values="0 0 0 0 0 0 0 0 0 1 0 0 0 0 0.7 0 0 0 0.25 0"/>
<feBlend mode="normal" in2="BackgroundImageFix" result="effect1_dropShadow_4607_2861"/>
<feBlend mode="normal" in="SourceGraphic" in2="effect1_dropShadow_4607_2861" result="shape"/>
</filter>
<linearGradient id="paint0_linear_4607_2861" x1="128.743" y1="85.5555" x2="99.6628" y2="114.635" gradientUnits="userSpaceOnUse">
<stop stop-color="white"/>
<stop offset="1" stop-color="white" stop-opacity="0"/>
</linearGradient>
<linearGradient id="paint1_linear_4607_2861" x1="126.577" y1="83.39" x2="101.828" y2="108.139" gradientUnits="userSpaceOnUse">
<stop stop-color="white"/>
<stop offset="1" stop-color="white" stop-opacity="0"/>
</linearGradient>
<linearGradient id="paint2_linear_4607_2861" x1="124.411" y1="81.2245" x2="103.994" y2="101.642" gradientUnits="userSpaceOnUse">
<stop stop-color="white"/>
<stop offset="1" stop-color="white" stop-opacity="0"/>
</linearGradient>
<linearGradient id="paint3_linear_4607_2861" x1="130.598" y1="48.4328" x2="159.678" y2="77.5125" gradientUnits="userSpaceOnUse">
<stop stop-color="white"/>
<stop offset="1" stop-color="white" stop-opacity="0"/>
</linearGradient>
<linearGradient id="paint4_linear_4607_2861" x1="128.433" y1="50.5983" x2="153.182" y2="75.347" gradientUnits="userSpaceOnUse">
<stop stop-color="white"/>
<stop offset="1" stop-color="white" stop-opacity="0"/>
</linearGradient>
<linearGradient id="paint5_linear_4607_2861" x1="126.267" y1="52.7638" x2="146.685" y2="73.1815" gradientUnits="userSpaceOnUse">
<stop stop-color="white"/>
<stop offset="1" stop-color="white" stop-opacity="0"/>
</linearGradient>
<linearGradient id="paint6_linear_4607_2861" x1="93.4762" y1="46.5773" x2="122.556" y2="17.4975" gradientUnits="userSpaceOnUse">
<stop stop-color="white"/>
<stop offset="1" stop-color="white" stop-opacity="0"/>
</linearGradient>
<linearGradient id="paint7_linear_4607_2861" x1="95.6417" y1="48.7428" x2="120.39" y2="23.9941" gradientUnits="userSpaceOnUse">
<stop stop-color="white"/>
<stop offset="1" stop-color="white" stop-opacity="0"/>
</linearGradient>
<linearGradient id="paint8_linear_4607_2861" x1="97.8073" y1="50.9083" x2="118.225" y2="30.4906" gradientUnits="userSpaceOnUse">
<stop stop-color="white"/>
<stop offset="1" stop-color="white" stop-opacity="0"/>
</linearGradient>
<linearGradient id="paint9_linear_4607_2861" x1="91.6203" y1="83.6981" x2="62.5405" y2="54.6183" gradientUnits="userSpaceOnUse">
<stop stop-color="white"/>
<stop offset="1" stop-color="white" stop-opacity="0"/>
</linearGradient>
<linearGradient id="paint10_linear_4607_2861" x1="93.7858" y1="81.5326" x2="69.0371" y2="56.7838" gradientUnits="userSpaceOnUse">
<stop stop-color="white"/>
<stop offset="1" stop-color="white" stop-opacity="0"/>
</linearGradient>
<linearGradient id="paint11_linear_4607_2861" x1="95.9513" y1="79.3671" x2="75.5336" y2="58.9493" gradientUnits="userSpaceOnUse">
<stop stop-color="white"/>
<stop offset="1" stop-color="white" stop-opacity="0"/>
</linearGradient>
<linearGradient id="paint12_linear_4607_2861" x1="114.658" y1="53.5907" x2="107.277" y2="81.1371" gradientUnits="userSpaceOnUse">
<stop stop-color="white"/>
<stop offset="1" stop-color="white" stop-opacity="0"/>
</linearGradient>
<linearGradient id="paint13_linear_4607_2861" x1="109.918" y1="44.7246" x2="109.918" y2="95.4746" gradientUnits="userSpaceOnUse">
<stop offset="0.170133" stop-color="#53FDA9" stop-opacity="0"/>
<stop offset="0.878479" stop-color="#53FDA9"/>
</linearGradient>
<linearGradient id="paint14_linear_4607_2861" x1="129.208" y1="69.7951" x2="92.4541" y2="71.9664" gradientUnits="userSpaceOnUse">
<stop stop-color="white"/>
<stop offset="1" stop-color="white" stop-opacity="0"/>
</linearGradient>
</defs>
</svg>
