<svg width="210" height="140" viewBox="0 0 210 140" fill="none" xmlns="http://www.w3.org/2000/svg">
<path d="M104.163 37.6808C105.553 37.6808 106.912 37.2686 108.068 36.4964C109.224 35.7241 110.124 34.6265 110.656 33.3423C111.188 32.0582 111.327 30.6451 111.056 29.2818C110.785 27.9185 110.116 26.6663 109.133 25.6834C108.15 24.7006 106.898 24.0312 105.534 23.76C104.171 23.4889 102.758 23.628 101.474 24.16C100.19 24.6919 99.0921 25.5927 98.3199 26.7484C97.5476 27.9041 97.1355 29.2629 97.1355 30.6529C97.1355 32.5168 97.8759 34.3044 99.1939 35.6224C100.512 36.9403 102.299 37.6808 104.163 37.6808ZM128.259 47.7206C129.649 47.7206 131.008 47.3084 132.163 46.5362C133.319 45.764 134.22 44.6664 134.752 43.3822C135.284 42.098 135.423 40.6849 135.152 39.3217C134.881 37.9584 134.211 36.7061 133.228 35.7233C132.246 34.7404 130.993 34.0711 129.63 33.7999C128.267 33.5287 126.854 33.6679 125.57 34.1998C124.285 34.7317 123.188 35.6325 122.415 36.7882C121.643 37.944 121.231 39.3027 121.231 40.6927C121.231 42.5566 121.972 44.3442 123.289 45.6622C124.607 46.9802 126.395 47.7206 128.259 47.7206ZM138.299 71.8162C139.222 71.8162 140.136 71.6345 140.988 71.2813C141.841 70.9281 142.616 70.4104 143.268 69.7578C143.921 69.1052 144.439 68.3305 144.792 67.4778C145.145 66.6251 145.327 65.7113 145.327 64.7883C145.327 63.8654 145.145 62.9516 144.792 62.0989C144.439 61.2462 143.921 60.4715 143.268 59.8189C142.616 59.1663 141.841 58.6486 140.988 58.2954C140.136 57.9422 139.222 57.7605 138.299 57.7605C137.376 57.7605 136.462 57.9422 135.609 58.2954C134.757 58.6486 133.982 59.1663 133.329 59.8189C132.677 60.4715 132.159 61.2462 131.806 62.0989C131.453 62.9516 131.271 63.8654 131.271 64.7883C131.271 65.7113 131.453 66.6251 131.806 67.4778C132.159 68.3305 132.677 69.1052 133.329 69.7578C133.982 70.4104 134.757 70.9281 135.609 71.2813C136.462 71.6345 137.376 71.8162 138.299 71.8162ZM128.259 95.9119C129.175 96.0628 130.112 96.0308 131.015 95.8177C131.919 95.6045 132.771 95.2145 133.523 94.6701C134.275 94.1257 134.912 93.4378 135.396 92.6459C135.881 91.8541 136.204 90.9741 136.346 90.0568C136.489 89.1395 136.448 88.2031 136.227 87.3015C136.005 86.4 135.608 85.5512 135.056 84.8043C134.505 84.0574 133.811 83.427 133.015 82.9497C132.219 82.4724 131.336 82.1576 130.418 82.0234C129.703 81.9066 128.974 81.9066 128.259 82.0234C126.602 82.2813 125.093 83.123 124.002 84.3964C122.912 85.6698 122.312 87.2911 122.312 88.9676C122.312 90.6442 122.912 92.2655 124.002 93.5389C125.093 94.8123 126.602 95.6539 128.259 95.9119ZM104.163 105.952C105.553 105.952 106.912 105.54 108.068 104.767C109.224 103.995 110.124 102.897 110.656 101.613C111.188 100.329 111.327 98.916 111.056 97.5527C110.785 96.1895 110.116 94.9372 109.133 93.9543C108.15 92.9715 106.898 92.3021 105.534 92.031C104.171 91.7598 102.758 91.899 101.474 92.4309C100.19 92.9628 99.0921 93.8636 98.3199 95.0193C97.5476 96.175 97.1355 97.5338 97.1355 98.9238C97.1355 100.788 97.8759 102.575 99.1939 103.893C100.512 105.211 102.299 105.952 104.163 105.952ZM80.0677 95.9119C80.9837 96.0628 81.9205 96.0308 82.824 95.8177C83.7275 95.6045 84.5799 95.2145 85.3318 94.6701C86.0838 94.1257 86.7204 93.4378 87.205 92.6459C87.6896 91.8541 88.0125 90.9741 88.155 90.0568C88.2976 89.1395 88.257 88.2031 88.0356 87.3015C87.8143 86.4 87.4165 85.5512 86.8652 84.8043C86.314 84.0574 85.6202 83.427 84.824 82.9497C84.0278 82.4724 83.1449 82.1576 82.2263 82.0234C81.5115 81.9066 80.7825 81.9066 80.0677 82.0234C78.4112 82.2813 76.9014 83.123 75.8109 84.3964C74.7204 85.6698 74.121 87.2911 74.121 88.9676C74.121 90.6442 74.7204 92.2655 75.8109 93.5389C76.9014 94.8123 78.4112 95.6539 80.0677 95.9119ZM70.0279 71.8162C71.4179 71.8162 72.7766 71.4041 73.9324 70.6318C75.0881 69.8596 75.9889 68.762 76.5208 67.4778C77.0527 66.1936 77.1919 64.7806 76.9207 63.4173C76.6496 62.054 75.9802 60.8018 74.9974 59.8189C74.0145 58.836 72.7622 58.1667 71.399 57.8955C70.0357 57.6243 68.6226 57.7635 67.3384 58.2954C66.0543 58.8274 64.9566 59.7281 64.1844 60.8839C63.4122 62.0396 63 63.3984 63 64.7883C63 66.6523 63.7404 68.4398 65.0584 69.7578C66.3764 71.0758 68.164 71.8162 70.0279 71.8162ZM80.0677 47.7206C81.4577 47.7206 82.8165 47.3084 83.9722 46.5362C85.1279 45.764 86.0287 44.6664 86.5607 43.3822C87.0926 42.098 87.2318 40.6849 86.9606 39.3217C86.6894 37.9584 86.0201 36.7061 85.0372 35.7233C84.0543 34.7404 82.8021 34.0711 81.4388 33.7999C80.0755 33.5287 78.6625 33.6679 77.3783 34.1998C76.0941 34.7317 74.9965 35.6325 74.2243 36.7882C73.452 37.944 73.0398 39.3027 73.0398 40.6927C73.0398 42.5566 73.7803 44.3442 75.0983 45.6622C76.4162 46.9802 78.2038 47.7206 80.0677 47.7206Z" stroke="white" stroke-miterlimit="10" stroke-linecap="round"/>
<path d="M106.625 68.4916C105.885 68.9861 105.015 69.25 104.125 69.25C102.932 69.25 101.787 68.7759 100.943 67.932C100.099 67.0881 99.625 65.9435 99.625 64.75C99.625 63.86 99.8889 62.99 100.383 62.2499C100.878 61.5099 101.581 60.9331 102.403 60.5925C103.225 60.252 104.13 60.1628 105.003 60.3365C105.876 60.5101 106.678 60.9387 107.307 61.568C107.936 62.1974 108.365 62.9992 108.539 63.8721C108.712 64.745 108.623 65.6498 108.282 66.4721C107.942 67.2943 107.365 67.9971 106.625 68.4916Z" stroke="#53FDA9" stroke-width="5" stroke-miterlimit="10" stroke-linecap="round"/>
<path d="M117.461 57.2632C117.461 57.2632 127.453 56.8224 133.606 67.4792M118.73 68.6901C118.73 68.6901 126.084 75.5111 122.879 87.4717M111.551 78.0267C111.551 78.0267 111.992 88.0191 101.173 94.1285M100.286 79.339C97.8318 81.6094 94.8144 83.1807 91.5474 83.8895C88.6143 84.5259 85.5762 84.4463 82.6889 83.664M91.154 72.0417C87.7759 72.0345 84.4639 71.1053 81.575 69.3543C78.6861 67.6034 76.33 65.097 74.7606 62.1056M89.4751 60.8513C89.4751 60.8513 82.1214 54.0304 85.4879 42.1131M96.7725 51.7197C96.8922 48.3501 97.9197 45.0754 99.7462 42.2412C101.573 39.4071 104.131 37.1188 107.15 35.6179" stroke="url(#paint0_radial_4607_2847)" stroke-miterlimit="10" stroke-linecap="round"/>
<path d="M108.167 49.9223C108.167 49.9223 114.783 42.6869 126.744 45.8917" stroke="url(#paint1_radial_4607_2847)" stroke-miterlimit="10" stroke-linecap="round"/>
<g filter="url(#filter0_d_4607_2847)">
<ellipse cx="103.917" cy="70.1004" rx="96.25" ry="25.375" transform="rotate(30 103.917 70.1004)" stroke="url(#paint2_linear_4607_2847)" stroke-linecap="round" stroke-linejoin="round" stroke-dasharray="2 2" shape-rendering="crispEdges"/>
</g>
<path d="M186.863 21.3487C186.962 21.4829 187.055 21.6205 187.144 21.7614L187.038 21.8279C187.081 21.897 187.123 21.9671 187.164 22.0379C187.205 22.1087 187.245 22.1801 187.283 22.2523L187.393 22.1938C187.471 22.3408 187.544 22.4905 187.611 22.6429L187.496 22.6932C187.562 22.8429 187.622 22.9951 187.678 23.15L187.795 23.108C187.851 23.2627 187.901 23.4199 187.946 23.5795L187.825 23.6134C187.869 23.7699 187.908 23.9289 187.942 24.0903L188.065 24.0645C188.099 24.2272 188.128 24.3922 188.153 24.5596L188.029 24.5776C188.052 24.7359 188.071 24.8963 188.085 25.0589L188.209 25.0481C188.224 25.213 188.234 25.3802 188.239 25.5494L188.114 25.5534C188.12 25.7164 188.121 25.8814 188.117 26.0486L188.242 26.0509C188.239 26.2128 188.232 26.3764 188.222 26.5419L188.097 26.5337C188.086 26.6973 188.072 26.8627 188.053 27.0299L188.178 27.0435C188.16 27.2082 188.138 27.3746 188.113 27.5426L187.989 27.524C187.965 27.6819 187.939 27.8414 187.908 28.0023L188.031 28.0253C188.001 28.1877 187.967 28.3515 187.93 28.5168L187.808 28.4896C187.772 28.6526 187.732 28.8171 187.69 28.983L187.811 29.0142C187.771 29.1691 187.728 29.3253 187.683 29.4827L187.563 29.4482C187.518 29.6044 187.471 29.7619 187.42 29.9206L187.539 29.9583C187.489 30.118 187.436 30.2789 187.38 30.441L187.262 30.4002C187.208 30.5547 187.152 30.7104 187.094 30.8671L187.211 30.9106C187.155 31.0621 187.097 31.2146 187.036 31.368L186.92 31.322C186.859 31.4747 186.796 31.6283 186.732 31.7828L186.847 31.8312C186.782 31.9866 186.714 32.1429 186.644 32.3001L186.53 32.2494C186.464 32.398 186.397 32.5474 186.327 32.6976L186.44 32.7503C186.372 32.8974 186.302 33.0452 186.23 33.1939L186.117 33.1394C186.045 33.2874 185.972 33.4362 185.896 33.5858L186.008 33.6422C185.932 33.7924 185.854 33.9433 185.775 34.095L185.664 34.037C185.588 34.1825 185.51 34.3287 185.43 34.4757L185.54 34.5353C185.463 34.6776 185.384 34.8205 185.304 34.9641L185.195 34.903C185.114 35.0461 185.033 35.1899 184.95 35.3343L185.058 35.3967C184.974 35.5415 184.889 35.687 184.803 35.8331L184.695 35.7693C184.609 35.9144 184.522 36.0601 184.432 36.2064L184.539 36.2715C184.455 36.409 184.37 36.547 184.284 36.6855L184.178 36.6193C184.092 36.7575 184.004 36.8962 183.915 37.0354L184.02 37.1027C183.931 37.2423 183.841 37.3824 183.749 37.523L183.644 37.4546C183.553 37.5949 183.46 37.7357 183.365 37.877L183.469 37.9463C183.377 38.0856 183.282 38.2254 183.187 38.3656L183.084 38.2953C182.993 38.4287 182.901 38.5625 182.808 38.6968L182.91 38.7681C182.817 38.9027 182.722 39.0377 182.627 39.1731L182.525 39.101C182.429 39.2362 182.333 39.3718 182.235 39.5078L182.336 39.5807C182.238 39.717 182.139 39.8538 182.039 39.9909L181.938 39.9171C181.839 40.0527 181.739 40.1887 181.637 40.3251L181.738 40.3997C181.641 40.5296 181.544 40.6599 181.445 40.7906L181.345 40.7153C181.247 40.8457 181.148 40.9765 181.047 41.1076L181.146 41.1836C181.046 41.315 180.944 41.4467 180.842 41.5788L180.743 41.5021C180.641 41.634 180.537 41.7661 180.433 41.8987L180.531 41.976C180.427 42.1088 180.321 42.2419 180.215 42.3753L180.117 42.2974C180.062 42.3668 180.006 42.4363 179.95 42.5059C179.903 42.5646 179.856 42.6233 179.808 42.6821L179.905 42.7607C179.803 42.8875 179.7 43.0147 179.595 43.1421L179.499 43.063C179.395 43.1902 179.29 43.3178 179.184 43.4456L179.28 43.5253C179.174 43.6533 179.067 43.7817 178.96 43.9103L178.864 43.83C178.756 43.9584 178.648 44.0872 178.538 44.2162L178.634 44.297C178.524 44.4261 178.414 44.5556 178.303 44.6853L178.208 44.604C178.103 44.7271 177.997 44.8504 177.89 44.9739L177.984 45.0557C177.877 45.1794 177.769 45.3034 177.661 45.4276L177.566 45.3453C177.458 45.4694 177.349 45.5937 177.239 45.7183L177.332 45.801C177.222 45.9257 177.111 46.0507 177 46.1759L176.906 46.0927C176.795 46.2177 176.683 46.343 176.57 46.4685L176.662 46.5522C176.549 46.6778 176.435 46.8037 176.321 46.9299L176.228 46.8458C176.119 46.9661 176.009 47.0866 175.898 47.2073L175.99 47.2918C175.88 47.4124 175.768 47.5333 175.656 47.6544L175.564 47.5695C175.453 47.6904 175.34 47.8115 175.227 47.9329L175.318 48.0182C175.205 48.1396 175.091 48.2613 174.976 48.3832L174.885 48.2975C174.77 48.4193 174.655 48.5412 174.539 48.6634L174.63 48.7494C174.514 48.8717 174.397 48.9942 174.28 49.1168L174.189 49.0304C174.075 49.1496 173.961 49.2689 173.845 49.3885L173.935 49.4753C173.822 49.5929 173.708 49.7108 173.593 49.8288L173.503 49.7417C173.389 49.8596 173.274 49.9777 173.158 50.0959L173.247 50.1834C173.131 50.3017 173.015 50.4203 172.898 50.539L172.809 50.4512C172.692 50.5698 172.574 50.6886 172.456 50.8075L172.545 50.8956C172.426 51.0147 172.307 51.1338 172.188 51.2532L172.1 51.1648C171.98 51.284 171.86 51.4034 171.74 51.523L171.828 51.6117C171.712 51.7266 171.596 51.8415 171.479 51.9566L171.391 51.8676C171.274 51.9826 171.157 52.0978 171.039 52.2131L171.127 52.3024C171.009 52.4178 170.89 52.5334 170.771 52.6491L170.684 52.5595C170.565 52.6751 170.446 52.7908 170.326 52.9067L170.413 52.9966C170.293 53.1126 170.172 53.2287 170.051 53.3449L169.964 53.2547C169.843 53.3709 169.722 53.4872 169.6 53.6036L169.686 53.6941C169.564 53.8102 169.442 53.9264 169.319 54.0427L169.233 53.952C169.2 53.9839 169.166 54.0158 169.132 54.0477C169.121 54.0583 169.11 54.069 169.098 54.0796C169.024 54.1494 168.95 54.2193 168.876 54.2892L168.962 54.3802C168.842 54.4928 168.722 54.6055 168.602 54.7184L168.516 54.6271C168.396 54.7399 168.275 54.8527 168.154 54.9657L168.239 55.0572C168.117 55.1703 167.995 55.2835 167.873 55.3968L167.788 55.3051C167.666 55.4183 167.543 55.5317 167.419 55.6451L167.504 55.7371C167.381 55.8506 167.257 55.9643 167.132 56.0781L167.048 55.9858C166.924 56.0995 166.799 56.2133 166.674 56.3272L166.758 56.4197C166.637 56.5299 166.515 56.6403 166.393 56.7508L166.309 56.6581C166.187 56.7682 166.065 56.8784 165.943 56.9886L166.026 57.0816C165.903 57.1919 165.78 57.3024 165.657 57.4129L165.573 57.3198C165.45 57.4303 165.326 57.5408 165.202 57.6515L165.285 57.7449C165.161 57.8556 165.036 57.9665 164.91 58.0774L164.828 57.9838C164.791 58.0163 164.754 58.0489 164.717 58.0815C164.705 58.0923 164.693 58.1032 164.68 58.114C164.613 58.1731 164.546 58.2322 164.479 58.2913C164.47 58.2997 164.46 58.3082 164.451 58.3166L164.533 58.4104C164.407 58.5215 164.281 58.6328 164.154 58.744L164.071 58.65C164.02 58.6951 163.968 58.7402 163.917 58.7853C163.905 58.7958 163.893 58.8062 163.881 58.8166C163.819 58.8706 163.757 58.9246 163.695 58.9786L163.777 59.0728C163.654 59.1807 163.53 59.2885 163.405 59.3965L163.323 59.3021C163.199 59.41 163.074 59.5179 162.949 59.626L163.031 59.7206C162.906 59.8287 162.78 59.9369 162.654 60.0452L162.572 59.9504C162.447 60.0586 162.32 60.1669 162.193 60.2752L162.275 60.3702C162.148 60.4787 162.021 60.5872 161.893 60.6957L161.812 60.6005C161.685 60.709 161.557 60.8176 161.428 60.9263L161.509 61.0217C161.381 61.1304 161.252 61.2392 161.123 61.348L161.042 61.2525C160.916 61.3586 160.79 61.4648 160.663 61.5711L160.744 61.6669C160.618 61.7725 160.491 61.8783 160.365 61.984L160.285 61.8881C160.226 61.9375 160.166 61.9869 160.107 62.0363C160.099 62.0433 160.09 62.0504 160.082 62.0575C160.034 62.0975 159.985 62.1376 159.937 62.1777C159.926 62.187 159.915 62.1962 159.904 62.2055L159.984 62.3016C159.856 62.4075 159.729 62.5135 159.601 62.6195L159.521 62.5232C159.393 62.6292 159.264 62.7352 159.136 62.8413L159.215 62.9378C159.086 63.0439 158.957 63.1501 158.828 63.2564L158.748 63.1597C158.619 63.2659 158.489 63.3722 158.359 63.4785L158.438 63.5753C158.308 63.6817 158.177 63.7881 158.046 63.8946L157.967 63.7976C157.84 63.9015 157.712 64.0053 157.583 64.1093L157.662 64.2064C157.534 64.31 157.406 64.4136 157.277 64.5172L157.199 64.4199C157.07 64.5235 156.942 64.6272 156.812 64.7308L156.891 64.8283C156.762 64.9321 156.632 65.0358 156.502 65.1397L156.424 65.0421C156.294 65.1458 156.164 65.2497 156.034 65.3535L156.112 65.4513C155.981 65.5553 155.85 65.6592 155.719 65.7632L155.641 65.6653C155.51 65.7693 155.379 65.8733 155.247 65.9773L155.325 66.0754C155.193 66.1795 155.061 66.2836 154.928 66.3878L154.851 66.2896C154.721 66.3918 154.591 66.494 154.46 66.5963L154.537 66.6947C154.408 66.7962 154.278 66.8978 154.148 66.9993L154.071 66.9008C153.941 67.0023 153.81 67.1038 153.68 67.2054L153.756 67.3041C153.625 67.4057 153.494 67.5074 153.363 67.6091L153.286 67.5103C153.155 67.6119 153.024 67.7136 152.892 67.8153L152.968 67.9143C152.836 68.0161 152.704 68.1179 152.571 68.2197L152.495 68.1206C152.363 68.2224 152.23 68.3242 152.097 68.426L152.173 68.5253C152.039 68.6272 151.906 68.7291 151.772 68.831L151.696 68.7316C151.564 68.8328 151.431 68.9339 151.297 69.0351L151.373 69.1347C151.242 69.2341 151.111 69.3337 150.979 69.4332L150.904 69.3335C150.772 69.433 150.64 69.5325 150.508 69.632L150.584 69.7319C150.451 69.8314 150.319 69.931 150.186 70.0307L150.111 69.9307C149.979 70.0303 149.846 70.1299 149.713 70.2295L149.787 70.3296C149.654 70.4293 149.521 70.529 149.387 70.6287L149.312 70.5285C149.178 70.6281 149.044 70.7278 148.91 70.8275L148.985 70.9279C148.85 71.0276 148.716 71.1274 148.581 71.2272L148.507 71.1267C148.372 71.2264 148.237 71.3262 148.101 71.4259L148.175 71.5266C148.042 71.6248 147.909 71.723 147.775 71.8213L147.701 71.7205C147.568 71.818 147.435 71.9156 147.302 72.0131L147.376 72.114C147.242 72.2116 147.109 72.3092 146.975 72.4068L146.901 72.3058C146.767 72.4034 146.633 72.5009 146.499 72.5985L146.572 72.6997C146.438 72.7973 146.303 72.8949 146.169 72.9926L146.095 72.8914C146.004 72.9574 145.913 73.0234 145.821 73.0894L145.69 73.1842L145.763 73.2856C145.628 73.3833 145.492 73.481 145.356 73.5787L145.283 73.4772C145.147 73.5748 145.011 73.6725 144.875 73.7702L144.948 73.8718C144.811 73.9695 144.675 74.0672 144.538 74.1649L144.465 74.0632C144.384 74.1211 144.303 74.179 144.222 74.2369C144.169 74.2748 144.115 74.3127 144.062 74.3507L144.134 74.4525C144 74.5482 143.865 74.6438 143.73 74.7395L143.658 74.6375C143.523 74.7331 143.388 74.8288 143.253 74.9244L143.325 75.0265C143.189 75.1222 143.054 75.2178 142.918 75.3135L142.846 75.2113C142.71 75.3069 142.574 75.4026 142.438 75.4982L142.51 75.6005C142.373 75.6962 142.237 75.7919 142.1 75.8875L142.028 75.7851C141.892 75.8807 141.755 75.9764 141.617 76.072L141.689 76.1746C141.552 76.2702 141.414 76.3659 141.277 76.4616L141.205 76.3589C141.068 76.4545 140.93 76.5502 140.792 76.6458L140.863 76.7486C140.727 76.8425 140.591 76.9365 140.455 77.0304L140.384 76.9276C140.33 76.9646 140.277 77.0015 140.223 77.0385C140.211 77.0471 140.198 77.0556 140.186 77.0641C140.116 77.1123 140.046 77.1605 139.976 77.2087L140.047 77.3117C139.91 77.4055 139.774 77.4993 139.637 77.593L139.566 77.4899C139.43 77.5836 139.293 77.6773 139.156 77.771L139.226 77.8742C139.089 77.968 138.951 78.0617 138.814 78.1554L138.743 78.0521C138.606 78.1458 138.468 78.2395 138.33 78.3331L138.4 78.4365C138.262 78.5302 138.124 78.6239 137.985 78.7176L137.915 78.6141C137.777 78.7077 137.638 78.8014 137.5 78.895L137.569 78.9986C137.431 79.0923 137.291 79.186 137.152 79.2796L137.082 79.1759C136.945 79.2682 136.807 79.3606 136.669 79.4529L136.739 79.5568C136.602 79.6487 136.464 79.7406 136.327 79.8325L136.257 79.7285C136.12 79.8204 135.982 79.9122 135.844 80.004L135.913 80.1081C135.775 80.1999 135.637 80.2918 135.499 80.3836L135.43 80.2794C135.291 80.3712 135.153 80.463 135.014 80.5548L135.083 80.659C134.944 80.7508 134.805 80.8426 134.666 80.9344L134.597 80.83C134.51 80.8872 134.423 80.9444 134.336 81.0017C134.284 81.0362 134.232 81.0706 134.179 81.1051L134.248 81.2096C134.108 81.3013 133.968 81.393 133.828 81.4847L133.76 81.3802C133.62 81.4718 133.48 81.5635 133.339 81.6551L133.408 81.7598C133.268 81.8508 133.129 81.9419 132.989 82.0329L132.921 81.9281C132.782 82.0182 132.644 82.1082 132.505 82.1982L132.573 82.3031C132.434 82.3931 132.295 82.4831 132.156 82.5731L132.088 82.4681C132.038 82.5005 131.988 82.5329 131.938 82.5653C131.926 82.5728 131.915 82.5802 131.903 82.5877C131.84 82.6284 131.777 82.6691 131.714 82.7098C131.7 82.7192 131.685 82.7286 131.67 82.7379L131.738 82.843C131.599 82.9329 131.459 83.0229 131.319 83.1128L131.251 83.0076C131.203 83.0387 131.155 83.0697 131.106 83.1007C131.09 83.1111 131.074 83.1214 131.058 83.1318C131.007 83.1643 130.957 83.1969 130.906 83.2295C130.881 83.2454 130.856 83.2613 130.831 83.2772L130.899 83.3824C130.759 83.4723 130.618 83.5621 130.477 83.6519L130.41 83.5465C130.27 83.6363 130.129 83.7261 129.988 83.8158L130.055 83.9212C129.914 84.011 129.773 84.1007 129.632 84.1904L129.565 84.0849C129.423 84.1745 129.282 84.2642 129.14 84.3538L129.207 84.4594C129.067 84.5479 128.927 84.6363 128.787 84.7247L128.72 84.6189C128.58 84.7071 128.44 84.7953 128.3 84.8834L128.367 84.9892C128.227 85.0774 128.086 85.1655 127.946 85.2536L127.879 85.1477C127.739 85.2357 127.598 85.3238 127.457 85.4118L127.523 85.5178C127.383 85.6058 127.241 85.6938 127.1 85.7818L127.034 85.6757C126.893 85.7636 126.752 85.8515 126.61 85.9394L126.676 86.0456C126.534 86.1335 126.393 86.2214 126.251 86.3093L126.185 86.203C126.043 86.2908 125.901 86.3786 125.759 86.4663L125.824 86.5727C125.682 86.6605 125.54 86.7482 125.397 86.836L125.332 86.7295C125.189 86.8169 125.047 86.9043 124.905 86.9916L124.97 87.0982C124.829 87.1846 124.688 87.271 124.547 87.3573L124.482 87.2506C124.341 87.337 124.199 87.4232 124.058 87.5095L124.123 87.6162C123.981 87.7025 123.839 87.7887 123.698 87.8749L123.633 87.7681C123.571 87.8055 123.509 87.8429 123.448 87.8803C123.368 87.929 123.287 87.9777 123.207 88.0264L123.272 88.1334C123.129 88.2195 122.987 88.3056 122.844 88.3916L122.78 88.2846C122.637 88.3706 122.495 88.4566 122.352 88.5425L122.416 88.6496C122.274 88.7356 122.131 88.8215 121.988 88.9074L121.923 88.8003C121.78 88.8861 121.637 88.9719 121.494 89.0577L121.558 89.165C121.414 89.2508 121.271 89.3366 121.127 89.4223L121.063 89.315C120.92 89.4002 120.777 89.4854 120.634 89.5705L120.698 89.678C120.555 89.7625 120.413 89.847 120.27 89.9315L120.207 89.824C120.064 89.9084 119.922 89.9928 119.779 90.0771L119.843 90.1847C119.7 90.2691 119.557 90.3534 119.414 90.4377L119.35 90.33C119.207 90.4143 119.064 90.4985 118.921 90.5827L118.984 90.6905C118.841 90.7747 118.697 90.8589 118.553 90.943L118.49 90.8351C118.347 90.9192 118.203 91.0032 118.059 91.0872L118.122 91.1952C117.978 91.2792 117.834 91.3632 117.69 91.4471L117.627 91.3391C117.483 91.423 117.338 91.5069 117.194 91.5907L117.256 91.6988C117.112 91.7826 116.967 91.8664 116.822 91.9502L116.76 91.842L116.542 91.9675L116.325 92.0928L116.388 92.2011C116.243 92.2847 116.098 92.3681 115.953 92.4514L115.891 92.343C115.746 92.4262 115.601 92.5093 115.456 92.5922L115.518 92.7007C115.374 92.7837 115.229 92.8665 115.084 92.9492L115.022 92.8406C114.877 92.9232 114.733 93.0057 114.588 93.0881L114.65 93.1967C114.505 93.2791 114.36 93.3613 114.216 93.4434L114.154 93.3347C114.01 93.4167 113.865 93.4986 113.721 93.5804L113.782 93.6892C113.638 93.7709 113.493 93.8526 113.349 93.934L113.287 93.8251C113.143 93.9066 112.998 93.9879 112.854 94.069L112.915 94.178C112.771 94.2592 112.627 94.3402 112.482 94.4211L112.421 94.312C112.276 94.3935 112.13 94.4748 111.985 94.556L112.046 94.6651C111.9 94.7467 111.754 94.8282 111.608 94.9095L111.547 94.8003C111.401 94.8816 111.255 94.9627 111.109 95.0437L111.17 95.153C111.024 95.234 110.878 95.3149 110.732 95.3956L110.672 95.2862C110.526 95.3669 110.38 95.4474 110.234 95.5278L110.295 95.6372C110.149 95.7176 110.003 95.7979 109.858 95.8779L109.797 95.7684C109.733 95.8038 109.669 95.8391 109.604 95.8744C109.523 95.919 109.442 95.9636 109.361 96.0081L109.421 96.1177C109.275 96.1975 109.13 96.2771 108.984 96.3565L108.924 96.2468C108.779 96.3263 108.633 96.4055 108.488 96.4846L108.548 96.5944C108.402 96.6736 108.257 96.7526 108.112 96.8314L108.052 96.7215C107.905 96.8012 107.758 96.8807 107.612 96.9601L107.671 97.07C107.524 97.1497 107.377 97.2292 107.23 97.3085L107.17 97.1984C107.023 97.2777 106.876 97.3569 106.729 97.4358L106.788 97.5459C106.641 97.6249 106.494 97.7038 106.347 97.7824L106.288 97.6722C106.141 97.7509 105.995 97.8293 105.848 97.9077L105.907 98.0179C105.76 98.0963 105.613 98.1744 105.466 98.2525L105.408 98.1421C105.261 98.2201 105.114 98.2979 104.968 98.3756L105.026 98.486C104.88 98.5637 104.733 98.6412 104.587 98.7186L104.529 98.608C104.382 98.6854 104.236 98.7625 104.09 98.8396L104.148 98.9502C104.001 99.0273 103.855 99.1044 103.708 99.1812L103.65 99.0705C103.502 99.1484 103.353 99.2261 103.205 99.3036L103.263 99.4144C103.114 99.492 102.966 99.5694 102.818 99.6466L102.76 99.5357C102.612 99.6129 102.464 99.69 102.316 99.7668L102.373 99.8778C102.225 99.9546 102.077 100.031 101.929 100.108L101.872 99.9969C101.724 100.073 101.576 100.15 101.428 100.226L101.486 100.337C101.338 100.413 101.19 100.489 101.043 100.565L100.985 100.454C100.838 100.53 100.69 100.605 100.543 100.681L100.6 100.792C100.452 100.868 100.305 100.943 100.158 101.018L100.101 100.907C99.9534 100.982 99.8062 101.057 99.659 101.132L99.7157 101.243C99.5669 101.319 99.4182 101.394 99.2696 101.469L99.2131 101.358C99.0636 101.434 98.9142 101.509 98.7648 101.585L98.8211 101.696C98.6717 101.772 98.5224 101.847 98.3732 101.922L98.317 101.81C98.1678 101.885 98.0187 101.96 97.8697 102.035L97.9257 102.146C97.7766 102.221 97.6277 102.296 97.4788 102.37L97.4229 102.258C97.2741 102.332 97.1253 102.406 96.9767 102.48L97.0323 102.592C96.8836 102.666 96.7349 102.74 96.5864 102.814L96.5309 102.702C96.4599 102.737 96.3889 102.772 96.3179 102.807C96.2405 102.845 96.1631 102.883 96.0857 102.922L96.141 103.034C95.9926 103.107 95.8444 103.18 95.6962 103.253L95.641 103.141C95.4921 103.214 95.3433 103.287 95.1946 103.36L95.2496 103.472C95.0988 103.546 94.9482 103.62 94.7976 103.693L94.7428 103.581C94.5923 103.654 94.4418 103.727 94.2915 103.8L94.3462 103.913C94.1958 103.986 94.0455 104.059 93.8954 104.131L93.8409 104.019C93.7618 104.057 93.6828 104.095 93.6038 104.134C93.5328 104.168 93.4618 104.202 93.3908 104.236L93.4451 104.349C93.2951 104.421 93.1453 104.493 92.9955 104.565L92.9414 104.453C92.7917 104.525 92.642 104.596 92.4925 104.668L92.5465 104.781C92.3969 104.852 92.2475 104.924 92.0981 104.995L92.0443 104.882C91.895 104.953 91.7458 105.024 91.5967 105.095L91.6503 105.208C91.5009 105.279 91.3515 105.349 91.2023 105.42L91.1489 105.307C91.0961 105.332 91.0433 105.357 90.9905 105.382C90.8915 105.429 90.7925 105.475 90.6936 105.522L90.7468 105.635C90.5951 105.706 90.4435 105.778 90.292 105.849L90.239 105.735C90.0876 105.806 89.9362 105.877 89.7851 105.948L89.8379 106.061C89.6867 106.132 89.5356 106.202 89.3845 106.272L89.3318 106.159C89.1809 106.229 89.03 106.299 88.8793 106.369L88.9318 106.482C88.781 106.552 88.6304 106.622 88.4798 106.691L88.4275 106.578C88.277 106.647 88.1266 106.716 87.9764 106.785L88.0285 106.899C87.8782 106.968 87.728 107.037 87.578 107.105L87.526 106.992C87.3757 107.06 87.2255 107.129 87.0754 107.197L87.1272 107.311C86.9741 107.381 86.8211 107.45 86.6683 107.519L86.6167 107.406C86.464 107.475 86.3114 107.544 86.1589 107.613L86.2103 107.727C86.0577 107.795 85.9053 107.864 85.753 107.932L85.7018 107.818C85.5496 107.887 85.3975 107.955 85.2456 108.023L85.2966 108.137C85.1446 108.205 84.9927 108.273 84.8409 108.34L84.7901 108.226C84.6384 108.294 84.4869 108.361 84.3355 108.428L84.3861 108.542C84.2347 108.609 84.0833 108.676 83.9321 108.743L83.8817 108.629C83.7306 108.695 83.5796 108.762 83.4287 108.828L83.479 108.942C83.327 109.009 83.1752 109.076 83.0235 109.142L82.9734 109.027C82.8194 109.095 82.6654 109.162 82.5116 109.229L82.5615 109.343C82.4076 109.41 82.2539 109.477 82.1004 109.544L82.0507 109.429C81.8972 109.495 81.7439 109.561 81.5907 109.627L81.6402 109.742C81.4869 109.808 81.3338 109.874 81.1809 109.94L81.1316 109.825C80.9788 109.89 80.826 109.956 80.6735 110.021L80.7225 110.136C80.5699 110.201 80.4174 110.266 80.2651 110.33L80.2163 110.215C80.0641 110.28 79.912 110.344 79.76 110.408L79.8087 110.523C79.6567 110.588 79.5049 110.652 79.3532 110.715L79.3048 110.6C79.1505 110.665 78.9964 110.73 78.8424 110.794L78.8907 110.909C78.7355 110.974 78.5805 111.039 78.4257 111.103L78.3777 110.988C78.2229 111.052 78.0684 111.116 77.914 111.18L77.9618 111.295C77.8073 111.359 77.653 111.423 77.4989 111.486L77.4513 111.371C77.2973 111.434 77.1434 111.497 76.9897 111.56L77.0371 111.676C76.8833 111.739 76.7297 111.802 76.5763 111.864L76.5292 111.748C76.4707 111.772 76.4121 111.796 76.3537 111.82C76.259 111.858 76.1643 111.896 76.0698 111.935L76.1167 112.051C75.9636 112.112 75.8108 112.174 75.6581 112.236L75.6114 112.12C75.4575 112.182 75.3038 112.243 75.1503 112.305L75.1968 112.421C75.0403 112.483 74.8841 112.546 74.728 112.608L74.6818 112.492C74.5258 112.554 74.37 112.616 74.2144 112.677L74.2604 112.793C74.1048 112.855 73.9493 112.916 73.7941 112.977L73.7483 112.861C73.5931 112.922 73.4381 112.983 73.2834 113.043L73.3289 113.16C73.174 113.22 73.0194 113.281 72.8649 113.341L72.8197 113.224C72.6653 113.284 72.5111 113.344 72.3572 113.403L72.4022 113.52C72.2482 113.579 72.0944 113.639 71.9407 113.698L71.8959 113.581C71.7418 113.64 71.5878 113.699 71.434 113.758L71.4786 113.874C71.3209 113.935 71.1634 113.994 71.0062 114.054L70.9619 113.937C70.8047 113.997 70.6478 114.056 70.4911 114.115L70.5351 114.232C70.3784 114.291 70.2218 114.35 70.0655 114.408L70.0217 114.291C69.8654 114.35 69.7094 114.408 69.5536 114.466L69.5972 114.583C69.4413 114.641 69.2856 114.699 69.1302 114.756L69.0869 114.639C68.9316 114.696 68.7765 114.753 68.6217 114.81L68.6647 114.927C68.5098 114.984 68.3551 115.04 68.2006 115.097L68.1578 114.979C68.0024 115.036 67.8473 115.092 67.6924 115.148L67.7349 115.266C67.576 115.323 67.4174 115.38 67.2591 115.437L67.2169 115.319C67.0586 115.376 66.9006 115.433 66.7429 115.489L66.7849 115.606C66.627 115.663 66.4695 115.719 66.3122 115.774L66.2705 115.656C66.1133 115.712 65.9564 115.767 65.7997 115.822L65.841 115.94C65.6843 115.995 65.5278 116.05 65.3715 116.104L65.3304 115.986C65.1743 116.041 65.0184 116.095 64.8628 116.148L64.9036 116.266C64.7478 116.32 64.5924 116.374 64.4372 116.427L64.3967 116.309C64.2389 116.363 64.0814 116.416 63.9242 116.47L63.9644 116.588C63.8045 116.643 63.6449 116.697 63.4856 116.75L63.4457 116.632C63.2865 116.685 63.1276 116.739 62.969 116.792L63.0086 116.91C62.8499 116.963 62.6915 117.016 62.5334 117.068L62.4941 116.95C62.3361 117.002 62.1784 117.054 62.021 117.106L62.06 117.225C61.9025 117.276 61.7453 117.328 61.5884 117.379L61.5497 117.26C61.3929 117.311 61.2364 117.362 61.0802 117.412L61.1186 117.531C60.9618 117.581 60.8054 117.632 60.6493 117.681L60.6113 117.562C60.45 117.614 60.2891 117.665 60.1285 117.716L60.1662 117.835C60.0055 117.886 59.8451 117.936 59.6851 117.986L59.6477 117.867C59.4878 117.917 59.3282 117.967 59.169 118.016L59.206 118.136C59.0466 118.185 58.8876 118.234 58.7289 118.283L58.6923 118.163C58.5337 118.212 58.3755 118.26 58.2176 118.308L58.2539 118.428C58.0959 118.476 57.9383 118.523 57.781 118.571L57.745 118.451C57.5878 118.498 57.431 118.545 57.2745 118.591L57.3101 118.711C57.148 118.759 56.9862 118.807 56.8248 118.854L56.7896 118.735C56.6277 118.782 56.4662 118.829 56.3051 118.876L56.34 118.996C56.1787 119.043 56.0179 119.089 55.8574 119.135L55.8229 119.015C55.6626 119.061 55.5026 119.107 55.3431 119.152L55.3771 119.272C55.2174 119.317 55.0581 119.362 54.8992 119.406L54.8656 119.286C54.7068 119.33 54.5484 119.374 54.3905 119.418L54.4237 119.538C54.2656 119.582 54.1079 119.625 53.9506 119.668L53.9177 119.548C53.7539 119.592 53.5905 119.636 53.4276 119.68L53.46 119.801C53.2969 119.845 53.1342 119.888 52.972 119.931L52.94 119.81C52.7779 119.853 52.6163 119.895 52.4551 119.937L52.4866 120.058C52.3252 120.1 52.1643 120.142 52.0039 120.183L51.9728 120.062C51.8125 120.103 51.6526 120.144 51.4932 120.184L51.5239 120.305C51.3643 120.346 51.2052 120.386 51.0465 120.425L51.0164 120.304C50.8552 120.344 50.6945 120.384 50.5343 120.423L50.564 120.544C50.399 120.584 50.2346 120.624 50.0707 120.664L50.0415 120.542C49.8778 120.581 49.7145 120.62 49.5518 120.659L49.5805 120.78C49.4176 120.819 49.2552 120.857 49.0933 120.894L49.0651 120.772C48.9034 120.81 48.7422 120.847 48.5816 120.883L48.6092 121.005C48.4484 121.041 48.288 121.077 48.1282 121.113L48.1011 120.991C47.9412 121.026 47.7818 121.062 47.6229 121.096L47.6495 121.218C47.4829 121.254 47.3169 121.29 47.1515 121.325L47.1255 121.203C46.9603 121.238 46.7957 121.273 46.6316 121.307L46.657 121.429C46.4928 121.463 46.3291 121.497 46.1661 121.53L46.1413 121.407C45.9784 121.44 45.8161 121.473 45.6544 121.505L45.6787 121.627C45.5168 121.659 45.3555 121.691 45.1948 121.722L45.1712 121.599C45.0108 121.63 44.8509 121.66 44.6916 121.69L44.7146 121.813C44.5467 121.844 44.3794 121.875 44.2128 121.905L44.1906 121.782C44.0242 121.812 43.8585 121.842 43.6935 121.871L43.7151 121.994C43.5499 122.023 43.3853 122.051 43.2215 122.079L43.2006 121.956C43.037 121.983 42.874 122.01 42.7118 122.037L42.7319 122.16C42.5695 122.187 42.4077 122.213 42.2466 122.238L42.2272 122.115C42.0639 122.14 41.9013 122.165 41.7395 122.19L41.7582 122.313C41.5894 122.339 41.4213 122.364 41.2541 122.388L41.2363 122.264C41.0693 122.288 40.9031 122.312 40.7378 122.334L40.7548 122.458C40.5892 122.481 40.4243 122.503 40.2603 122.524L40.2441 122.4C40.0804 122.422 39.9174 122.442 39.7553 122.462L39.7706 122.586C39.6082 122.606 39.4466 122.626 39.2858 122.644L39.2714 122.52C39.1026 122.54 38.9347 122.559 38.7677 122.577L38.7811 122.701C38.6122 122.719 38.4443 122.737 38.2773 122.753L38.2649 122.629C38.0982 122.646 37.9324 122.661 37.7677 122.677L37.7791 122.801C37.6139 122.816 37.4497 122.83 37.2865 122.844L37.2762 122.719C37.1133 122.733 36.9514 122.746 36.7904 122.758L36.7997 122.882C36.6305 122.895 36.4624 122.907 36.2953 122.917L36.2872 122.793C36.1177 122.804 35.9493 122.814 35.7821 122.823L35.7889 122.948C35.6212 122.957 35.4547 122.965 35.2892 122.973L35.2836 122.848C35.1186 122.855 34.9547 122.862 34.7919 122.867L34.7962 122.992C34.633 122.998 34.4709 123.003 34.31 123.006L34.307 122.881C34.1357 122.885 33.9658 122.888 33.7971 122.89L33.7985 123.015C33.6287 123.017 33.4602 123.018 33.293 123.018L33.2931 122.893C33.1264 122.893 32.9611 122.892 32.7972 122.89L32.7955 123.015C32.631 123.013 32.4678 123.009 32.306 123.005L32.3093 122.88C32.1422 122.876 31.9766 122.87 31.8124 122.863L31.8073 122.988C31.6362 122.981 31.4666 122.973 31.2987 122.964L31.3057 122.839C31.1384 122.829 30.9726 122.819 30.8085 122.807L30.7995 122.932C30.6348 122.92 30.4716 122.906 30.31 122.892L30.3211 122.768C30.1561 122.753 29.9928 122.737 29.8313 122.72L29.818 122.844C29.647 122.826 29.478 122.806 29.3108 122.785L29.3265 122.661C29.1602 122.64 28.9958 122.617 28.8334 122.593L28.8152 122.717C28.6519 122.693 28.4906 122.667 28.3312 122.64L28.3521 122.517C28.1873 122.489 28.0246 122.459 27.8641 122.428L27.8404 122.551C27.6721 122.519 27.5061 122.484 27.3425 122.448L27.3694 122.326C27.2068 122.29 27.0467 122.253 26.8889 122.214L26.8587 122.335C26.6998 122.295 26.5433 122.254 26.3892 122.211L26.4227 122.091C26.2577 122.045 26.0955 121.997 25.9361 121.947L25.8987 122.066C25.7371 122.015 25.5784 121.962 25.4226 121.908L25.4641 121.79C25.3096 121.735 25.1581 121.679 25.0095 121.621L24.9638 121.737C24.8056 121.675 24.6508 121.61 24.4991 121.543L24.5495 121.429C24.3956 121.361 24.2451 121.291 24.0981 121.219L24.0428 121.331C23.8941 121.257 23.7489 121.181 23.6072 121.103L23.6676 120.994C23.5213 120.913 23.3789 120.83 23.2403 120.744L23.1744 120.85C23.0305 120.76 22.8908 120.668 22.7551 120.573L22.8268 120.471C22.693 120.377 22.5634 120.281 22.4379 120.182L22.3604 120.28C22.2277 120.175 22.0994 120.067 21.9758 119.956L22.0593 119.863C21.9365 119.753 21.8183 119.64 21.7047 119.523L21.6153 119.611C21.4994 119.492 21.3883 119.37 21.282 119.245L21.3772 119.164C21.2707 119.039 21.1691 118.91 21.0724 118.778L20.9716 118.852C20.8732 118.718 20.7797 118.58 20.6913 118.439L20.7972 118.373C20.7538 118.304 20.7117 118.234 20.6708 118.163C20.6299 118.092 20.5904 118.021 20.5522 117.949L20.4417 118.007C20.3638 117.86 20.2914 117.71 20.2244 117.558L20.3388 117.508C20.273 117.358 20.2125 117.206 20.1572 117.051L20.0395 117.093C19.9843 116.938 19.9343 116.781 19.8893 116.621L20.0097 116.587C19.9657 116.431 19.9266 116.272 19.8926 116.11L19.7703 116.136C19.7359 115.974 19.7066 115.809 19.6822 115.641L19.8059 115.623C19.7828 115.465 19.7641 115.304 19.7499 115.142L19.6254 115.153C19.611 114.988 19.6011 114.821 19.5957 114.651L19.7206 114.647C19.7154 114.484 19.7144 114.319 19.7175 114.152L19.5926 114.15C19.5956 113.988 19.6026 113.824 19.6134 113.659L19.7381 113.667C19.7488 113.503 19.7632 113.338 19.7815 113.171L19.6572 113.157C19.6752 112.993 19.6969 112.826 19.7221 112.658L19.8457 112.677C19.8694 112.519 19.8964 112.359 19.9265 112.198L19.8037 112.175C19.8341 112.013 19.8677 111.849 19.9046 111.684L20.0266 111.711C20.0629 111.548 20.1025 111.384 20.1451 111.218L20.024 111.187C20.0639 111.032 20.1064 110.875 20.1517 110.718L20.2718 110.753C20.3167 110.596 20.3643 110.439 20.4146 110.28L20.2954 110.242C20.346 110.083 20.3993 109.922 20.4552 109.76L20.5734 109.801C20.6267 109.646 20.6825 109.49 20.7407 109.334L20.6235 109.29C20.6798 109.139 20.7383 108.986 20.7991 108.833L20.9153 108.879C20.9758 108.726 21.0384 108.573 21.1033 108.418L20.9881 108.37C21.0533 108.214 21.1208 108.058 21.1904 107.901L21.3047 107.951C21.3705 107.803 21.4383 107.653 21.5081 107.503L21.3948 107.451C21.4631 107.303 21.5333 107.156 21.6054 107.007L21.7178 107.061C21.7896 106.913 21.8633 106.765 21.9388 106.615L21.8272 106.559C21.903 106.408 21.9806 106.257 22.0602 106.106L22.1709 106.164C22.2471 106.018 22.3251 105.872 22.4048 105.725L22.2949 105.666C22.3721 105.523 22.4509 105.38 22.5312 105.237L22.6403 105.298C22.7204 105.155 22.8021 105.011 22.8853 104.867L22.777 104.804C22.8605 104.659 22.9456 104.514 23.0322 104.368L23.1397 104.431C23.2258 104.286 23.3134 104.141 23.4025 103.994L23.2958 103.929C23.3795 103.792 23.4646 103.654 23.5511 103.515L23.6571 103.581C23.7434 103.443 23.8309 103.305 23.9199 103.165L23.8145 103.098C23.9037 102.959 23.9942 102.818 24.086 102.678L24.1906 102.746C24.2822 102.606 24.3752 102.465 24.4694 102.324L24.3655 102.254C24.4584 102.115 24.5526 101.975 24.648 101.835L24.7514 101.906C24.8422 101.772 24.9342 101.638 25.0273 101.504L24.9246 101.433C25.018 101.298 25.1125 101.163 25.2082 101.028L25.3103 101.1C25.4057 100.965 25.5023 100.829 25.6001 100.693L25.4986 100.62C25.5966 100.484 25.6957 100.347 25.7959 100.21L25.8968 100.284C25.9959 100.148 26.0962 100.012 26.1975 99.8756L26.0972 99.8011C26.1937 99.6712 26.2913 99.5409 26.3898 99.4102L26.4896 99.4855C26.588 99.3551 26.6873 99.2243 26.7877 99.0932L26.6884 99.0172C26.789 98.8858 26.8905 98.7541 26.993 98.622L27.0918 98.6987C27.1941 98.5668 27.2975 98.4346 27.4018 98.3021L27.3036 98.2248C27.4081 98.092 27.5136 97.9589 27.62 97.8254L27.7177 97.9034C27.8198 97.7755 27.9228 97.6472 28.0267 97.5187L27.9294 97.4401C28.0319 97.3133 28.1353 97.1861 28.2395 97.0587L28.3363 97.1378C28.4404 97.0106 28.5453 96.883 28.6511 96.7552L28.5548 96.6755C28.6608 96.5475 28.7677 96.4191 28.8754 96.2905L28.9712 96.3708C29.0788 96.2423 29.1872 96.1136 29.2964 95.9846L29.2011 95.9038C29.3105 95.7747 29.4207 95.6452 29.5319 95.5155L29.6268 95.5968C29.7322 95.4737 29.8384 95.3504 29.9453 95.2269L29.8508 95.1451C29.9579 95.0213 30.0657 94.8974 30.1743 94.7732L30.2684 94.8554C30.3769 94.7314 30.4862 94.6071 30.5962 94.4825L30.5025 94.3998C30.6126 94.2751 30.7235 94.1501 30.8352 94.0249L30.9284 94.1081C31.04 93.9831 31.1522 93.8578 31.2653 93.7323L31.1724 93.6486C31.2856 93.523 31.3995 93.3971 31.5142 93.2709L31.6067 93.355C31.716 93.2347 31.8261 93.1142 31.9368 92.9935L31.8447 92.909C31.9553 92.7883 32.0667 92.6675 32.1787 92.5464L32.2704 92.6313C32.3823 92.5104 32.4949 92.3893 32.6081 92.2679L32.5168 92.1826C32.6301 92.0612 32.7442 91.9395 32.8589 91.8176L32.9499 91.9033C33.0645 91.7815 33.1798 91.6596 33.2957 91.5374L33.205 91.4514C33.3211 91.3291 33.4378 91.2066 33.5552 91.084L33.6455 91.1704C33.7595 91.0512 33.8742 90.9318 33.9895 90.8123L33.8995 90.7255C34.013 90.6079 34.1271 90.49 34.2418 90.372L34.3314 90.4591C34.446 90.3412 34.5612 90.2231 34.677 90.1049L34.5877 90.0174C34.7036 89.899 34.8201 89.7805 34.9372 89.6618L35.0262 89.7496C35.1432 89.631 35.2608 89.5122 35.379 89.3933L35.2903 89.3052C35.4086 89.1861 35.5275 89.0669 35.647 88.9476L35.7353 89.036C35.8546 88.9168 35.9746 88.7974 36.0951 88.6778L36.0071 88.5891C36.1229 88.4742 36.2392 88.3593 36.356 88.2441L36.4437 88.3332C36.5605 88.2182 36.6778 88.103 36.7956 87.9877L36.7081 87.8983C36.8261 87.7829 36.9445 87.6674 37.0635 87.5517L37.1507 87.6413C37.2696 87.5257 37.389 87.41 37.509 87.2941L37.4221 87.2042C37.5422 87.0882 37.6628 86.9721 37.7839 86.8559L37.8705 86.9461C37.9915 86.8299 38.1131 86.7136 38.2352 86.5972L38.1489 86.5067C38.2707 86.3906 38.3929 86.2744 38.5157 86.1581L38.6017 86.2488C38.7202 86.1365 38.8392 86.0241 38.9586 85.9116L38.8729 85.8206C38.9925 85.708 39.1125 85.5953 39.233 85.4824L39.3185 85.5737C39.4389 85.4609 39.5598 85.348 39.6812 85.235L39.5961 85.1435C39.7176 85.0305 39.8396 84.9173 39.962 84.804L40.0469 84.8957C40.1693 84.7825 40.2921 84.6691 40.4155 84.5557L40.3308 84.4637C40.4542 84.3501 40.5781 84.2365 40.7025 84.1227L40.7869 84.215C40.9112 84.1013 41.0359 83.9875 41.1611 83.8736L41.077 83.7811C41.1983 83.6708 41.32 83.5605 41.4421 83.45L41.5259 83.5427C41.6476 83.4326 41.7698 83.3224 41.8924 83.2121L41.8088 83.1192C41.9314 83.0089 42.0545 82.8984 42.1781 82.7879L42.2614 82.881C42.3849 82.7705 42.5088 82.6599 42.6331 82.5493L42.55 82.4559C42.6744 82.3452 42.7992 82.2343 42.9245 82.1234L43.0074 82.217C43.1325 82.1061 43.2582 81.9952 43.3842 81.8841L43.3016 81.7904C43.4277 81.6792 43.5543 81.568 43.6813 81.4567L43.7637 81.5508C43.8886 81.4413 44.0139 81.3318 44.1396 81.2222L44.0575 81.1279C44.1811 81.0201 44.3051 80.9123 44.4296 80.8043L44.5115 80.8987C44.6359 80.7908 44.7606 80.6828 44.8858 80.5748L44.8041 80.4802C44.9293 80.3721 45.0549 80.2639 45.181 80.1556L45.2624 80.2504C45.3884 80.1422 45.5147 80.0339 45.6414 79.9256L45.5602 79.8305C45.687 79.7221 45.8142 79.6136 45.9418 79.5051L46.0228 79.6003C46.1503 79.4917 46.2782 79.3832 46.4065 79.2745L46.3257 79.1791C46.4541 79.0704 46.5829 78.9616 46.712 78.8528L46.7926 78.9483C46.9185 78.8422 47.0449 78.736 47.1715 78.6297L47.0912 78.5339C47.2171 78.4283 47.3434 78.3225 47.4701 78.2167L47.5502 78.3127C47.6768 78.207 47.8037 78.1012 47.931 77.9953L47.8511 77.8992C47.9785 77.7933 48.1062 77.6873 48.2343 77.5813L48.3141 77.6776C48.4421 77.5716 48.5705 77.4656 48.6992 77.3595L48.6197 77.263C48.7485 77.1569 48.8777 77.0507 49.0072 76.9444L49.0865 77.0411C49.216 76.9348 49.3458 76.8286 49.4759 76.7223L49.3969 76.6255C49.5271 76.5191 49.6577 76.4126 49.7886 76.3062L49.8675 76.4031C49.9952 76.2993 50.1232 76.1954 50.2515 76.0915L50.1729 75.9944C50.3008 75.8908 50.429 75.7872 50.5575 75.6836L50.636 75.7809C50.7645 75.6773 50.8933 75.5736 51.0224 75.4699L50.9441 75.3725C51.0733 75.2687 51.2029 75.1649 51.3327 75.0611L51.4108 75.1587C51.5406 75.055 51.6707 74.9511 51.8011 74.8472L51.7233 74.7495C51.8538 74.6455 51.9846 74.5416 52.1158 74.4376L52.1935 74.5355C52.3246 74.4315 52.456 74.3275 52.5877 74.2235L52.5103 74.1254C52.6421 74.0213 52.7742 73.9172 52.9067 73.813L52.9839 73.9112C53.1139 73.809 53.2442 73.7068 53.3748 73.6045L53.2977 73.5061C53.4272 73.4046 53.5571 73.303 53.6873 73.2015L53.7642 73.3C53.8943 73.1985 54.0247 73.097 54.1554 72.9954L54.0787 72.8967C54.2094 72.795 54.3405 72.6934 54.4719 72.5917L54.5484 72.6905C54.6797 72.5889 54.8113 72.4872 54.9432 72.3855L54.8669 72.2865C54.9989 72.1847 55.1311 72.0829 55.2637 71.9811L55.3398 72.0802C55.4723 71.9784 55.6052 71.8766 55.7382 71.7748L55.6623 71.6755C55.7955 71.5736 55.9289 71.4717 56.0627 71.3698L56.1384 71.4692C56.2711 71.368 56.4041 71.2669 56.5374 71.1657L56.4618 71.0661C56.5928 70.9666 56.7241 70.8671 56.8557 70.7676L56.9311 70.8673C57.0627 70.7678 57.1945 70.6683 57.3265 70.5688L57.2513 70.4689C57.3834 70.3693 57.5159 70.2697 57.6486 70.1701L57.7236 70.2701C57.8562 70.1705 57.9891 70.0709 58.1223 69.9713L58.0475 69.8712C58.1807 69.7715 58.3142 69.6718 58.448 69.5721L58.5227 69.6723C58.6564 69.5727 58.7904 69.473 58.9247 69.3733L58.8502 69.2729C58.9845 69.1732 59.1192 69.0734 59.254 68.9736L59.3284 69.0741C59.4632 68.9744 59.5983 68.8746 59.7337 68.7748L59.6595 68.6742C59.7928 68.576 59.9263 68.4778 60.06 68.3795L60.134 68.4803C60.2668 68.3828 60.3999 68.2852 60.5331 68.1877L60.4593 68.0868C60.5927 67.9892 60.7263 67.8916 60.8602 67.794L60.9338 67.895C61.0676 67.7974 61.2017 67.6998 61.336 67.6023L61.2625 67.5011C61.3969 67.4035 61.5315 67.3058 61.6664 67.2082L61.7397 67.3094C61.8745 67.2118 62.0096 67.1142 62.1449 67.0166L62.0718 66.9152C62.2072 66.8175 62.3428 66.7198 62.4787 66.6221L62.5516 66.7236C62.6875 66.626 62.8236 66.5283 62.9599 66.4306L62.8871 66.329C63.0235 66.2313 63.1601 66.1336 63.297 66.0359L63.3696 66.1376C63.5038 66.0418 63.6383 65.946 63.773 65.8501L63.7005 65.7483C63.835 65.6526 63.9696 65.557 64.1046 65.4613L64.1769 65.5633C64.3117 65.4676 64.4468 65.372 64.5822 65.2764L64.51 65.1743C64.6454 65.0786 64.781 64.983 64.9169 64.8873L64.9889 64.9895C65.1247 64.8939 65.2607 64.7982 65.397 64.7026L65.3252 64.6003C65.4615 64.5046 65.5981 64.4089 65.7349 64.3132L65.8065 64.4157C65.9432 64.32 66.0802 64.2244 66.2174 64.1288L66.1459 64.0262C66.2832 63.9306 66.4206 63.8349 66.5584 63.7392L66.6297 63.8419C66.7673 63.7462 66.9052 63.6506 67.0433 63.555L66.9722 63.4522C67.1079 63.3583 67.2438 63.2643 67.38 63.1703L67.451 63.2732C67.5868 63.1795 67.7229 63.0858 67.8592 62.992L67.7883 62.889C67.9246 62.7953 68.0612 62.7015 68.1979 62.6078L68.2686 62.7109C68.4053 62.6172 68.5422 62.5235 68.6794 62.4298L68.6089 62.3266C68.7461 62.2328 68.8835 62.1391 69.0211 62.0454L69.0914 62.1487C69.229 62.055 69.3668 61.9613 69.5048 61.8677L69.4346 61.7642C69.5727 61.6705 69.7109 61.5768 69.8494 61.4832L69.9194 61.5867C70.0579 61.493 70.1965 61.3994 70.3354 61.3058L70.2655 61.2021C70.4044 61.1085 70.5435 61.0148 70.6828 60.9212L70.7525 61.0249C70.89 60.9326 71.0276 60.8402 71.1655 60.7479L71.0959 60.644C71.2331 60.5521 71.3705 60.4602 71.5081 60.3683L71.5775 60.4723C71.7151 60.3804 71.8528 60.2886 71.9908 60.1968L71.9215 60.0927C72.0595 60.0009 72.1977 59.909 72.3361 59.8172L72.4052 59.9214C72.5436 59.8296 72.6821 59.7378 72.8209 59.646L72.7519 59.5418C72.8907 59.45 73.0297 59.3582 73.1689 59.2664L73.2377 59.3708C73.3769 59.2791 73.5162 59.1873 73.6558 59.0957L73.5871 58.9912C73.7267 58.8995 73.8665 58.8077 74.0065 58.7161L74.075 58.8206C74.2149 58.729 74.3551 58.6373 74.4954 58.5457L74.427 58.441C74.5665 58.35 74.7062 58.2589 74.8461 58.1679L74.9143 58.2727C75.0526 58.1826 75.1912 58.0926 75.3299 58.0026L75.2618 57.8977C75.4006 57.8077 75.5396 57.7177 75.6787 57.6277L75.7466 57.7327C75.8857 57.6427 76.025 57.5528 76.1645 57.4628L76.0967 57.3578C76.2363 57.2678 76.376 57.1779 76.5159 57.088L76.5834 57.1932C76.7233 57.1033 76.8633 57.0135 77.0035 56.9236L76.9361 56.8184C77.0764 56.7285 77.2168 56.6387 77.3574 56.5489L77.4247 56.6542C77.5653 56.5645 77.706 56.4747 77.847 56.385L77.7798 56.2796C77.9208 56.1898 78.062 56.1001 78.2034 56.0104L78.2703 56.1159C78.4116 56.0262 78.5531 55.9366 78.6948 55.847L78.628 55.7413C78.7678 55.6529 78.9077 55.5645 79.0479 55.4761L79.1146 55.5818C79.2544 55.4937 79.3944 55.4055 79.5346 55.3174L79.468 55.2116C79.6082 55.1234 79.7486 55.0353 79.8892 54.9472L79.9556 55.0531C80.0961 54.9651 80.2368 54.877 80.3776 54.789L80.3114 54.683C80.4523 54.595 80.5934 54.507 80.7346 54.419L80.8007 54.5251C80.9419 54.4372 81.0833 54.3492 81.2248 54.2614L81.1589 54.1552C81.3005 54.0673 81.4423 53.9794 81.5842 53.8915L81.65 53.9978C81.7919 53.91 81.9339 53.8222 82.0761 53.7345L82.0105 53.6281C82.1528 53.5403 82.2952 53.4525 82.4378 53.3648L82.5033 53.4713C82.6454 53.3839 82.7877 53.2965 82.9301 53.2092L82.8648 53.1026C83.0057 53.0162 83.1467 52.9298 83.288 52.8435L83.3532 52.9501C83.4944 52.8638 83.6357 52.7776 83.7772 52.6913L83.7121 52.5846C83.8537 52.4983 83.9954 52.4121 84.1373 52.3259L84.2022 52.4327C84.344 52.3466 84.486 52.2604 84.6281 52.1743L84.5634 52.0674C84.7056 51.9813 84.8479 51.8952 84.9904 51.8092L85.055 51.9162C85.1975 51.8302 85.3401 51.7442 85.4829 51.6582L85.4184 51.5511C85.5612 51.4652 85.7042 51.3792 85.8473 51.2933L85.9117 51.4005C86.0547 51.3147 86.198 51.2288 86.3414 51.1431L86.2772 51.0358C86.4207 50.95 86.5643 50.8642 86.708 50.7785L86.772 50.8858C86.915 50.8006 87.058 50.7154 87.2012 50.6303L87.1374 50.5228C87.2796 50.4383 87.4219 50.3538 87.5644 50.2693L87.6281 50.3768C87.7706 50.2924 87.9132 50.208 88.0559 50.1237L87.9923 50.0161C88.1351 49.9317 88.2781 49.8473 88.4212 49.7631L88.4846 49.8708C88.6277 49.7865 88.7708 49.7023 88.9142 49.6181L88.8509 49.5103C88.9943 49.4261 89.1378 49.3419 89.2815 49.2578L89.3446 49.3657C89.4883 49.2816 89.632 49.1976 89.776 49.1136L89.7129 49.0056C89.8569 48.9216 90.001 48.8376 90.1453 48.7537L90.2082 48.8617C90.3524 48.7778 90.4967 48.6939 90.6412 48.6101L90.5785 48.502C90.7231 48.4181 90.8677 48.3343 91.0126 48.2506L91.0752 48.3588L91.2924 48.2333L91.5097 48.1079L91.4472 47.9996C91.5922 47.9161 91.7371 47.8327 91.882 47.7494L91.9443 47.8578C92.0891 47.7746 92.2339 47.6915 92.3787 47.6085L92.3165 47.5001C92.4614 47.4171 92.6062 47.3343 92.7509 47.2516L92.8129 47.3602C92.9576 47.2775 93.1023 47.195 93.2469 47.1127L93.1851 47.0041C93.3298 46.9217 93.4744 46.8395 93.619 46.7574L93.6807 46.8661C93.8253 46.7841 93.9698 46.7022 94.1143 46.6204L94.0528 46.5116C94.1973 46.4299 94.3418 46.3482 94.4863 46.2668L94.5477 46.3756C94.6921 46.2942 94.8365 46.2129 94.9809 46.1317L94.9196 46.0228C95.064 45.9416 95.2083 45.8606 95.3527 45.7797L95.4138 45.8887C95.5591 45.8073 95.7044 45.726 95.8497 45.6448L95.7888 45.5357C95.9349 45.4541 96.081 45.3726 96.227 45.2913L96.2878 45.4005C96.4338 45.3192 96.5798 45.238 96.7257 45.1571L96.665 45.0478C96.8109 44.9668 96.9569 44.8859 97.1027 44.8052L97.1632 44.9146C97.309 44.8339 97.4548 44.7534 97.6005 44.673L97.5402 44.5636C97.6859 44.4832 97.8317 44.4029 97.9773 44.3229L98.0376 44.4324C98.1832 44.3523 98.3288 44.2725 98.4743 44.1927L98.4142 44.0831C98.5598 44.0033 98.7054 43.9237 98.8508 43.8443L98.9108 43.954C99.0562 43.8745 99.2016 43.7953 99.3469 43.7161L99.2871 43.6064C99.4325 43.5272 99.5779 43.4482 99.7231 43.3694L99.7828 43.4793C99.9296 43.3996 100.076 43.3201 100.223 43.2407L100.164 43.1307C100.311 43.0511 100.458 42.9716 100.605 42.8923L100.665 43.0023C100.812 42.9231 100.959 42.8439 101.106 42.765L101.047 42.6548C101.194 42.5759 101.341 42.497 101.488 42.4184L101.547 42.5286C101.694 42.4499 101.84 42.3715 101.987 42.2931L101.928 42.1829C102.075 42.1045 102.222 42.0263 102.369 41.9483L102.427 42.0587C102.574 41.9807 102.72 41.9029 102.867 41.8252L102.808 41.7148C102.955 41.6371 103.102 41.5596 103.248 41.4822L103.306 41.5927C103.453 41.5154 103.599 41.4382 103.745 41.3612L103.687 41.2506C103.834 41.1735 103.98 41.0964 104.127 41.0196L104.185 41.1303C104.333 41.0524 104.482 40.9747 104.63 40.8971L104.572 40.7864C104.72 40.7088 104.869 40.6314 105.017 40.5542L105.075 40.665C105.223 40.5878 105.371 40.5108 105.519 40.434L105.461 40.323C105.61 40.2461 105.758 40.1694 105.905 40.0929L105.963 40.2039C106.111 40.1274 106.259 40.051 106.406 39.9749L106.349 39.8638C106.497 39.7876 106.645 39.7115 106.792 39.6357L106.849 39.7469C106.997 39.671 107.145 39.5954 107.292 39.5199L107.235 39.4086C107.383 39.3331 107.53 39.2578 107.677 39.1826L107.734 39.294C107.881 39.2188 108.029 39.1439 108.176 39.0691L108.119 38.9576C108.268 38.882 108.417 38.8066 108.565 38.7313L108.622 38.8428C108.771 38.7671 108.921 38.6916 109.07 38.6162L109.014 38.5046C109.163 38.4292 109.312 38.354 109.462 38.279L109.518 38.3907C109.667 38.3157 109.816 38.2408 109.965 38.1662L109.909 38.0544C110.058 37.9798 110.207 37.9053 110.356 37.831L110.412 37.9428C110.561 37.8685 110.71 37.7944 110.858 37.7205L110.803 37.6086C110.951 37.5346 111.1 37.4609 111.248 37.3873L111.304 37.4993C111.452 37.4257 111.601 37.3523 111.749 37.2791L111.694 37.1671C111.842 37.0938 111.991 37.0208 112.139 36.9479L112.194 37.0601C112.343 36.9869 112.492 36.9139 112.64 36.841L112.585 36.7288C112.736 36.6549 112.887 36.5813 113.037 36.5078L113.092 36.6202C113.243 36.5467 113.393 36.4735 113.543 36.4004L113.489 36.288C113.639 36.2149 113.789 36.142 113.94 36.0693L113.994 36.1818C114.144 36.1091 114.294 36.0366 114.444 35.9644L114.39 35.8518C114.54 35.7794 114.69 35.7073 114.839 35.6354L114.894 35.748C115.043 35.6761 115.193 35.6044 115.342 35.5329L115.288 35.4201C115.438 35.3485 115.587 35.2772 115.737 35.206L115.791 35.3188C115.94 35.2477 116.089 35.1767 116.238 35.1059L116.185 34.993C116.334 34.9221 116.483 34.8513 116.633 34.7808L116.686 34.8938C116.838 34.822 116.99 34.7504 117.141 34.679L117.088 34.5659C117.24 34.4945 117.391 34.4232 117.543 34.3522L117.596 34.4654C117.747 34.3944 117.899 34.3236 118.05 34.253L117.997 34.1397C118.148 34.0691 118.299 33.9987 118.45 33.9284L118.503 34.0418C118.654 33.9716 118.805 33.9016 118.956 33.8318L118.903 33.7184C119.054 33.6485 119.205 33.5789 119.355 33.5095L119.407 33.623C119.558 33.5536 119.708 33.4844 119.859 33.4155L119.806 33.3019C119.957 33.2329 120.107 33.164 120.257 33.0954L120.309 33.2091C120.459 33.1404 120.609 33.0719 120.76 33.0035L120.708 32.8898C120.861 32.8201 121.014 32.7506 121.167 32.6813L121.218 32.7952C121.371 32.726 121.524 32.6569 121.676 32.5881L121.625 32.4742C121.777 32.4054 121.93 32.3367 122.082 32.2683L122.133 32.3824C122.285 32.314 122.437 32.2458 122.589 32.1779L122.538 32.0638C122.69 31.9958 122.842 31.928 122.994 31.8605L123.045 31.9747C123.196 31.9072 123.348 31.8398 123.499 31.7727L123.449 31.6585C123.6 31.5913 123.752 31.5244 123.903 31.4577L123.953 31.5721C124.104 31.5054 124.255 31.439 124.406 31.3728L124.356 31.2583C124.508 31.1916 124.66 31.1251 124.811 31.0588L124.861 31.1733C125.016 31.106 125.169 31.0389 125.323 30.972L125.273 30.8573C125.427 30.7904 125.581 30.7237 125.735 30.6572L125.784 30.772C125.938 30.7055 126.091 30.6393 126.244 30.5733L126.195 30.4585C126.348 30.3925 126.501 30.3267 126.654 30.2612L126.703 30.3761C126.856 30.3105 127.009 30.2452 127.161 30.1802L127.112 30.0652C127.265 30.0001 127.417 29.9352 127.57 29.8706L127.619 29.9856C127.771 29.921 127.923 29.8566 128.075 29.7925L128.026 29.6773C128.178 29.6131 128.33 29.5492 128.482 29.4854L128.53 29.6007C128.684 29.5359 128.839 29.4713 128.992 29.4069L128.944 29.2916C129.099 29.2267 129.254 29.1621 129.409 29.0977L129.457 29.2131C129.612 29.1488 129.767 29.0847 129.921 29.0208L129.873 28.9053C130.028 28.8414 130.182 28.7778 130.336 28.7144L130.384 28.83C130.538 28.7666 130.691 28.7035 130.845 28.6406L130.798 28.5249C130.952 28.462 131.105 28.3993 131.259 28.3368L131.306 28.4526C131.459 28.3902 131.612 28.3281 131.765 28.2661L131.718 28.1503C131.871 28.0883 132.024 28.0266 132.177 27.9652L132.223 28.0811C132.377 28.0192 132.531 27.9575 132.685 27.8961L132.638 27.78C132.795 27.7174 132.951 27.655 133.107 27.5929L133.153 27.7091C133.309 27.647 133.465 27.5852 133.62 27.5236L133.574 27.4074C133.73 27.3458 133.886 27.2845 134.041 27.2234L134.087 27.3397C134.242 27.2787 134.397 27.2179 134.552 27.1574L134.506 27.041C134.661 26.9805 134.815 26.9202 134.97 26.8602L135.015 26.9767C135.17 26.9167 135.324 26.857 135.478 26.7975L135.433 26.6809C135.587 26.6214 135.741 26.5622 135.894 26.5032L135.939 26.6199C136.093 26.5607 136.247 26.5018 136.401 26.4431L136.356 26.3263C136.514 26.2662 136.671 26.2063 136.829 26.1467L136.873 26.2636C137.03 26.204 137.187 26.1447 137.344 26.0857L137.3 25.9687C137.457 25.9097 137.613 25.8509 137.769 25.7924L137.813 25.9095C137.969 25.8511 138.125 25.7929 138.281 25.735L138.238 25.6178C138.394 25.5599 138.549 25.5023 138.705 25.4449L138.748 25.5622C138.903 25.5049 139.058 25.4478 139.213 25.391L139.17 25.2737C139.325 25.2169 139.48 25.1604 139.634 25.1041L139.677 25.2216C139.832 25.165 139.988 25.1088 140.142 25.0528L140.1 24.9352C140.259 24.8778 140.417 24.8207 140.576 24.7639L140.618 24.8815C140.776 24.8247 140.934 24.7682 141.092 24.7121L141.05 24.5943C141.208 24.5381 141.365 24.4822 141.523 24.4266L141.564 24.5444C141.722 24.4889 141.879 24.4336 142.035 24.3786L141.994 24.2607C142.151 24.2057 142.307 24.151 142.463 24.0966L142.504 24.2146C142.661 24.1603 142.817 24.1062 142.972 24.0525L142.931 23.9343C143.087 23.8805 143.242 23.8271 143.398 23.7739L143.438 23.8921C143.596 23.8381 143.753 23.7843 143.911 23.7309L143.87 23.6125C144.03 23.5582 144.19 23.5042 144.349 23.4505L144.389 23.5689C144.548 23.5153 144.707 23.462 144.866 23.409L144.826 23.2904C144.985 23.2374 145.143 23.1847 145.301 23.1323L145.341 23.251C145.499 23.1987 145.656 23.1467 145.814 23.095L145.775 22.9762C145.932 22.9245 146.09 22.8731 146.247 22.8221L146.285 22.9409C146.442 22.8899 146.598 22.8392 146.755 22.7889L146.716 22.6699C146.873 22.6194 147.029 22.5692 147.186 22.5193L147.224 22.6384C147.385 22.5869 147.546 22.5358 147.706 22.485L147.669 22.3658C147.829 22.315 147.99 22.2645 148.15 22.2144L148.187 22.3337C148.347 22.2836 148.507 22.2339 148.666 22.1845L148.629 22.0651C148.788 22.0157 148.947 21.9667 149.106 21.918L149.143 22.0375C149.301 21.9889 149.459 21.9406 149.617 21.8927L149.581 21.7731C149.739 21.7251 149.897 21.6775 150.054 21.6303L150.09 21.75C150.247 21.7028 150.404 21.6559 150.56 21.6095L150.525 21.4896C150.687 21.4415 150.849 21.3937 151.01 21.3463L151.045 21.4663C151.207 21.4187 151.369 21.3716 151.53 21.3249L151.495 21.2048C151.656 21.158 151.817 21.1116 151.978 21.0656L152.012 21.1858C152.172 21.1398 152.332 21.0943 152.492 21.0491L152.458 20.9288C152.617 20.8836 152.777 20.8388 152.936 20.7944L152.969 20.9148C153.128 20.8704 153.286 20.8264 153.444 20.7828L153.411 20.6623C153.569 20.6187 153.727 20.5755 153.884 20.5326L153.917 20.6532C154.081 20.6086 154.244 20.5645 154.407 20.5207L154.375 20.4C154.538 20.3562 154.701 20.3128 154.863 20.2699L154.895 20.3908C155.057 20.3479 155.219 20.3054 155.38 20.2634L155.348 20.1424C155.51 20.1004 155.671 20.0588 155.831 20.0176L155.862 20.1386C156.022 20.0975 156.182 20.0568 156.342 20.0165L156.311 19.8953C156.471 19.855 156.63 19.8151 156.788 19.7756L156.819 19.8969C156.98 19.8569 157.14 19.8172 157.301 19.7781L157.271 19.6566C157.436 19.6163 157.6 19.5765 157.764 19.5371L157.793 19.6587C157.957 19.6193 158.12 19.5805 158.283 19.5421L158.254 19.4205C158.417 19.3821 158.58 19.3441 158.742 19.3067L158.77 19.4285C158.931 19.3911 159.093 19.3542 159.253 19.3177L159.226 19.1958C159.387 19.1593 159.547 19.1234 159.707 19.0878L159.734 19.2099C159.894 19.1743 160.053 19.1393 160.212 19.1047L160.185 18.9826C160.352 18.9463 160.518 18.9106 160.683 18.8755L160.709 18.9977C160.875 18.9626 161.039 18.928 161.203 18.8939L161.178 18.7715C161.342 18.7374 161.506 18.7039 161.669 18.6708L161.694 18.7934C161.856 18.7604 162.019 18.7279 162.18 18.696L162.156 18.5734C162.318 18.5414 162.479 18.51 162.64 18.4791L162.664 18.6019C162.824 18.5711 162.984 18.5408 163.143 18.511L163.12 18.3881C163.288 18.3568 163.455 18.326 163.622 18.2958L163.644 18.4188C163.811 18.3887 163.976 18.3592 164.141 18.3302L164.12 18.2071C164.285 18.1781 164.45 18.1498 164.613 18.122L164.634 18.2453C164.798 18.2175 164.961 18.1904 165.123 18.1639L165.103 18.0405C165.265 18.014 165.427 17.988 165.588 17.9627L165.608 18.0862C165.771 18.0605 165.934 18.0355 166.095 18.011L166.077 17.8874C166.246 17.8619 166.414 17.8371 166.581 17.813L166.599 17.9367C166.766 17.9127 166.932 17.8893 167.097 17.8665L167.08 17.7427C167.246 17.72 167.411 17.6979 167.575 17.6765L167.591 17.8004C167.754 17.7791 167.917 17.7584 168.08 17.7385L168.064 17.6144C168.227 17.5944 168.388 17.5751 168.549 17.5564L168.563 17.6806C168.732 17.661 168.9 17.6422 169.067 17.6242L169.054 17.4999C169.223 17.4817 169.391 17.4642 169.558 17.4475L169.57 17.5719C169.737 17.5552 169.902 17.5394 170.067 17.5243L170.056 17.3998C170.221 17.3847 170.385 17.3703 170.548 17.3568L170.559 17.4814C170.722 17.4678 170.884 17.4551 171.044 17.4431L171.035 17.3185C171.204 17.3059 171.373 17.2942 171.54 17.2834L171.548 17.4081C171.717 17.3971 171.886 17.387 172.053 17.3778L172.046 17.253C172.214 17.2438 172.38 17.2355 172.546 17.2281L172.551 17.353C172.716 17.3456 172.88 17.3391 173.043 17.3335L173.039 17.2085C173.202 17.2029 173.364 17.1982 173.525 17.1944L173.528 17.3194C173.699 17.3154 173.869 17.3123 174.038 17.3104L174.036 17.1854C174.206 17.1834 174.375 17.1825 174.542 17.1826L174.542 17.3076C174.708 17.3077 174.874 17.3088 175.038 17.311L175.039 17.186C175.204 17.1882 175.367 17.1915 175.529 17.1958L175.526 17.3208C175.693 17.3252 175.858 17.3308 176.022 17.3375L176.028 17.2126C176.199 17.2196 176.368 17.2278 176.536 17.2372L176.529 17.3621C176.697 17.3715 176.862 17.3821 177.026 17.394L177.035 17.2693C177.2 17.2812 177.363 17.2943 177.525 17.3087L177.514 17.4332C177.679 17.4479 177.842 17.4639 178.004 17.4811L178.017 17.3568C178.188 17.3751 178.357 17.3948 178.524 17.416L178.508 17.54C178.675 17.5611 178.839 17.5836 179.001 17.6076L179.02 17.484C179.183 17.508 179.344 17.5336 179.504 17.5606L179.483 17.6839C179.648 17.7118 179.81 17.7413 179.971 17.7724L179.995 17.6497C180.163 17.6822 180.329 17.7165 180.492 17.7526L180.465 17.8747C180.628 17.9105 180.788 17.948 180.946 17.9872L180.976 17.8659C181.135 17.9054 181.292 17.9467 181.446 17.9896L181.412 18.1101C181.577 18.1561 181.739 18.2041 181.899 18.2541L181.936 18.1349C182.098 18.1856 182.256 18.2384 182.412 18.2932L182.371 18.4111C182.525 18.4655 182.677 18.5219 182.825 18.5803L182.871 18.4639C183.029 18.5261 183.184 18.5905 183.336 18.6573L183.285 18.7717C183.439 18.8395 183.59 18.9097 183.737 18.9822L183.792 18.8701C183.941 18.9435 184.086 19.0193 184.228 19.0976L184.167 19.207C184.314 19.2878 184.456 19.3712 184.595 19.4572L184.661 19.351C184.804 19.4403 184.944 19.5325 185.08 19.6274L185.008 19.7298C185.142 19.8234 185.272 19.9198 185.397 20.0189L185.474 19.9208C185.607 20.0257 185.735 20.1336 185.859 20.2446L185.776 20.3376C185.898 20.4479 186.017 20.5612 186.13 20.6775L186.22 20.5902C186.335 20.709 186.447 20.8309 186.553 20.956L186.458 21.0369C186.564 21.1622 186.666 21.2908 186.762 21.4226L186.863 21.3487Z" stroke="url(#paint3_linear_4607_2847)" stroke-width="0.25" stroke-dasharray="0.5 0.5"/>
<circle cx="167.562" cy="55.5625" r="1.3125" fill="#D9D9D9"/>
<circle cx="171.062" cy="52.0625" r="1.3125" fill="#D9D9D9"/>
<circle cx="20.5625" cy="109.812" r="1.3125" fill="#53FEA9"/>
<defs>
<filter id="filter0_d_4607_2847" x="6.09082" y="3.68945" width="195.653" height="132.822" filterUnits="userSpaceOnUse" color-interpolation-filters="sRGB">
<feFlood flood-opacity="0" result="BackgroundImageFix"/>
<feColorMatrix in="SourceAlpha" type="matrix" values="0 0 0 0 0 0 0 0 0 0 0 0 0 0 0 0 0 0 127 0" result="hardAlpha"/>
<feOffset/>
<feGaussianBlur stdDeviation="6.5"/>
<feComposite in2="hardAlpha" operator="out"/>
<feColorMatrix type="matrix" values="0 0 0 0 0 0 0 0 0 1 0 0 0 0 0.7 0 0 0 0.25 0"/>
<feBlend mode="normal" in2="BackgroundImageFix" result="effect1_dropShadow_4607_2847"/>
<feBlend mode="normal" in="SourceGraphic" in2="effect1_dropShadow_4607_2847" result="shape"/>
</filter>
<radialGradient id="paint0_radial_4607_2847" cx="0" cy="0" r="1" gradientUnits="userSpaceOnUse" gradientTransform="translate(104.162 64.8732) rotate(105) scale(29.0319 29.1155)">
<stop stop-color="white"/>
<stop offset="1" stop-color="white" stop-opacity="0"/>
</radialGradient>
<radialGradient id="paint1_radial_4607_2847" cx="0" cy="0" r="1" gradientUnits="userSpaceOnUse" gradientTransform="translate(117.455 47.907) rotate(105) scale(4.3506 8.4502)">
<stop stop-color="white"/>
<stop offset="1" stop-color="white" stop-opacity="0"/>
</radialGradient>
<linearGradient id="paint2_linear_4607_2847" x1="103.917" y1="44.7254" x2="103.917" y2="95.4754" gradientUnits="userSpaceOnUse">
<stop offset="0.170133" stop-color="#53FDA9" stop-opacity="0"/>
<stop offset="0.878479" stop-color="#53FDA9"/>
</linearGradient>
<linearGradient id="paint3_linear_4607_2847" x1="117.25" y1="91.4375" x2="89.25" y2="49" gradientUnits="userSpaceOnUse">
<stop stop-color="white"/>
<stop offset="1" stop-color="white" stop-opacity="0"/>
</linearGradient>
</defs>
</svg>
