<svg width="560" height="230" viewBox="0 0 560 230" fill="none" xmlns="http://www.w3.org/2000/svg">
<g opacity="0.45" filter="url(#filter0_b_1896_3352)">
<rect width="560" height="230" rx="6" fill="#101011"/>
<rect x="0.5" y="0.5" width="559" height="229" rx="5.5" stroke="url(#paint0_linear_1896_3352)"/>
</g>
<circle cx="63.3513" cy="167.125" r="38.8747" stroke="url(#paint1_linear_1896_3352)" stroke-width="0.5"/>
<g filter="url(#filter1_d_1896_3352)">
<path d="M63.3513 128L97.2343 186.687H29.4683L63.3513 128Z" stroke="url(#paint2_linear_1896_3352)" stroke-width="0.5" stroke-linecap="round" stroke-dasharray="1 1" shape-rendering="crispEdges"/>
</g>
<g filter="url(#filter2_d_1896_3352)">
<path d="M63.3512 185.387L47.5391 157.999H79.1632L63.3512 185.387Z" fill="url(#paint3_linear_1896_3352)" shape-rendering="crispEdges"/>
<path d="M63.3512 185.387L47.5391 157.999H79.1632L63.3512 185.387Z" stroke="url(#paint4_linear_1896_3352)" stroke-width="0.5" stroke-linecap="round" stroke-dasharray="1 1" shape-rendering="crispEdges"/>
</g>
<path d="M63.819 165.85L63.8518 165.843L63.8847 165.837L63.9178 165.831L63.9509 165.826L63.9842 165.821L64.0176 165.816L64.0512 165.812L64.0848 165.807L64.1186 165.804L64.1524 165.8L64.1864 165.797L64.2204 165.794L64.2545 165.792L64.2888 165.79L64.3231 165.788L64.3575 165.786L64.392 165.785L64.4266 165.784L64.4612 165.784L64.4959 165.784L64.5307 165.784L64.5655 165.785L64.6005 165.786L64.6354 165.787L64.6704 165.789L64.7055 165.791L64.7406 165.793L64.7758 165.796L64.811 165.799L64.8463 165.802L64.8815 165.806L64.9169 165.81L64.9522 165.815L64.9876 165.82L65.0229 165.825L65.0583 165.831L65.0937 165.837L65.1292 165.843L65.1646 165.85L65.2 165.857L65.2354 165.864L65.2709 165.872L65.3063 165.88L65.3417 165.889L65.3771 165.898L65.4124 165.907L65.4477 165.917L65.4831 165.927L65.5183 165.937L65.5536 165.948L65.5888 165.959L65.6239 165.971L65.659 165.983L65.6941 165.995L65.7291 166.008L65.764 166.021L65.7989 166.034L65.8337 166.048L65.8685 166.062L65.9032 166.077L65.9378 166.092L65.9723 166.107L66.0067 166.123L66.041 166.139L66.0753 166.155L66.1094 166.172L66.1434 166.189L66.1774 166.207L66.2112 166.225L66.2449 166.243L66.2785 166.262L66.312 166.281L66.3453 166.3L66.3786 166.32L66.4116 166.34L66.4446 166.361L66.4774 166.382L66.51 166.403L66.5426 166.425L66.5749 166.447L66.6071 166.469L66.6391 166.492L66.671 166.515L66.7027 166.538L66.7343 166.562L66.7656 166.587L66.7968 166.611L66.8278 166.636L66.8586 166.661L66.8892 166.687L66.9196 166.713L66.9498 166.739L66.9798 166.766L67.0096 166.793L67.0391 166.821L67.0685 166.848L67.0976 166.876L67.1265 166.905L67.1552 166.934L67.1837 166.963L67.2119 166.992L67.2399 167.022L67.2676 167.052L67.2951 167.083L67.3223 167.114L67.3493 167.145L67.376 167.176L67.4024 167.208L67.4286 167.24L67.4545 167.273L67.4802 167.306L67.5055 167.339L67.5306 167.372L67.5554 167.406L67.5799 167.44L67.6041 167.475L67.628 167.509L67.6516 167.544L67.6749 167.58L67.6979 167.615L67.7206 167.651L67.743 167.687L67.765 167.724L67.7867 167.761L67.8081 167.798L67.8292 167.835L67.8499 167.873L67.8703 167.911L67.8904 167.949L67.9101 167.988L67.9295 168.026L67.9485 168.065L67.9671 168.105L67.9854 168.144L68.0034 168.184L68.021 168.224L68.0382 168.265L68.055 168.305L68.0715 168.346L68.0876 168.387L68.1033 168.428L68.1186 168.47L68.1335 168.512L68.1481 168.554L68.1622 168.596L68.176 168.639L68.1894 168.681L68.2023 168.724L68.2149 168.767L68.227 168.811L68.2388 168.854L68.2501 168.898L68.261 168.942L68.2715 168.986L68.2815 169.03L68.2912 169.075L68.3004 169.12L68.3092 169.165L68.3175 169.21L68.3254 169.255L68.3329 169.3L68.34 169.346L68.3466 169.392L68.3527 169.438L68.3584 169.484L68.3637 169.53L68.3685 169.576L68.3728 169.623L68.3767 169.669L68.3801 169.716L68.3831 169.763L68.3856 169.81L68.3876 169.857L68.3892 169.904L68.3903 169.951L68.3909 169.999L68.3911 170.046L68.3907 170.094L68.3899 170.142L68.3886 170.189L68.3869 170.237L68.3846 170.285L68.3819 170.333L68.3787 170.381L68.375 170.429L68.3708 170.478L68.3661 170.526L68.3609 170.574L68.3553 170.623L68.3491 170.671L68.3424 170.719L68.3353 170.768L68.3276 170.816L68.3194 170.865L68.3108 170.913L68.3016 170.962L68.2919 171.01L68.2818 171.059L68.2711 171.107L68.2599 171.156L68.2482 171.204L68.236 171.253L68.2233 171.301L68.21 171.349L68.1963 171.398L68.1821 171.446L68.1673 171.494L68.152 171.543L68.1363 171.591L68.12 171.639L68.1031 171.687L68.0858 171.735L68.068 171.783L68.0496 171.83L68.0308 171.878L68.0114 171.926L67.9915 171.973L67.9711 172.02L67.9502 172.068L67.9287 172.115L67.9068 172.162L67.8843 172.209L67.8613 172.255L67.8378 172.302L67.8138 172.349L67.7893 172.395L67.7643 172.441L67.7387 172.487L67.7127 172.533L67.6861 172.579L67.659 172.624L67.6315 172.669L67.6034 172.714L67.5748 172.759L67.5457 172.804L67.5161 172.849L67.486 172.893L67.4553 172.937L67.4242 172.981L67.3926 173.025L67.3605 173.068L67.3279 173.111L67.2948 173.154L67.2612 173.197L67.2271 173.239L67.1925 173.281L67.1574 173.323L67.1218 173.365L67.0858 173.406L67.0492 173.448L67.0122 173.488L66.9747 173.529L66.9367 173.569L66.8983 173.609L66.8593 173.649L66.8199 173.688L66.7801 173.727L66.7397 173.766L66.6989 173.804L66.6576 173.842L66.6159 173.879L66.5737 173.917L66.531 173.954L66.4879 173.99L66.4444 174.027L66.4004 174.062L66.3559 174.098L66.311 174.133L66.2657 174.168L66.2199 174.202L66.1737 174.236L66.1271 174.27L66.08 174.303L66.0325 174.336L65.9846 174.368L65.9363 174.4L65.8876 174.431L65.8384 174.463L65.7888 174.493L65.7389 174.523L65.6885 174.553L65.6378 174.583L65.5866 174.611L65.5351 174.64L65.4832 174.668L65.4308 174.695L65.3782 174.722L65.3251 174.749L65.2717 174.775L65.2179 174.801L65.1637 174.826L65.1092 174.85L65.0543 174.874L64.9991 174.898L64.9436 174.921L64.8877 174.944L64.8314 174.966L64.7749 174.987L64.718 175.008L64.6608 175.029L64.6033 175.049L64.5454 175.068L64.4873 175.087L64.4288 175.105L64.3701 175.123L64.311 175.14L64.2517 175.157L64.1921 175.173L64.1322 175.189L64.072 175.204L64.0116 175.218L63.9509 175.232L63.8899 175.245L63.8287 175.258L63.7673 175.27L63.7056 175.281L63.6437 175.292L63.5815 175.303L63.5191 175.312L63.4565 175.321L63.3937 175.33L63.3307 175.338L63.2675 175.345L63.2041 175.352L63.1405 175.358L63.0767 175.363L63.0127 175.368L62.9486 175.372L62.8843 175.375L62.8198 175.378L62.7552 175.38L62.6904 175.382L62.6255 175.383L62.5604 175.383L62.4953 175.383L62.43 175.382L62.3645 175.38L62.299 175.377L62.2334 175.374L62.1677 175.371L62.1018 175.366L62.0359 175.361L61.9699 175.356L61.9039 175.349L61.8378 175.342L61.7716 175.335L61.7053 175.326L61.6391 175.317L61.5728 175.307L61.5064 175.297L61.44 175.286L61.3736 175.274L61.3072 175.262L61.2408 175.248L61.1744 175.234L61.108 175.22L61.0417 175.205L60.9753 175.189L60.909 175.172L60.8427 175.155L60.7764 175.137L60.7103 175.118L60.6441 175.098L60.5781 175.078L60.5121 175.057L60.4462 175.036L60.3803 175.014L60.3146 174.991L60.249 174.967L60.1834 174.943L60.118 174.918L60.0528 174.892L59.9876 174.865L59.9226 174.838L59.8577 174.81L59.793 174.782L59.7285 174.752L59.6641 174.722L59.5999 174.692L59.5358 174.66L59.472 174.628L59.4083 174.595L59.3449 174.562L59.2817 174.528L59.2187 174.493L59.1559 174.457L59.0933 174.421L59.031 174.384L58.969 174.346L58.9072 174.308L58.8457 174.269L58.7844 174.229L58.7234 174.188L58.6627 174.147L58.6023 174.105L58.5422 174.063L58.4824 174.019L58.4229 173.976L58.3638 173.931L58.305 173.886L58.2465 173.84L58.1884 173.793L58.1306 173.746L58.0732 173.698L58.0161 173.649L57.9594 173.6L57.9031 173.55L57.8472 173.499L57.7917 173.448L57.7366 173.396L57.682 173.343L57.6277 173.29L57.5739 173.236L57.5204 173.182L57.4675 173.127L57.415 173.071L57.3629 173.014L57.3113 172.957L57.2602 172.899L57.2096 172.841L57.1594 172.782L57.1098 172.723L57.0606 172.662L57.012 172.602L56.9638 172.54L56.9162 172.478L56.8691 172.415L56.8226 172.352L56.7766 172.288L56.7311 172.224L56.6862 172.159L56.6419 172.094L56.5981 172.027L56.5549 171.961L56.5123 171.894L56.4703 171.826L56.4288 171.757L56.388 171.688L56.3478 171.619L56.3082 171.549L56.2693 171.478L56.2309 171.407L56.1932 171.336L56.1562 171.264L56.1198 171.191L56.084 171.118L56.0489 171.044L56.0145 170.97L55.9808 170.896L55.9477 170.821L55.9154 170.745L55.8837 170.669L55.8527 170.593L55.8224 170.516L55.7929 170.438L55.764 170.36L55.7359 170.282L55.7085 170.203L55.6819 170.124L55.656 170.045L55.6308 169.965L55.6064 169.884L55.5827 169.803L55.5598 169.722L55.5377 169.641L55.5164 169.559L55.4958 169.476L55.476 169.394L55.457 169.311L55.4388 169.227L55.4214 169.143L55.4048 169.059L55.389 168.975L55.3741 168.89L55.3599 168.805L55.3466 168.72L55.3341 168.634L55.3225 168.548L55.3116 168.462L55.3017 168.375L55.2925 168.288L55.2843 168.201L55.2768 168.114L55.2703 168.026L55.2646 167.939L55.2598 167.851L55.2558 167.762L55.2527 167.674L55.2505 167.585L55.2492 167.496L55.2488 167.407L55.2493 167.318L55.2506 167.229L55.2529 167.139L55.256 167.049L55.2601 166.96L55.2651 166.87L55.271 166.78L55.2778 166.689L55.2855 166.599L55.2941 166.509L55.3037 166.418L55.3142 166.327L55.3256 166.237L55.3379 166.146L55.3512 166.055L55.3654 165.964L55.3806 165.874L55.3966 165.783L55.4137 165.692L55.4317 165.601L55.4506 165.51L55.4705 165.419L55.4913 165.328L55.513 165.237L55.5358 165.146L55.5594 165.056L55.5841 164.965L55.6097 164.874L55.6362 164.784L55.6637 164.693L55.6922 164.603L55.7216 164.513L55.752 164.423L55.7834 164.333L55.8157 164.243L55.849 164.153L55.8832 164.063L55.9184 163.974L55.9546 163.885L55.9917 163.796L56.0298 163.707L56.0689 163.618L56.1089 163.53L56.1499 163.442L56.1919 163.354L56.2348 163.266L56.2787 163.179L56.3236 163.092L56.3694 163.005L56.4161 162.918L56.4638 162.832L56.5125 162.746L56.5622 162.66L56.6128 162.575L56.6643 162.49L56.7168 162.405L56.7703 162.321L56.8247 162.237L56.88 162.154L56.9363 162.07L56.9935 161.988L57.0517 161.905L57.1108 161.823L57.1709 161.742L57.2319 161.661L57.2938 161.58L57.3566 161.5L57.4204 161.421L57.4851 161.342L57.5507 161.263L57.6172 161.185L57.6846 161.107L57.753 161.03L57.8222 160.953L57.8924 160.877L57.9635 160.802L58.0354 160.727L58.1082 160.653L58.182 160.579L58.2566 160.506L58.3321 160.433L58.4084 160.361L58.4857 160.29L58.5638 160.219L58.6427 160.149L58.7225 160.08L58.8032 160.011L58.8847 159.943L58.9671 159.876L59.0503 159.809L59.1343 159.743L59.2191 159.678L59.3048 159.613L59.3913 159.55L59.4786 159.486L59.5666 159.424L59.6555 159.363L59.7452 159.302L59.8357 159.242L59.9269 159.183L60.0189 159.124L60.1117 159.067L60.2052 159.01L60.2995 158.954L60.3945 158.899L60.4903 158.845L60.5868 158.791L60.684 158.739L60.7819 158.687L60.8806 158.636L60.9799 158.586L61.0799 158.537L61.1807 158.489L61.2821 158.442L61.3841 158.396L61.4869 158.35L61.5903 158.306L61.6943 158.262L61.799 158.22L61.9043 158.178L62.0102 158.138L62.1168 158.098L62.2239 158.06L62.3317 158.022L62.44 157.986L62.5489 157.95L62.6584 157.916L62.7684 157.882L62.879 157.85L62.9901 157.818L63.1018 157.788L63.214 157.758L63.3266 157.73L63.4398 157.703L63.5535 157.677L63.6677 157.652L63.7824 157.628L63.8975 157.605L64.013 157.584L64.129 157.563L64.2455 157.543L64.3623 157.525L64.4796 157.508L64.5973 157.492L64.7153 157.477L64.8338 157.463L64.9526 157.451L65.0718 157.439L65.1913 157.429L65.3111 157.42L65.4313 157.412L65.5518 157.405L65.6726 157.4L65.7937 157.395L65.9151 157.392L66.0367 157.39L66.1586 157.39L66.2807 157.39L66.4031 157.392L66.5257 157.395L66.6485 157.399L66.7715 157.405L66.8946 157.412L67.018 157.419L67.1415 157.429L67.2652 157.439L67.389 157.451L67.5129 157.464L67.6369 157.478L67.7611 157.494L67.8853 157.51L68.0096 157.529L68.134 157.548L68.2584 157.569L68.3828 157.59L68.5073 157.614L68.6317 157.638L68.7562 157.664L68.8807 157.691L69.0051 157.719L69.1295 157.749L69.2538 157.78L69.3781 157.812L69.5023 157.846L69.6264 157.881L69.7503 157.917L69.8742 157.955L69.9979 157.994L70.1215 158.034L70.2449 158.075L70.3682 158.118L70.4912 158.162L70.6141 158.208L70.7367 158.255L70.8591 158.303L70.9813 158.352L71.1032 158.403L71.2248 158.455L71.3462 158.508L71.4672 158.563L71.588 158.619L71.7084 158.676L71.8284 158.735L71.9482 158.795L72.0675 158.856L72.1865 158.919L72.3051 158.983L72.4232 159.048L72.541 159.115L72.6583 159.183L72.7752 159.252L72.8916 159.322L73.0075 159.394L73.1229 159.467L73.2378 159.541L73.3522 159.617L73.4661 159.694L73.5794 159.772L73.6921 159.852L73.8043 159.933L73.9159 160.015L74.0268 160.098L74.1372 160.183L74.2469 160.269L74.356 160.356L74.4644 160.444L74.5722 160.534L74.6792 160.625L74.7856 160.717L74.8912 160.811L74.9961 160.906L75.1002 161.001L75.2036 161.099L75.3063 161.197L75.4081 161.297L75.5092 161.398L75.6094 161.5L75.7088 161.603L75.8073 161.707L75.905 161.813L76.0019 161.92L76.0978 162.028L76.1929 162.137L76.2871 162.247L76.3803 162.359L76.4726 162.472L76.5639 162.585L76.6543 162.7L76.7437 162.816L76.8322 162.934L76.9196 163.052L77.006 163.171L77.0914 163.292L77.1757 163.413L77.259 163.536L77.3412 163.66L77.4223 163.785L77.5024 163.911L77.5813 164.037L77.6592 164.165L77.7358 164.294L77.8114 164.424L77.8858 164.555L77.959 164.688L78.0311 164.821L78.1019 164.955L78.1716 165.09L78.24 165.225L78.3072 165.362L78.3732 165.5L78.4379 165.639L78.5013 165.779L78.5635 165.919L78.6244 166.061L78.684 166.203L78.7422 166.346L78.7992 166.49L78.8548 166.635L78.9091 166.781L78.962 166.928L79.0136 167.075L79.0638 167.223L79.1125 167.373L79.1599 167.522L79.2059 167.673L79.2505 167.824L79.2936 167.976L79.3353 168.129L79.3756 168.283L79.4144 168.437L79.4517 168.592L79.4875 168.747L79.5219 168.904L79.5547 169.061L79.5861 169.218L79.6159 169.376L79.6442 169.535L79.6709 169.695L79.6962 169.854L79.7198 170.015L79.7419 170.176L79.7625 170.338L79.7814 170.5L79.7988 170.662L79.8145 170.826L79.8287 170.989L79.8413 171.153L79.8522 171.318L79.8615 171.483L79.8692 171.648L79.8752 171.814L79.8796 171.98L79.8823 172.146L79.8834 172.313L79.8828 172.48L79.8805 172.648L79.8765 172.816L79.8709 172.984L79.8635 173.152L79.8545 173.321L79.8437 173.49L79.8313 173.659L79.8171 173.828L79.8011 173.998L79.7835 174.167L79.7641 174.337L79.743 174.507L79.7201 174.677L79.6955 174.847L79.6692 175.017L79.6411 175.188L79.6112 175.358L79.5795 175.529L79.5461 175.699L79.5109 175.869L79.474 176.04L79.4352 176.21L79.3947 176.38L79.3524 176.551L79.3083 176.721L79.2624 176.891L79.2147 177.061L79.1652 177.23L79.1139 177.4L79.0609 177.569L79.006 177.739L78.9493 177.908L78.8908 178.076L78.8305 178.245L78.7684 178.413L78.7045 178.581L78.6388 178.749L78.5713 178.916L78.502 179.083L78.4308 179.249L78.3579 179.416L78.2831 179.581L78.2066 179.747L78.1282 179.912L78.0481 180.076L77.9661 180.24L77.8823 180.403L77.7967 180.566L77.7094 180.729L77.6202 180.891L77.5292 181.052L77.4365 181.213L77.3419 181.373L77.2456 181.532L77.1474 181.691L77.0475 181.849L76.9458 182.006L76.8424 182.163L76.7371 182.319L76.6301 182.474L76.5214 182.628L76.4109 182.782L76.2986 182.935L76.1845 183.087L76.0688 183.238L75.9512 183.388L75.832 183.538L75.711 183.686L75.5883 183.834L75.4639 183.98L75.3377 184.126L75.2099 184.271L75.0804 184.415L74.9491 184.557L74.8162 184.699L74.6816 184.839L74.5453 184.979L74.4074 185.117L74.2678 185.255L74.1266 185.391L73.9837 185.526L73.8392 185.66L73.693 185.793L73.5453 185.924L73.3959 186.054L73.245 186.183L73.0924 186.311L72.9383 186.437L72.7826 186.563L72.6254 186.686L72.4666 186.809L72.3063 186.93L72.1444 187.05L71.981 187.168L71.8162 187.285L71.6498 187.401L71.4819 187.515L71.3126 187.628L71.1418 187.739L70.9696 187.849L70.7959 187.957L70.6208 188.064L70.4443 188.169L70.2664 188.272L70.0871 188.374L69.9065 188.475L69.7245 188.573L69.5411 188.671L69.3564 188.766L69.1704 188.86L68.9831 188.952L68.7945 189.042L68.6046 189.131L68.4135 189.218L68.2211 189.303L68.0275 189.387L67.8327 189.469L67.6367 189.549L67.4395 189.627L67.2411 189.703L67.0416 189.777L66.8409 189.85L66.6391 189.921L66.4362 189.99L66.2323 190.057L66.0272 190.122L65.8211 190.185L65.614 190.246L65.4059 190.305L65.1967 190.362L64.9866 190.418L64.7755 190.471L64.5635 190.522L64.3505 190.571L64.1366 190.619L63.9219 190.664L63.7063 190.707L63.4898 190.748L63.2725 190.787L63.0543 190.824L62.8354 190.858L62.6157 190.891L62.3952 190.921L62.1741 190.949L61.9521 190.976L61.7295 191L61.5063 191.021L61.2823 191.041L61.0578 191.058L60.8326 191.073L60.6068 191.086L60.3805 191.097L60.1536 191.105L59.9262 191.112L59.6983 191.116L59.4699 191.117L59.241 191.117L59.0117 191.114L58.782 191.108L58.5519 191.101L58.3214 191.091L58.0905 191.079L57.8594 191.064L57.6279 191.047L57.3961 191.028L57.1641 191.006L56.9319 190.982L56.6994 190.956L56.4667 190.927L56.2339 190.896L56.0009 190.863L55.7679 190.827L55.5347 190.789L55.3014 190.748L55.0681 190.705L54.8348 190.659L54.6015 190.611L54.3682 190.561L54.1349 190.508L53.9018 190.453L53.6687 190.395L53.4357 190.335L53.2029 190.272L52.9703 190.207L52.7379 190.139L52.5057 190.069L52.2737 189.997L52.042 189.922L51.8106 189.845L51.5796 189.765L51.3488 189.682L51.1185 189.598L50.8886 189.51L50.6591 189.421L50.43 189.328L50.2014 189.234L49.9733 189.136L49.7458 189.037L49.5188 188.935L49.2924 188.83L49.0665 188.723L48.8414 188.613L48.6168 188.501L48.393 188.387L48.1699 188.27L47.9475 188.15L47.7259 188.028L47.505 187.904L47.285 187.777L47.0658 187.648L46.8475 187.516L46.6301 187.382L46.4136 187.246L46.198 187.107L45.9834 186.965L45.7698 186.821L45.5573 186.675L45.3458 186.526L45.1353 186.375L44.926 186.222L44.7178 186.066L44.5108 185.907L44.3049 185.747L44.1003 185.584L43.8968 185.418L43.6947 185.25L43.4938 185.08L43.2943 184.908L43.096 184.733L42.8992 184.556L42.7037 184.376L42.5097 184.194L42.3171 184.01L42.1259 183.824L41.9363 183.635L41.7482 183.444L41.5616 183.251L41.3766 183.056L41.1932 182.858L41.0114 182.658L40.8313 182.456L40.6528 182.252L40.4761 182.045L40.301 181.836L40.1277 181.626L39.9562 181.413L39.7865 181.197L39.6186 180.98L39.4526 180.761L39.2884 180.539L39.1261 180.316L38.9658 180.09L38.8074 179.863L38.651 179.633L38.4965 179.401L38.3441 179.168L38.1938 178.932L38.0455 178.695L37.8992 178.455L37.7552 178.213L37.6132 177.97L37.4734 177.725L37.3358 177.478L37.2004 177.228L37.0672 176.978L36.9363 176.725L36.8077 176.47L36.6813 176.214L36.5573 175.956L36.4356 175.696L36.3163 175.435L36.1994 175.171L36.0849 174.906L35.9728 174.64L35.8632 174.372L35.756 174.102L35.6514 173.83L35.5492 173.557L35.4496 173.283L35.3526 173.006L35.2581 172.729L35.1662 172.45L35.077 172.169L34.9904 171.887L34.9064 171.604L34.8251 171.319L34.7465 171.032L34.6706 170.745L34.5975 170.456L34.5271 170.166L34.4595 169.874L34.3947 169.582L34.3326 169.288L34.2734 168.993L34.2171 168.696L34.1636 168.399L34.1129 168.1L34.0652 167.801L34.0204 167.5L33.9785 167.198L33.9395 166.895L33.9035 166.592L33.8705 166.287L33.8405 165.981L33.8134 165.675L33.7894 165.367L33.7684 165.059L33.7505 164.75L33.7356 164.44L33.7238 164.13L33.7151 163.819L33.7095 163.507L33.707 163.194L33.7077 162.881L33.7114 162.567L33.7184 162.252L33.7285 161.937L33.7417 161.622L33.7582 161.306L33.7779 160.989L33.8007 160.672L33.8268 160.355L33.8561 160.037L33.8887 159.719L33.9245 159.401L33.9635 159.083L34.0059 158.764L34.0515 158.445L34.1004 158.126L34.1526 157.807L34.208 157.487L34.2668 157.168L34.3289 156.848L34.3944 156.529L34.4631 156.21L34.5352 155.89L34.6107 155.571L34.6894 155.252L34.7716 154.933L34.8571 154.614L34.9459 154.296L35.0381 153.977L35.1337 153.659L35.2327 153.342L35.335 153.025L35.4407 152.708L35.5498 152.391L35.6623 152.075L35.7781 151.76L35.8974 151.445L36.02 151.131L36.146 150.817L36.2754 150.504L36.4082 150.192L36.5444 149.88L36.684 149.57L36.8269 149.259L36.9733 148.95L37.123 148.642L37.2761 148.334L37.4326 148.028L37.5925 147.722L37.7557 147.418L37.9224 147.114L38.0923 146.812L38.2657 146.51L38.4424 146.21L38.6224 145.911L38.8058 145.614L38.9926 145.317L39.1826 145.022L39.376 144.728L39.5728 144.435L39.7728 144.144L39.9762 143.855L40.1828 143.566L40.3928 143.28L40.606 142.994L40.8225 142.711L41.0423 142.429L41.2653 142.149L41.4915 141.87L41.721 141.593L41.9537 141.318L42.1897 141.044L42.4288 140.773L42.6711 140.503L42.9166 140.235L43.1653 139.97L43.4171 139.706L43.672 139.444L43.93 139.184L44.1912 138.926L44.4555 138.671L44.7228 138.417L44.9932 138.166L45.2666 137.917L45.5431 137.67L45.8226 137.426L46.1051 137.184L46.3905 136.944L46.6789 136.706L46.9703 136.471L47.2646 136.239L47.5618 136.009L47.8618 135.781L48.1648 135.556L48.4706 135.334L48.7792 135.114L49.0906 134.897L49.4048 134.683L49.7217 134.471L50.0414 134.262L50.3638 134.056L50.6889 133.853L51.0167 133.652L51.3471 133.455L51.6802 133.26L52.0158 133.069L52.3541 132.88L52.6948 132.694L53.0381 132.512L53.384 132.332L53.7322 132.156L54.0829 131.983L54.4361 131.813L54.7916 131.646L55.1495 131.482L55.5098 131.322L55.8723 131.165L56.2371 131.011L56.6042 130.861L56.9735 130.714L57.345 130.57L57.7187 130.43L58.0945 130.293L58.4724 130.16L58.8523 130.031L59.2343 129.905L59.6184 129.782L60.0044 129.663L60.3923 129.548L60.7821 129.436L61.1739 129.328L61.5674 129.224L61.9628 129.124L62.36 129.027L62.7589 128.934L63.1595 128.845L63.5618 128.76" stroke="url(#paint5_linear_1896_3352)" stroke-width="0.25"/>
<path d="M62.0186 167.357L61.9967 167.332L61.975 167.306L61.9535 167.28L61.9322 167.254L61.9111 167.228L61.8902 167.202L61.8696 167.175L61.8492 167.148L61.829 167.12L61.8091 167.093L61.7894 167.065L61.7699 167.037L61.7507 167.009L61.7317 166.98L61.713 166.951L61.6946 166.922L61.6763 166.893L61.6584 166.863L61.6407 166.834L61.6233 166.803L61.6061 166.773L61.5892 166.743L61.5726 166.712L61.5563 166.681L61.5402 166.65L61.5244 166.619L61.5089 166.587L61.4937 166.555L61.4788 166.523L61.4641 166.491L61.4498 166.458L61.4357 166.426L61.422 166.393L61.4086 166.36L61.3954 166.326L61.3826 166.293L61.3701 166.259L61.3579 166.226L61.346 166.191L61.3344 166.157L61.3232 166.123L61.3122 166.088L61.3016 166.053L61.2914 166.019L61.2814 165.983L61.2718 165.948L61.2625 165.913L61.2536 165.877L61.245 165.841L61.2367 165.805L61.2288 165.769L61.2212 165.733L61.214 165.697L61.2072 165.66L61.2006 165.624L61.1945 165.587L61.1887 165.55L61.1832 165.513L61.1781 165.476L61.1734 165.438L61.169 165.401L61.165 165.363L61.1614 165.326L61.1582 165.288L61.1553 165.25L61.1528 165.212L61.1506 165.174L61.1489 165.136L61.1475 165.098L61.1465 165.059L61.1459 165.021L61.1457 164.982L61.1458 164.944L61.1464 164.905L61.1473 164.866L61.1486 164.827L61.1503 164.789L61.1524 164.75L61.1549 164.711L61.1578 164.672L61.1611 164.633L61.1648 164.593L61.1689 164.554L61.1734 164.515L61.1783 164.476L61.1836 164.437L61.1892 164.397L61.1953 164.358L61.2019 164.319L61.2088 164.279L61.2161 164.24L61.2238 164.201L61.232 164.161L61.2405 164.122L61.2495 164.083L61.2588 164.043L61.2686 164.004L61.2788 163.965L61.2894 163.926L61.3004 163.886L61.3119 163.847L61.3237 163.808L61.336 163.769L61.3487 163.73L61.3618 163.691L61.3753 163.652L61.3892 163.613L61.4036 163.574L61.4183 163.535L61.4335 163.497L61.4491 163.458L61.4652 163.42L61.4816 163.381L61.4984 163.343L61.5157 163.305L61.5334 163.266L61.5515 163.228L61.57 163.19L61.589 163.153L61.6083 163.115L61.6281 163.077L61.6483 163.04L61.6689 163.002L61.6899 162.965L61.7113 162.928L61.7332 162.891L61.7554 162.854L61.7781 162.818L61.8012 162.781L61.8246 162.745L61.8485 162.709L61.8728 162.673L61.8976 162.637L61.9227 162.601L61.9482 162.566L61.9741 162.531L62.0005 162.495L62.0272 162.461L62.0544 162.426L62.0819 162.391L62.1098 162.357L62.1382 162.323L62.1669 162.289L62.1961 162.256L62.2256 162.222L62.2555 162.189L62.2858 162.156L62.3165 162.123L62.3476 162.091L62.3791 162.059L62.4109 162.027L62.4431 161.995L62.4758 161.964L62.5088 161.933L62.5421 161.902L62.5759 161.871L62.61 161.841L62.6445 161.811L62.6793 161.781L62.7146 161.751L62.7502 161.722L62.7861 161.693L62.8224 161.665L62.8591 161.637L62.8961 161.609L62.9335 161.581L62.9712 161.554L63.0093 161.527L63.0477 161.5L63.0864 161.474L63.1255 161.448L63.165 161.422L63.2048 161.397L63.2449 161.372L63.2853 161.347L63.326 161.323L63.3671 161.299L63.4085 161.275L63.4502 161.252L63.4922 161.23L63.5346 161.207L63.5772 161.185L63.6202 161.163L63.6634 161.142L63.707 161.121L63.7508 161.101L63.7949 161.081L63.8394 161.061L63.8841 161.042L63.929 161.023L63.9743 161.005L64.0198 160.987L64.0656 160.969L64.1117 160.952L64.158 160.935L64.2046 160.919L64.2515 160.903L64.2985 160.887L64.3459 160.872L64.3935 160.858L64.4413 160.844L64.4893 160.83L64.5376 160.817L64.5861 160.804L64.6349 160.792L64.6838 160.78L64.733 160.769L64.7824 160.758L64.8319 160.747L64.8817 160.738L64.9317 160.728L64.9819 160.719L65.0322 160.711L65.0828 160.703L65.1335 160.695L65.1844 160.688L65.2355 160.682L65.2867 160.676L65.3381 160.67L65.3896 160.665L65.4413 160.661L65.4931 160.657L65.5451 160.653L65.5972 160.65L65.6495 160.648L65.7019 160.646L65.7544 160.644L65.807 160.644L65.8597 160.643L65.9125 160.643L65.9655 160.644L66.0185 160.645L66.0716 160.647L66.1248 160.649L66.1781 160.652L66.2315 160.656L66.2849 160.659L66.3384 160.664L66.392 160.669L66.4456 160.675L66.4993 160.681L66.553 160.687L66.6067 160.694L66.6605 160.702L66.7143 160.711L66.7681 160.719L66.822 160.729L66.8758 160.739L66.9297 160.749L66.9835 160.76L67.0374 160.772L67.0912 160.784L67.145 160.797L67.1988 160.81L67.2526 160.824L67.3063 160.839L67.36 160.854L67.4137 160.869L67.4673 160.886L67.5208 160.902L67.5743 160.92L67.6277 160.938L67.6811 160.956L67.7343 160.975L67.7875 160.995L67.8405 161.015L67.8935 161.036L67.9464 161.057L67.9991 161.079L68.0518 161.101L68.1043 161.124L68.1567 161.148L68.209 161.172L68.2611 161.197L68.3131 161.222L68.3649 161.248L68.4165 161.274L68.468 161.301L68.5194 161.329L68.5705 161.357L68.6215 161.386L68.6723 161.415L68.7229 161.445L68.7732 161.476L68.8234 161.507L68.8734 161.538L68.9231 161.57L68.9727 161.603L69.0219 161.636L69.071 161.67L69.1198 161.704L69.1684 161.739L69.2167 161.775L69.2647 161.811L69.3125 161.847L69.36 161.884L69.4073 161.922L69.4542 161.96L69.5009 161.999L69.5472 162.038L69.5933 162.078L69.639 162.118L69.6844 162.159L69.7295 162.201L69.7743 162.243L69.8188 162.285L69.8629 162.328L69.9066 162.372L69.95 162.416L69.9931 162.461L70.0358 162.506L70.0781 162.551L70.12 162.598L70.1616 162.644L70.2028 162.691L70.2436 162.739L70.284 162.787L70.324 162.836L70.3635 162.885L70.4027 162.935L70.4414 162.985L70.4797 163.036L70.5176 163.087L70.5551 163.138L70.592 163.191L70.6286 163.243L70.6647 163.296L70.7003 163.35L70.7355 163.404L70.7702 163.458L70.8044 163.513L70.8381 163.568L70.8714 163.624L70.9041 163.68L70.9364 163.737L70.9681 163.794L70.9993 163.851L71.0301 163.909L71.0603 163.968L71.0899 164.026L71.1191 164.086L71.1477 164.145L71.1757 164.205L71.2033 164.266L71.2302 164.326L71.2566 164.387L71.2825 164.449L71.3078 164.511L71.3325 164.573L71.3566 164.636L71.3802 164.699L71.4031 164.762L71.4255 164.826L71.4473 164.89L71.4685 164.955L71.4891 165.019L71.509 165.085L71.5284 165.15L71.5471 165.216L71.5653 165.282L71.5827 165.348L71.5996 165.415L71.6158 165.482L71.6314 165.549L71.6464 165.617L71.6606 165.685L71.6743 165.753L71.6873 165.821L71.6996 165.89L71.7113 165.959L71.7222 166.028L71.7326 166.097L71.7422 166.167L71.7512 166.237L71.7595 166.307L71.7671 166.377L71.774 166.448L71.7802 166.519L71.7857 166.59L71.7905 166.661L71.7946 166.732L71.798 166.804L71.8007 166.875L71.8027 166.947L71.804 167.019L71.8045 167.091L71.8043 167.164L71.8035 167.236L71.8018 167.309L71.7995 167.382L71.7964 167.454L71.7925 167.527L71.788 167.6L71.7827 167.674L71.7766 167.747L71.7698 167.82L71.7623 167.894L71.754 167.967L71.7449 168.041L71.7351 168.114L71.7246 168.188L71.7133 168.261L71.7012 168.335L71.6884 168.409L71.6748 168.483L71.6604 168.556L71.6453 168.63L71.6294 168.704L71.6127 168.777L71.5953 168.851L71.577 168.925L71.558 168.998L71.5383 169.072L71.5177 169.145L71.4964 169.219L71.4743 169.292L71.4515 169.366L71.4278 169.439L71.4034 169.512L71.3782 169.585L71.3522 169.658L71.3254 169.731L71.2979 169.803L71.2695 169.876L71.2404 169.948L71.2105 170.021L71.1798 170.093L71.1483 170.165L71.1161 170.236L71.0831 170.308L71.0493 170.379L71.0147 170.45L70.9793 170.521L70.9431 170.592L70.9062 170.663L70.8685 170.733L70.83 170.803L70.7907 170.873L70.7507 170.942L70.7099 171.012L70.6683 171.081L70.6259 171.149L70.5828 171.218L70.5389 171.286L70.4942 171.354L70.4488 171.421L70.4026 171.488L70.3556 171.555L70.3079 171.622L70.2594 171.688L70.2101 171.754L70.1601 171.819L70.1094 171.884L70.0579 171.949L70.0056 172.013L69.9526 172.077L69.8989 172.141L69.8444 172.204L69.7892 172.267L69.7332 172.329L69.6765 172.391L69.6191 172.452L69.5609 172.513L69.502 172.573L69.4425 172.633L69.3821 172.693L69.3211 172.752L69.2594 172.81L69.1969 172.868L69.1338 172.926L69.0699 172.982L69.0054 173.039L68.9402 173.095L68.8743 173.15L68.8077 173.205L68.7404 173.259L68.6724 173.313L68.6038 173.366L68.5345 173.418L68.4646 173.47L68.3939 173.522L68.3227 173.572L68.2508 173.622L68.1782 173.672L68.105 173.721L68.0312 173.769L67.9568 173.816L67.8817 173.863L67.806 173.91L67.7297 173.955L67.6528 174L67.5753 174.044L67.4972 174.088L67.4185 174.131L67.3393 174.173L67.2594 174.214L67.179 174.255L67.098 174.295L67.0165 174.334L66.9344 174.372L66.8518 174.41L66.7686 174.447L66.6849 174.483L66.6007 174.519L66.5159 174.553L66.4307 174.587L66.3449 174.62L66.2586 174.653L66.1719 174.684L66.0846 174.715L65.9969 174.745L65.9087 174.774L65.82 174.802L65.7309 174.83L65.6413 174.856L65.5513 174.882L65.4609 174.907L65.37 174.931L65.2787 174.954L65.1871 174.976L65.095 174.998L65.0025 175.018L64.9096 175.038L64.8163 175.057L64.7227 175.074L64.6287 175.091L64.5344 175.107L64.4397 175.123L64.3447 175.137L64.2493 175.15L64.1537 175.162L64.0577 175.174L63.9614 175.184L63.8648 175.194L63.768 175.202L63.6709 175.21L63.5735 175.217L63.4758 175.222L63.3779 175.227L63.2798 175.231L63.1814 175.234L63.0828 175.235L62.984 175.236L62.885 175.236L62.7858 175.235L62.6864 175.233L62.5869 175.23L62.4872 175.226L62.3873 175.22L62.2873 175.214L62.1872 175.207L62.0869 175.199L61.9865 175.19L61.8861 175.179L61.7855 175.168L61.6848 175.156L61.5841 175.142L61.4833 175.128L61.3825 175.113L61.2816 175.096L61.1806 175.079L61.0797 175.06L60.9787 175.041L60.8778 175.02L60.7768 174.998L60.6759 174.976L60.575 174.952L60.4742 174.927L60.3734 174.901L60.2726 174.874L60.172 174.846L60.0714 174.817L59.9709 174.787L59.8705 174.755L59.7703 174.723L59.6701 174.69L59.5701 174.655L59.4703 174.62L59.3706 174.583L59.2711 174.546L59.1718 174.507L59.0726 174.467L58.9737 174.426L58.875 174.384L58.7765 174.341L58.6783 174.297L58.5803 174.252L58.4825 174.206L58.3851 174.159L58.2879 174.11L58.191 174.061L58.0944 174.01L57.9982 173.959L57.9022 173.906L57.8066 173.853L57.7114 173.798L57.6165 173.742L57.522 173.685L57.4279 173.627L57.3342 173.568L57.2408 173.508L57.1479 173.447L57.0555 173.385L56.9634 173.322L56.8719 173.258L56.7808 173.192L56.6901 173.126L56.6 173.059L56.5103 172.99L56.4212 172.921L56.3326 172.851L56.2445 172.779L56.157 172.707L56.07 172.633L55.9836 172.559L55.8978 172.483L55.8125 172.407L55.7279 172.329L55.6438 172.25L55.5604 172.171L55.4776 172.09L55.3955 172.009L55.314 171.926L55.2332 171.843L55.1531 171.758L55.0737 171.673L54.9949 171.587L54.9169 171.499L54.8396 171.411L54.763 171.322L54.6872 171.232L54.6121 171.141L54.5378 171.049L54.4643 170.956L54.3916 170.862L54.3196 170.767L54.2485 170.671L54.1782 170.575L54.1087 170.477L54.0401 170.379L53.9723 170.279L53.9053 170.179L53.8393 170.078L53.7741 169.976L53.7098 169.874L53.6465 169.77L53.584 169.666L53.5225 169.561L53.4619 169.455L53.4022 169.348L53.3435 169.24L53.2858 169.132L53.229 169.022L53.1732 168.912L53.1185 168.801L53.0647 168.69L53.0119 168.578L52.9602 168.465L52.9094 168.351L52.8598 168.236L52.8111 168.121L52.7636 168.005L52.7171 167.888L52.6717 167.771L52.6274 167.653L52.5841 167.534L52.542 167.415L52.501 167.295L52.4611 167.174L52.4223 167.053L52.3847 166.931L52.3483 166.808L52.3129 166.685L52.2788 166.561L52.2458 166.437L52.214 166.312L52.1834 166.186L52.154 166.06L52.1258 165.934L52.0988 165.807L52.0731 165.679L52.0485 165.551L52.0253 165.422L52.0032 165.293L51.9824 165.163L51.9628 165.033L51.9446 164.903L51.9276 164.772L51.9118 164.641L51.8974 164.509L51.8842 164.377L51.8724 164.244L51.8618 164.111L51.8526 163.978L51.8447 163.844L51.8381 163.71L51.8328 163.576L51.8289 163.441L51.8263 163.306L51.825 163.171L51.8251 163.035L51.8266 162.9L51.8295 162.764L51.8337 162.627L51.8392 162.491L51.8462 162.354L51.8545 162.217L51.8642 162.08L51.8754 161.943L51.8879 161.805L51.9018 161.668L51.9171 161.53L51.9338 161.392L51.952 161.254L51.9716 161.116L51.9925 160.978L52.0149 160.84L52.0388 160.702L52.064 160.564L52.0907 160.426L52.1189 160.287L52.1485 160.149L52.1795 160.011L52.2119 159.873L52.2459 159.735L52.2812 159.597L52.318 159.459L52.3563 159.321L52.396 159.183L52.4372 159.046L52.4798 158.908L52.5239 158.771L52.5695 158.634L52.6165 158.497L52.665 158.36L52.715 158.224L52.7664 158.088L52.8193 157.952L52.8736 157.816L52.9294 157.68L52.9867 157.545L53.0454 157.41L53.1057 157.276L53.1673 157.142L53.2305 157.008L53.2951 156.874L53.3612 156.741L53.4287 156.608L53.4977 156.476L53.5681 156.344L53.6401 156.213L53.7134 156.082L53.7883 155.952L53.8645 155.822L53.9423 155.692L54.0214 155.563L54.1021 155.435L54.1841 155.307L54.2676 155.18L54.3526 155.053L54.439 154.927L54.5268 154.802L54.616 154.677L54.7067 154.553L54.7988 154.429L54.8923 154.307L54.9872 154.185L55.0835 154.063L55.1813 153.943L55.2804 153.823L55.3809 153.704L55.4828 153.585L55.5861 153.468L55.6908 153.351L55.7968 153.235L55.9043 153.12L56.0131 153.005L56.1232 152.892L56.2347 152.78L56.3475 152.668L56.4617 152.557L56.5772 152.447L56.694 152.339L56.8122 152.231L56.9317 152.124L57.0524 152.018L57.1745 151.913L57.2979 151.809L57.4225 151.706L57.5484 151.604L57.6756 151.504L57.804 151.404L57.9337 151.305L58.0646 151.208L58.1968 151.112L58.3302 151.016L58.4648 150.922L58.6006 150.829L58.7376 150.738L58.8757 150.647L59.0151 150.558L59.1556 150.47L59.2973 150.383L59.4401 150.297L59.5841 150.213L59.7292 150.13L59.8754 150.048L60.0227 149.968L60.1711 149.888L60.3206 149.811L60.4712 149.734L60.6228 149.659L60.7755 149.585L60.9292 149.513L61.0839 149.442L61.2397 149.372L61.3964 149.304L61.5541 149.238L61.7129 149.172L61.8725 149.109L62.0332 149.046L62.1947 148.985L62.3572 148.926L62.5206 148.868L62.6849 148.812L62.8501 148.757L63.0161 148.704L63.183 148.653L63.3508 148.603L63.5194 148.554L63.6888 148.507L63.859 148.462L64.0299 148.418L64.2017 148.376L64.3742 148.336L64.5475 148.297L64.7214 148.26L64.8961 148.225L65.0715 148.191L65.2476 148.159L65.4243 148.128L65.6017 148.1L65.7797 148.073L65.9583 148.048L66.1376 148.024L66.3174 148.003L66.4977 147.983L66.6787 147.965L66.8601 147.948L67.0421 147.934L67.2246 147.921L67.4076 147.91L67.591 147.901L67.7749 147.893L67.9592 147.888L68.144 147.884L68.3291 147.882L68.5146 147.882L68.7005 147.884L68.8867 147.888L69.0733 147.894L69.2601 147.901L69.4473 147.91L69.6347 147.922L69.8224 147.935L70.0103 147.95L70.1984 147.967L70.3867 147.986L70.5752 148.007L70.7639 148.029L70.9526 148.054L71.1416 148.081L71.3306 148.109L71.5197 148.14L71.7088 148.172L71.898 148.207L72.0873 148.243L72.2765 148.281L72.4657 148.322L72.6549 148.364L72.8441 148.408L73.0331 148.455L73.2221 148.503L73.4109 148.553L73.5996 148.605L73.7882 148.66L73.9766 148.716L74.1648 148.774L74.3527 148.834L74.5405 148.896L74.7279 148.961L74.9151 149.027L75.102 149.095L75.2886 149.165L75.4749 149.238L75.6607 149.312L75.8463 149.388L76.0314 149.466L76.216 149.547L76.4003 149.629L76.584 149.713L76.7673 149.799L76.9501 149.888L77.1323 149.978L77.314 150.07L77.4952 150.165L77.6757 150.261L77.8556 150.359L78.0349 150.46L78.2135 150.562L78.3915 150.666L78.5688 150.772L78.7453 150.881L78.9211 150.991L79.0962 151.103L79.2704 151.217L79.4439 151.333L79.6165 151.452L79.7883 151.572L79.9592 151.694L80.1292 151.818L80.2983 151.944L80.4665 152.071L80.6338 152.201L80.8 152.333L80.9653 152.467L81.1295 152.602L81.2927 152.74L81.4549 152.879L81.616 153.02L81.7759 153.163L81.9348 153.308L82.0925 153.455L82.249 153.604L82.4044 153.755L82.5585 153.907L82.7114 154.062L82.8631 154.218L83.0135 154.376L83.1626 154.536L83.3104 154.697L83.4569 154.861L83.602 155.026L83.7458 155.193L83.8881 155.362L84.0291 155.532L84.1686 155.704L84.3066 155.878L84.4432 156.054L84.5783 156.231L84.7119 156.411L84.8439 156.591L84.9744 156.774L85.1033 156.958L85.2306 157.144L85.3563 157.331L85.4804 157.52L85.6028 157.711L85.7236 157.903L85.8426 158.097L85.96 158.293L86.0756 158.489L86.1895 158.688L86.3016 158.888L86.4119 159.09L86.5204 159.293L86.6271 159.497L86.732 159.703L86.8349 159.911L86.9361 160.12L87.0353 160.33L87.1326 160.542L87.228 160.755L87.3214 160.969L87.4128 161.185L87.5023 161.402L87.5898 161.621L87.6752 161.841L87.7586 162.062L87.84 162.284L87.9193 162.508L87.9965 162.733L88.0716 162.959L88.1446 163.186L88.2154 163.414L88.2842 163.644L88.3507 163.875L88.415 164.106L88.4772 164.339L88.5371 164.573L88.5949 164.808L88.6503 165.045L88.7035 165.282L88.7545 165.52L88.8032 165.759L88.8495 165.999L88.8936 166.24L88.9353 166.482L88.9746 166.725L89.0117 166.968L89.0463 167.213L89.0786 167.458L89.1084 167.704L89.1359 167.951L89.1609 168.199L89.1835 168.447L89.2037 168.696L89.2214 168.946L89.2367 169.196L89.2494 169.448L89.2597 169.699L89.2675 169.952L89.2727 170.204L89.2754 170.458L89.2756 170.712L89.2733 170.966L89.2684 171.221L89.2609 171.477L89.2509 171.732L89.2382 171.989L89.223 172.245L89.2052 172.502L89.1848 172.759L89.1618 173.017L89.1361 173.275L89.1078 173.533L89.0769 173.791L89.0433 174.049L89.007 174.308L88.9681 174.567L88.9265 174.826L88.8823 175.085L88.8354 175.344L88.7857 175.603L88.7334 175.862L88.6784 176.121L88.6207 176.38L88.5603 176.639L88.4972 176.898L88.4313 177.156L88.3627 177.415L88.2914 177.673L88.2174 177.932L88.1407 178.19L88.0612 178.447L87.9789 178.705L87.894 178.962L87.8063 179.218L87.7158 179.475L87.6226 179.731L87.5267 179.986L87.428 180.241L87.3266 180.496L87.2224 180.75L87.1154 181.003L87.0058 181.256L86.8933 181.508L86.7781 181.76L86.6602 182.011L86.5396 182.261L86.4161 182.511L86.29 182.76L86.1611 183.008L86.0295 183.255L85.8951 183.501L85.758 183.747L85.6182 183.992L85.4756 184.235L85.3304 184.478L85.1824 184.72L85.0317 184.961L84.8783 185.2L84.7222 185.439L84.5634 185.677L84.4019 185.913L84.2377 186.148L84.0709 186.382L83.9013 186.615L83.7292 186.847L83.5543 187.077L83.3768 187.306L83.1967 187.534L83.0139 187.76L82.8285 187.985L82.6405 188.209L82.4499 188.431L82.2567 188.652L82.0609 188.871L81.8625 189.088L81.6615 189.304L81.458 189.519L81.252 189.732L81.0434 189.943L80.8323 190.152L80.6187 190.36L80.4025 190.566L80.1839 190.771L79.9629 190.973L79.7393 191.174L79.5133 191.373L79.2849 191.57L79.0541 191.765L78.8208 191.958L78.5852 192.149L78.3472 192.338L78.1068 192.525L77.8641 192.71L77.619 192.893L77.3717 193.074L77.122 193.253L76.8701 193.43L76.6159 193.604L76.3595 193.777L76.1008 193.947L75.8399 194.114L75.5769 194.28L75.3116 194.443L75.0442 194.604L74.7747 194.762L74.5031 194.919L74.2294 195.072L73.9536 195.223L73.6757 195.372L73.3958 195.518L73.1139 195.662L72.83 195.803L72.5441 195.942L72.2563 196.078L71.9666 196.212L71.675 196.342L71.3814 196.47L71.0861 196.596L70.7889 196.719L70.4898 196.839L70.189 196.956L69.8865 197.07L69.5822 197.182L69.2762 197.291L68.9685 197.397L68.6591 197.5L68.3481 197.6L68.0355 197.697L67.7213 197.791L67.4055 197.883L67.0883 197.971L66.7695 198.056L66.4492 198.139L66.1275 198.218L65.8044 198.294L65.4798 198.367L65.1539 198.437L64.8267 198.504L64.4981 198.568L64.1683 198.628L63.8372 198.686L63.505 198.74L63.1715 198.791L62.8368 198.839L62.501 198.883L62.1642 198.924L61.8262 198.962L61.4872 198.997L61.1472 199.028L60.8063 199.056L60.4643 199.08L60.1215 199.101L59.7778 199.119L59.4332 199.133L59.0878 199.144L58.7417 199.152L58.3948 199.156L58.0471 199.156L57.6988 199.153L57.3499 199.147L57.0003 199.137L56.6501 199.123L56.2994 199.106L55.9482 199.086L55.5965 199.062L55.2443 199.034L54.8918 199.003L54.5389 198.968L54.1856 198.93L53.832 198.887L53.4782 198.842L53.1241 198.792L52.7698 198.739L52.4154 198.683L52.0608 198.623L51.7062 198.559L51.3515 198.491L50.9967 198.42L50.642 198.345L50.2874 198.266L49.9329 198.183L49.5785 198.097L49.2242 198.007L48.8702 197.914L48.5164 197.817L48.1629 197.716L47.8098 197.611L47.457 197.502L47.1046 197.39L46.7526 197.274L46.4011 197.154L46.0501 197.031L45.6997 196.903L45.3498 196.772L45.0006 196.637L44.6521 196.499L44.3043 196.357L43.9572 196.21L43.6109 196.061L43.2654 195.907L42.9208 195.75L42.5771 195.588L42.2343 195.423L41.8926 195.255L41.5518 195.082L41.2121 194.906L40.8735 194.726L40.5361 194.543L40.1998 194.355L39.8648 194.164L39.531 193.969L39.1985 193.771L38.8674 193.568L38.5376 193.362L38.2093 193.153L37.8824 192.939L37.557 192.722L37.2332 192.501L36.9109 192.277L36.5903 192.049L36.2713 191.817L35.954 191.581L35.6385 191.342L35.3248 191.1L35.0128 190.853L34.7027 190.603L34.3946 190.35L34.0883 190.093L33.7841 189.832L33.4818 189.568L33.1816 189.3L32.8836 189.029L32.5876 188.754L32.2938 188.475L32.0023 188.193L31.713 187.908L31.426 187.619L31.1413 187.327L30.859 187.032L30.5791 186.733L30.3016 186.43L30.0267 186.124" stroke="url(#paint6_linear_1896_3352)" stroke-width="0.25"/>
<path d="M64.2874 168.04L64.2765 168.071L64.2653 168.103L64.2538 168.134L64.2419 168.166L64.2297 168.197L64.2171 168.228L64.2042 168.26L64.191 168.291L64.1774 168.322L64.1635 168.353L64.1493 168.384L64.1347 168.415L64.1197 168.446L64.1045 168.477L64.0889 168.507L64.0729 168.538L64.0567 168.568L64.04 168.598L64.0231 168.629L64.0058 168.659L63.9882 168.689L63.9702 168.719L63.952 168.748L63.9333 168.778L63.9144 168.807L63.8951 168.837L63.8755 168.866L63.8555 168.895L63.8352 168.924L63.8146 168.953L63.7937 168.982L63.7724 169.01L63.7508 169.038L63.7289 169.067L63.7066 169.095L63.6841 169.122L63.6612 169.15L63.638 169.178L63.6144 169.205L63.5906 169.232L63.5664 169.259L63.5419 169.286L63.5171 169.312L63.492 169.339L63.4665 169.365L63.4408 169.391L63.4147 169.417L63.3884 169.442L63.3617 169.467L63.3347 169.493L63.3074 169.517L63.2798 169.542L63.2519 169.567L63.2238 169.591L63.1953 169.615L63.1665 169.638L63.1374 169.662L63.108 169.685L63.0784 169.708L63.0484 169.731L63.0182 169.753L62.9877 169.776L62.9569 169.798L62.9258 169.819L62.8945 169.841L62.8628 169.862L62.8309 169.883L62.7987 169.903L62.7663 169.924L62.7336 169.944L62.7006 169.964L62.6674 169.983L62.6339 170.002L62.6001 170.021L62.5661 170.04L62.5318 170.058L62.4973 170.076L62.4625 170.093L62.4275 170.111L62.3923 170.128L62.3568 170.144L62.3211 170.161L62.2851 170.177L62.2489 170.193L62.2125 170.208L62.1758 170.223L62.139 170.238L62.1019 170.252L62.0646 170.266L62.0271 170.28L61.9894 170.293L61.9514 170.306L61.9133 170.319L61.8749 170.331L61.8364 170.343L61.7977 170.354L61.7588 170.366L61.7197 170.376L61.6804 170.387L61.6409 170.397L61.6012 170.407L61.5614 170.416L61.5214 170.425L61.4812 170.433L61.4409 170.442L61.4004 170.449L61.3598 170.457L61.319 170.464L61.278 170.47L61.2369 170.476L61.1957 170.482L61.1543 170.488L61.1128 170.493L61.0712 170.497L61.0294 170.501L60.9875 170.505L60.9455 170.509L60.9034 170.511L60.8611 170.514L60.8188 170.516L60.7763 170.518L60.7338 170.519L60.6911 170.52L60.6484 170.52L60.6056 170.52L60.5627 170.52L60.5197 170.519L60.4766 170.518L60.4335 170.516L60.3903 170.514L60.347 170.511L60.3037 170.508L60.2603 170.505L60.2169 170.501L60.1734 170.496L60.1299 170.491L60.0864 170.486L60.0428 170.48L59.9992 170.474L59.9555 170.468L59.9119 170.461L59.8682 170.453L59.8245 170.445L59.7809 170.437L59.7372 170.428L59.6935 170.418L59.6498 170.409L59.6062 170.398L59.5625 170.388L59.5189 170.377L59.4753 170.365L59.4318 170.353L59.3882 170.34L59.3448 170.327L59.3013 170.314L59.2579 170.3L59.2146 170.286L59.1713 170.271L59.1281 170.255L59.085 170.24L59.0419 170.223L58.9989 170.207L58.956 170.19L58.9132 170.172L58.8705 170.154L58.8279 170.135L58.7853 170.116L58.7429 170.097L58.7006 170.077L58.6584 170.057L58.6164 170.036L58.5744 170.014L58.5326 169.993L58.491 169.97L58.4494 169.948L58.4081 169.924L58.3668 169.901L58.3258 169.877L58.2849 169.852L58.2441 169.827L58.2035 169.802L58.1631 169.776L58.1229 169.749L58.0829 169.723L58.043 169.695L58.0034 169.668L57.964 169.639L57.9247 169.611L57.8857 169.582L57.8469 169.552L57.8083 169.522L57.7699 169.492L57.7318 169.461L57.6939 169.43L57.6562 169.398L57.6188 169.366L57.5816 169.333L57.5447 169.3L57.508 169.266L57.4717 169.233L57.4355 169.198L57.3997 169.163L57.3641 169.128L57.3288 169.092L57.2938 169.056L57.2591 169.02L57.2247 168.983L57.1906 168.946L57.1568 168.908L57.1233 168.87L57.0901 168.831L57.0573 168.792L57.0248 168.753L56.9926 168.713L56.9607 168.673L56.9292 168.632L56.8981 168.591L56.8672 168.55L56.8368 168.508L56.8067 168.466L56.7769 168.424L56.7475 168.381L56.7185 168.337L56.6899 168.294L56.6617 168.25L56.6338 168.205L56.6063 168.161L56.5793 168.116L56.5526 168.07L56.5263 168.024L56.5005 167.978L56.475 167.931L56.45 167.885L56.4254 167.837L56.4012 167.79L56.3774 167.742L56.3541 167.694L56.3312 167.645L56.3088 167.596L56.2868 167.547L56.2652 167.497L56.2441 167.448L56.2235 167.397L56.2033 167.347L56.1836 167.296L56.1644 167.245L56.1456 167.194L56.1273 167.142L56.1095 167.09L56.0922 167.038L56.0754 166.986L56.0591 166.933L56.0432 166.88L56.0279 166.827L56.013 166.773L55.9987 166.719L55.9849 166.665L55.9716 166.611L55.9588 166.557L55.9465 166.502L55.9348 166.447L55.9236 166.392L55.9129 166.336L55.9028 166.281L55.8932 166.225L55.8841 166.169L55.8756 166.112L55.8676 166.056L55.8602 165.999L55.8533 165.943L55.847 165.886L55.8412 165.828L55.836 165.771L55.8314 165.714L55.8273 165.656L55.8238 165.598L55.8209 165.54L55.8186 165.482L55.8168 165.424L55.8156 165.365L55.815 165.307L55.815 165.248L55.8155 165.19L55.8167 165.131L55.8184 165.072L55.8208 165.013L55.8237 164.954L55.8272 164.894L55.8314 164.835L55.8361 164.776L55.8415 164.716L55.8474 164.657L55.854 164.597L55.8611 164.537L55.8689 164.478L55.8773 164.418L55.8863 164.358L55.8959 164.299L55.9062 164.239L55.917 164.179L55.9285 164.119L55.9406 164.059L55.9533 164L55.9667 163.94L55.9806 163.88L55.9952 163.82L56.0104 163.761L56.0263 163.701L56.0428 163.641L56.0599 163.582L56.0776 163.522L56.096 163.463L56.115 163.403L56.1346 163.344L56.1549 163.285L56.1758 163.226L56.1974 163.166L56.2195 163.107L56.2423 163.049L56.2658 162.99L56.2898 162.931L56.3146 162.873L56.3399 162.814L56.3659 162.756L56.3925 162.698L56.4197 162.64L56.4476 162.582L56.4761 162.525L56.5053 162.467L56.535 162.41L56.5654 162.353L56.5965 162.296L56.6282 162.239L56.6604 162.183L56.6934 162.127L56.7269 162.071L56.7611 162.015L56.7959 161.959L56.8314 161.904L56.8674 161.849L56.9041 161.794L56.9414 161.74L56.9793 161.685L57.0179 161.631L57.057 161.577L57.0968 161.524L57.1372 161.471L57.1782 161.418L57.2198 161.365L57.262 161.313L57.3048 161.261L57.3482 161.21L57.3922 161.158L57.4369 161.108L57.4821 161.057L57.5279 161.007L57.5743 160.957L57.6213 160.907L57.6689 160.858L57.7171 160.81L57.7658 160.761L57.8151 160.713L57.865 160.666L57.9155 160.619L57.9666 160.572L58.0182 160.526L58.0704 160.48L58.1231 160.434L58.1764 160.389L58.2303 160.345L58.2847 160.301L58.3397 160.257L58.3952 160.214L58.4512 160.171L58.5078 160.129L58.5649 160.087L58.6226 160.046L58.6808 160.005L58.7394 159.965L58.7987 159.925L58.8584 159.886L58.9186 159.847L58.9794 159.809L59.0406 159.771L59.1024 159.734L59.1646 159.698L59.2273 159.662L59.2905 159.626L59.3542 159.591L59.4183 159.557L59.483 159.523L59.5481 159.49L59.6136 159.457L59.6796 159.425L59.7461 159.394L59.813 159.363L59.8803 159.333L59.9481 159.304L60.0163 159.275L60.0849 159.246L60.1539 159.219L60.2234 159.192L60.2932 159.165L60.3635 159.139L60.4341 159.114L60.5052 159.09L60.5766 159.066L60.6484 159.043L60.7206 159.021L60.7931 158.999L60.866 158.978L60.9393 158.958L61.0129 158.938L61.0868 158.919L61.1611 158.901L61.2357 158.883L61.3106 158.866L61.3858 158.85L61.4614 158.835L61.5372 158.82L61.6134 158.806L61.6898 158.793L61.7665 158.78L61.8435 158.769L61.9208 158.758L61.9983 158.747L62.0761 158.738L62.1541 158.729L62.2323 158.721L62.3108 158.714L62.3895 158.708L62.4685 158.702L62.5476 158.697L62.627 158.693L62.7065 158.69L62.7862 158.687L62.8661 158.686L62.9462 158.685L63.0265 158.685L63.1069 158.685L63.1874 158.687L63.2681 158.689L63.349 158.692L63.4299 158.696L63.511 158.701L63.5922 158.707L63.6735 158.713L63.7549 158.72L63.8363 158.728L63.9179 158.737L63.9995 158.747L64.0812 158.758L64.1629 158.769L64.2447 158.781L64.3265 158.794L64.4084 158.808L64.4902 158.823L64.5721 158.839L64.654 158.855L64.7359 158.873L64.8177 158.891L64.8996 158.91L64.9814 158.93L65.0631 158.951L65.1448 158.972L65.2265 158.995L65.3081 159.018L65.3896 159.042L65.471 159.067L65.5524 159.093L65.6336 159.12L65.7148 159.148L65.7958 159.176L65.8767 159.206L65.9574 159.236L66.038 159.267L66.1185 159.299L66.1987 159.332L66.2789 159.366L66.3588 159.401L66.4385 159.436L66.5181 159.472L66.5974 159.51L66.6765 159.548L66.7554 159.587L66.834 159.627L66.9124 159.667L66.9906 159.709L67.0685 159.751L67.1461 159.795L67.2234 159.839L67.3004 159.884L67.3772 159.93L67.4536 159.976L67.5297 160.024L67.6055 160.072L67.6809 160.122L67.756 160.172L67.8307 160.223L67.9051 160.275L67.9791 160.327L68.0527 160.381L68.1259 160.435L68.1988 160.491L68.2712 160.547L68.3432 160.603L68.4147 160.661L68.4858 160.72L68.5565 160.779L68.6267 160.839L68.6965 160.9L68.7657 160.962L68.8345 161.025L68.9028 161.088L68.9706 161.153L69.0379 161.218L69.1047 161.284L69.1709 161.35L69.2366 161.418L69.3017 161.486L69.3663 161.555L69.4303 161.625L69.4938 161.696L69.5566 161.767L69.6189 161.839L69.6806 161.912L69.7416 161.986L69.8021 162.06L69.8619 162.135L69.9211 162.211L69.9796 162.288L70.0375 162.365L70.0947 162.443L70.1512 162.522L70.2071 162.602L70.2622 162.682L70.3167 162.763L70.3705 162.845L70.4235 162.927L70.4759 163.011L70.5275 163.094L70.5783 163.179L70.6285 163.264L70.6778 163.35L70.7264 163.436L70.7742 163.523L70.8213 163.611L70.8676 163.7L70.913 163.789L70.9577 163.878L71.0015 163.969L71.0446 164.06L71.0868 164.151L71.1281 164.243L71.1686 164.336L71.2083 164.429L71.2471 164.523L71.2851 164.618L71.3222 164.713L71.3584 164.808L71.3937 164.904L71.4281 165.001L71.4616 165.098L71.4942 165.196L71.5259 165.294L71.5567 165.393L71.5865 165.492L71.6154 165.592L71.6434 165.692L71.6704 165.793L71.6964 165.894L71.7215 165.996L71.7457 166.098L71.7688 166.201L71.791 166.304L71.8121 166.407L71.8323 166.511L71.8515 166.615L71.8697 166.72L71.8868 166.825L71.903 166.93L71.9181 167.036L71.9322 167.142L71.9452 167.248L71.9572 167.355L71.9682 167.462L71.9781 167.57L71.9869 167.677L71.9947 167.786L72.0015 167.894L72.0071 168.002L72.0117 168.111L72.0152 168.22L72.0176 168.33L72.0189 168.439L72.0191 168.549L72.0182 168.659L72.0162 168.77L72.0131 168.88L72.0089 168.991L72.0036 169.102L71.9972 169.213L71.9896 169.324L71.9809 169.435L71.9711 169.546L71.9601 169.658L71.948 169.77L71.9347 169.881L71.9203 169.993L71.9048 170.105L71.8881 170.217L71.8702 170.329L71.8512 170.441L71.8311 170.553L71.8097 170.665L71.7873 170.777L71.7636 170.889L71.7388 171.002L71.7128 171.114L71.6856 171.226L71.6572 171.338L71.6277 171.449L71.597 171.561L71.5651 171.673L71.5321 171.785L71.4978 171.896L71.4624 172.007L71.4258 172.119L71.388 172.23L71.349 172.341L71.3088 172.451L71.2674 172.562L71.2249 172.672L71.1811 172.783L71.1362 172.893L71.09 173.002L71.0427 173.112L70.9942 173.221L70.9445 173.33L70.8937 173.438L70.8416 173.547L70.7883 173.655L70.7339 173.762L70.6783 173.87L70.6215 173.977L70.5635 174.084L70.5043 174.19L70.4439 174.296L70.3824 174.401L70.3197 174.506L70.2558 174.611L70.1907 174.715L70.1245 174.819L70.0571 174.922L69.9885 175.025L69.9188 175.127L69.8479 175.229L69.7759 175.331L69.7026 175.432L69.6283 175.532L69.5528 175.632L69.4761 175.731L69.3983 175.829L69.3194 175.927L69.2393 176.025L69.1581 176.122L69.0757 176.218L68.9923 176.313L68.9077 176.408L68.822 176.502L68.7352 176.596L68.6473 176.689L68.5582 176.781L68.4681 176.873L68.3769 176.963L68.2846 177.053L68.1912 177.142L68.0968 177.231L68.0012 177.319L67.9046 177.406L67.807 177.492L67.7083 177.577L67.6085 177.662L67.5077 177.745L67.4059 177.828L67.3031 177.91L67.1992 177.991L67.0943 178.071L66.9884 178.151L66.8815 178.229L66.7736 178.306L66.6647 178.383L66.5548 178.459L66.444 178.533L66.3322 178.607L66.2194 178.68L66.1057 178.751L65.9911 178.822L65.8755 178.892L65.759 178.961L65.6415 179.028L65.5232 179.095L65.404 179.16L65.2839 179.225L65.1629 179.288L65.041 179.351L64.9183 179.412L64.7947 179.472L64.6703 179.531L64.545 179.589L64.4189 179.646L64.292 179.701L64.1643 179.756L64.0358 179.809L63.9065 179.861L63.7765 179.912L63.6456 179.961L63.5141 180.01L63.3818 180.057L63.2487 180.103L63.1149 180.148L62.9805 180.191L62.8453 180.234L62.7094 180.274L62.5729 180.314L62.4357 180.353L62.2978 180.39L62.1593 180.425L62.0202 180.46L61.8805 180.493L61.7401 180.525L61.5992 180.555L61.4577 180.584L61.3156 180.612L61.1729 180.638L61.0298 180.663L60.886 180.687L60.7418 180.709L60.5971 180.73L60.4518 180.749L60.3061 180.767L60.16 180.784L60.0134 180.799L59.8663 180.813L59.7188 180.825L59.5709 180.836L59.4226 180.845L59.274 180.853L59.1249 180.859L58.9755 180.864L58.8258 180.868L58.6757 180.87L58.5253 180.87L58.3747 180.869L58.2237 180.866L58.0725 180.862L57.921 180.857L57.7693 180.849L57.6174 180.841L57.4652 180.83L57.3129 180.819L57.1603 180.805L57.0076 180.79L56.8548 180.774L56.7018 180.756L56.5488 180.736L56.3956 180.715L56.2423 180.692L56.0889 180.668L55.9355 180.642L55.7821 180.615L55.6286 180.586L55.4751 180.555L55.3217 180.523L55.1682 180.489L55.0148 180.453L54.8615 180.416L54.7082 180.378L54.555 180.337L54.4019 180.295L54.2489 180.252L54.0961 180.207L53.9434 180.16L53.7909 180.112L53.6386 180.062L53.4865 180.01L53.3346 179.957L53.183 179.902L53.0316 179.845L52.8804 179.787L52.7296 179.727L52.5791 179.666L52.4288 179.603L52.279 179.538L52.1294 179.472L51.9803 179.404L51.8315 179.335L51.6832 179.264L51.5352 179.191L51.3877 179.116L51.2407 179.04L51.0942 178.963L50.9481 178.883L50.8025 178.803L50.6575 178.72L50.513 178.636L50.3691 178.55L50.2257 178.463L50.083 178.374L49.9408 178.283L49.7993 178.191L49.6585 178.097L49.5183 178.002L49.3788 177.905L49.2399 177.807L49.1018 177.707L48.9645 177.605L48.8278 177.502L48.692 177.397L48.5569 177.29L48.4227 177.182L48.2892 177.073L48.1566 176.962L48.0249 176.849L47.894 176.735L47.764 176.619L47.6349 176.502L47.5068 176.383L47.3795 176.263L47.2533 176.141L47.128 176.018L47.0037 175.893L46.8804 175.767L46.7581 175.639L46.6369 175.51L46.5167 175.38L46.3976 175.247L46.2796 175.114L46.1627 174.979L46.0469 174.842L45.9323 174.704L45.8188 174.565L45.7065 174.424L45.5954 174.282L45.4855 174.139L45.3768 173.994L45.2694 173.848L45.1632 173.7L45.0583 173.551L44.9546 173.401L44.8523 173.249L44.7513 173.096L44.6517 172.942L44.5533 172.786L44.4564 172.629L44.3608 172.471L44.2667 172.312L44.1739 172.151L44.0826 171.989L43.9927 171.826L43.9043 171.662L43.8173 171.496L43.7319 171.33L43.6479 171.162L43.5655 170.992L43.4846 170.822L43.4052 170.651L43.3274 170.478L43.2512 170.305L43.1766 170.13L43.1036 169.954L43.0322 169.777L42.9624 169.599L42.8943 169.42L42.8279 169.24L42.7631 169.059L42.7 168.877L42.6386 168.694L42.5789 168.51L42.521 168.325L42.4647 168.139L42.4103 167.952L42.3576 167.764L42.3067 167.576L42.2576 167.386L42.2102 167.196L42.1647 167.004L42.1211 166.812L42.0792 166.619L42.0393 166.426L42.0011 166.231L41.9649 166.036L41.9305 165.84L41.8981 165.643L41.8675 165.446L41.8389 165.248L41.8121 165.049L41.7874 164.85L41.7646 164.649L41.7437 164.449L41.7248 164.248L41.7079 164.046L41.693 163.843L41.6801 163.64L41.6691 163.437L41.6602 163.233L41.6534 163.028L41.6485 162.823L41.6458 162.618L41.645 162.412L41.6463 162.206L41.6497 161.999L41.6552 161.792L41.6628 161.585L41.6724 161.377L41.6842 161.169L41.698 160.961L41.714 160.752L41.7321 160.543L41.7523 160.334L41.7747 160.125L41.7992 159.916L41.8258 159.706L41.8546 159.496L41.8855 159.287L41.9186 159.077L41.9539 158.867L41.9914 158.656L42.031 158.446L42.0728 158.236L42.1168 158.026L42.163 157.816L42.2114 157.606L42.262 157.396L42.3148 157.186L42.3698 156.976L42.427 156.767L42.4864 156.557L42.548 156.348L42.6119 156.139L42.6779 155.93L42.7462 155.722L42.8167 155.513L42.8895 155.305L42.9644 155.098L43.0416 154.89L43.121 154.684L43.2027 154.477L43.2865 154.271L43.3727 154.065L43.461 153.86L43.5515 153.655L43.6443 153.451L43.7394 153.247L43.8366 153.044L43.9361 152.841L44.0378 152.639L44.1417 152.438L44.2478 152.237L44.3562 152.037L44.4667 151.838L44.5795 151.639L44.6945 151.442L44.8117 151.244L44.9311 151.048L45.0527 150.853L45.1765 150.658L45.3025 150.464L45.4307 150.271L45.561 150.079L45.6936 149.888L45.8283 149.698L45.9652 149.509L46.1042 149.321L46.2454 149.133L46.3888 148.947L46.5343 148.762L46.6819 148.579L46.8317 148.396L46.9836 148.214L47.1376 148.034L47.2937 147.854L47.4519 147.676L47.6122 147.499L47.7746 147.324L47.9391 147.15L48.1056 146.977L48.2742 146.805L48.4449 146.635L48.6176 146.466L48.7923 146.298L48.969 146.132L49.1478 145.967L49.3285 145.804L49.5112 145.643L49.6959 145.482L49.8826 145.324L50.0712 145.167L50.2618 145.011L50.4543 144.857L50.6487 144.705L50.845 144.554L51.0432 144.406L51.2433 144.258L51.4453 144.113L51.6491 143.969L51.8547 143.827L52.0622 143.687L52.2715 143.548L52.4826 143.412L52.6954 143.277L52.9101 143.144L53.1264 143.013L53.3445 142.884L53.5644 142.757L53.7859 142.632L54.0091 142.509L54.234 142.387L54.4606 142.268L54.6887 142.151L54.9185 142.036L55.1499 141.923L55.3829 141.812L55.6175 141.703L55.8536 141.596L56.0912 141.492L56.3303 141.39L56.571 141.289L56.8131 141.191L57.0566 141.096L57.3016 141.002L57.548 140.911L57.7958 140.822L58.045 140.736L58.2955 140.651L58.5474 140.57L58.8006 140.49L59.055 140.413L59.3108 140.338L59.5678 140.266L59.826 140.196L60.0854 140.128L60.346 140.063L60.6077 140.001L60.8706 139.941L61.1346 139.884L61.3997 139.829L61.6659 139.776L61.9331 139.726L62.2013 139.679L62.4706 139.634L62.7408 139.592L63.0119 139.553L63.284 139.516L63.557 139.482L63.8308 139.451L64.1055 139.422L64.3811 139.396L64.6574 139.372L64.9345 139.352L65.2123 139.334L65.4909 139.319L65.7701 139.306L66.0501 139.297L66.3307 139.29L66.6118 139.286L66.8936 139.285L67.176 139.286L67.4588 139.291L67.7422 139.298L68.0261 139.308L68.3104 139.321L68.5951 139.337L68.8803 139.356L69.1658 139.377L69.4516 139.402L69.7378 139.429L70.0243 139.46L70.311 139.493L70.5979 139.529L70.885 139.568L71.1723 139.61L71.4597 139.655L71.7473 139.704L72.0349 139.755L72.3225 139.809L72.6102 139.866L72.8979 139.926L73.1855 139.989L73.4731 140.055L73.7606 140.124L74.0479 140.196L74.3351 140.271L74.6221 140.349L74.9088 140.43L75.1954 140.514L75.4816 140.601L75.7675 140.691L76.0531 140.785L76.3382 140.881L76.623 140.98L76.9074 141.083L77.1912 141.188L77.4746 141.297L77.7574 141.408L78.0397 141.523L78.3214 141.64L78.6024 141.761L78.8828 141.885L79.1625 142.012L79.4415 142.141L79.7197 142.274L79.9971 142.41L80.2737 142.549L80.5494 142.691L80.8243 142.836L81.0982 142.984L81.3712 143.136L81.6432 143.29L81.9142 143.447L82.1842 143.607L82.4531 143.77L82.7208 143.937L82.9875 144.106L83.2529 144.278L83.5171 144.453L83.7801 144.632L84.0419 144.813L84.3023 144.997L84.5614 145.184L84.8191 145.374L85.0754 145.568L85.3303 145.764L85.5837 145.963L85.8356 146.164L86.086 146.369L86.3348 146.577L86.582 146.788L86.8276 147.001L87.0715 147.217L87.3138 147.437L87.5543 147.659L87.793 147.884L88.03 148.112L88.2652 148.342L88.4985 148.576L88.7299 148.812L88.9594 149.051L89.1869 149.293L89.4125 149.537L89.6361 149.784L89.8576 150.034L90.0771 150.287L90.2944 150.542L90.5096 150.8L90.7227 151.061L90.9335 151.324L91.1422 151.59L91.3485 151.859L91.5526 152.13L91.7544 152.404L91.9538 152.68L92.1508 152.959L92.3455 153.24L92.5377 153.524L92.7274 153.81L92.9146 154.099L93.0993 154.39L93.2814 154.684L93.461 154.98L93.6379 155.279L93.8122 155.579L93.9838 155.883L94.1527 156.188L94.3189 156.496L94.4823 156.806L94.6429 157.118L94.8007 157.432L94.9557 157.749L95.1078 158.068L95.257 158.389L95.4033 158.712L95.5467 159.037L95.687 159.364L95.8244 159.693L95.9587 160.025L96.0899 160.358L96.2181 160.693L96.3432 161.031L96.4651 161.37L96.5839 161.711L96.6995 162.054L96.8119 162.398L96.921 162.745L97.0269 163.093L97.1295 163.443L97.2288 163.795L97.3247 164.148L97.4174 164.503L97.5066 164.86L97.5924 165.218L97.6748 165.578L97.7538 165.939L97.8293 166.302L97.9013 166.666L97.9698 167.032L98.0348 167.399L98.0962 167.768L98.1541 168.137L98.2083 168.509L98.259 168.881L98.306 169.255L98.3493 169.629L98.389 170.005L98.425 170.383L98.4573 170.761L98.4859 171.14L98.5107 171.52L98.5318 171.902L98.549 172.284L98.5625 172.667L98.5722 173.051L98.578 173.436L98.58 173.822L98.5782 174.208L98.5724 174.596L98.5628 174.984L98.5492 175.372L98.5318 175.761L98.5104 176.151L98.485 176.541L98.4557 176.932L98.4224 177.324L98.3852 177.715L98.3439 178.108L98.2987 178.5L98.2494 178.893L98.196 179.286L98.1387 179.679L98.0772 180.073L98.0118 180.466L97.9422 180.86L97.8686 181.254L97.7908 181.648L97.709 182.042L97.6231 182.436L97.533 182.829L97.4389 183.223L97.3406 183.616L97.2382 184.009L97.1316 184.402L97.0209 184.795L96.906 185.187L96.787 185.579L96.6638 185.971L96.5365 186.362" stroke="url(#paint7_linear_1896_3352)" stroke-width="0.25"/>
<g filter="url(#filter3_d_1896_3352)">
<circle cx="63.3508" cy="167.124" r="1.95624" fill="#4FEEA2"/>
<circle cx="63.3508" cy="167.124" r="1.65624" stroke="#4FEEA2" stroke-width="0.6"/>
</g>
<circle cx="60" cy="140" r="1" fill="white"/>
<circle cx="48" cy="177" r="1" fill="#53FEA9"/>
<circle cx="67" cy="198" r="1" fill="#A3A0AC"/>
<circle cx="90" cy="150" r="1" fill="#767184"/>
<path d="M138.86 229.5C149.07 213.822 155.003 195.104 155.003 175C155.003 119.772 110.231 75 55.0029 75C34.8575 75 16.1036 80.9569 0.40625 91.2055" stroke="url(#paint8_linear_1896_3352)"/>
<defs>
<filter id="filter0_b_1896_3352" x="-4" y="-4" width="568" height="238" filterUnits="userSpaceOnUse" color-interpolation-filters="sRGB">
<feFlood flood-opacity="0" result="BackgroundImageFix"/>
<feGaussianBlur in="BackgroundImage" stdDeviation="2"/>
<feComposite in2="SourceAlpha" operator="in" result="effect1_backgroundBlur_1896_3352"/>
<feBlend mode="normal" in="SourceGraphic" in2="effect1_backgroundBlur_1896_3352" result="shape"/>
</filter>
<filter id="filter1_d_1896_3352" x="24.0352" y="122.5" width="78.6328" height="69.4375" filterUnits="userSpaceOnUse" color-interpolation-filters="sRGB">
<feFlood flood-opacity="0" result="BackgroundImageFix"/>
<feColorMatrix in="SourceAlpha" type="matrix" values="0 0 0 0 0 0 0 0 0 0 0 0 0 0 0 0 0 0 127 0" result="hardAlpha"/>
<feOffset/>
<feGaussianBlur stdDeviation="2.5"/>
<feComposite in2="hardAlpha" operator="out"/>
<feColorMatrix type="matrix" values="0 0 0 0 0 0 0 0 0 1 0 0 0 0 0.7 0 0 0 1 0"/>
<feBlend mode="normal" in2="BackgroundImageFix" result="effect1_dropShadow_1896_3352"/>
<feBlend mode="normal" in="SourceGraphic" in2="effect1_dropShadow_1896_3352" result="shape"/>
</filter>
<filter id="filter2_d_1896_3352" x="34.1055" y="144.75" width="58.4922" height="54.1367" filterUnits="userSpaceOnUse" color-interpolation-filters="sRGB">
<feFlood flood-opacity="0" result="BackgroundImageFix"/>
<feColorMatrix in="SourceAlpha" type="matrix" values="0 0 0 0 0 0 0 0 0 0 0 0 0 0 0 0 0 0 127 0" result="hardAlpha"/>
<feOffset/>
<feGaussianBlur stdDeviation="6.5"/>
<feComposite in2="hardAlpha" operator="out"/>
<feColorMatrix type="matrix" values="0 0 0 0 0 0 0 0 0 1 0 0 0 0 0.7 0 0 0 0.25 0"/>
<feBlend mode="normal" in2="BackgroundImageFix" result="effect1_dropShadow_1896_3352"/>
<feBlend mode="normal" in="SourceGraphic" in2="effect1_dropShadow_1896_3352" result="shape"/>
</filter>
<filter id="filter3_d_1896_3352" x="58.3945" y="162.168" width="9.91406" height="9.91406" filterUnits="userSpaceOnUse" color-interpolation-filters="sRGB">
<feFlood flood-opacity="0" result="BackgroundImageFix"/>
<feColorMatrix in="SourceAlpha" type="matrix" values="0 0 0 0 0 0 0 0 0 0 0 0 0 0 0 0 0 0 127 0" result="hardAlpha"/>
<feOffset/>
<feGaussianBlur stdDeviation="1.5"/>
<feComposite in2="hardAlpha" operator="out"/>
<feColorMatrix type="matrix" values="0 0 0 0 0.32549 0 0 0 0 0.992157 0 0 0 0 0.662745 0 0 0 1 0"/>
<feBlend mode="normal" in2="BackgroundImageFix" result="effect1_dropShadow_1896_3352"/>
<feBlend mode="normal" in="SourceGraphic" in2="effect1_dropShadow_1896_3352" result="shape"/>
</filter>
<linearGradient id="paint0_linear_1896_3352" x1="280" y1="0" x2="280" y2="230" gradientUnits="userSpaceOnUse">
<stop stop-opacity="0"/>
<stop offset="1" stop-color="#5A26EC"/>
</linearGradient>
<linearGradient id="paint1_linear_1896_3352" x1="63.3513" y1="128" x2="63.3513" y2="198.425" gradientUnits="userSpaceOnUse">
<stop stop-color="#4D23C7"/>
<stop offset="0.795144" stop-color="#4D23C7" stop-opacity="0"/>
</linearGradient>
<linearGradient id="paint2_linear_1896_3352" x1="63.3513" y1="99.9606" x2="63.3513" y2="206.249" gradientUnits="userSpaceOnUse">
<stop offset="0.170133" stop-color="#53FDA9" stop-opacity="0"/>
<stop offset="1" stop-color="#53FDA9"/>
</linearGradient>
<linearGradient id="paint3_linear_1896_3352" x1="63.3512" y1="185.387" x2="63.3512" y2="148.87" gradientUnits="userSpaceOnUse">
<stop stop-color="#100533"/>
<stop offset="1" stop-color="#00FF81" stop-opacity="0"/>
</linearGradient>
<linearGradient id="paint4_linear_1896_3352" x1="63.6033" y1="128.004" x2="63.6033" y2="205.601" gradientUnits="userSpaceOnUse">
<stop offset="0.170133" stop-color="#53FDA9" stop-opacity="0"/>
<stop offset="1" stop-color="#53FDA9"/>
</linearGradient>
<linearGradient id="paint5_linear_1896_3352" x1="61.6471" y1="131.91" x2="63.6033" y2="167.123" gradientUnits="userSpaceOnUse">
<stop stop-color="white" stop-opacity="0"/>
<stop offset="1" stop-color="white"/>
</linearGradient>
<linearGradient id="paint6_linear_1896_3352" x1="36.2123" y1="191.254" x2="63.5996" y2="166.475" gradientUnits="userSpaceOnUse">
<stop stop-color="white" stop-opacity="0"/>
<stop offset="1" stop-color="white"/>
</linearGradient>
<linearGradient id="paint7_linear_1896_3352" x1="98.1598" y1="180.165" x2="63.5996" y2="166.471" gradientUnits="userSpaceOnUse">
<stop stop-color="white" stop-opacity="0"/>
<stop offset="1" stop-color="white"/>
</linearGradient>
<linearGradient id="paint8_linear_1896_3352" x1="77.7046" y1="229.5" x2="4.00196" y2="92" gradientUnits="userSpaceOnUse">
<stop stop-color="#4D23C7"/>
<stop offset="1" stop-color="#4D23C7" stop-opacity="0"/>
</linearGradient>
</defs>
</svg>
