<svg width="560" height="230" viewBox="0 0 560 230" fill="none" xmlns="http://www.w3.org/2000/svg">
<g opacity="0.45" filter="url(#filter0_b_1896_3508)">
<rect width="560" height="230" rx="6" fill="#101011"/>
<rect x="0.5" y="0.5" width="559" height="229" rx="5.5" stroke="url(#paint0_linear_1896_3508)"/>
</g>
<path d="M76.5 103V103C76.5226 103.819 77.1811 104.477 78 104.5V104.5V104.5C77.1811 104.523 76.5226 105.181 76.5 106V106V106C76.4774 105.181 75.8189 104.523 75 104.5V104.5V104.5C75.8189 104.477 76.4774 103.819 76.5 103V103Z" fill="white"/>
<path d="M87.5 59V59C87.5226 59.8189 88.1811 60.4774 89 60.5V60.5V60.5C88.1811 60.5226 87.5226 61.1811 87.5 62V62V62C87.4774 61.1811 86.8189 60.5226 86 60.5V60.5V60.5C86.8189 60.4774 87.4774 59.8189 87.5 59V59Z" fill="white"/>
<path d="M27.5 75V75C27.5226 75.8189 28.1811 76.4774 29 76.5V76.5V76.5C28.1811 76.5226 27.5226 77.1811 27.5 78V78V78C27.4774 77.1811 26.8189 76.5226 26 76.5V76.5V76.5C26.8189 76.4774 27.4774 75.8189 27.5 75V75Z" fill="white"/>
<g opacity="0.5">
<path d="M45.4448 90.1316C45.4448 87.7915 47.1778 85.6187 50.0998 84.0163C53.0126 82.419 57.0537 81.4233 61.531 81.4233C66.0083 81.4233 70.0494 82.419 72.9622 84.0163C75.8842 85.6187 77.6172 87.7915 77.6172 90.1316C77.6172 92.4717 75.8842 94.6445 72.9622 96.2468C70.0494 97.8441 66.0083 98.8398 61.531 98.8398C57.0537 98.8398 53.0126 97.8441 50.0998 96.2468C47.1778 94.6445 45.4448 92.4717 45.4448 90.1316Z" stroke="white" stroke-opacity="0.4" stroke-width="0.5"/>
<path d="M39.6718 90.1298C39.6718 86.9155 42.0509 83.9512 46.0177 81.7759C49.9753 79.6057 55.4596 78.2557 61.5312 78.2557C67.6028 78.2557 73.0871 79.6057 77.0447 81.7759C81.0115 83.9512 83.3906 86.9155 83.3906 90.1298C83.3906 93.3441 81.0115 96.3084 77.0447 98.4836C73.0871 100.654 67.6028 102.004 61.5312 102.004C55.4596 102.004 49.9753 100.654 46.0177 98.4836C42.0509 96.3084 39.6718 93.3441 39.6718 90.1298Z" stroke="white" stroke-opacity="0.2" stroke-width="0.5"/>
<path d="M31.9215 90.1281C31.9215 85.7408 35.1677 81.7146 40.5363 78.7706C45.8956 75.8317 53.3166 74.0062 61.5272 74.0062C69.7378 74.0062 77.1587 75.8317 82.5181 78.7706C87.8866 81.7146 91.1328 85.7408 91.1328 90.1281C91.1328 94.5154 87.8866 98.5416 82.5181 101.486C77.1587 104.424 69.7378 106.25 61.5272 106.25C53.3166 106.25 45.8956 104.424 40.5363 101.486C35.1677 98.5416 31.9215 94.5154 31.9215 90.1281Z" stroke="white" stroke-opacity="0.1" stroke-width="0.5"/>
<path d="M23.2506 90.1297C23.2506 84.429 27.4676 79.2137 34.4057 75.4091C41.3346 71.6095 50.9239 69.2516 61.5296 69.2516C72.1353 69.2516 81.7246 71.6095 88.6535 75.4091C95.5916 79.2137 99.8086 84.429 99.8086 90.1297C99.8086 95.8304 95.5916 101.046 88.6535 104.85C81.7246 108.65 72.1353 111.008 61.5296 111.008C50.9239 111.008 41.3346 108.65 34.4057 104.85C27.4676 101.046 23.2506 95.8304 23.2506 90.1297Z" stroke="white" stroke-opacity="0.05" stroke-width="0.5"/>
</g>
<g filter="url(#filter1_d_1896_3508)">
<ellipse cx="61.5" cy="90" rx="7.5" ry="4" transform="rotate(-180 61.5 90)" fill="white"/>
</g>
<path d="M61 144L61 89.5C61 89.2239 61.2239 89 61.5 89V89C61.7761 89 62 89.2239 62 89.5L62 144L61 144Z" fill="url(#paint1_linear_1896_3508)"/>
<path d="M60 131L60 90.5C60 90.2239 59.7761 90 59.5 90V90C59.2239 90 59 90.2239 59 90.5L59 131L60 131Z" fill="url(#paint2_linear_1896_3508)"/>
<path d="M58 119L58 90.5C58 90.2239 57.7761 90 57.5 90V90C57.2239 90 57 90.2239 57 90.5L57 119L58 119Z" fill="url(#paint3_linear_1896_3508)"/>
<path d="M63 131L63 90.5C63 90.2239 63.2239 90 63.5 90V90C63.7761 90 64 90.2239 64 90.5L64 131L63 131Z" fill="url(#paint4_linear_1896_3508)"/>
<path d="M65 119L65 90.5C65 90.2239 65.2239 90 65.5 90V90C65.7761 90 66 90.2239 66 90.5L66 119L65 119Z" fill="url(#paint5_linear_1896_3508)"/>
<path d="M138.86 0.5C149.07 16.1776 155.003 34.896 155.003 55C155.003 110.228 110.231 155 55.0029 155C34.8575 155 16.1036 149.043 0.40625 138.795" stroke="url(#paint6_linear_1896_3508)"/>
<g filter="url(#filter2_d_1896_3508)">
<path d="M77.6543 73.2884C77.5726 73.3592 77.466 73.4019 77.3494 73.4021C77.0917 73.4027 76.882 73.1939 76.8816 72.936L76.8498 55.0066L61.5403 46.2039L46.2622 55.0612L46.2942 72.9905C46.2949 73.2487 46.086 73.4579 45.8277 73.4583C45.57 73.4588 45.3602 73.2501 45.3599 72.9922L45.3274 54.7931C45.3271 54.6262 45.4171 54.4723 45.5602 54.3881L61.3051 45.2606C61.4496 45.177 61.6277 45.1767 61.7722 45.2597L77.5491 54.3311C77.6936 54.4141 77.7831 54.5683 77.7834 54.7352L77.8159 72.9343C77.8162 73.0758 77.7534 73.2026 77.6543 73.2884Z" fill="url(#paint7_linear_1896_3508)" shape-rendering="crispEdges"/>
</g>
<g filter="url(#filter3_d_1896_3508)">
<path d="M73.9106 82.3054C73.8289 82.3762 73.7223 82.419 73.6057 82.4191C73.348 82.4197 73.1382 82.2109 73.1379 81.953L73.1137 68.3641L61.567 61.725L50.0444 68.4056L50.0684 81.994C50.069 82.2523 49.8597 82.4613 49.6019 82.4619C49.3442 82.4624 49.1346 82.2535 49.1341 81.9958L49.1096 68.1375C49.1094 67.9705 49.1996 67.8164 49.3424 67.7326L61.3318 60.7816C61.4764 60.6981 61.6544 60.6978 61.799 60.7808L73.813 67.6886C73.9576 67.7716 74.0471 67.9258 74.0474 68.0927L74.0722 81.9513C74.0725 82.0928 74.0097 82.2196 73.9106 82.3054Z" fill="url(#paint8_linear_1896_3508)" shape-rendering="crispEdges"/>
</g>
<g filter="url(#filter4_d_1896_3508)">
<path d="M61.9314 95.558C61.8472 95.6309 61.7392 95.6719 61.6263 95.6719C61.4949 95.6723 61.3689 95.6167 61.2805 95.5195L49.2548 82.3142C49.2189 82.2748 49.1898 82.2293 49.1692 82.1802L45.3942 73.175C45.2951 72.9374 45.4063 72.6631 45.6445 72.5637C45.8824 72.4639 46.1558 72.5759 46.2557 72.8139L49.9996 81.7448L61.6243 94.5098L73.2033 81.7034L76.9153 72.7592C77.0148 72.5209 77.2875 72.4079 77.5258 72.5069C77.7641 72.6058 77.877 72.8791 77.7781 73.1174L74.0352 82.136C74.0147 82.1852 73.9859 82.2306 73.9501 82.2701L61.9719 95.5181C61.9591 95.5322 61.9457 95.5456 61.9314 95.558Z" fill="url(#paint9_linear_1896_3508)" shape-rendering="crispEdges"/>
</g>
<g filter="url(#filter5_d_1896_3508)">
<path d="M61.931 95.5578C61.8731 95.608 61.8022 95.6446 61.7229 95.6614C61.5073 95.7075 61.2884 95.596 61.1989 95.3948L49.1488 68.3313C49.1397 68.3107 49.132 68.2896 49.126 68.2683L45.343 54.9223C45.2724 54.6739 45.4172 54.4164 45.6649 54.3454C45.9131 54.2753 46.1715 54.4197 46.2418 54.6677L50.0157 67.9818L61.1546 92.9986L61.0545 36.9972C61.0541 36.7393 61.2632 36.5299 61.5209 36.5293C61.7787 36.5288 61.9882 36.7377 61.9888 36.9955L62.0926 95.2037C62.0927 95.3436 62.031 95.4713 61.931 95.5578Z" fill="url(#paint10_linear_1896_3508)" shape-rendering="crispEdges"/>
</g>
<g filter="url(#filter6_d_1896_3508)">
<path d="M61.9314 95.5576C61.7992 95.6721 61.608 95.7074 61.4371 95.632C61.2011 95.5281 61.094 95.2522 61.198 95.0161L73.1382 67.9403L76.7957 54.859L61.5228 37.7001L46.1424 55.1045C45.9731 55.2957 45.6767 55.3164 45.483 55.145C45.29 54.9743 45.2716 54.6789 45.4425 54.4857L61.1717 36.687C61.2599 36.5878 61.3871 36.5295 61.521 36.5294C61.6544 36.5291 61.7817 36.586 61.8706 36.6858L77.663 54.4284C77.7688 54.5474 77.8069 54.7116 77.7639 54.8647L74.0287 68.2238C74.0228 68.2452 74.0153 68.2662 74.0064 68.2866L62.053 95.3932C62.0242 95.4585 61.9821 95.5137 61.9314 95.5576Z" fill="url(#paint11_linear_1896_3508)" shape-rendering="crispEdges"/>
</g>
<g filter="url(#filter7_d_1896_3508)">
<circle cx="61.3691" cy="69.537" r="42.4472" stroke="url(#paint12_linear_1896_3508)" stroke-width="0.25" stroke-linecap="round" stroke-linejoin="round" shape-rendering="crispEdges"/>
</g>
<path d="M49.5234 87.0408C51.3278 104.545 55.7578 116.918 60.9366 116.918C67.7177 116.918 73.2149 95.7039 73.2149 69.5351C73.2149 43.3662 67.7177 22.1521 60.9366 22.1521C56.7878 22.1521 53.1196 30.0928 50.8969 42.2507" stroke="url(#paint13_linear_1896_3508)" stroke-width="0.25" stroke-dasharray="0.5 0.5"/>
<g filter="url(#filter8_d_1896_3508)">
<ellipse rx="26.0758" ry="42.1585" transform="matrix(0.707623 -0.70659 0.707623 0.70659 61.2803 69.5553)" stroke="url(#paint14_linear_1896_3508)" stroke-width="0.5" stroke-linecap="round" stroke-dasharray="1 1" shape-rendering="crispEdges"/>
</g>
<path d="M80.4367 87.2682C80.3191 87.3882 80.2009 87.508 80.0821 87.6275L79.9933 87.5395C79.934 87.5991 79.8745 87.6587 79.815 87.7182C79.7554 87.7777 79.6957 87.837 79.636 87.8962L79.7241 87.9849C79.6045 88.1035 79.4845 88.2215 79.3643 88.339L79.2769 88.2497C79.1569 88.3669 79.0367 88.4835 78.9162 88.5995L79.003 88.6895C78.8823 88.8057 78.7613 88.9213 78.6401 89.0363L78.5539 88.9458C78.4327 89.0609 78.3112 89.1754 78.1894 89.2892L78.2749 89.3804C78.1517 89.4956 78.0283 89.6102 77.9046 89.7242L77.8197 89.6324C77.6963 89.7462 77.5726 89.8593 77.4486 89.9719L77.5328 90.0643C77.4086 90.177 77.2842 90.2891 77.1596 90.4006L77.0761 90.3076C76.9518 90.4189 76.8271 90.5296 76.7023 90.6396L76.7851 90.7333C76.6585 90.8448 76.5317 90.9557 76.4047 91.066L76.3227 90.9717C76.1958 91.0819 76.0687 91.1914 75.9414 91.3003L76.0227 91.3952C75.8952 91.5043 75.7674 91.6127 75.6394 91.7205L75.5588 91.625C75.4311 91.7326 75.3031 91.8396 75.175 91.9459L75.2549 92.0419C75.1253 92.1495 74.9955 92.2563 74.8655 92.3625L74.7863 92.2659C74.6561 92.3722 74.5256 92.478 74.395 92.583L74.4735 92.6803C74.3426 92.7855 74.2116 92.8901 74.0803 92.9941L74.0026 92.8962C73.8716 92.9999 73.7404 93.103 73.6091 93.2053L73.686 93.3038C73.5534 93.4072 73.4206 93.5099 73.2876 93.6119L73.2114 93.5129C73.0779 93.6153 72.9442 93.717 72.8103 93.8181L72.8858 93.9177C72.7516 94.0189 72.6174 94.1195 72.4829 94.2193L72.4083 94.1191C72.2741 94.2187 72.1397 94.3177 72.0053 94.416L72.0791 94.5168C71.9435 94.6159 71.8076 94.7143 71.6717 94.812L71.5986 94.7106C71.4619 94.8089 71.325 94.9064 71.188 95.0032L71.2602 95.1052C71.123 95.2022 70.9855 95.2985 70.848 95.3941L70.7765 95.2915C70.6393 95.3869 70.5018 95.4815 70.3643 95.5755L70.4349 95.6786C70.2962 95.7733 70.1574 95.8673 70.0184 95.9606L69.9486 95.8569C69.8088 95.9508 69.6688 96.0439 69.5287 96.1362L69.5976 96.2405C69.4573 96.333 69.3168 96.4248 69.1762 96.5159L69.1082 96.4111C68.9679 96.5019 68.8275 96.592 68.687 96.6814L68.7542 96.7867C68.6124 96.8769 68.4705 96.9663 68.3285 97.055L68.2622 96.9491C68.1193 97.0383 67.9763 97.1267 67.8333 97.2144L67.8987 97.3208C67.7553 97.4087 67.6119 97.4957 67.4684 97.582L67.4039 97.475C67.2607 97.5611 67.1174 97.6464 66.9741 97.7309L67.0377 97.8385C66.8927 97.9239 66.7477 98.0086 66.6027 98.0924L66.54 97.9843C66.3942 98.0686 66.2484 98.1521 66.1024 98.2347L66.1642 98.3434C66.0179 98.4262 65.8717 98.5083 65.7253 98.5895L65.6646 98.4803C65.5186 98.5613 65.3725 98.6415 65.2264 98.7209L65.2862 98.8306C65.1381 98.9111 64.99 98.9908 64.8418 99.0696L64.783 98.9594C64.6344 99.0385 64.4858 99.1167 64.3371 99.194L64.3949 99.3048C64.2459 99.3823 64.0969 99.459 63.9479 99.5349L63.8911 99.4236C63.7425 99.4992 63.5938 99.574 63.4451 99.648L63.5009 99.7598C63.3495 99.8351 63.1981 99.9095 63.0468 99.983L62.992 99.8707C62.8408 99.9442 62.6895 100.017 62.5382 100.089L62.5919 100.201C62.4403 100.273 62.2887 100.344 62.1372 100.414L62.0846 100.301C61.9329 100.371 61.7813 100.44 61.6297 100.509L61.6812 100.623C61.5269 100.692 61.3727 100.761 61.2186 100.828L61.1682 100.714C61.0144 100.782 60.8607 100.848 60.7071 100.914L60.7563 101.029C60.6022 101.095 60.4483 101.16 60.2944 101.223L60.2463 101.108C60.0913 101.173 59.9363 101.236 59.7814 101.299L59.8283 101.414C59.6717 101.478 59.5151 101.54 59.3586 101.601L59.3129 101.485C59.1568 101.546 59.0008 101.606 58.845 101.665L58.8894 101.782C58.7332 101.842 58.577 101.9 58.4209 101.957L58.3777 101.84C58.2192 101.898 58.0608 101.956 57.9026 102.012L57.9446 102.13C57.7857 102.186 57.627 102.242 57.4684 102.296L57.4277 102.178C57.2696 102.232 57.1116 102.285 56.9538 102.338L56.9931 102.456C56.8335 102.509 56.6741 102.561 56.5148 102.611L56.4768 102.492C56.3161 102.544 56.1556 102.594 55.9952 102.643L56.0319 102.762C55.8711 102.811 55.7105 102.859 55.5501 102.906L55.5148 102.787C55.3549 102.834 55.1952 102.879 55.0357 102.924L55.0695 103.044C54.9063 103.09 54.7433 103.135 54.5805 103.178L54.5482 103.058C54.3858 103.101 54.2237 103.143 54.0618 103.184L54.0926 103.305C53.9302 103.347 53.7681 103.387 53.6062 103.426L53.5769 103.304C53.4135 103.344 53.2504 103.382 53.0875 103.419L53.1153 103.541C52.9505 103.578 52.786 103.614 52.6218 103.65L52.5956 103.527C52.4319 103.562 52.2686 103.596 52.1055 103.629L52.1301 103.751C51.9655 103.784 51.8012 103.816 51.6373 103.846L51.6144 103.724C51.4484 103.754 51.2828 103.784 51.1176 103.812L51.1388 103.935C50.973 103.964 50.8075 103.991 50.6424 104.017L50.623 103.894C50.4584 103.919 50.2941 103.944 50.1302 103.967L50.1479 104.091C49.9799 104.115 49.8124 104.137 49.6452 104.159L49.6294 104.035C49.4629 104.056 49.2968 104.076 49.1312 104.094L49.1451 104.219C48.9788 104.237 48.813 104.254 48.6476 104.27L48.6356 104.146C48.4676 104.162 48.3001 104.177 48.1331 104.191L48.1432 104.315C47.9751 104.329 47.8074 104.341 47.6403 104.351L47.6323 104.227C47.4659 104.237 47.2999 104.247 47.1346 104.255L47.1405 104.379C46.9716 104.387 46.8031 104.394 46.6353 104.399L46.6314 104.274C46.4635 104.28 46.2961 104.283 46.1293 104.285L46.131 104.41C45.9635 104.413 45.7965 104.413 45.6302 104.413L45.6308 104.288C45.4625 104.287 45.2948 104.285 45.1277 104.281L45.1249 104.406C44.9562 104.402 44.7881 104.397 44.6208 104.39L44.6259 104.265C44.4594 104.258 44.2934 104.249 44.1282 104.239L44.1206 104.364C43.9518 104.354 43.7837 104.342 43.6164 104.329L43.6264 104.204C43.4591 104.191 43.2926 104.175 43.1269 104.159L43.1143 104.283C42.9477 104.266 42.7818 104.248 42.6168 104.228L42.6319 104.104C42.4648 104.083 42.2984 104.061 42.1329 104.038L42.1151 104.161C41.9484 104.137 41.7825 104.112 41.6174 104.084L41.6378 103.961C41.4736 103.934 41.3101 103.905 41.1476 103.874L41.1244 103.997C40.958 103.966 40.7925 103.933 40.6279 103.898L40.654 103.776C40.4904 103.741 40.3277 103.704 40.166 103.666L40.1371 103.787C39.9738 103.749 39.8114 103.708 39.65 103.666L39.6818 103.545C39.5194 103.502 39.358 103.458 39.1977 103.412L39.1629 103.532C39.0016 103.485 38.8413 103.436 38.682 103.386L38.7198 103.267C38.5604 103.216 38.4021 103.164 38.245 103.11L38.2041 103.228C38.0448 103.173 37.8866 103.116 37.7296 103.057L37.7735 102.94C37.6175 102.882 37.4627 102.821 37.309 102.759L37.2619 102.875C37.1058 102.812 36.9509 102.746 36.7973 102.679L36.8475 102.565C36.6945 102.498 36.5428 102.429 36.3923 102.358L36.3389 102.471C36.1872 102.399 36.0368 102.326 35.8876 102.25L35.9442 102.139C35.7952 102.063 35.6474 101.986 35.501 101.906L35.4412 102.016C35.2937 101.936 35.1475 101.853 35.0027 101.769L35.0657 101.661C34.9217 101.577 34.7791 101.492 34.6378 101.404L34.5717 101.51C34.4291 101.421 34.288 101.33 34.1482 101.238L34.2175 101.134C34.0788 101.041 33.9415 100.947 33.8057 100.851L33.7333 100.953C33.5965 100.856 33.4613 100.757 33.3274 100.656L33.4029 100.556C33.2701 100.456 33.1388 100.354 33.009 100.249L32.9305 100.346C32.7999 100.241 32.6707 100.134 32.543 100.025L32.6244 99.93C32.4984 99.8221 32.3739 99.7121 32.2509 99.6001L32.1666 99.6924C32.0426 99.5795 31.9202 99.4646 31.7994 99.3475L31.8864 99.2579C31.8265 99.1998 31.7669 99.1412 31.7077 99.0821C31.6485 99.023 31.5898 98.9635 31.5316 98.9036L31.4418 98.9905C31.3246 98.8698 31.2095 98.7476 31.0965 98.6238L31.1889 98.5397C31.0767 98.4168 30.9666 98.2925 30.8586 98.1667L30.7636 98.248C30.6541 98.1205 30.5468 97.9915 30.4415 97.861L30.5389 97.7826C30.4343 97.653 30.3318 97.5219 30.2314 97.3893L30.1316 97.4647C30.0304 97.3311 29.9313 97.196 29.8343 97.0595L29.9363 96.9872C29.8398 96.8515 29.7455 96.7144 29.6532 96.5759L29.5491 96.6451C29.4561 96.5056 29.3652 96.3646 29.2764 96.2223L29.3826 96.1562C29.2946 96.0152 29.2087 95.8728 29.1248 95.729L29.0167 95.7919C28.9323 95.6473 28.85 95.5013 28.7697 95.354L28.8796 95.2943C28.7999 95.1481 28.7223 95.0006 28.6467 94.8517L28.5351 94.9082C28.4594 94.7593 28.3858 94.6091 28.3142 94.4576L28.4273 94.4043C28.3562 94.254 28.2871 94.1025 28.2201 93.9498L28.1055 93.9999C28.0381 93.8465 27.9727 93.6918 27.9093 93.5359L28.0252 93.4889C27.9628 93.3355 27.9023 93.1809 27.8438 93.0251L27.7267 93.069C27.6677 92.9122 27.6107 92.7542 27.5557 92.5951L27.6739 92.5543C27.6196 92.3974 27.5672 92.2393 27.5167 92.0802L27.3975 92.1179C27.347 91.9589 27.2984 91.7989 27.2517 91.6378L27.3719 91.603C27.3254 91.4429 27.2809 91.2818 27.2382 91.1196L27.1172 91.1513C27.0748 90.9902 27.0342 90.8281 26.9954 90.665L27.1171 90.6361C27.0787 90.4746 27.0421 90.3122 27.0073 90.1489L26.885 90.1749C26.85 90.0105 26.8168 89.8453 26.7854 89.6791L26.9083 89.656C26.8776 89.4937 26.8486 89.3305 26.8214 89.1664L26.698 89.1869C26.6706 89.022 26.6449 88.8563 26.621 88.6898L26.7448 88.6721C26.7211 88.5068 26.699 88.3407 26.6786 88.1738L26.5545 88.1889C26.5344 88.0241 26.5159 87.8585 26.4991 87.6921L26.6235 87.6796C26.6068 87.5141 26.5917 87.3478 26.5782 87.1808L26.4535 87.1908C26.4401 87.0237 26.4282 86.8558 26.4179 86.6873L26.5428 86.6797C26.5328 86.5147 26.5243 86.349 26.5174 86.1827L26.3924 86.1879C26.3855 86.0207 26.3801 85.8529 26.3762 85.6845L26.5013 85.6816C26.4975 85.5148 26.4952 85.3474 26.4945 85.1793L26.3694 85.1799C26.3686 85.0138 26.3694 84.8471 26.3716 84.6799L26.4967 84.6815C26.4989 84.515 26.5026 84.3478 26.5077 84.1801L26.3827 84.1763C26.3879 84.0087 26.3945 83.8405 26.4025 83.6718L26.5275 83.6777C26.5354 83.5126 26.5447 83.3469 26.5554 83.1807L26.4306 83.1727C26.4413 83.0058 26.4535 82.8385 26.467 82.6706L26.5917 82.6806C26.6051 82.5139 26.62 82.3466 26.6362 82.1789L26.5117 82.1669C26.5277 82.0017 26.545 81.8362 26.5636 81.6701L26.6879 81.684C26.7065 81.5186 26.7264 81.3528 26.7476 81.1865L26.6235 81.1707C26.6448 81.0038 26.6675 80.8365 26.6914 80.6688L26.8153 80.6864C26.8386 80.5228 26.8633 80.3588 26.8891 80.1944L26.7656 80.175C26.7915 80.0101 26.8188 79.8449 26.8472 79.6794L26.9705 79.7005C26.9989 79.5355 27.0285 79.3702 27.0594 79.2044L26.9365 79.1816C26.967 79.0179 26.9987 78.8539 27.0317 78.6895L27.1543 78.714C27.1869 78.5512 27.2208 78.3881 27.2558 78.2247L27.1335 78.1985C27.1686 78.0346 27.205 77.8703 27.2425 77.7057L27.3645 77.7335C27.4015 77.5709 27.4398 77.408 27.4792 77.2448L27.3576 77.2155C27.3967 77.0539 27.4369 76.892 27.4782 76.7298L27.5994 76.7606C27.6406 76.599 27.6829 76.4371 27.7264 76.2749L27.6056 76.2426C27.6491 76.0801 27.6938 75.9174 27.7396 75.7544L27.8601 75.7882C27.9049 75.6289 27.9507 75.4694 27.9977 75.3097L27.8776 75.2745C27.9247 75.1144 27.9729 74.954 28.0221 74.7934L28.1417 74.83C28.1908 74.6699 28.241 74.5096 28.2923 74.3492L28.1731 74.3112C28.2239 74.1522 28.2757 73.993 28.3286 73.8336L28.4474 73.8729C28.4997 73.7153 28.553 73.5575 28.6074 73.3996L28.4891 73.359C28.5436 73.2006 28.5991 73.0421 28.6557 72.8835L28.7735 72.9254C28.8298 72.7674 28.8872 72.6093 28.9456 72.451L28.8282 72.4078C28.8857 72.252 28.9441 72.0961 29.0036 71.94L29.1205 71.9844C29.1798 71.8288 29.24 71.673 29.3012 71.5172L29.1848 71.4716C29.2462 71.3153 29.3086 71.159 29.3719 71.0025L29.4879 71.0493C29.5505 70.8947 29.6141 70.74 29.6786 70.5851L29.5631 70.5372C29.6272 70.3835 29.6922 70.2297 29.7581 70.0759L29.8731 70.1251C29.9389 69.9716 30.0056 69.8181 30.0732 69.6646L29.9587 69.6143C30.0265 69.4604 30.0952 69.3064 30.1649 69.1524L30.2789 69.2038C30.3473 69.0524 30.4167 68.901 30.487 68.7495L30.3735 68.697C30.4437 68.5457 30.5148 68.3943 30.5867 68.243L30.6997 68.2965C30.7716 68.1455 30.8443 67.9945 30.9179 67.8434L30.8054 67.7888C30.879 67.6376 30.9535 67.4865 31.0289 67.3353L31.1409 67.391C31.215 67.2426 31.2899 67.0941 31.3657 66.9456L31.2542 66.8889C31.3301 66.7401 31.4069 66.5914 31.4846 66.4426L31.5955 66.5003C31.673 66.3519 31.7513 66.2035 31.8305 66.0551L31.7201 65.9963C31.799 65.8484 31.8788 65.7005 31.9594 65.5526L32.0693 65.6123C32.1488 65.4664 32.2292 65.3206 32.3103 65.1748L32.201 65.1141C32.2823 64.968 32.3645 64.8219 32.4474 64.6759L32.5562 64.7376C32.639 64.5919 32.7226 64.4462 32.807 64.3006L32.6987 64.238C32.7827 64.0932 32.8675 63.9484 32.9531 63.8037L33.0608 63.8672C33.1454 63.7241 33.2309 63.581 33.3171 63.438L33.2099 63.3736C33.2963 63.2303 33.3835 63.0871 33.4715 62.9439L33.5781 63.0092C33.6659 62.8664 33.7544 62.7237 33.8438 62.581L33.7377 62.5148C33.8265 62.373 33.916 62.2313 34.0063 62.0897L34.1119 62.1568C34.2013 62.0165 34.2916 61.8763 34.3826 61.7362L34.2776 61.6683C34.3688 61.5279 34.4607 61.3876 34.5534 61.2475L34.6578 61.3163C34.7503 61.1764 34.8435 61.0366 34.9375 60.897L34.8337 60.8273C34.9271 60.6886 35.0212 60.5499 35.1161 60.4114L35.2194 60.4819C35.3134 60.3446 35.4082 60.2074 35.5037 60.0703L35.4011 59.9989C35.4968 59.8616 35.5932 59.7244 35.6903 59.5873L35.7924 59.6594C35.8894 59.5226 35.9871 59.386 36.0855 59.2494L35.9839 59.1765C36.0818 59.0407 36.1804 58.9051 36.2796 58.7696L36.3806 58.8434C36.479 58.7091 36.5781 58.5749 36.6779 58.4409L36.5775 58.3664C36.6775 58.2321 36.7782 58.0981 36.8796 57.9641L36.9794 58.0395C37.0806 57.9058 37.1824 57.7723 37.285 57.639L37.1858 57.5629C37.288 57.4301 37.3908 57.2975 37.4944 57.165L37.593 57.2419C37.6955 57.1107 37.7987 56.9797 37.9026 56.8489L37.8046 56.7713C37.9086 56.6403 38.0134 56.5094 38.1188 56.3787L38.2162 56.4571C38.3214 56.3267 38.4273 56.1964 38.5338 56.0664L38.437 55.9873C38.5434 55.8575 38.6504 55.7279 38.7581 55.5984L38.8543 55.6783C38.9607 55.5503 39.0678 55.4226 39.1756 55.295L39.08 55.2145C39.1879 55.0867 39.2965 54.9591 39.4058 54.8318L39.5008 54.913C39.6098 54.7859 39.7195 54.659 39.8298 54.5323L39.7355 54.4503C39.8459 54.3235 39.957 54.1969 40.0687 54.0705L40.1625 54.1532C40.2727 54.0285 40.3835 53.9041 40.4949 53.7799L40.4018 53.6965C40.5134 53.5721 40.6257 53.4479 40.7386 53.3239L40.8312 53.4079C40.9439 53.2842 41.0572 53.1607 41.1711 53.0374L41.0792 52.9527C41.1933 52.8292 41.3081 52.7059 41.4235 52.5829L41.5148 52.6683C41.6288 52.5467 41.7435 52.4253 41.8587 52.3042L41.7681 52.2182C41.8833 52.0972 41.9991 51.9764 42.1155 51.8558L42.2055 51.9426C42.3217 51.8222 42.4385 51.7022 42.5559 51.5824L42.4665 51.495C42.5841 51.375 42.7023 51.2552 42.8211 51.1358L42.9098 51.2238C42.9691 51.1641 43.0286 51.1046 43.0881 51.045C43.1477 50.9856 43.2074 50.9262 43.2671 50.867L43.179 50.7784C43.2986 50.6597 43.4186 50.5417 43.5388 50.4243L43.6262 50.5136C43.7462 50.3963 43.8664 50.2797 43.9869 50.1637L43.9001 50.0738C44.0208 49.9576 44.1418 49.8419 44.263 49.7269L44.3492 49.8175C44.4704 49.7024 44.5919 49.5879 44.7137 49.474L44.6282 49.3829C44.7514 49.2676 44.8748 49.153 44.9985 49.0391L45.0834 49.1308C45.2068 49.0171 45.3305 48.9039 45.4545 48.7914L45.3703 48.699C45.4945 48.5862 45.6189 48.4741 45.7435 48.3626L45.827 48.4557C45.9514 48.3444 46.076 48.2337 46.2008 48.1236L46.118 48.03C46.2446 47.9185 46.3714 47.8075 46.4984 47.6973L46.5805 47.7915C46.7073 47.6814 46.8344 47.5718 46.9617 47.463L46.8804 47.3681C47.0079 47.259 47.1357 47.1506 47.2637 47.0428L47.3443 47.1382C47.472 47.0306 47.6 46.9237 47.7281 46.8174L47.6482 46.7213C47.7778 46.6138 47.9076 46.5069 48.0376 46.4007L48.1168 46.4974C48.247 46.391 48.3775 46.2853 48.5081 46.1802L48.4296 46.083C48.5605 45.9777 48.6915 45.8731 48.8228 45.7692L48.9005 45.8671C49.0315 45.7633 49.1627 45.6603 49.294 45.5579L49.2171 45.4595C49.3497 45.3561 49.4825 45.2534 49.6155 45.1513L49.6917 45.2504C49.8252 45.148 49.9589 45.0462 50.0928 44.9452L50.0173 44.8456C50.1515 44.7443 50.2857 44.6438 50.4202 44.5439L50.4948 44.6442C50.629 44.5445 50.7634 44.4456 50.8978 44.3473L50.824 44.2465C50.9597 44.1474 51.0955 44.0489 51.2315 43.9512L51.3045 44.0526C51.4412 43.9544 51.5781 43.8568 51.7151 43.76L51.6429 43.6581C51.7801 43.561 51.9176 43.4648 52.0551 43.3692L52.1266 43.4717C52.2638 43.3764 52.4013 43.2817 52.5388 43.1878L52.4682 43.0847C52.6069 42.9899 52.7458 42.8959 52.8847 42.8027L52.9545 42.9063C53.0943 42.8125 53.2343 42.7194 53.3744 42.627L53.3055 42.5228C53.4458 42.4302 53.5863 42.3385 53.7269 42.2474L53.7949 42.3522C53.9352 42.2613 54.0756 42.1712 54.2161 42.0819L54.1489 41.9765C54.2907 41.8863 54.4326 41.7969 54.5746 41.7083L54.6409 41.8142C54.7838 41.725 54.9268 41.6365 55.0698 41.5489L55.0044 41.4424C55.1478 41.3546 55.2912 41.2675 55.4347 41.1813L55.4992 41.2883C55.6424 41.2022 55.7857 41.1169 55.9291 41.0324L55.8654 40.9248C56.0104 40.8393 56.1554 40.7547 56.3004 40.6708L56.3631 40.7789C56.5089 40.6947 56.6547 40.6112 56.8007 40.5285L56.7389 40.4199C56.8852 40.337 57.0314 40.255 57.1778 40.1738L57.2385 40.283C57.3845 40.2019 57.5306 40.1217 57.6767 40.0423L57.6169 39.9326C57.765 39.8521 57.9131 39.7724 58.0613 39.6936L58.1201 39.8039C58.2687 39.7248 58.4174 39.6466 58.566 39.5692L58.5082 39.4585C58.6572 39.3809 58.8062 39.3042 58.9552 39.2284L59.012 39.3397C59.1607 39.264 59.3093 39.1892 59.458 39.1153L59.4022 39.0035C59.5536 38.9282 59.705 38.8538 59.8564 38.7802L59.9111 38.8925C60.0624 38.8191 60.2136 38.7465 60.3649 38.6747L60.3112 38.5619C60.4628 38.49 60.6144 38.419 60.7659 38.3489L60.8185 38.4623C60.9702 38.3921 61.1218 38.3229 61.2734 38.2545L61.2219 38.1407C61.3762 38.0711 61.5304 38.0025 61.6845 37.9348L61.7349 38.0491C61.8887 37.9816 62.0424 37.915 62.196 37.8493L62.1468 37.7345C62.3009 37.6687 62.4548 37.6037 62.6087 37.5398L62.6568 37.6551C62.8118 37.5907 62.9668 37.5272 63.1217 37.4647L63.0748 37.3489C63.2315 37.2856 63.388 37.2233 63.5445 37.162L63.5902 37.2783C63.7463 37.2171 63.9023 37.157 64.0581 37.0978L64.0137 36.981C64.1699 36.9217 64.3261 36.8633 64.4822 36.8059L64.5254 36.9231C64.6839 36.8648 64.8423 36.8076 65.0005 36.7513L64.9585 36.6337C65.1174 36.5772 65.2761 36.5217 65.4347 36.4673L65.4754 36.5854C65.6335 36.5311 65.7915 36.4779 65.9494 36.4256L65.91 36.3071C66.0696 36.2543 66.229 36.2025 66.3883 36.1518L66.4263 36.2708C66.587 36.2196 66.7475 36.1695 66.9079 36.1205L66.8713 36.001C67.032 35.9519 67.1926 35.9038 67.353 35.8568L67.3883 35.9766C67.5482 35.9297 67.7079 35.8839 67.8674 35.8392L67.8336 35.719C67.9968 35.6732 68.1598 35.6286 68.3226 35.5851L68.3549 35.7057C68.5173 35.6623 68.6795 35.6201 68.8413 35.5789L68.8105 35.4579C68.9729 35.4166 69.135 35.3765 69.2969 35.3375L69.3262 35.4589C69.4896 35.4196 69.6527 35.3814 69.8156 35.3443L69.7878 35.2225C69.9526 35.1851 70.1171 35.1488 70.2813 35.1137L70.3075 35.2358C70.4712 35.2009 70.6346 35.1671 70.7976 35.1345L70.773 35.012C70.9376 34.9791 71.1019 34.9474 71.2658 34.917L71.2887 35.0398C71.4547 35.0089 71.6203 34.9793 71.7855 34.951L71.7643 34.8279C71.9301 34.7994 72.0956 34.7722 72.2607 34.7463L72.2801 34.8697C72.4447 34.8439 72.609 34.8193 72.7729 34.7959L72.7552 34.6723C72.9232 34.6484 73.0907 34.6258 73.2579 34.6045L73.2737 34.7284C73.4402 34.7072 73.6063 34.6874 73.7719 34.6688L73.758 34.5447C73.9243 34.5261 74.0901 34.5088 74.2555 34.4928L74.2675 34.6172C74.4355 34.601 74.603 34.5861 74.77 34.5727L74.7599 34.4482C74.928 34.4347 75.0957 34.4225 75.2628 34.4118L75.2708 34.5365C75.4372 34.5258 75.6032 34.5165 75.7685 34.5086L75.7626 34.3838C75.9315 34.3758 76.1 34.3692 76.2678 34.364L76.2717 34.4889C76.4396 34.4837 76.607 34.48 76.7738 34.4778L76.7721 34.3529C76.9396 34.3507 77.1066 34.3499 77.2729 34.3507L77.2723 34.4756C77.4407 34.4763 77.6083 34.4786 77.7754 34.4824L77.7782 34.3575C77.9469 34.3614 78.115 34.3667 78.2824 34.3737L78.2772 34.4985C78.4438 34.5054 78.6097 34.5139 78.7749 34.5239L78.7825 34.3992C78.9513 34.4094 79.1194 34.4213 79.2867 34.4347L79.2767 34.5592C79.444 34.5727 79.6105 34.5878 79.7762 34.6045L79.7888 34.4802C79.9554 34.497 80.1213 34.5154 80.2863 34.5355L80.2712 34.6595C80.4384 34.6798 80.6047 34.7019 80.7702 34.7256L80.788 34.6019C80.9547 34.6258 81.1207 34.6515 81.2857 34.6788L81.2653 34.802C81.4296 34.8292 81.593 34.8582 81.7555 34.8888L81.7787 34.7661C81.9451 34.7974 82.1106 34.8306 82.2752 34.8655L82.2491 34.9877C82.4127 35.0225 82.5754 35.059 82.7371 35.0973L82.766 34.9758C82.9293 35.0145 83.0917 35.0551 83.2531 35.0974L83.2213 35.2182C83.3837 35.2609 83.5451 35.3054 83.7054 35.3517L83.7402 35.2317C83.9016 35.2784 84.0619 35.3269 84.2211 35.3773L84.1833 35.4963C84.3427 35.5468 84.501 35.5991 84.6581 35.6533L84.699 35.5353C84.8583 35.5902 85.0165 35.6471 85.1735 35.706L85.1296 35.8229C85.2856 35.8814 85.4404 35.9418 85.5941 36.0041L85.6412 35.8884C85.7973 35.9517 85.9522 36.017 86.1058 36.0843L86.0556 36.1987C86.2086 36.2657 86.3603 36.3346 86.5108 36.4056L86.5642 36.2926C86.7159 36.3641 86.8663 36.4377 87.0155 36.5132L86.9589 36.6246C87.1079 36.7001 87.2557 36.7777 87.4021 36.8572L87.4619 36.7475C87.6094 36.8277 87.7556 36.9099 87.9004 36.9941L87.8374 37.102C87.9814 37.1858 88.1241 37.2716 88.2653 37.3595L88.3314 37.2535C88.474 37.3421 88.6151 37.4329 88.7549 37.5257L88.6856 37.6297C88.8243 37.7219 88.9616 37.8161 89.0974 37.9124L89.1698 37.8105C89.3066 37.9074 89.4418 38.0064 89.5757 38.1074L89.5002 38.2071C89.633 38.3073 89.7643 38.4097 89.8941 38.5141L89.9726 38.4168C90.1032 38.522 90.2324 38.6292 90.3601 38.7385L90.2787 38.8333C90.4047 38.9412 90.5292 39.0511 90.6522 39.1631L90.7365 39.0709C90.8605 39.1837 90.9829 39.2987 91.1037 39.4157L91.0167 39.5054C91.0766 39.5635 91.1362 39.6221 91.1954 39.6812C91.2546 39.7403 91.3133 39.7998 91.3715 39.8597L91.4613 39.7727C91.5785 39.8934 91.6936 40.0157 91.8066 40.1394L91.7142 40.2236C91.8264 40.3464 91.9365 40.4708 92.0445 40.5966L92.1395 40.5153C92.249 40.6428 92.3563 40.7718 92.4616 40.9022L92.3642 40.9806C92.4688 41.1102 92.5713 41.2414 92.6717 41.3739L92.7715 41.2986C92.8727 41.4322 92.9718 41.5673 93.0689 41.7038L92.9668 41.7761C93.0633 41.9117 93.1576 42.0488 93.2499 42.1873L93.354 42.1181C93.447 42.2577 93.5379 42.3986 93.6267 42.541L93.5205 42.607C93.6085 42.7481 93.6944 42.8905 93.7783 43.0343L93.8864 42.9714C93.9708 43.116 94.0531 43.2619 94.1334 43.4092L94.0235 43.4689C94.1032 43.6151 94.1808 43.7627 94.2565 43.9115L94.368 43.855C94.4437 44.0039 94.5173 44.1542 94.5889 44.3056L94.4758 44.359C94.5469 44.5092 94.616 44.6607 94.683 44.8135L94.7976 44.7633C94.865 44.9168 94.9304 45.0715 94.9938 45.2273L94.8779 45.2743C94.9403 45.4278 95.0008 45.5824 95.0593 45.7382L95.1765 45.6943C95.2354 45.8511 95.2924 46.009 95.3474 46.1681L95.2292 46.2089C95.2835 46.3659 95.3359 46.5239 95.3864 46.6831L95.5057 46.6453C95.5561 46.8043 95.6047 46.9644 95.6514 47.1255L95.5313 47.1602C95.5777 47.3203 95.6222 47.4815 95.6649 47.6437L95.7859 47.6119C95.8283 47.7731 95.8689 47.9352 95.9077 48.0983L95.786 48.1272C95.8244 48.2886 95.861 48.451 95.8958 48.6144L96.0181 48.5884C96.0531 48.7527 96.0863 48.918 96.1178 49.0841L95.9948 49.1073C96.0255 49.2696 96.0545 49.4328 96.0817 49.5968L96.2051 49.5764C96.2325 49.7412 96.2582 49.9069 96.2821 50.0734L96.1583 50.0912C96.182 50.2564 96.2041 50.4225 96.2245 50.5894L96.3486 50.5743C96.3687 50.7392 96.3872 50.9048 96.404 51.0711L96.2796 51.0837C96.2963 51.2492 96.3114 51.4155 96.3249 51.5825L96.4496 51.5725C96.4631 51.7396 96.4749 51.9074 96.4852 52.076L96.3603 52.0836C96.3703 52.2485 96.3788 52.4142 96.3857 52.5806L96.5107 52.5754C96.5177 52.7425 96.5231 52.9103 96.5269 53.0788L96.4018 53.0816C96.4056 53.2484 96.4079 53.4159 96.4087 53.5839L96.5337 53.5834C96.5345 53.7494 96.5337 53.9161 96.5315 54.0834L96.4064 54.0817C96.4042 54.2483 96.4005 54.4154 96.3954 54.5831L96.5204 54.587C96.5152 54.7546 96.5086 54.9228 96.5006 55.0915L96.3756 55.0855C96.3677 55.2507 96.3584 55.4163 96.3477 55.5825L96.4725 55.5905C96.4618 55.7574 96.4496 55.9248 96.4361 56.0927L96.3114 56.0826C96.298 56.2494 96.2831 56.4166 96.2669 56.5844L96.3914 56.5964C96.3754 56.7615 96.3581 56.9271 96.3395 57.0931L96.2152 57.0792C96.1966 57.2446 96.1767 57.4105 96.1555 57.5767L96.2796 57.5925C96.2583 57.7594 96.2356 57.9267 96.2117 58.0945L96.0878 58.0768C96.0645 58.2405 96.0398 58.4045 96.014 58.5689L96.1375 58.5883C96.1116 58.7531 96.0844 58.9183 96.0559 59.0839L95.9326 59.0627C95.9042 59.2277 95.8746 59.3931 95.8437 59.5588L95.9667 59.5817C95.9361 59.7454 95.9044 59.9094 95.8715 60.0737L95.7488 60.0492C95.7162 60.212 95.6823 60.3751 95.6473 60.5386L95.7696 60.5647C95.7345 60.7287 95.6981 60.893 95.6606 61.0575L95.5386 61.0298C95.5016 61.1924 95.4633 61.3553 95.4239 61.5184L95.5455 61.5477C95.5064 61.7094 95.4663 61.8713 95.4249 62.0334L95.3037 62.0026C95.2625 62.1643 95.2202 62.3262 95.1767 62.4883L95.2975 62.5206C95.254 62.6831 95.2093 62.8459 95.1635 63.0089L95.043 62.9751C94.9982 63.1344 94.9524 63.2939 94.9054 63.4536L95.0255 63.4887C94.9784 63.6489 94.9302 63.8093 94.881 63.9698L94.7614 63.9332C94.7123 64.0933 94.6621 64.2536 94.6108 64.4141L94.73 64.4521C94.6792 64.6111 94.6274 64.7703 94.5745 64.9297L94.4558 64.8904C94.4034 65.048 94.3501 65.2057 94.2958 65.3637L94.4141 65.4043C94.3595 65.5626 94.304 65.7211 94.2474 65.8798L94.1296 65.8379C94.0733 65.9959 94.0159 66.154 93.9575 66.3122L94.0749 66.3554C94.0175 66.5112 93.959 66.6672 93.8996 66.8232L93.7826 66.7788C93.7234 66.9345 93.6631 67.0902 93.6019 67.2461L93.7183 67.2917C93.6569 67.448 93.5945 67.6043 93.5312 67.7607L93.4152 67.7139C93.3526 67.8686 93.289 68.0233 93.2245 68.1781L93.34 68.2261C93.2759 68.3798 93.2109 68.5335 93.145 68.6873L93.03 68.6382C92.9642 68.7916 92.8975 68.9451 92.8299 69.0987L92.9444 69.149C92.8766 69.3029 92.8079 69.4569 92.7382 69.6109L92.6242 69.5595C92.5558 69.7109 92.4864 69.8623 92.4161 70.0137L92.5296 70.0662C92.4594 70.2176 92.3884 70.3689 92.3164 70.5203L92.2034 70.4667C92.1316 70.6177 92.0588 70.7688 91.9853 70.9198L92.0977 70.9745C92.0241 71.1256 91.9496 71.2768 91.8742 71.4279L91.7622 71.3722C91.6881 71.5207 91.6132 71.6692 91.5375 71.8176L91.6489 71.8743C91.573 72.0231 91.4962 72.1719 91.4185 72.3207L91.3076 72.2629C91.2301 72.4114 91.1518 72.5598 91.0726 72.7082L91.183 72.7669C91.1041 72.9149 91.0243 73.0628 90.9437 73.2107L90.8338 73.151C90.7543 73.2968 90.6739 73.4427 90.5928 73.5885L90.7021 73.6491C90.6208 73.7953 90.5387 73.9413 90.4557 74.0873L90.3469 74.0257C90.2641 74.1714 90.1805 74.3171 90.0961 74.4626L90.2044 74.5252C90.1204 74.6701 90.0356 74.8148 89.95 74.9596L89.8423 74.896C89.7577 75.0392 89.6722 75.1822 89.586 75.3252L89.6932 75.3897C89.6068 75.533 89.5196 75.6762 89.4316 75.8193L89.325 75.754C89.2372 75.8968 89.1487 76.0396 89.0593 76.1823L89.1654 76.2485C89.0766 76.3903 88.9871 76.532 88.8968 76.6736L88.7913 76.6065C88.7018 76.7467 88.6115 76.8869 88.5205 77.027L88.6255 77.095C88.5343 77.2354 88.4424 77.3756 88.3497 77.5158L88.2453 77.447C88.1528 77.5868 88.0596 77.7266 87.9656 77.8662L88.0694 77.9359C87.976 78.0747 87.8819 78.2133 87.787 78.3519L87.6837 78.2813C87.5897 78.4187 87.4949 78.5559 87.3994 78.693L87.502 78.7643C87.4063 78.9017 87.3099 79.0389 87.2128 79.176L87.1107 79.1038C87.0137 79.2406 86.916 79.3773 86.8176 79.5138L86.9192 79.5868C86.8213 79.7226 86.7228 79.8582 86.6235 79.9937L86.5225 79.9199C86.4241 80.0542 86.325 80.1883 86.2252 80.3223L86.3256 80.3969C86.2256 80.5311 86.1249 80.6652 86.0235 80.7991L85.9237 80.7238C85.8226 80.8574 85.7207 80.9909 85.6181 81.1243L85.7173 81.2004C85.6151 81.3331 85.5123 81.4658 85.4087 81.5982L85.3101 81.5214C85.2076 81.6525 85.1044 81.7835 85.0005 81.9143L85.0985 81.9919C84.9945 82.123 84.8897 82.2538 84.7843 82.3845L84.6869 82.3062C84.5817 82.4366 84.4758 82.5668 84.3693 82.6969L84.4661 82.776C84.3597 82.9058 84.2527 83.0354 84.145 83.1648L84.0488 83.085C83.9424 83.2129 83.8353 83.3407 83.7275 83.4682L83.8231 83.5488C83.7152 83.6766 83.6066 83.8041 83.4973 83.9315L83.4023 83.8502C83.2933 83.9774 83.1836 84.1043 83.0733 84.231L83.1677 84.3129C83.0572 84.4398 82.9461 84.5664 82.8344 84.6927L82.7407 84.6101C82.6304 84.7347 82.5196 84.8592 82.4082 84.9834L82.5013 85.0667C82.3897 85.1912 82.2774 85.3154 82.1645 85.4394L82.0719 85.3553C81.9592 85.4791 81.8459 85.6026 81.732 85.7259L81.8239 85.8106C81.7098 85.9341 81.595 86.0574 81.4796 86.1804L81.3883 86.095C81.2743 86.2166 81.1596 86.3379 81.0444 86.459L81.135 86.5451C81.0198 86.6661 80.9041 86.7869 80.7877 86.9074L80.6976 86.8207C80.5814 86.941 80.4646 87.0611 80.3472 87.1809L80.4367 87.2682Z" stroke="url(#paint15_linear_1896_3508)" stroke-width="0.25" stroke-dasharray="0.5 0.5"/>
<defs>
<filter id="filter0_b_1896_3508" x="-4" y="-4" width="568" height="238" filterUnits="userSpaceOnUse" color-interpolation-filters="sRGB">
<feFlood flood-opacity="0" result="BackgroundImageFix"/>
<feGaussianBlur in="BackgroundImage" stdDeviation="2"/>
<feComposite in2="SourceAlpha" operator="in" result="effect1_backgroundBlur_1896_3508"/>
<feBlend mode="normal" in="SourceGraphic" in2="effect1_backgroundBlur_1896_3508" result="shape"/>
</filter>
<filter id="filter1_d_1896_3508" x="51" y="83" width="21" height="14" filterUnits="userSpaceOnUse" color-interpolation-filters="sRGB">
<feFlood flood-opacity="0" result="BackgroundImageFix"/>
<feColorMatrix in="SourceAlpha" type="matrix" values="0 0 0 0 0 0 0 0 0 0 0 0 0 0 0 0 0 0 127 0" result="hardAlpha"/>
<feOffset/>
<feGaussianBlur stdDeviation="1.5"/>
<feComposite in2="hardAlpha" operator="out"/>
<feColorMatrix type="matrix" values="0 0 0 0 1 0 0 0 0 1 0 0 0 0 1 0 0 0 1 0"/>
<feBlend mode="normal" in2="BackgroundImageFix" result="effect1_dropShadow_1896_3508"/>
<feBlend mode="normal" in="SourceGraphic" in2="effect1_dropShadow_1896_3508" result="shape"/>
</filter>
<filter id="filter2_d_1896_3508" x="32.3281" y="32.1992" width="58.4883" height="54.2578" filterUnits="userSpaceOnUse" color-interpolation-filters="sRGB">
<feFlood flood-opacity="0" result="BackgroundImageFix"/>
<feColorMatrix in="SourceAlpha" type="matrix" values="0 0 0 0 0 0 0 0 0 0 0 0 0 0 0 0 0 0 127 0" result="hardAlpha"/>
<feOffset/>
<feGaussianBlur stdDeviation="6.5"/>
<feComposite in2="hardAlpha" operator="out"/>
<feColorMatrix type="matrix" values="0 0 0 0 0 0 0 0 0 1 0 0 0 0 0.7 0 0 0 0.25 0"/>
<feBlend mode="normal" in2="BackgroundImageFix" result="effect1_dropShadow_1896_3508"/>
<feBlend mode="normal" in="SourceGraphic" in2="effect1_dropShadow_1896_3508" result="shape"/>
</filter>
<filter id="filter3_d_1896_3508" x="36.1094" y="47.7188" width="50.9609" height="47.7422" filterUnits="userSpaceOnUse" color-interpolation-filters="sRGB">
<feFlood flood-opacity="0" result="BackgroundImageFix"/>
<feColorMatrix in="SourceAlpha" type="matrix" values="0 0 0 0 0 0 0 0 0 0 0 0 0 0 0 0 0 0 127 0" result="hardAlpha"/>
<feOffset/>
<feGaussianBlur stdDeviation="6.5"/>
<feComposite in2="hardAlpha" operator="out"/>
<feColorMatrix type="matrix" values="0 0 0 0 0 0 0 0 0 1 0 0 0 0 0.7 0 0 0 0.25 0"/>
<feBlend mode="normal" in2="BackgroundImageFix" result="effect1_dropShadow_1896_3508"/>
<feBlend mode="normal" in="SourceGraphic" in2="effect1_dropShadow_1896_3508" result="shape"/>
</filter>
<filter id="filter4_d_1896_3508" x="32.3594" y="59.4727" width="58.4531" height="49.1992" filterUnits="userSpaceOnUse" color-interpolation-filters="sRGB">
<feFlood flood-opacity="0" result="BackgroundImageFix"/>
<feColorMatrix in="SourceAlpha" type="matrix" values="0 0 0 0 0 0 0 0 0 0 0 0 0 0 0 0 0 0 127 0" result="hardAlpha"/>
<feOffset/>
<feGaussianBlur stdDeviation="6.5"/>
<feComposite in2="hardAlpha" operator="out"/>
<feColorMatrix type="matrix" values="0 0 0 0 0 0 0 0 0 1 0 0 0 0 0.7 0 0 0 0.25 0"/>
<feBlend mode="normal" in2="BackgroundImageFix" result="effect1_dropShadow_1896_3508"/>
<feBlend mode="normal" in="SourceGraphic" in2="effect1_dropShadow_1896_3508" result="shape"/>
</filter>
<filter id="filter5_d_1896_3508" x="32.3242" y="23.5312" width="42.7695" height="85.1406" filterUnits="userSpaceOnUse" color-interpolation-filters="sRGB">
<feFlood flood-opacity="0" result="BackgroundImageFix"/>
<feColorMatrix in="SourceAlpha" type="matrix" values="0 0 0 0 0 0 0 0 0 0 0 0 0 0 0 0 0 0 127 0" result="hardAlpha"/>
<feOffset/>
<feGaussianBlur stdDeviation="6.5"/>
<feComposite in2="hardAlpha" operator="out"/>
<feColorMatrix type="matrix" values="0 0 0 0 0 0 0 0 0 1 0 0 0 0 0.7 0 0 0 0.25 0"/>
<feBlend mode="normal" in2="BackgroundImageFix" result="effect1_dropShadow_1896_3508"/>
<feBlend mode="normal" in="SourceGraphic" in2="effect1_dropShadow_1896_3508" result="shape"/>
</filter>
<filter id="filter6_d_1896_3508" x="32.3242" y="23.5312" width="58.457" height="85.1406" filterUnits="userSpaceOnUse" color-interpolation-filters="sRGB">
<feFlood flood-opacity="0" result="BackgroundImageFix"/>
<feColorMatrix in="SourceAlpha" type="matrix" values="0 0 0 0 0 0 0 0 0 0 0 0 0 0 0 0 0 0 127 0" result="hardAlpha"/>
<feOffset/>
<feGaussianBlur stdDeviation="6.5"/>
<feComposite in2="hardAlpha" operator="out"/>
<feColorMatrix type="matrix" values="0 0 0 0 0 0 0 0 0 1 0 0 0 0 0.7 0 0 0 0.25 0"/>
<feBlend mode="normal" in2="BackgroundImageFix" result="effect1_dropShadow_1896_3508"/>
<feBlend mode="normal" in="SourceGraphic" in2="effect1_dropShadow_1896_3508" result="shape"/>
</filter>
<filter id="filter7_d_1896_3508" x="5.79688" y="13.9648" width="111.145" height="111.145" filterUnits="userSpaceOnUse" color-interpolation-filters="sRGB">
<feFlood flood-opacity="0" result="BackgroundImageFix"/>
<feColorMatrix in="SourceAlpha" type="matrix" values="0 0 0 0 0 0 0 0 0 0 0 0 0 0 0 0 0 0 127 0" result="hardAlpha"/>
<feOffset/>
<feGaussianBlur stdDeviation="6.5"/>
<feComposite in2="hardAlpha" operator="out"/>
<feColorMatrix type="matrix" values="0 0 0 0 0 0 0 0 0 1 0 0 0 0 0.7 0 0 0 0.25 0"/>
<feBlend mode="normal" in2="BackgroundImageFix" result="effect1_dropShadow_1896_3508"/>
<feBlend mode="normal" in="SourceGraphic" in2="effect1_dropShadow_1896_3508" result="shape"/>
</filter>
<filter id="filter8_d_1896_3508" x="20.9492" y="29.2734" width="80.6641" height="80.5625" filterUnits="userSpaceOnUse" color-interpolation-filters="sRGB">
<feFlood flood-opacity="0" result="BackgroundImageFix"/>
<feColorMatrix in="SourceAlpha" type="matrix" values="0 0 0 0 0 0 0 0 0 0 0 0 0 0 0 0 0 0 127 0" result="hardAlpha"/>
<feOffset/>
<feGaussianBlur stdDeviation="2.5"/>
<feComposite in2="hardAlpha" operator="out"/>
<feColorMatrix type="matrix" values="0 0 0 0 0 0 0 0 0 1 0 0 0 0 0.7 0 0 0 1 0"/>
<feBlend mode="normal" in2="BackgroundImageFix" result="effect1_dropShadow_1896_3508"/>
<feBlend mode="normal" in="SourceGraphic" in2="effect1_dropShadow_1896_3508" result="shape"/>
</filter>
<linearGradient id="paint0_linear_1896_3508" x1="280" y1="0" x2="280" y2="230" gradientUnits="userSpaceOnUse">
<stop stop-color="#5A26EC"/>
<stop offset="0.790514" stop-opacity="0"/>
<stop offset="1" stop-opacity="0"/>
</linearGradient>
<linearGradient id="paint1_linear_1896_3508" x1="61.4995" y1="77.2194" x2="61.5504" y2="137.691" gradientUnits="userSpaceOnUse">
<stop stop-color="white"/>
<stop offset="1" stop-color="white" stop-opacity="0"/>
</linearGradient>
<linearGradient id="paint2_linear_1896_3508" x1="59.5006" y1="81.2181" x2="59.4722" y2="126.297" gradientUnits="userSpaceOnUse">
<stop stop-color="white"/>
<stop offset="1" stop-color="white" stop-opacity="0"/>
</linearGradient>
<linearGradient id="paint3_linear_1896_3508" x1="57.5006" y1="83.7884" x2="57.4864" y2="115.673" gradientUnits="userSpaceOnUse">
<stop stop-color="white"/>
<stop offset="1" stop-color="white" stop-opacity="0"/>
</linearGradient>
<linearGradient id="paint4_linear_1896_3508" x1="63.4995" y1="81.2181" x2="63.5278" y2="126.297" gradientUnits="userSpaceOnUse">
<stop stop-color="white"/>
<stop offset="1" stop-color="white" stop-opacity="0"/>
</linearGradient>
<linearGradient id="paint5_linear_1896_3508" x1="65.4995" y1="83.7884" x2="65.5136" y2="115.673" gradientUnits="userSpaceOnUse">
<stop stop-color="white"/>
<stop offset="1" stop-color="white" stop-opacity="0"/>
</linearGradient>
<linearGradient id="paint6_linear_1896_3508" x1="77.7046" y1="0.500002" x2="4.00196" y2="138" gradientUnits="userSpaceOnUse">
<stop stop-color="#4D23C7"/>
<stop offset="1" stop-color="#4D23C7" stop-opacity="0"/>
</linearGradient>
<linearGradient id="paint7_linear_1896_3508" x1="61.502" y1="45.9883" x2="61.502" y2="75.4883" gradientUnits="userSpaceOnUse">
<stop stop-color="#53FDA9"/>
<stop offset="1" stop-color="#00FF81" stop-opacity="0"/>
</linearGradient>
<linearGradient id="paint8_linear_1896_3508" x1="62" y1="54.9844" x2="62" y2="79.9844" gradientUnits="userSpaceOnUse">
<stop stop-color="#53FDA9"/>
<stop offset="1" stop-color="#00FF81" stop-opacity="0"/>
</linearGradient>
<linearGradient id="paint9_linear_1896_3508" x1="61.5" y1="7.98828" x2="61.5" y2="93.4883" gradientUnits="userSpaceOnUse">
<stop stop-color="#53FDA9"/>
<stop offset="1" stop-color="#00FF81" stop-opacity="0"/>
</linearGradient>
<linearGradient id="paint10_linear_1896_3508" x1="42.5" y1="43.4883" x2="62.5" y2="92.9883" gradientUnits="userSpaceOnUse">
<stop stop-color="#53FDA9"/>
<stop offset="1" stop-color="#00FF81" stop-opacity="0"/>
</linearGradient>
<linearGradient id="paint11_linear_1896_3508" x1="46.9658" y1="48.9825" x2="76.4267" y2="83.0062" gradientUnits="userSpaceOnUse">
<stop stop-color="#53FDA9"/>
<stop offset="1" stop-color="#00FF81" stop-opacity="0"/>
</linearGradient>
<linearGradient id="paint12_linear_1896_3508" x1="61.3691" y1="27.0898" x2="61.3691" y2="111.984" gradientUnits="userSpaceOnUse">
<stop stop-color="#632BFF" stop-opacity="0"/>
<stop offset="1" stop-color="#632BFF"/>
</linearGradient>
<linearGradient id="paint13_linear_1896_3508" x1="77.5321" y1="70.9672" x2="48.5462" y2="70.5885" gradientUnits="userSpaceOnUse">
<stop stop-color="white"/>
<stop offset="1" stop-color="white" stop-opacity="0"/>
</linearGradient>
<linearGradient id="paint14_linear_1896_3508" x1="26.0758" y1="-30.2136" x2="26.0758" y2="84.317" gradientUnits="userSpaceOnUse">
<stop offset="0.170133" stop-color="#53FDA9" stop-opacity="0"/>
<stop offset="1" stop-color="#53FDA9"/>
</linearGradient>
<linearGradient id="paint15_linear_1896_3508" x1="20.189" y1="109.47" x2="98.7124" y2="43.0869" gradientUnits="userSpaceOnUse">
<stop stop-color="white"/>
<stop offset="1" stop-color="white" stop-opacity="0"/>
</linearGradient>
</defs>
</svg>
