<svg width="560" height="230" viewBox="0 0 560 230" fill="none" xmlns="http://www.w3.org/2000/svg">
<g opacity="0.45" filter="url(#filter0_b_1896_3464)">
<rect width="560" height="230" rx="6" fill="#101011" fill-opacity="0.8"/>
<rect x="0.5" y="0.5" width="559" height="229" rx="5.5" stroke="url(#paint0_linear_1896_3464)"/>
</g>
<path d="M421.14 1C410.93 16.6776 404.997 35.396 404.997 55.5C404.997 110.728 449.769 155.5 504.997 155.5C525.142 155.5 543.896 149.543 559.594 139.295" stroke="url(#paint1_linear_1896_3464)"/>
<path d="M470.176 61.2541V55.0612H471.858V61.2541H470.176Z" fill="url(#paint2_linear_1896_3464)"/>
<path d="M478.204 48.0273L472.317 51.4678L473.234 52.9205L479.045 49.5564L478.204 48.0273Z" fill="url(#paint3_linear_1896_3464)"/>
<path d="M489.137 52.844L483.555 49.5564L484.32 48.0273L489.978 51.3149L489.137 52.844Z" fill="url(#paint4_linear_1896_3464)"/>
<circle cx="493.266" cy="54.2235" r="3.93441" stroke="#53FDA9"/>
<circle cx="481.26" cy="47.2641" r="3.28758" fill="#53FDA9"/>
<circle cx="471.094" cy="53.1525" r="1.64075" stroke="#53FDA9"/>
<path d="M516.203 70.7381V76.931H514.521V70.7381H516.203Z" fill="url(#paint5_linear_1896_3464)"/>
<path d="M508.175 83.9648L514.062 80.5244L513.145 79.0717L507.334 82.4357L508.175 83.9648Z" fill="url(#paint6_linear_1896_3464)"/>
<path d="M497.242 79.1482L502.823 82.4357L502.059 83.9648L496.401 80.6773L497.242 79.1482Z" fill="url(#paint7_linear_1896_3464)"/>
<circle cx="493.112" cy="77.7687" r="3.93441" transform="rotate(-180 493.112 77.7687)" fill="#53FDA9" stroke="#53FDA9"/>
<circle cx="505.119" cy="84.7281" r="3.28758" transform="rotate(-180 505.119 84.7281)" fill="#53FDA9"/>
<circle cx="515.285" cy="78.8397" r="1.64075" transform="rotate(-180 515.285 78.8397)" stroke="#53FDA9"/>
<path d="M508.803 48.4374L514.166 51.5338L513.325 52.9905L507.962 49.8941L508.803 48.4374Z" fill="url(#paint8_linear_1896_3464)"/>
<path d="M516.244 62.0031L516.208 55.1845L514.491 55.2527L514.499 61.9668L516.244 62.0031Z" fill="url(#paint9_linear_1896_3464)"/>
<path d="M506.606 69.0631L512.244 65.8734L513.186 67.3L507.51 70.556L506.606 69.0631Z" fill="url(#paint10_linear_1896_3464)"/>
<circle cx="503.349" cy="71.9512" r="3.93441" transform="rotate(120 503.349 71.9512)" stroke="#53FDA9"/>
<circle cx="515.376" cy="65.0315" r="3.28758" transform="rotate(120 515.376 65.0315)" fill="#53FDA9"/>
<circle cx="515.361" cy="53.2836" r="1.64075" transform="rotate(120 515.361 53.2836)" stroke="#53FDA9"/>
<path d="M477.576 83.5587L472.213 80.4623L473.054 79.0056L478.417 82.102L477.576 83.5587Z" fill="url(#paint11_linear_1896_3464)"/>
<path d="M470.135 69.993L470.171 76.8116L471.888 76.7434L471.88 70.0292L470.135 69.993Z" fill="url(#paint12_linear_1896_3464)"/>
<path d="M479.773 62.933L474.135 66.1227L473.193 64.696L478.869 61.4401L479.773 62.933Z" fill="url(#paint13_linear_1896_3464)"/>
<circle cx="483.03" cy="60.0449" r="3.93441" transform="rotate(-60 483.03 60.0449)" fill="#53FDA9" stroke="#53FDA9"/>
<circle cx="471.003" cy="66.9646" r="3.28758" transform="rotate(-60 471.003 66.9646)" fill="#53FDA9"/>
<circle cx="471.018" cy="78.7125" r="1.64075" transform="rotate(-60 471.018 78.7125)" stroke="#53FDA9"/>
<path d="M500.595 88.3007L495.232 91.3971L494.391 89.9405L499.754 86.844L500.595 88.3007Z" fill="url(#paint14_linear_1896_3464)"/>
<path d="M485.127 87.9618L491.05 91.3399L491.849 89.819L486.03 86.4689L485.127 87.9618Z" fill="url(#paint15_linear_1896_3464)"/>
<path d="M483.832 76.0851L483.775 82.5624L482.069 82.6648L482.087 76.1213L483.832 76.0851Z" fill="url(#paint16_linear_1896_3464)"/>
<circle cx="482.959" cy="71.8214" r="3.93441" transform="rotate(-120 482.959 71.8214)" stroke="#53FDA9"/>
<circle cx="482.934" cy="85.6966" r="3.28758" transform="rotate(-120 482.934 85.6966)" fill="#53FDA9"/>
<circle cx="493.116" cy="91.5601" r="1.64075" transform="rotate(-120 493.116 91.5601)" stroke="#53FDA9"/>
<path d="M485.787 43.6993L491.151 40.6029L491.992 42.0595L486.628 45.156L485.787 43.6993Z" fill="url(#paint17_linear_1896_3464)"/>
<path d="M501.256 44.0382L495.333 40.6601L494.534 42.181L500.352 45.5311L501.256 44.0382Z" fill="url(#paint18_linear_1896_3464)"/>
<path d="M502.551 55.9149L502.608 49.4376L504.314 49.3352L504.296 55.8787L502.551 55.9149Z" fill="url(#paint19_linear_1896_3464)"/>
<circle cx="503.424" cy="60.1786" r="3.93441" transform="rotate(60 503.424 60.1786)" fill="#53FDA9" stroke="#53FDA9"/>
<circle cx="503.449" cy="46.3034" r="3.28758" transform="rotate(60 503.449 46.3034)" fill="#53FDA9"/>
<circle cx="493.267" cy="40.4399" r="1.64075" transform="rotate(60 493.267 40.4399)" stroke="#53FDA9"/>
<g filter="url(#filter1_d_1896_3464)">
<circle cx="493.5" cy="65.5" r="2.5" fill="#4FEEA2"/>
<circle cx="493.5" cy="65.5" r="2.2" stroke="#4FEEA2" stroke-width="0.6"/>
</g>
<circle cx="493.125" cy="66.1247" r="38.8747" stroke="url(#paint20_linear_1896_3464)" stroke-width="0.5"/>
<g filter="url(#filter2_d_1896_3464)">
<ellipse cx="493" cy="55.5" rx="53" ry="13.5" stroke="url(#paint21_linear_1896_3464)" stroke-width="0.5" stroke-linecap="round" stroke-dasharray="1 1" shape-rendering="crispEdges"/>
</g>
<g filter="url(#filter3_d_1896_3464)">
<ellipse cx="493" cy="47.5" rx="49" ry="12.5" stroke="url(#paint22_linear_1896_3464)" stroke-width="0.25" stroke-linecap="round" stroke-linejoin="round" stroke-dasharray="2 2" shape-rendering="crispEdges"/>
</g>
<g filter="url(#filter4_d_1896_3464)">
<ellipse cx="493" cy="68.5" rx="49" ry="12.5" stroke="url(#paint23_linear_1896_3464)" stroke-width="0.25" stroke-linecap="round" stroke-linejoin="round" stroke-dasharray="2 2" shape-rendering="crispEdges"/>
</g>
<defs>
<filter id="filter0_b_1896_3464" x="-4" y="-4" width="568" height="238" filterUnits="userSpaceOnUse" color-interpolation-filters="sRGB">
<feFlood flood-opacity="0" result="BackgroundImageFix"/>
<feGaussianBlur in="BackgroundImage" stdDeviation="2"/>
<feComposite in2="SourceAlpha" operator="in" result="effect1_backgroundBlur_1896_3464"/>
<feBlend mode="normal" in="SourceGraphic" in2="effect1_backgroundBlur_1896_3464" result="shape"/>
</filter>
<filter id="filter1_d_1896_3464" x="488" y="60" width="11" height="11" filterUnits="userSpaceOnUse" color-interpolation-filters="sRGB">
<feFlood flood-opacity="0" result="BackgroundImageFix"/>
<feColorMatrix in="SourceAlpha" type="matrix" values="0 0 0 0 0 0 0 0 0 0 0 0 0 0 0 0 0 0 127 0" result="hardAlpha"/>
<feOffset/>
<feGaussianBlur stdDeviation="1.5"/>
<feComposite in2="hardAlpha" operator="out"/>
<feColorMatrix type="matrix" values="0 0 0 0 0.32549 0 0 0 0 0.992157 0 0 0 0 0.662745 0 0 0 1 0"/>
<feBlend mode="normal" in2="BackgroundImageFix" result="effect1_dropShadow_1896_3464"/>
<feBlend mode="normal" in="SourceGraphic" in2="effect1_dropShadow_1896_3464" result="shape"/>
</filter>
<filter id="filter2_d_1896_3464" x="434.75" y="36.75" width="116.5" height="37.5" filterUnits="userSpaceOnUse" color-interpolation-filters="sRGB">
<feFlood flood-opacity="0" result="BackgroundImageFix"/>
<feColorMatrix in="SourceAlpha" type="matrix" values="0 0 0 0 0 0 0 0 0 0 0 0 0 0 0 0 0 0 127 0" result="hardAlpha"/>
<feOffset/>
<feGaussianBlur stdDeviation="2.5"/>
<feComposite in2="hardAlpha" operator="out"/>
<feColorMatrix type="matrix" values="0 0 0 0 0 0 0 0 0 1 0 0 0 0 0.7 0 0 0 1 0"/>
<feBlend mode="normal" in2="BackgroundImageFix" result="effect1_dropShadow_1896_3464"/>
<feBlend mode="normal" in="SourceGraphic" in2="effect1_dropShadow_1896_3464" result="shape"/>
</filter>
<filter id="filter3_d_1896_3464" x="430.875" y="21.875" width="124.25" height="51.25" filterUnits="userSpaceOnUse" color-interpolation-filters="sRGB">
<feFlood flood-opacity="0" result="BackgroundImageFix"/>
<feColorMatrix in="SourceAlpha" type="matrix" values="0 0 0 0 0 0 0 0 0 0 0 0 0 0 0 0 0 0 127 0" result="hardAlpha"/>
<feOffset/>
<feGaussianBlur stdDeviation="6.5"/>
<feComposite in2="hardAlpha" operator="out"/>
<feColorMatrix type="matrix" values="0 0 0 0 0 0 0 0 0 1 0 0 0 0 0.7 0 0 0 0.25 0"/>
<feBlend mode="normal" in2="BackgroundImageFix" result="effect1_dropShadow_1896_3464"/>
<feBlend mode="normal" in="SourceGraphic" in2="effect1_dropShadow_1896_3464" result="shape"/>
</filter>
<filter id="filter4_d_1896_3464" x="430.875" y="42.875" width="124.25" height="51.25" filterUnits="userSpaceOnUse" color-interpolation-filters="sRGB">
<feFlood flood-opacity="0" result="BackgroundImageFix"/>
<feColorMatrix in="SourceAlpha" type="matrix" values="0 0 0 0 0 0 0 0 0 0 0 0 0 0 0 0 0 0 127 0" result="hardAlpha"/>
<feOffset/>
<feGaussianBlur stdDeviation="6.5"/>
<feComposite in2="hardAlpha" operator="out"/>
<feColorMatrix type="matrix" values="0 0 0 0 0 0 0 0 0 1 0 0 0 0 0.7 0 0 0 0.25 0"/>
<feBlend mode="normal" in2="BackgroundImageFix" result="effect1_dropShadow_1896_3464"/>
<feBlend mode="normal" in="SourceGraphic" in2="effect1_dropShadow_1896_3464" result="shape"/>
</filter>
<linearGradient id="paint0_linear_1896_3464" x1="280" y1="0" x2="280" y2="230" gradientUnits="userSpaceOnUse">
<stop stop-color="#5A26EC"/>
<stop offset="0.790514" stop-opacity="0"/>
<stop offset="1" stop-opacity="0"/>
</linearGradient>
<linearGradient id="paint1_linear_1896_3464" x1="482.295" y1="1" x2="555.998" y2="138.5" gradientUnits="userSpaceOnUse">
<stop stop-color="#4D23C7"/>
<stop offset="1" stop-color="#4D23C7" stop-opacity="0"/>
</linearGradient>
<linearGradient id="paint2_linear_1896_3464" x1="490.929" y1="53.0819" x2="471.059" y2="61.6669" gradientUnits="userSpaceOnUse">
<stop stop-color="#53FDA9"/>
<stop offset="1" stop-color="#53FDA9" stop-opacity="0"/>
</linearGradient>
<linearGradient id="paint3_linear_1896_3464" x1="490.929" y1="53.0819" x2="471.059" y2="61.6669" gradientUnits="userSpaceOnUse">
<stop stop-color="#53FDA9"/>
<stop offset="1" stop-color="#53FDA9" stop-opacity="0"/>
</linearGradient>
<linearGradient id="paint4_linear_1896_3464" x1="490.929" y1="53.0819" x2="471.059" y2="61.6669" gradientUnits="userSpaceOnUse">
<stop stop-color="#53FDA9"/>
<stop offset="1" stop-color="#53FDA9" stop-opacity="0"/>
</linearGradient>
<linearGradient id="paint5_linear_1896_3464" x1="495.45" y1="78.9103" x2="515.32" y2="70.3253" gradientUnits="userSpaceOnUse">
<stop stop-color="#53FDA9"/>
<stop offset="1" stop-color="#53FDA9" stop-opacity="0"/>
</linearGradient>
<linearGradient id="paint6_linear_1896_3464" x1="495.45" y1="78.9103" x2="515.32" y2="70.3253" gradientUnits="userSpaceOnUse">
<stop stop-color="#53FDA9"/>
<stop offset="1" stop-color="#53FDA9" stop-opacity="0"/>
</linearGradient>
<linearGradient id="paint7_linear_1896_3464" x1="495.45" y1="78.9103" x2="515.32" y2="70.3253" gradientUnits="userSpaceOnUse">
<stop stop-color="#53FDA9"/>
<stop offset="1" stop-color="#53FDA9" stop-opacity="0"/>
</linearGradient>
<linearGradient id="paint8_linear_1896_3464" x1="505.504" y1="70.4961" x2="508.004" y2="48.9961" gradientUnits="userSpaceOnUse">
<stop stop-color="#53FDA9"/>
<stop offset="1" stop-color="#53FDA9" stop-opacity="0"/>
</linearGradient>
<linearGradient id="paint9_linear_1896_3464" x1="505.504" y1="70.4961" x2="508.004" y2="48.9961" gradientUnits="userSpaceOnUse">
<stop stop-color="#53FDA9"/>
<stop offset="1" stop-color="#53FDA9" stop-opacity="0"/>
</linearGradient>
<linearGradient id="paint10_linear_1896_3464" x1="505.504" y1="70.4961" x2="508.004" y2="48.9961" gradientUnits="userSpaceOnUse">
<stop stop-color="#53FDA9"/>
<stop offset="1" stop-color="#53FDA9" stop-opacity="0"/>
</linearGradient>
<linearGradient id="paint11_linear_1896_3464" x1="480.875" y1="61.5" x2="478.375" y2="83" gradientUnits="userSpaceOnUse">
<stop stop-color="#53FDA9"/>
<stop offset="1" stop-color="#53FDA9" stop-opacity="0"/>
</linearGradient>
<linearGradient id="paint12_linear_1896_3464" x1="480.875" y1="61.5" x2="478.375" y2="83" gradientUnits="userSpaceOnUse">
<stop stop-color="#53FDA9"/>
<stop offset="1" stop-color="#53FDA9" stop-opacity="0"/>
</linearGradient>
<linearGradient id="paint13_linear_1896_3464" x1="480.875" y1="61.5" x2="478.375" y2="83" gradientUnits="userSpaceOnUse">
<stop stop-color="#53FDA9"/>
<stop offset="1" stop-color="#53FDA9" stop-opacity="0"/>
</linearGradient>
<linearGradient id="paint14_linear_1896_3464" x1="483.142" y1="74.4142" x2="500.511" y2="87.3292" gradientUnits="userSpaceOnUse">
<stop stop-color="#53FDA9"/>
<stop offset="1" stop-color="#53FDA9" stop-opacity="0"/>
</linearGradient>
<linearGradient id="paint15_linear_1896_3464" x1="483.142" y1="74.4142" x2="500.511" y2="87.3292" gradientUnits="userSpaceOnUse">
<stop stop-color="#53FDA9"/>
<stop offset="1" stop-color="#53FDA9" stop-opacity="0"/>
</linearGradient>
<linearGradient id="paint16_linear_1896_3464" x1="483.142" y1="74.4142" x2="500.511" y2="87.3292" gradientUnits="userSpaceOnUse">
<stop stop-color="#53FDA9"/>
<stop offset="1" stop-color="#53FDA9" stop-opacity="0"/>
</linearGradient>
<linearGradient id="paint17_linear_1896_3464" x1="503.241" y1="57.5858" x2="485.872" y2="44.6708" gradientUnits="userSpaceOnUse">
<stop stop-color="#53FDA9"/>
<stop offset="1" stop-color="#53FDA9" stop-opacity="0"/>
</linearGradient>
<linearGradient id="paint18_linear_1896_3464" x1="503.241" y1="57.5858" x2="485.872" y2="44.6708" gradientUnits="userSpaceOnUse">
<stop stop-color="#53FDA9"/>
<stop offset="1" stop-color="#53FDA9" stop-opacity="0"/>
</linearGradient>
<linearGradient id="paint19_linear_1896_3464" x1="503.241" y1="57.5858" x2="485.872" y2="44.6708" gradientUnits="userSpaceOnUse">
<stop stop-color="#53FDA9"/>
<stop offset="1" stop-color="#53FDA9" stop-opacity="0"/>
</linearGradient>
<linearGradient id="paint20_linear_1896_3464" x1="493.125" y1="27" x2="493.125" y2="97.4245" gradientUnits="userSpaceOnUse">
<stop stop-color="#4D23C7"/>
<stop offset="0.90973" stop-color="#4100FF" stop-opacity="0"/>
</linearGradient>
<linearGradient id="paint21_linear_1896_3464" x1="493" y1="32.325" x2="493" y2="69" gradientUnits="userSpaceOnUse">
<stop offset="0.170133" stop-color="#53FDA9" stop-opacity="0"/>
<stop offset="1" stop-color="#53FDA9"/>
</linearGradient>
<linearGradient id="paint22_linear_1896_3464" x1="493" y1="35" x2="493" y2="60" gradientUnits="userSpaceOnUse">
<stop offset="0.170133" stop-color="white" stop-opacity="0"/>
<stop offset="0.878479" stop-color="white"/>
</linearGradient>
<linearGradient id="paint23_linear_1896_3464" x1="493" y1="56" x2="493" y2="81" gradientUnits="userSpaceOnUse">
<stop offset="0.170133" stop-color="white" stop-opacity="0"/>
<stop offset="0.878479" stop-color="white"/>
</linearGradient>
</defs>
</svg>
