<svg width="88" height="88" viewBox="0 0 88 88" fill="none" xmlns="http://www.w3.org/2000/svg">
<circle cx="43.3513" cy="45.1247" r="38.8747" stroke="url(#paint0_linear_1729_4893)" stroke-width="0.5"/>
<g filter="url(#filter0_d_1729_4893)">
<path d="M43.3513 6L77.2343 64.6871H9.46828L43.3513 6Z" stroke="url(#paint1_linear_1729_4893)" stroke-width="0.5" stroke-linecap="round" stroke-dasharray="1 1" shape-rendering="crispEdges"/>
</g>
<g filter="url(#filter1_d_1729_4893)">
<path d="M43.3512 63.3867L27.5391 35.9994H59.1632L43.3512 63.3867Z" fill="url(#paint2_linear_1729_4893)" shape-rendering="crispEdges"/>
<path d="M43.3512 63.3867L27.5391 35.9994H59.1632L43.3512 63.3867Z" stroke="url(#paint3_linear_1729_4893)" stroke-width="0.5" stroke-linecap="round" stroke-dasharray="1 1" shape-rendering="crispEdges"/>
</g>
<path d="M43.819 43.8495L43.8518 43.8431L43.8847 43.8371L43.9178 43.8313L43.9509 43.8259L43.9842 43.8208L44.0176 43.816L44.0512 43.8115L44.0848 43.8074L44.1186 43.8036L44.1524 43.8001L44.1864 43.7969L44.2204 43.7941L44.2545 43.7916L44.2888 43.7895L44.3231 43.7877L44.3575 43.7862L44.392 43.7851L44.4266 43.7844L44.4612 43.7839L44.4959 43.7838L44.5307 43.7841L44.5655 43.7847L44.6005 43.7857L44.6354 43.787L44.6704 43.7887L44.7055 43.7907L44.7406 43.7931L44.7758 43.7958L44.811 43.7989L44.8463 43.8024L44.8815 43.8062L44.9169 43.8103L44.9522 43.8149L44.9876 43.8198L45.0229 43.825L45.0583 43.8307L45.0937 43.8366L45.1292 43.843L45.1646 43.8497L45.2 43.8568L45.2354 43.8643L45.2709 43.8721L45.3063 43.8803L45.3417 43.8889L45.3771 43.8978L45.4124 43.9071L45.4477 43.9168L45.4831 43.9269L45.5183 43.9373L45.5536 43.9481L45.5888 43.9593L45.6239 43.9709L45.659 43.9828L45.6941 43.9951L45.7291 44.0078L45.764 44.0209L45.7989 44.0343L45.8337 44.0481L45.8685 44.0623L45.9032 44.0768L45.9378 44.0918L45.9723 44.1071L46.0067 44.1228L46.041 44.1389L46.0753 44.1553L46.1094 44.1721L46.1434 44.1893L46.1774 44.2069L46.2112 44.2248L46.2449 44.2431L46.2785 44.2618L46.312 44.2809L46.3453 44.3003L46.3786 44.3201L46.4116 44.3403L46.4446 44.3608L46.4774 44.3817L46.51 44.403L46.5426 44.4247L46.5749 44.4467L46.6071 44.4691L46.6391 44.4918L46.671 44.515L46.7027 44.5384L46.7343 44.5623L46.7656 44.5865L46.7968 44.6111L46.8278 44.636L46.8586 44.6613L46.8892 44.687L46.9196 44.713L46.9498 44.7393L46.9798 44.766L47.0096 44.7931L47.0391 44.8205L47.0685 44.8483L47.0976 44.8764L47.1265 44.9049L47.1552 44.9337L47.1837 44.9629L47.2119 44.9923L47.2399 45.0222L47.2676 45.0524L47.2951 45.0829L47.3223 45.1137L47.3493 45.1449L47.376 45.1764L47.4024 45.2083L47.4286 45.2404L47.4545 45.2729L47.4802 45.3057L47.5055 45.3389L47.5306 45.3723L47.5554 45.4061L47.5799 45.4402L47.6041 45.4746L47.628 45.5093L47.6516 45.5443L47.6749 45.5796L47.6979 45.6152L47.7206 45.6512L47.743 45.6874L47.765 45.7239L47.7867 45.7607L47.8081 45.7978L47.8292 45.8352L47.8499 45.8729L47.8703 45.9108L47.8904 45.949L47.9101 45.9875L47.9295 46.0263L47.9485 46.0654L47.9671 46.1047L47.9854 46.1442L48.0034 46.1841L48.021 46.2242L48.0382 46.2645L48.055 46.3051L48.0715 46.346L48.0876 46.3871L48.1033 46.4284L48.1186 46.47L48.1335 46.5118L48.1481 46.5538L48.1622 46.5961L48.176 46.6386L48.1894 46.6813L48.2023 46.7242L48.2149 46.7674L48.227 46.8107L48.2388 46.8543L48.2501 46.898L48.261 46.942L48.2715 46.9861L48.2815 47.0305L48.2912 47.075L48.3004 47.1197L48.3092 47.1646L48.3175 47.2097L48.3254 47.2549L48.3329 47.3004L48.34 47.3459L48.3466 47.3917L48.3527 47.4376L48.3584 47.4836L48.3637 47.5298L48.3685 47.5761L48.3728 47.6226L48.3767 47.6692L48.3801 47.7159L48.3831 47.7628L48.3856 47.8098L48.3876 47.8569L48.3892 47.9041L48.3903 47.9514L48.3909 47.9988L48.3911 48.0463L48.3907 48.0939L48.3899 48.1416L48.3886 48.1894L48.3869 48.2373L48.3846 48.2852L48.3819 48.3333L48.3787 48.3813L48.375 48.4295L48.3708 48.4777L48.3661 48.5259L48.3609 48.5742L48.3553 48.6226L48.3491 48.6709L48.3424 48.7194L48.3353 48.7678L48.3276 48.8163L48.3194 48.8647L48.3108 48.9132L48.3016 48.9617L48.2919 49.0102L48.2818 49.0587L48.2711 49.1072L48.2599 49.1557L48.2482 49.2042L48.236 49.2526L48.2233 49.301L48.21 49.3494L48.1963 49.3978L48.1821 49.4461L48.1673 49.4943L48.152 49.5425L48.1363 49.5907L48.12 49.6387L48.1031 49.6867L48.0858 49.7347L48.068 49.7825L48.0496 49.8303L48.0308 49.8779L48.0114 49.9255L47.9915 49.973L47.9711 50.0204L47.9502 50.0676L47.9287 50.1148L47.9068 50.1618L47.8843 50.2087L47.8613 50.2554L47.8378 50.3021L47.8138 50.3485L47.7893 50.3949L47.7643 50.441L47.7387 50.487L47.7127 50.5329L47.6861 50.5785L47.659 50.624L47.6315 50.6693L47.6034 50.7145L47.5748 50.7594L47.5457 50.8041L47.5161 50.8486L47.486 50.893L47.4553 50.9371L47.4242 50.9809L47.3926 51.0246L47.3605 51.068L47.3279 51.1112L47.2948 51.1541L47.2612 51.1968L47.2271 51.2393L47.1925 51.2815L47.1574 51.3234L47.1218 51.365L47.0858 51.4064L47.0492 51.4475L47.0122 51.4883L46.9747 51.5288L46.9367 51.569L46.8983 51.609L46.8593 51.6486L46.8199 51.6879L46.7801 51.7268L46.7397 51.7655L46.6989 51.8038L46.6576 51.8418L46.6159 51.8795L46.5737 51.9168L46.531 51.9537L46.4879 51.9903L46.4444 52.0266L46.4004 52.0625L46.3559 52.098L46.311 52.1331L46.2657 52.1678L46.2199 52.2022L46.1737 52.2362L46.1271 52.2698L46.08 52.3029L46.0325 52.3357L45.9846 52.368L45.9363 52.4L45.8876 52.4315L45.8384 52.4626L45.7888 52.4932L45.7389 52.5235L45.6885 52.5532L45.6378 52.5826L45.5866 52.6115L45.5351 52.6399L45.4832 52.6678L45.4308 52.6953L45.3782 52.7224L45.3251 52.7489L45.2717 52.775L45.2179 52.8006L45.1637 52.8257L45.1092 52.8503L45.0543 52.8744L44.9991 52.898L44.9436 52.9211L44.8877 52.9437L44.8314 52.9657L44.7749 52.9873L44.718 53.0083L44.6608 53.0288L44.6033 53.0488L44.5454 53.0682L44.4873 53.0871L44.4288 53.1054L44.3701 53.1232L44.311 53.1404L44.2517 53.1571L44.1921 53.1732L44.1322 53.1888L44.072 53.2037L44.0116 53.2181L43.9509 53.232L43.8899 53.2452L43.8287 53.2579L43.7673 53.27L43.7056 53.2814L43.6437 53.2923L43.5815 53.3026L43.5191 53.3123L43.4565 53.3214L43.3937 53.3298L43.3307 53.3377L43.2675 53.3449L43.2041 53.3515L43.1405 53.3575L43.0767 53.3629L43.0127 53.3676L42.9486 53.3718L42.8843 53.3752L42.8198 53.3781L42.7552 53.3803L42.6904 53.3818L42.6255 53.3827L42.5604 53.383L42.4953 53.3826L42.43 53.3815L42.3645 53.3798L42.299 53.3775L42.2334 53.3745L42.1677 53.3708L42.1018 53.3664L42.0359 53.3614L41.9699 53.3557L41.9039 53.3494L41.8378 53.3423L41.7716 53.3346L41.7053 53.3262L41.6391 53.3171L41.5728 53.3074L41.5064 53.297L41.44 53.2858L41.3736 53.274L41.3072 53.2615L41.2408 53.2483L41.1744 53.2345L41.108 53.2199L41.0417 53.2046L40.9753 53.1887L40.909 53.172L40.8427 53.1547L40.7764 53.1366L40.7103 53.1179L40.6441 53.0984L40.5781 53.0783L40.5121 53.0574L40.4462 53.0359L40.3803 53.0136L40.3146 52.9907L40.249 52.967L40.1834 52.9426L40.118 52.9176L40.0528 52.8918L39.9876 52.8653L39.9226 52.8381L39.8577 52.8102L39.793 52.7817L39.7285 52.7524L39.6641 52.7224L39.5999 52.6917L39.5358 52.6603L39.472 52.6281L39.4083 52.5953L39.3449 52.5618L39.2817 52.5276L39.2187 52.4927L39.1559 52.4571L39.0933 52.4208L39.031 52.3838L38.969 52.3461L38.9072 52.3076L38.8457 52.2686L38.7844 52.2288L38.7234 52.1883L38.6627 52.1471L38.6023 52.1053L38.5422 52.0627L38.4824 52.0195L38.4229 51.9756L38.3638 51.931L38.305 51.8857L38.2465 51.8397L38.1884 51.7931L38.1306 51.7458L38.0732 51.6978L38.0161 51.6492L37.9594 51.5999L37.9031 51.5499L37.8472 51.4993L37.7917 51.448L37.7366 51.396L37.682 51.3434L37.6277 51.2902L37.5739 51.2363L37.5204 51.1817L37.4675 51.1265L37.415 51.0707L37.3629 51.0142L37.3113 50.9571L37.2602 50.8994L37.2096 50.8411L37.1594 50.7821L37.1098 50.7225L37.0606 50.6623L37.012 50.6015L36.9638 50.5401L36.9162 50.4781L36.8691 50.4155L36.8226 50.3522L36.7766 50.2884L36.7311 50.2241L36.6862 50.1591L36.6419 50.0936L36.5981 50.0274L36.5549 49.9608L36.5123 49.8935L36.4703 49.8257L36.4288 49.7573L36.388 49.6884L36.3478 49.619L36.3082 49.549L36.2693 49.4785L36.2309 49.4074L36.1932 49.3359L36.1562 49.2638L36.1198 49.1912L36.084 49.1181L36.0489 49.0444L36.0145 48.9703L35.9808 48.8957L35.9477 48.8207L35.9154 48.7451L35.8837 48.6691L35.8527 48.5926L35.8224 48.5156L35.7929 48.4382L35.764 48.3604L35.7359 48.2821L35.7085 48.2034L35.6819 48.1242L35.656 48.0446L35.6308 47.9646L35.6064 47.8842L35.5827 47.8034L35.5598 47.7222L35.5377 47.6406L35.5164 47.5587L35.4958 47.4763L35.476 47.3936L35.457 47.3105L35.4388 47.2271L35.4214 47.1434L35.4048 47.0593L35.389 46.9748L35.3741 46.8901L35.3599 46.805L35.3466 46.7196L35.3341 46.6339L35.3225 46.548L35.3116 46.4617L35.3017 46.3752L35.2925 46.2884L35.2843 46.2013L35.2768 46.114L35.2703 46.0264L35.2646 45.9386L35.2598 45.8506L35.2558 45.7624L35.2527 45.6739L35.2505 45.5852L35.2492 45.4964L35.2488 45.4073L35.2493 45.3181L35.2506 45.2287L35.2529 45.1392L35.256 45.0495L35.2601 44.9596L35.2651 44.8696L35.271 44.7795L35.2778 44.6893L35.2855 44.599L35.2941 44.5085L35.3037 44.418L35.3142 44.3274L35.3256 44.2368L35.3379 44.146L35.3512 44.0552L35.3654 43.9644L35.3806 43.8735L35.3966 43.7826L35.4137 43.6917L35.4317 43.6008L35.4506 43.5099L35.4705 43.419L35.4913 43.3281L35.513 43.2372L35.5358 43.1464L35.5594 43.0557L35.5841 42.965L35.6097 42.8744L35.6362 42.7838L35.6637 42.6933L35.6922 42.603L35.7216 42.5127L35.752 42.4226L35.7834 42.3326L35.8157 42.2427L35.849 42.153L35.8832 42.0634L35.9184 41.9741L35.9546 41.8848L35.9917 41.7958L36.0298 41.707L36.0689 41.6184L36.1089 41.53L36.1499 41.4418L36.1919 41.3539L36.2348 41.2662L36.2787 41.1788L36.3236 41.0916L36.3694 41.0047L36.4161 40.9181L36.4638 40.8319L36.5125 40.7459L36.5622 40.6602L36.6128 40.5749L36.6643 40.4899L36.7168 40.4053L36.7703 40.321L36.8247 40.2371L36.88 40.1536L36.9363 40.0704L36.9935 39.9877L37.0517 39.9054L37.1108 39.8235L37.1709 39.742L37.2319 39.661L37.2938 39.5804L37.3566 39.5003L37.4204 39.4207L37.4851 39.3416L37.5507 39.2629L37.6172 39.1848L37.6846 39.1071L37.753 39.03L37.8222 38.9534L37.8924 38.8774L37.9635 38.8019L38.0354 38.727L38.1082 38.6527L38.182 38.5789L38.2566 38.5058L38.3321 38.4332L38.4084 38.3613L38.4857 38.2899L38.5638 38.2193L38.6427 38.1492L38.7225 38.0798L38.8032 38.0111L38.8847 37.9431L38.9671 37.8757L39.0503 37.8091L39.1343 37.7431L39.2191 37.6778L39.3048 37.6133L39.3913 37.5495L39.4786 37.4865L39.5666 37.4242L39.6555 37.3626L39.7452 37.3019L39.8357 37.2419L39.9269 37.1827L40.0189 37.1243L40.1117 37.0667L40.2052 37.0099L40.2995 36.954L40.3945 36.8988L40.4903 36.8446L40.5868 36.7912L40.684 36.7386L40.7819 36.6869L40.8806 36.6361L40.9799 36.5862L41.0799 36.5372L41.1807 36.4891L41.2821 36.4419L41.3841 36.3956L41.4869 36.3503L41.5903 36.3059L41.6943 36.2624L41.799 36.22L41.9043 36.1784L42.0102 36.1379L42.1168 36.0983L42.2239 36.0597L42.3317 36.0222L42.44 35.9856L42.5489 35.95L42.6584 35.9155L42.7684 35.882L42.879 35.8495L42.9901 35.8181L43.1018 35.7877L43.214 35.7584L43.3266 35.7302L43.4398 35.703L43.5535 35.6769L43.6677 35.6519L43.7824 35.628L43.8975 35.6052L44.013 35.5835L44.129 35.5629L44.2455 35.5435L44.3623 35.5251L44.4796 35.5079L44.5973 35.4919L44.7153 35.477L44.8338 35.4632L44.9526 35.4507L45.0718 35.4392L45.1913 35.429L45.3111 35.4199L45.4313 35.412L45.5518 35.4053L45.6726 35.3998L45.7937 35.3955L45.9151 35.3924L46.0367 35.3905L46.1586 35.3898L46.2807 35.3903L46.4031 35.3921L46.5257 35.3951L46.6485 35.3993L46.7715 35.4048L46.8946 35.4115L47.018 35.4195L47.1415 35.4287L47.2652 35.4391L47.389 35.4509L47.5129 35.4638L47.6369 35.4781L47.7611 35.4936L47.8853 35.5104L48.0096 35.5285L48.134 35.5479L48.2584 35.5685L48.3828 35.5904L48.5073 35.6136L48.6317 35.6382L48.7562 35.664L48.8807 35.6911L49.0051 35.7195L49.1295 35.7492L49.2538 35.7802L49.3781 35.8125L49.5023 35.8461L49.6264 35.8811L49.7503 35.9173L49.8742 35.9549L49.9979 35.9937L50.1215 36.0339L50.2449 36.0754L50.3682 36.1183L50.4912 36.1624L50.6141 36.2079L50.7367 36.2546L50.8591 36.3027L50.9813 36.3522L51.1032 36.4029L51.2248 36.455L51.3462 36.5083L51.4672 36.563L51.588 36.6191L51.7084 36.6764L51.8284 36.7351L51.9482 36.795L52.0675 36.8563L52.1865 36.9189L52.3051 36.9829L52.4232 37.0481L52.541 37.1146L52.6583 37.1825L52.7752 37.2517L52.8916 37.3221L53.0075 37.3939L53.1229 37.467L53.2378 37.5414L53.3522 37.617L53.4661 37.694L53.5794 37.7723L53.6921 37.8518L53.8043 37.9326L53.9159 38.0148L54.0268 38.0981L54.1372 38.1828L54.2469 38.2687L54.356 38.3559L54.4644 38.4444L54.5722 38.5341L54.6792 38.6251L54.7856 38.7174L54.8912 38.8108L54.9961 38.9055L55.1002 39.0015L55.2036 39.0987L55.3063 39.1971L55.4081 39.2967L55.5092 39.3976L55.6094 39.4996L55.7088 39.6029L55.8073 39.7073L55.905 39.813L56.0019 39.9198L56.0978 40.0278L56.1929 40.137L56.2871 40.2474L56.3803 40.3589L56.4726 40.4715L56.5639 40.5853L56.6543 40.7003L56.7437 40.8163L56.8322 40.9335L56.9196 41.0518L57.006 41.1712L57.0914 41.2918L57.1757 41.4134L57.259 41.5361L57.3412 41.6598L57.4223 41.7846L57.5024 41.9105L57.5813 42.0375L57.6592 42.1654L57.7358 42.2944L57.8114 42.4244L57.8858 42.5555L57.959 42.6875L58.0311 42.8205L58.1019 42.9545L58.1716 43.0895L58.24 43.2254L58.3072 43.3623L58.3732 43.5002L58.4379 43.6389L58.5013 43.7786L58.5635 43.9192L58.6244 44.0607L58.684 44.203L58.7422 44.3463L58.7992 44.4904L58.8548 44.6354L58.9091 44.7812L58.962 44.9278L59.0136 45.0752L59.0638 45.2235L59.1125 45.3725L59.1599 45.5224L59.2059 45.6729L59.2505 45.8243L59.2936 45.9764L59.3353 46.1292L59.3756 46.2827L59.4144 46.4369L59.4517 46.5919L59.4875 46.7475L59.5219 46.9037L59.5547 47.0606L59.5861 47.2182L59.6159 47.3764L59.6442 47.5351L59.6709 47.6945L59.6962 47.8545L59.7198 48.015L59.7419 48.176L59.7625 48.3376L59.7814 48.4998L59.7988 48.6624L59.8145 48.8255L59.8287 48.9891L59.8413 49.1532L59.8522 49.3177L59.8615 49.4826L59.8692 49.6479L59.8752 49.8137L59.8796 49.9798L59.8823 50.1463L59.8834 50.3132L59.8828 50.4804L59.8805 50.6479L59.8765 50.8157L59.8709 50.9838L59.8635 51.1522L59.8545 51.3208L59.8437 51.4897L59.8313 51.6588L59.8171 51.828L59.8011 51.9975L59.7835 52.1672L59.7641 52.337L59.743 52.5069L59.7201 52.677L59.6955 52.8472L59.6692 53.0174L59.6411 53.1877L59.6112 53.3581L59.5795 53.5285L59.5461 53.6989L59.5109 53.8694L59.474 54.0398L59.4352 54.2101L59.3947 54.3804L59.3524 54.5507L59.3083 54.7208L59.2624 54.8908L59.2147 55.0607L59.1652 55.2305L59.1139 55.4001L59.0609 55.5695L59.006 55.7387L58.9493 55.9077L58.8908 56.0764L58.8305 56.2449L58.7684 56.4131L58.7045 56.5811L58.6388 56.7487L58.5713 56.916L58.502 57.0829L58.4308 57.2494L58.3579 57.4156L58.2831 57.5814L58.2066 57.7467L58.1282 57.9116L58.0481 58.0761L57.9661 58.24L57.8823 58.4035L57.7967 58.5664L57.7094 58.7288L57.6202 58.8906L57.5292 59.0519L57.4365 59.2125L57.3419 59.3726L57.2456 59.532L57.1474 59.6907L57.0475 59.8488L56.9458 60.0062L56.8424 60.1629L56.7371 60.3188L56.6301 60.474L56.5214 60.6284L56.4109 60.7821L56.2986 60.9349L56.1845 61.0869L56.0688 61.2381L55.9512 61.3884L55.832 61.5378L55.711 61.6863L55.5883 61.8339L55.4639 61.9805L55.3377 62.1262L55.2099 62.2709L55.0804 62.4146L54.9491 62.5573L54.8162 62.6989L54.6816 62.8395L54.5453 62.979L54.4074 63.1174L54.2678 63.2548L54.1266 63.3909L53.9837 63.526L53.8392 63.6598L53.693 63.7925L53.5453 63.924L53.3959 64.0542L53.245 64.1832L53.0924 64.311L52.9383 64.4375L52.7826 64.5626L52.6254 64.6865L52.4666 64.809L52.3063 64.9302L52.1444 65.05L51.981 65.1684L51.8162 65.2854L51.6498 65.401L51.4819 65.5151L51.3126 65.6278L51.1418 65.739L50.9696 65.8487L50.7959 65.9569L50.6208 66.0636L50.4443 66.1687L50.2664 66.2723L50.0871 66.3742L49.9065 66.4746L49.7245 66.5734L49.5411 66.6705L49.3564 66.766L49.1704 66.8598L48.9831 66.952L48.7945 67.0424L48.6046 67.1312L48.4135 67.2182L48.2211 67.3034L48.0275 67.3869L47.8327 67.4686L47.6367 67.5486L47.4395 67.6267L47.2411 67.703L47.0416 67.7775L46.8409 67.8501L46.6391 67.9208L46.4362 67.9896L46.2323 68.0566L46.0272 68.1216L45.8211 68.1848L45.614 68.2459L45.4059 68.3051L45.1967 68.3624L44.9866 68.4176L44.7755 68.4709L44.5635 68.5222L44.3505 68.5714L44.1366 68.6186L43.9219 68.6637L43.7063 68.7068L43.4898 68.7478L43.2725 68.7867L43.0543 68.8235L42.8354 68.8582L42.6157 68.8908L42.3952 68.9212L42.1741 68.9495L41.9521 68.9756L41.7295 68.9996L41.5063 69.0213L41.2823 69.0409L41.0578 69.0583L40.8326 69.0734L40.6068 69.0863L40.3805 69.097L40.1536 69.1055L39.9262 69.1116L39.6983 69.1155L39.4699 69.1172L39.241 69.1165L39.0117 69.1136L38.782 69.1084L38.5519 69.1008L38.3214 69.0909L38.0905 69.0787L37.8594 69.0642L37.6279 69.0473L37.3961 69.028L37.1641 69.0064L36.9319 68.9825L36.6994 68.9561L36.4667 68.9274L36.2339 68.8963L36.0009 68.8628L35.7679 68.8269L35.5347 68.7886L35.3014 68.7479L35.0681 68.7047L34.8348 68.6592L34.6015 68.6112L34.3682 68.5608L34.1349 68.5079L33.9018 68.4526L33.6687 68.3949L33.4357 68.3347L33.2029 68.2721L32.9703 68.207L32.7379 68.1394L32.5057 68.0694L32.2737 67.997L32.042 67.922L31.8106 67.8446L31.5796 67.7647L31.3488 67.6824L31.1185 67.5976L30.8886 67.5103L30.6591 67.4205L30.43 67.3283L30.2014 67.2335L29.9733 67.1364L29.7458 67.0367L29.5188 66.9345L29.2924 66.8299L29.0665 66.7228L28.8414 66.6133L28.6168 66.5012L28.393 66.3867L28.1699 66.2698L27.9475 66.1504L27.7259 66.0285L27.505 65.9041L27.285 65.7773L27.0658 65.6481L26.8475 65.5163L26.6301 65.3822L26.4136 65.2456L26.198 65.1066L25.9834 64.9651L25.7698 64.8212L25.5573 64.6749L25.3458 64.5262L25.1353 64.3751L24.926 64.2215L24.7178 64.0656L24.5108 63.9073L24.3049 63.7466L24.1003 63.5835L23.8968 63.4181L23.6947 63.2503L23.4938 63.0801L23.2943 62.9076L23.096 62.7327L22.8992 62.5556L22.7037 62.3761L22.5097 62.1943L22.3171 62.0102L22.1259 61.8238L21.9363 61.6351L21.7482 61.4442L21.5616 61.251L21.3766 61.0555L21.1932 60.8579L21.0114 60.658L20.8313 60.4559L20.6528 60.2516L20.4761 60.0451L20.301 59.8364L20.1277 59.6256L19.9562 59.4126L19.7865 59.1975L19.6186 58.9802L19.4526 58.7609L19.2884 58.5395L19.1261 58.3159L18.9658 58.0904L18.8074 57.8628L18.651 57.6331L18.4965 57.4014L18.3441 57.1678L18.1938 56.9321L18.0455 56.6945L17.8992 56.4549L17.7552 56.2135L17.6132 55.97L17.4734 55.7247L17.3358 55.4775L17.2004 55.2285L17.0672 54.9776L16.9363 54.7249L16.8077 54.4704L16.6813 54.214L16.5573 53.956L16.4356 53.6962L16.3163 53.4346L16.1994 53.1713L16.0849 52.9064L15.9728 52.6398L15.8632 52.3716L15.756 52.1017L15.6514 51.8302L15.5492 51.5572L15.4496 51.2826L15.3526 51.0064L15.2581 50.7288L15.1662 50.4496L15.077 50.169L14.9904 49.887L14.9064 49.6035L14.8251 49.3187L14.7465 49.0324L14.6706 48.7449L14.5975 48.456L14.5271 48.1658L14.4595 47.8743L14.3947 47.5816L14.3326 47.2877L14.2734 46.9925L14.2171 46.6962L14.1636 46.3988L14.1129 46.1002L14.0652 45.8006L14.0204 45.4999L13.9785 45.1981L13.9395 44.8954L13.9035 44.5917L13.8705 44.287L13.8405 43.9813L13.8134 43.6748L13.7894 43.3675L13.7684 43.0592L13.7505 42.7502L13.7356 42.4404L13.7238 42.1298L13.7151 41.8185L13.7095 41.5065L13.707 41.1939L13.7077 40.8806L13.7114 40.5667L13.7184 40.2522L13.7285 39.9372L13.7417 39.6217L13.7582 39.3057L13.7779 38.9892L13.8007 38.6723L13.8268 38.355L13.8561 38.0374L13.8887 37.7194L13.9245 37.4012L13.9635 37.0827L14.0059 36.7639L14.0515 36.445L14.1004 36.1259L14.1526 35.8066L14.208 35.4873L14.2668 35.1679L14.3289 34.8484L14.3944 34.529L14.4631 34.2096L14.5352 33.8902L14.6107 33.571L14.6894 33.2519L14.7716 32.9329L14.8571 32.6142L14.9459 32.2957L15.0381 31.9774L15.1337 31.6595L15.2327 31.3419L15.335 31.0246L15.4407 30.7078L15.5498 30.3914L15.6623 30.0755L15.7781 29.7601L15.8974 29.4452L16.02 29.131L16.146 28.8173L16.2754 28.5043L16.4082 28.192L16.5444 27.8804L16.684 27.5695L16.8269 27.2595L16.9733 26.9502L17.123 26.6419L17.2761 26.3344L17.4326 26.0279L17.5925 25.7223L17.7557 25.4177L17.9224 25.1142L18.0923 24.8118L18.2657 24.5105L18.4424 24.2103L18.6224 23.9113L18.8058 23.6135L18.9926 23.317L19.1826 23.0218L19.376 22.7279L19.5728 22.4353L19.7728 22.1442L19.9762 21.8545L20.1828 21.5663L20.3928 21.2796L20.606 20.9944L20.8225 20.7108L21.0423 20.4288L21.2653 20.1485L21.4915 19.8699L21.721 19.593L21.9537 19.3178L22.1897 19.0444L22.4288 18.7729L22.6711 18.5033L22.9166 18.2355L23.1653 17.9697L23.4171 17.7058L23.672 17.444L23.93 17.1842L24.1912 16.9264L24.4555 16.6708L24.7228 16.4174L24.9932 16.1661L25.2666 15.917L25.5431 15.6702L25.8226 15.4257L26.1051 15.1835L26.3905 14.9437L26.6789 14.7063L26.9703 14.4712L27.2646 14.2387L27.5618 14.0086L27.8618 13.7811L28.1648 13.5561L28.4706 13.3338L28.7792 13.114L29.0906 12.8969L29.4048 12.6826L29.7217 12.4709L30.0414 12.262L30.3638 12.0559L30.6889 11.8527L31.0167 11.6522L31.3471 11.4547L31.6802 11.2601L32.0158 11.0685L32.3541 10.8799L32.6948 10.6943L33.0381 10.5117L33.384 10.3322L33.7322 10.1558L34.0829 9.98261L34.4361 9.81256L34.7916 9.64572L35.1495 9.48211L35.5098 9.32177L35.8723 9.16473L36.2371 9.01102L36.6042 8.86066L36.9735 8.71368L37.345 8.57012L37.7187 8.43L38.0945 8.29335L38.4724 8.16019L38.8523 8.03057L39.2343 7.9045L39.6184 7.78202L40.0044 7.66313L40.3923 7.54789L40.7821 7.43631L41.1739 7.32842L41.5674 7.22424L41.9628 7.1238L42.36 7.02712L42.7589 6.93424L43.1595 6.84517L43.5618 6.75995" stroke="url(#paint4_linear_1729_4893)" stroke-width="0.25"/>
<path d="M42.0186 45.3569L41.9967 45.3317L41.975 45.3062L41.9535 45.2805L41.9322 45.2544L41.9111 45.2282L41.8902 45.2016L41.8696 45.1748L41.8492 45.1478L41.829 45.1204L41.8091 45.0929L41.7894 45.065L41.7699 45.037L41.7507 45.0086L41.7317 44.9801L41.713 44.9512L41.6946 44.9222L41.6763 44.8929L41.6584 44.8633L41.6407 44.8335L41.6233 44.8035L41.6061 44.7732L41.5892 44.7428L41.5726 44.712L41.5563 44.6811L41.5402 44.6499L41.5244 44.6186L41.5089 44.5869L41.4937 44.5551L41.4788 44.5231L41.4641 44.4908L41.4498 44.4584L41.4357 44.4257L41.422 44.3928L41.4086 44.3598L41.3954 44.3265L41.3826 44.293L41.3701 44.2594L41.3579 44.2255L41.346 44.1915L41.3344 44.1572L41.3232 44.1228L41.3122 44.0882L41.3016 44.0535L41.2914 44.0185L41.2814 43.9834L41.2718 43.9481L41.2625 43.9127L41.2536 43.8771L41.245 43.8413L41.2367 43.8054L41.2288 43.7693L41.2212 43.7331L41.214 43.6967L41.2072 43.6602L41.2006 43.6235L41.1945 43.5868L41.1887 43.5498L41.1832 43.5128L41.1781 43.4756L41.1734 43.4383L41.169 43.4009L41.165 43.3633L41.1614 43.3257L41.1582 43.2879L41.1553 43.25L41.1528 43.212L41.1506 43.174L41.1489 43.1358L41.1475 43.0975L41.1465 43.0592L41.1459 43.0207L41.1457 42.9822L41.1458 42.9436L41.1464 42.905L41.1473 42.8662L41.1486 42.8274L41.1503 42.7886L41.1524 42.7496L41.1549 42.7106L41.1578 42.6716L41.1611 42.6325L41.1648 42.5934L41.1689 42.5542L41.1734 42.515L41.1783 42.4758L41.1836 42.4366L41.1892 42.3973L41.1953 42.358L41.2019 42.3187L41.2088 42.2793L41.2161 42.24L41.2238 42.2007L41.232 42.1613L41.2405 42.122L41.2495 42.0827L41.2588 42.0434L41.2686 42.0041L41.2788 41.9648L41.2894 41.9255L41.3004 41.8863L41.3119 41.8471L41.3237 41.808L41.336 41.7689L41.3487 41.7298L41.3618 41.6908L41.3753 41.6519L41.3892 41.613L41.4036 41.5742L41.4183 41.5354L41.4335 41.4967L41.4491 41.4581L41.4652 41.4196L41.4816 41.3811L41.4984 41.3428L41.5157 41.3045L41.5334 41.2664L41.5515 41.2283L41.57 41.1904L41.589 41.1525L41.6083 41.1148L41.6281 41.0772L41.6483 41.0397L41.6689 41.0024L41.6899 40.9651L41.7113 40.9281L41.7332 40.8911L41.7554 40.8543L41.7781 40.8177L41.8012 40.7812L41.8246 40.7449L41.8485 40.7087L41.8728 40.6727L41.8976 40.6369L41.9227 40.6013L41.9482 40.5658L41.9741 40.5305L42.0005 40.4955L42.0272 40.4606L42.0544 40.4259L42.0819 40.3914L42.1098 40.3572L42.1382 40.3231L42.1669 40.2893L42.1961 40.2556L42.2256 40.2222L42.2555 40.1891L42.2858 40.1562L42.3165 40.1235L42.3476 40.091L42.3791 40.0588L42.4109 40.0269L42.4431 39.9952L42.4758 39.9638L42.5088 39.9326L42.5421 39.9017L42.5759 39.8711L42.61 39.8408L42.6445 39.8107L42.6793 39.7809L42.7146 39.7515L42.7502 39.7223L42.7861 39.6934L42.8224 39.6648L42.8591 39.6366L42.8961 39.6086L42.9335 39.581L42.9712 39.5536L43.0093 39.5267L43.0477 39.5L43.0864 39.4736L43.1255 39.4477L43.165 39.422L43.2048 39.3967L43.2449 39.3717L43.2853 39.3471L43.326 39.3229L43.3671 39.299L43.4085 39.2754L43.4502 39.2523L43.4922 39.2295L43.5346 39.2071L43.5772 39.1851L43.6202 39.1634L43.6634 39.1422L43.707 39.1213L43.7508 39.1008L43.7949 39.0808L43.8394 39.0611L43.8841 39.0419L43.929 39.023L43.9743 39.0046L44.0198 38.9866L44.0656 38.969L44.1117 38.9518L44.158 38.935L44.2046 38.9187L44.2515 38.9029L44.2985 38.8874L44.3459 38.8724L44.3935 38.8579L44.4413 38.8438L44.4893 38.8301L44.5376 38.8169L44.5861 38.8042L44.6349 38.7919L44.6838 38.7801L44.733 38.7687L44.7824 38.7579L44.8319 38.7475L44.8817 38.7375L44.9317 38.7281L44.9819 38.7191L45.0322 38.7107L45.0828 38.7027L45.1335 38.6952L45.1844 38.6882L45.2355 38.6817L45.2867 38.6756L45.3381 38.6701L45.3896 38.6651L45.4413 38.6606L45.4931 38.6566L45.5451 38.6532L45.5972 38.6502L45.6495 38.6478L45.7019 38.6458L45.7544 38.6444L45.807 38.6435L45.8597 38.6432L45.9125 38.6434L45.9655 38.6441L46.0185 38.6453L46.0716 38.647L46.1248 38.6493L46.1781 38.6522L46.2315 38.6556L46.2849 38.6595L46.3384 38.6639L46.392 38.669L46.4456 38.6745L46.4993 38.6806L46.553 38.6873L46.6067 38.6945L46.6605 38.7022L46.7143 38.7105L46.7681 38.7194L46.822 38.7288L46.8758 38.7388L46.9297 38.7493L46.9835 38.7604L47.0374 38.7721L47.0912 38.7843L47.145 38.7971L47.1988 38.8104L47.2526 38.8243L47.3063 38.8388L47.36 38.8539L47.4137 38.8695L47.4673 38.8857L47.5208 38.9024L47.5743 38.9197L47.6277 38.9376L47.6811 38.9561L47.7343 38.9751L47.7875 38.9947L47.8405 39.0149L47.8935 39.0356L47.9464 39.0569L47.9991 39.0788L48.0518 39.1013L48.1043 39.1243L48.1567 39.1479L48.209 39.1721L48.2611 39.1968L48.3131 39.2221L48.3649 39.248L48.4165 39.2745L48.468 39.3015L48.5194 39.3291L48.5705 39.3572L48.6215 39.386L48.6723 39.4153L48.7229 39.4451L48.7732 39.4755L48.8234 39.5065L48.8734 39.5381L48.9231 39.5702L48.9727 39.6029L49.0219 39.6361L49.071 39.6699L49.1198 39.7042L49.1684 39.7391L49.2167 39.7746L49.2647 39.8106L49.3125 39.8472L49.36 39.8843L49.4073 39.922L49.4542 39.9602L49.5009 39.9989L49.5472 40.0382L49.5933 40.0781L49.639 40.1185L49.6844 40.1594L49.7295 40.2008L49.7743 40.2428L49.8188 40.2853L49.8629 40.3284L49.9066 40.3719L49.95 40.416L49.9931 40.4607L50.0358 40.5058L50.0781 40.5514L50.12 40.5976L50.1616 40.6443L50.2028 40.6914L50.2436 40.7391L50.284 40.7873L50.324 40.836L50.3635 40.8852L50.4027 40.9349L50.4414 40.985L50.4797 41.0357L50.5176 41.0868L50.5551 41.1384L50.592 41.1905L50.6286 41.2431L50.6647 41.2961L50.7003 41.3496L50.7355 41.4035L50.7702 41.4579L50.8044 41.5128L50.8381 41.5681L50.8714 41.6239L50.9041 41.6801L50.9364 41.7367L50.9681 41.7938L50.9993 41.8513L51.0301 41.9092L51.0603 41.9676L51.0899 42.0264L51.1191 42.0855L51.1477 42.1451L51.1757 42.2051L51.2033 42.2655L51.2302 42.3263L51.2566 42.3875L51.2825 42.449L51.3078 42.5109L51.3325 42.5733L51.3566 42.6359L51.3802 42.699L51.4031 42.7624L51.4255 42.8261L51.4473 42.8902L51.4685 42.9547L51.4891 43.0195L51.509 43.0846L51.5284 43.15L51.5471 43.2158L51.5653 43.2819L51.5827 43.3483L51.5996 43.415L51.6158 43.482L51.6314 43.5492L51.6464 43.6168L51.6606 43.6847L51.6743 43.7528L51.6873 43.8212L51.6996 43.8899L51.7113 43.9588L51.7222 44.028L51.7326 44.0974L51.7422 44.1671L51.7512 44.237L51.7595 44.3071L51.7671 44.3774L51.774 44.448L51.7802 44.5187L51.7857 44.5897L51.7905 44.6609L51.7946 44.7322L51.798 44.8037L51.8007 44.8754L51.8027 44.9473L51.804 45.0193L51.8045 45.0915L51.8043 45.1638L51.8035 45.2363L51.8018 45.3089L51.7995 45.3816L51.7964 45.4544L51.7925 45.5274L51.788 45.6004L51.7827 45.6736L51.7766 45.7468L51.7698 45.8201L51.7623 45.8935L51.754 45.967L51.7449 46.0405L51.7351 46.1141L51.7246 46.1877L51.7133 46.2614L51.7012 46.3351L51.6884 46.4088L51.6748 46.4825L51.6604 46.5562L51.6453 46.63L51.6294 46.7037L51.6127 46.7774L51.5953 46.8511L51.577 46.9248L51.558 46.9984L51.5383 47.072L51.5177 47.1455L51.4964 47.2189L51.4743 47.2923L51.4515 47.3656L51.4278 47.4389L51.4034 47.512L51.3782 47.585L51.3522 47.6579L51.3254 47.7307L51.2979 47.8034L51.2695 47.876L51.2404 47.9484L51.2105 48.0206L51.1798 48.0927L51.1483 48.1646L51.1161 48.2364L51.0831 48.3079L51.0493 48.3793L51.0147 48.4505L50.9793 48.5214L50.9431 48.5922L50.9062 48.6627L50.8685 48.733L50.83 48.803L50.7907 48.8728L50.7507 48.9424L50.7099 49.0117L50.6683 49.0807L50.6259 49.1494L50.5828 49.2178L50.5389 49.286L50.4942 49.3538L50.4488 49.4213L50.4026 49.4885L50.3556 49.5554L50.3079 49.6219L50.2594 49.688L50.2101 49.7538L50.1601 49.8193L50.1094 49.8844L50.0579 49.9491L50.0056 50.0134L49.9526 50.0773L49.8989 50.1408L49.8444 50.2039L49.7892 50.2665L49.7332 50.3287L49.6765 50.3905L49.6191 50.4519L49.5609 50.5128L49.502 50.5732L49.4425 50.6331L49.3821 50.6926L49.3211 50.7516L49.2594 50.8101L49.1969 50.8681L49.1338 50.9255L49.0699 50.9825L49.0054 51.0389L48.9402 51.0948L48.8743 51.1501L48.8077 51.2049L48.7404 51.2591L48.6724 51.3128L48.6038 51.3659L48.5345 51.4184L48.4646 51.4703L48.3939 51.5216L48.3227 51.5723L48.2508 51.6224L48.1782 51.6718L48.105 51.7207L48.0312 51.7689L47.9568 51.8164L47.8817 51.8633L47.806 51.9095L47.7297 51.9551L47.6528 52L47.5753 52.0442L47.4972 52.0877L47.4185 52.1305L47.3393 52.1727L47.2594 52.2141L47.179 52.2547L47.098 52.2947L47.0165 52.3339L46.9344 52.3724L46.8518 52.4101L46.7686 52.4471L46.6849 52.4833L46.6007 52.5188L46.5159 52.5535L46.4307 52.5874L46.3449 52.6205L46.2586 52.6528L46.1719 52.6843L46.0846 52.715L45.9969 52.7449L45.9087 52.774L45.82 52.8022L45.7309 52.8296L45.6413 52.8562L45.5513 52.8819L45.4609 52.9068L45.37 52.9308L45.2787 52.954L45.1871 52.9762L45.095 52.9976L45.0025 53.0182L44.9096 53.0378L44.8163 53.0566L44.7227 53.0744L44.6287 53.0913L44.5344 53.1074L44.4397 53.1225L44.3447 53.1367L44.2493 53.15L44.1537 53.1623L44.0577 53.1738L43.9614 53.1842L43.8648 53.1938L43.768 53.2023L43.6709 53.21L43.5735 53.2166L43.4758 53.2223L43.3779 53.2271L43.2798 53.2309L43.1814 53.2337L43.0828 53.2355L42.984 53.2363L42.885 53.2361L42.7858 53.235L42.6864 53.2328L42.5869 53.2297L42.4872 53.2255L42.3873 53.2204L42.2873 53.2142L42.1872 53.207L42.0869 53.1988L41.9865 53.1896L41.8861 53.1793L41.7855 53.1681L41.6848 53.1558L41.5841 53.1424L41.4833 53.1281L41.3825 53.1127L41.2816 53.0962L41.1806 53.0787L41.0797 53.0602L40.9787 53.0406L40.8778 53.02L40.7768 52.9983L40.6759 52.9755L40.575 52.9517L40.4742 52.9269L40.3734 52.901L40.2726 52.874L40.172 52.846L40.0714 52.8169L39.9709 52.7867L39.8705 52.7555L39.7703 52.7232L39.6701 52.6898L39.5701 52.6554L39.4703 52.6199L39.3706 52.5833L39.2711 52.5457L39.1718 52.507L39.0726 52.4672L38.9737 52.4263L38.875 52.3844L38.7765 52.3414L38.6783 52.2973L38.5803 52.2522L38.4825 52.206L38.3851 52.1587L38.2879 52.1104L38.191 52.061L38.0944 52.0105L37.9982 51.9589L37.9022 51.9063L37.8066 51.8527L37.7114 51.7979L37.6165 51.7421L37.522 51.6853L37.4279 51.6273L37.3342 51.5684L37.2408 51.5083L37.1479 51.4473L37.0555 51.3851L36.9634 51.322L36.8719 51.2577L36.7808 51.1925L36.6901 51.1262L36.6 51.0588L36.5103 50.9905L36.4212 50.921L36.3326 50.8506L36.2445 50.7791L36.157 50.7067L36.07 50.6332L35.9836 50.5586L35.8978 50.4831L35.8125 50.4066L35.7279 50.329L35.6438 50.2505L35.5604 50.171L35.4776 50.0904L35.3955 50.0089L35.314 49.9264L35.2332 49.8429L35.1531 49.7585L35.0737 49.6731L34.9949 49.5867L34.9169 49.4994L34.8396 49.4111L34.763 49.3219L34.6872 49.2317L34.6121 49.1406L34.5378 49.0485L34.4643 48.9556L34.3916 48.8617L34.3196 48.7669L34.2485 48.6712L34.1782 48.5746L34.1087 48.4771L34.0401 48.3787L33.9723 48.2795L33.9053 48.1793L33.8393 48.0783L33.7741 47.9765L33.7098 47.8738L33.6465 47.7702L33.584 47.6658L33.5225 47.5606L33.4619 47.4546L33.4022 47.3477L33.3435 47.24L33.2858 47.1316L33.229 47.0223L33.1732 46.9123L33.1185 46.8015L33.0647 46.6899L33.0119 46.5776L32.9602 46.4645L32.9094 46.3507L32.8598 46.2362L32.8111 46.1209L32.7636 46.0049L32.7171 45.8882L32.6717 45.7709L32.6274 45.6528L32.5841 45.5341L32.542 45.4147L32.501 45.2946L32.4611 45.1739L32.4223 45.0526L32.3847 44.9306L32.3483 44.808L32.3129 44.6849L32.2788 44.5611L32.2458 44.4367L32.214 44.3118L32.1834 44.1863L32.154 44.0603L32.1258 43.9337L32.0988 43.8066L32.0731 43.6789L32.0485 43.5508L32.0253 43.4221L32.0032 43.293L31.9824 43.1634L31.9628 43.0334L31.9446 42.9029L31.9276 42.7719L31.9118 42.6406L31.8974 42.5088L31.8842 42.3766L31.8724 42.244L31.8618 42.111L31.8526 41.9777L31.8447 41.8441L31.8381 41.71L31.8328 41.5757L31.8289 41.4411L31.8263 41.3061L31.825 41.1709L31.8251 41.0353L31.8266 40.8995L31.8295 40.7635L31.8337 40.6272L31.8392 40.4907L31.8462 40.354L31.8545 40.2171L31.8642 40.08L31.8754 39.9428L31.8879 39.8054L31.9018 39.6678L31.9171 39.5301L31.9338 39.3923L31.952 39.2544L31.9716 39.1164L31.9925 38.9784L32.0149 38.8402L32.0388 38.7021L32.064 38.5639L32.0907 38.4257L32.1189 38.2874L32.1485 38.1492L32.1795 38.0111L32.2119 37.8729L32.2459 37.7348L32.2812 37.5968L32.318 37.4589L32.3563 37.3211L32.396 37.1834L32.4372 37.0458L32.4798 36.9083L32.5239 36.7711L32.5695 36.6339L32.6165 36.497L32.665 36.3603L32.715 36.2238L32.7664 36.0876L32.8193 35.9515L32.8736 35.8158L32.9294 35.6803L32.9867 35.5452L33.0454 35.4103L33.1057 35.2758L33.1673 35.1416L33.2305 35.0077L33.2951 34.8742L33.3612 34.7412L33.4287 34.6085L33.4977 34.4762L33.5681 34.3444L33.6401 34.213L33.7134 34.0821L33.7883 33.9517L33.8645 33.8217L33.9423 33.6923L34.0214 33.5634L34.1021 33.435L34.1841 33.3072L34.2676 33.18L34.3526 33.0533L34.439 32.9273L34.5268 32.8019L34.616 32.6771L34.7067 32.5529L34.7988 32.4295L34.8923 32.3067L34.9872 32.1846L35.0835 32.0632L35.1813 31.9426L35.2804 31.8227L35.3809 31.7035L35.4828 31.5851L35.5861 31.4676L35.6908 31.3508L35.7968 31.2348L35.9043 31.1197L36.0131 31.0054L36.1232 30.892L36.2347 30.7795L36.3475 30.6679L36.4617 30.5572L36.5772 30.4474L36.694 30.3386L36.8122 30.2307L36.9317 30.1238L37.0524 30.0179L37.1745 29.913L37.2979 29.8091L37.4225 29.7062L37.5484 29.6044L37.6756 29.5036L37.804 29.404L37.9337 29.3054L38.0646 29.2079L38.1968 29.1116L38.3302 29.0163L38.4648 28.9223L38.6006 28.8294L38.7376 28.7377L38.8757 28.6471L39.0151 28.5578L39.1556 28.4697L39.2973 28.3828L39.4401 28.2972L39.5841 28.2129L39.7292 28.1298L39.8754 28.048L40.0227 27.9676L40.1711 27.8884L40.3206 27.8106L40.4712 27.7341L40.6228 27.659L40.7755 27.5853L40.9292 27.5129L41.0839 27.4419L41.2397 27.3724L41.3964 27.3043L41.5541 27.2376L41.7129 27.1723L41.8725 27.1086L42.0332 27.0463L42.1947 26.9855L42.3572 26.9262L42.5206 26.8684L42.6849 26.8121L42.8501 26.7574L43.0161 26.7042L43.183 26.6526L43.3508 26.6025L43.5194 26.554L43.6888 26.5071L43.859 26.4619L44.0299 26.4182L44.2017 26.3762L44.3742 26.3358L44.5475 26.2971L44.7214 26.26L44.8961 26.2246L45.0715 26.1909L45.2476 26.1588L45.4243 26.1285L45.6017 26.0999L45.7797 26.073L45.9583 26.0478L46.1376 26.0244L46.3174 26.0027L46.4977 25.9828L46.6787 25.9646L46.8601 25.9483L47.0421 25.9337L47.2246 25.9209L47.4076 25.9099L47.591 25.9007L47.7749 25.8934L47.9592 25.8878L48.144 25.8842L48.3291 25.8823L48.5146 25.8823L48.7005 25.8842L48.8867 25.8879L49.0733 25.8935L49.2601 25.901L49.4473 25.9104L49.6347 25.9216L49.8224 25.9348L50.0103 25.9499L50.1984 25.9668L50.3867 25.9857L50.5752 26.0066L50.7639 26.0293L50.9526 26.054L51.1416 26.0806L51.3306 26.1092L51.5197 26.1397L51.7088 26.1722L51.898 26.2066L52.0873 26.243L52.2765 26.2814L52.4657 26.3217L52.6549 26.3641L52.8441 26.4083L53.0331 26.4546L53.2221 26.5029L53.4109 26.5531L53.5996 26.6053L53.7882 26.6596L53.9766 26.7158L54.1648 26.774L54.3527 26.8342L54.5405 26.8964L54.7279 26.9607L54.9151 27.0269L55.102 27.0951L55.2886 27.1654L55.4749 27.2376L55.6607 27.3118L55.8463 27.3881L56.0314 27.4664L56.216 27.5466L56.4003 27.6289L56.584 27.7132L56.7673 27.7995L56.9501 27.8878L57.1323 27.9781L57.314 28.0704L57.4952 28.1647L57.6757 28.261L57.8556 28.3593L58.0349 28.4596L58.2135 28.5619L58.3915 28.6662L58.5688 28.7724L58.7453 28.8807L58.9211 28.9909L59.0962 29.1031L59.2704 29.2173L59.4439 29.3334L59.6165 29.4515L59.7883 29.5716L59.9592 29.6936L60.1292 29.8176L60.2983 29.9435L60.4665 30.0714L60.6338 30.2012L60.8 30.3329L60.9653 30.4665L61.1295 30.6021L61.2927 30.7396L61.4549 30.879L61.616 31.0202L61.7759 31.1634L61.9348 31.3084L62.0925 31.4554L62.249 31.6042L62.4044 31.7548L62.5585 31.9073L62.7114 32.0617L62.8631 32.2178L63.0135 32.3758L63.1626 32.5356L63.3104 32.6973L63.4569 32.8607L63.602 33.0259L63.7458 33.1929L63.8881 33.3616L64.0291 33.5321L64.1686 33.7044L64.3066 33.8783L64.4432 34.054L64.5783 34.2315L64.7119 34.4106L64.8439 34.5914L64.9744 34.7739L65.1033 34.958L65.2306 35.1438L65.3563 35.3312L65.4804 35.5203L65.6028 35.711L65.7236 35.9032L65.8426 36.0971L65.96 36.2925L66.0756 36.4895L66.1895 36.688L66.3016 36.8881L66.4119 37.0896L66.5204 37.2927L66.6271 37.4973L66.732 37.7033L66.8349 37.9108L66.9361 38.1197L67.0353 38.33L67.1326 38.5417L67.228 38.7548L67.3214 38.9693L67.4128 39.1852L67.5023 39.4024L67.5898 39.6209L67.6752 39.8407L67.7586 40.0618L67.84 40.2842L67.9193 40.5078L67.9965 40.7326L68.0716 40.9587L68.1446 41.1859L68.2154 41.4143L68.2842 41.6439L68.3507 41.8746L68.415 42.1065L68.4772 42.3394L68.5371 42.5734L68.5949 42.8085L68.6503 43.0446L68.7035 43.2817L68.7545 43.5198L68.8032 43.7589L68.8495 43.9989L68.8936 44.2399L68.9353 44.4818L68.9746 44.7246L69.0117 44.9682L69.0463 45.2127L69.0786 45.4581L69.1084 45.7042L69.1359 45.9511L69.1609 46.1987L69.1835 46.4471L69.2037 46.6962L69.2214 46.946L69.2367 47.1965L69.2494 47.4476L69.2597 47.6993L69.2675 47.9516L69.2727 48.2045L69.2754 48.4579L69.2756 48.7119L69.2733 48.9663L69.2684 49.2212L69.2609 49.4766L69.2509 49.7324L69.2382 49.9886L69.223 50.2451L69.2052 50.5021L69.1848 50.7593L69.1618 51.0168L69.1361 51.2746L69.1078 51.5327L69.0769 51.7909L69.0433 52.0494L69.007 52.308L68.9681 52.5668L68.9265 52.8257L68.8823 53.0847L68.8354 53.3437L68.7857 53.6028L68.7334 53.8619L68.6784 54.121L68.6207 54.38L68.5603 54.6389L68.4972 54.8978L68.4313 55.1565L68.3627 55.4151L68.2914 55.6734L68.2174 55.9316L68.1407 56.1896L68.0612 56.4472L67.9789 56.7046L67.894 56.9617L67.8063 57.2184L67.7158 57.4747L67.6226 57.7306L67.5267 57.9861L67.428 58.2411L67.3266 58.4957L67.2224 58.7497L67.1154 59.0031L67.0058 59.256L66.8933 59.5083L66.7781 59.76L66.6602 60.0109L66.5396 60.2612L66.4161 60.5108L66.29 60.7596L66.1611 61.0077L66.0295 61.2549L65.8951 61.5013L65.758 61.7469L65.6182 61.9915L65.4756 62.2352L65.3304 62.478L65.1824 62.7198L65.0317 62.9606L64.8783 63.2003L64.7222 63.439L64.5634 63.6765L64.4019 63.913L64.2377 64.1483L64.0709 64.3824L63.9013 64.6152L63.7292 64.8469L63.5543 65.0772L63.3768 65.3063L63.1967 65.534L63.0139 65.7604L62.8285 65.9854L62.6405 66.209L62.4499 66.4311L62.2567 66.6517L62.0609 66.8708L61.8625 67.0884L61.6615 67.3045L61.458 67.5189L61.252 67.7318L61.0434 67.9429L60.8323 68.1524L60.6187 68.3602L60.4025 68.5663L60.1839 68.7706L59.9629 68.9731L59.7393 69.1738L59.5133 69.3726L59.2849 69.5695L59.0541 69.7646L58.8208 69.9577L58.5852 70.1489L58.3472 70.3381L58.1068 70.5252L57.8641 70.7103L57.619 70.8934L57.3717 71.0743L57.122 71.2531L56.8701 71.4298L56.6159 71.6043L56.3595 71.7766L56.1008 71.9466L55.8399 72.1144L55.5769 72.2799L55.3116 72.4431L55.0442 72.604L54.7747 72.7624L54.5031 72.9185L54.2294 73.0722L53.9536 73.2234L53.6757 73.3722L53.3958 73.5185L53.1139 73.6622L52.83 73.8034L52.5441 73.9421L52.2563 74.0781L51.9666 74.2116L51.675 74.3424L51.3814 74.4705L51.0861 74.5959L50.7889 74.7186L50.4898 74.8386L50.189 74.9558L49.8865 75.0702L49.5822 75.1818L49.2762 75.2906L48.9685 75.3966L48.6591 75.4996L48.3481 75.5998L48.0355 75.697L47.7213 75.7913L47.4055 75.8827L47.0883 75.971L46.7695 76.0563L46.4492 76.1386L46.1275 76.2179L45.8044 76.2941L45.4798 76.3672L45.1539 76.4372L44.8267 76.5041L44.4981 76.5678L44.1683 76.6284L43.8372 76.6857L43.505 76.7399L43.1715 76.7908L42.8368 76.8385L42.501 76.8829L42.1642 76.9241L41.8262 76.962L41.4872 76.9965L41.1472 77.0277L40.8063 77.0556L40.4643 77.0801L40.1215 77.1012L39.7778 77.119L39.4332 77.1333L39.0878 77.1442L38.7417 77.1517L38.3948 77.1557L38.0471 77.1562L37.6988 77.1533L37.3499 77.1469L37.0003 77.1369L36.6501 77.1235L36.2994 77.1065L35.9482 77.0859L35.5965 77.0618L35.2443 77.0341L34.8918 77.0029L34.5389 76.968L34.1856 76.9296L33.832 76.8875L33.4782 76.8418L33.1241 76.7925L32.7698 76.7395L32.4154 76.6829L32.0608 76.6226L31.7062 76.5586L31.3515 76.491L30.9967 76.4196L30.642 76.3446L30.2874 76.2659L29.9329 76.1835L29.5785 76.0973L29.2242 76.0075L28.8702 75.9139L28.5164 75.8166L28.1629 75.7155L27.8098 75.6107L27.457 75.5022L27.1046 75.3899L26.7526 75.2739L26.4011 75.1541L26.0501 75.0306L25.6997 74.9033L25.3498 74.7722L25.0006 74.6374L24.6521 74.4988L24.3043 74.3565L23.9572 74.2104L23.6109 74.0605L23.2654 73.9069L22.9208 73.7495L22.5771 73.5884L22.2343 73.4235L21.8926 73.2548L21.5518 73.0824L21.2121 72.9062L20.8735 72.7263L20.5361 72.5426L20.1998 72.3552L19.8648 72.1641L19.531 71.9692L19.1985 71.7706L18.8674 71.5683L18.5376 71.3623L18.2093 71.1526L17.8824 70.9391L17.557 70.722L17.2332 70.5012L16.9109 70.2767L16.5903 70.0486L16.2713 69.8168L15.954 69.5813L15.6385 69.3422L15.3248 69.0995L15.0128 68.8532L14.7027 68.6032L14.3946 68.3497L14.0883 68.0926L13.7841 67.8319L13.4818 67.5676L13.1816 67.2998L12.8836 67.0285L12.5876 66.7537L12.2938 66.4753L12.0023 66.1935L11.713 65.9082L11.426 65.6194L11.1413 65.3272L10.859 65.0316L10.5791 64.7326L10.3016 64.4302L10.0267 64.1244" stroke="url(#paint5_linear_1729_4893)" stroke-width="0.25"/>
<path d="M44.2874 46.0397L44.2765 46.0713L44.2653 46.1028L44.2538 46.1343L44.2419 46.1658L44.2297 46.1972L44.2171 46.2285L44.2042 46.2598L44.191 46.291L44.1774 46.3221L44.1635 46.3531L44.1493 46.3841L44.1347 46.415L44.1197 46.4458L44.1045 46.4765L44.0889 46.5072L44.0729 46.5377L44.0567 46.5681L44.04 46.5984L44.0231 46.6286L44.0058 46.6587L43.9882 46.6887L43.9702 46.7186L43.952 46.7484L43.9333 46.778L43.9144 46.8075L43.8951 46.8368L43.8755 46.8661L43.8555 46.8952L43.8352 46.9241L43.8146 46.9529L43.7937 46.9816L43.7724 47.01L43.7508 47.0384L43.7289 47.0666L43.7066 47.0946L43.6841 47.1224L43.6612 47.1501L43.638 47.1776L43.6144 47.2049L43.5906 47.232L43.5664 47.259L43.5419 47.2857L43.5171 47.3123L43.492 47.3387L43.4665 47.3648L43.4408 47.3908L43.4147 47.4166L43.3884 47.4421L43.3617 47.4674L43.3347 47.4926L43.3074 47.5175L43.2798 47.5421L43.2519 47.5666L43.2238 47.5908L43.1953 47.6147L43.1665 47.6385L43.1374 47.662L43.108 47.6852L43.0784 47.7082L43.0484 47.731L43.0182 47.7534L42.9877 47.7757L42.9569 47.7976L42.9258 47.8194L42.8945 47.8408L42.8628 47.8619L42.8309 47.8828L42.7987 47.9034L42.7663 47.9238L42.7336 47.9438L42.7006 47.9636L42.6674 47.983L42.6339 48.0022L42.6001 48.021L42.5661 48.0396L42.5318 48.0579L42.4973 48.0758L42.4625 48.0935L42.4275 48.1108L42.3923 48.1278L42.3568 48.1445L42.3211 48.1609L42.2851 48.1769L42.2489 48.1926L42.2125 48.208L42.1758 48.223L42.139 48.2377L42.1019 48.2521L42.0646 48.2661L42.0271 48.2798L41.9894 48.2931L41.9514 48.3061L41.9133 48.3187L41.8749 48.331L41.8364 48.3429L41.7977 48.3544L41.7588 48.3656L41.7197 48.3764L41.6804 48.3868L41.6409 48.3969L41.6012 48.4066L41.5614 48.4159L41.5214 48.4248L41.4812 48.4334L41.4409 48.4415L41.4004 48.4493L41.3598 48.4567L41.319 48.4637L41.278 48.4703L41.2369 48.4765L41.1957 48.4823L41.1543 48.4876L41.1128 48.4926L41.0712 48.4972L41.0294 48.5014L40.9875 48.5052L40.9455 48.5085L40.9034 48.5114L40.8611 48.514L40.8188 48.5161L40.7763 48.5177L40.7338 48.519L40.6911 48.5198L40.6484 48.5202L40.6056 48.5202L40.5627 48.5198L40.5197 48.5189L40.4766 48.5176L40.4335 48.5158L40.3903 48.5137L40.347 48.5111L40.3037 48.508L40.2603 48.5045L40.2169 48.5006L40.1734 48.4962L40.1299 48.4914L40.0864 48.4861L40.0428 48.4804L39.9992 48.4742L39.9555 48.4676L39.9119 48.4605L39.8682 48.453L39.8245 48.4451L39.7809 48.4366L39.7372 48.4278L39.6935 48.4184L39.6498 48.4087L39.6062 48.3984L39.5625 48.3877L39.5189 48.3766L39.4753 48.3649L39.4318 48.3529L39.3882 48.3403L39.3448 48.3273L39.3013 48.3139L39.2579 48.3L39.2146 48.2856L39.1713 48.2707L39.1281 48.2554L39.085 48.2397L39.0419 48.2234L38.9989 48.2068L38.956 48.1896L38.9132 48.172L38.8705 48.1539L38.8279 48.1353L38.7853 48.1163L38.7429 48.0969L38.7006 48.0769L38.6584 48.0565L38.6164 48.0357L38.5744 48.0143L38.5326 47.9926L38.491 47.9703L38.4494 47.9476L38.4081 47.9244L38.3668 47.9008L38.3258 47.8767L38.2849 47.8522L38.2441 47.8272L38.2035 47.8017L38.1631 47.7758L38.1229 47.7494L38.0829 47.7226L38.043 47.6953L38.0034 47.6676L37.964 47.6394L37.9247 47.6108L37.8857 47.5817L37.8469 47.5521L37.8083 47.5222L37.7699 47.4917L37.7318 47.4609L37.6939 47.4296L37.6562 47.3978L37.6188 47.3656L37.5816 47.333L37.5447 47.2999L37.508 47.2664L37.4717 47.2325L37.4355 47.1981L37.3997 47.1634L37.3641 47.1281L37.3288 47.0925L37.2938 47.0564L37.2591 47.0199L37.2247 46.983L37.1906 46.9457L37.1568 46.908L37.1233 46.8698L37.0901 46.8313L37.0573 46.7923L37.0248 46.7529L36.9926 46.7131L36.9607 46.673L36.9292 46.6324L36.8981 46.5914L36.8672 46.5501L36.8368 46.5083L36.8067 46.4662L36.7769 46.4237L36.7475 46.3808L36.7185 46.3375L36.6899 46.2938L36.6617 46.2498L36.6338 46.2054L36.6063 46.1606L36.5793 46.1155L36.5526 46.07L36.5263 46.0242L36.5005 45.978L36.475 45.9315L36.45 45.8846L36.4254 45.8374L36.4012 45.7898L36.3774 45.7419L36.3541 45.6936L36.3312 45.6451L36.3088 45.5962L36.2868 45.547L36.2652 45.4975L36.2441 45.4476L36.2235 45.3975L36.2033 45.347L36.1836 45.2963L36.1644 45.2452L36.1456 45.1939L36.1273 45.1423L36.1095 45.0904L36.0922 45.0382L36.0754 44.9857L36.0591 44.933L36.0432 44.88L36.0279 44.8267L36.013 44.7732L35.9987 44.7194L35.9849 44.6654L35.9716 44.6111L35.9588 44.5566L35.9465 44.5019L35.9348 44.4469L35.9236 44.3917L35.9129 44.3363L35.9028 44.2806L35.8932 44.2248L35.8841 44.1687L35.8756 44.1125L35.8676 44.056L35.8602 43.9994L35.8533 43.9426L35.847 43.8856L35.8412 43.8284L35.836 43.7711L35.8314 43.7136L35.8273 43.6559L35.8238 43.5981L35.8209 43.5401L35.8186 43.482L35.8168 43.4238L35.8156 43.3654L35.815 43.3069L35.815 43.2483L35.8155 43.1895L35.8167 43.1307L35.8184 43.0717L35.8208 43.0127L35.8237 42.9535L35.8272 42.8943L35.8314 42.835L35.8361 42.7756L35.8415 42.7162L35.8474 42.6567L35.854 42.5971L35.8611 42.5375L35.8689 42.4778L35.8773 42.4181L35.8863 42.3584L35.8959 42.2986L35.9062 42.2388L35.917 42.179L35.9285 42.1192L35.9406 42.0594L35.9533 41.9996L35.9667 41.9399L35.9806 41.8801L35.9952 41.8203L36.0104 41.7606L36.0263 41.7009L36.0428 41.6413L36.0599 41.5817L36.0776 41.5222L36.096 41.4627L36.115 41.4033L36.1346 41.3439L36.1549 41.2847L36.1758 41.2255L36.1974 41.1665L36.2195 41.1075L36.2423 41.0486L36.2658 40.9899L36.2898 40.9312L36.3146 40.8727L36.3399 40.8144L36.3659 40.7561L36.3925 40.6981L36.4197 40.6401L36.4476 40.5824L36.4761 40.5248L36.5053 40.4673L36.535 40.4101L36.5654 40.353L36.5965 40.2961L36.6282 40.2395L36.6604 40.183L36.6934 40.1268L36.7269 40.0707L36.7611 40.0149L36.7959 39.9594L36.8314 39.904L36.8674 39.849L36.9041 39.7941L36.9414 39.7396L36.9793 39.6853L37.0179 39.6312L37.057 39.5775L37.0968 39.524L37.1372 39.4709L37.1782 39.418L37.2198 39.3654L37.262 39.3132L37.3048 39.2613L37.3482 39.2097L37.3922 39.1584L37.4369 39.1075L37.4821 39.057L37.5279 39.0067L37.5743 38.9569L37.6213 38.9074L37.6689 38.8583L37.7171 38.8096L37.7658 38.7612L37.8151 38.7133L37.865 38.6657L37.9155 38.6186L37.9666 38.5718L38.0182 38.5255L38.0704 38.4797L38.1231 38.4342L38.1764 38.3892L38.2303 38.3446L38.2847 38.3005L38.3397 38.2569L38.3952 38.2137L38.4512 38.171L38.5078 38.1288L38.5649 38.087L38.6226 38.0457L38.6808 38.005L38.7394 37.9647L38.7987 37.925L38.8584 37.8858L38.9186 37.847L38.9794 37.8089L39.0406 37.7712L39.1024 37.7341L39.1646 37.6975L39.2273 37.6615L39.2905 37.6261L39.3542 37.5912L39.4183 37.5569L39.483 37.5231L39.5481 37.49L39.6136 37.4574L39.6796 37.4254L39.7461 37.394L39.813 37.3633L39.8803 37.3331L39.9481 37.3035L40.0163 37.2746L40.0849 37.2463L40.1539 37.2186L40.2234 37.1916L40.2932 37.1652L40.3635 37.1395L40.4341 37.1144L40.5052 37.09L40.5766 37.0662L40.6484 37.0431L40.7206 37.0207L40.7931 36.999L40.866 36.9779L40.9393 36.9575L41.0129 36.9379L41.0868 36.9189L41.1611 36.9006L41.2357 36.8831L41.3106 36.8662L41.3858 36.8501L41.4614 36.8347L41.5372 36.82L41.6134 36.806L41.6898 36.7928L41.7665 36.7804L41.8435 36.7686L41.9208 36.7576L41.9983 36.7474L42.0761 36.7379L42.1541 36.7292L42.2323 36.7213L42.3108 36.7141L42.3895 36.7077L42.4685 36.7021L42.5476 36.6972L42.627 36.6932L42.7065 36.6899L42.7862 36.6874L42.8661 36.6857L42.9462 36.6848L43.0265 36.6847L43.1069 36.6854L43.1874 36.6869L43.2681 36.6893L43.349 36.6924L43.4299 36.6964L43.511 36.7011L43.5922 36.7067L43.6735 36.7132L43.7549 36.7204L43.8363 36.7285L43.9179 36.7374L43.9995 36.7471L44.0812 36.7577L44.1629 36.7691L44.2447 36.7814L44.3265 36.7945L44.4084 36.8084L44.4902 36.8232L44.5721 36.8389L44.654 36.8554L44.7359 36.8727L44.8177 36.8909L44.8996 36.91L44.9814 36.9299L45.0631 36.9507L45.1448 36.9723L45.2265 36.9948L45.3081 37.0182L45.3896 37.0424L45.471 37.0675L45.5524 37.0934L45.6336 37.1203L45.7148 37.1479L45.7958 37.1765L45.8767 37.2059L45.9574 37.2362L46.038 37.2673L46.1185 37.2994L46.1987 37.3322L46.2789 37.366L46.3588 37.4006L46.4385 37.4361L46.5181 37.4725L46.5974 37.5097L46.6765 37.5478L46.7554 37.5868L46.834 37.6266L46.9124 37.6673L46.9906 37.7089L47.0685 37.7513L47.1461 37.7946L47.2234 37.8388L47.3004 37.8838L47.3772 37.9296L47.4536 37.9764L47.5297 38.024L47.6055 38.0724L47.6809 38.1217L47.756 38.1719L47.8307 38.2229L47.9051 38.2747L47.9791 38.3274L48.0527 38.3809L48.1259 38.4353L48.1988 38.4905L48.2712 38.5466L48.3432 38.6035L48.4147 38.6612L48.4858 38.7198L48.5565 38.7792L48.6267 38.8394L48.6965 38.9004L48.7657 38.9622L48.8345 39.0249L48.9028 39.0884L48.9706 39.1527L49.0379 39.2177L49.1047 39.2836L49.1709 39.3503L49.2366 39.4178L49.3017 39.4861L49.3663 39.5551L49.4303 39.6249L49.4938 39.6956L49.5566 39.767L49.6189 39.8391L49.6806 39.912L49.7416 39.9857L49.8021 40.0601L49.8619 40.1353L49.9211 40.2113L49.9796 40.2879L50.0375 40.3654L50.0947 40.4435L50.1512 40.5224L50.2071 40.602L50.2622 40.6823L50.3167 40.7633L50.3705 40.845L50.4235 40.9274L50.4759 41.0105L50.5275 41.0943L50.5783 41.1788L50.6285 41.2639L50.6778 41.3497L50.7264 41.4362L50.7742 41.5234L50.8213 41.6111L50.8676 41.6996L50.913 41.7886L50.9577 41.8783L51.0015 41.9686L51.0446 42.0596L51.0868 42.1511L51.1281 42.2433L51.1686 42.336L51.2083 42.4293L51.2471 42.5232L51.2851 42.6177L51.3222 42.7127L51.3584 42.8083L51.3937 42.9045L51.4281 43.0012L51.4616 43.0984L51.4942 43.1961L51.5259 43.2944L51.5567 43.3932L51.5865 43.4924L51.6154 43.5922L51.6434 43.6925L51.6704 43.7932L51.6964 43.8944L51.7215 43.996L51.7457 44.0981L51.7688 44.2007L51.791 44.3037L51.8121 44.4071L51.8323 44.5109L51.8515 44.6151L51.8697 44.7197L51.8868 44.8247L51.903 44.9301L51.9181 45.0358L51.9322 45.1419L51.9452 45.2484L51.9572 45.3552L51.9682 45.4623L51.9781 45.5697L51.9869 45.6775L51.9947 45.7855L52.0015 45.8938L52.0071 46.0024L52.0117 46.1113L52.0152 46.2205L52.0176 46.3299L52.0189 46.4395L52.0191 46.5493L52.0182 46.6594L52.0162 46.7697L52.0131 46.8801L52.0089 46.9908L52.0036 47.1016L51.9972 47.2126L51.9896 47.3238L51.9809 47.435L51.9711 47.5465L51.9601 47.658L51.948 47.7696L51.9347 47.8814L51.9203 47.9932L51.9048 48.1051L51.8881 48.2171L51.8702 48.3291L51.8512 48.4411L51.8311 48.5532L51.8097 48.6653L51.7873 48.7774L51.7636 48.8895L51.7388 49.0016L51.7128 49.1136L51.6856 49.2256L51.6572 49.3376L51.6277 49.4494L51.597 49.5613L51.5651 49.673L51.5321 49.7846L51.4978 49.8961L51.4624 50.0075L51.4258 50.1187L51.388 50.2298L51.349 50.3407L51.3088 50.4515L51.2674 50.562L51.2249 50.6724L51.1811 50.7826L51.1362 50.8925L51.09 51.0022L51.0427 51.1117L50.9942 51.2208L50.9445 51.3298L50.8937 51.4384L50.8416 51.5467L50.7883 51.6548L50.7339 51.7625L50.6783 51.8698L50.6215 51.9768L50.5635 52.0835L50.5043 52.1898L50.4439 52.2957L50.3824 52.4012L50.3197 52.5063L50.2558 52.6109L50.1907 52.7152L50.1245 52.819L50.0571 52.9223L49.9885 53.0251L49.9188 53.1275L49.8479 53.2294L49.7759 53.3307L49.7026 53.4315L49.6283 53.5318L49.5528 53.6316L49.4761 53.7308L49.3983 53.8294L49.3194 53.9274L49.2393 54.0248L49.1581 54.1216L49.0757 54.2178L48.9923 54.3133L48.9077 54.4082L48.822 54.5025L48.7352 54.596L48.6473 54.6889L48.5582 54.7811L48.4681 54.8725L48.3769 54.9632L48.2846 55.0532L48.1912 55.1425L48.0968 55.231L48.0012 55.3187L47.9046 55.4056L47.807 55.4917L47.7083 55.5771L47.6085 55.6616L47.5077 55.7452L47.4059 55.828L47.3031 55.91L47.1992 55.9911L47.0943 56.0713L46.9884 56.1506L46.8815 56.229L46.7736 56.3065L46.6647 56.383L46.5548 56.4586L46.444 56.5333L46.3322 56.607L46.2194 56.6797L46.1057 56.7514L45.9911 56.8222L45.8755 56.8919L45.759 56.9606L45.6415 57.0283L45.5232 57.0949L45.404 57.1604L45.2839 57.2249L45.1629 57.2884L45.041 57.3507L44.9183 57.4119L44.7947 57.472L44.6703 57.531L44.545 57.5889L44.4189 57.6456L44.292 57.7012L44.1643 57.7556L44.0358 57.8089L43.9065 57.8609L43.7765 57.9118L43.6456 57.9614L43.5141 58.0099L43.3818 58.0571L43.2487 58.1031L43.1149 58.1478L42.9805 58.1913L42.8453 58.2335L42.7094 58.2745L42.5729 58.3142L42.4357 58.3526L42.2978 58.3896L42.1593 58.4254L42.0202 58.4599L41.8805 58.493L41.7401 58.5248L41.5992 58.5552L41.4577 58.5843L41.3156 58.6121L41.1729 58.6384L41.0298 58.6634L40.886 58.687L40.7418 58.7092L40.5971 58.73L40.4518 58.7494L40.3061 58.7674L40.16 58.784L40.0134 58.7991L39.8663 58.8128L39.7188 58.825L39.5709 58.8358L39.4226 58.8451L39.274 58.853L39.1249 58.8593L38.9755 58.8642L38.8258 58.8677L38.6757 58.8696L38.5253 58.87L38.3747 58.8689L38.2237 58.8663L38.0725 58.8622L37.921 58.8565L37.7693 58.8494L37.6174 58.8407L37.4652 58.8304L37.3129 58.8186L37.1603 58.8053L37.0076 58.7904L36.8548 58.774L36.7018 58.7559L36.5488 58.7364L36.3956 58.7152L36.2423 58.6925L36.0889 58.6682L35.9355 58.6423L35.7821 58.6148L35.6286 58.5857L35.4751 58.555L35.3217 58.5228L35.1682 58.4889L35.0148 58.4534L34.8615 58.4164L34.7082 58.3777L34.555 58.3374L34.4019 58.2955L34.2489 58.252L34.0961 58.2068L33.9434 58.16L33.7909 58.1117L33.6386 58.0617L33.4865 58.01L33.3346 57.9568L33.183 57.9019L33.0316 57.8454L32.8804 57.7872L32.7296 57.7275L32.5791 57.6661L32.4288 57.6031L32.279 57.5384L32.1294 57.4721L31.9803 57.4042L31.8315 57.3347L31.6832 57.2636L31.5352 57.1908L31.3877 57.1164L31.2407 57.0403L31.0942 56.9627L30.9481 56.8834L30.8025 56.8025L30.6575 56.72L30.513 56.6359L30.3691 56.5502L30.2257 56.4628L30.083 56.3739L29.9408 56.2833L29.7993 56.1912L29.6585 56.0974L29.5183 56.0021L29.3788 55.9051L29.2399 55.8066L29.1018 55.7065L28.9645 55.6048L28.8278 55.5016L28.692 55.3967L28.5569 55.2903L28.4227 55.1824L28.2892 55.0729L28.1566 54.9618L28.0249 54.8492L27.894 54.7351L27.764 54.6194L27.6349 54.5022L27.5068 54.3834L27.3795 54.2632L27.2533 54.1414L27.128 54.0182L27.0037 53.8934L26.8804 53.7671L26.7581 53.6394L26.6369 53.5102L26.5167 53.3795L26.3976 53.2474L26.2796 53.1138L26.1627 52.9788L26.0469 52.8423L25.9323 52.7045L25.8188 52.5652L25.7065 52.4244L25.5954 52.2823L25.4855 52.1388L25.3768 51.9939L25.2694 51.8477L25.1632 51.7001L25.0583 51.5511L24.9546 51.4008L24.8523 51.2491L24.7513 51.0962L24.6517 50.9419L24.5533 50.7863L24.4564 50.6295L24.3608 50.4713L24.2667 50.3119L24.1739 50.1512L24.0826 49.9893L23.9927 49.8262L23.9043 49.6618L23.8173 49.4963L23.7319 49.3295L23.6479 49.1616L23.5655 48.9925L23.4846 48.8222L23.4052 48.6508L23.3274 48.4783L23.2512 48.3046L23.1766 48.1299L23.1036 47.954L23.0322 47.7771L22.9624 47.5991L22.8943 47.4201L22.8279 47.24L22.7631 47.059L22.7 46.8769L22.6386 46.6938L22.5789 46.5098L22.521 46.3248L22.4647 46.1388L22.4103 45.952L22.3576 45.7642L22.3067 45.5755L22.2576 45.386L22.2102 45.1956L22.1647 45.0043L22.1211 44.8122L22.0792 44.6194L22.0393 44.4257L22.0011 44.2312L21.9649 44.036L21.9305 43.84L21.8981 43.6433L21.8675 43.4459L21.8389 43.2478L21.8121 43.049L21.7874 42.8496L21.7646 42.6495L21.7437 42.4488L21.7248 42.2475L21.7079 42.0456L21.693 41.8432L21.6801 41.6402L21.6691 41.4367L21.6602 41.2327L21.6534 41.0282L21.6485 40.8232L21.6458 40.6178L21.645 40.412L21.6463 40.2057L21.6497 39.9991L21.6552 39.792L21.6628 39.5847L21.6724 39.377L21.6842 39.169L21.698 38.9607L21.714 38.7521L21.7321 38.5433L21.7523 38.3343L21.7747 38.1251L21.7992 37.9157L21.8258 37.7061L21.8546 37.4963L21.8855 37.2865L21.9186 37.0766L21.9539 36.8665L21.9914 36.6565L22.031 36.4463L22.0728 36.2362L22.1168 36.0261L22.163 35.816L22.2114 35.606L22.262 35.396L22.3148 35.1861L22.3698 34.9764L22.427 34.7668L22.4864 34.5574L22.548 34.3481L22.6119 34.1391L22.6779 33.9302L22.7462 33.7217L22.8167 33.5134L22.8895 33.3054L22.9644 33.0978L23.0416 32.8905L23.121 32.6835L23.2027 32.477L23.2865 32.2708L23.3727 32.0651L23.461 31.8599L23.5515 31.6551L23.6443 31.4509L23.7394 31.2472L23.8366 31.044L23.9361 30.8414L24.0378 30.6395L24.1417 30.4381L24.2478 30.2374L24.3562 30.0374L24.4667 29.838L24.5795 29.6394L24.6945 29.4415L24.8117 29.2444L24.9311 29.0481L25.0527 28.8526L25.1765 28.6579L25.3025 28.4641L25.4307 28.2712L25.561 28.0792L25.6936 27.8881L25.8283 27.6979L25.9652 27.5088L26.1042 27.3206L26.2454 27.1335L26.3888 26.9474L26.5343 26.7624L26.6819 26.5785L26.8317 26.3957L26.9836 26.2141L27.1376 26.0336L27.2937 25.8543L27.4519 25.6762L27.6122 25.4994L27.7746 25.3238L27.9391 25.1495L28.1056 24.9766L28.2742 24.8049L28.4449 24.6346L28.6176 24.4657L28.7923 24.2982L28.969 24.1321L29.1478 23.9674L29.3285 23.8043L29.5112 23.6426L29.6959 23.4824L29.8826 23.3238L30.0712 23.1667L30.2618 23.0112L30.4543 22.8573L30.6487 22.7051L30.845 22.5545L31.0432 22.4056L31.2433 22.2583L31.4453 22.1128L31.6491 21.969L31.8547 21.827L32.0622 21.6868L32.2715 21.5484L32.4826 21.4118L32.6954 21.277L32.9101 21.1441L33.1264 21.0131L33.3445 20.8841L33.5644 20.7569L33.7859 20.6317L34.0091 20.5085L34.234 20.3873L34.4606 20.2681L34.6887 20.1509L34.9185 20.0358L35.1499 19.9228L35.3829 19.8119L35.6175 19.7031L35.8536 19.5964L36.0912 19.4919L36.3303 19.3895L36.571 19.2894L36.8131 19.1915L37.0566 19.0958L37.3016 19.0023L37.548 18.9112L37.7958 18.8223L38.045 18.7357L38.2955 18.6515L38.5474 18.5696L38.8006 18.49L39.055 18.4129L39.3108 18.3381L39.5678 18.2658L39.826 18.1959L40.0854 18.1285L40.346 18.0635L40.6077 18.001L40.8706 17.941L41.1346 17.8835L41.3997 17.8286L41.6659 17.7762L41.9331 17.7263L42.2013 17.6791L42.4706 17.6344L42.7408 17.5924L43.0119 17.553L43.284 17.5162L43.557 17.4821L43.8308 17.4506L44.1055 17.4218L44.3811 17.3958L44.6574 17.3724L44.9345 17.3517L45.2123 17.3338L45.4909 17.3187L45.7701 17.3063L46.0501 17.2966L46.3307 17.2898L46.6118 17.2858L46.8936 17.2845L47.176 17.2861L47.4588 17.2905L47.7422 17.2978L48.0261 17.3079L48.3104 17.3209L48.5951 17.3368L48.8803 17.3555L49.1658 17.3771L49.4516 17.4017L49.7378 17.4291L50.0243 17.4595L50.311 17.4928L50.5979 17.529L50.885 17.5682L51.1723 17.6104L51.4597 17.6555L51.7473 17.7035L52.0349 17.7546L52.3225 17.8086L52.6102 17.8656L52.8979 17.9256L53.1855 17.9886L53.4731 18.0546L53.7606 18.1236L54.0479 18.1957L54.3351 18.2707L54.6221 18.3488L54.9088 18.4299L55.1954 18.514L55.4816 18.6012L55.7675 18.6914L56.0531 18.7847L56.3382 18.881L56.623 18.9803L56.9074 19.0827L57.1912 19.1881L57.4746 19.2966L57.7574 19.4081L58.0397 19.5227L58.3214 19.6404L58.6024 19.7611L58.8828 19.8848L59.1625 20.0116L59.4415 20.1415L59.7197 20.2743L59.9971 20.4103L60.2737 20.5493L60.5494 20.6913L60.8243 20.8364L61.0982 20.9845L61.3712 21.1356L61.6432 21.2898L61.9142 21.447L62.1842 21.6072L62.4531 21.7704L62.7208 21.9367L62.9875 22.1059L63.2529 22.2782L63.5171 22.4535L63.7801 22.6317L64.0419 22.8129L64.3023 22.9971L64.5614 23.1843L64.8191 23.3744L65.0754 23.5675L65.3303 23.7636L65.5837 23.9625L65.8356 24.1644L66.086 24.3692L66.3348 24.577L66.582 24.7876L66.8276 25.0011L67.0715 25.2175L67.3138 25.4367L67.5543 25.6588L67.793 25.8838L68.03 26.1116L68.2652 26.3422L68.4985 26.5756L68.7299 26.8118L68.9594 27.0508L69.1869 27.2925L69.4125 27.537L69.6361 27.7843L69.8576 28.0342L70.0771 28.2869L70.2944 28.5423L70.5096 28.8003L70.7227 29.061L70.9335 29.3243L71.1422 29.5903L71.3485 29.8589L71.5526 30.13L71.7544 30.4038L71.9538 30.6801L72.1508 30.9589L72.3455 31.2403L72.5377 31.5241L72.7274 31.8105L72.9146 32.0992L73.0993 32.3905L73.2814 32.6841L73.461 32.9802L73.6379 33.2786L73.8122 33.5794L73.9838 33.8825L74.1527 34.1879L74.3189 34.4956L74.4823 34.8056L74.6429 35.1179L74.8007 35.4323L74.9557 35.7489L75.1078 36.0677L75.257 36.3887L75.4033 36.7118L75.5467 37.0369L75.687 37.3642L75.8244 37.6935L75.9587 38.0248L76.0899 38.3581L76.2181 38.6934L76.3432 39.0306L76.4651 39.3697L76.5839 39.7107L76.6995 40.0535L76.8119 40.3982L76.921 40.7447L77.0269 41.0929L77.1295 41.4429L77.2288 41.7946L77.3247 42.148L77.4174 42.5031L77.5066 42.8597L77.5924 43.218L77.6748 43.5778L77.7538 43.9391L77.8293 44.3019L77.9013 44.6662L77.9698 45.032L78.0348 45.3991L78.0962 45.7676L78.1541 46.1374L78.2083 46.5086L78.259 46.881L78.306 47.2546L78.3493 47.6294L78.389 48.0054L78.425 48.3826L78.4573 48.7608L78.4859 49.1401L78.5107 49.5204L78.5318 49.9017L78.549 50.284L78.5625 50.6672L78.5722 51.0512L78.578 51.4361L78.58 51.8219L78.5782 52.2084L78.5724 52.5956L78.5628 52.9835L78.5492 53.3721L78.5318 53.7613L78.5104 54.1511L78.485 54.5415L78.4557 54.9323L78.4224 55.3236L78.3852 55.7154L78.3439 56.1075L78.2987 56.5L78.2494 56.8928L78.196 57.2859L78.1387 57.6792L78.0772 58.0728L78.0118 58.4664L77.9422 58.8602L77.8686 59.254L77.7908 59.6479L77.709 60.0418L77.6231 60.4356L77.533 60.8293L77.4389 61.2229L77.3406 61.6163L77.2382 62.0095L77.1316 62.4024L77.0209 62.7951L76.906 63.1874L76.787 63.5793L76.6638 63.9707L76.5365 64.3618" stroke="url(#paint6_linear_1729_4893)" stroke-width="0.25"/>
<g filter="url(#filter2_d_1729_4893)">
<circle cx="43.3508" cy="45.1242" r="1.95624" fill="#4FEEA2"/>
<circle cx="43.3508" cy="45.1242" r="1.65624" stroke="#4FEEA2" stroke-width="0.6"/>
</g>
<circle cx="40" cy="18" r="1" fill="white"/>
<circle cx="28" cy="55" r="1" fill="#53FEA9"/>
<circle cx="47" cy="76" r="1" fill="#A3A0AC"/>
<circle cx="70" cy="28" r="1" fill="#767184"/>
<defs>
<filter id="filter0_d_1729_4893" x="4.03516" y="0.5" width="78.6328" height="69.4375" filterUnits="userSpaceOnUse" color-interpolation-filters="sRGB">
<feFlood flood-opacity="0" result="BackgroundImageFix"/>
<feColorMatrix in="SourceAlpha" type="matrix" values="0 0 0 0 0 0 0 0 0 0 0 0 0 0 0 0 0 0 127 0" result="hardAlpha"/>
<feOffset/>
<feGaussianBlur stdDeviation="2.5"/>
<feComposite in2="hardAlpha" operator="out"/>
<feColorMatrix type="matrix" values="0 0 0 0 0 0 0 0 0 1 0 0 0 0 0.7 0 0 0 1 0"/>
<feBlend mode="normal" in2="BackgroundImageFix" result="effect1_dropShadow_1729_4893"/>
<feBlend mode="normal" in="SourceGraphic" in2="effect1_dropShadow_1729_4893" result="shape"/>
</filter>
<filter id="filter1_d_1729_4893" x="14.1055" y="22.75" width="58.4922" height="54.1367" filterUnits="userSpaceOnUse" color-interpolation-filters="sRGB">
<feFlood flood-opacity="0" result="BackgroundImageFix"/>
<feColorMatrix in="SourceAlpha" type="matrix" values="0 0 0 0 0 0 0 0 0 0 0 0 0 0 0 0 0 0 127 0" result="hardAlpha"/>
<feOffset/>
<feGaussianBlur stdDeviation="6.5"/>
<feComposite in2="hardAlpha" operator="out"/>
<feColorMatrix type="matrix" values="0 0 0 0 0 0 0 0 0 1 0 0 0 0 0.7 0 0 0 0.25 0"/>
<feBlend mode="normal" in2="BackgroundImageFix" result="effect1_dropShadow_1729_4893"/>
<feBlend mode="normal" in="SourceGraphic" in2="effect1_dropShadow_1729_4893" result="shape"/>
</filter>
<filter id="filter2_d_1729_4893" x="38.3945" y="40.168" width="9.91406" height="9.91406" filterUnits="userSpaceOnUse" color-interpolation-filters="sRGB">
<feFlood flood-opacity="0" result="BackgroundImageFix"/>
<feColorMatrix in="SourceAlpha" type="matrix" values="0 0 0 0 0 0 0 0 0 0 0 0 0 0 0 0 0 0 127 0" result="hardAlpha"/>
<feOffset/>
<feGaussianBlur stdDeviation="1.5"/>
<feComposite in2="hardAlpha" operator="out"/>
<feColorMatrix type="matrix" values="0 0 0 0 0.32549 0 0 0 0 0.992157 0 0 0 0 0.662745 0 0 0 1 0"/>
<feBlend mode="normal" in2="BackgroundImageFix" result="effect1_dropShadow_1729_4893"/>
<feBlend mode="normal" in="SourceGraphic" in2="effect1_dropShadow_1729_4893" result="shape"/>
</filter>
<linearGradient id="paint0_linear_1729_4893" x1="43.3513" y1="6" x2="43.3513" y2="76.4245" gradientUnits="userSpaceOnUse">
<stop stop-color="#4D23C7"/>
<stop offset="0.795144" stop-color="#4D23C7" stop-opacity="0"/>
</linearGradient>
<linearGradient id="paint1_linear_1729_4893" x1="43.3513" y1="-22.0394" x2="43.3513" y2="84.2495" gradientUnits="userSpaceOnUse">
<stop offset="0.170133" stop-color="#53FDA9" stop-opacity="0"/>
<stop offset="1" stop-color="#53FDA9"/>
</linearGradient>
<linearGradient id="paint2_linear_1729_4893" x1="43.3512" y1="63.3867" x2="43.3512" y2="26.8703" gradientUnits="userSpaceOnUse">
<stop stop-color="#100533"/>
<stop offset="1" stop-color="#00FF81" stop-opacity="0"/>
</linearGradient>
<linearGradient id="paint3_linear_1729_4893" x1="43.6033" y1="6.00376" x2="43.6033" y2="83.6012" gradientUnits="userSpaceOnUse">
<stop offset="0.170133" stop-color="#53FDA9" stop-opacity="0"/>
<stop offset="1" stop-color="#53FDA9"/>
</linearGradient>
<linearGradient id="paint4_linear_1729_4893" x1="41.6471" y1="9.91045" x2="43.6033" y2="45.1227" gradientUnits="userSpaceOnUse">
<stop stop-color="white" stop-opacity="0"/>
<stop offset="1" stop-color="white"/>
</linearGradient>
<linearGradient id="paint5_linear_1729_4893" x1="16.2123" y1="69.2544" x2="43.5996" y2="44.4754" gradientUnits="userSpaceOnUse">
<stop stop-color="white" stop-opacity="0"/>
<stop offset="1" stop-color="white"/>
</linearGradient>
<linearGradient id="paint6_linear_1729_4893" x1="78.1598" y1="58.1648" x2="43.5996" y2="44.4712" gradientUnits="userSpaceOnUse">
<stop stop-color="white" stop-opacity="0"/>
<stop offset="1" stop-color="white"/>
</linearGradient>
</defs>
</svg>
