<svg width="112" height="113" viewBox="0 0 112 113" fill="none" xmlns="http://www.w3.org/2000/svg">
<g filter="url(#filter0_d_1729_5068)">
<path d="M72.6543 60.2884C72.5726 60.3592 72.466 60.402 72.3494 60.4021C72.0917 60.4027 71.882 60.1939 71.8816 59.936L71.8498 42.0066L56.5403 33.2039L41.2622 42.0612L41.2942 59.9905C41.2949 60.2487 41.086 60.4579 40.8277 60.4583C40.57 60.4588 40.3602 60.2501 40.3599 59.9922L40.3274 41.7931C40.3271 41.6262 40.4171 41.4723 40.5602 41.3881L56.3051 32.2606C56.4496 32.1771 56.6277 32.1767 56.7722 32.2597L72.5491 41.3311C72.6936 41.4141 72.7831 41.5683 72.7834 41.7352L72.8159 59.9343C72.8162 60.0758 72.7534 60.2026 72.6543 60.2884Z" fill="url(#paint0_linear_1729_5068)" shape-rendering="crispEdges"/>
</g>
<g filter="url(#filter1_d_1729_5068)">
<path d="M68.9106 69.3054C68.8289 69.3762 68.7223 69.419 68.6057 69.4191C68.348 69.4197 68.1382 69.2109 68.1379 68.953L68.1137 55.3641L56.567 48.725L45.0444 55.4056L45.0684 68.994C45.069 69.2523 44.8597 69.4613 44.6019 69.4619C44.3442 69.4624 44.1346 69.2535 44.1341 68.9958L44.1096 55.1375C44.1094 54.9705 44.1996 54.8164 44.3424 54.7326L56.3318 47.7816C56.4764 47.6981 56.6544 47.6978 56.799 47.7808L68.813 54.6886C68.9576 54.7716 69.0471 54.9258 69.0474 55.0927L69.0722 68.9513C69.0725 69.0928 69.0097 69.2196 68.9106 69.3054Z" fill="url(#paint1_linear_1729_5068)" shape-rendering="crispEdges"/>
</g>
<g filter="url(#filter2_d_1729_5068)">
<path d="M56.9314 82.558C56.8472 82.6309 56.7392 82.6719 56.6263 82.6719C56.4949 82.6723 56.3689 82.6167 56.2805 82.5195L44.2548 69.3142C44.2189 69.2748 44.1898 69.2293 44.1692 69.1802L40.3942 60.175C40.2951 59.9374 40.4063 59.6631 40.6445 59.5637C40.8824 59.4639 41.1558 59.5759 41.2557 59.8139L44.9996 68.7448L56.6243 81.5098L68.2033 68.7034L71.9153 59.7592C72.0148 59.5209 72.2875 59.4079 72.5258 59.5069C72.7641 59.6058 72.877 59.8791 72.7781 60.1174L69.0352 69.136C69.0147 69.1852 68.9859 69.2306 68.9501 69.2701L56.9719 82.5181C56.9591 82.5322 56.9457 82.5456 56.9314 82.558Z" fill="url(#paint2_linear_1729_5068)" shape-rendering="crispEdges"/>
</g>
<g filter="url(#filter3_d_1729_5068)">
<path d="M56.931 82.5578C56.8731 82.608 56.8022 82.6446 56.7229 82.6614C56.5073 82.7075 56.2884 82.596 56.1989 82.3948L44.1488 55.3313C44.1397 55.3107 44.132 55.2896 44.126 55.2683L40.343 41.9223C40.2724 41.6739 40.4172 41.4164 40.6649 41.3454C40.9131 41.2753 41.1715 41.4197 41.2418 41.6677L45.0157 54.9818L56.1546 79.9986L56.0545 23.9972C56.0541 23.7393 56.2632 23.5299 56.5209 23.5293C56.7787 23.5288 56.9882 23.7377 56.9888 23.9955L57.0926 82.2037C57.0927 82.3436 57.031 82.4713 56.931 82.5578Z" fill="url(#paint3_linear_1729_5068)" shape-rendering="crispEdges"/>
</g>
<g filter="url(#filter4_d_1729_5068)">
<path d="M56.9314 82.5576C56.7992 82.6721 56.608 82.7074 56.4371 82.632C56.2011 82.5281 56.094 82.2522 56.198 82.0161L68.1382 54.9403L71.7957 41.859L56.5228 24.7001L41.1424 42.1045C40.9731 42.2957 40.6767 42.3164 40.483 42.145C40.29 41.9743 40.2716 41.6789 40.4425 41.4857L56.1717 23.687C56.2599 23.5878 56.3871 23.5295 56.521 23.5294C56.6544 23.5291 56.7817 23.586 56.8706 23.6858L72.663 41.4284C72.7688 41.5474 72.8069 41.7116 72.7639 41.8647L69.0287 55.2238C69.0228 55.2452 69.0153 55.2662 69.0064 55.2866L57.053 82.3932C57.0242 82.4585 56.9821 82.5137 56.9314 82.5576Z" fill="url(#paint4_linear_1729_5068)" shape-rendering="crispEdges"/>
</g>
<g filter="url(#filter5_d_1729_5068)">
<circle cx="56.3691" cy="56.537" r="42.4472" stroke="url(#paint5_linear_1729_5068)" stroke-width="0.25" stroke-linecap="round" stroke-linejoin="round" shape-rendering="crispEdges"/>
</g>
<path d="M44.5234 74.0408C46.3278 91.5448 50.7578 103.918 55.9366 103.918C62.7177 103.918 68.2149 82.7039 68.2149 56.5351C68.2149 30.3662 62.7177 9.15214 55.9366 9.15214C51.7878 9.15214 48.1196 17.0928 45.8969 29.2507" stroke="url(#paint6_linear_1729_5068)" stroke-width="0.25" stroke-dasharray="0.5 0.5"/>
<g filter="url(#filter6_d_1729_5068)">
<ellipse rx="26.0758" ry="42.1585" transform="matrix(0.707623 -0.70659 0.707623 0.70659 56.2803 56.5553)" stroke="url(#paint7_linear_1729_5068)" stroke-width="0.5" stroke-linecap="round" stroke-dasharray="1 1" shape-rendering="crispEdges"/>
</g>
<path d="M75.4367 74.2682C75.3191 74.3882 75.2009 74.508 75.0821 74.6275L74.9933 74.5395C74.934 74.5991 74.8745 74.6587 74.815 74.7182C74.7554 74.7777 74.6957 74.837 74.636 74.8962L74.7241 74.9849C74.6045 75.1035 74.4845 75.2215 74.3643 75.339L74.2769 75.2497C74.1569 75.3669 74.0367 75.4835 73.9162 75.5995L74.003 75.6895C73.8823 75.8057 73.7613 75.9213 73.6401 76.0363L73.5539 75.9458C73.4327 76.0609 73.3112 76.1754 73.1894 76.2892L73.2749 76.3804C73.1517 76.4956 73.0283 76.6102 72.9046 76.7242L72.8197 76.6324C72.6963 76.7462 72.5726 76.8593 72.4486 76.9719L72.5328 77.0643C72.4086 77.177 72.2842 77.2891 72.1596 77.4006L72.0761 77.3076C71.9518 77.4189 71.8271 77.5296 71.7023 77.6396L71.7851 77.7333C71.6585 77.8448 71.5317 77.9557 71.4047 78.066L71.3227 77.9717C71.1958 78.0819 71.0687 78.1914 70.9414 78.3003L71.0227 78.3952C70.8952 78.5043 70.7674 78.6127 70.6394 78.7205L70.5588 78.625C70.4311 78.7326 70.3031 78.8396 70.175 78.9459L70.2549 79.0419C70.1253 79.1495 69.9955 79.2563 69.8655 79.3625L69.7863 79.2659C69.6561 79.3722 69.5256 79.478 69.395 79.583L69.4735 79.6803C69.3426 79.7855 69.2116 79.8901 69.0803 79.9941L69.0026 79.8962C68.8716 79.9999 68.7404 80.103 68.6091 80.2053L68.686 80.3038C68.5534 80.4072 68.4206 80.5099 68.2876 80.6119L68.2114 80.5129C68.0779 80.6153 67.9442 80.717 67.8103 80.8181L67.8858 80.9177C67.7516 81.0189 67.6174 81.1195 67.4829 81.2193L67.4083 81.1191C67.2741 81.2187 67.1397 81.3177 67.0053 81.416L67.0791 81.5168C66.9435 81.6159 66.8076 81.7143 66.6717 81.812L66.5986 81.7106C66.4619 81.8089 66.325 81.9064 66.188 82.0032L66.2602 82.1052C66.123 82.2022 65.9855 82.2985 65.848 82.3941L65.7765 82.2915C65.6393 82.3869 65.5018 82.4815 65.3643 82.5755L65.4349 82.6786C65.2962 82.7733 65.1574 82.8673 65.0184 82.9606L64.9486 82.8569C64.8088 82.9508 64.6688 83.0439 64.5287 83.1362L64.5976 83.2405C64.4573 83.333 64.3168 83.4248 64.1762 83.5159L64.1082 83.4111C63.9679 83.5019 63.8275 83.592 63.687 83.6814L63.7542 83.7867C63.6124 83.8769 63.4705 83.9663 63.3285 84.055L63.2622 83.9491C63.1193 84.0383 62.9763 84.1267 62.8333 84.2144L62.8987 84.3208C62.7553 84.4087 62.6119 84.4957 62.4684 84.582L62.4039 84.475C62.2607 84.5611 62.1174 84.6464 61.9741 84.7309L62.0377 84.8385C61.8927 84.9239 61.7477 85.0086 61.6027 85.0924L61.54 84.9843C61.3942 85.0686 61.2484 85.1521 61.1024 85.2347L61.1642 85.3434C61.0179 85.4262 60.8717 85.5083 60.7253 85.5895L60.6646 85.4803C60.5186 85.5613 60.3725 85.6415 60.2264 85.7209L60.2862 85.8306C60.1381 85.9111 59.99 85.9908 59.8418 86.0696L59.783 85.9594C59.6344 86.0385 59.4858 86.1167 59.3371 86.194L59.3949 86.3048C59.2459 86.3823 59.0969 86.459 58.9479 86.5349L58.8911 86.4236C58.7425 86.4992 58.5938 86.574 58.4451 86.648L58.5009 86.7598C58.3495 86.8351 58.1981 86.9095 58.0468 86.983L57.992 86.8707C57.8408 86.9442 57.6895 87.0168 57.5382 87.0885L57.5919 87.2013C57.4403 87.2732 57.2887 87.3442 57.1372 87.4143L57.0846 87.301C56.9329 87.3711 56.7813 87.4404 56.6297 87.5088L56.6812 87.6226C56.5269 87.6921 56.3727 87.7608 56.2186 87.8285L56.1682 87.7141C56.0144 87.7817 55.8607 87.8483 55.7071 87.9139L55.7563 88.0288C55.6022 88.0946 55.4483 88.1595 55.2944 88.2235L55.2463 88.1082C55.0913 88.1726 54.9363 88.2361 54.7814 88.2986L54.8283 88.4144C54.6717 88.4777 54.5151 88.5399 54.3586 88.6012L54.3129 88.485C54.1568 88.5461 54.0008 88.6063 53.845 88.6655L53.8894 88.7822C53.7332 88.8416 53.577 88.8999 53.4209 88.9573L53.3777 88.8401C53.2192 88.8984 53.0608 88.9557 52.9026 89.0119L52.9446 89.1296C52.7857 89.1861 52.627 89.2415 52.4684 89.296L52.4277 89.1778C52.2696 89.2321 52.1116 89.2854 51.9538 89.3376L51.9931 89.4562C51.8335 89.509 51.6741 89.5608 51.5148 89.6115L51.4768 89.4925C51.3161 89.5436 51.1556 89.5938 50.9952 89.6428L51.0319 89.7622C50.8711 89.8114 50.7105 89.8595 50.5501 89.9065L50.5148 89.7866C50.3549 89.8335 50.1952 89.8793 50.0357 89.924L50.0695 90.0443C49.9063 90.09 49.7433 90.1347 49.5805 90.1782L49.5482 90.0575C49.3858 90.1009 49.2237 90.1432 49.0618 90.1843L49.0926 90.3054C48.9302 90.3466 48.7681 90.3868 48.6062 90.4258L48.5769 90.3043C48.4135 90.3437 48.2504 90.3819 48.0875 90.4189L48.1153 90.5407C47.9505 90.5782 47.786 90.6145 47.6218 90.6496L47.5956 90.5274C47.4319 90.5624 47.2686 90.5962 47.1055 90.6288L47.1301 90.7512C46.9655 90.7841 46.8012 90.8158 46.6373 90.8463L46.6144 90.7235C46.4484 90.7543 46.2828 90.7839 46.1176 90.8123L46.1388 90.9354C45.973 90.9638 45.8075 90.991 45.6424 91.0169L45.623 90.8935C45.4584 90.9194 45.2941 90.944 45.1302 90.9673L45.1479 91.091C44.9799 91.1149 44.8124 91.1375 44.6452 91.1588L44.6294 91.0348C44.4629 91.056 44.2968 91.0759 44.1312 91.0945L44.1451 91.2186C43.9788 91.2372 43.813 91.2545 43.6476 91.2704L43.6356 91.1461C43.4676 91.1623 43.3001 91.1771 43.1331 91.1906L43.1432 91.3151C42.9751 91.3286 42.8074 91.3407 42.6403 91.3515L42.6323 91.2268C42.4659 91.2375 42.2999 91.2468 42.1346 91.2547L42.1405 91.3794C41.9716 91.3875 41.8031 91.3941 41.6353 91.3992L41.6314 91.2744C41.4635 91.2795 41.2961 91.2832 41.1293 91.2854L41.131 91.4103C40.9635 91.4126 40.7965 91.4133 40.6302 91.4126L40.6308 91.2877C40.4625 91.2869 40.2948 91.2847 40.1277 91.2809L40.1249 91.4057C39.9562 91.4019 39.7881 91.3965 39.6208 91.3896L39.6259 91.2648C39.4594 91.2579 39.2934 91.2494 39.1282 91.2394L39.1206 91.3641C38.9518 91.3538 38.7837 91.342 38.6164 91.3285L38.6264 91.204C38.4591 91.1906 38.2926 91.1755 38.1269 91.1588L38.1143 91.283C37.9477 91.2662 37.7818 91.2478 37.6168 91.2277L37.6319 91.1037C37.4648 91.0834 37.2984 91.0614 37.1329 91.0377L37.1151 91.1613C36.9484 91.1374 36.7825 91.1118 36.6174 91.0845L36.6378 90.9612C36.4736 90.934 36.3101 90.9051 36.1476 90.8745L36.1244 90.9972C35.958 90.9658 35.7925 90.9327 35.6279 90.8977L35.654 90.7755C35.4904 90.7408 35.3277 90.7042 35.166 90.6659L35.1371 90.7874C34.9738 90.7487 34.8114 90.7082 34.65 90.6658L34.6818 90.545C34.5194 90.5024 34.358 90.4579 34.1977 90.4116L34.1629 90.5315C34.0016 90.4849 33.8413 90.4364 33.682 90.386L33.7198 90.2669C33.5604 90.2165 33.4021 90.1642 33.245 90.1099L33.2041 90.228C33.0448 90.173 32.8866 90.1161 32.7296 90.0573L32.7735 89.9403C32.6175 89.8819 32.4627 89.8215 32.309 89.7592L32.2619 89.8749C32.1058 89.8116 31.9509 89.7463 31.7973 89.679L31.8475 89.5646C31.6945 89.4976 31.5428 89.4286 31.3923 89.3577L31.3389 89.4706C31.1872 89.3991 31.0368 89.3256 30.8876 89.25L30.9442 89.1386C30.7952 89.0631 30.6474 88.9856 30.501 88.906L30.4412 89.0157C30.2937 88.9356 30.1475 88.8534 30.0027 88.7691L30.0657 88.6612C29.9217 88.5774 29.7791 88.4916 29.6378 88.4038L29.5717 88.5098C29.4291 88.4211 29.288 88.3304 29.1482 88.2375L29.2175 88.1335C29.0788 88.0414 28.9415 87.9472 28.8057 87.8509L28.7333 87.9528C28.5965 87.8559 28.4613 87.7569 28.3274 87.6558L28.4029 87.5562C28.2701 87.4559 28.1388 87.3536 28.009 87.2491L27.9305 87.3464C27.7999 87.2413 27.6707 87.1341 27.543 87.0248L27.6244 86.93C27.4984 86.8221 27.3739 86.7121 27.2509 86.6001L27.1666 86.6924C27.0426 86.5795 26.9202 86.4646 26.7994 86.3475L26.8864 86.2579C26.8265 86.1998 26.7669 86.1412 26.7077 86.0821C26.6485 86.023 26.5898 85.9635 26.5316 85.9036L26.4418 85.9905C26.3246 85.8698 26.2095 85.7476 26.0965 85.6238L26.1889 85.5397C26.0767 85.4168 25.9666 85.2925 25.8586 85.1667L25.7636 85.248C25.6541 85.1205 25.5468 84.9915 25.4415 84.861L25.5389 84.7826C25.4343 84.653 25.3318 84.5219 25.2314 84.3893L25.1316 84.4647C25.0304 84.3311 24.9313 84.196 24.8343 84.0595L24.9363 83.9872C24.8398 83.8515 24.7455 83.7144 24.6532 83.5759L24.5491 83.6451C24.4561 83.5056 24.3652 83.3646 24.2764 83.2223L24.3826 83.1562C24.2946 83.0152 24.2087 82.8728 24.1248 82.729L24.0167 82.7919C23.9323 82.6473 23.85 82.5013 23.7697 82.354L23.8796 82.2943C23.7999 82.1481 23.7223 82.0006 23.6467 81.8517L23.5351 81.9082C23.4594 81.7593 23.3858 81.6091 23.3142 81.4576L23.4273 81.4043C23.3562 81.254 23.2871 81.1025 23.2201 80.9498L23.1055 80.9999C23.0381 80.8465 22.9727 80.6918 22.9093 80.5359L23.0252 80.4889C22.9628 80.3355 22.9023 80.1809 22.8438 80.0251L22.7267 80.069C22.6677 79.9122 22.6107 79.7542 22.5557 79.5951L22.6739 79.5543C22.6196 79.3974 22.5672 79.2393 22.5167 79.0802L22.3975 79.1179C22.347 78.9589 22.2984 78.7989 22.2517 78.6378L22.3719 78.603C22.3254 78.4429 22.2809 78.2818 22.2382 78.1196L22.1172 78.1513C22.0748 77.9902 22.0342 77.8281 21.9954 77.665L22.1171 77.6361C22.0787 77.4746 22.0421 77.3122 22.0073 77.1489L21.885 77.1749C21.85 77.0106 21.8168 76.8453 21.7854 76.6791L21.9083 76.656C21.8776 76.4937 21.8486 76.3305 21.8214 76.1664L21.698 76.1869C21.6706 76.022 21.6449 75.8563 21.621 75.6898L21.7448 75.6721C21.7211 75.5068 21.699 75.3407 21.6786 75.1738L21.5545 75.1889C21.5344 75.0241 21.5159 74.8585 21.4991 74.6921L21.6235 74.6796C21.6068 74.5141 21.5917 74.3478 21.5782 74.1808L21.4535 74.1908C21.4401 74.0237 21.4282 73.8558 21.4179 73.6873L21.5428 73.6797C21.5328 73.5147 21.5243 73.349 21.5174 73.1827L21.3924 73.1879C21.3855 73.0207 21.3801 72.8529 21.3762 72.6845L21.5013 72.6816C21.4975 72.5148 21.4952 72.3474 21.4945 72.1793L21.3694 72.1799C21.3686 72.0138 21.3694 71.8471 21.3716 71.6799L21.4967 71.6815C21.4989 71.515 21.5026 71.3478 21.5077 71.1801L21.3827 71.1763C21.3879 71.0087 21.3945 70.8405 21.4025 70.6718L21.5275 70.6777C21.5354 70.5126 21.5447 70.3469 21.5554 70.1807L21.4306 70.1727C21.4413 70.0058 21.4535 69.8385 21.467 69.6706L21.5917 69.6806C21.6051 69.5139 21.62 69.3466 21.6362 69.1789L21.5117 69.1669C21.5277 69.0018 21.545 68.8362 21.5636 68.6701L21.6879 68.684C21.7065 68.5186 21.7264 68.3528 21.7476 68.1865L21.6235 68.1707C21.6448 68.0038 21.6675 67.8365 21.6914 67.6688L21.8153 67.6864C21.8386 67.5228 21.8633 67.3588 21.8891 67.1944L21.7656 67.175C21.7915 67.0101 21.8188 66.8449 21.8472 66.6794L21.9705 66.7005C21.9989 66.5355 22.0285 66.3702 22.0594 66.2044L21.9365 66.1816C21.967 66.0179 21.9987 65.8539 22.0317 65.6895L22.1543 65.714C22.1869 65.5512 22.2208 65.3881 22.2558 65.2247L22.1335 65.1985C22.1686 65.0346 22.205 64.8703 22.2425 64.7057L22.3645 64.7335C22.4015 64.5709 22.4398 64.408 22.4792 64.2448L22.3576 64.2155C22.3967 64.0539 22.4369 63.892 22.4782 63.7298L22.5994 63.7606C22.6406 63.599 22.6829 63.4371 22.7264 63.2749L22.6056 63.2426C22.6491 63.0801 22.6938 62.9174 22.7396 62.7544L22.8601 62.7882C22.9049 62.6289 22.9507 62.4694 22.9977 62.3097L22.8776 62.2745C22.9247 62.1144 22.9729 61.954 23.0221 61.7934L23.1417 61.83C23.1908 61.6699 23.241 61.5096 23.2923 61.3492L23.1731 61.3112C23.2239 61.1522 23.2757 60.993 23.3286 60.8336L23.4474 60.8729C23.4997 60.7153 23.553 60.5575 23.6074 60.3996L23.4891 60.359C23.5436 60.2006 23.5991 60.0421 23.6557 59.8835L23.7735 59.9254C23.8298 59.7674 23.8872 59.6093 23.9456 59.451L23.8282 59.4078C23.8857 59.252 23.9441 59.0961 24.0036 58.94L24.1205 58.9844C24.1798 58.8288 24.24 58.673 24.3012 58.5172L24.1848 58.4716C24.2462 58.3153 24.3086 58.159 24.3719 58.0025L24.4879 58.0493C24.5505 57.8947 24.6141 57.74 24.6786 57.5852L24.5631 57.5372C24.6272 57.3835 24.6922 57.2297 24.7581 57.0759L24.8731 57.1251C24.9389 56.9716 25.0056 56.8181 25.0732 56.6646L24.9587 56.6143C25.0265 56.4604 25.0952 56.3064 25.1649 56.1524L25.2789 56.2038C25.3473 56.0524 25.4167 55.901 25.487 55.7495L25.3735 55.697C25.4437 55.5457 25.5148 55.3943 25.5867 55.243L25.6997 55.2965C25.7715 55.1455 25.8443 54.9945 25.9179 54.8434L25.8054 54.7888C25.879 54.6376 25.9535 54.4865 26.0289 54.3353L26.1409 54.391C26.215 54.2426 26.2899 54.0941 26.3657 53.9456L26.2542 53.8889C26.3301 53.7401 26.4069 53.5914 26.4846 53.4426L26.5955 53.5003C26.673 53.3519 26.7513 53.2035 26.8305 53.0551L26.7201 52.9963C26.799 52.8484 26.8788 52.7005 26.9594 52.5526L27.0693 52.6123C27.1488 52.4664 27.2292 52.3206 27.3103 52.1748L27.201 52.1141C27.2823 51.968 27.3645 51.8219 27.4474 51.6759L27.5562 51.7376C27.639 51.5919 27.7226 51.4462 27.807 51.3006L27.6987 51.238C27.7827 51.0932 27.8675 50.9484 27.9531 50.8037L28.0608 50.8672C28.1454 50.7241 28.2309 50.581 28.3171 50.438L28.2099 50.3736C28.2963 50.2303 28.3835 50.0871 28.4715 49.9439L28.5781 50.0092C28.6659 49.8664 28.7544 49.7237 28.8438 49.581L28.7377 49.5148C28.8265 49.373 28.916 49.2313 29.0063 49.0897L29.1119 49.1568C29.2013 49.0165 29.2916 48.8763 29.3826 48.7362L29.2776 48.6683C29.3688 48.5279 29.4607 48.3876 29.5534 48.2475L29.6578 48.3163C29.7503 48.1764 29.8435 48.0366 29.9375 47.897L29.8337 47.8273C29.9271 47.6886 30.0212 47.5499 30.1161 47.4114L30.2194 47.4819C30.3134 47.3446 30.4082 47.2074 30.5037 47.0703L30.4011 46.9989C30.4968 46.8616 30.5932 46.7244 30.6903 46.5873L30.7924 46.6594C30.8894 46.5226 30.9871 46.386 31.0855 46.2494L30.9839 46.1765C31.0818 46.0407 31.1804 45.9051 31.2796 45.7696L31.3806 45.8434C31.479 45.7091 31.5781 45.5749 31.6779 45.4409L31.5775 45.3664C31.6775 45.2322 31.7782 45.0981 31.8796 44.9641L31.9794 45.0395C32.0806 44.9058 32.1824 44.7723 32.285 44.639L32.1858 44.5629C32.288 44.4301 32.3908 44.2975 32.4944 44.165L32.593 44.2419C32.6955 44.1107 32.7987 43.9798 32.9026 43.8489L32.8046 43.7713C32.9086 43.6403 33.0134 43.5094 33.1188 43.3787L33.2162 43.4571C33.3214 43.3267 33.4273 43.1964 33.5338 43.0664L33.437 42.9873C33.5434 42.8575 33.6504 42.7279 33.7581 42.5984L33.8543 42.6783C33.9607 42.5503 34.0678 42.4226 34.1756 42.295L34.08 42.2145C34.1879 42.0867 34.2965 41.9591 34.4058 41.8318L34.5008 41.913C34.6098 41.7859 34.7195 41.659 34.8298 41.5323L34.7355 41.4503C34.8459 41.3235 34.957 41.1969 35.0687 41.0705L35.1625 41.1532C35.2727 41.0285 35.3835 40.9041 35.4949 40.7799L35.4018 40.6965C35.5134 40.5721 35.6257 40.4479 35.7386 40.3239L35.8312 40.4079C35.9439 40.2842 36.0572 40.1607 36.1711 40.0374L36.0792 39.9527C36.1933 39.8292 36.3081 39.7059 36.4235 39.5829L36.5148 39.6683C36.6288 39.5467 36.7435 39.4253 36.8587 39.3042L36.7681 39.2182C36.8833 39.0972 36.9991 38.9764 37.1155 38.8558L37.2055 38.9426C37.3217 38.8222 37.4385 38.7022 37.5559 38.5824L37.4665 38.495C37.5841 38.375 37.7023 38.2552 37.8211 38.1358L37.9098 38.2238C37.9691 38.1641 38.0286 38.1046 38.0881 38.045C38.1477 37.9856 38.2074 37.9262 38.2671 37.867L38.179 37.7784C38.2986 37.6597 38.4186 37.5417 38.5388 37.4243L38.6262 37.5136C38.7462 37.3963 38.8664 37.2797 38.9869 37.1637L38.9001 37.0738C39.0208 36.9576 39.1418 36.8419 39.263 36.7269L39.3492 36.8175C39.4704 36.7024 39.5919 36.5879 39.7137 36.474L39.6282 36.3829C39.7514 36.2676 39.8748 36.153 39.9985 36.0391L40.0834 36.1308C40.2068 36.0171 40.3305 35.9039 40.4545 35.7914L40.3703 35.699C40.4945 35.5862 40.6189 35.4741 40.7435 35.3626L40.827 35.4557C40.9514 35.3444 41.076 35.2337 41.2008 35.1236L41.118 35.03C41.2446 34.9185 41.3714 34.8075 41.4984 34.6973L41.5805 34.7915C41.7073 34.6814 41.8344 34.5718 41.9617 34.463L41.8804 34.3681C42.0079 34.259 42.1357 34.1506 42.2637 34.0428L42.3443 34.1382C42.472 34.0306 42.6 33.9237 42.7281 33.8174L42.6482 33.7213C42.7778 33.6138 42.9076 33.5069 43.0376 33.4007L43.1168 33.4974C43.247 33.391 43.3775 33.2853 43.5081 33.1802L43.4296 33.083C43.5605 32.9777 43.6915 32.8731 43.8228 32.7692L43.9005 32.8671C44.0315 32.7633 44.1627 32.6603 44.294 32.5579L44.2171 32.4594C44.3497 32.3561 44.4825 32.2534 44.6155 32.1513L44.6917 32.2504C44.8252 32.148 44.9589 32.0462 45.0928 31.9452L45.0173 31.8456C45.1515 31.7443 45.2857 31.6438 45.4202 31.5439L45.4948 31.6442C45.629 31.5445 45.7634 31.4456 45.8978 31.3473L45.824 31.2465C45.9597 31.1474 46.0955 31.0489 46.2315 30.9512L46.3045 31.0526C46.4412 30.9544 46.5781 30.8568 46.7151 30.76L46.6429 30.6581C46.7801 30.561 46.9176 30.4648 47.0551 30.3692L47.1266 30.4717C47.2638 30.3764 47.4013 30.2817 47.5388 30.1878L47.4682 30.0847C47.6069 29.9899 47.7458 29.8959 47.8847 29.8027L47.9545 29.9063C48.0943 29.8125 48.2343 29.7194 48.3744 29.627L48.3055 29.5228C48.4458 29.4302 48.5863 29.3385 48.7269 29.2474L48.7949 29.3522C48.9352 29.2613 49.0756 29.1712 49.2161 29.0819L49.1489 28.9765C49.2907 28.8863 49.4326 28.7969 49.5746 28.7083L49.6409 28.8142C49.7838 28.725 49.9268 28.6365 50.0698 28.5489L50.0044 28.4424C50.1478 28.3546 50.2912 28.2675 50.4347 28.1813L50.4992 28.2883C50.6424 28.2022 50.7857 28.1169 50.9291 28.0324L50.8654 27.9248C51.0104 27.8393 51.1554 27.7547 51.3004 27.6708L51.3631 27.7789C51.5089 27.6947 51.6548 27.6112 51.8007 27.5285L51.7389 27.4199C51.8852 27.337 52.0314 27.255 52.1778 27.1738L52.2385 27.283C52.3845 27.2019 52.5306 27.1217 52.6767 27.0423L52.6169 26.9326C52.765 26.8521 52.9131 26.7724 53.0613 26.6936L53.1201 26.8039C53.2687 26.7248 53.4174 26.6466 53.566 26.5692L53.5082 26.4585C53.6572 26.3809 53.8062 26.3042 53.9552 26.2284L54.012 26.3397C54.1607 26.264 54.3093 26.1892 54.458 26.1153L54.4022 26.0035C54.5536 25.9282 54.705 25.8537 54.8564 25.7802L54.9111 25.8925C55.0624 25.8191 55.2136 25.7465 55.3649 25.6747L55.3112 25.5619C55.4628 25.49 55.6144 25.419 55.7659 25.3489L55.8185 25.4623C55.9702 25.3921 56.1218 25.3229 56.2734 25.2545L56.2219 25.1407C56.3762 25.0711 56.5304 25.0025 56.6845 24.9348L56.7349 25.0491C56.8887 24.9816 57.0424 24.915 57.196 24.8493L57.1468 24.7345C57.3009 24.6687 57.4548 24.6037 57.6087 24.5398L57.6568 24.6551C57.8118 24.5907 57.9668 24.5272 58.1217 24.4647L58.0748 24.3489C58.2315 24.2856 58.388 24.2233 58.5445 24.162L58.5902 24.2783C58.7463 24.2171 58.9023 24.157 59.0581 24.0978L59.0137 23.981C59.1699 23.9217 59.3261 23.8633 59.4822 23.8059L59.5254 23.9231C59.6839 23.8648 59.8423 23.8076 60.0005 23.7513L59.9585 23.6337C60.1174 23.5772 60.2761 23.5217 60.4347 23.4673L60.4754 23.5854C60.6335 23.5311 60.7915 23.4779 60.9494 23.4256L60.91 23.3071C61.0696 23.2543 61.229 23.2025 61.3883 23.1518L61.4263 23.2708C61.587 23.2196 61.7475 23.1695 61.9079 23.1205L61.8713 23.001C62.032 22.9519 62.1926 22.9038 62.353 22.8568L62.3883 22.9766C62.5482 22.9297 62.7079 22.8839 62.8674 22.8392L62.8336 22.719C62.9968 22.6732 63.1598 22.6286 63.3226 22.5851L63.3549 22.7057C63.5173 22.6623 63.6795 22.6201 63.8413 22.5789L63.8105 22.4579C63.9729 22.4166 64.135 22.3765 64.2969 22.3375L64.3262 22.4589C64.4896 22.4196 64.6527 22.3814 64.8156 22.3443L64.7878 22.2225C64.9526 22.1851 65.1171 22.1488 65.2813 22.1137L65.3075 22.2358C65.4712 22.2009 65.6346 22.1671 65.7976 22.1345L65.773 22.012C65.9376 21.9791 66.1019 21.9474 66.2658 21.917L66.2887 22.0398C66.4547 22.0089 66.6203 21.9793 66.7855 21.951L66.7643 21.8279C66.9301 21.7994 67.0956 21.7722 67.2607 21.7463L67.2801 21.8697C67.4447 21.8439 67.609 21.8193 67.7729 21.7959L67.7552 21.6723C67.9232 21.6484 68.0907 21.6258 68.2579 21.6045L68.2737 21.7284C68.4402 21.7072 68.6063 21.6873 68.7719 21.6688L68.758 21.5447C68.9243 21.5261 69.0901 21.5088 69.2555 21.4928L69.2675 21.6172C69.4355 21.601 69.603 21.5861 69.77 21.5727L69.7599 21.4482C69.928 21.4347 70.0957 21.4225 70.2628 21.4118L70.2708 21.5365C70.4372 21.5258 70.6032 21.5165 70.7685 21.5086L70.7626 21.3838C70.9315 21.3758 71.1 21.3692 71.2678 21.364L71.2717 21.4889C71.4396 21.4837 71.607 21.48 71.7738 21.4778L71.7721 21.3529C71.9396 21.3507 72.1066 21.3499 72.2729 21.3507L72.2723 21.4756C72.4407 21.4763 72.6083 21.4786 72.7754 21.4824L72.7782 21.3575C72.9469 21.3614 73.115 21.3667 73.2824 21.3737L73.2772 21.4985C73.4438 21.5054 73.6097 21.5139 73.7749 21.5239L73.7825 21.3992C73.9513 21.4094 74.1194 21.4213 74.2867 21.4347L74.2767 21.5592C74.444 21.5727 74.6105 21.5878 74.7762 21.6045L74.7888 21.4802C74.9554 21.497 75.1213 21.5154 75.2863 21.5355L75.2712 21.6595C75.4384 21.6798 75.6047 21.7019 75.7702 21.7256L75.788 21.6019C75.9547 21.6258 76.1207 21.6515 76.2857 21.6788L76.2653 21.802C76.4296 21.8292 76.593 21.8582 76.7555 21.8888L76.7787 21.7661C76.9451 21.7974 77.1106 21.8306 77.2752 21.8655L77.2491 21.9877C77.4127 22.0225 77.5754 22.059 77.7371 22.0973L77.766 21.9758C77.9293 22.0145 78.0917 22.0551 78.2531 22.0974L78.2213 22.2182C78.3837 22.2609 78.5451 22.3054 78.7054 22.3517L78.7402 22.2317C78.9016 22.2784 79.0619 22.3269 79.2211 22.3773L79.1833 22.4963C79.3427 22.5468 79.501 22.5991 79.6581 22.6533L79.699 22.5353C79.8583 22.5902 80.0165 22.6471 80.1735 22.706L80.1296 22.8229C80.2856 22.8814 80.4404 22.9418 80.5941 23.0041L80.6412 22.8884C80.7973 22.9517 80.9522 23.017 81.1058 23.0843L81.0556 23.1987C81.2086 23.2657 81.3603 23.3346 81.5108 23.4056L81.5642 23.2926C81.7159 23.3641 81.8663 23.4377 82.0155 23.5132L81.9589 23.6246C82.1079 23.7001 82.2557 23.7777 82.4021 23.8572L82.4619 23.7475C82.6094 23.8277 82.7556 23.9099 82.9004 23.9941L82.8374 24.102C82.9814 24.1858 83.1241 24.2716 83.2653 24.3595L83.3314 24.2535C83.474 24.3421 83.6151 24.4329 83.7549 24.5257L83.6856 24.6297C83.8243 24.7219 83.9616 24.8161 84.0974 24.9124L84.1698 24.8105C84.3066 24.9074 84.4418 25.0064 84.5757 25.1074L84.5002 25.2071C84.633 25.3073 84.7643 25.4097 84.8941 25.5141L84.9726 25.4168C85.1032 25.522 85.2324 25.6292 85.3601 25.7385L85.2787 25.8333C85.4047 25.9412 85.5292 26.0511 85.6522 26.1631L85.7365 26.0709C85.8605 26.1837 85.9829 26.2987 86.1037 26.4157L86.0167 26.5054C86.0766 26.5635 86.1362 26.6221 86.1954 26.6812C86.2546 26.7403 86.3133 26.7998 86.3715 26.8597L86.4613 26.7727C86.5785 26.8934 86.6936 27.0157 86.8066 27.1394L86.7142 27.2236C86.8264 27.3464 86.9365 27.4708 87.0445 27.5966L87.1395 27.5153C87.249 27.6428 87.3563 27.7718 87.4616 27.9022L87.3642 27.9806C87.4688 28.1102 87.5713 28.2414 87.6717 28.3739L87.7715 28.2986C87.8727 28.4322 87.9718 28.5673 88.0689 28.7038L87.9668 28.7761C88.0633 28.9117 88.1576 29.0488 88.2499 29.1873L88.354 29.1181C88.447 29.2577 88.5379 29.3986 88.6267 29.541L88.5205 29.607C88.6085 29.7481 88.6944 29.8905 88.7783 30.0343L88.8864 29.9714C88.9708 30.116 89.0531 30.2619 89.1334 30.4092L89.0235 30.4689C89.1032 30.6152 89.1808 30.7627 89.2565 30.9115L89.368 30.855C89.4437 31.0039 89.5173 31.1542 89.5889 31.3056L89.4758 31.359C89.5469 31.5092 89.616 31.6607 89.683 31.8135L89.7976 31.7633C89.865 31.9168 89.9304 32.0715 89.9938 32.2273L89.8779 32.2743C89.9403 32.4278 90.0008 32.5824 90.0593 32.7382L90.1765 32.6943C90.2354 32.8511 90.2924 33.009 90.3474 33.1681L90.2292 33.2089C90.2835 33.3659 90.3359 33.5239 90.3864 33.6831L90.5057 33.6453C90.5561 33.8043 90.6047 33.9644 90.6514 34.1255L90.5313 34.1602C90.5777 34.3203 90.6222 34.4815 90.6649 34.6437L90.7859 34.6119C90.8283 34.7731 90.8689 34.9352 90.9077 35.0983L90.786 35.1272C90.8244 35.2886 90.861 35.451 90.8958 35.6144L91.0181 35.5884C91.0531 35.7527 91.0863 35.918 91.1178 36.0841L90.9948 36.1073C91.0255 36.2696 91.0545 36.4328 91.0817 36.5968L91.2051 36.5764C91.2325 36.7412 91.2582 36.9069 91.2821 37.0734L91.1583 37.0912C91.182 37.2564 91.2041 37.4225 91.2245 37.5894L91.3486 37.5743C91.3687 37.7392 91.3872 37.9048 91.404 38.0711L91.2796 38.0837C91.2963 38.2492 91.3114 38.4155 91.3249 38.5825L91.4496 38.5725C91.4631 38.7396 91.4749 38.9074 91.4852 39.076L91.3603 39.0836C91.3703 39.2485 91.3788 39.4142 91.3857 39.5806L91.5107 39.5754C91.5177 39.7425 91.5231 39.9103 91.5269 40.0788L91.4018 40.0816C91.4056 40.2484 91.4079 40.4159 91.4087 40.5839L91.5337 40.5834C91.5345 40.7494 91.5337 40.9161 91.5315 41.0834L91.4064 41.0817C91.4042 41.2483 91.4005 41.4154 91.3954 41.5831L91.5204 41.587C91.5152 41.7546 91.5086 41.9228 91.5006 42.0915L91.3756 42.0855C91.3677 42.2507 91.3584 42.4163 91.3477 42.5825L91.4725 42.5905C91.4618 42.7574 91.4496 42.9248 91.4361 43.0927L91.3114 43.0826C91.298 43.2494 91.2831 43.4166 91.2669 43.5844L91.3914 43.5964C91.3754 43.7615 91.3581 43.9271 91.3395 44.0931L91.2152 44.0792C91.1966 44.2446 91.1767 44.4105 91.1555 44.5767L91.2796 44.5925C91.2583 44.7594 91.2356 44.9267 91.2117 45.0945L91.0878 45.0768C91.0645 45.2405 91.0399 45.4045 91.014 45.5689L91.1375 45.5883C91.1116 45.7531 91.0844 45.9183 91.0559 46.0839L90.9326 46.0627C90.9042 46.2277 90.8746 46.3931 90.8437 46.5588L90.9667 46.5817C90.9361 46.7454 90.9044 46.9094 90.8715 47.0737L90.7488 47.0492C90.7162 47.212 90.6823 47.3751 90.6473 47.5386L90.7696 47.5647C90.7345 47.7287 90.6981 47.893 90.6606 48.0575L90.5386 48.0298C90.5016 48.1924 90.4633 48.3553 90.4239 48.5184L90.5455 48.5477C90.5064 48.7094 90.4663 48.8713 90.4249 49.0334L90.3037 49.0026C90.2625 49.1643 90.2202 49.3262 90.1767 49.4883L90.2975 49.5206C90.254 49.6831 90.2093 49.8459 90.1635 50.0089L90.043 49.9751C89.9982 50.1344 89.9524 50.2939 89.9054 50.4536L90.0255 50.4887C89.9784 50.6489 89.9302 50.8093 89.881 50.9698L89.7614 50.9332C89.7123 51.0933 89.6621 51.2536 89.6108 51.4141L89.73 51.4521C89.6792 51.6111 89.6274 51.7703 89.5745 51.9297L89.4558 51.8904C89.4034 52.048 89.3501 52.2057 89.2958 52.3637L89.4141 52.4043C89.3595 52.5626 89.304 52.7211 89.2474 52.8798L89.1296 52.8379C89.0733 52.9959 89.0159 53.154 88.9575 53.3122L89.0749 53.3554C89.0175 53.5112 88.959 53.6672 88.8996 53.8232L88.7826 53.7788C88.7234 53.9345 88.6631 54.0902 88.6019 54.2461L88.7183 54.2917C88.6569 54.448 88.5945 54.6043 88.5312 54.7607L88.4152 54.7139C88.3526 54.8686 88.289 55.0233 88.2245 55.1781L88.34 55.2261C88.2759 55.3798 88.2109 55.5335 88.145 55.6873L88.03 55.6382C87.9642 55.7916 87.8975 55.9451 87.8299 56.0987L87.9444 56.149C87.8766 56.3029 87.8079 56.4569 87.7382 56.6109L87.6242 56.5595C87.5558 56.7109 87.4864 56.8623 87.4161 57.0137L87.5296 57.0662C87.4594 57.2176 87.3884 57.3689 87.3164 57.5203L87.2034 57.4667C87.1316 57.6177 87.0588 57.7688 86.9853 57.9198L87.0977 57.9745C87.0241 58.1256 86.9496 58.2768 86.8742 58.4279L86.7622 58.3722C86.6881 58.5207 86.6132 58.6692 86.5375 58.8176L86.6489 58.8743C86.573 59.0231 86.4962 59.1719 86.4185 59.3207L86.3076 59.2629C86.2301 59.4114 86.1518 59.5598 86.0726 59.7082L86.183 59.7669C86.1041 59.9149 86.0243 60.0628 85.9437 60.2107L85.8338 60.151C85.7543 60.2968 85.6739 60.4427 85.5928 60.5885L85.7021 60.6491C85.6208 60.7953 85.5387 60.9413 85.4557 61.0873L85.3469 61.0257C85.2641 61.1714 85.1805 61.3171 85.0961 61.4626L85.2044 61.5252C85.1204 61.6701 85.0356 61.8148 84.95 61.9596L84.8423 61.896C84.7577 62.0392 84.6722 62.1822 84.586 62.3252L84.6932 62.3897C84.6068 62.533 84.5196 62.6762 84.4316 62.8193L84.325 62.754C84.2372 62.8968 84.1487 63.0396 84.0593 63.1823L84.1654 63.2485C84.0766 63.3903 83.9871 63.532 83.8968 63.6736L83.7913 63.6065C83.7018 63.7467 83.6115 63.8869 83.5205 64.027L83.6255 64.095C83.5343 64.2354 83.4424 64.3756 83.3497 64.5158L83.2453 64.447C83.1528 64.5868 83.0596 64.7266 82.9656 64.8662L83.0694 64.9359C82.976 65.0747 82.8819 65.2133 82.787 65.3519L82.6837 65.2813C82.5897 65.4187 82.4949 65.5559 82.3994 65.693L82.502 65.7643C82.4063 65.9017 82.3099 66.0389 82.2128 66.176L82.1107 66.1038C82.0137 66.2406 81.916 66.3773 81.8176 66.5138L81.9192 66.5868C81.8213 66.7226 81.7228 66.8582 81.6235 66.9937L81.5225 66.9199C81.4241 67.0542 81.325 67.1883 81.2252 67.3223L81.3256 67.3969C81.2256 67.5311 81.1249 67.6652 81.0235 67.7991L80.9237 67.7238C80.8226 67.8574 80.7207 67.9909 80.6181 68.1243L80.7173 68.2004C80.6151 68.3331 80.5123 68.4658 80.4087 68.5982L80.3101 68.5214C80.2076 68.6525 80.1044 68.7835 80.0005 68.9143L80.0985 68.9919C79.9945 69.123 79.8897 69.2538 79.7843 69.3845L79.6869 69.3062C79.5817 69.4366 79.4758 69.5668 79.3693 69.6969L79.4661 69.776C79.3597 69.9058 79.2527 70.0354 79.145 70.1648L79.0488 70.085C78.9424 70.2129 78.8353 70.3407 78.7275 70.4682L78.8231 70.5488C78.7152 70.6766 78.6066 70.8041 78.4973 70.9315L78.4023 70.8502C78.2933 70.9774 78.1836 71.1043 78.0733 71.231L78.1677 71.3129C78.0572 71.4398 77.9461 71.5664 77.8344 71.6927L77.7407 71.6101C77.6304 71.7347 77.5196 71.8592 77.4082 71.9834L77.5013 72.0667C77.3897 72.1912 77.2774 72.3154 77.1645 72.4394L77.0719 72.3553C76.9592 72.4791 76.8459 72.6026 76.732 72.7259L76.8239 72.8106C76.7098 72.9341 76.595 73.0574 76.4796 73.1804L76.3883 73.095C76.2743 73.2166 76.1596 73.3379 76.0444 73.459L76.135 73.5451C76.0198 73.6661 75.9041 73.7869 75.7877 73.9074L75.6976 73.8207C75.5814 73.941 75.4646 74.0611 75.3472 74.1809L75.4367 74.2682Z" stroke="url(#paint8_linear_1729_5068)" stroke-width="0.25" stroke-dasharray="0.5 0.5"/>
<defs>
<filter id="filter0_d_1729_5068" x="27.3281" y="19.1992" width="58.4883" height="54.2578" filterUnits="userSpaceOnUse" color-interpolation-filters="sRGB">
<feFlood flood-opacity="0" result="BackgroundImageFix"/>
<feColorMatrix in="SourceAlpha" type="matrix" values="0 0 0 0 0 0 0 0 0 0 0 0 0 0 0 0 0 0 127 0" result="hardAlpha"/>
<feOffset/>
<feGaussianBlur stdDeviation="6.5"/>
<feComposite in2="hardAlpha" operator="out"/>
<feColorMatrix type="matrix" values="0 0 0 0 0 0 0 0 0 1 0 0 0 0 0.7 0 0 0 0.25 0"/>
<feBlend mode="normal" in2="BackgroundImageFix" result="effect1_dropShadow_1729_5068"/>
<feBlend mode="normal" in="SourceGraphic" in2="effect1_dropShadow_1729_5068" result="shape"/>
</filter>
<filter id="filter1_d_1729_5068" x="31.1094" y="34.7188" width="50.9609" height="47.7422" filterUnits="userSpaceOnUse" color-interpolation-filters="sRGB">
<feFlood flood-opacity="0" result="BackgroundImageFix"/>
<feColorMatrix in="SourceAlpha" type="matrix" values="0 0 0 0 0 0 0 0 0 0 0 0 0 0 0 0 0 0 127 0" result="hardAlpha"/>
<feOffset/>
<feGaussianBlur stdDeviation="6.5"/>
<feComposite in2="hardAlpha" operator="out"/>
<feColorMatrix type="matrix" values="0 0 0 0 0 0 0 0 0 1 0 0 0 0 0.7 0 0 0 0.25 0"/>
<feBlend mode="normal" in2="BackgroundImageFix" result="effect1_dropShadow_1729_5068"/>
<feBlend mode="normal" in="SourceGraphic" in2="effect1_dropShadow_1729_5068" result="shape"/>
</filter>
<filter id="filter2_d_1729_5068" x="27.3594" y="46.4727" width="58.4531" height="49.1992" filterUnits="userSpaceOnUse" color-interpolation-filters="sRGB">
<feFlood flood-opacity="0" result="BackgroundImageFix"/>
<feColorMatrix in="SourceAlpha" type="matrix" values="0 0 0 0 0 0 0 0 0 0 0 0 0 0 0 0 0 0 127 0" result="hardAlpha"/>
<feOffset/>
<feGaussianBlur stdDeviation="6.5"/>
<feComposite in2="hardAlpha" operator="out"/>
<feColorMatrix type="matrix" values="0 0 0 0 0 0 0 0 0 1 0 0 0 0 0.7 0 0 0 0.25 0"/>
<feBlend mode="normal" in2="BackgroundImageFix" result="effect1_dropShadow_1729_5068"/>
<feBlend mode="normal" in="SourceGraphic" in2="effect1_dropShadow_1729_5068" result="shape"/>
</filter>
<filter id="filter3_d_1729_5068" x="27.3242" y="10.5312" width="42.7695" height="85.1406" filterUnits="userSpaceOnUse" color-interpolation-filters="sRGB">
<feFlood flood-opacity="0" result="BackgroundImageFix"/>
<feColorMatrix in="SourceAlpha" type="matrix" values="0 0 0 0 0 0 0 0 0 0 0 0 0 0 0 0 0 0 127 0" result="hardAlpha"/>
<feOffset/>
<feGaussianBlur stdDeviation="6.5"/>
<feComposite in2="hardAlpha" operator="out"/>
<feColorMatrix type="matrix" values="0 0 0 0 0 0 0 0 0 1 0 0 0 0 0.7 0 0 0 0.25 0"/>
<feBlend mode="normal" in2="BackgroundImageFix" result="effect1_dropShadow_1729_5068"/>
<feBlend mode="normal" in="SourceGraphic" in2="effect1_dropShadow_1729_5068" result="shape"/>
</filter>
<filter id="filter4_d_1729_5068" x="27.3242" y="10.5312" width="58.457" height="85.1406" filterUnits="userSpaceOnUse" color-interpolation-filters="sRGB">
<feFlood flood-opacity="0" result="BackgroundImageFix"/>
<feColorMatrix in="SourceAlpha" type="matrix" values="0 0 0 0 0 0 0 0 0 0 0 0 0 0 0 0 0 0 127 0" result="hardAlpha"/>
<feOffset/>
<feGaussianBlur stdDeviation="6.5"/>
<feComposite in2="hardAlpha" operator="out"/>
<feColorMatrix type="matrix" values="0 0 0 0 0 0 0 0 0 1 0 0 0 0 0.7 0 0 0 0.25 0"/>
<feBlend mode="normal" in2="BackgroundImageFix" result="effect1_dropShadow_1729_5068"/>
<feBlend mode="normal" in="SourceGraphic" in2="effect1_dropShadow_1729_5068" result="shape"/>
</filter>
<filter id="filter5_d_1729_5068" x="0.796875" y="0.964844" width="111.145" height="111.145" filterUnits="userSpaceOnUse" color-interpolation-filters="sRGB">
<feFlood flood-opacity="0" result="BackgroundImageFix"/>
<feColorMatrix in="SourceAlpha" type="matrix" values="0 0 0 0 0 0 0 0 0 0 0 0 0 0 0 0 0 0 127 0" result="hardAlpha"/>
<feOffset/>
<feGaussianBlur stdDeviation="6.5"/>
<feComposite in2="hardAlpha" operator="out"/>
<feColorMatrix type="matrix" values="0 0 0 0 0 0 0 0 0 1 0 0 0 0 0.7 0 0 0 0.25 0"/>
<feBlend mode="normal" in2="BackgroundImageFix" result="effect1_dropShadow_1729_5068"/>
<feBlend mode="normal" in="SourceGraphic" in2="effect1_dropShadow_1729_5068" result="shape"/>
</filter>
<filter id="filter6_d_1729_5068" x="15.9492" y="16.2734" width="80.6641" height="80.5625" filterUnits="userSpaceOnUse" color-interpolation-filters="sRGB">
<feFlood flood-opacity="0" result="BackgroundImageFix"/>
<feColorMatrix in="SourceAlpha" type="matrix" values="0 0 0 0 0 0 0 0 0 0 0 0 0 0 0 0 0 0 127 0" result="hardAlpha"/>
<feOffset/>
<feGaussianBlur stdDeviation="2.5"/>
<feComposite in2="hardAlpha" operator="out"/>
<feColorMatrix type="matrix" values="0 0 0 0 0 0 0 0 0 1 0 0 0 0 0.7 0 0 0 1 0"/>
<feBlend mode="normal" in2="BackgroundImageFix" result="effect1_dropShadow_1729_5068"/>
<feBlend mode="normal" in="SourceGraphic" in2="effect1_dropShadow_1729_5068" result="shape"/>
</filter>
<linearGradient id="paint0_linear_1729_5068" x1="56.502" y1="32.9883" x2="56.502" y2="62.4883" gradientUnits="userSpaceOnUse">
<stop stop-color="#53FDA9"/>
<stop offset="1" stop-color="#00FF81" stop-opacity="0"/>
</linearGradient>
<linearGradient id="paint1_linear_1729_5068" x1="57" y1="41.9844" x2="57" y2="66.9844" gradientUnits="userSpaceOnUse">
<stop stop-color="#53FDA9"/>
<stop offset="1" stop-color="#00FF81" stop-opacity="0"/>
</linearGradient>
<linearGradient id="paint2_linear_1729_5068" x1="56.5" y1="-5.01172" x2="56.5" y2="80.4883" gradientUnits="userSpaceOnUse">
<stop stop-color="#53FDA9"/>
<stop offset="1" stop-color="#00FF81" stop-opacity="0"/>
</linearGradient>
<linearGradient id="paint3_linear_1729_5068" x1="37.5" y1="30.4883" x2="57.5" y2="79.9883" gradientUnits="userSpaceOnUse">
<stop stop-color="#53FDA9"/>
<stop offset="1" stop-color="#00FF81" stop-opacity="0"/>
</linearGradient>
<linearGradient id="paint4_linear_1729_5068" x1="41.9658" y1="35.9825" x2="71.4267" y2="70.0062" gradientUnits="userSpaceOnUse">
<stop stop-color="#53FDA9"/>
<stop offset="1" stop-color="#00FF81" stop-opacity="0"/>
</linearGradient>
<linearGradient id="paint5_linear_1729_5068" x1="56.3691" y1="14.0898" x2="56.3691" y2="98.9842" gradientUnits="userSpaceOnUse">
<stop stop-color="#632BFF" stop-opacity="0"/>
<stop offset="1" stop-color="#632BFF"/>
</linearGradient>
<linearGradient id="paint6_linear_1729_5068" x1="72.5321" y1="57.9672" x2="43.5462" y2="57.5885" gradientUnits="userSpaceOnUse">
<stop stop-color="white"/>
<stop offset="1" stop-color="white" stop-opacity="0"/>
</linearGradient>
<linearGradient id="paint7_linear_1729_5068" x1="26.0758" y1="-30.2136" x2="26.0758" y2="84.317" gradientUnits="userSpaceOnUse">
<stop offset="0.170133" stop-color="#53FDA9" stop-opacity="0"/>
<stop offset="1" stop-color="#53FDA9"/>
</linearGradient>
<linearGradient id="paint8_linear_1729_5068" x1="15.189" y1="96.4701" x2="93.7124" y2="30.0869" gradientUnits="userSpaceOnUse">
<stop stop-color="white"/>
<stop offset="1" stop-color="white" stop-opacity="0"/>
</linearGradient>
</defs>
</svg>
