<svg width="126" height="85" viewBox="0 0 126 85" fill="none" xmlns="http://www.w3.org/2000/svg">
<path d="M40.1758 40.2541V34.0612H41.8578V40.2541H40.1758Z" fill="url(#paint0_linear_1729_5008)"/>
<path d="M48.2036 27.0273L42.3165 30.4678L43.234 31.9205L49.0446 28.5564L48.2036 27.0273Z" fill="url(#paint1_linear_1729_5008)"/>
<path d="M59.1367 31.844L53.5555 28.5564L54.32 27.0273L59.9777 30.3149L59.1367 31.844Z" fill="url(#paint2_linear_1729_5008)"/>
<circle cx="63.2664" cy="33.2235" r="3.93441" stroke="#53FDA9"/>
<circle cx="51.2602" cy="26.2641" r="3.28758" fill="#53FDA9"/>
<circle cx="41.0939" cy="32.1525" r="1.64075" stroke="#53FDA9"/>
<path d="M86.2031 49.7381V55.931H84.5211V49.7381H86.2031Z" fill="url(#paint3_linear_1729_5008)"/>
<path d="M78.1753 62.9648L84.0624 59.5244L83.1449 58.0717L77.3343 61.4357L78.1753 62.9648Z" fill="url(#paint4_linear_1729_5008)"/>
<path d="M67.2422 58.1482L72.8234 61.4357L72.0589 62.9648L66.4012 59.6773L67.2422 58.1482Z" fill="url(#paint5_linear_1729_5008)"/>
<circle cx="63.1125" cy="56.7687" r="3.93441" transform="rotate(-180 63.1125 56.7687)" fill="#53FDA9" stroke="#53FDA9"/>
<circle cx="75.1187" cy="63.728" r="3.28758" transform="rotate(-180 75.1187 63.728)" fill="#53FDA9"/>
<circle cx="85.285" cy="57.8397" r="1.64075" transform="rotate(-180 85.285 57.8397)" stroke="#53FDA9"/>
<path d="M78.8031 27.4374L84.1663 30.5338L83.3253 31.9905L77.9621 28.8941L78.8031 27.4374Z" fill="url(#paint6_linear_1729_5008)"/>
<path d="M86.2439 41.0031L86.2079 34.1845L84.4911 34.2527L84.4992 40.9668L86.2439 41.0031Z" fill="url(#paint7_linear_1729_5008)"/>
<path d="M76.606 48.0631L82.2437 44.8734L83.1857 46.3L77.5097 49.556L76.606 48.0631Z" fill="url(#paint8_linear_1729_5008)"/>
<circle cx="73.3487" cy="50.9512" r="3.93441" transform="rotate(120 73.3487 50.9512)" stroke="#53FDA9"/>
<circle cx="85.3763" cy="44.0315" r="3.28758" transform="rotate(120 85.3763 44.0315)" fill="#53FDA9"/>
<circle cx="85.3608" cy="32.2836" r="1.64075" transform="rotate(120 85.3608 32.2836)" stroke="#53FDA9"/>
<path d="M47.5758 62.5587L42.2126 59.4623L43.0536 58.0056L48.4168 61.102L47.5758 62.5587Z" fill="url(#paint9_linear_1729_5008)"/>
<path d="M40.135 48.993L40.171 55.8116L41.8878 55.7434L41.8797 49.0292L40.135 48.993Z" fill="url(#paint10_linear_1729_5008)"/>
<path d="M49.7729 41.933L44.1352 45.1227L43.1932 43.696L48.8692 40.4401L49.7729 41.933Z" fill="url(#paint11_linear_1729_5008)"/>
<circle cx="53.0302" cy="39.0449" r="3.93441" transform="rotate(-60 53.0302 39.0449)" fill="#53FDA9" stroke="#53FDA9"/>
<circle cx="41.0026" cy="45.9646" r="3.28758" transform="rotate(-60 41.0026 45.9646)" fill="#53FDA9"/>
<circle cx="41.0181" cy="57.7125" r="1.64075" transform="rotate(-60 41.0181 57.7125)" stroke="#53FDA9"/>
<path d="M70.5953 67.3007L65.2321 70.3971L64.3911 68.9405L69.7543 65.844L70.5953 67.3007Z" fill="url(#paint12_linear_1729_5008)"/>
<path d="M55.1267 66.9618L61.0498 70.3399L61.8491 68.819L56.0305 65.4689L55.1267 66.9618Z" fill="url(#paint13_linear_1729_5008)"/>
<path d="M53.8315 55.0851L53.775 61.5624L52.0685 61.6648L52.0868 55.1213L53.8315 55.0851Z" fill="url(#paint14_linear_1729_5008)"/>
<circle cx="52.959" cy="50.8214" r="3.93441" transform="rotate(-120 52.959 50.8214)" stroke="#53FDA9"/>
<circle cx="52.9338" cy="64.6966" r="3.28758" transform="rotate(-120 52.9338 64.6966)" fill="#53FDA9"/>
<circle cx="63.1156" cy="70.5601" r="1.64075" transform="rotate(-120 63.1156 70.5601)" stroke="#53FDA9"/>
<path d="M55.7875 22.6993L61.1507 19.6029L61.9917 21.0595L56.6285 24.156L55.7875 22.6993Z" fill="url(#paint15_linear_1729_5008)"/>
<path d="M71.2561 23.0382L65.333 19.6601L64.5337 21.181L70.3524 24.5311L71.2561 23.0382Z" fill="url(#paint16_linear_1729_5008)"/>
<path d="M72.5513 34.9149L72.6078 28.4376L74.3143 28.3352L74.296 34.8787L72.5513 34.9149Z" fill="url(#paint17_linear_1729_5008)"/>
<circle cx="73.4238" cy="39.1786" r="3.93441" transform="rotate(60 73.4238 39.1786)" fill="#53FDA9" stroke="#53FDA9"/>
<circle cx="73.449" cy="25.3034" r="3.28758" transform="rotate(60 73.449 25.3034)" fill="#53FDA9"/>
<circle cx="63.2672" cy="19.4399" r="1.64075" transform="rotate(60 63.2672 19.4399)" stroke="#53FDA9"/>
<g filter="url(#filter0_d_1729_5008)">
<circle cx="63.5" cy="44.5" r="2.5" fill="#4FEEA2"/>
<circle cx="63.5" cy="44.5" r="2.2" stroke="#4FEEA2" stroke-width="0.6"/>
</g>
<circle cx="63.1247" cy="45.1247" r="38.8747" stroke="url(#paint18_linear_1729_5008)" stroke-width="0.5"/>
<g filter="url(#filter1_d_1729_5008)">
<ellipse cx="63" cy="34.5" rx="53" ry="13.5" stroke="url(#paint19_linear_1729_5008)" stroke-width="0.5" stroke-linecap="round" stroke-dasharray="1 1" shape-rendering="crispEdges"/>
</g>
<g filter="url(#filter2_d_1729_5008)">
<ellipse cx="63" cy="26.5" rx="49" ry="12.5" stroke="url(#paint20_linear_1729_5008)" stroke-width="0.25" stroke-linecap="round" stroke-linejoin="round" stroke-dasharray="2 2" shape-rendering="crispEdges"/>
</g>
<g filter="url(#filter3_d_1729_5008)">
<ellipse cx="63" cy="47.5" rx="49" ry="12.5" stroke="url(#paint21_linear_1729_5008)" stroke-width="0.25" stroke-linecap="round" stroke-linejoin="round" stroke-dasharray="2 2" shape-rendering="crispEdges"/>
</g>
<defs>
<filter id="filter0_d_1729_5008" x="58" y="39" width="11" height="11" filterUnits="userSpaceOnUse" color-interpolation-filters="sRGB">
<feFlood flood-opacity="0" result="BackgroundImageFix"/>
<feColorMatrix in="SourceAlpha" type="matrix" values="0 0 0 0 0 0 0 0 0 0 0 0 0 0 0 0 0 0 127 0" result="hardAlpha"/>
<feOffset/>
<feGaussianBlur stdDeviation="1.5"/>
<feComposite in2="hardAlpha" operator="out"/>
<feColorMatrix type="matrix" values="0 0 0 0 0.32549 0 0 0 0 0.992157 0 0 0 0 0.662745 0 0 0 1 0"/>
<feBlend mode="normal" in2="BackgroundImageFix" result="effect1_dropShadow_1729_5008"/>
<feBlend mode="normal" in="SourceGraphic" in2="effect1_dropShadow_1729_5008" result="shape"/>
</filter>
<filter id="filter1_d_1729_5008" x="4.75" y="15.75" width="116.5" height="37.5" filterUnits="userSpaceOnUse" color-interpolation-filters="sRGB">
<feFlood flood-opacity="0" result="BackgroundImageFix"/>
<feColorMatrix in="SourceAlpha" type="matrix" values="0 0 0 0 0 0 0 0 0 0 0 0 0 0 0 0 0 0 127 0" result="hardAlpha"/>
<feOffset/>
<feGaussianBlur stdDeviation="2.5"/>
<feComposite in2="hardAlpha" operator="out"/>
<feColorMatrix type="matrix" values="0 0 0 0 0 0 0 0 0 1 0 0 0 0 0.7 0 0 0 1 0"/>
<feBlend mode="normal" in2="BackgroundImageFix" result="effect1_dropShadow_1729_5008"/>
<feBlend mode="normal" in="SourceGraphic" in2="effect1_dropShadow_1729_5008" result="shape"/>
</filter>
<filter id="filter2_d_1729_5008" x="0.875" y="0.875" width="124.25" height="51.25" filterUnits="userSpaceOnUse" color-interpolation-filters="sRGB">
<feFlood flood-opacity="0" result="BackgroundImageFix"/>
<feColorMatrix in="SourceAlpha" type="matrix" values="0 0 0 0 0 0 0 0 0 0 0 0 0 0 0 0 0 0 127 0" result="hardAlpha"/>
<feOffset/>
<feGaussianBlur stdDeviation="6.5"/>
<feComposite in2="hardAlpha" operator="out"/>
<feColorMatrix type="matrix" values="0 0 0 0 0 0 0 0 0 1 0 0 0 0 0.7 0 0 0 0.25 0"/>
<feBlend mode="normal" in2="BackgroundImageFix" result="effect1_dropShadow_1729_5008"/>
<feBlend mode="normal" in="SourceGraphic" in2="effect1_dropShadow_1729_5008" result="shape"/>
</filter>
<filter id="filter3_d_1729_5008" x="0.875" y="21.875" width="124.25" height="51.25" filterUnits="userSpaceOnUse" color-interpolation-filters="sRGB">
<feFlood flood-opacity="0" result="BackgroundImageFix"/>
<feColorMatrix in="SourceAlpha" type="matrix" values="0 0 0 0 0 0 0 0 0 0 0 0 0 0 0 0 0 0 127 0" result="hardAlpha"/>
<feOffset/>
<feGaussianBlur stdDeviation="6.5"/>
<feComposite in2="hardAlpha" operator="out"/>
<feColorMatrix type="matrix" values="0 0 0 0 0 0 0 0 0 1 0 0 0 0 0.7 0 0 0 0.25 0"/>
<feBlend mode="normal" in2="BackgroundImageFix" result="effect1_dropShadow_1729_5008"/>
<feBlend mode="normal" in="SourceGraphic" in2="effect1_dropShadow_1729_5008" result="shape"/>
</filter>
<linearGradient id="paint0_linear_1729_5008" x1="60.9288" y1="32.0819" x2="41.0592" y2="40.6669" gradientUnits="userSpaceOnUse">
<stop stop-color="#53FDA9"/>
<stop offset="1" stop-color="#53FDA9" stop-opacity="0"/>
</linearGradient>
<linearGradient id="paint1_linear_1729_5008" x1="60.9288" y1="32.0819" x2="41.0592" y2="40.6669" gradientUnits="userSpaceOnUse">
<stop stop-color="#53FDA9"/>
<stop offset="1" stop-color="#53FDA9" stop-opacity="0"/>
</linearGradient>
<linearGradient id="paint2_linear_1729_5008" x1="60.9288" y1="32.0819" x2="41.0592" y2="40.6669" gradientUnits="userSpaceOnUse">
<stop stop-color="#53FDA9"/>
<stop offset="1" stop-color="#53FDA9" stop-opacity="0"/>
</linearGradient>
<linearGradient id="paint3_linear_1729_5008" x1="65.4502" y1="57.9103" x2="85.3197" y2="49.3253" gradientUnits="userSpaceOnUse">
<stop stop-color="#53FDA9"/>
<stop offset="1" stop-color="#53FDA9" stop-opacity="0"/>
</linearGradient>
<linearGradient id="paint4_linear_1729_5008" x1="65.4502" y1="57.9103" x2="85.3197" y2="49.3253" gradientUnits="userSpaceOnUse">
<stop stop-color="#53FDA9"/>
<stop offset="1" stop-color="#53FDA9" stop-opacity="0"/>
</linearGradient>
<linearGradient id="paint5_linear_1729_5008" x1="65.4502" y1="57.9103" x2="85.3197" y2="49.3253" gradientUnits="userSpaceOnUse">
<stop stop-color="#53FDA9"/>
<stop offset="1" stop-color="#53FDA9" stop-opacity="0"/>
</linearGradient>
<linearGradient id="paint6_linear_1729_5008" x1="75.5039" y1="49.4961" x2="78.0039" y2="27.9961" gradientUnits="userSpaceOnUse">
<stop stop-color="#53FDA9"/>
<stop offset="1" stop-color="#53FDA9" stop-opacity="0"/>
</linearGradient>
<linearGradient id="paint7_linear_1729_5008" x1="75.5039" y1="49.4961" x2="78.0039" y2="27.9961" gradientUnits="userSpaceOnUse">
<stop stop-color="#53FDA9"/>
<stop offset="1" stop-color="#53FDA9" stop-opacity="0"/>
</linearGradient>
<linearGradient id="paint8_linear_1729_5008" x1="75.5039" y1="49.4961" x2="78.0039" y2="27.9961" gradientUnits="userSpaceOnUse">
<stop stop-color="#53FDA9"/>
<stop offset="1" stop-color="#53FDA9" stop-opacity="0"/>
</linearGradient>
<linearGradient id="paint9_linear_1729_5008" x1="50.875" y1="40.5" x2="48.375" y2="62" gradientUnits="userSpaceOnUse">
<stop stop-color="#53FDA9"/>
<stop offset="1" stop-color="#53FDA9" stop-opacity="0"/>
</linearGradient>
<linearGradient id="paint10_linear_1729_5008" x1="50.875" y1="40.5" x2="48.375" y2="62" gradientUnits="userSpaceOnUse">
<stop stop-color="#53FDA9"/>
<stop offset="1" stop-color="#53FDA9" stop-opacity="0"/>
</linearGradient>
<linearGradient id="paint11_linear_1729_5008" x1="50.875" y1="40.5" x2="48.375" y2="62" gradientUnits="userSpaceOnUse">
<stop stop-color="#53FDA9"/>
<stop offset="1" stop-color="#53FDA9" stop-opacity="0"/>
</linearGradient>
<linearGradient id="paint12_linear_1729_5008" x1="53.1415" y1="53.4142" x2="70.5111" y2="66.3292" gradientUnits="userSpaceOnUse">
<stop stop-color="#53FDA9"/>
<stop offset="1" stop-color="#53FDA9" stop-opacity="0"/>
</linearGradient>
<linearGradient id="paint13_linear_1729_5008" x1="53.1415" y1="53.4142" x2="70.5111" y2="66.3292" gradientUnits="userSpaceOnUse">
<stop stop-color="#53FDA9"/>
<stop offset="1" stop-color="#53FDA9" stop-opacity="0"/>
</linearGradient>
<linearGradient id="paint14_linear_1729_5008" x1="53.1415" y1="53.4142" x2="70.5111" y2="66.3292" gradientUnits="userSpaceOnUse">
<stop stop-color="#53FDA9"/>
<stop offset="1" stop-color="#53FDA9" stop-opacity="0"/>
</linearGradient>
<linearGradient id="paint15_linear_1729_5008" x1="73.2413" y1="36.5858" x2="55.8717" y2="23.6708" gradientUnits="userSpaceOnUse">
<stop stop-color="#53FDA9"/>
<stop offset="1" stop-color="#53FDA9" stop-opacity="0"/>
</linearGradient>
<linearGradient id="paint16_linear_1729_5008" x1="73.2413" y1="36.5858" x2="55.8717" y2="23.6708" gradientUnits="userSpaceOnUse">
<stop stop-color="#53FDA9"/>
<stop offset="1" stop-color="#53FDA9" stop-opacity="0"/>
</linearGradient>
<linearGradient id="paint17_linear_1729_5008" x1="73.2413" y1="36.5858" x2="55.8717" y2="23.6708" gradientUnits="userSpaceOnUse">
<stop stop-color="#53FDA9"/>
<stop offset="1" stop-color="#53FDA9" stop-opacity="0"/>
</linearGradient>
<linearGradient id="paint18_linear_1729_5008" x1="63.1247" y1="6" x2="63.1247" y2="76.4245" gradientUnits="userSpaceOnUse">
<stop stop-color="#4D23C7"/>
<stop offset="0.90973" stop-color="#4100FF" stop-opacity="0"/>
</linearGradient>
<linearGradient id="paint19_linear_1729_5008" x1="63" y1="11.325" x2="63" y2="48" gradientUnits="userSpaceOnUse">
<stop offset="0.170133" stop-color="#53FDA9" stop-opacity="0"/>
<stop offset="1" stop-color="#53FDA9"/>
</linearGradient>
<linearGradient id="paint20_linear_1729_5008" x1="63" y1="14" x2="63" y2="39" gradientUnits="userSpaceOnUse">
<stop offset="0.170133" stop-color="white" stop-opacity="0"/>
<stop offset="0.878479" stop-color="white"/>
</linearGradient>
<linearGradient id="paint21_linear_1729_5008" x1="63" y1="35" x2="63" y2="60" gradientUnits="userSpaceOnUse">
<stop offset="0.170133" stop-color="white" stop-opacity="0"/>
<stop offset="0.878479" stop-color="white"/>
</linearGradient>
</defs>
</svg>
