<svg width="108" height="108" viewBox="0 0 108 108" fill="none" xmlns="http://www.w3.org/2000/svg">
<circle cx="53.2013" cy="55.38" r="47.7667" stroke="url(#paint0_linear_4761_2300)" stroke-width="0.5"/>
<g filter="url(#filter0_d_4761_2300)">
<path d="M53.2013 7.36328L94.785 79.3884H11.6176L53.2013 7.36328Z" stroke="url(#paint1_linear_4761_2300)" stroke-width="0.5" stroke-linecap="round" stroke-dasharray="1 1" shape-rendering="crispEdges"/>
</g>
<g filter="url(#filter1_d_4761_2300)">
<path d="M53.2025 77.791L33.7968 44.1793L72.6083 44.1793L53.2025 77.791Z" fill="url(#paint2_linear_4761_2300)" shape-rendering="crispEdges"/>
<path d="M53.2025 77.791L33.7968 44.1793L72.6083 44.1793L53.2025 77.791Z" stroke="url(#paint3_linear_4761_2300)" stroke-width="0.5" stroke-linecap="round" stroke-dasharray="1 1" shape-rendering="crispEdges"/>
</g>
<path d="M53.7764 53.8129L53.8166 53.8051L53.857 53.7976L53.8976 53.7906L53.9383 53.7839L53.9792 53.7776L54.0202 53.7717L54.0613 53.7663L54.1026 53.7612L54.144 53.7565L54.1856 53.7522L54.2272 53.7484L54.269 53.7449L54.3109 53.7419L54.3529 53.7393L54.3951 53.7371L54.4373 53.7353L54.4796 53.7339L54.522 53.733L54.5645 53.7324L54.6072 53.7323L54.6498 53.7326L54.6926 53.7334L54.7355 53.7346L54.7784 53.7362L54.8213 53.7382L54.8644 53.7407L54.9075 53.7436L54.9507 53.747L54.9939 53.7508L55.0371 53.755L55.0804 53.7597L55.1238 53.7648L55.1671 53.7704L55.2105 53.7764L55.254 53.7829L55.2974 53.7898L55.3409 53.7971L55.3843 53.8049L55.4278 53.8132L55.4713 53.8219L55.5148 53.831L55.5582 53.8407L55.6017 53.8507L55.6451 53.8612L55.6885 53.8722L55.7319 53.8836L55.7753 53.8955L55.8186 53.9079L55.8619 53.9207L55.9052 53.934L55.9484 53.9477L55.9915 53.9619L56.0346 53.9765L56.0777 53.9916L56.1206 54.0072L56.1635 54.0232L56.2063 54.0397L56.249 54.0566L56.2917 54.074L56.3342 54.0919L56.3767 54.1102L56.419 54.129L56.4613 54.1483L56.5034 54.168L56.5454 54.1882L56.5874 54.2088L56.6291 54.2299L56.6708 54.2515L56.7123 54.2735L56.7537 54.296L56.7949 54.3189L56.836 54.3423L56.8769 54.3661L56.9177 54.3904L56.9583 54.4152L56.9987 54.4404L57.039 54.4661L57.079 54.4922L57.1189 54.5188L57.1587 54.5458L57.1982 54.5733L57.2375 54.6012L57.2766 54.6296L57.3155 54.6584L57.3542 54.6877L57.3927 54.7174L57.4309 54.7476L57.469 54.7782L57.5068 54.8092L57.5443 54.8407L57.5816 54.8726L57.6187 54.905L57.6555 54.9377L57.6921 54.971L57.7284 55.0046L57.7644 55.0387L57.8002 55.0732L57.8356 55.1081L57.8708 55.1435L57.9058 55.1793L57.9404 55.2155L57.9747 55.2521L58.0088 55.2891L58.0425 55.3266L58.0759 55.3644L58.109 55.4027L58.1418 55.4414L58.1743 55.4805L58.2064 55.5199L58.2382 55.5598L58.2697 55.6001L58.3008 55.6408L58.3315 55.6818L58.362 55.7233L58.392 55.7651L58.4217 55.8073L58.4511 55.8499L58.4801 55.8929L58.5087 55.9362L58.5369 55.98L58.5647 56.024L58.5922 56.0685L58.6192 56.1133L58.6459 56.1585L58.6721 56.204L58.698 56.2499L58.7234 56.2961L58.7485 56.3427L58.7731 56.3896L58.7973 56.4369L58.8211 56.4844L58.8444 56.5324L58.8673 56.5806L58.8898 56.6292L58.9118 56.6781L58.9334 56.7273L58.9545 56.7768L58.9751 56.8266L58.9953 56.8768L59.0151 56.9272L59.0344 56.9779L59.0532 57.0289L59.0715 57.0802L59.0894 57.1318L59.1067 57.1837L59.1236 57.2359L59.14 57.2883L59.1559 57.341L59.1713 57.3939L59.1863 57.4471L59.2007 57.5006L59.2146 57.5543L59.2279 57.6082L59.2408 57.6624L59.2532 57.7168L59.265 57.7715L59.2763 57.8264L59.2871 57.8815L59.2973 57.9368L59.307 57.9923L59.3162 58.048L59.3249 58.104L59.3329 58.1601L59.3405 58.2164L59.3475 58.2729L59.3539 58.3296L59.3598 58.3865L59.3651 58.4435L59.3699 58.5007L59.3741 58.558L59.3778 58.6156L59.3808 58.6732L59.3833 58.731L59.3853 58.789L59.3866 58.847L59.3874 58.9052L59.3876 58.9635L59.3872 59.022L59.3862 59.0805L59.3846 59.1392L59.3824 59.1979L59.3797 59.2568L59.3763 59.3157L59.3724 59.3747L59.3678 59.4338L59.3627 59.4929L59.3569 59.5521L59.3506 59.6114L59.3436 59.6708L59.336 59.7301L59.3279 59.7895L59.3191 59.849L59.3097 59.9085L59.2997 59.968L59.289 60.0275L59.2778 60.087L59.2659 60.1465L59.2534 60.2061L59.2403 60.2656L59.2266 60.3251L59.2122 60.3846L59.1972 60.444L59.1816 60.5034L59.1654 60.5628L59.1485 60.6221L59.1311 60.6814L59.113 60.7406L59.0942 60.7998L59.0748 60.8589L59.0548 60.9179L59.0342 60.9768L59.013 61.0356L58.9911 61.0943L58.9685 61.1529L58.9454 61.2114L58.9216 61.2698L58.8972 61.3281L58.8721 61.3862L58.8465 61.4442L58.8202 61.5021L58.7932 61.5598L58.7656 61.6173L58.7374 61.6747L58.7086 61.7319L58.6791 61.789L58.649 61.8458L58.6183 61.9025L58.587 61.959L58.555 62.0152L58.5224 62.0713L58.4892 62.1271L58.4553 62.1827L58.4209 62.2381L58.3858 62.2932L58.35 62.3481L58.3137 62.4028L58.2768 62.4571L58.2392 62.5113L58.201 62.5651L58.1622 62.6187L58.1228 62.672L58.0828 62.725L58.0421 62.7777L58.0009 62.8301L57.959 62.8822L57.9166 62.934L57.8735 62.9854L57.8299 63.0365L57.7856 63.0873L57.7408 63.1377L57.6954 63.1878L57.6493 63.2375L57.6027 63.2869L57.5555 63.3359L57.5077 63.3845L57.4594 63.4327L57.4104 63.4806L57.3609 63.528L57.3108 63.575L57.2602 63.6217L57.2089 63.6679L57.1571 63.7137L57.1048 63.759L57.0519 63.8039L56.9984 63.8484L56.9444 63.8924L56.8899 63.936L56.8348 63.9791L56.7791 64.0218L56.723 64.064L56.6663 64.1056L56.609 64.1468L56.5513 64.1876L56.493 64.2278L56.4342 64.2675L56.3749 64.3067L56.3151 64.3453L56.2548 64.3835L56.1939 64.4211L56.1326 64.4582L56.0708 64.4948L56.0085 64.5308L55.9457 64.5662L55.8825 64.6011L55.8188 64.6354L55.7546 64.6691L55.6899 64.7023L55.6248 64.7349L55.5592 64.7669L55.4932 64.7983L55.4267 64.8291L55.3598 64.8593L55.2925 64.8889L55.2247 64.9179L55.1566 64.9462L55.088 64.9739L55.0189 65.001L54.9495 65.0275L54.8797 65.0533L54.8095 65.0784L54.7389 65.1029L54.6679 65.1267L54.5965 65.1499L54.5248 65.1724L54.4527 65.1943L54.3802 65.2154L54.3074 65.2359L54.2343 65.2556L54.1608 65.2747L54.0869 65.2931L54.0128 65.3108L53.9383 65.3278L53.8635 65.344L53.7884 65.3595L53.7129 65.3744L53.6372 65.3884L53.5612 65.4018L53.4849 65.4144L53.4084 65.4263L53.3316 65.4375L53.2545 65.4478L53.1771 65.4575L53.0996 65.4664L53.0217 65.4745L52.9437 65.4818L52.8654 65.4884L52.7869 65.4943L52.7081 65.4993L52.6292 65.5036L52.5501 65.507L52.4708 65.5097L52.3913 65.5116L52.3116 65.5128L52.2318 65.5131L52.1518 65.5126L52.0717 65.5113L51.9914 65.5092L51.911 65.5063L51.8304 65.5026L51.7497 65.4981L51.669 65.4928L51.5881 65.4866L51.5071 65.4796L51.426 65.4718L51.3449 65.4632L51.2637 65.4537L51.1824 65.4434L51.101 65.4323L51.0196 65.4203L50.9382 65.4075L50.8568 65.3939L50.7753 65.3794L50.6938 65.364L50.6123 65.3478L50.5308 65.3308L50.4493 65.3129L50.3678 65.2942L50.2864 65.2746L50.205 65.2542L50.1237 65.2329L50.0424 65.2107L49.9611 65.1877L49.88 65.1638L49.7989 65.1391L49.7179 65.1135L49.637 65.0871L49.5562 65.0598L49.4755 65.0316L49.395 65.0026L49.3146 64.9727L49.2343 64.9419L49.1542 64.9103L49.0742 64.8778L48.9944 64.8444L48.9148 64.8102L48.8354 64.7751L48.7562 64.7391L48.6772 64.7023L48.5984 64.6646L48.5198 64.6261L48.4414 64.5867L48.3633 64.5464L48.2855 64.5053L48.2079 64.4633L48.1305 64.4205L48.0535 64.3767L47.9767 64.3322L47.9003 64.2868L47.8241 64.2405L47.7483 64.1934L47.6728 64.1454L47.5976 64.0965L47.5227 64.0469L47.4482 63.9963L47.3741 63.945L47.3003 63.8927L47.227 63.8397L47.154 63.7858L47.0814 63.7311L47.0092 63.6755L46.9374 63.6191L46.8661 63.5619L46.7951 63.5038L46.7247 63.4449L46.6547 63.3852L46.5851 63.3247L46.516 63.2634L46.4474 63.2012L46.3793 63.1383L46.3117 63.0745L46.2446 63.01L46.178 62.9446L46.1119 62.8785L46.0464 62.8115L45.9814 62.7438L45.9169 62.6753L45.853 62.606L45.7897 62.5359L45.727 62.4651L45.6648 62.3935L45.6033 62.3211L45.5424 62.248L45.482 62.1741L45.4223 62.0995L45.3632 62.0241L45.3048 61.948L45.247 61.8711L45.1899 61.7935L45.1334 61.7152L45.0776 61.6362L45.0225 61.5565L44.9681 61.4761L44.9144 61.3949L44.8614 61.3131L44.8091 61.2305L44.7575 61.1473L44.7067 61.0634L44.6566 60.9789L44.6072 60.8936L44.5586 60.8077L44.5108 60.7212L44.4638 60.634L44.4175 60.5461L44.372 60.4577L44.3273 60.3686L44.2835 60.2788L44.2404 60.1885L44.1982 60.0976L44.1568 60.006L44.1162 59.9139L44.0765 59.8211L44.0376 59.7278L43.9996 59.634L43.9624 59.5395L43.9261 59.4445L43.8907 59.349L43.8562 59.2529L43.8226 59.1563L43.7899 59.0591L43.7581 58.9614L43.7272 58.8633L43.6973 58.7646L43.6682 58.6654L43.6401 58.5658L43.613 58.4657L43.5868 58.3651L43.5616 58.264L43.5373 58.1625L43.514 58.0605L43.4916 57.9582L43.4703 57.8554L43.4499 57.7522L43.4305 57.6485L43.4122 57.5445L43.3948 57.4401L43.3785 57.3353L43.3631 57.2302L43.3488 57.1247L43.3355 57.0188L43.3233 56.9126L43.3121 56.8061L43.3019 56.6992L43.2928 56.592L43.2848 56.4846L43.2778 56.3768L43.2719 56.2688L43.267 56.1605L43.2632 56.0519L43.2605 55.9431L43.2589 55.8341L43.2584 55.7248L43.259 55.6153L43.2606 55.5056L43.2634 55.3957L43.2673 55.2856L43.2723 55.1753L43.2784 55.0649L43.2856 54.9543L43.294 54.8436L43.3034 54.7327L43.314 54.6217L43.3258 54.5106L43.3386 54.3994L43.3526 54.2882L43.3678 54.1768L43.3841 54.0654L43.4015 53.9539L43.4201 53.8424L43.4399 53.7308L43.4608 53.6193L43.4828 53.5077L43.5061 53.3961L43.5305 53.2845L43.556 53.173L43.5827 53.0615L43.6106 52.95L43.6397 52.8387L43.6699 52.7274L43.7013 52.6161L43.7339 52.505L43.7677 52.394L43.8026 52.2831L43.8387 52.1723L43.876 52.0617L43.9145 51.9512L43.9542 51.8409L43.995 51.7308L44.037 51.6209L44.0803 51.5112L44.1246 51.4017L44.1702 51.2925L44.217 51.1835L44.2649 51.0747L44.3141 50.9662L44.3644 50.858L44.4159 50.7501L44.4685 50.6425L44.5224 50.5352L44.5774 50.4282L44.6337 50.3216L44.6911 50.2153L44.7496 50.1094L44.8094 50.0039L44.8703 49.8988L44.9324 49.7941L44.9956 49.6898L45.0601 49.5859L45.1257 49.4825L45.1924 49.3795L45.2604 49.277L45.3295 49.175L45.3997 49.0734L45.4711 48.9724L45.5436 48.8719L45.6173 48.7719L45.6922 48.6725L45.7682 48.5736L45.8453 48.4753L45.9235 48.3776L46.0029 48.2804L46.0835 48.1839L46.1651 48.088L46.2479 47.9927L46.3317 47.8981L46.4167 47.8041L46.5028 47.7108L46.59 47.6181L46.6783 47.5262L46.7677 47.435L46.8582 47.3444L46.9498 47.2547L47.0424 47.1656L47.1362 47.0773L47.2309 46.9898L47.3268 46.9031L47.4237 46.8171L47.5217 46.732L47.6207 46.6476L47.7207 46.5641L47.8218 46.4814L47.9239 46.3996L48.027 46.3187L48.1311 46.2386L48.2362 46.1594L48.3424 46.0811L48.4495 46.0037L48.5576 45.9273L48.6667 45.8517L48.7767 45.7772L48.8877 45.7035L48.9997 45.6309L49.1126 45.5592L49.2265 45.4885L49.3413 45.4188L49.457 45.3502L49.5736 45.2825L49.6911 45.2159L49.8096 45.1504L49.9289 45.0859L50.0491 45.0225L50.1701 44.9601L50.2921 44.8989L50.4148 44.8387L50.5384 44.7797L50.6629 44.7217L50.7882 44.665L50.9143 44.6093L51.0411 44.5548L51.1688 44.5015L51.2973 44.4494L51.4265 44.3984L51.5565 44.3486L51.6873 44.3001L51.8188 44.2527L51.951 44.2066L52.084 44.1617L52.2176 44.1181L52.352 44.0757L52.487 44.0346L52.6227 43.9948L52.7591 43.9562L52.8962 43.9189L53.0338 43.8829L53.1721 43.8483L53.3111 43.8149L53.4506 43.7829L53.5907 43.7522L53.7314 43.7229L53.8727 43.6949L54.0145 43.6683L54.1569 43.643L54.2998 43.6191L54.4432 43.5966L54.5871 43.5755L54.7316 43.5558L54.8765 43.5375L55.0218 43.5207L55.1676 43.5052L55.3139 43.4912L55.4606 43.4786L55.6077 43.4675L55.7552 43.4578L55.903 43.4496L56.0513 43.4428L56.1999 43.4375L56.3488 43.4337L56.4981 43.4314L56.6477 43.4305L56.7976 43.4312L56.9478 43.4334L57.0982 43.437L57.2489 43.4422L57.3999 43.4489L57.5511 43.4572L57.7024 43.4669L57.854 43.4782L58.0058 43.4911L58.1577 43.5055L58.3098 43.5214L58.4621 43.5389L58.6144 43.558L58.7669 43.5786L58.9194 43.6008L59.072 43.6245L59.2247 43.6499L59.3774 43.6768L59.5302 43.7053L59.6829 43.7353L59.8357 43.767L59.9885 43.8003L60.1412 43.8351L60.2938 43.8716L60.4464 43.9096L60.5989 43.9493L60.7513 43.9906L60.9036 44.0334L61.0558 44.0779L61.2078 44.124L61.3596 44.1717L61.5113 44.2211L61.6628 44.272L61.814 44.3245L61.965 44.3787L62.1158 44.4345L62.2663 44.4919L62.4165 44.551L62.5665 44.6116L62.7161 44.6739L62.8653 44.7378L63.0143 44.8033L63.1628 44.8704L63.311 44.9392L63.4588 45.0095L63.6062 45.0815L63.7531 45.1551L63.8996 45.2304L64.0456 45.3072L64.1911 45.3857L64.3362 45.4657L64.4807 45.5474L64.6246 45.6307L64.7681 45.7156L64.9109 45.802L65.0532 45.8901L65.1948 45.9798L65.3358 46.0711L65.4762 46.164L65.616 46.2584L65.755 46.3545L65.8934 46.4521L66.0311 46.5513L66.168 46.6521L66.3042 46.7544L66.4396 46.8583L66.5743 46.9638L66.7082 47.0708L66.8412 47.1794L66.9734 47.2895L67.1048 47.4012L67.2353 47.5143L67.365 47.6291L67.4937 47.7453L67.6216 47.8631L67.7485 47.9823L67.8744 48.1031L67.9994 48.2254L68.1234 48.3492L68.2464 48.4744L68.3684 48.6011L68.4894 48.7293L68.6093 48.859L68.7281 48.9901L68.8459 49.1227L68.9626 49.2567L69.0781 49.3921L69.1925 49.5289L69.3058 49.6672L69.4179 49.8069L69.5289 49.9479L69.6386 50.0904L69.7471 50.2342L69.8544 50.3794L69.9604 50.526L70.0652 50.6739L70.1687 50.8231L70.2709 50.9737L70.3718 51.1256L70.4714 51.2788L70.5696 51.4333L70.6665 51.589L70.762 51.7461L70.8562 51.9044L70.9489 52.064L71.0402 52.2248L71.13 52.3868L71.2185 52.5501L71.3054 52.7145L71.3909 52.8802L71.4749 53.047L71.5574 53.215L71.6383 53.3842L71.7177 53.5545L71.7956 53.7259L71.8719 53.8984L71.9466 54.0721L72.0198 54.2468L72.0913 54.4226L72.1612 54.5995L72.2294 54.7774L72.2961 54.9563L72.361 55.1363L72.4243 55.3172L72.4859 55.4992L72.5457 55.6821L72.6039 55.8659L72.6603 56.0508L72.715 56.2365L72.768 56.4231L72.8192 56.6107L72.8685 56.7991L72.9162 56.9884L72.962 57.1785L73.0059 57.3695L73.0481 57.5613L73.0884 57.7539L73.1269 57.9472L73.1635 58.1413L73.1982 58.3362L73.2311 58.5318L73.262 58.7281L73.291 58.9251L73.3182 59.1227L73.3434 59.3211L73.3666 59.52L73.3879 59.7196L73.4073 59.9198L73.4247 60.1206L73.4401 60.3219L73.4535 60.5238L73.4649 60.7262L73.4743 60.9292L73.4817 61.1326L73.4871 61.3365L73.4905 61.5408L73.4918 61.7456L73.491 61.9508L73.4882 62.1564L73.4834 62.3623L73.4764 62.5686L73.4674 62.7753L73.4563 62.9822L73.4431 63.1895L73.4278 63.397L73.4104 63.6047L73.3908 63.8127L73.3692 64.021L73.3454 64.2294L73.3195 64.4379L73.2914 64.6466L73.2612 64.8555L73.2289 65.0644L73.1944 65.2735L73.1577 65.4826L73.1189 65.6917L73.0778 65.9008L73.0347 66.11L72.9893 66.3191L72.9417 66.5282L72.892 66.7372L72.8401 66.9461L72.786 67.1549L72.7296 67.3636L72.6711 67.5721L72.6104 67.7805L72.5474 67.9886L72.4823 68.1965L72.415 68.4042L72.3454 68.6116L72.2736 68.8187L72.1996 69.0255L72.1234 69.2319L72.045 69.438L71.9643 69.6437L71.8815 69.849L71.7964 70.0539L71.7091 70.2583L71.6196 70.4622L71.5278 70.6657L71.4339 70.8686L71.3377 71.071L71.2393 71.2728L71.1387 71.474L71.0359 71.6746L70.9309 71.8745L70.8237 72.0738L70.7142 72.2725L70.6026 72.4704L70.4887 72.6675L70.3727 72.8639L70.2545 73.0596L70.134 73.2544L70.0114 73.4484L69.8866 73.6416L69.7596 73.8339L69.6305 74.0252L69.4992 74.2157L69.3657 74.4052L69.23 74.5938L69.0922 74.7814L68.9523 74.9679L68.8102 75.1534L68.666 75.3379L68.5196 75.5212L68.3711 75.7035L68.2205 75.8846L68.0678 76.0646L67.913 76.2434L67.7561 76.4209L67.5972 76.5973L67.4361 76.7724L67.273 76.9463L67.1078 77.1188L66.9405 77.29L66.7712 77.4599L66.5999 77.6284L66.4266 77.7956L66.2512 77.9613L66.0739 78.1256L65.8945 78.2884L65.7132 78.4498L65.5299 78.6096L65.3446 78.768L65.1574 78.9247L64.9683 79.0799L64.7772 79.2336L64.5842 79.3856L64.3894 79.5359L64.1926 79.6846L63.994 79.8317L63.7934 79.977L63.5911 80.1206L63.3869 80.2624L63.1809 80.4025L62.9731 80.5408L62.7635 80.6773L62.5521 80.8119L62.339 80.9447L62.1241 81.0756L61.9075 81.2046L61.6892 81.3317L61.4691 81.4569L61.2474 81.5801L61.024 81.7013L60.799 81.8205L60.5723 81.9377L60.344 82.0529L60.1142 82.1659L59.8827 82.2769L59.6497 82.3858L59.4151 82.4926L59.179 82.5973L58.9414 82.6997L58.7023 82.8L58.4617 82.8981L58.2197 82.994L57.9762 83.0876L57.7313 83.179L57.4851 83.2681L57.2374 83.3549L56.9884 83.4394L56.7381 83.5216L56.4865 83.6014L56.2336 83.6789L55.9794 83.754L55.7239 83.8266L55.4672 83.8969L55.2094 83.9647L54.9503 84.0301L54.6901 84.093L54.4287 84.1534L54.1662 84.2113L53.9027 84.2667L53.638 84.3196L53.3723 84.3699L53.1056 84.4177L52.8379 84.4628L52.5693 84.5054L52.2996 84.5454L52.0291 84.5827L51.7576 84.6174L51.4853 84.6495L51.2121 84.6789L50.9381 84.7056L50.6632 84.7296L50.3876 84.7509L50.1113 84.7695L49.8342 84.7854L49.5564 84.7985L49.278 84.8088L48.9989 84.8164L48.7192 84.8212L48.4388 84.8232L48.158 84.8224L47.8766 84.8188L47.5946 84.8124L47.3122 84.8031L47.0293 84.791L46.746 84.776L46.4623 84.7582L46.1782 84.7374L45.8938 84.7138L45.609 84.6873L45.324 84.6579L45.0387 84.6256L44.7532 84.5903L44.4674 84.5522L44.1815 84.511L43.8954 84.467L43.6093 84.42L43.323 84.37L43.0367 84.3171L42.7503 84.2611L42.464 84.2023L42.1777 84.1404L41.8914 84.0755L41.6052 84.0077L41.3192 83.9368L41.0333 83.8629L40.7476 83.7861L40.4621 83.7062L40.1768 83.6233L39.8918 83.5374L39.6072 83.4484L39.3228 83.3564L39.0388 83.2614L38.7553 83.1634L38.4721 83.0624L38.1894 82.9583L37.9072 82.8511L37.6256 82.741L37.3444 82.6277L37.0639 82.5115L36.784 82.3922L36.5047 82.2699L36.2261 82.1445L35.9482 82.0162L35.6711 81.8847L35.3948 81.7503L35.1192 81.6128L34.8445 81.4723L34.5707 81.3287L34.2977 81.1821L34.0257 81.0325L33.7547 80.8799L33.4847 80.7243L33.2157 80.5657L32.9477 80.404L32.6809 80.2394L32.4152 80.0718L32.1506 79.9011L31.8873 79.7275L31.6252 79.5509L31.3643 79.3714L31.1047 79.1889L30.8465 79.0034L30.5896 78.815L30.334 78.6236L30.0799 78.4293L29.8273 78.2321L29.5761 78.0319L29.3265 77.8289L29.0784 77.6229L28.8319 77.4141L28.5869 77.2024L28.3437 76.9878L28.1021 76.7703L27.8622 76.5501L27.624 76.3269L27.3877 76.101L27.1531 75.8722L26.9204 75.6407L26.6895 75.4064L26.4605 75.1693L26.2335 74.9294L26.0084 74.6868L25.7853 74.4415L25.5642 74.1934L25.3452 73.9427L25.1283 73.6893L24.9134 73.4332L24.7008 73.1744L24.4903 72.913L24.282 72.649L24.0759 72.3824L23.8722 72.1132L23.6707 71.8415L23.4715 71.5672L23.2747 71.2903L23.0803 71.011L22.8884 70.7291L22.6988 70.4448L22.5118 70.1581L22.3272 69.8689L22.1452 69.5772L21.9658 69.2832L21.7889 68.9868L21.6147 68.6881L21.4432 68.387L21.2743 68.0837L21.1081 67.778L20.9447 67.4701L20.784 67.16L20.6261 66.8476L20.4711 66.533L20.3189 66.2163L20.1695 65.8974L20.0231 65.5764L19.8796 65.2533L19.7391 64.9282L19.6015 64.601L19.467 64.2718L19.3355 63.9406L19.207 63.6074L19.0817 63.2723L18.9594 62.9353L18.8403 62.5964L18.7244 62.2557L18.6116 61.9131L18.5021 61.5687L18.3958 61.2226L18.2927 60.8747L18.193 60.5251L18.0965 60.1738L18.0034 59.8209L17.9136 59.4663L17.8273 59.1101L17.7443 58.7524L17.6647 58.3932L17.5886 58.0325L17.5159 57.6703L17.4468 57.3066L17.3811 56.9416L17.319 56.5752L17.2604 56.2074L17.2054 55.8384L17.154 55.468L17.1061 55.0965L17.062 54.7237L17.0214 54.3498L16.9846 53.9747L16.9514 53.5985L16.9219 53.2213L16.8962 52.843L16.8742 52.4638L16.8559 52.0835L16.8414 51.7024L16.8307 51.3203L16.8239 50.9374L16.8208 50.5537L16.8216 50.1692L16.8262 49.784L16.8347 49.398L16.8471 49.0114L16.8634 48.6242L16.8836 48.2364L16.9077 47.848L16.9358 47.4591L16.9678 47.0697L17.0038 46.6799L17.0437 46.2896L17.0877 45.8991L17.1356 45.5082L17.1876 45.117L17.2435 44.7255L17.3035 44.3339L17.3676 43.9421L17.4357 43.5502L17.5078 43.1582L17.5841 42.7661L17.6644 42.3741L17.7487 41.9821L17.8372 41.5902L17.9298 41.1984L18.0265 40.8067L18.1273 40.4153L18.2322 40.0241L18.3412 39.6332L18.4544 39.2426L18.5717 38.8524L18.6932 38.4626L18.8187 38.0733L18.9485 37.6844L19.0824 37.2961L19.2204 36.9084L19.3626 36.5214L19.5089 36.1349L19.6594 35.7492L19.8141 35.3643L19.9729 34.9801L20.1359 34.5968L20.303 34.2144L20.4743 33.8329L20.6498 33.4524L20.8294 33.0729L21.0131 32.6944L21.2011 32.3171L21.3931 31.9409L21.5893 31.5659L21.7897 31.1921L21.9941 30.8196L22.2028 30.4484L22.4155 30.0786L22.6324 29.7102L22.8533 29.3433L23.0784 28.9778L23.3076 28.6139L23.5409 28.2516L23.7782 27.8909L24.0197 27.5319L24.2652 27.1746L24.5147 26.8191L24.7684 26.4653L25.026 26.1134L25.2877 25.7635L25.5534 25.4154L25.8231 25.0694L26.0968 24.7253L26.3745 24.3834L26.6562 24.0435L26.9418 23.7058L27.2313 23.3703L27.5248 23.0371L27.8222 22.7061L28.1235 22.3775L28.4286 22.0513L28.7376 21.7275L29.0505 21.4061L29.3672 21.0873L29.6878 20.771L30.0121 20.4573L30.3402 20.1462L30.672 19.8378L31.0076 19.5322L31.3469 19.2293L31.6899 18.9292L32.0366 18.6319L32.3869 18.3376L32.7409 18.0462L33.0984 17.7578L33.4596 17.4724L33.8243 17.19L34.1926 16.9108L34.5644 16.6347L34.9397 16.3618L35.3184 16.0921L35.7006 15.8257L36.0862 15.5626L36.4752 15.3028L36.8676 15.0464L37.2632 14.7935L37.6622 14.544L38.0645 14.2981L38.47 14.0557L38.8788 13.8169L39.2907 13.5817L39.7058 13.3502L40.124 13.1224L40.5454 12.8983L40.9697 12.678L41.3972 12.4616L41.8276 12.249L42.261 12.0403L42.6973 11.8355L43.1366 11.6347L43.5787 11.438L44.0236 11.2452L44.4714 11.0566L44.9219 10.872L45.3751 10.6917L45.831 10.5155L46.2896 10.3435L46.7508 10.1758L47.2146 10.0124L47.6809 9.8533L48.1498 9.69858L48.6211 9.54826L49.0948 9.40236L49.5709 9.26092L50.0493 9.12397L50.5301 8.99156L51.0131 8.86371L51.4984 8.74044L51.9858 8.6218L52.4754 8.5078L52.9671 8.39849L53.4608 8.2939" stroke="url(#paint4_linear_4761_2300)" stroke-width="0.25"/>
<path d="M51.5693 55.6638L51.5424 55.6328L51.5158 55.6016L51.4894 55.57L51.4632 55.538L51.4373 55.5058L51.4118 55.4732L51.3864 55.4403L51.3614 55.4071L51.3366 55.3736L51.3122 55.3397L51.288 55.3056L51.2641 55.2711L51.2405 55.2364L51.2173 55.2013L51.1943 55.1659L51.1716 55.1302L51.1493 55.0943L51.1272 55.058L51.1055 55.0215L51.0841 54.9846L51.0631 54.9475L51.0423 54.9101L51.0219 54.8724L51.0019 54.8344L50.9822 54.7961L50.9628 54.7576L50.9438 54.7188L50.9251 54.6798L50.9068 54.6405L50.8888 54.6009L50.8712 54.561L50.854 54.521L50.8371 54.4806L50.8206 54.44L50.8045 54.3992L50.7888 54.3581L50.7734 54.3168L50.7584 54.2753L50.7438 54.2335L50.7296 54.1915L50.7158 54.1492L50.7024 54.1068L50.6894 54.0641L50.6768 54.0212L50.6646 53.9781L50.6528 53.9348L50.6414 53.8913L50.6304 53.8476L50.6199 53.8037L50.6097 53.7597L50.6 53.7154L50.5907 53.6709L50.5819 53.6263L50.5734 53.5815L50.5654 53.5365L50.5579 53.4913L50.5507 53.446L50.5441 53.4005L50.5378 53.3549L50.532 53.3091L50.5267 53.2632L50.5218 53.2171L50.5173 53.1709L50.5133 53.1245L50.5098 53.0781L50.5067 53.0315L50.5041 52.9847L50.5019 52.9379L50.5002 52.8909L50.499 52.8439L50.4982 52.7967L50.498 52.7494L50.4982 52.702L50.4988 52.6546L50.5 52.607L50.5016 52.5594L50.5037 52.5117L50.5063 52.4639L50.5093 52.4161L50.5129 52.3682L50.5169 52.3202L50.5214 52.2722L50.5265 52.2242L50.532 52.176L50.538 52.1279L50.5445 52.0797L50.5515 52.0315L50.5589 51.9833L50.5669 51.935L50.5754 51.8868L50.5844 51.8385L50.5939 51.7902L50.6039 51.7419L50.6144 51.6937L50.6254 51.6454L50.6369 51.5972L50.6489 51.5489L50.6614 51.5007L50.6744 51.4526L50.6879 51.4044L50.702 51.3564L50.7165 51.3083L50.7316 51.2603L50.7471 51.2124L50.7632 51.1645L50.7798 51.1167L50.7969 51.069L50.8145 51.0213L50.8326 50.9738L50.8513 50.9263L50.8704 50.8789L50.8901 50.8316L50.9102 50.7844L50.9309 50.7374L50.9521 50.6904L50.9738 50.6436L50.996 50.5969L51.0188 50.5503L51.042 50.5038L51.0658 50.4575L51.09 50.4114L51.1148 50.3654L51.1401 50.3196L51.1659 50.2739L51.1922 50.2284L51.219 50.183L51.2463 50.1379L51.2741 50.0929L51.3024 50.0482L51.3313 50.0036L51.3606 49.9592L51.3904 49.915L51.4207 49.8711L51.4516 49.8273L51.4829 49.7838L51.5147 49.7405L51.5471 49.6975L51.5799 49.6547L51.6132 49.6121L51.647 49.5698L51.6813 49.5277L51.7161 49.4859L51.7513 49.4444L51.7871 49.4031L51.8233 49.3622L51.86 49.3215L51.8972 49.281L51.9349 49.2409L51.9731 49.2011L52.0117 49.1616L52.0508 49.1224L52.0903 49.0835L52.1304 49.0449L52.1709 49.0067L52.2118 48.9688L52.2532 48.9312L52.2951 48.894L52.3374 48.8571L52.3802 48.8206L52.4234 48.7844L52.4671 48.7486L52.5112 48.7131L52.5558 48.6781L52.6008 48.6434L52.6462 48.6091L52.6921 48.5751L52.7384 48.5416L52.7851 48.5085L52.8323 48.4757L52.8798 48.4434L52.9278 48.4115L52.9762 48.38L53.025 48.349L53.0742 48.3183L53.1239 48.2881L53.1739 48.2584L53.2243 48.2291L53.2751 48.2002L53.3263 48.1718L53.3779 48.1438L53.4298 48.1163L53.4822 48.0893L53.5349 48.0627L53.588 48.0366L53.6414 48.011L53.6952 47.9859L53.7494 47.9613L53.8039 47.9371L53.8587 47.9135L53.9139 47.8904L53.9695 47.8677L54.0254 47.8456L54.0816 47.824L54.1381 47.803L54.195 47.7824L54.2521 47.7624L54.3096 47.7429L54.3674 47.724L54.4255 47.7056L54.4839 47.6877L54.5426 47.6704L54.6016 47.6536L54.6608 47.6374L54.7204 47.6218L54.7802 47.6067L54.8403 47.5922L54.9006 47.5783L54.9612 47.565L55.022 47.5522L55.0831 47.54L55.1445 47.5284L55.206 47.5174L55.2678 47.507L55.3299 47.4972L55.3921 47.488L55.4546 47.4794L55.5173 47.4714L55.5801 47.4641L55.6432 47.4573L55.7065 47.4512L55.7699 47.4456L55.8335 47.4407L55.8973 47.4365L55.9613 47.4328L56.0254 47.4298L56.0897 47.4275L56.1541 47.4257L56.2187 47.4247L56.2834 47.4242L56.3482 47.4244L56.4132 47.4253L56.4783 47.4268L56.5435 47.429L56.6088 47.4318L56.6742 47.4353L56.7397 47.4394L56.8052 47.4442L56.8709 47.4497L56.9366 47.4558L57.0024 47.4627L57.0683 47.4701L57.1342 47.4783L57.2002 47.4871L57.2662 47.4967L57.3322 47.5069L57.3983 47.5177L57.4643 47.5293L57.5304 47.5415L57.5965 47.5545L57.6626 47.5681L57.7287 47.5824L57.7948 47.5974L57.8608 47.6131L57.9269 47.6295L57.9929 47.6466L58.0588 47.6643L58.1247 47.6828L58.1906 47.702L58.2563 47.7218L58.322 47.7424L58.3877 47.7636L58.4532 47.7856L58.5187 47.8082L58.584 47.8316L58.6493 47.8556L58.7144 47.8804L58.7794 47.9059L58.8443 47.932L58.9091 47.9589L58.9737 47.9864L59.0381 48.0147L59.1024 48.0437L59.1666 48.0733L59.2305 48.1037L59.2943 48.1348L59.3579 48.1665L59.4213 48.199L59.4845 48.2321L59.5475 48.266L59.6103 48.3006L59.6728 48.3358L59.7352 48.3718L59.7972 48.4084L59.8591 48.4457L59.9207 48.4838L59.982 48.5225L60.043 48.5619L60.1038 48.602L60.1643 48.6428L60.2245 48.6843L60.2844 48.7264L60.344 48.7693L60.4033 48.8128L60.4623 48.857L60.5209 48.9019L60.5792 48.9474L60.6372 48.9936L60.6948 49.0405L60.7521 49.0881L60.809 49.1363L60.8655 49.1852L60.9216 49.2348L60.9774 49.285L61.0327 49.3359L61.0877 49.3874L61.1422 49.4396L61.1964 49.4924L61.2501 49.5459L61.3033 49.6L61.3562 49.6548L61.4086 49.7101L61.4605 49.7662L61.512 49.8228L61.563 49.8801L61.6135 49.938L61.6636 49.9965L61.7132 50.0557L61.7622 50.1154L61.8108 50.1758L61.8589 50.2367L61.9064 50.2983L61.9534 50.3605L61.9999 50.4232L62.0459 50.4865L62.0913 50.5505L62.1361 50.615L62.1804 50.6801L62.2241 50.7457L62.2673 50.8119L62.3099 50.8787L62.3519 50.946L62.3932 51.0139L62.434 51.0824L62.4742 51.1513L62.5138 51.2209L62.5528 51.2909L62.5911 51.3615L62.6288 51.4326L62.6659 51.5042L62.7023 51.5763L62.7381 51.6489L62.7732 51.7221L62.8076 51.7957L62.8414 51.8698L62.8745 51.9444L62.9069 52.0195L62.9386 52.095L62.9696 52.171L63 52.2475L63.0296 52.3244L63.0585 52.4018L63.0867 52.4796L63.1142 52.5578L63.1409 52.6365L63.1669 52.7156L63.1922 52.7951L63.2167 52.875L63.2404 52.9553L63.2634 53.0361L63.2857 53.1172L63.3071 53.1986L63.3278 53.2805L63.3477 53.3627L63.3668 53.4453L63.3852 53.5282L63.4027 53.6115L63.4195 53.6951L63.4354 53.7791L63.4505 53.8634L63.4648 53.9479L63.4783 54.0328L63.491 54.118L63.5028 54.2035L63.5138 54.2893L63.524 54.3754L63.5333 54.4617L63.5418 54.5483L63.5494 54.6351L63.5562 54.7222L63.5621 54.8095L63.5672 54.8971L63.5713 54.9849L63.5746 55.0729L63.5771 55.1611L63.5786 55.2494L63.5793 55.338L63.5791 55.4268L63.578 55.5157L63.576 55.6048L63.5731 55.6941L63.5693 55.7834L63.5646 55.873L63.559 55.9626L63.5525 56.0524L63.5451 56.1423L63.5367 56.2323L63.5275 56.3224L63.5173 56.4125L63.5062 56.5028L63.4942 56.5931L63.4812 56.6834L63.4673 56.7738L63.4525 56.8643L63.4367 56.9547L63.42 57.0452L63.4024 57.1357L63.3838 57.2262L63.3643 57.3167L63.3439 57.4072L63.3225 57.4976L63.3001 57.588L63.2768 57.6783L63.2526 57.7686L63.2273 57.8589L63.2012 57.949L63.1741 58.0391L63.146 58.1291L63.117 58.2189L63.087 58.3087L63.0561 58.3983L63.0242 58.4878L62.9913 58.5771L62.9575 58.6663L62.9227 58.7553L62.887 58.8442L62.8503 58.9329L62.8126 59.0213L62.774 59.1096L62.7344 59.1977L62.6939 59.2855L62.6524 59.3731L62.6099 59.4604L62.5665 59.5475L62.5222 59.6343L62.4768 59.7209L62.4305 59.8072L62.3833 59.8931L62.3351 59.9788L62.286 60.0642L62.2359 60.1492L62.1848 60.2339L62.1328 60.3182L62.0799 60.4022L62.026 60.4858L61.9712 60.5691L61.9154 60.6519L61.8587 60.7344L61.8011 60.8164L61.7425 60.8981L61.683 60.9793L61.6226 61.06L61.5612 61.1404L61.4989 61.2202L61.4357 61.2996L61.3715 61.3785L61.3065 61.457L61.2405 61.5349L61.1737 61.6123L61.1059 61.6892L61.0372 61.7656L60.9676 61.8414L60.8972 61.9167L60.8258 61.9914L60.7535 62.0656L60.6804 62.1392L60.6064 62.2121L60.5315 62.2845L60.4557 62.3563L60.3791 62.4275L60.3016 62.498L60.2232 62.5679L60.144 62.6371L60.064 62.7057L59.9831 62.7736L59.9013 62.8409L59.8188 62.9074L59.7354 62.9733L59.6511 63.0384L59.5661 63.1029L59.4802 63.1666L59.3936 63.2295L59.3061 63.2918L59.2179 63.3532L59.1288 63.4139L59.039 63.4739L58.9484 63.533L58.8571 63.5914L58.7649 63.6489L58.6721 63.7057L58.5784 63.7616L58.484 63.8167L58.3889 63.8709L58.2931 63.9243L58.1965 63.9769L58.0992 64.0286L58.0012 64.0794L57.9026 64.1293L57.8032 64.1784L57.7031 64.2265L57.6024 64.2737L57.5009 64.32L57.3989 64.3654L57.2961 64.4099L57.1928 64.4534L57.0887 64.4959L56.9841 64.5375L56.8788 64.5782L56.773 64.6178L56.6665 64.6565L56.5594 64.6942L56.4517 64.7309L56.3435 64.7665L56.2347 64.8012L56.1253 64.8348L56.0154 64.8675L55.9049 64.899L55.7939 64.9295L55.6824 64.959L55.5704 64.9874L55.4579 65.0148L55.3448 65.0411L55.2313 65.0662L55.1173 65.0903L55.0029 65.1134L54.888 65.1353L54.7726 65.1561L54.6569 65.1757L54.5407 65.1943L54.424 65.2117L54.307 65.228L54.1896 65.2432L54.0718 65.2572L53.9537 65.27L53.8351 65.2817L53.7163 65.2923L53.5971 65.3016L53.4775 65.3098L53.3577 65.3168L53.2375 65.3226L53.1171 65.3273L52.9964 65.3307L52.8754 65.3329L52.7541 65.3339L52.6326 65.3337L52.5109 65.3323L52.3889 65.3297L52.2667 65.3258L52.1444 65.3207L52.0218 65.3144L51.8991 65.3068L51.7762 65.298L51.6531 65.2879L51.5299 65.2766L51.4066 65.2641L51.2832 65.2502L51.1597 65.2351L51.036 65.2188L50.9123 65.2011L50.7886 65.1822L50.6648 65.162L50.5409 65.1406L50.417 65.1178L50.2931 65.0938L50.1692 65.0684L50.0453 65.0418L49.9215 65.0139L49.7976 64.9847L49.6739 64.9542L49.5502 64.9224L49.4265 64.8893L49.303 64.8549L49.1795 64.8192L49.0562 64.7822L48.933 64.7438L48.81 64.7042L48.6871 64.6633L48.5644 64.621L48.4418 64.5774L48.3195 64.5326L48.1974 64.4864L48.0755 64.4389L47.9538 64.39L47.8324 64.3399L47.7112 64.2884L47.5904 64.2357L47.4698 64.1816L47.3495 64.1262L47.2296 64.0695L47.11 64.0115L46.9907 63.9521L46.8718 63.8915L46.7533 63.8295L46.6351 63.7663L46.5174 63.7017L46.4001 63.6358L46.2832 63.5687L46.1667 63.5002L46.0507 63.4304L45.9352 63.3593L45.8202 63.287L45.7057 63.2133L45.5917 63.1383L45.4782 63.0621L45.3652 62.9845L45.2529 62.9057L45.1411 62.8256L45.0298 62.7442L44.9192 62.6616L44.8092 62.5777L44.6998 62.4925L44.591 62.4061L44.4829 62.3184L44.3755 62.2294L44.2688 62.1392L44.1627 62.0477L44.0574 61.955L43.9527 61.8611L43.8489 61.7659L43.7457 61.6695L43.6434 61.5719L43.5418 61.4731L43.441 61.3731L43.341 61.2718L43.2418 61.1694L43.1435 61.0657L43.046 60.9609L42.9493 60.8549L42.8536 60.7477L42.7587 60.6394L42.6647 60.5299L42.5717 60.4192L42.4795 60.3074L42.3883 60.1944L42.2981 60.0803L42.2088 59.9651L42.1205 59.8488L42.0332 59.7313L41.947 59.6128L41.8617 59.4931L41.7774 59.3724L41.6943 59.2506L41.6121 59.1277L41.5311 59.0037L41.4511 58.8787L41.3722 58.7527L41.2944 58.6256L41.2178 58.4975L41.1422 58.3683L41.0679 58.2382L40.9947 58.107L40.9226 57.9749L40.8518 57.8418L40.7821 57.7077L40.7136 57.5727L40.6464 57.4367L40.5804 57.2998L40.5156 57.1619L40.4521 57.0231L40.3899 56.8834L40.3289 56.7429L40.2692 56.6014L40.2109 56.4591L40.1538 56.3159L40.0981 56.1718L40.0437 56.0269L39.9906 55.8812L39.9389 55.7347L39.8886 55.5873L39.8396 55.4392L39.7921 55.2903L39.7459 55.1406L39.7011 54.9902L39.6578 54.839L39.6159 54.6871L39.5754 54.5345L39.5364 54.3812L39.4989 54.2271L39.4628 54.0724L39.4282 53.9171L39.3951 53.7611L39.3634 53.6044L39.3333 53.4472L39.3047 53.2893L39.2777 53.1308L39.2521 52.9718L39.2281 52.8122L39.2057 52.652L39.1848 52.4913L39.1655 52.3301L39.1478 52.1683L39.1317 52.0061L39.1171 51.8434L39.1042 51.6802L39.0928 51.5166L39.0831 51.3526L39.075 51.1881L39.0685 51.0232L39.0637 50.858L39.0605 50.6923L39.059 50.5264L39.0592 50.36L39.061 50.1934L39.0644 50.0264L39.0696 49.8592L39.0764 49.6917L39.085 49.5239L39.0952 49.3559L39.1071 49.1876L39.1208 49.0192L39.1361 48.8505L39.1532 48.6817L39.172 48.5127L39.1926 48.3436L39.2148 48.1744L39.2388 48.005L39.2646 47.8356L39.2921 47.6661L39.3213 47.4965L39.3523 47.3269L39.3851 47.1573L39.4196 46.9876L39.4559 46.818L39.494 46.6484L39.5339 46.4789L39.5755 46.3094L39.6189 46.14L39.664 45.9708L39.711 45.8016L39.7598 45.6326L39.8103 45.4638L39.8626 45.2951L39.9168 45.1266L39.9727 44.9583L40.0304 44.7903L40.0899 44.6225L40.1512 44.455L40.2143 44.2878L40.2792 44.1208L40.3459 43.9542L40.4144 43.788L40.4847 43.6221L40.5568 43.4566L40.6307 43.2915L40.7064 43.1268L40.7839 42.9625L40.8632 42.7987L40.9443 42.6354L41.0271 42.4725L41.1118 42.3102L41.1983 42.1484L41.2866 41.9872L41.3766 41.8265L41.4684 41.6664L41.562 41.507L41.6574 41.3481L41.7546 41.1899L41.8536 41.0324L41.9543 40.8755L42.0568 40.7194L42.161 40.5639L42.267 40.4093L42.3748 40.2553L42.4843 40.1022L42.5956 39.9498L42.7086 39.7983L42.8234 39.6476L42.9399 39.4978L43.0581 39.3488L43.178 39.2007L43.2997 39.0536L43.423 38.9074L43.5481 38.7621L43.6749 38.6178L43.8034 38.4745L43.9335 38.3321L44.0654 38.1909L44.1989 38.0506L44.334 37.9115L44.4709 37.7734L44.6094 37.6364L44.7495 37.5005L44.8912 37.3658L45.0346 37.2322L45.1796 37.0998L45.3262 36.9686L45.4745 36.8386L45.6243 36.7099L45.7757 36.5824L45.9286 36.4561L46.0832 36.3312L46.2392 36.2075L46.3969 36.0852L46.556 35.9642L46.7167 35.8446L46.8789 35.7263L47.0426 35.6095L47.2078 35.494L47.3744 35.38L47.5426 35.2674L47.7122 35.1563L47.8832 35.0467L48.0557 34.9386L48.2295 34.832L48.4048 34.7269L48.5815 34.6234L48.7596 34.5214L48.939 34.4211L49.1198 34.3223L49.302 34.2252L49.4854 34.1297L49.6702 34.0358L49.8563 33.9436L50.0436 33.8531L50.2323 33.7643L50.4222 33.6772L50.6133 33.5919L50.8057 33.5083L50.9993 33.4264L51.1941 33.3464L51.39 33.2681L51.5872 33.1917L51.7854 33.117L51.9849 33.0442L52.1854 32.9733L52.387 32.9043L52.5898 32.8371L52.7935 32.7718L52.9984 32.7084L53.2043 32.647L53.4112 32.5875L53.6191 32.53L53.8279 32.4744L54.0378 32.4209L54.2486 32.3693L54.4603 32.3197L54.6729 32.2722L54.8864 32.2267L55.1008 32.1832L55.3161 32.1418L55.5321 32.1025L55.749 32.0653L55.9667 32.0302L56.1852 31.9971L56.4044 31.9663L56.6244 31.9375L56.8451 31.9109L57.0664 31.8865L57.2885 31.8642L57.5112 31.8441L57.7346 31.8262L57.9585 31.8105L58.1831 31.797L58.4082 31.7858L58.6339 31.7767L58.8601 31.7699L59.0868 31.7654L59.314 31.7632L59.5417 31.7632L59.7698 31.7654L59.9984 31.77L60.2273 31.7769L60.4566 31.7861L60.6863 31.7976L60.9163 31.8114L61.1467 31.8276L61.3773 31.846L61.6081 31.8669L61.8392 31.8901L62.0706 31.9156L62.3021 31.9436L62.5338 31.9739L62.7657 32.0065L62.9976 32.0416L63.2297 32.0791L63.4619 32.1189L63.6941 32.1612L63.9263 32.2059L64.1586 32.2529L64.3908 32.3024L64.623 32.3544L64.8551 32.4087L65.0871 32.4655L65.319 32.5247L65.5508 32.5864L65.7824 32.6505L66.0138 32.717L66.245 32.7861L66.476 32.8575L66.7066 32.9314L66.937 33.0078L67.1671 33.0866L67.3969 33.1679L67.6263 33.2516L67.8552 33.3378L68.0838 33.4265L68.3119 33.5176L68.5396 33.6112L68.7668 33.7072L68.9934 33.8057L69.2195 33.9067L69.4451 34.0101L69.67 34.1161L69.8943 34.2244L70.118 34.3352L70.341 34.4485L70.5633 34.5643L70.7848 34.6824L71.0056 34.8031L71.2257 34.9262L71.4449 35.0517L71.6633 35.1797L71.8809 35.3101L72.0975 35.4429L72.3133 35.5782L72.5281 35.7159L72.742 35.856L72.9549 35.9986L73.1667 36.1435L73.3776 36.2909L73.5873 36.4407L73.796 36.5928L74.0035 36.7473L74.2099 36.9043L74.4152 37.0636L74.6192 37.2252L74.822 37.3892L75.0236 37.5556L75.2239 37.7243L75.4229 37.8954L75.6206 38.0688L75.8169 38.2445L76.0119 38.4225L76.2054 38.6028L76.3975 38.7854L76.5882 38.9703L76.7774 39.1575L76.965 39.3469L77.1512 39.5386L77.3358 39.7325L77.5188 39.9286L77.7002 40.127L77.8799 40.3275L78.058 40.5303L78.2345 40.7352L78.4092 40.9423L78.5821 41.1515L78.7534 41.3629L78.9228 41.5765L79.0904 41.7921L79.2562 42.0098L79.4201 42.2297L79.5822 42.4516L79.7423 42.6755L79.9005 42.9015L80.0568 43.1295L80.2111 43.3596L80.3633 43.5916L80.5136 43.8256L80.6618 44.0615L80.8079 44.2995L80.9519 44.5393L81.0938 44.7811L81.2336 45.0247L81.3711 45.2702L81.5065 45.5176L81.6397 45.7668L81.7707 46.0179L81.8993 46.2707L82.0257 46.5253L82.1498 46.7817L82.2716 47.0398L82.391 47.2997L82.5081 47.5613L82.6227 47.8245L82.735 48.0894L82.8448 48.356L82.9521 48.6241L83.057 48.8939L83.1594 49.1652L83.2592 49.4381L83.3565 49.7126L83.4513 49.9885L83.5434 50.2659L83.633 50.5448L83.72 50.8252L83.8043 51.1069L83.886 51.3901L83.9649 51.6746L84.0412 51.9605L84.1148 52.2477L84.1856 52.5362L84.2537 52.8259L84.319 53.1169L84.3815 53.4092L84.4413 53.7026L84.4981 53.9972L84.5522 54.2929L84.6034 54.5898L84.6517 54.8878L84.6971 55.1868L84.7397 55.4868L84.7793 55.7879L84.8159 56.09L84.8496 56.393L84.8804 56.6969L84.9081 57.0018L84.9328 57.3075L84.9546 57.6141L84.9733 57.9214L84.9889 58.2296L85.0015 58.5385L85.0111 58.8482L85.0175 59.1585L85.0209 59.4696L85.0211 59.7812L85.0182 60.0935L85.0122 60.4064L85.003 60.7198L84.9907 61.0337L84.9752 61.3481L84.9566 61.663L84.9347 61.9783L84.9096 62.294L84.8814 62.61L84.8499 62.9264L84.8151 63.2431L84.7772 63.5601L84.7359 63.8773L84.6915 64.1947L84.6437 64.5123L84.5927 64.83L84.5384 65.1479L84.4808 65.4658L84.4199 65.7838L84.3557 66.1017L84.2882 66.4197L84.2173 66.7376L84.1432 67.0554L84.0657 67.373L83.9849 67.6906L83.9007 68.0079L83.8132 68.325L83.7224 68.6418L83.6282 68.9584L83.5306 69.2746L83.4297 69.5905L83.3254 69.906L83.2178 70.221L83.1068 70.5356L82.9924 70.8497L82.8747 71.1632L82.7536 71.4762L82.6291 71.7886L82.5012 72.1004L82.37 72.4114L82.2354 72.7218L82.0974 73.0314L81.956 73.3403L81.8113 73.6483L81.6632 73.9555L81.5117 74.2618L81.3569 74.5671L81.1987 74.8716L81.0372 75.175L80.8723 75.4774L80.704 75.7787L80.5324 76.079L80.3575 76.3781L80.1792 76.676L79.9976 76.9728L79.8126 77.2683L79.6244 77.5625L79.4328 77.8554L79.2379 78.147L79.0397 78.4371L78.8382 78.7259L78.6334 79.0132L78.4254 79.299L78.2141 79.5833L77.9995 79.866L77.7817 80.1471L77.5606 80.4266L77.3363 80.7045L77.1087 80.9806L76.878 81.2549L76.6441 81.5275L76.4069 81.7983L76.1666 82.0673L75.9232 82.3343L75.6765 82.5995L75.4268 82.8626L75.1739 83.1238L74.9179 83.383L74.6588 83.6401L74.3966 83.8951L74.1314 84.148L73.8631 84.3987L73.5918 84.6473L73.3175 84.8936L73.0401 85.1376L72.7598 85.3793L72.4765 85.6187L72.1902 85.8557L71.901 86.0903L71.6089 86.3225L71.3139 86.5522L71.016 86.7794L70.7153 87.004L70.4117 87.2261L70.1053 87.4455L69.7961 87.6623L69.4842 87.8765L69.1695 88.0879L68.852 88.2966L68.5318 88.5025L68.209 88.7057L67.8835 88.9059L67.5553 89.1033L67.2245 89.2979L66.8912 89.4894L66.5552 89.678L66.2167 89.8636L65.8757 90.0462L65.5322 90.2257L65.1863 90.4021L64.8378 90.5755L64.487 90.7456L64.1338 90.9126L63.7782 91.0763L63.4203 91.2368L63.0601 91.3941L62.6976 91.548L62.3328 91.6986L61.9658 91.8458L61.5967 91.9897L61.2253 92.1301L60.8519 92.2671L60.4763 92.4006L60.0987 92.5306L59.719 92.6571L59.3373 92.78L58.9537 92.8994L58.5681 93.0151L58.1806 93.1272L57.7912 93.2356L57.3999 93.3404L57.0069 93.4414L56.612 93.5387L56.2155 93.6322L55.8172 93.7219L55.4172 93.8078L55.0156 93.8899L54.6124 93.9681L54.2076 94.0424L53.8013 94.1128L53.3935 94.1792L52.9842 94.2418L52.5735 94.3003L52.1614 94.3548L51.7479 94.4053L51.3332 94.4518L50.9171 94.4942L50.4999 94.5325L50.0814 94.5667L49.6618 94.5968L49.241 94.6227L48.8192 94.6445L48.3963 94.6621L47.9725 94.6755L47.5476 94.6847L47.1219 94.6896L46.6952 94.6902L46.2678 94.6866L45.8395 94.6787L45.4105 94.6665L44.9807 94.65L44.5503 94.6292L44.1193 94.6039L43.6876 94.5744L43.2554 94.5404L42.8228 94.502L42.3896 94.4593L41.956 94.4121L41.5221 94.3604L41.0878 94.3043L40.6533 94.2438L40.2185 94.1788L39.7835 94.1093L39.3484 94.0353L38.9131 93.9568L38.4778 93.8738L38.0425 93.7862L37.6072 93.6942L37.1719 93.5976L36.7368 93.4964L36.3019 93.3907L35.8671 93.2804L35.4326 93.1655L34.9985 93.0461L34.5646 92.9221L34.1312 92.7935L33.6982 92.6603L33.2657 92.5225L32.8337 92.3801L32.4024 92.2331L31.9716 92.0815L31.5415 91.9253L31.1122 91.7644L30.6836 91.599L30.2559 91.4289L29.829 91.2542L29.403 91.0749L28.978 90.891L28.554 90.7024L28.1311 90.5093L27.7093 90.3115L27.2886 90.1091L26.8692 89.9021L26.451 89.6905L26.0341 89.4743L25.6185 89.2535L25.2044 89.0281L24.7917 88.7981L24.3805 88.5635L23.9709 88.3244L23.5628 88.0806L23.1564 87.8323L22.7517 87.5795L22.3488 87.3221L21.9476 87.0602L21.5483 86.7937L21.1508 86.5227L20.7553 86.2472L20.3618 85.9672L19.9704 85.6827L19.581 85.3938L19.1937 85.1003L18.8087 84.8024L18.4258 84.5001L18.0453 84.1934L17.6671 83.8822L17.2912 83.5666L16.9178 83.2467L16.5469 82.9224L16.1785 82.5937L15.8127 82.2607L15.4494 81.9234L15.0889 81.5818L14.7311 81.236L14.376 80.8858L14.0238 80.5314L13.6744 80.1728L13.3279 79.81L12.9844 79.443L12.6439 79.0719L12.3065 78.6966" stroke="url(#paint5_linear_4761_2300)" stroke-width="0.25"/>
<path d="M54.354 56.5037L54.3407 56.5425L54.3269 56.5813L54.3128 56.6199L54.2982 56.6585L54.2832 56.6971L54.2678 56.7355L54.2519 56.7739L54.2357 56.8122L54.219 56.8504L54.202 56.8885L54.1845 56.9265L54.1666 56.9644L54.1482 57.0022L54.1295 57.0399L54.1104 57.0775L54.0908 57.115L54.0708 57.1523L54.0504 57.1895L54.0296 57.2266L54.0084 57.2635L53.9868 57.3003L53.9648 57.337L53.9423 57.3735L53.9195 57.4099L53.8962 57.4461L53.8725 57.4821L53.8484 57.518L53.824 57.5537L53.7991 57.5892L53.7738 57.6246L53.7481 57.6597L53.722 57.6947L53.6955 57.7295L53.6686 57.764L53.6413 57.7984L53.6136 57.8326L53.5855 57.8665L53.557 57.9003L53.5281 57.9338L53.4988 57.9671L53.4691 58.0002L53.4391 58.033L53.4086 58.0656L53.3778 58.098L53.3466 58.1301L53.315 58.162L53.283 58.1936L53.2506 58.2249L53.2179 58.256L53.1848 58.2869L53.1513 58.3174L53.1174 58.3477L53.0832 58.3777L53.0486 58.4074L53.0137 58.4368L52.9783 58.4659L52.9427 58.4948L52.9066 58.5233L52.8702 58.5515L52.8335 58.5794L52.7964 58.607L52.7589 58.6343L52.7211 58.6613L52.683 58.6879L52.6445 58.7142L52.6057 58.7402L52.5665 58.7658L52.527 58.7911L52.4872 58.8161L52.447 58.8407L52.4066 58.8649L52.3658 58.8888L52.3247 58.9123L52.2832 58.9354L52.2415 58.9582L52.1994 58.9806L52.1571 59.0027L52.1144 59.0243L52.0714 59.0456L52.0282 59.0665L51.9846 59.0869L51.9408 59.107L51.8966 59.1267L51.8522 59.146L51.8075 59.1649L51.7626 59.1833L51.7173 59.2014L51.6718 59.219L51.626 59.2362L51.58 59.253L51.5337 59.2694L51.4871 59.2853L51.4403 59.3008L51.3933 59.3158L51.346 59.3304L51.2984 59.3446L51.2507 59.3583L51.2027 59.3716L51.1545 59.3844L51.106 59.3967L51.0573 59.4086L51.0085 59.4201L50.9594 59.431L50.9101 59.4415L50.8606 59.4515L50.8109 59.461L50.761 59.4701L50.7109 59.4787L50.6607 59.4868L50.6102 59.4944L50.5596 59.5015L50.5089 59.5081L50.4579 59.5142L50.4068 59.5198L50.3555 59.525L50.3041 59.5296L50.2526 59.5337L50.2009 59.5373L50.149 59.5404L50.0971 59.543L50.045 59.545L49.9927 59.5466L49.9404 59.5476L49.8879 59.5481L49.8354 59.5481L49.7827 59.5475L49.73 59.5465L49.6771 59.5448L49.6242 59.5427L49.5712 59.54L49.5181 59.5368L49.4649 59.5331L49.4117 59.5288L49.3584 59.524L49.305 59.5186L49.2516 59.5127L49.1982 59.5062L49.1447 59.4992L49.0912 59.4916L49.0376 59.4835L48.984 59.4748L48.9305 59.4656L48.8769 59.4558L48.8233 59.4455L48.7696 59.4346L48.716 59.4232L48.6624 59.4112L48.6089 59.3986L48.5553 59.3855L48.5018 59.3718L48.4483 59.3575L48.3948 59.3427L48.3414 59.3273L48.288 59.3114L48.2347 59.2948L48.1815 59.2778L48.1283 59.2601L48.0752 59.2419L48.0222 59.2231L47.9692 59.2038L47.9164 59.1839L47.8636 59.1634L47.811 59.1423L47.7584 59.1207L47.706 59.0985L47.6537 59.0757L47.6015 59.0524L47.5494 59.0285L47.4975 59.004L47.4457 58.979L47.3941 58.9534L47.3427 58.9272L47.2913 58.9005L47.2402 58.8732L47.1892 58.8453L47.1385 58.8169L47.0879 58.7879L47.0374 58.7583L46.9872 58.7282L46.9372 58.6975L46.8874 58.6663L46.8379 58.6345L46.7885 58.6021L46.7394 58.5692L46.6905 58.5357L46.6418 58.5016L46.5934 58.4671L46.5453 58.4319L46.4974 58.3962L46.4497 58.36L46.4024 58.3232L46.3553 58.2858L46.3085 58.248L46.2619 58.2095L46.2157 58.1706L46.1698 58.1311L46.1242 58.091L46.0789 58.0504L46.0339 58.0093L45.9892 57.9677L45.9449 57.9255L45.9009 57.8828L45.8572 57.8396L45.8139 57.7959L45.771 57.7516L45.7284 57.7068L45.6862 57.6615L45.6443 57.6157L45.6028 57.5694L45.5617 57.5226L45.521 57.4753L45.4807 57.4274L45.4408 57.3791L45.4013 57.3303L45.3622 57.281L45.3235 57.2312L45.2853 57.1809L45.2474 57.1302L45.2101 57.0789L45.1731 57.0272L45.1366 56.975L45.1006 56.9224L45.065 56.8693L45.0298 56.8157L44.9952 56.7617L44.961 56.7072L44.9273 56.6522L44.894 56.5969L44.8613 56.541L44.8291 56.4848L44.7973 56.4281L44.7661 56.371L44.7354 56.3134L44.7052 56.2555L44.6755 56.1971L44.6463 56.1383L44.6177 56.0791L44.5896 56.0195L44.5621 55.9595L44.5351 55.8991L44.5086 55.8383L44.4827 55.7772L44.4574 55.7156L44.4327 55.6537L44.4085 55.5914L44.3849 55.5288L44.3618 55.4658L44.3394 55.4024L44.3175 55.3387L44.2963 55.2747L44.2756 55.2103L44.2556 55.1455L44.2362 55.0805L44.2173 55.0151L44.1991 54.9494L44.1815 54.8834L44.1646 54.8171L44.1482 54.7505L44.1326 54.6836L44.1175 54.6164L44.1031 54.549L44.0893 54.4812L44.0762 54.4132L44.0638 54.3449L44.052 54.2764L44.0409 54.2076L44.0304 54.1386L44.0206 54.0693L44.0115 53.9998L44.0031 53.9301L43.9953 53.8601L43.9882 53.79L43.9819 53.7196L43.9762 53.649L43.9712 53.5782L43.9669 53.5073L43.9633 53.4361L43.9604 53.3648L43.9583 53.2933L43.9568 53.2217L43.956 53.1499L43.956 53.0779L43.9567 53.0059L43.9581 52.9336L43.9603 52.8613L43.9631 52.7888L43.9667 52.7162L43.9711 52.6436L43.9762 52.5708L43.982 52.4979L43.9885 52.4249L43.9958 52.3519L44.0039 52.2788L44.0127 52.2056L44.0222 52.1324L44.0325 52.0591L44.0436 51.9858L44.0554 51.9125L44.0679 51.8391L44.0813 51.7657L44.0953 51.6923L44.1102 51.6189L44.1258 51.5455L44.1422 51.4722L44.1593 51.3988L44.1772 51.3255L44.1959 51.2522L44.2154 51.1789L44.2356 51.1058L44.2566 51.0326L44.2784 50.9595L44.3009 50.8866L44.3243 50.8136L44.3484 50.7408L44.3732 50.6681L44.3989 50.5955L44.4253 50.523L44.4525 50.4506L44.4805 50.3784L44.5093 50.3063L44.5388 50.2343L44.5691 50.1625L44.6002 50.0909L44.6321 50.0194L44.6648 49.9482L44.6982 49.8771L44.7324 49.8062L44.7674 49.7355L44.8032 49.665L44.8397 49.5947L44.8771 49.5247L44.9152 49.4549L44.954 49.3853L44.9937 49.3161L45.0341 49.247L45.0753 49.1783L45.1172 49.1098L45.1599 49.0416L45.2034 48.9737L45.2477 48.9061L45.2927 48.8388L45.3385 48.7718L45.385 48.7052L45.4323 48.6389L45.4803 48.5729L45.5292 48.5073L45.5787 48.442L45.629 48.3772L45.6801 48.3127L45.7319 48.2486L45.7844 48.1848L45.8377 48.1215L45.8918 48.0586L45.9465 47.9961L46.002 47.9341L46.0582 47.8724L46.1152 47.8113L46.1729 47.7505L46.2313 47.6902L46.2904 47.6304L46.3502 47.5711L46.4108 47.5123L46.472 47.4539L46.534 47.3961L46.5966 47.3387L46.66 47.2819L46.724 47.2256L46.7888 47.1698L46.8542 47.1146L46.9203 47.0599L46.9871 47.0057L47.0545 46.9522L47.1227 46.8992L47.1914 46.8467L47.2609 46.7949L47.331 46.7437L47.4017 46.693L47.4731 46.643L47.5452 46.5936L47.6178 46.5448L47.6911 46.4967L47.7651 46.4492L47.8396 46.4023L47.9148 46.3561L47.9905 46.3106L48.0669 46.2657L48.1439 46.2215L48.2215 46.178L48.2996 46.1352L48.3783 46.0931L48.4577 46.0516L48.5375 46.011L48.618 45.971L48.699 45.9317L48.7805 45.8932L48.8626 45.8554L48.9453 45.8184L49.0285 45.7822L49.1122 45.7467L49.1964 45.7119L49.2811 45.678L49.3663 45.6448L49.4521 45.6124L49.5383 45.5808L49.625 45.55L49.7122 45.52L49.7998 45.4909L49.888 45.4625L49.9765 45.435L50.0656 45.4083L50.155 45.3825L50.2449 45.3575L50.3353 45.3334L50.426 45.3101L50.5172 45.2877L50.6087 45.2661L50.7007 45.2454L50.793 45.2256L50.8857 45.2067L50.9788 45.1887L51.0723 45.1716L51.1661 45.1554L51.2602 45.1401L51.3547 45.1257L51.4495 45.1122L51.5446 45.0996L51.6401 45.088L51.7358 45.0773L51.8319 45.0676L51.9282 45.0588L52.0248 45.0509L52.1217 45.044L52.2188 45.038L52.3162 45.0331L52.4138 45.029L52.5117 45.026L52.6097 45.0239L52.708 45.0228L52.8065 45.0227L52.9052 45.0236L53.0041 45.0254L53.1031 45.0283L53.2023 45.0321L53.3017 45.037L53.4012 45.0428L53.5008 45.0497L53.6006 45.0576L53.7005 45.0665L53.8004 45.0764L53.9005 45.0873L54.0007 45.0993L54.1009 45.1123L54.2012 45.1263L54.3016 45.1413L54.402 45.1574L54.5025 45.1745L54.6029 45.1927L54.7034 45.2119L54.8039 45.2321L54.9044 45.2534L55.0049 45.2758L55.1053 45.2992L55.2057 45.3236L55.306 45.3491L55.4063 45.3757L55.5065 45.4033L55.6067 45.4319L55.7067 45.4617L55.8067 45.4924L55.9065 45.5243L56.0062 45.5572L56.1058 45.5912L56.2052 45.6262L56.3045 45.6623L56.4036 45.6995L56.5025 45.7377L56.6012 45.777L56.6997 45.8174L56.7981 45.8588L56.8962 45.9013L56.994 45.9449L57.0916 45.9895L57.189 46.0352L57.2861 46.0819L57.3829 46.1298L57.4794 46.1787L57.5756 46.2286L57.6715 46.2796L57.7671 46.3317L57.8624 46.3848L57.9573 46.439L58.0518 46.4942L58.146 46.5505L58.2398 46.6079L58.3332 46.6663L58.4262 46.7258L58.5188 46.7863L58.6109 46.8478L58.7026 46.9104L58.7939 46.974L58.8847 47.0387L58.9751 47.1044L59.0649 47.1712L59.1543 47.2389L59.2432 47.3077L59.3315 47.3775L59.4193 47.4484L59.5066 47.5203L59.5934 47.5931L59.6795 47.667L59.7651 47.7419L59.8502 47.8178L59.9346 47.8947L60.0184 47.9726L60.1016 48.0515L60.1842 48.1314L60.2661 48.2123L60.3474 48.2941L60.428 48.3769L60.5079 48.4607L60.5872 48.5454L60.6658 48.6311L60.7436 48.7178L60.8208 48.8054L60.8972 48.894L60.9729 48.9835L61.0478 49.0739L61.122 49.1653L61.1954 49.2575L61.268 49.3507L61.3399 49.4448L61.4109 49.5398L61.4811 49.6357L61.5505 49.7325L61.6191 49.8302L61.6868 49.9288L61.7536 50.0282L61.8196 50.1285L61.8847 50.2296L61.949 50.3316L62.0123 50.4344L62.0747 50.5381L62.1362 50.6426L62.1968 50.7479L62.2564 50.8541L62.3151 50.961L62.3729 51.0688L62.4297 51.1773L62.4854 51.2866L62.5403 51.3967L62.5941 51.5075L62.6469 51.6191L62.6987 51.7314L62.7494 51.8445L62.7992 51.9583L62.8479 52.0729L62.8955 52.1881L62.9421 52.3041L62.9876 52.4207L63.032 52.538L63.0754 52.656L63.1176 52.7747L63.1587 52.894L63.1987 53.014L63.2376 53.1346L63.2754 53.2558L63.312 53.3776L63.3475 53.5001L63.3818 53.6231L63.415 53.7467L63.4469 53.8709L63.4777 53.9957L63.5073 54.121L63.5357 54.2468L63.5629 54.3732L63.5889 54.5001L63.6137 54.6275L63.6372 54.7554L63.6595 54.8838L63.6806 55.0127L63.7004 55.142L63.7189 55.2718L63.7362 55.402L63.7522 55.5326L63.767 55.6637L63.7804 55.7951L63.7926 55.927L63.8034 56.0592L63.813 56.1918L63.8213 56.3248L63.8282 56.4581L63.8338 56.5917L63.8381 56.7256L63.841 56.8599L63.8427 56.9944L63.8429 57.1293L63.8418 57.2643L63.8394 57.3997L63.8356 57.5353L63.8304 57.6711L63.8239 57.8071L63.816 57.9433L63.8067 58.0797L63.796 58.2163L63.7839 58.353L63.7705 58.4899L63.7556 58.6269L63.7394 58.764L63.7217 58.9013L63.7026 59.0386L63.6821 59.176L63.6602 59.3135L63.6369 59.451L63.6122 59.5885L63.586 59.7261L63.5584 59.8637L63.5293 60.0013L63.4989 60.1388L63.467 60.2763L63.4336 60.4138L63.3988 60.5512L63.3626 60.6885L63.3249 60.8257L63.2858 60.9628L63.2452 61.0998L63.2031 61.2366L63.1597 61.3733L63.1147 61.5099L63.0683 61.6462L63.0205 61.7823L62.9712 61.9183L62.9204 62.054L62.8682 62.1894L62.8145 62.3246L62.7593 62.4595L62.7027 62.5941L62.6446 62.7285L62.5851 62.8625L62.5241 62.9962L62.4617 63.1295L62.3978 63.2624L62.3324 63.395L62.2656 63.5272L62.1973 63.659L62.1276 63.7903L62.0565 63.9212L61.9838 64.0516L61.9098 64.1816L61.8342 64.3111L61.7573 64.4401L61.6789 64.5685L61.599 64.6964L61.5177 64.8238L61.435 64.9506L61.3509 65.0768L61.2653 65.2025L61.1783 65.3275L61.0898 65.4519L61 65.5756L60.9087 65.6987L60.8161 65.8211L60.722 65.9428L60.6265 66.0638L60.5296 66.1841L60.4313 66.3037L60.3317 66.4225L60.2306 66.5405L60.1282 66.6578L60.0244 66.7743L59.9192 66.8899L59.8126 67.0047L59.7047 67.1187L59.5955 67.2318L59.4849 67.3441L59.3729 67.4554L59.2597 67.5659L59.1451 67.6754L59.0291 67.784L58.9119 67.8917L58.7934 67.9983L58.6735 68.104L58.5524 68.2087L58.4299 68.3124L58.3062 68.4151L58.1813 68.5168L58.055 68.6173L57.9275 68.7169L57.7988 68.8153L57.6688 68.9126L57.5376 69.0088L57.4052 69.1039L57.2716 69.1979L57.1367 69.2907L57.0007 69.3823L56.8635 69.4728L56.7251 69.562L56.5856 69.65L56.4449 69.7368L56.303 69.8224L56.16 69.9067L56.0159 69.9898L55.8707 70.0715L55.7244 70.152L55.577 70.2311L55.4285 70.309L55.2789 70.3855L55.1283 70.4606L54.9766 70.5344L54.8239 70.6068L54.6702 70.6778L54.5154 70.7475L54.3597 70.8157L54.2029 70.8824L54.0452 70.9478L53.8866 71.0117L53.727 71.0741L53.5664 71.135L53.4049 71.1945L53.2425 71.2524L53.0792 71.3089L52.9151 71.3638L52.75 71.4171L52.5841 71.469L52.4174 71.5192L52.2498 71.5679L52.0814 71.615L51.9123 71.6605L51.7423 71.7044L51.5715 71.7467L51.4 71.7874L51.2278 71.8264L51.0548 71.8638L50.8811 71.8995L50.7068 71.9335L50.5317 71.9659L50.356 71.9965L50.1796 72.0255L50.0026 72.0528L49.825 72.0783L49.6467 72.1021L49.4679 72.1242L49.2885 72.1445L49.1086 72.1631L48.9281 72.1798L48.7471 72.1949L48.5656 72.2081L48.3836 72.2195L48.2011 72.2292L48.0182 72.237L47.8349 72.243L47.6511 72.2472L47.4669 72.2496L47.2824 72.2501L47.0975 72.2487L46.9122 72.2455L46.7266 72.2405L46.5407 72.2336L46.3545 72.2248L46.1681 72.2141L45.9813 72.2015L45.7943 72.187L45.6072 72.1707L45.4198 72.1524L45.2322 72.1322L45.0445 72.1101L44.8566 72.0861L44.6686 72.0601L44.4805 72.0322L44.2922 72.0024L44.104 71.9706L43.9157 71.9369L43.7273 71.9012L43.5389 71.8635L43.3506 71.8239L43.1623 71.7824L42.974 71.7388L42.7858 71.6933L42.5977 71.6459L42.4097 71.5964L42.2218 71.545L42.0341 71.4916L41.8465 71.4362L41.6591 71.3788L41.472 71.3194L41.2851 71.258L41.0984 71.1947L40.912 71.1293L40.7258 71.0619L40.54 70.9926L40.3545 70.9212L40.1694 70.8479L39.9847 70.7725L39.8003 70.6952L39.6164 70.6159L39.4329 70.5345L39.2498 70.4512L39.0673 70.3659L38.8852 70.2785L38.7036 70.1892L38.5226 70.0979L38.3422 70.0046L38.1623 69.9093L37.983 69.812L37.8044 69.7127L37.6264 69.6115L37.4491 69.5082L37.2724 69.403L37.0965 69.2958L36.9213 69.1867L36.7469 69.0755L36.5732 68.9624L36.4003 68.8474L36.2283 68.7304L36.057 68.6114L35.8867 68.4905L35.7172 68.3676L35.5486 68.2428L35.3809 68.1161L35.2142 67.9874L35.0484 67.8569L34.8837 67.7244L34.7199 67.59L34.5571 67.4537L34.3955 67.3155L34.2348 67.1754L34.0753 67.0334L33.9169 66.8895L33.7596 66.7438L33.6034 66.5962L33.4485 66.4468L33.2947 66.2955L33.1421 66.1424L32.9908 65.9875L32.8408 65.8307L32.692 65.6722L32.5445 65.5118L32.3983 65.3496L32.2535 65.1857L32.11 65.02L31.9679 64.8525L31.8273 64.6833L31.688 64.5123L31.5502 64.3396L31.4138 64.1652L31.2789 63.9891L31.1456 63.8113L31.0137 63.6318L30.8834 63.4506L30.7546 63.2678L30.6274 63.0833L30.5019 62.8972L30.3779 62.7095L30.2556 62.5201L30.1349 62.3292L30.016 62.1367L29.8987 61.9426L29.7831 61.747L29.6693 61.5498L29.5572 61.3511L29.4469 61.1509L29.3384 60.9492L29.2317 60.746L29.1268 60.5413L29.0237 60.3352L28.9226 60.1277L28.8233 59.9187L28.7259 59.7083L28.6304 59.4966L28.5369 59.2835L28.4453 59.069L28.3557 58.8532L28.2681 58.6361L28.1825 58.4176L28.0989 58.1979L28.0173 57.9769L27.9378 57.7547L27.8604 57.5313L27.785 57.3066L27.7118 57.0807L27.6406 56.8537L27.5717 56.6255L27.5048 56.3961L27.4402 56.1657L27.3777 55.9342L27.3174 55.7015L27.2593 55.4678L27.2035 55.2331L27.1499 54.9974L27.0985 54.7606L27.0495 54.5229L27.0027 54.2843L26.9582 54.0447L26.916 53.8041L26.8762 53.5627L26.8387 53.3205L26.8035 53.0773L26.7707 52.8334L26.7403 52.5886L26.7123 52.3431L26.6867 52.0968L26.6635 51.8497L26.6428 51.602L26.6245 51.3535L26.6086 51.1044L26.5952 50.8547L26.5843 50.6043L26.5759 50.3533L26.57 50.1018L26.5665 49.8497L26.5656 49.597L26.5673 49.3439L26.5714 49.0903L26.5781 48.8362L26.5874 48.5817L26.5993 48.3268L26.6137 48.0716L26.6307 47.8159L26.6503 47.56L26.6725 47.3037L26.6973 47.0472L26.7247 46.7904L26.7548 46.5334L26.7875 46.2762L26.8228 46.0188L26.8608 45.7612L26.9014 45.5036L26.9447 45.2458L26.9907 44.988L27.0393 44.7301L27.0907 44.4722L27.1447 44.2144L27.2013 43.9565L27.2607 43.6988L27.3228 43.4411L27.3876 43.1835L27.4551 42.9261L27.5253 42.6689L27.5982 42.4118L27.6739 42.155L27.7522 41.8985L27.8333 41.6422L27.9171 41.3862L28.0036 41.1306L28.0929 40.8754L28.1849 40.6205L28.2796 40.3661L28.3771 40.1121L28.4773 39.8586L28.5802 39.6056L28.6859 39.3532L28.7943 39.1013L28.9055 38.85L29.0193 38.5994L29.1359 38.3494L29.2553 38.1L29.3774 37.8514L29.5022 37.6035L29.6297 37.3564L29.76 37.1101L29.8929 36.8646L30.0286 36.6199L30.1671 36.3762L30.3082 36.1333L30.452 35.8914L30.5986 35.6505L30.7478 35.4105L30.8997 35.1716L31.0544 34.9337L31.2117 34.697L31.3717 34.4613L31.5343 34.2268L31.6997 33.9934L31.8677 33.7613L32.0383 33.5304L32.2116 33.3007L32.3875 33.0724L32.5661 32.8453L32.7473 32.6196L32.9311 32.3953L33.1175 32.1723L33.3065 31.9509L33.4981 31.7308L33.6923 31.5123L33.889 31.2953L34.0883 31.0798L34.2902 30.8659L34.4946 30.6536L34.7015 30.4429L34.9109 30.2339L35.1228 30.0266L35.3373 29.821L35.5542 29.6172L35.7735 29.4151L35.9953 29.2149L36.2196 29.0164L36.4463 28.8199L36.6754 28.6252L36.9069 28.4324L37.1408 28.2416L37.377 28.0527L37.6156 27.8659L37.8565 27.681L38.0998 27.4983L38.3454 27.3176L38.5932 27.139L38.8434 26.9625L39.0957 26.7882L39.3504 26.6161L39.6072 26.4463L39.8663 26.2786L40.1275 26.1132L40.3909 25.9502L40.6565 25.7894L40.9241 25.631L41.1939 25.4749L41.4658 25.3213L41.7398 25.1701L42.0158 25.0213L42.2938 24.875L42.5738 24.7312L42.8558 24.59L43.1398 24.4512L43.4258 24.3151L43.7136 24.1816L44.0034 24.0506L44.295 23.9224L44.5885 23.7968L44.8838 23.6739L45.181 23.5537L45.4799 23.4362L45.7805 23.3216L46.083 23.2097L46.3871 23.1006L46.6929 22.9944L47.0004 22.891L47.3095 22.7905L47.6202 22.6929L47.9325 22.5982L48.2463 22.5064L48.5617 22.4177L48.8786 22.3319L49.197 22.2491L49.5168 22.1694L49.8381 22.0927L50.1607 22.019L50.4847 21.9485L50.8101 21.8811L51.1367 21.8168L51.4647 21.7556L51.7938 21.6976L52.1243 21.6428L52.4559 21.5912L52.7887 21.5428L53.1226 21.4977L53.4576 21.4558L53.7937 21.4172L54.1308 21.3819L54.4689 21.3499L54.8081 21.3212L55.1481 21.2959L55.4891 21.2739L55.831 21.2553L56.1737 21.2401L56.5173 21.2282L56.8616 21.2198L57.2067 21.2149L57.5525 21.2134L57.8991 21.2153L58.2462 21.2208L58.594 21.2297L58.9424 21.2421L59.2913 21.258L59.6408 21.2775L59.9907 21.3005L60.3411 21.327L60.6919 21.3571L61.0431 21.3908L61.3947 21.4281L61.7465 21.469L62.0987 21.5134L62.4511 21.5615L62.8036 21.6132L63.1564 21.6686L63.5093 21.7276L63.8623 21.7902L64.2153 21.8565L64.5684 21.9265L64.9214 22.0001L65.2745 22.0775L65.6274 22.1585L65.9802 22.2432L66.3328 22.3316L66.6853 22.4237L67.0375 22.5195L67.3894 22.619L67.741 22.7223L68.0923 22.8293L68.4432 22.94L68.7937 23.0544L69.1437 23.1726L69.4932 23.2945L69.8421 23.4202L70.1905 23.5496L70.5383 23.6827L70.8854 23.8196L71.2318 23.9603L71.5775 24.1046L71.9224 24.2528L72.2666 24.4046L72.6098 24.5602L72.9522 24.7196L73.2936 24.8827L73.6341 25.0495L73.9735 25.2201L74.312 25.3944L74.6493 25.5724L74.9855 25.7542L75.3205 25.9397L75.6544 26.1289L75.987 26.3218L76.3183 26.5185L76.6482 26.7188L76.9769 26.9228L77.3041 27.1306L77.6299 27.342L77.9541 27.557L78.2769 27.7758L78.5981 27.9982L78.9177 28.2243L79.2357 28.454L79.552 28.6873L79.8665 28.9243L80.1793 29.1649L80.4903 29.4091L80.7995 29.6569L81.1068 29.9082L81.4122 30.1632L81.7156 30.4217L82.017 30.6837L82.3163 30.9493L82.6136 31.2183L82.9088 31.4909L83.2018 31.767L83.4927 32.0466L83.7813 32.3296L84.0676 32.616L84.3516 32.9059L84.6333 33.1992L84.9125 33.4959L85.1894 33.796L85.4638 34.0994L85.7356 34.4062L86.005 34.7163L86.2717 35.0297L86.5358 35.3463L86.7973 35.6663L87.0561 35.9895L87.3121 36.3159L87.5654 36.6455L87.8159 36.9783L88.0635 37.3143L88.3082 37.6534L88.55 37.9956L88.7889 38.3409L89.0248 38.6892L89.2576 39.0406L89.4874 39.3951L89.714 39.7525L89.9376 40.1129L90.1579 40.4762L90.3751 40.8425L90.589 41.2116L90.7996 41.5836L91.0069 41.9584L91.2108 42.3361L91.4114 42.7165L91.6085 43.0997L91.8022 43.4856L91.9924 43.8742L92.1791 44.2655L92.3622 44.6594L92.5417 45.0559L92.7176 45.455L92.8899 45.8566L93.0585 46.2607L93.2233 46.6673L93.3844 47.0764L93.5417 47.4878L93.6952 47.9017L93.8448 48.3179L93.9906 48.7364L94.1325 49.1571L94.2704 49.5802L94.4043 50.0054L94.5343 50.4328L94.6602 50.8623L94.7821 51.294L94.8998 51.7277L95.0135 52.1634L95.123 52.6011L95.2284 53.0408L95.3295 53.4823L95.4264 53.9258L95.5191 54.3711L95.6075 54.8182L95.6915 55.267L95.7713 55.7176L95.8467 56.1698L95.9177 56.6237L95.9842 57.0792L96.0464 57.5362L96.1041 57.9948L96.1573 58.4548L96.206 58.9163L96.2502 59.3791L96.2898 59.8433L96.3249 60.3088L96.3553 60.7756L96.3812 61.2435L96.4024 61.7127L96.4189 62.183L96.4308 62.6543L96.438 63.1267L96.4404 63.6001L96.4381 64.0744L96.4311 64.5497L96.4192 65.0258L96.4026 65.5027L96.3812 65.9803L96.3549 66.4587L96.3238 66.9378L96.2879 67.4175L96.247 67.8977L96.2013 68.3785L96.1507 68.8598L96.0951 69.3415L96.0346 69.8236L95.9691 70.306L95.8987 70.7887L95.8234 71.2716L95.743 71.7548L95.6576 72.238L95.5673 72.7214L95.4719 73.2048L95.3715 73.6882L95.266 74.1715L95.1555 74.6547L95.0399 75.1377L94.9193 75.6205L94.7936 76.1031L94.6628 76.5853L94.5269 77.0672L94.386 77.5487L94.2399 78.0296L94.0887 78.5101L93.9324 78.99" stroke="url(#paint6_linear_4761_2300)" stroke-width="0.25"/>
<g filter="url(#filter2_d_4761_2300)">
<circle cx="53.2021" cy="55.3803" r="2.40084" fill="#4FEEA2"/>
<circle cx="53.2021" cy="55.3803" r="2.10084" stroke="#4FEEA2" stroke-width="0.6"/>
</g>
<circle cx="49.091" cy="22.0906" r="1.22727" fill="white"/>
<circle cx="34.3635" cy="67.4997" r="1.22727" fill="#53FEA9"/>
<circle cx="57.6819" cy="93.2732" r="1.22727" fill="#A3A0AC"/>
<circle cx="85.9089" cy="34.364" r="1.22727" fill="#767184"/>
<defs>
<filter id="filter0_d_4761_2300" x="6.18457" y="1.86328" width="94.0332" height="82.7754" filterUnits="userSpaceOnUse" color-interpolation-filters="sRGB">
<feFlood flood-opacity="0" result="BackgroundImageFix"/>
<feColorMatrix in="SourceAlpha" type="matrix" values="0 0 0 0 0 0 0 0 0 0 0 0 0 0 0 0 0 0 127 0" result="hardAlpha"/>
<feOffset/>
<feGaussianBlur stdDeviation="2.5"/>
<feComposite in2="hardAlpha" operator="out"/>
<feColorMatrix type="matrix" values="0 0 0 0 0 0 0 0 0 1 0 0 0 0 0.7 0 0 0 1 0"/>
<feBlend mode="normal" in2="BackgroundImageFix" result="effect1_dropShadow_4761_2300"/>
<feBlend mode="normal" in="SourceGraphic" in2="effect1_dropShadow_4761_2300" result="shape"/>
</filter>
<filter id="filter1_d_4761_2300" x="20.3638" y="30.9297" width="65.6777" height="60.3613" filterUnits="userSpaceOnUse" color-interpolation-filters="sRGB">
<feFlood flood-opacity="0" result="BackgroundImageFix"/>
<feColorMatrix in="SourceAlpha" type="matrix" values="0 0 0 0 0 0 0 0 0 0 0 0 0 0 0 0 0 0 127 0" result="hardAlpha"/>
<feOffset/>
<feGaussianBlur stdDeviation="6.5"/>
<feComposite in2="hardAlpha" operator="out"/>
<feColorMatrix type="matrix" values="0 0 0 0 0 0 0 0 0 1 0 0 0 0 0.7 0 0 0 0.25 0"/>
<feBlend mode="normal" in2="BackgroundImageFix" result="effect1_dropShadow_4761_2300"/>
<feBlend mode="normal" in="SourceGraphic" in2="effect1_dropShadow_4761_2300" result="shape"/>
</filter>
<filter id="filter2_d_4761_2300" x="47.8013" y="49.9795" width="10.8018" height="10.8018" filterUnits="userSpaceOnUse" color-interpolation-filters="sRGB">
<feFlood flood-opacity="0" result="BackgroundImageFix"/>
<feColorMatrix in="SourceAlpha" type="matrix" values="0 0 0 0 0 0 0 0 0 0 0 0 0 0 0 0 0 0 127 0" result="hardAlpha"/>
<feOffset/>
<feGaussianBlur stdDeviation="1.5"/>
<feComposite in2="hardAlpha" operator="out"/>
<feColorMatrix type="matrix" values="0 0 0 0 0.32549 0 0 0 0 0.992157 0 0 0 0 0.662745 0 0 0 1 0"/>
<feBlend mode="normal" in2="BackgroundImageFix" result="effect1_dropShadow_4761_2300"/>
<feBlend mode="normal" in="SourceGraphic" in2="effect1_dropShadow_4761_2300" result="shape"/>
</filter>
<linearGradient id="paint0_linear_4761_2300" x1="53.2013" y1="7.36328" x2="53.2013" y2="93.7934" gradientUnits="userSpaceOnUse">
<stop stop-color="#4D23C7"/>
<stop offset="0.795144" stop-color="#4D23C7" stop-opacity="0"/>
</linearGradient>
<linearGradient id="paint1_linear_4761_2300" x1="53.2013" y1="-27.0487" x2="53.2013" y2="103.397" gradientUnits="userSpaceOnUse">
<stop offset="0.170133" stop-color="#53FDA9" stop-opacity="0"/>
<stop offset="1" stop-color="#53FDA9"/>
</linearGradient>
<linearGradient id="paint2_linear_4761_2300" x1="53.2025" y1="77.791" x2="53.2025" y2="32.9754" gradientUnits="userSpaceOnUse">
<stop stop-color="#100533"/>
<stop offset="1" stop-color="#00FF81" stop-opacity="0"/>
</linearGradient>
<linearGradient id="paint3_linear_4761_2300" x1="53.512" y1="7.36647" x2="53.512" y2="102.6" gradientUnits="userSpaceOnUse">
<stop offset="0.170133" stop-color="#53FDA9" stop-opacity="0"/>
<stop offset="1" stop-color="#53FDA9"/>
</linearGradient>
<linearGradient id="paint4_linear_4761_2300" x1="51.1109" y1="12.1604" x2="53.5117" y2="55.3755" gradientUnits="userSpaceOnUse">
<stop stop-color="white" stop-opacity="0"/>
<stop offset="1" stop-color="white"/>
</linearGradient>
<linearGradient id="paint5_linear_4761_2300" x1="19.8979" y1="84.9926" x2="53.5096" y2="54.582" gradientUnits="userSpaceOnUse">
<stop stop-color="white" stop-opacity="0"/>
<stop offset="1" stop-color="white"/>
</linearGradient>
<linearGradient id="paint6_linear_4761_2300" x1="95.9247" y1="71.3846" x2="53.5099" y2="54.5788" gradientUnits="userSpaceOnUse">
<stop stop-color="white" stop-opacity="0"/>
<stop offset="1" stop-color="white"/>
</linearGradient>
</defs>
</svg>
