<svg width="110" height="130" viewBox="0 0 110 130" fill="none" xmlns="http://www.w3.org/2000/svg">
<g filter="url(#filter0_d_4761_2412)">
<path d="M70.7567 58.7395C70.677 58.808 70.5733 58.8492 70.46 58.8488C70.2096 58.8482 70.0067 58.6441 70.0075 58.3932L70.0568 40.9459L55.2205 32.3114L40.3357 40.862L40.2866 58.3091C40.2861 58.5604 40.0822 58.7631 39.8312 58.7623C39.5808 58.7617 39.3779 58.5576 39.3787 58.3066L39.4286 40.5969C39.429 40.4345 39.5171 40.2852 39.6566 40.2039L54.9962 31.3924C55.137 31.3118 55.31 31.3123 55.4501 31.3937L70.7393 40.2917C70.8794 40.3731 70.9657 40.5236 70.9652 40.686L70.9153 58.3957C70.915 58.5334 70.8535 58.6564 70.7567 58.7395Z" fill="url(#paint0_linear_4761_2412)" shape-rendering="crispEdges"/>
</g>
<g filter="url(#filter1_d_4761_2412)">
<path d="M67.0808 67.4984C67.0011 67.5669 66.8973 67.6081 66.7841 67.6078C66.5336 67.6071 66.3308 67.4031 66.3315 67.1521L66.3689 53.9286L55.179 47.4163L43.953 53.8657L43.9155 67.0887C43.915 67.34 43.7107 67.5425 43.4602 67.5418C43.2098 67.5412 43.0071 67.337 43.0077 67.0862L43.0459 53.6006C43.0465 53.438 43.1348 53.2885 43.2739 53.2076L54.9547 46.4973C55.0956 46.4167 55.2686 46.4172 55.4087 46.4986L67.0514 53.2744C67.1915 53.3558 67.2777 53.5063 67.2773 53.6687L67.2394 67.1546C67.2391 67.2923 67.1775 67.4154 67.0808 67.4984Z" fill="url(#paint1_linear_4761_2412)" shape-rendering="crispEdges"/>
</g>
<g filter="url(#filter2_d_4761_2412)">
<path d="M55.3815 80.3377C55.2994 80.4082 55.1942 80.4477 55.0846 80.4472C54.9568 80.447 54.8347 80.3923 54.7492 80.2973L43.1234 67.3934C43.0886 67.3549 43.0606 67.3105 43.0408 67.2626L39.413 58.4827C39.3177 58.2511 39.427 57.9847 39.6589 57.889C39.8905 57.793 40.1557 57.9032 40.2517 58.1353L43.8495 66.8426L55.0878 79.3163L66.396 66.9063L70.0428 58.2193C70.1406 57.9879 70.406 57.8792 70.6371 57.9765C70.8683 58.0739 70.9768 58.3403 70.8796 58.5718L67.2024 67.331C67.1823 67.3787 67.1541 67.4228 67.1191 67.4611L55.421 80.299C55.4085 80.3127 55.3954 80.3257 55.3815 80.3377Z" fill="url(#paint2_linear_4761_2412)" shape-rendering="crispEdges"/>
</g>
<g filter="url(#filter3_d_4761_2412)">
<path d="M55.3812 80.3371C55.3247 80.3856 55.2557 80.421 55.1786 80.4369C54.9689 80.4808 54.7566 80.3714 54.6706 80.1751L43.0829 53.7857C43.0742 53.7656 43.0669 53.7451 43.0611 53.7243L39.445 40.7203C39.3775 40.4783 39.5193 40.2284 39.7604 40.1605C40.0019 40.0933 40.2522 40.235 40.3194 40.4767L43.9269 53.4495L54.6383 77.8432L54.7915 23.3478C54.7923 23.0968 54.9963 22.894 55.2468 22.8946C55.4972 22.8953 55.6999 23.0995 55.6993 23.3503L55.5398 79.9932C55.5393 80.1293 55.4788 80.2533 55.3812 80.3371Z" fill="url(#paint3_linear_4761_2412)" shape-rendering="crispEdges"/>
</g>
<g filter="url(#filter4_d_4761_2412)">
<path d="M55.3816 80.3369C55.2526 80.4477 55.0667 80.4811 54.901 80.4071C54.6722 80.3049 54.5693 80.0359 54.6714 79.8067L66.3944 53.5126L70.0068 40.7996L55.2434 24.0339L40.2209 40.9012C40.0555 41.0865 39.7674 41.1054 39.58 40.9377C39.3932 40.7707 39.3767 40.4832 39.5436 40.2959L54.9068 23.0465C54.9929 22.9503 55.1167 22.8942 55.2468 22.8947C55.3764 22.895 55.4999 22.9509 55.5858 23.0485L70.8514 40.3845C70.9536 40.5007 70.99 40.6608 70.9475 40.8095L67.2584 53.7926C67.2525 53.8134 67.2452 53.8337 67.2364 53.8535L55.5005 80.1774C55.4722 80.2409 55.4311 80.2944 55.3816 80.3369Z" fill="url(#paint4_linear_4761_2412)" shape-rendering="crispEdges"/>
</g>
<g filter="url(#filter5_d_4761_2412)">
<ellipse rx="41.2449" ry="41.3058" transform="matrix(0.999989 0.00460971 -0.00459612 0.99999 54.9491 55.014)" stroke="url(#paint5_linear_4761_2412)" stroke-width="0.25" stroke-linecap="round" stroke-linejoin="round" shape-rendering="crispEdges"/>
</g>
<path d="M43.3607 71.9959C45.0356 89.037 49.2847 101.097 54.3168 101.12C60.9058 101.151 66.3421 80.5321 66.4591 55.0672C66.5762 29.6022 61.3296 8.93423 54.7406 8.90386C50.7094 8.88527 47.1097 16.5959 44.8956 28.4168" stroke="url(#paint6_linear_4761_2412)" stroke-width="0.25" stroke-dasharray="0.5 0.5"/>
<ellipse rx="25.3557" ry="40.9948" transform="matrix(0.710349 -0.703849 0.70384 0.710359 54.8652 55.0322)" stroke="url(#paint7_linear_4761_2412)" stroke-width="0.5" stroke-linecap="round" stroke-dasharray="1 1"/>
<path d="M73.4094 72.3463C73.2925 72.4648 73.1749 72.583 73.0568 72.7009L72.9685 72.6125C72.9095 72.6713 72.8504 72.7301 72.7911 72.7888C72.7319 72.8476 72.6725 72.9061 72.6131 72.9646L72.7008 73.0537C72.5818 73.1707 72.4625 73.2872 72.343 73.403L72.256 73.3133C72.1366 73.4289 72.0171 73.5439 71.8972 73.6583L71.9836 73.7487C71.8635 73.8634 71.7432 73.9774 71.6226 74.0908L71.537 73.9998C71.4163 74.1133 71.2953 74.2263 71.1741 74.3386L71.259 74.4303C71.1365 74.5439 71.0137 74.6568 70.8907 74.7691L70.8064 74.6768C70.6837 74.7889 70.5606 74.9004 70.4374 75.0113L70.521 75.1042C70.3975 75.2153 70.2737 75.3257 70.1498 75.4355L70.0669 75.3419C69.9431 75.4516 69.819 75.5607 69.6947 75.6692L69.7769 75.7634C69.6509 75.8733 69.5247 75.9825 69.3982 76.0912L69.3168 75.9964C69.1906 76.1048 69.0642 76.2125 68.9376 76.3196L69.0183 76.4151C68.8915 76.5224 68.7644 76.6291 68.6371 76.7351L68.5571 76.639C68.4301 76.7448 68.3029 76.85 68.1755 76.9545L68.2547 77.0512C68.1254 77.1572 67.9959 77.2626 67.8663 77.3672L67.7877 77.27C67.6582 77.3745 67.5285 77.4784 67.3986 77.5816L67.4764 77.6795C67.3463 77.7829 67.2159 77.8856 67.0854 77.9876L67.0084 77.8891C66.8782 77.991 66.7477 78.0922 66.6171 78.1926L66.6934 78.2917C66.5609 78.3936 66.4283 78.4948 66.2955 78.5954L66.22 78.4957C66.0873 78.5962 65.9544 78.696 65.8213 78.795L65.8959 78.8953C65.7626 78.9946 65.6291 79.0932 65.4954 79.191L65.4216 79.0902C65.2882 79.1878 65.1546 79.2848 65.0209 79.3811L65.094 79.4825C64.9583 79.5802 64.8225 79.6771 64.6866 79.7733L64.6144 79.6713C64.4785 79.7675 64.3424 79.863 64.2062 79.9578L64.2776 80.0604C64.1412 80.1553 64.0046 80.2495 63.8678 80.343L63.7973 80.2398C63.6608 80.3331 63.5243 80.4257 63.3876 80.5175L63.4573 80.6213C63.3184 80.7145 63.1795 80.807 63.0404 80.8988L62.9716 80.7944C62.8326 80.8861 62.6935 80.9771 62.5543 81.0673L62.6223 81.1722C62.4828 81.2625 62.3432 81.3522 62.2035 81.441L62.1364 81.3355C61.997 81.4242 61.8575 81.5121 61.718 81.5992L61.7841 81.7053C61.6421 81.794 61.4999 81.8819 61.3577 81.969L61.2924 81.8624C61.1505 81.9493 61.0084 82.0355 60.8663 82.1208L60.9307 82.228C60.7883 82.3135 60.6458 82.3983 60.5033 82.4822L60.4398 82.3745C60.2972 82.4585 60.1546 82.5417 60.0119 82.6241L60.0744 82.7323C59.9294 82.816 59.7843 82.8989 59.6392 82.981L59.5777 82.8722C59.4329 82.954 59.288 83.0351 59.1432 83.1153L59.2037 83.2247C59.0585 83.3051 58.9133 83.3847 58.768 83.4635L58.7084 83.3536C58.5626 83.4326 58.4167 83.5109 58.2707 83.5883L58.3293 83.6987C58.1815 83.7771 58.0337 83.8547 57.8859 83.9314L57.8283 83.8204C57.6808 83.8969 57.5333 83.9726 57.3858 84.0473L57.4423 84.1588C57.2944 84.2338 57.1466 84.3079 56.9987 84.3811L56.9432 84.2691C56.794 84.343 56.6448 84.4161 56.4956 84.4882L56.55 84.6007C56.3996 84.6735 56.2491 84.7454 56.0987 84.8163L56.0454 84.7033C55.8953 84.7741 55.7453 84.8439 55.5953 84.9129L55.6475 85.0265C55.4972 85.0957 55.3468 85.1639 55.1966 85.2313L55.1454 85.1172C54.9928 85.1856 54.8402 85.2531 54.6876 85.3196L54.7376 85.4342C54.5847 85.5009 54.4318 85.5667 54.279 85.6315L54.2301 85.5164C54.0777 85.5811 53.9254 85.6448 53.7731 85.7076L53.8207 85.8232C53.6669 85.8866 53.5131 85.9491 53.3594 86.0106L53.3129 85.8945C53.1579 85.9566 53.003 86.0176 52.8482 86.0777L52.8934 86.1942C52.7382 86.2545 52.5831 86.3137 52.4281 86.372L52.3841 86.255C52.2295 86.3131 52.0751 86.3702 51.9207 86.4263L51.9635 86.5438C51.806 86.601 51.6487 86.6573 51.4915 86.7125L51.45 86.5945C51.2929 86.6497 51.136 86.7039 50.9792 86.757L51.0193 86.8754C50.862 86.9286 50.7049 86.9809 50.548 87.032L50.5092 86.9132C50.3514 86.9647 50.1937 87.0151 50.0362 87.0645L50.0736 87.1838C49.9138 87.2339 49.7542 87.2829 49.5948 87.3308L49.5588 87.2111C49.3999 87.2588 49.2412 87.3055 49.0827 87.3511L49.1173 87.4713C48.9581 87.517 48.7992 87.5617 48.6405 87.6053L48.6074 87.4848C48.446 87.5291 48.2849 87.5723 48.124 87.6144L48.1556 87.7353C47.9942 87.7775 47.833 87.8185 47.6721 87.8584L47.6421 87.7371C47.4817 87.7769 47.3216 87.8155 47.1617 87.853L47.1903 87.9747C47.0274 88.0129 46.8648 88.0499 46.7025 88.0857L46.6755 87.9636C46.5128 87.9995 46.3505 88.0342 46.1884 88.0677L46.2137 88.1902C46.0511 88.2238 45.8888 88.2562 45.7268 88.2874L45.7031 88.1646C45.54 88.1961 45.3772 88.2263 45.2148 88.2552L45.2367 88.3783C45.0719 88.4077 44.9074 88.4358 44.7433 88.4627L44.7231 88.3393C44.5596 88.366 44.3964 88.3915 44.2337 88.4158L44.2521 88.5394C44.0876 88.5639 43.9235 88.5871 43.7598 88.609L43.7433 88.4851C43.5777 88.5072 43.4126 88.528 43.2479 88.5475L43.2626 88.6716C43.0973 88.6912 42.9324 88.7094 42.768 88.7263L42.7552 88.6019C42.5907 88.6188 42.4267 88.6344 42.2631 88.6485L42.2739 88.7731C42.1067 88.7876 41.9401 88.8007 41.7739 88.8123L41.7652 88.6876C41.5997 88.6993 41.4348 88.7095 41.2703 88.7183L41.277 88.8431C41.1113 88.852 40.9461 88.8595 40.7815 88.8655L40.7769 88.7406C40.6099 88.7467 40.4435 88.7513 40.2777 88.7545L40.2801 88.8795C40.1136 88.8827 39.9476 88.8844 39.7823 88.8845L39.7821 88.7595C39.6168 88.7597 39.4522 88.7584 39.2881 88.7556L39.286 88.8806C39.1183 88.8778 38.9512 88.8733 38.7848 88.8673L38.7893 88.7424C38.6237 88.7365 38.4588 88.7289 38.2946 88.7198L38.2877 88.8447C38.1217 88.8355 37.9564 88.8247 37.7918 88.8123L37.8011 88.6877C37.6349 88.6752 37.4694 88.661 37.3046 88.6453L37.2927 88.7697C37.1271 88.7538 36.9623 88.7363 36.7983 88.7172L36.8128 88.593C36.6482 88.5738 36.4844 88.5529 36.3214 88.5303L36.3042 88.6541C36.1385 88.6312 35.9736 88.6065 35.8096 88.5801L35.8295 88.4567C35.6664 88.4304 35.5042 88.4024 35.3428 88.3727L35.3202 88.4956C35.1559 88.4654 34.9926 88.4334 34.8302 88.3996L34.8557 88.2772C34.6932 88.2434 34.5317 88.2077 34.3711 88.1703L34.3427 88.292C34.1812 88.2544 34.0206 88.2149 33.861 88.1736L33.8923 88.0526C33.7313 88.0109 33.5713 87.9674 33.4123 87.922L33.378 88.0422C33.2178 87.9965 33.0587 87.9488 32.9006 87.8993L32.938 87.78C32.7804 87.7306 32.624 87.6794 32.4687 87.6263L32.4282 87.7445C32.2701 87.6904 32.1131 87.6344 31.9573 87.5764L32.0009 87.4592C31.8461 87.4016 31.6925 87.342 31.5401 87.2805L31.4933 87.3964C31.3389 87.3341 31.1857 87.2698 31.0337 87.2035L31.0837 87.0889C30.932 87.0228 30.7816 86.9546 30.6324 86.8844L30.5792 86.9975C30.429 86.9269 30.28 86.8542 30.1323 86.7794L30.1887 86.6679C30.0411 86.5932 29.8948 86.5165 29.7498 86.4377L29.6902 86.5475C29.544 86.4681 29.3992 86.3867 29.2558 86.3031L29.3187 86.1951C29.1762 86.1121 29.0351 86.027 28.8954 85.9399L28.8292 86.046C28.6881 85.958 28.5484 85.8679 28.4102 85.7757L28.4795 85.6717C28.3423 85.5803 28.2065 85.4867 28.0722 85.3911L27.9997 85.4929C27.8645 85.3967 27.7307 85.2983 27.5984 85.1978L27.674 85.0983C27.5428 84.9986 27.4131 84.8969 27.2849 84.793L27.2062 84.8902C27.0771 84.7856 26.9495 84.6789 26.8234 84.5701L26.9051 84.4755C26.7807 84.3681 26.6579 84.2587 26.5365 84.1473L26.452 84.2393C26.3297 84.127 26.2089 84.0125 26.0898 83.8959L26.1772 83.8066C26.1181 83.7488 26.0594 83.6904 26.001 83.6315C25.9427 83.5727 25.8849 83.5134 25.8276 83.4538L25.7375 83.5403C25.622 83.4201 25.5087 83.2983 25.3974 83.175L25.4903 83.0913C25.3799 82.969 25.2716 82.8451 25.1655 82.7197L25.0701 82.8005C24.9625 82.6734 24.857 82.5449 24.7536 82.4148L24.8514 82.337C24.7488 82.2078 24.6482 82.0772 24.5498 81.9451L24.4496 82.0198C24.3503 81.8866 24.2532 81.7519 24.1581 81.6158L24.2606 81.5442C24.1662 81.409 24.074 81.2724 23.9838 81.1343L23.8791 81.2027C23.7882 81.0636 23.6994 80.9231 23.6128 80.7812L23.7194 80.716C23.6336 80.5755 23.5498 80.4336 23.4682 80.2903L23.3596 80.3523C23.2774 80.2081 23.1972 80.0625 23.1192 79.9157L23.2295 79.857C23.1521 79.7113 23.0767 79.5643 23.0034 79.416L22.8913 79.4714C22.818 79.323 22.7467 79.1734 22.6774 79.0225L22.791 78.9703C22.7222 78.8205 22.6554 78.6695 22.5906 78.5172L22.4756 78.5661C22.4107 78.4135 22.3478 78.2597 22.2869 78.1047L22.4032 78.059C22.3431 77.906 22.285 77.7519 22.2288 77.5966L22.1113 77.6391C22.0547 77.4828 22.0001 77.3253 21.9475 77.1667L22.0661 77.1273C22.0144 76.9715 21.9646 76.8146 21.9167 76.6566L21.797 76.6929C21.749 76.5344 21.7028 76.3748 21.6585 76.2142L21.779 76.1809C21.7351 76.0216 21.6931 75.8612 21.6529 75.6998L21.5316 75.73C21.4918 75.57 21.4538 75.4091 21.4176 75.2472L21.5396 75.2199C21.5036 75.059 21.4695 74.8971 21.4372 74.7343L21.3146 74.7587C21.2822 74.596 21.2517 74.4324 21.223 74.2679L21.3461 74.2464C21.3179 74.0848 21.2914 73.9223 21.2666 73.7589L21.1431 73.7777C21.1182 73.6134 21.095 73.4483 21.0736 73.2824L21.1975 73.2664C21.1765 73.1032 21.1571 72.9392 21.1394 72.7744L21.0151 72.7878C20.9974 72.6236 20.9814 72.4586 20.9671 72.2929L21.0917 72.2821C21.0774 72.1172 21.0648 71.9516 21.0538 71.7852L20.9291 71.7935C20.9182 71.6287 20.909 71.4633 20.9013 71.2972L21.0262 71.2915C21.0186 71.1272 21.0126 70.9622 21.0082 70.7966L20.8832 70.7999C20.8788 70.6335 20.8759 70.4664 20.8745 70.2986L20.9995 70.2976C20.9982 70.1336 20.9985 69.9689 21.0002 69.8036L20.8752 69.8023C20.8769 69.637 20.8801 69.4711 20.8848 69.3045L21.0098 69.3081C21.0145 69.1423 21.0206 68.976 21.0283 68.809L20.9034 68.8033C20.911 68.6387 20.92 68.4736 20.9304 68.308L21.0551 68.3158C21.0654 68.1515 21.0772 67.9867 21.0903 67.8213L20.9657 67.8114C20.9789 67.6454 20.9936 67.4788 21.0096 67.3118L21.134 67.3237C21.1497 67.1603 21.1668 66.9964 21.1852 66.8321L21.0609 66.8181C21.0793 66.6539 21.0991 66.4892 21.1201 66.3241L21.2441 66.3399C21.2651 66.1754 21.2875 66.0105 21.3111 65.8451L21.1874 65.8274C21.2108 65.6639 21.2355 65.5001 21.2615 65.3358L21.3849 65.3554C21.4107 65.1929 21.4376 65.03 21.4659 64.8667L21.3427 64.8454C21.3711 64.6815 21.4007 64.5173 21.4316 64.3527L21.5545 64.3758C21.5849 64.2136 21.6166 64.0511 21.6496 63.8883L21.527 63.8635C21.5597 63.7018 21.5936 63.5398 21.6287 63.3775L21.7509 63.4039C21.7859 63.2422 21.8221 63.0801 21.8595 62.9178L21.7377 62.8897C21.775 62.7277 21.8135 62.5655 21.8532 62.4029L21.9746 62.4326C22.0136 62.2731 22.0537 62.1133 22.0949 61.9533L21.9739 61.9221C22.0153 61.7616 22.0578 61.6009 22.1015 61.4398L22.2221 61.4726C22.2656 61.3121 22.3103 61.1513 22.3561 60.9904L22.2359 60.9561C22.2809 60.7978 22.3271 60.6393 22.3743 60.4806L22.4941 60.5163C22.5412 60.3582 22.5894 60.1999 22.6386 60.0414L22.5192 60.0044C22.5686 59.8454 22.6191 59.6863 22.6706 59.527L22.7895 59.5655C22.8404 59.4084 22.8922 59.2512 22.9452 59.0938L22.8267 59.054C22.8793 58.8975 22.933 58.7409 22.9877 58.5842L23.1057 58.6253C23.1603 58.469 23.2159 58.3126 23.2725 58.156L23.1549 58.1135C23.2116 57.9568 23.2693 57.8 23.328 57.643L23.445 57.6868C23.5026 57.533 23.5611 57.3791 23.6206 57.225L23.504 57.18C23.5637 57.0255 23.6244 56.871 23.686 56.7163L23.8022 56.7626C23.8637 56.6084 23.9261 56.454 23.9896 56.2996L23.874 56.2521C23.9369 56.0989 24.0008 55.9457 24.0656 55.7925L24.1808 55.8412C24.2449 55.6895 24.3101 55.5377 24.3761 55.3859L24.2615 55.336C24.3277 55.1838 24.3949 55.0315 24.463 54.8792L24.5771 54.9302C24.6451 54.7783 24.714 54.6263 24.7838 54.4743L24.6702 54.4221C24.7389 54.2725 24.8085 54.1228 24.8791 53.973L24.9922 54.0263C25.0625 53.877 25.1338 53.7276 25.206 53.5782L25.0934 53.5238C25.1657 53.3741 25.239 53.2243 25.3131 53.0745L25.4251 53.13C25.4987 52.9814 25.573 52.8329 25.6483 52.6844L25.5368 52.6279C25.6114 52.4807 25.6869 52.3335 25.7632 52.1863L25.8742 52.2439C25.9503 52.097 26.0273 51.9502 26.1052 51.8034L25.9948 51.7449C26.0728 51.5977 26.1517 51.4506 26.2315 51.3036L26.3414 51.3632C26.4201 51.2179 26.4997 51.0728 26.5801 50.9276L26.4708 50.8671C26.5509 50.7225 26.6318 50.578 26.7135 50.4335L26.8223 50.4951C26.9039 50.351 26.9863 50.2069 27.0695 50.0629L26.9612 50.0003C27.0446 49.856 27.1288 49.7117 27.2139 49.5675L27.3216 49.631C27.4053 49.489 27.4898 49.3471 27.575 49.2053L27.4679 49.1409C27.5532 48.9991 27.6392 48.8574 27.7261 48.7158L27.8326 48.7811C27.9193 48.6398 28.0067 48.4986 28.095 48.3575L27.989 48.2912C28.0774 48.1498 28.1666 48.0084 28.2566 47.8672L28.362 47.9344C28.4504 47.7956 28.5396 47.6569 28.6296 47.5183L28.5247 47.4503C28.6149 47.3114 28.7058 47.1726 28.7974 47.034L28.9017 47.1029C28.9931 46.9645 29.0854 46.8263 29.1783 46.6882L29.0746 46.6184C29.1677 46.4801 29.2614 46.342 29.356 46.2041L29.4591 46.2747C29.5522 46.1389 29.646 46.0032 29.7405 45.8676L29.638 45.7961C29.7327 45.6602 29.8282 45.5245 29.9244 45.3889L30.0263 45.4612C30.1223 45.3259 30.2191 45.1908 30.3165 45.0557L30.2151 44.9826C30.3126 44.8475 30.4108 44.7127 30.5097 44.5779L30.6105 44.6519C30.708 44.5191 30.8062 44.3864 30.9051 44.254L30.8049 44.1792C30.904 44.0464 31.0038 43.9138 31.1043 43.7814L31.2039 43.857C31.3042 43.7248 31.4052 43.5928 31.5068 43.461L31.4079 43.3846C31.5096 43.2527 31.612 43.121 31.7152 42.9895L31.8135 43.0667C31.9152 42.937 32.0176 42.8075 32.1206 42.6782L32.0229 42.6003C32.1261 42.4707 32.23 42.3413 32.3346 42.2122L32.4318 42.2908C32.5361 42.1619 32.6412 42.0331 32.7469 41.9046L32.6504 41.8252C32.7563 41.6965 32.8628 41.5679 32.97 41.4396L33.066 41.5198C33.1716 41.3933 33.278 41.2671 33.3849 41.141L33.2896 41.0601C33.3968 40.9339 33.5046 40.8078 33.6131 40.6819L33.7078 40.7635C33.8161 40.6379 33.925 40.5125 34.0346 40.3873L33.9405 40.305C34.0503 40.1796 34.1607 40.0544 34.2718 39.9294L34.3652 40.0124C34.4748 39.8891 34.585 39.7661 34.6959 39.6432L34.6031 39.5595C34.714 39.4366 34.8256 39.3139 34.9377 39.1914L35.0299 39.2758C35.1419 39.1536 35.2545 39.0316 35.3677 38.9098L35.2762 38.8247C35.3896 38.7027 35.5037 38.581 35.6184 38.4595L35.7093 38.5453C35.8227 38.4252 35.9368 38.3052 36.0515 38.1855L35.9612 38.0991C36.0757 37.9796 36.1909 37.8603 36.3066 37.7413L36.3962 37.8285C36.5117 37.7097 36.6278 37.5912 36.7446 37.4729L36.6556 37.3851C36.7725 37.2666 36.8901 37.1484 37.0082 37.0305L37.0965 37.119C37.1555 37.0601 37.2146 37.0013 37.2739 36.9426C37.3331 36.8839 37.3925 36.8253 37.4519 36.7669L37.3642 36.6778C37.4832 36.5607 37.6025 36.4443 37.7221 36.3284L37.809 36.4182C37.9284 36.3025 38.0479 36.1875 38.1678 36.0731L38.0815 35.9827C38.2015 35.8681 38.3218 35.754 38.4424 35.6406L38.528 35.7317C38.6487 35.6181 38.7697 35.5051 38.8909 35.3928L38.806 35.3011C38.9285 35.1875 39.0513 35.0746 39.1743 34.9623L39.2586 35.0546C39.3814 34.9425 39.5044 34.831 39.6276 34.7202L39.5441 34.6272C39.6675 34.5162 39.7913 34.4057 39.9152 34.2959L39.9981 34.3895C40.122 34.2798 40.246 34.1707 40.3703 34.0623L40.2881 33.9681C40.4141 33.8582 40.5403 33.7489 40.6668 33.6403L40.7482 33.7351C40.8744 33.6267 41.0008 33.5189 41.1274 33.4118L41.0467 33.3164C41.1735 33.209 41.3006 33.1024 41.4279 32.9964L41.5079 33.0924C41.6349 32.9866 41.7621 32.8814 41.8896 32.7769L41.8103 32.6803C41.9396 32.5742 42.0691 32.4689 42.1988 32.3642L42.2773 32.4615C42.4068 32.3569 42.5365 32.253 42.6664 32.1499L42.5886 32.052C42.7188 31.9486 42.8491 31.8459 42.9796 31.7438L43.0566 31.8423C43.1868 31.7404 43.3173 31.6393 43.4479 31.5388L43.3717 31.4397C43.5041 31.3378 43.6367 31.2366 43.7695 31.1361L43.845 31.2357C43.9777 31.1353 44.1107 31.0355 44.2437 30.9364L44.1691 30.8361C44.3024 30.7369 44.4359 30.6383 44.5696 30.5404L44.6435 30.6413C44.7769 30.5436 44.9104 30.4466 45.0441 30.3503L44.9711 30.2489C45.1067 30.1512 45.2425 30.0543 45.3784 29.9581L45.4506 30.0601C45.5865 29.9639 45.7226 29.8684 45.8588 29.7737L45.7874 29.6711C45.9238 29.5761 46.0604 29.4819 46.1972 29.3884L46.2677 29.4916C46.4042 29.3983 46.5407 29.3058 46.6774 29.2139L46.6077 29.1102C46.7466 29.0169 46.8855 28.9244 47.0246 28.8327L47.0934 28.937C47.2324 28.8453 47.3715 28.7544 47.5107 28.6642L47.4427 28.5593C47.5822 28.4689 47.7218 28.3793 47.8615 28.2904L47.9286 28.3959C48.068 28.3072 48.2075 28.2193 48.3471 28.1322L48.2809 28.0262C48.4229 27.9375 48.5651 27.8496 48.7073 27.7624L48.7726 27.869C48.9145 27.7821 49.0566 27.696 49.1987 27.6106L49.1343 27.5035C49.2767 27.4179 49.4192 27.3332 49.5617 27.2492L49.6252 27.3569C49.7678 27.2729 49.9104 27.1898 50.0532 27.1074L49.9907 26.9991C50.1357 26.9154 50.2807 26.8325 50.4258 26.7505L50.4873 26.8593C50.6321 26.7774 50.777 26.6963 50.9218 26.6161L50.8613 26.5068C51.0065 26.4263 51.1517 26.3467 51.297 26.268L51.3566 26.3779C51.5025 26.2988 51.6483 26.2206 51.7943 26.1431L51.7357 26.0327C51.8835 25.9543 52.0313 25.8768 52.1792 25.8001L52.2367 25.911C52.3842 25.8345 52.5317 25.7589 52.6792 25.6841L52.6227 25.5726C52.7706 25.4976 52.9184 25.4235 53.0663 25.3503L53.1218 25.4623C53.271 25.3884 53.4202 25.3154 53.5694 25.2432L53.515 25.1307C53.6654 25.0579 53.8159 24.9861 53.9663 24.9151L54.0196 25.0282C54.1697 24.9574 54.3197 24.8875 54.4697 24.8185L54.4175 24.7049C54.5678 24.6358 54.7182 24.5675 54.8685 24.5002L54.9196 24.6142C55.0722 24.5458 55.2248 24.4784 55.3774 24.4118L55.3274 24.2972C55.4803 24.2305 55.6332 24.1648 55.786 24.0999L55.8349 24.215C55.9873 24.1503 56.1397 24.0866 56.2919 24.0238L56.2443 23.9083C56.3982 23.8448 56.5519 23.7824 56.7056 23.7208L56.7521 23.8369C56.9071 23.7749 57.062 23.7138 57.2168 23.6537L57.1716 23.5372C57.3268 23.477 57.4819 23.4177 57.6369 23.3595L57.6809 23.4765C57.8355 23.4184 57.9899 23.3613 58.1443 23.3051L58.1016 23.1877C58.259 23.1304 58.4164 23.0742 58.5736 23.019L58.615 23.1369C58.7721 23.0817 58.929 23.0276 59.0858 22.9745L59.0457 22.8561C59.203 22.8028 59.3601 22.7506 59.517 22.6994L59.5558 22.8182C59.7136 22.7668 59.8713 22.7163 60.0288 22.6669L59.9914 22.5477C60.1512 22.4976 60.3108 22.4486 60.4702 22.4007L60.5062 22.5204C60.6651 22.4726 60.8238 22.4259 60.9823 22.3803L60.9477 22.2602C61.1069 22.2144 61.2658 22.1697 61.4245 22.1261L61.4576 22.2467C61.619 22.2023 61.7801 22.1591 61.941 22.1171L61.9094 21.9961C62.0708 21.954 62.232 21.9129 62.3929 21.873L62.423 21.9943C62.5833 21.9546 62.7435 21.9159 62.9033 21.8785L62.8748 21.7568C63.0376 21.7186 63.2002 21.6816 63.3625 21.6457L63.3895 21.7678C63.5522 21.7319 63.7146 21.6972 63.8766 21.6637L63.8513 21.5413C64.0139 21.5077 64.1762 21.4752 64.3382 21.444L64.3619 21.5668C64.525 21.5354 64.6878 21.5052 64.8502 21.4762L64.8283 21.3531C64.9931 21.3238 65.1576 21.2956 65.3217 21.2688L65.3419 21.3921C65.5055 21.3654 65.6686 21.3399 65.8313 21.3157L65.8129 21.192C65.9774 21.1676 66.1415 21.1444 66.3052 21.1225L66.3217 21.2464C66.4873 21.2242 66.6524 21.2034 66.8171 21.1839L66.8024 21.0598C66.9677 21.0403 67.1326 21.022 67.297 21.0052L67.3098 21.1295C67.4743 21.1126 67.6383 21.0971 67.8019 21.0829L67.7911 20.9584C67.9583 20.9439 68.1249 20.9308 68.2911 20.9191L68.2998 21.0438C68.4653 21.0322 68.6303 21.0219 68.7947 21.0131L68.788 20.8883C68.9537 20.8794 69.1189 20.872 69.2835 20.8659L69.2881 20.9908C69.4551 20.9847 69.6215 20.9801 69.7873 20.9769L69.7849 20.8519C69.9514 20.8488 70.1174 20.8471 70.2827 20.8469L70.2829 20.9719C70.4482 20.9717 70.6128 20.973 70.7769 20.9758L70.779 20.8508C70.9467 20.8537 71.1138 20.8581 71.2802 20.8641L71.2757 20.989C71.4413 20.995 71.6062 21.0025 71.7704 21.0116L71.7773 20.8868C71.9433 20.896 72.1087 20.9068 72.2733 20.9191L72.2639 21.0438C72.4301 21.0563 72.5956 21.0704 72.7604 21.0862L72.7723 20.9617C72.9379 20.9776 73.1027 20.9951 73.2667 21.0143L73.2522 21.1384C73.4169 21.1576 73.5807 21.1785 73.7436 21.2011L73.7608 21.0773C73.9265 21.1002 74.0914 21.1249 74.2554 21.1513L74.2355 21.2748C74.3986 21.301 74.5609 21.329 74.7222 21.3587L74.7448 21.2358C74.9091 21.266 75.0724 21.2981 75.2348 21.3319L75.2093 21.4543C75.3718 21.4881 75.5334 21.5237 75.6939 21.5611L75.7223 21.4394C75.8839 21.4771 76.0444 21.5165 76.204 21.5578L76.1727 21.6789C76.3337 21.7205 76.4937 21.764 76.6527 21.8094L76.687 21.6892C76.8472 21.735 77.0063 21.7826 77.1644 21.8322L77.127 21.9514C77.2846 22.0008 77.441 22.052 77.5963 22.1052L77.6368 21.9869C77.7949 22.041 77.9519 22.0971 78.1077 22.1551L78.0641 22.2722C78.2189 22.3298 78.3725 22.3894 78.5249 22.4509L78.5717 22.335C78.7261 22.3973 78.8793 22.4616 79.0313 22.5279L78.9813 22.6425C79.133 22.7087 79.2834 22.7768 79.4326 22.847L79.4858 22.7339C79.6361 22.8046 79.785 22.8773 79.9327 22.952L79.8763 23.0635C80.0239 23.1382 80.1702 23.215 80.3152 23.2937L80.3749 23.1839C80.521 23.2633 80.6658 23.3448 80.8092 23.4283L80.7463 23.5363C80.8888 23.6193 81.0299 23.7044 81.1696 23.7915L81.2358 23.6855C81.3769 23.7734 81.5166 23.8635 81.6548 23.9557L81.5855 24.0597C81.7227 24.1512 81.8585 24.2447 81.9928 24.3403L82.0653 24.2385C82.2005 24.3348 82.3343 24.4332 82.4666 24.5336L82.391 24.6332C82.5222 24.7328 82.6519 24.8346 82.7801 24.9384L82.8588 24.8413C82.9879 24.9459 83.1155 25.0525 83.2416 25.1613L83.1599 25.256C83.2843 25.3633 83.4071 25.4727 83.5285 25.5842L83.613 25.4921C83.7353 25.6045 83.8561 25.7189 83.9752 25.8355L83.8878 25.9249C83.9469 25.9827 84.0056 26.041 84.064 26.0999C84.1223 26.1588 84.1801 26.218 84.2374 26.2777L84.3276 26.1911C84.443 26.3113 84.5563 26.4331 84.6676 26.5564L84.5748 26.6401C84.6851 26.7625 84.7934 26.8864 84.8995 27.0117L84.9949 26.9309C85.1026 27.058 85.2081 27.1866 85.3114 27.3167L85.2136 27.3944C85.3162 27.5236 85.4168 27.6543 85.5152 27.7864L85.6154 27.7117C85.7147 27.8449 85.8118 27.9796 85.9069 28.1157L85.8044 28.1872C85.8988 28.3224 85.9911 28.4591 86.0812 28.5971L86.1859 28.5287C86.2768 28.6678 86.3656 28.8084 86.4522 28.9503L86.3456 29.0154C86.4314 29.156 86.5152 29.2979 86.5968 29.4411L86.7054 29.3792C86.7877 29.5234 86.8678 29.6689 86.9458 29.8158L86.8355 29.8744C86.9129 30.0201 86.9883 30.1671 87.0616 30.3154L87.1737 30.26C87.247 30.4084 87.3184 30.558 87.3876 30.7089L87.274 30.7611C87.3428 30.9109 87.4096 31.062 87.4744 31.2142L87.5894 31.1653C87.6543 31.3179 87.7172 31.4717 87.7781 31.6267L87.6618 31.6724C87.7219 31.8254 87.78 31.9796 87.8362 32.1349L87.9537 32.0923C88.0103 32.2487 88.0649 32.4062 88.1176 32.5648L87.9989 32.6041C88.0506 32.76 88.1004 32.9169 88.1483 33.0748L88.268 33.0386C88.316 33.1971 88.3622 33.3567 88.4065 33.5173L88.286 33.5505C88.3299 33.7098 88.372 33.8702 88.4121 34.0316L88.5334 34.0014C88.5732 34.1614 88.6112 34.3223 88.6474 34.4842L88.5254 34.5115C88.5614 34.6724 88.5955 34.8343 88.6278 34.9971L88.7505 34.9727C88.7828 35.1354 88.8133 35.2991 88.842 35.4636L88.7189 35.4851C88.7471 35.6467 88.7736 35.8092 88.7984 35.9725L88.922 35.9538C88.9469 36.118 88.97 36.2831 88.9915 36.4491L88.8675 36.4651C88.8886 36.6282 88.9079 36.7922 88.9256 36.957L89.0499 36.9436C89.0676 37.1079 89.0836 37.2728 89.0979 37.4386L88.9734 37.4493C88.9876 37.6142 89.0002 37.7798 89.0112 37.9462L89.1359 37.938C89.1468 38.1027 89.156 38.2681 89.1637 38.4342L89.0388 38.44C89.0464 38.6043 89.0524 38.7692 89.0568 38.9349L89.1818 38.9315C89.1863 39.098 89.1891 39.2651 89.1905 39.4328L89.0655 39.4338C89.0668 39.5979 89.0665 39.7625 89.0648 39.9278L89.1898 39.9291C89.1881 40.0944 89.1849 40.2604 89.1802 40.4269L89.0552 40.4234C89.0505 40.5891 89.0444 40.7555 89.0367 40.9224L89.1616 40.9281C89.154 41.0927 89.1451 41.2578 89.1346 41.4234L89.0099 41.4156C88.9996 41.5799 88.9878 41.7448 88.9747 41.9101L89.0993 41.92C89.0861 42.0861 89.0714 42.2526 89.0554 42.4196L88.931 42.4077C88.9153 42.5711 88.8982 42.735 88.8798 42.8994L89.0041 42.9133C88.9857 43.0776 88.9659 43.2423 88.9449 43.4074L88.8209 43.3916C88.7999 43.556 88.7776 43.721 88.7539 43.8863L88.8776 43.904C88.8542 44.0675 88.8295 44.2314 88.8035 44.3956L88.6801 44.3761C88.6544 44.5386 88.6274 44.7015 88.5991 44.8648L88.7223 44.8861C88.6939 45.0499 88.6643 45.2141 88.6334 45.3787L88.5105 45.3556C88.4801 45.5178 88.4484 45.6803 88.4154 45.8432L88.538 45.868C88.5053 46.0296 88.4714 46.1916 88.4363 46.3539L88.3141 46.3275C88.2791 46.4893 88.2429 46.6513 88.2055 46.8137L88.3273 46.8417C88.29 47.0037 88.2515 47.166 88.2118 47.3285L88.0904 47.2988C88.0514 47.4583 88.0113 47.6181 87.9701 47.7781L88.0911 47.8093C88.0497 47.9698 88.0072 48.1306 87.9636 48.2916L87.8429 48.2589C87.7994 48.4194 87.7547 48.5801 87.7089 48.7411L87.8291 48.7753C87.7841 48.9336 87.7379 49.0921 87.6907 49.2508L87.5709 49.2152C87.5238 49.3732 87.4757 49.5315 87.4264 49.69L87.5458 49.7271C87.4964 49.886 87.4459 50.0452 87.3944 50.2045L87.2755 50.166C87.2246 50.323 87.1728 50.4802 87.1198 50.6376L87.2383 50.6775C87.1857 50.8339 87.132 50.9905 87.0773 51.1473L86.9593 51.1061C86.9047 51.2624 86.8491 51.4189 86.7925 51.5755L86.9101 51.618C86.8534 51.7746 86.7958 51.9315 86.737 52.0884L86.62 52.0446C86.5624 52.1984 86.5039 52.3523 86.4444 52.5064L86.561 52.5514C86.5013 52.7059 86.4406 52.8605 86.379 53.0151L86.2629 52.9688C86.2014 53.1231 86.1389 53.2774 86.0754 53.4319L86.191 53.4794C86.1281 53.6325 86.0642 53.7857 85.9994 53.939L85.8843 53.8903C85.8201 54.042 85.755 54.1937 85.6889 54.3456L85.8035 54.3954C85.7373 54.5476 85.6701 54.6999 85.602 54.8522L85.4879 54.8012C85.4199 54.9531 85.3511 55.1051 85.2812 55.2571L85.3948 55.3093C85.3261 55.459 85.2565 55.6087 85.1859 55.7584L85.0728 55.7051C85.0025 55.8545 84.9312 56.0038 84.8591 56.1532L84.9716 56.2076C84.8993 56.3574 84.826 56.5072 84.7519 56.6569L84.6399 56.6015C84.5664 56.75 84.492 56.8985 84.4167 57.0471L84.5282 57.1036C84.4536 57.2508 84.3781 57.398 84.3018 57.5451L84.1908 57.4876C84.1147 57.6344 84.0377 57.7812 83.9598 57.928L84.0702 57.9866C83.9922 58.1337 83.9133 58.2808 83.8335 58.4279L83.7237 58.3683C83.6449 58.5135 83.5653 58.6587 83.4849 58.8038L83.5942 58.8644C83.5141 59.0089 83.4332 59.1534 83.3515 59.2979L83.2427 59.2363C83.1611 59.3805 83.0787 59.5246 82.9955 59.6686L83.1038 59.7311C83.0204 59.8755 82.9362 60.0197 82.8511 60.164L82.7435 60.1005C82.6598 60.2424 82.5753 60.3843 82.49 60.5261L82.5971 60.5906C82.5118 60.7323 82.4258 60.874 82.3389 61.0157L82.2324 60.9503C82.1457 61.0916 82.0583 61.2328 81.97 61.374L82.076 61.4402C81.9876 61.5817 81.8984 61.723 81.8084 61.8643L81.703 61.7971C81.6146 61.9359 81.5254 62.0746 81.4354 62.2131L81.5403 62.2812C81.4502 62.4201 81.3593 62.5588 81.2676 62.6975L81.1633 62.6285C81.0719 62.7669 80.9797 62.9052 80.8867 63.0433L80.9904 63.1131C80.8974 63.2513 80.8036 63.3894 80.709 63.5274L80.6059 63.4567C80.5128 63.5925 80.419 63.7283 80.3245 63.8639L80.427 63.9353C80.3323 64.0712 80.2368 64.2069 80.1406 64.3425L80.0387 64.2702C79.9427 64.4055 79.846 64.5407 79.7485 64.6757L79.8499 64.7489C79.7524 64.8839 79.6542 65.0188 79.5553 65.1535L79.4545 65.0795C79.3571 65.2123 79.2589 65.345 79.16 65.4775L79.2601 65.5523C79.161 65.685 79.0612 65.8176 78.9607 65.95L78.8612 65.8745C78.7609 66.0066 78.6599 66.1386 78.5582 66.2705L78.6571 66.3468C78.5554 66.4787 78.453 66.6104 78.3498 66.7419L78.2515 66.6648C78.1498 66.7944 78.0474 66.9239 77.9444 67.0533L78.0421 67.1312C77.9389 67.2607 77.835 67.3901 77.7304 67.5193L77.6333 67.4406C77.5289 67.5696 77.4238 67.6983 77.3181 67.8268L77.4146 67.9063C77.3087 68.035 77.2022 68.1635 77.095 68.2918L76.9991 68.2116C76.8934 68.3381 76.7871 68.4644 76.6801 68.5904L76.7754 68.6713C76.6682 68.7976 76.5604 68.9237 76.4519 69.0495L76.3572 68.9679C76.2489 69.0935 76.14 69.2189 76.0305 69.3441L76.1245 69.4265C76.0147 69.5519 75.9043 69.6771 75.7932 69.802L75.6998 69.719C75.5902 69.8423 75.48 69.9654 75.3692 70.0882L75.462 70.1719C75.351 70.2949 75.2395 70.4176 75.1273 70.54L75.0351 70.4556C74.9231 70.5778 74.8105 70.6998 74.6973 70.8216L74.7888 70.9067C74.6754 71.0287 74.5613 71.1504 74.4466 71.2719L74.3557 71.1861C74.2423 71.3063 74.1282 71.4262 74.0135 71.5459L74.1038 71.6324C73.9893 71.7519 73.8741 71.8711 73.7584 71.9901L73.6688 71.903C73.5533 72.0218 73.4372 72.1403 73.3205 72.2585L73.4094 72.3463Z" stroke="url(#paint8_linear_4761_2412)" stroke-width="0.25" stroke-dasharray="0.5 0.5"/>
<path d="M39.4429 76.1316C39.4429 73.7915 41.1758 71.6187 44.0978 70.0163C47.0107 68.419 51.0517 67.4233 55.529 67.4233C60.0064 67.4233 64.0474 68.419 66.9603 70.0163C69.8823 71.6187 71.6152 73.7915 71.6152 76.1316C71.6152 78.4717 69.8823 80.6445 66.9603 82.2468C64.0474 83.8441 60.0064 84.8398 55.529 84.8398C51.0517 84.8398 47.0106 83.8441 44.0978 82.2468C41.1758 80.6445 39.4429 78.4717 39.4429 76.1316Z" stroke="white" stroke-opacity="0.4" stroke-width="0.5"/>
<path d="M33.6698 76.1298C33.6698 72.9155 36.049 69.9512 40.0157 67.7759C43.9733 65.6057 49.4577 64.2557 55.5292 64.2557C61.6008 64.2557 67.0852 65.6057 71.0428 67.7759C75.0095 69.9512 77.3887 72.9155 77.3887 76.1298C77.3887 79.3441 75.0095 82.3084 71.0428 84.4836C67.0852 86.6538 61.6008 88.0039 55.5292 88.0039C49.4577 88.0039 43.9733 86.6538 40.0157 84.4836C36.049 82.3084 33.6698 79.3441 33.6698 76.1298Z" stroke="white" stroke-opacity="0.2" stroke-width="0.5"/>
<path d="M25.9235 76.1281C25.9235 71.7408 29.1697 67.7146 34.5382 64.7706C39.8976 61.8317 47.3185 60.0062 55.5291 60.0062C63.7397 60.0062 71.1607 61.8317 76.52 64.7706C81.8886 67.7146 85.1348 71.7408 85.1348 76.1281C85.1348 80.5154 81.8886 84.5416 76.52 87.4856C71.1607 90.4245 63.7397 92.25 55.5291 92.25C47.3185 92.25 39.8976 90.4245 34.5382 87.4856C29.1697 84.5416 25.9235 80.5154 25.9235 76.1281Z" stroke="white" stroke-opacity="0.1" stroke-width="0.5"/>
<path d="M17.2506 76.1297C17.2506 70.429 21.4676 65.2137 28.4057 61.4091C35.3346 57.6095 44.9239 55.2516 55.5296 55.2516C66.1353 55.2516 75.7246 57.6095 82.6535 61.4091C89.5916 65.2137 93.8086 70.429 93.8086 76.1297C93.8086 81.8304 89.5916 87.0457 82.6535 90.8503C75.7246 94.6499 66.1353 97.0078 55.5296 97.0078C44.9239 97.0078 35.3346 94.6499 28.4057 90.8503C21.4676 87.0457 17.2506 81.8304 17.2506 76.1297Z" stroke="white" stroke-opacity="0.05" stroke-width="0.5"/>
<g filter="url(#filter6_d_4761_2412)">
<ellipse cx="55.5" cy="76" rx="7.5" ry="4" transform="rotate(-180 55.5 76)" fill="white"/>
</g>
<path d="M55 130L55 75.5C55 75.2239 55.2239 75 55.5 75V75C55.7761 75 56 75.2239 56 75.5L56 130L55 130Z" fill="url(#paint9_linear_4761_2412)"/>
<path d="M54 117L54 76.5C54 76.2239 53.7761 76 53.5 76V76C53.2239 76 53 76.2239 53 76.5L53 117L54 117Z" fill="url(#paint10_linear_4761_2412)"/>
<path d="M52 105L52 76.5C52 76.2239 51.7761 76 51.5 76V76C51.2239 76 51 76.2239 51 76.5L51 105L52 105Z" fill="url(#paint11_linear_4761_2412)"/>
<path d="M57 117L57 76.5C57 76.2239 57.2239 76 57.5 76V76C57.7761 76 58 76.2239 58 76.5L58 117L57 117Z" fill="url(#paint12_linear_4761_2412)"/>
<path d="M59 105L59 76.5C59 76.2239 59.2239 76 59.5 76V76C59.7761 76 60 76.2239 60 76.5L60 105L59 105Z" fill="url(#paint13_linear_4761_2412)"/>
<path d="M70.7876 87.6953V87.6953C70.8102 88.5142 71.4687 89.1727 72.2876 89.1953V89.1953V89.1953C71.4687 89.2179 70.8102 89.8764 70.7876 90.6953V90.6953V90.6953C70.765 89.8764 70.1065 89.2179 69.2876 89.1953V89.1953V89.1953C70.1065 89.1727 70.765 88.5142 70.7876 87.6953V87.6953Z" fill="white"/>
<path d="M94.7964 42.8496V42.8496C94.819 43.6685 95.4775 44.327 96.2964 44.3496V44.3496V44.3496C95.4775 44.3722 94.819 45.0307 94.7964 45.8496V45.8496V45.8496C94.7738 45.0307 94.1153 44.3722 93.2964 44.3496V44.3496V44.3496C94.1153 44.327 94.7738 43.6685 94.7964 42.8496V42.8496Z" fill="white"/>
<path d="M21.7217 62.123V62.123C21.7443 62.9419 22.4028 63.6004 23.2217 63.623V63.623V63.623C22.4028 63.6457 21.7443 64.3042 21.7217 65.123V65.123V65.123C21.6991 64.3042 21.0406 63.6457 20.2217 63.623V63.623V63.623C21.0406 63.6004 21.6991 62.9419 21.7217 62.123V62.123Z" fill="white"/>
<defs>
<filter id="filter0_d_4761_2412" x="26.3789" y="18.332" width="57.5864" height="53.5166" filterUnits="userSpaceOnUse" color-interpolation-filters="sRGB">
<feFlood flood-opacity="0" result="BackgroundImageFix"/>
<feColorMatrix in="SourceAlpha" type="matrix" values="0 0 0 0 0 0 0 0 0 0 0 0 0 0 0 0 0 0 127 0" result="hardAlpha"/>
<feOffset/>
<feGaussianBlur stdDeviation="6.5"/>
<feComposite in2="hardAlpha" operator="out"/>
<feColorMatrix type="matrix" values="0 0 0 0 0 0 0 0 0 1 0 0 0 0 0.7 0 0 0 0.25 0"/>
<feBlend mode="normal" in2="BackgroundImageFix" result="effect1_dropShadow_4761_2412"/>
<feBlend mode="normal" in="SourceGraphic" in2="effect1_dropShadow_4761_2412" result="shape"/>
</filter>
<filter id="filter1_d_4761_2412" x="30.0078" y="33.4375" width="50.2695" height="47.1699" filterUnits="userSpaceOnUse" color-interpolation-filters="sRGB">
<feFlood flood-opacity="0" result="BackgroundImageFix"/>
<feColorMatrix in="SourceAlpha" type="matrix" values="0 0 0 0 0 0 0 0 0 0 0 0 0 0 0 0 0 0 127 0" result="hardAlpha"/>
<feOffset/>
<feGaussianBlur stdDeviation="6.5"/>
<feComposite in2="hardAlpha" operator="out"/>
<feColorMatrix type="matrix" values="0 0 0 0 0 0 0 0 0 1 0 0 0 0 0.7 0 0 0 0.25 0"/>
<feBlend mode="normal" in2="BackgroundImageFix" result="effect1_dropShadow_4761_2412"/>
<feBlend mode="normal" in="SourceGraphic" in2="effect1_dropShadow_4761_2412" result="shape"/>
</filter>
<filter id="filter2_d_4761_2412" x="26.3784" y="44.8545" width="57.5366" height="48.5928" filterUnits="userSpaceOnUse" color-interpolation-filters="sRGB">
<feFlood flood-opacity="0" result="BackgroundImageFix"/>
<feColorMatrix in="SourceAlpha" type="matrix" values="0 0 0 0 0 0 0 0 0 0 0 0 0 0 0 0 0 0 127 0" result="hardAlpha"/>
<feOffset/>
<feGaussianBlur stdDeviation="6.5"/>
<feComposite in2="hardAlpha" operator="out"/>
<feColorMatrix type="matrix" values="0 0 0 0 0 0 0 0 0 1 0 0 0 0 0.7 0 0 0 0.25 0"/>
<feBlend mode="normal" in2="BackgroundImageFix" result="effect1_dropShadow_4761_2412"/>
<feBlend mode="normal" in="SourceGraphic" in2="effect1_dropShadow_4761_2412" result="shape"/>
</filter>
<filter id="filter3_d_4761_2412" x="26.4282" y="9.89453" width="42.271" height="83.5518" filterUnits="userSpaceOnUse" color-interpolation-filters="sRGB">
<feFlood flood-opacity="0" result="BackgroundImageFix"/>
<feColorMatrix in="SourceAlpha" type="matrix" values="0 0 0 0 0 0 0 0 0 0 0 0 0 0 0 0 0 0 127 0" result="hardAlpha"/>
<feOffset/>
<feGaussianBlur stdDeviation="6.5"/>
<feComposite in2="hardAlpha" operator="out"/>
<feColorMatrix type="matrix" values="0 0 0 0 0 0 0 0 0 1 0 0 0 0 0.7 0 0 0 0.25 0"/>
<feBlend mode="normal" in2="BackgroundImageFix" result="effect1_dropShadow_4761_2412"/>
<feBlend mode="normal" in="SourceGraphic" in2="effect1_dropShadow_4761_2412" result="shape"/>
</filter>
<filter id="filter4_d_4761_2412" x="26.4282" y="9.89453" width="57.5366" height="83.5518" filterUnits="userSpaceOnUse" color-interpolation-filters="sRGB">
<feFlood flood-opacity="0" result="BackgroundImageFix"/>
<feColorMatrix in="SourceAlpha" type="matrix" values="0 0 0 0 0 0 0 0 0 0 0 0 0 0 0 0 0 0 127 0" result="hardAlpha"/>
<feOffset/>
<feGaussianBlur stdDeviation="6.5"/>
<feComposite in2="hardAlpha" operator="out"/>
<feColorMatrix type="matrix" values="0 0 0 0 0 0 0 0 0 1 0 0 0 0 0.7 0 0 0 0.25 0"/>
<feBlend mode="normal" in2="BackgroundImageFix" result="effect1_dropShadow_4761_2412"/>
<feBlend mode="normal" in="SourceGraphic" in2="effect1_dropShadow_4761_2412" result="shape"/>
</filter>
<filter id="filter5_d_4761_2412" x="0.579102" y="0.583008" width="108.74" height="108.862" filterUnits="userSpaceOnUse" color-interpolation-filters="sRGB">
<feFlood flood-opacity="0" result="BackgroundImageFix"/>
<feColorMatrix in="SourceAlpha" type="matrix" values="0 0 0 0 0 0 0 0 0 0 0 0 0 0 0 0 0 0 127 0" result="hardAlpha"/>
<feOffset/>
<feGaussianBlur stdDeviation="6.5"/>
<feComposite in2="hardAlpha" operator="out"/>
<feColorMatrix type="matrix" values="0 0 0 0 0 0 0 0 0 1 0 0 0 0 0.7 0 0 0 0.25 0"/>
<feBlend mode="normal" in2="BackgroundImageFix" result="effect1_dropShadow_4761_2412"/>
<feBlend mode="normal" in="SourceGraphic" in2="effect1_dropShadow_4761_2412" result="shape"/>
</filter>
<filter id="filter6_d_4761_2412" x="45" y="69" width="21" height="14" filterUnits="userSpaceOnUse" color-interpolation-filters="sRGB">
<feFlood flood-opacity="0" result="BackgroundImageFix"/>
<feColorMatrix in="SourceAlpha" type="matrix" values="0 0 0 0 0 0 0 0 0 0 0 0 0 0 0 0 0 0 127 0" result="hardAlpha"/>
<feOffset/>
<feGaussianBlur stdDeviation="1.5"/>
<feComposite in2="hardAlpha" operator="out"/>
<feColorMatrix type="matrix" values="0 0 0 0 1 0 0 0 0 1 0 0 0 0 1 0 0 0 1 0"/>
<feBlend mode="normal" in2="BackgroundImageFix" result="effect1_dropShadow_4761_2412"/>
<feBlend mode="normal" in="SourceGraphic" in2="effect1_dropShadow_4761_2412" result="shape"/>
</filter>
<linearGradient id="paint0_linear_4761_2412" x1="55.1842" y1="32.1014" x2="55.0519" y2="60.8079" gradientUnits="userSpaceOnUse">
<stop stop-color="#53FDA9"/>
<stop offset="1" stop-color="#00FF81" stop-opacity="0"/>
</linearGradient>
<linearGradient id="paint1_linear_4761_2412" x1="55.6299" y1="40.859" x2="55.5178" y2="65.1865" gradientUnits="userSpaceOnUse">
<stop stop-color="#53FDA9"/>
<stop offset="1" stop-color="#00FF81" stop-opacity="0"/>
</linearGradient>
<linearGradient id="paint2_linear_4761_2412" x1="55.354" y1="-4.87828" x2="54.9705" y2="78.3217" gradientUnits="userSpaceOnUse">
<stop stop-color="#53FDA9"/>
<stop offset="1" stop-color="#00FF81" stop-opacity="0"/>
</linearGradient>
<linearGradient id="paint3_linear_4761_2412" x1="36.7337" y1="29.5812" x2="55.9946" y2="77.8196" gradientUnits="userSpaceOnUse">
<stop stop-color="#53FDA9"/>
<stop offset="1" stop-color="#00FF81" stop-opacity="0"/>
</linearGradient>
<linearGradient id="paint4_linear_4761_2412" x1="41.0484" y1="34.9476" x2="69.5708" y2="68.1464" gradientUnits="userSpaceOnUse">
<stop stop-color="#53FDA9"/>
<stop offset="1" stop-color="#00FF81" stop-opacity="0"/>
</linearGradient>
<linearGradient id="paint5_linear_4761_2412" x1="41.2449" y1="0" x2="41.2449" y2="82.6116" gradientUnits="userSpaceOnUse">
<stop stop-color="#632BFF" stop-opacity="0"/>
<stop offset="1" stop-color="#632BFF"/>
</linearGradient>
<linearGradient id="paint6_linear_4761_2412" x1="70.6476" y1="56.4801" x2="42.4847" y2="55.9832" gradientUnits="userSpaceOnUse">
<stop stop-color="white"/>
<stop offset="1" stop-color="white" stop-opacity="0"/>
</linearGradient>
<linearGradient id="paint7_linear_4761_2412" x1="25.3557" y1="-29.3796" x2="25.3557" y2="81.9897" gradientUnits="userSpaceOnUse">
<stop offset="0.170133" stop-color="#53FDA9" stop-opacity="0"/>
<stop offset="1" stop-color="#53FDA9"/>
</linearGradient>
<linearGradient id="paint8_linear_4761_2412" x1="14.7598" y1="93.691" x2="91.4484" y2="29.5566" gradientUnits="userSpaceOnUse">
<stop stop-color="white"/>
<stop offset="1" stop-color="white" stop-opacity="0"/>
</linearGradient>
<linearGradient id="paint9_linear_4761_2412" x1="55.4995" y1="63.2194" x2="55.5504" y2="123.691" gradientUnits="userSpaceOnUse">
<stop stop-color="white"/>
<stop offset="1" stop-color="white" stop-opacity="0"/>
</linearGradient>
<linearGradient id="paint10_linear_4761_2412" x1="53.5006" y1="67.2181" x2="53.4722" y2="112.297" gradientUnits="userSpaceOnUse">
<stop stop-color="white"/>
<stop offset="1" stop-color="white" stop-opacity="0"/>
</linearGradient>
<linearGradient id="paint11_linear_4761_2412" x1="51.5006" y1="69.7884" x2="51.4864" y2="101.673" gradientUnits="userSpaceOnUse">
<stop stop-color="white"/>
<stop offset="1" stop-color="white" stop-opacity="0"/>
</linearGradient>
<linearGradient id="paint12_linear_4761_2412" x1="57.4995" y1="67.2181" x2="57.5278" y2="112.297" gradientUnits="userSpaceOnUse">
<stop stop-color="white"/>
<stop offset="1" stop-color="white" stop-opacity="0"/>
</linearGradient>
<linearGradient id="paint13_linear_4761_2412" x1="59.4995" y1="69.7884" x2="59.5136" y2="101.673" gradientUnits="userSpaceOnUse">
<stop stop-color="white"/>
<stop offset="1" stop-color="white" stop-opacity="0"/>
</linearGradient>
</defs>
</svg>
