<svg width="126" height="108" viewBox="0 0 126 108" fill="none" xmlns="http://www.w3.org/2000/svg">
<path d="M40.1738 49.1311V42.9382H41.8558V49.1311H40.1738Z" fill="url(#paint0_linear_4761_2375)"/>
<path d="M48.2016 35.9043L42.3146 39.3448L43.232 40.7974L49.0426 37.4334L48.2016 35.9043Z" fill="url(#paint1_linear_4761_2375)"/>
<path d="M59.1347 40.721L53.5535 37.4334L54.3181 35.9043L59.9757 39.1919L59.1347 40.721Z" fill="url(#paint2_linear_4761_2375)"/>
<circle cx="63.2635" cy="42.0985" r="3.93441" stroke="#53FDA9"/>
<circle cx="51.2602" cy="35.1401" r="3.28758" fill="#53FDA9"/>
<circle cx="41.0919" cy="41.0275" r="1.64075" stroke="#53FDA9"/>
<path d="M86.2021 58.6121V64.805H84.5201V58.6121H86.2021Z" fill="url(#paint3_linear_4761_2375)"/>
<path d="M78.1743 71.8389L84.0614 68.3984L83.1439 66.9457L77.3333 70.3098L78.1743 71.8389Z" fill="url(#paint4_linear_4761_2375)"/>
<path d="M67.2412 67.0222L72.8225 70.3098L72.0579 71.8389L66.4002 68.5513L67.2412 67.0222Z" fill="url(#paint5_linear_4761_2375)"/>
<circle cx="63.1125" cy="65.6447" r="3.93441" transform="rotate(-180 63.1125 65.6447)" fill="#53FDA9" stroke="#53FDA9"/>
<circle cx="75.1157" cy="72.6031" r="3.28758" transform="rotate(-180 75.1157 72.6031)" fill="#53FDA9"/>
<circle cx="85.2841" cy="66.7157" r="1.64075" transform="rotate(-180 85.2841 66.7157)" stroke="#53FDA9"/>
<path d="M78.8031 36.3114L84.1663 39.4079L83.3253 40.8645L77.9621 37.7681L78.8031 36.3114Z" fill="url(#paint6_linear_4761_2375)"/>
<path d="M86.2439 49.8771L86.2079 43.0585L84.4911 43.1267L84.4992 49.8409L86.2439 49.8771Z" fill="url(#paint7_linear_4761_2375)"/>
<path d="M76.606 56.9371L82.2437 53.7474L83.1857 55.1741L77.5097 58.43L76.606 56.9371Z" fill="url(#paint8_linear_4761_2375)"/>
<circle cx="73.3497" cy="59.8243" r="3.93441" transform="rotate(120 73.3497 59.8243)" stroke="#53FDA9"/>
<circle cx="85.3773" cy="52.9074" r="3.28758" transform="rotate(120 85.3773 52.9074)" fill="#53FDA9"/>
<circle cx="85.3628" cy="41.1566" r="1.64075" transform="rotate(120 85.3628 41.1566)" stroke="#53FDA9"/>
<path d="M47.5758 71.4327L42.2126 68.3363L43.0536 66.8796L48.4168 69.976L47.5758 71.4327Z" fill="url(#paint9_linear_4761_2375)"/>
<path d="M40.135 57.8671L40.171 64.6856L41.8878 64.6174L41.8797 57.9033L40.135 57.8671Z" fill="url(#paint10_linear_4761_2375)"/>
<path d="M49.7729 50.807L44.1352 53.9967L43.1932 52.5701L48.8692 49.3142L49.7729 50.807Z" fill="url(#paint11_linear_4761_2375)"/>
<circle cx="53.0292" cy="47.9199" r="3.93441" transform="rotate(-60 53.0292 47.9199)" fill="#53FDA9" stroke="#53FDA9"/>
<circle cx="41.0017" cy="54.8367" r="3.28758" transform="rotate(-60 41.0017 54.8367)" fill="#53FDA9"/>
<circle cx="41.0161" cy="66.5875" r="1.64075" transform="rotate(-60 41.0161 66.5875)" stroke="#53FDA9"/>
<path d="M70.5934 76.1806L65.2302 79.277L64.3892 77.8203L69.7524 74.7239L70.5934 76.1806Z" fill="url(#paint12_linear_4761_2375)"/>
<path d="M55.1248 75.8417L61.0478 79.2198L61.8471 77.6989L56.0285 74.3488L55.1248 75.8417Z" fill="url(#paint13_linear_4761_2375)"/>
<path d="M53.8296 63.965L53.7731 70.4423L52.0666 70.5447L52.0848 64.0012L53.8296 63.965Z" fill="url(#paint14_linear_4761_2375)"/>
<circle cx="52.9571" cy="59.7013" r="3.93441" transform="rotate(-120 52.9571 59.7013)" stroke="#53FDA9"/>
<circle cx="52.9328" cy="73.5755" r="3.28758" transform="rotate(-120 52.9328 73.5755)" fill="#53FDA9"/>
<circle cx="63.1156" cy="79.438" r="1.64075" transform="rotate(-120 63.1156 79.438)" stroke="#53FDA9"/>
<path d="M55.787 31.5733L61.1502 28.4769L61.9912 29.9336L56.628 33.03L55.787 31.5733Z" fill="url(#paint15_linear_4761_2375)"/>
<path d="M71.2556 31.9122L65.3325 28.5341L64.5332 30.055L70.3519 33.4051L71.2556 31.9122Z" fill="url(#paint16_linear_4761_2375)"/>
<path d="M72.5508 43.7889L72.6073 37.3117L74.3138 37.2092L74.2955 43.7527L72.5508 43.7889Z" fill="url(#paint17_linear_4761_2375)"/>
<circle cx="73.4233" cy="48.0526" r="3.93441" transform="rotate(60 73.4233 48.0526)" fill="#53FDA9" stroke="#53FDA9"/>
<circle cx="73.4475" cy="34.1784" r="3.28758" transform="rotate(60 73.4475 34.1784)" fill="#53FDA9"/>
<circle cx="63.2648" cy="28.3159" r="1.64075" transform="rotate(60 63.2648 28.3159)" stroke="#53FDA9"/>
<g filter="url(#filter0_d_4761_2375)">
<circle cx="63.5" cy="53.375" r="2.5" fill="#4FEEA2"/>
<circle cx="63.5" cy="53.375" r="2.2" stroke="#4FEEA2" stroke-width="0.6"/>
</g>
<circle cx="63.1247" cy="53.9997" r="38.8747" stroke="url(#paint18_linear_4761_2375)" stroke-width="0.5"/>
<g filter="url(#filter1_d_4761_2375)">
<ellipse cx="63" cy="43.375" rx="53" ry="13.5" stroke="url(#paint19_linear_4761_2375)" stroke-width="0.5" stroke-linecap="round" stroke-dasharray="1 1" shape-rendering="crispEdges"/>
</g>
<g filter="url(#filter2_d_4761_2375)">
<ellipse cx="63" cy="35.375" rx="49" ry="12.5" stroke="url(#paint20_linear_4761_2375)" stroke-width="0.25" stroke-linecap="round" stroke-linejoin="round" stroke-dasharray="2 2" shape-rendering="crispEdges"/>
</g>
<g filter="url(#filter3_d_4761_2375)">
<ellipse cx="63" cy="56.375" rx="49" ry="12.5" stroke="url(#paint21_linear_4761_2375)" stroke-width="0.25" stroke-linecap="round" stroke-linejoin="round" stroke-dasharray="2 2" shape-rendering="crispEdges"/>
</g>
<defs>
<filter id="filter0_d_4761_2375" x="58" y="47.875" width="11" height="11" filterUnits="userSpaceOnUse" color-interpolation-filters="sRGB">
<feFlood flood-opacity="0" result="BackgroundImageFix"/>
<feColorMatrix in="SourceAlpha" type="matrix" values="0 0 0 0 0 0 0 0 0 0 0 0 0 0 0 0 0 0 127 0" result="hardAlpha"/>
<feOffset/>
<feGaussianBlur stdDeviation="1.5"/>
<feComposite in2="hardAlpha" operator="out"/>
<feColorMatrix type="matrix" values="0 0 0 0 0.32549 0 0 0 0 0.992157 0 0 0 0 0.662745 0 0 0 1 0"/>
<feBlend mode="normal" in2="BackgroundImageFix" result="effect1_dropShadow_4761_2375"/>
<feBlend mode="normal" in="SourceGraphic" in2="effect1_dropShadow_4761_2375" result="shape"/>
</filter>
<filter id="filter1_d_4761_2375" x="4.75" y="24.625" width="116.5" height="37.5" filterUnits="userSpaceOnUse" color-interpolation-filters="sRGB">
<feFlood flood-opacity="0" result="BackgroundImageFix"/>
<feColorMatrix in="SourceAlpha" type="matrix" values="0 0 0 0 0 0 0 0 0 0 0 0 0 0 0 0 0 0 127 0" result="hardAlpha"/>
<feOffset/>
<feGaussianBlur stdDeviation="2.5"/>
<feComposite in2="hardAlpha" operator="out"/>
<feColorMatrix type="matrix" values="0 0 0 0 0 0 0 0 0 1 0 0 0 0 0.7 0 0 0 1 0"/>
<feBlend mode="normal" in2="BackgroundImageFix" result="effect1_dropShadow_4761_2375"/>
<feBlend mode="normal" in="SourceGraphic" in2="effect1_dropShadow_4761_2375" result="shape"/>
</filter>
<filter id="filter2_d_4761_2375" x="0.875" y="9.75" width="124.25" height="51.25" filterUnits="userSpaceOnUse" color-interpolation-filters="sRGB">
<feFlood flood-opacity="0" result="BackgroundImageFix"/>
<feColorMatrix in="SourceAlpha" type="matrix" values="0 0 0 0 0 0 0 0 0 0 0 0 0 0 0 0 0 0 127 0" result="hardAlpha"/>
<feOffset/>
<feGaussianBlur stdDeviation="6.5"/>
<feComposite in2="hardAlpha" operator="out"/>
<feColorMatrix type="matrix" values="0 0 0 0 0 0 0 0 0 1 0 0 0 0 0.7 0 0 0 0.25 0"/>
<feBlend mode="normal" in2="BackgroundImageFix" result="effect1_dropShadow_4761_2375"/>
<feBlend mode="normal" in="SourceGraphic" in2="effect1_dropShadow_4761_2375" result="shape"/>
</filter>
<filter id="filter3_d_4761_2375" x="0.875" y="30.75" width="124.25" height="51.25" filterUnits="userSpaceOnUse" color-interpolation-filters="sRGB">
<feFlood flood-opacity="0" result="BackgroundImageFix"/>
<feColorMatrix in="SourceAlpha" type="matrix" values="0 0 0 0 0 0 0 0 0 0 0 0 0 0 0 0 0 0 127 0" result="hardAlpha"/>
<feOffset/>
<feGaussianBlur stdDeviation="6.5"/>
<feComposite in2="hardAlpha" operator="out"/>
<feColorMatrix type="matrix" values="0 0 0 0 0 0 0 0 0 1 0 0 0 0 0.7 0 0 0 0.25 0"/>
<feBlend mode="normal" in2="BackgroundImageFix" result="effect1_dropShadow_4761_2375"/>
<feBlend mode="normal" in="SourceGraphic" in2="effect1_dropShadow_4761_2375" result="shape"/>
</filter>
<linearGradient id="paint0_linear_4761_2375" x1="60.9268" y1="40.9589" x2="41.0573" y2="49.5438" gradientUnits="userSpaceOnUse">
<stop stop-color="#53FDA9"/>
<stop offset="1" stop-color="#53FDA9" stop-opacity="0"/>
</linearGradient>
<linearGradient id="paint1_linear_4761_2375" x1="60.9268" y1="40.9589" x2="41.0573" y2="49.5438" gradientUnits="userSpaceOnUse">
<stop stop-color="#53FDA9"/>
<stop offset="1" stop-color="#53FDA9" stop-opacity="0"/>
</linearGradient>
<linearGradient id="paint2_linear_4761_2375" x1="60.9268" y1="40.9589" x2="41.0573" y2="49.5438" gradientUnits="userSpaceOnUse">
<stop stop-color="#53FDA9"/>
<stop offset="1" stop-color="#53FDA9" stop-opacity="0"/>
</linearGradient>
<linearGradient id="paint3_linear_4761_2375" x1="65.4492" y1="66.7843" x2="85.3187" y2="58.1993" gradientUnits="userSpaceOnUse">
<stop stop-color="#53FDA9"/>
<stop offset="1" stop-color="#53FDA9" stop-opacity="0"/>
</linearGradient>
<linearGradient id="paint4_linear_4761_2375" x1="65.4492" y1="66.7843" x2="85.3187" y2="58.1993" gradientUnits="userSpaceOnUse">
<stop stop-color="#53FDA9"/>
<stop offset="1" stop-color="#53FDA9" stop-opacity="0"/>
</linearGradient>
<linearGradient id="paint5_linear_4761_2375" x1="65.4492" y1="66.7843" x2="85.3187" y2="58.1993" gradientUnits="userSpaceOnUse">
<stop stop-color="#53FDA9"/>
<stop offset="1" stop-color="#53FDA9" stop-opacity="0"/>
</linearGradient>
<linearGradient id="paint6_linear_4761_2375" x1="75.5039" y1="58.3701" x2="78.0039" y2="36.8701" gradientUnits="userSpaceOnUse">
<stop stop-color="#53FDA9"/>
<stop offset="1" stop-color="#53FDA9" stop-opacity="0"/>
</linearGradient>
<linearGradient id="paint7_linear_4761_2375" x1="75.5039" y1="58.3701" x2="78.0039" y2="36.8701" gradientUnits="userSpaceOnUse">
<stop stop-color="#53FDA9"/>
<stop offset="1" stop-color="#53FDA9" stop-opacity="0"/>
</linearGradient>
<linearGradient id="paint8_linear_4761_2375" x1="75.5039" y1="58.3701" x2="78.0039" y2="36.8701" gradientUnits="userSpaceOnUse">
<stop stop-color="#53FDA9"/>
<stop offset="1" stop-color="#53FDA9" stop-opacity="0"/>
</linearGradient>
<linearGradient id="paint9_linear_4761_2375" x1="50.875" y1="49.374" x2="48.375" y2="70.874" gradientUnits="userSpaceOnUse">
<stop stop-color="#53FDA9"/>
<stop offset="1" stop-color="#53FDA9" stop-opacity="0"/>
</linearGradient>
<linearGradient id="paint10_linear_4761_2375" x1="50.875" y1="49.374" x2="48.375" y2="70.874" gradientUnits="userSpaceOnUse">
<stop stop-color="#53FDA9"/>
<stop offset="1" stop-color="#53FDA9" stop-opacity="0"/>
</linearGradient>
<linearGradient id="paint11_linear_4761_2375" x1="50.875" y1="49.374" x2="48.375" y2="70.874" gradientUnits="userSpaceOnUse">
<stop stop-color="#53FDA9"/>
<stop offset="1" stop-color="#53FDA9" stop-opacity="0"/>
</linearGradient>
<linearGradient id="paint12_linear_4761_2375" x1="53.1396" y1="62.2941" x2="70.5091" y2="75.2091" gradientUnits="userSpaceOnUse">
<stop stop-color="#53FDA9"/>
<stop offset="1" stop-color="#53FDA9" stop-opacity="0"/>
</linearGradient>
<linearGradient id="paint13_linear_4761_2375" x1="53.1396" y1="62.2941" x2="70.5091" y2="75.2091" gradientUnits="userSpaceOnUse">
<stop stop-color="#53FDA9"/>
<stop offset="1" stop-color="#53FDA9" stop-opacity="0"/>
</linearGradient>
<linearGradient id="paint14_linear_4761_2375" x1="53.1396" y1="62.2941" x2="70.5091" y2="75.2091" gradientUnits="userSpaceOnUse">
<stop stop-color="#53FDA9"/>
<stop offset="1" stop-color="#53FDA9" stop-opacity="0"/>
</linearGradient>
<linearGradient id="paint15_linear_4761_2375" x1="73.2408" y1="45.4598" x2="55.8712" y2="32.5448" gradientUnits="userSpaceOnUse">
<stop stop-color="#53FDA9"/>
<stop offset="1" stop-color="#53FDA9" stop-opacity="0"/>
</linearGradient>
<linearGradient id="paint16_linear_4761_2375" x1="73.2408" y1="45.4598" x2="55.8712" y2="32.5448" gradientUnits="userSpaceOnUse">
<stop stop-color="#53FDA9"/>
<stop offset="1" stop-color="#53FDA9" stop-opacity="0"/>
</linearGradient>
<linearGradient id="paint17_linear_4761_2375" x1="73.2408" y1="45.4598" x2="55.8712" y2="32.5448" gradientUnits="userSpaceOnUse">
<stop stop-color="#53FDA9"/>
<stop offset="1" stop-color="#53FDA9" stop-opacity="0"/>
</linearGradient>
<linearGradient id="paint18_linear_4761_2375" x1="63.1247" y1="14.875" x2="63.1247" y2="85.2995" gradientUnits="userSpaceOnUse">
<stop stop-color="#4D23C7"/>
<stop offset="0.90973" stop-color="#4100FF" stop-opacity="0"/>
</linearGradient>
<linearGradient id="paint19_linear_4761_2375" x1="63" y1="20.2" x2="63" y2="56.875" gradientUnits="userSpaceOnUse">
<stop offset="0.170133" stop-color="#53FDA9" stop-opacity="0"/>
<stop offset="1" stop-color="#53FDA9"/>
</linearGradient>
<linearGradient id="paint20_linear_4761_2375" x1="63" y1="22.875" x2="63" y2="47.875" gradientUnits="userSpaceOnUse">
<stop offset="0.170133" stop-color="white" stop-opacity="0"/>
<stop offset="0.878479" stop-color="white"/>
</linearGradient>
<linearGradient id="paint21_linear_4761_2375" x1="63" y1="43.875" x2="63" y2="68.875" gradientUnits="userSpaceOnUse">
<stop offset="0.170133" stop-color="white" stop-opacity="0"/>
<stop offset="0.878479" stop-color="white"/>
</linearGradient>
</defs>
</svg>
