<svg width="140" height="146" viewBox="0 0 140 146" fill="none" xmlns="http://www.w3.org/2000/svg">
<g filter="url(#filter0_d_4925_1981)">
<path d="M130.116 48.7173C130.118 47.7448 129.858 46.7897 129.364 45.952C128.87 45.1144 128.16 44.4248 127.308 43.9555L102.981 30.3551C101.297 29.4175 99.4104 28.9032 97.4836 28.8564V24.1361C97.4917 23.1472 97.2289 22.1752 96.7234 21.3253C96.218 20.4754 95.4894 19.7802 94.6168 19.3155L78.3948 10.2346C78.2385 10.1446 78.0769 10.064 77.9111 9.99292C77.1354 9.64677 76.2892 9.48778 75.4408 9.52878C74.5924 9.56977 73.7655 9.80955 73.0268 10.2289L48.6173 23.8883C46.874 24.8671 45.4052 26.2694 44.3465 27.9656L39.6627 25.3398C38.8411 24.8731 37.9101 24.6343 36.9654 24.6477C36.0207 24.6612 35.0968 24.9265 34.2889 25.4164L18.1258 34.4618L18.0433 34.503C17.2314 34.9719 16.558 35.6474 16.0918 36.461C15.6255 37.2745 15.383 38.1971 15.3888 39.1349V66.2768C15.3927 68.295 15.9104 70.2789 16.8931 72.0415L12.7638 74.3544C11.9079 74.8247 11.1951 75.5178 10.7008 76.3602C10.2065 77.2026 9.94915 78.1631 9.95596 79.1399V97.3958C9.94872 98.3734 10.2058 99.3346 10.7001 100.178C11.1944 101.021 11.9075 101.716 12.7638 102.187L37.0731 115.793C38.7573 116.731 40.644 117.245 42.5709 117.292V122.012C42.571 122.988 42.8313 123.945 43.3248 124.787C43.8184 125.628 44.5275 126.322 45.3788 126.798L61.6537 135.908C62.4727 136.377 63.3998 136.625 64.3436 136.627C65.2842 136.626 66.2085 136.382 67.0277 135.92L81.0434 128.072L91.4372 122.26C93.178 121.28 94.6446 119.878 95.7021 118.183L100.209 120.708C101.028 121.17 101.952 121.414 102.893 121.416C103.868 121.414 104.825 121.151 105.665 120.655L121.934 111.545C122.767 111.07 123.459 110.383 123.94 109.554C124.421 108.725 124.673 107.783 124.672 106.825V79.8656C124.67 77.849 124.152 75.8662 123.167 74.1067L127.297 71.7937C128.148 71.3249 128.859 70.6355 129.353 69.7977C129.847 68.96 130.106 68.0048 130.104 67.0322V48.7409L130.116 48.7173ZM97.5013 29.4407C99.327 29.4859 101.114 29.9737 102.71 30.8625L127.019 44.4689C127.784 44.8899 128.42 45.5096 128.862 46.2626C129.303 47.0156 129.533 47.8739 129.526 48.7467C129.531 49.6185 129.301 50.4757 128.86 51.2276C128.419 51.9794 127.783 52.5982 127.019 53.0187L108.078 63.6395L97.8139 57.8923L113.658 49.0417C113.704 49.0172 113.743 48.9806 113.77 48.936C113.797 48.8913 113.811 48.8404 113.812 48.7882C113.811 48.7352 113.797 48.6831 113.77 48.6375C113.743 48.5919 113.705 48.5542 113.658 48.5283L97.5013 39.4832V29.4407ZM97.5013 40.1202L112.909 48.7467L97.5013 57.3671V40.1202ZM94.3514 19.8289C95.1309 20.2427 95.7819 20.8624 96.2334 21.6209C96.6848 22.3794 96.9193 23.2476 96.9114 24.1303V57.3671L86.6297 51.6142V33.5295C86.6294 33.4787 86.6162 33.4289 86.5915 33.3846C86.5667 33.3402 86.5312 33.3028 86.4881 33.2759C86.4433 33.2501 86.3924 33.2362 86.3406 33.2362C86.2888 33.2362 86.238 33.2501 86.1931 33.2759L69.8826 42.4037H69.8533L69.8237 42.4334V42.4628C69.8237 42.4628 69.8237 42.4628 69.8237 42.4982C69.8237 42.5336 69.8237 42.5276 69.8237 42.5394C69.8237 42.5512 69.8237 42.5396 69.8237 42.5809V72.8499L59.542 78.6029V43.336C59.5428 41.3323 60.0771 39.3648 61.09 37.6361C62.1029 35.9074 63.5578 34.4799 65.3051 33.5001L89.7148 19.8407C90.4341 19.4353 91.2448 19.2198 92.0704 19.2146C92.8961 19.2095 93.7095 19.4146 94.4339 19.811L94.3514 19.8289ZM86.0398 34.0371V51.284L70.6318 42.6576L86.0398 34.0371ZM48.9122 24.3956L73.3217 10.7305C73.9819 10.3554 74.7212 10.1412 75.4797 10.1053C76.2381 10.0694 76.9944 10.2128 77.687 10.5239C77.8345 10.5888 77.976 10.6595 78.1176 10.7362L92.2749 18.6545C91.2464 18.6026 90.2241 18.8418 89.3255 19.3449L64.9158 33.0046C63.0774 34.0356 61.5466 35.5378 60.4809 37.3567C59.4151 39.1756 58.8528 41.2453 58.8518 43.3536V78.9981L43.1313 87.7958V34.2316C43.1315 32.2285 43.6649 30.2615 44.6767 28.5329C45.6885 26.8042 47.1424 25.3763 48.8886 24.3956H48.9122ZM34.5838 25.918C35.3032 25.4797 36.1269 25.2419 36.9691 25.2294C37.8114 25.217 38.6416 25.4302 39.3736 25.8471L44.0456 28.4611C43.0606 30.2249 42.5427 32.2112 42.5414 34.2316V45.2007L23.3464 34.4854C22.4877 34.0019 21.5113 33.767 20.5267 33.8069L34.5838 25.918ZM15.961 66.3065V39.1646C15.9535 38.3288 16.168 37.5059 16.5826 36.7802C16.9971 36.0545 17.5969 35.4521 18.3205 35.0343C19.0372 34.6073 19.8543 34.3779 20.6884 34.3696C21.5226 34.3613 22.3441 34.5744 23.0692 34.987L42.5355 45.8849V57.3789L26.6674 48.4989C26.6226 48.473 26.5717 48.4594 26.5199 48.4594C26.4682 48.4594 26.4173 48.473 26.3725 48.4989C26.3279 48.5247 26.2909 48.5616 26.265 48.6061C26.2392 48.6506 26.2253 48.7012 26.225 48.7527V66.8314L17.3767 71.788C16.4369 70.1137 15.9415 68.2266 15.9374 66.3065H15.961ZM42.2464 57.8748L26.8326 66.4952V49.2365L42.2464 57.8748ZM13.0352 74.8975L26.6851 67.2564L42.5532 58.3763V69.8879L26.3961 78.9333C26.3496 78.9573 26.3107 78.9937 26.2836 79.0385C26.2565 79.0833 26.2423 79.1345 26.2427 79.1869C26.2432 79.2398 26.2577 79.2919 26.2846 79.3375C26.3115 79.3831 26.3499 79.4208 26.3961 79.4467L42.7007 88.5745C42.7396 88.5987 42.7847 88.611 42.8304 88.6099C42.8762 88.611 42.9213 88.5987 42.9602 88.5745L69.9948 73.44L80.2588 79.1869L48.3164 97.0711C46.6325 98.0056 44.7385 98.496 42.8127 98.496C40.887 98.496 38.9929 98.0056 37.309 97.0711L12.9997 83.4647C12.2353 83.0437 11.5989 82.4242 11.1576 81.6712C10.7163 80.9182 10.4865 80.0597 10.4927 79.1869C10.4856 78.3108 10.7161 77.4495 11.1596 76.6941C11.6032 75.9388 12.2432 75.3179 13.0115 74.8975H13.0352ZM42.5296 70.5488V87.7958L27.1216 79.1693L42.5296 70.5488ZM37.3208 115.309L13.0115 101.703C12.2471 101.282 11.6106 100.662 11.1693 99.9092C10.728 99.1562 10.4983 98.298 10.5045 97.4251V81.6415C10.9963 82.6183 11.7687 83.4259 12.7225 83.9605L37.0318 97.5669C38.8037 98.5514 40.7976 99.0672 42.8245 99.0656C44.8497 99.0681 46.8419 98.5521 48.6114 97.5669L80.8782 79.5115L96.581 88.2973L80.7308 97.148L69.8592 103.231L58.9874 109.314L48.3282 115.286C46.6457 116.225 44.7512 116.718 42.8245 116.72C40.901 116.729 39.0067 116.248 37.3208 115.321V115.309ZM96.8996 88.8047V106.052L81.4918 97.4251L96.8996 88.8047ZM70.3134 104.016L85.7212 112.642L70.3134 121.263V104.016ZM45.6383 126.314C44.8789 125.888 44.2465 125.268 43.8059 124.518C43.3652 123.767 43.1324 122.912 43.1313 122.042V117.321C45.0564 117.275 46.9414 116.761 48.6232 115.823L58.8518 110.099V131.17C58.849 132.262 59.176 133.329 59.7897 134.232L45.6383 126.314ZM91.1363 121.776L80.7426 127.594L66.7268 135.442C65.9831 135.862 65.1416 136.079 64.2872 136.071C63.4328 136.063 62.5957 135.829 61.8602 135.394C61.121 134.965 60.508 134.349 60.0834 133.607C59.6587 132.865 59.4374 132.024 59.4416 131.17V109.769L69.7235 104.016V121.812C69.7202 121.831 69.7202 121.851 69.7235 121.871V121.924C69.7444 121.954 69.7703 121.979 69.8001 122C69.8423 122.022 69.8885 122.034 69.9358 122.036C69.9806 122.035 70.0248 122.025 70.0655 122.006L86.2286 112.961L95.0769 117.912C94.1011 119.508 92.7426 120.837 91.1245 121.776H91.1363ZM105.353 120.177C104.618 120.614 103.781 120.85 102.927 120.859C102.072 120.868 101.23 120.651 100.486 120.23L70.62 103.515L80.8901 97.7674L97.0529 106.813C97.0964 106.836 97.1451 106.848 97.1945 106.848C97.2485 106.849 97.3018 106.835 97.3479 106.807C97.3914 106.78 97.4273 106.743 97.4522 106.699C97.477 106.654 97.4897 106.604 97.4894 106.553V88.2619C97.4894 88.2619 97.4894 88.2322 97.4894 88.2204C97.4902 88.2067 97.4902 88.193 97.4894 88.1792C97.4894 88.1792 97.4894 88.1792 97.4894 88.1438L97.4599 88.1144V88.0847H97.4247L81.1141 78.9569L70.3959 72.9563V61.4444L102.091 79.1987C103.838 80.1785 105.293 81.6063 106.306 83.335C107.319 85.0637 107.853 87.0312 107.854 89.0349V115.994C107.843 116.851 107.604 117.69 107.163 118.425C106.721 119.16 106.092 119.765 105.341 120.177H105.353ZM124.082 79.8656V106.825C124.087 107.684 123.863 108.529 123.434 109.274C123.005 110.018 122.386 110.635 121.639 111.061L107.423 119.021C108.038 118.116 108.365 117.046 108.361 115.952V88.9934C108.36 86.8851 107.798 84.8151 106.732 82.9962C105.666 81.1773 104.136 79.6751 102.297 78.6441L70.3134 60.7305V43.1649L86.1813 52.0449L97.047 58.1283L107.913 64.2117L118.307 70.0236C120.054 71.0049 121.509 72.4338 122.522 74.1634C123.535 75.893 124.069 77.8612 124.07 79.8656H124.082ZM129.515 66.985C129.52 67.8568 129.289 68.7137 128.848 69.4656C128.407 70.2174 127.771 70.8362 127.007 71.2567L122.878 73.5757C121.825 71.8773 120.357 70.4743 118.613 69.4984L108.686 63.9403L127.308 53.5143C128.266 52.9825 129.04 52.1717 129.526 51.1895L129.515 66.985Z" fill="white"/>
</g>
<defs>
<filter id="filter0_d_4925_1981" x="0.955811" y="0.522461" width="138.16" height="145.105" filterUnits="userSpaceOnUse" color-interpolation-filters="sRGB">
<feFlood flood-opacity="0" result="BackgroundImageFix"/>
<feColorMatrix in="SourceAlpha" type="matrix" values="0 0 0 0 0 0 0 0 0 0 0 0 0 0 0 0 0 0 127 0" result="hardAlpha"/>
<feOffset/>
<feGaussianBlur stdDeviation="4.5"/>
<feComposite in2="hardAlpha" operator="out"/>
<feColorMatrix type="matrix" values="0 0 0 0 0.263737 0 0 0 0 0.0672362 0 0 0 0 0.825166 0 0 0 1 0"/>
<feBlend mode="normal" in2="BackgroundImageFix" result="effect1_dropShadow_4925_1981"/>
<feBlend mode="normal" in="SourceGraphic" in2="effect1_dropShadow_4925_1981" result="shape"/>
</filter>
</defs>
</svg>
