<svg width="241" height="254" viewBox="0 0 241 254" fill="none" xmlns="http://www.w3.org/2000/svg">
<g filter="url(#filter0_d_4479_22023)">
<path d="M232 82.1275C232.002 80.3304 231.522 78.5654 230.609 77.0174C229.697 75.4695 228.385 74.1952 226.811 73.3279L181.856 48.1951C178.744 46.4624 175.257 45.5119 171.696 45.4255V36.7025C171.711 34.8752 171.226 33.0789 170.292 31.5083C169.358 29.9378 168.011 28.6531 166.399 27.7943L136.421 11.0133C136.132 10.847 135.834 10.6981 135.527 10.5666C134.094 9.92698 132.53 9.63318 130.962 9.70894C129.395 9.7847 127.867 10.2278 126.501 11.0027L81.3938 36.2446C78.1723 38.0534 75.4581 40.6447 73.5016 43.7793L64.8461 38.9269C63.3279 38.0646 61.6074 37.6231 59.8617 37.6481C58.116 37.673 56.4085 38.1632 54.9156 39.0685L25.047 55.784L24.8945 55.8601C23.3941 56.7265 22.1498 57.9749 21.2881 59.4784C20.4265 60.9818 19.9784 62.6867 19.9891 64.4196V114.577C19.9963 118.306 20.953 121.972 22.7689 125.23L15.1383 129.504C13.5567 130.373 12.2394 131.654 11.3259 133.21C10.4125 134.767 9.93691 136.542 9.94949 138.347V172.083C9.93611 173.89 10.4112 175.666 11.3246 177.224C12.238 178.783 13.5558 180.066 15.1383 180.937L60.0607 206.08C63.173 207.813 66.6596 208.764 70.2204 208.85V217.573C70.2205 219.375 70.7015 221.146 71.6136 222.7C72.5257 224.254 73.836 225.537 75.4092 226.416L105.485 243.251C106.998 244.119 108.711 244.577 110.455 244.581C112.193 244.578 113.902 244.128 115.415 243.273L141.316 228.771L160.523 218.031C163.74 216.22 166.45 213.629 168.404 210.497L176.733 215.163C178.247 216.017 179.955 216.468 181.693 216.472C183.495 216.467 185.264 215.981 186.816 215.065L216.88 198.23C218.419 197.353 219.698 196.083 220.586 194.551C221.475 193.019 221.942 191.278 221.939 189.507V139.688C221.936 135.962 220.979 132.297 219.159 129.046L226.789 124.772C228.364 123.905 229.676 122.631 230.589 121.083C231.502 119.535 231.982 117.77 231.978 115.973V82.1711L232 82.1275ZM171.729 46.5052C175.103 46.5887 178.406 47.4901 181.355 49.1326L226.277 74.2766C227.69 75.0546 228.866 76.1999 229.681 77.5914C230.497 78.9829 230.921 80.5689 230.91 82.1818C230.919 83.7929 230.494 85.3769 229.679 86.7663C228.863 88.1557 227.688 89.2992 226.277 90.0763L191.274 109.703L172.307 99.0825L201.587 82.727C201.672 82.6817 201.743 82.6141 201.793 82.5316C201.843 82.449 201.87 82.3549 201.87 82.2585C201.869 82.1606 201.842 82.0642 201.793 81.98C201.743 81.8958 201.672 81.8262 201.587 81.7782L171.729 65.0633V46.5052ZM171.729 66.2405L200.202 82.1818L171.729 98.1119V66.2405ZM165.908 28.743C167.349 29.5077 168.552 30.6529 169.386 32.0546C170.22 33.4563 170.654 35.0606 170.639 36.6919V98.1119L151.639 87.4808V54.0611C151.638 53.9672 151.614 53.8753 151.568 53.7933C151.523 53.7113 151.457 53.6423 151.377 53.5926C151.294 53.5447 151.2 53.5191 151.105 53.5191C151.009 53.5191 150.915 53.5447 150.832 53.5926L120.691 70.4603H120.637L120.582 70.5152V70.5695C120.582 70.5695 120.582 70.5695 120.582 70.6349C120.582 70.7004 120.582 70.6893 120.582 70.7111C120.582 70.7329 120.582 70.7114 120.582 70.7877V126.723L101.582 137.355V72.1832C101.584 68.4804 102.571 64.8446 104.443 61.65C106.315 58.4555 109.003 55.8175 112.232 54.0068L157.34 28.7649C158.669 28.0156 160.167 27.6175 161.693 27.6079C163.219 27.5984 164.722 27.9775 166.061 28.71L165.908 28.743ZM150.549 54.9992V86.8707L122.076 70.9294L150.549 54.9992ZM81.9388 37.1822L127.046 11.9296C128.266 11.2364 129.633 10.8406 131.034 10.7743C132.436 10.708 133.833 10.973 135.113 11.5479C135.386 11.6678 135.647 11.7985 135.909 11.9403L162.071 26.5729C160.171 26.4769 158.281 26.919 156.621 27.8486L111.513 53.0911C108.115 54.9965 105.287 57.7724 103.317 61.1336C101.348 64.4949 100.308 68.3197 100.307 72.2157V138.085L71.2559 154.343V55.3586C71.2564 51.6569 72.242 48.022 74.1118 44.8276C75.9816 41.6331 78.6682 38.9943 81.8952 37.1822H81.9388ZM55.4606 39.9954C56.79 39.1854 58.3121 38.746 59.8686 38.723C61.4251 38.7 62.9592 39.0941 64.312 39.8645L72.9456 44.695C71.1252 47.9544 70.1683 51.6251 70.1659 55.3586V75.6289L34.6944 55.8276C33.1075 54.9341 31.3033 54.5 29.4838 54.5738L55.4606 39.9954ZM21.0465 114.631V64.4745C21.0327 62.93 21.429 61.4093 22.1951 60.0683C22.9612 58.7273 24.0696 57.6141 25.4068 56.8419C26.7313 56.0528 28.2411 55.6289 29.7826 55.6136C31.3241 55.5983 32.8422 55.992 34.1821 56.7546L70.1549 76.8934V98.1338L40.8315 81.7239C40.7486 81.6761 40.6546 81.651 40.5589 81.651C40.4633 81.651 40.3693 81.6761 40.2864 81.7239C40.204 81.7715 40.1357 81.8397 40.0879 81.922C40.0401 82.0042 40.0145 82.0978 40.0139 82.193V115.602L23.6626 124.761C21.926 121.667 21.0104 118.18 21.0029 114.631H21.0465ZM69.6208 99.05L41.1367 114.98V83.0869L69.6208 99.05ZM15.6397 130.507L40.8642 116.387L70.1877 99.977V121.25L40.3301 137.965C40.2441 138.01 40.1722 138.077 40.1222 138.16C40.0722 138.242 40.0459 138.337 40.0466 138.434C40.0475 138.532 40.0743 138.628 40.1241 138.712C40.1738 138.796 40.2448 138.866 40.3301 138.914L70.4602 155.782C70.5321 155.826 70.6154 155.849 70.7 155.847C70.7846 155.849 70.8679 155.826 70.9398 155.782L120.899 127.814L139.866 138.434L80.8378 171.483C77.7261 173.21 74.2259 174.116 70.6672 174.116C67.1086 174.116 63.6084 173.21 60.4967 171.483L15.5742 146.339C14.1617 145.561 12.9856 144.416 12.1701 143.025C11.3546 141.633 10.93 140.047 10.9414 138.434C10.9282 136.815 11.3542 135.223 12.1738 133.827C12.9935 132.432 14.1761 131.284 15.5961 130.507H15.6397ZM70.144 122.471V154.343L41.6708 138.401L70.144 122.471ZM60.5185 205.186L15.5961 180.042C14.1835 179.265 13.0072 178.119 12.1917 176.728C11.3762 175.336 10.9518 173.75 10.9632 172.137V142.97C11.872 144.775 13.2993 146.267 15.0619 147.255L59.9843 172.399C63.2588 174.219 66.9434 175.172 70.6891 175.169C74.4315 175.173 78.1129 174.22 81.3829 172.399L141.011 139.034L170.029 155.27L140.738 171.625L120.648 182.866L100.557 194.108L80.8597 205.143C77.7503 206.878 74.2495 207.79 70.6891 207.793C67.1344 207.81 63.6339 206.92 60.5185 205.208V205.186ZM170.617 156.207V188.079L142.144 172.137L170.617 156.207ZM121.487 184.317L149.96 200.258L121.487 216.188V184.317ZM75.8888 225.522C74.4855 224.736 73.3167 223.59 72.5025 222.203C71.6883 220.815 71.258 219.237 71.2559 217.628V208.905C74.8135 208.82 78.2968 207.869 81.4047 206.135L100.307 195.558V234.495C100.302 236.513 100.906 238.486 102.04 240.154L75.8888 225.522ZM159.967 217.137L140.76 227.888L114.859 242.39C113.485 243.167 111.93 243.569 110.351 243.553C108.772 243.538 107.225 243.107 105.866 242.303C104.5 241.51 103.367 240.37 102.583 239C101.798 237.629 101.389 236.075 101.397 234.495V194.948L120.397 184.317V217.202C120.391 217.238 120.391 217.275 120.397 217.312V217.409C120.436 217.465 120.484 217.512 120.539 217.551C120.617 217.591 120.702 217.613 120.789 217.617C120.872 217.615 120.954 217.597 121.029 217.562L150.898 200.847L167.249 209.995C165.446 212.946 162.935 215.4 159.945 217.137H159.967ZM186.238 214.182C184.881 214.99 183.334 215.424 181.755 215.442C180.176 215.459 178.62 215.058 177.245 214.28L122.054 183.39L141.032 172.77L170.901 189.485C170.981 189.529 171.071 189.551 171.162 189.551C171.262 189.553 171.36 189.526 171.446 189.474C171.526 189.425 171.593 189.357 171.638 189.274C171.684 189.192 171.708 189.1 171.707 189.006V155.204C171.707 155.204 171.707 155.149 171.707 155.127C171.709 155.102 171.709 155.077 171.707 155.051C171.707 155.051 171.707 155.051 171.707 154.986L171.653 154.931V154.877H171.588L141.446 138.009L121.64 126.92V105.647L180.21 138.456C183.439 140.266 186.128 142.905 188 146.099C189.871 149.294 190.859 152.93 190.86 156.633V206.451C190.839 208.036 190.399 209.586 189.583 210.944C188.767 212.303 187.605 213.42 186.216 214.182H186.238ZM220.848 139.688V189.507C220.858 191.095 220.445 192.657 219.652 194.033C218.859 195.409 217.714 196.548 216.335 197.336L190.064 212.045C191.2 210.373 191.804 208.396 191.798 206.375V156.556C191.796 152.66 190.757 148.835 188.787 145.473C186.818 142.112 183.989 139.336 180.592 137.431L121.487 104.327V71.8669L150.81 88.2768L170.89 99.5186L190.969 110.76L210.176 121.501C213.406 123.314 216.094 125.954 217.966 129.151C219.837 132.347 220.825 135.984 220.827 139.688H220.848ZM230.888 115.885C230.898 117.496 230.472 119.08 229.657 120.469C228.841 121.859 227.666 123.002 226.255 123.779L218.625 128.065C216.678 124.926 213.966 122.333 210.743 120.53L192.397 110.259L226.811 90.9921C228.582 90.0094 230.011 88.511 230.91 86.6961L230.888 115.885Z" fill="white"/>
</g>
<defs>
<filter id="filter0_d_4479_22023" x="0.949219" y="0.697266" width="240.051" height="252.884" filterUnits="userSpaceOnUse" color-interpolation-filters="sRGB">
<feFlood flood-opacity="0" result="BackgroundImageFix"/>
<feColorMatrix in="SourceAlpha" type="matrix" values="0 0 0 0 0 0 0 0 0 0 0 0 0 0 0 0 0 0 127 0" result="hardAlpha"/>
<feOffset/>
<feGaussianBlur stdDeviation="4.5"/>
<feComposite in2="hardAlpha" operator="out"/>
<feColorMatrix type="matrix" values="0 0 0 0 0.263737 0 0 0 0 0.0672362 0 0 0 0 0.825166 0 0 0 1 0"/>
<feBlend mode="normal" in2="BackgroundImageFix" result="effect1_dropShadow_4479_22023"/>
<feBlend mode="normal" in="SourceGraphic" in2="effect1_dropShadow_4479_22023" result="shape"/>
</filter>
</defs>
</svg>
