<svg width="122" height="128" viewBox="0 0 122 128" fill="none"
    xmlns="http://www.w3.org/2000/svg">
    <path d="M121.116 39.7173C121.118 38.7448 120.858 37.7897 120.364 36.952C119.87 36.1144 119.16 35.4248 118.308 34.9555L93.9814 21.3551C92.2972 20.4175 90.4104 19.9032 88.4835 19.8564V15.1361C88.4917 14.1472 88.2289 13.1752 87.7234 12.3253C87.218 11.4754 86.4894 10.7802 85.6168 10.3155L69.3948 1.23464C69.2385 1.14463 69.0769 1.06405 68.9111 0.992917C68.1354 0.646767 67.2892 0.487782 66.4408 0.528778C65.5924 0.569774 64.7655 0.809546 64.0268 1.22888L39.6173 14.8883C37.874 15.8671 36.4052 17.2694 35.3465 18.9656L30.6627 16.3398C29.8411 15.8731 28.9101 15.6343 27.9654 15.6477C27.0207 15.6612 26.0968 15.9265 25.2889 16.4164L9.12583 25.4618L9.04331 25.503C8.23139 25.9719 7.558 26.6474 7.09175 27.461C6.6255 28.2745 6.38301 29.1971 6.38881 30.1349V57.2768C6.3927 59.295 6.9104 61.2789 7.89305 63.0415L3.76383 65.3544C2.90795 65.8247 2.19511 66.5178 1.70081 67.3602C1.20651 68.2026 0.94915 69.1631 0.955959 70.1399V88.3958C0.948719 89.3734 1.2058 90.3346 1.70009 91.178C2.19438 92.0214 2.90748 92.7157 3.76383 93.187L28.0731 106.793C29.7573 107.731 31.644 108.245 33.5709 108.292V113.012C33.571 113.988 33.8313 114.945 34.3248 115.787C34.8184 116.628 35.5275 117.322 36.3788 117.798L52.6537 126.908C53.4727 127.377 54.3998 127.625 55.3436 127.627C56.2842 127.626 57.2085 127.382 58.0277 126.92L72.0434 119.072L82.4372 113.26C84.178 112.28 85.6446 110.878 86.7021 109.183L91.2089 111.708C92.0281 112.17 92.9524 112.414 93.8929 112.416C94.8683 112.414 95.8253 112.151 96.6654 111.655L112.934 102.545C113.767 102.07 114.459 101.383 114.94 100.554C115.421 99.7249 115.673 98.7832 115.672 97.8246V70.8656C115.67 68.849 115.152 66.8662 114.167 65.1067L118.297 62.7937C119.148 62.3249 119.859 61.6355 120.353 60.7977C120.847 59.96 121.106 59.0048 121.104 58.0322V39.7409L121.116 39.7173ZM88.5013 20.4407C90.327 20.4859 92.1145 20.9737 93.71 21.8625L118.019 35.4689C118.784 35.8899 119.42 36.5096 119.862 37.2626C120.303 38.0156 120.532 38.8739 120.526 39.7467C120.531 40.6185 120.301 41.4757 119.86 42.2276C119.419 42.9794 118.783 43.5982 118.019 44.0187L99.0779 54.6395L88.8139 48.8923L104.658 40.0417C104.704 40.0172 104.743 39.9806 104.77 39.936C104.797 39.8913 104.811 39.8404 104.812 39.7882C104.811 39.7352 104.797 39.6831 104.77 39.6375C104.743 39.5919 104.705 39.5542 104.658 39.5283L88.5013 30.4832V20.4407ZM88.5013 31.1202L103.909 39.7467L88.5013 48.3671V31.1202ZM85.3514 10.8289C86.1309 11.2427 86.7819 11.8624 87.2334 12.6209C87.6848 13.3794 87.9193 14.2476 87.9114 15.1303V48.3671L77.6297 42.6142V24.5295C77.6294 24.4787 77.6162 24.4289 77.5915 24.3846C77.5667 24.3402 77.5312 24.3028 77.4881 24.2759C77.4433 24.2501 77.3924 24.2362 77.3406 24.2362C77.2888 24.2362 77.238 24.2501 77.1931 24.2759L60.8826 33.4037H60.8533L60.8237 33.4334V33.4628C60.8237 33.4628 60.8237 33.4628 60.8237 33.4982C60.8237 33.5336 60.8237 33.5276 60.8237 33.5394C60.8237 33.5512 60.8237 33.5396 60.8237 33.5809V63.8499L50.542 69.6029V34.336C50.5428 32.3323 51.0771 30.3648 52.09 28.6361C53.1029 26.9074 54.5578 25.4799 56.3051 24.5001L80.7148 10.8407C81.4341 10.4353 82.2448 10.2198 83.0704 10.2146C83.8961 10.2095 84.7095 10.4146 85.4339 10.811L85.3514 10.8289ZM77.0398 25.0371V42.284L61.6318 33.6576L77.0398 25.0371ZM39.9122 15.3956L64.3217 1.73047C64.9819 1.35536 65.7212 1.14116 66.4797 1.10528C67.2381 1.0694 67.9944 1.21279 68.687 1.5239C68.8345 1.5888 68.976 1.65953 69.1176 1.73623L83.2749 9.65455C82.2464 9.60258 81.2241 9.84182 80.3255 10.3449L55.9158 24.0046C54.0774 25.0356 52.5466 26.5378 51.4809 28.3567C50.4151 30.1756 49.8528 32.2453 49.8518 34.3536V69.9981L34.1313 78.7958V25.2316C34.1315 23.2285 34.6649 21.2615 35.6767 19.5329C36.6885 17.8042 38.1424 16.3763 39.8886 15.3956H39.9122ZM25.5838 16.918C26.3032 16.4797 27.1269 16.2419 27.9691 16.2294C28.8114 16.217 29.6416 16.4302 30.3736 16.8471L35.0456 19.4611C34.0606 21.2249 33.5427 23.2112 33.5414 25.2316V36.2007L14.3464 25.4854C13.4877 25.0019 12.5113 24.767 11.5267 24.8069L25.5838 16.918ZM6.96098 57.3065V30.1646C6.9535 29.3288 7.16799 28.5059 7.58256 27.7802C7.99712 27.0545 8.59689 26.4521 9.32054 26.0343C10.0372 25.6073 10.8543 25.3779 11.6884 25.3696C12.5226 25.3613 13.3441 25.5744 14.0692 25.987L33.5355 36.8849V48.3789L17.6674 39.4989C17.6226 39.473 17.5717 39.4594 17.5199 39.4594C17.4682 39.4594 17.4173 39.473 17.3725 39.4989C17.3279 39.5246 17.2909 39.5616 17.265 39.6061C17.2392 39.6506 17.2253 39.7012 17.225 39.7527V57.8314L8.37666 62.788C7.43693 61.1137 6.94146 59.2266 6.93737 57.3065H6.96098ZM33.2464 48.8748L17.8326 57.4952V40.2365L33.2464 48.8748ZM4.03516 65.8975L17.6851 58.2564L33.5532 49.3763V60.8879L17.3961 69.9333C17.3496 69.9573 17.3107 69.9937 17.2836 70.0385C17.2565 70.0833 17.2423 70.1345 17.2427 70.1868C17.2432 70.2398 17.2577 70.2919 17.2846 70.3375C17.3115 70.3831 17.3499 70.4208 17.3961 70.4467L33.7007 79.5745C33.7396 79.5987 33.7847 79.611 33.8304 79.6099C33.8762 79.611 33.9213 79.5987 33.9602 79.5745L60.9948 64.44L71.2588 70.1868L39.3164 88.0711C37.6325 89.0056 35.7385 89.496 33.8127 89.496C31.887 89.496 29.9929 89.0056 28.309 88.0711L3.99973 74.4647C3.23533 74.0437 2.59892 73.4242 2.15763 72.6712C1.71633 71.9182 1.48654 71.0597 1.49271 70.1868C1.48555 69.3108 1.71609 68.4495 2.15964 67.6941C2.60319 66.9388 3.24316 66.3179 4.01154 65.8975H4.03516ZM33.5296 61.5488V78.7958L18.1216 70.1693L33.5296 61.5488ZM28.3208 106.309L4.01154 92.7029C3.24714 92.282 2.61059 91.6622 2.16929 90.9092C1.728 90.1562 1.49835 89.298 1.50452 88.4251V72.6415C1.99631 73.6183 2.76868 74.4259 3.7225 74.9605L28.0318 88.5669C29.8037 89.5514 31.7976 90.0672 33.8245 90.0656C35.8497 90.0681 37.8419 89.5521 39.6114 88.5669L71.8782 70.5115L87.581 79.2974L71.7308 88.148L60.8592 94.2311L49.9874 100.314L39.3282 106.286C37.6457 107.225 35.7512 107.718 33.8245 107.72C31.901 107.729 30.0067 107.248 28.3208 106.321V106.309ZM87.8996 79.8047V97.0516L72.4918 88.4251L87.8996 79.8047ZM61.3134 95.0159L76.7212 103.642L61.3134 112.263V95.0159ZM36.6383 117.314C35.8789 116.888 35.2465 116.268 34.8059 115.518C34.3653 114.767 34.1324 113.912 34.1313 113.042V108.321C36.0564 108.275 37.9414 107.761 39.6232 106.823L49.8518 101.099V122.17C49.849 123.262 50.176 124.329 50.7897 125.232L36.6383 117.314ZM82.1363 112.776L71.7426 118.594L57.7268 126.442C56.9831 126.862 56.1416 127.079 55.2872 127.071C54.4328 127.063 53.5957 126.829 52.8602 126.394C52.121 125.965 51.508 125.349 51.0834 124.607C50.6587 123.865 50.4374 123.024 50.4416 122.17V100.769L60.7235 95.0159V112.812C60.7202 112.831 60.7202 112.851 60.7235 112.871V112.924C60.7444 112.954 60.7703 112.979 60.8001 113C60.8423 113.022 60.8885 113.034 60.9358 113.036C60.9806 113.035 61.0248 113.025 61.0655 113.006L77.2286 103.961L86.0769 108.912C85.1011 110.508 83.7426 111.837 82.1245 112.776H82.1363ZM96.3527 111.177C95.6182 111.614 94.7813 111.85 93.9266 111.859C93.072 111.868 92.23 111.651 91.4861 111.23L61.62 94.5145L71.8901 88.7674L88.0529 97.8128C88.0964 97.8363 88.1451 97.8485 88.1945 97.8482C88.2485 97.8494 88.3018 97.8349 88.3479 97.8067C88.3914 97.7803 88.4273 97.7432 88.4522 97.6987C88.477 97.6542 88.4897 97.6041 88.4895 97.5532V79.2619C88.4895 79.2619 88.4895 79.2322 88.4895 79.2204C88.4902 79.2067 88.4902 79.193 88.4895 79.1792C88.4895 79.1792 88.4895 79.1792 88.4895 79.1438L88.4599 79.1144V79.0847H88.4246L72.1141 69.9569L61.3959 63.9563V52.4444L93.0906 70.1987C94.838 71.1785 96.2929 72.6063 97.3058 74.335C98.3187 76.0637 98.853 78.0312 98.8538 80.0349V106.994C98.8426 107.851 98.6041 108.69 98.1626 109.425C97.7211 110.16 97.0924 110.765 96.3409 111.177H96.3527ZM115.082 70.8656V97.8246C115.087 98.684 114.863 99.5293 114.434 100.274C114.005 101.018 113.386 101.635 112.639 102.061L98.4232 110.021C99.0378 109.116 99.3648 108.046 99.3612 106.952V79.9934C99.3602 77.8851 98.7979 75.8151 97.7321 73.9962C96.6663 72.1773 95.1356 70.6751 93.2971 69.6441L61.3134 51.7305V34.1649L77.1813 43.0449L88.047 49.1283L98.9129 55.2117L109.307 61.0236C111.054 62.0049 112.509 63.4338 113.522 65.1634C114.535 66.893 115.069 68.8612 115.07 70.8656H115.082ZM120.515 57.985C120.52 58.8568 120.289 59.7137 119.848 60.4656C119.407 61.2174 118.771 61.8362 118.008 62.2567L113.878 64.5757C112.825 62.8773 111.357 61.4743 109.613 60.4984L99.6855 54.9403L118.308 44.5143C119.266 43.9825 120.04 43.1717 120.526 42.1895L120.515 57.985Z" fill="white"/>
</svg>
