<svg width="40" height="40" viewBox="0 0 40 40" fill="none" xmlns="http://www.w3.org/2000/svg">
<path d="M20.0003 12.6199C20.3598 12.6188 20.7125 12.7183 21.0184 12.9072C21.3243 13.0961 21.5712 13.3669 21.7312 13.6889L27.1747 24.576C27.3225 24.871 27.3923 25.199 27.3775 25.5287C27.3628 25.8583 27.264 26.1787 27.0906 26.4595C26.9171 26.7402 26.6748 26.9719 26.3866 27.1326C26.0984 27.2933 25.7738 27.3776 25.4438 27.3776H14.5567C14.2268 27.3775 13.9023 27.2931 13.6142 27.1324C13.3261 26.9717 13.0838 26.74 12.9104 26.4592C12.737 26.1785 12.6383 25.8581 12.6236 25.5285C12.6089 25.1989 12.6787 24.871 12.8264 24.576L18.2694 13.6889C18.4294 13.3669 18.6763 13.0961 18.9822 12.9072C19.2881 12.7183 19.6408 12.6188 20.0003 12.6199ZM20.0003 11.2891C19.3938 11.289 18.7993 11.4578 18.2834 11.7765C17.7674 12.0953 17.3504 12.5514 17.0791 13.0937L11.6355 23.9808C11.3863 24.4788 11.2686 25.0322 11.2936 25.5885C11.3185 26.1448 11.4852 26.6854 11.7779 27.1591C12.0706 27.6328 12.4796 28.0238 12.9659 28.295C13.4523 28.5662 13.9999 28.7085 14.5567 28.7084H25.4438C26.0006 28.7084 26.5482 28.566 27.0344 28.2948C27.5207 28.0236 27.9296 27.6326 28.2222 27.1589C28.5149 26.6852 28.6815 26.1446 28.7064 25.5883C28.7313 25.0321 28.6136 24.4787 28.3645 23.9808L22.9215 13.0937C22.6501 12.5514 22.2331 12.0953 21.7172 11.7765C21.2012 11.4578 20.6067 11.289 20.0003 11.2891Z" fill="white"/>
</svg>
