<svg width="40" height="40" viewBox="0 0 40 40" fill="none" xmlns="http://www.w3.org/2000/svg">
<path d="M23.7233 15.4946C25.6321 15.0822 27.5934 15.9189 28.6177 17.5825C29.6421 19.2461 29.5068 21.3752 28.2802 22.8956C27.0537 24.4161 25.0022 24.9976 23.161 24.3467C21.3197 23.6958 20.0885 21.954 20.0886 20H16.0132C16.01 23.9034 18.6053 27.3311 22.3616 28.3845C26.1179 29.4379 30.1156 27.8591 32.1404 24.5227C34.1651 21.1863 33.7212 16.909 31.0546 14.06C28.3879 11.211 24.1514 10.4877 20.6915 12.2909C21.9589 13.0822 23.0027 14.1852 23.7233 15.4946Z" fill="white"/>
<path d="M16.4542 24.5034C14.5454 24.9157 12.5842 24.0791 11.5599 22.4156C10.5355 20.7521 10.6707 18.6231 11.8971 17.1026C13.1234 15.5821 15.1747 15.0005 17.016 15.6511C18.8573 16.3017 20.0887 18.0432 20.0889 19.9971H24.1644C24.1675 16.0938 21.5722 12.6661 17.8159 11.6126C14.0596 10.5592 10.0619 12.138 8.03717 15.4744C6.01243 18.8108 6.45632 23.0882 9.12295 25.9372C11.7896 28.7862 16.0261 29.5094 19.486 27.7062C18.2188 26.9151 17.175 25.8124 16.4542 24.5034Z" fill="white"/>
</svg>
