<svg width="40" height="40" viewBox="0 0 40 40" fill="none" xmlns="http://www.w3.org/2000/svg">
<path d="M25.2644 12.1794L21.6258 17.5794C21.3742 17.9471 21.858 18.3923 22.2064 18.0826L25.787 14.9665C25.8839 14.8891 26.0193 14.9471 26.0193 15.0826V24.8181C26.0193 24.9536 25.8451 25.0117 25.7677 24.9148L14.929 11.9471C14.5806 11.5213 14.0774 11.2891 13.5161 11.2891H13.129C12.1225 11.2891 11.2903 12.1213 11.2903 13.1471V26.8504C11.2903 27.8761 12.1225 28.7084 13.1483 28.7084C13.7871 28.7084 14.3871 28.3794 14.7354 27.8181L18.3742 22.4181C18.6258 22.0504 18.1419 21.6052 17.7935 21.9149L14.2129 25.0117C14.1161 25.089 13.9806 25.031 13.9806 24.8955V15.1794C13.9806 15.0439 14.1548 14.9858 14.2322 15.0826L25.0709 28.0503C25.4193 28.4761 25.9419 28.7084 26.4838 28.7084H26.8709C27.8968 28.7084 28.729 27.8761 28.729 26.8504V13.1471C28.7096 12.1213 27.8773 11.2891 26.8516 11.2891C26.2128 11.2891 25.6128 11.6181 25.2644 12.1794Z" fill="white"/>
</svg>
