<svg width="40" height="40" viewBox="0 0 40 40" fill="none" xmlns="http://www.w3.org/2000/svg">
<path d="M8.31611 21.1156C8.93807 21.1156 9.44227 20.6114 9.44227 19.9894C9.44227 19.3675 8.93807 18.8633 8.31611 18.8633C7.69414 18.8633 7.18994 19.3675 7.18994 19.9894C7.18994 20.6114 7.69414 21.1156 8.31611 21.1156Z" fill="white"/>
<path d="M16.1315 25.6879C16.7535 25.6879 17.2577 25.1837 17.2577 24.5617C17.2577 23.9397 16.7535 23.4355 16.1315 23.4355C15.5096 23.4355 15.0054 23.9397 15.0054 24.5617C15.0054 25.1837 15.5096 25.6879 16.1315 25.6879Z" fill="white"/>
<path d="M32.3144 19.1454C32.0328 18.8864 31.7851 18.8526 31.5598 18.8751C31.5148 18.8751 31.481 18.8638 31.436 18.8638H19.4648C19.9829 16.3074 22.2577 14.3817 24.9605 14.3817C26.4471 14.3817 27.8548 14.956 28.9134 16.0034C29.3413 16.4313 30.0395 16.4651 30.4787 16.0597C30.9517 15.6205 30.963 14.8885 30.5125 14.438C29.026 12.9515 27.0552 12.1406 24.9605 12.1406C23.1023 12.1406 21.3793 12.7938 20.0392 13.8862C19.4198 14.3592 18.958 14.3817 17.9783 14.3817H16.0976C15.4669 14.3817 14.9602 14.8997 14.9714 15.5417C14.9827 16.1498 15.5232 16.6228 16.1314 16.6228H17.8544H17.8657H19.1157L17.9783 16.8255C17.8431 16.848 17.7193 16.9381 17.6742 17.0732C17.5166 17.4787 17.4039 17.9066 17.2913 18.3345C17.1899 18.7062 16.6269 18.8751 15.816 18.8751H11.7281C11.1087 18.8751 10.5794 19.3481 10.5569 19.9675C10.5343 20.5981 11.0524 21.1274 11.683 21.1274H17.1899H18.7441L17.5841 21.3189C17.3814 21.3527 17.2575 21.5441 17.3026 21.7468C18.1022 25.2379 21.2216 27.8619 24.9605 27.8619C29.1611 27.8619 32.6072 24.5397 32.8099 20.3842C32.8211 19.9112 32.6522 19.4607 32.3144 19.1454ZM24.9605 25.5983C22.2464 25.5983 19.9829 23.6726 19.4648 21.1162H30.4562C29.9269 23.6726 27.6633 25.5983 24.9605 25.5983Z" fill="white"/>
</svg>
