<svg width="40" height="40" viewBox="0 0 40 40" fill="none" xmlns="http://www.w3.org/2000/svg">
<g clip-path="url(#clip0_5018_2064)">
<path d="M20.0129 19.7901H22.9526V20.0632C22.2561 20.1691 22.013 20.2753 22.013 21.2301V24.2912C21.0135 24.9288 19.8497 25.2609 18.6643 25.2467C15.348 25.2467 13.2239 23.0498 13.2239 19.9432C13.2239 16.7604 15.6487 14.4724 19.0278 14.4724C20.4374 14.4724 21.5285 14.7607 22.4678 15.23V16.9276H22.1799C21.6799 15.5628 20.6343 14.9248 18.9822 14.9248C16.0425 14.9248 13.9798 17.0011 13.9798 19.8801C13.9798 22.866 16.0108 24.7905 18.8136 24.7905C19.7226 24.7905 20.5712 24.6081 21.3288 24.2284V21.2456C21.3288 20.2753 21.1171 20.1691 20.0109 20.0649L20.0129 19.7901ZM23.8161 24.2153V22.4274H24.104C24.7102 24.1991 25.8316 24.7915 27.092 24.7915C28.3189 24.7915 29.6214 24.0188 29.6214 22.5939C29.6214 21.6698 29.0755 21.1391 27.8334 20.5629L26.2875 19.8508C24.984 19.2449 24.1806 18.4114 24.1806 17.1528C24.1806 15.7135 25.3782 14.4707 27.3634 14.4707C28.4089 14.4707 29.4993 14.8042 30.1669 15.2131V16.8959H29.8786C29.3941 15.3786 28.3613 14.9286 27.2875 14.9286C25.8327 14.9286 24.8475 15.808 24.8475 17.0811C24.8475 18.157 25.5299 18.7325 26.5751 19.2021L28.1362 19.9142C29.5303 20.5511 30.2879 21.2784 30.2879 22.4756C30.2879 24.0815 28.8638 25.2484 27.0279 25.2484C25.8753 25.25 24.7516 24.8885 23.8161 24.2153ZM40.0005 25.0791V25.1246H39.076L33.9087 19.7453H33.0904V23.4729C33.0904 24.7157 33.3152 24.7915 34.0456 24.8515V25.1246H31.4534V24.8515C32.2114 24.7915 32.409 24.7157 32.409 23.4729V16.3356C32.409 15.1986 32.2404 14.9562 31.4538 14.8652V14.5928H34.7263C36.9849 14.5928 38.4246 15.5628 38.4246 17.1221C38.4246 18.6532 37.0452 19.6987 34.8631 19.7746L40.0005 25.0791ZM33.09 19.2901H34.5904C36.5756 19.2901 37.6818 18.5032 37.6818 17.1376C37.6818 15.8197 36.5908 15.0469 34.6059 15.0469H33.088L33.0904 19.2901H33.09Z" fill="white"/>
<path d="M5.8456 18.044V14.1943H5.41284V18.044C5.55653 18.0261 5.70191 18.0261 5.8456 18.044ZM2.75418 14.9757L2.39003 15.2095L4.46937 18.4475C4.58118 18.3554 4.70353 18.2769 4.83386 18.2137L2.75418 14.9757ZM0.574491 17.3054L0.394488 17.6989L3.89557 19.2979C3.93971 19.1599 4.00006 19.0279 4.07558 18.9047L0.574491 17.3051V17.3054ZM0 20.4441L0.0620698 20.8724L3.87143 20.3241C3.83448 20.1843 3.814 20.0407 3.8104 19.8961L0 20.4441ZM4.12213 20.8741L1.21381 23.3945L1.49485 23.721L4.4042 21.2006C4.29775 21.1031 4.20319 20.9934 4.12247 20.8737L4.12213 20.8741ZM3.83005 25.221L4.24489 25.3431L5.32973 21.65C5.18684 21.6262 5.04733 21.5853 4.91421 21.5282L3.83005 25.2214V25.221ZM7.01803 25.3431L7.43355 25.221L6.35147 21.5282C6.2183 21.5851 6.0788 21.6259 5.93595 21.6496L7.01803 25.3428V25.3431ZM6.85734 21.201L9.766 23.7221L10.0498 23.3948L7.13838 20.8741C7.05807 20.9939 6.96372 21.1036 6.85734 21.201ZM7.39183 20.3244L11.2015 20.8724L11.2636 20.4441L7.45252 19.8958C7.44907 20.0406 7.42907 20.1844 7.39183 20.3244ZM10.8688 17.6989L10.6891 17.3054L7.18769 18.9044C7.26355 19.0279 7.3239 19.1599 7.36769 19.2979L10.8688 17.6989ZM8.87288 15.2092L8.50874 14.9757L6.42906 18.2137C6.55927 18.2769 6.68151 18.3554 6.7932 18.4475L8.87288 15.2095V15.2092ZM3.83005 14.485L4.24558 14.3633L4.95869 16.7923L4.54317 16.9144L3.83005 14.485ZM6.30492 16.7916L7.01769 14.3626L7.43321 14.4843L6.7201 16.9133L6.30492 16.7916ZM1.21347 16.3106L1.49692 15.9837L3.41074 17.6423L3.12763 17.9692L1.21347 16.3106ZM0 19.2613L0.0613802 18.833L2.56762 19.1934L2.5059 19.6217L0 19.2613ZM0.427937 22.0069L2.73245 20.9434L2.91418 21.3372L0.609664 22.4007L0.427937 22.0069ZM2.39072 24.4966L3.75971 22.3665L4.12385 22.6003L2.75487 24.7307L2.39072 24.4966ZM5.4149 22.9796H5.84767V25.511H5.4149V22.9796ZM7.13907 22.5993L7.50355 22.3648L8.87254 24.4952L8.5084 24.7297L7.13907 22.5993ZM8.38633 21.3489L8.56633 20.9555L10.8695 22.0072L10.6898 22.4013L8.38633 21.3489ZM8.69495 19.1941L11.2012 18.8337L11.2629 19.262L8.75668 19.6223L8.69495 19.1941ZM7.85184 17.6427L9.76635 15.9837L10.0495 16.3109L8.13563 17.9696L7.85184 17.6427Z" fill="white"/>
</g>
<defs>
<clipPath id="clip0_5018_2064">
<rect width="40" height="39.9992" fill="white" transform="translate(0 0.000976562)"/>
</clipPath>
</defs>
</svg>
