<svg width="40" height="40" viewBox="0 0 40 40" fill="none" xmlns="http://www.w3.org/2000/svg">
<path d="M15.3615 21.4743C15.3615 21.4743 15.2029 21.7811 14.8432 22.0773C14.5364 22.3101 14.2719 22.4053 14.0498 22.5216C15.1076 23.2833 16.8849 22.6592 16.8849 22.6592C16.9272 22.6486 17.1705 22.8284 17.2128 22.8602C18.0168 23.2621 18.3976 23.4314 19.392 23.5689C20.598 23.7276 23.0839 23.7911 20.598 22.2677C20.1008 21.961 18.9371 21.3157 18.9371 21.3157C18.9371 21.3157 17.6994 20.6386 17.0964 20.2155C17.107 19.6866 17.0541 18.8614 16.7368 18.2267C16.705 18.2902 16.4194 18.9355 16.102 19.4433C16.0068 19.3586 15.9116 19.274 15.8164 19.1894C14.4729 17.9199 13.8488 16.3754 13.9969 14.5242C13.9969 14.4607 14.0604 13.9424 14.018 13.9635C13.9123 13.9424 13.5314 15.3493 13.4997 15.4763C13.4891 15.5397 13.3833 16.0792 13.341 16.0792C13.2035 16.1004 12.6428 15.984 12.6428 16.0264C12.7169 16.1745 13.3304 16.6082 13.3304 16.6188C13.341 16.9573 13.2881 17.666 13.6372 18.7133C14.219 20.4482 15.3615 21.4743 15.3615 21.4743Z" fill="white"/>
<path d="M24.7333 23.5792C24.3737 23.484 23.6437 24.5419 23.0302 25.7373C22.2156 25.8325 21.7713 25.9806 21.2106 26.3191C21.1472 26.3614 22.0675 26.3508 22.7128 26.6259C21.7184 28.1386 20.1951 29.006 18.4285 29.0801C20.5971 29.609 22.6176 28.9532 24.0986 27.2712C24.4794 27.5462 24.7651 28.128 24.9237 28.6146C24.9449 28.6887 25.3786 27.4404 24.6804 26.372C24.6804 26.372 24.8603 26.0335 24.9026 25.9594C25.2094 25.3458 25.294 23.7379 24.7333 23.5792Z" fill="white"/>
<path d="M14.9175 13.8999C14.5366 14.852 14.6742 16.1109 15.1079 16.2061C15.5099 16.2801 15.9965 15.7195 16.2292 15.3492C16.5889 14.852 16.8005 14.1327 16.8005 14.1327C16.8005 14.1327 18.4825 14.2173 19.3076 13.4133C19.223 13.3922 17.9853 13.371 17.2342 12.9796C18.2392 11.4563 19.6779 10.7158 21.4974 10.6735C20.3866 10.2186 17.7737 10.2609 15.9013 12.3343C15.1502 11.7948 14.7376 10.7581 14.7271 10.8216C14.4837 12.1862 15.2242 13.297 15.2242 13.297C15.2242 13.297 15.0127 13.6672 14.9175 13.8999Z" fill="white"/>
<path d="M19.6772 12.145C19.6772 12.5153 20.6187 12.8749 20.9573 12.949C21.2852 13.0125 21.9728 13.0759 21.9728 13.0759C22.2267 13.8799 22.8826 14.504 22.946 14.5252C22.9566 14.4511 22.8191 13.5308 22.9249 13.2029C24.6492 13.626 25.6119 14.8849 26.1514 16.3341C26.236 15.9639 26.0985 12.9596 23.2211 11.9652C23.2951 11.7642 23.6337 11.3516 24.078 11.0871C23.2211 10.9708 22.4806 11.4891 22.2373 11.6795C22.2373 11.6795 21.7718 11.5949 21.2429 11.5632C20.6399 11.5209 19.6772 11.7007 19.6772 12.145Z" fill="white"/>
<path d="M20.3863 27.2824C20.6508 26.6265 18.1542 26.6054 17.8792 26.5737C17.8686 26.5208 17.583 25.4946 16.9906 25.0186C16.98 25.0926 17.0117 26.0236 16.8319 26.3832C15.3403 25.9812 14.0603 24.5954 13.7112 23.3789C13.2563 26.0765 16.4616 27.6844 16.4616 27.6844C16.1972 28.2557 15.5942 28.6365 15.5413 28.7C15.6259 28.7317 16.7367 28.901 17.6359 28.0864C17.6359 28.097 20.0901 28.0229 20.3863 27.2824Z" fill="white"/>
<path d="M26.5957 23.2096C26.5957 23.2096 26.5957 22.7758 26.5851 22.522C26.5534 21.6545 26.3101 20.8505 25.9187 20.0783C25.6225 19.4859 25.2417 18.9358 24.7868 18.4598C24.7233 18.3963 24.5858 18.2693 24.5858 18.2693L24.2684 17.9943C24.8608 17.4442 25.358 17.2644 25.7283 17.1903C25.7494 17.1903 25.7494 17.1586 25.7283 17.148C24.4165 16.672 22.9144 17.2009 22.9144 17.2009C22.9144 17.2009 21.6449 16.4392 19.508 16.2488C18.9368 16.1959 18.6829 16.5873 19.4657 17.5923C20.1639 18.3751 21.7296 18.9041 21.9411 18.9993C22.121 19.5282 22.4066 20.2581 22.8615 20.6707C22.872 20.6813 22.8826 20.6707 22.8826 20.6601C22.872 20.4062 22.8826 19.8456 22.9567 19.4859C23.4327 19.7504 23.9828 20.2476 24.3848 20.639C25.7283 21.9296 26.0985 23.4317 25.9081 25.2936C25.9081 25.3465 26.1726 24.9233 26.3207 24.405C26.4053 24.0982 26.4794 23.7068 26.4794 23.7068C26.4794 23.7068 26.8813 23.7808 27.3574 23.7491C26.7861 23.4317 26.5957 23.2096 26.5957 23.2096Z" fill="white"/>
</svg>
