<svg width="160" height="72" viewBox="0 0 160 72" fill="none"
    xmlns="http://www.w3.org/2000/svg">
    <path d="M21.2367 42C20.8808 42 20.5842 41.9175 20.347 41.7524C20.1157 41.5873 20 41.346 20 41.0286C20 40.819 20.0534 40.6508 20.1601 40.5238C20.2728 40.3905 20.4182 40.3238 20.5961 40.3238C20.7384 40.3238 20.8511 40.3651 20.9342 40.4476C21.0172 40.5302 21.0736 40.619 21.1032 40.7143C21.1388 40.8032 21.1566 40.8603 21.1566 40.8857C20.9846 41.019 20.8986 41.1746 20.8986 41.3524C20.8986 41.473 20.9342 41.5746 21.0054 41.6571C21.0765 41.7397 21.1744 41.781 21.299 41.781C21.4888 41.781 21.637 41.6444 21.7438 41.3714C21.8565 41.0921 21.9128 40.6127 21.9128 39.9333V34.5333L21.0943 34.4V34.1905H23.6744V34.4L22.8559 34.5333V39.9333C22.8559 40.3778 22.8144 40.7492 22.7314 41.0476C22.6543 41.3397 22.4971 41.5714 22.2598 41.7429C22.0226 41.9143 21.6815 42 21.2367 42Z" fill="white"/>
    <path d="M27.7603 42C27.1138 42 26.5355 41.8317 26.0254 41.4952C25.5153 41.1587 25.1179 40.6889 24.8332 40.0857C24.5485 39.4762 24.4062 38.781 24.4062 38C24.4062 37.219 24.5485 36.527 24.8332 35.9238C25.1179 35.3143 25.5153 34.8413 26.0254 34.5048C26.5355 34.1683 27.1138 34 27.7603 34C28.4068 34 28.9851 34.1683 29.4952 34.5048C30.0053 34.8413 30.4027 35.3143 30.6874 35.9238C30.9721 36.527 31.1145 37.219 31.1145 38C31.1145 38.781 30.9721 39.4762 30.6874 40.0857C30.4027 40.6889 30.0053 41.1587 29.4952 41.4952C28.9851 41.8317 28.4068 42 27.7603 42ZM27.7603 41.781C28.1874 41.781 28.5699 41.6603 28.908 41.419C29.252 41.1778 29.5219 40.8286 29.7176 40.3714C29.9134 39.9079 30.0112 39.3619 30.0112 38.7333V37.2667C30.0112 36.6381 29.9134 36.0952 29.7176 35.6381C29.5219 35.1746 29.252 34.8222 28.908 34.581C28.5699 34.3397 28.1874 34.219 27.7603 34.219C27.3273 34.219 26.9418 34.3397 26.6037 34.581C26.2656 34.8222 25.9987 35.1746 25.803 35.6381C25.6072 36.0952 25.5094 36.6381 25.5094 37.2667V38.7333C25.5094 39.3619 25.6072 39.9079 25.803 40.3714C25.9987 40.8286 26.2656 41.1778 26.6037 41.419C26.9418 41.6603 27.3273 41.781 27.7603 41.781Z" fill="white"/>
    <path d="M31.9535 41.8095V41.6095L32.772 41.4667V34.5333L31.9535 34.4V34.1905H34.5692V34.4L33.7507 34.5333V37.6571H37.1315V34.5333L36.3041 34.4V34.1905H38.9376V34.4L38.1102 34.5333V41.4667L38.9376 41.6095V41.8095H36.3041V41.6095L37.1315 41.4667V37.8952H33.7507V41.4667L34.5692 41.6095V41.8095H31.9535Z" fill="white"/>
    <path d="M39.6781 41.8095V41.6095L40.5056 41.2286V34.7714L39.6781 34.4V34.1905H41.333L45.1676 39.9429V34.7714L44.3402 34.4V34.1905H46.2352V34.4L45.39 34.7714V41.8095H45.1676L40.728 35.1333V41.2286L41.5821 41.6095V41.8095H39.6781Z" fill="white"/>
    <path d="M50.4765 41.8095V41.6095L51.295 41.4667V34.4286H49.827L49.1508 36.3143H48.8928V34.1905H54.6848V36.3143H54.4178L53.7506 34.4286H52.2737V41.4667L53.0922 41.6095V41.8095H50.4765Z" fill="white"/>
    <path d="M55.2559 41.8095V41.6095L56.0744 41.4667V34.5333L55.2559 34.4V34.1905H57.8716V34.4L57.0531 34.5333V41.4667L57.8716 41.6095V41.8095H55.2559Z" fill="white"/>
    <path d="M58.6103 41.8095V41.6095L59.4377 41.2286V34.7714L58.6103 34.4V34.1905H60.2651L64.0997 39.9429V34.7714L63.2723 34.4V34.1905H65.1673V34.4L64.3221 34.7714V41.8095H64.0997L59.6601 35.1333V41.2286L60.5142 41.6095V41.8095H58.6103Z" fill="white"/>
    <path d="M65.8297 41.8095V41.6095L66.6483 41.4667V34.5333L65.8297 34.4V34.1905H71.1857V36.3714H70.9455L70.2604 34.4286H67.6269V37.8571H68.7835L69.3084 36.4762H69.5398V39.4857H69.3084L68.7746 38.0857H67.6269V41.581H70.4206L71.1501 39.4857H71.3814V41.8095H65.8297Z" fill="white"/>
    <path d="M77.4109 41.9048C77.0788 41.9048 76.8297 41.819 76.6636 41.6476C76.4975 41.4762 76.3848 41.1841 76.3255 40.7714L76.1565 39.4952C76.0972 39.0635 75.9578 38.727 75.7383 38.4857C75.5248 38.2381 75.1897 38.1143 74.733 38.1143H74.039V41.4667L74.8575 41.6095V41.8095H72.2418V41.6095L73.0603 41.4667V34.5333L72.2418 34.4V34.1905H74.733C75.6998 34.1905 76.3996 34.3524 76.8326 34.6762C77.2656 35 77.4821 35.4921 77.4821 36.1524C77.4821 37.2444 76.8653 37.8762 75.6315 38.0476V38.1048C76.0883 38.1746 76.453 38.3492 76.7259 38.6286C77.0046 38.9079 77.1796 39.2794 77.2508 39.7429L77.3665 40.5619C77.4139 40.9175 77.4673 41.1587 77.5266 41.2857C77.5918 41.4127 77.6897 41.4762 77.8202 41.4762C77.9092 41.4762 78.0041 41.4476 78.1049 41.3905C78.2057 41.327 78.3006 41.2476 78.3896 41.1524L78.5409 41.3238C78.3688 41.5333 78.1909 41.6825 78.007 41.7714C77.8232 41.8603 77.6245 41.9048 77.4109 41.9048ZM75.0354 37.8857C75.4684 37.8857 75.8036 37.746 76.0408 37.4667C76.284 37.181 76.4056 36.7619 76.4056 36.2095V36.0095C76.4056 34.9556 75.848 34.4286 74.733 34.4286H74.039V37.8857H75.0354Z" fill="white"/>
    <path d="M83.8152 42C82.8543 42 82.1366 41.7968 81.6621 41.3905C81.1935 40.9778 80.9592 40.4254 80.9592 39.7333C80.9592 39.0667 81.1846 38.5524 81.6354 38.1905C82.0921 37.8222 82.6882 37.619 83.4237 37.581V37.5524C82.6882 37.4508 82.1425 37.2635 81.7866 36.9905C81.4367 36.7111 81.2617 36.2698 81.2617 35.6667C81.2617 35.1333 81.4604 34.7238 81.8578 34.4381C82.2612 34.146 82.8217 34 83.5394 34C84.0198 34 84.4201 34.1238 84.7404 34.3714C85.0667 34.619 85.2298 34.9492 85.2298 35.3619C85.2298 35.5714 85.1734 35.7365 85.0607 35.8571C84.954 35.9714 84.8294 36.0286 84.6871 36.0286C84.5388 36.0286 84.4142 35.981 84.3134 35.8857C84.2126 35.7905 84.1621 35.6508 84.1621 35.4667C84.4113 35.346 84.5358 35.146 84.5358 34.8667C84.5358 34.6698 84.4557 34.5143 84.2956 34.4C84.1355 34.2794 83.916 34.219 83.6372 34.219C83.2339 34.219 82.9106 34.346 82.6675 34.6C82.4302 34.854 82.3116 35.1937 82.3116 35.619C82.3116 36.2286 82.4776 36.6794 82.8098 36.9714C83.1479 37.2571 83.6402 37.419 84.2867 37.4571V37.6667C83.5868 37.7111 83.0589 37.9079 82.703 38.2571C82.3531 38.6063 82.1781 39.0984 82.1781 39.7333C82.1781 40.1587 82.2523 40.527 82.4005 40.8381C82.5548 41.1429 82.7594 41.3778 83.0144 41.5429C83.2754 41.7016 83.566 41.781 83.8863 41.781C84.3668 41.781 84.7582 41.6254 85.0607 41.3143C85.3632 40.9968 85.5145 40.5429 85.5145 39.9524C85.5145 39.7175 85.4819 39.4667 85.4166 39.2L85.0696 39.1429C84.8027 39.0857 84.5922 39.0571 84.4379 39.0571C84.1829 39.0571 83.9694 39.0984 83.7974 39.181C83.6313 39.2635 83.5482 39.3968 83.5482 39.581C83.5482 39.6698 83.5749 39.7365 83.6283 39.781C83.6817 39.8254 83.7499 39.8476 83.833 39.8476C83.9101 39.8476 83.9872 39.8254 84.0643 39.781C84.1414 39.7365 84.1977 39.673 84.2333 39.5905C84.3757 39.6286 84.4824 39.6952 84.5536 39.7905C84.6307 39.8794 84.6693 39.9873 84.6693 40.1143C84.6693 40.2667 84.6159 40.4 84.5091 40.5143C84.4083 40.6286 84.2808 40.6857 84.1266 40.6857C83.9012 40.6857 83.7143 40.581 83.566 40.3714C83.4178 40.1619 83.3436 39.9048 83.3436 39.6C83.3436 39.3524 83.4 39.1238 83.5127 38.9143C83.6254 38.7048 83.7885 38.5397 84.002 38.419C84.2215 38.2921 84.4765 38.2286 84.7671 38.2286C85.0518 38.2286 85.384 38.2603 85.7636 38.3238C86.0602 38.381 86.3093 38.4095 86.5109 38.4095C86.7897 38.4095 87.0121 38.3651 87.1782 38.2762C87.3502 38.181 87.4362 38.0508 87.4362 37.8857C87.4362 37.7968 87.4095 37.7302 87.3561 37.6857C87.3087 37.6349 87.2435 37.6095 87.1604 37.6095C87.0774 37.6095 86.9973 37.6317 86.9202 37.6762C86.849 37.7206 86.7956 37.7873 86.7601 37.8762C86.6118 37.8381 86.502 37.7746 86.4309 37.6857C86.3597 37.5905 86.3241 37.4794 86.3241 37.3524C86.3241 37.2 86.3745 37.0667 86.4754 36.9524C86.5821 36.8381 86.7126 36.781 86.8668 36.781C87.0922 36.781 87.2731 36.8762 87.4095 37.0667C87.5519 37.2508 87.6231 37.4889 87.6231 37.781C87.6231 38.7778 87.1782 39.2762 86.2885 39.2762C86.0335 39.2762 85.8229 39.2635 85.6568 39.2381C85.7043 39.4921 85.728 39.7238 85.728 39.9333C85.728 40.5873 85.556 41.0952 85.212 41.4571C84.868 41.819 84.4024 42 83.8152 42Z" fill="white"/>
    <path d="M90.2703 41.6095L91.0888 41.4667V34.5333L90.2703 34.4V34.1905H93.064C93.9418 34.1905 94.5943 34.3905 95.0213 34.7905C95.4484 35.1905 95.6619 35.7683 95.6619 36.5238C95.6619 37.2794 95.4484 37.8571 95.0213 38.2571C94.5943 38.6571 93.9418 38.8571 93.064 38.8571H92.0675V41.4667L92.886 41.6095V41.8095H90.2703V41.6095ZM92.9394 38.6286C94.0367 38.6286 94.5854 37.9905 94.5854 36.7143V36.3333C94.5854 35.0635 94.0367 34.4286 92.9394 34.4286H92.0675V38.6286H92.9394Z" fill="white"/>
    <path d="M95.1217 41.8095V41.6095L95.9936 41.2286L98.5648 34H98.7072L101.136 41.4667L101.955 41.6095V41.8095H99.3388V41.6095L100.068 41.4857L99.3122 39.2286H96.9455L96.2249 41.2286L97.0256 41.6095V41.8095H95.1217ZM97.0167 39.0286H99.2499L98.1822 35.6762L97.0167 39.0286Z" fill="white"/>
    <path d="M107.29 41.9048C106.958 41.9048 106.709 41.819 106.543 41.6476C106.377 41.4762 106.264 41.1841 106.205 40.7714L106.036 39.4952C105.977 39.0635 105.837 38.727 105.618 38.4857C105.404 38.2381 105.069 38.1143 104.613 38.1143H103.919V41.4667L104.737 41.6095V41.8095H102.121V41.6095L102.94 41.4667V34.5333L102.121 34.4V34.1905H104.613C105.579 34.1905 106.279 34.3524 106.712 34.6762C107.145 35 107.362 35.4921 107.362 36.1524C107.362 37.2444 106.745 37.8762 105.511 38.0476V38.1048C105.968 38.1746 106.333 38.3492 106.605 38.6286C106.884 38.9079 107.059 39.2794 107.13 39.7429L107.246 40.5619C107.293 40.9175 107.347 41.1587 107.406 41.2857C107.471 41.4127 107.569 41.4762 107.7 41.4762C107.789 41.4762 107.884 41.4476 107.984 41.3905C108.085 41.327 108.18 41.2476 108.269 41.1524L108.42 41.3238C108.248 41.5333 108.07 41.6825 107.887 41.7714C107.703 41.8603 107.504 41.9048 107.29 41.9048ZM104.915 37.8857C105.348 37.8857 105.683 37.746 105.92 37.4667C106.164 37.181 106.285 36.7619 106.285 36.2095V36.0095C106.285 34.9556 105.728 34.4286 104.613 34.4286H103.919V37.8857H104.915Z" fill="white"/>
    <path d="M110.036 41.8095V41.6095L110.854 41.4667V34.4286H109.386L108.71 36.3143H108.452V34.1905H114.244V36.3143H113.977L113.31 34.4286H111.833V41.4667L112.651 41.6095V41.8095H110.036Z" fill="white"/>
    <path d="M114.842 41.8095V41.6095L115.669 41.2286V34.7714L114.842 34.4V34.1905H116.497L120.331 39.9429V34.7714L119.504 34.4V34.1905H121.399V34.4L120.554 34.7714V41.8095H120.331L115.892 35.1333V41.2286L116.746 41.6095V41.8095H114.842Z" fill="white"/>
    <path d="M122.061 41.8095V41.6095L122.88 41.4667V34.5333L122.061 34.4V34.1905H127.417V36.3714H127.177L126.492 34.4286H123.859V37.8571H125.015L125.54 36.4762H125.771V39.4857H125.54L125.006 38.0857H123.859V41.581H126.652L127.382 39.4857H127.613V41.8095H122.061Z" fill="white"/>
    <path d="M133.643 41.9048C133.31 41.9048 133.061 41.819 132.895 41.6476C132.729 41.4762 132.616 41.1841 132.557 40.7714L132.388 39.4952C132.329 39.0635 132.189 38.727 131.97 38.4857C131.756 38.2381 131.421 38.1143 130.965 38.1143H130.271V41.4667L131.089 41.6095V41.8095H128.473V41.6095L129.292 41.4667V34.5333L128.473 34.4V34.1905H130.965C131.931 34.1905 132.631 34.3524 133.064 34.6762C133.497 35 133.714 35.4921 133.714 36.1524C133.714 37.2444 133.097 37.8762 131.863 38.0476V38.1048C132.32 38.1746 132.685 38.3492 132.957 38.6286C133.236 38.9079 133.411 39.2794 133.482 39.7429L133.598 40.5619C133.646 40.9175 133.699 41.1587 133.758 41.2857C133.823 41.4127 133.921 41.4762 134.052 41.4762C134.141 41.4762 134.236 41.4476 134.337 41.3905C134.437 41.327 134.532 41.2476 134.621 41.1524L134.772 41.3238C134.6 41.5333 134.423 41.6825 134.239 41.7714C134.055 41.8603 133.856 41.9048 133.643 41.9048ZM131.267 37.8857C131.7 37.8857 132.035 37.746 132.272 37.4667C132.516 37.181 132.637 36.7619 132.637 36.2095V36.0095C132.637 34.9556 132.08 34.4286 130.965 34.4286H130.271V37.8857H131.267Z" fill="white"/>
    <path d="M137.758 42C137.206 42 136.664 41.8317 136.13 41.4952L135.374 41.9048H135.178V39.4571H135.374L136.139 41.2286C136.631 41.6032 137.194 41.7905 137.829 41.7905C138.351 41.7905 138.781 41.6444 139.119 41.3524C139.463 41.054 139.635 40.6381 139.635 40.1048C139.635 39.7175 139.525 39.4127 139.306 39.1905C139.087 38.9619 138.731 38.781 138.238 38.6476L136.762 38.2381C136.245 38.0921 135.857 37.8444 135.596 37.4952C135.335 37.1397 135.205 36.7206 135.205 36.2381C135.205 35.8 135.285 35.4127 135.445 35.0762C135.611 34.7333 135.851 34.4698 136.165 34.2857C136.48 34.0952 136.853 34 137.286 34C137.826 34 138.31 34.0984 138.737 34.2952L139.386 34H139.582V35.9429H139.386L138.746 34.5524C138.301 34.3238 137.817 34.2095 137.295 34.2095C136.779 34.2095 136.373 34.3524 136.076 34.6381C135.78 34.9175 135.632 35.2889 135.632 35.7524C135.632 36.0952 135.735 36.3651 135.943 36.5619C136.156 36.7587 136.468 36.9143 136.877 37.0286L138.47 37.4762C138.986 37.6159 139.368 37.8571 139.617 38.2C139.872 38.5365 140 39.0508 140 39.7429C140 40.4476 139.795 41 139.386 41.4C138.983 41.8 138.44 42 137.758 42Z" fill="white"/>
    <defs>
        <filter id="filter0_b_4614_2867" x="-4" y="-4" width="168" height="80.001" filterUnits="userSpaceOnUse" color-interpolation-filters="sRGB">
            <feFlood flood-opacity="0" result="BackgroundImageFix"/>
            <feGaussianBlur in="BackgroundImage" stdDeviation="2"/>
            <feComposite in2="SourceAlpha" operator="in" result="effect1_backgroundBlur_4614_2867"/>
            <feBlend mode="normal" in="SourceGraphic" in2="effect1_backgroundBlur_4614_2867" result="shape"/>
        </filter>
        <linearGradient id="paint0_linear_4614_2867" x1="80" y1="0" x2="80" y2="72.771" gradientUnits="userSpaceOnUse">
            <stop stop-color="#101011"/>
            <stop offset="0.623266" stop-color="#101011" stop-opacity="0.267357"/>
            <stop offset="1" stop-color="#101011" stop-opacity="0"/>
        </linearGradient>
        <linearGradient id="paint1_linear_4614_2867" x1="80" y1="0" x2="80" y2="72.0013" gradientUnits="userSpaceOnUse">
            <stop stop-color="#632BFF"/>
            <stop offset="1" stop-opacity="0"/>
        </linearGradient>
    </defs>
</svg>
