<svg width="160" height="72" viewBox="0 0 160 72" fill="none"
    xmlns="http://www.w3.org/2000/svg">
    <path d="M88.9249 49.0641C86.6195 49.0641 84.744 47.1887 84.744 44.8832V37.1859C88.5507 36.8916 91.3048 36.0852 93.1059 34.7687V44.8832C93.1059 47.1887 91.2304 49.0641 88.9249 49.0641ZM84.744 27.116C84.744 24.8105 86.6195 22.9351 88.9249 22.9351C91.2304 22.9351 93.1059 24.8105 93.1059 27.116V29.6417C93.065 30.5299 92.8722 31.4425 92.0903 32.2282C91.1749 33.1466 89.1483 34.1828 84.744 34.555V27.116ZM75.3106 44.8832C75.3106 47.1887 73.4351 49.0641 71.1297 49.0641C68.8242 49.0641 66.9487 47.1887 66.9487 44.8832V42.5393C66.9907 41.6855 67.1958 40.7544 68.0409 39.9036C68.9916 38.945 71.0181 37.8682 75.3106 37.4653V44.8832ZM71.1297 22.9351C73.4351 22.9351 75.3106 24.8105 75.3106 27.116V34.8366C71.5324 35.1608 68.7763 36.0213 66.9487 37.4215V27.116C66.9487 24.8105 68.8242 22.9351 71.1297 22.9351ZM95.7251 28.6049L95.7187 28.1609V27.116C95.7187 23.3702 92.6708 20.3223 88.9249 20.3223C85.1791 20.3223 82.1312 23.3702 82.1312 27.116V34.6805C81.4706 34.6939 78.6138 34.6902 77.9235 34.706V27.116C77.9235 23.3702 74.8755 20.3223 71.1297 20.3223C67.3838 20.3223 64.3358 23.3702 64.3358 27.116V42.4095C64.3146 42.8245 64.3234 43.1952 64.3307 43.5003L64.3358 43.8384V44.8832C64.3358 48.6291 67.3838 51.6771 71.1297 51.6771C74.8755 51.6771 77.9235 48.6291 77.9235 44.8832V37.3239C78.5911 37.3075 81.449 37.3126 82.1312 37.3005V44.8832C82.1312 48.6291 85.1791 51.6771 88.9249 51.6771C92.6708 51.6771 95.7187 48.6291 95.7187 44.8832V29.7832C95.7405 29.3463 95.7326 28.9463 95.7251 28.6049Z" fill="white"/>
    <defs>
        <filter id="filter0_b_4612_3279" x="-4" y="-4" width="168" height="80.001" filterUnits="userSpaceOnUse" color-interpolation-filters="sRGB">
            <feFlood flood-opacity="0" result="BackgroundImageFix"/>
            <feGaussianBlur in="BackgroundImage" stdDeviation="2"/>
            <feComposite in2="SourceAlpha" operator="in" result="effect1_backgroundBlur_4612_3279"/>
            <feBlend mode="normal" in="SourceGraphic" in2="effect1_backgroundBlur_4612_3279" result="shape"/>
        </filter>
        <linearGradient id="paint0_linear_4612_3279" x1="80" y1="0" x2="80" y2="72.771" gradientUnits="userSpaceOnUse">
            <stop stop-color="#101011"/>
            <stop offset="0.623266" stop-color="#101011" stop-opacity="0.267357"/>
            <stop offset="1" stop-color="#101011" stop-opacity="0"/>
        </linearGradient>
        <linearGradient id="paint1_linear_4612_3279" x1="80" y1="0" x2="80" y2="72.0013" gradientUnits="userSpaceOnUse">
            <stop stop-color="#632BFF"/>
            <stop offset="1" stop-opacity="0"/>
        </linearGradient>
    </defs>
</svg>
