<svg width="160" height="72" viewBox="0 0 160 72" fill="none" xmlns="http://www.w3.org/2000/svg">
<g opacity="0.8" filter="url(#filter0_b_4614_2866)">
<rect width="160" height="72.0013" rx="6" fill="url(#paint0_linear_4614_2866)"/>
<rect x="0.25" y="0.25" width="159.5" height="71.5013" rx="5.75" stroke="url(#paint1_linear_4614_2866)" stroke-width="0.5"/>
</g>
<path d="M77.4183 48.1685L76.9162 47.3171L76.4141 46.4658L75.9133 45.6145L75.4112 44.7645L74.9091 43.9132L74.407 43.0632L73.9063 42.2119L73.4042 41.3605L72.902 40.5092L72.3972 39.6579L72.3181 39.5225C72.1787 39.5535 72.0374 39.5752 71.8951 39.5875C71.7282 39.6028 71.5604 39.606 71.393 39.597C71.224 39.5864 71.0562 39.5628 70.8909 39.5266C70.72 39.4881 70.5526 39.436 70.3901 39.371C70.2655 39.323 70.1443 39.267 70.0272 39.2031L69.8907 39.3195L69.3886 39.7391L68.8879 40.1587L68.3858 40.5782L67.8837 40.9978L67.4853 41.3308C67.6565 41.979 67.6198 42.664 67.3802 43.2906C67.3474 43.3799 67.3092 43.4665 67.2683 43.5518L67.3802 43.6154L67.8823 43.8969L68.3844 44.1785L68.8865 44.46L69.3955 44.7415L69.8976 45.0217L70.3997 45.3032L70.9004 45.5847L71.4025 45.8662L71.9046 46.1477L72.4068 46.4293L72.9075 46.7094L73.4042 46.9882L73.9063 47.2698L74.407 47.5513L74.9091 47.8328L75.4112 48.1143L75.9133 48.3958L76.4141 48.676L76.9162 48.9575L77.4183 49.2391L77.6912 49.3933C77.7621 49.3 77.8385 49.2133 77.9177 49.1227L77.9586 49.0793L77.9177 49.0117L77.4183 48.1685Z" fill="white"/>
<path d="M67.8855 39.2365L68.3876 38.8169L68.8898 38.3974L68.9948 38.3094C68.9566 38.2593 68.9239 38.2065 68.8898 38.1551C68.6312 37.7692 68.4599 37.3324 68.3876 36.8747C68.3359 36.5442 68.3359 36.2077 68.3876 35.8772C68.4596 35.4194 68.6309 34.9825 68.8898 34.5968C68.9799 34.4609 69.0802 34.332 69.1899 34.2111L68.8898 33.7008L68.3876 32.8495L67.8855 31.9982L67.3834 31.1536L66.8827 30.3023L66.3806 29.451L66.1432 29.0449C66.0545 29.0544 65.9671 29.0598 65.8785 29.0625H65.7802C65.6806 29.0625 65.5824 29.0625 65.4841 29.049V39.1296C65.6193 39.1806 65.7511 39.2402 65.8785 39.3082C66.0558 39.4031 66.2239 39.5141 66.3806 39.6398C66.5534 39.7772 66.7116 39.9319 66.8527 40.1014L66.8827 40.0756L67.3834 39.6574L67.8855 39.2365Z" fill="white"/>
<path d="M94.979 29.2732C94.8078 29.2353 94.6399 29.1842 94.4769 29.1202C94.4537 29.1107 94.4291 29.1026 94.4059 29.0918L93.9748 29.8227L93.474 30.674L92.9719 31.5253L92.4698 32.3712L91.9677 33.2226L91.4669 34.0739L91.3892 34.2092C91.4164 34.239 91.441 34.2701 91.4669 34.3013C91.6731 34.5432 91.8418 34.8141 91.9677 35.1052C92.1408 35.5062 92.2301 35.9379 92.2301 36.3741C92.2301 36.8103 92.1408 37.242 91.9677 37.643C91.8666 37.8786 91.7379 38.1017 91.5843 38.3075L91.9677 38.6283L92.4698 39.0479L92.9719 39.4674L93.474 39.887L93.8724 40.22C93.9052 40.1848 93.9406 40.1509 93.9748 40.1185C94.1284 39.97 94.2966 39.8371 94.4769 39.7219C94.6361 39.6198 94.8041 39.5319 94.979 39.4593L95.095 39.412V29.2948L94.979 29.2732Z" fill="white"/>
<path d="M91.968 27.255L91.4673 27.3903L90.9652 27.5257L90.4631 27.661L89.9623 27.7964L89.4602 27.9317L88.9581 28.067L88.456 28.2024L87.9552 28.3377L87.4531 28.4731L86.951 28.6084L86.4503 28.7438L85.9482 28.8791L85.4461 29.0145L84.9439 29.1498L84.4432 29.2852L83.9411 29.4205L83.5318 29.5301C83.5318 29.5924 83.5318 29.656 83.5318 29.7196C83.5319 29.9937 83.4966 30.2666 83.4267 30.5317C83.3641 30.7779 83.2725 31.0159 83.1538 31.2409L83.4267 31.4737L83.9288 31.8933L84.4309 32.3129L84.9317 32.7324L85.4338 33.152L85.9359 33.5716L86.438 33.9912L86.6072 34.1265C86.7107 34.0186 86.8215 33.9177 86.9387 33.8247C87.0959 33.7008 87.2639 33.5912 87.4408 33.4971C87.606 33.4233 87.7772 33.3635 87.9525 33.3185C88.1158 33.2646 88.2833 33.2238 88.4533 33.1967C88.6192 33.1692 88.7871 33.1552 88.9554 33.1547C89.1234 33.1529 89.2913 33.1647 89.4575 33.1899C89.6276 33.215 89.7955 33.2535 89.9596 33.3049C90.0674 33.3401 90.1738 33.3767 90.2789 33.4227L90.4603 33.1141L90.9624 32.2628L91.4646 31.4128L91.9653 30.5615L92.4674 29.7101L92.9695 28.8588L93.2847 28.3174C93.1698 28.1952 93.0644 28.0644 92.9695 27.9263C92.7932 27.6685 92.6553 27.3867 92.5602 27.0898L92.4688 27.1156L91.968 27.255Z" fill="white"/>
<path d="M81.934 26.9572C82.1128 27.0613 82.2809 27.1823 82.4361 27.3186C82.624 27.4827 82.7925 27.6675 82.9382 27.8695C83.0264 27.9917 83.1062 28.1196 83.177 28.2525L83.439 28.1808L83.9411 28.0454L84.4432 27.9101L84.944 27.7747L85.4461 27.6394L85.9482 27.504L86.4503 27.3687L86.951 27.2333L87.4531 27.098L87.9553 26.9626L88.456 26.8273L88.9581 26.6919L89.4602 26.5566L89.9623 26.4212L90.4631 26.2859L90.9652 26.1506L91.4673 26.0152L91.968 25.8799L92.4333 25.7526C92.4429 25.6755 92.4551 25.597 92.4701 25.5198C92.4852 25.4427 92.5043 25.3642 92.5261 25.2884L92.4701 25.2695L91.968 25.0989L91.4673 24.9284L90.9652 24.7578L90.4631 24.5873L89.9623 24.4168L89.4602 24.2462L88.9581 24.0743L88.456 23.9038L87.9525 23.7089L87.4504 23.5384L86.9483 23.3678L86.4517 23.1987L85.9482 23.0322L85.4461 22.8616L84.9508 22.687L84.45 22.5165L83.9479 22.346L83.4458 22.1754L83.1211 22.0645C83.0665 22.1547 83.0078 22.2449 82.9451 22.3351C82.7989 22.5368 82.6305 22.7216 82.443 22.886C82.2874 23.0214 82.1193 23.142 81.9408 23.246C81.7807 23.3393 81.6127 23.4186 81.4387 23.4829C81.2883 23.5396 81.1336 23.5848 80.9762 23.6182V26.5864C81.1337 26.6196 81.2883 26.6648 81.4387 26.7217C81.6101 26.7865 81.7758 26.8653 81.934 26.9572Z" fill="white"/>
<path d="M92.9722 41.2306L92.4701 40.811L91.968 40.3915L91.4672 39.9719L90.9651 39.5537L90.5449 39.2031L90.4603 39.2464C90.2995 39.3289 90.132 39.3978 89.9595 39.4522C89.7958 39.5047 89.6278 39.5432 89.4574 39.5672C89.2981 39.5916 89.137 39.6038 88.9758 39.6038H88.9553C88.7871 39.6026 88.6192 39.5886 88.4532 39.5618C88.3864 39.551 88.3168 39.5388 88.254 39.5225L87.9525 40.0355L87.4504 40.8868L86.9482 41.7382L86.4516 42.5881L85.9495 43.4395L85.4474 44.2908L84.9507 45.1421L84.45 45.9935L83.9479 46.8448L83.4458 47.6961L82.945 48.5461L82.6257 49.0875C82.6858 49.1484 82.7431 49.2106 82.7977 49.2756L82.945 49.193L83.4458 48.9129L83.9479 48.6313L84.45 48.3498L84.9507 48.071L85.4528 47.7895L85.9549 47.508L86.4516 47.2251L86.9523 46.9436L87.4545 46.6621L87.9566 46.3805L88.4573 46.099L88.9594 45.8175L89.4615 45.5373L89.9636 45.2558L90.4644 44.9743L90.9665 44.6928L91.4686 44.4113L91.9693 44.1297L92.4715 43.8496L92.9736 43.568L93.1578 43.4638C92.9245 42.7916 92.9245 42.0612 93.1578 41.389L92.9722 41.2306Z" fill="white"/>
<path d="M78.9236 32.6746C78.7481 32.5932 78.5801 32.4967 78.4215 32.3864C78.3792 32.3552 78.3369 32.3255 78.296 32.293L77.9194 32.607L77.4187 33.0265L76.9165 33.4461L76.4144 33.8657L75.9137 34.2853L75.4116 34.7048L74.9095 35.1244L74.6748 35.3207C74.8281 35.7614 74.8831 36.2299 74.836 36.6937C74.7888 37.1576 74.6407 37.6058 74.4019 38.0073C74.2629 38.2412 74.0947 38.4568 73.9012 38.6488C73.7932 38.7582 73.6769 38.8592 73.5532 38.9507L73.9012 39.5394L74.4019 40.3907L74.904 41.2421L75.4061 42.0934L75.9082 42.9447L76.409 43.7961L76.9111 44.6474L77.4187 45.4987L77.9194 46.35L78.4215 47.2014L78.9236 48.0527L79.0914 48.341C79.2006 48.299 79.3125 48.2638 79.4257 48.2327C79.4871 48.2165 79.5472 48.1989 79.6099 48.1853V32.902C79.5472 32.8885 79.4858 32.8736 79.4257 32.8574C79.2535 32.8105 79.0856 32.7493 78.9236 32.6746Z" fill="white"/>
<path d="M83.4379 45.0248L83.94 44.1735L84.4421 43.3222L84.9428 42.4709L85.445 41.6209L85.9471 40.7696L86.4492 39.9182L86.9499 39.0669L87.0181 38.9505L86.9499 38.895C86.7656 38.7502 86.5977 38.5859 86.4492 38.4051C86.2378 38.1482 86.0684 37.86 85.9471 37.551C85.665 36.8364 85.65 36.0452 85.9048 35.3205L85.445 34.9415L84.9428 34.522L84.4421 34.1024L83.94 33.6828L83.4379 33.2632L82.9371 32.8437L82.435 32.4255L82.2822 32.2969C82.1711 32.3829 82.0544 32.4616 81.9329 32.5324C81.7728 32.6257 81.6048 32.7049 81.4308 32.7692C81.2803 32.8259 81.1257 32.8712 80.9683 32.9046V48.1811C81.1255 48.2151 81.2801 48.2604 81.4308 48.3165L81.4854 48.3354L81.9329 47.5775L82.435 46.7261L82.9371 45.8748L83.4379 45.0248Z" fill="white"/>
<path d="M68.3874 30.1794L68.8895 31.0308L69.3903 31.8821L69.8924 32.7334L70.3017 33.4196L70.3986 33.3817C70.5611 33.3173 70.7286 33.2657 70.8993 33.2274C71.0646 33.1913 71.2325 33.1678 71.4014 33.1571C71.5688 33.1469 71.7366 33.1496 71.9036 33.1652C72.073 33.1801 72.2409 33.2086 72.4057 33.2505C72.5769 33.2938 72.7444 33.3509 72.9064 33.421C73.0814 33.4965 73.2495 33.587 73.4085 33.6917C73.5892 33.8125 73.7574 33.9507 73.9106 34.1045L73.9638 34.1559L74.4114 33.781L74.9135 33.3628L75.4156 32.9432L75.9177 32.5236L76.4184 32.1041L76.9206 31.6845L77.4227 31.2649C77.1691 30.7988 77.0364 30.2774 77.0365 29.7477C77.0365 29.6841 77.0365 29.6205 77.0365 29.5582L76.9124 29.5244L76.4103 29.389L75.9095 29.2537L75.4074 29.1183L74.9053 28.983L74.4032 28.8476L73.9024 28.7123L73.4003 28.5769L72.8982 28.4416L72.3975 28.3063L71.8954 28.1709L71.3933 28.0356L70.8911 27.9002L70.3904 27.7649L69.8883 27.6295L69.3862 27.4942L68.8854 27.3588L68.6849 27.3047C68.5986 27.4732 68.4977 27.634 68.3833 27.7852C68.2366 27.9806 68.0682 28.159 67.8812 28.3171C67.7467 28.4318 67.6029 28.5355 67.4514 28.627L67.8812 29.3552L68.3874 30.1794Z" fill="white"/>
<path d="M78.9239 23.3892C78.7481 23.3083 78.5801 23.2118 78.4218 23.1009C78.2402 22.9751 78.072 22.8313 77.9197 22.6719C77.8496 22.5988 77.7828 22.5216 77.7191 22.4404L77.4189 22.5406L76.9168 22.7057L76.4147 22.8722L75.914 23.0319L75.4118 23.1984L74.9097 23.3648L74.4076 23.53L73.9069 23.7086L73.4048 23.8737L72.9027 24.0402L72.3978 24.1986L71.8957 24.3651L71.3936 24.5315L70.8969 24.6967L70.3962 24.8631L69.8941 25.0283L69.3961 25.1974L68.999 25.3328C69.0263 25.5002 69.0399 25.6694 69.04 25.839C69.04 25.8863 69.04 25.9324 69.04 25.9743L69.4002 26.0731L69.9023 26.2085L70.4044 26.3438L70.9051 26.4792L71.4072 26.6145L71.9094 26.7499L72.4115 26.8852L72.9122 27.0205L73.4143 27.1559L73.9164 27.2912L74.4172 27.4266L74.9193 27.5619L75.4214 27.6973L75.9235 27.8326L76.4243 27.968L76.9264 28.1033L77.4121 28.2387L77.4285 28.2116C77.5633 27.959 77.7317 27.7254 77.9292 27.5173C78.0812 27.3571 78.2495 27.2129 78.4313 27.0869C78.5896 26.976 78.7577 26.8795 78.9334 26.7986C79.0954 26.7239 79.2633 26.6628 79.4355 26.6159C79.4956 26.5983 79.557 26.5834 79.6197 26.5698V23.6017C79.557 23.5882 79.4969 23.5706 79.4355 23.553C79.2607 23.5127 79.0895 23.4579 78.9239 23.3892Z" fill="white"/>
<defs>
<filter id="filter0_b_4614_2866" x="-4" y="-4" width="168" height="80.001" filterUnits="userSpaceOnUse" color-interpolation-filters="sRGB">
<feFlood flood-opacity="0" result="BackgroundImageFix"/>
<feGaussianBlur in="BackgroundImage" stdDeviation="2"/>
<feComposite in2="SourceAlpha" operator="in" result="effect1_backgroundBlur_4614_2866"/>
<feBlend mode="normal" in="SourceGraphic" in2="effect1_backgroundBlur_4614_2866" result="shape"/>
</filter>
<linearGradient id="paint0_linear_4614_2866" x1="80" y1="0" x2="80" y2="72.771" gradientUnits="userSpaceOnUse">
<stop stop-color="#101011"/>
<stop offset="0.623266" stop-color="#101011" stop-opacity="0.267357"/>
<stop offset="1" stop-color="#101011" stop-opacity="0"/>
</linearGradient>
<linearGradient id="paint1_linear_4614_2866" x1="80" y1="0" x2="80" y2="72.0013" gradientUnits="userSpaceOnUse">
<stop stop-color="#632BFF"/>
<stop offset="1" stop-opacity="0"/>
</linearGradient>
</defs>
</svg>
