<svg width="160" height="72" viewBox="0 0 160 72" fill="none" xmlns="http://www.w3.org/2000/svg">
<g opacity="0.8" filter="url(#filter0_b_4614_2865)">
<rect width="160" height="72.0013" rx="6" fill="url(#paint0_linear_4614_2865)"/>
<rect x="0.25" y="0.25" width="159.5" height="71.5013" rx="5.75" stroke="url(#paint1_linear_4614_2865)" stroke-width="0.5"/>
</g>
<mask id="path-3-inside-1_4614_2865" fill="white">
<path d="M49.715 30.7694H46V30.1289H54.3268V30.7694H50.4836V41.7864H49.715V30.7694Z"/>
</mask>
<path d="M46 30.7694H7V69.7694H46V30.7694ZM49.715 30.7694H88.715V-8.23058H49.715V30.7694ZM49.715 41.7864H10.715V80.7864H49.715V41.7864ZM50.4836 41.7864V80.7864H89.4836V41.7864H50.4836ZM50.4836 30.7694V-8.23058H11.4836V30.7694H50.4836ZM54.3268 30.7694V69.7694H93.3268V30.7694H54.3268ZM54.3268 30.1289H93.3268V-8.87109H54.3268V30.1289ZM46 30.1289V-8.87109H7V30.1289H46ZM46 69.7694H49.715V-8.23058H46V69.7694ZM10.715 30.7694V41.7864H88.715V30.7694H10.715ZM49.715 80.7864H50.4836V2.78636H49.715V80.7864ZM89.4836 41.7864V30.7694H11.4836V41.7864H89.4836ZM50.4836 69.7694H54.3268V-8.23058H50.4836V69.7694ZM93.3268 30.7694V30.1289H15.3268V30.7694H93.3268ZM54.3268 -8.87109H46V69.1289H54.3268V-8.87109ZM7 30.1289V30.7694H85V30.1289H7Z" fill="white" mask="url(#path-3-inside-1_4614_2865)"/>
<mask id="path-5-inside-2_4614_2865" fill="white">
<path d="M56.8882 30.1289V30.8975H61.628C66.1757 31.538 65.5992 37.1106 61.4999 37.592H56.8882V41.7864H57.5287V38.3276H61.4999C63.4215 39.2883 63.9339 40.5053 64.5744 41.7864H65.4711C64.5104 40.3132 64.1901 39.4164 62.3967 37.9432C62.3967 37.9432 65.4711 37.2387 65.4711 33.972C65.343 31.2818 62.5888 30.193 61.628 30.1289H56.8882Z"/>
</mask>
<path d="M56.8882 30.8975H44.8882V42.8975H56.8882V30.8975ZM56.8882 30.1289V18.1289H44.8882V30.1289H56.8882ZM61.628 30.1289L62.4263 18.1555L62.0276 18.1289H61.628V30.1289ZM62.3967 37.9432L59.7161 26.2465L35.8969 31.705L54.7798 47.216L62.3967 37.9432ZM65.4711 41.7864V53.7864H87.6237L75.5225 35.2311L65.4711 41.7864ZM64.5744 41.7864L53.8413 47.1529L57.158 53.7864H64.5744V41.7864ZM61.4999 38.3276L66.8665 27.5944L64.3327 26.3276H61.4999V38.3276ZM57.5287 38.3276V26.3276H45.5287V38.3276H57.5287ZM57.5287 41.7864V53.7864H69.5287V41.7864H57.5287ZM56.8882 41.7864H44.8882V53.7864H56.8882V41.7864ZM56.8882 37.592V25.592H44.8882V37.592H56.8882ZM61.4999 37.592V49.592H62.2021L62.8996 49.5101L61.4999 37.592ZM61.628 30.8975L63.3017 19.0148L62.4689 18.8975H61.628V30.8975ZM65.4711 33.972H77.4711V33.6865L77.4576 33.4012L65.4711 33.972ZM68.8882 30.8975V30.1289H44.8882V30.8975H68.8882ZM56.8882 42.1289H61.628V18.1289H56.8882V42.1289ZM54.7798 47.216C54.8994 47.3142 54.8776 47.3066 54.7805 47.2041C54.6708 47.088 54.5659 46.9578 54.4903 46.8521C54.4428 46.7858 54.4457 46.7808 54.6144 47.0553C54.7437 47.2656 55.0656 47.7985 55.4198 48.3416L75.5225 35.2311C75.3963 35.0376 75.3179 34.906 75.0609 34.4878C74.8433 34.1338 74.4739 33.5362 74.002 32.8775C72.9191 31.3655 71.6531 30.0173 70.0135 28.6705L54.7798 47.216ZM65.4711 29.7864H64.5744V53.7864H65.4711V29.7864ZM75.3075 36.4198C75.2241 36.2529 74.358 34.3528 73.0387 32.6329C71.4521 30.5646 69.4076 28.865 66.8665 27.5944L56.1334 49.0607C55.888 48.938 55.5152 48.7195 55.0913 48.3718C54.6581 48.0166 54.2903 47.6239 53.9964 47.2408C53.7192 46.8795 53.57 46.6066 53.5515 46.5725C53.5445 46.5597 53.5574 46.5828 53.6092 46.6861C53.635 46.7377 53.6631 46.7942 53.7034 46.8754C53.74 46.9494 53.7898 47.0499 53.8413 47.1529L75.3075 36.4198ZM61.4999 26.3276H57.5287V50.3276H61.4999V26.3276ZM45.5287 38.3276V41.7864H69.5287V38.3276H45.5287ZM57.5287 29.7864H56.8882V53.7864H57.5287V29.7864ZM68.8882 41.7864V37.592H44.8882V41.7864H68.8882ZM56.8882 49.592H61.4999V25.592H56.8882V49.592ZM62.8996 49.5101C70.8438 48.5771 76.3712 42.2301 76.7869 34.9925C76.9928 31.4067 75.9287 27.5637 73.2871 24.4225C70.5943 21.2206 66.9318 19.5261 63.3017 19.0148L59.9544 42.7802C58.5981 42.5892 56.5689 41.8315 54.919 39.8696C53.3202 37.9685 52.7085 35.6688 52.8264 33.6163C53.0659 29.4455 56.2554 26.1254 60.1003 25.6739L62.8996 49.5101ZM61.628 18.8975H56.8882V42.8975H61.628V18.8975ZM60.8298 42.1023C59.5167 42.0148 58.6474 41.7097 58.2815 41.568C57.7943 41.3793 57.2474 41.1034 56.6768 40.6769C55.4695 39.7743 53.6353 37.705 53.4847 34.5428L77.4576 33.4012C77.1789 27.5488 73.9036 23.59 71.0469 21.4545C68.5757 19.607 65.467 18.3582 62.4263 18.1555L60.8298 42.1023ZM53.4711 33.972C53.4711 32.8175 53.7656 31.4829 54.4698 30.1992C55.1408 28.976 55.9895 28.1484 56.6704 27.6306C57.3305 27.1286 57.9346 26.8376 58.3605 26.6645C58.5887 26.5718 58.8111 26.4947 59.0273 26.4288C59.1368 26.3954 59.2481 26.3638 59.3618 26.3337C59.4188 26.3186 59.4767 26.3039 59.5356 26.2894C59.5651 26.2821 59.5948 26.2749 59.6249 26.2677C59.64 26.2642 59.6551 26.2606 59.6703 26.2571C59.6779 26.2553 59.6855 26.2535 59.6931 26.2517C59.697 26.2509 59.7027 26.2495 59.7046 26.2491C59.7104 26.2478 59.7161 26.2465 62.3967 37.9432C65.0772 49.64 65.083 49.6387 65.0887 49.6374C65.0907 49.6369 65.0965 49.6356 65.1004 49.6347C65.1083 49.6329 65.1162 49.631 65.1241 49.6292C65.1401 49.6254 65.1563 49.6216 65.1728 49.6177C65.2059 49.6099 65.2401 49.6016 65.2753 49.5929C65.3459 49.5755 65.4211 49.5564 65.5006 49.5353C65.6593 49.4934 65.8367 49.4434 66.0302 49.3844C66.4145 49.2671 66.8772 49.1095 67.3936 48.8997C68.396 48.4925 69.7687 47.8211 71.1974 46.7347C74.3372 44.3471 77.4711 40.063 77.4711 33.972H53.4711Z" fill="white" mask="url(#path-5-inside-2_4614_2865)"/>
<mask id="path-7-inside-3_4614_2865" fill="white">
<path d="M69.06 30.1289H68.2914V37.1746C68.2914 39.8008 69.9567 41.8286 72.9031 41.8286C76.49 41.8286 77.9632 39.7367 77.8992 37.1602C77.8351 34.5837 77.8992 30.1289 77.8992 30.1289H77.1306V37.1602C77.1306 39.8931 75.0266 41.2334 72.9672 41.1769C70.9816 41.1769 69.06 39.938 69.06 37.1602V30.1289Z"/>
</mask>
<path d="M68.2914 30.1289V21.1289H59.2914V30.1289H68.2914ZM69.06 30.1289H78.06V21.1289H69.06V30.1289ZM77.1306 30.1289V21.1289H68.1306V30.1289H77.1306ZM77.8992 30.1289L86.8982 30.2583L87.0295 21.1289H77.8992V30.1289ZM77.8992 37.1602L86.8964 36.9365V36.9365L77.8992 37.1602ZM72.9672 41.1769L73.2141 32.1803L73.0907 32.1769H72.9672V41.1769ZM68.2914 39.1289H69.06V21.1289H68.2914V39.1289ZM60.06 30.1289V37.1602H78.06V30.1289H60.06ZM86.1306 37.1602V30.1289H68.1306V37.1602H86.1306ZM77.1306 39.1289H77.8992V21.1289H77.1306V39.1289ZM77.8992 30.1289C68.9001 29.9995 68.9001 29.9996 68.9001 29.9998C68.9001 29.9998 68.9001 30 68.9001 30.0001C68.9001 30.0004 68.9001 30.0007 68.9001 30.0011C68.9001 30.0019 68.9001 30.003 68.9 30.0044C68.9 30.0071 68.8999 30.0108 68.8999 30.0156C68.8997 30.0253 68.8996 30.0391 68.8993 30.0569C68.8988 30.0924 68.8981 30.144 68.8973 30.21C68.8956 30.3419 68.8933 30.5317 68.8907 30.7669C68.8856 31.2367 68.8794 31.8906 68.8753 32.6282C68.8672 34.0725 68.8663 35.9481 68.902 37.3839L86.8964 36.9365C86.868 35.7958 86.8671 34.1557 86.875 32.7286C86.8789 32.0304 86.8848 31.4095 86.8896 30.9636C86.8921 30.7409 86.8942 30.5625 86.8958 30.4407C86.8966 30.3799 86.8972 30.3332 86.8976 30.3023C86.8978 30.2868 86.898 30.2753 86.8981 30.2679C86.8982 30.2642 86.8982 30.2615 86.8982 30.2599C86.8982 30.2591 86.8982 30.2586 86.8982 30.2583C86.8982 30.2582 86.8982 30.2581 86.8982 30.2581C86.8982 30.2581 86.8982 30.2581 86.8982 30.2581C86.8982 30.2582 86.8982 30.2583 77.8992 30.1289ZM77.2914 37.1746V30.1289H59.2914V37.1746H77.2914ZM68.902 37.3839C68.8912 36.9527 69.0049 35.5579 70.2679 34.2381C71.5869 32.8598 72.9411 32.8286 72.9031 32.8286V50.8286C76.452 50.8286 80.3363 49.7514 83.2726 46.683C86.153 43.6732 86.9712 39.9442 86.8964 36.9365L68.902 37.3839ZM72.9031 32.8286C73.601 32.8286 74.9321 33.1323 76.0519 34.3242C77.0925 35.4319 77.2914 36.604 77.2914 37.1746H59.2914C59.2914 40.3714 60.3229 43.8704 62.9328 46.6486C65.6219 49.511 69.2588 50.8286 72.9031 50.8286V32.8286ZM60.06 37.1602C60.06 40.7779 61.3957 44.3278 64.2421 46.8943C66.9219 49.3106 70.1846 50.1769 72.9672 50.1769V32.1769C73.7641 32.1769 75.0733 32.4238 76.2959 33.5262C77.6851 34.7788 78.06 36.3203 78.06 37.1602H60.06ZM72.7202 50.1735C75.6926 50.2551 78.9855 49.3496 81.6689 47.056C84.5361 44.6052 86.1306 41.0467 86.1306 37.1602H68.1306C68.1306 36.0066 68.6731 34.4847 69.9734 33.3732C71.0899 32.4189 72.3012 32.1552 73.2141 32.1803L72.7202 50.1735Z" fill="white" mask="url(#path-7-inside-3_4614_2865)"/>
<mask id="path-9-inside-4_4614_2865" fill="white">
<path d="M88.7862 30.1289H81.6124V30.7694H88.7862V30.1289Z"/>
</mask>
<path d="M81.6124 30.1289V14.1289H65.6124V30.1289H81.6124ZM88.7862 30.1289H104.786V14.1289H88.7862V30.1289ZM88.7862 30.7694V46.7694H104.786V30.7694H88.7862ZM81.6124 30.7694H65.6124V46.7694H81.6124V30.7694ZM81.6124 46.1289H88.7862V14.1289H81.6124V46.1289ZM72.7862 30.1289V30.7694H104.786V30.1289H72.7862ZM88.7862 14.7694H81.6124V46.7694H88.7862V14.7694ZM97.6124 30.7694V30.1289H65.6124V30.7694H97.6124Z" fill="white" mask="url(#path-9-inside-4_4614_2865)"/>
<mask id="path-11-inside-5_4614_2865" fill="white">
<path d="M88.7862 41.0156H81.6124V41.6561H88.7862V41.0156Z"/>
</mask>
<path d="M81.6124 41.0156V25.0156H65.6124V41.0156H81.6124ZM88.7862 41.0156H104.786V25.0156H88.7862V41.0156ZM88.7862 41.6561V57.6561H104.786V41.6561H88.7862ZM81.6124 41.6561H65.6124V57.6561H81.6124V41.6561ZM81.6124 57.0156H88.7862V25.0156H81.6124V57.0156ZM72.7862 41.0156V41.6561H104.786V41.0156H72.7862ZM88.7862 25.6561H81.6124V57.6561H88.7862V25.6561ZM97.6124 41.6561V41.0156H65.6124V41.6561H97.6124Z" fill="white" mask="url(#path-11-inside-5_4614_2865)"/>
<mask id="path-13-inside-6_4614_2865" fill="white">
<path d="M88.4021 35.5098H81.6125V36.1503H88.4021V35.5098Z"/>
</mask>
<path d="M81.6125 35.5098V19.5098H65.6125V35.5098H81.6125ZM88.4021 35.5098H104.402V19.5098H88.4021V35.5098ZM88.4021 36.1503V52.1503H104.402V36.1503H88.4021ZM81.6125 36.1503H65.6125V52.1503H81.6125V36.1503ZM81.6125 51.5098H88.4021V19.5098H81.6125V51.5098ZM72.4021 35.5098V36.1503H104.402V35.5098H72.4021ZM88.4021 20.1503H81.6125V52.1503H88.4021V20.1503ZM97.6125 36.1503V35.5098H65.6125V36.1503H97.6125Z" fill="white" mask="url(#path-13-inside-6_4614_2865)"/>
<mask id="path-15-inside-7_4614_2865" fill="white">
<path d="M95.7674 40.2491L91.4759 30.1289H90.7073L95.7674 41.7864L100.827 30.1289H100.059L95.7674 40.2491Z"/>
</mask>
<path d="M91.4759 30.1289L99.7617 26.6153L97.4352 21.1289H91.4759V30.1289ZM95.7674 40.2491L87.4816 43.7627L95.7674 63.3024L104.053 43.7627L95.7674 40.2491ZM100.059 30.1289V21.1289H94.0996L91.7731 26.6153L100.059 30.1289ZM100.827 30.1289L109.083 33.7125L114.545 21.1289H100.827V30.1289ZM95.7674 41.7864L87.5116 45.3699L95.7674 64.3896L104.023 45.3699L95.7674 41.7864ZM90.7073 30.1289V21.1289H76.9894L82.4515 33.7125L90.7073 30.1289ZM83.1901 33.6425L87.4816 43.7627L104.053 36.7355L99.7617 26.6153L83.1901 33.6425ZM104.053 43.7627L108.345 33.6425L91.7731 26.6153L87.4816 36.7355L104.053 43.7627ZM100.059 39.1289H100.827V21.1289H100.059V39.1289ZM92.5717 26.5453L87.5116 38.2028L104.023 45.3699L109.083 33.7125L92.5717 26.5453ZM104.023 38.2028L98.9631 26.5453L82.4515 33.7125L87.5116 45.3699L104.023 38.2028ZM90.7073 39.1289H91.4759V21.1289H90.7073V39.1289Z" fill="white" mask="url(#path-15-inside-7_4614_2865)"/>
<mask id="path-17-inside-8_4614_2865" fill="white">
<path d="M112.616 32.3103L113 31.926C113 31.926 111.78 30 108.77 30C105.503 30.0641 102.819 32.4428 102.88 36.0253C102.941 39.6078 105.503 41.6953 108.514 41.8496C111.46 42.0007 113 39.9965 113 39.9965L112.616 39.5482C112.616 39.5482 110.692 41.4012 108.514 41.145C106.336 41.145 103.648 39.2108 103.648 36.0253C103.648 32.5368 106.207 30.6701 108.834 30.7046C111.268 30.7365 112.616 32.3103 112.616 32.3103Z"/>
</mask>
<path d="M113 31.926L134.213 53.1391L151.191 36.1617L138.346 15.8767L113 31.926ZM112.616 32.3103L89.8282 51.8226L110.91 76.4427L133.829 53.5234L112.616 32.3103ZM112.616 39.5482L135.393 20.0244L114.704 -4.11342L91.8051 17.9398L112.616 39.5482ZM113 39.9965L136.789 58.2739L151.626 38.9627L135.778 20.4728L113 39.9965ZM102.88 36.0253L72.8842 36.5382L102.88 36.0253ZM108.77 30V0H108.476L108.182 0.00576591L108.77 30ZM108.834 30.7046L108.44 60.702L108.834 30.7046ZM108.514 41.145L112.019 11.3505L110.273 11.145H108.514V41.145ZM108.514 41.8496L110.05 11.889H110.05L108.514 41.8496ZM91.7867 10.7128L91.4024 11.0971L133.829 53.5234L134.213 53.1391L91.7867 10.7128ZM89.838 59.0719L90.2223 59.5203L135.778 20.4728L135.393 20.0244L89.838 59.0719ZM132.875 35.5124C132.982 41.7353 130.546 48.2475 125.575 53.1191C120.816 57.7833 114.84 59.8868 109.358 59.9942L108.182 0.00576591C90.0076 0.362127 72.5131 14.8363 72.8842 36.5382L132.875 35.5124ZM108.77 60C103.405 60 98.507 58.1535 94.6978 55.461C92.9215 54.2054 91.5055 52.8601 90.3939 51.6163C89.8331 50.9889 89.3315 50.3669 88.8824 49.7639C88.6572 49.4615 88.4429 49.1609 88.239 48.8634C88.137 48.7145 88.0373 48.5661 87.9399 48.4181C87.8912 48.3441 87.843 48.2702 87.7954 48.1965C87.7716 48.1596 87.7479 48.1227 87.7243 48.0858C87.7125 48.0674 87.7008 48.049 87.6891 48.0305C87.6832 48.0213 87.6744 48.0075 87.6715 48.0029C87.6627 47.9891 87.654 47.9753 113 31.926C138.346 15.8767 138.337 15.8628 138.328 15.849C138.326 15.8444 138.317 15.8305 138.311 15.8212C138.299 15.8027 138.287 15.7841 138.275 15.7654C138.251 15.7281 138.227 15.6905 138.203 15.6527C138.154 15.5771 138.104 15.5004 138.053 15.4228C137.951 15.2675 137.844 15.1083 137.732 14.9453C137.509 14.6195 137.265 14.2776 137.001 13.9225C136.473 13.2142 135.853 12.4418 135.131 11.6338C133.697 10.0289 131.788 8.20203 129.33 6.46502C124.158 2.8095 117.145 0 108.77 0V60ZM112.616 32.3103C135.403 12.7979 135.395 12.7881 135.386 12.7783C135.383 12.775 135.375 12.7651 135.369 12.7585C135.358 12.7453 135.347 12.7321 135.335 12.7188C135.312 12.6923 135.289 12.6656 135.266 12.6387C135.219 12.5849 135.171 12.5303 135.123 12.4751C135.025 12.3646 134.924 12.2513 134.819 12.1352C134.608 11.9033 134.381 11.6597 134.137 11.4066C133.65 10.9019 133.086 10.3505 132.444 9.77244C131.175 8.62937 129.514 7.30412 127.444 6.02098C123.273 3.43565 117.062 0.809996 109.228 0.707155L108.44 60.702C103.04 60.6311 98.72 58.8083 95.8316 57.0178C94.4028 56.1321 93.2304 55.2023 92.2899 54.3553C91.8125 53.9253 91.3732 53.4971 90.9692 53.0786C90.7664 52.8686 90.5705 52.6588 90.381 52.45C90.2862 52.3455 90.1928 52.2409 90.1008 52.1365C90.0547 52.0842 90.009 52.0319 89.9636 51.9796C89.9409 51.9535 89.9182 51.9273 89.8957 51.9012C89.8844 51.8881 89.8731 51.875 89.8619 51.8619C89.8563 51.8554 89.8479 51.8455 89.8451 51.8423C89.8366 51.8325 89.8282 51.8226 112.616 32.3103ZM109.228 0.707155C91.655 0.47648 73.6484 14.0918 73.6484 36.0253H133.648C133.648 42.1101 131.18 48.9132 125.664 54.0329C120.542 58.7864 114.207 60.7777 108.44 60.702L109.228 0.707155ZM73.6484 36.0253C73.6484 57.6782 91.7323 71.145 108.514 71.145V11.145C115.738 11.145 121.672 14.0541 125.741 17.8545C130.326 22.137 133.648 28.5881 133.648 36.0253H73.6484ZM105.009 70.9395C115.235 72.1426 122.978 68.3722 126.287 66.4778C128.246 65.3564 129.8 64.2277 130.901 63.3562C131.468 62.9068 131.962 62.4892 132.376 62.1236C132.584 61.9398 132.776 61.7663 132.95 61.6052C133.038 61.5245 133.121 61.4467 133.2 61.3719C133.24 61.3345 133.279 61.2979 133.316 61.262C133.335 61.244 133.354 61.2262 133.372 61.2087C133.381 61.1999 133.39 61.1911 133.399 61.1824C133.404 61.1781 133.411 61.1716 133.413 61.1694C133.42 61.163 133.426 61.1565 112.616 39.5482C91.8051 17.9398 91.8118 17.9334 91.8185 17.9269C91.8207 17.9248 91.8274 17.9183 91.8319 17.9141C91.8408 17.9055 91.8498 17.8969 91.8587 17.8883C91.8766 17.8712 91.8945 17.8541 91.9124 17.8371C91.9481 17.8029 91.984 17.7689 92.0199 17.735C92.0917 17.6673 92.164 17.5998 92.2367 17.5326C92.3818 17.3986 92.53 17.2646 92.6815 17.131C92.9821 16.8658 93.308 16.5909 93.6613 16.3112C94.3335 15.7791 95.2704 15.0977 96.4759 14.4076C98.2784 13.3756 103.971 10.4036 112.019 11.3505L105.009 70.9395ZM113 39.9965C89.2105 21.7192 89.2191 21.708 89.2277 21.6969C89.2305 21.6932 89.2391 21.682 89.2449 21.6746C89.2563 21.6597 89.2678 21.6448 89.2794 21.6299C89.3024 21.6002 89.3255 21.5705 89.3487 21.5407C89.3951 21.4813 89.4419 21.4218 89.489 21.3624C89.5833 21.2435 89.6791 21.1245 89.7766 21.0055C89.9715 20.7678 90.174 20.5285 90.3847 20.2885C90.8042 19.8107 91.2666 19.3182 91.7763 18.8215C92.7774 17.846 94.0681 16.7499 95.6883 15.7128C99.0628 13.5528 104.045 11.5811 110.05 11.889L106.978 71.8103C115.929 72.2691 123.154 69.3709 128.035 66.2467C130.409 64.7274 132.269 63.1397 133.65 61.7931C134.35 61.1109 134.956 60.463 135.471 59.8762C135.73 59.5817 135.968 59.2995 136.187 59.0325C136.297 58.8988 136.402 58.7686 136.502 58.6422C136.552 58.579 136.601 58.5166 136.649 58.4552C136.673 58.4246 136.697 58.3941 136.72 58.3639C136.732 58.3487 136.743 58.3337 136.755 58.3187C136.761 58.3112 136.769 58.3 136.772 58.2962C136.781 58.285 136.789 58.2739 113 39.9965ZM110.05 11.889C114.939 12.1396 120.665 14.0428 125.426 18.6383C130.473 23.5102 132.778 29.8317 132.875 35.5124L72.8842 36.5382C73.0426 45.8014 76.6596 54.9579 83.7557 61.8077C90.5658 68.3812 99.0787 71.4053 106.978 71.8103L110.05 11.889Z" fill="white" mask="url(#path-17-inside-8_4614_2865)"/>
<defs>
<filter id="filter0_b_4614_2865" x="-4" y="-4" width="168" height="80.001" filterUnits="userSpaceOnUse" color-interpolation-filters="sRGB">
<feFlood flood-opacity="0" result="BackgroundImageFix"/>
<feGaussianBlur in="BackgroundImage" stdDeviation="2"/>
<feComposite in2="SourceAlpha" operator="in" result="effect1_backgroundBlur_4614_2865"/>
<feBlend mode="normal" in="SourceGraphic" in2="effect1_backgroundBlur_4614_2865" result="shape"/>
</filter>
<linearGradient id="paint0_linear_4614_2865" x1="80" y1="0" x2="80" y2="72.771" gradientUnits="userSpaceOnUse">
<stop stop-color="#101011"/>
<stop offset="0.623266" stop-color="#101011" stop-opacity="0.267357"/>
<stop offset="1" stop-color="#101011" stop-opacity="0"/>
</linearGradient>
<linearGradient id="paint1_linear_4614_2865" x1="80" y1="0" x2="80" y2="72.0013" gradientUnits="userSpaceOnUse">
<stop stop-color="#632BFF"/>
<stop offset="1" stop-opacity="0"/>
</linearGradient>
</defs>
</svg>
