<svg width="40" height="40" viewBox="0 0 40 40" fill="none" xmlns="http://www.w3.org/2000/svg">
<path d="M20.0828 14.9441C21.8178 14.9441 23.2243 14.1261 23.2243 13.1171C23.2243 12.108 21.8178 11.29 20.0828 11.29C18.3479 11.29 16.9414 12.108 16.9414 13.1171C16.9414 14.1261 18.3479 14.9441 20.0828 14.9441Z" fill="white"/>
<path d="M20.0828 28.7098C21.8178 28.7098 23.2243 27.8918 23.2243 26.8827C23.2243 25.8737 21.8178 25.0557 20.0828 25.0557C18.3479 25.0557 16.9414 25.8737 16.9414 26.8827C16.9414 27.8918 18.3479 28.7098 20.0828 28.7098Z" fill="white"/>
<path d="M15.7051 17.473C16.5726 15.9705 16.567 14.3433 15.6926 13.8384C14.8181 13.3336 13.406 14.1423 12.5385 15.6448C11.671 17.1472 11.6766 18.7745 12.5511 19.2794C13.4255 19.7842 14.8376 18.9755 15.7051 17.473Z" fill="white"/>
<path d="M27.6256 24.3556C28.4931 22.8531 28.4879 21.2261 27.6141 20.7216C26.7403 20.2171 25.3286 21.0261 24.4611 22.5285C23.5936 24.031 23.5988 25.658 24.4726 26.1625C25.3465 26.6671 26.7581 25.8581 27.6256 24.3556Z" fill="white"/>
<path d="M15.693 26.1616C16.5675 25.6567 16.5731 24.0295 15.7056 22.527C14.8381 21.0245 13.426 20.2158 12.5516 20.7206C11.6771 21.2255 11.6715 22.8528 12.539 24.3552C13.4065 25.8577 14.8186 26.6664 15.693 26.1616Z" fill="white"/>
<path d="M27.6148 19.2794C28.4887 18.7749 28.4938 17.1479 27.6263 15.6454C26.7588 14.1429 25.3472 13.3339 24.4733 13.8384C23.5995 14.343 23.5944 15.97 24.4619 17.4724C25.3294 18.9749 26.741 19.7839 27.6148 19.2794Z" fill="white"/>
</svg>
