<svg width="40" height="40" viewBox="0 0 40 40" fill="none" xmlns="http://www.w3.org/2000/svg">
<path d="M24.9588 27.258C23.6779 27.258 22.636 26.2161 22.636 24.9353V20.6589C24.7509 20.4954 26.281 20.0474 27.2816 19.316V24.9353C27.2816 26.2161 26.2396 27.258 24.9588 27.258ZM22.636 15.0644C22.636 13.7836 23.6779 12.7416 24.9588 12.7416C26.2396 12.7416 27.2816 13.7836 27.2816 15.0644V16.4676C27.2588 16.9611 27.1518 17.4681 26.7173 17.9046C26.2088 18.4148 25.0829 18.9905 22.636 19.1973V15.0644ZM17.3952 24.9353C17.3952 26.2161 16.3532 27.258 15.0724 27.258C13.7915 27.258 12.7496 26.2161 12.7496 24.9353V23.633C12.7729 23.1587 12.8868 22.6414 13.3563 22.1688C13.8845 21.6362 15.0103 21.0379 17.3952 20.8141V24.9353ZM15.0724 12.7416C16.3532 12.7416 17.3952 13.7836 17.3952 15.0644V19.3537C15.2961 19.5338 13.7649 20.0119 12.7496 20.7898V15.0644C12.7496 13.7836 13.7915 12.7416 15.0724 12.7416ZM28.7367 15.8916L28.7332 15.6449V15.0644C28.7332 12.9833 27.0398 11.29 24.9588 11.29C22.8777 11.29 21.1844 12.9833 21.1844 15.0644V19.267C20.8174 19.2744 19.2303 19.2724 18.8467 19.2812V15.0644C18.8467 12.9833 17.1534 11.29 15.0724 11.29C12.9913 11.29 11.2979 12.9833 11.2979 15.0644V23.5609C11.2861 23.7915 11.291 23.9974 11.2951 24.1669L11.2979 24.3548V24.9353C11.2979 27.0163 12.9913 28.7097 15.0724 28.7097C17.1534 28.7097 18.8467 27.0163 18.8467 24.9353V20.7356C19.2176 20.7265 20.8054 20.7293 21.1844 20.7225V24.9353C21.1844 27.0163 22.8777 28.7097 24.9588 28.7097C27.0398 28.7097 28.7332 27.0163 28.7332 24.9353V16.5462C28.7453 16.3035 28.7409 16.0812 28.7367 15.8916Z" fill="white"/>
</svg>
