<svg width="40" height="40" viewBox="0 0 40 40" fill="none" xmlns="http://www.w3.org/2000/svg">
<path d="M14.6526 13.0868L20.0004 10L25.3482 13.0868L23.382 14.2271L20.0004 12.2807L16.6187 14.2271L14.6526 13.0868ZM25.3482 16.9796L23.382 15.8393L20.0004 17.7858L16.6187 15.8393L14.6526 16.9796V19.2603L18.0343 21.2067V25.0996L20.0004 26.24L21.9665 25.0996V21.2067L25.3482 19.2603V16.9796ZM25.3482 23.1532V20.8725L23.382 22.0128V24.2935L25.3482 23.1532ZM26.7441 23.9593L23.3624 25.9057V28.1864L28.7102 25.0996V18.9261L26.7441 20.0664V23.9593ZM24.778 15.0332L26.7441 16.1735V18.4542L28.7102 17.3139V15.0332L26.7441 13.8929L24.778 15.0332ZM18.0343 26.7315V29.0122L20.0004 30.1525L21.9665 29.0122V26.7315L20.0004 27.8718L18.0343 26.7315ZM14.6526 23.1532L16.6187 24.2935V22.0128L14.6526 20.8725V23.1532ZM18.0343 15.0332L20.0004 16.1735L21.9665 15.0332L20.0004 13.8929L18.0343 15.0332ZM13.2566 16.1735L15.2227 15.0332L13.2566 13.8929L11.2905 15.0332V17.3139L13.2566 18.4542V16.1735ZM13.2566 20.0664L11.2905 18.9261V25.0996L16.6383 28.1864V25.9057L13.2566 23.9593V20.0664Z" fill="white"/>
</svg>
