<svg width="80" height="80" viewBox="0 0 80 80" fill="none" xmlns="http://www.w3.org/2000/svg">
<path d="M59.6291 22.2587C55.9678 20.6347 52.0416 19.4382 47.9365 18.7529C47.8618 18.7396 47.7871 18.7727 47.7486 18.8388C47.5972 19.099 47.441 19.383 47.2858 19.6771C46.6569 20.8693 45.3701 21.5859 44.0283 21.4579C41.1516 21.1835 38.2878 21.1815 35.4496 21.4518C34.0957 21.5808 32.7905 20.8561 32.1428 19.6602C31.9872 19.3728 31.8311 19.0951 31.6814 18.8388C31.6429 18.7749 31.5682 18.7419 31.4934 18.7529C27.3906 19.436 23.4644 20.6325 19.8008 22.2587C19.7691 22.2719 19.7419 22.294 19.7239 22.3226C12.2767 33.0781 10.2366 43.5693 11.2374 53.9303C11.2419 53.981 11.2714 54.0295 11.3121 54.0603C16.2255 57.5485 20.9851 59.6661 25.6562 61.0698C25.7309 61.0918 25.8101 61.0654 25.8577 61.0059C26.9627 59.5472 27.9476 58.0091 28.7922 56.3916C28.842 56.2969 28.7944 56.1845 28.6926 56.1471C27.1302 55.5741 25.6426 54.8756 24.2116 54.0824C24.0984 54.0185 24.0893 53.862 24.1934 53.787C24.4946 53.5689 24.7958 53.3419 25.0834 53.1128C25.1354 53.0709 25.2079 53.0621 25.269 53.0885C34.6702 57.2378 44.848 57.2378 54.1383 53.0885C54.1994 53.0599 54.2719 53.0687 54.3262 53.1106C54.6138 53.3397 54.915 53.5689 55.2184 53.787C55.3225 53.862 55.3157 54.0185 55.2025 54.0824C53.7715 54.891 52.2839 55.5741 50.7193 56.1449C50.6174 56.1823 50.5721 56.2969 50.6219 56.3916C51.4846 58.0068 52.4695 59.5449 53.5541 61.0037C53.5994 61.0654 53.6809 61.0918 53.7556 61.0698C58.4494 59.6661 63.2089 57.5485 68.1223 54.0603C68.1654 54.0295 68.1926 53.9832 68.1971 53.9325C69.3948 41.954 66.1909 31.5489 59.7038 22.3248C59.688 22.294 59.6609 22.2719 59.6291 22.2587ZM30.1961 47.6215C27.3657 47.6215 25.0335 45.1095 25.0335 42.0245C25.0335 38.9395 27.3204 36.4275 30.1961 36.4275C33.0943 36.4275 35.4038 38.9616 35.3585 42.0245C35.3585 45.1095 33.0716 47.6215 30.1961 47.6215ZM49.2837 47.6215C46.4534 47.6215 44.1212 45.1095 44.1212 42.0245C44.1212 38.9395 46.4081 36.4275 49.2837 36.4275C52.182 36.4275 54.4915 38.9616 54.4463 42.0245C54.4463 45.1095 52.182 47.6215 49.2837 47.6215Z" fill="#53FDA9"/>
</svg>
