<svg width="80" height="80" viewBox="0 0 80 80" fill="none" xmlns="http://www.w3.org/2000/svg">
<path d="M43.9904 39.3986C43.9904 48.3256 36.7556 55.5623 27.8314 55.5623C18.9073 55.5623 11.6719 48.324 11.6719 39.3986C11.6719 30.4733 18.9067 23.2344 27.8314 23.2344C36.7561 23.2344 43.9904 30.4716 43.9904 39.3986Z" fill="#53FDA9"/>
<path d="M61.7182 39.3971C61.7182 47.7999 58.1007 54.6145 53.6384 54.6145C49.176 54.6145 45.5586 47.7999 45.5586 39.3971C45.5586 30.9942 49.1755 24.1797 53.6378 24.1797C58.1002 24.1797 61.7176 30.9921 61.7176 39.3971" fill="#53FDA9"/>
<path d="M68.968 39.398C68.968 46.9249 67.6959 53.0304 66.1263 53.0304C64.5567 53.0304 63.2852 46.9265 63.2852 39.398C63.2852 31.8695 64.5572 25.7656 66.1263 25.7656C67.6954 25.7656 68.968 31.8689 68.968 39.398Z" fill="#53FDA9"/>
</svg>
