<svg width="80" height="80" viewBox="0 0 80 80" fill="none" xmlns="http://www.w3.org/2000/svg">
<path d="M70 40.2852C70 36.5811 66.9982 33.5749 63.2996 33.5749C61.4772 33.5749 59.8691 34.2728 58.6898 35.4538C54.1336 32.1791 47.8084 30.0318 40.8401 29.7634L43.8954 15.4301L53.812 17.5237C53.9192 20.0468 56.0097 22.0868 58.5826 22.0868C61.2091 22.0868 63.3533 19.9395 63.3533 17.309C63.3533 14.6786 61.2091 12.5312 58.5826 12.5312C56.7065 12.5312 55.0984 13.6049 54.348 15.2154L43.2522 12.8533C42.9306 12.7997 42.609 12.8533 42.341 13.0144C42.0729 13.1754 41.9121 13.4439 41.8049 13.766L38.4279 29.7634C31.2988 29.9781 24.92 32.0718 20.3102 35.4538C19.1309 34.3264 17.4692 33.5749 15.7004 33.5749C12.0018 33.5749 9 36.5811 9 40.2852C9 43.023 10.6081 45.3314 12.9666 46.4051C12.8594 47.0493 12.8058 47.7471 12.8058 48.445C12.8058 58.7521 24.7592 67.0729 39.5536 67.0729C54.348 67.0729 66.3014 58.7521 66.3014 48.445C66.3014 47.7471 66.2478 47.1029 66.1406 46.4587C68.3383 45.3851 70 43.023 70 40.2852ZM24.1696 45.063C24.1696 42.4325 26.3137 40.2852 28.9403 40.2852C31.5668 40.2852 33.7109 42.4325 33.7109 45.063C33.7109 47.6934 31.5668 49.8408 28.9403 49.8408C26.3137 49.8408 24.1696 47.6934 24.1696 45.063ZM50.8102 57.6784C47.5404 60.9531 41.3225 61.1678 39.5 61.1678C37.6775 61.1678 31.406 60.8994 28.1898 57.6784C27.7074 57.1953 27.7074 56.39 28.1898 55.9069C28.6722 55.4238 29.4763 55.4238 29.9587 55.9069C31.9956 57.9468 36.391 58.6984 39.5536 58.6984C42.7162 58.6984 47.058 57.9468 49.1485 55.9069C49.6309 55.4238 50.435 55.4238 50.9174 55.9069C51.2926 56.4437 51.2926 57.1953 50.8102 57.6784ZM49.9526 49.8408C47.326 49.8408 45.1819 47.6934 45.1819 45.063C45.1819 42.4325 47.326 40.2852 49.9526 40.2852C52.5791 40.2852 54.7232 42.4325 54.7232 45.063C54.7232 47.6934 52.5791 49.8408 49.9526 49.8408Z" fill="#53FDA9"/>
</svg>
