<svg width="80" height="80" viewBox="0 0 80 80" fill="none" xmlns="http://www.w3.org/2000/svg">
<path fill-rule="evenodd" clip-rule="evenodd" d="M18.3685 36.9395C31.5218 31.3416 40.2927 27.6512 44.6813 25.8681C57.2115 20.7772 59.8152 19.8928 61.5122 19.8636C61.8855 19.8572 62.72 19.9475 63.2606 20.376C63.7171 20.7378 63.8427 21.2266 63.9028 21.5696C63.9629 21.9126 64.0377 22.6941 63.9782 23.3046C63.2992 30.2738 60.3611 47.1861 58.8664 54.9917C58.2339 58.2945 56.9885 59.4019 55.7829 59.5103C53.1627 59.7458 51.173 57.8188 48.6352 56.1938C44.6641 53.651 42.4207 52.0681 38.566 49.5868C34.1113 46.7193 36.9991 45.1432 39.5379 42.5675C40.2023 41.8934 51.7468 31.636 51.9703 30.7055C51.9982 30.5892 52.0242 30.1554 51.7604 29.9263C51.4965 29.6973 51.1072 29.7756 50.8262 29.8379C50.4279 29.9262 44.084 34.0221 31.7944 42.1256C29.9937 43.3335 28.3627 43.922 26.9014 43.8911C25.2904 43.8571 22.1914 43.0014 19.8877 42.2699C17.0621 41.3727 14.8163 40.8983 15.0119 39.3745C15.1137 38.5809 16.2326 37.7692 18.3685 36.9395Z" fill="#53FDA9"/>
</svg>
