<svg width="80" height="80" viewBox="0 0 80 80" fill="none" xmlns="http://www.w3.org/2000/svg">
<path d="M61.5536 28.6037C61.5751 29.0946 61.5751 29.5631 61.5751 30.054C61.5967 44.9365 50.6608 62.1172 30.6621 62.1172C24.7636 62.1172 18.9728 60.3545 14 57.0522C14.8611 57.1638 15.7222 57.2084 16.5833 57.2084C21.4699 57.2084 26.2275 55.5127 30.0808 52.3666C25.431 52.2773 21.3408 49.1313 19.92 44.5349C21.5561 44.8696 23.2352 44.8026 24.8282 44.3341C19.7693 43.3077 16.1312 38.689 16.1097 33.3117C16.1097 33.267 16.1097 33.2224 16.1097 33.1778C17.6166 34.048 19.3172 34.5388 21.0394 34.5835C16.2819 31.2812 14.7965 24.699 17.6812 19.5448C23.2136 26.5956 31.3509 30.8573 40.091 31.3258C39.2084 27.4211 40.4139 23.3156 43.234 20.5489C47.604 16.2872 54.4927 16.5103 58.6259 21.0397C61.0585 20.5489 63.405 19.6117 65.5361 18.2953C64.7181 20.9059 63.0175 23.1148 60.7571 24.5205C62.9098 24.2528 65.0195 23.6503 67 22.7578C65.5362 25.0337 63.6848 26.9972 61.5536 28.6037Z" fill="#53FDA9"/>
</svg>
