<svg width="64" height="64" viewBox="0 0 64 64" fill="none" xmlns="http://www.w3.org/2000/svg">
<path d="M5.53566 39.8262C5.27845 39.8262 5.04013 39.7676 4.8273 39.6522C4.72055 39.5934 4.62404 39.5225 4.5405 39.4419C4.45651 39.3608 4.38345 39.2679 4.32335 39.1655C4.26303 39.0624 4.21683 38.952 4.18633 38.8371C4.15537 38.721 4.13989 38.5974 4.13989 38.4703C4.13989 38.3415 4.15514 38.2177 4.18564 38.1021C4.21615 37.9856 4.26258 37.8748 4.32335 37.7726C4.38345 37.6699 4.45674 37.577 4.54096 37.4962C4.62495 37.4155 4.72214 37.3447 4.82981 37.2856C4.93679 37.227 5.05219 37.1825 5.17283 37.1532C5.29256 37.1241 5.42048 37.1094 5.55296 37.1094C5.76191 37.1094 5.94901 37.1437 6.12496 37.2138C6.2934 37.2818 6.43931 37.3833 6.55835 37.5157L6.3239 37.741C6.22489 37.6383 6.11154 37.5597 5.98748 37.5077C5.8607 37.4546 5.71935 37.4278 5.56707 37.4278C5.46692 37.4278 5.37018 37.4391 5.27958 37.4614C5.18876 37.4837 5.10159 37.5177 5.0201 37.5625C4.85667 37.6524 4.72829 37.778 4.63884 37.9361V37.9359C4.59286 38.0144 4.55803 38.0992 4.53527 38.1877C4.51251 38.2756 4.50113 38.3699 4.50113 38.4675C4.50113 38.5652 4.51273 38.6595 4.53527 38.7473C4.55803 38.8357 4.59286 38.9204 4.63884 38.999C4.73079 39.1571 4.85917 39.2827 5.0201 39.3726C5.10159 39.4173 5.18899 39.4512 5.27958 39.4734C5.37018 39.4957 5.46692 39.5071 5.56707 39.5071C5.7173 39.5071 5.85797 39.4798 5.98475 39.426C6.10789 39.3737 6.2217 39.2949 6.32368 39.1918L6.55835 39.4169C6.43931 39.5495 6.29272 39.651 6.12246 39.7192C6.03619 39.7546 5.94423 39.7816 5.84909 39.7991C5.75463 39.8166 5.65425 39.8255 5.55068 39.8255C5.54544 39.8262 5.54044 39.8262 5.53566 39.8262ZM51.0214 39.7982H50.6435L50.3513 39.1341L50.3483 39.1273H50.3408H48.9145H48.907L48.9041 39.1341L48.612 39.798H48.2412L49.4465 37.14H49.8113L51.0214 39.7982ZM49.6288 37.4909L49.6183 37.5146L49.0397 38.8282L49.0327 38.8441H49.0502H50.2072H50.2247L50.2176 38.8282L49.6393 37.5146L49.6288 37.4909ZM40.8688 39.7982H40.5122V37.463V37.4516H40.5008H39.5917V37.1403H41.7896V37.4516H40.8805H40.8691V37.463V39.7982H40.8688ZM32.6049 39.7982H32.2434V37.1403H32.6049V39.7982ZM15.9936 39.7982H15.6158L15.3238 39.1344L15.3208 39.1275H15.3133H13.8866H13.8793L13.8763 39.1344L13.5843 39.7982H13.2135L14.419 37.1403H14.7834L15.9936 39.7982ZM14.599 37.4909L14.5886 37.5146L14.0097 38.8282L14.0027 38.8441H14.0202H15.1776H15.1952L15.1881 38.8282L14.6095 37.5146L14.599 37.4909ZM59.8114 39.7959H57.9954V37.1403H58.3569V39.4755V39.4868H58.3683H59.8116V39.7959H59.8114ZM23.3266 39.7959H22.9654V37.138H24.0011C24.1736 37.1391 24.3295 37.1607 24.465 37.2023C24.6 37.2436 24.7179 37.3061 24.8157 37.3878C24.9136 37.4694 24.988 37.5675 25.0372 37.6797C25.0866 37.7921 25.1114 37.9215 25.1114 38.064C25.1114 38.2064 25.0864 38.3358 25.0372 38.4482C24.988 38.5604 24.9136 38.6585 24.8157 38.7401C24.7181 38.8214 24.6 38.8832 24.465 38.9238C24.33 38.9642 24.1738 38.9849 24.0011 38.9849H23.338H23.3266V38.9963V39.7959ZM23.3266 37.4516V37.463V38.6644V38.6758H23.338H23.9892C24.1126 38.6758 24.2226 38.6626 24.3159 38.6367C24.4097 38.6108 24.4898 38.5711 24.554 38.5189C24.6193 38.4669 24.6689 38.4017 24.7017 38.3256C24.734 38.2502 24.7504 38.1621 24.7504 38.0637C24.7504 37.9654 24.734 37.8773 24.7017 37.8019C24.6691 37.7258 24.6193 37.6606 24.554 37.6084C24.4884 37.5561 24.4078 37.5166 24.3143 37.4907C24.221 37.4648 24.1117 37.4516 23.9895 37.4516H23.3383H23.3266Z" fill="white"/>
<path d="M5.53628 39.8142C5.54106 39.8142 5.54607 39.8142 5.55062 39.8142H5.55085C5.65373 39.8142 5.75343 39.8054 5.84721 39.7881C5.94167 39.7706 6.03295 39.7438 6.1183 39.7086H6.11853C6.28356 39.6425 6.42627 39.5448 6.54281 39.4174L6.3243 39.2076C6.22324 39.308 6.11079 39.3847 5.98947 39.4363C5.86109 39.4908 5.71906 39.5183 5.56724 39.5183C5.46617 39.5183 5.36875 39.5069 5.27702 39.4844C5.18529 39.4619 5.0972 39.4277 5.0148 39.3827H5.01457C4.85183 39.2918 4.72208 39.1647 4.62921 39.0048C4.58278 38.9253 4.5475 38.8396 4.52451 38.7502C4.50152 38.6614 4.48991 38.5664 4.48991 38.4676C4.48991 38.3688 4.50152 38.2737 4.52451 38.1849C4.54773 38.0954 4.58278 38.0095 4.62921 37.93C4.71981 37.7704 4.84955 37.6434 5.0148 37.5523C5.09697 37.5071 5.18529 37.4729 5.27702 37.4501C5.36852 37.4277 5.46617 37.4163 5.56724 37.4163C5.72088 37.4163 5.86382 37.4436 5.99197 37.4972C6.11421 37.5485 6.22597 37.625 6.3243 37.7247L6.54281 37.5149C6.42627 37.3877 6.28447 37.29 6.12103 37.2239C5.94645 37.1542 5.76071 37.1201 5.55335 37.1201C5.42179 37.1201 5.29478 37.1347 5.17596 37.1635C5.05646 37.1926 4.94196 37.2367 4.83567 37.2948C4.72868 37.3534 4.6324 37.4236 4.54909 37.5035C4.46578 37.5837 4.39317 37.6757 4.33354 37.7774V37.7776C4.27322 37.8789 4.22724 37.9889 4.19696 38.1042C4.16692 38.2189 4.15167 38.3418 4.15167 38.4697C4.15167 38.5959 4.16715 38.7184 4.19788 38.8337C4.22815 38.9475 4.2739 39.057 4.33376 39.1592C4.3934 39.2607 4.46578 39.3529 4.54909 39.4331C4.63195 39.5131 4.72755 39.5832 4.83362 39.6416C5.04462 39.7563 5.28112 39.8142 5.53628 39.8142ZM51.0042 39.7863L49.8045 37.151H49.4542L48.2592 39.7863H48.6049L48.8999 39.1156H50.356L50.3619 39.1292L50.6512 39.7865H51.0042V39.7863ZM49.6294 37.462L49.6504 37.5092L50.2429 38.8546H49.0162L49.6294 37.462ZM40.8581 39.7863V37.4397H41.7786V37.151H39.6035V37.4397H40.524V39.7863H40.8581ZM32.5941 39.7863V37.151H32.2554V39.7863H32.5941ZM15.9765 39.7863L14.7767 37.151H14.4269L13.2316 39.7863H13.5774L13.8724 39.1156H15.3287L15.3346 39.1292L15.6237 39.7865H15.9765V39.7863ZM14.5996 37.462L15.2131 38.8546H13.986L14.0001 38.8228L14.5996 37.462ZM59.8006 39.784V39.4976H58.3459V37.151H58.0072V39.784H59.8006ZM23.3159 39.784V38.9727H24.0017C24.1733 38.9727 24.3283 38.9523 24.4622 38.9121C24.5958 38.8719 24.7123 38.8108 24.8089 38.7306C24.9054 38.6502 24.9789 38.5535 25.0271 38.4429C25.0758 38.3318 25.1004 38.2042 25.1004 38.0631C25.1004 37.9221 25.0758 37.7945 25.0271 37.6834C24.9787 37.573 24.9051 37.476 24.8089 37.3956C24.7121 37.315 24.5953 37.2532 24.462 37.2124C24.3279 37.1712 24.1729 37.1497 24.0015 37.1485H22.9772V39.784H23.3159ZM23.3159 37.4397H23.9899C24.113 37.4397 24.2234 37.4529 24.3176 37.4792C24.4128 37.5056 24.4947 37.546 24.5614 37.5991C24.6283 37.6525 24.6791 37.7193 24.7126 37.7972C24.7453 37.8739 24.7622 37.9637 24.7622 38.0636C24.7622 38.1635 24.7456 38.2532 24.7126 38.3298C24.6791 38.4077 24.6283 38.4742 24.5617 38.5274C24.4963 38.5805 24.4148 38.6209 24.3195 38.6473C24.225 38.6734 24.1142 38.6868 23.9899 38.6868H23.3159V37.4397ZM5.53628 39.8369C5.2727 39.8369 5.03415 39.7763 4.82246 39.6616C4.60668 39.5426 4.43597 39.3788 4.31396 39.1708C4.19218 38.963 4.12891 38.729 4.12891 38.4699C4.12891 38.2103 4.18991 37.9743 4.31396 37.7663C4.43597 37.5583 4.60668 37.3947 4.82474 37.2753C5.04234 37.1563 5.28613 37.0977 5.55335 37.0977C5.76413 37.0977 5.95396 37.1329 6.12946 37.203C6.3029 37.273 6.45268 37.3784 6.57445 37.516L6.32384 37.7568C6.12263 37.5437 5.86929 37.4388 5.56746 37.4388C5.36807 37.4388 5.18802 37.4831 5.02618 37.5721C4.86457 37.6611 4.73802 37.7847 4.64925 37.9414C4.55774 38.0979 4.51313 38.2734 4.51313 38.4674C4.51313 38.6614 4.55797 38.8367 4.64925 38.9932C4.74029 39.1497 4.86708 39.2737 5.02618 39.3627C5.18802 39.4513 5.3683 39.4956 5.56746 39.4956C5.86701 39.4956 6.11762 39.3884 6.32384 39.1756L6.57445 39.4161C6.45268 39.5542 6.30268 39.6593 6.12718 39.7295C5.95169 39.8017 5.75957 39.8367 5.55107 39.8367C5.54607 39.8369 5.54106 39.8369 5.53628 39.8369ZM51.0395 39.809H50.6366L50.3414 39.1383H48.9152L48.6202 39.809H48.2241L49.4396 37.1283H49.819L51.0395 39.809ZM49.6294 37.5185L49.0508 38.8322H50.2078L49.6294 37.5185ZM40.8809 39.809H40.5014V37.4624H39.5809V37.1283H41.8016V37.4624H40.8811V39.809H40.8809ZM32.6169 39.809H32.2327V37.1283H32.6169V39.809ZM16.0118 39.809H15.6089L15.3139 39.1383H13.8872L13.5922 39.809H13.1964L14.4123 37.1283H14.7915L16.0118 39.809ZM14.5996 37.5185L14.0208 38.8322H15.1783L14.5996 37.5185ZM59.8234 39.8067H57.9847V37.1283H58.3689V39.4749H59.8236V39.8067H59.8234ZM23.3387 39.8067H22.9547V37.126H24.0017C24.3507 37.1283 24.6245 37.2124 24.8236 37.3784C25.0228 37.5444 25.1234 37.7736 25.1234 38.0634C25.1234 38.3532 25.0228 38.5821 24.8236 38.7481C24.6245 38.9139 24.3507 38.9955 24.0017 38.9955H23.3387V39.8067ZM23.3387 37.4624V38.6639H23.9899C24.2359 38.6639 24.421 38.6123 24.5473 38.5096C24.6761 38.407 24.7394 38.2573 24.7394 38.0634C24.7394 37.8694 24.6761 37.7197 24.5473 37.6168C24.4185 37.5142 24.2334 37.4626 23.9899 37.4626H23.3387V37.4624Z" fill="white"/>
<path d="M5.53566 39.8262C5.27845 39.8262 5.04013 39.7676 4.8273 39.6522C4.72055 39.5934 4.62404 39.5225 4.5405 39.4419C4.45651 39.3608 4.38345 39.2679 4.32335 39.1655C4.26303 39.0624 4.21683 38.952 4.18633 38.8371C4.15537 38.721 4.13989 38.5974 4.13989 38.4703C4.13989 38.3415 4.15514 38.2177 4.18564 38.1021C4.21615 37.9856 4.26258 37.8748 4.32335 37.7726C4.38345 37.6699 4.45674 37.577 4.54096 37.4962C4.62495 37.4155 4.72214 37.3447 4.82981 37.2856C4.93679 37.227 5.05219 37.1825 5.17283 37.1532C5.29256 37.1241 5.42048 37.1094 5.55296 37.1094C5.76191 37.1094 5.94901 37.1437 6.12496 37.2138C6.2934 37.2818 6.43931 37.3833 6.55835 37.5157L6.3239 37.741C6.22489 37.6383 6.11154 37.5597 5.98748 37.5077C5.8607 37.4546 5.71935 37.4278 5.56707 37.4278C5.46692 37.4278 5.37018 37.4391 5.27958 37.4614C5.18876 37.4837 5.10159 37.5177 5.0201 37.5625C4.85667 37.6524 4.72829 37.778 4.63884 37.9361V37.9359C4.59286 38.0144 4.55803 38.0992 4.53527 38.1877C4.51251 38.2756 4.50113 38.3699 4.50113 38.4675C4.50113 38.5652 4.51273 38.6595 4.53527 38.7473C4.55803 38.8357 4.59286 38.9204 4.63884 38.999C4.73079 39.1571 4.85917 39.2827 5.0201 39.3726C5.10159 39.4173 5.18899 39.4512 5.27958 39.4734C5.37018 39.4957 5.46692 39.5071 5.56707 39.5071C5.7173 39.5071 5.85797 39.4798 5.98475 39.426C6.10789 39.3737 6.2217 39.2949 6.32368 39.1918L6.55835 39.4169C6.43931 39.5495 6.29272 39.651 6.12246 39.7192C6.03619 39.7546 5.94423 39.7816 5.84909 39.7991C5.75463 39.8166 5.65425 39.8255 5.55068 39.8255C5.54544 39.8262 5.54044 39.8262 5.53566 39.8262ZM51.0214 39.7982H50.6435L50.3513 39.1341L50.3483 39.1273H50.3408H48.9145H48.907L48.9041 39.1341L48.612 39.798H48.2412L49.4465 37.14H49.8113L51.0214 39.7982ZM49.6288 37.4909L49.6183 37.5146L49.0397 38.8282L49.0327 38.8441H49.0502H50.2072H50.2247L50.2176 38.8282L49.6393 37.5146L49.6288 37.4909ZM40.8688 39.7982H40.5122V37.463V37.4516H40.5008H39.5917V37.1403H41.7896V37.4516H40.8805H40.8691V37.463V39.7982H40.8688ZM32.6049 39.7982H32.2434V37.1403H32.6049V39.7982ZM15.9936 39.7982H15.6158L15.3238 39.1344L15.3208 39.1275H15.3133H13.8866H13.8793L13.8763 39.1344L13.5843 39.7982H13.2135L14.419 37.1403H14.7834L15.9936 39.7982ZM14.599 37.4909L14.5886 37.5146L14.0097 38.8282L14.0027 38.8441H14.0202H15.1776H15.1952L15.1881 38.8282L14.6095 37.5146L14.599 37.4909ZM59.8114 39.7959H57.9954V37.1403H58.3569V39.4755V39.4868H58.3683H59.8116V39.7959H59.8114ZM23.3266 39.7959H22.9654V37.138H24.0011C24.1736 37.1391 24.3295 37.1607 24.465 37.2023C24.6 37.2436 24.7179 37.3061 24.8157 37.3878C24.9136 37.4694 24.988 37.5675 25.0372 37.6797C25.0866 37.7921 25.1114 37.9215 25.1114 38.064C25.1114 38.2064 25.0864 38.3358 25.0372 38.4482C24.988 38.5604 24.9136 38.6585 24.8157 38.7401C24.7181 38.8214 24.6 38.8832 24.465 38.9238C24.33 38.9642 24.1738 38.9849 24.0011 38.9849H23.338H23.3266V38.9963V39.7959ZM23.3266 37.4516V37.463V38.6644V38.6758H23.338H23.9892C24.1126 38.6758 24.2226 38.6626 24.3159 38.6367C24.4097 38.6108 24.4898 38.5711 24.554 38.5189C24.6193 38.4669 24.6689 38.4017 24.7017 38.3256C24.734 38.2502 24.7504 38.1621 24.7504 38.0637C24.7504 37.9654 24.734 37.8773 24.7017 37.8019C24.6691 37.7258 24.6193 37.6606 24.554 37.6084C24.4884 37.5561 24.4078 37.5166 24.3143 37.4907C24.221 37.4648 24.1117 37.4516 23.9895 37.4516H23.3383H23.3266Z" fill="white"/>
<path d="M5.53628 39.8142C5.54106 39.8142 5.54607 39.8142 5.55062 39.8142H5.55085C5.65373 39.8142 5.75343 39.8054 5.84721 39.7881C5.94167 39.7706 6.03295 39.7438 6.1183 39.7086H6.11853C6.28356 39.6425 6.42627 39.5448 6.54281 39.4174L6.3243 39.2076C6.22324 39.308 6.11079 39.3847 5.98947 39.4363C5.86109 39.4908 5.71906 39.5183 5.56724 39.5183C5.46617 39.5183 5.36875 39.5069 5.27702 39.4844C5.18529 39.4619 5.0972 39.4277 5.0148 39.3827H5.01457C4.85183 39.2918 4.72208 39.1647 4.62921 39.0048C4.58278 38.9253 4.5475 38.8396 4.52451 38.7502C4.50152 38.6614 4.48991 38.5664 4.48991 38.4676C4.48991 38.3688 4.50152 38.2737 4.52451 38.1849C4.54773 38.0954 4.58278 38.0095 4.62921 37.93C4.71981 37.7704 4.84955 37.6434 5.0148 37.5523C5.09697 37.5071 5.18529 37.4729 5.27702 37.4501C5.36852 37.4277 5.46617 37.4163 5.56724 37.4163C5.72088 37.4163 5.86382 37.4436 5.99197 37.4972C6.11421 37.5485 6.22597 37.625 6.3243 37.7247L6.54281 37.5149C6.42627 37.3877 6.28447 37.29 6.12103 37.2239C5.94645 37.1542 5.76071 37.1201 5.55335 37.1201C5.42179 37.1201 5.29478 37.1347 5.17596 37.1635C5.05646 37.1926 4.94196 37.2367 4.83589 37.2948C4.72891 37.3534 4.63263 37.4236 4.54932 37.5035C4.46601 37.5837 4.3934 37.6757 4.33376 37.7774V37.7776C4.27344 37.8789 4.22747 37.9889 4.19719 38.1042C4.16715 38.2189 4.1519 38.3418 4.1519 38.4697C4.1519 38.5959 4.16737 38.7184 4.1981 38.8337C4.22838 38.9475 4.27413 39.057 4.33399 39.1592C4.39363 39.2607 4.46601 39.3529 4.54932 39.4331C4.63217 39.5131 4.72777 39.5832 4.83384 39.6416C5.04462 39.7563 5.28112 39.8142 5.53628 39.8142ZM51.0042 39.7863L49.8045 37.151H49.4542L48.2592 39.7863H48.6049L48.8999 39.1156H50.356L50.3619 39.1292L50.6512 39.7865H51.0042V39.7863ZM49.6294 37.462L49.6504 37.5092L50.2429 38.8546H49.0162L49.6294 37.462ZM40.8581 39.7863V37.4397H41.7786V37.151H39.6035V37.4397H40.524V39.7863H40.8581ZM32.5941 39.7863V37.151H32.2554V39.7863H32.5941ZM15.9765 39.7863L14.7767 37.151H14.4269L13.2316 39.7863H13.5774L13.8724 39.1156H15.3287L15.3346 39.1292L15.6237 39.7865H15.9765V39.7863ZM14.5996 37.462L15.2131 38.8546H13.986L14.0001 38.8228L14.5996 37.462ZM59.8006 39.784V39.4976H58.3459V37.151H58.0072V39.784H59.8006ZM23.3159 39.784V38.9727H24.0017C24.1733 38.9727 24.3283 38.9523 24.4622 38.9121C24.5958 38.8719 24.7123 38.8108 24.8089 38.7306C24.9054 38.6502 24.9789 38.5535 25.0271 38.4429C25.0758 38.3318 25.1004 38.2042 25.1004 38.0631C25.1004 37.9221 25.0758 37.7945 25.0271 37.6834C24.9787 37.573 24.9051 37.476 24.8089 37.3956C24.7121 37.315 24.5953 37.2532 24.462 37.2124C24.3279 37.1712 24.1729 37.1497 24.0015 37.1485H22.9772V39.784H23.3159ZM23.3159 37.4397H23.9899C24.113 37.4397 24.2234 37.4529 24.3176 37.4792C24.4128 37.5056 24.4947 37.546 24.5614 37.5991C24.6283 37.6525 24.6791 37.7193 24.7126 37.7972C24.7453 37.8739 24.7622 37.9637 24.7622 38.0636C24.7622 38.1635 24.7456 38.2532 24.7126 38.3298C24.6791 38.4077 24.6283 38.4742 24.5617 38.5274C24.4963 38.5805 24.4148 38.6209 24.3195 38.6473C24.225 38.6734 24.1142 38.6868 23.9899 38.6868H23.3159V37.4397ZM5.53628 39.8369C5.2727 39.8369 5.03415 39.7763 4.82246 39.6616C4.60668 39.5426 4.43597 39.3788 4.31396 39.1708C4.19218 38.963 4.12891 38.729 4.12891 38.4699C4.12891 38.2103 4.18991 37.9743 4.31396 37.7663C4.43597 37.5583 4.60668 37.3947 4.82474 37.2753C5.04234 37.1563 5.28613 37.0977 5.55335 37.0977C5.76413 37.0977 5.95396 37.1329 6.12946 37.203C6.3029 37.273 6.45268 37.3784 6.57445 37.516L6.32384 37.7568C6.12263 37.5437 5.86929 37.4388 5.56746 37.4388C5.36807 37.4388 5.18802 37.4831 5.02618 37.5721C4.86457 37.6611 4.73802 37.7847 4.64925 37.9414C4.55774 38.0979 4.51313 38.2734 4.51313 38.4674C4.51313 38.6614 4.55797 38.8367 4.64925 38.9932C4.74029 39.1497 4.86708 39.2737 5.02618 39.3627C5.18802 39.4513 5.3683 39.4956 5.56746 39.4956C5.86701 39.4956 6.11762 39.3884 6.32384 39.1756L6.57445 39.4161C6.45268 39.5542 6.30268 39.6593 6.12718 39.7295C5.95169 39.8017 5.75957 39.8367 5.55107 39.8367C5.54607 39.8369 5.54106 39.8369 5.53628 39.8369ZM51.0395 39.809H50.6366L50.3414 39.1383H48.9152L48.6202 39.809H48.2241L49.4396 37.1283H49.819L51.0395 39.809ZM49.6294 37.5185L49.0508 38.8322H50.2078L49.6294 37.5185ZM40.8809 39.809H40.5014V37.4624H39.5809V37.1283H41.8016V37.4624H40.8811V39.809H40.8809ZM32.6169 39.809H32.2327V37.1283H32.6169V39.809ZM16.0118 39.809H15.6089L15.3139 39.1383H13.8872L13.5922 39.809H13.1964L14.4123 37.1283H14.7915L16.0118 39.809ZM14.5996 37.5185L14.0208 38.8322H15.1783L14.5996 37.5185ZM59.8234 39.8067H57.9847V37.1283H58.3689V39.4749H59.8236V39.8067H59.8234ZM23.3387 39.8067H22.9547V37.126H24.0017C24.3507 37.1283 24.6245 37.2124 24.8236 37.3784C25.0228 37.5444 25.1234 37.7736 25.1234 38.0634C25.1234 38.3532 25.0228 38.5821 24.8236 38.7481C24.6245 38.9139 24.3507 38.9955 24.0017 38.9955H23.3387V39.8067ZM23.3387 37.4624V38.6639H23.9899C24.2359 38.6639 24.421 38.6123 24.5473 38.5096C24.6761 38.407 24.7394 38.2573 24.7394 38.0634C24.7394 37.8694 24.6761 37.7197 24.5473 37.6168C24.4185 37.5142 24.2334 37.4626 23.9899 37.4626H23.3387V37.4624Z" fill="white"/>
<path d="M5.53566 39.8262C5.27845 39.8262 5.04013 39.7676 4.8273 39.6522C4.72055 39.5934 4.62404 39.5225 4.5405 39.4419C4.45651 39.3608 4.38345 39.2679 4.32335 39.1655C4.26303 39.0624 4.21683 38.952 4.18633 38.8371C4.15537 38.721 4.13989 38.5974 4.13989 38.4703C4.13989 38.3415 4.15514 38.2177 4.18564 38.1021C4.21615 37.9856 4.26258 37.8748 4.32335 37.7726C4.38345 37.6699 4.45674 37.577 4.54096 37.4962C4.62495 37.4155 4.72214 37.3447 4.82981 37.2856C4.93679 37.227 5.05219 37.1825 5.17283 37.1532C5.29256 37.1241 5.42048 37.1094 5.55296 37.1094C5.76191 37.1094 5.94901 37.1437 6.12496 37.2138C6.2934 37.2818 6.43931 37.3833 6.55835 37.5157L6.3239 37.741C6.22489 37.6383 6.11154 37.5597 5.98748 37.5077C5.8607 37.4546 5.71935 37.4278 5.56707 37.4278C5.46692 37.4278 5.37018 37.4391 5.27958 37.4614C5.18876 37.4837 5.10159 37.5177 5.0201 37.5625C4.85667 37.6524 4.72829 37.778 4.63884 37.9361V37.9359C4.59286 38.0144 4.55803 38.0992 4.53527 38.1877C4.51251 38.2756 4.50113 38.3699 4.50113 38.4675C4.50113 38.5652 4.51273 38.6595 4.53527 38.7473C4.55803 38.8357 4.59286 38.9204 4.63884 38.999C4.73079 39.1571 4.85917 39.2827 5.0201 39.3726C5.10159 39.4173 5.18899 39.4512 5.27958 39.4734C5.37018 39.4957 5.46692 39.5071 5.56707 39.5071C5.7173 39.5071 5.85797 39.4798 5.98475 39.426C6.10789 39.3737 6.2217 39.2949 6.32368 39.1918L6.55835 39.4169C6.43931 39.5495 6.29272 39.651 6.12246 39.7192C6.03619 39.7546 5.94423 39.7816 5.84909 39.7991C5.75463 39.8166 5.65425 39.8255 5.55068 39.8255C5.54544 39.8262 5.54044 39.8262 5.53566 39.8262ZM51.0214 39.7982H50.6435L50.3513 39.1341L50.3483 39.1273H50.3408H48.9145H48.907L48.9041 39.1341L48.612 39.798H48.2412L49.4465 37.14H49.8113L51.0214 39.7982ZM49.6288 37.4909L49.6183 37.5146L49.0397 38.8282L49.0327 38.8441H49.0502H50.2072H50.2247L50.2176 38.8282L49.6393 37.5146L49.6288 37.4909ZM40.8688 39.7982H40.5122V37.463V37.4516H40.5008H39.5917V37.1403H41.7896V37.4516H40.8805H40.8691V37.463V39.7982H40.8688ZM32.6049 39.7982H32.2434V37.1403H32.6049V39.7982ZM15.9936 39.7982H15.6158L15.3238 39.1344L15.3208 39.1275H15.3133H13.8866H13.8793L13.8763 39.1344L13.5843 39.7982H13.2135L14.419 37.1403H14.7834L15.9936 39.7982ZM14.599 37.4909L14.5886 37.5146L14.0097 38.8282L14.0027 38.8441H14.0202H15.1776H15.1952L15.1881 38.8282L14.6095 37.5146L14.599 37.4909ZM59.8114 39.7959H57.9954V37.1403H58.3569V39.4755V39.4868H58.3683H59.8116V39.7959H59.8114ZM23.3266 39.7959H22.9654V37.138H24.0011C24.1736 37.1391 24.3295 37.1607 24.465 37.2023C24.6 37.2436 24.7179 37.3061 24.8157 37.3878C24.9136 37.4694 24.988 37.5675 25.0372 37.6797C25.0866 37.7921 25.1114 37.9215 25.1114 38.064C25.1114 38.2064 25.0864 38.3358 25.0372 38.4482C24.988 38.5604 24.9136 38.6585 24.8157 38.7401C24.7181 38.8214 24.6 38.8832 24.465 38.9238C24.33 38.9642 24.1738 38.9849 24.0011 38.9849H23.338H23.3266V38.9963V39.7959ZM23.3266 37.4516V37.463V38.6644V38.6758H23.338H23.9892C24.1126 38.6758 24.2226 38.6626 24.3159 38.6367C24.4097 38.6108 24.4898 38.5711 24.554 38.5189C24.6193 38.4669 24.6689 38.4017 24.7017 38.3256C24.734 38.2502 24.7504 38.1621 24.7504 38.0637C24.7504 37.9654 24.734 37.8773 24.7017 37.8019C24.6691 37.7258 24.6193 37.6606 24.554 37.6084C24.4884 37.5561 24.4078 37.5166 24.3143 37.4907C24.221 37.4648 24.1117 37.4516 23.9895 37.4516H23.3383H23.3266Z" fill="white"/>
<path d="M5.53628 39.8142C5.54106 39.8142 5.54607 39.8142 5.55062 39.8142H5.55085C5.65373 39.8142 5.75343 39.8054 5.84721 39.7881C5.94167 39.7706 6.03295 39.7438 6.1183 39.7086H6.11853C6.28356 39.6425 6.42627 39.5448 6.54281 39.4174L6.3243 39.2076C6.22324 39.308 6.11079 39.3847 5.98947 39.4363C5.86109 39.4908 5.71906 39.5183 5.56724 39.5183C5.46617 39.5183 5.36875 39.5069 5.27702 39.4844C5.18529 39.4619 5.0972 39.4277 5.0148 39.3827H5.01457C4.85183 39.2918 4.72208 39.1647 4.62921 39.0048C4.58278 38.9253 4.5475 38.8396 4.52451 38.7502C4.50152 38.6614 4.48991 38.5664 4.48991 38.4676C4.48991 38.3688 4.50152 38.2737 4.52451 38.1849C4.54773 38.0954 4.58278 38.0095 4.62921 37.93C4.71981 37.7704 4.84955 37.6434 5.0148 37.5523C5.09697 37.5071 5.18529 37.4729 5.27702 37.4501C5.36852 37.4277 5.46617 37.4163 5.56724 37.4163C5.72088 37.4163 5.86382 37.4436 5.99197 37.4972C6.11421 37.5485 6.22597 37.625 6.3243 37.7247L6.54281 37.5149C6.42627 37.3877 6.28447 37.29 6.12103 37.2239C5.94645 37.1542 5.76071 37.1201 5.55335 37.1201C5.42179 37.1201 5.29478 37.1347 5.17596 37.1635C5.05646 37.1926 4.94196 37.2367 4.83567 37.2948C4.72868 37.3534 4.6324 37.4236 4.54909 37.5035C4.46578 37.5837 4.39317 37.6757 4.33354 37.7774V37.7776C4.27322 37.8789 4.22724 37.9889 4.19696 38.1042C4.16692 38.2189 4.15167 38.3418 4.15167 38.4697C4.15167 38.5959 4.16715 38.7184 4.19788 38.8337C4.22815 38.9475 4.2739 39.057 4.33376 39.1592C4.3934 39.2607 4.46578 39.3529 4.54909 39.4331C4.63195 39.5131 4.72755 39.5832 4.83362 39.6416C5.04462 39.7563 5.28112 39.8142 5.53628 39.8142ZM51.0042 39.7863L49.8045 37.151H49.4542L48.2592 39.7863H48.6049L48.8999 39.1156H50.356L50.3619 39.1292L50.6512 39.7865H51.0042V39.7863ZM49.6294 37.462L49.6504 37.5092L50.2429 38.8546H49.0162L49.6294 37.462ZM40.8581 39.7863V37.4397H41.7786V37.151H39.6035V37.4397H40.524V39.7863H40.8581ZM32.5941 39.7863V37.151H32.2554V39.7863H32.5941ZM15.9765 39.7863L14.7767 37.151H14.4269L13.2316 39.7863H13.5774L13.8724 39.1156H15.3287L15.3346 39.1292L15.6237 39.7865H15.9765V39.7863ZM14.5996 37.462L15.2131 38.8546H13.986L14.0001 38.8228L14.5996 37.462ZM59.8006 39.784V39.4976H58.3459V37.151H58.0072V39.784H59.8006ZM23.3159 39.784V38.9727H24.0017C24.1733 38.9727 24.3283 38.9523 24.4622 38.9121C24.5958 38.8719 24.7123 38.8108 24.8089 38.7306C24.9054 38.6502 24.9789 38.5535 25.0271 38.4429C25.0758 38.3318 25.1004 38.2042 25.1004 38.0631C25.1004 37.9221 25.0758 37.7945 25.0271 37.6834C24.9787 37.573 24.9051 37.476 24.8089 37.3956C24.7121 37.315 24.5953 37.2532 24.462 37.2124C24.3279 37.1712 24.1729 37.1497 24.0015 37.1485H22.9772V39.784H23.3159ZM23.3159 37.4397H23.9899C24.113 37.4397 24.2234 37.4529 24.3176 37.4792C24.4128 37.5056 24.4947 37.546 24.5614 37.5991C24.6283 37.6525 24.6791 37.7193 24.7126 37.7972C24.7453 37.8739 24.7622 37.9637 24.7622 38.0636C24.7622 38.1635 24.7456 38.2532 24.7126 38.3298C24.6791 38.4077 24.6283 38.4742 24.5617 38.5274C24.4963 38.5805 24.4148 38.6209 24.3195 38.6473C24.225 38.6734 24.1142 38.6868 23.9899 38.6868H23.3159V37.4397ZM5.53628 39.8369C5.2727 39.8369 5.03415 39.7763 4.82246 39.6616C4.60668 39.5426 4.43597 39.3788 4.31396 39.1708C4.19218 38.963 4.12891 38.729 4.12891 38.4699C4.12891 38.2103 4.18991 37.9743 4.31396 37.7663C4.43597 37.5583 4.60668 37.3947 4.82474 37.2753C5.04234 37.1563 5.28613 37.0977 5.55335 37.0977C5.76413 37.0977 5.95396 37.1329 6.12946 37.203C6.3029 37.273 6.45268 37.3784 6.57445 37.516L6.32384 37.7568C6.12263 37.5437 5.86929 37.4388 5.56746 37.4388C5.36807 37.4388 5.18802 37.4831 5.02618 37.5721C4.86457 37.6611 4.73802 37.7847 4.64925 37.9414C4.55774 38.0979 4.51313 38.2734 4.51313 38.4674C4.51313 38.6614 4.55797 38.8367 4.64925 38.9932C4.74029 39.1497 4.86708 39.2737 5.02618 39.3627C5.18802 39.4513 5.3683 39.4956 5.56746 39.4956C5.86701 39.4956 6.11762 39.3884 6.32384 39.1756L6.57445 39.4161C6.45268 39.5542 6.30268 39.6593 6.12718 39.7295C5.95169 39.8017 5.75957 39.8367 5.55107 39.8367C5.54607 39.8369 5.54106 39.8369 5.53628 39.8369ZM51.0395 39.809H50.6366L50.3414 39.1383H48.9152L48.6202 39.809H48.2241L49.4396 37.1283H49.819L51.0395 39.809ZM49.6294 37.5185L49.0508 38.8322H50.2078L49.6294 37.5185ZM40.8809 39.809H40.5014V37.4624H39.5809V37.1283H41.8016V37.4624H40.8811V39.809H40.8809ZM32.6169 39.809H32.2327V37.1283H32.6169V39.809ZM16.0118 39.809H15.6089L15.3139 39.1383H13.8872L13.5922 39.809H13.1964L14.4123 37.1283H14.7915L16.0118 39.809ZM14.5996 37.5185L14.0208 38.8322H15.1783L14.5996 37.5185ZM59.8234 39.8067H57.9847V37.1283H58.3689V39.4749H59.8236V39.8067H59.8234ZM23.3387 39.8067H22.9547V37.126H24.0017C24.3507 37.1283 24.6245 37.2124 24.8236 37.3784C25.0228 37.5444 25.1234 37.7736 25.1234 38.0634C25.1234 38.3532 25.0228 38.5821 24.8236 38.7481C24.6245 38.9139 24.3507 38.9955 24.0017 38.9955H23.3387V39.8067ZM23.3387 37.4624V38.6639H23.9899C24.2359 38.6639 24.421 38.6123 24.5473 38.5096C24.6761 38.407 24.7394 38.2573 24.7394 38.0634C24.7394 37.8694 24.6761 37.7197 24.5473 37.6168C24.4185 37.5142 24.2334 37.4626 23.9899 37.4626H23.3387V37.4624Z" fill="white"/>
<path d="M24.1213 34.0046V28.8604H25.782L26.2646 28.8675C27.1546 28.9283 29.0848 29.2063 30.4528 30.4639C31.4272 31.3615 31.9214 32.5511 31.9239 34.0024H29.8394C29.8394 33.0816 29.563 32.3803 28.9938 31.8568C28.1693 31.1019 26.9231 30.8893 26.2648 30.8284V34.0046H24.1213ZM9.13484 33.9672C7.15318 33.9672 5.60013 33.1187 4.76636 31.5763C4.17159 30.4777 4.13631 29.4119 4.13403 29.2929V24.3776H6.21653V29.2788C6.22814 29.7183 6.43436 32.0156 9.13507 32.0133H12.37V33.9672H9.13484ZM20.1978 33.9579V29.2906H20.2001C20.1555 28.4889 19.884 27.8673 19.3686 27.3973C18.2515 26.3735 16.3424 26.3783 16.3003 26.3783V33.9579H14.157V24.3894H16.3003C16.6914 24.3871 19.1909 24.4478 20.8609 25.974C21.7885 26.8223 22.3413 27.9536 22.3413 29.2906V33.9579H20.1978ZM36.314 33.9485H33.4028C33.4028 33.8854 33.4164 32.3687 34.3089 30.8727C35.1475 29.468 36.9206 27.7946 40.6122 27.7946V29.7485C37.6583 29.7485 36.4101 31.0948 35.8806 32.2679H40.6124V33.9481L36.314 33.9485ZM42.223 33.9485C42.223 31.5109 43.5066 30.153 44.9424 29.4541L45.5982 31.3285C44.9001 31.7703 44.3053 32.5531 44.3053 33.9485H42.223ZM55.7268 33.9463C53.9748 33.9463 52.5554 32.614 52.5554 30.971V24.3776H54.7127V30.5198C54.7127 31.4616 55.5278 32.2259 56.5328 32.2259H59.8706V33.9461L55.7268 33.9463ZM48.8522 33.939L45.5167 24.3776H47.9083L51.1901 33.939H48.8522ZM35.412 26.0558H33.2687V24.373H40.6331V26.0558H35.412Z" fill="white"/>
<path d="M24.1213 34.0046V28.8604H25.782L26.2646 28.8675C27.1546 28.9283 29.0848 29.2063 30.4528 30.4639C31.4272 31.3615 31.9214 32.5511 31.9239 34.0024H29.8394C29.8394 33.0816 29.563 32.3803 28.9938 31.8568C28.1693 31.1019 26.9231 30.8893 26.2648 30.8284V34.0046H24.1213ZM9.13484 33.9672C7.15318 33.9672 5.60013 33.1187 4.76636 31.5763C4.17159 30.4777 4.13631 29.4119 4.13403 29.2929V24.3776H6.21653V29.2788C6.22814 29.7183 6.43436 32.0156 9.13507 32.0133H12.37V33.9672H9.13484ZM20.1978 33.9579V29.2906H20.2001C20.1555 28.4889 19.884 27.8673 19.3686 27.3973C18.2515 26.3735 16.3424 26.3783 16.3003 26.3783V33.9579H14.157V24.3894H16.3003C16.6914 24.3871 19.1909 24.4478 20.8609 25.974C21.7885 26.8223 22.3413 27.9536 22.3413 29.2906V33.9579H20.1978ZM36.314 33.9485H33.4028C33.4028 33.8854 33.4164 32.3687 34.3089 30.8727C35.1475 29.468 36.9206 27.7946 40.6122 27.7946V29.7485C37.6583 29.7485 36.4101 31.0948 35.8806 32.2679H40.6124V33.9481L36.314 33.9485ZM42.223 33.9485C42.223 31.5109 43.5066 30.153 44.9424 29.4541L45.5982 31.3285C44.9001 31.7703 44.3053 32.5531 44.3053 33.9485H42.223ZM55.7268 33.9463C53.9748 33.9463 52.5554 32.614 52.5554 30.971V24.3776H54.7127V30.5198C54.7127 31.4616 55.5278 32.2259 56.5328 32.2259H59.8706V33.9461L55.7268 33.9463ZM48.8522 33.939L45.5167 24.3776H47.9083L51.1901 33.939H48.8522ZM35.412 26.0558H33.2687V24.373H40.6331V26.0558H35.412Z" fill="white"/>
<path d="M10.3105 24.3789V29.5231H12.4538V24.3789H10.3105Z" fill="white"/>
<path d="M10.3132 24.375H12.4529L12.2708 24.5794H10.5181L10.3132 24.375Z" fill="white"/>
<path opacity="0.77" d="M10.3132 29.5286H12.4529L12.2708 29.3242H10.5181L10.3132 29.5286Z" fill="white"/>
<path opacity="0.597" d="M10.3132 29.5169V24.375L10.5181 24.5567V29.3125L10.3132 29.5169Z" fill="white"/>
<path d="M12.4536 29.5169V24.375L12.2488 24.5567V29.3125L12.4536 29.5169Z" fill="white"/>
<path d="M26.8687 26.0974H27.4052C29.3001 26.0974 29.7686 27.8339 29.7686 28.8668H31.9118V28.8528C31.9118 26.8405 30.921 24.4355 28.0166 24.4355H24.1211V26.0974H26.8687Z" fill="white"/>
<path d="M24.1211 26.1001V24.4355L24.326 24.6454V25.8952L24.1211 26.1001Z" fill="white"/>
<path opacity="0.658" d="M24.1211 24.4355H28.0164C30.9208 24.4355 31.9116 26.8405 31.9116 28.8528V28.8668L31.7036 28.6624C31.6421 26.7642 30.6517 24.64 28.0161 24.64H24.3257L24.1211 24.4355Z" fill="white"/>
<path opacity="0.77" d="M29.9658 28.666H31.7021L31.9101 28.8563V28.8704H29.7668" fill="white"/>
<path opacity="0.386" d="M24.3228 25.9023H27.402C29.309 25.9023 29.9008 27.5562 29.9643 28.6718L29.7654 28.8762C29.7654 27.8433 29.297 26.1067 27.402 26.1067H24.1179L24.3228 25.9023Z" fill="white"/>
</svg>
