<svg width="64" height="64" viewBox="0 0 64 64" fill="none" xmlns="http://www.w3.org/2000/svg">
<path d="M30.9747 41.8013V21.1997L29.5808 19.5566L26.6662 19.683L22.4845 21.7053L22.7379 23.8539L20.5837 24.2331L18.4295 30.4262L19.5699 31.5637L18.3027 32.8276L19.6966 35.7345L24.7654 35.3554" stroke="white" stroke-linecap="round" stroke-linejoin="round"/>
<path d="M30.9749 41.801L29.4542 44.3288L28.3138 44.076L26.9199 44.3288L24.7656 43.3177L30.9749 33.9648" stroke="white" stroke-linecap="round" stroke-linejoin="round"/>
<path d="M25.0194 35.3555L21.0911 38.136L23.8789 41.2958L29.4545 44.3291" stroke="white" stroke-linecap="round" stroke-linejoin="round"/>
<path d="M19.8242 35.8613L22.2319 37.1252" stroke="white" stroke-linecap="round" stroke-linejoin="round"/>
<path d="M19.4426 31.5625L28.6931 37.1237L30.9741 40.0306" stroke="white" stroke-linecap="round" stroke-linejoin="round"/>
<path d="M30.8473 41.8008L25.7786 42.0536" stroke="white" stroke-linecap="round" stroke-linejoin="round"/>
<path d="M22.7371 23.7285L24.8913 27.6466L25.3982 31.5647L25.2714 41.8023" stroke="white" stroke-linecap="round" stroke-linejoin="round"/>
<path d="M19.4426 31.5633L24.7648 27.5189L30.7206 24.7383" stroke="white" stroke-linecap="round" stroke-linejoin="round"/>
<path d="M19.5696 31.3101L22.7376 23.9795L27.9331 19.8086" stroke="white" stroke-linecap="round" stroke-linejoin="round"/>
<path d="M22.7371 23.8535L28.5661 25.7494L30.9738 27.266" stroke="white" stroke-linecap="round" stroke-linejoin="round"/>
<path d="M19.6965 31.4368H25.2722L28.6936 25.8756L29.8341 20.3145" stroke="white" stroke-linecap="round" stroke-linejoin="round"/>
<path d="M30.8474 30.1719L25.3984 31.5622L28.8199 36.9969L29.2 41.7997" stroke="white" stroke-linecap="round" stroke-linejoin="round"/>
<path d="M31.179 41.9258H32.4183" stroke="white" stroke-linejoin="round"/>
<path d="M31.179 39.9023H32.4183" stroke="white" stroke-linejoin="round"/>
<path d="M31.179 34.2148H32.4183" stroke="white" stroke-linejoin="round"/>
<path d="M31.179 30.1719H32.4183" stroke="white" stroke-linejoin="round"/>
<path d="M31.179 27.2656H32.4183" stroke="white" stroke-linejoin="round"/>
<path d="M31.179 24.7383H32.4183" stroke="white" stroke-linejoin="round"/>
<path d="M32.4973 41.8534V21.2152L33.8925 19.5684L36.8108 19.6947L40.9989 21.7208L40.7455 23.8732L42.9022 24.2536L45.059 30.4581L43.9173 31.5981L45.1857 32.8646L43.7893 35.7766L38.7129 35.3962" stroke="white" stroke-linecap="round" stroke-linejoin="round"/>
<path d="M32.4973 41.854L34.0205 44.3868L35.1622 44.1341L36.5587 44.3868L38.7154 43.3744L32.4973 34.0039" stroke="white" stroke-linecap="round" stroke-linejoin="round"/>
<path d="M38.4603 35.3945L42.3937 38.1802L39.6021 41.345L34.0188 44.3834" stroke="white" stroke-linecap="round" stroke-linejoin="round"/>
<path d="M43.6639 35.9023L41.2524 37.1688" stroke="white" stroke-linecap="round" stroke-linejoin="round"/>
<path d="M44.0452 31.5977L34.7821 37.1689L32.4973 40.0809" stroke="white" stroke-linecap="round" stroke-linejoin="round"/>
<path d="M32.6235 41.8555L37.6999 42.1082" stroke="white" stroke-linecap="round" stroke-linejoin="round"/>
<path d="M40.7443 23.748L38.5863 27.6737L38.0781 31.5994L38.2048 41.8559" stroke="white" stroke-linecap="round" stroke-linejoin="round"/>
<path d="M44.045 31.5975L38.7152 27.5454L32.7505 24.7598" stroke="white" stroke-linecap="round" stroke-linejoin="round"/>
<path d="M43.9164 31.3433L40.7446 24L35.5415 19.8203" stroke="white" stroke-linecap="round" stroke-linejoin="round"/>
<path d="M40.7448 23.875L34.9068 25.7746L32.4954 27.2938" stroke="white" stroke-linecap="round" stroke-linejoin="round"/>
<path d="M43.7902 31.4707H38.2069L34.7804 25.8994L33.6387 20.3281" stroke="white" stroke-linecap="round" stroke-linejoin="round"/>
<path d="M32.6235 30.2051L38.0801 31.5979L34.6536 37.0428L34.2734 41.8544" stroke="white" stroke-linecap="round" stroke-linejoin="round"/>
</svg>
