<svg width="64" height="64" viewBox="0 0 64 64" fill="none" xmlns="http://www.w3.org/2000/svg">
<path d="M29.1909 43.0532L28.7446 42.2964L28.2983 41.5397L27.8532 40.783L27.4068 40.0274L26.9605 39.2707L26.5142 38.5152L26.0691 37.7584L25.6228 37.0017L25.1765 36.245L24.7277 35.4882L24.6574 35.3679C24.5335 35.3955 24.4079 35.4147 24.2814 35.4257C24.133 35.4393 23.9839 35.4421 23.8351 35.4341C23.6849 35.4246 23.5357 35.4037 23.3888 35.3715C23.2369 35.3373 23.088 35.291 22.9436 35.2332C22.8329 35.1906 22.7251 35.1407 22.621 35.084L22.4998 35.1874L22.0534 35.5604L21.6083 35.9334L21.162 36.3063L20.7157 36.6793L20.3615 36.9752C20.5138 37.5514 20.4811 38.1604 20.2682 38.7173C20.239 38.7967 20.2051 38.8737 20.1687 38.9495L20.2682 39.006L20.7145 39.2563L21.1608 39.5065L21.6071 39.7567L22.0595 40.007L22.5058 40.256L22.9521 40.5063L23.3972 40.7565L23.8436 41.0067L24.2899 41.257L24.7362 41.5072L25.1813 41.7563L25.6228 42.0041L26.0691 42.2543L26.5142 42.5046L26.9605 42.7548L27.4068 43.0051L27.8532 43.2553L28.2983 43.5043L28.7446 43.7546L29.1909 44.0048L29.4335 44.142C29.4965 44.0589 29.5645 43.982 29.6348 43.9013L29.6712 43.8628L29.6348 43.8027L29.1909 43.0532Z" fill="white"/>
<path d="M20.7173 35.1139L21.1637 34.7409L21.61 34.368L21.7034 34.2898C21.6694 34.2452 21.6403 34.1983 21.61 34.1526C21.3802 33.8096 21.2279 33.4214 21.1637 33.0145C21.1176 32.7207 21.1176 32.4216 21.1637 32.1278C21.2276 31.7209 21.3799 31.3326 21.61 30.9897C21.6901 30.8689 21.7793 30.7543 21.8768 30.6468L21.61 30.1933L21.1637 29.4365L20.7173 28.6798L20.271 27.9291L19.8259 27.1723L19.3796 26.4156L19.1686 26.0547C19.0897 26.0631 19.0121 26.0679 18.9333 26.0703H18.8459C18.7574 26.0703 18.6701 26.0703 18.5828 26.0583V35.0188C18.703 35.0641 18.82 35.1172 18.9333 35.1776C19.0909 35.2619 19.2404 35.3606 19.3796 35.4724C19.5333 35.5945 19.6739 35.732 19.7992 35.8826L19.8259 35.8598L20.271 35.488L20.7173 35.1139Z" fill="white"/>
<path d="M44.7998 26.2569C44.6477 26.2233 44.4985 26.1778 44.3535 26.121C44.3329 26.1125 44.3111 26.1053 44.2904 26.0957L43.9072 26.7454L43.4621 27.5021L43.0158 28.2588L42.5694 29.0108L42.1231 29.7675L41.678 30.5242L41.6089 30.6445C41.6331 30.671 41.655 30.6987 41.678 30.7264C41.8613 30.9414 42.0113 31.1822 42.1231 31.441C42.277 31.7974 42.3564 32.1811 42.3564 32.5689C42.3564 32.9566 42.277 33.3403 42.1231 33.6968C42.0333 33.9062 41.9189 34.1045 41.7823 34.2875L42.1231 34.5726L42.5694 34.9455L43.0158 35.3185L43.4621 35.6915L43.8162 35.9874C43.8453 35.9561 43.8769 35.9261 43.9072 35.8972C44.0437 35.7652 44.1933 35.6471 44.3535 35.5447C44.495 35.4539 44.6444 35.3758 44.7998 35.3113L44.9029 35.2692V26.2762L44.7998 26.2569Z" fill="white"/>
<path d="M42.1239 24.4632L41.6788 24.5835L41.2325 24.7038L40.7862 24.8241L40.3411 24.9444L39.8947 25.0647L39.4484 25.185L39.0021 25.3053L38.557 25.4256L38.1107 25.546L37.6644 25.6663L37.2193 25.7866L36.7729 25.9069L36.3266 26.0272L35.8803 26.1475L35.4352 26.2678L34.9889 26.3881L34.625 26.4856C34.625 26.5409 34.625 26.5974 34.625 26.654C34.6252 26.8976 34.5938 27.1402 34.5316 27.3758C34.476 27.5947 34.3946 27.8063 34.2891 28.0062L34.5316 28.2132L34.978 28.5861L35.4243 28.9591L35.8694 29.332L36.3157 29.705L36.762 30.0779L37.2083 30.4509L37.3587 30.5712C37.4507 30.4753 37.5492 30.3856 37.6534 30.3029C37.7931 30.1928 37.9425 30.0954 38.0998 30.0118C38.2466 29.9461 38.3987 29.893 38.5546 29.853C38.6998 29.805 38.8486 29.7688 38.9997 29.7447C39.1472 29.7203 39.2965 29.7078 39.446 29.7074C39.5954 29.7058 39.7446 29.7163 39.8923 29.7387C40.0436 29.761 40.1928 29.7952 40.3386 29.8409C40.4345 29.8722 40.5291 29.9047 40.6224 29.9456L40.7837 29.6713L41.2301 28.9146L41.6764 28.159L42.1215 27.4023L42.5678 26.6456L43.0141 25.8888L43.2943 25.4076C43.1922 25.2989 43.0985 25.1827 43.0141 25.0599C42.8574 24.8307 42.7349 24.5803 42.6503 24.3164L42.569 24.3393L42.1239 24.4632Z" fill="white"/>
<path d="M33.2057 24.1987C33.3646 24.2912 33.514 24.3988 33.652 24.52C33.819 24.6658 33.9687 24.8301 34.0983 25.0096C34.1767 25.1182 34.2476 25.232 34.3105 25.3501L34.5434 25.2863L34.9897 25.166L35.436 25.0457L35.8811 24.9254L36.3275 24.8051L36.7738 24.6848L37.2201 24.5645L37.6652 24.4442L38.1115 24.3239L38.5579 24.2035L39.003 24.0832L39.4493 23.9629L39.8956 23.8426L40.3419 23.7223L40.787 23.602L41.2333 23.4817L41.6797 23.3614L42.1248 23.2411L42.5384 23.128C42.5468 23.0594 42.5578 22.9896 42.5711 22.9211C42.5844 22.8525 42.6014 22.7827 42.6208 22.7153L42.5711 22.6985L42.1248 22.5469L41.6797 22.3953L41.2333 22.2437L40.787 22.0921L40.3419 21.9406L39.8956 21.789L39.4493 21.6362L39.003 21.4846L38.5554 21.3113L38.1091 21.1598L37.6628 21.0082L37.2213 20.8578L36.7738 20.7098L36.3275 20.5582L35.8872 20.403L35.4421 20.2514L34.9958 20.0998L34.5495 19.9483L34.2608 19.8496C34.2123 19.9298 34.1601 20.01 34.1044 20.0902C33.9745 20.2695 33.8248 20.4337 33.658 20.5799C33.5198 20.7003 33.3703 20.8074 33.2117 20.8999C33.0694 20.9828 32.9201 21.0533 32.7654 21.1104C32.6316 21.1608 32.4942 21.2011 32.3542 21.2307V23.8691C32.4942 23.8986 32.6317 23.9388 32.7654 23.9894C32.9177 24.047 33.065 24.117 33.2057 24.1987Z" fill="white"/>
<path d="M43.0167 36.8862L42.5704 36.5132L42.124 36.1403L41.6789 35.7673L41.2326 35.3956L40.8591 35.084L40.7839 35.1225C40.641 35.1958 40.4921 35.257 40.3388 35.3054C40.1932 35.352 40.0439 35.3862 39.8924 35.4076C39.7508 35.4293 39.6077 35.4401 39.4643 35.4401H39.4461C39.2966 35.4391 39.1474 35.4266 38.9998 35.4028C38.9404 35.3932 38.8785 35.3823 38.8227 35.3679L38.5547 35.8239L38.1084 36.5806L37.6621 37.3374L37.2206 38.0929L36.7743 38.8496L36.328 39.6064L35.8865 40.3631L35.4414 41.1198L34.9951 41.8766L34.5487 42.6333L34.1036 43.3888L33.8198 43.8701C33.8732 43.9242 33.9241 43.9795 33.9726 44.0373L34.1036 43.9639L34.5487 43.7149L34.9951 43.4646L35.4414 43.2144L35.8865 42.9666L36.3328 42.7163L36.7791 42.4661L37.2206 42.2146L37.6657 41.9644L38.112 41.7141L38.5583 41.4639L39.0034 41.2137L39.4498 40.9634L39.8961 40.7144L40.3424 40.4642L40.7875 40.2139L41.2338 39.9637L41.6802 39.7134L42.1253 39.4632L42.5716 39.2142L43.0179 38.9639L43.1816 38.8713C42.9743 38.2737 42.9743 37.6245 43.1816 37.027L43.0167 36.8862Z" fill="white"/>
<path d="M30.5291 29.2807C30.3731 29.2083 30.2237 29.1225 30.0827 29.0244C30.0451 28.9967 30.0075 28.9703 29.9712 28.9414L29.6364 29.2205L29.1913 29.5935L28.745 29.9664L28.2987 30.3394L27.8536 30.7123L27.4072 31.0853L26.9609 31.4582L26.7523 31.6327C26.8886 32.0244 26.9375 32.4409 26.8956 32.8532C26.8537 33.2655 26.7221 33.6639 26.5097 34.0208C26.3862 34.2287 26.2366 34.4203 26.0646 34.5911C25.9687 34.6883 25.8653 34.778 25.7554 34.8593L26.0646 35.3827L26.5097 36.1394L26.9561 36.8962L27.4024 37.6529L27.8487 38.4096L28.2938 39.1664L28.7401 39.9231L29.1913 40.6798L29.6364 41.4366L30.0827 42.1933L30.5291 42.95L30.6782 43.2063C30.7753 43.169 30.8747 43.1377 30.9754 43.1101C31.03 43.0956 31.0833 43.08 31.1391 43.068V29.4828C31.0833 29.4708 31.0287 29.4575 30.9754 29.4431C30.8223 29.4014 30.673 29.3471 30.5291 29.2807Z" fill="white"/>
<path d="M34.5424 40.2591L34.9887 39.5023L35.435 38.7456L35.8801 37.9889L36.3265 37.2333L36.7728 36.4766L37.2191 35.7198L37.6642 34.9631L37.7248 34.8596L37.6642 34.8103C37.5003 34.6816 37.3511 34.5356 37.2191 34.3748C37.0312 34.1465 36.8806 33.8903 36.7728 33.6157C36.522 32.9804 36.5087 32.2771 36.7352 31.633L36.3265 31.2961L35.8801 30.9232L35.435 30.5502L34.9887 30.1773L34.5424 29.8043L34.0973 29.4314L33.651 29.0596L33.5151 28.9453C33.4164 29.0218 33.3127 29.0917 33.2046 29.1546C33.0623 29.2376 32.913 29.308 32.7583 29.3652C32.6245 29.4156 32.4871 29.4558 32.3472 29.4855V43.0646C32.487 43.0949 32.6244 43.1351 32.7583 43.1849L32.8068 43.2018L33.2046 42.5281L33.651 41.7713L34.0973 41.0146L34.5424 40.2591Z" fill="white"/>
<path d="M21.1635 27.0632L21.6099 27.8199L22.055 28.5766L22.5013 29.3334L22.8651 29.9433L22.9512 29.9096C23.0957 29.8523 23.2446 29.8065 23.3964 29.7725C23.5433 29.7404 23.6925 29.7195 23.8427 29.7099C23.9914 29.7009 24.1406 29.7033 24.289 29.7171C24.4396 29.7304 24.5889 29.7557 24.7353 29.7929C24.8876 29.8315 25.0364 29.8822 25.1804 29.9445C25.336 30.0116 25.4854 30.0921 25.6267 30.1851C25.7874 30.2925 25.9369 30.4154 26.0731 30.5521L26.1204 30.5978L26.5182 30.2645L26.9645 29.8928L27.4108 29.5198L27.8571 29.1469L28.3022 28.7739L28.7486 28.401L29.1949 28.028C28.9695 27.6137 28.8515 27.1502 28.8516 26.6794C28.8516 26.6228 28.8516 26.5663 28.8516 26.5109L28.7413 26.4809L28.295 26.3606L27.8499 26.2402L27.4035 26.1199L26.9572 25.9996L26.5109 25.8793L26.0658 25.759L25.6195 25.6387L25.1731 25.5184L24.728 25.3981L24.2817 25.2778L23.8354 25.1575L23.3891 25.0372L22.944 24.9169L22.4976 24.7966L22.0513 24.6762L21.6062 24.5559L21.4279 24.5078C21.3513 24.6576 21.2616 24.8005 21.1599 24.9349C21.0295 25.1086 20.8798 25.2672 20.7136 25.4077C20.594 25.5097 20.4662 25.6018 20.3315 25.6832L20.7136 26.3305L21.1635 27.0632Z" fill="white"/>
<path d="M30.5286 21.027C30.3724 20.955 30.223 20.8692 30.0823 20.7707C29.921 20.6588 29.7714 20.531 29.636 20.3893C29.5737 20.3244 29.5143 20.2558 29.4577 20.1836L29.1909 20.2726L28.7446 20.4194L28.2983 20.5674L27.8531 20.7093L27.4068 20.8573L26.9605 21.0053L26.5142 21.1521L26.0691 21.3109L25.6228 21.4577L25.1764 21.6056L24.7277 21.7464L24.2814 21.8944L23.8351 22.0423L23.3936 22.1891L22.9485 22.3371L22.5022 22.4839L22.0595 22.6343L21.7065 22.7546C21.7308 22.9034 21.7429 23.0538 21.7429 23.2045C21.7429 23.2466 21.7429 23.2875 21.7429 23.3248L22.0631 23.4127L22.5094 23.533L22.9558 23.6533L23.4009 23.7736L23.8472 23.8939L24.2935 24.0142L24.7398 24.1345L25.1849 24.2548L25.6313 24.3751L26.0776 24.4954L26.5227 24.6157L26.969 24.736L27.4153 24.8563L27.8616 24.9767L28.3067 25.097L28.7531 25.2173L29.1848 25.3376L29.1994 25.3135C29.3192 25.0889 29.4689 24.8814 29.6445 24.6963C29.7796 24.5539 29.9292 24.4257 30.0908 24.3138C30.2315 24.2152 30.3809 24.1294 30.5371 24.0575C30.6811 23.9911 30.8304 23.9368 30.9834 23.8951C31.0368 23.8794 31.0914 23.8662 31.1472 23.8542V21.2158C31.0914 21.2038 31.038 21.1882 30.9834 21.1725C30.828 21.1367 30.6759 21.088 30.5286 21.027Z" fill="white"/>
</svg>
