<svg width="64" height="64" viewBox="0 0 64 64" fill="none" xmlns="http://www.w3.org/2000/svg">
<path d="M29.9416 36.4205C28.5739 36.57 27.1937 36.2872 25.9962 35.6121C24.7987 34.937 23.8447 33.9039 23.2691 32.6589C22.6935 31.4139 22.5256 30.0201 22.789 28.6748C23.0524 27.3294 23.7339 26.1007 24.7369 25.1625L21.9298 22.1875C20.8717 23.1767 20.0286 24.3717 19.4525 25.6984C18.8765 27.0252 18.5798 28.4556 18.5808 29.9011C18.5808 35.7576 23.3504 40.5047 29.2292 40.5047C30.5565 40.5062 31.8721 40.2582 33.1071 39.7737L29.9416 36.4205Z" fill="white"/>
<path d="M34.2801 29.5508H28.8621L36.5028 37.6384C37.49 36.72 38.2921 35.6223 38.8662 34.4042L34.2801 29.5508Z" fill="white"/>
<path d="M44.9031 44.7061L40.9355 40.5029V26.7373L44.9031 25.0586V44.7061Z" fill="white"/>
<path d="M29.2292 23.3899C30.5705 23.3876 31.88 23.7972 32.9792 24.5629V24.5672C33.173 24.7033 33.3595 24.8494 33.5381 25.0049C33.6831 25.1324 33.8196 25.2642 33.9519 25.4002L37.8938 23.7384C37.4337 23.0963 36.9028 22.5075 36.3111 21.9832C36.2978 21.9694 36.2836 21.9566 36.2684 21.945C36.2642 21.9407 36.2556 21.9365 36.2514 21.928C36.213 21.894 36.1746 21.8642 36.1404 21.8302C36.1191 21.8132 36.102 21.7962 36.0807 21.7792C36.0423 21.7452 35.9997 21.7112 35.9613 21.6815L35.8887 21.622L35.7735 21.5327C35.7479 21.5115 35.7181 21.4902 35.6925 21.469L35.5858 21.3882L35.492 21.3202C35.4578 21.2947 35.428 21.2735 35.3939 21.2522C35.3597 21.231 35.3213 21.2012 35.2829 21.1757C35.2531 21.1587 35.2275 21.1375 35.1976 21.1205C35.155 21.0907 35.1123 21.061 35.0654 21.0312C35.044 21.0185 35.0227 21.0015 35.0014 20.9887C34.9502 20.9547 34.8947 20.9207 34.8435 20.8867L34.8051 20.8612L34.6131 20.7465C34.612 20.7465 34.6109 20.746 34.6101 20.7452C34.6093 20.7444 34.6089 20.7434 34.6089 20.7422C33.2166 19.931 31.6572 19.4459 30.0489 19.3237C28.4406 19.2014 26.8254 19.4453 25.3257 20.0367L28.5253 23.4282C28.7514 23.4069 28.9861 23.3899 29.2292 23.3899Z" fill="white"/>
</svg>
