<svg width="64" height="64" viewBox="0 0 64 64" fill="none" xmlns="http://www.w3.org/2000/svg">
<path fill-rule="evenodd" clip-rule="evenodd" d="M6.19346 31.8536C6.18981 35.0769 7.3985 38.1794 9.57168 40.525C9.58836 40.5437 9.60879 40.5588 9.63166 40.5691C9.65452 40.5795 9.67931 40.5849 9.70441 40.5851L11.2232 40.5924C11.2708 40.5927 11.3164 40.6117 11.3502 40.6453C13.3857 42.6183 16.0713 43.7484 18.8821 43.8148C21.6928 43.8814 24.427 42.8795 26.5505 41.0048C26.5702 40.9881 26.586 40.9675 26.5969 40.9442C26.6079 40.9209 26.6137 40.8955 26.614 40.8698C26.6164 40.8429 26.6129 40.8158 26.6037 40.7905C26.5945 40.7651 26.5798 40.7421 26.5606 40.7231L25.7947 39.9453C25.7619 39.9116 25.7173 39.8918 25.6702 39.8901C25.6232 39.8885 25.5774 39.9051 25.5423 39.9365C23.701 41.5603 21.363 42.4842 18.9271 42.5505C16.4912 42.6169 14.108 41.8216 12.1839 40.3004C12.1527 40.2745 12.1133 40.2605 12.0728 40.2607L10.5352 40.2432C10.5102 40.2434 10.4854 40.2382 10.4626 40.2281C10.4397 40.218 10.4192 40.2031 10.4025 40.1845L10.3708 40.1493C8.5586 38.0447 7.53436 35.3572 7.47816 32.5599C7.42196 29.7626 8.33744 27.0348 10.0635 24.8567C10.0805 24.8343 10.1024 24.8164 10.1274 24.8041C10.1525 24.7919 10.18 24.7857 10.2077 24.7863H11.5911C11.6154 24.7865 11.6395 24.7817 11.6618 24.7721C11.6842 24.7625 11.7043 24.7483 11.7209 24.7305L11.9805 24.4751C13.8413 22.7217 16.2618 21.7106 18.7967 21.6275C21.3318 21.5445 23.811 22.3952 25.7788 24.0231C25.8143 24.0519 25.8591 24.0666 25.9047 24.0641C25.9503 24.0617 25.9934 24.0424 26.0255 24.01L26.327 23.7032C26.345 23.6855 26.3592 23.6642 26.3687 23.6407C26.3781 23.6172 26.3826 23.592 26.3818 23.5667C26.3814 23.5417 26.376 23.5169 26.3658 23.494C26.3556 23.471 26.3409 23.4504 26.3226 23.4333C24.2323 21.4599 21.4861 20.3633 18.6344 20.3633C15.7829 20.3633 13.0366 21.4599 10.9463 23.4333L10.3693 24.0203C10.3525 24.0377 10.3323 24.0516 10.31 24.0612C10.2877 24.0707 10.2638 24.0758 10.2395 24.076L8.89372 24.0892C8.86563 24.0888 8.83786 24.0953 8.81281 24.108C8.78778 24.1208 8.76599 24.1395 8.74951 24.1625C7.09028 26.3681 6.19346 29.069 6.19774 31.8464L6.19336 31.8537L6.19346 31.8536ZM10.7891 31.8536C10.7863 30.0432 11.3902 28.2859 12.5012 26.8715C12.5183 26.8495 12.5403 26.8316 12.5653 26.8193C12.5904 26.8071 12.6178 26.8009 12.6455 26.8011L14.0431 26.8231C14.0679 26.8241 14.0925 26.8198 14.1154 26.8105C14.1384 26.8011 14.159 26.7869 14.1759 26.7688L14.1961 26.7483L14.2048 26.7394C15.4278 25.6421 17.0021 25.0358 18.6329 25.0342C20.2636 25.0326 21.839 25.6357 23.0642 26.7307C23.0838 26.747 23.0996 26.7677 23.1106 26.7911C23.1215 26.8143 23.1274 26.8398 23.1277 26.8657C23.1287 26.8913 23.1243 26.9167 23.1149 26.9405C23.1054 26.9642 23.0911 26.9858 23.0728 27.0037L22.7454 27.3367C22.7154 27.368 22.6751 27.3874 22.632 27.3914C22.5888 27.3955 22.5456 27.3838 22.5103 27.3587C21.4848 26.6382 20.2624 26.2647 19.0165 26.291C17.7706 26.3174 16.5644 26.7423 15.5693 27.5055C15.5363 27.531 15.4956 27.5445 15.4539 27.5437L13.9711 27.4981C13.9438 27.4968 13.9165 27.502 13.8915 27.5132C13.8665 27.5245 13.8443 27.5414 13.8269 27.5627C12.7234 28.8362 12.0977 30.4654 12.0603 32.1627C12.0227 33.8599 12.5759 35.516 13.622 36.8386L14.1845 37.4682C14.203 37.4898 14.2265 37.5065 14.2529 37.517C14.2793 37.5274 14.3078 37.5314 14.336 37.5284L16.1679 37.367C16.1985 37.3638 16.2294 37.3688 16.2573 37.3816C17.2328 37.8165 18.3088 37.9756 19.3684 37.8417C20.4272 37.7077 21.4309 37.2856 22.2737 36.62C22.309 36.5918 22.3536 36.5778 22.3986 36.5807C22.4436 36.5837 22.4859 36.6034 22.5175 36.6361L23.2848 37.4139C23.304 37.4329 23.3188 37.4559 23.328 37.4812C23.3372 37.5066 23.3407 37.5337 23.3382 37.5606C23.3372 37.5873 23.3303 37.6134 23.3181 37.637C23.3059 37.6605 23.2886 37.6811 23.2675 37.6971C22.1205 38.6086 20.7131 39.1159 19.2579 39.1423C17.8027 39.1687 16.3784 38.7131 15.2 37.8439C15.1682 37.8195 15.1291 37.8065 15.089 37.8072L13.5124 37.8306C13.4652 37.8315 13.4195 37.8135 13.3854 37.7808L13.0364 37.455H13.0291C11.5873 35.9622 10.7806 33.9524 10.7833 31.8595L10.7891 31.8536ZM8.49124 31.8536C8.4877 29.5596 9.23812 27.3302 10.6232 25.52C10.6398 25.4974 10.6615 25.4791 10.6866 25.4666C10.7117 25.4541 10.7394 25.4477 10.7674 25.4481H12.1392C12.1637 25.4487 12.188 25.4442 12.2106 25.4349C12.2332 25.4255 12.2536 25.4116 12.2705 25.3938L12.5705 25.0871L12.5778 25.0798C14.235 23.5456 16.3951 22.6956 18.6359 22.6956C20.8766 22.6956 23.0368 23.5457 24.6941 25.0798C24.7129 25.0968 24.7279 25.1175 24.7383 25.1408C24.7488 25.164 24.7543 25.1893 24.7547 25.2148C24.7556 25.24 24.7513 25.2651 24.7421 25.2885C24.7329 25.312 24.7191 25.3333 24.7013 25.3512L24.3898 25.6682C24.3584 25.7002 24.3162 25.7194 24.2714 25.7221C24.2267 25.7248 24.1825 25.7108 24.1474 25.6828C22.6187 24.492 20.728 23.8841 18.8043 23.9644C16.8805 24.0449 15.0453 24.8088 13.6177 26.1231L13.5845 26.1569L12.093 26.1407C12.0655 26.14 12.0382 26.1457 12.0132 26.1574C11.9882 26.1692 11.9662 26.1866 11.9488 26.2083C10.5333 27.9337 9.76228 30.1123 9.77156 32.3597C9.78074 34.6072 10.5697 36.7791 11.9993 38.4924L12.2992 38.8212C12.3171 38.8416 12.3393 38.8577 12.3643 38.8681C12.3893 38.8785 12.4164 38.8831 12.4435 38.8814L14.0721 38.8447C14.1088 38.8431 14.1451 38.8533 14.1759 38.8741C15.6494 39.8457 17.39 40.312 19.1427 40.2045C20.8956 40.0971 22.5686 39.4215 23.9167 38.2768C23.9519 38.247 23.997 38.2317 24.043 38.2339C24.089 38.236 24.1325 38.2555 24.1648 38.2885L24.9322 39.0662C24.9514 39.0852 24.9661 39.1083 24.9753 39.1336C24.9845 39.159 24.988 39.1862 24.9855 39.213C24.9847 39.2392 24.9785 39.2649 24.967 39.2884C24.9556 39.312 24.9393 39.3328 24.9191 39.3495C23.2813 40.7409 21.2109 41.4953 19.0772 41.4784C16.9435 41.4615 14.8849 40.6743 13.2686 39.257C13.2355 39.227 13.1922 39.2107 13.1475 39.2116H11.5997C11.5764 39.2117 11.5534 39.2073 11.5318 39.1985C11.5103 39.1896 11.4907 39.1766 11.4743 39.1602L11.415 39.1044C9.538 37.1748 8.48697 34.5684 8.49134 31.8536H8.49124Z" fill="white"/>
<path fill-rule="evenodd" clip-rule="evenodd" d="M18.6112 34.8933C18.0894 34.902 17.5739 34.7788 17.1124 34.5353C16.679 34.3051 16.318 33.9591 16.0695 33.5359C15.8206 33.0927 15.69 32.5929 15.6902 32.0846C15.69 31.5763 15.8206 31.0764 16.0695 30.6332C16.3188 30.2107 16.6796 29.8649 17.1124 29.6339C17.5739 29.3903 18.0894 29.2672 18.6112 29.2758C19.0619 29.2692 19.5089 29.3588 19.9223 29.5386C20.3035 29.7068 20.6374 29.9664 20.8945 30.2943L19.9382 31.1748C19.7926 30.9785 19.6033 30.8188 19.3854 30.7082C19.1686 30.5983 18.9291 30.541 18.6861 30.5408C18.4168 30.5359 18.1509 30.6028 17.9159 30.7345C17.6923 30.8609 17.5107 31.0502 17.3937 31.2789C17.271 31.5303 17.2072 31.8063 17.2073 32.0861C17.2073 32.3661 17.2711 32.6425 17.3937 32.8932C17.5109 33.1214 17.6924 33.3102 17.9159 33.4362C18.1509 33.5679 18.4168 33.6347 18.6861 33.6299C18.9289 33.6296 19.1683 33.5724 19.385 33.4628C19.6029 33.3525 19.7922 33.1932 19.9382 32.9974L20.8945 33.8778C20.6375 34.2062 20.3036 34.4663 19.9223 34.635C19.5086 34.8133 19.0616 34.9014 18.6112 34.8933ZM23.6944 33.3525H22.8751V34.7877H21.3735V29.3859H23.7996C24.2295 29.3758 24.6565 29.4584 25.0517 29.628C25.3874 29.7741 25.6724 30.0161 25.871 30.3236C26.0679 30.6419 26.1681 31.0105 26.1594 31.3847C26.1692 31.7457 26.0756 32.1021 25.8898 32.4118C25.704 32.7091 25.4366 32.9465 25.1194 33.0957L26.2662 34.7935H24.6579L23.6944 33.3584V33.3525ZM24.642 31.3847C24.6485 31.2752 24.6307 31.1657 24.59 31.0639C24.5495 30.9626 24.487 30.8717 24.4069 30.7976C24.2077 30.6448 23.9592 30.5706 23.7088 30.5893H22.8751V32.1712H23.7073C23.957 32.1897 24.205 32.1173 24.4055 31.9672C24.4857 31.8941 24.5485 31.804 24.5892 31.7034C24.6302 31.6024 24.6483 31.4935 24.642 31.3847Z" fill="white"/>
<path d="M28.2997 29.3848H26.7981V34.7865H28.2997V29.3848Z" fill="white"/>
<path fill-rule="evenodd" clip-rule="evenodd" d="M30.3108 30.5958H28.6809V29.3836H33.4366V30.5958H31.8124V34.7854H30.3108V30.5958ZM38.0726 33.6056V34.7854H33.8088V29.3836H37.9731V30.565H35.2959V31.4747H37.6543V32.6165H35.2959V33.6056H38.0726ZM41.0381 33.3502H40.2189V34.7854H38.7173V29.3836H41.1449C41.5748 29.3736 42.0018 29.4562 42.397 29.6257C42.641 29.7429 42.8577 29.9099 43.0331 30.116C43.2097 30.3235 43.3414 30.5652 43.42 30.8261C43.4988 31.0877 43.5231 31.3627 43.4913 31.6341C43.4594 31.9055 43.3722 32.1674 43.235 32.4037C43.0486 32.7003 42.7814 32.9376 42.4648 33.0876L43.613 34.7854H42.0017L41.0381 33.3502ZM41.9873 31.3824C41.9938 31.2729 41.976 31.1634 41.9353 31.0616C41.8948 30.9603 41.8323 30.8694 41.7522 30.7953C41.553 30.6425 41.3045 30.5683 41.0541 30.587H40.2189V32.1689H41.0541C41.3038 32.1874 41.5517 32.1149 41.7522 31.9649C41.8316 31.8913 41.8938 31.801 41.9343 31.7006C41.975 31.5996 41.9931 31.491 41.9873 31.3824Z" fill="white"/>
<path d="M45.6434 29.3848H44.1418V34.7865H45.6434V29.3848Z" fill="white"/>
<path fill-rule="evenodd" clip-rule="evenodd" d="M49.2022 34.8932C48.6753 34.9018 48.1548 34.7771 47.689 34.5308C47.2486 34.2953 46.881 33.9436 46.6263 33.514C46.3695 33.0814 46.2341 32.5876 46.2344 32.0845C46.2344 31.5805 46.3699 31.0861 46.6263 30.655C46.8811 30.2254 47.2486 29.8737 47.689 29.6382C48.1583 29.3999 48.6772 29.2756 49.2035 29.2754C49.7299 29.2756 50.2488 29.3999 50.7182 29.6382C51.1586 29.8737 51.5261 30.2253 51.7809 30.6549C52.0377 31.0875 52.1731 31.5814 52.1728 32.0845C52.1728 32.5884 52.0373 33.0829 51.7809 33.514C51.5261 33.9436 51.1586 34.2953 50.7182 34.5308C50.2519 34.7773 49.7309 34.902 49.2035 34.8932H49.2022ZM49.2022 33.6283C49.4557 33.6304 49.705 33.5634 49.9233 33.4346C50.1424 33.3049 50.3212 33.1169 50.4398 32.8916C50.5644 32.6408 50.6292 32.3646 50.6291 32.0845C50.6291 31.804 50.5643 31.5276 50.4398 31.2774C50.3216 31.0514 50.1427 30.8629 49.9233 30.733C49.7018 30.6061 49.4509 30.5393 49.1956 30.5392C48.9408 30.5392 48.6901 30.606 48.4679 30.733C48.2485 30.8629 48.0697 31.0514 47.9516 31.2774C47.826 31.5279 47.7607 31.8043 47.7608 32.0845C47.7608 32.3651 47.8261 32.6417 47.9516 32.8916C48.0701 33.1169 48.2489 33.3049 48.4679 33.4346C48.6899 33.5663 48.9441 33.6338 49.2022 33.6298V33.6283ZM57.8063 29.3858V34.7876H56.5701L54.2262 31.9099V34.7876H52.7535V29.3858H53.9911L56.335 32.265V29.3858H57.8063Z" fill="white"/>
</svg>
