<svg width="64" height="64" viewBox="0 0 64 64" fill="none" xmlns="http://www.w3.org/2000/svg">
<path d="M47.2342 32.2827C47.2342 23.8789 40.4206 17.0664 32.0179 17.0664C23.6123 17.0664 16.8003 23.8789 16.8003 32.2827C16.8003 39.4883 21.8123 45.5165 28.539 47.0899C28.4984 47.0259 28.4712 46.9533 28.4598 46.8773C22.8587 44.9939 18.8211 39.7075 18.8211 33.4712C18.8211 25.6581 25.155 19.3237 32.968 19.3237C40.7811 19.3237 47.115 25.6581 47.115 33.4712C47.115 33.8003 47.1008 34.1248 47.0784 34.4483C47.1784 33.74 47.2342 33.0184 47.2342 32.2827Z" fill="white"/>
<path fill-rule="evenodd" clip-rule="evenodd" d="M40.9302 37.558C40.7996 37.1737 40.4761 36.958 40.1902 36.7174C39.9646 36.5262 39.7006 36.3809 39.4553 36.2113C39.3859 36.1612 39.2995 36.0884 39.3209 36.0097C39.3449 35.9273 39.4411 35.8841 39.5377 35.8601C39.7846 35.7982 40.0324 35.7548 40.2878 35.7524C40.3164 35.7524 40.3545 35.7649 40.3659 35.7222C40.3774 35.6846 40.3436 35.6628 40.319 35.6484C40.0836 35.498 39.8382 35.3641 39.5665 35.2865C39.0539 35.1385 38.5358 35.1308 38.0123 35.1646C38.0025 35.2036 37.9795 35.21 37.9555 35.2084C37.9769 35.2057 37.9966 35.1937 38.0123 35.1646C37.9729 35.1505 37.9145 35.2073 37.8955 35.1308C38.4222 34.7793 38.9097 34.3766 39.3721 33.9401C39.8966 33.4449 40.3804 32.9145 40.719 32.2697C40.8129 32.0905 40.8809 31.9092 40.9361 31.6854C40.7289 31.8313 40.5158 31.8276 40.3219 31.8844C39.8355 32.027 39.3606 31.6641 39.3251 31.1588C39.2766 30.4676 39.5169 29.8452 39.7657 29.2265C39.8923 28.9198 40.0619 28.6302 40.2651 28.327C40.1843 28.3401 40.1417 28.3254 40.0892 28.3484C39.539 28.5774 39.023 28.866 38.5355 29.2068C38.1891 29.451 37.8913 29.7593 37.5299 29.9828C37.2993 30.126 37.2179 30.0985 37.1257 29.8462C37.0318 29.5926 37.0267 29.3196 36.9657 29.0545C36.3006 29.6676 35.8833 30.4222 35.6166 31.2721C35.5035 31.6377 35.3209 31.966 34.9942 32.1924C34.9203 32.2428 34.9203 32.2433 34.8953 32.1881C34.7363 31.8569 34.6369 31.5116 34.6204 31.1449C34.6046 30.8049 34.5931 30.4684 34.6057 30.1278C34.6203 29.7732 34.5817 29.4148 34.5646 29.0585C34.5449 28.6404 34.4542 28.2372 34.3166 27.8449C34.2401 27.622 34.1745 27.3908 34.0374 27.1585C33.9905 27.3486 33.9321 27.4974 33.8531 27.6366C33.7411 27.8334 33.5963 27.971 33.3494 27.9836C33.0603 27.9982 32.8233 27.8764 32.5953 27.7273C32.2225 27.4836 31.8974 27.1814 31.5974 26.8545C31.3022 26.5342 31.0171 26.2065 30.7505 25.8617C30.5974 25.6673 30.4369 25.4769 30.2995 25.2689C30.2814 25.2393 30.2558 25.2001 30.2147 25.2137C30.1622 25.2308 30.1851 25.282 30.1934 25.3132C30.219 25.4268 30.1721 25.5329 30.1654 25.6433C30.1457 25.9281 30.1299 26.2156 30.0801 26.4964C30.0091 26.9145 29.9483 27.3345 29.8419 27.7444C29.7283 28.1825 29.5753 28.5975 29.3227 28.9711C29.1614 29.21 28.8582 29.307 28.5769 29.2257C28.3926 29.1716 28.2598 29.0409 28.1249 28.9153C28.0993 28.8913 28.0753 28.846 28.0326 28.8742C27.9899 28.8982 28.007 28.9556 28.0195 28.9764C28.0977 29.09 28.0753 29.226 28.1003 29.3484C28.203 29.8609 28.3899 30.3401 28.6238 30.8052C28.9401 31.4265 29.3883 31.967 29.6947 32.5921C29.8561 32.9206 29.991 33.2577 29.9795 33.6516C29.9014 33.5625 29.8123 33.6068 29.7369 33.591C29.2593 33.4964 28.9118 33.1878 28.5571 32.8988C27.9857 32.4337 27.3294 32.1612 26.6358 31.9566C26.6086 31.9495 26.5691 31.9529 26.551 31.9686C26.5198 32.0004 26.5651 32.0201 26.575 32.0452C26.6603 32.2431 26.7438 32.438 26.8203 32.6364C26.9281 32.9188 26.8291 33.0817 26.5542 33.062C26.459 33.0548 26.3569 33.0521 26.2646 33.0324C25.8046 32.9356 25.3385 32.886 24.8739 32.8798C24.3473 32.8705 23.8155 32.8892 23.2969 33.0284C23.3678 33.0889 23.4569 33.0804 23.5297 33.1185C24.1745 33.4574 24.7587 33.8796 25.2646 34.4049C25.4265 34.5737 25.5838 34.758 25.6761 34.9758C25.8235 35.3217 25.8531 35.5988 25.523 35.8889C25.2667 36.1145 24.9443 36.1852 24.5985 36.2753C25.0155 36.6409 25.4849 36.866 25.9827 37.0409C26.4833 37.2196 26.9963 37.3332 27.5193 37.4348C28.0361 37.5332 28.5587 37.5566 29.1035 37.638C28.3347 37.9358 27.3521 38.7046 27.2315 39.399C27.5009 39.263 27.7715 39.147 28.0529 39.0548C28.183 39.0105 28.319 39.0788 28.3019 39.1782C28.2878 39.2532 28.2739 39.3308 28.2409 39.399C28.0753 39.7532 27.9019 40.1052 27.7971 40.4833C27.7262 40.7353 27.6513 40.9905 27.7462 41.2668C27.7873 41.3886 27.803 41.3636 27.8894 41.3177C28.2379 41.1286 28.5857 40.9353 28.9441 40.7724C29.2211 40.6462 29.4915 40.487 29.815 40.498C29.9779 40.5041 30.0462 40.57 30.0675 40.7297C30.1057 41.0126 30.0289 41.286 30.0233 41.562C30.0305 41.591 30.0091 41.6374 30.0659 41.6374C30.2025 41.5238 30.3435 41.4161 30.4702 41.2942C31.0827 40.7009 31.5619 39.9969 32.0625 39.3124C32.4697 38.7534 32.9686 38.339 33.6619 38.1852C33.7417 38.1676 33.723 38.171 33.7473 38.2348C33.9086 38.6156 33.9795 39.015 34.0166 39.4161C34.0686 39.9894 34.0985 40.5681 33.9937 41.1494C33.9129 41.579 33.7822 41.9844 33.6067 42.3692C33.6849 42.3145 33.7771 42.2734 33.8974 42.2734C34.2291 42.2734 34.3963 42.526 34.4051 42.7838C34.579 42.2324 34.6489 41.6604 34.6718 41.0801C34.687 40.6889 34.6217 40.3025 34.5779 39.9134C34.5539 39.7041 34.5179 39.49 34.4713 39.2844C34.3822 38.8985 34.2761 38.5172 34.1566 38.1417C34.1286 38.0473 34.1795 38.0225 34.2233 38.011C34.7057 37.9006 35.1822 37.851 35.6769 37.9798C36.3742 38.1612 37.0025 38.5132 37.6801 38.7444C38.1926 38.9198 38.7155 39.0417 39.2643 39.1372C39.0758 38.8705 38.8249 38.6689 38.6873 38.3868C38.5819 38.1737 38.6435 38.031 38.843 37.9497C39.1518 37.8212 39.4753 37.8142 39.79 37.7732C40.1321 37.7278 40.4795 37.731 40.8227 37.7236C40.9566 37.7177 40.9713 37.6828 40.9302 37.558Z" fill="white"/>
<path fill-rule="evenodd" clip-rule="evenodd" d="M37.8376 35.182C37.8376 35.1658 37.8491 35.1519 37.8656 35.1426C37.8518 35.1516 37.8435 35.1642 37.8376 35.182Z" fill="white"/>
<path fill-rule="evenodd" clip-rule="evenodd" d="M37.8491 35.2103C37.8633 35.2066 37.8777 35.2066 37.8902 35.2076C37.8787 35.2103 37.8633 35.2151 37.8491 35.2103Z" fill="white"/>
<path fill-rule="evenodd" clip-rule="evenodd" d="M37.8696 35.139C37.8708 35.139 37.8708 35.1367 37.8736 35.1367C37.8708 35.1367 37.8708 35.139 37.8696 35.139Z" fill="white"/>
<path fill-rule="evenodd" clip-rule="evenodd" d="M30.0221 41.5605C30.0277 41.5896 30.008 41.636 30.0648 41.636C30.0648 41.6741 30.0336 41.6875 30.0024 41.7109C30.0066 41.6576 29.9357 41.6029 30.0221 41.5605Z" fill="white"/>
</svg>
