<svg width="160" height="72" viewBox="0 0 160 72" fill="none" xmlns="http://www.w3.org/2000/svg">
<g opacity="0.8" filter="url(#filter0_b_4614_2863)">
<rect y="-0.000976562" width="160" height="72.0013" rx="6" fill="url(#paint0_linear_4614_2863)"/>
<rect x="0.25" y="0.249023" width="159.5" height="71.5013" rx="5.75" stroke="url(#paint1_linear_4614_2863)" stroke-width="0.5"/>
</g>
<path d="M58.969 38.0073C60.0885 38.0073 60.9961 37.0997 60.9961 35.9802C60.9961 34.8607 60.0885 33.9531 58.969 33.9531C57.8495 33.9531 56.9419 34.8607 56.9419 35.9802C56.9419 37.0997 57.8495 38.0073 58.969 38.0073Z" fill="white"/>
<path d="M73.0366 46.2368C74.1561 46.2368 75.0637 45.3292 75.0637 44.2097C75.0637 43.0901 74.1561 42.1826 73.0366 42.1826C71.9171 42.1826 71.0095 43.0901 71.0095 44.2097C71.0095 45.3292 71.9171 46.2368 73.0366 46.2368Z" fill="white"/>
<path d="M102.166 34.4601C101.659 33.9939 101.213 33.9331 100.808 33.9736C100.727 33.9736 100.666 33.9533 100.585 33.9533H79.0367C79.9692 29.3518 84.0639 25.8855 88.929 25.8855C91.6047 25.8855 94.1386 26.9193 96.0441 28.8045C96.8143 29.5748 98.0712 29.6356 98.8617 28.9058C99.7131 28.1153 99.7334 26.7977 98.9225 25.9868C96.2468 23.3111 92.6994 21.8516 88.929 21.8516C85.5842 21.8516 82.4828 23.0273 80.0705 24.9936C78.9556 25.8449 78.1245 25.8855 76.3609 25.8855H72.9757C71.8405 25.8855 70.9283 26.818 70.9486 27.9734C70.9689 29.068 71.9419 29.9194 73.0365 29.9194H76.1379H76.1582H78.4083L76.3609 30.2843C76.1177 30.3248 75.8947 30.487 75.8136 30.7303C75.5298 31.46 75.3271 32.2303 75.1244 33.0006C74.9419 33.6695 73.9284 33.9736 72.4689 33.9736H65.1105C63.9956 33.9736 63.0429 34.825 63.0024 35.9399C62.9618 37.0751 63.8943 38.0278 65.0295 38.0278H74.9419H77.7393L75.6514 38.3724C75.2866 38.4332 75.0636 38.7778 75.1447 39.1427C76.5839 45.4267 82.199 50.1499 88.929 50.1499C96.49 50.1499 102.693 44.1699 103.058 36.6899C103.078 35.8385 102.774 35.0277 102.166 34.4601ZM88.929 46.0754C84.0436 46.0754 79.9692 42.6091 79.0367 38.0075H98.8212C97.8684 42.6091 93.794 46.0754 88.929 46.0754Z" fill="white"/>
<defs>
<filter id="filter0_b_4614_2863" x="-4" y="-4.00098" width="168" height="80.001" filterUnits="userSpaceOnUse" color-interpolation-filters="sRGB">
<feFlood flood-opacity="0" result="BackgroundImageFix"/>
<feGaussianBlur in="BackgroundImage" stdDeviation="2"/>
<feComposite in2="SourceAlpha" operator="in" result="effect1_backgroundBlur_4614_2863"/>
<feBlend mode="normal" in="SourceGraphic" in2="effect1_backgroundBlur_4614_2863" result="shape"/>
</filter>
<linearGradient id="paint0_linear_4614_2863" x1="80" y1="-0.000976563" x2="80" y2="72.77" gradientUnits="userSpaceOnUse">
<stop stop-color="#101011"/>
<stop offset="0.623266" stop-color="#101011" stop-opacity="0.267357"/>
<stop offset="1" stop-color="#101011" stop-opacity="0"/>
</linearGradient>
<linearGradient id="paint1_linear_4614_2863" x1="80" y1="-0.000976563" x2="80" y2="72.0003" gradientUnits="userSpaceOnUse">
<stop stop-color="#632BFF"/>
<stop offset="1" stop-opacity="0"/>
</linearGradient>
</defs>
</svg>
