<svg width="160" height="72" viewBox="0 0 160 72" fill="none"
    xmlns="http://www.w3.org/2000/svg">
    <g clip-path="url(#clip0_4614_2864)">
        <path d="M80.0233 35.6208H85.3147V36.1124C84.0609 36.3029 83.6233 36.4941 83.6233 38.2128V43.7228C81.8243 44.8704 79.7295 45.4682 77.5957 45.4427C71.6265 45.4427 67.803 41.4883 67.803 35.8964C67.803 30.1673 72.1677 26.049 78.25 26.049C80.7874 26.049 82.7513 26.5679 84.442 27.4127V30.4684H83.9238C83.0237 28.0117 81.1418 26.8634 78.168 26.8634C72.8766 26.8634 69.1636 30.6006 69.1636 35.7828C69.1636 41.1574 72.8195 44.6215 77.8645 44.6215C79.5007 44.6215 81.0282 44.2932 82.3919 43.6098V38.2408C82.3919 36.4941 82.0108 36.3029 80.0196 36.1155L80.0233 35.6208ZM86.869 43.5862V40.3679H87.3873C88.4784 43.557 90.497 44.6234 92.7656 44.6234C94.9741 44.6234 97.3184 43.2324 97.3184 40.6677C97.3184 39.0042 96.3359 38.049 94.1001 37.0118L91.3175 35.73C88.9713 34.6395 87.5251 33.1392 87.5251 30.8737C87.5251 28.2829 89.6807 26.0459 93.2541 26.0459C95.1361 26.0459 97.0987 26.6461 98.3004 27.3823V30.4113H97.7815C96.9094 27.6802 95.0504 26.8702 93.1175 26.8702C90.4988 26.8702 88.7255 28.453 88.7255 30.7446C88.7255 32.6812 89.9538 33.7171 91.8352 34.5625L94.6451 35.8442C97.1546 36.9907 98.5182 38.2997 98.5182 40.4548C98.5182 43.3454 95.9548 45.4458 92.6502 45.4458C90.5756 45.4486 88.5529 44.7979 86.869 43.5862ZM116.001 45.1411V45.223H114.337L105.036 35.5401H103.563V42.2498C103.563 44.4868 103.967 44.6234 105.282 44.7314V45.223H100.616V44.7314C101.98 44.6234 102.336 44.4868 102.336 42.2498V29.4026C102.336 27.3562 102.033 26.9198 100.617 26.756V26.2656H106.507C110.573 26.2656 113.164 28.0117 113.164 30.8184C113.164 33.5743 110.681 35.4563 106.754 35.5929L116.001 45.1411ZM103.562 34.7208H106.263C109.836 34.7208 111.827 33.3043 111.827 30.8464C111.827 28.4741 109.863 27.0831 106.291 27.0831H103.558L103.563 34.7208H103.562Z" fill="white"/>
        <path d="M54.5221 32.4783V25.5488H53.7431V32.4783C54.0018 32.4459 54.2634 32.4459 54.5221 32.4783ZM48.9575 26.9553L48.3021 27.3762L52.0449 33.2045C52.2461 33.0387 52.4664 32.8975 52.701 32.7837L48.9575 26.9553ZM45.0341 31.1488L44.7101 31.857L51.012 34.7352C51.0915 34.4869 51.2001 34.2492 51.336 34.0276L45.0341 31.1481V31.1488ZM44 36.7984L44.1117 37.5693L50.9686 36.5824C50.9021 36.3308 50.8652 36.0722 50.8587 35.8121L44 36.7984ZM51.4198 37.5724L46.1849 42.1091L46.6907 42.6969L51.9276 38.1602C51.736 37.9847 51.5657 37.7872 51.4204 37.5718L51.4198 37.5724ZM50.8941 45.3969L51.6408 45.6166L53.5935 38.9689C53.3363 38.9262 53.0852 38.8526 52.8456 38.7498L50.8941 45.3975V45.3969ZM56.6325 45.6166L57.3804 45.3969L55.4326 38.7498C55.1929 38.8523 54.9418 38.9256 54.6847 38.9683L56.6325 45.616V45.6166ZM56.3432 38.1608L61.5788 42.6987L62.0896 42.1097L56.8491 37.5724C56.7045 37.788 56.5347 37.9855 56.3432 38.1608ZM57.3053 36.583L64.1628 37.5693L64.2745 36.7984L57.4145 35.8115C57.4083 36.0722 57.3723 36.331 57.3053 36.583ZM63.5638 31.857L63.2404 31.1488L56.9378 34.0269C57.0744 34.2492 57.183 34.4869 57.2618 34.7352L63.5638 31.857ZM59.9712 27.3755L59.3157 26.9553L55.5723 32.7837C55.8067 32.8975 56.0267 33.0388 56.2278 33.2045L59.9712 27.3762V27.3755ZM50.8941 26.0721L51.642 25.853L52.9256 30.2252L52.1777 30.4449L50.8941 26.0721ZM55.3489 30.2239L56.6318 25.8517L57.3798 26.0708L56.0962 30.443L55.3489 30.2239ZM46.1842 29.3581L46.6945 28.7696L50.1393 31.7552L49.6297 32.3436L46.1842 29.3581ZM44 34.6694L44.1105 33.8985L48.6217 34.5471L48.5106 35.318L44 34.6694ZM44.7703 39.6114L48.9184 37.6971L49.2455 38.406L45.0974 40.3202L44.7703 39.6114ZM48.3033 44.0928L50.7675 40.2588L51.4229 40.6796L48.9588 44.5143L48.3033 44.0928ZM53.7468 41.3624H54.5258V45.9189H53.7468V41.3624ZM56.8503 40.6777L57.5064 40.2557L59.9706 44.0903L59.3151 44.5124L56.8503 40.6777ZM59.0954 38.4271L59.4194 37.7189L63.565 39.612L63.2417 40.3215L59.0954 38.4271ZM59.6509 34.5483L64.1621 33.8997L64.2733 34.6706L59.762 35.3192L59.6509 34.5483ZM58.1333 31.7558L61.5794 28.7696L62.089 29.3587L58.6441 32.3442L58.1333 31.7558Z" fill="white"/>
    </g>
    <defs>
        <filter id="filter0_b_4614_2864" x="-4" y="-4.00098" width="168" height="80.001" filterUnits="userSpaceOnUse" color-interpolation-filters="sRGB">
            <feFlood flood-opacity="0" result="BackgroundImageFix"/>
            <feGaussianBlur in="BackgroundImage" stdDeviation="2"/>
            <feComposite in2="SourceAlpha" operator="in" result="effect1_backgroundBlur_4614_2864"/>
            <feBlend mode="normal" in="SourceGraphic" in2="effect1_backgroundBlur_4614_2864" result="shape"/>
        </filter>
        <linearGradient id="paint0_linear_4614_2864" x1="80" y1="-0.000976563" x2="80" y2="72.77" gradientUnits="userSpaceOnUse">
            <stop stop-color="#101011"/>
            <stop offset="0.623266" stop-color="#101011" stop-opacity="0.267357"/>
            <stop offset="1" stop-color="#101011" stop-opacity="0"/>
        </linearGradient>
        <linearGradient id="paint1_linear_4614_2864" x1="80" y1="-0.000976563" x2="80" y2="72.0003" gradientUnits="userSpaceOnUse">
            <stop stop-color="#632BFF"/>
            <stop offset="1" stop-opacity="0"/>
        </linearGradient>
        <clipPath id="clip0_4614_2864">
            <rect width="72" height="72" fill="white" transform="translate(44)"/>
        </clipPath>
    </defs>
</svg>
