<svg width="160" height="72" viewBox="0 0 160 72" fill="none"
    xmlns="http://www.w3.org/2000/svg">
    <path d="M62.6117 50.5996L60.8384 54.5201H61.4366L61.8817 53.5302H63.8224L64.2603 54.5201H64.8799L63.1066 50.5996H62.6117ZM63.5873 52.9997H62.1132L62.8538 51.3511L63.5873 52.9997Z" fill="white"/>
    <path d="M68.1802 53.4843L65.9333 50.625H65.4241V54.5204H65.9867V51.59L68.2941 54.5204H68.7428V50.625H68.1802V53.4843Z" fill="white"/>
    <path d="M71.3455 52.899H72.4849V53.7181C72.2001 53.9424 71.8618 54.0528 71.4808 54.0528C71.057 54.0528 70.7117 53.914 70.4588 53.6397C70.2024 53.362 70.0743 53.0059 70.0743 52.5715C70.0743 52.1655 70.2024 51.8129 70.4588 51.5281C70.7152 51.2398 71.0321 51.1007 71.4203 51.1007C71.8297 51.1007 72.1965 51.2398 72.5099 51.5104L72.5668 51.5601L72.9372 51.1258L72.8802 51.0759C72.6737 50.905 72.4564 50.7733 72.2357 50.6878C72.0114 50.6022 71.7443 50.5596 71.4345 50.5596C70.8683 50.5596 70.3983 50.759 70.0315 51.1543C69.6683 51.5495 69.4832 52.0231 69.4832 52.568C69.4832 53.1376 69.6648 53.6219 70.0244 54.0029C70.3841 54.3874 70.8683 54.5798 71.463 54.5798C72.0541 54.5798 72.5775 54.3803 73.0155 53.9886L73.0404 53.9673V52.365H71.3455V52.899Z" fill="white"/>
    <path d="M74.4195 52.8256H76.4598V52.2878H74.4195V51.1626H76.702V50.625H73.8462V54.5204H76.7269V53.9863H74.4195V52.8256Z" fill="white"/>
    <path d="M78.0033 50.625H77.4299V54.5204H80.1113V53.9792H78.0033V50.625Z" fill="white"/>
    <path d="M83.1338 52.6995C82.9307 52.5249 82.6066 52.3896 82.1723 52.297C81.7878 52.2152 81.5278 52.1226 81.3959 52.0229C81.275 51.9303 81.2144 51.8056 81.2144 51.6454C81.2144 51.4888 81.2786 51.3642 81.4068 51.2645C81.5385 51.1612 81.7165 51.1078 81.9373 51.1078C82.3076 51.1078 82.653 51.2396 82.9698 51.4959L83.0305 51.5457L83.3688 51.1005L83.3117 51.0543C82.9165 50.7375 82.4607 50.5771 81.9479 50.5771C81.5741 50.5771 81.2606 50.6804 81.0185 50.8835C80.7692 51.0899 80.6446 51.3571 80.6446 51.6739C80.6446 51.998 80.7515 52.2543 80.9652 52.4323C81.1717 52.6069 81.4992 52.7386 81.9622 52.8384C82.3254 52.913 82.5746 53.0021 82.7028 53.1018C82.8203 53.1945 82.8774 53.3155 82.8774 53.4757C82.8774 53.6466 82.8132 53.7783 82.6779 53.8852C82.5391 53.992 82.3503 54.0491 82.1188 54.0491C81.8767 54.0491 81.656 54.0062 81.4672 53.928C81.275 53.846 81.0791 53.7143 80.8868 53.5397L80.8299 53.4864L80.4702 53.91L80.5236 53.96C80.9829 54.3694 81.5134 54.5796 82.1046 54.5796C82.4962 54.5796 82.8203 54.4763 83.0731 54.2697C83.3295 54.0597 83.4577 53.7819 83.4577 53.4437C83.4541 53.1267 83.3473 52.8775 83.1338 52.6995Z" fill="white"/>
    <path d="M85.5353 50.625H84.1609V54.5204H85.5353C86.1336 54.5204 86.6321 54.3318 87.0166 53.965C87.4013 53.5947 87.5971 53.1282 87.5971 52.5728C87.5971 52.0172 87.4013 51.5472 87.0166 51.1804C86.6392 50.8136 86.1371 50.625 85.5353 50.625ZM85.5353 53.9792H84.7342V51.1662H85.5353C85.9769 51.1662 86.3366 51.3015 86.6072 51.5685C86.8778 51.8357 87.0131 52.1739 87.0131 52.5728C87.0131 52.9787 86.8778 53.317 86.6107 53.5805C86.3437 53.8475 85.9805 53.9792 85.5353 53.9792Z" fill="white"/>
    <path d="M88.9193 52.8256H90.9631V52.2878H88.9193V51.1626H91.2017V50.625H88.3459V54.5204H91.2303V53.9863H88.9193V52.8256Z" fill="white"/>
    <path d="M94.8833 53.5218C94.6982 53.6964 94.5129 53.8317 94.335 53.9135C94.1606 53.999 93.954 54.0382 93.7261 54.0382C93.3344 54.0382 93.0139 53.8992 92.7468 53.6144C92.4834 53.3332 92.3481 52.9806 92.3481 52.5675C92.3481 52.1509 92.4798 51.7984 92.7433 51.5171C93.0068 51.2359 93.3273 51.0968 93.7225 51.0968C94.1248 51.0968 94.5023 51.2643 94.8477 51.5882L94.9012 51.6417L95.2822 51.2323L95.2287 51.1824C95.0116 50.9795 94.7873 50.8227 94.5629 50.7158C94.3314 50.609 94.0537 50.5557 93.7296 50.5557C93.1707 50.5557 92.6971 50.7516 92.3232 51.1432C91.9493 51.5313 91.7605 52.0121 91.7605 52.5675C91.7605 53.1301 91.9493 53.6109 92.3161 53.9954C92.6864 54.38 93.1563 54.5759 93.7118 54.5759C94.0466 54.5759 94.3385 54.5188 94.5771 54.4086C94.8157 54.2982 95.0472 54.1343 95.2609 53.9172L95.3106 53.8672L94.9297 53.4649L94.8833 53.5218Z" fill="white"/>
    <path d="M97.5637 52.3449L99.248 50.625H98.4931L96.4492 52.7508V50.625H95.876V54.5204H96.4492V53.4701L97.1649 52.7436L98.5715 54.5204H99.2944L97.5637 52.3449Z" fill="white"/>
    <path d="M95.068 45.5317H84.8983C85.3113 45.3857 87.2413 44.467 88.0852 43.7763C88.5731 43.3773 88.9576 42.9572 89.0538 42.6047C89.0716 42.5478 89.0787 42.4943 89.0787 42.4409C89.0787 42.391 89.0716 42.3483 89.0574 42.3021C89.0325 42.2095 88.979 42.1739 88.8721 42.1917C88.6728 42.2201 88.2954 42.4374 87.6436 42.7757C86.8176 43.2029 85.5463 43.8261 83.627 44.524C83.7089 44.4243 83.7552 44.3352 83.7552 44.2641C83.7552 44.2428 83.7516 44.2248 83.7445 44.207C83.7161 44.1573 83.6414 44.1466 83.5239 44.1679C84.4247 43.5946 85.0158 43.1923 85.0158 43.1923C85.4573 42.9217 86.3405 42.1169 86.9885 41.2943C87.4408 40.7246 87.7789 40.1477 87.786 39.7383C87.786 39.7312 87.786 39.7276 87.786 39.7241C87.786 39.6208 87.7647 39.5246 87.7149 39.4462C87.69 39.4 87.6579 39.3751 87.6187 39.368C87.4586 39.3322 87.1487 39.6314 86.5007 40.2048C85.8384 40.7851 84.8235 41.6468 83.246 42.7186C83.2424 42.7222 83.2424 42.7222 83.2389 42.7258C83.182 42.7793 83.1285 42.8362 83.068 42.8859C82.865 43.0747 82.6229 43.2172 82.3985 43.3809L81.7185 43.8616C81.6436 43.9151 81.569 43.9649 81.4906 44.0184C81.4941 44.0184 81.5012 44.0149 81.5048 44.0149C81.8147 43.9756 82.1279 43.9649 82.4662 44.054C82.484 44.0575 82.4947 44.0789 82.4911 44.0966C82.4911 44.1038 82.4876 44.1073 82.4805 44.1144C82.2241 44.353 81.9393 44.492 81.6507 44.6058C81.3624 44.7269 81.0454 44.7233 80.7428 44.7733C80.44 44.8231 80.1339 44.8695 79.8276 44.9121C79.5179 44.9477 79.2151 44.9905 78.9054 45.0225C78.8876 45.0225 78.8734 45.0119 78.8734 44.9941C78.8734 44.9799 78.8805 44.969 78.8912 44.9619C79.176 44.8408 79.4679 44.7342 79.7565 44.6202C80.0448 44.5098 80.3369 44.4065 80.6288 44.3068C80.8461 44.2319 81.0596 44.1288 81.2804 44.0682C81.3979 43.9613 81.5119 43.8581 81.6259 43.7512L82.249 43.1994C82.2883 43.1638 82.3274 43.1281 82.3665 43.0925C82.4378 42.9679 82.484 42.8575 82.484 42.7757C82.484 42.74 82.4769 42.7115 82.4591 42.6866C82.4485 42.676 82.4378 42.6689 82.4271 42.6653C83.6163 41.4475 84.4745 40.4825 84.4745 40.4825C84.795 40.1584 85.3362 39.3502 85.7565 38.5134C86.0841 37.8545 86.3334 37.1816 86.3334 36.708C86.3334 36.4978 86.2834 36.327 86.173 36.2166C85.9879 36.0171 85.7885 36.3626 85.1938 37.2278C84.5102 38.2248 83.2995 39.9091 80.9814 42.2415C81.0811 42.213 81.1807 42.1881 81.284 42.1668C81.4799 42.1275 81.6794 42.0955 81.8929 42.092C81.9107 42.092 81.9251 42.1062 81.9251 42.124C81.9251 42.1346 81.9215 42.1417 81.9178 42.1453C81.7754 42.3057 81.6187 42.4338 81.455 42.5549C81.2946 42.676 81.1274 42.7828 80.9565 42.8788C80.7855 42.975 80.6075 43.0534 80.4187 43.1174C80.2301 43.178 80.0413 43.2385 79.8598 43.3062C79.493 43.4451 79.1227 43.5768 78.7488 43.705C78.3749 43.8296 78.0046 43.9614 77.6271 44.0789C77.6093 44.086 77.595 44.0753 77.5879 44.0575C77.5843 44.0433 77.5879 44.0291 77.6021 44.022C77.9404 43.8154 78.2823 43.6266 78.6242 43.4273C78.9659 43.2349 79.3113 43.0463 79.6603 42.8611C79.8347 42.7684 80.0022 42.6653 80.173 42.5656C80.2941 42.4943 80.4187 42.4374 80.5469 42.3839C80.9385 41.8427 81.3482 41.1803 81.1807 41.0023C81.1309 40.9597 81.0383 40.9881 80.9101 41.063C80.9101 41.063 80.9101 41.0629 80.9137 41.0592C82.4271 38.905 83.6769 36.8397 83.6769 36.8397C83.8906 36.5227 84.147 35.9247 84.3356 35.2765C84.4816 34.7673 84.5849 34.2296 84.5849 33.781C84.5849 33.3501 84.4924 33.0047 84.2538 32.8409C84.2538 32.8409 84.1932 33.229 83.8122 34.0908C83.2782 35.2943 82.1208 37.4273 79.6283 40.7317C79.6958 40.7033 79.76 40.6747 79.8276 40.6462C80.0448 40.5607 80.2656 40.4825 80.5042 40.4361C80.522 40.4325 80.5398 40.4468 80.5433 40.4612C80.5433 40.4718 80.5433 40.4825 80.5362 40.486C80.3867 40.6818 80.223 40.8493 80.0519 41.0059C79.8811 41.1661 79.703 41.3086 79.5214 41.4475C79.3362 41.5828 79.144 41.7039 78.941 41.8107C78.9054 41.8285 78.8699 41.8463 78.8341 41.864C78.7915 41.8854 78.7488 41.9067 78.7024 41.9318C78.5778 41.9958 78.4531 42.06 78.3285 42.1275C78.3072 42.1382 78.2823 42.1524 78.2574 42.1668C77.9689 42.327 77.6805 42.4836 77.3885 42.6367C77.2995 42.6866 77.2069 42.7329 77.1179 42.7828C77.0075 42.8397 76.8971 42.8968 76.7867 42.9537C76.4911 43.1067 76.1956 43.2635 75.8965 43.4095C75.8823 43.4166 75.8609 43.4095 75.8573 43.3953C75.8502 43.3844 75.8538 43.3667 75.8644 43.3596C76.2241 43.0747 76.5944 42.8042 76.9612 42.5263C77.0182 42.4836 77.0751 42.4409 77.1321 42.4017C77.3137 42.2699 77.4917 42.1382 77.6733 42.0065C77.8051 41.9103 77.9404 41.8143 78.0722 41.7181C78.179 41.6432 78.2858 41.565 78.3891 41.4831C78.4674 41.426 78.5422 41.3655 78.6206 41.3051C78.8021 41.1661 78.9909 41.045 79.1902 40.9419C79.5001 40.4432 79.8704 39.7881 79.8704 39.4784C79.8704 39.4142 79.8562 39.368 79.8205 39.3358C79.7565 39.286 79.6318 39.3502 79.4679 39.4855C81.2484 36.7258 82.8899 33.5531 82.8899 33.5531C83.0003 33.3679 83.1143 33.0937 83.2211 32.7733C83.4419 32.1109 83.627 31.2421 83.627 30.5406C83.627 30.4694 83.627 30.4017 83.6199 30.3341C83.595 29.8712 83.4704 29.5044 83.2069 29.3513C83.2069 29.3513 83.2069 29.3655 83.1998 29.3905C83.1998 29.3905 83.1998 29.3905 83.1998 29.394C83.1784 29.5543 83.0645 30.1596 82.5766 31.3347C82.0888 32.5169 81.22 34.2759 79.6852 36.7293C79.6852 36.7329 79.6816 36.7364 79.6781 36.74C79.671 36.7542 79.6603 36.772 79.6532 36.7899C79.4146 37.2314 79.1227 37.6445 78.8519 38.0718L78.2394 39.0332C78.4995 38.8872 78.7772 38.7591 79.0798 38.6629C79.1012 38.6558 79.1227 38.6664 79.1298 38.6878C79.1333 38.6984 79.1333 38.7091 79.1262 38.7198C78.8519 39.2147 78.4995 39.6137 78.1219 39.9875C77.9333 40.1726 77.7303 40.3401 77.5096 40.4896C77.4561 40.5252 77.4027 40.5607 77.3493 40.5965C77.1855 40.7069 77.0182 40.8173 76.8579 40.9346C76.8579 40.9346 76.8579 40.9346 76.8544 40.9346L76.7974 40.9739L76.2098 41.3975L75.9463 41.5792L75.5582 41.8498C75.1167 42.1453 74.6858 42.4516 74.2407 42.74C74.2229 42.7507 74.2015 42.7471 74.1873 42.7293C74.1766 42.7151 74.1802 42.6938 74.1909 42.6831C74.2336 42.6402 74.2728 42.5976 74.3155 42.5549C74.6466 42.2166 74.9814 41.8925 75.3161 41.5615L75.6579 41.2302L75.8858 41.0094L76.0425 40.8635L76.4627 40.4683C76.5837 40.3543 76.7013 40.2368 76.8187 40.1193C76.89 40.048 76.9576 39.9804 77.0288 39.9091C77.2176 39.7241 77.417 39.553 77.6342 39.4035C77.6983 39.3609 77.7625 39.318 77.8265 39.2753C78.0117 38.8872 78.1683 38.492 78.1683 38.2641C78.1683 38.1857 78.1506 38.1253 78.1077 38.0931C78.0437 38.0504 77.9333 38.1144 77.7909 38.2426C79.7849 34.949 81.6045 31.0676 81.6045 31.0676C81.7327 30.8148 81.8609 30.4267 81.9642 29.9744C82.103 29.3798 82.1956 28.6747 82.1956 28.0267C82.1956 27.5673 82.1457 27.1329 82.0317 26.7875C81.9926 26.6735 81.95 26.5703 81.8929 26.4777C81.8929 26.4741 81.8893 26.467 81.8858 26.4635C81.7896 26.2997 81.665 26.1715 81.5119 26.0967C81.5119 26.1074 81.5083 26.6949 81.0954 28.0338C80.5791 29.7572 79.3541 32.7626 76.5446 37.4308C76.6692 37.3133 76.7938 37.1994 76.9291 37.0925C77.1606 36.9039 77.3992 36.7222 77.6733 36.5656C77.6947 36.5549 77.7161 36.562 77.7303 36.5798C77.7374 36.5905 77.7374 36.6011 77.7339 36.6118C77.6271 36.9075 77.4882 37.1745 77.3386 37.4344C77.1926 37.6943 77.0288 37.9436 76.8579 38.1822C76.6834 38.4207 76.4947 38.6451 76.2846 38.8551C76.1493 38.9905 76.014 39.1258 75.8751 39.2611C75.8039 39.3358 75.7291 39.4106 75.6579 39.4855L75.049 40.1264L74.4864 40.7069L74.433 40.7602C74.0128 41.1767 73.6033 41.6006 73.1796 42.0136C73.1653 42.0278 73.1404 42.0278 73.1262 42.0136C73.1155 42.0029 73.1119 41.9816 73.1226 41.9673C73.4538 41.4759 73.8027 41.0023 74.1446 40.518L74.3048 40.2972L74.6644 39.7987L75.195 39.0901C75.2555 39.0083 75.3161 38.9264 75.3766 38.8408C75.4906 38.6842 75.5974 38.524 75.7078 38.3672C75.779 38.2677 75.8538 38.1715 75.9321 38.0789C75.9428 38.0646 75.9535 38.054 75.9606 38.0398C76.0639 37.8154 76.16 37.5839 76.2312 37.3738C76.2312 37.3738 76.2312 37.3738 76.2312 37.3702L76.2348 37.3596L76.2383 37.3489C76.249 37.3169 76.2597 37.2813 76.2704 37.2492C76.2775 37.2243 76.2846 37.1994 76.2917 37.178C76.2953 37.1674 76.2953 37.1603 76.2989 37.1496C76.306 37.1139 76.3167 37.0819 76.3202 37.0499C76.3202 37.0463 76.3238 37.0392 76.3238 37.0392C76.3274 37.0141 76.3345 36.9928 76.3345 36.9679C76.3345 36.9572 76.338 36.9466 76.338 36.9359C76.3416 36.911 76.3416 36.8859 76.3416 36.8646C76.3416 36.7793 76.3202 36.7151 76.2775 36.6795C76.249 36.6618 76.2098 36.6653 76.1671 36.6866C78.3001 32.7519 80.5007 27.0795 80.5007 27.0795C80.5291 27.0118 80.5576 26.9335 80.5791 26.8445C80.7001 26.4207 80.7819 25.794 80.7819 25.1424C80.7819 24.5406 80.7108 23.9175 80.5398 23.4189C80.49 23.2694 80.4294 23.1305 80.3547 23.0059C80.2336 22.7958 80.0839 22.6284 79.8989 22.5252C79.8704 22.5074 79.842 22.4931 79.8098 22.4789C79.8062 22.4789 79.7991 22.4753 79.7956 22.4718C79.7956 22.4718 79.7956 22.4896 79.7885 22.5216C79.7778 22.5857 79.76 22.7139 79.728 22.9098C79.4608 24.3804 78.2538 29.5685 73.3612 38.1288C73.2686 38.1964 73.1903 38.289 73.1191 38.4172C72.8235 38.9477 72.3926 39.5815 71.9974 40.2261C71.8656 40.4432 71.7339 40.664 71.6164 40.8777C71.6164 40.8777 71.6164 40.8813 71.6128 40.8813C71.4134 41.2445 71.2496 41.597 71.1464 41.9318C71.1001 42.0706 71.068 42.2059 71.0502 42.3341C71.0182 42.5442 71.0217 42.74 71.0716 42.9181C71.3956 44.0682 71.4811 43.9258 71.5131 44.6238V44.6344C71.5238 44.8766 71.3742 45.1365 71.1748 45.3751C71.1392 45.4177 71.0502 45.5175 71.0431 45.5246H65.0645L77.7838 17.4189H82.3452L95.068 45.5317Z" fill="white"/>
    <defs>
        <filter id="filter0_b_4614_2861" x="-4" y="-4.00098" width="168" height="80.001" filterUnits="userSpaceOnUse" color-interpolation-filters="sRGB">
            <feFlood flood-opacity="0" result="BackgroundImageFix"/>
            <feGaussianBlur in="BackgroundImage" stdDeviation="2"/>
            <feComposite in2="SourceAlpha" operator="in" result="effect1_backgroundBlur_4614_2861"/>
            <feBlend mode="normal" in="SourceGraphic" in2="effect1_backgroundBlur_4614_2861" result="shape"/>
        </filter>
        <linearGradient id="paint0_linear_4614_2861" x1="80" y1="-0.000976563" x2="80" y2="72.77" gradientUnits="userSpaceOnUse">
            <stop stop-color="#101011"/>
            <stop offset="0.623266" stop-color="#101011" stop-opacity="0.267357"/>
            <stop offset="1" stop-color="#101011" stop-opacity="0"/>
        </linearGradient>
        <linearGradient id="paint1_linear_4614_2861" x1="80" y1="-0.000976563" x2="80" y2="72.0003" gradientUnits="userSpaceOnUse">
            <stop stop-color="#632BFF"/>
            <stop offset="1" stop-opacity="0"/>
        </linearGradient>
    </defs>
</svg>
