<svg width="160" height="72" viewBox="0 0 160 72" fill="none"
    xmlns="http://www.w3.org/2000/svg">
    <path fill-rule="evenodd" clip-rule="evenodd" d="M82.304 19.7674C80.8782 18.9603 79.1216 18.9603 77.696 19.7674L66.6263 26.034C65.2007 26.8411 64.3225 28.3325 64.3225 29.9464V42.48C64.3225 44.0938 65.2006 45.5852 66.6264 46.3922L77.6958 52.6587C79.1216 53.4658 80.8781 53.4658 82.304 52.6587L93.3729 46.3924L93.3738 46.392C94.7996 45.5851 95.6773 44.0938 95.6773 42.48V29.9464C95.6773 28.3325 94.7993 26.8412 93.3732 26.0339L82.304 19.7674ZM81.4401 20.9725C80.5489 20.4681 79.4512 20.4681 78.5598 20.9725L67.2588 27.3701C66.3677 27.8746 65.8189 28.8065 65.8189 29.8154V42.6111C65.8189 43.6195 66.3676 44.5513 67.2583 45.056L67.2591 45.0565L78.5592 51.4532L78.5608 51.4542C79.4514 51.9582 80.5485 51.9586 81.4392 51.4542L81.4408 51.4532L92.7411 45.0564L92.7416 45.056C93.6327 44.5514 94.1813 43.6196 94.1813 42.6111V29.8154C94.1813 28.8066 93.6324 27.8747 92.7411 27.3701L81.4401 20.9725ZM78.8458 22.2317C79.5587 21.8282 80.437 21.8282 81.1498 22.2317L91.7796 28.2493C92.4924 28.6527 92.9315 29.3984 92.9315 30.2054V42.2408C92.9315 43.0477 92.4924 43.7934 91.7796 44.1969L81.1503 50.2141L81.1493 50.2146C80.4368 50.6179 79.559 50.6179 78.8464 50.2146L78.8452 50.2141L68.2159 44.1969C67.5031 43.7934 67.0641 43.0477 67.0641 42.2408V30.2054C67.0641 29.3984 67.5031 28.6527 68.2159 28.2493L78.8458 22.2317ZM81.0724 30.3431L80.337 28.6489H83.5049C85.8905 28.6489 87.8247 30.5451 87.8247 32.8842C87.8247 34.5066 86.8941 35.9158 85.5277 36.6272L87.8247 41.9194H86.0967L83.2781 35.4253H83.5049C83.9961 35.4253 84.4554 35.2913 84.8469 35.0586L84.8479 35.058L84.8487 35.0575C85.5969 34.6119 86.0967 33.8051 86.0967 32.8842C86.0967 31.4807 84.9362 30.3431 83.5049 30.3431H81.0724ZM78.0332 28.6489L72.2736 41.9194H74.0014L78.0332 32.6018L82.065 41.9194H83.7929L78.0332 28.6489Z" fill="white"/>
    <defs>
        <filter id="filter0_b_4614_2860" x="-4" y="-4.00098" width="168" height="80.001" filterUnits="userSpaceOnUse" color-interpolation-filters="sRGB">
            <feFlood flood-opacity="0" result="BackgroundImageFix"/>
            <feGaussianBlur in="BackgroundImage" stdDeviation="2"/>
            <feComposite in2="SourceAlpha" operator="in" result="effect1_backgroundBlur_4614_2860"/>
            <feBlend mode="normal" in="SourceGraphic" in2="effect1_backgroundBlur_4614_2860" result="shape"/>
        </filter>
        <linearGradient id="paint0_linear_4614_2860" x1="80" y1="-0.000976563" x2="80" y2="72.77" gradientUnits="userSpaceOnUse">
            <stop stop-color="#101011"/>
            <stop offset="0.623266" stop-color="#101011" stop-opacity="0.267357"/>
            <stop offset="1" stop-color="#101011" stop-opacity="0"/>
        </linearGradient>
        <linearGradient id="paint1_linear_4614_2860" x1="80" y1="-0.000976563" x2="80" y2="72.0003" gradientUnits="userSpaceOnUse">
            <stop stop-color="#632BFF"/>
            <stop offset="1" stop-opacity="0"/>
        </linearGradient>
    </defs>
</svg>
