<svg width="160" height="72" viewBox="0 0 160 72" fill="none"
    xmlns="http://www.w3.org/2000/svg">
    <g clip-path="url(#clip0_4614_2859)">
        <path d="M45.8183 46.0873C45.486 46.0873 45.1782 46.0116 44.9033 45.8626C44.7654 45.7866 44.6407 45.6951 44.5328 45.591C44.4244 45.4862 44.33 45.3662 44.2524 45.2339C44.1744 45.1007 44.1148 44.9582 44.0754 44.8097C44.0354 44.6598 44.0154 44.5002 44.0154 44.336C44.0154 44.1696 44.0351 44.0097 44.0745 43.8604C44.1139 43.7099 44.1739 43.5668 44.2524 43.4347C44.33 43.3021 44.4246 43.1822 44.5334 43.0777C44.6419 42.9736 44.7675 42.882 44.9065 42.8058C45.0447 42.7301 45.1938 42.6726 45.3496 42.6347C45.5043 42.5972 45.6695 42.5781 45.8406 42.5781C46.1105 42.5781 46.3522 42.6224 46.5795 42.7131C46.797 42.8008 46.9855 42.9319 47.1392 43.103L46.8364 43.394C46.7085 43.2614 46.5621 43.1599 46.4019 43.0927C46.2381 43.024 46.0555 42.9894 45.8588 42.9894C45.7295 42.9894 45.6045 43.0041 45.4875 43.0328C45.3702 43.0616 45.2576 43.1056 45.1523 43.1634C44.9412 43.2796 44.7754 43.4418 44.6599 43.646V43.6457C44.6005 43.7472 44.5555 43.8566 44.5261 43.971C44.4967 44.0845 44.482 44.2063 44.482 44.3324C44.482 44.4586 44.497 44.5803 44.5261 44.6939C44.5555 44.808 44.6005 44.9174 44.6599 45.0189C44.7786 45.2231 44.9445 45.3853 45.1523 45.5015C45.2576 45.5593 45.3705 45.603 45.4875 45.6317C45.6045 45.6605 45.7295 45.6752 45.8588 45.6752C46.0529 45.6752 46.2346 45.6399 46.3983 45.5704C46.5574 45.5029 46.7044 45.4012 46.8361 45.268L47.1392 45.5587C46.9855 45.73 46.7961 45.8611 46.5762 45.9492C46.4648 45.9949 46.346 46.0298 46.2231 46.0524C46.1011 46.075 45.9714 46.0864 45.8377 46.0864C45.8309 46.0873 45.8244 46.0873 45.8183 46.0873ZM104.571 46.0512H104.083L103.706 45.1935L103.702 45.1846H103.692H101.85H101.84L101.836 45.1935L101.459 46.0509H100.98L102.537 42.6177H103.008L104.571 46.0512ZM102.772 43.071L102.759 43.1015L102.011 44.7983L102.002 44.8188H102.025H103.519H103.542L103.533 44.7983L102.786 43.1015L102.772 43.071ZM91.4573 46.0512H90.9966V43.0349V43.0202H90.9819H89.8076V42.618H92.6466V43.0202H91.4723H91.4576V43.0349V46.0512H91.4573ZM80.7829 46.0512H80.316V42.618H80.7829V46.0512ZM59.3266 46.0512H58.8385L58.4613 45.1937L58.4575 45.1849H58.4478H56.6049H56.5955L56.5917 45.1937L56.2145 46.0512H55.7355L57.2926 42.618H57.7633L59.3266 46.0512ZM57.5252 43.071L57.5117 43.1015L56.764 44.7983L56.7549 44.8188H56.7775H58.2726H58.2952L58.2861 44.7983L57.5387 43.1015L57.5252 43.071ZM115.925 46.0483H113.579V42.618H114.046V45.6344V45.649H114.061H115.925V46.0483H115.925ZM68.7985 46.0483H68.3319V42.6151H69.6696C69.8925 42.6166 70.0939 42.6444 70.2688 42.6981C70.4432 42.7515 70.5955 42.8322 70.7219 42.9378C70.8483 43.0431 70.9444 43.1698 71.008 43.3148C71.0718 43.46 71.1038 43.6272 71.1038 43.8111C71.1038 43.9951 71.0715 44.1623 71.008 44.3075C70.9444 44.4524 70.8483 44.5791 70.7219 44.6845C70.5957 44.7895 70.4432 44.8693 70.2688 44.9218C70.0945 44.974 69.8928 45.0007 69.6696 45.0007H68.8132H68.7985V45.0154V46.0483ZM68.7985 43.0202V43.0349V44.5868V44.6014H68.8132H69.6543C69.8137 44.6014 69.9557 44.5844 70.0762 44.551C70.1974 44.5175 70.3009 44.4662 70.3838 44.3987C70.4681 44.3316 70.5322 44.2474 70.5746 44.1491C70.6163 44.0517 70.6375 43.9379 70.6375 43.8108C70.6375 43.6838 70.6163 43.57 70.5746 43.4726C70.5325 43.3743 70.4681 43.2901 70.3838 43.2226C70.2991 43.1552 70.195 43.1041 70.0742 43.0707C69.9536 43.0372 69.8125 43.0202 69.6546 43.0202H68.8135H68.7985Z" fill="white"/>
        <path d="M45.8179 46.0714C45.824 46.0714 45.8305 46.0714 45.8364 46.0714H45.8367C45.9696 46.0714 46.0984 46.06 46.2195 46.0377C46.3415 46.0151 46.4594 45.9805 46.5697 45.935H46.57C46.7831 45.8496 46.9675 45.7235 47.118 45.5589L46.8357 45.2878C46.7052 45.4175 46.56 45.5167 46.4032 45.5833C46.2374 45.6537 46.054 45.6892 45.8579 45.6892C45.7273 45.6892 45.6015 45.6745 45.483 45.6454C45.3645 45.6164 45.2507 45.5721 45.1443 45.514H45.144C44.9338 45.3967 44.7662 45.2324 44.6462 45.0259C44.5863 44.9232 44.5407 44.8126 44.511 44.697C44.4813 44.5823 44.4663 44.4597 44.4663 44.3321C44.4663 44.2044 44.4813 44.0815 44.511 43.9668C44.541 43.8512 44.5863 43.7403 44.6462 43.6377C44.7633 43.4314 44.9308 43.2675 45.1443 43.1498C45.2504 43.0914 45.3645 43.0471 45.483 43.0178C45.6012 42.9888 45.7273 42.9741 45.8579 42.9741C46.0563 42.9741 46.241 43.0093 46.4065 43.0785C46.5644 43.1448 46.7087 43.2437 46.8357 43.3725L47.118 43.1014C46.9675 42.9371 46.7843 42.811 46.5732 42.7256C46.3477 42.6355 46.1078 42.5915 45.8399 42.5915C45.67 42.5915 45.5059 42.6103 45.3525 42.6476C45.1981 42.6851 45.0502 42.742 44.9129 42.8171C44.7747 42.8928 44.6504 42.9835 44.5427 43.0867C44.4351 43.1903 44.3413 43.3091 44.2643 43.4405V43.4408C44.1864 43.5717 44.127 43.7137 44.0879 43.8627C44.0491 44.0108 44.0294 44.1695 44.0294 44.3347C44.0294 44.4978 44.0494 44.6559 44.0891 44.805C44.1282 44.9519 44.1873 45.0933 44.2646 45.2254C44.3416 45.3565 44.4351 45.4756 44.5427 45.5791C44.6498 45.6824 44.7732 45.7731 44.9103 45.8485C45.1828 45.9966 45.4883 46.0714 45.8179 46.0714ZM104.548 46.0353L102.998 42.6314H102.546L101.002 46.0353H101.449L101.83 45.169H103.71L103.718 45.1866L104.092 46.0356H104.548V46.0353ZM102.772 43.0331L102.799 43.0941L103.564 44.832H101.98L102.772 43.0331ZM91.4422 46.0353V43.0043H92.6312V42.6314H89.8216V43.0043H91.0106V46.0353H91.4422ZM80.7678 46.0353V42.6314H80.3304V46.0353H80.7678ZM59.3033 46.0353L57.7535 42.6314H57.3016L55.7578 46.0353H56.2044L56.5854 45.169H58.4665L58.4742 45.1866L58.8476 46.0356H59.3033V46.0353ZM57.5248 43.0331L58.3172 44.832H56.7321L56.7504 44.7909L57.5248 43.0331ZM115.91 46.0324V45.6625H114.031V42.6314H113.593V46.0324H115.91ZM68.7834 46.0324V44.9845H69.6692C69.8909 44.9845 70.0911 44.9581 70.264 44.9062C70.4366 44.8542 70.5871 44.7753 70.7118 44.6718C70.8364 44.5679 70.9314 44.443 70.9937 44.3001C71.0567 44.1566 71.0884 43.9918 71.0884 43.8096C71.0884 43.6274 71.0567 43.4625 70.9937 43.3191C70.9311 43.1765 70.8362 43.0512 70.7118 42.9474C70.5868 42.8432 70.436 42.7635 70.2637 42.7106C70.0905 42.6575 69.8903 42.6297 69.6689 42.6282H68.3459V46.0324H68.7834ZM68.7834 43.0043H69.6539C69.813 43.0043 69.9556 43.0213 70.0773 43.0553C70.2002 43.0894 70.3061 43.1416 70.3922 43.2102C70.4786 43.2792 70.5442 43.3654 70.5874 43.4661C70.6298 43.5652 70.6515 43.6811 70.6515 43.8102C70.6515 43.9392 70.6301 44.0551 70.5874 44.154C70.5442 44.2546 70.4786 44.3406 70.3925 44.4092C70.3081 44.4779 70.2029 44.5301 70.0797 44.5641C69.9576 44.5978 69.8145 44.6152 69.6539 44.6152H68.7834V43.0043ZM45.8179 46.1007C45.4774 46.1007 45.1693 46.0224 44.8959 45.8743C44.6171 45.7205 44.3966 45.509 44.239 45.2403C44.0817 44.9719 44 44.6697 44 44.335C44 43.9997 44.0788 43.6949 44.239 43.4262C44.3966 43.1574 44.6171 42.9462 44.8988 42.7919C45.1799 42.6382 45.4948 42.5625 45.8399 42.5625C46.1122 42.5625 46.3574 42.608 46.5841 42.6986C46.8081 42.789 47.0016 42.9251 47.1589 43.1029L46.8351 43.4138C46.5752 43.1387 46.248 43.0031 45.8582 43.0031C45.6006 43.0031 45.368 43.0603 45.159 43.1753C44.9502 43.2903 44.7868 43.4499 44.6721 43.6523C44.5539 43.8545 44.4963 44.0812 44.4963 44.3318C44.4963 44.5823 44.5542 44.8088 44.6721 45.0109C44.7897 45.213 44.9535 45.3732 45.159 45.4882C45.368 45.6026 45.6009 45.6598 45.8582 45.6598C46.2451 45.6598 46.5688 45.5214 46.8351 45.2465L47.1589 45.5571C47.0016 45.7355 46.8078 45.8713 46.5811 45.962C46.3544 46.0553 46.1063 46.1004 45.837 46.1004C45.8305 46.1007 45.824 46.1007 45.8179 46.1007ZM104.593 46.0647H104.073L103.692 45.1984H101.849L101.468 46.0647H100.957L102.527 42.6021H103.017L104.593 46.0647ZM102.772 43.1061L102.025 44.8029H103.519L102.772 43.1061ZM91.4716 46.0647H90.9815V43.0336H89.7925V42.6021H92.6609V43.0336H91.4719V46.0647H91.4716ZM80.7973 46.0647H80.301V42.6021H80.7973V46.0647ZM59.3488 46.0647H58.8284L58.4474 45.1984H56.6045L56.2235 46.0647H55.7122L57.2828 42.6021H57.7727L59.3488 46.0647ZM57.5248 43.1061L56.7771 44.8029H58.2722L57.5248 43.1061ZM115.939 46.0617H113.564V42.6021H114.06V45.6331H115.94V46.0617H115.939ZM68.8128 46.0617H68.3168V42.5992H69.6692C70.1199 42.6021 70.4736 42.7106 70.7309 42.9251C70.9882 43.1395 71.1181 43.4355 71.1181 43.8099C71.1181 44.1842 70.9882 44.4799 70.7309 44.6944C70.4736 44.9085 70.1199 45.0138 69.6692 45.0138H68.8128V46.0617ZM68.8128 43.0336V44.5855H69.6539C69.9718 44.5855 70.2108 44.5189 70.374 44.3863C70.5404 44.2537 70.6221 44.0604 70.6221 43.8099C70.6221 43.5593 70.5404 43.366 70.374 43.2331C70.2076 43.1005 69.9685 43.0339 69.6539 43.0339H68.8128V43.0336Z" fill="white"/>
        <path d="M45.8183 46.0873C45.486 46.0873 45.1782 46.0116 44.9033 45.8626C44.7654 45.7866 44.6407 45.6951 44.5328 45.591C44.4244 45.4862 44.33 45.3662 44.2524 45.2339C44.1744 45.1007 44.1148 44.9582 44.0754 44.8097C44.0354 44.6598 44.0154 44.5002 44.0154 44.336C44.0154 44.1696 44.0351 44.0097 44.0745 43.8604C44.1139 43.7099 44.1739 43.5668 44.2524 43.4347C44.33 43.3021 44.4246 43.1822 44.5334 43.0777C44.6419 42.9736 44.7675 42.882 44.9065 42.8058C45.0447 42.7301 45.1938 42.6726 45.3496 42.6347C45.5043 42.5972 45.6695 42.5781 45.8406 42.5781C46.1105 42.5781 46.3522 42.6224 46.5795 42.7131C46.797 42.8008 46.9855 42.9319 47.1392 43.103L46.8364 43.394C46.7085 43.2614 46.5621 43.1599 46.4019 43.0927C46.2381 43.024 46.0555 42.9894 45.8588 42.9894C45.7295 42.9894 45.6045 43.0041 45.4875 43.0328C45.3702 43.0616 45.2576 43.1056 45.1523 43.1634C44.9412 43.2796 44.7754 43.4418 44.6599 43.646V43.6457C44.6005 43.7472 44.5555 43.8566 44.5261 43.971C44.4967 44.0845 44.482 44.2063 44.482 44.3324C44.482 44.4586 44.497 44.5803 44.5261 44.6939C44.5555 44.808 44.6005 44.9174 44.6599 45.0189C44.7786 45.2231 44.9445 45.3853 45.1523 45.5015C45.2576 45.5593 45.3705 45.603 45.4875 45.6317C45.6045 45.6605 45.7295 45.6752 45.8588 45.6752C46.0529 45.6752 46.2346 45.6399 46.3983 45.5704C46.5574 45.5029 46.7044 45.4012 46.8361 45.268L47.1392 45.5587C46.9855 45.73 46.7961 45.8611 46.5762 45.9492C46.4648 45.9949 46.346 46.0298 46.2231 46.0524C46.1011 46.075 45.9714 46.0864 45.8377 46.0864C45.8309 46.0873 45.8244 46.0873 45.8183 46.0873ZM104.571 46.0512H104.083L103.706 45.1935L103.702 45.1846H103.692H101.85H101.84L101.836 45.1935L101.459 46.0509H100.98L102.537 42.6177H103.008L104.571 46.0512ZM102.772 43.071L102.759 43.1015L102.011 44.7983L102.002 44.8188H102.025H103.519H103.542L103.533 44.7983L102.786 43.1015L102.772 43.071ZM91.4573 46.0512H90.9966V43.0349V43.0202H90.9819H89.8076V42.618H92.6466V43.0202H91.4723H91.4576V43.0349V46.0512H91.4573ZM80.7829 46.0512H80.316V42.618H80.7829V46.0512ZM59.3266 46.0512H58.8385L58.4613 45.1937L58.4575 45.1849H58.4478H56.6049H56.5955L56.5917 45.1937L56.2145 46.0512H55.7355L57.2926 42.618H57.7633L59.3266 46.0512ZM57.5252 43.071L57.5117 43.1015L56.764 44.7983L56.7549 44.8188H56.7775H58.2726H58.2952L58.2861 44.7983L57.5387 43.1015L57.5252 43.071ZM115.925 46.0483H113.579V42.618H114.046V45.6344V45.649H114.061H115.925V46.0483H115.925ZM68.7985 46.0483H68.3319V42.6151H69.6696C69.8925 42.6166 70.0939 42.6444 70.2688 42.6981C70.4432 42.7515 70.5955 42.8322 70.7219 42.9378C70.8483 43.0431 70.9444 43.1698 71.008 43.3148C71.0718 43.46 71.1038 43.6272 71.1038 43.8111C71.1038 43.9951 71.0715 44.1623 71.008 44.3075C70.9444 44.4524 70.8483 44.5791 70.7219 44.6845C70.5957 44.7895 70.4432 44.8693 70.2688 44.9218C70.0945 44.974 69.8928 45.0007 69.6696 45.0007H68.8132H68.7985V45.0154V46.0483ZM68.7985 43.0202V43.0349V44.5868V44.6014H68.8132H69.6543C69.8137 44.6014 69.9557 44.5844 70.0762 44.551C70.1974 44.5175 70.3009 44.4662 70.3838 44.3987C70.4681 44.3316 70.5322 44.2474 70.5746 44.1491C70.6163 44.0517 70.6375 43.9379 70.6375 43.8108C70.6375 43.6838 70.6163 43.57 70.5746 43.4726C70.5325 43.3743 70.4681 43.2901 70.3838 43.2226C70.2991 43.1552 70.195 43.1041 70.0742 43.0707C69.9536 43.0372 69.8125 43.0202 69.6546 43.0202H68.8135H68.7985Z" fill="white"/>
        <path d="M45.8179 46.0714C45.824 46.0714 45.8305 46.0714 45.8364 46.0714H45.8367C45.9696 46.0714 46.0984 46.06 46.2195 46.0377C46.3415 46.0151 46.4594 45.9805 46.5697 45.935H46.57C46.7831 45.8496 46.9675 45.7235 47.118 45.5589L46.8357 45.2878C46.7052 45.4175 46.56 45.5167 46.4032 45.5833C46.2374 45.6537 46.054 45.6892 45.8579 45.6892C45.7273 45.6892 45.6015 45.6745 45.483 45.6454C45.3645 45.6164 45.2507 45.5721 45.1443 45.514H45.144C44.9338 45.3967 44.7662 45.2324 44.6462 45.0259C44.5863 44.9232 44.5407 44.8126 44.511 44.697C44.4813 44.5823 44.4663 44.4597 44.4663 44.3321C44.4663 44.2044 44.4813 44.0815 44.511 43.9668C44.541 43.8512 44.5863 43.7403 44.6462 43.6377C44.7633 43.4314 44.9308 43.2675 45.1443 43.1498C45.2504 43.0914 45.3645 43.0471 45.483 43.0178C45.6012 42.9888 45.7273 42.9741 45.8579 42.9741C46.0563 42.9741 46.241 43.0093 46.4065 43.0785C46.5644 43.1448 46.7087 43.2437 46.8357 43.3725L47.118 43.1014C46.9675 42.9371 46.7843 42.811 46.5732 42.7256C46.3477 42.6355 46.1078 42.5915 45.8399 42.5915C45.67 42.5915 45.5059 42.6103 45.3525 42.6476C45.1981 42.6851 45.0502 42.742 44.9132 42.8171C44.775 42.8928 44.6506 42.9835 44.543 43.0867C44.4354 43.1903 44.3416 43.3091 44.2646 43.4405V43.4408C44.1867 43.5717 44.1273 43.7137 44.0882 43.8627C44.0494 44.0108 44.0297 44.1695 44.0297 44.3347C44.0297 44.4978 44.0497 44.6559 44.0894 44.805C44.1285 44.9519 44.1876 45.0933 44.2649 45.2254C44.3419 45.3565 44.4354 45.4756 44.543 45.5791C44.6501 45.6824 44.7735 45.7731 44.9106 45.8485C45.1828 45.9966 45.4883 46.0714 45.8179 46.0714ZM104.548 46.0353L102.998 42.6314H102.546L101.002 46.0353H101.449L101.83 45.169H103.71L103.718 45.1866L104.092 46.0356H104.548V46.0353ZM102.772 43.0331L102.799 43.0941L103.564 44.832H101.98L102.772 43.0331ZM91.4422 46.0353V43.0043H92.6312V42.6314H89.8216V43.0043H91.0106V46.0353H91.4422ZM80.7678 46.0353V42.6314H80.3304V46.0353H80.7678ZM59.3033 46.0353L57.7535 42.6314H57.3016L55.7578 46.0353H56.2044L56.5854 45.169H58.4665L58.4742 45.1866L58.8476 46.0356H59.3033V46.0353ZM57.5248 43.0331L58.3172 44.832H56.7321L56.7504 44.7909L57.5248 43.0331ZM115.91 46.0324V45.6625H114.031V42.6314H113.593V46.0324H115.91ZM68.7834 46.0324V44.9845H69.6692C69.8909 44.9845 70.0911 44.9581 70.264 44.9062C70.4366 44.8542 70.5871 44.7753 70.7118 44.6718C70.8364 44.5679 70.9314 44.443 70.9937 44.3001C71.0567 44.1566 71.0884 43.9918 71.0884 43.8096C71.0884 43.6274 71.0567 43.4625 70.9937 43.3191C70.9311 43.1765 70.8362 43.0512 70.7118 42.9474C70.5868 42.8432 70.436 42.7635 70.2637 42.7106C70.0905 42.6575 69.8903 42.6297 69.6689 42.6282H68.3459V46.0324H68.7834ZM68.7834 43.0043H69.6539C69.813 43.0043 69.9556 43.0213 70.0773 43.0553C70.2002 43.0894 70.3061 43.1416 70.3922 43.2102C70.4786 43.2792 70.5442 43.3654 70.5874 43.4661C70.6298 43.5652 70.6515 43.6811 70.6515 43.8102C70.6515 43.9392 70.6301 44.0551 70.5874 44.154C70.5442 44.2546 70.4786 44.3406 70.3925 44.4092C70.3081 44.4779 70.2029 44.5301 70.0797 44.5641C69.9576 44.5978 69.8145 44.6152 69.6539 44.6152H68.7834V43.0043ZM45.8179 46.1007C45.4774 46.1007 45.1693 46.0224 44.8959 45.8743C44.6171 45.7205 44.3966 45.509 44.239 45.2403C44.0817 44.9719 44 44.6697 44 44.335C44 43.9997 44.0788 43.6949 44.239 43.4262C44.3966 43.1574 44.6171 42.9462 44.8988 42.7919C45.1799 42.6382 45.4948 42.5625 45.8399 42.5625C46.1122 42.5625 46.3574 42.608 46.5841 42.6986C46.8081 42.789 47.0016 42.9251 47.1589 43.1029L46.8351 43.4138C46.5752 43.1387 46.248 43.0031 45.8582 43.0031C45.6006 43.0031 45.368 43.0603 45.159 43.1753C44.9502 43.2903 44.7868 43.4499 44.6721 43.6523C44.5539 43.8545 44.4963 44.0812 44.4963 44.3318C44.4963 44.5823 44.5542 44.8088 44.6721 45.0109C44.7897 45.213 44.9535 45.3732 45.159 45.4882C45.368 45.6026 45.6009 45.6598 45.8582 45.6598C46.2451 45.6598 46.5688 45.5214 46.8351 45.2465L47.1589 45.5571C47.0016 45.7355 46.8078 45.8713 46.5811 45.962C46.3544 46.0553 46.1063 46.1004 45.837 46.1004C45.8305 46.1007 45.824 46.1007 45.8179 46.1007ZM104.593 46.0647H104.073L103.692 45.1984H101.849L101.468 46.0647H100.957L102.527 42.6021H103.017L104.593 46.0647ZM102.772 43.1061L102.025 44.8029H103.519L102.772 43.1061ZM91.4716 46.0647H90.9815V43.0336H89.7925V42.6021H92.6609V43.0336H91.4719V46.0647H91.4716ZM80.7973 46.0647H80.301V42.6021H80.7973V46.0647ZM59.3488 46.0647H58.8284L58.4474 45.1984H56.6045L56.2235 46.0647H55.7122L57.2828 42.6021H57.7727L59.3488 46.0647ZM57.5248 43.1061L56.7771 44.8029H58.2722L57.5248 43.1061ZM115.939 46.0617H113.564V42.6021H114.06V45.6331H115.94V46.0617H115.939ZM68.8128 46.0617H68.3168V42.5992H69.6692C70.1199 42.6021 70.4736 42.7106 70.7309 42.9251C70.9882 43.1395 71.1181 43.4355 71.1181 43.8099C71.1181 44.1842 70.9882 44.4799 70.7309 44.6944C70.4736 44.9085 70.1199 45.0138 69.6692 45.0138H68.8128V46.0617ZM68.8128 43.0336V44.5855H69.6539C69.9718 44.5855 70.2108 44.5189 70.374 44.3863C70.5404 44.2537 70.6221 44.0604 70.6221 43.8099C70.6221 43.5593 70.5404 43.366 70.374 43.2331C70.2076 43.1005 69.9685 43.0339 69.6539 43.0339H68.8128V43.0336Z" fill="white"/>
        <path d="M45.8183 46.0873C45.486 46.0873 45.1782 46.0116 44.9033 45.8626C44.7654 45.7866 44.6407 45.6951 44.5328 45.591C44.4244 45.4862 44.33 45.3662 44.2524 45.2339C44.1744 45.1007 44.1148 44.9582 44.0754 44.8097C44.0354 44.6598 44.0154 44.5002 44.0154 44.336C44.0154 44.1696 44.0351 44.0097 44.0745 43.8604C44.1139 43.7099 44.1739 43.5668 44.2524 43.4347C44.33 43.3021 44.4246 43.1822 44.5334 43.0777C44.6419 42.9736 44.7675 42.882 44.9065 42.8058C45.0447 42.7301 45.1938 42.6726 45.3496 42.6347C45.5043 42.5972 45.6695 42.5781 45.8406 42.5781C46.1105 42.5781 46.3522 42.6224 46.5795 42.7131C46.797 42.8008 46.9855 42.9319 47.1392 43.103L46.8364 43.394C46.7085 43.2614 46.5621 43.1599 46.4019 43.0927C46.2381 43.024 46.0555 42.9894 45.8588 42.9894C45.7295 42.9894 45.6045 43.0041 45.4875 43.0328C45.3702 43.0616 45.2576 43.1056 45.1523 43.1634C44.9412 43.2796 44.7754 43.4418 44.6599 43.646V43.6457C44.6005 43.7472 44.5555 43.8566 44.5261 43.971C44.4967 44.0845 44.482 44.2063 44.482 44.3324C44.482 44.4586 44.497 44.5803 44.5261 44.6939C44.5555 44.808 44.6005 44.9174 44.6599 45.0189C44.7786 45.2231 44.9445 45.3853 45.1523 45.5015C45.2576 45.5593 45.3705 45.603 45.4875 45.6317C45.6045 45.6605 45.7295 45.6752 45.8588 45.6752C46.0529 45.6752 46.2346 45.6399 46.3983 45.5704C46.5574 45.5029 46.7044 45.4012 46.8361 45.268L47.1392 45.5587C46.9855 45.73 46.7961 45.8611 46.5762 45.9492C46.4648 45.9949 46.346 46.0298 46.2231 46.0524C46.1011 46.075 45.9714 46.0864 45.8377 46.0864C45.8309 46.0873 45.8244 46.0873 45.8183 46.0873ZM104.571 46.0512H104.083L103.706 45.1935L103.702 45.1846H103.692H101.85H101.84L101.836 45.1935L101.459 46.0509H100.98L102.537 42.6177H103.008L104.571 46.0512ZM102.772 43.071L102.759 43.1015L102.011 44.7983L102.002 44.8188H102.025H103.519H103.542L103.533 44.7983L102.786 43.1015L102.772 43.071ZM91.4573 46.0512H90.9966V43.0349V43.0202H90.9819H89.8076V42.618H92.6466V43.0202H91.4723H91.4576V43.0349V46.0512H91.4573ZM80.7829 46.0512H80.316V42.618H80.7829V46.0512ZM59.3266 46.0512H58.8385L58.4613 45.1937L58.4575 45.1849H58.4478H56.6049H56.5955L56.5917 45.1937L56.2145 46.0512H55.7355L57.2926 42.618H57.7633L59.3266 46.0512ZM57.5252 43.071L57.5117 43.1015L56.764 44.7983L56.7549 44.8188H56.7775H58.2726H58.2952L58.2861 44.7983L57.5387 43.1015L57.5252 43.071ZM115.925 46.0483H113.579V42.618H114.046V45.6344V45.649H114.061H115.925V46.0483H115.925ZM68.7985 46.0483H68.3319V42.6151H69.6696C69.8925 42.6166 70.0939 42.6444 70.2688 42.6981C70.4432 42.7515 70.5955 42.8322 70.7219 42.9378C70.8483 43.0431 70.9444 43.1698 71.008 43.3148C71.0718 43.46 71.1038 43.6272 71.1038 43.8111C71.1038 43.9951 71.0715 44.1623 71.008 44.3075C70.9444 44.4524 70.8483 44.5791 70.7219 44.6845C70.5957 44.7895 70.4432 44.8693 70.2688 44.9218C70.0945 44.974 69.8928 45.0007 69.6696 45.0007H68.8132H68.7985V45.0154V46.0483ZM68.7985 43.0202V43.0349V44.5868V44.6014H68.8132H69.6543C69.8137 44.6014 69.9557 44.5844 70.0762 44.551C70.1974 44.5175 70.3009 44.4662 70.3838 44.3987C70.4681 44.3316 70.5322 44.2474 70.5746 44.1491C70.6163 44.0517 70.6375 43.9379 70.6375 43.8108C70.6375 43.6838 70.6163 43.57 70.5746 43.4726C70.5325 43.3743 70.4681 43.2901 70.3838 43.2226C70.2991 43.1552 70.195 43.1041 70.0742 43.0707C69.9536 43.0372 69.8125 43.0202 69.6546 43.0202H68.8135H68.7985Z" fill="white"/>
        <path d="M45.8179 46.0714C45.824 46.0714 45.8305 46.0714 45.8364 46.0714H45.8367C45.9696 46.0714 46.0984 46.06 46.2195 46.0377C46.3415 46.0151 46.4594 45.9805 46.5697 45.935H46.57C46.7831 45.8496 46.9675 45.7235 47.118 45.5589L46.8357 45.2878C46.7052 45.4175 46.56 45.5167 46.4032 45.5833C46.2374 45.6537 46.054 45.6892 45.8579 45.6892C45.7273 45.6892 45.6015 45.6745 45.483 45.6454C45.3645 45.6164 45.2507 45.5721 45.1443 45.514H45.144C44.9338 45.3967 44.7662 45.2324 44.6462 45.0259C44.5863 44.9232 44.5407 44.8126 44.511 44.697C44.4813 44.5823 44.4663 44.4597 44.4663 44.3321C44.4663 44.2044 44.4813 44.0815 44.511 43.9668C44.541 43.8512 44.5863 43.7403 44.6462 43.6377C44.7633 43.4314 44.9308 43.2675 45.1443 43.1498C45.2504 43.0914 45.3645 43.0471 45.483 43.0178C45.6012 42.9888 45.7273 42.9741 45.8579 42.9741C46.0563 42.9741 46.241 43.0093 46.4065 43.0785C46.5644 43.1448 46.7087 43.2437 46.8357 43.3725L47.118 43.1014C46.9675 42.9371 46.7843 42.811 46.5732 42.7256C46.3477 42.6355 46.1078 42.5915 45.8399 42.5915C45.67 42.5915 45.5059 42.6103 45.3525 42.6476C45.1981 42.6851 45.0502 42.742 44.9129 42.8171C44.7747 42.8928 44.6504 42.9835 44.5427 43.0867C44.4351 43.1903 44.3413 43.3091 44.2643 43.4405V43.4408C44.1864 43.5717 44.127 43.7137 44.0879 43.8627C44.0491 44.0108 44.0294 44.1695 44.0294 44.3347C44.0294 44.4978 44.0494 44.6559 44.0891 44.805C44.1282 44.9519 44.1873 45.0933 44.2646 45.2254C44.3416 45.3565 44.4351 45.4756 44.5427 45.5791C44.6498 45.6824 44.7732 45.7731 44.9103 45.8485C45.1828 45.9966 45.4883 46.0714 45.8179 46.0714ZM104.548 46.0353L102.998 42.6314H102.546L101.002 46.0353H101.449L101.83 45.169H103.71L103.718 45.1866L104.092 46.0356H104.548V46.0353ZM102.772 43.0331L102.799 43.0941L103.564 44.832H101.98L102.772 43.0331ZM91.4422 46.0353V43.0043H92.6312V42.6314H89.8216V43.0043H91.0106V46.0353H91.4422ZM80.7678 46.0353V42.6314H80.3304V46.0353H80.7678ZM59.3033 46.0353L57.7535 42.6314H57.3016L55.7578 46.0353H56.2044L56.5854 45.169H58.4665L58.4742 45.1866L58.8476 46.0356H59.3033V46.0353ZM57.5248 43.0331L58.3172 44.832H56.7321L56.7504 44.7909L57.5248 43.0331ZM115.91 46.0324V45.6625H114.031V42.6314H113.593V46.0324H115.91ZM68.7834 46.0324V44.9845H69.6692C69.8909 44.9845 70.0911 44.9581 70.264 44.9062C70.4366 44.8542 70.5871 44.7753 70.7118 44.6718C70.8364 44.5679 70.9314 44.443 70.9937 44.3001C71.0567 44.1566 71.0884 43.9918 71.0884 43.8096C71.0884 43.6274 71.0567 43.4625 70.9937 43.3191C70.9311 43.1765 70.8362 43.0512 70.7118 42.9474C70.5868 42.8432 70.436 42.7635 70.2637 42.7106C70.0905 42.6575 69.8903 42.6297 69.6689 42.6282H68.3459V46.0324H68.7834ZM68.7834 43.0043H69.6539C69.813 43.0043 69.9556 43.0213 70.0773 43.0553C70.2002 43.0894 70.3061 43.1416 70.3922 43.2102C70.4786 43.2792 70.5442 43.3654 70.5874 43.4661C70.6298 43.5652 70.6515 43.6811 70.6515 43.8102C70.6515 43.9392 70.6301 44.0551 70.5874 44.154C70.5442 44.2546 70.4786 44.3406 70.3925 44.4092C70.3081 44.4779 70.2029 44.5301 70.0797 44.5641C69.9576 44.5978 69.8145 44.6152 69.6539 44.6152H68.7834V43.0043ZM45.8179 46.1007C45.4774 46.1007 45.1693 46.0224 44.8959 45.8743C44.6171 45.7205 44.3966 45.509 44.239 45.2403C44.0817 44.9719 44 44.6697 44 44.335C44 43.9997 44.0788 43.6949 44.239 43.4262C44.3966 43.1574 44.6171 42.9462 44.8988 42.7919C45.1799 42.6382 45.4948 42.5625 45.8399 42.5625C46.1122 42.5625 46.3574 42.608 46.5841 42.6986C46.8081 42.789 47.0016 42.9251 47.1589 43.1029L46.8351 43.4138C46.5752 43.1387 46.248 43.0031 45.8582 43.0031C45.6006 43.0031 45.368 43.0603 45.159 43.1753C44.9502 43.2903 44.7868 43.4499 44.6721 43.6523C44.5539 43.8545 44.4963 44.0812 44.4963 44.3318C44.4963 44.5823 44.5542 44.8088 44.6721 45.0109C44.7897 45.213 44.9535 45.3732 45.159 45.4882C45.368 45.6026 45.6009 45.6598 45.8582 45.6598C46.2451 45.6598 46.5688 45.5214 46.8351 45.2465L47.1589 45.5571C47.0016 45.7355 46.8078 45.8713 46.5811 45.962C46.3544 46.0553 46.1063 46.1004 45.837 46.1004C45.8305 46.1007 45.824 46.1007 45.8179 46.1007ZM104.593 46.0647H104.073L103.692 45.1984H101.849L101.468 46.0647H100.957L102.527 42.6021H103.017L104.593 46.0647ZM102.772 43.1061L102.025 44.8029H103.519L102.772 43.1061ZM91.4716 46.0647H90.9815V43.0336H89.7925V42.6021H92.6609V43.0336H91.4719V46.0647H91.4716ZM80.7973 46.0647H80.301V42.6021H80.7973V46.0647ZM59.3488 46.0647H58.8284L58.4474 45.1984H56.6045L56.2235 46.0647H55.7122L57.2828 42.6021H57.7727L59.3488 46.0647ZM57.5248 43.1061L56.7771 44.8029H58.2722L57.5248 43.1061ZM115.939 46.0617H113.564V42.6021H114.06V45.6331H115.94V46.0617H115.939ZM68.8128 46.0617H68.3168V42.5992H69.6692C70.1199 42.6021 70.4736 42.7106 70.7309 42.9251C70.9882 43.1395 71.1181 43.4355 71.1181 43.8099C71.1181 44.1842 70.9882 44.4799 70.7309 44.6944C70.4736 44.9085 70.1199 45.0138 69.6692 45.0138H68.8128V46.0617ZM68.8128 43.0336V44.5855H69.6539C69.9718 44.5855 70.2108 44.5189 70.374 44.3863C70.5404 44.2537 70.6221 44.0604 70.6221 43.8099C70.6221 43.5593 70.5404 43.366 70.374 43.2331C70.2076 43.1005 69.9685 43.0339 69.6539 43.0339H68.8128V43.0336Z" fill="white"/>
        <path d="M69.8237 38.5698V31.9252H71.9688L72.5921 31.9343C73.7417 32.0129 76.2349 32.372 78.0019 33.9963C79.2606 35.1557 79.8989 36.6923 79.9021 38.5669H77.2096C77.2096 37.3776 76.8526 36.4717 76.1173 35.7955C75.0524 34.8204 73.4427 34.5458 72.5924 34.4671V38.5698H69.8237ZM50.466 38.5214C47.9064 38.5214 45.9003 37.4254 44.8234 35.4332C44.0551 34.0142 44.0095 32.6374 44.0066 32.4837V26.1348H46.6965V32.4655C46.7115 33.0332 46.9779 36.0005 50.4663 35.9976H54.6448V38.5214H50.466ZM64.7558 38.5094V32.4808H64.7588C64.7012 31.4452 64.3504 30.6423 63.6848 30.0353C62.2417 28.7128 59.7759 28.719 59.7215 28.719V38.5094H56.9531V26.15H59.7215C60.2266 26.1471 63.4551 26.2254 65.6123 28.1968C66.8104 29.2925 67.5245 30.7538 67.5245 32.4808V38.5094H64.7558ZM85.5727 38.4974H81.8123C81.8123 38.4158 81.8299 36.4567 82.9828 34.5243C84.0659 32.7099 86.3562 30.5484 91.1245 30.5484V33.0722C87.3091 33.0722 85.6968 34.8113 85.0129 36.3265H91.1248V38.4968L85.5727 38.4974ZM93.2052 38.4974C93.2052 35.3487 94.8632 33.5947 96.7178 32.692L97.5648 35.1131C96.6631 35.6837 95.8948 36.6949 95.8948 38.4974H93.2052ZM110.648 38.4944C108.385 38.4944 106.551 36.7736 106.551 34.6514V26.1348H109.338V34.0685C109.338 35.285 110.391 36.2722 111.689 36.2722H116V38.4941L110.648 38.4944ZM101.768 38.485L97.4596 26.1348H100.549L104.788 38.485H101.768ZM84.4075 28.3024H81.6391V26.1289H91.1516V28.3024H84.4075Z" fill="white"/>
        <path d="M69.8237 38.5698V31.9252H71.9688L72.5921 31.9343C73.7417 32.0129 76.2349 32.372 78.0019 33.9963C79.2606 35.1557 79.8989 36.6923 79.9021 38.5669H77.2096C77.2096 37.3776 76.8526 36.4717 76.1173 35.7955C75.0524 34.8204 73.4427 34.5458 72.5924 34.4671V38.5698H69.8237ZM50.466 38.5214C47.9064 38.5214 45.9003 37.4254 44.8234 35.4332C44.0551 34.0142 44.0095 32.6374 44.0066 32.4837V26.1348H46.6965V32.4655C46.7115 33.0332 46.9779 36.0005 50.4663 35.9976H54.6448V38.5214H50.466ZM64.7558 38.5094V32.4808H64.7588C64.7012 31.4452 64.3504 30.6423 63.6848 30.0353C62.2417 28.7128 59.7759 28.719 59.7215 28.719V38.5094H56.9531V26.15H59.7215C60.2266 26.1471 63.4551 26.2254 65.6123 28.1968C66.8104 29.2925 67.5245 30.7538 67.5245 32.4808V38.5094H64.7558ZM85.5727 38.4974H81.8123C81.8123 38.4158 81.8299 36.4567 82.9828 34.5243C84.0659 32.7099 86.3562 30.5484 91.1245 30.5484V33.0722C87.3091 33.0722 85.6968 34.8113 85.0129 36.3265H91.1248V38.4968L85.5727 38.4974ZM93.2052 38.4974C93.2052 35.3487 94.8632 33.5947 96.7178 32.692L97.5648 35.1131C96.6631 35.6837 95.8948 36.6949 95.8948 38.4974H93.2052ZM110.648 38.4944C108.385 38.4944 106.551 36.7736 106.551 34.6514V26.1348H109.338V34.0685C109.338 35.285 110.391 36.2722 111.689 36.2722H116V38.4941L110.648 38.4944ZM101.768 38.485L97.4596 26.1348H100.549L104.788 38.485H101.768ZM84.4075 28.3024H81.6391V26.1289H91.1516V28.3024H84.4075Z" fill="white"/>
        <path d="M51.9841 26.1357V32.7804H54.7525V26.1357H51.9841Z" fill="white"/>
        <path d="M51.99 26.1318H54.7537L54.5185 26.3959H52.2546L51.99 26.1318Z" fill="white"/>
        <path opacity="0.77" d="M51.99 32.7894H54.7537L54.5185 32.5254H52.2546L51.99 32.7894Z" fill="white"/>
        <path opacity="0.597" d="M51.99 32.7736V26.1318L52.2546 26.3665V32.5095L51.99 32.7736Z" fill="white"/>
        <path d="M54.7514 32.7736V26.1318L54.4868 26.3665V32.5095L54.7514 32.7736Z" fill="white"/>
        <path d="M73.3721 28.3575H74.0651C76.5128 28.3575 77.1178 30.6005 77.1178 31.9347H79.8862V31.9165C79.8862 29.3174 78.6064 26.2109 74.8548 26.2109H69.8231V28.3575H73.3721Z" fill="white"/>
        <path d="M69.8231 28.361V26.2109L70.0877 26.482V28.0964L69.8231 28.361Z" fill="white"/>
        <path opacity="0.658" d="M69.8231 26.2109H74.8545C78.6061 26.2109 79.8859 29.3174 79.8859 31.9165V31.9347L79.6172 31.6707C79.5378 29.2188 78.2586 26.475 74.8542 26.475H70.0874L69.8231 26.2109Z" fill="white"/>
        <path opacity="0.77" d="M77.3742 31.6719H79.6169L79.8856 31.9177V31.9359H77.1172" fill="white"/>
        <path opacity="0.386" d="M70.0825 28.1016H74.0599C76.5231 28.1016 77.2875 30.2378 77.3695 31.6788L77.1126 31.9429C77.1126 30.6086 76.5075 28.3656 74.0599 28.3656H69.8179L70.0825 28.1016Z" fill="white"/>
    </g>
    <defs>
        <filter id="filter0_b_4614_2859" x="-4" y="-4.00098" width="168" height="80.001" filterUnits="userSpaceOnUse" color-interpolation-filters="sRGB">
            <feFlood flood-opacity="0" result="BackgroundImageFix"/>
            <feGaussianBlur in="BackgroundImage" stdDeviation="2"/>
            <feComposite in2="SourceAlpha" operator="in" result="effect1_backgroundBlur_4614_2859"/>
            <feBlend mode="normal" in="SourceGraphic" in2="effect1_backgroundBlur_4614_2859" result="shape"/>
        </filter>
        <linearGradient id="paint0_linear_4614_2859" x1="80" y1="-0.000976563" x2="80" y2="72.77" gradientUnits="userSpaceOnUse">
            <stop stop-color="#101011"/>
            <stop offset="0.623266" stop-color="#101011" stop-opacity="0.267357"/>
            <stop offset="1" stop-color="#101011" stop-opacity="0"/>
        </linearGradient>
        <linearGradient id="paint1_linear_4614_2859" x1="80" y1="-0.000976563" x2="80" y2="72.0003" gradientUnits="userSpaceOnUse">
            <stop stop-color="#632BFF"/>
            <stop offset="1" stop-opacity="0"/>
        </linearGradient>
        <clipPath id="clip0_4614_2859">
            <rect width="72" height="72" fill="white" transform="translate(44)"/>
        </clipPath>
    </defs>
</svg>
