<svg width="445" height="363" viewBox="0 0 445 363" fill="none"
    xmlns="http://www.w3.org/2000/svg">
    <g filter="url(#filter0_f_1539_35140)">
        <ellipse rx="100.327" ry="63.6558" transform="matrix(-1 -8.74228e-08 -0.301031 -0.953614 222.489 181.387)" fill="url(#paint0_linear_1539_35140)"/>
    </g>
    <path d="M259.894 215.394C255.53 219.759 250.349 223.221 244.646 225.582C238.944 227.944 232.832 229.16 226.66 229.16C220.488 229.16 214.376 227.944 208.674 225.582C202.972 223.221 197.79 219.759 193.426 215.394" stroke="url(#paint1_linear_1539_35140)" stroke-miterlimit="10" stroke-linecap="round"/>
    <path d="M254.944 210.444C251.23 214.159 246.821 217.105 241.967 219.115C237.114 221.126 231.913 222.16 226.66 222.16C221.407 222.16 216.206 221.126 211.353 219.115C206.5 217.105 202.09 214.159 198.376 210.444" stroke="url(#paint2_linear_1539_35140)" stroke-miterlimit="10" stroke-linecap="round"/>
    <path d="M249.995 205.495C246.93 208.559 243.292 210.99 239.289 212.648C235.285 214.307 230.994 215.16 226.66 215.16C222.327 215.16 218.035 214.307 214.032 212.648C210.028 210.99 206.39 208.559 203.326 205.495" stroke="url(#paint3_linear_1539_35140)" stroke-miterlimit="10" stroke-linecap="round"/>
    <path d="M262.015 139.735C266.38 144.099 269.842 149.28 272.204 154.983C274.566 160.685 275.781 166.797 275.781 172.969C275.781 179.141 274.566 185.253 272.204 190.955C269.842 196.657 266.38 201.838 262.015 206.203" stroke="url(#paint4_linear_1539_35140)" stroke-miterlimit="10" stroke-linecap="round"/>
    <path d="M257.066 144.684C260.78 148.399 263.726 152.808 265.736 157.661C267.747 162.514 268.781 167.716 268.781 172.969C268.781 178.222 267.747 183.423 265.736 188.276C263.726 193.129 260.78 197.539 257.066 201.253" stroke="url(#paint5_linear_1539_35140)" stroke-miterlimit="10" stroke-linecap="round"/>
    <path d="M252.116 149.634C255.18 152.699 257.611 156.336 259.269 160.34C260.928 164.344 261.781 168.635 261.781 172.969C261.781 177.302 260.928 181.594 259.269 185.597C257.611 189.601 255.18 193.239 252.116 196.303" stroke="url(#paint6_linear_1539_35140)" stroke-miterlimit="10" stroke-linecap="round"/>
    <path d="M186.356 137.614C190.72 133.249 195.901 129.787 201.604 127.425C207.306 125.063 213.418 123.848 219.59 123.848C225.762 123.848 231.874 125.063 237.576 127.425C243.278 129.787 248.46 133.249 252.824 137.614" stroke="url(#paint7_linear_1539_35140)" stroke-miterlimit="10" stroke-linecap="round"/>
    <path d="M191.306 142.563C195.02 138.849 199.429 135.903 204.283 133.892C209.136 131.882 214.337 130.848 219.59 130.848C224.843 130.848 230.044 131.882 234.897 133.892C239.75 135.903 244.16 138.849 247.874 142.563" stroke="url(#paint8_linear_1539_35140)" stroke-miterlimit="10" stroke-linecap="round"/>
    <path d="M196.255 147.513C199.32 144.449 202.958 142.018 206.961 140.36C210.965 138.701 215.256 137.848 219.59 137.848C223.923 137.848 228.215 138.701 232.218 140.36C236.222 142.018 239.86 144.449 242.924 147.513" stroke="url(#paint9_linear_1539_35140)" stroke-miterlimit="10" stroke-linecap="round"/>
    <path d="M184.235 213.273C179.87 208.909 176.408 203.727 174.046 198.025C171.684 192.323 170.469 186.211 170.469 180.039C170.469 173.867 171.684 167.755 174.046 162.053C176.408 156.351 179.87 151.169 184.235 146.805" stroke="url(#paint10_linear_1539_35140)" stroke-miterlimit="10" stroke-linecap="round"/>
    <path d="M189.184 208.323C185.47 204.609 182.524 200.199 180.514 195.346C178.503 190.493 177.469 185.292 177.469 180.039C177.469 174.786 178.503 169.585 180.514 164.732C182.524 159.879 185.47 155.469 189.184 151.755" stroke="url(#paint11_linear_1539_35140)" stroke-miterlimit="10" stroke-linecap="round"/>
    <path d="M194.134 203.374C191.07 200.309 188.639 196.671 186.981 192.668C185.322 188.664 184.469 184.373 184.469 180.039C184.469 175.705 185.322 171.414 186.981 167.411C188.639 163.407 191.07 159.769 194.134 156.705" stroke="url(#paint12_linear_1539_35140)" stroke-miterlimit="10" stroke-linecap="round"/>
    <g filter="url(#filter1_d_1539_35140)">
        <path d="M238.773 182.476C238.033 185.239 236.578 187.759 234.556 189.781C232.533 191.804 230.014 193.259 227.25 193.999L226.282 190.386C228.411 189.815 230.352 188.694 231.911 187.136C233.469 185.578 234.59 183.636 235.16 181.508L238.773 182.476Z" fill="#53FDA9"/>
    </g>
    <path d="M207.225 173.794C206.296 177.259 206.537 180.933 207.91 184.248C209.283 187.562 211.711 190.33 214.817 192.124C217.924 193.918 221.536 194.636 225.092 194.168C228.649 193.7 231.952 192.071 234.488 189.534C237.025 186.998 238.654 183.695 239.122 180.138C239.59 176.582 238.872 172.97 237.078 169.863C235.284 166.757 232.516 164.329 229.202 162.956C225.887 161.583 222.213 161.342 218.748 162.271L220.536 168.943C222.532 168.408 224.649 168.547 226.558 169.338C228.467 170.129 230.062 171.528 231.095 173.317C232.129 175.107 232.543 177.188 232.273 179.237C232.003 181.286 231.065 183.188 229.604 184.65C228.142 186.111 226.24 187.049 224.191 187.319C222.142 187.589 220.061 187.175 218.271 186.141C216.482 185.108 215.083 183.513 214.292 181.604C213.501 179.695 213.362 177.578 213.897 175.582L207.225 173.794Z" stroke="url(#paint13_linear_1539_35140)" stroke-width="0.25" stroke-miterlimit="10" stroke-linecap="round"/>
    <g filter="url(#filter2_d_1539_35140)">
        <path d="M217.117 174.609C216.369 175.904 216.07 177.41 216.265 178.893C216.46 180.375 217.139 181.752 218.197 182.809C219.254 183.867 220.631 184.546 222.113 184.741C223.596 184.936 225.101 184.637 226.396 183.889C227.691 183.141 228.704 181.987 229.276 180.606C229.848 179.224 229.948 177.692 229.561 176.248C229.174 174.803 228.322 173.527 227.135 172.617C225.949 171.706 224.495 171.213 223 171.213L223 178.006L217.117 174.609Z" fill="white"/>
    </g>
    <g filter="url(#filter3_d_1539_35140)">
        <ellipse cx="221.764" cy="181.113" rx="110" ry="29" stroke="url(#paint14_linear_1539_35140)" stroke-linecap="round" stroke-linejoin="round" stroke-dasharray="2 2" shape-rendering="crispEdges"/>
    </g>
    <path d="M222.254 101.05C222.419 101.028 222.585 101.013 222.751 101.006L222.756 101.13C222.837 101.127 222.919 101.125 223 101.125C223.081 101.125 223.163 101.127 223.244 101.13L223.249 101.006C223.415 101.013 223.581 101.028 223.746 101.05L223.729 101.174C223.889 101.195 224.049 101.224 224.208 101.259L224.236 101.137C224.396 101.173 224.556 101.215 224.715 101.265L224.678 101.384C224.833 101.432 224.988 101.487 225.143 101.548L225.189 101.432C225.34 101.492 225.49 101.558 225.639 101.63L225.585 101.742C225.732 101.813 225.878 101.889 226.024 101.972L226.086 101.863C226.227 101.943 226.367 102.028 226.507 102.118L226.44 102.223C226.575 102.31 226.711 102.403 226.846 102.5L226.919 102.399C227.053 102.496 227.187 102.598 227.32 102.705L227.242 102.803C227.366 102.902 227.489 103.006 227.613 103.114L227.695 103.02C227.82 103.129 227.944 103.242 228.067 103.359L227.981 103.45C228.099 103.562 228.216 103.677 228.333 103.797L228.422 103.709C228.535 103.825 228.648 103.944 228.761 104.066L228.668 104.151C228.78 104.273 228.891 104.398 229.002 104.526L229.097 104.445C229.203 104.569 229.31 104.696 229.416 104.826L229.319 104.905C229.42 105.03 229.521 105.157 229.622 105.288L229.721 105.211C229.823 105.343 229.924 105.477 230.025 105.614L229.924 105.688C230.021 105.821 230.119 105.956 230.216 106.094L230.318 106.023C230.411 106.155 230.503 106.289 230.595 106.426L230.491 106.495C230.582 106.631 230.674 106.77 230.764 106.911L230.87 106.843C230.961 106.985 231.052 107.129 231.142 107.275L231.036 107.341C231.121 107.477 231.205 107.616 231.289 107.756L231.396 107.692C231.48 107.832 231.563 107.974 231.646 108.118L231.538 108.181C231.621 108.324 231.703 108.47 231.785 108.617L231.895 108.556C231.976 108.703 232.058 108.851 232.139 109.002L232.029 109.061C232.105 109.202 232.181 109.345 232.256 109.49L232.367 109.432C232.443 109.577 232.518 109.724 232.594 109.873L232.482 109.929C232.557 110.077 232.632 110.227 232.707 110.379L232.819 110.323C232.893 110.474 232.967 110.626 233.041 110.78L232.928 110.834C232.997 110.979 233.066 111.126 233.135 111.274L233.249 111.221C233.318 111.369 233.387 111.519 233.455 111.671L233.341 111.722C233.41 111.873 233.478 112.026 233.546 112.18L233.661 112.129C233.729 112.283 233.797 112.439 233.864 112.596L233.749 112.646C233.813 112.794 233.877 112.944 233.941 113.095L234.056 113.047C234.119 113.197 234.182 113.349 234.245 113.502L234.13 113.55C234.192 113.702 234.255 113.856 234.317 114.011L234.433 113.965C234.495 114.12 234.557 114.277 234.619 114.435L234.503 114.48C234.564 114.635 234.624 114.791 234.684 114.948L234.801 114.903C234.859 115.055 234.917 115.207 234.975 115.361L234.857 115.405C234.915 115.558 234.972 115.713 235.03 115.868L235.147 115.825C235.204 115.981 235.261 116.138 235.318 116.296L235.2 116.338C235.257 116.496 235.314 116.655 235.37 116.815L235.488 116.773C235.543 116.929 235.597 117.086 235.652 117.244L235.534 117.284C235.587 117.438 235.639 117.593 235.692 117.748L235.811 117.708C235.863 117.864 235.916 118.021 235.968 118.179L235.85 118.218C235.902 118.376 235.954 118.534 236.006 118.693L236.125 118.655C236.177 118.814 236.228 118.975 236.28 119.136L236.161 119.174C236.211 119.332 236.261 119.49 236.311 119.649L236.43 119.612C236.479 119.768 236.528 119.924 236.576 120.081L236.456 120.118C236.472 120.17 236.489 120.223 236.505 120.275C236.537 120.38 236.569 120.486 236.601 120.591L236.72 120.555C236.768 120.714 236.816 120.874 236.864 121.034L236.744 121.07C236.791 121.23 236.839 121.391 236.886 121.553L237.006 121.518C237.053 121.679 237.099 121.84 237.146 122.003L237.026 122.037C237.07 122.193 237.115 122.35 237.159 122.508L237.28 122.474C237.324 122.632 237.368 122.791 237.412 122.951L237.292 122.984C237.336 123.143 237.38 123.303 237.423 123.464L237.544 123.431C237.588 123.592 237.631 123.754 237.675 123.916L237.554 123.948C237.597 124.11 237.64 124.273 237.683 124.437L237.804 124.405C237.846 124.564 237.887 124.724 237.929 124.885L237.808 124.916C237.849 125.075 237.889 125.233 237.93 125.393L238.051 125.362C238.092 125.522 238.132 125.682 238.172 125.843L238.051 125.873C238.091 126.034 238.131 126.196 238.171 126.358L238.292 126.328C238.332 126.49 238.372 126.653 238.411 126.816L238.29 126.846C238.329 127.009 238.368 127.173 238.408 127.338L238.529 127.309C238.567 127.468 238.605 127.628 238.642 127.788L238.521 127.817C238.558 127.976 238.595 128.136 238.632 128.297L238.754 128.269C238.791 128.43 238.828 128.591 238.864 128.753L238.742 128.781C238.779 128.942 238.815 129.105 238.852 129.268L238.974 129.24C239.01 129.403 239.046 129.567 239.082 129.731L238.96 129.758C238.996 129.922 239.032 130.087 239.068 130.252L239.19 130.225C239.224 130.386 239.259 130.546 239.293 130.708L239.171 130.734C239.205 130.894 239.239 131.055 239.272 131.216L239.395 131.191C239.429 131.352 239.462 131.514 239.496 131.677L239.373 131.702C239.383 131.75 239.393 131.797 239.403 131.845C239.405 131.856 239.407 131.867 239.409 131.878C239.431 131.982 239.452 132.086 239.473 132.191L239.595 132.166C239.629 132.329 239.662 132.493 239.694 132.658L239.572 132.682C239.584 132.745 239.597 132.808 239.609 132.871C239.629 132.973 239.65 133.075 239.67 133.177L239.792 133.153C239.824 133.315 239.856 133.478 239.887 133.641L239.765 133.664C239.796 133.825 239.827 133.987 239.857 134.148L239.98 134.125C240.011 134.287 240.042 134.449 240.072 134.612L239.949 134.635C239.962 134.706 239.975 134.776 239.989 134.846C240.006 134.939 240.023 135.032 240.04 135.125L240.163 135.102C240.193 135.266 240.223 135.43 240.253 135.595L240.13 135.617C240.16 135.782 240.19 135.947 240.219 136.112L240.342 136.09C240.372 136.255 240.401 136.42 240.43 136.585L240.307 136.607C240.335 136.768 240.363 136.929 240.391 137.092L240.515 137.07C240.543 137.232 240.57 137.395 240.598 137.558L240.475 137.579C240.503 137.742 240.53 137.905 240.558 138.069L240.681 138.048C240.708 138.212 240.736 138.376 240.763 138.541L240.64 138.561C240.647 138.609 240.655 138.657 240.663 138.705C240.665 138.716 240.667 138.727 240.669 138.738C240.686 138.844 240.703 138.95 240.721 139.056L240.844 139.036C240.871 139.201 240.897 139.367 240.924 139.533L240.801 139.553C240.827 139.716 240.853 139.88 240.878 140.044L241.002 140.025C241.027 140.187 241.053 140.35 241.078 140.513L240.954 140.532C240.98 140.694 241.005 140.858 241.029 141.021L241.153 141.002C241.178 141.166 241.203 141.33 241.227 141.495L241.104 141.513C241.128 141.677 241.153 141.842 241.177 142.007L241.301 141.989C241.325 142.154 241.349 142.32 241.373 142.485L241.25 142.503C241.274 142.669 241.297 142.835 241.321 143.002L241.445 142.984C241.468 143.148 241.491 143.311 241.514 143.475L241.39 143.493C241.413 143.656 241.436 143.819 241.458 143.982L241.582 143.965C241.605 144.128 241.627 144.292 241.649 144.456L241.526 144.473C241.548 144.637 241.57 144.802 241.592 144.966L241.716 144.95C241.738 145.115 241.759 145.28 241.781 145.445L241.657 145.462C241.679 145.627 241.7 145.793 241.722 145.959L241.846 145.943C241.867 146.109 241.888 146.275 241.909 146.442L241.785 146.458C241.806 146.622 241.827 146.786 241.847 146.95L241.971 146.935C241.991 147.098 242.011 147.262 242.031 147.426L241.907 147.441C241.915 147.506 241.923 147.57 241.931 147.635C241.933 147.65 241.935 147.665 241.936 147.68C241.947 147.764 241.957 147.849 241.967 147.933L242.091 147.918C242.111 148.083 242.13 148.247 242.15 148.413L242.026 148.427C242.045 148.592 242.064 148.757 242.084 148.923L242.208 148.909C242.227 149.074 242.246 149.24 242.265 149.406L242.141 149.421C242.159 149.587 242.178 149.753 242.197 149.92L242.321 149.906C242.339 150.071 242.358 150.236 242.376 150.402L242.251 150.415C242.269 150.579 242.287 150.743 242.305 150.907L242.429 150.893C242.447 151.057 242.464 151.222 242.481 151.386L242.357 151.399C242.374 151.564 242.392 151.729 242.409 151.894L242.533 151.881C242.55 152.046 242.567 152.212 242.584 152.377L242.459 152.39C242.472 152.512 242.484 152.633 242.496 152.755L242.509 152.888L242.634 152.875C242.65 153.042 242.666 153.208 242.683 153.375L242.558 153.387C242.574 153.553 242.59 153.72 242.606 153.887L242.731 153.875C242.746 154.039 242.762 154.202 242.777 154.367L242.653 154.378C242.668 154.542 242.683 154.707 242.698 154.871L242.823 154.86C242.838 155.025 242.853 155.19 242.868 155.355L242.743 155.366C242.758 155.531 242.773 155.697 242.787 155.862L242.912 155.851C242.926 156.017 242.94 156.183 242.955 156.349L242.83 156.36C242.844 156.526 242.859 156.692 242.872 156.859L242.997 156.848C243.011 157.015 243.025 157.182 243.039 157.349L242.914 157.359C242.92 157.439 242.927 157.518 242.933 157.598C242.939 157.667 242.945 157.737 242.95 157.807C242.952 157.823 242.953 157.839 242.954 157.855L243.079 157.845C243.092 158.009 243.105 158.174 243.118 158.339L242.993 158.348C243 158.434 243.007 158.52 243.013 158.606C243.019 158.685 243.025 158.764 243.031 158.843L243.156 158.833C243.169 158.999 243.181 159.164 243.193 159.33L243.069 159.339C243.075 159.421 243.081 159.504 243.087 159.586C243.092 159.654 243.097 159.721 243.102 159.789C243.103 159.805 243.104 159.82 243.105 159.836L243.23 159.827C243.242 159.993 243.254 160.159 243.266 160.326L243.141 160.334C243.146 160.404 243.151 160.474 243.156 160.543C243.163 160.64 243.17 160.737 243.176 160.834L243.301 160.826C243.313 160.993 243.324 161.16 243.335 161.327L243.21 161.335C243.222 161.5 243.232 161.665 243.243 161.829L243.368 161.821C243.379 161.986 243.389 162.151 243.4 162.316L243.275 162.324C243.279 162.378 243.282 162.432 243.286 162.487C243.293 162.598 243.3 162.708 243.306 162.819L243.431 162.812C243.441 162.977 243.452 163.143 243.462 163.309L243.337 163.316C243.347 163.482 243.357 163.648 243.366 163.814L243.491 163.807C243.501 163.973 243.51 164.139 243.52 164.306L243.395 164.313C243.405 164.48 243.414 164.646 243.423 164.813L243.548 164.806C243.557 164.973 243.566 165.14 243.575 165.308L243.45 165.314C243.459 165.479 243.468 165.643 243.476 165.808L243.601 165.802C243.609 165.967 243.618 166.132 243.626 166.297L243.501 166.303C243.509 166.469 243.518 166.634 243.526 166.8L243.65 166.794C243.658 166.959 243.666 167.125 243.674 167.291L243.549 167.297C243.557 167.463 243.564 167.629 243.572 167.795L243.697 167.79C243.704 167.956 243.711 168.122 243.719 168.289L243.594 168.295C243.601 168.461 243.608 168.628 243.615 168.795L243.74 168.79C243.747 168.957 243.753 169.124 243.76 169.291L243.635 169.296C243.642 169.46 243.648 169.625 243.654 169.79L243.779 169.786C243.786 169.951 243.792 170.116 243.798 170.281L243.673 170.286C243.679 170.451 243.685 170.617 243.69 170.783L243.815 170.778C243.821 170.944 243.827 171.11 243.832 171.276L243.707 171.28C243.713 171.446 243.718 171.612 243.723 171.779L243.848 171.775C243.854 171.941 243.859 172.108 243.864 172.274L243.739 172.278C243.744 172.445 243.748 172.612 243.753 172.779L243.878 172.775C243.883 172.942 243.887 173.109 243.892 173.276L243.767 173.28C243.771 173.445 243.775 173.61 243.78 173.775L243.904 173.772C243.909 173.937 243.913 174.102 243.916 174.268L243.791 174.271C243.795 174.436 243.799 174.602 243.803 174.768L243.928 174.765C243.931 174.931 243.935 175.097 243.938 175.263L243.813 175.265C243.816 175.431 243.819 175.597 243.822 175.764L243.947 175.762C243.951 175.928 243.953 176.094 243.956 176.261L243.831 176.263C243.834 176.43 243.837 176.596 243.839 176.763L243.964 176.761C243.967 176.928 243.969 177.095 243.971 177.263L243.846 177.264C243.849 177.43 243.851 177.595 243.853 177.761L243.978 177.759C243.98 177.925 243.982 178.09 243.983 178.256L243.858 178.257C243.859 178.312 243.859 178.368 243.86 178.423C243.86 178.442 243.86 178.46 243.86 178.479C243.861 178.553 243.862 178.628 243.863 178.702C243.863 178.719 243.863 178.737 243.863 178.754L243.988 178.753C243.989 178.919 243.991 179.085 243.992 179.251L243.867 179.251C243.868 179.417 243.869 179.584 243.87 179.75L243.995 179.749C243.996 179.915 243.997 180.082 243.998 180.248L243.873 180.249C243.873 180.415 243.874 180.582 243.874 180.749L243.999 180.749C244 180.915 244 181.082 244 181.249L243.875 181.249L243.875 181.5L243.875 181.751L244 181.751C244 181.918 244 182.085 243.999 182.251L243.874 182.251C243.874 182.418 243.873 182.584 243.873 182.751L243.998 182.751C243.997 182.918 243.996 183.084 243.995 183.251L243.87 183.25C243.869 183.416 243.868 183.582 243.867 183.748L243.992 183.749C243.991 183.915 243.989 184.081 243.988 184.247L243.863 184.246C243.862 184.412 243.86 184.577 243.858 184.743L243.983 184.744C243.982 184.91 243.98 185.075 243.978 185.241L243.853 185.239C243.851 185.405 243.849 185.57 243.846 185.736L243.971 185.737C243.969 185.905 243.967 186.072 243.964 186.239L243.839 186.237C243.837 186.404 243.834 186.57 243.831 186.737L243.956 186.739C243.953 186.906 243.951 187.072 243.947 187.238L243.822 187.236C243.819 187.403 243.816 187.569 243.813 187.735L243.938 187.737C243.935 187.903 243.931 188.069 243.928 188.235L243.803 188.232C243.799 188.398 243.795 188.564 243.791 188.729L243.916 188.732C243.913 188.898 243.909 189.063 243.904 189.228L243.78 189.225C243.775 189.39 243.771 189.555 243.767 189.72L243.892 189.724C243.887 189.891 243.883 190.058 243.878 190.225L243.753 190.221C243.751 190.284 243.75 190.347 243.748 190.409C243.745 190.514 243.742 190.618 243.739 190.722L243.864 190.726C243.859 190.892 243.854 191.059 243.848 191.225L243.723 191.221C243.718 191.388 243.713 191.554 243.707 191.72L243.832 191.724C243.827 191.89 243.821 192.056 243.815 192.222L243.69 192.217C243.688 192.297 243.685 192.376 243.682 192.455C243.679 192.541 243.676 192.628 243.673 192.714L243.798 192.719C243.792 192.884 243.786 193.049 243.779 193.214L243.654 193.21C243.648 193.375 243.642 193.54 243.635 193.704L243.76 193.709C243.753 193.876 243.747 194.043 243.74 194.21L243.615 194.205C243.611 194.288 243.608 194.37 243.604 194.453C243.601 194.537 243.597 194.621 243.594 194.705L243.719 194.711C243.711 194.878 243.704 195.044 243.697 195.21L243.572 195.205C243.564 195.371 243.557 195.537 243.549 195.703L243.674 195.709C243.666 195.875 243.658 196.041 243.65 196.206L243.526 196.2C243.518 196.366 243.509 196.531 243.501 196.697L243.626 196.703C243.618 196.868 243.609 197.033 243.601 197.198L243.476 197.192C243.468 197.357 243.459 197.521 243.45 197.686L243.575 197.693C243.566 197.86 243.557 198.027 243.548 198.194L243.423 198.187C243.414 198.354 243.405 198.52 243.395 198.687L243.52 198.694C243.51 198.861 243.501 199.027 243.491 199.193L243.366 199.186C243.357 199.352 243.347 199.518 243.337 199.684L243.462 199.691C243.452 199.857 243.441 200.023 243.431 200.188L243.306 200.181C243.296 200.346 243.286 200.511 243.275 200.676L243.4 200.684C243.389 200.849 243.379 201.014 243.368 201.179L243.243 201.171C243.232 201.336 243.222 201.5 243.21 201.665L243.335 201.673C243.324 201.84 243.313 202.008 243.301 202.174L243.176 202.166C243.165 202.333 243.153 202.499 243.141 202.666L243.266 202.674C243.254 202.841 243.242 203.007 243.23 203.173L243.105 203.164C243.093 203.33 243.081 203.496 243.069 203.661L243.193 203.671C243.181 203.836 243.169 204.002 243.156 204.167L243.031 204.157C243.019 204.322 243.006 204.487 242.993 204.652L243.118 204.661C243.105 204.826 243.092 204.991 243.079 205.155L242.954 205.145C242.941 205.311 242.927 205.476 242.914 205.641L243.039 205.651C243.025 205.818 243.011 205.985 242.997 206.152L242.872 206.141C242.858 206.308 242.844 206.474 242.83 206.64L242.955 206.651C242.94 206.817 242.926 206.983 242.912 207.149L242.787 207.138C242.773 207.304 242.758 207.469 242.743 207.634L242.868 207.645C242.853 207.81 242.838 207.975 242.823 208.14L242.698 208.129C242.683 208.293 242.668 208.458 242.653 208.622L242.777 208.633C242.762 208.798 242.746 208.962 242.731 209.125L242.606 209.113C242.59 209.28 242.574 209.447 242.558 209.613L242.683 209.625C242.666 209.792 242.65 209.958 242.634 210.125L242.509 210.112C242.493 210.279 242.476 210.444 242.459 210.61L242.584 210.623C242.567 210.788 242.55 210.954 242.533 211.119L242.409 211.106C242.392 211.271 242.374 211.436 242.357 211.601L242.481 211.614C242.464 211.778 242.446 211.943 242.429 212.107L242.305 212.093C242.287 212.257 242.269 212.421 242.251 212.585L242.376 212.598C242.358 212.764 242.339 212.929 242.321 213.094L242.197 213.08C242.178 213.247 242.159 213.413 242.141 213.58L242.265 213.594C242.246 213.76 242.227 213.926 242.208 214.092L242.084 214.077C242.064 214.243 242.045 214.408 242.026 214.573L242.15 214.588C242.13 214.753 242.111 214.917 242.091 215.082L241.967 215.067C241.947 215.231 241.927 215.395 241.907 215.559L242.031 215.574C242.011 215.738 241.991 215.902 241.971 216.065L241.847 216.05C241.827 216.214 241.806 216.378 241.785 216.542L241.909 216.558C241.888 216.725 241.867 216.891 241.846 217.057L241.722 217.041C241.7 217.207 241.679 217.373 241.657 217.538L241.781 217.555C241.759 217.72 241.738 217.885 241.716 218.05L241.592 218.034C241.57 218.198 241.548 218.363 241.525 218.527L241.649 218.544C241.627 218.708 241.605 218.872 241.582 219.035L241.458 219.018C241.436 219.181 241.413 219.345 241.39 219.507L241.514 219.525C241.491 219.689 241.468 219.853 241.445 220.016L241.321 219.998C241.297 220.165 241.274 220.331 241.25 220.497L241.373 220.515C241.349 220.68 241.325 220.846 241.301 221.011L241.177 220.993C241.153 221.158 241.128 221.323 241.104 221.487L241.227 221.505C241.203 221.67 241.178 221.834 241.153 221.998L241.029 221.979C241.005 222.142 240.98 222.306 240.954 222.468L241.078 222.488C241.053 222.651 241.027 222.813 241.002 222.975L240.878 222.956C240.853 223.12 240.827 223.284 240.801 223.447L240.924 223.467C240.897 223.633 240.871 223.799 240.844 223.965L240.721 223.945C240.694 224.11 240.667 224.275 240.64 224.439L240.763 224.46C240.736 224.624 240.708 224.788 240.681 224.952L240.558 224.931C240.53 225.095 240.503 225.258 240.475 225.421L240.598 225.442C240.57 225.605 240.543 225.768 240.515 225.93L240.391 225.909C240.363 226.071 240.335 226.232 240.307 226.393L240.43 226.415C240.401 226.581 240.372 226.746 240.342 226.91L240.219 226.888C240.19 227.054 240.16 227.218 240.13 227.383L240.253 227.405C240.223 227.57 240.193 227.734 240.163 227.898L240.04 227.875C240.01 228.039 239.98 228.202 239.949 228.365L240.072 228.388C240.042 228.551 240.011 228.713 239.98 228.875L239.857 228.852C239.827 229.013 239.796 229.175 239.765 229.336L239.887 229.359C239.856 229.522 239.824 229.685 239.792 229.847L239.67 229.823C239.637 229.988 239.605 230.153 239.572 230.318L239.694 230.342C239.662 230.507 239.629 230.671 239.595 230.834L239.473 230.809C239.44 230.973 239.407 231.136 239.373 231.298L239.496 231.323C239.462 231.486 239.429 231.648 239.395 231.809L239.272 231.784C239.239 231.945 239.205 232.106 239.171 232.266L239.293 232.292C239.259 232.454 239.224 232.614 239.19 232.775L239.068 232.748C239.032 232.913 238.996 233.078 238.96 233.242L239.082 233.269C239.046 233.433 239.01 233.597 238.974 233.76L238.852 233.732C238.815 233.895 238.779 234.058 238.742 234.22L238.864 234.247C238.828 234.409 238.791 234.57 238.754 234.731L238.632 234.703C238.595 234.864 238.558 235.024 238.52 235.183L238.642 235.212C238.605 235.372 238.567 235.532 238.529 235.691L238.408 235.663C238.368 235.827 238.329 235.991 238.29 236.154L238.411 236.184C238.372 236.347 238.332 236.51 238.292 236.672L238.171 236.643C238.131 236.805 238.091 236.966 238.051 237.127L238.172 237.157C238.132 237.318 238.092 237.478 238.051 237.638L237.93 237.607C237.889 237.767 237.849 237.926 237.808 238.084L237.929 238.115C237.887 238.276 237.846 238.436 237.804 238.595L237.683 238.563C237.64 238.727 237.597 238.89 237.554 239.052L237.674 239.084C237.631 239.247 237.588 239.408 237.544 239.569L237.423 239.536C237.38 239.697 237.336 239.857 237.292 240.016L237.412 240.05C237.368 240.209 237.324 240.368 237.28 240.526L237.159 240.492C237.115 240.65 237.07 240.807 237.026 240.963L237.146 240.997C237.099 241.16 237.053 241.321 237.006 241.482L236.886 241.447C236.839 241.609 236.791 241.77 236.744 241.93L236.864 241.966C236.816 242.126 236.768 242.286 236.72 242.445L236.601 242.409C236.553 242.567 236.505 242.725 236.456 242.882L236.576 242.919C236.527 243.076 236.479 243.233 236.43 243.388L236.311 243.351C236.261 243.51 236.211 243.668 236.161 243.826L236.28 243.864C236.228 244.025 236.177 244.186 236.125 244.345L236.006 244.307C235.954 244.466 235.902 244.624 235.85 244.782L235.968 244.821C235.916 244.979 235.863 245.136 235.811 245.292L235.692 245.252C235.639 245.407 235.587 245.562 235.534 245.716L235.652 245.757C235.597 245.914 235.543 246.071 235.488 246.227L235.37 246.185C235.314 246.345 235.257 246.504 235.2 246.662L235.318 246.704C235.261 246.862 235.204 247.019 235.147 247.175L235.03 247.132C234.972 247.287 234.915 247.442 234.857 247.595L234.975 247.639C234.917 247.793 234.859 247.946 234.801 248.097L234.684 248.052C234.624 248.209 234.564 248.365 234.503 248.52L234.619 248.565C234.557 248.723 234.495 248.88 234.433 249.035L234.317 248.989C234.255 249.144 234.192 249.298 234.13 249.45L234.245 249.498C234.182 249.651 234.119 249.803 234.056 249.953L233.941 249.905C233.877 250.056 233.813 250.206 233.749 250.355L233.864 250.404C233.797 250.561 233.729 250.717 233.661 250.871L233.546 250.82C233.478 250.974 233.41 251.127 233.341 251.278L233.455 251.329C233.387 251.481 233.318 251.631 233.249 251.779L233.135 251.726C233.066 251.874 232.997 252.021 232.928 252.166L233.041 252.22C232.967 252.374 232.893 252.526 232.819 252.677L232.707 252.621C232.632 252.773 232.557 252.923 232.482 253.071L232.594 253.127C232.518 253.276 232.443 253.423 232.367 253.568L232.256 253.51C232.181 253.655 232.105 253.798 232.029 253.939L232.139 253.998C232.058 254.149 231.976 254.297 231.895 254.444L231.785 254.383C231.703 254.53 231.621 254.676 231.538 254.819L231.646 254.882C231.563 255.026 231.48 255.168 231.396 255.308L231.289 255.244C231.205 255.384 231.121 255.523 231.036 255.659L231.142 255.725C231.052 255.871 230.961 256.015 230.87 256.157L230.764 256.089C230.674 256.23 230.582 256.369 230.491 256.505L230.595 256.574C230.503 256.711 230.411 256.845 230.318 256.977L230.216 256.906C230.119 257.044 230.021 257.179 229.924 257.312L230.025 257.386C229.924 257.523 229.823 257.657 229.721 257.789L229.622 257.712C229.521 257.843 229.42 257.97 229.319 258.095L229.416 258.174C229.31 258.304 229.203 258.431 229.097 258.555L229.002 258.474C228.891 258.602 228.78 258.727 228.668 258.849L228.761 258.934C228.648 259.056 228.535 259.175 228.422 259.291L228.333 259.203C228.216 259.323 228.099 259.438 227.981 259.55L228.067 259.641C227.944 259.758 227.82 259.871 227.695 259.98L227.613 259.886C227.489 259.994 227.366 260.098 227.242 260.197L227.32 260.295C227.187 260.402 227.053 260.504 226.919 260.601L226.846 260.5C226.711 260.597 226.575 260.69 226.44 260.777L226.508 260.882C226.367 260.972 226.227 261.057 226.086 261.137L226.024 261.028C225.878 261.111 225.732 261.187 225.585 261.258L225.639 261.37C225.49 261.442 225.34 261.508 225.189 261.568L225.143 261.452C224.988 261.513 224.833 261.568 224.678 261.616L224.715 261.735C224.556 261.785 224.396 261.827 224.236 261.863L224.208 261.741C224.049 261.776 223.889 261.805 223.729 261.826L223.746 261.95C223.581 261.972 223.415 261.987 223.249 261.994L223.244 261.87C223.163 261.873 223.081 261.875 223 261.875C222.919 261.875 222.837 261.873 222.756 261.87L222.751 261.994C222.585 261.987 222.419 261.972 222.254 261.95L222.271 261.826C222.111 261.805 221.951 261.776 221.792 261.741L221.764 261.863C221.604 261.827 221.444 261.785 221.285 261.735L221.322 261.616C221.167 261.568 221.012 261.513 220.857 261.452L220.811 261.568C220.66 261.508 220.51 261.442 220.361 261.371L220.415 261.258C220.268 261.187 220.122 261.111 219.976 261.028L219.914 261.137C219.773 261.057 219.633 260.972 219.493 260.882L219.56 260.777C219.425 260.69 219.289 260.597 219.154 260.5L219.081 260.601C218.947 260.504 218.813 260.402 218.68 260.295L218.758 260.197C218.634 260.098 218.511 259.994 218.387 259.886L218.305 259.98C218.18 259.871 218.056 259.758 217.933 259.641L218.019 259.55C217.901 259.438 217.784 259.323 217.667 259.203L217.578 259.291C217.465 259.175 217.352 259.056 217.239 258.934L217.332 258.849C217.22 258.727 217.109 258.602 216.998 258.474L216.903 258.555C216.797 258.431 216.69 258.304 216.584 258.174L216.681 258.095C216.58 257.97 216.479 257.843 216.378 257.712L216.279 257.789C216.177 257.657 216.076 257.523 215.975 257.386L216.076 257.312C215.979 257.179 215.881 257.044 215.784 256.906L215.682 256.977C215.589 256.845 215.497 256.711 215.405 256.574L215.509 256.505C215.418 256.369 215.326 256.23 215.236 256.089L215.13 256.157C215.039 256.015 214.948 255.871 214.858 255.725L214.964 255.659C214.879 255.523 214.795 255.384 214.711 255.244L214.604 255.308C214.52 255.168 214.437 255.026 214.354 254.882L214.462 254.819C214.379 254.676 214.297 254.53 214.215 254.383L214.105 254.444C214.024 254.297 213.942 254.149 213.861 253.998L213.971 253.939C213.895 253.798 213.819 253.655 213.744 253.51L213.633 253.568C213.557 253.423 213.482 253.276 213.406 253.127L213.518 253.071C213.443 252.923 213.368 252.773 213.293 252.621L213.181 252.677C213.107 252.526 213.033 252.374 212.959 252.22L213.072 252.166C213.003 252.021 212.934 251.874 212.865 251.726L212.751 251.779C212.682 251.631 212.613 251.481 212.545 251.329L212.659 251.278C212.59 251.127 212.522 250.974 212.454 250.82L212.339 250.871C212.271 250.717 212.203 250.561 212.136 250.404L212.251 250.354C212.187 250.206 212.123 250.056 212.059 249.905L211.944 249.953C211.881 249.803 211.818 249.651 211.755 249.498L211.87 249.45C211.808 249.298 211.745 249.144 211.683 248.989L211.567 249.035C211.505 248.88 211.443 248.723 211.381 248.565L211.497 248.52C211.436 248.365 211.376 248.209 211.316 248.052L211.199 248.097C211.141 247.945 211.083 247.793 211.025 247.639L211.143 247.595C211.085 247.442 211.028 247.287 210.97 247.132L210.853 247.175C210.796 247.019 210.739 246.862 210.682 246.704L210.8 246.662C210.743 246.504 210.686 246.345 210.63 246.185L210.512 246.227C210.457 246.071 210.403 245.914 210.348 245.756L210.466 245.716C210.413 245.562 210.361 245.407 210.308 245.252L210.189 245.292C210.137 245.136 210.084 244.979 210.032 244.821L210.15 244.782C210.098 244.624 210.046 244.466 209.994 244.307L209.875 244.345C209.823 244.186 209.772 244.025 209.72 243.864L209.839 243.826C209.789 243.668 209.739 243.51 209.689 243.351L209.57 243.388C209.521 243.232 209.472 243.076 209.424 242.919L209.544 242.882C209.495 242.725 209.447 242.567 209.399 242.409L209.28 242.445C209.232 242.286 209.184 242.126 209.136 241.966L209.256 241.93C209.209 241.77 209.161 241.609 209.114 241.447L208.994 241.482C208.947 241.321 208.901 241.16 208.854 240.997L208.974 240.963C208.93 240.807 208.885 240.65 208.841 240.492L208.72 240.526C208.676 240.368 208.632 240.209 208.588 240.049L208.708 240.016C208.664 239.857 208.62 239.697 208.577 239.536L208.456 239.569C208.412 239.408 208.369 239.246 208.325 239.084L208.446 239.052C208.403 238.89 208.36 238.727 208.317 238.563L208.196 238.595C208.154 238.436 208.113 238.276 208.071 238.115L208.192 238.084C208.151 237.925 208.111 237.767 208.07 237.607L207.949 237.638C207.908 237.478 207.868 237.318 207.828 237.157L207.949 237.127C207.909 236.966 207.869 236.804 207.829 236.642L207.708 236.672C207.668 236.51 207.628 236.347 207.589 236.184L207.71 236.154C207.671 235.991 207.632 235.827 207.592 235.662L207.471 235.691C207.433 235.532 207.395 235.372 207.358 235.212L207.479 235.183C207.442 235.024 207.405 234.864 207.368 234.703L207.246 234.731C207.209 234.57 207.172 234.409 207.136 234.247L207.258 234.219C207.221 234.058 207.185 233.895 207.148 233.732L207.026 233.76C206.99 233.597 206.954 233.433 206.918 233.269L207.04 233.242C207.004 233.078 206.968 232.913 206.932 232.748L206.81 232.775C206.776 232.614 206.741 232.453 206.707 232.292L206.829 232.266C206.795 232.106 206.761 231.945 206.728 231.784L206.605 231.809C206.571 231.648 206.538 231.486 206.504 231.323L206.627 231.298C206.593 231.136 206.56 230.973 206.527 230.809L206.405 230.834C206.371 230.671 206.338 230.507 206.306 230.342L206.428 230.318C206.395 230.153 206.363 229.988 206.33 229.823L206.208 229.847C206.176 229.685 206.144 229.522 206.113 229.359L206.235 229.336C206.204 229.175 206.173 229.013 206.143 228.852L206.02 228.875C205.989 228.713 205.958 228.551 205.928 228.388L206.051 228.365C206.02 228.202 205.99 228.039 205.96 227.875L205.837 227.898C205.807 227.734 205.777 227.57 205.747 227.405L205.87 227.383C205.84 227.218 205.81 227.053 205.781 226.888L205.658 226.91C205.628 226.745 205.599 226.58 205.57 226.415L205.693 226.393C205.665 226.232 205.637 226.071 205.609 225.908L205.485 225.93C205.457 225.768 205.43 225.605 205.402 225.442L205.525 225.421C205.497 225.258 205.47 225.095 205.442 224.931L205.319 224.952C205.292 224.788 205.264 224.624 205.237 224.459L205.36 224.439C205.333 224.275 205.306 224.11 205.279 223.944L205.156 223.964C205.129 223.799 205.103 223.633 205.076 223.467L205.199 223.447C205.173 223.284 205.147 223.12 205.122 222.956L204.998 222.975C204.973 222.813 204.947 222.65 204.922 222.487L205.046 222.468C205.02 222.306 204.995 222.142 204.971 221.979L204.847 221.998C204.822 221.834 204.797 221.67 204.773 221.505L204.896 221.487C204.872 221.323 204.847 221.158 204.823 220.993L204.699 221.011C204.675 220.846 204.651 220.68 204.627 220.515L204.75 220.497C204.726 220.331 204.703 220.165 204.679 219.998L204.555 220.016C204.532 219.852 204.509 219.689 204.486 219.525L204.61 219.507C204.587 219.344 204.564 219.181 204.542 219.018L204.418 219.035C204.395 218.872 204.373 218.708 204.351 218.544L204.474 218.527C204.452 218.363 204.43 218.198 204.408 218.034L204.284 218.05C204.262 217.885 204.241 217.72 204.219 217.555L204.343 217.538C204.321 217.373 204.3 217.207 204.278 217.041L204.154 217.057C204.133 216.891 204.112 216.725 204.091 216.558L204.215 216.542C204.194 216.378 204.173 216.214 204.153 216.05L204.029 216.065C204.009 215.902 203.989 215.738 203.969 215.574L204.093 215.559C204.073 215.395 204.053 215.231 204.033 215.067L203.909 215.082C203.889 214.917 203.87 214.753 203.85 214.587L203.974 214.573C203.955 214.408 203.936 214.243 203.916 214.077L203.792 214.091C203.773 213.926 203.754 213.76 203.735 213.594L203.859 213.579C203.841 213.413 203.822 213.247 203.803 213.08L203.679 213.094C203.661 212.929 203.642 212.764 203.624 212.598L203.749 212.585C203.731 212.421 203.713 212.257 203.695 212.093L203.571 212.107C203.553 211.943 203.536 211.778 203.519 211.614L203.643 211.601C203.626 211.436 203.608 211.271 203.591 211.106L203.467 211.119C203.45 210.954 203.433 210.788 203.416 210.623L203.541 210.61C203.524 210.444 203.507 210.278 203.491 210.112L203.366 210.125C203.35 209.958 203.334 209.792 203.317 209.625L203.442 209.613C203.426 209.447 203.41 209.28 203.394 209.113L203.269 209.125C203.254 208.961 203.238 208.798 203.223 208.633L203.347 208.622C203.332 208.458 203.317 208.293 203.302 208.129L203.177 208.14C203.162 207.975 203.147 207.81 203.132 207.645L203.257 207.634C203.242 207.469 203.227 207.303 203.213 207.138L203.088 207.149C203.074 206.983 203.06 206.817 203.045 206.651L203.17 206.64C203.156 206.474 203.141 206.308 203.128 206.141L203.003 206.152C202.989 205.985 202.975 205.818 202.961 205.651L203.086 205.641C203.073 205.476 203.059 205.31 203.046 205.145L202.921 205.155C202.908 204.991 202.895 204.826 202.882 204.661L203.007 204.652C202.994 204.487 202.981 204.322 202.969 204.157L202.844 204.167C202.831 204.001 202.819 203.836 202.807 203.67L202.931 203.661C202.919 203.496 202.907 203.33 202.895 203.164L202.77 203.173C202.758 203.007 202.746 202.841 202.734 202.674L202.859 202.666C202.847 202.499 202.835 202.333 202.824 202.166L202.699 202.174C202.687 202.007 202.676 201.84 202.665 201.673L202.79 201.665C202.778 201.5 202.768 201.335 202.757 201.171L202.632 201.179C202.621 201.014 202.611 200.849 202.6 200.684L202.725 200.676C202.714 200.511 202.704 200.346 202.694 200.181L202.569 200.188C202.559 200.023 202.548 199.857 202.538 199.691L202.663 199.684C202.653 199.518 202.643 199.352 202.634 199.186L202.509 199.193C202.499 199.027 202.49 198.861 202.48 198.694L202.605 198.687C202.595 198.52 202.586 198.354 202.577 198.187L202.452 198.194C202.443 198.027 202.434 197.86 202.425 197.692L202.55 197.686C202.541 197.521 202.532 197.357 202.524 197.192L202.399 197.198C202.391 197.033 202.382 196.868 202.374 196.703L202.499 196.697C202.491 196.531 202.482 196.366 202.474 196.2L202.35 196.206C202.342 196.041 202.334 195.875 202.326 195.709L202.451 195.703C202.443 195.537 202.436 195.371 202.428 195.205L202.303 195.21C202.296 195.044 202.289 194.878 202.281 194.711L202.406 194.705C202.399 194.539 202.392 194.372 202.385 194.205L202.26 194.21C202.253 194.043 202.247 193.876 202.24 193.709L202.365 193.704C202.358 193.54 202.352 193.375 202.346 193.21L202.221 193.214C202.214 193.049 202.208 192.884 202.202 192.719L202.327 192.714C202.321 192.549 202.315 192.383 202.31 192.217L202.185 192.222C202.179 192.056 202.173 191.89 202.168 191.724L202.293 191.72C202.287 191.554 202.282 191.388 202.277 191.221L202.152 191.225C202.146 191.059 202.141 190.892 202.136 190.726L202.261 190.722C202.256 190.555 202.252 190.388 202.247 190.221L202.122 190.225C202.117 190.058 202.113 189.891 202.108 189.724L202.233 189.72C202.229 189.555 202.225 189.39 202.22 189.225L202.096 189.228C202.091 189.063 202.087 188.898 202.084 188.732L202.209 188.729C202.205 188.564 202.201 188.398 202.197 188.232L202.072 188.235C202.069 188.069 202.065 187.903 202.062 187.737L202.187 187.735C202.184 187.569 202.181 187.403 202.178 187.236L202.053 187.238C202.049 187.072 202.047 186.906 202.044 186.739L202.169 186.737C202.166 186.57 202.163 186.404 202.161 186.237L202.036 186.239C202.033 186.072 202.031 185.905 202.029 185.737L202.154 185.736C202.151 185.57 202.149 185.405 202.147 185.239L202.022 185.241C202.02 185.075 202.018 184.91 202.017 184.744L202.142 184.743C202.14 184.578 202.138 184.412 202.137 184.246L202.012 184.247C202.011 184.081 202.009 183.915 202.008 183.749L202.133 183.749C202.132 183.583 202.131 183.416 202.13 183.25L202.005 183.251C202.004 183.085 202.003 182.918 202.002 182.752L202.127 182.751C202.127 182.585 202.126 182.418 202.126 182.251L202.001 182.251C202 182.085 202 181.918 202 181.751L202.125 181.751L202.125 181.5L202.125 181.249L202 181.249C202 181.082 202 180.915 202.001 180.749L202.126 180.749C202.126 180.582 202.127 180.416 202.127 180.249L202.002 180.249C202.003 180.082 202.004 179.916 202.005 179.749L202.13 179.75C202.131 179.584 202.132 179.418 202.133 179.252L202.008 179.251C202.009 179.085 202.011 178.919 202.012 178.753L202.137 178.754C202.138 178.588 202.14 178.423 202.142 178.257L202.017 178.256C202.018 178.09 202.02 177.925 202.022 177.759L202.147 177.761C202.149 177.595 202.151 177.43 202.154 177.264L202.029 177.263C202.031 177.095 202.033 176.928 202.036 176.761L202.161 176.763C202.163 176.596 202.166 176.43 202.169 176.263L202.044 176.261C202.047 176.094 202.049 175.928 202.053 175.762L202.178 175.764C202.181 175.597 202.184 175.431 202.187 175.265L202.062 175.263C202.065 175.097 202.069 174.931 202.072 174.765L202.197 174.768C202.201 174.602 202.205 174.436 202.209 174.271L202.084 174.268C202.087 174.102 202.091 173.937 202.096 173.772L202.22 173.775C202.225 173.61 202.229 173.445 202.233 173.28L202.108 173.276C202.113 173.109 202.117 172.942 202.122 172.775L202.247 172.779C202.252 172.612 202.256 172.445 202.261 172.278L202.136 172.274C202.141 172.108 202.146 171.941 202.152 171.775L202.277 171.779C202.282 171.612 202.287 171.446 202.293 171.28L202.168 171.276C202.173 171.11 202.179 170.944 202.185 170.778L202.31 170.783C202.315 170.617 202.321 170.451 202.327 170.286L202.202 170.281C202.208 170.116 202.214 169.951 202.221 169.786L202.346 169.79C202.352 169.625 202.358 169.46 202.365 169.296L202.24 169.291C202.247 169.124 202.253 168.957 202.26 168.79L202.385 168.795C202.392 168.628 202.399 168.461 202.406 168.295L202.281 168.289C202.289 168.122 202.296 167.956 202.303 167.79L202.428 167.795C202.436 167.629 202.443 167.463 202.451 167.297L202.326 167.291C202.334 167.125 202.342 166.959 202.35 166.794L202.474 166.8C202.482 166.634 202.491 166.469 202.499 166.303L202.374 166.297C202.382 166.132 202.391 165.967 202.399 165.802L202.524 165.808C202.532 165.643 202.541 165.479 202.55 165.314L202.425 165.307C202.434 165.14 202.443 164.973 202.452 164.806L202.577 164.813C202.586 164.646 202.595 164.48 202.605 164.313L202.48 164.306C202.49 164.139 202.499 163.973 202.509 163.807L202.634 163.814C202.643 163.648 202.653 163.482 202.663 163.316L202.538 163.309C202.548 163.143 202.559 162.977 202.569 162.812L202.694 162.819C202.704 162.654 202.714 162.489 202.725 162.324L202.6 162.316C202.611 162.151 202.621 161.986 202.632 161.821L202.757 161.829C202.768 161.664 202.778 161.5 202.79 161.335L202.665 161.327C202.676 161.16 202.687 160.992 202.699 160.826L202.824 160.834C202.835 160.667 202.847 160.501 202.859 160.334L202.734 160.326C202.746 160.159 202.758 159.993 202.77 159.827L202.895 159.836C202.907 159.67 202.919 159.504 202.931 159.339L202.807 159.329C202.819 159.164 202.831 158.998 202.844 158.833L202.969 158.843C202.981 158.678 202.994 158.513 203.007 158.348L202.882 158.339C202.895 158.174 202.908 158.009 202.921 157.845L203.046 157.855C203.059 157.689 203.073 157.524 203.086 157.359L202.961 157.349C202.975 157.182 202.989 157.015 203.003 156.848L203.128 156.859C203.142 156.692 203.156 156.526 203.17 156.36L203.045 156.349C203.06 156.183 203.074 156.017 203.088 155.851L203.213 155.862C203.227 155.696 203.242 155.531 203.257 155.366L203.132 155.355C203.147 155.19 203.162 155.025 203.177 154.86L203.302 154.871C203.317 154.707 203.332 154.542 203.347 154.378L203.223 154.367C203.238 154.202 203.254 154.038 203.269 153.875L203.394 153.887C203.41 153.72 203.426 153.553 203.442 153.387L203.317 153.375C203.334 153.208 203.35 153.042 203.366 152.875L203.491 152.888C203.507 152.721 203.524 152.556 203.541 152.39L203.416 152.377C203.433 152.212 203.45 152.046 203.467 151.881L203.591 151.894C203.608 151.729 203.626 151.564 203.643 151.399L203.519 151.386C203.536 151.222 203.554 151.057 203.571 150.893L203.695 150.907C203.713 150.743 203.731 150.579 203.749 150.415L203.624 150.402C203.642 150.236 203.661 150.071 203.679 149.906L203.803 149.92C203.822 149.753 203.841 149.587 203.859 149.42L203.735 149.406C203.754 149.24 203.773 149.074 203.792 148.908L203.916 148.923C203.936 148.757 203.955 148.592 203.974 148.427L203.85 148.412C203.87 148.247 203.889 148.083 203.909 147.918L204.033 147.933C204.053 147.769 204.073 147.605 204.093 147.441L203.969 147.426C203.989 147.262 204.009 147.098 204.029 146.935L204.153 146.95C204.173 146.786 204.194 146.622 204.215 146.458L204.091 146.442C204.112 146.275 204.133 146.109 204.154 145.943L204.278 145.959C204.3 145.793 204.321 145.627 204.343 145.462L204.219 145.445C204.241 145.28 204.262 145.115 204.284 144.95L204.408 144.966C204.43 144.802 204.452 144.637 204.475 144.473L204.351 144.456C204.373 144.292 204.395 144.128 204.418 143.965L204.542 143.982C204.564 143.819 204.587 143.655 204.61 143.493L204.486 143.475C204.509 143.311 204.532 143.147 204.555 142.984L204.679 143.002C204.703 142.835 204.726 142.669 204.75 142.503L204.627 142.485C204.651 142.32 204.675 142.154 204.699 141.989L204.823 142.007C204.847 141.842 204.872 141.677 204.896 141.513L204.773 141.495C204.797 141.33 204.822 141.166 204.847 141.002L204.971 141.021C204.995 140.858 205.02 140.694 205.046 140.532L204.922 140.512C204.947 140.349 204.973 140.187 204.998 140.025L205.122 140.044C205.147 139.88 205.173 139.716 205.199 139.553L205.076 139.533C205.103 139.367 205.129 139.201 205.156 139.035L205.279 139.055C205.306 138.89 205.333 138.725 205.36 138.561L205.237 138.54C205.264 138.376 205.292 138.212 205.319 138.048L205.442 138.069C205.47 137.905 205.497 137.742 205.525 137.579L205.402 137.558C205.43 137.395 205.457 137.232 205.485 137.07L205.609 137.091C205.637 136.929 205.665 136.768 205.693 136.607L205.57 136.585C205.599 136.419 205.628 136.254 205.658 136.09L205.781 136.112C205.81 135.946 205.84 135.782 205.87 135.617L205.747 135.595C205.777 135.43 205.807 135.266 205.837 135.102L205.96 135.125C205.99 134.961 206.02 134.798 206.051 134.635L205.928 134.612C205.958 134.449 205.989 134.287 206.02 134.125L206.143 134.148C206.173 133.987 206.204 133.825 206.235 133.664L206.113 133.641C206.144 133.478 206.176 133.315 206.208 133.153L206.33 133.177C206.363 133.012 206.395 132.847 206.428 132.682L206.306 132.658C206.338 132.493 206.371 132.329 206.405 132.166L206.527 132.191C206.56 132.027 206.593 131.864 206.627 131.702L206.504 131.677C206.538 131.514 206.571 131.352 206.605 131.191L206.728 131.216C206.761 131.055 206.795 130.894 206.829 130.734L206.707 130.708C206.741 130.546 206.776 130.386 206.81 130.225L206.932 130.252C206.968 130.087 207.004 129.922 207.04 129.758L206.918 129.731C206.954 129.567 206.99 129.403 207.026 129.24L207.148 129.268C207.185 129.105 207.221 128.942 207.258 128.78L207.136 128.753C207.172 128.591 207.209 128.43 207.246 128.269L207.368 128.297C207.405 128.136 207.442 127.976 207.48 127.817L207.358 127.788C207.395 127.628 207.433 127.468 207.471 127.309L207.592 127.337C207.632 127.173 207.671 127.009 207.71 126.846L207.589 126.816C207.628 126.653 207.668 126.49 207.708 126.328L207.829 126.357C207.869 126.195 207.909 126.034 207.949 125.873L207.828 125.843C207.868 125.682 207.908 125.522 207.949 125.362L208.07 125.393C208.111 125.233 208.151 125.074 208.192 124.916L208.071 124.885C208.113 124.724 208.154 124.564 208.196 124.405L208.317 124.437C208.36 124.273 208.403 124.11 208.446 123.948L208.326 123.916C208.369 123.753 208.412 123.592 208.456 123.431L208.577 123.464C208.62 123.303 208.664 123.143 208.708 122.984L208.588 122.95C208.632 122.791 208.676 122.632 208.72 122.474L208.841 122.508C208.885 122.35 208.93 122.193 208.974 122.037L208.854 122.003C208.901 121.84 208.947 121.679 208.994 121.518L209.114 121.553C209.161 121.391 209.209 121.23 209.256 121.07L209.136 121.034C209.184 120.874 209.232 120.714 209.28 120.555L209.399 120.591C209.447 120.433 209.495 120.275 209.544 120.118L209.424 120.081C209.473 119.924 209.521 119.767 209.57 119.612L209.689 119.649C209.739 119.49 209.789 119.332 209.839 119.174L209.72 119.136C209.772 118.975 209.823 118.814 209.875 118.655L209.994 118.693C210.046 118.534 210.098 118.376 210.15 118.218L210.032 118.179C210.084 118.021 210.137 117.864 210.189 117.708L210.308 117.748C210.361 117.593 210.413 117.438 210.466 117.284L210.348 117.243C210.403 117.086 210.457 116.929 210.512 116.773L210.63 116.815C210.686 116.655 210.743 116.496 210.8 116.338L210.682 116.296C210.739 116.138 210.796 115.981 210.853 115.825L210.97 115.868C211.028 115.713 211.085 115.558 211.143 115.405L211.025 115.361C211.083 115.207 211.141 115.055 211.199 114.903L211.316 114.948C211.376 114.791 211.436 114.635 211.497 114.48L211.381 114.435C211.443 114.277 211.505 114.12 211.567 113.965L211.683 114.011C211.745 113.856 211.808 113.702 211.87 113.55L211.755 113.502C211.818 113.349 211.881 113.197 211.944 113.047L212.059 113.095C212.123 112.944 212.187 112.794 212.251 112.645L212.136 112.596C212.203 112.439 212.271 112.283 212.339 112.129L212.454 112.18C212.522 112.026 212.59 111.873 212.659 111.722L212.545 111.671C212.613 111.519 212.682 111.369 212.751 111.221L212.865 111.274C212.934 111.126 213.003 110.979 213.072 110.834L212.959 110.78C213.033 110.626 213.107 110.474 213.181 110.323L213.293 110.379C213.368 110.227 213.443 110.077 213.518 109.929L213.406 109.873C213.482 109.724 213.557 109.577 213.633 109.432L213.744 109.49C213.819 109.345 213.895 109.202 213.971 109.061L213.861 109.002C213.942 108.851 214.024 108.703 214.105 108.556L214.215 108.617C214.297 108.47 214.379 108.324 214.462 108.181L214.354 108.118C214.437 107.974 214.52 107.832 214.604 107.692L214.711 107.756C214.795 107.616 214.879 107.477 214.964 107.341L214.858 107.275C214.948 107.129 215.039 106.985 215.13 106.843L215.236 106.911C215.326 106.77 215.418 106.631 215.509 106.495L215.405 106.426C215.497 106.289 215.589 106.155 215.682 106.023L215.784 106.094C215.881 105.956 215.979 105.821 216.076 105.688L215.975 105.614C216.076 105.477 216.177 105.343 216.279 105.211L216.378 105.288C216.479 105.157 216.58 105.03 216.681 104.905L216.584 104.826C216.69 104.696 216.797 104.569 216.903 104.445L216.998 104.526C217.109 104.398 217.22 104.273 217.332 104.151L217.239 104.066C217.352 103.944 217.465 103.825 217.578 103.709L217.667 103.797C217.784 103.677 217.901 103.562 218.019 103.45L217.933 103.359C218.056 103.242 218.18 103.129 218.305 103.02L218.387 103.114C218.51 103.006 218.634 102.902 218.758 102.803L218.68 102.705C218.813 102.598 218.947 102.496 219.081 102.399L219.154 102.5C219.289 102.403 219.425 102.31 219.56 102.223L219.492 102.118C219.633 102.028 219.773 101.943 219.914 101.863L219.976 101.972C220.122 101.889 220.268 101.813 220.415 101.742L220.361 101.63C220.51 101.558 220.66 101.492 220.811 101.432L220.857 101.548C221.012 101.487 221.167 101.432 221.322 101.384L221.285 101.265C221.444 101.215 221.604 101.173 221.764 101.137L221.792 101.259C221.951 101.224 222.111 101.195 222.271 101.174L222.254 101.05Z" stroke="url(#paint15_linear_1539_35140)" stroke-width="0.25" stroke-dasharray="0.5 0.5"/>
    <circle cx="229.5" cy="105.5" r="1.5" fill="#D9D9D9"/>
    <circle cx="236.5" cy="242.5" r="1.5" fill="#D9D9D9"/>
    <circle cx="149.5" cy="188.5" r="1.5" fill="#53FEA9"/>
    <circle cx="149.5" cy="182.5" r="1.5" fill="#53FEA9"/>
    <defs>
        <filter id="filter0_f_1539_35140" x="0.330078" y="0.683594" width="444.318" height="361.406" filterUnits="userSpaceOnUse" color-interpolation-filters="sRGB">
            <feFlood flood-opacity="0" result="BackgroundImageFix"/>
            <feBlend mode="normal" in="SourceGraphic" in2="BackgroundImageFix" result="shape"/>
            <feGaussianBlur stdDeviation="60" result="effect1_foregroundBlur_1539_35140"/>
        </filter>
        <filter id="filter1_d_1539_35140" x="208.281" y="163.508" width="48.4922" height="48.4922" filterUnits="userSpaceOnUse" color-interpolation-filters="sRGB">
            <feFlood flood-opacity="0" result="BackgroundImageFix"/>
            <feColorMatrix in="SourceAlpha" type="matrix" values="0 0 0 0 0 0 0 0 0 0 0 0 0 0 0 0 0 0 127 0" result="hardAlpha"/>
            <feOffset/>
            <feGaussianBlur stdDeviation="9"/>
            <feComposite in2="hardAlpha" operator="out"/>
            <feColorMatrix type="matrix" values="0 0 0 0 1 0 0 0 0 1 0 0 0 0 1 0 0 0 0.25 0"/>
            <feBlend mode="normal" in2="BackgroundImageFix" result="effect1_dropShadow_1539_35140"/>
            <feBlend mode="normal" in="SourceGraphic" in2="effect1_dropShadow_1539_35140" result="shape"/>
        </filter>
        <filter id="filter2_d_1539_35140" x="198.207" y="153.215" width="49.5859" height="49.5859" filterUnits="userSpaceOnUse" color-interpolation-filters="sRGB">
            <feFlood flood-opacity="0" result="BackgroundImageFix"/>
            <feColorMatrix in="SourceAlpha" type="matrix" values="0 0 0 0 0 0 0 0 0 0 0 0 0 0 0 0 0 0 127 0" result="hardAlpha"/>
            <feOffset/>
            <feGaussianBlur stdDeviation="9"/>
            <feComposite in2="hardAlpha" operator="out"/>
            <feColorMatrix type="matrix" values="0 0 0 0 1 0 0 0 0 1 0 0 0 0 1 0 0 0 0.25 0"/>
            <feBlend mode="normal" in2="BackgroundImageFix" result="effect1_dropShadow_1539_35140"/>
            <feBlend mode="normal" in="SourceGraphic" in2="effect1_dropShadow_1539_35140" result="shape"/>
        </filter>
        <filter id="filter3_d_1539_35140" x="98.2637" y="138.613" width="247" height="85" filterUnits="userSpaceOnUse" color-interpolation-filters="sRGB">
            <feFlood flood-opacity="0" result="BackgroundImageFix"/>
            <feColorMatrix in="SourceAlpha" type="matrix" values="0 0 0 0 0 0 0 0 0 0 0 0 0 0 0 0 0 0 127 0" result="hardAlpha"/>
            <feOffset/>
            <feGaussianBlur stdDeviation="6.5"/>
            <feComposite in2="hardAlpha" operator="out"/>
            <feColorMatrix type="matrix" values="0 0 0 0 0 0 0 0 0 1 0 0 0 0 0.7 0 0 0 0.25 0"/>
            <feBlend mode="normal" in2="BackgroundImageFix" result="effect1_dropShadow_1539_35140"/>
            <feBlend mode="normal" in="SourceGraphic" in2="effect1_dropShadow_1539_35140" result="shape"/>
        </filter>
        <linearGradient id="paint0_linear_1539_35140" x1="100.327" y1="0" x2="135.105" y2="92.1015" gradientUnits="userSpaceOnUse">
            <stop stop-color="#A43EFF"/>
            <stop offset="1" stop-color="#101B45"/>
        </linearGradient>
        <linearGradient id="paint1_linear_1539_35140" x1="243.277" y1="198.777" x2="210.043" y2="232.011" gradientUnits="userSpaceOnUse">
            <stop stop-color="white"/>
            <stop offset="1" stop-color="white" stop-opacity="0"/>
        </linearGradient>
        <linearGradient id="paint2_linear_1539_35140" x1="240.802" y1="196.302" x2="212.518" y2="224.587" gradientUnits="userSpaceOnUse">
            <stop stop-color="white"/>
            <stop offset="1" stop-color="white" stop-opacity="0"/>
        </linearGradient>
        <linearGradient id="paint3_linear_1539_35140" x1="238.327" y1="193.827" x2="214.993" y2="217.162" gradientUnits="userSpaceOnUse">
            <stop stop-color="white"/>
            <stop offset="1" stop-color="white" stop-opacity="0"/>
        </linearGradient>
        <linearGradient id="paint4_linear_1539_35140" x1="245.398" y1="156.352" x2="278.632" y2="189.586" gradientUnits="userSpaceOnUse">
            <stop stop-color="white"/>
            <stop offset="1" stop-color="white" stop-opacity="0"/>
        </linearGradient>
        <linearGradient id="paint5_linear_1539_35140" x1="242.923" y1="158.827" x2="271.208" y2="187.111" gradientUnits="userSpaceOnUse">
            <stop stop-color="white"/>
            <stop offset="1" stop-color="white" stop-opacity="0"/>
        </linearGradient>
        <linearGradient id="paint6_linear_1539_35140" x1="240.449" y1="161.301" x2="263.783" y2="184.636" gradientUnits="userSpaceOnUse">
            <stop stop-color="white"/>
            <stop offset="1" stop-color="white" stop-opacity="0"/>
        </linearGradient>
        <linearGradient id="paint7_linear_1539_35140" x1="202.973" y1="154.231" x2="236.207" y2="120.997" gradientUnits="userSpaceOnUse">
            <stop stop-color="white"/>
            <stop offset="1" stop-color="white" stop-opacity="0"/>
        </linearGradient>
        <linearGradient id="paint8_linear_1539_35140" x1="205.448" y1="156.706" x2="233.732" y2="128.421" gradientUnits="userSpaceOnUse">
            <stop stop-color="white"/>
            <stop offset="1" stop-color="white" stop-opacity="0"/>
        </linearGradient>
        <linearGradient id="paint9_linear_1539_35140" x1="207.923" y1="159.18" x2="231.257" y2="135.846" gradientUnits="userSpaceOnUse">
            <stop stop-color="white"/>
            <stop offset="1" stop-color="white" stop-opacity="0"/>
        </linearGradient>
        <linearGradient id="paint10_linear_1539_35140" x1="200.852" y1="196.656" x2="167.618" y2="163.422" gradientUnits="userSpaceOnUse">
            <stop stop-color="white"/>
            <stop offset="1" stop-color="white" stop-opacity="0"/>
        </linearGradient>
        <linearGradient id="paint11_linear_1539_35140" x1="203.327" y1="194.181" x2="175.042" y2="165.897" gradientUnits="userSpaceOnUse">
            <stop stop-color="white"/>
            <stop offset="1" stop-color="white" stop-opacity="0"/>
        </linearGradient>
        <linearGradient id="paint12_linear_1539_35140" x1="205.801" y1="191.706" x2="182.467" y2="168.372" gradientUnits="userSpaceOnUse">
            <stop stop-color="white"/>
            <stop offset="1" stop-color="white" stop-opacity="0"/>
        </linearGradient>
        <linearGradient id="paint13_linear_1539_35140" x1="227.183" y1="162.271" x2="218.748" y2="193.752" gradientUnits="userSpaceOnUse">
            <stop stop-color="white"/>
            <stop offset="1" stop-color="white" stop-opacity="0"/>
        </linearGradient>
        <linearGradient id="paint14_linear_1539_35140" x1="221.764" y1="152.113" x2="221.764" y2="210.113" gradientUnits="userSpaceOnUse">
            <stop offset="0.170133" stop-color="#53FDA9" stop-opacity="0"/>
            <stop offset="0.878479" stop-color="#53FDA9"/>
        </linearGradient>
        <linearGradient id="paint15_linear_1539_35140" x1="243.809" y1="180.766" x2="201.805" y2="183.247" gradientUnits="userSpaceOnUse">
            <stop stop-color="white"/>
            <stop offset="1" stop-color="white" stop-opacity="0"/>
        </linearGradient>
    </defs>
</svg>
