<svg width="445" height="363" viewBox="0 0 445 363" fill="none"
    xmlns="http://www.w3.org/2000/svg">
    <g filter="url(#filter0_f_1539_35139)">
        <ellipse rx="100.327" ry="63.6558" transform="matrix(-1 -8.74228e-08 -0.301031 -0.953614 222.489 181.387)" fill="url(#paint0_linear_1539_35139)"/>
    </g>
    <path d="M222.044 184.988C224.011 184.988 225.933 184.405 227.569 183.312C229.204 182.219 230.478 180.666 231.231 178.849C231.984 177.032 232.181 175.033 231.797 173.104C231.413 171.175 230.466 169.403 229.075 168.012C227.685 166.621 225.913 165.674 223.984 165.291C222.055 164.907 220.055 165.104 218.238 165.857C216.421 166.609 214.868 167.884 213.776 169.519C212.683 171.154 212.1 173.077 212.1 175.044C212.1 177.681 213.147 180.211 215.012 182.075C216.877 183.94 219.406 184.988 222.044 184.988ZM222.044 144.064C223.632 144.064 225.185 143.593 226.506 142.71C227.827 141.828 228.856 140.573 229.464 139.106C230.072 137.638 230.231 136.023 229.921 134.465C229.611 132.907 228.846 131.476 227.723 130.352C226.6 129.229 225.169 128.464 223.611 128.154C222.053 127.844 220.438 128.003 218.97 128.611C217.503 129.219 216.248 130.249 215.366 131.57C214.483 132.89 214.012 134.443 214.012 136.032C214.012 138.162 214.858 140.205 216.364 141.711C217.871 143.218 219.914 144.064 222.044 144.064ZM249.582 155.538C251.17 155.538 252.723 155.067 254.044 154.184C255.365 153.302 256.394 152.047 257.002 150.58C257.61 149.112 257.769 147.497 257.459 145.939C257.149 144.381 256.384 142.95 255.261 141.827C254.138 140.703 252.707 139.938 251.149 139.628C249.591 139.319 247.976 139.478 246.508 140.085C245.04 140.693 243.786 141.723 242.903 143.044C242.021 144.365 241.55 145.917 241.55 147.506C241.55 149.636 242.396 151.679 243.902 153.185C245.409 154.692 247.451 155.538 249.582 155.538ZM261.056 183.076C262.111 183.076 263.155 182.868 264.129 182.464C265.104 182.061 265.989 181.469 266.735 180.723C267.481 179.977 268.073 179.092 268.476 178.117C268.88 177.143 269.088 176.099 269.088 175.044C269.088 173.989 268.88 172.945 268.476 171.97C268.073 170.996 267.481 170.11 266.735 169.364C265.989 168.619 265.104 168.027 264.129 167.623C263.155 167.22 262.111 167.012 261.056 167.012C260.001 167.012 258.957 167.22 257.982 167.623C257.008 168.027 256.122 168.619 255.376 169.364C254.631 170.11 254.039 170.996 253.635 171.97C253.232 172.945 253.024 173.989 253.024 175.044C253.024 176.099 253.232 177.143 253.635 178.117C254.039 179.092 254.631 179.977 255.376 180.723C256.122 181.469 257.008 182.061 257.982 182.464C258.957 182.868 260.001 183.076 261.056 183.076ZM249.582 210.614C250.628 210.786 251.699 210.749 252.732 210.506C253.764 210.262 254.738 209.817 255.598 209.194C256.457 208.572 257.185 207.786 257.739 206.881C258.292 205.976 258.661 204.97 258.824 203.922C258.987 202.874 258.941 201.803 258.688 200.773C258.435 199.743 257.98 198.773 257.35 197.919C256.72 197.066 255.927 196.345 255.017 195.8C254.107 195.254 253.098 194.894 252.049 194.741C251.232 194.608 250.399 194.608 249.582 194.741C247.688 195.036 245.963 195.998 244.717 197.453C243.47 198.908 242.785 200.761 242.785 202.677C242.785 204.593 243.47 206.446 244.717 207.902C245.963 209.357 247.688 210.319 249.582 210.614ZM222.044 222.088C223.632 222.088 225.185 221.617 226.506 220.734C227.827 219.851 228.856 218.597 229.464 217.129C230.072 215.662 230.231 214.047 229.921 212.489C229.611 210.931 228.846 209.5 227.723 208.376C226.6 207.253 225.169 206.488 223.611 206.178C222.053 205.868 220.438 206.027 218.97 206.635C217.503 207.243 216.248 208.273 215.366 209.594C214.483 210.914 214.012 212.467 214.012 214.056C214.012 216.186 214.858 218.229 216.364 219.735C217.871 221.241 219.914 222.088 222.044 222.088ZM194.506 210.614C195.553 210.786 196.623 210.749 197.656 210.506C198.689 210.262 199.663 209.817 200.522 209.194C201.381 208.572 202.109 207.786 202.663 206.881C203.217 205.976 203.586 204.97 203.749 203.922C203.912 202.874 203.865 201.803 203.612 200.773C203.359 199.743 202.905 198.773 202.275 197.919C201.645 197.066 200.852 196.345 199.942 195.8C199.032 195.254 198.023 194.894 196.973 194.741C196.156 194.608 195.323 194.608 194.506 194.741C192.613 195.036 190.887 195.998 189.641 197.453C188.395 198.908 187.71 200.761 187.71 202.677C187.71 204.593 188.395 206.446 189.641 207.902C190.887 209.357 192.613 210.319 194.506 210.614ZM183.032 183.076C184.62 183.076 186.173 182.605 187.494 181.722C188.815 180.84 189.844 179.585 190.452 178.117C191.06 176.65 191.219 175.035 190.909 173.477C190.6 171.919 189.835 170.488 188.711 169.364C187.588 168.241 186.157 167.476 184.599 167.166C183.041 166.856 181.426 167.015 179.958 167.623C178.491 168.231 177.236 169.261 176.354 170.582C175.471 171.902 175 173.455 175 175.044C175 177.174 175.846 179.217 177.352 180.723C178.859 182.229 180.902 183.076 183.032 183.076ZM194.506 155.538C196.095 155.538 197.647 155.067 198.968 154.184C200.289 153.302 201.319 152.047 201.926 150.58C202.534 149.112 202.693 147.497 202.384 145.939C202.074 144.381 201.309 142.95 200.185 141.827C199.062 140.703 197.631 139.938 196.073 139.628C194.515 139.319 192.9 139.478 191.432 140.085C189.965 140.693 188.71 141.723 187.828 143.044C186.945 144.365 186.474 145.917 186.474 147.506C186.474 149.636 187.32 151.679 188.827 153.185C190.333 154.692 192.376 155.538 194.506 155.538Z" stroke="white" stroke-miterlimit="10" stroke-linecap="round"/>
    <path d="M237.241 166.444C237.241 166.444 248.661 165.94 255.693 178.12M238.691 179.504C238.691 179.504 247.096 187.299 243.433 200.968M230.487 190.174C230.487 190.174 230.99 201.594 218.627 208.576M217.612 191.674C214.808 194.268 211.359 196.064 207.626 196.874C204.273 197.602 200.801 197.511 197.502 196.617M207.176 183.334C203.315 183.326 199.53 182.264 196.229 180.263C192.927 178.262 190.234 175.397 188.441 171.978M205.257 170.545C205.257 170.545 196.853 162.75 200.7 149.13M213.597 160.109C213.734 156.258 214.908 152.515 216.996 149.276C219.083 146.037 222.007 143.422 225.457 141.707" stroke="url(#paint1_radial_1539_35139)" stroke-miterlimit="10" stroke-linecap="round"/>
    <path d="M226.62 158.055C226.62 158.055 234.181 149.786 247.85 153.448" stroke="url(#paint2_radial_1539_35139)" stroke-miterlimit="10" stroke-linecap="round"/>
    <g filter="url(#filter1_d_1539_35139)">
        <ellipse cx="221.763" cy="181.115" rx="110" ry="29" transform="rotate(30 221.763 181.115)" stroke="url(#paint3_linear_1539_35139)" stroke-linecap="round" stroke-linejoin="round" stroke-dasharray="2 2" shape-rendering="crispEdges"/>
    </g>
    <path d="M316.621 125.486C316.718 125.621 316.81 125.76 316.897 125.901L316.791 125.967C316.834 126.036 316.876 126.106 316.917 126.177C316.958 126.248 316.998 126.32 317.037 126.392L317.147 126.333C317.225 126.479 317.299 126.628 317.368 126.779L317.254 126.831C317.322 126.98 317.385 127.131 317.444 127.285L317.561 127.24C317.62 127.394 317.674 127.551 317.724 127.709L317.605 127.747C317.653 127.901 317.697 128.058 317.737 128.216L317.858 128.186C317.898 128.347 317.934 128.511 317.966 128.676L317.843 128.699C317.873 128.859 317.9 129.021 317.922 129.185L318.046 129.168C318.068 129.329 318.085 129.493 318.099 129.658L317.975 129.668C317.988 129.831 317.998 129.996 318.004 130.163L318.129 130.158C318.135 130.325 318.137 130.493 318.136 130.663L318.011 130.662C318.009 130.821 318.004 130.982 317.996 131.145L318.121 131.151C318.113 131.315 318.101 131.481 318.086 131.648L317.961 131.637C317.947 131.802 317.928 131.97 317.907 132.138L318.031 132.154C318.01 132.315 317.987 132.477 317.961 132.641L317.837 132.621C317.811 132.78 317.783 132.94 317.752 133.101L317.874 133.125C317.843 133.288 317.809 133.452 317.772 133.617L317.65 133.59C317.613 133.754 317.573 133.919 317.531 134.086L317.652 134.116C317.612 134.271 317.571 134.427 317.527 134.584L317.406 134.55C317.362 134.706 317.316 134.862 317.268 135.02L317.387 135.057C317.339 135.216 317.287 135.376 317.234 135.536L317.115 135.497C317.062 135.657 317.007 135.818 316.949 135.98L317.067 136.022C317.013 136.173 316.957 136.325 316.899 136.477L316.782 136.433C316.725 136.584 316.666 136.736 316.605 136.889L316.721 136.936C316.659 137.089 316.596 137.244 316.531 137.399L316.415 137.35C316.35 137.505 316.283 137.66 316.215 137.817L316.329 137.867C316.262 138.018 316.194 138.169 316.124 138.321L316.011 138.269C315.944 138.415 315.875 138.562 315.804 138.709L315.917 138.763C315.846 138.911 315.774 139.059 315.7 139.209L315.588 139.153C315.514 139.302 315.439 139.452 315.362 139.602L315.473 139.659C315.396 139.809 315.317 139.961 315.237 140.113L315.126 140.054C315.05 140.197 314.973 140.341 314.895 140.485L315.004 140.545C314.927 140.687 314.848 140.83 314.767 140.974L314.658 140.912C314.578 141.056 314.497 141.199 314.414 141.343L314.522 141.406C314.439 141.55 314.355 141.695 314.269 141.841L314.161 141.777C314.076 141.923 313.989 142.068 313.9 142.215L314.007 142.279C313.923 142.419 313.837 142.56 313.75 142.701L313.643 142.636C313.558 142.773 313.472 142.911 313.385 143.05L313.491 143.116C313.403 143.255 313.315 143.394 313.225 143.534L313.12 143.466C313.083 143.524 313.046 143.581 313.009 143.638C312.956 143.72 312.902 143.803 312.848 143.886L312.952 143.954C312.86 144.095 312.767 144.236 312.672 144.378L312.568 144.308C312.475 144.448 312.381 144.588 312.286 144.728L312.389 144.798C312.298 144.932 312.207 145.066 312.114 145.2L312.011 145.129C311.919 145.263 311.825 145.397 311.73 145.532L311.833 145.604C311.738 145.739 311.642 145.874 311.546 146.01L311.444 145.937C311.347 146.073 311.25 146.209 311.151 146.345L311.252 146.418C311.154 146.555 311.054 146.691 310.953 146.829L310.852 146.755C310.754 146.889 310.654 147.023 310.554 147.158L310.654 147.233C310.557 147.363 310.46 147.493 310.361 147.624L310.262 147.548C310.163 147.679 310.064 147.809 309.964 147.94L310.064 148.016C309.963 148.147 309.862 148.279 309.76 148.41L309.661 148.334C309.56 148.465 309.457 148.597 309.354 148.729L309.452 148.806C309.348 148.939 309.244 149.071 309.138 149.204L309.04 149.127C308.936 149.259 308.831 149.391 308.725 149.523L308.822 149.601C308.721 149.728 308.619 149.854 308.516 149.981L308.419 149.902C308.316 150.029 308.213 150.156 308.108 150.283L308.205 150.362C308.101 150.49 307.996 150.617 307.89 150.745L307.794 150.665C307.688 150.793 307.581 150.921 307.474 151.049L307.57 151.13C307.463 151.258 307.355 151.387 307.246 151.515L307.15 151.435C307.041 151.564 306.932 151.692 306.822 151.822L306.917 151.903C306.81 152.028 306.702 152.154 306.593 152.28L306.499 152.199C306.392 152.322 306.286 152.445 306.178 152.569L306.273 152.651C306.165 152.775 306.057 152.899 305.948 153.023L305.854 152.941C305.745 153.065 305.636 153.189 305.526 153.313L305.62 153.396C305.509 153.521 305.398 153.646 305.287 153.771L305.194 153.687C305.082 153.812 304.97 153.937 304.857 154.063L304.95 154.146C304.838 154.272 304.724 154.398 304.61 154.523L304.517 154.439C304.407 154.561 304.296 154.683 304.184 154.805L304.276 154.89C304.166 155.01 304.056 155.131 303.945 155.251L303.853 155.167C303.742 155.287 303.63 155.408 303.518 155.529L303.609 155.614C303.497 155.735 303.384 155.856 303.27 155.978L303.179 155.892C303.066 156.014 302.952 156.135 302.837 156.257L302.928 156.343C302.813 156.464 302.698 156.586 302.582 156.708L302.491 156.622C302.376 156.744 302.259 156.867 302.142 156.989L302.233 157.075C302.118 157.195 302.002 157.316 301.886 157.436L301.796 157.35C301.683 157.467 301.57 157.585 301.456 157.702L301.545 157.789C301.431 157.907 301.317 158.025 301.202 158.143L301.112 158.056C301.053 158.116 300.995 158.176 300.936 158.236C300.879 158.294 300.822 158.352 300.765 158.41L300.855 158.497C300.738 158.616 300.622 158.734 300.504 158.853L300.416 158.765C300.298 158.884 300.181 159.002 300.063 159.121L300.151 159.209C300.033 159.328 299.914 159.447 299.795 159.567L299.706 159.478C299.587 159.597 299.467 159.716 299.347 159.836L299.435 159.925C299.319 160.04 299.202 160.156 299.085 160.271L298.997 160.182C298.881 160.297 298.764 160.412 298.647 160.527L298.735 160.616C298.617 160.732 298.499 160.847 298.381 160.962L298.294 160.873C298.237 160.928 298.179 160.984 298.122 161.04C298.061 161.1 297.999 161.159 297.938 161.219L298.025 161.309C297.906 161.424 297.786 161.54 297.666 161.656L297.579 161.566C297.459 161.682 297.338 161.798 297.217 161.914L297.304 162.004C297.183 162.12 297.061 162.237 296.939 162.353L296.853 162.262C296.731 162.379 296.609 162.495 296.486 162.612L296.572 162.702C296.453 162.815 296.334 162.927 296.215 163.04L296.129 162.949C296.01 163.061 295.89 163.174 295.77 163.286L295.856 163.378C295.736 163.49 295.616 163.603 295.495 163.716L295.409 163.624C295.371 163.66 295.332 163.696 295.294 163.733C295.211 163.809 295.129 163.886 295.046 163.963L295.131 164.055C295.009 164.168 294.887 164.281 294.765 164.394L294.68 164.302C294.557 164.415 294.435 164.529 294.311 164.642L294.396 164.734C294.273 164.847 294.149 164.961 294.025 165.074L293.94 164.982C293.816 165.096 293.692 165.209 293.567 165.323L293.651 165.416C293.529 165.526 293.407 165.637 293.284 165.749L293.2 165.656C293.079 165.766 292.957 165.876 292.835 165.986L292.919 166.079C292.797 166.189 292.674 166.299 292.551 166.409L292.468 166.316C292.345 166.427 292.222 166.537 292.098 166.647L292.181 166.741C292.058 166.851 291.934 166.962 291.809 167.072L291.726 166.979C291.664 167.034 291.601 167.09 291.539 167.145C291.477 167.201 291.414 167.256 291.352 167.311L291.435 167.404C291.31 167.515 291.184 167.626 291.058 167.737L290.975 167.643C290.85 167.754 290.723 167.865 290.597 167.976L290.679 168.07C290.553 168.181 290.427 168.291 290.301 168.402L290.218 168.307C290.095 168.415 289.972 168.523 289.848 168.63L289.93 168.725C289.806 168.832 289.682 168.94 289.557 169.048L289.475 168.954C289.35 169.061 289.226 169.169 289.1 169.277L289.182 169.372C289.057 169.48 288.931 169.588 288.805 169.696L288.723 169.602C288.597 169.71 288.471 169.818 288.345 169.926L288.426 170.021C288.299 170.129 288.172 170.238 288.045 170.346L287.964 170.251C287.836 170.359 287.709 170.468 287.581 170.576L287.661 170.672C287.533 170.78 287.405 170.889 287.276 170.998L287.195 170.902C287.068 171.009 286.941 171.117 286.813 171.224L286.894 171.32C286.768 171.425 286.642 171.531 286.516 171.636L286.436 171.54C286.357 171.606 286.278 171.672 286.199 171.739C286.152 171.778 286.105 171.818 286.057 171.857L286.137 171.953C286.01 172.059 285.883 172.165 285.756 172.27L285.676 172.174C285.549 172.28 285.421 172.386 285.293 172.492L285.373 172.588C285.245 172.694 285.117 172.8 284.988 172.906L284.909 172.809C284.78 172.915 284.651 173.021 284.522 173.128L284.601 173.224C284.472 173.33 284.342 173.436 284.213 173.543L284.133 173.446C284.004 173.552 283.874 173.658 283.743 173.764L283.822 173.861C283.693 173.967 283.563 174.072 283.434 174.177L283.355 174.08C283.227 174.184 283.1 174.287 282.972 174.39L283.051 174.488C282.923 174.591 282.794 174.695 282.666 174.798L282.587 174.701C282.459 174.804 282.33 174.908 282.201 175.011L282.28 175.109C282.15 175.213 282.021 175.316 281.891 175.42L281.813 175.322C281.684 175.426 281.554 175.53 281.424 175.633L281.502 175.731C281.371 175.835 281.241 175.939 281.11 176.043L281.032 175.945C280.902 176.049 280.771 176.152 280.639 176.256L280.717 176.354C280.585 176.458 280.454 176.562 280.322 176.666L280.245 176.568C280.113 176.672 279.98 176.776 279.848 176.88L279.925 176.978C279.796 177.08 279.667 177.181 279.537 177.282L279.46 177.184C279.331 177.285 279.201 177.387 279.071 177.488L279.148 177.587C279.018 177.688 278.888 177.79 278.757 177.891L278.68 177.792C278.55 177.894 278.419 177.995 278.288 178.097L278.365 178.196C278.234 178.297 278.102 178.399 277.971 178.501L277.894 178.402C277.763 178.503 277.631 178.605 277.499 178.706L277.575 178.805C277.443 178.907 277.311 179.009 277.178 179.111L277.102 179.011C276.969 179.113 276.836 179.215 276.703 179.317L276.779 179.416C276.646 179.518 276.513 179.619 276.379 179.721L276.303 179.622C276.171 179.723 276.038 179.824 275.905 179.924L275.981 180.024C275.85 180.123 275.719 180.223 275.587 180.322L275.512 180.222C275.381 180.322 275.249 180.421 275.117 180.521L275.193 180.62C275.061 180.72 274.929 180.819 274.796 180.919L274.721 180.819C274.589 180.918 274.456 181.018 274.324 181.117L274.399 181.217C274.266 181.317 274.133 181.416 273.999 181.516L273.924 181.416C273.791 181.515 273.658 181.615 273.524 181.714L273.599 181.815C273.465 181.914 273.331 182.014 273.197 182.114L273.122 182.013C272.988 182.113 272.853 182.212 272.719 182.312L272.793 182.413C272.658 182.512 272.523 182.612 272.388 182.712L272.314 182.611C272.181 182.709 272.047 182.808 271.913 182.906L271.987 183.007C271.854 183.104 271.722 183.202 271.589 183.299L271.515 183.198C271.382 183.296 271.249 183.393 271.115 183.491L271.189 183.592C271.055 183.689 270.922 183.787 270.788 183.884L270.714 183.783C270.58 183.881 270.446 183.978 270.312 184.076L270.385 184.177C270.251 184.274 270.116 184.372 269.982 184.469L269.908 184.368C269.774 184.466 269.639 184.563 269.504 184.661L269.577 184.762C269.441 184.86 269.306 184.957 269.17 185.055L269.097 184.953C269.054 184.984 269.011 185.015 268.968 185.046C268.958 185.053 268.948 185.06 268.938 185.068C268.856 185.127 268.773 185.186 268.69 185.246L268.763 185.347C268.627 185.445 268.49 185.543 268.354 185.64L268.281 185.539C268.146 185.635 268.011 185.732 267.875 185.828L267.948 185.93C267.813 186.026 267.679 186.121 267.545 186.217L267.472 186.115C267.43 186.145 267.389 186.174 267.347 186.204C267.328 186.218 267.309 186.231 267.29 186.245C267.23 186.287 267.17 186.33 267.11 186.372C267.096 186.382 267.082 186.392 267.068 186.401L267.141 186.503C267.006 186.599 266.871 186.694 266.735 186.79L266.663 186.688C266.528 186.783 266.393 186.879 266.257 186.974L266.329 187.077C266.193 187.172 266.057 187.268 265.921 187.363L265.849 187.261C265.713 187.357 265.577 187.452 265.441 187.548L265.512 187.65C265.376 187.746 265.239 187.841 265.102 187.937L265.031 187.834C264.97 187.877 264.909 187.919 264.848 187.961C264.834 187.971 264.82 187.981 264.806 187.991C264.744 188.034 264.682 188.077 264.619 188.121L264.691 188.223C264.553 188.319 264.416 188.415 264.278 188.51L264.207 188.407C264.07 188.503 263.932 188.598 263.795 188.693L263.866 188.796C263.731 188.889 263.595 188.983 263.459 189.077L263.388 188.974C263.252 189.067 263.117 189.161 262.98 189.255L263.051 189.358C262.915 189.451 262.779 189.545 262.642 189.639L262.572 189.535C262.435 189.629 262.298 189.723 262.161 189.816L262.232 189.919C262.095 190.013 261.958 190.107 261.821 190.2L261.75 190.097C261.613 190.191 261.476 190.284 261.338 190.378L261.408 190.481C261.271 190.575 261.133 190.668 260.995 190.762L260.925 190.658C260.787 190.752 260.648 190.846 260.51 190.939L260.58 191.043C260.442 191.136 260.303 191.23 260.164 191.323L260.094 191.22C259.956 191.313 259.817 191.407 259.677 191.5L259.747 191.604C259.61 191.696 259.472 191.789 259.334 191.881L259.265 191.777C259.128 191.869 258.991 191.961 258.853 192.052L258.923 192.156C258.786 192.248 258.648 192.34 258.51 192.432L258.441 192.328C258.303 192.419 258.166 192.511 258.028 192.603L258.097 192.707C257.959 192.799 257.821 192.89 257.682 192.982L257.613 192.878C257.475 192.97 257.336 193.061 257.198 193.153L257.267 193.257C257.128 193.349 256.989 193.44 256.85 193.532L256.781 193.428C256.642 193.519 256.503 193.611 256.363 193.703L256.432 193.807C256.293 193.899 256.153 193.99 256.013 194.082L255.945 193.977C255.805 194.069 255.665 194.16 255.525 194.252L255.593 194.357C255.453 194.448 255.313 194.54 255.173 194.631L255.104 194.526C254.966 194.616 254.828 194.706 254.69 194.796L254.758 194.901C254.619 194.991 254.481 195.081 254.342 195.171L254.274 195.066C254.135 195.156 253.996 195.246 253.857 195.336L253.925 195.441C253.786 195.53 253.647 195.62 253.508 195.71L253.44 195.605C253.301 195.695 253.161 195.785 253.021 195.874L253.089 195.98C252.949 196.069 252.809 196.159 252.669 196.249L252.602 196.144C252.462 196.233 252.322 196.323 252.181 196.413L252.249 196.518C252.108 196.608 251.968 196.697 251.827 196.787L251.76 196.682C251.619 196.771 251.479 196.861 251.338 196.951L251.405 197.056C251.264 197.146 251.123 197.235 250.981 197.325L250.914 197.219C250.773 197.309 250.632 197.398 250.491 197.487L250.558 197.593C250.418 197.681 250.279 197.769 250.139 197.857L250.072 197.752C249.932 197.84 249.793 197.928 249.653 198.016L249.719 198.122C249.579 198.21 249.439 198.298 249.299 198.386L249.232 198.28C249.092 198.368 248.951 198.456 248.811 198.544L248.877 198.65C248.736 198.738 248.596 198.825 248.455 198.913L248.389 198.807C248.248 198.895 248.107 198.983 247.965 199.071L248.031 199.177C247.89 199.265 247.749 199.353 247.607 199.44L247.541 199.334C247.4 199.422 247.258 199.51 247.116 199.597L247.182 199.704C247.04 199.791 246.898 199.879 246.756 199.967L246.691 199.86C246.549 199.948 246.406 200.036 246.264 200.123L246.329 200.23C246.187 200.317 246.045 200.405 245.902 200.492L245.837 200.386L245.414 200.644L245.48 200.751C245.339 200.837 245.198 200.924 245.056 201.01L244.991 200.903L244.567 201.161L244.632 201.268C244.491 201.354 244.349 201.44 244.207 201.527L244.142 201.42L243.717 201.678L243.781 201.785C243.639 201.871 243.497 201.957 243.355 202.043L243.29 201.936L242.863 202.193L242.927 202.3C242.785 202.386 242.642 202.472 242.499 202.558L242.435 202.451L242.006 202.708L242.07 202.815C241.927 202.901 241.783 202.987 241.64 203.072L241.576 202.965L241.145 203.222L241.209 203.329C241.067 203.414 240.925 203.498 240.782 203.583L240.718 203.475L240.292 203.728L240.355 203.836C240.213 203.92 240.071 204.005 239.928 204.089L239.864 203.981L239.436 204.234L239.5 204.342C239.357 204.426 239.214 204.51 239.071 204.594L239.007 204.486L238.577 204.738L238.641 204.846C238.497 204.93 238.354 205.014 238.21 205.098L238.147 204.99L237.716 205.242L237.779 205.35C237.635 205.434 237.491 205.518 237.346 205.602L237.284 205.494L236.851 205.745L236.914 205.853C236.769 205.937 236.625 206.02 236.48 206.104L236.417 205.996L236.2 206.121L235.983 206.247L236.046 206.355C235.901 206.438 235.756 206.522 235.611 206.605L235.549 206.496L235.115 206.746L235.177 206.854C235.033 206.937 234.888 207.02 234.743 207.103L234.681 206.994L234.248 207.242L234.31 207.35C234.165 207.433 234.02 207.515 233.876 207.597L233.814 207.489L233.381 207.735L233.443 207.843C233.298 207.925 233.154 208.007 233.009 208.089L232.948 207.98L232.515 208.224L232.576 208.333C232.432 208.415 232.288 208.496 232.144 208.577L232.082 208.468L231.65 208.711L231.711 208.82C231.567 208.901 231.422 208.982 231.278 209.063L231.217 208.954L230.779 209.198L230.84 209.307C230.694 209.389 230.548 209.47 230.402 209.551L230.342 209.442L229.904 209.685L229.965 209.794C229.819 209.875 229.673 209.956 229.528 210.036L229.467 209.927L229.03 210.168L229.091 210.278C228.945 210.358 228.8 210.438 228.654 210.518L228.594 210.409L228.158 210.648L228.218 210.758C228.072 210.838 227.927 210.917 227.781 210.997L227.721 210.887L227.286 211.125L227.346 211.235C227.2 211.314 227.055 211.393 226.91 211.472L226.85 211.363L226.415 211.599L226.474 211.709C226.327 211.789 226.18 211.868 226.033 211.948L225.974 211.838C225.908 211.874 225.841 211.909 225.775 211.945C225.694 211.989 225.614 212.032 225.533 212.076L225.592 212.186C225.445 212.265 225.298 212.344 225.152 212.423L225.092 212.313C225.026 212.349 224.96 212.384 224.893 212.42C224.813 212.463 224.732 212.506 224.652 212.549L224.711 212.66C224.564 212.738 224.417 212.817 224.271 212.895L224.212 212.785C224.065 212.863 223.919 212.942 223.772 213.02L223.831 213.13C223.684 213.208 223.538 213.286 223.391 213.364L223.333 213.253C223.186 213.331 223.04 213.409 222.893 213.486L222.952 213.597C222.806 213.674 222.659 213.752 222.513 213.829L222.455 213.719C222.308 213.796 222.162 213.873 222.016 213.95L222.074 214.06C221.928 214.137 221.782 214.214 221.636 214.291L221.578 214.18C221.43 214.258 221.282 214.336 221.134 214.413L221.192 214.524C221.044 214.601 220.895 214.679 220.747 214.756L220.69 214.645C220.541 214.723 220.393 214.8 220.246 214.877L220.303 214.988C220.155 215.065 220.007 215.141 219.859 215.218L219.802 215.107C219.72 215.15 219.638 215.192 219.556 215.234C219.49 215.268 219.425 215.303 219.359 215.337L219.416 215.448C219.268 215.524 219.121 215.6 218.973 215.676L218.916 215.565C218.768 215.641 218.621 215.717 218.473 215.793L218.53 215.904C218.383 215.98 218.235 216.056 218.088 216.131L218.031 216.02C217.884 216.095 217.736 216.171 217.589 216.246L217.646 216.357C217.499 216.432 217.352 216.508 217.205 216.582L217.148 216.471C217.063 216.514 216.978 216.558 216.892 216.601C216.831 216.632 216.769 216.664 216.707 216.695L216.763 216.807C216.614 216.883 216.464 216.958 216.315 217.034L216.259 216.922C216.109 216.998 215.96 217.073 215.811 217.148L215.867 217.26C215.718 217.335 215.569 217.41 215.42 217.485L215.364 217.374C215.215 217.449 215.066 217.523 214.917 217.598L214.973 217.71C214.824 217.784 214.675 217.859 214.526 217.933L214.471 217.821C214.322 217.896 214.173 217.97 214.025 218.044L214.08 218.156C213.932 218.23 213.783 218.303 213.635 218.377L213.579 218.265C213.431 218.339 213.282 218.412 213.134 218.486L213.19 218.598C213.041 218.671 212.893 218.744 212.745 218.817L212.69 218.705C212.626 218.736 212.563 218.768 212.499 218.799C212.415 218.841 212.33 218.882 212.246 218.924L212.301 219.036C212.152 219.109 212.003 219.182 211.854 219.255L211.799 219.143C211.649 219.216 211.498 219.29 211.348 219.363L211.403 219.476C211.253 219.549 211.102 219.622 210.952 219.695L210.897 219.583C210.747 219.656 210.597 219.729 210.447 219.802L210.501 219.914C210.351 219.987 210.201 220.059 210.052 220.132L209.997 220.019C209.847 220.092 209.698 220.164 209.548 220.236L209.602 220.349C209.452 220.421 209.303 220.493 209.153 220.565L209.099 220.452C208.95 220.524 208.8 220.595 208.651 220.667L208.705 220.779C208.555 220.851 208.406 220.922 208.257 220.993L208.203 220.88C208.054 220.951 207.905 221.022 207.756 221.093L207.81 221.206C207.661 221.277 207.512 221.347 207.363 221.418L207.31 221.305C207.158 221.376 207.007 221.448 206.856 221.519L206.91 221.632C206.758 221.703 206.606 221.775 206.455 221.846L206.402 221.733C206.25 221.804 206.099 221.875 205.948 221.946L206.001 222.059C205.85 222.13 205.699 222.2 205.548 222.271L205.495 222.157C205.344 222.228 205.193 222.298 205.042 222.368L205.095 222.481C204.944 222.552 204.793 222.621 204.643 222.691L204.59 222.578C204.44 222.647 204.289 222.717 204.139 222.786L204.191 222.9C204.041 222.969 203.891 223.038 203.74 223.108L203.688 222.994C203.538 223.063 203.388 223.132 203.238 223.2L203.29 223.314C203.14 223.383 202.99 223.451 202.841 223.52L202.789 223.406C202.637 223.475 202.486 223.544 202.335 223.613L202.386 223.726C202.234 223.796 202.081 223.865 201.928 223.934L201.877 223.82C201.724 223.889 201.572 223.958 201.42 224.027L201.471 224.141C201.319 224.21 201.167 224.278 201.014 224.346L200.963 224.232C200.811 224.301 200.659 224.369 200.507 224.437L200.558 224.551C200.407 224.619 200.255 224.687 200.103 224.754L200.052 224.64C199.901 224.708 199.749 224.775 199.598 224.842L199.649 224.956C199.497 225.024 199.346 225.091 199.195 225.157L199.144 225.043C198.993 225.11 198.842 225.177 198.691 225.243L198.742 225.357C198.591 225.424 198.44 225.49 198.289 225.556L198.239 225.442C198.087 225.509 197.935 225.575 197.783 225.642L197.833 225.756C197.679 225.823 197.525 225.89 197.371 225.957L197.322 225.843C197.168 225.909 197.015 225.976 196.861 226.042L196.911 226.157C196.757 226.224 196.604 226.29 196.451 226.356L196.401 226.241C196.248 226.307 196.095 226.373 195.943 226.439L195.992 226.554C195.839 226.619 195.686 226.685 195.534 226.75L195.485 226.635C195.332 226.7 195.18 226.765 195.027 226.83L195.076 226.945C194.924 227.01 194.772 227.075 194.62 227.139L194.571 227.024C194.419 227.089 194.267 227.153 194.115 227.217L194.164 227.332C194.012 227.396 193.861 227.46 193.709 227.524L193.661 227.408C193.507 227.473 193.353 227.537 193.2 227.602L193.248 227.717C193.093 227.782 192.938 227.846 192.783 227.911L192.735 227.795C192.581 227.86 192.426 227.924 192.272 227.988L192.32 228.104C192.165 228.168 192.011 228.231 191.857 228.295L191.809 228.179C191.655 228.243 191.501 228.306 191.347 228.369L191.395 228.485C191.241 228.548 191.087 228.611 190.934 228.674L190.887 228.558C190.733 228.621 190.58 228.684 190.427 228.746L190.474 228.862C190.321 228.924 190.168 228.986 190.015 229.048L189.968 228.932C189.815 228.994 189.662 229.056 189.51 229.117L189.557 229.233C189.404 229.294 189.252 229.356 189.099 229.417L189.053 229.301C188.896 229.363 188.74 229.426 188.584 229.488L188.631 229.604C188.475 229.666 188.319 229.728 188.163 229.79L188.117 229.674C187.961 229.736 187.806 229.797 187.651 229.859L187.696 229.975C187.541 230.036 187.386 230.097 187.231 230.158L187.185 230.042C187.03 230.103 186.876 230.163 186.721 230.224L186.767 230.34C186.612 230.401 186.457 230.461 186.303 230.521L186.258 230.404C186.104 230.464 185.95 230.524 185.796 230.584L185.841 230.7C185.687 230.76 185.533 230.819 185.38 230.878L185.335 230.761C185.181 230.82 185.028 230.879 184.875 230.938L184.919 231.055C184.763 231.114 184.607 231.174 184.451 231.233L184.407 231.116C184.25 231.176 184.093 231.236 183.936 231.295L183.98 231.412C183.823 231.471 183.667 231.53 183.51 231.589L183.466 231.472C183.31 231.531 183.153 231.59 182.997 231.648L183.041 231.765C182.885 231.823 182.729 231.882 182.573 231.939L182.53 231.822C182.374 231.88 182.219 231.938 182.063 231.995L182.107 232.112C181.951 232.17 181.796 232.227 181.641 232.284L181.598 232.166C181.444 232.223 181.289 232.28 181.134 232.336L181.177 232.454C181.023 232.51 180.869 232.566 180.714 232.622L180.672 232.505C180.515 232.562 180.358 232.618 180.202 232.675L180.244 232.792C180.086 232.85 179.928 232.906 179.769 232.963L179.727 232.845C179.569 232.902 179.412 232.958 179.254 233.014L179.296 233.132C179.138 233.188 178.981 233.244 178.824 233.3L178.782 233.182C178.625 233.237 178.468 233.293 178.312 233.348L178.353 233.466C178.196 233.521 178.04 233.576 177.884 233.63L177.843 233.512C177.793 233.53 177.743 233.547 177.693 233.564C177.587 233.601 177.481 233.638 177.375 233.675L177.416 233.793C177.26 233.847 177.104 233.901 176.949 233.954L176.908 233.836C176.753 233.889 176.598 233.942 176.443 233.995L176.484 234.114C176.325 234.168 176.166 234.222 176.008 234.276L175.968 234.157C175.808 234.212 175.649 234.265 175.49 234.319L175.53 234.437C175.371 234.491 175.212 234.544 175.053 234.597L175.014 234.479C174.855 234.532 174.697 234.584 174.539 234.637L174.578 234.756C174.42 234.808 174.263 234.86 174.105 234.912L174.066 234.793C173.909 234.845 173.751 234.897 173.594 234.948L173.633 235.067C173.476 235.118 173.32 235.169 173.163 235.22L173.125 235.101C172.968 235.151 172.812 235.202 172.656 235.252L172.695 235.371C172.537 235.422 172.38 235.472 172.223 235.522L172.185 235.403C172.024 235.454 171.863 235.505 171.703 235.556L171.741 235.675C171.58 235.726 171.42 235.776 171.26 235.826L171.223 235.707C171.063 235.757 170.903 235.807 170.744 235.856L170.781 235.976C170.622 236.025 170.463 236.075 170.304 236.123L170.267 236.004C170.109 236.053 169.95 236.101 169.792 236.149L169.829 236.269C169.671 236.317 169.513 236.365 169.355 236.413L169.319 236.293C169.162 236.341 169.005 236.388 168.848 236.435L168.884 236.555C168.726 236.602 168.569 236.649 168.413 236.695L168.377 236.575C168.215 236.623 168.053 236.671 167.891 236.719L167.926 236.838C167.765 236.886 167.603 236.933 167.442 236.98L167.407 236.86C167.246 236.907 167.085 236.953 166.925 236.999L166.96 237.119C166.799 237.165 166.639 237.211 166.479 237.257L166.445 237.136C166.285 237.182 166.126 237.227 165.967 237.272L166.001 237.392C165.842 237.437 165.683 237.481 165.525 237.525L165.491 237.405C165.333 237.449 165.175 237.492 165.017 237.536L165.051 237.656C164.892 237.7 164.733 237.743 164.575 237.786L164.542 237.665C164.379 237.71 164.216 237.754 164.053 237.798L164.085 237.918C163.923 237.962 163.76 238.005 163.598 238.048L163.566 237.928C163.404 237.97 163.242 238.013 163.081 238.055L163.113 238.176C162.951 238.218 162.79 238.26 162.63 238.302L162.598 238.181C162.438 238.222 162.278 238.263 162.118 238.304L162.149 238.425C161.989 238.466 161.83 238.506 161.671 238.546L161.64 238.425C161.482 238.464 161.323 238.504 161.165 238.543L161.195 238.664C161.033 238.705 160.871 238.744 160.709 238.784L160.679 238.662C160.515 238.703 160.351 238.742 160.187 238.781L160.217 238.903C160.053 238.942 159.89 238.981 159.727 239.02L159.698 238.898C159.535 238.936 159.373 238.974 159.211 239.012L159.24 239.134C159.078 239.171 158.916 239.209 158.755 239.245L158.727 239.124C158.566 239.16 158.406 239.197 158.246 239.233L158.273 239.355C158.113 239.39 157.954 239.426 157.794 239.461L157.768 239.339C157.606 239.375 157.445 239.41 157.284 239.445L157.31 239.567C157.144 239.603 156.979 239.638 156.814 239.673L156.788 239.551C156.623 239.586 156.458 239.62 156.295 239.654L156.32 239.777C156.156 239.811 155.992 239.844 155.829 239.878L155.804 239.755C155.642 239.788 155.479 239.821 155.318 239.853L155.342 239.975C155.18 240.008 155.018 240.039 154.858 240.071L154.834 239.948C154.673 239.979 154.513 240.01 154.353 240.04L154.376 240.163C154.213 240.194 154.05 240.224 153.887 240.254L153.865 240.131C153.698 240.162 153.531 240.193 153.365 240.222L153.388 240.345C153.221 240.375 153.056 240.405 152.891 240.433L152.87 240.31C152.705 240.339 152.541 240.367 152.377 240.395L152.398 240.518C152.235 240.546 152.072 240.573 151.909 240.6L151.889 240.476C151.727 240.503 151.565 240.529 151.404 240.555L151.424 240.678C151.262 240.704 151.102 240.729 150.942 240.754L150.923 240.63C150.755 240.656 150.588 240.681 150.421 240.705L150.44 240.829C150.272 240.854 150.105 240.878 149.938 240.902L149.921 240.778C149.755 240.801 149.589 240.824 149.424 240.847L149.441 240.971C149.276 240.993 149.112 241.015 148.948 241.036L148.932 240.912C148.769 240.933 148.606 240.954 148.444 240.974L148.459 241.098C148.297 241.118 148.135 241.137 147.975 241.156L147.96 241.032C147.793 241.051 147.627 241.07 147.461 241.089L147.475 241.213C147.306 241.231 147.137 241.249 146.97 241.267L146.957 241.142C146.79 241.16 146.623 241.176 146.458 241.192L146.47 241.316C146.304 241.332 146.139 241.348 145.974 241.362L145.963 241.238C145.799 241.252 145.636 241.266 145.474 241.279L145.484 241.404C145.321 241.417 145.16 241.429 144.999 241.441L144.99 241.317C144.82 241.329 144.652 241.341 144.484 241.352L144.493 241.476C144.323 241.487 144.154 241.498 143.986 241.507L143.979 241.382C143.812 241.392 143.645 241.4 143.48 241.408L143.486 241.533C143.32 241.541 143.155 241.548 142.991 241.554L142.986 241.429C142.823 241.436 142.66 241.441 142.499 241.446L142.502 241.571C142.336 241.576 142.172 241.58 142.008 241.583L142.006 241.458C141.835 241.461 141.665 241.464 141.496 241.465L141.497 241.59C141.328 241.592 141.161 241.592 140.994 241.592L140.994 241.467C140.828 241.467 140.663 241.466 140.499 241.464L140.497 241.589C140.333 241.586 140.17 241.583 140.007 241.579L140.011 241.454C139.846 241.45 139.683 241.445 139.521 241.439L139.517 241.564C139.345 241.558 139.175 241.551 139.006 241.542L139.012 241.417C138.843 241.409 138.676 241.4 138.51 241.389L138.502 241.514C138.336 241.503 138.171 241.492 138.008 241.479L138.018 241.354C137.855 241.341 137.693 241.328 137.533 241.313L137.522 241.437C137.355 241.422 137.19 241.405 137.026 241.388L137.04 241.263C136.87 241.245 136.702 241.225 136.535 241.204L136.52 241.328C136.353 241.307 136.187 241.285 136.024 241.261L136.041 241.137C135.878 241.114 135.717 241.089 135.558 241.063L135.538 241.187C135.376 241.16 135.217 241.133 135.059 241.104L135.081 240.981C134.912 240.95 134.745 240.918 134.58 240.884L134.555 241.006C134.389 240.972 134.225 240.936 134.063 240.899L134.091 240.777C133.93 240.74 133.771 240.702 133.615 240.662L133.584 240.783C133.426 240.743 133.27 240.701 133.116 240.658L133.15 240.538C132.985 240.491 132.822 240.443 132.661 240.393L132.624 240.512C132.462 240.461 132.303 240.409 132.147 240.355L132.188 240.237C132.032 240.183 131.879 240.128 131.729 240.071L131.684 240.188C131.529 240.129 131.377 240.068 131.227 240.005L131.276 239.89C131.119 239.824 130.965 239.756 130.814 239.686L130.762 239.8C130.609 239.729 130.46 239.656 130.314 239.581L130.371 239.47C130.226 239.396 130.084 239.32 129.946 239.242L129.884 239.35C129.736 239.267 129.591 239.181 129.45 239.092L129.516 238.986C129.375 238.898 129.237 238.807 129.103 238.713L129.031 238.816C128.895 238.721 128.763 238.624 128.634 238.525L128.711 238.426C128.58 238.325 128.453 238.221 128.33 238.115L128.248 238.21C128.12 238.1 127.997 237.987 127.878 237.871L127.964 237.782C127.847 237.668 127.733 237.551 127.624 237.432L127.532 237.517C127.419 237.394 127.311 237.269 127.207 237.141L127.304 237.062C127.2 236.935 127.101 236.804 127.006 236.671L126.904 236.744C126.808 236.608 126.716 236.47 126.628 236.329L126.734 236.263C126.691 236.193 126.649 236.123 126.608 236.052C126.567 235.981 126.528 235.91 126.489 235.838L126.379 235.897C126.3 235.75 126.227 235.601 126.158 235.45L126.271 235.398C126.203 235.249 126.14 235.098 126.082 234.945L125.965 234.989C125.906 234.835 125.851 234.679 125.802 234.52L125.921 234.483C125.873 234.328 125.828 234.172 125.789 234.013L125.667 234.043C125.627 233.882 125.591 233.719 125.56 233.554L125.683 233.53C125.652 233.37 125.626 233.209 125.604 233.045L125.48 233.061C125.458 232.9 125.44 232.737 125.426 232.572L125.551 232.561C125.537 232.398 125.527 232.234 125.521 232.067L125.396 232.071C125.39 231.905 125.388 231.736 125.39 231.566L125.515 231.567C125.516 231.408 125.521 231.247 125.53 231.085L125.405 231.079C125.413 230.914 125.425 230.749 125.44 230.582L125.564 230.593C125.579 230.427 125.597 230.26 125.619 230.091L125.495 230.075C125.515 229.914 125.539 229.752 125.565 229.588L125.688 229.608C125.714 229.45 125.743 229.289 125.774 229.128L125.651 229.104C125.683 228.942 125.717 228.778 125.754 228.612L125.876 228.64C125.913 228.476 125.952 228.311 125.995 228.144L125.874 228.113C125.913 227.958 125.955 227.803 125.999 227.646L126.119 227.68C126.163 227.524 126.209 227.367 126.258 227.209L126.138 227.172C126.187 227.014 126.238 226.854 126.292 226.693L126.41 226.733C126.463 226.573 126.519 226.412 126.577 226.25L126.459 226.208C126.513 226.057 126.569 225.905 126.626 225.752L126.743 225.796C126.801 225.645 126.86 225.493 126.921 225.34L126.805 225.294C126.866 225.14 126.93 224.986 126.995 224.831L127.11 224.879C127.175 224.725 127.242 224.569 127.311 224.413L127.197 224.362C127.263 224.212 127.331 224.06 127.401 223.908L127.515 223.961C127.582 223.815 127.651 223.668 127.721 223.52L127.609 223.467C127.679 223.319 127.752 223.17 127.826 223.021L127.938 223.076C128.011 222.927 128.087 222.778 128.164 222.628L128.052 222.571C128.13 222.42 128.208 222.269 128.289 222.117L128.399 222.175C128.475 222.032 128.552 221.889 128.631 221.744L128.521 221.685C128.599 221.542 128.678 221.399 128.758 221.256L128.867 221.317C128.947 221.174 129.029 221.03 129.112 220.886L129.003 220.824C129.086 220.679 129.171 220.534 129.257 220.389L129.364 220.452C129.45 220.307 129.537 220.161 129.625 220.015L129.518 219.95C129.603 219.81 129.689 219.669 129.776 219.528L129.882 219.594C129.967 219.456 130.053 219.318 130.14 219.18L130.035 219.113C130.122 218.974 130.211 218.835 130.3 218.695L130.406 218.763C130.495 218.624 130.586 218.484 130.678 218.343L130.573 218.275C130.665 218.134 130.759 217.993 130.853 217.852L130.957 217.921C131.05 217.782 131.145 217.642 131.24 217.501L131.137 217.431C131.227 217.298 131.319 217.164 131.412 217.03L131.514 217.101C131.607 216.967 131.701 216.832 131.795 216.698L131.693 216.626C131.788 216.491 131.883 216.355 131.98 216.22L132.082 216.292C132.178 216.157 132.276 216.021 132.374 215.885L132.273 215.811C132.372 215.675 132.472 215.538 132.572 215.401L132.673 215.475C132.772 215.341 132.871 215.206 132.972 215.071L132.871 214.997C132.968 214.867 133.066 214.736 133.164 214.606L133.264 214.681C133.362 214.551 133.461 214.42 133.561 214.289L133.462 214.213C133.562 214.082 133.663 213.951 133.765 213.819L133.864 213.896C133.966 213.764 134.069 213.632 134.172 213.5L134.074 213.423C134.177 213.291 134.282 213.158 134.387 213.025L134.485 213.103C134.59 212.971 134.695 212.839 134.801 212.706L134.704 212.628C134.805 212.502 134.907 212.375 135.01 212.249L135.107 212.327C135.209 212.201 135.313 212.074 135.417 211.946L135.32 211.867C135.425 211.74 135.53 211.612 135.636 211.484L135.732 211.564C135.838 211.436 135.944 211.308 136.051 211.18L135.956 211.1C136.063 210.972 136.171 210.843 136.28 210.714L136.375 210.795C136.484 210.666 136.594 210.537 136.704 210.408L136.609 210.327C136.716 210.201 136.824 210.075 136.932 209.949L137.027 210.031C137.133 209.907 137.24 209.784 137.347 209.66L137.253 209.578C137.36 209.455 137.469 209.331 137.577 209.206L137.671 209.289C137.78 209.165 137.89 209.041 138 208.916L137.906 208.833C138.016 208.709 138.127 208.584 138.239 208.459L138.332 208.542C138.443 208.417 138.555 208.292 138.668 208.167L138.575 208.083C138.688 207.958 138.801 207.832 138.916 207.706L139.008 207.79C139.119 207.668 139.23 207.546 139.341 207.424L139.249 207.34C139.359 207.219 139.47 207.099 139.581 206.978L139.673 207.063C139.784 206.942 139.896 206.821 140.008 206.701L139.916 206.615C140.029 206.494 140.142 206.373 140.255 206.252L140.347 206.337C140.46 206.216 140.574 206.094 140.689 205.973L140.598 205.887C140.712 205.765 140.828 205.643 140.944 205.521L141.034 205.607C141.15 205.485 141.266 205.363 141.383 205.241L141.293 205.154C141.408 205.034 141.523 204.914 141.639 204.793L141.73 204.88C141.842 204.762 141.956 204.645 142.07 204.527L141.98 204.44C142.094 204.323 142.209 204.205 142.324 204.087L142.413 204.174C142.529 204.056 142.644 203.938 142.76 203.82L142.671 203.732C142.787 203.614 142.904 203.495 143.021 203.377L143.11 203.464C143.227 203.346 143.345 203.227 143.463 203.108L143.374 203.02C143.493 202.901 143.611 202.782 143.731 202.663L143.819 202.751C143.938 202.632 144.058 202.513 144.178 202.394L144.09 202.305C144.207 202.189 144.323 202.074 144.44 201.958L144.528 202.047C144.645 201.932 144.761 201.817 144.879 201.702L144.791 201.613C144.908 201.498 145.026 201.383 145.145 201.267L145.232 201.357C145.35 201.241 145.469 201.126 145.588 201.01L145.501 200.921C145.62 200.805 145.74 200.689 145.86 200.573L145.947 200.663C146.067 200.548 146.187 200.432 146.308 200.316L146.222 200.225C146.343 200.109 146.464 199.993 146.586 199.877L146.673 199.967C146.795 199.851 146.917 199.734 147.04 199.618L146.954 199.527C147.072 199.415 147.191 199.302 147.311 199.189L147.397 199.28C147.516 199.168 147.635 199.056 147.755 198.943L147.67 198.852C147.79 198.739 147.91 198.627 148.031 198.514L148.116 198.605C148.237 198.492 148.358 198.379 148.48 198.267L148.395 198.175C148.516 198.062 148.638 197.949 148.761 197.836L148.846 197.927C148.968 197.814 149.091 197.701 149.214 197.588L149.13 197.496C149.253 197.382 149.377 197.269 149.501 197.155L149.585 197.247C149.709 197.134 149.834 197.02 149.959 196.906L149.875 196.814C149.997 196.703 150.119 196.592 150.241 196.481L150.325 196.574C150.447 196.464 150.568 196.354 150.69 196.244L150.607 196.151C150.729 196.041 150.851 195.93 150.974 195.82L151.058 195.913C151.181 195.803 151.304 195.692 151.428 195.582L151.344 195.489C151.468 195.378 151.592 195.268 151.716 195.157L151.799 195.251C151.924 195.14 152.049 195.029 152.174 194.919L152.091 194.825C152.216 194.714 152.342 194.603 152.468 194.492L152.55 194.586C152.676 194.475 152.802 194.364 152.929 194.253L152.847 194.159C152.972 194.049 153.098 193.938 153.225 193.828L153.307 193.922C153.43 193.814 153.554 193.707 153.678 193.599L153.596 193.505C153.72 193.397 153.844 193.289 153.969 193.181L154.051 193.276C154.175 193.168 154.3 193.06 154.425 192.952L154.344 192.857C154.469 192.749 154.595 192.641 154.721 192.533L154.802 192.628C154.928 192.52 155.054 192.412 155.181 192.303L155.1 192.208C155.227 192.1 155.354 191.992 155.481 191.883L155.562 191.978C155.689 191.87 155.817 191.762 155.945 191.653L155.864 191.558C155.992 191.449 156.121 191.341 156.249 191.232L156.33 191.327C156.457 191.22 156.585 191.113 156.712 191.005L156.632 190.91C156.757 190.804 156.883 190.699 157.009 190.593L157.089 190.689C157.216 190.583 157.342 190.478 157.469 190.372L157.388 190.276C157.515 190.171 157.642 190.065 157.77 189.959L157.849 190.055C157.977 189.949 158.104 189.844 158.232 189.738L158.153 189.641C158.281 189.536 158.409 189.43 158.538 189.324L158.617 189.42C158.746 189.314 158.874 189.208 159.004 189.102L158.924 189.005C159.054 188.899 159.183 188.793 159.313 188.687L159.392 188.784C159.522 188.677 159.652 188.571 159.782 188.465L159.703 188.368C159.833 188.263 159.962 188.157 160.092 188.052L160.171 188.149C160.298 188.046 160.426 187.942 160.554 187.839L160.475 187.742C160.603 187.638 160.731 187.535 160.86 187.431L160.938 187.529C161.067 187.425 161.195 187.322 161.324 187.218L161.246 187.121C161.375 187.017 161.505 186.913 161.634 186.81L161.712 186.907C161.842 186.804 161.972 186.7 162.102 186.596L162.024 186.498C162.154 186.395 162.285 186.291 162.416 186.187L162.493 186.285C162.624 186.181 162.755 186.077 162.886 185.973L162.809 185.875C162.94 185.771 163.072 185.667 163.204 185.563L163.281 185.661C163.413 185.557 163.545 185.453 163.678 185.349L163.6 185.251C163.729 185.15 163.859 185.048 163.988 184.947L164.065 185.045C164.195 184.944 164.324 184.843 164.454 184.741L164.377 184.643C164.508 184.541 164.638 184.44 164.768 184.338L164.845 184.437C164.976 184.336 165.106 184.234 165.237 184.133L165.161 184.034C165.292 183.932 165.423 183.831 165.555 183.729L165.631 183.828C165.763 183.726 165.895 183.625 166.027 183.523L165.951 183.424C166.083 183.322 166.215 183.221 166.348 183.119L166.424 183.218C166.556 183.116 166.689 183.015 166.822 182.913L166.746 182.814C166.88 182.712 167.013 182.61 167.147 182.508L167.223 182.608C167.355 182.507 167.487 182.406 167.62 182.305L167.545 182.206C167.676 182.106 167.807 182.007 167.938 181.907L168.014 182.007C168.145 181.908 168.276 181.808 168.408 181.709L168.333 181.609C168.465 181.51 168.597 181.41 168.729 181.311L168.804 181.411C168.937 181.311 169.069 181.212 169.202 181.112L169.127 181.012C169.26 180.913 169.393 180.813 169.526 180.713L169.601 180.814C169.734 180.714 169.868 180.615 170.002 180.515L169.927 180.415C170.061 180.315 170.195 180.216 170.329 180.116L170.403 180.216C170.538 180.117 170.672 180.017 170.807 179.917L170.732 179.817C170.867 179.717 171.002 179.618 171.137 179.518L171.212 179.619C171.345 179.52 171.479 179.422 171.613 179.323L171.539 179.223C171.671 179.125 171.804 179.028 171.937 178.93L172.011 179.031C172.144 178.934 172.277 178.836 172.41 178.739L172.337 178.638C172.47 178.54 172.604 178.443 172.738 178.345L172.811 178.446C172.945 178.349 173.079 178.251 173.214 178.154L173.14 178.053C173.275 177.955 173.409 177.858 173.544 177.76L173.617 177.861C173.752 177.764 173.887 177.666 174.022 177.569L173.949 177.467C174.084 177.37 174.22 177.272 174.355 177.175L174.428 177.276C174.564 177.179 174.7 177.081 174.836 176.984L174.763 176.882C174.899 176.784 175.035 176.687 175.172 176.589L175.245 176.691C175.38 176.594 175.515 176.498 175.651 176.401L175.578 176.299C175.712 176.204 175.846 176.108 175.981 176.013L176.053 176.115C176.188 176.019 176.322 175.924 176.457 175.828L176.385 175.726C176.52 175.631 176.655 175.535 176.79 175.439L176.862 175.542C176.997 175.446 177.133 175.351 177.269 175.255L177.197 175.153C177.332 175.057 177.468 174.962 177.604 174.866L177.676 174.968C177.812 174.873 177.948 174.777 178.085 174.682L178.013 174.579C178.15 174.484 178.286 174.388 178.423 174.293L178.495 174.395C178.632 174.3 178.769 174.204 178.906 174.109L178.835 174.006C178.972 173.911 179.11 173.815 179.247 173.719L179.319 173.822C179.456 173.727 179.593 173.632 179.731 173.537L179.66 173.434C179.795 173.34 179.931 173.246 180.066 173.153L180.137 173.256C180.273 173.162 180.409 173.068 180.545 172.975L180.474 172.872C180.61 172.778 180.747 172.685 180.883 172.591L180.954 172.694C181.091 172.6 181.227 172.507 181.364 172.413L181.294 172.31C181.43 172.216 181.568 172.123 181.705 172.029L181.775 172.132C181.913 172.039 182.05 171.945 182.188 171.852L182.117 171.748C182.255 171.655 182.393 171.561 182.531 171.468L182.601 171.571C182.739 171.477 182.877 171.384 183.016 171.29L182.946 171.187C183.084 171.093 183.223 171 183.361 170.906L183.431 171.01C183.57 170.916 183.709 170.823 183.848 170.729L183.778 170.626C183.916 170.533 184.053 170.441 184.191 170.348L184.261 170.452C184.398 170.361 184.535 170.269 184.672 170.177L184.603 170.073C184.74 169.981 184.878 169.89 185.015 169.798L185.085 169.902C185.222 169.81 185.36 169.718 185.498 169.627L185.429 169.523C185.567 169.431 185.705 169.339 185.843 169.247L185.912 169.352C186.051 169.26 186.189 169.168 186.328 169.077L186.259 168.972C186.398 168.881 186.537 168.789 186.676 168.697L186.745 168.802C186.884 168.71 187.023 168.619 187.162 168.527L187.094 168.422C187.233 168.331 187.373 168.239 187.512 168.148L187.581 168.252C187.721 168.161 187.86 168.069 188.001 167.978L187.932 167.873C188.072 167.781 188.213 167.69 188.353 167.598L188.421 167.703C188.559 167.613 188.698 167.523 188.836 167.433L188.768 167.328C188.906 167.238 189.045 167.149 189.184 167.059L189.252 167.163C189.39 167.074 189.529 166.984 189.668 166.894L189.6 166.789C189.739 166.699 189.879 166.609 190.018 166.519L190.086 166.624C190.225 166.535 190.365 166.445 190.504 166.355L190.437 166.25C190.576 166.16 190.716 166.07 190.856 165.981L190.924 166.086C191.064 165.996 191.204 165.906 191.344 165.817L191.277 165.711C191.417 165.622 191.558 165.532 191.698 165.442L191.766 165.548C191.906 165.458 192.047 165.368 192.188 165.279L192.121 165.173C192.262 165.084 192.403 164.994 192.544 164.905L192.611 165.01C192.752 164.921 192.893 164.831 193.035 164.742L192.968 164.636C193.107 164.548 193.247 164.46 193.387 164.372L193.453 164.478C193.593 164.39 193.733 164.302 193.873 164.214L193.806 164.108C193.947 164.02 194.087 163.932 194.227 163.844L194.293 163.95C194.434 163.862 194.574 163.774 194.715 163.686L194.649 163.58C194.789 163.492 194.93 163.404 195.071 163.316L195.137 163.422C195.278 163.334 195.419 163.246 195.56 163.159L195.494 163.052C195.635 162.965 195.777 162.877 195.918 162.789L195.984 162.895C196.126 162.808 196.267 162.72 196.409 162.632L196.343 162.526C196.485 162.438 196.627 162.35 196.769 162.263L196.835 162.369C196.977 162.281 197.119 162.194 197.262 162.106L197.196 162C197.338 161.912 197.481 161.825 197.623 161.737L197.689 161.844L198.111 161.585L198.046 161.478C198.187 161.392 198.328 161.306 198.469 161.22L198.534 161.326L198.958 161.068L198.893 160.961C199.035 160.875 199.177 160.789 199.318 160.703L199.383 160.81L199.809 160.552L199.744 160.445C199.886 160.359 200.029 160.273 200.171 160.187L200.236 160.294L200.663 160.036L200.598 159.929C200.741 159.843 200.884 159.758 201.027 159.672L201.091 159.779L201.52 159.522L201.456 159.414C201.599 159.329 201.742 159.243 201.886 159.157L201.95 159.265L202.381 159.008L202.317 158.9C202.459 158.816 202.601 158.731 202.743 158.647L202.807 158.754L203.234 158.501L203.17 158.393C203.312 158.309 203.455 158.225 203.598 158.141L203.661 158.248L204.089 157.996L204.026 157.888C204.169 157.804 204.312 157.719 204.455 157.635L204.518 157.743L204.948 157.491L204.885 157.383C205.028 157.299 205.172 157.215 205.316 157.131L205.379 157.239L205.81 156.987L205.747 156.879C205.891 156.795 206.035 156.712 206.179 156.628L206.242 156.736L206.675 156.485L206.612 156.376C206.756 156.293 206.901 156.209 207.046 156.125L207.108 156.234L207.325 156.108L207.542 155.983L207.48 155.875C207.625 155.791 207.77 155.708 207.914 155.625L207.977 155.733L208.411 155.484L208.348 155.375C208.493 155.292 208.638 155.21 208.782 155.127L208.844 155.235L209.278 154.988L209.216 154.879C209.361 154.797 209.505 154.714 209.65 154.632L209.711 154.741L210.145 154.495L210.083 154.386C210.227 154.304 210.372 154.222 210.516 154.141L210.578 154.25L211.011 154.005L210.949 153.896C211.093 153.815 211.238 153.733 211.382 153.652L211.443 153.761L211.876 153.518L211.815 153.409C211.959 153.328 212.103 153.247 212.248 153.167L212.309 153.276L212.747 153.031L212.686 152.922C212.832 152.841 212.977 152.759 213.123 152.678L213.184 152.787L213.621 152.545L213.561 152.435C213.706 152.354 213.852 152.274 213.998 152.193L214.058 152.302L214.495 152.061L214.435 151.952C214.58 151.871 214.726 151.791 214.871 151.711L214.932 151.821L215.368 151.581L215.308 151.471C215.453 151.392 215.599 151.312 215.744 151.232L215.804 151.342L216.24 151.104L216.18 150.994C216.325 150.915 216.471 150.836 216.616 150.757L216.675 150.867L217.111 150.631L217.051 150.521C217.198 150.441 217.345 150.361 217.492 150.282L217.552 150.392C217.699 150.312 217.846 150.233 217.993 150.154L217.933 150.044C218.08 149.964 218.227 149.885 218.374 149.806L218.433 149.916C218.58 149.838 218.727 149.759 218.874 149.68L218.815 149.57C218.961 149.491 219.108 149.413 219.255 149.334L219.314 149.445C219.46 149.366 219.607 149.288 219.754 149.21L219.695 149.1C219.841 149.021 219.988 148.943 220.134 148.866L220.193 148.976C220.339 148.898 220.486 148.821 220.632 148.743L220.574 148.633C220.72 148.555 220.866 148.478 221.013 148.4L221.071 148.511C221.217 148.434 221.363 148.357 221.509 148.28L221.451 148.169C221.597 148.092 221.744 148.015 221.89 147.939L221.948 148.049C222.096 147.971 222.244 147.894 222.392 147.816L222.334 147.706C222.482 147.628 222.63 147.551 222.778 147.473L222.836 147.584C222.984 147.507 223.132 147.43 223.28 147.353L223.222 147.242C223.37 147.165 223.518 147.088 223.666 147.011L223.724 147.122C223.872 147.046 224.019 146.969 224.167 146.893L224.11 146.782C224.257 146.705 224.405 146.629 224.553 146.553L224.61 146.664C224.757 146.588 224.905 146.512 225.052 146.436L224.995 146.325C225.143 146.249 225.29 146.174 225.438 146.098L225.495 146.209C225.642 146.134 225.789 146.059 225.936 145.984L225.88 145.872C226.027 145.797 226.174 145.722 226.321 145.647L226.378 145.758C226.525 145.684 226.672 145.609 226.819 145.534L226.762 145.423C226.912 145.347 227.061 145.271 227.21 145.196L227.267 145.307C227.416 145.232 227.565 145.156 227.715 145.081L227.658 144.969C227.807 144.894 227.957 144.819 228.106 144.744L228.162 144.856C228.311 144.781 228.46 144.706 228.609 144.632L228.553 144.52C228.702 144.445 228.85 144.371 228.999 144.296L229.055 144.408C229.204 144.334 229.352 144.26 229.501 144.186L229.445 144.074C229.594 144 229.742 143.926 229.891 143.852L229.946 143.964C230.095 143.891 230.243 143.817 230.391 143.744L230.336 143.632C230.484 143.559 230.632 143.485 230.781 143.412L230.836 143.524C230.984 143.451 231.132 143.379 231.28 143.306L231.225 143.194C231.374 143.12 231.522 143.047 231.671 142.975L231.726 143.087C231.877 143.013 232.027 142.94 232.177 142.866L232.123 142.754C232.273 142.68 232.423 142.607 232.574 142.534L232.628 142.647C232.779 142.573 232.929 142.501 233.079 142.428L233.024 142.315C233.174 142.243 233.324 142.17 233.474 142.098L233.528 142.21C233.678 142.138 233.828 142.065 233.978 141.993L233.923 141.881C234.073 141.809 234.223 141.737 234.372 141.665L234.426 141.778C234.576 141.706 234.725 141.634 234.875 141.563L234.821 141.45C234.97 141.379 235.119 141.307 235.269 141.236L235.322 141.349C235.471 141.278 235.62 141.207 235.769 141.137L235.716 141.024C235.865 140.953 236.014 140.882 236.163 140.812L236.216 140.925C236.367 140.853 236.518 140.782 236.669 140.711L236.616 140.598C236.768 140.526 236.919 140.455 237.071 140.384L237.124 140.497C237.275 140.426 237.426 140.355 237.578 140.284L237.525 140.171C237.676 140.1 237.827 140.029 237.978 139.959L238.031 140.072C238.182 140.002 238.333 139.931 238.483 139.861L238.431 139.748C238.581 139.678 238.732 139.608 238.883 139.538L238.935 139.652C239.086 139.582 239.236 139.512 239.387 139.443L239.334 139.33C239.485 139.26 239.635 139.191 239.785 139.122L239.837 139.236C239.987 139.167 240.138 139.098 240.287 139.029L240.235 138.915C240.385 138.847 240.535 138.778 240.685 138.71L240.737 138.824C240.888 138.754 241.04 138.686 241.191 138.617L241.139 138.503C241.292 138.434 241.445 138.364 241.597 138.295L241.649 138.409C241.801 138.34 241.954 138.271 242.106 138.203L242.055 138.089C242.207 138.02 242.359 137.951 242.511 137.883L242.562 137.997C242.714 137.929 242.866 137.861 243.018 137.793L242.967 137.679C243.119 137.611 243.271 137.543 243.422 137.475L243.473 137.589C243.625 137.522 243.776 137.455 243.928 137.387L243.877 137.273C244.028 137.206 244.18 137.139 244.331 137.072L244.381 137.186C244.532 137.12 244.683 137.053 244.834 136.986L244.784 136.872C244.935 136.806 245.086 136.739 245.236 136.673L245.286 136.788C245.439 136.721 245.591 136.654 245.743 136.588L245.693 136.473C245.847 136.406 246 136.339 246.154 136.272L246.204 136.387C246.358 136.32 246.511 136.253 246.664 136.187L246.615 136.072C246.768 136.006 246.921 135.94 247.075 135.874L247.124 135.988C247.277 135.922 247.43 135.856 247.583 135.791L247.534 135.676C247.687 135.61 247.839 135.545 247.992 135.48L248.041 135.594C248.194 135.529 248.346 135.464 248.498 135.399L248.449 135.284C248.602 135.219 248.754 135.155 248.906 135.09L248.955 135.205C249.107 135.141 249.259 135.077 249.41 135.013L249.362 134.898C249.513 134.833 249.665 134.77 249.817 134.706L249.865 134.821C250.019 134.757 250.172 134.692 250.326 134.628L250.278 134.513C250.433 134.448 250.588 134.383 250.742 134.319L250.79 134.434C250.945 134.37 251.1 134.305 251.254 134.241L251.206 134.126C251.36 134.062 251.515 133.998 251.669 133.935L251.717 134.05C251.871 133.986 252.024 133.923 252.178 133.86L252.131 133.744C252.285 133.681 252.438 133.618 252.592 133.555L252.639 133.671C252.792 133.608 252.946 133.546 253.099 133.484L253.052 133.368C253.205 133.306 253.358 133.243 253.511 133.182L253.558 133.297C253.711 133.236 253.863 133.174 254.016 133.112L253.969 132.997C254.122 132.935 254.274 132.874 254.426 132.813L254.473 132.929C254.629 132.866 254.785 132.804 254.941 132.741L254.895 132.625C255.051 132.563 255.207 132.501 255.363 132.439L255.409 132.555C255.564 132.494 255.72 132.432 255.875 132.371L255.829 132.255C255.984 132.193 256.14 132.132 256.295 132.071L256.34 132.188C256.495 132.127 256.65 132.066 256.805 132.006L256.759 131.889C256.914 131.829 257.068 131.769 257.222 131.709L257.268 131.825C257.422 131.765 257.576 131.705 257.73 131.646L257.685 131.529C257.839 131.47 257.992 131.411 258.146 131.351L258.191 131.468C258.344 131.409 258.498 131.35 258.651 131.292L258.606 131.175C258.762 131.115 258.918 131.056 259.074 130.996L259.119 131.113C259.276 131.053 259.433 130.994 259.59 130.935L259.545 130.818C259.702 130.758 259.859 130.699 260.016 130.64L260.06 130.757C260.216 130.698 260.372 130.64 260.528 130.582L260.485 130.464C260.641 130.406 260.797 130.348 260.952 130.29L260.996 130.407C261.151 130.349 261.307 130.292 261.462 130.234L261.419 130.117C261.574 130.06 261.729 130.003 261.884 129.946L261.927 130.063C262.082 130.006 262.237 129.949 262.391 129.893L262.348 129.776C262.503 129.719 262.657 129.663 262.811 129.607L262.854 129.725C263.011 129.668 263.167 129.611 263.324 129.555L263.281 129.437C263.44 129.38 263.598 129.323 263.756 129.266L263.798 129.384C263.956 129.327 264.114 129.271 264.272 129.215L264.23 129.097C264.387 129.041 264.545 128.985 264.702 128.93L264.743 129.048C264.9 128.992 265.057 128.937 265.214 128.882L265.172 128.764C265.329 128.709 265.486 128.654 265.642 128.599L265.683 128.717C265.839 128.663 265.995 128.609 266.151 128.555L266.11 128.437C266.266 128.383 266.421 128.329 266.576 128.275L266.617 128.394C266.772 128.34 266.927 128.287 267.082 128.234L267.042 128.116C267.201 128.062 267.359 128.007 267.518 127.954L267.558 128.072C267.717 128.018 267.877 127.964 268.036 127.911L267.996 127.792C268.155 127.738 268.314 127.685 268.472 127.632L268.512 127.751C268.564 127.733 268.616 127.716 268.668 127.699C268.774 127.663 268.88 127.628 268.987 127.593L268.947 127.474C269.105 127.422 269.263 127.369 269.421 127.318L269.46 127.436C269.617 127.384 269.774 127.333 269.931 127.282L269.892 127.163C270.049 127.111 270.206 127.06 270.362 127.01L270.401 127.129C270.557 127.078 270.713 127.028 270.869 126.977L270.831 126.858C270.989 126.808 271.146 126.758 271.303 126.707L271.341 126.827C271.502 126.775 271.662 126.724 271.823 126.673L271.785 126.554C271.946 126.504 272.106 126.453 272.266 126.403L272.303 126.522C272.463 126.472 272.622 126.422 272.782 126.373L272.744 126.254C272.904 126.204 273.063 126.155 273.222 126.106L273.258 126.226C273.417 126.177 273.575 126.128 273.733 126.08L273.697 125.96C273.855 125.912 274.013 125.864 274.17 125.817L274.206 125.936C274.364 125.889 274.521 125.842 274.678 125.795L274.642 125.675C274.799 125.628 274.956 125.581 275.113 125.534L275.148 125.654C275.311 125.606 275.473 125.558 275.634 125.511L275.599 125.391C275.761 125.344 275.923 125.296 276.084 125.25L276.118 125.37C276.28 125.323 276.44 125.276 276.601 125.23L276.566 125.11C276.726 125.064 276.887 125.018 277.046 124.973L277.081 125.093C277.24 125.048 277.399 125.003 277.558 124.958L277.525 124.838C277.684 124.793 277.842 124.749 278.001 124.704L278.034 124.825C278.193 124.781 278.351 124.737 278.508 124.694L278.475 124.573C278.634 124.53 278.792 124.486 278.95 124.443L278.983 124.564C279.147 124.52 279.31 124.476 279.473 124.432L279.44 124.311C279.603 124.267 279.766 124.224 279.928 124.181L279.96 124.302C280.122 124.259 280.283 124.216 280.445 124.174L280.413 124.053C280.574 124.011 280.735 123.969 280.896 123.928L280.927 124.049C281.088 124.007 281.248 123.966 281.407 123.926L281.376 123.805C281.536 123.764 281.696 123.724 281.855 123.684L281.885 123.805C282.044 123.765 282.203 123.726 282.361 123.686L282.331 123.565C282.493 123.525 282.655 123.485 282.817 123.446L282.846 123.567C283.011 123.527 283.175 123.487 283.338 123.448L283.309 123.326C283.473 123.287 283.636 123.248 283.799 123.21L283.828 123.331C283.99 123.293 284.152 123.255 284.314 123.217L284.286 123.096C284.448 123.058 284.609 123.021 284.77 122.984L284.798 123.106C284.959 123.069 285.12 123.033 285.28 122.997L285.252 122.875C285.412 122.839 285.572 122.803 285.731 122.768L285.758 122.89C285.92 122.855 286.081 122.82 286.242 122.785L286.215 122.663C286.381 122.627 286.547 122.591 286.712 122.556L286.738 122.679C286.903 122.644 287.067 122.609 287.231 122.575L287.206 122.453C287.37 122.419 287.533 122.385 287.696 122.352L287.721 122.474C287.884 122.441 288.046 122.409 288.208 122.377L288.184 122.254C288.346 122.222 288.507 122.19 288.668 122.159L288.692 122.282C288.853 122.25 289.013 122.22 289.173 122.189L289.149 122.067C289.313 122.036 289.476 122.005 289.638 121.975L289.661 122.098C289.828 122.067 289.994 122.037 290.16 122.007L290.138 121.884C290.304 121.854 290.47 121.825 290.634 121.796L290.656 121.919C290.821 121.89 290.985 121.862 291.148 121.835L291.127 121.711C291.291 121.684 291.454 121.656 291.616 121.63L291.637 121.753C291.799 121.726 291.961 121.7 292.122 121.675L292.102 121.551C292.263 121.526 292.424 121.501 292.584 121.476L292.603 121.6C292.771 121.574 292.938 121.549 293.104 121.524L293.086 121.4C293.254 121.376 293.421 121.351 293.587 121.328L293.605 121.452C293.771 121.428 293.937 121.405 294.101 121.383L294.085 121.259C294.25 121.236 294.414 121.215 294.578 121.193L294.594 121.317C294.757 121.296 294.92 121.276 295.082 121.256L295.066 121.132C295.229 121.112 295.39 121.092 295.551 121.073L295.566 121.198C295.733 121.178 295.899 121.159 296.064 121.141L296.051 121.017C296.22 120.998 296.388 120.98 296.556 120.963L296.569 121.087C296.736 121.07 296.902 121.053 297.068 121.037L297.056 120.913C297.222 120.897 297.387 120.882 297.551 120.867L297.562 120.992C297.726 120.977 297.889 120.963 298.052 120.95L298.042 120.826C298.204 120.813 298.366 120.8 298.527 120.788L298.536 120.913C298.705 120.901 298.874 120.889 299.041 120.878L299.033 120.753C299.203 120.742 299.372 120.732 299.539 120.722L299.546 120.847C299.714 120.838 299.88 120.829 300.046 120.821L300.04 120.696C300.206 120.689 300.371 120.681 300.535 120.675L300.539 120.8C300.703 120.794 300.865 120.788 301.027 120.783L301.023 120.658C301.189 120.654 301.354 120.65 301.518 120.646L301.52 120.771C301.691 120.768 301.861 120.766 302.029 120.764L302.028 120.639C302.197 120.638 302.365 120.637 302.532 120.637L302.532 120.762C302.698 120.763 302.863 120.764 303.027 120.766L303.028 120.641C303.193 120.643 303.356 120.646 303.518 120.65L303.515 120.775C303.679 120.779 303.842 120.784 304.004 120.79L304.009 120.665C304.181 120.671 304.351 120.679 304.52 120.687L304.514 120.812C304.682 120.82 304.849 120.83 305.015 120.84L305.023 120.716C305.189 120.726 305.354 120.738 305.518 120.751L305.508 120.875C305.671 120.888 305.832 120.902 305.992 120.917L306.004 120.792C306.171 120.808 306.336 120.824 306.5 120.842L306.486 120.966C306.656 120.985 306.824 121.004 306.99 121.025L307.006 120.901C307.173 120.922 307.338 120.945 307.502 120.968L307.484 121.092C307.647 121.115 307.808 121.14 307.968 121.166L307.988 121.043C308.149 121.069 308.309 121.097 308.467 121.126L308.444 121.249C308.613 121.279 308.78 121.312 308.945 121.346L308.971 121.223C309.137 121.258 309.3 121.293 309.462 121.33L309.434 121.452C309.595 121.489 309.754 121.528 309.911 121.567L309.942 121.446C310.1 121.487 310.255 121.528 310.409 121.572L310.375 121.692C310.541 121.738 310.704 121.787 310.864 121.837L310.901 121.718C311.063 121.768 311.222 121.82 311.379 121.874L311.338 121.993C311.493 122.046 311.646 122.102 311.797 122.159L311.841 122.042C311.996 122.101 312.148 122.162 312.298 122.224L312.25 122.34C312.407 122.406 312.561 122.473 312.711 122.543L312.764 122.43C312.916 122.501 313.066 122.573 313.212 122.648L313.155 122.759C313.3 122.833 313.441 122.91 313.58 122.988L313.641 122.879C313.79 122.963 313.934 123.049 314.076 123.137L314.009 123.243C314.151 123.332 314.289 123.423 314.423 123.516L314.494 123.414C314.63 123.508 314.763 123.605 314.891 123.705L314.815 123.804C314.946 123.905 315.073 124.008 315.196 124.115L315.278 124.02C315.405 124.13 315.529 124.243 315.648 124.358L315.561 124.448C315.679 124.562 315.792 124.678 315.902 124.797L315.994 124.713C316.106 124.835 316.215 124.961 316.319 125.089L316.222 125.167C316.325 125.295 316.425 125.425 316.519 125.558L316.621 125.486Z" stroke="url(#paint4_linear_1539_35139)" stroke-width="0.25" stroke-dasharray="0.5 0.5"/>
    <circle cx="294.5" cy="164.5" r="1.5" fill="#D9D9D9"/>
    <circle cx="298.5" cy="160.5" r="1.5" fill="#D9D9D9"/>
    <circle cx="126.5" cy="226.5" r="1.5" fill="#53FEA9"/>
    <defs>
        <filter id="filter0_f_1539_35139" x="0.330078" y="0.683594" width="444.318" height="361.406" filterUnits="userSpaceOnUse" color-interpolation-filters="sRGB">
            <feFlood flood-opacity="0" result="BackgroundImageFix"/>
            <feBlend mode="normal" in="SourceGraphic" in2="BackgroundImageFix" result="shape"/>
            <feGaussianBlur stdDeviation="60" result="effect1_foregroundBlur_1539_35139"/>
        </filter>
        <filter id="filter1_d_1539_35139" x="111.889" y="107.137" width="219.748" height="147.957" filterUnits="userSpaceOnUse" color-interpolation-filters="sRGB">
            <feFlood flood-opacity="0" result="BackgroundImageFix"/>
            <feColorMatrix in="SourceAlpha" type="matrix" values="0 0 0 0 0 0 0 0 0 0 0 0 0 0 0 0 0 0 127 0" result="hardAlpha"/>
            <feOffset/>
            <feGaussianBlur stdDeviation="6.5"/>
            <feComposite in2="hardAlpha" operator="out"/>
            <feColorMatrix type="matrix" values="0 0 0 0 0 0 0 0 0 1 0 0 0 0 0.7 0 0 0 0.25 0"/>
            <feBlend mode="normal" in2="BackgroundImageFix" result="effect1_dropShadow_1539_35139"/>
            <feBlend mode="normal" in="SourceGraphic" in2="effect1_dropShadow_1539_35139" result="shape"/>
        </filter>
        <linearGradient id="paint0_linear_1539_35139" x1="100.327" y1="0" x2="135.105" y2="92.1015" gradientUnits="userSpaceOnUse">
            <stop stop-color="#A43EFF"/>
            <stop offset="1" stop-color="#101B45"/>
        </linearGradient>
        <radialGradient id="paint1_radial_1539_35139" cx="0" cy="0" r="1" gradientUnits="userSpaceOnUse" gradientTransform="translate(222.042 175.141) rotate(105) scale(33.1793 33.2749)">
            <stop stop-color="white"/>
            <stop offset="1" stop-color="white" stop-opacity="0"/>
        </radialGradient>
        <radialGradient id="paint2_radial_1539_35139" cx="0" cy="0" r="1" gradientUnits="userSpaceOnUse" gradientTransform="translate(237.235 155.751) rotate(105) scale(4.97211 9.65737)">
            <stop stop-color="white"/>
            <stop offset="1" stop-color="white" stop-opacity="0"/>
        </radialGradient>
        <linearGradient id="paint3_linear_1539_35139" x1="221.763" y1="152.115" x2="221.763" y2="210.115" gradientUnits="userSpaceOnUse">
            <stop offset="0.170133" stop-color="#53FDA9" stop-opacity="0"/>
            <stop offset="0.878479" stop-color="#53FDA9"/>
        </linearGradient>
        <linearGradient id="paint4_linear_1539_35139" x1="237" y1="205.5" x2="205" y2="157" gradientUnits="userSpaceOnUse">
            <stop stop-color="white"/>
            <stop offset="1" stop-color="white" stop-opacity="0"/>
        </linearGradient>
    </defs>
</svg>
