<svg width="41" height="40" viewBox="0 0 41 40" fill="none" xmlns="http://www.w3.org/2000/svg">
<path d="M30.9984 20.0354C30.9596 18.1949 30.4386 16.399 29.49 14.8361C28.5414 13.2733 27.2002 12.0011 25.6071 11.1531C24.014 10.3051 22.2277 9.91242 20.4357 10.0164C18.6437 10.1203 16.912 10.717 15.4223 11.7439C13.9326 12.7707 12.7397 14.1899 11.969 15.8525C11.1982 17.515 10.8779 19.3597 11.0417 21.193C11.2055 23.0262 11.8473 24.7805 12.8998 26.2717C13.9523 27.7629 15.3767 28.9361 17.0236 29.6682C17.51 28.9183 17.8823 28.0968 18.1277 27.232C18.3282 26.7088 18.546 26.1942 18.7717 25.6964C19.3161 25.8637 19.8947 25.8762 20.4456 25.7326C20.9964 25.589 21.4989 25.2946 21.8995 24.881L21.933 24.8466C21.4411 24.659 20.9109 24.6021 20.3918 24.6813C19.8727 24.7605 19.3816 24.9732 18.9642 25.2996C19.2403 24.7075 19.5415 24.1331 19.8506 23.5755C20.3851 23.7694 20.961 23.8104 21.5165 23.694C22.0719 23.5777 22.586 23.3084 23.0036 22.915L23.0372 22.8806C22.562 22.6744 22.0443 22.5923 21.5306 22.6418C21.0168 22.6912 20.5231 22.8705 20.0935 23.1637C20.4027 22.6405 20.7207 22.1259 21.0555 21.6453C21.6086 21.7943 22.1909 21.7851 22.7393 21.6188C23.2878 21.4525 23.7813 21.1353 24.1665 20.7017L24.1916 20.6673C23.7349 20.5145 23.2495 20.4737 22.7745 20.5482C22.2996 20.6227 21.8483 20.8105 21.4569 21.0963C21.4821 21.0619 21.5157 21.0193 21.5404 20.9848C21.7409 20.7189 21.9503 20.453 22.1587 20.1957C22.7952 19.9821 23.3629 19.5944 23.8005 19.0745C24.2382 18.5545 24.5293 17.922 24.6426 17.245L24.651 17.1933H24.6426C23.9798 17.3701 23.3785 17.7338 22.907 18.2432C22.4354 18.7525 22.1124 19.3872 21.9745 20.0752C21.774 20.3239 21.5731 20.5735 21.381 20.8299C21.5432 20.395 21.6093 19.9287 21.5746 19.4644C21.54 19.0001 21.4053 18.5495 21.1804 18.1451L21.1553 18.1795C20.8141 18.6575 20.6085 19.223 20.5612 19.8134C20.514 20.4038 20.627 20.9962 20.8876 21.5248C20.5696 21.9882 20.2605 22.4598 19.9677 22.9572C20.062 22.4572 20.0375 21.9412 19.8963 21.453C19.755 20.9648 19.5012 20.5186 19.1563 20.1523L19.1396 20.1953C18.9262 20.7405 18.8633 21.3354 18.9577 21.9149C19.0521 22.4943 19.3002 23.0359 19.6748 23.4804C19.382 24.0036 19.106 24.544 18.8384 25.1016C18.9197 24.5808 18.8786 24.0476 18.7186 23.5464C18.5586 23.0452 18.2843 22.5903 17.9184 22.2197L17.9016 22.2627C17.7108 22.8342 17.6754 23.4483 17.7992 24.0389C17.923 24.6294 18.2013 25.1743 18.6043 25.6149C18.4276 26.0008 18.2616 26.3849 18.1026 26.7899C18.0588 26.7487 18.0077 26.7167 17.952 26.6957C17.6666 26.6107 17.3937 26.4866 17.1406 26.327C16.9314 26.1996 16.7093 26.096 16.4782 26.018C15.575 25.7177 15.7088 25.2719 15.2415 24.3709C15.0895 24.1854 14.9279 24.0084 14.7575 23.8405C14.5994 23.7353 14.4699 23.5907 14.3812 23.4201C14.2781 23.2072 14.2129 22.9771 14.1886 22.7406C14.1858 22.6099 14.1432 22.4833 14.0667 22.3786C13.9902 22.274 13.8836 22.1965 13.762 22.1572C12.4322 21.6856 13.0262 19.9185 13.0761 19.6866C13.0557 19.3867 12.9907 19.0917 12.8835 18.8119C12.8723 18.7754 12.8639 18.7382 12.8584 18.7004C12.8229 18.5173 12.8293 18.3283 12.8772 18.1482C12.9251 17.9681 13.0132 17.8019 13.1344 17.6626C13.2934 17.4995 13.8455 17.2336 13.9625 17.0792C14.0795 16.9247 14.163 16.753 14.2805 16.6076C14.6521 16.2275 15.0813 15.9117 15.5516 15.6726C15.9362 15.4584 16.0034 14.9093 16.1535 14.7377C16.4044 14.4459 16.7891 14.4459 17.0735 14.1886C17.2157 14.06 17.4268 13.9911 17.5593 13.8543C18.2273 13.2269 19.0692 12.8282 19.9681 12.7137C20.5914 12.6616 21.2189 12.7197 21.8231 12.8854C21.9105 12.9005 21.9971 12.9206 22.0823 12.9456C23.462 12.9973 25.1182 13.2886 25.7202 13.8892C26.0182 14.1829 26.2396 14.5486 26.3641 14.9528C26.4619 15.2659 26.5968 15.5654 26.7656 15.8448L27.1335 16.4622C27.3679 16.8516 27.443 17.3201 27.3424 17.7659C27.2746 17.9827 27.2688 18.2149 27.3256 18.435C27.5197 18.7354 27.747 19.0118 28.0031 19.2585C28.1049 19.3618 28.2169 19.4538 28.3375 19.533C28.6206 19.7063 28.8942 19.8953 29.1572 20.0992C29.1658 20.1819 29.1525 20.2655 29.1186 20.341C29.0846 20.4165 29.0315 20.4812 28.9646 20.5282C28.7305 20.7425 28.2787 21.0773 28.2787 21.0773C28.295 21.172 28.3231 21.2643 28.3622 21.3518C28.4289 21.4718 28.5795 21.6607 28.5296 21.8233C28.4797 21.986 28.1533 22.1237 28.2451 22.3035C28.337 22.4924 28.5711 22.5436 28.5044 22.7153C28.4377 22.8783 28.1113 23.1683 28.1449 23.2901C28.1785 23.412 28.4461 24.5585 27.8269 24.7569C27.0606 24.9123 26.2829 25.0013 25.502 25.0228C25.3761 25.0302 25.254 25.0703 25.1472 25.1394C25.0405 25.2084 24.9526 25.304 24.8917 25.4173C24.7731 25.6441 24.6966 25.8913 24.666 26.1467C24.4401 27.0597 24.1408 27.952 23.7712 28.8143C23.7712 28.8143 23.746 28.866 23.7124 28.943C23.6313 29.1125 23.5803 29.2955 23.5618 29.4834C23.6145 29.6214 23.6941 29.7469 23.7959 29.8521C23.8495 29.9151 23.9198 29.9607 23.9982 29.9836C24.0766 30.0064 24.1597 30.0054 24.2376 29.9808C26.2419 29.2643 27.9746 27.9171 29.1886 26.1313C30.4027 24.3455 31.036 22.2121 30.9984 20.0354Z" fill="white"/>
</svg>
