<svg width="41" height="40" viewBox="0 0 41 40" fill="none" xmlns="http://www.w3.org/2000/svg">
<path d="M20.9436 22.8453L23.6414 27.047L26.1335 25.6138L22.5907 20.0723L20.9436 22.8453Z" fill="white"/>
<path d="M28.4031 23.9276L28.4013 22.7796L24.5299 16.7959L23.0928 19.214L26.8301 25.2121L28.1821 24.4351C28.2475 24.3824 28.3011 24.3167 28.3392 24.2421C28.3773 24.1675 28.3991 24.0858 28.4033 24.0023L28.4031 23.9276Z" fill="white"/>
<path d="M12.1804 25.01L14.0886 26.1011L20.4383 15.9959L19.3607 15.9683C18.4425 15.9554 17.4534 16.1922 16.9995 16.9277L13.3937 22.4738L12.1811 24.3233V25.0106L12.1804 25.01Z" fill="white"/>
<path d="M24.1029 15.9961L21.2628 16.0063L14.8369 26.5291L17.0829 27.8124L17.6936 26.7844L24.1029 15.9961Z" fill="white"/>
<path d="M29.5991 15.9817C29.5861 15.6909 29.502 15.4075 29.3541 15.1561C29.2061 14.9047 28.9988 14.6927 28.7499 14.5385L21.6891 10.5091C21.437 10.3862 21.1599 10.3223 20.879 10.3223C20.5982 10.3223 20.3211 10.3862 20.069 10.5091C20.01 10.5386 13.2024 14.4566 13.2024 14.4566C13.1078 14.5017 13.0174 14.5548 12.9321 14.6154C12.711 14.7714 12.5284 14.9751 12.3981 15.2111C12.2677 15.4472 12.193 15.7094 12.1794 15.9783V24.3234L13.392 22.4738L13.3826 16.0351C13.3883 15.9468 13.4136 15.8609 13.4568 15.7835C13.5 15.7061 13.5599 15.6392 13.6323 15.5876C13.6643 15.5647 20.5882 11.5876 20.6102 11.5767C20.6931 11.5366 20.784 11.5156 20.8762 11.5152C20.9684 11.5148 21.0595 11.5349 21.1427 11.5742L28.1123 15.5526C28.1935 15.6037 28.261 15.6735 28.3093 15.756C28.3576 15.8385 28.3851 15.9314 28.3896 16.0267V24.0031C28.388 24.0858 28.3685 24.1672 28.3326 24.2418C28.2966 24.3164 28.2451 24.3826 28.1813 24.4358L26.8294 25.2128L26.1325 25.6139L23.6405 27.0471L21.1133 28.5005C20.9736 28.5494 20.8207 28.5464 20.6831 28.4921L17.6931 26.7855L17.0824 27.8134L19.7695 29.3486C19.8584 29.3987 19.9376 29.4432 20.0025 29.4794C20.1031 29.5348 20.1717 29.5728 20.1958 29.5844C20.4206 29.6822 20.6637 29.7318 20.9091 29.7301C21.1342 29.7304 21.3574 29.6887 21.567 29.6072L28.9073 25.3889C29.1144 25.229 29.2836 25.0261 29.4031 24.7943C29.5226 24.5625 29.5894 24.3075 29.5988 24.0473L29.5991 15.9817Z" fill="white"/>
</svg>
