<svg width="96" height="96" viewBox="0 0 96 96" fill="none" xmlns="http://www.w3.org/2000/svg">
<g filter="url(#filter0_d_1729_5260)">
<path d="M53.7617 54.6609L53.634 54.4461L53.4655 54.5462L53.5226 54.7337L53.7617 54.6609ZM59.8872 74.7887V75.0387H60.2246L60.1264 74.7159L59.8872 74.7887ZM36.1133 74.7887L35.8741 74.7159L35.7759 75.0387H36.1133V74.7887ZM42.2388 54.6608L42.4779 54.7336L42.535 54.5461L42.3666 54.446L42.2388 54.6608ZM59.5275 44.4484C59.5216 44.3105 59.4049 44.2034 59.267 44.2094C59.129 44.2153 59.022 44.3319 59.0279 44.4699L59.5275 44.4484ZM58.945 43.51C58.9628 43.6469 59.0883 43.7434 59.2252 43.7256C59.3621 43.7077 59.4586 43.5823 59.4408 43.4454L58.945 43.51ZM59.2671 42.4539C59.2373 42.3191 59.1039 42.2339 58.969 42.2637C58.8342 42.2934 58.7491 42.4268 58.7788 42.5617L59.2671 42.4539ZM58.5302 41.6317C58.5717 41.7634 58.7121 41.8365 58.8438 41.7951C58.9755 41.7536 59.0486 41.6132 59.0071 41.4815L58.5302 41.6317ZM58.6627 40.5354C58.6098 40.4078 58.4635 40.3473 58.336 40.4002C58.2084 40.4531 58.1479 40.5993 58.2008 40.7269L58.6627 40.5354ZM57.7933 39.8544C57.8571 39.9768 58.0081 40.0243 58.1305 39.9604C58.253 39.8965 58.3004 39.7455 58.2366 39.6231L57.7933 39.8544ZM57.7324 38.7518C57.6582 38.6354 57.5036 38.6013 57.3872 38.6756C57.2708 38.7499 57.2367 38.9045 57.311 39.0208L57.7324 38.7518ZM56.758 38.2324C56.8421 38.3419 56.999 38.3624 57.1085 38.2783C57.218 38.1942 57.2385 38.0372 57.1544 37.9278L56.758 38.2324ZM56.507 37.157C56.4137 37.0553 56.2556 37.0484 56.1538 37.1417C56.052 37.235 56.0452 37.3932 56.1385 37.4949L56.507 37.157ZM55.4574 36.8138C55.5592 36.9072 55.7173 36.9003 55.8106 36.7985C55.9039 36.6967 55.8971 36.5386 55.7953 36.4453L55.4574 36.8138ZM55.0246 35.7979C54.9151 35.7138 54.7582 35.7343 54.674 35.8438C54.5899 35.9533 54.6104 36.1103 54.7199 36.1944L55.0246 35.7979ZM53.9315 35.6413C54.0479 35.7156 54.2025 35.6815 54.2768 35.5651C54.351 35.4488 54.3169 35.2942 54.2006 35.2199L53.9315 35.6413ZM53.3292 34.7158C53.2068 34.6519 53.0558 34.6994 52.9919 34.8218C52.9281 34.9442 52.9756 35.0952 53.098 35.1591L53.3292 34.7158ZM52.2255 34.7515C52.353 34.8044 52.4993 34.7439 52.5522 34.6164C52.605 34.4888 52.5445 34.3426 52.417 34.2897L52.2255 34.7515ZM51.4708 33.9452C51.3391 33.9037 51.1988 33.9769 51.1573 34.1085C51.1158 34.2402 51.1889 34.3806 51.3206 34.4221L51.4708 33.9452ZM50.3907 34.1735C50.5255 34.2033 50.6589 34.1181 50.6887 33.9833C50.7184 33.8485 50.6333 33.715 50.4984 33.6853L50.3907 34.1735ZM49.507 33.5116C49.3701 33.4937 49.2446 33.5902 49.2268 33.7271C49.2089 33.864 49.3054 33.9895 49.4423 34.0074L49.507 33.5116ZM48.4825 33.9244C48.6204 33.9303 48.7371 33.8233 48.743 33.6854C48.7489 33.5474 48.6419 33.4308 48.5039 33.4249L48.4825 33.9244ZM47.4967 33.4249C47.3588 33.4308 47.2518 33.5474 47.2577 33.6854C47.2636 33.8233 47.3803 33.9303 47.5182 33.9244L47.4967 33.4249ZM46.5584 34.0074C46.6953 33.9895 46.7918 33.864 46.7739 33.7271C46.7561 33.5902 46.6306 33.4937 46.4937 33.5116L46.5584 34.0074ZM45.5022 33.6853C45.3674 33.715 45.2822 33.8485 45.312 33.9833C45.3418 34.1181 45.4752 34.2033 45.61 34.1735L45.5022 33.6853ZM44.6801 34.4221C44.8118 34.3806 44.8849 34.2402 44.8434 34.1085C44.8019 33.9769 44.6615 33.9037 44.5298 33.9452L44.6801 34.4221ZM43.5837 34.2897C43.4562 34.3426 43.3956 34.4888 43.4485 34.6164C43.5014 34.7439 43.6477 34.8044 43.7752 34.7515L43.5837 34.2897ZM42.9027 35.1591C43.0251 35.0952 43.0726 34.9442 43.0087 34.8218C42.9449 34.6994 42.7939 34.6519 42.6715 34.7158L42.9027 35.1591ZM41.8001 35.2199C41.6837 35.2942 41.6496 35.4488 41.7239 35.5651C41.7982 35.6815 41.9528 35.7156 42.0692 35.6413L41.8001 35.2199ZM41.2808 36.1944C41.3902 36.1103 41.4108 35.9533 41.3267 35.8438C41.2425 35.7343 41.0856 35.7138 40.9761 35.7979L41.2808 36.1944ZM40.2054 36.4453C40.1036 36.5386 40.0967 36.6967 40.19 36.7985C40.2833 36.9003 40.4415 36.9072 40.5433 36.8138L40.2054 36.4453ZM39.8622 37.4949C39.9555 37.3932 39.9486 37.235 39.8469 37.1417C39.7451 37.0484 39.5869 37.0553 39.4936 37.157L39.8622 37.4949ZM38.8463 37.9278C38.7621 38.0372 38.7827 38.1942 38.8922 38.2783C39.0016 38.3624 39.1586 38.3419 39.2427 38.2324L38.8463 37.9278ZM38.6897 39.0208C38.764 38.9045 38.7299 38.7499 38.6135 38.6756C38.4971 38.6013 38.3425 38.6354 38.2682 38.7518L38.6897 39.0208ZM37.7641 39.6231C37.7002 39.7455 37.7477 39.8965 37.8701 39.9604C37.9926 40.0243 38.1436 39.9768 38.2074 39.8544L37.7641 39.6231ZM37.7999 40.7269C37.8528 40.5993 37.7922 40.4531 37.6647 40.4002C37.5372 40.3473 37.3909 40.4078 37.338 40.5354L37.7999 40.7269ZM36.9935 41.4815C36.9521 41.6132 37.0252 41.7536 37.1569 41.7951C37.2886 41.8366 37.429 41.7634 37.4704 41.6317L36.9935 41.4815ZM37.2219 42.5617C37.2516 42.4269 37.1665 42.2934 37.0316 42.2637C36.8968 42.2339 36.7634 42.3191 36.7336 42.4539L37.2219 42.5617ZM36.5599 43.4454C36.5421 43.5823 36.6386 43.7077 36.7755 43.7256C36.9124 43.7435 37.0379 43.6469 37.0557 43.51L36.5599 43.4454ZM36.9727 44.4699C36.9787 44.3319 36.8716 44.2153 36.7337 44.2094C36.5958 44.2034 36.4791 44.3105 36.4732 44.4484L36.9727 44.4699ZM36.4729 45.4497C36.4788 45.5876 36.5954 45.6947 36.7333 45.6888C36.8713 45.683 36.9784 45.5664 36.9725 45.4285L36.4729 45.4497ZM37.0535 46.3771C37.0359 46.2402 36.9106 46.1435 36.7736 46.1611C36.6367 46.1787 36.54 46.3041 36.5576 46.441L37.0535 46.3771ZM36.7274 47.4217C36.7568 47.5566 36.89 47.6421 37.0249 47.6127C37.1598 47.5833 37.2453 47.4501 37.2159 47.3152L36.7274 47.4217ZM37.4589 48.2353C37.4179 48.1035 37.2777 48.0299 37.1459 48.0709C37.0141 48.1119 36.9404 48.252 36.9815 48.3839L37.4589 48.2353ZM37.3182 49.3206C37.3705 49.4484 37.5165 49.5095 37.6443 49.4572C37.7721 49.4049 37.8332 49.2589 37.7809 49.1311L37.3182 49.3206ZM38.1794 49.9956C38.1163 49.8729 37.9655 49.8246 37.8427 49.8877C37.72 49.9509 37.6717 50.1017 37.7349 50.2244L38.1794 49.9956ZM38.228 51.0888C38.3015 51.2056 38.4559 51.2407 38.5728 51.1672C38.6896 51.0937 38.7247 50.9393 38.6512 50.8225L38.228 51.0888ZM39.1925 51.6057C39.1092 51.4956 38.9524 51.4739 38.8423 51.5572C38.7322 51.6405 38.7105 51.7973 38.7938 51.9074L39.1925 51.6057ZM39.4277 52.6744C39.5201 52.777 39.6782 52.7852 39.7808 52.6927C39.8833 52.6003 39.8915 52.4422 39.7991 52.3396L39.4277 52.6744ZM40.4663 53.0189C40.3654 52.9246 40.2072 52.93 40.1129 53.0309C40.0187 53.1318 40.024 53.29 40.1249 53.3843L40.4663 53.0189ZM40.8805 54.0318C40.9891 54.1171 41.1462 54.0982 41.2315 53.9896C41.3168 53.881 41.2978 53.7238 41.1893 53.6385L40.8805 54.0318ZM41.9626 54.1938C41.8471 54.1182 41.6922 54.1505 41.6165 54.266C41.5409 54.3815 41.5733 54.5365 41.6888 54.6121L41.9626 54.1938ZM41.8604 55.0455C41.8202 55.1776 41.8947 55.3173 42.0268 55.3575C42.1589 55.3977 42.2985 55.3232 42.3387 55.1911L41.8604 55.0455ZM42.0603 56.106C42.1005 55.9739 42.026 55.8342 41.8939 55.794C41.7618 55.7538 41.6222 55.8283 41.582 55.9604L42.0603 56.106ZM41.3035 56.8753C41.2633 57.0074 41.3378 57.1471 41.4699 57.1873C41.602 57.2275 41.7417 57.153 41.7819 57.0209L41.3035 56.8753ZM41.5034 57.9358C41.5436 57.8037 41.4691 57.664 41.3371 57.6238C41.205 57.5836 41.0653 57.6581 41.0251 57.7902L41.5034 57.9358ZM40.7467 58.7051C40.7065 58.8372 40.781 58.9769 40.913 59.0171C41.0451 59.0573 41.1848 58.9828 41.225 58.8507L40.7467 58.7051ZM40.9466 59.7656C40.9868 59.6335 40.9123 59.4938 40.7802 59.4536C40.6481 59.4134 40.5084 59.4879 40.4682 59.62L40.9466 59.7656ZM40.1898 60.5349C40.1496 60.667 40.2241 60.8067 40.3562 60.8469C40.4883 60.8871 40.6279 60.8126 40.6681 60.6805L40.1898 60.5349ZM40.3897 61.5954C40.4299 61.4633 40.3554 61.3236 40.2233 61.2834C40.0912 61.2432 39.9516 61.3177 39.9114 61.4498L40.3897 61.5954ZM39.6329 62.3647C39.5927 62.4968 39.6672 62.6365 39.7993 62.6767C39.9314 62.7169 40.0711 62.6424 40.1113 62.5103L39.6329 62.3647ZM39.8328 63.4252C39.873 63.2931 39.7986 63.1534 39.6665 63.1132C39.5344 63.073 39.3947 63.1475 39.3545 63.2796L39.8328 63.4252ZM39.0761 64.1945C39.0359 64.3266 39.1104 64.4663 39.2425 64.5065C39.3745 64.5467 39.5142 64.4722 39.5544 64.3401L39.0761 64.1945ZM39.276 65.255C39.3162 65.1229 39.2417 64.9832 39.1096 64.943C38.9775 64.9028 38.8378 64.9773 38.7976 65.1094L39.276 65.255ZM38.5192 66.0243C38.479 66.1564 38.5535 66.2961 38.6856 66.3363C38.8177 66.3765 38.9574 66.302 38.9976 66.1699L38.5192 66.0243ZM38.7191 67.0848C38.7593 66.9527 38.6848 66.813 38.5527 66.7728C38.4206 66.7326 38.281 66.8071 38.2408 66.9392L38.7191 67.0848ZM37.9623 67.8541C37.9222 67.9862 37.9966 68.1259 38.1287 68.1661C38.2608 68.2063 38.4005 68.1318 38.4407 67.9997L37.9623 67.8541ZM38.1623 68.9146C38.2025 68.7825 38.128 68.6428 37.9959 68.6026C37.8638 68.5625 37.7241 68.6369 37.6839 68.769L38.1623 68.9146ZM37.4055 69.6839C37.3653 69.816 37.4398 69.9557 37.5719 69.9959C37.704 70.0361 37.8436 69.9616 37.8838 69.8295L37.4055 69.6839ZM37.6054 70.7444C37.6456 70.6123 37.5711 70.4727 37.439 70.4325C37.3069 70.3923 37.1673 70.4667 37.1271 70.5988L37.6054 70.7444ZM36.8486 71.5137C36.8084 71.6458 36.8829 71.7855 37.015 71.8257C37.1471 71.8659 37.2868 71.7914 37.327 71.6593L36.8486 71.5137ZM37.0485 72.5742C37.0887 72.4421 37.0142 72.3025 36.8821 72.2623C36.7501 72.2221 36.6104 72.2966 36.5702 72.4286L37.0485 72.5742ZM36.2918 73.3435C36.2516 73.4756 36.3261 73.6153 36.4581 73.6555C36.5902 73.6957 36.7299 73.6212 36.7701 73.4891L36.2918 73.3435ZM36.4917 74.404C36.5319 74.2719 36.4574 74.1323 36.3253 74.0921C36.1932 74.0519 36.0535 74.1264 36.0133 74.2584L36.4917 74.404ZM36.6086 75.0387C36.7466 75.0387 36.8586 74.9268 36.8586 74.7887C36.8586 74.6506 36.7466 74.5387 36.6086 74.5387V75.0387ZM37.5992 74.5387C37.4611 74.5387 37.3492 74.6506 37.3492 74.7887C37.3492 74.9268 37.4611 75.0387 37.5992 75.0387V74.5387ZM38.5897 75.0387C38.7278 75.0387 38.8397 74.9268 38.8397 74.7887C38.8397 74.6506 38.7278 74.5387 38.5897 74.5387V75.0387ZM39.5803 74.5387C39.4422 74.5387 39.3303 74.6506 39.3303 74.7887C39.3303 74.9268 39.4422 75.0387 39.5803 75.0387V74.5387ZM40.5709 75.0387C40.709 75.0387 40.8209 74.9268 40.8209 74.7887C40.8209 74.6506 40.709 74.5387 40.5709 74.5387V75.0387ZM41.5615 74.5387C41.4234 74.5387 41.3115 74.6506 41.3115 74.7887C41.3115 74.9268 41.4234 75.0387 41.5615 75.0387V74.5387ZM42.5521 75.0387C42.6901 75.0387 42.8021 74.9268 42.8021 74.7887C42.8021 74.6506 42.6901 74.5387 42.5521 74.5387V75.0387ZM43.5426 74.5387C43.4046 74.5387 43.2926 74.6506 43.2926 74.7887C43.2926 74.9268 43.4046 75.0387 43.5426 75.0387V74.5387ZM44.5332 75.0387C44.6713 75.0387 44.7832 74.9268 44.7832 74.7887C44.7832 74.6506 44.6713 74.5387 44.5332 74.5387V75.0387ZM45.5238 74.5387C45.3857 74.5387 45.2738 74.6506 45.2738 74.7887C45.2738 74.9268 45.3857 75.0387 45.5238 75.0387V74.5387ZM46.5144 75.0387C46.6524 75.0387 46.7644 74.9268 46.7644 74.7887C46.7644 74.6506 46.6524 74.5387 46.5144 74.5387V75.0387ZM47.505 74.5387C47.3669 74.5387 47.255 74.6506 47.255 74.7887C47.255 74.9268 47.3669 75.0387 47.505 75.0387V74.5387ZM48.4955 75.0387C48.6336 75.0387 48.7455 74.9268 48.7455 74.7887C48.7455 74.6506 48.6336 74.5387 48.4955 74.5387V75.0387ZM49.4861 74.5387C49.348 74.5387 49.2361 74.6506 49.2361 74.7887C49.2361 74.9268 49.348 75.0387 49.4861 75.0387V74.5387ZM50.4767 75.0387C50.6148 75.0387 50.7267 74.9268 50.7267 74.7887C50.7267 74.6506 50.6148 74.5387 50.4767 74.5387V75.0387ZM51.4673 74.5387C51.3292 74.5387 51.2173 74.6506 51.2173 74.7887C51.2173 74.9268 51.3292 75.0387 51.4673 75.0387V74.5387ZM52.4579 75.0387C52.5959 75.0387 52.7079 74.9268 52.7079 74.7887C52.7079 74.6506 52.5959 74.5387 52.4579 74.5387V75.0387ZM53.4484 74.5387C53.3104 74.5387 53.1984 74.6506 53.1984 74.7887C53.1984 74.9268 53.3104 75.0387 53.4484 75.0387V74.5387ZM54.439 75.0387C54.5771 75.0387 54.689 74.9268 54.689 74.7887C54.689 74.6506 54.5771 74.5387 54.439 74.5387V75.0387ZM55.4296 74.5387C55.2915 74.5387 55.1796 74.6506 55.1796 74.7887C55.1796 74.9268 55.2915 75.0387 55.4296 75.0387V74.5387ZM56.4202 75.0387C56.5583 75.0387 56.6702 74.9268 56.6702 74.7887C56.6702 74.6506 56.5583 74.5387 56.4202 74.5387V75.0387ZM57.4108 74.5387C57.2727 74.5387 57.1608 74.6506 57.1608 74.7887C57.1608 74.9268 57.2727 75.0387 57.4108 75.0387V74.5387ZM58.4014 75.0387C58.5394 75.0387 58.6514 74.9268 58.6514 74.7887C58.6514 74.6506 58.5394 74.5387 58.4014 74.5387V75.0387ZM59.3919 74.5387C59.2539 74.5387 59.1419 74.6506 59.1419 74.7887C59.1419 74.9268 59.2539 75.0387 59.3919 75.0387V74.5387ZM59.9872 74.2584C59.947 74.1264 59.8073 74.0519 59.6752 74.0921C59.5431 74.1323 59.4686 74.2719 59.5088 74.404L59.9872 74.2584ZM59.2304 73.4891C59.2706 73.6212 59.4103 73.6957 59.5424 73.6555C59.6744 73.6153 59.7489 73.4756 59.7087 73.3436L59.2304 73.4891ZM59.4303 72.4287C59.3901 72.2966 59.2504 72.2221 59.1184 72.2623C58.9863 72.3025 58.9118 72.4421 58.952 72.5742L59.4303 72.4287ZM58.6735 71.6593C58.7137 71.7914 58.8534 71.8659 58.9855 71.8257C59.1176 71.7855 59.1921 71.6458 59.1519 71.5138L58.6735 71.6593ZM58.8734 70.5989C58.8333 70.4668 58.6936 70.3923 58.5615 70.4325C58.4294 70.4727 58.3549 70.6123 58.3951 70.7444L58.8734 70.5989ZM58.1167 69.8295C58.1569 69.9616 58.2965 70.0361 58.4286 69.9959C58.5607 69.9557 58.6352 69.8161 58.595 69.684L58.1167 69.8295ZM58.3166 68.7691C58.2764 68.637 58.1367 68.5625 58.0046 68.6027C57.8725 68.6429 57.798 68.7825 57.8382 68.9146L58.3166 68.7691ZM57.5598 67.9997C57.6 68.1318 57.7397 68.2063 57.8718 68.1661C58.0039 68.1259 58.0784 67.9863 58.0382 67.8542L57.5598 67.9997ZM57.7597 66.9393C57.7195 66.8072 57.5799 66.7327 57.4478 66.7729C57.3157 66.8131 57.2412 66.9528 57.2814 67.0848L57.7597 66.9393ZM57.003 66.1699C57.0432 66.302 57.1828 66.3765 57.3149 66.3363C57.447 66.2961 57.5215 66.1565 57.4813 66.0244L57.003 66.1699ZM57.2029 65.1095C57.1627 64.9774 57.023 64.9029 56.8909 64.9431C56.7588 64.9833 56.6843 65.123 56.7245 65.255L57.2029 65.1095ZM56.4461 64.3401C56.4863 64.4722 56.626 64.5467 56.758 64.5065C56.8901 64.4663 56.9646 64.3267 56.9244 64.1946L56.4461 64.3401ZM56.646 63.2797C56.6058 63.1476 56.4661 63.0731 56.334 63.1133C56.202 63.1535 56.1275 63.2932 56.1677 63.4252L56.646 63.2797ZM55.8892 62.5103C55.9294 62.6424 56.0691 62.7169 56.2012 62.6767C56.3333 62.6365 56.4078 62.4969 56.3676 62.3648L55.8892 62.5103ZM56.0891 61.4499C56.0489 61.3178 55.9093 61.2433 55.7772 61.2835C55.6451 61.3237 55.5706 61.4634 55.6108 61.5955L56.0891 61.4499ZM55.3324 60.6806C55.3726 60.8126 55.5122 60.8871 55.6443 60.8469C55.7764 60.8067 55.8509 60.6671 55.8107 60.535L55.3324 60.6806ZM55.5323 59.6201C55.4921 59.488 55.3524 59.4135 55.2203 59.4537C55.0882 59.4939 55.0137 59.6336 55.0539 59.7657L55.5323 59.6201ZM54.7755 58.8508C54.8157 58.9828 54.9554 59.0573 55.0875 59.0171C55.2196 58.9769 55.294 58.8373 55.2538 58.7052L54.7755 58.8508ZM54.9754 57.7903C54.9352 57.6582 54.7955 57.5837 54.6635 57.6239C54.5314 57.6641 54.4569 57.8038 54.4971 57.9359L54.9754 57.7903ZM54.2186 57.021C54.2588 57.1531 54.3985 57.2275 54.5306 57.1873C54.6627 57.1471 54.7372 57.0075 54.697 56.8754L54.2186 57.021ZM54.4186 55.9605C54.3784 55.8284 54.2387 55.7539 54.1066 55.7941C53.9745 55.8343 53.9 55.974 53.9402 56.1061L54.4186 55.9605ZM53.6618 55.1912C53.702 55.3233 53.8416 55.3977 53.9737 55.3575C54.1058 55.3173 54.1803 55.1777 54.1401 55.0456L53.6618 55.1912ZM54.3118 54.6122C54.4273 54.5366 54.4596 54.3816 54.384 54.2661C54.3084 54.1506 54.1534 54.1183 54.0379 54.1939L54.3118 54.6122ZM54.8113 53.6386C54.7027 53.7239 54.6838 53.8811 54.7691 53.9897C54.8543 54.0983 55.0115 54.1172 55.1201 54.0319L54.8113 53.6386ZM55.8756 53.3844C55.9765 53.2901 55.9819 53.1319 55.8876 53.031C55.7934 52.9301 55.6352 52.9247 55.5343 53.019L55.8756 53.3844ZM56.2015 52.3397C56.1091 52.4423 56.1173 52.6004 56.2198 52.6928C56.3224 52.7853 56.4805 52.7771 56.5729 52.6745L56.2015 52.3397ZM57.2068 51.9075C57.2901 51.7974 57.2684 51.6406 57.1583 51.5573C57.0482 51.474 56.8914 51.4957 56.8081 51.6058L57.2068 51.9075ZM57.3494 50.8225C57.2759 50.9394 57.311 51.0938 57.4279 51.1673C57.5447 51.2408 57.6991 51.2057 57.7726 51.0888L57.3494 50.8225ZM58.2658 50.2245C58.329 50.1017 58.2807 49.951 58.1579 49.8878C58.0351 49.8246 57.8844 49.8729 57.8212 49.9957L58.2658 50.2245ZM58.2197 49.1312C58.1674 49.259 58.2286 49.405 58.3564 49.4573C58.4841 49.5096 58.6301 49.4484 58.6824 49.3206L58.2197 49.1312ZM59.0192 48.3839C59.0602 48.2521 58.9866 48.112 58.8548 48.0709C58.7229 48.0299 58.5828 48.1035 58.5418 48.2354L59.0192 48.3839ZM58.7848 47.3152C58.7553 47.4501 58.8409 47.5833 58.9757 47.6127C59.1107 47.6422 59.2439 47.5567 59.2733 47.4218L58.7848 47.3152ZM59.4431 46.441C59.4607 46.3041 59.364 46.1788 59.2271 46.1611C59.0901 46.1435 58.9648 46.2402 58.9472 46.3771L59.4431 46.441ZM59.0282 45.4285C59.0223 45.5664 59.1294 45.683 59.2674 45.6889C59.4053 45.6947 59.5219 45.5876 59.5277 45.4497L59.0282 45.4285ZM59.5383 44.952C59.5383 44.7833 59.5347 44.6154 59.5275 44.4484L59.0279 44.4699C59.0348 44.6297 59.0383 44.7904 59.0383 44.952H59.5383ZM59.4408 43.4454C59.397 43.1102 59.3389 42.7795 59.2671 42.4539L58.7788 42.5617C58.8475 42.873 58.9031 43.1894 58.945 43.51L59.4408 43.4454ZM59.0071 41.4815C58.9058 41.1598 58.7907 40.8442 58.6627 40.5354L58.2008 40.7269C58.3233 41.0222 58.4333 41.3241 58.5302 41.6317L59.0071 41.4815ZM58.2366 39.6231C58.0809 39.3248 57.9127 39.0341 57.7324 38.7518L57.311 39.0208C57.4834 39.2909 57.6444 39.569 57.7933 39.8544L58.2366 39.6231ZM57.1544 37.9278C56.9497 37.6614 56.7337 37.4043 56.507 37.157L56.1385 37.4949C56.3554 37.7315 56.5621 37.9776 56.758 38.2324L57.1544 37.9278ZM55.7953 36.4453C55.5481 36.2186 55.2909 36.0026 55.0246 35.7979L54.7199 36.1944C54.9748 36.3902 55.2208 36.5969 55.4574 36.8138L55.7953 36.4453ZM54.2006 35.2199C53.9183 35.0397 53.6276 34.8714 53.3292 34.7158L53.098 35.1591C53.3834 35.3079 53.6614 35.4689 53.9315 35.6413L54.2006 35.2199ZM52.417 34.2897C52.1081 34.1616 51.7925 34.0465 51.4708 33.9452L51.3206 34.4221C51.6283 34.519 51.9301 34.629 52.2255 34.7515L52.417 34.2897ZM50.4984 33.6853C50.1729 33.6134 49.8422 33.5553 49.507 33.5116L49.4423 34.0074C49.763 34.0492 50.0793 34.1048 50.3907 34.1735L50.4984 33.6853ZM48.5039 33.4249C48.337 33.4177 48.1691 33.4141 48.0003 33.4141V33.9141C48.1619 33.9141 48.3226 33.9175 48.4825 33.9244L48.5039 33.4249ZM48.0003 33.4141C47.8316 33.4141 47.6637 33.4177 47.4967 33.4249L47.5182 33.9244C47.678 33.9175 47.8388 33.9141 48.0003 33.9141V33.4141ZM46.4937 33.5116C46.1585 33.5553 45.8278 33.6134 45.5022 33.6853L45.61 34.1735C45.9214 34.1048 46.2377 34.0492 46.5584 34.0074L46.4937 33.5116ZM44.5298 33.9452C44.2081 34.0465 43.8925 34.1616 43.5837 34.2897L43.7752 34.7515C44.0706 34.629 44.3724 34.519 44.6801 34.4221L44.5298 33.9452ZM42.6715 34.7158C42.3731 34.8714 42.0824 35.0397 41.8001 35.2199L42.0692 35.6413C42.3392 35.4689 42.6173 35.3079 42.9027 35.1591L42.6715 34.7158ZM40.9761 35.7979C40.7098 36.0026 40.4526 36.2186 40.2054 36.4453L40.5433 36.8138C40.7798 36.5969 41.0259 36.3902 41.2808 36.1944L40.9761 35.7979ZM39.4936 37.157C39.267 37.4043 39.0509 37.6614 38.8463 37.9278L39.2427 38.2324C39.4386 37.9776 39.6453 37.7315 39.8622 37.4949L39.4936 37.157ZM38.2682 38.7518C38.088 39.0341 37.9197 39.3248 37.7641 39.6231L38.2074 39.8544C38.3563 39.569 38.5173 39.2909 38.6897 39.0208L38.2682 38.7518ZM37.338 40.5354C37.2099 40.8442 37.0949 41.1598 36.9935 41.4815L37.4704 41.6317C37.5674 41.3241 37.6774 41.0223 37.7999 40.7269L37.338 40.5354ZM36.7336 42.4539C36.6617 42.7795 36.6036 43.1102 36.5599 43.4454L37.0557 43.51C37.0975 43.1894 37.1531 42.873 37.2219 42.5617L36.7336 42.4539ZM36.4732 44.4484C36.466 44.6154 36.4624 44.7833 36.4624 44.952H36.9624C36.9624 44.7904 36.9659 44.6297 36.9727 44.4699L36.4732 44.4484ZM36.4624 44.952C36.4624 45.1187 36.4659 45.2846 36.4729 45.4497L36.9725 45.4285C36.9658 45.2705 36.9624 45.1117 36.9624 44.952H36.4624ZM36.5576 46.441C36.6003 46.7725 36.6571 47.0996 36.7274 47.4217L37.2159 47.3152C37.1487 47.0071 37.0944 46.6942 37.0535 46.3771L36.5576 46.441ZM36.9815 48.3839C37.0805 48.7022 37.193 49.0147 37.3182 49.3206L37.7809 49.1311C37.6612 48.8386 37.5536 48.5398 37.4589 48.2353L36.9815 48.3839ZM37.7349 50.2244C37.8871 50.5202 38.0517 50.8085 38.228 51.0888L38.6512 50.8225C38.4825 50.5544 38.325 50.2786 38.1794 49.9956L37.7349 50.2244ZM38.7938 51.9074C38.9941 52.1722 39.2057 52.4281 39.4277 52.6744L39.7991 52.3396C39.5866 52.104 39.3842 51.8591 39.1925 51.6057L38.7938 51.9074ZM40.1249 53.3843C40.3672 53.6107 40.6193 53.8267 40.8805 54.0318L41.1893 53.6385C40.9394 53.4423 40.6982 53.2356 40.4663 53.0189L40.1249 53.3843ZM41.6888 54.6121C41.8275 54.7029 41.9682 54.7908 42.111 54.8757L42.3666 54.446C42.23 54.3647 42.0953 54.2807 41.9626 54.1938L41.6888 54.6121ZM41.9996 54.588L41.8604 55.0455L42.3387 55.1911L42.4779 54.7336L41.9996 54.588ZM41.582 55.9604L41.3035 56.8753L41.7819 57.0209L42.0603 56.106L41.582 55.9604ZM41.0251 57.7902L40.7467 58.7051L41.225 58.8507L41.5034 57.9358L41.0251 57.7902ZM40.4682 59.62L40.1898 60.5349L40.6681 60.6805L40.9466 59.7656L40.4682 59.62ZM39.9114 61.4498L39.6329 62.3647L40.1113 62.5103L40.3897 61.5954L39.9114 61.4498ZM39.3545 63.2796L39.0761 64.1945L39.5544 64.3401L39.8328 63.4252L39.3545 63.2796ZM38.7976 65.1094L38.5192 66.0243L38.9976 66.1699L39.276 65.255L38.7976 65.1094ZM38.2408 66.9392L37.9623 67.8541L38.4407 67.9997L38.7191 67.0848L38.2408 66.9392ZM37.6839 68.769L37.4055 69.6839L37.8838 69.8295L38.1623 68.9146L37.6839 68.769ZM37.1271 70.5988L36.8486 71.5137L37.327 71.6593L37.6054 70.7444L37.1271 70.5988ZM36.5702 72.4286L36.2918 73.3435L36.7701 73.4891L37.0485 72.5742L36.5702 72.4286ZM36.0133 74.2584L35.8741 74.7159L36.3525 74.8615L36.4917 74.404L36.0133 74.2584ZM36.1133 75.0387H36.6086V74.5387H36.1133V75.0387ZM37.5992 75.0387H38.5897V74.5387H37.5992V75.0387ZM39.5803 75.0387H40.5709V74.5387H39.5803V75.0387ZM41.5615 75.0387H42.5521V74.5387H41.5615V75.0387ZM43.5426 75.0387H44.5332V74.5387H43.5426V75.0387ZM45.5238 75.0387H46.5144V74.5387H45.5238V75.0387ZM47.505 75.0387H48.4955V74.5387H47.505V75.0387ZM49.4861 75.0387H50.4767V74.5387H49.4861V75.0387ZM51.4673 75.0387H52.4579V74.5387H51.4673V75.0387ZM53.4484 75.0387H54.439V74.5387H53.4484V75.0387ZM55.4296 75.0387H56.4202V74.5387H55.4296V75.0387ZM57.4108 75.0387H58.4014V74.5387H57.4108V75.0387ZM59.3919 75.0387H59.8872V74.5387H59.3919V75.0387ZM60.1264 74.7159L59.9872 74.2584L59.5088 74.404L59.648 74.8615L60.1264 74.7159ZM59.7087 73.3436L59.4303 72.4287L58.952 72.5742L59.2304 73.4891L59.7087 73.3436ZM59.1519 71.5138L58.8734 70.5989L58.3951 70.7444L58.6735 71.6593L59.1519 71.5138ZM58.595 69.684L58.3166 68.7691L57.8382 68.9146L58.1167 69.8295L58.595 69.684ZM58.0382 67.8542L57.7597 66.9393L57.2814 67.0848L57.5598 67.9997L58.0382 67.8542ZM57.4813 66.0244L57.2029 65.1095L56.7245 65.255L57.003 66.1699L57.4813 66.0244ZM56.9244 64.1946L56.646 63.2797L56.1677 63.4252L56.4461 64.3401L56.9244 64.1946ZM56.3676 62.3648L56.0891 61.4499L55.6108 61.5955L55.8892 62.5103L56.3676 62.3648ZM55.8107 60.535L55.5323 59.6201L55.0539 59.7657L55.3324 60.6806L55.8107 60.535ZM55.2538 58.7052L54.9754 57.7903L54.4971 57.9359L54.7755 58.8508L55.2538 58.7052ZM54.697 56.8754L54.4186 55.9605L53.9402 56.1061L54.2186 57.021L54.697 56.8754ZM54.1401 55.0456L54.0009 54.5881L53.5226 54.7337L53.6618 55.1912L54.1401 55.0456ZM53.8895 54.8758C54.0323 54.7909 54.1731 54.703 54.3118 54.6122L54.0379 54.1939C53.9052 54.2808 53.7705 54.3648 53.634 54.4461L53.8895 54.8758ZM55.1201 54.0319C55.3812 53.8268 55.6333 53.6108 55.8756 53.3844L55.5343 53.019C55.3024 53.2357 55.0612 53.4424 54.8113 53.6386L55.1201 54.0319ZM56.5729 52.6745C56.7949 52.4282 57.0065 52.1723 57.2068 51.9075L56.8081 51.6058C56.6164 51.8592 56.414 52.1041 56.2015 52.3397L56.5729 52.6745ZM57.7726 51.0888C57.9489 50.8086 58.1136 50.5203 58.2658 50.2245L57.8212 49.9957C57.6756 50.2786 57.5181 50.5545 57.3494 50.8225L57.7726 51.0888ZM58.6824 49.3206C58.8077 49.0148 58.9201 48.7023 59.0192 48.3839L58.5418 48.2354C58.447 48.5399 58.3395 48.8387 58.2197 49.1312L58.6824 49.3206ZM59.2733 47.4218C59.3435 47.0996 59.4003 46.7725 59.4431 46.441L58.9472 46.3771C58.9063 46.6943 58.852 47.0071 58.7848 47.3152L59.2733 47.4218ZM59.5277 45.4497C59.5347 45.2846 59.5383 45.1187 59.5383 44.952H59.0383C59.0383 45.1117 59.0349 45.2705 59.0282 45.4285L59.5277 45.4497Z" fill="url(#paint0_linear_1729_5260)"/>
</g>
<path d="M64.6265 60.9765C66.7484 58.8216 68.4515 56.2667 69.6153 53.4612C70.7791 50.6556 71.3886 47.6603 71.3886 44.5973C71.3886 41.5342 70.7816 38.505 69.6153 35.7334C68.449 32.9617 66.7484 30.373 64.6265 28.218C60.3851 23.9216 54.5034 21.2109 47.9997 21.2109C41.4959 21.2109 35.6167 23.8945 31.3754 28.2112C29.2509 30.373 27.5504 32.9278 26.3866 35.7334C25.2228 38.5389 24.6133 41.5342 24.6133 44.5973C24.6133 47.6603 25.2203 50.6895 26.3866 53.4612C27.5529 56.2329 29.2509 58.8216 31.3754 60.9765" stroke="url(#paint1_linear_1729_5260)" stroke-width="0.25" stroke-dasharray="0.5 0.5"/>
<path d="M48.0003 84.86C68.3574 84.86 84.86 68.3574 84.86 48.0003C84.86 27.6433 68.3574 11.1406 48.0003 11.1406C27.6433 11.1406 11.1406 27.6433 11.1406 48.0003C11.1406 68.3574 27.6433 84.86 48.0003 84.86Z" stroke="url(#paint2_linear_1729_5260)" stroke-width="0.5" stroke-miterlimit="10"/>
<defs>
<filter id="filter0_d_1729_5260" x="30.7773" y="28.4141" width="34.4492" height="51.625" filterUnits="userSpaceOnUse" color-interpolation-filters="sRGB">
<feFlood flood-opacity="0" result="BackgroundImageFix"/>
<feColorMatrix in="SourceAlpha" type="matrix" values="0 0 0 0 0 0 0 0 0 0 0 0 0 0 0 0 0 0 127 0" result="hardAlpha"/>
<feOffset/>
<feGaussianBlur stdDeviation="2.5"/>
<feComposite in2="hardAlpha" operator="out"/>
<feColorMatrix type="matrix" values="0 0 0 0 0 0 0 0 0 1 0 0 0 0 0.7 0 0 0 1 0"/>
<feBlend mode="normal" in2="BackgroundImageFix" result="effect1_dropShadow_1729_5260"/>
<feBlend mode="normal" in="SourceGraphic" in2="effect1_dropShadow_1729_5260" result="shape"/>
</filter>
<linearGradient id="paint0_linear_1729_5260" x1="48.0002" y1="18.9277" x2="48.0002" y2="74.7887" gradientUnits="userSpaceOnUse">
<stop offset="0.170133" stop-color="#53FDA9" stop-opacity="0"/>
<stop offset="1" stop-color="#53FDA9"/>
</linearGradient>
<linearGradient id="paint1_linear_1729_5260" x1="47.294" y1="68.2229" x2="49.0561" y2="24.8727" gradientUnits="userSpaceOnUse">
<stop stop-color="white"/>
<stop offset="1" stop-color="white" stop-opacity="0"/>
</linearGradient>
<linearGradient id="paint2_linear_1729_5260" x1="48.0034" y1="11.1406" x2="49.5904" y2="82.3196" gradientUnits="userSpaceOnUse">
<stop stop-color="#632BFF"/>
<stop offset="1" stop-color="#632BFF" stop-opacity="0"/>
</linearGradient>
</defs>
</svg>
