<svg width="96" height="96" viewBox="0 0 96 96" fill="none" xmlns="http://www.w3.org/2000/svg">
<g filter="url(#filter0_d_4498_3479)">
<path d="M53.7615 54.6619L53.6337 54.447L53.4653 54.5472L53.5223 54.7347L53.7615 54.6619ZM59.887 74.7897V75.0397H60.2244L60.1261 74.7169L59.887 74.7897ZM36.113 74.7897L35.8739 74.7169L35.7756 75.0397H36.113V74.7897ZM42.2385 54.6618L42.4777 54.7346L42.5348 54.5471L42.3663 54.4469L42.2385 54.6618ZM59.5272 44.4494C59.5213 44.3114 59.4047 44.2044 59.2667 44.2103C59.1288 44.2163 59.0218 44.3329 59.0277 44.4708L59.5272 44.4494ZM58.9447 43.511C58.9626 43.6479 59.088 43.7444 59.225 43.7266C59.3619 43.7087 59.4584 43.5832 59.4405 43.4463L58.9447 43.511ZM59.2668 42.4549C59.2371 42.32 59.1036 42.2349 58.9688 42.2646C58.834 42.2944 58.7488 42.4278 58.7786 42.5626L59.2668 42.4549ZM58.53 41.6327C58.5715 41.7644 58.7119 41.8375 58.8435 41.796C58.9752 41.7546 59.0484 41.6142 59.0069 41.4825L58.53 41.6327ZM58.6624 40.5363C58.6095 40.4088 58.4633 40.3483 58.3357 40.4012C58.2082 40.454 58.1477 40.6003 58.2006 40.7279L58.6624 40.5363ZM57.793 39.8553C57.8569 39.9778 58.0079 40.0252 58.1303 39.9614C58.2527 39.8975 58.3002 39.7465 58.2363 39.6241L57.793 39.8553ZM57.7322 38.7528C57.6579 38.6364 57.5033 38.6023 57.387 38.6766C57.2706 38.7509 57.2365 38.9054 57.3108 39.0218L57.7322 38.7528ZM56.7577 38.2334C56.8418 38.3429 56.9988 38.3634 57.1083 38.2793C57.2177 38.1952 57.2383 38.0382 57.1542 37.9287L56.7577 38.2334ZM56.5068 37.158C56.4135 37.0562 56.2554 37.0494 56.1536 37.1427C56.0518 37.236 56.0449 37.3941 56.1382 37.4959L56.5068 37.158ZM55.4572 36.8148C55.5589 36.9081 55.7171 36.9013 55.8104 36.7995C55.9037 36.6977 55.8968 36.5396 55.7951 36.4463L55.4572 36.8148ZM55.0243 35.7989C54.9149 35.7148 54.7579 35.7353 54.6738 35.8448C54.5897 35.9543 54.6102 36.1112 54.7197 36.1954L55.0243 35.7989ZM53.9313 35.6423C54.0476 35.7166 54.2022 35.6825 54.2765 35.5661C54.3508 35.4497 54.3167 35.2952 54.2003 35.2209L53.9313 35.6423ZM53.329 34.7167C53.2066 34.6529 53.0556 34.7004 52.9917 34.8228C52.9278 34.9452 52.9753 35.0962 53.0977 35.1601L53.329 34.7167ZM52.2252 34.7525C52.3528 34.8054 52.499 34.7449 52.5519 34.6173C52.6048 34.4898 52.5443 34.3435 52.4167 34.2906L52.2252 34.7525ZM51.4706 33.9462C51.3389 33.9047 51.1985 33.9778 51.157 34.1095C51.1155 34.2412 51.1887 34.3816 51.3204 34.4231L51.4706 33.9462ZM50.3904 34.1745C50.5252 34.2043 50.6587 34.1191 50.6884 33.9843C50.7182 33.8494 50.633 33.716 50.4982 33.6863L50.3904 34.1745ZM49.5067 33.5125C49.3698 33.4947 49.2444 33.5912 49.2265 33.7281C49.2086 33.865 49.3052 33.9905 49.4421 34.0083L49.5067 33.5125ZM48.4822 33.9254C48.6202 33.9313 48.7368 33.8243 48.7427 33.6863C48.7487 33.5484 48.6416 33.4318 48.5037 33.4258L48.4822 33.9254ZM47.4965 33.4258C47.3586 33.4318 47.2515 33.5484 47.2575 33.6863C47.2634 33.8243 47.38 33.9313 47.518 33.9254L47.4965 33.4258ZM46.5581 34.0083C46.695 33.9905 46.7915 33.865 46.7737 33.7281C46.7558 33.5912 46.6304 33.4947 46.4934 33.5125L46.5581 34.0083ZM45.502 33.6863C45.3672 33.716 45.282 33.8494 45.3118 33.9843C45.3415 34.1191 45.4749 34.2043 45.6098 34.1745L45.502 33.6863ZM44.6798 34.4231C44.8115 34.3816 44.8846 34.2412 44.8432 34.1095C44.8017 33.9778 44.6613 33.9047 44.5296 33.9462L44.6798 34.4231ZM43.5834 34.2906C43.4559 34.3435 43.3954 34.4898 43.4483 34.6173C43.5012 34.7449 43.6474 34.8054 43.775 34.7525L43.5834 34.2906ZM42.9025 35.1601C43.0249 35.0962 43.0723 34.9452 43.0085 34.8228C42.9446 34.7004 42.7936 34.6529 42.6712 34.7167L42.9025 35.1601ZM41.7999 35.2209C41.6835 35.2952 41.6494 35.4497 41.7237 35.5661C41.798 35.6825 41.9525 35.7166 42.0689 35.6423L41.7999 35.2209ZM41.2805 36.1954C41.39 36.1112 41.4105 35.9543 41.3264 35.8448C41.2423 35.7353 41.0853 35.7148 40.9758 35.7989L41.2805 36.1954ZM40.2051 36.4463C40.1034 36.5396 40.0965 36.6977 40.1898 36.7995C40.2831 36.9013 40.4412 36.9081 40.543 36.8148L40.2051 36.4463ZM39.8619 37.4959C39.9552 37.3941 39.9484 37.236 39.8466 37.1427C39.7448 37.0494 39.5867 37.0562 39.4934 37.158L39.8619 37.4959ZM38.846 37.9287C38.7619 38.0382 38.7824 38.1952 38.8919 38.2793C39.0014 38.3634 39.1584 38.3429 39.2425 38.2334L38.846 37.9287ZM38.6894 39.0218C38.7637 38.9054 38.7296 38.7509 38.6132 38.6766C38.4969 38.6023 38.3423 38.6364 38.268 38.7528L38.6894 39.0218ZM37.7639 39.6241C37.7 39.7465 37.7475 39.8975 37.8699 39.9614C37.9923 40.0252 38.1433 39.9778 38.2072 39.8553L37.7639 39.6241ZM37.7996 40.7279C37.8525 40.6003 37.792 40.454 37.6645 40.4012C37.5369 40.3483 37.3907 40.4088 37.3378 40.5363L37.7996 40.7279ZM36.9933 41.4825C36.9518 41.6142 37.0249 41.7546 37.1566 41.796C37.2883 41.8375 37.4287 41.7644 37.4702 41.6327L36.9933 41.4825ZM37.2216 42.5626C37.2514 42.4278 37.1662 42.2944 37.0314 42.2646C36.8966 42.2349 36.7631 42.32 36.7334 42.4549L37.2216 42.5626ZM36.5597 43.4463C36.5418 43.5832 36.6383 43.7087 36.7752 43.7266C36.9121 43.7444 37.0376 43.6479 37.0555 43.511L36.5597 43.4463ZM36.9725 44.4708C36.9784 44.3329 36.8714 44.2163 36.7335 44.2103C36.5955 44.2044 36.4789 44.3114 36.473 44.4494L36.9725 44.4708ZM36.4727 45.4507C36.4786 45.5886 36.5951 45.6957 36.7331 45.6898C36.871 45.684 36.9781 45.5674 36.9723 45.4294L36.4727 45.4507ZM37.0533 46.3781C37.0356 46.2411 36.9103 46.1444 36.7734 46.1621C36.6364 46.1797 36.5397 46.305 36.5574 46.442L37.0533 46.3781ZM36.7271 47.4227C36.7566 47.5576 36.8898 47.6431 37.0247 47.6137C37.1596 47.5843 37.2451 47.451 37.2157 47.3161L36.7271 47.4227ZM37.4586 48.2363C37.4176 48.1045 37.2775 48.0309 37.1457 48.0719C37.0138 48.1129 36.9402 48.253 36.9812 48.3849L37.4586 48.2363ZM37.318 49.3216C37.3703 49.4493 37.5163 49.5105 37.644 49.4582C37.7718 49.4059 37.833 49.2599 37.7807 49.1321L37.318 49.3216ZM38.1792 49.9966C38.116 49.8738 37.9653 49.8255 37.8425 49.8887C37.7197 49.9519 37.6714 50.1026 37.7346 50.2254L38.1792 49.9966ZM38.2278 51.0897C38.3013 51.2066 38.4556 51.2417 38.5725 51.1682C38.6894 51.0946 38.7245 50.9403 38.651 50.8234L38.2278 51.0897ZM39.1923 51.6067C39.1089 51.4966 38.9521 51.4749 38.842 51.5582C38.7319 51.6415 38.7102 51.7983 38.7935 51.9084L39.1923 51.6067ZM39.4274 52.6754C39.5199 52.7779 39.6779 52.7861 39.7805 52.6937C39.8831 52.6012 39.8913 52.4432 39.7988 52.3406L39.4274 52.6754ZM40.466 53.0199C40.3652 52.9256 40.207 52.931 40.1127 53.0319C40.0184 53.1328 40.0238 53.291 40.1247 53.3852L40.466 53.0199ZM40.8802 54.0328C40.9888 54.118 41.146 54.0991 41.2312 53.9905C41.3165 53.8819 41.2976 53.7248 41.189 53.6395L40.8802 54.0328ZM41.9624 54.1948C41.8469 54.1191 41.6919 54.1515 41.6163 54.267C41.5407 54.3825 41.573 54.5375 41.6885 54.6131L41.9624 54.1948ZM41.8601 55.0465C41.82 55.1786 41.8944 55.3182 42.0265 55.3584C42.1586 55.3986 42.2983 55.3241 42.3385 55.192L41.8601 55.0465ZM42.0601 56.107C42.1003 55.9749 42.0258 55.8352 41.8937 55.795C41.7616 55.7548 41.6219 55.8293 41.5817 55.9614L42.0601 56.107ZM41.3033 56.8763C41.2631 57.0084 41.3376 57.148 41.4697 57.1882C41.6018 57.2284 41.7414 57.1539 41.7816 57.0219L41.3033 56.8763ZM41.5032 57.9368C41.5434 57.8047 41.4689 57.665 41.3368 57.6248C41.2047 57.5846 41.0651 57.6591 41.0249 57.7912L41.5032 57.9368ZM40.7464 58.7061C40.7062 58.8382 40.7807 58.9778 40.9128 59.018C41.0449 59.0582 41.1846 58.9837 41.2248 58.8517L40.7464 58.7061ZM40.9463 59.7666C40.9865 59.6345 40.912 59.4948 40.7799 59.4546C40.6479 59.4144 40.5082 59.4889 40.468 59.621L40.9463 59.7666ZM40.1896 60.5359C40.1494 60.668 40.2239 60.8076 40.3559 60.8478C40.488 60.888 40.6277 60.8136 40.6679 60.6815L40.1896 60.5359ZM40.3895 61.5964C40.4297 61.4643 40.3552 61.3246 40.2231 61.2844C40.091 61.2442 39.9513 61.3187 39.9111 61.4508L40.3895 61.5964ZM39.6327 62.3657C39.5925 62.4978 39.667 62.6375 39.7991 62.6777C39.9312 62.7178 40.0708 62.6434 40.111 62.5113L39.6327 62.3657ZM39.8326 63.4262C39.8728 63.2941 39.7983 63.1544 39.6662 63.1142C39.5341 63.074 39.3945 63.1485 39.3543 63.2806L39.8326 63.4262ZM39.0758 64.1955C39.0356 64.3276 39.1101 64.4673 39.2422 64.5075C39.3743 64.5477 39.514 64.4732 39.5542 64.3411L39.0758 64.1955ZM39.2757 65.256C39.3159 65.1239 39.2414 64.9842 39.1094 64.944C38.9773 64.9038 38.8376 64.9783 38.7974 65.1104L39.2757 65.256ZM38.519 66.0253C38.4788 66.1574 38.5533 66.2971 38.6854 66.3373C38.8174 66.3775 38.9571 66.303 38.9973 66.1709L38.519 66.0253ZM38.7189 67.0858C38.7591 66.9537 38.6846 66.814 38.5525 66.7738C38.4204 66.7336 38.2807 66.8081 38.2405 66.9402L38.7189 67.0858ZM37.9621 67.8551C37.9219 67.9872 37.9964 68.1269 38.1285 68.1671C38.2606 68.2073 38.4002 68.1328 38.4404 68.0007L37.9621 67.8551ZM38.162 68.9156C38.2022 68.7835 38.1277 68.6438 37.9956 68.6036C37.8635 68.5634 37.7239 68.6379 37.6837 68.77L38.162 68.9156ZM37.4052 69.6849C37.365 69.817 37.4395 69.9567 37.5716 69.9969C37.7037 70.0371 37.8434 69.9626 37.8836 69.8305L37.4052 69.6849ZM37.6051 70.7454C37.6453 70.6133 37.5709 70.4736 37.4388 70.4334C37.3067 70.3932 37.167 70.4677 37.1268 70.5998L37.6051 70.7454ZM36.8484 71.5147C36.8082 71.6468 36.8827 71.7865 37.0148 71.8267C37.1469 71.8669 37.2865 71.7924 37.3267 71.6603L36.8484 71.5147ZM37.0483 72.5752C37.0885 72.4431 37.014 72.3034 36.8819 72.2632C36.7498 72.223 36.6101 72.2975 36.5699 72.4296L37.0483 72.5752ZM36.2915 73.3445C36.2513 73.4766 36.3258 73.6163 36.4579 73.6565C36.59 73.6967 36.7297 73.6222 36.7699 73.4901L36.2915 73.3445ZM36.4914 74.405C36.5316 74.2729 36.4571 74.1332 36.325 74.093C36.1929 74.0528 36.0533 74.1273 36.0131 74.2594L36.4914 74.405ZM36.6083 75.0397C36.7464 75.0397 36.8583 74.9277 36.8583 74.7897C36.8583 74.6516 36.7464 74.5397 36.6083 74.5397V75.0397ZM37.5989 74.5397C37.4608 74.5397 37.3489 74.6516 37.3489 74.7897C37.3489 74.9277 37.4608 75.0397 37.5989 75.0397V74.5397ZM38.5895 75.0397C38.7276 75.0397 38.8395 74.9277 38.8395 74.7897C38.8395 74.6516 38.7276 74.5397 38.5895 74.5397V75.0397ZM39.5801 74.5397C39.442 74.5397 39.3301 74.6516 39.3301 74.7897C39.3301 74.9277 39.442 75.0397 39.5801 75.0397V74.5397ZM40.5707 75.0397C40.7087 75.0397 40.8207 74.9277 40.8207 74.7897C40.8207 74.6516 40.7087 74.5397 40.5707 74.5397V75.0397ZM41.5612 74.5397C41.4232 74.5397 41.3112 74.6516 41.3112 74.7897C41.3112 74.9277 41.4232 75.0397 41.5612 75.0397V74.5397ZM42.5518 75.0397C42.6899 75.0397 42.8018 74.9277 42.8018 74.7897C42.8018 74.6516 42.6899 74.5397 42.5518 74.5397V75.0397ZM43.5424 74.5397C43.4043 74.5397 43.2924 74.6516 43.2924 74.7897C43.2924 74.9277 43.4043 75.0397 43.5424 75.0397V74.5397ZM44.533 75.0397C44.671 75.0397 44.783 74.9277 44.783 74.7897C44.783 74.6516 44.671 74.5397 44.533 74.5397V75.0397ZM45.5236 74.5397C45.3855 74.5397 45.2736 74.6516 45.2736 74.7897C45.2736 74.9277 45.3855 75.0397 45.5236 75.0397V74.5397ZM46.5141 75.0397C46.6522 75.0397 46.7641 74.9277 46.7641 74.7897C46.7641 74.6516 46.6522 74.5397 46.5141 74.5397V75.0397ZM47.5047 74.5397C47.3666 74.5397 47.2547 74.6516 47.2547 74.7897C47.2547 74.9277 47.3666 75.0397 47.5047 75.0397V74.5397ZM48.4953 75.0397C48.6334 75.0397 48.7453 74.9277 48.7453 74.7897C48.7453 74.6516 48.6334 74.5397 48.4953 74.5397V75.0397ZM49.4859 74.5397C49.3478 74.5397 49.2359 74.6516 49.2359 74.7897C49.2359 74.9277 49.3478 75.0397 49.4859 75.0397V74.5397ZM50.4765 75.0397C50.6145 75.0397 50.7265 74.9277 50.7265 74.7897C50.7265 74.6516 50.6145 74.5397 50.4765 74.5397V75.0397ZM51.467 74.5397C51.329 74.5397 51.217 74.6516 51.217 74.7897C51.217 74.9277 51.329 75.0397 51.467 75.0397V74.5397ZM52.4576 75.0397C52.5957 75.0397 52.7076 74.9277 52.7076 74.7897C52.7076 74.6516 52.5957 74.5397 52.4576 74.5397V75.0397ZM53.4482 74.5397C53.3101 74.5397 53.1982 74.6516 53.1982 74.7897C53.1982 74.9277 53.3101 75.0397 53.4482 75.0397V74.5397ZM54.4388 75.0397C54.5769 75.0397 54.6888 74.9277 54.6888 74.7897C54.6888 74.6516 54.5769 74.5397 54.4388 74.5397V75.0397ZM55.4294 74.5397C55.2913 74.5397 55.1794 74.6516 55.1794 74.7897C55.1794 74.9277 55.2913 75.0397 55.4294 75.0397V74.5397ZM56.4199 75.0397C56.558 75.0397 56.6699 74.9277 56.6699 74.7897C56.6699 74.6516 56.558 74.5397 56.4199 74.5397V75.0397ZM57.4105 74.5397C57.2725 74.5397 57.1605 74.6516 57.1605 74.7897C57.1605 74.9277 57.2725 75.0397 57.4105 75.0397V74.5397ZM58.4011 75.0397C58.5392 75.0397 58.6511 74.9277 58.6511 74.7897C58.6511 74.6516 58.5392 74.5397 58.4011 74.5397V75.0397ZM59.3917 74.5397C59.2536 74.5397 59.1417 74.6516 59.1417 74.7897C59.1417 74.9277 59.2536 75.0397 59.3917 75.0397V74.5397ZM59.9869 74.2594C59.9467 74.1273 59.8071 74.0528 59.675 74.093C59.5429 74.1332 59.4684 74.2729 59.5086 74.405L59.9869 74.2594ZM59.2302 73.4901C59.2704 73.6222 59.41 73.6967 59.5421 73.6565C59.6742 73.6163 59.7487 73.4766 59.7085 73.3445L59.2302 73.4901ZM59.4301 72.4296C59.3899 72.2975 59.2502 72.223 59.1181 72.2632C58.986 72.3034 58.9115 72.4431 58.9517 72.5752L59.4301 72.4296ZM58.6733 71.6603C58.7135 71.7924 58.8532 71.8669 58.9853 71.8267C59.1173 71.7865 59.1918 71.6468 59.1516 71.5147L58.6733 71.6603ZM58.8732 70.5998C58.833 70.4677 58.6933 70.3933 58.5612 70.4335C58.4292 70.4737 58.3547 70.6133 58.3949 70.7454L58.8732 70.5998ZM58.1164 69.8305C58.1566 69.9626 58.2963 70.0371 58.4284 69.9969C58.5605 69.9567 58.635 69.817 58.5948 69.6849L58.1164 69.8305ZM58.3163 68.77C58.2761 68.638 58.1365 68.5635 58.0044 68.6037C57.8723 68.6439 57.7978 68.7835 57.838 68.9156L58.3163 68.77ZM57.5596 68.0007C57.5998 68.1328 57.7394 68.2073 57.8715 68.1671C58.0036 68.1269 58.0781 67.9872 58.0379 67.8551L57.5596 68.0007ZM57.7595 66.9402C57.7193 66.8082 57.5796 66.7337 57.4475 66.7739C57.3154 66.8141 57.2409 66.9537 57.2811 67.0858L57.7595 66.9402ZM57.0027 66.1709C57.0429 66.303 57.1826 66.3775 57.3147 66.3373C57.4468 66.2971 57.5212 66.1574 57.481 66.0253L57.0027 66.1709ZM57.2026 65.1104C57.1624 64.9784 57.0228 64.9039 56.8907 64.9441C56.7586 64.9843 56.6841 65.1239 56.7243 65.256L57.2026 65.1104ZM56.4458 64.3411C56.486 64.4732 56.6257 64.5477 56.7578 64.5075C56.8899 64.4673 56.9644 64.3276 56.9242 64.1956L56.4458 64.3411ZM56.6458 63.2807C56.6056 63.1486 56.4659 63.0741 56.3338 63.1143C56.2017 63.1545 56.1272 63.2941 56.1674 63.4262L56.6458 63.2807ZM55.889 62.5113C55.9292 62.6434 56.0689 62.7179 56.2009 62.6777C56.333 62.6375 56.4075 62.4978 56.3673 62.3658L55.889 62.5113ZM56.0889 61.4509C56.0487 61.3188 55.909 61.2443 55.7769 61.2845C55.6448 61.3247 55.5704 61.4643 55.6106 61.5964L56.0889 61.4509ZM55.3321 60.6815C55.3723 60.8136 55.512 60.8881 55.6441 60.8479C55.7762 60.8077 55.8507 60.668 55.8105 60.536L55.3321 60.6815ZM55.532 59.6211C55.4918 59.489 55.3522 59.4145 55.2201 59.4547C55.088 59.4949 55.0135 59.6345 55.0537 59.7666L55.532 59.6211ZM54.7753 58.8517C54.8155 58.9838 54.9551 59.0583 55.0872 59.0181C55.2193 58.9779 55.2938 58.8383 55.2536 58.7062L54.7753 58.8517ZM54.9752 57.7913C54.935 57.6592 54.7953 57.5847 54.6632 57.6249C54.5311 57.6651 54.4566 57.8047 54.4968 57.9368L54.9752 57.7913ZM54.2184 57.0219C54.2586 57.154 54.3983 57.2285 54.5304 57.1883C54.6624 57.1481 54.7369 57.0085 54.6967 56.8764L54.2184 57.0219ZM54.4183 55.9615C54.3781 55.8294 54.2384 55.7549 54.1063 55.7951C53.9743 55.8353 53.8998 55.975 53.94 56.107L54.4183 55.9615ZM53.6615 55.1921C53.7017 55.3242 53.8414 55.3987 53.9735 55.3585C54.1056 55.3183 54.1801 55.1787 54.1399 55.0466L53.6615 55.1921ZM54.3115 54.6132C54.427 54.5376 54.4594 54.3826 54.3837 54.2671C54.3081 54.1516 54.1532 54.1192 54.0376 54.1949L54.3115 54.6132ZM54.8111 53.6396C54.7025 53.7249 54.6835 53.882 54.7688 53.9906C54.8541 54.0992 55.0112 54.1181 55.1198 54.0329L54.8111 53.6396ZM55.8754 53.3853C55.9763 53.2911 55.9816 53.1329 55.8874 53.032C55.7931 52.9311 55.6349 52.9257 55.534 53.02L55.8754 53.3853ZM56.2013 52.3407C56.1088 52.4433 56.117 52.6013 56.2196 52.6938C56.3221 52.7862 56.4802 52.778 56.5727 52.6755L56.2013 52.3407ZM57.2066 51.9085C57.2899 51.7984 57.2682 51.6416 57.1581 51.5583C57.048 51.475 56.8912 51.4967 56.8079 51.6068L57.2066 51.9085ZM57.3492 50.8235C57.2756 50.9404 57.3108 51.0947 57.4276 51.1683C57.5445 51.2418 57.6988 51.2067 57.7724 51.0898L57.3492 50.8235ZM58.2655 50.2255C58.3287 50.1027 58.2804 49.952 58.1576 49.8888C58.0349 49.8256 57.8841 49.8739 57.821 49.9967L58.2655 50.2255ZM58.2195 49.1322C58.1672 49.26 58.2283 49.406 58.3561 49.4583C58.4839 49.5106 58.6299 49.4494 58.6822 49.3216L58.2195 49.1322ZM59.019 48.3849C59.06 48.2531 58.9864 48.1129 58.8545 48.0719C58.7227 48.0309 58.5826 48.1045 58.5415 48.2364L59.019 48.3849ZM58.7845 47.3162C58.7551 47.4511 58.8406 47.5843 58.9755 47.6137C59.1104 47.6431 59.2436 47.5576 59.273 47.4227L58.7845 47.3162ZM59.4428 46.442C59.4605 46.3051 59.3638 46.1797 59.2268 46.1621C59.0899 46.1445 58.9646 46.2412 58.9469 46.3781L59.4428 46.442ZM59.0279 45.4295C59.0221 45.5674 59.1292 45.684 59.2671 45.6898C59.4051 45.6957 59.5216 45.5886 59.5275 45.4507L59.0279 45.4295ZM59.538 44.953C59.538 44.7843 59.5344 44.6164 59.5272 44.4494L59.0277 44.4708C59.0346 44.6307 59.038 44.7914 59.038 44.953H59.538ZM59.4405 43.4463C59.3968 43.1111 59.3387 42.7804 59.2668 42.4549L58.7786 42.5626C58.8473 42.874 58.9029 43.1903 58.9447 43.511L59.4405 43.4463ZM59.0069 41.4825C58.9055 41.1608 58.7905 40.8452 58.6624 40.5363L58.2006 40.7279C58.323 41.0232 58.4331 41.3251 58.53 41.6327L59.0069 41.4825ZM58.2363 39.6241C58.0807 39.3257 57.9124 39.0351 57.7322 38.7528L57.3108 39.0218C57.4832 39.2919 57.6442 39.57 57.793 39.8553L58.2363 39.6241ZM57.1542 37.9287C56.9495 37.6624 56.7335 37.4052 56.5068 37.158L56.1382 37.4959C56.3552 37.7325 56.5619 37.9785 56.7577 38.2334L57.1542 37.9287ZM55.7951 36.4463C55.5478 36.2196 55.2907 36.0036 55.0243 35.7989L54.7197 36.1954C54.9745 36.3912 55.2206 36.5979 55.4572 36.8148L55.7951 36.4463ZM54.2003 35.2209C53.918 35.0406 53.6273 34.8724 53.329 34.7167L53.0977 35.1601C53.3831 35.3089 53.6612 35.4699 53.9313 35.6423L54.2003 35.2209ZM52.4167 34.2906C52.1079 34.1626 51.7923 34.0475 51.4706 33.9462L51.3204 34.4231C51.628 34.52 51.9298 34.63 52.2252 34.7525L52.4167 34.2906ZM50.4982 33.6863C50.1726 33.6144 49.8419 33.5563 49.5067 33.5125L49.4421 34.0083C49.7627 34.0502 50.0791 34.1058 50.3904 34.1745L50.4982 33.6863ZM48.5037 33.4258C48.3367 33.4187 48.1688 33.415 48.0001 33.415V33.915C48.1617 33.915 48.3224 33.9185 48.4822 33.9254L48.5037 33.4258ZM48.0001 33.415C47.8314 33.415 47.6635 33.4187 47.4965 33.4258L47.518 33.9254C47.6778 33.9185 47.8385 33.915 48.0001 33.915V33.415ZM46.4934 33.5125C46.1583 33.5563 45.8275 33.6144 45.502 33.6863L45.6098 34.1745C45.9211 34.1058 46.2375 34.0502 46.5581 34.0083L46.4934 33.5125ZM44.5296 33.9462C44.2079 34.0475 43.8923 34.1626 43.5834 34.2906L43.775 34.7525C44.0703 34.63 44.3722 34.52 44.6798 34.4231L44.5296 33.9462ZM42.6712 34.7167C42.3729 34.8724 42.0822 35.0406 41.7999 35.2209L42.0689 35.6423C42.339 35.4699 42.6171 35.3089 42.9025 35.1601L42.6712 34.7167ZM40.9758 35.7989C40.7095 36.0036 40.4524 36.2196 40.2051 36.4463L40.543 36.8148C40.7796 36.5979 41.0257 36.3912 41.2805 36.1954L40.9758 35.7989ZM39.4934 37.158C39.2667 37.4052 39.0507 37.6624 38.846 37.9287L39.2425 38.2334C39.4383 37.9785 39.645 37.7325 39.8619 37.4959L39.4934 37.158ZM38.268 38.7528C38.0878 39.0351 37.9195 39.3257 37.7639 39.6241L38.2072 39.8553C38.356 39.57 38.517 39.2919 38.6894 39.0218L38.268 38.7528ZM37.3378 40.5363C37.2097 40.8452 37.0946 41.1608 36.9933 41.4825L37.4702 41.6327C37.5671 41.3251 37.6771 41.0232 37.7996 40.7279L37.3378 40.5363ZM36.7334 42.4549C36.6615 42.7804 36.6034 43.1111 36.5597 43.4463L37.0555 43.511C37.0973 43.1903 37.1529 42.874 37.2216 42.5626L36.7334 42.4549ZM36.473 44.4494C36.4658 44.6164 36.4622 44.7843 36.4622 44.953H36.9622C36.9622 44.7914 36.9656 44.6307 36.9725 44.4708L36.473 44.4494ZM36.4622 44.953C36.4622 45.1197 36.4657 45.2856 36.4727 45.4507L36.9723 45.4294C36.9655 45.2715 36.9622 45.1126 36.9622 44.953H36.4622ZM36.5574 46.442C36.6001 46.7735 36.6569 47.1006 36.7271 47.4227L37.2157 47.3161C37.1485 47.0081 37.0941 46.6952 37.0533 46.3781L36.5574 46.442ZM36.9812 48.3849C37.0803 48.7032 37.1927 49.0157 37.318 49.3216L37.7807 49.1321C37.6609 48.8396 37.5534 48.5408 37.4586 48.2363L36.9812 48.3849ZM37.7346 50.2254C37.8868 50.5212 38.0514 50.8095 38.2278 51.0897L38.651 50.8234C38.4823 50.5554 38.3248 50.2795 38.1792 49.9966L37.7346 50.2254ZM38.7935 51.9084C38.9939 52.1732 39.2054 52.4291 39.4274 52.6754L39.7988 52.3406C39.5864 52.1049 39.384 51.8601 39.1923 51.6067L38.7935 51.9084ZM40.1247 53.3852C40.367 53.6116 40.6191 53.8277 40.8802 54.0328L41.189 53.6395C40.9391 53.4433 40.6979 53.2365 40.466 53.0199L40.1247 53.3852ZM41.6885 54.6131C41.8272 54.7039 41.968 54.7918 42.1107 54.8767L42.3663 54.4469C42.2298 54.3657 42.0951 54.2816 41.9624 54.1948L41.6885 54.6131ZM41.9994 54.589L41.8601 55.0465L42.3385 55.192L42.4777 54.7346L41.9994 54.589ZM41.5817 55.9614L41.3033 56.8763L41.7816 57.0219L42.0601 56.107L41.5817 55.9614ZM41.0249 57.7912L40.7464 58.7061L41.2248 58.8517L41.5032 57.9368L41.0249 57.7912ZM40.468 59.621L40.1896 60.5359L40.6679 60.6815L40.9463 59.7666L40.468 59.621ZM39.9111 61.4508L39.6327 62.3657L40.111 62.5113L40.3895 61.5964L39.9111 61.4508ZM39.3543 63.2806L39.0758 64.1955L39.5542 64.3411L39.8326 63.4262L39.3543 63.2806ZM38.7974 65.1104L38.519 66.0253L38.9973 66.1709L39.2757 65.256L38.7974 65.1104ZM38.2405 66.9402L37.9621 67.8551L38.4404 68.0007L38.7189 67.0858L38.2405 66.9402ZM37.6837 68.77L37.4052 69.6849L37.8836 69.8305L38.162 68.9156L37.6837 68.77ZM37.1268 70.5998L36.8484 71.5147L37.3267 71.6603L37.6051 70.7454L37.1268 70.5998ZM36.5699 72.4296L36.2915 73.3445L36.7699 73.4901L37.0483 72.5752L36.5699 72.4296ZM36.0131 74.2594L35.8739 74.7169L36.3522 74.8624L36.4914 74.405L36.0131 74.2594ZM36.113 75.0397H36.6083V74.5397H36.113V75.0397ZM37.5989 75.0397H38.5895V74.5397H37.5989V75.0397ZM39.5801 75.0397H40.5707V74.5397H39.5801V75.0397ZM41.5612 75.0397H42.5518V74.5397H41.5612V75.0397ZM43.5424 75.0397H44.533V74.5397H43.5424V75.0397ZM45.5236 75.0397H46.5141V74.5397H45.5236V75.0397ZM47.5047 75.0397H48.4953V74.5397H47.5047V75.0397ZM49.4859 75.0397H50.4765V74.5397H49.4859V75.0397ZM51.467 75.0397H52.4576V74.5397H51.467V75.0397ZM53.4482 75.0397H54.4388V74.5397H53.4482V75.0397ZM55.4294 75.0397H56.4199V74.5397H55.4294V75.0397ZM57.4105 75.0397H58.4011V74.5397H57.4105V75.0397ZM59.3917 75.0397H59.887V74.5397H59.3917V75.0397ZM60.1261 74.7169L59.9869 74.2594L59.5086 74.405L59.6478 74.8624L60.1261 74.7169ZM59.7085 73.3445L59.4301 72.4296L58.9517 72.5752L59.2302 73.4901L59.7085 73.3445ZM59.1516 71.5147L58.8732 70.5998L58.3949 70.7454L58.6733 71.6603L59.1516 71.5147ZM58.5948 69.6849L58.3163 68.77L57.838 68.9156L58.1164 69.8305L58.5948 69.6849ZM58.0379 67.8551L57.7595 66.9402L57.2811 67.0858L57.5596 68.0007L58.0379 67.8551ZM57.481 66.0253L57.2026 65.1104L56.7243 65.256L57.0027 66.1709L57.481 66.0253ZM56.9242 64.1956L56.6458 63.2807L56.1674 63.4262L56.4458 64.3411L56.9242 64.1956ZM56.3673 62.3658L56.0889 61.4509L55.6106 61.5964L55.889 62.5113L56.3673 62.3658ZM55.8105 60.536L55.532 59.6211L55.0537 59.7666L55.3321 60.6815L55.8105 60.536ZM55.2536 58.7062L54.9752 57.7913L54.4968 57.9368L54.7753 58.8517L55.2536 58.7062ZM54.6967 56.8764L54.4183 55.9615L53.94 56.107L54.2184 57.0219L54.6967 56.8764ZM54.1399 55.0466L54.0007 54.5891L53.5223 54.7347L53.6615 55.1921L54.1399 55.0466ZM53.8893 54.8768C54.032 54.7919 54.1728 54.704 54.3115 54.6132L54.0376 54.1949C53.905 54.2817 53.7703 54.3658 53.6337 54.447L53.8893 54.8768ZM55.1198 54.0329C55.381 53.8278 55.6331 53.6117 55.8754 53.3853L55.534 53.02C55.3022 53.2366 55.0609 53.4434 54.8111 53.6396L55.1198 54.0329ZM56.5727 52.6755C56.7947 52.4292 57.0062 52.1733 57.2066 51.9085L56.8079 51.6068C56.6161 51.8602 56.4137 52.105 56.2013 52.3407L56.5727 52.6755ZM57.7724 51.0898C57.9487 50.8096 58.1133 50.5213 58.2655 50.2255L57.821 49.9967C57.6754 50.2796 57.5179 50.5554 57.3492 50.8235L57.7724 51.0898ZM58.6822 49.3216C58.8074 49.0157 58.9199 48.7033 59.019 48.3849L58.5415 48.2364C58.4468 48.5408 58.3392 48.8397 58.2195 49.1322L58.6822 49.3216ZM59.273 47.4227C59.3433 47.1006 59.4001 46.7735 59.4428 46.442L58.9469 46.3781C58.906 46.6952 58.8517 47.0081 58.7845 47.3162L59.273 47.4227ZM59.5275 45.4507C59.5345 45.2856 59.538 45.1197 59.538 44.953H59.038C59.038 45.1126 59.0346 45.2715 59.0279 45.4295L59.5275 45.4507Z" fill="url(#paint0_linear_4498_3479)"/>
</g>
<path d="M64.6255 60.9756C66.7474 58.8206 68.4505 56.2658 69.6143 53.4602C70.7781 50.6547 71.3876 47.6594 71.3876 44.5963C71.3876 41.5332 70.7806 38.5041 69.6143 35.7324C68.448 32.9607 66.7474 30.372 64.6255 28.2171C60.3841 23.9206 54.5025 21.21 47.9987 21.21C41.495 21.21 35.6158 23.8935 31.3744 28.2103C29.25 30.372 27.5494 32.9269 26.3856 35.7324C25.2218 38.5379 24.6123 41.5332 24.6123 44.5963C24.6123 47.6594 25.2193 50.6886 26.3856 53.4602C27.5519 56.2319 29.25 58.8206 31.3744 60.9756" stroke="url(#paint1_linear_4498_3479)" stroke-width="0.25" stroke-dasharray="0.5 0.5"/>
<path d="M48.0001 84.86C68.3571 84.86 84.8598 68.3574 84.8598 48.0003C84.8598 27.6433 68.3571 11.1406 48.0001 11.1406C27.643 11.1406 11.1404 27.6433 11.1404 48.0003C11.1404 68.3574 27.643 84.86 48.0001 84.86Z" stroke="url(#paint2_linear_4498_3479)" stroke-width="0.5" stroke-miterlimit="10"/>
<defs>
<filter id="filter0_d_4498_3479" x="30.7756" y="28.415" width="34.4487" height="51.625" filterUnits="userSpaceOnUse" color-interpolation-filters="sRGB">
<feFlood flood-opacity="0" result="BackgroundImageFix"/>
<feColorMatrix in="SourceAlpha" type="matrix" values="0 0 0 0 0 0 0 0 0 0 0 0 0 0 0 0 0 0 127 0" result="hardAlpha"/>
<feOffset/>
<feGaussianBlur stdDeviation="2.5"/>
<feComposite in2="hardAlpha" operator="out"/>
<feColorMatrix type="matrix" values="0 0 0 0 0 0 0 0 0 1 0 0 0 0 0.7 0 0 0 1 0"/>
<feBlend mode="normal" in2="BackgroundImageFix" result="effect1_dropShadow_4498_3479"/>
<feBlend mode="normal" in="SourceGraphic" in2="effect1_dropShadow_4498_3479" result="shape"/>
</filter>
<linearGradient id="paint0_linear_4498_3479" x1="48" y1="18.9287" x2="48" y2="74.7897" gradientUnits="userSpaceOnUse">
<stop offset="0.170133" stop-color="#53FDA9" stop-opacity="0"/>
<stop offset="1" stop-color="#53FDA9"/>
</linearGradient>
<linearGradient id="paint1_linear_4498_3479" x1="47.2931" y1="68.2219" x2="49.0551" y2="24.8718" gradientUnits="userSpaceOnUse">
<stop stop-color="white"/>
<stop offset="1" stop-color="white" stop-opacity="0"/>
</linearGradient>
<linearGradient id="paint2_linear_4498_3479" x1="48.0031" y1="11.1406" x2="49.5902" y2="82.3196" gradientUnits="userSpaceOnUse">
<stop stop-color="#632BFF"/>
<stop offset="1" stop-color="#632BFF" stop-opacity="0"/>
</linearGradient>
</defs>
</svg>
