<svg width="96" height="96" viewBox="0 0 96 96" fill="none" xmlns="http://www.w3.org/2000/svg">
<g clip-path="url(#clip0_4919_1980)">
<path fill-rule="evenodd" clip-rule="evenodd" d="M51.6569 45.5553L69.8187 27.3935L68.6066 26.1813L50.4367 44.3511L60.27 20.6097L58.6862 19.9538L48.8547 43.6906V18H47.1405V43.6906L37.309 19.9538L35.7252 20.6097L45.5553 44.3429L27.3935 26.1813L26.1813 27.3935L44.3429 45.5551L20.6097 35.7252L19.9538 37.309L43.6906 47.1405H18V48.8547H43.6906L19.9538 58.6862L20.6097 60.27L44.3511 50.4367L26.1813 68.6066L27.3935 69.8187L45.5553 51.6569L35.7252 75.3903L37.309 76.0462L47.1405 52.3094V78H48.8547V52.3094L58.6862 76.0462L60.27 75.3903L50.4367 51.6489L68.6066 69.8187L69.8187 68.6066L51.6489 50.4367L75.3903 60.27L76.0462 58.6862L52.3094 48.8547H78V47.1405H52.3094L76.0462 37.309L75.3903 35.7252L51.6569 45.5553Z" fill="url(#paint0_radial_4919_1980)"/>
<path d="M48.3344 86.3344C53.2846 86.2758 58.2167 85.2698 62.8186 83.3508C67.4205 81.4318 71.604 78.6534 75.1637 75.0937C78.7235 71.534 81.5441 67.314 83.4208 62.7486C85.2976 58.1832 86.3459 53.2146 86.4044 48.2644C86.5087 38.3825 82.8793 28.4528 75.3828 20.9563C67.8863 13.4598 57.9909 9.80178 48.0855 9.92967C43.1245 9.99321 38.1953 11.0021 33.5934 12.9211C28.9915 14.8401 24.808 17.6185 21.2483 21.1782C17.6886 24.7379 14.8679 28.9579 12.9911 33.5233C11.1144 38.0888 10.0632 43.0544 10.0076 48.0076" stroke="url(#paint1_linear_4919_1980)" stroke-width="0.25" stroke-dasharray="0.5 1"/>
<path d="M74.9254 73.5814C74.8531 73.7361 74.7664 73.8782 74.6653 74.0075L74.5669 73.9305C74.5184 73.9924 74.4665 74.0511 74.411 74.1066C74.3555 74.1622 74.2967 74.2141 74.2348 74.2626L74.3118 74.361C74.1826 74.4621 74.0404 74.5487 73.8857 74.6211L73.8327 74.5079C73.6943 74.5727 73.5445 74.6258 73.3834 74.6673L73.4145 74.7884C73.2595 74.8283 73.0953 74.8575 72.9223 74.8764L72.9088 74.7521C72.7546 74.7689 72.5925 74.7773 72.4227 74.7771L72.4226 74.9021C72.2616 74.902 72.0943 74.8944 71.921 74.8795L71.9317 74.755C71.7726 74.7413 71.6079 74.7213 71.4378 74.695L71.4187 74.8186C71.2597 74.794 71.0963 74.7641 70.9287 74.7288L70.9544 74.6065C70.798 74.5737 70.6378 74.5361 70.4738 74.4939L70.4426 74.615C70.283 74.574 70.12 74.5286 69.9537 74.479L69.9894 74.3592C69.8359 74.3134 69.6794 74.264 69.52 74.2108L69.4805 74.3294C69.3248 74.2775 69.1665 74.2222 69.0055 74.1635L69.0484 74.046C68.8953 73.9902 68.7399 73.9312 68.582 73.8692L68.5363 73.9856C68.3839 73.9257 68.2294 73.8629 68.0728 73.7974L68.1211 73.6821C67.9696 73.6187 67.816 73.5527 67.6606 73.484L67.6101 73.5984C67.4602 73.5322 67.3085 73.4635 67.155 73.3925L67.2075 73.2791C67.0582 73.2099 66.9071 73.1385 66.7545 73.0648L66.7001 73.1774C66.5519 73.1059 66.4021 73.0322 66.2508 72.9564L66.3068 72.8447C66.1598 72.7711 66.0115 72.6955 65.8617 72.6179L65.8042 72.7289C65.6569 72.6526 65.5082 72.5744 65.3583 72.4943L65.4172 72.3841C65.2728 72.307 65.1272 72.2281 64.9804 72.1475L64.9202 72.2571C64.7733 72.1764 64.6252 72.094 64.4759 72.0099L64.5373 71.901C64.3954 71.821 64.2525 71.7396 64.1085 71.6565L64.0461 71.7648C63.9018 71.6815 63.7565 71.5968 63.6102 71.5105L63.6737 71.4028C63.5316 71.319 63.3886 71.2338 63.2447 71.1471L63.1802 71.2542C63.0387 71.169 62.8963 71.0824 62.7531 70.9945L62.8185 70.888C62.6757 70.8003 62.5321 70.7113 62.3876 70.621L62.3213 70.7269C62.1824 70.6401 62.0428 70.552 61.9024 70.4627L61.9695 70.3572C61.8293 70.2681 61.6884 70.1777 61.5468 70.0862L61.4789 70.1911C61.339 70.1007 61.1984 70.009 61.057 69.9162L61.1257 69.8117C60.9882 69.7214 60.85 69.63 60.7112 69.5375L60.6418 69.6415C60.5028 69.5488 60.3631 69.455 60.2227 69.3601L60.2927 69.2566C60.1555 69.1638 60.0177 69.07 59.8793 68.9752L59.8087 69.0783C59.6722 68.9848 59.5352 68.8903 59.3977 68.7949L59.469 68.6922C59.3316 68.5968 59.1937 68.5005 59.0552 68.4032L58.9833 68.5054C58.8479 68.4102 58.7119 68.314 58.5754 68.217L58.6478 68.1151C58.513 68.0192 58.3777 67.9224 58.2419 67.8246L58.1689 67.9261C58.0329 67.8282 57.8964 67.7295 57.7595 67.6298L57.833 67.5287C57.6993 67.4314 57.565 67.3331 57.4304 67.2341L57.3563 67.3348C57.2228 67.2365 57.0888 67.1374 56.9544 67.0375L57.029 66.9372C56.8948 66.8375 56.7601 66.7369 56.6251 66.6354L56.55 66.7354C56.4172 66.6356 56.2841 66.5351 56.1505 66.4338L56.2261 66.3342C56.0942 66.2342 55.9619 66.1334 55.8293 66.0318L55.7533 66.131C55.6206 66.0294 55.4874 65.9269 55.354 65.8237L55.4304 65.7248C55.2987 65.623 55.1666 65.5204 55.0341 65.4171L54.9573 65.5156C54.8267 65.4138 54.6959 65.3112 54.5647 65.208L54.642 65.1098C54.511 65.0066 54.3797 64.9028 54.2481 64.7982L54.1703 64.8961C54.0391 64.7919 53.9076 64.6871 53.7758 64.5815L53.854 64.4839C53.7251 64.3807 53.5959 64.2768 53.4664 64.1722L53.3879 64.2695C53.2583 64.1648 53.1285 64.0595 52.9984 63.9535L53.0773 63.8566C52.9473 63.7508 52.8171 63.6443 52.6866 63.5372L52.6073 63.6338C52.4792 63.5286 52.3508 63.4228 52.2222 63.3164L52.3019 63.2201C52.174 63.1142 52.0458 63.0078 51.9175 62.9008L51.8374 62.9968C51.7089 62.8896 51.5802 62.7819 51.4513 62.6735L51.5317 62.5778C51.404 62.4705 51.276 62.3626 51.1479 62.2541L51.0671 62.3495C50.9406 62.2424 50.8138 62.1347 50.6869 62.0265L50.768 61.9313C50.6412 61.8232 50.5142 61.7145 50.387 61.6052L50.3056 61.7C50.1783 61.5907 50.0508 61.4808 49.9232 61.3703L50.005 61.2758C49.8797 61.1674 49.7542 61.0584 49.6286 60.949L49.5465 61.0432C49.4211 60.9339 49.2955 60.8241 49.1698 60.7138L49.2522 60.6198C49.1266 60.5096 49.0008 60.3988 48.8749 60.2876L48.7922 60.3812C48.6669 60.2705 48.5414 60.1593 48.4158 60.0475L48.4989 59.9541C48.3751 59.8439 48.2511 59.7333 48.127 59.6221L48.0436 59.7152C47.9194 59.6039 47.795 59.4922 47.6706 59.3799L47.7543 59.2871C47.6299 59.175 47.5055 59.0624 47.3809 58.9493L47.2969 59.0418C47.1736 58.9299 47.0502 58.8176 46.9267 58.7047L47.0111 58.6125C46.8884 58.5004 46.7656 58.3878 46.6428 58.2748L46.5582 58.3668C46.4352 58.2538 46.3122 58.1402 46.189 58.0263L46.274 57.9345C46.1509 57.8207 46.0278 57.7063 45.9046 57.5916L45.8194 57.683C45.698 57.5699 45.5764 57.4563 45.4548 57.3423L45.5403 57.2511C45.4189 57.1373 45.2974 57.023 45.1759 56.9084L45.0901 56.9993C44.9685 56.8845 44.8468 56.7693 44.725 56.6537L44.8111 56.5631C44.6897 56.4479 44.5683 56.3323 44.4469 56.2163L44.3605 56.3066C44.2404 56.1919 44.1202 56.0767 44 55.9612L44.0866 55.8711C43.9665 55.7556 43.8464 55.6397 43.7262 55.5235L43.6392 55.6133C43.519 55.497 43.3986 55.3802 43.2783 55.2631L43.3654 55.1735C43.2457 55.0571 43.126 54.9402 43.0063 54.823L42.9188 54.9123C42.8 54.7959 42.6811 54.6792 42.5622 54.5621L42.6499 54.473C42.5311 54.356 42.4123 54.2386 42.2935 54.1209L42.2055 54.2096C42.0866 54.0918 41.9677 53.9736 41.8487 53.855L41.937 53.7665L41.7587 53.5885L41.5807 53.4102L41.4922 53.4985C41.3736 53.3795 41.2554 53.2606 41.1375 53.1417L41.2263 53.0537C41.1086 52.9349 40.9912 52.816 40.8742 52.6972L40.7851 52.785C40.668 52.6661 40.5513 52.5472 40.4349 52.4284L40.5242 52.3409C40.407 52.2212 40.2901 52.1014 40.1737 51.9817L40.0841 52.0689C39.967 51.9486 39.8502 51.8282 39.7339 51.7079L39.8237 51.621C39.7075 51.5008 39.5916 51.3807 39.4761 51.2605L39.386 51.3472C39.2705 51.2269 39.1553 51.1068 39.0405 50.9866L39.1309 50.9003C39.0149 50.7789 38.8993 50.6575 38.7841 50.5361L38.6935 50.6222C38.5779 50.5004 38.4627 50.3787 38.3479 50.2571L38.4388 50.1713C38.3242 50.0498 38.2099 49.9283 38.0961 49.8069L38.0049 49.8923C37.8909 49.7708 37.7773 49.6492 37.6642 49.5278L37.7556 49.4426C37.6409 49.3194 37.5265 49.1963 37.4127 49.0732L37.3209 49.1581C37.2069 49.035 37.0934 48.912 36.9803 48.789L37.0723 48.7044C36.9594 48.5816 36.8468 48.4588 36.7347 48.3361L36.6425 48.4204C36.5296 48.297 36.4173 48.1736 36.3054 48.0503L36.3979 47.9663C36.2848 47.8417 36.1722 47.7173 36.0601 47.5929L35.9672 47.6766C35.855 47.5522 35.7433 47.4278 35.632 47.3036L35.7251 47.2202C35.6139 47.0961 35.5032 46.9721 35.393 46.8483L35.2997 46.9313C35.1879 46.8058 35.0767 46.6803 34.966 46.555L35.0596 46.4722C34.9484 46.3463 34.8376 46.2206 34.7274 46.095L34.6334 46.1774C34.5231 46.0517 34.4133 45.9261 34.304 45.8007L34.3982 45.7186C34.2888 45.593 34.1798 45.4675 34.0714 45.3422L33.9769 45.424C33.8664 45.2964 33.7565 45.1689 33.6472 45.0416L33.742 44.9602C33.6327 44.833 33.524 44.706 33.4158 44.5792L33.3207 44.6603C33.2125 44.5333 33.1048 44.4066 32.9976 44.2801L33.0931 44.1993C32.9846 44.0712 32.8767 43.9432 32.7693 43.8155L32.6736 43.8959C32.5653 43.767 32.4576 43.6383 32.3504 43.5098L32.4464 43.4297C32.3394 43.3014 32.2329 43.1732 32.1271 43.0453L32.0308 43.125C31.9244 42.9964 31.8186 42.868 31.7134 42.7399L31.81 42.6606C31.7029 42.5301 31.5964 42.3999 31.4906 42.2699L31.3936 42.3488C31.2877 42.2187 31.1824 42.0889 31.0777 41.9593L31.175 41.8807C31.0704 41.7513 30.9665 41.6221 30.8633 41.4932L30.7657 41.5714C30.6601 41.4396 30.5553 41.3081 30.4511 41.1768L30.5489 41.0991C30.4444 40.9675 30.3406 40.8362 30.2374 40.7051L30.1392 40.7825C30.036 40.6513 29.9334 40.5205 29.8316 40.3899L29.9301 40.313C29.8268 40.1806 29.7242 40.0485 29.6223 39.9168L29.5235 39.9932C29.4203 39.8598 29.3178 39.7266 29.2161 39.5939L29.3154 39.5179C29.2138 39.3853 29.113 39.253 29.013 39.1211L28.9134 39.1967C28.8121 39.0631 28.7116 38.9299 28.6118 38.7971L28.7118 38.7221C28.6103 38.587 28.5097 38.4524 28.41 38.3182L28.3096 38.3928C28.2097 38.2584 28.1107 38.1244 28.0124 37.9909L28.1131 37.9168C28.014 37.7822 27.9158 37.6479 27.8185 37.5142L27.7174 37.5877C27.6177 37.4508 27.519 37.3143 27.4211 37.1783L27.5226 37.1053C27.4248 36.9695 27.328 36.8342 27.2321 36.6993L27.1302 36.7718C27.0331 36.6353 26.937 36.4993 26.8418 36.3639L26.944 36.292C26.8467 36.1535 26.7504 36.0156 26.655 35.8782L26.5523 35.9495C26.4568 35.812 26.3624 35.6749 26.2689 35.5385L26.372 35.4679C26.2771 35.3295 26.1833 35.1916 26.0906 35.0544L25.987 35.1244C25.8922 34.9841 25.7984 34.8444 25.7057 34.7054L25.8097 34.636C25.7172 34.4972 25.6258 34.359 25.5355 34.2215L25.431 34.2902C25.3382 34.1488 25.2465 34.0082 25.1561 33.8683L25.261 33.8004C25.1694 33.6587 25.0791 33.5178 24.9899 33.3777L24.8845 33.4448C24.7952 33.3044 24.7071 33.1648 24.6202 33.0259L24.7262 32.9596C24.6359 32.8151 24.5469 32.6715 24.4592 32.5287L24.3527 32.5941C24.2648 32.4509 24.1782 32.3085 24.093 32.167L24.2001 32.1025C24.1134 31.9586 24.0282 31.8156 23.9444 31.6735L23.8367 31.737C23.7504 31.5907 23.6656 31.4454 23.5824 31.3011L23.6907 31.2386C23.6076 31.0947 23.5261 30.9518 23.4462 30.8099L23.3373 30.8713C23.2532 30.722 23.1708 30.5739 23.0901 30.427L23.1997 30.3668C23.1191 30.22 23.0402 30.0744 22.9631 29.93L22.8529 29.9889C22.7728 29.8389 22.6946 29.6903 22.6183 29.543L22.7293 29.4855C22.6517 29.3357 22.5761 29.1874 22.5025 29.0404L22.3908 29.0964C22.315 28.9451 22.2413 28.7953 22.1698 28.6471L22.2824 28.5927C22.2087 28.44 22.1373 28.289 22.0681 28.1396L21.9547 28.1921C21.8837 28.0387 21.815 27.887 21.7488 27.7371L21.8632 27.6866C21.7945 27.5311 21.7285 27.3776 21.6651 27.2261L21.5498 27.2744C21.4842 27.1178 21.4215 26.9633 21.3616 26.8109L21.478 26.7652C21.416 26.6073 21.357 26.4519 21.3012 26.2988L21.1837 26.3416C21.125 26.1807 21.0697 26.0224 21.0178 25.8667L21.1364 25.8272C21.0832 25.6678 21.0338 25.5113 20.988 25.3578L20.8682 25.3935C20.8186 25.2272 20.7732 25.0641 20.7322 24.9046L20.8533 24.8734C20.8111 24.7094 20.7735 24.5491 20.7407 24.3928L20.6184 24.4185C20.5831 24.2509 20.5532 24.0875 20.5286 23.9285L20.6522 23.9094C20.6259 23.7393 20.6059 23.5746 20.5922 23.4155L20.4677 23.4262C20.4528 23.2528 20.4452 23.0856 20.4451 22.9246L20.5701 22.9245C20.5699 22.7547 20.5783 22.5926 20.5951 22.4384L20.4708 22.4249C20.4897 22.2518 20.519 22.0877 20.5588 21.9326L20.6799 21.9638C20.7214 21.8027 20.7745 21.6529 20.8393 21.5144L20.7261 21.4614C20.7985 21.3068 20.8851 21.1646 20.9862 21.0354L21.0847 21.1124C21.1331 21.0505 21.1851 20.9917 21.2406 20.9362C21.2961 20.8807 21.3548 20.8288 21.4167 20.7803L21.3397 20.6818C21.469 20.5807 21.6112 20.4941 21.7658 20.4218L21.8188 20.535C21.9573 20.4702 22.1071 20.417 22.2681 20.3756L22.237 20.2545C22.392 20.2146 22.5562 20.1853 22.7292 20.1665L22.7428 20.2907C22.897 20.2739 23.059 20.2656 23.2288 20.2657L23.2289 20.1407C23.3899 20.1409 23.5572 20.1484 23.7305 20.1633L23.7198 20.2879C23.879 20.3016 24.0437 20.3216 24.2138 20.3478L24.2328 20.2243C24.3919 20.2489 24.5552 20.2788 24.7229 20.314L24.6972 20.4364C24.8535 20.4692 25.0137 20.5067 25.1778 20.5489L25.2089 20.4279C25.3685 20.4689 25.5315 20.5142 25.6979 20.5639L25.6621 20.6836C25.8157 20.7294 25.9721 20.7789 26.1315 20.832L26.1711 20.7135C26.3267 20.7653 26.4851 20.8207 26.646 20.8794L26.6031 20.9968C26.7562 21.0527 26.9117 21.1116 27.0695 21.1736L27.1152 21.0573C27.2676 21.1172 27.4221 21.1799 27.5787 21.2454L27.5305 21.3607C27.682 21.4241 27.8355 21.4902 27.991 21.5588L28.0415 21.4445C28.1914 21.5107 28.3431 21.5793 28.4965 21.6503L28.444 21.7638C28.5934 21.8329 28.7444 21.9043 28.8971 21.978L28.9514 21.8654C29.0997 21.937 29.2495 22.0107 29.4008 22.0864L29.3448 22.1982C29.4917 22.2718 29.6401 22.3474 29.7898 22.4249L29.8473 22.3139C29.9946 22.3903 30.1433 22.4685 30.2932 22.5485L30.2343 22.6588C30.3788 22.7359 30.5244 22.8148 30.6712 22.8954L30.7313 22.7858C30.8783 22.8665 31.0264 22.9489 31.1756 23.033L31.1143 23.1419C31.2561 23.2218 31.3991 23.3033 31.543 23.3863L31.6055 23.2781C31.7498 23.3613 31.8951 23.4461 32.0414 23.5324L31.9779 23.64C32.1199 23.7238 32.2629 23.8091 32.4068 23.8957L32.4713 23.7886C32.6128 23.8738 32.7552 23.9604 32.8985 24.0484L32.8331 24.1549C32.9758 24.2425 33.1195 24.3315 33.264 24.4219L33.3302 24.3159C33.4691 24.4028 33.6088 24.4908 33.7492 24.5801L33.6821 24.6856C33.8222 24.7747 33.9631 24.8651 34.1047 24.9567L34.1726 24.8517C34.3125 24.9422 34.4532 25.0339 34.5945 25.1267L34.5259 25.2312C34.6634 25.3215 34.8016 25.4129 34.9404 25.5054L35.0097 25.4014C35.1488 25.4941 35.2885 25.5878 35.4288 25.6827L35.3588 25.7863C35.496 25.879 35.6338 25.9728 35.7722 26.0677L35.8429 25.9645C35.9793 26.058 36.1163 26.1525 36.2539 26.248L36.1826 26.3507C36.32 26.446 36.4579 26.5424 36.5963 26.6397L36.6682 26.5374C36.8037 26.6326 36.9397 26.7288 37.0762 26.8259L37.0037 26.9278C37.1385 27.0237 37.2738 27.1205 37.4097 27.2182L37.4827 27.1168C37.6187 27.2146 37.7551 27.3134 37.8921 27.4131L37.8185 27.5141C37.9523 27.6115 38.0865 27.7097 38.2212 27.8088L38.2953 27.7081C38.4288 27.8063 38.5628 27.9054 38.6971 28.0053L38.6226 28.1056C38.7568 28.2054 38.8914 28.306 39.0264 28.4074L39.1015 28.3075C39.2343 28.4072 39.3675 28.5078 39.501 28.6091L39.4255 28.7087C39.5574 28.8087 39.6896 28.9095 39.8222 29.0111L39.8982 28.9118C40.031 29.0135 40.1641 29.1159 40.2976 29.2191L40.2211 29.318C40.3529 29.4199 40.485 29.5225 40.6174 29.6258L40.6943 29.5272C40.8248 29.6291 40.9557 29.7316 41.0868 29.8349L41.0095 29.9331C41.1405 30.0362 41.2718 30.1401 41.4035 30.2446L41.4812 30.1467C41.6124 30.2509 41.7439 30.3558 41.8757 30.4614L41.7976 30.5589C41.9265 30.6622 42.0557 30.7661 42.1851 30.8706L42.2636 30.7734C42.3932 30.8781 42.5231 30.9834 42.6532 31.0893L42.5742 31.1862C42.7042 31.2921 42.8345 31.3986 42.9649 31.5057L43.0443 31.4091C43.1724 31.5143 43.3007 31.6201 43.4293 31.7265L43.3496 31.8228C43.4776 31.9286 43.6057 32.0351 43.7341 32.1421L43.8141 32.0461C43.9426 32.1532 44.0713 32.261 44.2003 32.3693L44.1199 32.465C44.2476 32.5723 44.3755 32.6802 44.5036 32.7887L44.5844 32.6933C44.711 32.8005 44.8377 32.9081 44.9646 33.0164L44.8835 33.1115C45.0103 33.2197 45.1373 33.3284 45.2645 33.4376L45.346 33.3428C45.4733 33.4522 45.6007 33.5621 45.7284 33.6726L45.6466 33.7671C45.7719 33.8755 45.8973 33.9844 46.0229 34.0939L46.105 33.9996C46.2305 34.1089 46.356 34.2188 46.4818 34.3291L46.3993 34.423C46.5249 34.5333 46.6507 34.644 46.7766 34.7553L46.8594 34.6616C46.9847 34.7724 47.1101 34.8836 47.2357 34.9953L47.1526 35.0887C47.2765 35.1989 47.4005 35.3096 47.5246 35.4208L47.608 35.3277C47.7322 35.4389 47.8565 35.5507 47.981 35.6629L47.8973 35.7557C48.0216 35.8679 48.1461 35.9805 48.2707 36.0936L48.3547 36.001C48.4779 36.1129 48.6013 36.2253 48.7248 36.3381L48.6405 36.4304C48.7631 36.5425 48.8859 36.655 49.0088 36.768L49.0934 36.676C49.2163 36.7891 49.3394 36.9026 49.4625 37.0166L49.3776 37.1083C49.5006 37.2222 49.6237 37.3365 49.7469 37.4513L49.8321 37.3598C49.9536 37.473 50.0751 37.5866 50.1967 37.7006L50.1112 37.7917C50.2326 37.9056 50.3541 38.0198 50.4757 38.1345L50.5614 38.0436C50.6831 38.1583 50.8048 38.2735 50.9265 38.3891L50.8405 38.4798C50.9618 38.595 51.0832 38.7106 51.2046 38.8266L51.291 38.7362C51.4111 38.851 51.5313 38.9661 51.6515 39.0817L51.5649 39.1718C51.685 39.2873 51.8052 39.4031 51.9254 39.5194L52.0123 39.4295C52.1326 39.5459 52.2529 39.6626 52.3733 39.7797L52.2861 39.8693C52.4058 39.9858 52.5255 40.1027 52.6453 40.2199L52.7327 40.1306C52.8516 40.2469 52.9704 40.3637 53.0893 40.4808L53.0016 40.5698C53.1204 40.6869 53.2392 40.8042 53.358 40.922L53.446 40.8332C53.565 40.9511 53.6839 41.0693 53.8028 41.1878L53.7146 41.2764L53.8928 41.4544L54.0708 41.6327L54.1594 41.5444C54.2779 41.6633 54.3962 41.7823 54.514 41.9012L54.4252 41.9892C54.543 42.108 54.6604 42.2268 54.7774 42.3456L54.8664 42.2579C54.9835 42.3768 55.1003 42.4957 55.2166 42.6145L55.1273 42.702C55.2446 42.8217 55.3614 42.9414 55.4779 43.0611L55.5675 42.9739C55.6846 43.0943 55.8013 43.2146 55.9177 43.3349L55.8278 43.4218C55.9441 43.542 56.0599 43.6622 56.1754 43.7823L56.2655 43.6957C56.3811 43.8159 56.4962 43.9361 56.611 44.0562L56.5206 44.1426C56.6366 44.264 56.7522 44.3854 56.8674 44.5067L56.9581 44.4207C57.0737 44.5424 57.1889 44.6641 57.3036 44.7858L57.2127 44.8716C57.3274 44.9931 57.4416 45.1146 57.5555 45.236L57.6467 45.1505C57.7607 45.2721 57.8742 45.3936 57.9874 45.5151L57.8959 45.6003C58.0107 45.7235 58.125 45.8466 58.2389 45.9696L58.3306 45.8847C58.4446 46.0078 58.5581 46.1309 58.6712 46.2538L58.5792 46.3385C58.6922 46.4613 58.8047 46.5841 58.9168 46.7067L59.0091 46.6224C59.1219 46.7459 59.2343 46.8693 59.3462 46.9925L59.2536 47.0766C59.3667 47.2011 59.4793 47.3256 59.5915 47.45L59.6843 47.3662C59.7965 47.4907 59.9083 47.615 60.0195 47.7392L59.9264 47.8226C60.0376 47.9468 60.1483 48.0707 60.2585 48.1946L60.3519 48.1115C60.4636 48.2371 60.5749 48.3625 60.6856 48.4878L60.5919 48.5706C60.7032 48.6965 60.8139 48.8223 60.9242 48.9479L61.0181 48.8655C61.1284 48.9912 61.2383 49.1168 61.3476 49.2422L61.2533 49.3243C61.3628 49.4499 61.4717 49.5753 61.5801 49.7006L61.6747 49.6188C61.7851 49.7465 61.895 49.874 62.0044 50.0012L61.9096 50.0827C62.0188 50.2099 62.1275 50.3369 62.2357 50.4637L62.3308 50.3826C62.4391 50.5095 62.5468 50.6363 62.6539 50.7628L62.5585 50.8436C62.667 50.9717 62.7749 51.0996 62.8822 51.2274L62.9779 51.1469C63.0862 51.2759 63.194 51.4046 63.3011 51.5331L63.2051 51.6131C63.3122 51.7415 63.4186 51.8696 63.5244 51.9976L63.6207 51.9179C63.7271 52.0465 63.8329 52.1748 63.9381 52.303L63.8415 52.3823C63.9486 52.5128 64.0551 52.643 64.161 52.773L64.2579 52.694C64.3638 52.8241 64.4691 52.954 64.5738 53.0836L64.4766 53.1621C64.5811 53.2916 64.685 53.4207 64.7883 53.5496L64.8858 53.4715C64.9914 53.6033 65.0963 53.7348 65.2005 53.866L65.1026 53.9437C65.2071 54.0754 65.311 54.2067 65.4141 54.3377L65.5123 54.2604C65.6156 54.3916 65.7181 54.5224 65.82 54.6529L65.7214 54.7298C65.8247 54.8622 65.9273 54.9943 66.0292 55.1261L66.1281 55.0496C66.2313 55.1831 66.3337 55.3162 66.4354 55.449L66.3362 55.525C66.4377 55.6576 66.5385 55.7898 66.6385 55.9217L66.7381 55.8462C66.8395 55.9797 66.94 56.1129 67.0397 56.2457L66.9398 56.3208C67.0412 56.4558 67.1418 56.5904 67.2416 56.7247L67.3419 56.6501C67.4418 56.7845 67.5409 56.9184 67.6391 57.052L67.5384 57.126C67.6375 57.2607 67.7357 57.3949 67.8331 57.5287L67.9342 57.4551C68.0338 57.5921 68.1326 57.7286 68.2304 57.8645L68.129 57.9376C68.2267 58.0734 68.3235 58.2087 68.4194 58.3435L68.5213 58.2711C68.6184 58.4075 68.7146 58.5435 68.8098 58.679L68.7075 58.7509C68.8048 58.8893 68.9012 59.0273 68.9965 59.1646L69.0992 59.0933C69.1947 59.2309 69.2892 59.3679 69.3827 59.5043L69.2796 59.575C69.3744 59.7134 69.4682 59.8512 69.5609 59.9884L69.6645 59.9184C69.7594 60.0587 69.8531 60.1984 69.9458 60.3375L69.8418 60.4068C69.9343 60.5456 70.0257 60.6838 70.1161 60.8213L70.2205 60.7527C70.3134 60.894 70.405 61.0347 70.4955 61.1746L70.3905 61.2425C70.4821 61.3841 70.5725 61.525 70.6616 61.6651L70.7671 61.5981C70.8564 61.7385 70.9445 61.8781 71.0313 62.017L70.9253 62.0833C71.0157 62.2277 71.1047 62.3714 71.1923 62.5141L71.2988 62.4487C71.3868 62.592 71.4734 62.7344 71.5586 62.8759L71.4515 62.9404C71.5381 63.0843 71.6234 63.2273 71.7072 63.3693L71.8148 63.3058C71.9011 63.4521 71.9859 63.5975 72.0691 63.7418L71.9609 63.8042C72.0439 63.9482 72.1254 64.0911 72.2053 64.2329L72.3142 64.1716C72.3983 64.3208 72.4807 64.4689 72.5614 64.6159L72.4518 64.676C72.5324 64.8228 72.6113 64.9685 72.6884 65.1129L72.7987 65.054C72.8788 65.2039 72.957 65.3526 73.0333 65.4999L72.9223 65.5574C72.9998 65.7071 73.0754 65.8555 73.149 66.0024L73.2608 65.9465C73.3365 66.0977 73.4102 66.2475 73.4818 66.3958L73.3692 66.4501C73.4429 66.6028 73.5143 66.7538 73.5834 66.9032L73.6969 66.8507C73.7679 67.0041 73.8365 67.1558 73.9027 67.3058L73.7884 67.3563C73.857 67.5117 73.9231 67.6652 73.9865 67.8167L74.1018 67.7685C74.1673 67.9251 74.23 68.0796 74.2899 68.232L74.1736 68.2777C74.2356 68.4355 74.2945 68.591 74.3504 68.7441L74.4678 68.7012C74.5265 68.8621 74.5819 69.0205 74.6338 69.1762L74.5152 69.2157C74.5683 69.3751 74.6178 69.5316 74.6636 69.6851L74.7833 69.6494C74.833 69.8157 74.8783 69.9787 74.9193 70.1383L74.7983 70.1694C74.8405 70.3335 74.878 70.4937 74.9108 70.65L75.0332 70.6243C75.0684 70.792 75.0983 70.9554 75.1229 71.1144L74.9994 71.1335C75.0256 71.3035 75.0456 71.4682 75.0593 71.6274L75.1839 71.6167C75.1988 71.79 75.2063 71.9573 75.2065 72.1183L75.0815 72.1184C75.0816 72.2882 75.0733 72.4502 75.0565 72.6044L75.1807 72.618C75.1619 72.791 75.1326 72.9552 75.0927 73.1102L74.9716 73.0791C74.9302 73.2401 74.877 73.39 74.8122 73.5284L74.9254 73.5814Z" stroke="url(#paint2_linear_4919_1980)" stroke-width="0.25" stroke-dasharray="0.5 0.5"/>
<path d="M78.2511 72.1364V72.1364C76.6282 73.8515 76.6282 76.5358 78.2511 78.2509V78.2509V78.2509C76.536 76.6279 73.8517 76.6279 72.1366 78.2509V78.2509V78.2509C73.7595 76.5358 73.7595 73.8515 72.1366 72.1364V72.1364V72.1364C73.8517 73.7593 76.536 73.7593 78.2511 72.1364V72.1364Z" fill="white"/>
<path d="M24.5109 18.3961V18.3961C22.8879 20.1112 22.8879 22.7955 24.5109 24.5106V24.5106V24.5106C22.7958 22.8877 20.1115 22.8877 18.3964 24.5106V24.5106V24.5106C20.0193 22.7955 20.0193 20.1112 18.3964 18.3961V18.3961V18.3961C20.1115 20.0191 22.7958 20.0191 24.5109 18.3961V18.3961Z" fill="#53FDA9"/>
</g>
<defs>
<radialGradient id="paint0_radial_4919_1980" cx="0" cy="0" r="1" gradientUnits="userSpaceOnUse" gradientTransform="translate(48 47.5082) rotate(90) scale(30.4918)">
<stop stop-color="#53FDA9"/>
<stop offset="1" stop-color="#140E2E"/>
</radialGradient>
<linearGradient id="paint1_linear_4919_1980" x1="19.9349" y1="74.7775" x2="72.3771" y2="26.4644" gradientUnits="userSpaceOnUse">
<stop stop-color="#632BFF"/>
<stop offset="1" stop-color="white" stop-opacity="0"/>
</linearGradient>
<linearGradient id="paint2_linear_4919_1980" x1="41.9694" y1="53.8643" x2="53.6471" y2="40.8988" gradientUnits="userSpaceOnUse">
<stop stop-color="white"/>
<stop offset="1" stop-color="white" stop-opacity="0"/>
</linearGradient>
<clipPath id="clip0_4919_1980">
<rect width="96" height="96" fill="white"/>
</clipPath>
</defs>
</svg>
