<svg width="96" height="96" viewBox="0 0 96 96" fill="none" xmlns="http://www.w3.org/2000/svg">
<path d="M69.5977 69.8165C67.0934 72.3208 64.1203 74.3074 60.8482 75.6627C57.5761 77.0181 54.069 77.7157 50.5273 77.7157C46.9857 77.7157 43.4786 77.0181 40.2065 75.6627C36.9344 74.3074 33.9613 72.3208 31.457 69.8165" stroke="url(#paint0_linear_1729_5851)" stroke-miterlimit="10" stroke-linecap="round"/>
<path d="M66.7574 66.9762C64.6261 69.1076 62.0958 70.7983 59.311 71.9517C56.5262 73.1052 53.5416 73.6989 50.5273 73.6989C47.5131 73.6989 44.5284 73.1052 41.7437 71.9517C38.9589 70.7983 36.4286 69.1076 34.2972 66.9762" stroke="url(#paint1_linear_1729_5851)" stroke-miterlimit="10" stroke-linecap="round"/>
<path d="M63.9172 64.1359C62.1588 65.8943 60.0713 67.2891 57.7739 68.2408C55.4764 69.1924 53.0141 69.6822 50.5273 69.6822C48.0406 69.6822 45.5782 69.1924 43.2808 68.2408C40.9834 67.2891 38.8959 65.8943 37.1375 64.1359" stroke="url(#paint2_linear_1729_5851)" stroke-miterlimit="10" stroke-linecap="round"/>
<path d="M70.8165 26.4023C73.3208 28.9066 75.3074 31.8797 76.6627 35.1518C78.0181 38.4239 78.7157 41.931 78.7157 45.4727C78.7157 49.0143 78.0181 52.5214 76.6627 55.7935C75.3074 59.0656 73.3208 62.0387 70.8165 64.543" stroke="url(#paint3_linear_1729_5851)" stroke-miterlimit="10" stroke-linecap="round"/>
<path d="M67.9762 29.2426C70.1076 31.3739 71.7983 33.9042 72.9517 36.689C74.1052 39.4738 74.6989 42.4584 74.6989 45.4727C74.6989 48.4869 74.1052 51.4716 72.9517 54.2563C71.7983 57.0411 70.1076 59.5714 67.9762 61.7028" stroke="url(#paint4_linear_1729_5851)" stroke-miterlimit="10" stroke-linecap="round"/>
<path d="M65.1359 32.0828C66.8943 33.8412 68.2891 35.9287 69.2408 38.2261C70.1924 40.5236 70.6822 42.9859 70.6822 45.4727C70.6822 47.9594 70.1924 50.4218 69.2408 52.7192C68.2891 55.0166 66.8943 57.1041 65.1359 58.8625" stroke="url(#paint5_linear_1729_5851)" stroke-miterlimit="10" stroke-linecap="round"/>
<path d="M27.4023 25.1835C29.9066 22.6792 32.8797 20.6926 36.1518 19.3373C39.4239 17.9819 42.931 17.2843 46.4727 17.2843C50.0144 17.2843 53.5214 17.9819 56.7935 19.3373C60.0656 20.6926 63.0387 22.6792 65.543 25.1835" stroke="url(#paint6_linear_1729_5851)" stroke-miterlimit="10" stroke-linecap="round"/>
<path d="M30.2426 28.0238C32.3739 25.8924 34.9042 24.2017 37.689 23.0483C40.4738 21.8948 43.4585 21.3011 46.4727 21.3011C49.4869 21.3011 52.4716 21.8948 55.2563 23.0483C58.0411 24.2017 60.5714 25.8924 62.7028 28.0238" stroke="url(#paint7_linear_1729_5851)" stroke-miterlimit="10" stroke-linecap="round"/>
<path d="M33.0828 30.8641C34.8412 29.1057 36.9287 27.7109 39.2261 26.7592C41.5236 25.8076 43.9859 25.3178 46.4727 25.3178C48.9594 25.3178 51.4218 25.8076 53.7192 26.7592C56.0166 27.7109 58.1041 29.1057 59.8625 30.8641" stroke="url(#paint8_linear_1729_5851)" stroke-miterlimit="10" stroke-linecap="round"/>
<path d="M26.1835 68.5977C23.6792 66.0934 21.6926 63.1203 20.3373 59.8482C18.9819 56.5761 18.2843 53.069 18.2843 49.5273C18.2843 45.9856 18.9819 42.4786 20.3373 39.2065C21.6926 35.9344 23.6792 32.9613 26.1835 30.457" stroke="url(#paint9_linear_1729_5851)" stroke-miterlimit="10" stroke-linecap="round"/>
<path d="M29.0238 65.7574C26.8924 63.6261 25.2017 61.0958 24.0483 58.311C22.8948 55.5262 22.3011 52.5415 22.3011 49.5273C22.3011 46.5131 22.8948 43.5284 24.0483 40.7437C25.2017 37.9589 26.8924 35.4286 29.0238 33.2972" stroke="url(#paint10_linear_1729_5851)" stroke-miterlimit="10" stroke-linecap="round"/>
<path d="M31.8641 62.9172C30.1057 61.1588 28.7109 59.0713 27.7592 56.7739C26.8076 54.4764 26.3178 52.0141 26.3178 49.5273C26.3178 47.0406 26.8076 44.5782 27.7592 42.2808C28.7109 39.9834 30.1057 37.8959 31.8641 36.1375" stroke="url(#paint11_linear_1729_5851)" stroke-miterlimit="10" stroke-linecap="round"/>
<path d="M54.4613 43.512L53.5349 42.5761L53.4081 42.7026C50.9097 41.2588 47.2293 41.9612 44.5807 44.5724C41.9321 47.1837 41.1871 50.8495 42.605 53.3576L42.4782 53.4821L43.4047 54.418C45.8075 56.8424 50.231 56.3638 53.2853 53.3556C56.3395 50.3475 56.8642 45.9364 54.4613 43.512Z" fill="url(#paint12_linear_1729_5851)"/>
<path d="M52.3506 52.3916C55.4036 49.3798 55.9296 44.9721 53.5256 42.5469C51.1216 40.1216 46.6979 40.5971 43.645 43.609C40.5921 46.6209 40.066 51.0286 42.47 53.4538C44.874 55.8791 49.2977 55.4035 52.3506 52.3916Z" fill="url(#paint13_linear_1729_5851)"/>
<defs>
<linearGradient id="paint0_linear_1729_5851" x1="60.0625" y1="60.2813" x2="40.9922" y2="79.3516" gradientUnits="userSpaceOnUse">
<stop stop-color="#53FDA9"/>
<stop offset="1" stop-color="#53FDA9" stop-opacity="0"/>
</linearGradient>
<linearGradient id="paint1_linear_1729_5851" x1="58.6424" y1="58.8611" x2="42.4123" y2="75.0912" gradientUnits="userSpaceOnUse">
<stop stop-color="#53FDA9"/>
<stop offset="1" stop-color="#53FDA9" stop-opacity="0"/>
</linearGradient>
<linearGradient id="paint2_linear_1729_5851" x1="57.2223" y1="57.441" x2="43.8324" y2="70.8308" gradientUnits="userSpaceOnUse">
<stop stop-color="#53FDA9"/>
<stop offset="1" stop-color="#53FDA9" stop-opacity="0"/>
</linearGradient>
<linearGradient id="paint3_linear_1729_5851" x1="61.2813" y1="35.9375" x2="80.3516" y2="55.0078" gradientUnits="userSpaceOnUse">
<stop stop-color="#53FDA9"/>
<stop offset="1" stop-color="#53FDA9" stop-opacity="0"/>
</linearGradient>
<linearGradient id="paint4_linear_1729_5851" x1="59.8611" y1="37.3576" x2="76.0912" y2="53.5877" gradientUnits="userSpaceOnUse">
<stop stop-color="#53FDA9"/>
<stop offset="1" stop-color="#53FDA9" stop-opacity="0"/>
</linearGradient>
<linearGradient id="paint5_linear_1729_5851" x1="58.441" y1="38.7777" x2="71.8308" y2="52.1676" gradientUnits="userSpaceOnUse">
<stop stop-color="#53FDA9"/>
<stop offset="1" stop-color="#53FDA9" stop-opacity="0"/>
</linearGradient>
<linearGradient id="paint6_linear_1729_5851" x1="36.9375" y1="34.7187" x2="56.0078" y2="15.6484" gradientUnits="userSpaceOnUse">
<stop stop-color="#53FDA9"/>
<stop offset="1" stop-color="#53FDA9" stop-opacity="0"/>
</linearGradient>
<linearGradient id="paint7_linear_1729_5851" x1="38.3576" y1="36.1389" x2="54.5877" y2="19.9088" gradientUnits="userSpaceOnUse">
<stop stop-color="#53FDA9"/>
<stop offset="1" stop-color="#53FDA9" stop-opacity="0"/>
</linearGradient>
<linearGradient id="paint8_linear_1729_5851" x1="39.7777" y1="37.559" x2="53.1676" y2="24.1692" gradientUnits="userSpaceOnUse">
<stop stop-color="#53FDA9"/>
<stop offset="1" stop-color="#53FDA9" stop-opacity="0"/>
</linearGradient>
<linearGradient id="paint9_linear_1729_5851" x1="35.7187" y1="59.0625" x2="16.6484" y2="39.9922" gradientUnits="userSpaceOnUse">
<stop stop-color="#53FDA9"/>
<stop offset="1" stop-color="#53FDA9" stop-opacity="0"/>
</linearGradient>
<linearGradient id="paint10_linear_1729_5851" x1="37.1389" y1="57.6424" x2="20.9088" y2="41.4123" gradientUnits="userSpaceOnUse">
<stop stop-color="#53FDA9"/>
<stop offset="1" stop-color="#53FDA9" stop-opacity="0"/>
</linearGradient>
<linearGradient id="paint11_linear_1729_5851" x1="38.559" y1="56.2223" x2="25.1692" y2="42.8324" gradientUnits="userSpaceOnUse">
<stop stop-color="#53FDA9"/>
<stop offset="1" stop-color="#53FDA9" stop-opacity="0"/>
</linearGradient>
<linearGradient id="paint12_linear_1729_5851" x1="47.5594" y1="47.4834" x2="53.3177" y2="53.3573" gradientUnits="userSpaceOnUse">
<stop stop-color="#632BFF"/>
<stop offset="1" stop-color="#632BFF" stop-opacity="0.3"/>
</linearGradient>
<linearGradient id="paint13_linear_1729_5851" x1="43.645" y1="43.609" x2="52.3298" y2="52.4122" gradientUnits="userSpaceOnUse">
<stop stop-color="#53FDA9"/>
<stop offset="1" stop-color="#53FDA9"/>
</linearGradient>
</defs>
</svg>
