<svg width="96" height="96" viewBox="0 0 96 96" fill="none" xmlns="http://www.w3.org/2000/svg">
<path d="M48.0026 34.2578C48.2097 41.7592 54.2421 47.7916 61.7435 47.9987C54.2421 48.2058 48.2097 54.2381 48.0026 61.7395C47.7955 54.2381 41.7631 48.2058 34.2617 47.9987C41.7631 47.7916 47.7955 41.7592 48.0026 34.2578Z" fill="#53FDA9"/>
<g filter="url(#filter0_d_1729_5266)">
<ellipse cx="47.9999" cy="48.0003" rx="41.147" ry="20.5735" transform="rotate(-44.5427 47.9999 48.0003)" stroke="url(#paint0_linear_1729_5266)" stroke-width="0.5" stroke-linecap="round" stroke-dasharray="1 1" shape-rendering="crispEdges"/>
</g>
<path d="M18.6238 19.2172C18.7334 19.0927 18.8462 18.9706 18.962 18.8511L19.0518 18.938C19.109 18.879 19.1671 18.8205 19.2258 18.7626C19.2846 18.7048 19.344 18.6477 19.404 18.5914L19.3185 18.5003C19.4399 18.3863 19.5637 18.2756 19.69 18.1679L19.7711 18.263C19.8959 18.1566 20.0232 18.0532 20.1527 17.9529L20.0762 17.854C20.2076 17.7523 20.3413 17.6538 20.4774 17.5584L20.5491 17.6607C20.6834 17.5665 20.8199 17.4754 20.9587 17.3873L20.8918 17.2818C21.0316 17.193 21.1737 17.1073 21.318 17.0247L21.3801 17.1332C21.5225 17.0516 21.6671 16.973 21.8139 16.8975L21.7567 16.7863C21.9034 16.7108 22.0522 16.6382 22.2031 16.5685L22.2555 16.682C22.4047 16.6131 22.5561 16.5471 22.7094 16.4839L22.6618 16.3684C22.8139 16.3057 22.968 16.2459 23.1239 16.1889L23.1668 16.3063C23.3211 16.25 23.4772 16.1964 23.6352 16.1455L23.597 16.0265C23.7536 15.9761 23.9121 15.9284 24.0723 15.8834L24.1061 16.0037C24.2639 15.9593 24.4234 15.9176 24.5846 15.8784L24.5551 15.757C24.7155 15.718 24.8776 15.6817 25.0412 15.6478L25.0665 15.7702C25.2265 15.7372 25.3881 15.7065 25.5512 15.6784L25.5299 15.5552C25.6934 15.5269 25.8583 15.5012 26.0248 15.4778L26.0422 15.6016C26.2033 15.5789 26.3658 15.5586 26.5297 15.5406L26.5161 15.4163C26.6812 15.3981 26.8477 15.3822 27.0155 15.3687L27.0256 15.4932C27.1879 15.4801 27.3516 15.4691 27.5165 15.4603L27.5098 15.3354C27.6747 15.3266 27.8409 15.3199 28.0082 15.3153L28.0116 15.4403C28.1761 15.4357 28.3416 15.4333 28.5084 15.4329L28.5081 15.3079C28.6722 15.3076 28.8374 15.3092 29.0036 15.3128L29.0009 15.4377C29.1662 15.4413 29.3325 15.4468 29.4998 15.4543L29.5054 15.3294C29.6693 15.3368 29.8342 15.3459 30 15.357L29.9917 15.4817C30.1555 15.4926 30.3202 15.5053 30.4858 15.5199L30.4968 15.3954C30.6624 15.4099 30.8289 15.4262 30.9963 15.4444L30.9829 15.5686C31.1448 15.5862 31.3076 15.6054 31.4712 15.6263L31.487 15.5023C31.6514 15.5233 31.8166 15.546 31.9825 15.5704L31.9644 15.6941C32.1273 15.718 32.2909 15.7436 32.4553 15.7707L32.4757 15.6474C32.6377 15.6742 32.8005 15.7025 32.964 15.7325L32.9415 15.8554C33.1042 15.8852 33.2677 15.9166 33.4318 15.9494L33.4564 15.8269C33.618 15.8593 33.7803 15.8931 33.9431 15.9285L33.9166 16.0507C34.0768 16.0854 34.2377 16.1217 34.3991 16.1594L34.4275 16.0376C34.5896 16.0755 34.7523 16.1147 34.9155 16.1554L34.8852 16.2767C35.0443 16.3164 35.204 16.3574 35.3641 16.3998L35.3961 16.279C35.5554 16.3212 35.7153 16.3647 35.8756 16.4096L35.8419 16.53C36.0017 16.5747 36.162 16.6207 36.3227 16.6681L36.3581 16.5482C36.516 16.5947 36.6744 16.6426 36.8332 16.6916L36.7963 16.8111C36.9532 16.8596 37.1106 16.9093 37.2684 16.9604L37.3069 16.8414C37.4652 16.8926 37.624 16.945 37.7831 16.9987L37.7432 17.1171C37.8991 17.1696 38.0553 17.2234 38.212 17.2783L38.2533 17.1603C38.4088 17.2148 38.5646 17.2705 38.7207 17.3273L38.678 17.4448C38.8337 17.5015 38.9898 17.5593 39.1462 17.6183L39.1903 17.5013C39.3452 17.5597 39.5005 17.6193 39.6561 17.68L39.6107 17.7964C39.7635 17.856 39.9167 17.9167 40.0701 17.9785L40.1168 17.8625C40.2707 17.9245 40.4249 17.9875 40.5793 18.0516L40.5314 18.1671C40.6847 18.2307 40.8383 18.2954 40.9922 18.3612L41.0413 18.2463C41.1923 18.3108 41.3436 18.3764 41.4951 18.443L41.4448 18.5574C41.5959 18.6238 41.7473 18.6913 41.8989 18.7597L41.9504 18.6458C42.1024 18.7144 42.2546 18.7841 42.4071 18.8547L42.3545 18.9681C42.5035 19.0371 42.6526 19.1071 42.802 19.1781L42.8556 19.0652C43.0047 19.136 43.1541 19.2078 43.3036 19.2806L43.2489 19.393C43.398 19.4655 43.5474 19.5391 43.6969 19.6135L43.7526 19.5017C43.9011 19.5756 44.0497 19.6505 44.1985 19.7263L44.1418 19.8377C44.2881 19.9122 44.4347 19.9877 44.5813 20.0641L44.6391 19.9532C44.7861 20.0297 44.9332 20.1072 45.0805 20.1855L45.0218 20.2959C45.1688 20.374 45.3159 20.4531 45.4631 20.533L45.5228 20.4232C45.6674 20.5017 45.8122 20.5811 45.9571 20.6614L45.8965 20.7707C46.0407 20.8506 46.1851 20.9313 46.3295 21.0129L46.3909 20.904C46.5357 20.9858 46.6805 21.0683 46.8254 21.1518L46.763 21.2601C46.9068 21.3428 47.0506 21.4264 47.1946 21.5108L47.2578 21.403C47.3998 21.4863 47.5419 21.5704 47.6841 21.6553L47.62 21.7627C47.7619 21.8474 47.9039 21.9329 48.046 22.0193L48.1109 21.9125C48.2532 21.999 48.3956 22.0862 48.538 22.1743L48.4722 22.2807C48.6126 22.3675 48.7531 22.4551 48.8936 22.5435L48.9602 22.4377C49.0999 22.5256 49.2396 22.6142 49.3793 22.7036L49.312 22.8089C49.4515 22.8982 49.591 22.9881 49.7305 23.0789L49.7987 22.9741C49.9385 23.065 50.0783 23.1566 50.2181 23.249L50.1492 23.3533C50.2865 23.4441 50.4239 23.5355 50.5612 23.6277L50.6309 23.5239C50.7681 23.6161 50.9053 23.7089 51.0426 23.8024L50.9721 23.9057C51.1091 23.9991 51.2461 24.0932 51.3831 24.188L51.4542 24.0852C51.5913 24.1802 51.7285 24.2758 51.8655 24.3721L51.7937 24.4744C51.9282 24.5689 52.0627 24.6641 52.1971 24.76L52.2697 24.6583C52.4044 24.7543 52.5391 24.8511 52.6737 24.9485L52.6004 25.0498C52.7348 25.147 52.8692 25.245 53.0035 25.3436L53.0775 25.2428C53.2117 25.3414 53.3459 25.4406 53.4801 25.5405L53.4054 25.6407C53.5374 25.739 53.6693 25.8379 53.8012 25.9375L53.8765 25.8378C54.0087 25.9375 54.1407 26.038 54.2727 26.139L54.1967 26.2383C54.3285 26.3392 54.4602 26.4407 54.5918 26.5429L54.6685 26.4441C54.7999 26.5462 54.9313 26.6489 55.0627 26.7522L54.9854 26.8504C55.1148 26.9523 55.2441 27.0547 55.3734 27.1578L55.4513 27.06C55.5808 27.1633 55.7102 27.2671 55.8395 27.3716L55.7609 27.4688C55.89 27.5732 56.019 27.6781 56.1479 27.7836L56.2271 27.6869C56.3559 27.7924 56.4846 27.8984 56.6132 28.0051L56.5334 28.1013C56.6601 28.2065 56.7868 28.3122 56.9134 28.4186L56.9938 28.3229C57.1206 28.4294 57.2473 28.5366 57.3739 28.6443L57.2928 28.7395C57.4192 28.847 57.5455 28.9551 57.6716 29.0639L57.7532 28.9692C57.8794 29.0779 58.0054 29.1873 58.1314 29.2972L58.0492 29.3914C58.1733 29.4997 58.2973 29.6087 58.4212 29.7181L58.5039 29.6245C58.628 29.7341 58.7519 29.8443 58.8757 29.9551L58.7924 30.0483C58.916 30.1589 59.0394 30.2701 59.1628 30.3818L59.2467 30.2892C59.3702 30.4011 59.4936 30.5136 59.6168 30.6266L59.5323 30.7187C59.6538 30.8302 59.7752 30.9422 59.8964 31.0547L59.9814 30.9631C60.1027 31.0758 60.2239 31.1889 60.3448 31.3027L60.2592 31.3937C60.38 31.5073 60.5007 31.6214 60.6212 31.736L60.7073 31.6454C60.828 31.7602 60.9485 31.8756 61.0688 31.9914L60.9821 32.0815C61.1012 32.1961 61.22 32.3113 61.3387 32.4269L61.426 32.3374C61.5445 32.4529 61.6628 32.5689 61.7809 32.6854L61.6932 32.7744C61.8111 32.8908 61.9289 33.0076 62.0465 33.125L62.1348 33.0365C62.2526 33.1541 62.3702 33.2722 62.4876 33.3908L62.3988 33.4787C62.4574 33.5379 62.516 33.5973 62.5745 33.6567C62.6331 33.7162 62.6915 33.7757 62.7497 33.8353L62.8391 33.7479C62.9558 33.8672 63.072 33.9866 63.1876 34.1063L63.0978 34.1932C63.2133 34.3126 63.3282 34.4323 63.4427 34.5521L63.5331 34.4657C63.6477 34.5857 63.7618 34.7059 63.8754 34.8262L63.7845 34.912C63.8982 35.0325 64.0115 35.1532 64.1242 35.2741L64.2156 35.1888C64.3295 35.311 64.4429 35.4333 64.5558 35.5558L64.4639 35.6405C64.5765 35.7628 64.6887 35.8853 64.8003 36.0079L64.8927 35.9237C65.0045 36.0465 65.1157 36.1694 65.2264 36.2925L65.1335 36.3761C65.2441 36.4991 65.3541 36.6222 65.4636 36.7455L65.5571 36.6624C65.6681 36.7875 65.7786 36.9126 65.8885 37.0379L65.7946 37.1203C65.9043 37.2454 66.0135 37.3707 66.1222 37.496L66.2166 37.4142C66.3254 37.5397 66.4337 37.6654 66.5413 37.7912L66.4463 37.8724C66.5538 37.998 66.6608 38.1238 66.7671 38.2496L66.8626 38.1689C66.9705 38.2966 67.0778 38.4244 67.1845 38.5523L67.0886 38.6324C67.1953 38.7602 67.3014 38.8882 67.4069 39.0162L67.5034 38.9368C67.609 39.065 67.7141 39.1934 67.8186 39.3219L67.7216 39.4007C67.826 39.529 67.9297 39.6574 68.0328 39.7858L68.1303 39.7076C68.2349 39.8378 68.3389 39.9682 68.4423 40.0987L68.3443 40.1763C68.4478 40.3069 68.5506 40.4375 68.6529 40.5683L68.7513 40.4913C68.8537 40.6222 68.9555 40.7532 69.0567 40.8843L68.9577 40.9607C69.0587 41.0916 69.1591 41.2226 69.2588 41.3536L69.3583 41.2779C69.4595 41.4108 69.5601 41.5438 69.66 41.6769L69.5601 41.752C69.6601 41.8852 69.7596 42.0185 69.8583 42.1519L69.9588 42.0775C70.0577 42.2111 70.156 42.3447 70.2537 42.4784L70.1527 42.5521C70.2502 42.6856 70.347 42.8191 70.4432 42.9526L70.5446 42.8796C70.6424 43.0153 70.7394 43.1511 70.8358 43.2868L70.7339 43.3592C70.8303 43.4951 70.9261 43.631 71.0212 43.7669L71.1236 43.6953C71.2189 43.8315 71.3135 43.9677 71.4074 44.1039L71.3045 44.1748C71.3982 44.3108 71.4913 44.4468 71.5836 44.5828L71.687 44.5126C71.7812 44.6512 71.8746 44.7898 71.9673 44.9284L71.8634 44.9979C71.956 45.1364 72.0479 45.2748 72.1391 45.4133L72.2435 45.3445C72.3349 45.4832 72.4255 45.6219 72.5154 45.7606L72.4105 45.8286C72.5005 45.9674 72.5898 46.1062 72.6783 46.2449L72.7837 46.1777C72.8738 46.319 72.9633 46.4603 73.0519 46.6015L72.946 46.6679C73.0345 46.8089 73.1223 46.9499 73.2093 47.0907L73.3156 47.0251C73.4028 47.1662 73.4892 47.3073 73.5748 47.4484L73.4679 47.5133C73.5541 47.6552 73.6395 47.797 73.7241 47.9388L73.8314 47.8748C73.9172 48.0186 74.0022 48.1623 74.0865 48.306L73.9786 48.3692C74.0627 48.5126 74.1459 48.6559 74.2284 48.7992L74.3367 48.7368C74.4194 48.8803 74.5012 49.0238 74.5822 49.1671L74.4734 49.2286C74.5555 49.3739 74.6368 49.519 74.7172 49.6641L74.8265 49.6034C74.9076 49.7497 74.9879 49.8958 75.0673 50.0418L74.9575 50.1015C75.0367 50.2472 75.1152 50.3928 75.1927 50.5383L75.303 50.4795C75.3809 50.6256 75.458 50.7717 75.5343 50.9176L75.4235 50.9754C75.501 51.1239 75.5777 51.2723 75.6535 51.4205L75.7648 51.3635C75.8408 51.5121 75.9159 51.6604 75.99 51.8086L75.8783 51.8646C75.9523 52.0125 76.0254 52.1602 76.0976 52.3077L76.2099 52.2527C76.2833 52.4027 76.3558 52.5526 76.4274 52.7022L76.3146 52.7561C76.3867 52.9068 76.4578 53.0573 76.528 53.2076L76.6413 53.1547C76.7116 53.3054 76.781 53.4558 76.8495 53.606L76.7357 53.6579C76.8043 53.8083 76.8719 53.9586 76.9385 54.1086L77.0528 54.0579C77.121 54.2115 77.1882 54.3648 77.2544 54.5179L77.1396 54.5675C77.2057 54.7202 77.2707 54.8726 77.3347 55.0248L77.4499 54.9763C77.5141 55.1289 77.5772 55.2812 77.6394 55.4332L77.5236 55.4805C77.587 55.6354 77.6492 55.79 77.7104 55.9443L77.8266 55.8982C77.8882 56.0537 77.9488 56.2088 78.0083 56.3637L77.8916 56.4085C77.9509 56.5629 78.0091 56.717 78.0663 56.8708L78.1835 56.8273C78.2416 56.9838 78.2987 57.14 78.3547 57.2959L78.237 57.3381C78.2935 57.4954 78.3488 57.6524 78.403 57.809L78.5211 57.7681C78.5754 57.9252 78.6286 58.0819 78.6806 58.2382L78.562 58.2776C78.6144 58.4351 78.6657 58.5922 78.7157 58.7489L78.8348 58.7109C78.8859 58.8709 78.9358 59.0304 78.9844 59.1896L78.8649 59.2261C78.9134 59.3847 78.9606 59.5429 79.0066 59.7006L79.1266 59.6656C79.1731 59.8252 79.2184 59.9843 79.2624 60.1429L79.142 60.1764C79.1868 60.3379 79.2303 60.4988 79.2724 60.6593L79.3933 60.6276C79.4356 60.7886 79.4766 60.9491 79.5163 61.109L79.3949 61.1391C79.4348 61.2999 79.4733 61.4602 79.5104 61.6199L79.6321 61.5916C79.6702 61.7554 79.7069 61.9187 79.7421 62.0814L79.62 62.1078C79.6551 62.2698 79.6887 62.4313 79.721 62.592L79.8435 62.5675C79.8763 62.7309 79.9076 62.8936 79.9374 63.0557L79.8144 63.0783C79.8447 63.243 79.8734 63.4069 79.9006 63.5701L80.0239 63.5496C80.0512 63.7135 80.077 63.8767 80.1012 64.0392L79.9775 64.0576C80.0021 64.2224 80.025 64.3865 80.0463 64.5497L80.1703 64.5335C80.192 64.6998 80.2121 64.8654 80.2304 65.03L80.1062 65.0439C80.1245 65.2078 80.1411 65.3709 80.1561 65.5331L80.2806 65.5216C80.296 65.6893 80.3097 65.856 80.3216 66.0219L80.1969 66.0308C80.2088 66.1967 80.2189 66.3616 80.2272 66.5255L80.352 66.5192C80.3604 66.6851 80.367 66.8502 80.3717 67.0142L80.2467 67.0178C80.2515 67.1852 80.2544 67.3516 80.2553 67.5169L80.3803 67.5162C80.3813 67.6824 80.3802 67.8476 80.3773 68.0117L80.2523 68.0094C80.2492 68.1761 80.2442 68.3417 80.237 68.506L80.3619 68.5114C80.3547 68.6786 80.3453 68.8447 80.3338 69.0095L80.2091 69.0008C80.1977 69.1655 80.184 69.329 80.1683 69.4911L80.2927 69.5032C80.2765 69.6707 80.2579 69.8369 80.2371 70.0018L80.1131 69.9861C80.0924 70.1497 80.0695 70.3119 80.0443 70.4726L80.1678 70.492C80.1418 70.658 80.1133 70.8226 80.0825 70.9856L79.9597 70.9624C79.9289 71.125 79.8957 71.2861 79.8601 71.4455L79.9821 71.4728C79.9456 71.6358 79.9067 71.7972 79.8652 71.957L79.7442 71.9256C79.7025 72.0861 79.6582 72.245 79.6113 72.402L79.7311 72.4378C79.6835 72.5972 79.6333 72.7549 79.5804 72.9107L79.462 72.8706C79.4086 73.0277 79.3525 73.183 79.2937 73.3364L79.4104 73.3812C79.351 73.5362 79.2887 73.6892 79.2236 73.8404L79.1088 73.7909C79.0433 73.9432 78.9749 74.0934 78.9036 74.2416L79.0162 74.2958C78.9441 74.4455 78.8692 74.5932 78.7913 74.7387L78.6811 74.6797C78.6032 74.8252 78.5223 74.9686 78.4385 75.1097L78.5459 75.1735C78.461 75.3165 78.3731 75.4572 78.2821 75.5956L78.1776 75.5269C78.0874 75.6643 77.9941 75.7994 77.8978 75.9321L77.9989 76.0055C77.9013 76.14 77.8007 76.2721 77.6969 76.4019L77.5993 76.3238C77.4969 76.4517 77.3915 76.5773 77.2831 76.7005L77.3769 76.7831C77.2672 76.9076 77.1545 77.0296 77.0386 77.1492L76.9488 77.0622C76.8916 77.1213 76.8336 77.1798 76.7748 77.2376C76.716 77.2955 76.6567 77.3526 76.5967 77.4088L76.6822 77.5C76.5608 77.6139 76.4369 77.7247 76.3107 77.8324L76.2296 77.7372C76.1047 77.8437 75.9775 77.9471 75.8479 78.0474L75.9244 78.1462C75.7931 78.2479 75.6593 78.3465 75.5233 78.4419L75.4515 78.3396C75.3173 78.4338 75.1807 78.5249 75.0419 78.613L75.1089 78.7185C74.9691 78.8073 74.827 78.8929 74.6827 78.9756L74.6206 78.8671C74.4781 78.9487 74.3335 79.0272 74.1868 79.1028L74.244 79.2139C74.0973 79.2895 73.9484 79.3621 73.7976 79.4318L73.7452 79.3183C73.5959 79.3872 73.4446 79.4532 73.2913 79.5163L73.3389 79.6319C73.1868 79.6946 73.0327 79.7544 72.8768 79.8113L72.8339 79.6939C72.6796 79.7503 72.5234 79.8039 72.3654 79.8548L72.4037 79.9738C72.247 80.0242 72.0886 80.0719 71.9284 80.1169L71.8946 79.9966C71.7368 80.041 71.5772 80.0827 71.416 80.1218L71.4455 80.2433C71.2851 80.2823 71.1231 80.3186 70.9595 80.3524L70.9342 80.23C70.7742 80.2631 70.6126 80.2937 70.4495 80.3219L70.4708 80.4451C70.3073 80.4733 70.1423 80.4991 69.9759 80.5225L69.9585 80.3987C69.7974 80.4213 69.6348 80.4417 69.4709 80.4597L69.4846 80.584C69.3195 80.6022 69.153 80.618 68.9852 80.6316L68.9751 80.507C68.8127 80.5202 68.6491 80.5312 68.4842 80.54L68.4909 80.6648C68.3259 80.6737 68.1598 80.6804 67.9924 80.685L67.989 80.56C67.8246 80.5645 67.659 80.567 67.4923 80.5673L67.4926 80.6923C67.3285 80.6927 67.1633 80.6911 66.997 80.6875L66.9997 80.5625C66.8345 80.559 66.6682 80.5535 66.5008 80.546L66.4952 80.6708C66.3313 80.6635 66.1664 80.6543 66.0006 80.6433L66.0089 80.5186C65.8452 80.5077 65.6804 80.4949 65.5148 80.4804L65.5039 80.6049C65.3383 80.5904 65.1717 80.574 65.0043 80.5559L65.0178 80.4316C64.8558 80.4141 64.6931 80.3949 64.5295 80.374L64.5136 80.498C64.3493 80.4769 64.1841 80.4543 64.0181 80.4299L64.0363 80.3062C63.8734 80.2823 63.7098 80.2567 63.5454 80.2295L63.525 80.3529C63.3629 80.3261 63.2001 80.2977 63.0367 80.2678L63.0592 80.1449C62.8964 80.1151 62.733 80.0837 62.5688 80.0508L62.5443 80.1734C62.3827 80.141 62.2204 80.1071 62.0575 80.0718L62.0841 79.9496C61.9238 79.9148 61.763 79.8786 61.6015 79.8409L61.5731 79.9626C61.411 79.9248 61.2484 79.8856 61.0852 79.8448L61.1154 79.7236C60.9563 79.6839 60.7967 79.6428 60.6365 79.6004L60.6045 79.7213C60.4452 79.6791 60.2854 79.6356 60.1251 79.5907L60.1587 79.4703C59.999 79.4256 59.8387 79.3796 59.6779 79.3322L59.6426 79.4521C59.4847 79.4055 59.3263 79.3577 59.1675 79.3086L59.2044 79.1892C59.0474 79.1407 58.89 79.0909 58.7322 79.0399L58.6938 79.1589C58.5354 79.1077 58.3767 79.0553 58.2175 79.0016L58.2575 78.8832C58.1016 78.8306 57.9453 78.7769 57.7887 78.722L57.7473 78.8399C57.5919 78.7854 57.4361 78.7298 57.2799 78.6729L57.3227 78.5555C57.167 78.4988 57.0109 78.441 56.8545 78.382L56.8104 78.499C56.6554 78.4405 56.5002 78.381 56.3446 78.3203L56.39 78.2038C56.2371 78.1442 56.084 78.0836 55.9305 78.0218L55.8838 78.1377C55.73 78.0758 55.5758 78.0128 55.4213 77.9486L55.4692 77.8332C55.3159 77.7696 55.1624 77.7049 55.0085 77.6391L54.9594 77.754C54.8083 77.6895 54.6571 77.6239 54.5056 77.5573L54.5558 77.4429C54.4047 77.3764 54.2533 77.309 54.1017 77.2406L54.0503 77.3545C53.8983 77.2859 53.7461 77.2162 53.5936 77.1456L53.6462 77.0322C53.4972 76.9631 53.348 76.8931 53.1987 76.8222L53.145 76.9351C52.9959 76.8643 52.8466 76.7925 52.6971 76.7197L52.7518 76.6073C52.6026 76.5347 52.4533 76.4612 52.3038 76.3867L52.248 76.4986C52.0996 76.4247 51.9509 76.3498 51.8021 76.274L51.8589 76.1626C51.7125 76.088 51.566 76.0126 51.4193 75.9362L51.3616 76.0471C51.2146 75.9705 51.0674 75.8931 50.9201 75.8148L50.9788 75.7044C50.8319 75.6263 50.6848 75.5472 50.5375 75.4673L50.4779 75.5771C50.3332 75.4986 50.1885 75.4192 50.0436 75.3389L50.1041 75.2296C49.9599 75.1497 49.8156 75.069 49.6712 74.9874L49.6097 75.0962C49.465 75.0145 49.3202 74.9319 49.1753 74.8485L49.2376 74.7402C49.0939 74.6574 48.95 74.5738 48.8061 74.4894L48.7429 74.5973C48.6008 74.514 48.4587 74.4298 48.3165 74.3449L48.3806 74.2376C48.2387 74.1529 48.0967 74.0673 47.9547 73.981L47.8898 74.0878C47.7475 74.0013 47.6051 73.914 47.4627 73.8259L47.5284 73.7196C47.388 73.6328 47.2475 73.5451 47.107 73.4567L47.0405 73.5625C46.9008 73.4747 46.7611 73.386 46.6213 73.2966L46.6887 73.1913C46.5492 73.1021 46.4097 73.0121 46.2701 72.9214L46.202 73.0262C46.0622 72.9353 45.9224 72.8436 45.7825 72.7512L45.8514 72.6469C45.7141 72.5562 45.5768 72.4647 45.4394 72.3725L45.3698 72.4763C45.2326 72.3842 45.0953 72.2914 44.9581 72.1978L45.0285 72.0946C44.8915 72.0012 44.7546 71.9071 44.6176 71.8123L44.5464 71.915C44.4093 71.8201 44.2722 71.7245 44.1351 71.6281L44.207 71.5259C44.0725 71.4314 43.938 71.3361 43.8035 71.2402L43.731 71.342C43.5963 71.246 43.4616 71.1492 43.327 71.0518L43.4002 70.9505C43.2658 70.8533 43.1315 70.7553 42.9971 70.6567L42.9231 70.7575C42.7889 70.6589 42.6547 70.5597 42.5206 70.4598L42.5953 70.3596C42.4633 70.2613 42.3313 70.1623 42.1994 70.0627L42.1241 70.1625C41.992 70.0627 41.8599 69.9623 41.728 69.8613L41.8039 69.762C41.6722 69.6611 41.5405 69.5596 41.4088 69.4574L41.3322 69.5561C41.2007 69.4541 41.0693 69.3514 40.938 69.2481L41.0153 69.1499C40.8859 69.048 40.7565 68.9456 40.6273 68.8425L40.5494 68.9402C40.4199 68.837 40.2905 68.7331 40.1612 68.6287L40.2398 68.5314C40.1107 68.4271 39.9817 68.3222 39.8528 68.2166L39.7736 68.3134C39.6448 68.2079 39.5161 68.1019 39.3875 67.9952L39.4673 67.899C39.3405 67.7938 39.2138 67.688 39.0872 67.5817L39.0068 67.6774C38.88 67.5708 38.7534 67.4637 38.6268 67.356L38.7078 67.2608C38.5815 67.1533 38.4552 67.0451 38.3291 66.9364L38.2475 67.0311C38.1213 66.9223 37.9952 66.813 37.8693 66.7031L37.9515 66.6089C37.8274 66.5005 37.7034 66.3916 37.5795 66.2821L37.4967 66.3758C37.3727 66.2661 37.2487 66.1559 37.1249 66.0451L37.2083 65.952C37.0847 65.8414 36.9612 65.7302 36.8379 65.6185L36.754 65.7111C36.6304 65.5992 36.5071 65.4867 36.3838 65.3737L36.4683 65.2815C36.3469 65.1701 36.2255 65.0581 36.1043 64.9455L36.0192 65.0371C35.898 64.9245 35.7768 64.8113 35.6558 64.6976L35.7414 64.6065C35.6206 64.493 35.5 64.3789 35.3795 64.2643L35.2933 64.3548C35.1727 64.24 35.0522 64.1247 34.9318 64.0088L35.0185 63.9188C34.8995 63.8042 34.7806 63.689 34.6619 63.5734L34.5747 63.6629C34.4562 63.5474 34.3379 63.4314 34.2197 63.3149L34.3075 63.2259C34.1895 63.1095 34.0717 62.9927 33.9541 62.8753L33.8658 62.9637C33.748 62.8462 33.6304 62.7281 33.513 62.6095L33.6018 62.5216C33.5432 62.4624 33.4847 62.403 33.4261 62.3435C33.3676 62.2841 33.3092 62.2246 33.2509 62.165L33.1616 62.2524C33.0449 62.1331 32.9287 62.0136 32.813 61.894L32.9029 61.8071C32.7874 61.6876 32.6724 61.568 32.558 61.4482L32.4676 61.5345C32.353 61.4145 32.2389 61.2944 32.1253 61.1741L32.2162 61.0883C32.1024 60.9677 31.9892 60.847 31.8765 60.7262L31.7851 60.8115C31.6711 60.6893 31.5577 60.567 31.4449 60.4445L31.5368 60.3598C31.4241 60.2375 31.312 60.115 31.2004 59.9924L31.1079 60.0766C30.9962 59.9538 30.8849 59.8308 30.7742 59.7078L30.8672 59.6242C30.7566 59.5012 30.6466 59.3781 30.5371 59.2548L30.4436 59.3378C30.3325 59.2128 30.2221 59.0877 30.1121 58.9624L30.2061 58.8799C30.0963 58.7548 29.9871 58.6296 29.8785 58.5043L29.784 58.5861C29.6752 58.4606 29.567 58.3349 29.4593 58.2091L29.5543 58.1278C29.4468 58.0022 29.3399 57.8765 29.2335 57.7507L29.1381 57.8314C29.0302 57.7037 28.9228 57.5759 28.8161 57.448L28.9121 57.3679C28.8054 57.2401 28.6993 57.1121 28.5938 56.984L28.4973 57.0635C28.3916 56.9353 28.2865 56.8069 28.182 56.6784L28.279 56.5995C28.1747 56.4713 28.071 56.3429 27.9678 56.2145L27.8704 56.2927C27.7657 56.1624 27.6618 56.0321 27.5584 55.9016L27.6563 55.824C27.5529 55.6934 27.45 55.5627 27.3478 55.432L27.2493 55.509C27.1469 55.3781 27.0451 55.247 26.944 55.1159L27.0429 55.0396C26.9419 54.9087 26.8416 54.7777 26.7418 54.6467L26.6424 54.7224C26.5411 54.5895 26.4406 54.4565 26.3406 54.3234L26.4406 54.2483C26.3405 54.1151 26.2411 53.9817 26.1423 53.8484L26.0419 53.9228C25.9429 53.7892 25.8446 53.6555 25.747 53.5219L25.8479 53.4481C25.7505 53.3147 25.6536 53.1812 25.5575 53.0476L25.456 53.1207C25.3583 52.985 25.2612 52.8492 25.1649 52.7134L25.2668 52.6411C25.1703 52.5052 25.0745 52.3693 24.9794 52.2333L24.877 52.305C24.7818 52.1688 24.6872 52.0326 24.5933 51.8964L24.6962 51.8254C24.6025 51.6895 24.5094 51.5535 24.417 51.4175L24.3136 51.4877C24.2195 51.3491 24.1261 51.2105 24.0333 51.0719L24.1372 51.0024C24.0446 50.8639 23.9527 50.7254 23.8615 50.587L23.7571 50.6557C23.6658 50.517 23.5752 50.3784 23.4853 50.2397L23.5901 50.1717C23.5002 50.0329 23.4109 49.8941 23.3224 49.7553L23.217 49.8226C23.1268 49.6813 23.0374 49.54 22.9487 49.3988L23.0546 49.3323C22.9661 49.1914 22.8784 49.0504 22.7914 48.9095L22.685 48.9752C22.5979 48.834 22.5115 48.6929 22.4259 48.5519L22.5327 48.487C22.4466 48.3451 22.3612 48.2032 22.2766 48.0615L22.1692 48.1255C22.0834 47.9817 21.9984 47.8379 21.9142 47.6943L22.022 47.6311C21.938 47.4877 21.8547 47.3443 21.7722 47.2011L21.6639 47.2635C21.5813 47.12 21.4995 46.9765 21.4184 46.8332L21.5273 46.7717C21.4452 46.6264 21.3639 46.4813 21.2834 46.3362L21.1741 46.3968C21.093 46.2506 21.0128 46.1045 20.9334 45.9585L21.0432 45.8987C20.9639 45.753 20.8855 45.6075 20.8079 45.462L20.6976 45.5208C20.6197 45.3746 20.5426 45.2286 20.4664 45.0827L20.5772 45.0248C20.4996 44.8763 20.4229 44.728 20.3471 44.5798L20.2358 44.6367C20.1599 44.4882 20.0848 44.3398 20.0106 44.1916L20.1224 44.1357C20.0484 43.9878 19.9753 43.8401 19.903 43.6926L19.7908 43.7475C19.7173 43.5975 19.6448 43.4477 19.5733 43.2981L19.686 43.2442C19.6139 43.0935 19.5428 42.943 19.4726 42.7927L19.3594 42.8456C19.289 42.6949 19.2196 42.5445 19.1512 42.3943L19.2649 42.3424C19.1964 42.1919 19.1288 42.0417 19.0621 41.8916L18.9479 41.9424C18.8797 41.7888 18.8125 41.6355 18.7463 41.4824L18.861 41.4328C18.795 41.2801 18.73 41.1277 18.666 40.9755L18.5508 41.024C18.4866 40.8714 18.4234 40.7191 18.3613 40.5671L18.477 40.5198C18.4137 40.3649 18.3515 40.2103 18.2903 40.056L18.1741 40.1021C18.1124 39.9466 18.0519 39.7914 17.9924 39.6366L18.1091 39.5918C18.0498 39.4373 17.9915 39.2832 17.9344 39.1295L17.8172 39.173C17.759 39.0165 17.7019 38.8603 17.646 38.7044L17.7637 38.6622C17.7072 38.5048 17.6518 38.3479 17.5977 38.1913L17.4795 38.2321C17.4252 38.0751 17.372 37.9184 17.32 37.7621L17.4386 37.7226C17.3862 37.5652 17.335 37.4081 17.2849 37.2514L17.1659 37.2894C17.1148 37.1294 17.0649 36.9699 17.0162 36.8107L17.1358 36.7742C17.0873 36.6156 17.0401 36.4574 16.9941 36.2997L16.8741 36.3347C16.8275 36.1751 16.7822 36.016 16.7382 35.8573L16.8587 35.8239C16.8139 35.6624 16.7704 35.5014 16.7282 35.341L16.6073 35.3727C16.565 35.2117 16.524 35.0512 16.4844 34.8912L16.6057 34.8612C16.5659 34.7003 16.5274 34.5401 16.4903 34.3804L16.3685 34.4087C16.3304 34.2448 16.2938 34.0816 16.2585 33.9189L16.3807 33.8925C16.3456 33.7304 16.3119 33.569 16.2797 33.4082L16.1571 33.4328C16.1244 33.2694 16.0931 33.1066 16.0633 32.9445L16.1862 32.9219C16.156 32.7573 16.1272 32.5934 16.1001 32.4301L15.9768 32.4507C15.9495 32.2868 15.9237 32.1236 15.8995 31.9611L16.0231 31.9427C15.9986 31.7779 15.9757 31.6138 15.9543 31.4506L15.8304 31.4668C15.8087 31.3004 15.7886 31.1349 15.7702 30.9702L15.8944 30.9564C15.8761 30.7925 15.8595 30.6294 15.8446 30.4672L15.7201 30.4787C15.7046 30.311 15.691 30.1442 15.6791 29.9784L15.8038 29.9695C15.7919 29.8036 15.7818 29.6387 15.7735 29.4748L15.6486 29.4811C15.6402 29.3151 15.6337 29.1501 15.629 28.9861L15.7539 28.9825C15.7491 28.8151 15.7462 28.6487 15.7453 28.4834L15.6203 28.4841C15.6194 28.3178 15.6204 28.1527 15.6234 27.9886L15.7484 27.9908C15.7514 27.8241 15.7565 27.6586 15.7636 27.4943L15.6387 27.4889C15.646 27.3216 15.6554 27.1556 15.6668 26.9908L15.7915 26.9995C15.803 26.8348 15.8166 26.6713 15.8324 26.5092L15.7079 26.4971C15.7242 26.3295 15.7427 26.1633 15.7636 25.9985L15.8876 26.0142C15.9082 25.8506 15.9312 25.6884 15.9564 25.5276L15.8329 25.5083C15.8589 25.3422 15.8873 25.1777 15.9182 25.0147L16.041 25.0379C16.0718 24.8753 16.105 24.7142 16.1406 24.5548L16.0186 24.5275C16.055 24.3644 16.094 24.203 16.1355 24.0433L16.2565 24.0747C16.2982 23.9141 16.3425 23.7553 16.3893 23.5982L16.2696 23.5625C16.3171 23.403 16.3674 23.2454 16.4203 23.0895L16.5387 23.1297C16.592 22.9725 16.6481 22.8172 16.7069 22.6639L16.5902 22.6191C16.6497 22.4641 16.712 22.311 16.777 22.1599L16.8918 22.2094C16.9574 22.0571 17.0258 21.9068 17.0971 21.7587L16.9845 21.7045C17.0565 21.5547 17.1315 21.4071 17.2094 21.2616L17.3196 21.3206C17.3975 21.1751 17.4784 21.0317 17.5622 20.8906L17.4547 20.8268C17.5396 20.6838 17.6276 20.5431 17.7185 20.4047L17.823 20.4734C17.9133 20.336 18.0066 20.2009 18.1029 20.0682L18.0017 19.9948C18.0993 19.8603 18.2 19.7281 18.3038 19.5984L18.4014 19.6765C18.5037 19.5486 18.6091 19.423 18.7176 19.2998L18.6238 19.2172Z" stroke="url(#paint1_linear_1729_5266)" stroke-width="0.25" stroke-dasharray="0.5 0.5"/>
<defs>
<filter id="filter0_d_1729_5266" x="10.0586" y="10.3711" width="75.8828" height="75.2578" filterUnits="userSpaceOnUse" color-interpolation-filters="sRGB">
<feFlood flood-opacity="0" result="BackgroundImageFix"/>
<feColorMatrix in="SourceAlpha" type="matrix" values="0 0 0 0 0 0 0 0 0 0 0 0 0 0 0 0 0 0 127 0" result="hardAlpha"/>
<feOffset/>
<feGaussianBlur stdDeviation="2.5"/>
<feComposite in2="hardAlpha" operator="out"/>
<feColorMatrix type="matrix" values="0 0 0 0 0 0 0 0 0 1 0 0 0 0 0.7 0 0 0 1 0"/>
<feBlend mode="normal" in2="BackgroundImageFix" result="effect1_dropShadow_1729_5266"/>
<feBlend mode="normal" in="SourceGraphic" in2="effect1_dropShadow_1729_5266" result="shape"/>
</filter>
<linearGradient id="paint0_linear_1729_5266" x1="47.9999" y1="12.6825" x2="47.9999" y2="68.5738" gradientUnits="userSpaceOnUse">
<stop offset="0.170133" stop-color="#53FDA9" stop-opacity="0"/>
<stop offset="1" stop-color="#53FDA9"/>
</linearGradient>
<linearGradient id="paint1_linear_1729_5266" x1="68.8801" y1="29.196" x2="32.0957" y2="63.5529" gradientUnits="userSpaceOnUse">
<stop stop-color="white"/>
<stop offset="1" stop-color="white" stop-opacity="0"/>
</linearGradient>
</defs>
</svg>
