<svg width="96" height="96" viewBox="0 0 96 96" fill="none" xmlns="http://www.w3.org/2000/svg">
<path d="M46.4722 55.6232C47.199 55.7098 47.423 56.2831 47.1809 56.6978L43.5287 63.0237L46.4722 55.6232ZM46.4722 55.6232L46.4426 55.8714C46.4476 55.872 46.4526 55.8726 46.4575 55.8733L46.4739 55.8731L46.4722 55.6232ZM18.9742 37.0974C18.9744 37.0977 18.9746 37.098 18.9748 37.0984L19.1894 36.9701L18.9736 37.0962L18.9742 37.0974ZM14.7127 43.2772L14.7141 43.2747C14.7146 43.2739 14.715 43.273 14.7155 43.2722L14.4962 43.1522L14.7127 43.2772ZM14.5835 45.1718L14.3674 45.2975L14.5881 45.1802C14.5874 45.1788 14.5867 45.1774 14.5859 45.176C14.5851 45.1746 14.5843 45.1732 14.5835 45.1718ZM22.6974 59.1793C22.6967 59.178 22.6959 59.1768 22.6952 59.1755C22.6944 59.1743 22.6936 59.1731 22.6928 59.1719L22.4823 59.3067L22.6974 59.1793ZM31.9764 63.9759C31.9735 63.9757 31.9707 63.9755 31.9678 63.9754C31.965 63.9754 31.9621 63.9754 31.9592 63.9754L31.9614 64.2254L31.9764 63.9759Z" stroke="url(#paint0_linear_1729_5289)" stroke-width="0.5"/>
<path d="M48.5278 39.9472C47.801 39.8605 47.577 39.2873 47.8191 38.8725L51.4713 32.5466L48.5278 39.9472ZM48.5278 39.9472L48.5574 39.6989C48.5524 39.6983 48.5474 39.6977 48.5425 39.6971L48.5261 39.6972L48.5278 39.9472ZM76.0258 58.4729C76.0256 58.4726 76.0254 58.4723 76.0252 58.472L75.8106 58.6002L76.0264 58.4741L76.0258 58.4729ZM80.2873 52.2931L80.2859 52.2956C80.2854 52.2964 80.285 52.2973 80.2845 52.2981L80.5038 52.4181L80.2873 52.2931ZM80.4165 50.3985L80.6326 50.2728L80.4119 50.3901C80.4126 50.3915 80.4133 50.3929 80.4141 50.3943C80.4149 50.3957 80.4157 50.3971 80.4165 50.3985ZM72.3026 36.391C72.3033 36.3923 72.3041 36.3935 72.3048 36.3948C72.3056 36.396 72.3064 36.3972 72.3072 36.3984L72.5177 36.2636L72.3026 36.391ZM63.0236 31.5944C63.0265 31.5946 63.0293 31.5948 63.0322 31.5949C63.035 31.5949 63.0379 31.5949 63.0408 31.5949L63.0386 31.3449L63.0236 31.5944Z" stroke="url(#paint1_linear_1729_5289)" stroke-width="0.5"/>
<path d="M41.2275 42.9763C40.7891 43.5624 40.1807 43.4697 39.9425 43.0527L36.2902 36.7268L41.2275 42.9763ZM41.2275 42.9763L41.0274 42.8265C41.0243 42.8305 41.0213 42.8345 41.0183 42.8384L41.0102 42.8527L41.2275 42.9763ZM71.0203 28.4252C71.0199 28.4252 71.0196 28.4252 71.0192 28.4252L71.023 28.6752L71.0217 28.4252L71.0203 28.4252ZM67.7992 21.6446L67.8006 21.6472C67.8011 21.648 67.8016 21.6488 67.8021 21.6496L68.0157 21.5196L67.7992 21.6446ZM66.223 20.5855L66.2222 20.3355L66.2135 20.5853C66.215 20.5854 66.2166 20.5854 66.2182 20.5855C66.2198 20.5855 66.2214 20.5855 66.223 20.5855ZM50.0353 20.6086C50.0367 20.6086 50.0382 20.6086 50.0396 20.6085C50.0411 20.6085 50.0425 20.6084 50.0439 20.6083L50.0324 20.3586L50.0353 20.6086ZM41.2418 26.2461C41.2434 26.2437 41.2449 26.2413 41.2465 26.239C41.2479 26.2365 41.2493 26.234 41.2507 26.2315L41.0332 26.1083L41.2418 26.2461Z" stroke="url(#paint2_linear_1729_5289)" stroke-width="0.5"/>
<path d="M53.7725 52.5941C54.2109 52.008 54.8193 52.1006 55.0575 52.5176L58.7098 58.8435L53.7725 52.5941ZM53.7725 52.5941L53.9726 52.7438C53.9757 52.7398 53.9787 52.7358 53.9817 52.7319L53.9898 52.7176L53.7725 52.5941ZM23.9797 67.1451C23.9801 67.1451 23.9804 67.1451 23.9808 67.1451L23.977 66.8951L23.9783 67.1451L23.9797 67.1451ZM27.2008 73.9257L27.1994 73.9232C27.1989 73.9223 27.1984 73.9215 27.1979 73.9207L26.9843 74.0507L27.2008 73.9257ZM28.777 74.9848L28.7778 75.2348L28.7865 74.985C28.785 74.9849 28.7834 74.9849 28.7818 74.9848C28.7802 74.9848 28.7786 74.9848 28.777 74.9848ZM44.9647 74.9617C44.9633 74.9617 44.9618 74.9618 44.9604 74.9618C44.9589 74.9618 44.9575 74.9619 44.9561 74.962L44.9676 75.2117L44.9647 74.9617ZM53.7582 69.3242C53.7566 69.3266 53.7551 69.329 53.7535 69.3313C53.7521 69.3338 53.7507 69.3363 53.7493 69.3388L53.9668 69.462L53.7582 69.3242Z" stroke="url(#paint3_linear_1729_5289)" stroke-width="0.5"/>
<path d="M40.3872 50.5722C40.6721 51.2407 40.2922 51.7181 39.8177 51.7159H32.5996L40.3872 50.5722ZM40.3872 50.5722L40.1572 50.6702C40.1592 50.6749 40.1611 50.6795 40.163 50.684L40.1712 50.6982L40.3872 50.5722ZM42.652 17.7081C42.6518 17.7085 42.6516 17.7088 42.6514 17.7092L42.8701 17.8304L42.6526 17.707L42.652 17.7081ZM35.2607 17.1133H35.2636C35.2646 17.1133 35.2655 17.1132 35.2665 17.1132L35.2607 16.8633V17.1133ZM33.5784 17.942L33.3612 17.8182L33.5735 17.9502C33.5743 17.9489 33.5752 17.9475 33.576 17.9462C33.5768 17.9448 33.5776 17.9434 33.5784 17.942ZM25.6001 31.8822C25.6008 31.8809 25.6015 31.8796 25.6022 31.8784C25.6028 31.8771 25.6035 31.8758 25.6042 31.8745L25.3819 31.7601L25.6001 31.8822ZM26.0798 42.2485C26.0786 42.246 26.0773 42.2435 26.0761 42.2409C26.0746 42.2384 26.0732 42.236 26.0717 42.2335L25.856 42.3598L26.0798 42.2485Z" stroke="url(#paint4_linear_1729_5289)" stroke-width="0.5"/>
<path d="M54.6128 44.752C54.3279 44.0836 54.7078 43.6061 55.1823 43.6083H62.4004L54.6128 44.752ZM54.6128 44.752L54.8428 44.654C54.8408 44.6494 54.8389 44.6448 54.837 44.6402L54.8288 44.626L54.6128 44.752ZM52.348 77.6161C52.3482 77.6157 52.3484 77.6154 52.3486 77.615L52.1299 77.4938L52.3474 77.6172L52.348 77.6161ZM59.7393 78.2109H59.7364C59.7354 78.211 59.7345 78.211 59.7335 78.211L59.7393 78.4609V78.2109ZM61.4216 77.3822L61.6388 77.506L61.4265 77.374C61.4257 77.3754 61.4248 77.3767 61.424 77.378C61.4232 77.3794 61.4224 77.3808 61.4216 77.3822ZM69.3999 63.4421C69.3992 63.4433 69.3985 63.4446 69.3978 63.4459C69.3972 63.4471 69.3965 63.4484 69.3958 63.4497L69.6181 63.5641L69.3999 63.4421ZM68.9202 53.0757C68.9214 53.0782 68.9227 53.0808 68.9239 53.0833C68.9254 53.0858 68.9268 53.0883 68.9283 53.0907L69.144 52.9644L68.9202 53.0757Z" stroke="url(#paint5_linear_1729_5289)" stroke-width="0.5"/>
<path d="M2 48C2 73.4051 22.5949 94 48 94C73.4051 94 94 73.4051 94 48C94 22.5949 73.4051 2 48 2C22.5949 2 2 22.5949 2 48Z" stroke="url(#paint6_linear_1729_5289)" stroke-width="0.5" stroke-miterlimit="10"/>
<g filter="url(#filter0_d_1729_5289)">
<path d="M43 48C43 50.7614 45.2386 53 48 53C50.7614 53 53 50.7614 53 48C53 45.2386 50.7614 43 48 43C45.2386 43 43 45.2386 43 48Z" fill="white"/>
</g>
<path d="M18.3258 77.8543C18.1764 77.7778 18.0381 77.6887 17.9113 77.5867L17.9896 77.4893C17.9287 77.4403 17.8706 77.3882 17.8153 77.3329C17.7601 77.2777 17.708 77.2196 17.659 77.1587L17.5616 77.237C17.4596 77.1102 17.3705 76.9719 17.294 76.8225L17.4052 76.7655C17.3357 76.6297 17.2768 76.4836 17.2286 76.3273L17.1091 76.3642C17.0621 76.2117 17.025 76.0505 16.9977 75.881L17.1211 75.8612C17.0964 75.7078 17.0799 75.5469 17.0716 75.3784L16.9468 75.3846C16.9389 75.2258 16.9382 75.0611 16.9445 74.8905L17.0694 74.8951C17.0752 74.7397 17.0869 74.5789 17.1045 74.413L16.9802 74.3999C16.9972 74.2394 17.0196 74.0746 17.0474 73.9054L17.1708 73.9256C17.1965 73.769 17.2269 73.6084 17.2619 73.444L17.1396 73.4179C17.173 73.2613 17.2105 73.1014 17.2521 72.9382L17.3732 72.969C17.4133 72.8117 17.4572 72.6511 17.505 72.4875L17.385 72.4525C17.4296 72.2996 17.4776 72.1441 17.5287 71.9861L17.6476 72.0246C17.6981 71.869 17.7517 71.7107 17.8085 71.55L17.6906 71.5084C17.7438 71.3579 17.7997 71.2053 17.8584 71.0506L17.9753 71.0949C18.0336 70.9411 18.0946 70.7852 18.1584 70.6272L18.0425 70.5804C18.1023 70.4321 18.1645 70.2821 18.229 70.1303L18.344 70.1792C18.4082 70.0282 18.4747 69.8755 18.5435 69.721L18.4293 69.6702C18.495 69.5227 18.5627 69.3737 18.6326 69.2232L18.746 69.2758C18.8146 69.1278 18.8853 68.9784 18.9579 68.8276L18.8453 68.7733C18.9163 68.6259 18.9892 68.4771 19.0639 68.3269L19.1758 68.3827C19.248 68.2378 19.3219 68.0916 19.3975 67.9443L19.2863 67.8872C19.3621 67.7394 19.4397 67.5904 19.5191 67.4402L19.6296 67.4985C19.7046 67.3564 19.7812 67.2132 19.8593 67.069L19.7494 67.0095C19.8276 66.8651 19.9074 66.7196 19.9886 66.5731L20.0979 66.6338C20.1776 66.4902 20.2587 66.3456 20.3412 66.2001L20.2325 66.1384C20.3126 65.9972 20.3941 65.855 20.4769 65.712L20.5851 65.7747C20.6677 65.6319 20.7517 65.4883 20.837 65.3438L20.7294 65.2803C20.8126 65.1395 20.897 64.9978 20.9827 64.8554L21.0898 64.9198C21.1737 64.7802 21.2589 64.6399 21.3452 64.4988L21.2386 64.4335C21.3251 64.2922 21.4128 64.15 21.5017 64.0071L21.6079 64.0732C21.6939 63.9349 21.7811 63.7959 21.8694 63.6562L21.7637 63.5894C21.8511 63.4512 21.9395 63.3122 22.029 63.1726L22.1342 63.2401C22.2236 63.1008 22.3141 62.9608 22.4056 62.8201L22.3008 62.752C22.3899 62.615 22.48 62.4774 22.5711 62.3393L22.6755 62.4081C22.7654 62.2717 22.8563 62.1348 22.9482 61.9973L22.8443 61.9278C22.9363 61.7901 23.0292 61.6518 23.1232 61.513L23.2267 61.583C23.3185 61.4473 23.4113 61.3111 23.5049 61.1743L23.4018 61.1037C23.4941 60.9688 23.5873 60.8335 23.6814 60.6976L23.7842 60.7688C23.8781 60.6331 23.973 60.497 24.0687 60.3603L23.9663 60.2886C24.0611 60.1533 24.1567 60.0176 24.2531 59.8813L24.3552 59.9536C24.4493 59.8206 24.5443 59.6872 24.64 59.5534L24.5384 59.4807C24.6342 59.3467 24.7309 59.2122 24.8284 59.0774L24.9297 59.1506C25.027 59.0159 25.1252 58.8808 25.2241 58.7453L25.1232 58.6716C25.2192 58.5401 25.316 58.4081 25.4135 58.2758L25.5141 58.35C25.6114 58.218 25.7094 58.0855 25.8082 57.9528L25.7079 57.8782C25.8068 57.7452 25.9064 57.6119 26.0067 57.4783L26.1067 57.5533C26.2055 57.4218 26.3049 57.2899 26.4051 57.1576L26.3054 57.0822C26.4042 56.9517 26.5037 56.821 26.6038 56.6899L26.7031 56.7658C26.8032 56.6348 26.9038 56.5035 27.0052 56.372L26.9062 56.2957C27.0076 56.164 27.1098 56.0319 27.2125 55.8996L27.3113 55.9763C27.4114 55.8474 27.5121 55.7182 27.6135 55.5888L27.515 55.5117C27.6163 55.3824 27.7182 55.2528 27.8206 55.123L27.9188 55.2004C28.0212 55.0707 28.1242 54.9406 28.2278 54.8104L28.1299 54.7326C28.233 54.603 28.3366 54.4732 28.4409 54.3431L28.5384 54.4212C28.6406 54.2937 28.7434 54.166 28.8467 54.038L28.7494 53.9595C28.8528 53.8314 28.9568 53.703 29.0614 53.5744L29.1584 53.6533C29.2628 53.5248 29.3679 53.3962 29.4735 53.2672L29.3768 53.188C29.4813 53.0605 29.5863 52.9327 29.6919 52.8047L29.7883 52.8842C29.8925 52.7579 29.9973 52.6314 30.1025 52.5047L30.0064 52.4248C30.1117 52.2979 30.2176 52.1709 30.324 52.0437L30.4199 52.1239C30.5262 51.9967 30.6331 51.8694 30.7404 51.7419L30.6448 51.6614C30.7508 51.5355 30.8573 51.4095 30.9643 51.2832L31.0597 51.3641C31.1657 51.239 31.2722 51.1137 31.3793 50.9883L31.2842 50.9071C31.3913 50.7816 31.4989 50.6559 31.607 50.53L31.7018 50.6115C31.8098 50.4857 31.9183 50.3598 32.0272 50.2337L31.9327 50.152C32.0402 50.0275 32.1482 49.903 32.2567 49.7782L32.3511 49.8602C32.4588 49.7364 32.5669 49.6124 32.6756 49.4883L32.5815 49.406C32.6902 49.2818 32.7994 49.1574 32.909 49.033L33.0028 49.1156C33.1123 48.9912 33.2223 48.8667 33.3327 48.7421L33.2392 48.6592C33.3483 48.536 33.4579 48.4126 33.568 48.2892L33.6613 48.3724C33.7705 48.2498 33.8802 48.1271 33.9903 48.0044L33.8973 47.9209C34.0074 47.798 34.118 47.6751 34.2291 47.552L34.3219 47.6357C34.4328 47.5127 34.5442 47.3896 34.656 47.2664L34.5634 47.1824C34.6742 47.0603 34.7855 46.9381 34.8971 46.8159L34.9894 46.9001C35.1001 46.7788 35.2112 46.6575 35.3227 46.536L35.2306 46.4515C35.3422 46.33 35.4541 46.2084 35.5665 46.0867L35.6583 46.1715C35.7706 46.0499 35.8833 45.9282 35.9963 45.8064L35.9048 45.7214C36.0172 45.6003 36.1301 45.4791 36.2433 45.3579L36.3346 45.4432C36.4467 45.3232 36.5591 45.2031 36.6719 45.083L36.5808 44.9975C36.6937 44.8773 36.8069 44.757 36.9206 44.6367L37.0114 44.7225C37.125 44.6023 37.2389 44.482 37.3532 44.3617L37.2625 44.2756C37.3766 44.1555 37.4911 44.0353 37.6059 43.915L37.6963 44.0014C37.8097 43.8827 37.9234 43.7639 38.0375 43.6451L37.9473 43.5586C38.0615 43.4397 38.1759 43.3208 38.2908 43.2018L38.3807 43.2887C38.4955 43.1698 38.6106 43.0509 38.726 42.932L38.6363 42.8449C38.7518 42.7259 38.8677 42.6069 38.9839 42.4879L39.0733 42.5752C39.1882 42.4575 39.3034 42.3399 39.4188 42.2222L39.3296 42.1346C39.445 42.0171 39.5607 41.8995 39.6767 41.782L39.7657 41.8697C39.8816 41.7523 39.9978 41.6347 40.1144 41.5172L40.0257 41.4292C40.1423 41.3116 40.2593 41.194 40.3766 41.0764L40.4651 41.1647L40.6412 40.9884L40.8174 40.8123L40.7292 40.7238C40.8468 40.6065 40.9644 40.4895 41.082 40.3729L41.17 40.4616C41.2875 40.3451 41.405 40.2288 41.5225 40.1129L41.4347 40.0239C41.5523 39.9079 41.6699 39.7922 41.7874 39.6769L41.875 39.7661C41.9927 39.6506 42.1103 39.5354 42.228 39.4206L42.1407 39.3311C42.2597 39.2149 42.3787 39.0991 42.4977 38.9835L42.5848 39.0732C42.7037 38.9578 42.8226 38.8427 42.9415 38.7279L42.8546 38.638C42.9736 38.5232 43.0925 38.4087 43.2113 38.2945L43.2979 38.3847C43.4167 38.2706 43.5354 38.1569 43.6541 38.0436L43.5678 37.9532C43.6881 37.8383 43.8083 37.7239 43.9284 37.6098L44.0145 37.7004C44.1348 37.5861 44.2551 37.4722 44.3753 37.3587L44.2895 37.2678C44.4098 37.1542 44.53 37.0409 44.6502 36.928L44.7358 37.0191C44.8559 36.9063 44.976 36.7939 45.096 36.6818L45.0106 36.5905C45.1319 36.4773 45.2531 36.3644 45.3742 36.252L45.4592 36.3436C45.581 36.2305 45.7026 36.1178 45.8242 36.0055L45.7395 35.9137C45.8611 35.8013 45.9828 35.6894 46.1043 35.5778L46.1888 35.6699C46.3103 35.5584 46.4316 35.4473 46.5529 35.3366L46.4686 35.2443C46.5909 35.1327 46.7131 35.0215 46.8352 34.9106L46.9192 35.0032C47.0424 34.8914 47.1655 34.7801 47.2885 34.6691L47.2048 34.5763C47.3278 34.4653 47.4508 34.3547 47.5737 34.2445L47.6572 34.3375C47.7799 34.2274 47.9026 34.1177 48.0252 34.0085L47.942 33.9152C48.0654 33.8051 48.1888 33.6955 48.312 33.5864L48.3949 33.6799C48.5195 33.5695 48.644 33.4595 48.7684 33.35L48.6858 33.2562C48.8102 33.1466 48.9346 33.0374 49.0588 32.9287L49.1411 33.0228C49.2652 32.9141 49.3892 32.806 49.513 32.6983L49.431 32.604C49.5557 32.4955 49.6803 32.3874 49.8048 32.2799L49.8865 32.3744C50.0126 32.2655 50.1385 32.157 50.2643 32.049L50.1828 31.9542C50.3087 31.8461 50.4344 31.7385 50.5599 31.6314L50.641 31.7265C50.7665 31.6195 50.8917 31.5129 51.0168 31.4069L50.936 31.3115C51.0623 31.2045 51.1883 31.098 51.3142 30.992L51.3947 31.0876C51.5222 30.9803 51.6495 30.8734 51.7766 30.7671L51.6965 30.6712C51.8237 30.5648 51.9507 30.4589 52.0776 30.3536L52.1574 30.4497C52.2842 30.3445 52.4107 30.2397 52.537 30.1355L52.4575 30.0391C52.5855 29.9335 52.7133 29.8285 52.8408 29.724L52.92 29.8207C53.0489 29.7151 53.1776 29.6101 53.3061 29.5056L53.2272 29.4086C53.3558 29.3041 53.4841 29.2001 53.6122 29.0966L53.6908 29.1939C53.8188 29.0906 53.9465 28.9878 54.074 28.8856L53.9958 28.7881C54.1259 28.6838 54.2558 28.5802 54.3853 28.4771L54.4631 28.575C54.5934 28.4714 54.7234 28.3684 54.8532 28.266L54.7757 28.1679C54.9056 28.0654 55.0352 27.9635 55.1645 27.8623L55.2416 27.9607C55.371 27.8593 55.5002 27.7586 55.6291 27.6585L55.5524 27.5598C55.6847 27.457 55.8168 27.3549 55.9485 27.2534L56.0247 27.3524C56.1563 27.2511 56.2876 27.1504 56.4185 27.0503L56.3427 26.951C56.4737 26.8509 56.6045 26.7514 56.7349 26.6526L56.8104 26.7523C56.9427 26.6521 57.0746 26.5527 57.2061 26.4539L57.1311 26.354C57.2647 26.2536 57.398 26.154 57.5309 26.0551L57.6055 26.1554C57.7383 26.0567 57.8707 25.9586 58.0028 25.8613L57.9286 25.7607C58.0609 25.6632 58.1929 25.5664 58.3244 25.4704L58.3981 25.5713C58.5336 25.4724 58.6687 25.3743 58.8034 25.2769L58.7302 25.1756C58.865 25.0781 58.9994 24.9815 59.1334 24.8856L59.2062 24.9872C59.34 24.8915 59.4734 24.7965 59.6064 24.7024L59.5341 24.6004C59.6703 24.5039 59.8061 24.4083 59.9414 24.3135L60.0131 24.4159C60.1497 24.3202 60.2859 24.2254 60.4216 24.1314L60.3504 24.0286C60.4862 23.9345 60.6216 23.8413 60.7564 23.749L60.8271 23.8521C60.9638 23.7585 61.1001 23.6657 61.2358 23.5739L61.1658 23.4704C61.3046 23.3765 61.4429 23.2835 61.5806 23.1915L61.65 23.2954C61.7876 23.2035 61.9245 23.1126 62.0609 23.0227L61.9921 22.9184C62.1302 22.8272 62.2678 22.7371 62.4047 22.648L62.4729 22.7528C62.6136 22.6613 62.7536 22.5708 62.8929 22.4815L62.8254 22.3763C62.965 22.2867 63.1039 22.1983 63.2422 22.1109L63.309 22.2166C63.4487 22.1283 63.5877 22.0411 63.726 21.9551L63.6599 21.849C63.8028 21.7601 63.9449 21.6723 64.0863 21.5858L64.1516 21.6925C64.2927 21.6061 64.433 21.5209 64.5726 21.437L64.5081 21.3299C64.6506 21.2442 64.7922 21.1598 64.9331 21.0766L64.9966 21.1843C65.1411 21.0989 65.2847 21.0149 65.4274 20.9323L65.3648 20.8241C65.5078 20.7413 65.65 20.6598 65.7912 20.5797L65.8529 20.6884C65.9984 20.6059 66.143 20.5248 66.2865 20.4451L66.2259 20.3358C66.3724 20.2546 66.5179 20.1748 66.6623 20.0966L66.7218 20.2065C66.866 20.1284 67.0092 20.0518 67.1513 19.9768L67.0929 19.8663C67.2431 19.787 67.3922 19.7094 67.54 19.6335L67.597 19.7447C67.7444 19.6691 67.8905 19.5952 68.0354 19.523L67.9797 19.4111C68.1298 19.3364 68.2787 19.2635 68.4261 19.1925L68.4803 19.3051C68.6312 19.2325 68.7806 19.1618 68.9286 19.0932L68.876 18.9798C69.0265 18.9099 69.1755 18.8422 69.323 18.7765L69.3738 18.8907C69.5283 18.8219 69.681 18.7554 69.832 18.6912L69.7831 18.5762C69.9349 18.5117 70.0849 18.4495 70.2332 18.3897L70.28 18.5056C70.4379 18.4419 70.5939 18.3808 70.7477 18.3225L70.7034 18.2056C70.858 18.147 71.0107 18.091 71.1612 18.0378L71.2028 18.1557C71.3635 18.0989 71.5217 18.0453 71.6774 17.9949L71.6389 17.8759C71.7969 17.8248 71.9524 17.7769 72.1053 17.7322L72.1403 17.8522C72.3039 17.8044 72.4644 17.7605 72.6218 17.7204L72.591 17.5993C72.7541 17.5577 72.9141 17.5202 73.0707 17.4869L73.0968 17.6091C73.2612 17.5741 73.4218 17.5437 73.5784 17.518L73.5581 17.3946C73.7273 17.3668 73.8922 17.3444 74.0526 17.3274L74.0658 17.4517C74.2317 17.4341 74.3924 17.4224 74.5479 17.4166L74.5433 17.2917C74.7139 17.2854 74.8786 17.2861 75.0374 17.294L75.0312 17.4188C75.1996 17.4271 75.3606 17.4436 75.5139 17.4683L75.5338 17.3449C75.7033 17.3722 75.8644 17.4093 76.0169 17.4563L75.9801 17.5758C76.1364 17.624 76.2825 17.6829 76.4183 17.7524L76.4753 17.6412C76.6247 17.7177 76.763 17.8068 76.8898 17.9088L76.8115 18.0062C76.8724 18.0552 76.9305 18.1073 76.9857 18.1625C77.041 18.2178 77.0931 18.2758 77.1421 18.3368L77.2395 18.2584C77.3414 18.3853 77.4306 18.5235 77.5071 18.6729L77.3958 18.7299C77.4653 18.8657 77.5242 19.0119 77.5725 19.1681L77.6919 19.1313C77.739 19.2838 77.776 19.4449 77.8033 19.6144L77.6799 19.6343C77.7046 19.7876 77.7211 19.9486 77.7294 20.117L77.8543 20.1109C77.8621 20.2696 77.8628 20.4343 77.8565 20.6049L77.7316 20.6003C77.7259 20.7558 77.7142 20.9165 77.6966 21.0824L77.8209 21.0956C77.8039 21.256 77.7814 21.4209 77.7536 21.5901L77.6303 21.5698C77.6045 21.7265 77.5742 21.887 77.5391 22.0515L77.6614 22.0775C77.628 22.2341 77.5905 22.3941 77.549 22.5573L77.4278 22.5264C77.3877 22.6838 77.3438 22.8443 77.296 23.0079L77.416 23.0429C77.3714 23.1958 77.3235 23.3513 77.2723 23.5093L77.1534 23.4708C77.103 23.6265 77.0493 23.7847 76.9926 23.9454L77.1104 23.987C77.0572 24.1376 77.0013 24.2902 76.9426 24.4449L76.8258 24.4005C76.7674 24.5544 76.7064 24.7103 76.6427 24.8682L76.7586 24.915C76.6988 25.0633 76.6366 25.2134 76.5721 25.3651L76.457 25.3162C76.3929 25.4672 76.3264 25.62 76.2576 25.7744L76.3718 25.8253C76.3061 25.9727 76.2383 26.1218 76.1685 26.2723L76.0551 26.2197C75.9864 26.3676 75.9158 26.517 75.8431 26.6679L75.9558 26.7221C75.8848 26.8696 75.8119 27.0184 75.7371 27.1685L75.6252 27.1128C75.5531 27.2577 75.4792 27.4038 75.4035 27.5512L75.5148 27.6083C75.4389 27.7561 75.3613 27.9051 75.282 28.0553L75.1714 27.9969C75.0964 28.139 75.0198 28.2822 74.9417 28.4264L75.0516 28.486C74.9734 28.6304 74.8937 28.7758 74.8124 28.9223L74.7031 28.8617C74.6235 29.0052 74.5424 29.1498 74.4598 29.2954L74.5685 29.357C74.4884 29.4983 74.4069 29.6404 74.3241 29.7834L74.216 29.7208C74.1333 29.8635 74.0493 30.0071 73.964 30.1516L74.0716 30.2152C73.9885 30.356 73.904 30.4976 73.8184 30.6401L73.7112 30.5756C73.6273 30.7152 73.5422 30.8555 73.4558 30.9967L73.5624 31.0619C73.4759 31.2033 73.3882 31.3454 73.2993 31.4883L73.1932 31.4223C73.1071 31.5606 73.0199 31.6996 72.9317 31.8393L73.0373 31.906C72.95 32.0443 72.8615 32.1832 72.772 32.3228L72.6668 32.2553C72.5774 32.3947 72.487 32.5347 72.3955 32.6753L72.5002 32.7435C72.4111 32.8804 72.321 33.018 72.2299 33.1562L72.1255 33.0873C72.0356 33.2237 71.9447 33.3607 71.8528 33.4982L71.9568 33.5676C71.8648 33.7053 71.7718 33.8436 71.6779 33.9825L71.5743 33.9124C71.4825 34.0481 71.3898 34.1844 71.2961 34.3212L71.3993 34.3918C71.3069 34.5266 71.2137 34.662 71.1196 34.7978L71.0169 34.7267C70.9229 34.8623 70.8281 34.9985 70.7323 35.1351L70.8347 35.2068C70.74 35.3421 70.6443 35.4779 70.5479 35.6141L70.4459 35.5419C70.3517 35.6748 70.2568 35.8082 70.161 35.942L70.2627 36.0148C70.1668 36.1488 70.0701 36.2832 69.9727 36.418L69.8714 36.3448C69.774 36.4795 69.6759 36.6146 69.5769 36.7501L69.6779 36.8238C69.5818 36.9554 69.4851 37.0873 69.3876 37.2196L69.2869 37.1454C69.1896 37.2775 69.0916 37.4099 68.9928 37.5427L69.0931 37.6173C68.9942 37.7502 68.8946 37.8835 68.7943 38.0171L68.6943 37.9421C68.5956 38.0737 68.4961 38.2056 68.396 38.3378L68.4956 38.4133C68.3968 38.5437 68.2974 38.6745 68.1972 38.8056L68.0979 38.7297C67.9979 38.8606 67.8972 38.9919 67.7958 39.1235L67.8949 39.1998C67.7934 39.3315 67.6913 39.4635 67.5885 39.5958L67.4898 39.5191C67.3897 39.648 67.2889 39.7772 67.1876 39.9066L67.286 39.9837C67.1847 40.113 67.0829 40.2426 66.9804 40.3725L66.8823 40.295C66.7799 40.4248 66.6769 40.5548 66.5733 40.6851L66.6711 40.7629C66.5681 40.8925 66.4644 41.0223 66.3602 41.1524L66.2626 41.0742C66.1604 41.2017 66.0577 41.3295 65.9544 41.4575L66.0516 41.536C65.9482 41.6641 65.8442 41.7924 65.7396 41.921L65.6427 41.8421C65.5382 41.9706 65.4332 42.0993 65.3276 42.2282L65.4243 42.3074C65.3198 42.435 65.2147 42.5627 65.1092 42.6907L65.0127 42.6112C64.9085 42.7375 64.8038 42.8641 64.6985 42.9908L64.7947 43.0707C64.6893 43.1975 64.5834 43.3245 64.477 43.4518L64.3811 43.3716C64.2748 43.4987 64.168 43.626 64.0606 43.7535L64.1562 43.834C64.0502 43.9599 63.9437 44.086 63.8367 44.2122L63.7414 44.1314C63.6353 44.2565 63.5288 44.3817 63.4218 44.5072L63.5169 44.5883C63.4098 44.7138 63.3022 44.8395 63.1941 44.9654L63.0992 44.884C62.9913 45.0097 62.8828 45.1356 62.7738 45.2617L62.8684 45.3434C62.7608 45.4679 62.6528 45.5925 62.5443 45.7172L62.45 45.6352C62.3423 45.759 62.2341 45.883 62.1255 46.0071L62.2195 46.0894C62.1108 46.2137 62.0017 46.338 61.8921 46.4625L61.7983 46.3799C61.6887 46.5042 61.5787 46.6287 61.4683 46.7534L61.5619 46.8363C61.4527 46.9595 61.3431 47.0828 61.2331 47.2062L61.1398 47.1231C61.0305 47.2456 60.9208 47.3683 60.8107 47.4911L60.9038 47.5745C60.7936 47.6974 60.683 47.8204 60.572 47.9435L60.4791 47.8597C60.3682 47.9827 60.2568 48.1058 60.145 48.229L60.2376 48.313C60.1268 48.4351 60.0156 48.5573 59.904 48.6796L59.8116 48.5953C59.7009 48.7166 59.5899 48.838 59.4784 48.9594L59.5704 49.0439C59.4589 49.1655 59.3469 49.2871 59.2345 49.4088L59.1427 49.324C59.0304 49.4456 58.9178 49.5673 58.8047 49.689L58.8963 49.7741C58.7838 49.8952 58.671 50.0163 58.5578 50.1376L58.4664 50.0523C58.3543 50.1722 58.2419 50.2923 58.1291 50.4124L58.2202 50.498C58.1073 50.6182 57.9941 50.7384 57.8805 50.8587L57.7896 50.7729C57.676 50.8931 57.5621 51.0134 57.4479 51.1337L57.5385 51.2198C57.4244 51.34 57.3099 51.4602 57.1951 51.5804L57.1047 51.4941C56.9913 51.6128 56.8776 51.7315 56.7636 51.8503L56.8537 51.9369C56.7396 52.0558 56.6251 52.1747 56.5103 52.2936L56.4203 52.2068C56.3056 52.3256 56.1905 52.4445 56.075 52.5634L56.1647 52.6505C56.0492 52.7695 55.9333 52.8885 55.8171 53.0076L55.7277 52.9202C55.6129 53.0379 55.4977 53.1556 55.3822 53.2733L55.4714 53.3608C55.3561 53.4783 55.2404 53.5959 55.1244 53.7135L55.0354 53.6257C54.9195 53.7432 54.8032 53.8607 54.6866 53.9782L54.7754 54.0662C54.6587 54.1838 54.5417 54.3014 54.4245 54.4191L54.3359 54.3308L54.1599 54.5071L53.9836 54.6831L54.0719 54.7716C53.9543 54.8889 53.8367 55.0059 53.7191 55.1226L53.631 55.0338C53.5135 55.1504 53.396 55.2666 53.2785 55.3826L53.3663 55.4715C53.2487 55.5876 53.1312 55.7032 53.0136 55.8186L52.9261 55.7294C52.8084 55.8449 52.6907 55.96 52.5731 56.0749L52.6604 56.1643C52.5413 56.2805 52.4223 56.3964 52.3033 56.5119L52.2162 56.4222C52.0973 56.5377 51.9784 56.6528 51.8596 56.7675L51.9464 56.8574C51.8275 56.9723 51.7086 57.0868 51.5897 57.2009L51.5031 57.1107C51.3843 57.2248 51.2656 57.3385 51.1469 57.4519L51.2332 57.5423C51.113 57.6571 50.9928 57.7716 50.8726 57.8857L50.7866 57.795C50.6662 57.9093 50.546 58.0232 50.4257 58.1368L50.5116 58.2277C50.3912 58.3413 50.271 58.4545 50.1508 58.5674L50.0652 58.4763C49.9451 58.5891 49.8251 58.7015 49.7051 58.8136L49.7904 58.9049C49.6692 59.0182 49.548 59.131 49.4269 59.2435L49.3418 59.1519C49.2201 59.2649 49.0984 59.3776 48.9768 59.4899L49.0616 59.5817C48.9399 59.6941 48.8183 59.8061 48.6968 59.9176L48.6122 59.8255C48.4908 59.937 48.3694 60.0481 48.2481 60.1588L48.3324 60.2512C48.2101 60.3628 48.0879 60.474 47.9658 60.5848L47.8818 60.4922C47.7586 60.604 47.6355 60.7154 47.5125 60.8263L47.5963 60.9191C47.4732 61.0302 47.3502 61.1408 47.2273 61.251L47.1439 61.1579C47.0211 61.268 46.8984 61.3777 46.7759 61.4869L46.859 61.5803C46.7356 61.6903 46.6123 61.7999 46.4891 61.9091L46.4062 61.8155C46.2816 61.9259 46.157 62.0359 46.0327 62.1454L46.1153 62.2392C45.9908 62.3489 45.8665 62.458 45.7423 62.5667L45.6599 62.4727C45.5358 62.5813 45.4118 62.6895 45.288 62.7972L45.37 62.8915C45.2453 63 45.1207 63.108 44.9963 63.2156L44.9145 63.121C44.7885 63.23 44.6625 63.3384 44.5368 63.4464L44.6182 63.5413C44.4924 63.6493 44.3667 63.7569 44.2411 63.864L44.16 63.769C44.0346 63.876 43.9093 63.9825 43.7842 64.0886L43.865 64.1839C43.7388 64.2909 43.6127 64.3974 43.4868 64.5034L43.4063 64.4078C43.2788 64.5151 43.1515 64.622 43.0244 64.7283L43.1046 64.8242C42.9774 64.9306 42.8503 65.0365 42.7235 65.1419L42.6436 65.0457C42.5169 65.151 42.3903 65.2557 42.264 65.3599L42.3436 65.4563C42.2156 65.5619 42.0878 65.667 41.9602 65.7715L41.881 65.6748C41.7521 65.7803 41.6234 65.8854 41.495 65.9898L41.5738 66.0868C41.4452 66.1914 41.3169 66.2954 41.1888 66.3988L41.1103 66.3015C40.9823 66.4049 40.8545 66.5076 40.727 66.6098L40.8052 66.7073C40.6751 66.8116 40.5453 66.9152 40.4157 67.0183L40.3379 66.9205C40.2076 67.0241 40.0776 67.1271 39.9479 67.2295L40.0253 67.3276C39.8954 67.4301 39.7658 67.5319 39.6365 67.6332L39.5595 67.5348C39.43 67.6361 39.3008 67.7368 39.172 67.837L39.2486 67.9357C39.1163 68.0385 38.9843 68.1406 38.8526 68.242L38.7763 68.143C38.6447 68.2444 38.5134 68.3451 38.3825 68.4451L38.4584 68.5444C38.3273 68.6446 38.1965 68.744 38.0661 68.8428L37.9906 68.7431C37.8584 68.8433 37.7265 68.9428 37.5949 69.0415L37.67 69.1415C37.5363 69.2418 37.403 69.3414 37.2701 69.4403L37.1955 69.34C37.0627 69.4388 36.9303 69.5368 36.7983 69.6341L36.8724 69.7347C36.7401 69.8323 36.6082 69.929 36.4766 70.0251L36.4029 69.9241C36.2674 70.023 36.1323 70.1212 35.9976 70.2185L36.0709 70.3198C35.936 70.4173 35.8016 70.514 35.6676 70.6099L35.5949 70.5082C35.461 70.604 35.3276 70.6989 35.1947 70.7931L35.2669 70.8951C35.1307 70.9915 34.9949 71.0871 34.8597 71.1819L34.7879 71.0795C34.6513 71.1752 34.5151 71.2701 34.3795 71.3641L34.4507 71.4668C34.3148 71.5609 34.1794 71.6541 34.0446 71.7465L33.974 71.6433C33.8372 71.737 33.701 71.8297 33.5652 71.9215L33.6353 72.0251C33.4964 72.119 33.3581 72.212 33.2204 72.304L33.151 72.2C33.0135 72.2919 32.8765 72.3828 32.7402 72.4727L32.809 72.5771C32.6708 72.6682 32.5333 72.7583 32.3963 72.8474L32.3281 72.7426C32.1875 72.8342 32.0475 72.9246 31.9081 73.014L31.9756 73.1192C31.836 73.2087 31.6971 73.2972 31.5589 73.3845L31.4921 73.2789C31.3524 73.3671 31.2134 73.4543 31.0751 73.5403L31.1411 73.6465C30.9982 73.7354 30.8561 73.8231 30.7147 73.9096L30.6495 73.803C30.5084 73.8893 30.368 73.9745 30.2285 74.0584L30.2929 74.1655C30.1504 74.2512 30.0088 74.3357 29.868 74.4188L29.8044 74.3112C29.6599 74.3965 29.5163 74.4805 29.3736 74.5631L29.4362 74.6713C29.2932 74.7541 29.1511 74.8356 29.0099 74.9157L28.9482 74.807C28.8026 74.8896 28.6581 74.9707 28.5145 75.0503L28.5751 75.1596C28.4286 75.2409 28.2832 75.3206 28.1388 75.3988L28.0792 75.2889C27.935 75.367 27.7918 75.4436 27.6497 75.5186L27.7081 75.6292C27.5579 75.7085 27.4089 75.7861 27.2611 75.8619L27.204 75.7507C27.0566 75.8264 26.9105 75.9003 26.7656 75.9724L26.8213 76.0843C26.6712 76.1591 26.5224 76.2319 26.3749 76.303L26.3207 76.1903C26.1698 76.263 26.0204 76.3336 25.8725 76.4023L25.9251 76.5157C25.7746 76.5855 25.6256 76.6533 25.4781 76.719L25.4272 76.6048C25.2728 76.6736 25.12 76.74 24.9691 76.8042L25.0179 76.9193C24.8662 76.9838 24.7161 77.0459 24.5678 77.1058L24.5211 76.9898C24.3631 77.0536 24.2072 77.1146 24.0534 77.1729L24.0977 77.2898C23.943 77.3485 23.7904 77.4044 23.6399 77.4576L23.5982 77.3397C23.4375 77.3965 23.2793 77.4502 23.1236 77.5006L23.1621 77.6195C23.0041 77.6707 22.8487 77.7186 22.6958 77.7632L22.6607 77.6432C22.4971 77.691 22.3366 77.7349 22.1792 77.775L22.2101 77.8962C22.0469 77.9377 21.887 77.9752 21.7303 78.0086L21.7043 77.8863C21.5399 77.9213 21.3793 77.9517 21.2227 77.9775L21.2429 78.1008C21.0737 78.1286 20.9088 78.151 20.7484 78.1681L20.7352 78.0438C20.5693 78.0614 20.4086 78.0731 20.2531 78.0788L20.2577 78.2037C20.0872 78.21 19.9224 78.2093 19.7637 78.2015L19.7698 78.0766C19.6014 78.0683 19.4404 78.0518 19.2871 78.0271L19.2672 78.1505C19.0977 78.1233 18.9366 78.0862 18.7841 78.0391L18.821 77.9197C18.6647 77.8714 18.5186 77.8126 18.3827 77.743L18.3258 77.8543Z" stroke="url(#paint7_linear_1729_5289)" stroke-width="0.25" stroke-dasharray="0.5 0.5"/>
<defs>
<filter id="filter0_d_1729_5289" x="40" y="40" width="16" height="16" filterUnits="userSpaceOnUse" color-interpolation-filters="sRGB">
<feFlood flood-opacity="0" result="BackgroundImageFix"/>
<feColorMatrix in="SourceAlpha" type="matrix" values="0 0 0 0 0 0 0 0 0 0 0 0 0 0 0 0 0 0 127 0" result="hardAlpha"/>
<feOffset/>
<feGaussianBlur stdDeviation="1.5"/>
<feComposite in2="hardAlpha" operator="out"/>
<feColorMatrix type="matrix" values="0 0 0 0 1 0 0 0 0 1 0 0 0 0 1 0 0 0 1 0"/>
<feBlend mode="normal" in2="BackgroundImageFix" result="effect1_dropShadow_1729_5289"/>
<feBlend mode="normal" in="SourceGraphic" in2="effect1_dropShadow_1729_5289" result="shape"/>
</filter>
<linearGradient id="paint0_linear_1729_5289" x1="13.7163" y1="44.5029" x2="44.0953" y2="62.0423" gradientUnits="userSpaceOnUse">
<stop stop-color="#53FDA9"/>
<stop offset="1" stop-opacity="0"/>
</linearGradient>
<linearGradient id="paint1_linear_1729_5289" x1="81.2837" y1="51.0674" x2="50.9047" y2="33.5281" gradientUnits="userSpaceOnUse">
<stop stop-color="#53FDA9"/>
<stop offset="1" stop-opacity="0"/>
</linearGradient>
<linearGradient id="paint2_linear_1729_5289" x1="67.2359" y1="20.1689" x2="36.8569" y2="37.7083" gradientUnits="userSpaceOnUse">
<stop stop-color="#53FDA9"/>
<stop offset="1" stop-opacity="0"/>
</linearGradient>
<linearGradient id="paint3_linear_1729_5289" x1="27.7641" y1="75.4014" x2="58.1431" y2="57.862" gradientUnits="userSpaceOnUse">
<stop stop-color="#53FDA9"/>
<stop offset="1" stop-opacity="0"/>
</linearGradient>
<linearGradient id="paint4_linear_1729_5289" x1="33.7195" y1="16.8633" x2="33.7195" y2="51.7159" gradientUnits="userSpaceOnUse">
<stop stop-color="#53FDA9"/>
<stop offset="1" stop-opacity="0"/>
</linearGradient>
<linearGradient id="paint5_linear_1729_5289" x1="61.2805" y1="78.4609" x2="61.2805" y2="43.6083" gradientUnits="userSpaceOnUse">
<stop stop-color="#53FDA9"/>
<stop offset="1" stop-opacity="0"/>
</linearGradient>
<linearGradient id="paint6_linear_1729_5289" x1="94.0001" y1="48.0038" x2="5.17039" y2="49.9844" gradientUnits="userSpaceOnUse">
<stop stop-color="#632BFF"/>
<stop offset="1" stop-color="#632BFF" stop-opacity="0"/>
</linearGradient>
<linearGradient id="paint7_linear_1729_5289" x1="40.3443" y1="41.2327" x2="54.768" y2="54.2238" gradientUnits="userSpaceOnUse">
<stop stop-color="white"/>
<stop offset="1" stop-color="white" stop-opacity="0"/>
</linearGradient>
</defs>
</svg>
