<svg width="96" height="96" viewBox="0 0 96 96" fill="none" xmlns="http://www.w3.org/2000/svg">
<path d="M74.3184 47.7319C74.3203 47.8999 74.3217 48.0681 74.3224 48.2366L74.1974 48.237C74.1978 48.3211 74.198 48.4053 74.1981 48.4895C74.1981 48.5737 74.198 48.6578 74.1978 48.7419L74.3228 48.7424C74.3223 48.9109 74.3212 49.0792 74.3195 49.2472L74.1945 49.2458C74.1928 49.4135 74.1905 49.581 74.1876 49.7482L74.3125 49.7505C74.3096 49.9181 74.3061 50.0854 74.302 50.2524L74.177 50.2491C74.1729 50.4163 74.1681 50.5831 74.1628 50.7497L74.2877 50.7539C74.2823 50.9225 74.2763 51.0908 74.2697 51.2589L74.1448 51.2538C74.1382 51.4215 74.131 51.589 74.1232 51.7562L74.248 51.7622C74.2402 51.9297 74.2318 52.0969 74.2227 52.2639L74.0979 52.2569C74.0889 52.4236 74.0793 52.5899 74.069 52.756L74.1938 52.7639C74.1834 52.9322 74.1725 53.1003 74.1609 53.268L74.0362 53.2592C74.0246 53.4268 74.0124 53.5941 73.9996 53.7611L74.1243 53.7709C74.1115 53.9382 74.098 54.1052 74.084 54.2719L73.9595 54.2612C73.9455 54.4276 73.9309 54.5937 73.9157 54.7594L74.0401 54.771C74.0248 54.9386 74.0088 55.106 73.9922 55.273L73.8678 55.2604C73.8512 55.4277 73.834 55.5947 73.8161 55.7613L73.9404 55.7748C73.9226 55.9417 73.9041 56.1083 73.885 56.2746L73.7608 56.2602C73.7418 56.4261 73.7221 56.5917 73.7019 56.7569L73.826 56.7723C73.8055 56.9392 73.7845 57.1057 73.7628 57.2718L73.6389 57.2555C73.6171 57.4223 73.5948 57.5887 73.5718 57.7548L73.6956 57.7721C73.6726 57.9385 73.649 58.1045 73.6248 58.2701L73.5011 58.2519C73.4769 58.4172 73.4522 58.5821 73.4268 58.7466L73.5503 58.7659C73.5247 58.9319 73.4985 59.0975 73.4717 59.2627L73.3483 59.2425C73.3214 59.4086 73.2938 59.5743 73.2656 59.7396L73.3888 59.7608C73.3606 59.9264 73.3317 60.0916 73.3023 60.2564L73.1792 60.2342C73.1498 60.3987 73.1198 60.5627 73.0892 60.7264L73.2121 60.7495C73.1813 60.9146 73.1498 61.0792 73.1177 61.2433L72.995 61.2192C72.9627 61.3844 72.9299 61.5491 72.8964 61.7135L73.0188 61.7386C72.9853 61.9032 72.9511 62.0674 72.9163 62.2312L72.794 62.205C72.7593 62.3684 72.724 62.5314 72.6881 62.6938L72.8101 62.721C72.7739 62.885 72.737 63.0485 72.6995 63.2115L72.5777 63.1833C72.54 63.3474 72.5017 63.511 72.4627 63.674L72.5843 63.7032C72.5453 63.8667 72.5057 64.0296 72.4654 64.192L72.3441 64.1618C72.3039 64.3238 72.2632 64.4854 72.2218 64.6465L72.3429 64.6777C72.3011 64.8406 72.2587 65.0029 72.2156 65.1647L72.0948 65.1324C72.0516 65.295 72.0077 65.4571 71.9632 65.6187L72.0837 65.6521C72.0391 65.814 71.9939 65.9753 71.9481 66.1362L71.8279 66.1017C71.7822 66.2622 71.7359 66.4221 71.689 66.5815L71.8089 66.617C71.7613 66.7786 71.7131 66.9396 71.6643 67.1L71.5447 67.0635C71.4958 67.2244 71.4462 67.3847 71.3961 67.5445L71.5153 67.5821C71.465 67.7422 71.4141 67.9017 71.3626 68.0606L71.2437 68.0219C71.1923 68.1805 71.1403 68.3384 71.0877 68.4958L71.2063 68.5355C71.1527 68.6958 71.0985 68.8553 71.0437 69.0143L70.9255 68.9734C70.8707 69.1322 70.8153 69.2904 70.7593 69.448L70.8771 69.49C70.821 69.648 70.7642 69.8053 70.7069 69.9619L70.5895 69.9188C70.5321 70.0755 70.4741 70.2317 70.4154 70.3871L70.5324 70.4314C70.4727 70.5895 70.4125 70.747 70.3516 70.9038L70.235 70.8584C70.1743 71.0148 70.1129 71.1705 70.0509 71.3255L70.167 71.372C70.1048 71.5274 70.0421 71.6821 69.9787 71.8361L69.8631 71.7884C69.7993 71.9435 69.7348 72.0978 69.6697 72.2514L69.7849 72.3003C69.719 72.4558 69.6526 72.6104 69.5855 72.7643L69.4709 72.7142C69.404 72.8677 69.3365 73.0205 69.2683 73.1725L69.3824 73.2237C69.3141 73.3761 69.2451 73.5277 69.1756 73.6785L69.0621 73.6261C68.9914 73.7792 68.9202 73.9316 68.8483 74.0832L68.9613 74.1369C68.8891 74.289 68.8163 74.4404 68.7428 74.5909L68.6305 74.536C68.5573 74.6861 68.4834 74.8353 68.409 74.9838L68.5207 75.0399C68.4454 75.19 68.3695 75.3393 68.2929 75.4876L68.1818 75.4302C68.1046 75.5799 68.0267 75.7287 67.9483 75.8767L68.0587 75.9354C67.98 76.0837 67.9007 76.2312 67.8207 76.3777L67.7109 76.3177C67.6312 76.4638 67.5509 76.609 67.4699 76.7533L67.5789 76.8146C67.4961 76.9623 67.4126 77.1089 67.3285 77.2547L67.2202 77.1921C67.1363 77.3375 67.0518 77.4819 66.9666 77.6253L67.0741 77.6892C66.9887 77.8331 66.9026 77.976 66.8159 78.1179L66.7092 78.0527C66.6217 78.1959 66.5336 78.3381 66.4448 78.4793L66.5507 78.546C66.4609 78.6889 66.3704 78.8307 66.2793 78.9715L66.1743 78.9035C66.0835 79.0438 65.9921 79.1831 65.9001 79.3213L66.0041 79.3907C65.9112 79.5302 65.8177 79.6686 65.7235 79.8059L65.6204 79.7352C65.525 79.8742 65.4291 80.0121 65.3325 80.1488L65.4346 80.221C65.3377 80.3582 65.2401 80.4943 65.1419 80.6292L65.0408 80.5556C64.9429 80.6901 64.8443 80.8235 64.7451 80.9557L64.8452 81.0308C64.7435 81.1664 64.6412 81.3007 64.5382 81.4337L64.4393 81.3572C64.3367 81.4897 64.2335 81.6211 64.1297 81.7512L64.2275 81.8292C64.1232 81.9598 64.0184 82.0891 63.9129 82.2172L63.8164 82.1377C63.7093 82.2677 63.6015 82.3965 63.4931 82.5239L63.5884 82.605C63.4792 82.7333 63.3695 82.8602 63.2591 82.9858L63.1651 82.9032C63.0552 83.0283 62.9446 83.152 62.8334 83.2744L62.926 83.3585C62.8124 83.4835 62.6982 83.6071 62.5833 83.7293L62.4922 83.6436C62.3772 83.7658 62.2616 83.8866 62.1454 84.006L62.2351 84.0932C62.1184 84.2131 62.001 84.3315 61.8831 84.4484L61.795 84.3595C61.6756 84.4779 61.5556 84.5946 61.435 84.7099L61.5214 84.8003C61.3996 84.9167 61.2771 85.0316 61.154 85.1448L61.0693 85.0528C60.9468 85.1655 60.8236 85.2767 60.6999 85.3863L60.7828 85.4799C60.6564 85.5918 60.5293 85.7021 60.4016 85.8108L60.3205 85.7155C60.1929 85.8241 60.0646 85.931 59.9358 86.0362L60.0149 86.1331C59.8854 86.2388 59.7552 86.3429 59.6245 86.4452L59.5473 86.3467C59.4149 86.4503 59.2819 86.5522 59.1482 86.6523L59.2232 86.7524C59.0886 86.8532 58.9533 86.9522 58.8174 87.0494L58.7445 86.9477C58.6093 87.0444 58.4734 87.1393 58.3369 87.2324L58.4075 87.3357C58.2678 87.431 58.1274 87.5243 57.9865 87.6158L57.9184 87.5109C57.7782 87.6018 57.6375 87.6907 57.4962 87.7778L57.5619 87.8842C57.4191 87.9721 57.2758 88.0581 57.1318 88.142L57.0687 88.034C56.9238 88.1185 56.7784 88.201 56.6324 88.2814L56.6928 88.3909C56.5458 88.4718 56.3983 88.5506 56.2502 88.6274L56.1925 88.5164C56.0443 88.5932 55.8955 88.6679 55.7461 88.7405L55.8008 88.8529C55.6494 88.9265 55.4974 88.9979 55.3449 89.0671L55.2931 88.9532C55.1416 89.022 54.9895 89.0885 54.8368 89.1529L54.8855 89.2681C54.7305 89.3335 54.5749 89.3966 54.4187 89.4575L54.3732 89.341C54.2177 89.4016 54.0618 89.4599 53.9053 89.5159L53.9475 89.6336C53.7898 89.69 53.6315 89.7442 53.4727 89.796L53.4338 89.6771C53.275 89.7289 53.1158 89.7783 52.9561 89.8254L52.9916 89.9453C52.8307 89.9927 52.6692 90.0377 52.5073 90.0803L52.4754 89.9594C52.3144 90.0017 52.1529 90.0417 51.9909 90.0792L52.0193 90.2009C51.8559 90.2388 51.692 90.2742 51.5275 90.3071L51.5028 90.1846C51.3396 90.2173 51.176 90.2475 51.0119 90.2752L51.0329 90.3985C50.8678 90.4264 50.7021 90.4518 50.5361 90.4747L50.5188 90.3509C50.3541 90.3736 50.1889 90.3939 50.0233 90.4116L50.0367 90.5359C49.87 90.5537 49.7029 90.569 49.5354 90.5817L49.5257 90.4571C49.3603 90.4697 49.1945 90.4797 49.0284 90.4873L49.0342 90.6121C48.8668 90.6197 48.6989 90.6248 48.5307 90.6272L48.5287 90.5022C48.4452 90.5034 48.3616 90.504 48.278 90.504C48.1943 90.5039 48.1108 90.5032 48.0273 90.5019L48.0255 90.6268C47.8572 90.6241 47.6894 90.6189 47.5219 90.611L47.5276 90.4862C47.3614 90.4784 47.1956 90.4681 47.0302 90.4553L47.0207 90.5799C46.8532 90.5669 46.686 90.5514 46.5193 90.5333L46.5326 90.409C46.3669 90.3911 46.2017 90.3706 46.0369 90.3476L46.0198 90.4714C45.8537 90.4483 45.6881 90.4226 45.5229 90.3945L45.5437 90.2712C45.3796 90.2433 45.2159 90.2128 45.0527 90.1799L45.0281 90.3024C44.8637 90.2692 44.6997 90.2336 44.5362 90.1955L44.5644 90.0737C44.4024 90.036 44.2409 89.9958 44.0798 89.9532L44.048 90.0741C43.886 90.0313 43.7246 89.986 43.5636 89.9384L43.5989 89.8185C43.4391 89.7713 43.2798 89.7216 43.121 89.6696L43.0822 89.7884C42.9233 89.7363 42.765 89.682 42.6071 89.6253L42.6492 89.5077C42.4927 89.4514 42.3366 89.3929 42.1811 89.3321L42.1357 89.4485C41.9795 89.3874 41.8238 89.324 41.6686 89.2584L41.7171 89.1433C41.5644 89.0787 41.4122 89.0119 41.2606 88.943L41.209 89.0567C41.0563 88.9873 40.9042 88.9157 40.7527 88.8419L40.8073 88.7295C40.6578 88.6568 40.5089 88.5818 40.3605 88.5048L40.303 88.6157C40.1548 88.5387 40.0072 88.4597 39.8601 88.3786L39.9203 88.2692C39.7742 88.1886 39.6286 88.1059 39.4836 88.0212L39.4207 88.1291C39.2766 88.0449 39.1331 87.9588 38.9903 87.8707L39.0558 87.7643C38.9143 87.6771 38.7735 87.5879 38.6332 87.4968L38.5652 87.6016C38.4242 87.51 38.2837 87.4164 38.1438 87.3209L38.2142 87.2177C38.0776 87.1244 37.9416 87.0293 37.8062 86.9324L37.7335 87.034C37.5975 86.9366 37.462 86.8374 37.3272 86.7364L37.4021 86.6364C37.2683 86.5361 37.1351 86.4341 37.0025 86.3303L36.9255 86.4286C36.7946 86.3261 36.6643 86.2219 36.5346 86.1159L36.6136 86.0192C36.4846 85.9138 36.3562 85.8067 36.2284 85.6979L36.1475 85.7931C36.0196 85.6843 35.8924 85.5738 35.7658 85.4616L35.8486 85.3681C35.7246 85.2584 35.6013 85.147 35.4787 85.0341L35.3941 85.126C35.2708 85.0126 35.1482 84.8976 35.0262 84.781L35.1125 84.6907C34.9917 84.5752 34.8715 84.4583 34.7519 84.3398L34.664 84.4285C34.5459 84.3114 34.4284 84.1929 34.3115 84.0728L34.401 83.9857C34.2846 83.8662 34.1689 83.7452 34.0538 83.6228L33.9628 83.7084C33.8477 83.5861 33.7333 83.4623 33.6195 83.3371L33.7119 83.2531C33.6006 83.1306 33.4898 83.0067 33.3797 82.8815L33.2859 82.9639C33.1753 82.8382 33.0653 82.7111 32.956 82.5826L33.0512 82.5017C32.9426 82.3741 32.8346 82.2452 32.7273 82.115L32.6309 82.1944C32.5252 82.0662 32.4202 81.9367 32.3158 81.8059L32.4134 81.728C32.3094 81.5978 32.206 81.4663 32.1032 81.3336L32.0044 81.41C31.9013 81.2768 31.7988 81.1423 31.6969 81.0066L31.7969 80.9317C31.6975 80.7993 31.5987 80.6658 31.5006 80.5311L31.3996 80.6046C31.3012 80.4695 31.2034 80.3333 31.1063 80.1959L31.2083 80.1239C31.1115 79.987 31.0153 79.849 30.9198 79.7098L30.8168 79.7805C30.7224 79.643 30.6287 79.5044 30.5356 79.3648L30.6395 79.2955C30.5473 79.1572 30.4556 79.0178 30.3646 78.8773L30.2598 78.9452C30.1685 78.8043 30.0778 78.6623 29.9878 78.5193L30.0935 78.4528C30.0046 78.3115 29.9162 78.1691 29.8285 78.0257L29.7219 78.0909C29.635 77.9488 29.5487 77.8058 29.4631 77.6618L29.5705 77.598C29.4851 77.4544 29.4004 77.3099 29.3162 77.1644L29.208 77.2268C29.1237 77.081 29.04 76.9342 28.957 76.7864L29.0659 76.7253C28.9847 76.5809 28.9042 76.4356 28.8242 76.2893L28.7146 76.3492C28.6344 76.2025 28.5549 76.0549 28.4759 75.9065L28.5863 75.8479C28.5076 75.6999 28.4295 75.5509 28.352 75.4011L28.241 75.4584C28.1643 75.3099 28.0881 75.1606 28.0126 75.0104L28.1243 74.9543C28.0496 74.8058 27.9755 74.6564 27.9021 74.5062L27.7898 74.561C27.7162 74.4104 27.6431 74.2589 27.5707 74.1066L27.6836 74.0531C27.6115 73.9014 27.54 73.749 27.4692 73.5957L27.3557 73.648C27.286 73.4971 27.2168 73.3454 27.1483 73.1929L27.2623 73.1418C27.1939 72.9897 27.1262 72.8369 27.059 72.6833L26.9445 72.7332C26.8772 72.5792 26.8105 72.4244 26.7445 72.2689L26.8595 72.2202C26.7942 72.0665 26.7295 71.912 26.6655 71.7568L26.5499 71.8044C26.4863 71.6503 26.4233 71.4955 26.361 71.3401L26.477 71.2937C26.4148 71.1386 26.3532 70.9828 26.2922 70.8263L26.1757 70.8715C26.1146 70.7147 26.0541 70.5571 25.9942 70.3988L26.1111 70.3547C26.0522 70.1992 25.994 70.043 25.9363 69.8862L25.819 69.9291C25.7614 69.7724 25.7044 69.615 25.6481 69.457L25.7658 69.4152C25.7096 69.2575 25.6539 69.0992 25.5989 68.9403L25.4808 68.981C25.4258 68.822 25.3714 68.6623 25.3176 68.502L25.4361 68.4624C25.3832 68.305 25.331 68.147 25.2794 67.9883L25.1605 68.0269C25.1088 67.8679 25.0576 67.7083 25.0071 67.5481L25.1263 67.5107C25.0759 67.3509 25.0261 67.1905 24.9769 67.0295L24.8574 67.0658C24.8083 66.9053 24.7599 66.7442 24.7121 66.5826L24.832 66.5473C24.7848 66.3879 24.7383 66.2279 24.6923 66.0673L24.5722 66.1016C24.5261 65.9407 24.4807 65.7792 24.4359 65.6172L24.5563 65.5841C24.5116 65.4224 24.4675 65.2603 24.424 65.0976L24.3032 65.1297C24.26 64.9679 24.2173 64.8055 24.1753 64.6426L24.2963 64.6115C24.2547 64.4504 24.2137 64.2887 24.1733 64.1266L24.052 64.1566C24.0115 63.9942 23.9717 63.8312 23.9324 63.6677L24.054 63.6387C24.0148 63.4756 23.9762 63.3119 23.9383 63.1478L23.8165 63.1758C23.7788 63.0127 23.7417 62.8492 23.7052 62.6851L23.8272 62.6581C23.791 62.4956 23.7555 62.3326 23.7205 62.1692L23.5983 62.1951C23.5633 62.0314 23.5288 61.8671 23.495 61.7024L23.6175 61.6775C23.5837 61.5131 23.5506 61.3483 23.5181 61.183L23.3954 61.207C23.3631 61.0428 23.3314 60.8782 23.3003 60.7131L23.4231 60.6901C23.3923 60.5264 23.3621 60.3623 23.3324 60.1978L23.2094 60.2198C23.1797 60.055 23.1506 59.8897 23.1221 59.724L23.2453 59.703C23.2169 59.5377 23.1891 59.372 23.1619 59.2058L23.0385 59.2258C23.0115 59.0606 22.985 58.895 22.9592 58.7289L23.0827 58.7099C23.0571 58.5453 23.0321 58.3803 23.0077 58.215L22.884 58.2331C22.8595 58.0674 22.8357 57.9014 22.8124 57.7349L22.9362 57.7178C22.913 57.5517 22.8904 57.3853 22.8684 57.2184L22.7445 57.2346C22.7226 57.0684 22.7013 56.9019 22.6806 56.735L22.8047 56.7198C22.7842 56.5545 22.7643 56.3889 22.745 56.2229L22.6209 56.2372C22.6015 56.0709 22.5828 55.9042 22.5647 55.7373L22.689 55.724C22.6709 55.5573 22.6534 55.3903 22.6366 55.223L22.5122 55.2354C22.4954 55.0684 22.4791 54.901 22.4635 54.7333L22.588 54.7219C22.5725 54.5561 22.5577 54.3901 22.5435 54.2237L22.4189 54.2341C22.4047 54.0674 22.391 53.9004 22.3779 53.7331L22.5026 53.7235C22.4895 53.5565 22.4771 53.3892 22.4653 53.2216L22.3406 53.2302C22.3288 53.0624 22.3175 52.8943 22.3069 52.726L22.4317 52.7183C22.4212 52.5522 22.4114 52.3858 22.4021 52.2192L22.2773 52.2259C22.268 52.059 22.2593 51.8917 22.2512 51.7242L22.3761 51.7184C22.368 51.5512 22.3606 51.3837 22.3537 51.2159L22.2288 51.2209C22.222 51.0528 22.2157 50.8845 22.2101 50.7159L22.335 50.7119C22.3294 50.5453 22.3244 50.3784 22.3201 50.2113L22.1951 50.2144C22.1907 50.0473 22.187 49.88 22.1838 49.7125L22.3088 49.7103C22.3056 49.5431 22.3031 49.3756 22.3011 49.2079L22.1761 49.2091C22.1742 49.0411 22.1728 48.8729 22.1721 48.7044L22.2971 48.704C22.2967 48.6199 22.2965 48.5357 22.2964 48.4515C22.2964 48.3673 22.2965 48.2832 22.2967 48.1991L22.1717 48.1986C22.1722 48.0301 22.1733 47.8618 22.175 47.6938L22.3 47.6952C22.3017 47.5275 22.304 47.36 22.3069 47.1928L22.182 47.1904C22.1849 47.0229 22.1884 46.8556 22.1925 46.6886L22.3175 46.6919C22.3216 46.5247 22.3264 46.3579 22.3317 46.1913L22.2068 46.1871C22.2121 46.0185 22.2182 45.8502 22.2248 45.6821L22.3497 45.6872C22.3563 45.5195 22.3635 45.352 22.3713 45.1848L22.2464 45.1788C22.2543 45.0113 22.2627 44.8441 22.2718 44.6771L22.3966 44.6841C22.4056 44.5174 22.4152 44.3511 22.4254 44.185L22.3007 44.1771C22.311 44.0088 22.322 43.8407 22.3336 43.673L22.4583 43.6818C22.4699 43.5142 22.4821 43.3469 22.4949 43.1799L22.3702 43.1701C22.383 43.0028 22.3964 42.8358 22.4105 42.6691L22.535 42.6798C22.549 42.5134 22.5636 42.3473 22.5788 42.1816L22.4543 42.17C22.4697 42.0023 22.4857 41.835 22.5023 41.668L22.6267 41.6806C22.6433 41.5133 22.6605 41.3463 22.6783 41.1797L22.554 41.1662C22.5719 40.9993 22.5904 40.8327 22.6095 40.6664L22.7337 40.6808C22.7527 40.5149 22.7723 40.3493 22.7926 40.1841L22.6685 40.1687C22.689 40.0018 22.71 39.8353 22.7317 39.6692L22.8556 39.6855C22.8774 39.5187 22.8997 39.3523 22.9227 39.1862L22.7989 39.1689C22.8219 39.0025 22.8455 38.8365 22.8697 38.6709L22.9934 38.6891C23.0176 38.5238 23.0423 38.3589 23.0677 38.1944L22.9442 38.1751C22.9698 38.0091 22.996 37.8435 23.0228 37.6783L23.1462 37.6985C23.1731 37.5324 23.2007 37.3667 23.2289 37.2014L23.1057 37.1802C23.1339 37.0146 23.1627 36.8494 23.1922 36.6846L23.3152 36.7068C23.3446 36.5423 23.3746 36.3782 23.4052 36.2146L23.2824 36.1915C23.3132 36.0264 23.3447 35.8618 23.3768 35.6977L23.4995 35.7218C23.5317 35.5566 23.5646 35.3919 23.5981 35.2275L23.4757 35.2024C23.5092 35.0378 23.5434 34.8736 23.5782 34.7098L23.7005 34.736C23.7352 34.5726 23.7705 34.4096 23.8064 34.2472L23.6844 34.22C23.7206 34.056 23.7575 33.8925 23.795 33.7295L23.9168 33.7576C23.9545 33.5936 23.9928 33.43 24.0318 33.267L23.9102 33.2378C23.9492 33.0743 23.9888 32.9114 24.0291 32.749L24.1504 32.7792C24.1905 32.6172 24.2313 32.4556 24.2727 32.2945L24.1516 32.2633C24.1934 32.1004 24.2358 31.9381 24.2789 31.7763L24.3997 31.8086C24.4429 31.646 24.4868 31.4839 24.5313 31.3223L24.4108 31.2889C24.4554 31.127 24.5006 30.9657 24.5464 30.8048L24.6666 30.8392C24.7123 30.6788 24.7586 30.5188 24.8055 30.3595L24.6856 30.324C24.7332 30.1624 24.7814 30.0014 24.8302 29.841L24.9498 29.8775C24.9987 29.7166 25.0483 29.5563 25.0984 29.3965L24.9792 29.3589C25.0295 29.1988 25.0804 29.0393 25.1319 28.8804L25.2508 28.9191C25.3022 28.7605 25.3542 28.6026 25.4068 28.4452L25.2882 28.4055C25.3418 28.2452 25.396 28.0857 25.4508 27.9267L25.569 27.9676C25.6237 27.8088 25.6791 27.6505 25.7351 27.493L25.6174 27.451C25.6735 27.293 25.7302 27.1357 25.7876 26.9791L25.905 27.0222C25.9624 26.8655 26.0204 26.7093 26.0791 26.5539L25.9621 26.5096C26.0217 26.3515 26.082 26.194 26.1429 26.0372L26.2595 26.0826C26.3202 25.9262 26.3816 25.7705 26.4436 25.6155L26.3275 25.5689C26.3897 25.4136 26.4524 25.2589 26.5158 25.1049L26.6314 25.1526C26.6952 24.9975 26.7597 24.8432 26.8247 24.6896L26.7096 24.6407C26.7755 24.4852 26.8419 24.3306 26.909 24.1767L27.0236 24.2268C27.0905 24.0733 27.158 23.9205 27.2262 23.7685L27.1121 23.7173C27.1804 23.5649 27.2493 23.4133 27.3189 23.2625L27.4324 23.3149C27.503 23.1618 27.5743 23.0094 27.6462 22.8578L27.5332 22.8041C27.6054 22.652 27.6782 22.5006 27.7516 22.3501L27.864 22.405C27.9372 22.2549 28.0111 22.1057 28.0855 21.9572L27.9738 21.9011C28.0491 21.751 28.125 21.6017 28.2015 21.4534L28.3126 21.5108C28.3899 21.3611 28.4677 21.2123 28.5462 21.0643L28.4358 21.0056C28.5145 20.8573 28.5938 20.7098 28.6738 20.5633L28.7835 20.6233C28.8633 20.4772 28.9436 20.3319 29.0246 20.1877L28.9155 20.1264C28.9984 19.9787 29.0819 19.832 29.166 19.6863L29.2743 19.7489C29.3582 19.6035 29.4427 19.4591 29.5279 19.3157L29.4204 19.2518C29.5058 19.1079 29.5919 18.965 29.6786 18.8231L29.7853 18.8883C29.8728 18.7451 29.9609 18.6029 30.0497 18.4617L29.9438 18.395C30.0336 18.2521 30.1241 18.1103 30.2152 17.9695L30.3202 18.0375C30.411 17.8972 30.5024 17.7579 30.5944 17.6197L30.4904 17.5503C30.5833 17.4108 30.6768 17.2724 30.771 17.1351L30.8741 17.2058C30.9694 17.0668 31.0654 16.9289 31.162 16.7922L31.0599 16.72C31.1568 16.5828 31.2544 16.4467 31.3526 16.3118L31.4537 16.3854C31.5516 16.2509 31.6502 16.1175 31.7494 15.9853L31.6493 15.9102C31.751 15.7746 31.8533 15.6403 31.9563 15.5073L32.0552 15.5838C32.1577 15.4513 32.2609 15.3199 32.3648 15.1898L32.267 15.1118C32.3712 14.9812 32.4761 14.8518 32.5816 14.7238L32.6781 14.8033C32.7852 14.6733 32.893 14.5445 33.0014 14.4171L32.9061 14.336C33.0153 14.2077 33.125 14.0808 33.2354 13.9552L33.3294 14.0378C33.4393 13.9127 33.5499 13.789 33.6611 13.6666L33.5685 13.5825C33.6821 13.4575 33.7963 13.3339 33.9112 13.2117L34.0023 13.2974C34.1173 13.1752 34.2328 13.0544 34.349 12.935L34.2594 12.8478C34.3761 12.7279 34.4935 12.6095 34.6114 12.4926L34.6995 12.5815C34.8189 12.4631 34.9389 12.3464 35.0595 12.2311L34.9731 12.1407C35.0949 12.0243 35.2174 11.9094 35.3405 11.7962L35.4252 11.8882C35.5477 11.7755 35.6708 11.6643 35.7946 11.5547L35.7116 11.4611C35.8381 11.3492 35.9652 11.2389 36.0929 11.1302L36.1739 11.2255C36.3016 11.1169 36.4298 11.01 36.5587 10.9048L36.4796 10.8079C36.6091 10.7022 36.7393 10.5981 36.87 10.4958L36.9471 10.5943C37.0796 10.4907 37.2126 10.3888 37.3463 10.2887L37.2713 10.1886C37.4059 10.0878 37.5412 9.9888 37.6771 9.89161L37.7499 9.99333C37.8852 9.89659 38.0211 9.80168 38.1576 9.70861L38.087 9.60531C38.2267 9.51003 38.3671 9.41666 38.508 9.32523L38.5761 9.43013C38.7163 9.33923 38.857 9.25025 38.9983 9.16323L38.9326 9.05677C39.0754 8.96885 39.2187 8.88291 39.3627 8.79896L39.4258 8.90697C39.5706 8.82248 39.7161 8.74003 39.8621 8.65963L39.8017 8.55011C39.9487 8.46921 40.0962 8.39038 40.2443 8.31364L40.302 8.42464C40.4502 8.34782 40.599 8.27312 40.7484 8.20054L40.6937 8.08809C40.8451 8.01453 40.997 7.94314 41.1496 7.87393L41.2014 7.98778C41.3529 7.91903 41.505 7.85246 41.6577 7.7881L41.6089 7.67291C41.764 7.60752 41.9196 7.54439 42.0758 7.48353L42.1213 7.60001C42.2768 7.53944 42.4327 7.48114 42.5892 7.42513L42.547 7.30743C42.7047 7.25098 42.863 7.19684 43.0218 7.14503L43.0607 7.26387C43.2194 7.2121 43.3787 7.16267 43.5384 7.11562L43.5029 6.99571C43.6638 6.94832 43.8253 6.90332 43.9872 6.86073L44.0191 6.98162C44.1801 6.93928 44.3416 6.89934 44.5035 6.86183L44.4752 6.74005C44.6386 6.70219 44.8025 6.66679 44.9669 6.63386L44.9917 6.75643C45.1548 6.72374 45.3185 6.69352 45.4826 6.66577L45.4616 6.54252C45.6267 6.5146 45.7923 6.48918 45.9584 6.46627L45.9757 6.59009C46.1404 6.56736 46.3056 6.54713 46.4712 6.52941L46.4577 6.40512C46.6245 6.38729 46.7916 6.372 46.9591 6.35926L46.9688 6.4839C47.1342 6.47133 47.2999 6.46126 47.4661 6.45373L47.4603 6.32886C47.6277 6.32128 47.7956 6.31624 47.9638 6.31378L47.9658 6.43877C48.0493 6.43755 48.1329 6.43697 48.2165 6.43703C48.3002 6.43709 48.3837 6.43779 48.4672 6.43913L48.469 6.31415C48.6373 6.31686 48.8051 6.32213 48.9726 6.32997L48.9669 6.45483C49.1331 6.4626 49.2989 6.47291 49.4643 6.48572L49.4738 6.36109C49.6413 6.37408 49.8085 6.38962 49.9752 6.40769L49.9619 6.53196C50.1276 6.54992 50.2928 6.57039 50.4576 6.59336L50.4747 6.46956C50.6407 6.49271 50.8064 6.51838 50.9716 6.54654L50.9507 6.66976C51.1149 6.69775 51.2786 6.72821 51.4418 6.76113L51.4664 6.6386C51.6308 6.67177 51.7948 6.70741 51.9583 6.74551L51.9301 6.86725C52.0921 6.90499 52.2536 6.94517 52.4147 6.98775L52.4465 6.8669C52.6084 6.90973 52.7699 6.95497 52.9309 7.00259L52.8956 7.12245C53.0554 7.16974 53.2147 7.21939 53.3735 7.2714L53.4123 7.15261C53.5711 7.20465 53.7295 7.25902 53.8873 7.31571L53.8452 7.43334C54.0018 7.48958 54.1579 7.54811 54.3134 7.60891L54.3588 7.4925C54.515 7.55358 54.6707 7.61694 54.8259 7.68255L54.7773 7.79767C54.9301 7.86226 55.0823 7.92905 55.2339 7.99802L55.2855 7.88425C55.4382 7.95368 55.5903 8.02529 55.7418 8.09908L55.6872 8.21144C55.8367 8.28424 55.9856 8.35916 56.134 8.43619L56.1914 8.32527C56.3397 8.40224 56.4873 8.48128 56.6344 8.56239L56.5741 8.67183C56.7203 8.75244 56.8659 8.8351 57.0109 8.9198L57.0738 8.81189C57.2179 8.89605 57.3613 8.9822 57.5042 9.07032L57.4387 9.17669C57.5802 9.26392 57.721 9.3531 57.8613 9.44421L57.9293 9.33941C58.0703 9.43105 58.2108 9.52462 58.3506 9.6201L58.2803 9.7233C58.4169 9.81657 58.5529 9.91168 58.6883 10.0086L58.7609 9.90701C58.897 10.0044 59.0324 10.1036 59.1673 10.2046L59.0924 10.3046C59.2262 10.4049 59.3594 10.5069 59.492 10.6107L59.569 10.5124C59.6999 10.6149 59.8302 10.7191 59.9598 10.8251L59.8809 10.9218C60.0099 11.0272 60.1383 11.1343 60.2661 11.2431L60.347 11.1479C60.4749 11.2567 60.6021 11.3672 60.7287 11.4794L60.6459 11.5729C60.7698 11.6826 60.8931 11.794 61.0158 11.9069L61.1004 11.815C61.2237 11.9284 61.3463 12.0434 61.4683 12.16L61.382 12.2503C61.5028 12.3657 61.623 12.4827 61.7425 12.6012L61.8305 12.5125C61.9486 12.6296 62.0661 12.7481 62.183 12.8682L62.0935 12.9553C62.2099 13.0748 62.3256 13.1958 62.4407 13.3182L62.5317 13.2326C62.6468 13.3549 62.7612 13.4787 62.875 13.6039L62.7825 13.6879C62.8939 13.8104 63.0047 13.9343 63.1148 14.0595L63.2086 13.9771C63.3192 14.1028 63.4291 14.2299 63.5385 14.3584L63.4433 14.4393C63.5519 14.5669 63.6599 14.6958 63.7672 14.826L63.8636 14.7466C63.9692 14.8748 64.0743 15.0043 64.1787 15.1351L64.0811 15.213C64.1851 15.3432 64.2885 15.4747 64.3912 15.6074L64.49 15.531C64.5932 15.6642 64.6957 15.7987 64.7976 15.9344L64.6976 16.0093C64.797 16.1417 64.8958 16.2752 64.9939 16.4099L65.0949 16.3364C65.1933 16.4715 65.2911 16.6077 65.3882 16.745L65.2862 16.8171C65.383 16.954 65.4791 17.092 65.5747 17.2312L65.6777 17.1605C65.7721 17.298 65.8658 17.4366 65.9589 17.5762L65.855 17.6454C65.9472 17.7838 66.0388 17.9232 66.1298 18.0637L66.2347 17.9958C66.326 18.1367 66.4167 18.2787 66.5067 18.4217L66.401 18.4882C66.4899 18.6295 66.5783 18.7719 66.666 18.9153L66.7726 18.8501C66.8595 18.9922 66.9457 19.1352 67.0314 19.2792L66.924 19.343C67.0094 19.4866 67.0941 19.6311 67.1783 19.7766L67.2864 19.7142C67.3708 19.86 67.4545 20.0068 67.5375 20.1546L67.4286 20.2157C67.5097 20.3601 67.5903 20.5054 67.6702 20.6517L67.7799 20.5918C67.8601 20.7385 67.9396 20.8861 68.0186 21.0345L67.9082 21.0931C67.9869 21.2411 68.065 21.3901 68.1424 21.5399L68.2535 21.4826C68.3302 21.6311 68.4064 21.7804 68.4819 21.9306L68.3702 21.9867C68.4449 22.1352 68.5189 22.2846 68.5924 22.4348L68.7047 22.38C68.7783 22.5306 68.8513 22.6821 68.9237 22.8344L68.8109 22.8879C68.883 23.0396 68.9545 23.192 69.0253 23.3453L69.1388 23.293C69.2085 23.4439 69.2777 23.5956 69.3462 23.7481L69.2322 23.7992C69.3006 23.9513 69.3683 24.1041 69.4355 24.2577L69.55 24.2078C69.6173 24.3618 69.684 24.5166 69.75 24.6721L69.635 24.7208C69.7003 24.8745 69.765 25.029 69.829 25.1842L69.9446 25.1366C70.0082 25.2907 70.0711 25.4455 70.1335 25.6009L70.0175 25.6473C70.0797 25.8024 70.1413 25.9582 70.2023 26.1147L70.3188 26.0695C70.3799 26.2263 70.4404 26.3839 70.5003 26.5422L70.3834 26.5862C70.4423 26.7418 70.5005 26.898 70.5582 27.0548L70.6755 27.0119C70.7331 27.1686 70.7901 27.326 70.8464 27.484L70.7287 27.5258C70.7849 27.6835 70.8406 27.8418 70.8956 28.0007L71.0137 27.96C71.0687 28.119 71.1231 28.2787 71.1769 28.439L71.0584 28.4786C71.1113 28.636 71.1635 28.794 71.2151 28.9527L71.334 28.9141C71.3857 29.0731 71.4369 29.2327 71.4874 29.3929L71.3682 29.4303C71.4186 29.5901 71.4684 29.7505 71.5176 29.9115L71.6371 29.8752C71.6861 30.0357 71.7346 30.1968 71.7824 30.3584L71.6625 30.3937C71.7097 30.5531 71.7562 30.7131 71.8021 30.8737L71.9223 30.8394C71.9684 31.0003 72.0138 31.1618 72.0586 31.3237L71.9381 31.3569C71.9829 31.5185 72.027 31.6807 72.0705 31.8434L72.1912 31.8113C72.2345 31.9731 72.2772 32.1355 72.3192 32.2984L72.1982 32.3295C72.2398 32.4906 72.2808 32.6523 72.3212 32.8144L72.4425 32.7844C72.4829 32.9468 72.5228 33.1098 72.5621 33.2733L72.4405 33.3023C72.4797 33.4654 72.5183 33.6291 72.5562 33.7932L72.678 33.7652C72.7157 33.9283 72.7528 34.0918 72.7893 34.2559L72.6673 34.2828C72.7035 34.4454 72.739 34.6084 72.774 34.7718L72.8962 34.7459C72.9312 34.9096 72.9657 35.0739 72.9995 35.2386L72.877 35.2635C72.9108 35.4279 72.9439 35.5927 72.9764 35.7579L73.0991 35.734C73.1314 35.8982 73.1631 36.0628 73.1942 36.2279L73.0714 36.2509C73.1022 36.4146 73.1324 36.5787 73.1621 36.7432L73.2851 36.7212C73.3148 36.886 73.3439 37.0513 73.3723 37.2169L73.2492 37.238C73.2776 37.4033 73.3054 37.569 73.3326 37.7352L73.456 37.7152C73.483 37.8804 73.5095 38.046 73.5353 38.2121L73.4118 38.2311C73.4374 38.3957 73.4624 38.5607 73.4868 38.726L73.6105 38.7079C73.635 38.8736 73.6588 39.0396 73.6821 39.2061L73.5583 39.2232C73.5815 39.3893 73.6041 39.5557 73.6261 39.7226L73.75 39.7064C73.7719 39.8726 73.7932 40.0391 73.8139 40.206L73.6898 40.2212C73.7103 40.3865 73.7302 40.5521 73.7495 40.7181L73.8736 40.7038C73.893 40.8701 73.9117 41.0368 73.9298 41.2037L73.8055 41.217C73.8236 41.3837 73.8411 41.5507 73.8579 41.718L73.9823 41.7056C73.9991 41.8726 74.0154 42.04 74.031 42.2077L73.9065 42.2191C73.9219 42.3848 73.9368 42.5509 73.951 42.7173L74.0756 42.7069C74.0898 42.8736 74.1035 43.0406 74.1165 43.2079L73.9919 43.2175C74.005 43.3845 74.0174 43.5518 74.0292 43.7194L74.1539 43.7108C74.1657 43.8786 74.1769 44.0467 74.1876 44.215L74.0628 44.2227C74.0733 44.3888 74.0831 44.5552 74.0924 44.7218L74.2172 44.7151C74.2265 44.882 74.2352 45.0493 74.2433 45.2168L74.1184 45.2226C74.1265 45.3898 74.1339 45.5573 74.1408 45.7251L74.2657 45.7201C74.2725 45.8882 74.2788 46.0565 74.2844 46.2251L74.1595 46.2291C74.1651 46.3957 74.17 46.5626 74.1744 46.7297L74.2994 46.7266C74.3037 46.8937 74.3075 47.061 74.3107 47.2285L74.1857 47.2307C74.1889 47.3979 74.1914 47.5654 74.1934 47.7331L74.3184 47.7319Z" stroke="url(#paint0_linear_1729_5270)" stroke-width="0.25" stroke-dasharray="0.5 0.5"/>
<path d="M49.2662 74.5391C49.0982 74.5408 48.93 74.5419 48.7615 74.5424L48.7609 74.4174C48.6768 74.4176 48.5927 74.4177 48.5085 74.4177C48.4243 74.4176 48.3401 74.4174 48.256 74.417L48.2557 74.542C48.0872 74.5413 47.9189 74.5399 47.7509 74.538L47.7521 74.413C47.5844 74.411 47.417 74.4085 47.2497 74.4053L47.2475 74.5303C47.08 74.5271 46.9127 74.5234 46.7457 74.519L46.7487 74.394C46.5816 74.3897 46.4147 74.3847 46.2481 74.3791L46.2441 74.504C46.0755 74.4984 45.9072 74.4921 45.7392 74.4853L45.7441 74.3604C45.5763 74.3535 45.4088 74.3461 45.2416 74.338L45.2358 74.4629C45.0683 74.4548 44.901 74.4461 44.7341 74.4368L44.7408 74.312C44.5742 74.3028 44.4078 74.2929 44.2417 74.2824L44.234 74.4072C44.0657 74.3966 43.8976 74.3853 43.7298 74.3735L43.7384 74.2488C43.5708 74.237 43.4035 74.2246 43.2365 74.2115L43.2269 74.3362C43.0596 74.3231 42.8926 74.3094 42.7259 74.2952L42.7364 74.1706C42.57 74.1564 42.4039 74.1416 42.2381 74.1261L42.2267 74.2506C42.059 74.235 41.8917 74.2187 41.7246 74.2019L41.737 74.0775C41.5697 74.0607 41.4027 74.0432 41.236 74.0251L41.2227 74.1494C41.0558 74.1313 40.8891 74.1126 40.7229 74.0933L40.7371 73.9691C40.5711 73.9498 40.4055 73.9299 40.2402 73.9094L40.225 74.0335C40.0581 74.0128 39.8916 73.9915 39.7254 73.9696L39.7416 73.8457C39.5748 73.8237 39.4083 73.8011 39.2422 73.7779L39.2251 73.9017C39.0587 73.8784 38.8926 73.8546 38.7269 73.8301L38.745 73.7065C38.5797 73.682 38.4147 73.657 38.2501 73.6314L38.2311 73.7549C38.0651 73.7291 37.8994 73.7026 37.7342 73.6756L37.7542 73.5522C37.588 73.525 37.4223 73.4972 37.257 73.4688L37.236 73.592C37.0703 73.5635 36.905 73.5344 36.7402 73.5047L36.7622 73.3817C36.5977 73.3521 36.4336 73.3218 36.2699 73.291L36.2469 73.4138C36.0819 73.3827 35.9172 73.351 35.753 73.3187L35.777 73.196C35.6117 73.1635 35.4469 73.1304 35.2825 73.0966L35.2576 73.2191C35.0929 73.1853 34.9286 73.1509 34.7649 73.1158L34.7908 72.9936C34.6274 72.9586 34.4644 72.9231 34.3019 72.8869L34.2749 73.0089C34.1108 72.9724 33.9473 72.9353 33.7842 72.8976L33.8122 72.7758C33.6481 72.7379 33.4845 72.6993 33.3213 72.6601L33.2923 72.7817C33.1288 72.7424 32.9659 72.7026 32.8034 72.6621L32.8334 72.5408C32.6713 72.5004 32.5097 72.4594 32.3485 72.4178L32.3174 72.5389C32.1545 72.4968 31.9922 72.4541 31.8303 72.4109L31.8624 72.2901C31.6997 72.2466 31.5376 72.2025 31.3759 72.1578L31.3428 72.2782C31.1808 72.2334 31.0193 72.188 30.8585 72.1419L30.8927 72.0218C30.7321 71.9758 30.5721 71.9293 30.4127 71.8821L30.3774 72.002C30.2158 71.9542 30.0547 71.9058 29.8942 71.8567L29.9305 71.7372C29.7695 71.688 29.6091 71.6382 29.4493 71.5878L29.4119 71.707C29.2517 71.6565 29.0921 71.6054 28.9331 71.5536L28.9717 71.4348C28.813 71.3831 28.655 71.3309 28.4976 71.2781L28.458 71.3966C28.2977 71.3428 28.138 71.2883 27.979 71.2333L28.0197 71.1152C27.8608 71.0602 27.7025 71.0046 27.5448 70.9483L27.503 71.066C27.345 71.0097 27.1876 70.9527 27.0309 70.8951L27.0738 70.7778C26.917 70.7201 26.7608 70.6619 26.6053 70.603L26.5612 70.7199C26.4029 70.66 26.2453 70.5995 26.0885 70.5384L26.1337 70.4219C25.9772 70.361 25.8214 70.2994 25.6663 70.2371L25.6199 70.3531C25.4645 70.2908 25.3097 70.2278 25.1557 70.1642L25.2032 70.0487C25.048 69.9846 24.8935 69.9199 24.7398 69.8546L24.6911 69.9697C24.5356 69.9036 24.3808 69.8369 24.2268 69.7696L24.2767 69.6551C24.1231 69.588 23.9703 69.5202 23.8182 69.4519L23.7671 69.5659C23.6146 69.4973 23.4629 69.4282 23.312 69.3584L23.3643 69.2449C23.211 69.1741 23.0586 69.1026 22.9069 69.0305L22.8534 69.1434C22.7011 69.071 22.5496 68.9979 22.399 68.9243L22.4538 68.812C22.3036 68.7386 22.1542 68.6645 22.0057 68.5898L21.9497 68.7015C21.7995 68.626 21.6501 68.5499 21.5016 68.4731L21.5589 68.3621C21.4091 68.2846 21.2601 68.2065 21.1121 68.1278L21.0535 68.2382C20.9051 68.1593 20.7575 68.0797 20.6108 67.9995L20.6707 67.8899C20.5244 67.8099 20.3791 67.7294 20.2347 67.6482L20.1736 67.7572C20.0258 67.6741 19.879 67.5904 19.7332 67.5061L19.7956 67.3979C19.6501 67.3138 19.5056 67.229 19.362 67.1436L19.2982 67.251C19.1542 67.1654 19.0112 67.0791 18.8692 66.9922L18.9343 66.8856C18.7909 66.7979 18.6485 66.7096 18.5072 66.6206L18.4407 66.7264C18.2977 66.6363 18.1557 66.5457 18.0148 66.4544L18.0827 66.3495C17.9422 66.2585 17.8028 66.1668 17.6644 66.0746L17.5952 66.1786C17.4556 66.0854 17.317 65.9917 17.1795 65.8973L17.2502 65.7943C17.111 65.6988 16.973 65.6026 16.8361 65.5058L16.7641 65.6078C16.6267 65.5107 16.4905 65.4129 16.3554 65.3145L16.4289 65.2135C16.2942 65.1154 16.1607 65.0166 16.0283 64.9173L15.9534 65.0172C15.8177 64.9153 15.6832 64.8128 15.55 64.7097L15.6264 64.6109C15.4937 64.5081 15.3622 64.4047 15.232 64.3007L15.1541 64.3983C15.0233 64.2939 14.8939 64.1889 14.7656 64.0832L14.845 63.9868C14.7148 63.8795 14.5859 63.7715 14.4583 63.663L14.3774 63.7581C14.2489 63.6488 14.1218 63.5388 13.9961 63.4283L14.0785 63.3344C13.9533 63.2243 13.8294 63.1135 13.7069 63.0022L13.6229 63.0946C13.4977 62.9808 13.3739 62.8664 13.2516 62.7514L13.3372 62.6604C13.2148 62.5453 13.0938 62.4295 12.9743 62.3131L12.8872 62.4026C12.7671 62.2857 12.6486 62.1682 12.5315 62.0501L12.6202 61.9622C12.5017 61.8426 12.3848 61.7225 12.2693 61.6017L12.179 61.688C12.0624 61.566 11.9474 61.4433 11.834 61.32L11.9259 61.2355C11.813 61.1128 11.7016 60.9895 11.5919 60.8656L11.4984 60.9484C11.3862 60.8218 11.2757 60.6945 11.1669 60.5667L11.2621 60.4857C11.1533 60.3579 11.0462 60.2295 10.9408 60.1005L10.8441 60.1795C10.7381 60.0498 10.6339 59.9195 10.5314 59.7886L10.6297 59.7116C10.5259 59.579 10.4239 59.4458 10.3236 59.312L10.2236 59.3869C10.1226 59.2521 10.0234 59.1166 9.92601 58.9806L10.0276 58.9079C9.93068 58.7725 9.83557 58.6365 9.7423 58.4999L9.6391 58.5703C9.54362 58.4304 9.45004 58.29 9.35841 58.1489L9.46321 58.0809C9.3721 57.9407 9.28292 57.7998 9.19569 57.6584L9.08932 57.7239C9.0012 57.581 8.91505 57.4375 8.83089 57.2934L8.9388 57.2305C8.8541 57.0855 8.77144 56.9399 8.69083 56.7938L8.58139 56.854C8.50028 56.707 8.42124 56.5593 8.34428 56.4111L8.4552 56.3536C8.37816 56.2053 8.30324 56.0563 8.23044 55.9068L8.11807 55.9614C8.04429 55.8099 7.97267 55.6578 7.90325 55.5052L8.01702 55.4536C7.94805 55.3019 7.88126 55.1497 7.81667 54.997L7.70155 55.0455C7.63594 54.8904 7.57258 54.7347 7.51149 54.5784L7.6279 54.5331C7.5671 54.3775 7.50857 54.2215 7.45234 54.0649L7.3347 54.107C7.27802 53.9492 7.22365 53.7908 7.17161 53.6319L7.29039 53.5932C7.23839 53.4344 7.18873 53.2751 7.14144 53.1152L7.02159 53.1506C6.97396 52.9896 6.92873 52.8281 6.8859 52.6661L7.00674 52.6343C6.96416 52.4733 6.92398 52.3118 6.88624 52.1497L6.7645 52.1779C6.7264 52.0144 6.69076 51.8505 6.65759 51.686L6.78012 51.6615C6.7472 51.4982 6.71673 51.3345 6.68875 51.1704L6.56553 51.1912C6.53737 51.026 6.5117 50.8604 6.48854 50.6943L6.61235 50.6772C6.58938 50.5124 6.5689 50.3472 6.55094 50.1816L6.42668 50.1949C6.40861 50.0281 6.39306 49.861 6.38008 49.6934L6.50471 49.6839C6.49189 49.5185 6.48158 49.3528 6.47381 49.1866L6.34895 49.1922C6.34111 49.0248 6.33583 48.8569 6.33313 48.6887L6.45812 48.6869C6.45677 48.6034 6.45607 48.5198 6.45601 48.4361C6.45595 48.3525 6.45653 48.2689 6.45775 48.1855L6.33276 48.1835C6.33522 48.0152 6.34026 47.8474 6.34785 47.6799L6.47271 47.6858C6.48024 47.5196 6.49031 47.3538 6.50288 47.1884L6.37824 47.1788C6.39098 47.0112 6.40627 46.8441 6.4241 46.6774L6.54839 46.6909C6.5661 46.5253 6.58634 46.3601 6.60907 46.1953L6.48524 46.178C6.50816 46.012 6.53358 45.8464 6.5615 45.6812L6.68475 45.7022C6.71249 45.5381 6.74272 45.3745 6.7754 45.2113L6.65283 45.1866C6.68576 45.0222 6.72116 44.8583 6.75902 44.6948L6.8808 44.7232C6.91831 44.5612 6.95825 44.3998 7.0006 44.2388L6.8797 44.2068C6.92229 44.0449 6.96729 43.8835 7.01468 43.7226L7.1346 43.7581C7.18165 43.5983 7.23107 43.4391 7.28285 43.2804L7.164 43.2415C7.21581 43.0826 7.26994 42.9243 7.3264 42.7666L7.4441 42.8089C7.50011 42.6524 7.5584 42.4964 7.61898 42.341L7.5025 42.2954C7.56336 42.1393 7.62649 41.9836 7.69188 41.8286L7.80707 41.8773C7.87143 41.7247 7.938 41.5726 8.00674 41.421L7.8929 41.3692C7.9621 41.2167 8.0335 41.0647 8.10706 40.9133L8.21951 40.9681C8.29209 40.8187 8.36679 40.6699 8.44361 40.5216L8.33261 40.464C8.40935 40.3159 8.48818 40.1683 8.56908 40.0214L8.6786 40.0818C8.75899 39.9357 8.84144 39.7903 8.92593 39.6454L8.81793 39.5823C8.90188 39.4384 8.98782 39.295 9.07573 39.1523L9.1822 39.2179C9.26922 39.0766 9.35819 38.9359 9.44909 38.7958L9.3442 38.7276C9.43563 38.5867 9.52899 38.4464 9.62427 38.3067L9.72757 38.3772C9.82064 38.2407 9.91556 38.1049 10.0123 37.9696L9.91058 37.8968C10.0078 37.7609 10.1068 37.6256 10.2076 37.4909L10.3077 37.5659C10.4078 37.4322 10.5096 37.2992 10.6132 37.1668L10.5148 37.0897C10.6171 36.9589 10.7211 36.8287 10.8269 36.6992L10.9238 36.7783C11.029 36.6495 11.1359 36.5212 11.2444 36.3936L11.1492 36.3125C11.2578 36.1848 11.3681 36.0577 11.4801 35.9313L11.5737 36.0142C11.6833 35.8905 11.7944 35.7673 11.9072 35.6448L11.8151 35.5601C11.9284 35.437 12.0432 35.3145 12.1596 35.1927L12.2501 35.2791C12.3653 35.1585 12.4821 35.0385 12.6004 34.9191L12.5116 34.8311C12.6285 34.7131 12.7469 34.5958 12.8667 34.4791L12.954 34.5687C13.0733 34.4525 13.1941 34.3369 13.3164 34.222L13.2307 34.1309C13.3528 34.016 13.4764 33.9017 13.6014 33.7881L13.6856 33.8807C13.8079 33.7695 13.9317 33.6589 14.0567 33.549L13.9741 33.4551C14.0997 33.3447 14.2267 33.2349 14.355 33.1258L14.436 33.221C14.5635 33.1126 14.6922 33.0049 14.8223 32.8977L14.7427 32.8012C14.8708 32.6957 15.0001 32.5909 15.1307 32.4867L15.2088 32.5844C15.3389 32.4806 15.4702 32.3774 15.6028 32.2748L15.5262 32.1759C15.6593 32.0729 15.7936 31.9706 15.9291 31.869L16.0042 31.969C16.1365 31.8698 16.2698 31.7713 16.4044 31.6733L16.3307 31.5722C16.4657 31.474 16.6017 31.3765 16.7389 31.2795L16.8112 31.3816C16.9479 31.285 17.0858 31.1891 17.2248 31.0937L17.154 30.9906C17.2913 30.8965 17.4298 30.8029 17.5693 30.71L17.6387 30.8141C17.7769 30.722 17.9161 30.6306 18.0565 30.5398L17.9885 30.4348C18.1292 30.3437 18.2711 30.2533 18.414 30.1634L18.4806 30.2693C18.6218 30.1805 18.7641 30.0924 18.9073 30.0049L18.842 29.8982C18.9839 29.8115 19.1268 29.7255 19.2707 29.64L19.3347 29.7475C19.4781 29.6624 19.6225 29.5778 19.7679 29.4939L19.7053 29.3856C19.851 29.3015 19.9977 29.218 20.1453 29.1352L20.2066 29.2442C20.3509 29.1633 20.4961 29.0829 20.6422 29.0032L20.5822 28.8934C20.7288 28.8135 20.8762 28.7341 21.0246 28.6554L21.0833 28.7659C21.2312 28.6874 21.3801 28.6095 21.5298 28.5323L21.4723 28.4212C21.6207 28.3446 21.7699 28.2687 21.92 28.1934L21.9762 28.3052C22.1246 28.2307 22.2739 28.1569 22.424 28.0836L22.3691 27.9713C22.5196 27.8978 22.6709 27.825 22.8231 27.7529L22.8768 27.8658C23.0284 27.7939 23.1807 27.7227 23.3339 27.652L23.2814 27.5385C23.4322 27.469 23.5839 27.4 23.7362 27.3317L23.7875 27.4458C23.9395 27.3777 24.0922 27.3101 24.2457 27.2432L24.1956 27.1286C24.3495 27.0615 24.5042 26.9951 24.6596 26.9293L24.7085 27.0444C24.8621 26.9793 25.0165 26.9149 25.1716 26.851L25.1239 26.7354C25.2778 26.672 25.4325 26.6093 25.5879 26.5471L25.6345 26.6632C25.7895 26.6012 25.9452 26.5398 26.1016 26.4791L26.0562 26.3626C26.2129 26.3017 26.3704 26.2414 26.5286 26.1817L26.5728 26.2987C26.7283 26.2401 26.8844 26.182 27.0412 26.1246L26.998 26.0072C27.1547 25.9499 27.312 25.8931 27.4699 25.837L27.5119 25.9548C27.6695 25.8988 27.8277 25.8434 27.9866 25.7886L27.9457 25.6704C28.1046 25.6156 28.2642 25.5614 28.4244 25.5079L28.4642 25.6264C28.6215 25.5738 28.7795 25.5218 28.938 25.4704L28.8993 25.3515C29.0583 25.3 29.2178 25.2491 29.3779 25.1988L29.4155 25.3181C29.5752 25.2679 29.7356 25.2183 29.8965 25.1694L29.8599 25.0498C30.0204 25.001 30.1814 24.9528 30.343 24.9052L30.3784 25.0251C30.5378 24.9782 30.6977 24.9319 30.8582 24.8862L30.8238 24.766C30.9846 24.7202 31.146 24.675 31.3079 24.6304L31.3413 24.7509C31.5028 24.7064 31.6649 24.6626 31.8276 24.6193L31.7953 24.4985C31.9571 24.4555 32.1194 24.413 32.2822 24.3712L32.3135 24.4923C32.4745 24.4509 32.6361 24.4102 32.7982 24.37L32.768 24.2487C32.9304 24.2084 33.0933 24.1688 33.2567 24.1298L33.2859 24.2514C33.449 24.2125 33.6126 24.1741 33.7766 24.1364L33.7484 24.0146C33.9115 23.9771 34.075 23.9403 34.239 23.904L34.2661 24.0261C34.4286 23.9901 34.5915 23.9548 34.7549 23.9201L34.7288 23.7978C34.8925 23.763 35.0567 23.7288 35.2214 23.6953L35.2465 23.8178C35.4108 23.7843 35.5756 23.7514 35.7408 23.7191L35.7166 23.5964C35.8808 23.5643 36.0454 23.5329 36.2104 23.502L36.2336 23.6249C36.3972 23.5943 36.5613 23.5643 36.7257 23.5349L36.7036 23.4118C36.8684 23.3824 37.0336 23.3535 37.1992 23.3253L37.2204 23.4485C37.3857 23.4203 37.5514 23.3928 37.7175 23.3658L37.6973 23.2424C37.8625 23.2156 38.0281 23.1894 38.1941 23.1638L38.2133 23.2873C38.3779 23.262 38.5428 23.2372 38.7081 23.213L38.6898 23.0893C38.8555 23.0651 39.0215 23.0415 39.1879 23.0185L39.2052 23.1423C39.3712 23.1193 39.5376 23.097 39.7044 23.0752L39.6881 22.9513C39.8543 22.9296 40.0208 22.9086 40.1876 22.8881L40.203 23.0122C40.3683 22.992 40.5338 22.9723 40.6998 22.9533L40.6854 22.8291C40.8516 22.81 41.0182 22.7915 41.1852 22.7737L41.1986 22.898C41.3653 22.8801 41.5322 22.8629 41.6995 22.8463L41.687 22.7219C41.854 22.7053 42.0213 22.6893 42.189 22.674L42.2005 22.7984C42.3663 22.7832 42.5324 22.7686 42.6987 22.7547L42.6881 22.6301C42.8548 22.6161 43.0218 22.6027 43.1891 22.5898L43.1988 22.7145C43.3658 22.7017 43.5331 22.6895 43.7007 22.6779L43.6919 22.5532C43.8597 22.5416 44.0277 22.5307 44.1961 22.5203L44.2039 22.6451C44.37 22.6348 44.5364 22.6252 44.703 22.6162L44.6961 22.4914C44.863 22.4823 45.0303 22.4739 45.1978 22.4661L45.2038 22.5909C45.371 22.5831 45.5385 22.5759 45.7062 22.5693L45.7011 22.4444C45.8691 22.4378 46.0375 22.4318 46.206 22.4264L46.2102 22.5513C46.3768 22.546 46.5437 22.5412 46.7108 22.5371L46.7075 22.4122C46.8746 22.408 47.0419 22.4045 47.2094 22.4016L47.2118 22.5266C47.379 22.5236 47.5465 22.5213 47.7142 22.5196L47.7127 22.3946C47.8808 22.3929 48.049 22.3918 48.2175 22.3913L48.2181 22.5163C48.3022 22.5161 48.3863 22.516 48.4705 22.5161C48.5547 22.5161 48.6389 22.5163 48.7229 22.5167L48.7233 22.3917C48.8918 22.3924 49.0601 22.3938 49.2281 22.3957L49.2268 22.5207C49.3945 22.5227 49.562 22.5252 49.7293 22.5284L49.7314 22.4034C49.899 22.4066 50.0663 22.4104 50.2333 22.4147L50.2302 22.5397C50.3974 22.5441 50.5642 22.549 50.7309 22.5546L50.7348 22.4297C50.9034 22.4353 51.0718 22.4416 51.2398 22.4484L51.2349 22.5733C51.4026 22.5802 51.5701 22.5876 51.7373 22.5957L51.7432 22.4709C51.9107 22.4789 52.0779 22.4876 52.2449 22.4969L52.2381 22.6217C52.4048 22.631 52.5712 22.6408 52.7373 22.6513L52.7449 22.5266C52.9133 22.5372 53.0814 22.5484 53.2491 22.5602L53.2405 22.6849C53.4082 22.6967 53.5755 22.7091 53.7425 22.7222L53.752 22.5976C53.9194 22.6106 54.0864 22.6243 54.2531 22.6385L54.2426 22.7631C54.409 22.7773 54.5751 22.7922 54.7409 22.8076L54.7523 22.6831C54.92 22.6988 55.0873 22.715 55.2543 22.7318L55.242 22.8562C55.4093 22.873 55.5763 22.8905 55.7429 22.9086L55.7562 22.7843C55.9232 22.8024 56.0898 22.8212 56.2561 22.8405L56.2419 22.9646C56.4078 22.9839 56.5735 23.0038 56.7387 23.0243L56.7539 22.9002C56.9208 22.9209 57.0874 22.9422 57.2535 22.9641L57.2374 23.0881C57.4042 23.11 57.5707 23.1326 57.7368 23.1558L57.7539 23.032C57.9203 23.0553 58.0864 23.0792 58.252 23.1036L58.2339 23.2273C58.3993 23.2517 58.5643 23.2767 58.7288 23.3023L58.7479 23.1788C58.9139 23.2046 59.0796 23.2311 59.2448 23.2582L59.2248 23.3815C59.3909 23.4087 59.5567 23.4365 59.722 23.465L59.743 23.3418C59.9087 23.3702 60.0739 23.3993 60.2388 23.429L60.2168 23.552C60.3813 23.5817 60.5454 23.6119 60.7091 23.6428L60.732 23.5199C60.8971 23.551 61.0618 23.5827 61.226 23.615L61.202 23.7377C61.3673 23.7702 61.5321 23.8033 61.6964 23.8371L61.7214 23.7146C61.8861 23.7485 62.0503 23.7829 62.2141 23.8179L62.1881 23.9401C62.3516 23.9751 62.5146 24.0107 62.6771 24.0468L62.7041 23.9248C62.8681 23.9613 63.0317 23.9984 63.1948 24.0361L63.1668 24.1579C63.3309 24.1958 63.4945 24.2344 63.6577 24.2736L63.6867 24.152C63.8501 24.1913 64.0131 24.2312 64.1756 24.2716L64.1456 24.3929C64.3077 24.4333 64.4693 24.4743 64.6305 24.5159L64.6615 24.3949C64.8244 24.4369 64.9868 24.4796 65.1487 24.5229L65.1166 24.6436C65.2793 24.6871 65.4414 24.7312 65.603 24.776L65.6362 24.6555C65.7982 24.7003 65.9596 24.7457 66.1205 24.7918L66.0863 24.912C66.2468 24.9579 66.4068 25.0044 66.5663 25.0516L66.6015 24.9317C66.7632 24.9795 66.9243 25.028 67.0848 25.077L67.0484 25.1965C67.2094 25.2457 67.3698 25.2955 67.5297 25.3459L67.5671 25.2267C67.7273 25.2772 67.8869 25.3284 68.0458 25.3801L68.0073 25.499C68.1659 25.5506 68.324 25.6028 68.4814 25.6557L68.521 25.5372C68.6813 25.591 68.8409 25.6454 69 25.7004L68.9592 25.8185C69.1182 25.8736 69.2765 25.9292 69.4341 25.9854L69.476 25.8677C69.634 25.924 69.7914 25.981 69.9481 26.0386L69.9051 26.1559C70.062 26.2136 70.2182 26.2718 70.3737 26.3307L70.4178 26.2138C70.5761 26.2737 70.7336 26.3342 70.8905 26.3953L70.8453 26.5118C71.0018 26.5728 71.1575 26.6344 71.3126 26.6966L71.359 26.5806C71.5145 26.643 71.6693 26.7059 71.8233 26.7695L71.7758 26.8851C71.931 26.9491 72.0854 27.0138 72.2391 27.0791L72.2879 26.9641C72.4434 27.0301 72.5981 27.0968 72.7521 27.1641L72.7022 27.2786C72.8558 27.3458 73.0087 27.4135 73.1607 27.4819L73.2119 27.3679C73.3643 27.4364 73.516 27.5056 73.667 27.5753L73.6146 27.6888C73.7679 27.7596 73.9204 27.8311 74.0721 27.9032L74.1256 27.7904C74.2779 27.8628 74.4293 27.9358 74.58 28.0094L74.5252 28.1217C74.6754 28.1952 74.8248 28.2692 74.9733 28.3439L75.0293 28.2322C75.1795 28.3077 75.3289 28.3839 75.4774 28.4606L75.4201 28.5717C75.5699 28.6491 75.7188 28.7272 75.8669 28.8059L75.9254 28.6955C76.0739 28.7745 76.2215 28.854 76.3681 28.9342L76.3083 29.0439C76.4545 29.1238 76.5999 29.2044 76.7443 29.2855L76.8054 29.1766C76.9532 29.2596 77.1 29.3433 77.2458 29.4276L77.1834 29.5358C77.3289 29.62 77.4734 29.7047 77.617 29.7901L77.6808 29.6827C77.8248 29.7684 77.9678 29.8546 78.1098 29.9415L78.0447 30.0481C78.1881 30.1358 78.3304 30.2242 78.4717 30.3131L78.5382 30.2074C78.6813 30.2974 78.8232 30.3881 78.9642 30.4794L78.8963 30.5843C79.0368 30.6753 79.1762 30.7669 79.3145 30.8591L79.3838 30.7552C79.5234 30.8483 79.662 30.942 79.7994 31.0364L79.7288 31.1394C79.8679 31.235 80.006 31.3311 80.1428 31.4279L80.2149 31.3259C80.3523 31.423 80.4885 31.5208 80.6235 31.6192L80.55 31.7202C80.6847 31.8183 80.8183 31.9171 80.9506 32.0165L81.0256 31.9165C81.1613 32.0184 81.2957 32.1209 81.429 32.2241L81.3525 32.3228C81.4853 32.4256 81.6167 32.529 81.747 32.633L81.8249 32.5354C81.9556 32.6398 82.0851 32.7448 82.2133 32.8505L82.1339 32.9469C82.2642 33.0542 82.3931 33.1622 82.5207 33.2708L82.6016 33.1756C82.73 33.2849 82.8571 33.3949 82.9829 33.5055L82.9004 33.5993C83.0257 33.7094 83.1496 33.8202 83.2721 33.9315L83.3561 33.8391C83.4813 33.9529 83.605 34.0673 83.7274 34.1824L83.6418 34.2734C83.7642 34.3885 83.8852 34.5042 84.0047 34.6206L84.0918 34.5311C84.2118 34.648 84.3304 34.7655 84.4475 34.8836L84.3588 34.9716C84.4773 35.0911 84.5942 35.2113 84.7096 35.3321L84.8 35.2458C84.9165 35.3678 85.0316 35.4904 85.145 35.6137L85.0531 35.6983C85.166 35.8209 85.2773 35.9443 85.3871 36.0682L85.4806 35.9854C85.5927 36.112 85.7032 36.2392 85.812 36.3671L85.7169 36.448C85.8257 36.5758 85.9328 36.7042 86.0382 36.8332L86.1349 36.7542C86.2408 36.8839 86.3451 37.0142 86.4476 37.1451L86.3492 37.2221C86.4531 37.3547 86.5551 37.4879 86.6554 37.6217L86.7553 37.5468C86.8564 37.6816 86.9556 37.8171 87.053 37.9531L86.9514 38.0258C87.0483 38.1612 87.1434 38.2972 87.2367 38.4338L87.3399 38.3634C87.4354 38.5033 87.5289 38.6438 87.6206 38.7848L87.5158 38.8528C87.6069 38.9931 87.6961 39.1339 87.7833 39.2754L87.8897 39.2099C87.9778 39.3527 88.0639 39.4962 88.1481 39.6403L88.0402 39.7032C88.1249 39.8482 88.2075 39.9938 88.2881 40.1399L88.3976 40.0797C88.4787 40.2268 88.5577 40.3744 88.6347 40.5226L88.5238 40.5801C88.6008 40.7285 88.6757 40.8774 88.7485 41.0269L88.8609 40.9723C88.9347 41.1238 89.0063 41.2759 89.0757 41.4286L88.962 41.4802C89.0309 41.6318 89.0977 41.784 89.1623 41.9367L89.2774 41.8882C89.343 42.0433 89.4064 42.1991 89.4675 42.3553L89.3511 42.4007C89.4119 42.5562 89.4704 42.7123 89.5266 42.8688L89.6443 42.8267C89.701 42.9846 89.7553 43.1429 89.8074 43.3018L89.6886 43.3406C89.7406 43.4994 89.7902 43.6587 89.8375 43.8185L89.9574 43.7832C90.005 43.9441 90.0503 44.1056 90.0931 44.2676L89.9722 44.2994C90.0148 44.4604 90.055 44.622 90.0927 44.784L90.2145 44.7558C90.2526 44.9193 90.2882 45.0833 90.3214 45.2477L90.1989 45.2723C90.2318 45.4355 90.2622 45.5992 90.2902 45.7633L90.4134 45.7425C90.4416 45.9077 90.4673 46.0733 90.4904 46.2394L90.3666 46.2565C90.3896 46.4213 90.4101 46.5865 90.428 46.7521L90.5523 46.7389C90.5704 46.9056 90.5859 47.0727 90.5989 47.2403L90.4743 47.2498C90.4871 47.4152 90.4974 47.581 90.5052 47.7472L90.63 47.7415C90.6379 47.909 90.6431 48.0768 90.6458 48.245L90.5209 48.2469C90.5222 48.3304 90.5229 48.4139 90.523 48.4976C90.523 48.5812 90.5224 48.6648 90.5212 48.7483L90.6462 48.7503C90.6438 48.9185 90.6387 49.0863 90.6311 49.2538L90.5063 49.248C90.4987 49.4141 90.4887 49.5799 90.4761 49.7453L90.6007 49.7549C90.588 49.9225 90.5727 50.0896 90.5549 50.2563L90.4306 50.2429C90.4129 50.4085 90.3926 50.5737 90.3699 50.7384L90.4937 50.7557C90.4708 50.9217 90.4454 51.0873 90.4175 51.2525L90.2942 51.2315C90.2665 51.3956 90.2363 51.5592 90.2036 51.7224L90.3261 51.7471C90.2932 51.9115 90.2578 52.0755 90.22 52.2389L90.0982 52.2105C90.0607 52.3725 90.0207 52.534 89.9784 52.6949L90.0993 52.7269C90.0567 52.8888 90.0117 53.0502 89.9643 53.2111L89.8444 53.1757C89.7973 53.3354 89.7479 53.4946 89.6961 53.6534L89.815 53.6923C89.7632 53.8511 89.709 54.0094 89.6526 54.1671L89.5349 54.1249C89.4789 54.2814 89.4206 54.4373 89.36 54.5928L89.4765 54.6383C89.4156 54.7945 89.3525 54.9501 89.2871 55.1051L89.1719 55.0564C89.1075 55.2091 89.041 55.3612 88.9722 55.5127L89.0861 55.5645C89.0169 55.717 88.9455 55.869 88.8719 56.0204L88.7595 55.9657C88.6869 56.1151 88.6122 56.2639 88.5354 56.4121L88.6464 56.4698C88.5696 56.6179 88.4908 56.7654 88.4099 56.9124L88.3004 56.8519C88.22 56.998 88.1375 57.1434 88.053 57.2883L88.161 57.3514C88.0771 57.4953 87.9912 57.6387 87.9032 57.7815L87.7968 57.7158C87.7098 57.8571 87.6208 57.9978 87.5299 58.138L87.6348 58.2061C87.5433 58.347 87.45 58.4874 87.3547 58.6271L87.2514 58.5565C87.1583 58.693 87.0634 58.8289 86.9667 58.9641L87.0684 59.037C86.9712 59.1729 86.8722 59.3082 86.7714 59.4428L86.6713 59.3678C86.5712 59.5015 86.4694 59.6345 86.3657 59.7669L86.4642 59.8441C86.3619 59.9748 86.2578 60.105 86.1521 60.2345L86.0552 60.1554C85.95 60.2842 85.8431 60.4125 85.7345 60.5401L85.8298 60.6212C85.7212 60.7489 85.6109 60.876 85.4989 61.0024L85.4053 60.9195C85.2957 61.0432 85.1845 61.1664 85.0718 61.2889L85.1639 61.3736C85.0506 61.4967 84.9357 61.6192 84.8193 61.741L84.7289 61.6546C84.6137 61.7752 84.4969 61.8952 84.3786 62.0146L84.4674 62.1027C84.3505 62.2206 84.2321 62.338 84.1122 62.4547L84.025 62.365C83.9056 62.4812 83.7848 62.5968 83.6626 62.7118L83.7483 62.8029C83.6261 62.9178 83.5026 63.032 83.3775 63.1456L83.2934 63.053C83.171 63.1642 83.0473 63.2748 82.9222 63.3847L83.0048 63.4787C82.8792 63.5891 82.7523 63.6988 82.624 63.808L82.5429 63.7127C82.4155 63.8211 82.2868 63.9289 82.1567 64.036L82.2362 64.1325C82.1082 64.238 81.9788 64.3428 81.8482 64.4471L81.7702 64.3493C81.6401 64.4532 81.5088 64.5564 81.3762 64.6589L81.4528 64.7578C81.3197 64.8608 81.1854 64.9631 81.0498 65.0648L80.9747 64.9647C80.8425 65.0639 80.7091 65.1625 80.5746 65.2604L80.6482 65.3615C80.5133 65.4597 80.3772 65.5573 80.24 65.6542L80.1678 65.5521C80.0311 65.6487 79.8932 65.7447 79.7542 65.84L79.825 65.9431C79.6876 66.0373 79.5492 66.1308 79.4097 66.2237L79.3403 66.1197C79.2021 66.2117 79.0628 66.3031 78.9225 66.3939L78.9905 66.4989C78.8497 66.59 78.7079 66.6805 78.565 66.7703L78.4983 66.6644C78.3571 66.7532 78.2149 66.8413 78.0717 66.9288L78.137 67.0355C77.995 67.1222 77.8521 67.2083 77.7083 67.2937L77.6443 67.1862C77.5009 67.2714 77.3565 67.3559 77.2111 67.4398L77.2737 67.5481C77.128 67.6322 76.9813 67.7157 76.8336 67.7986L76.7724 67.6895C76.6281 67.7705 76.4829 67.8508 76.3367 67.9306L76.3967 68.0403C76.2502 68.1203 76.1027 68.1996 75.9544 68.2783L75.8957 68.1679C75.7477 68.2464 75.5989 68.3242 75.4492 68.4015L75.5066 68.5126C75.3583 68.5891 75.209 68.665 75.059 68.7403L75.0028 68.6286C74.8543 68.703 74.7051 68.7769 74.555 68.8501L74.6099 68.9625C74.4594 69.0359 74.3081 69.1087 74.1559 69.1809L74.1022 69.0679C73.9506 69.1398 73.7983 69.2111 73.6451 69.2817L73.6975 69.3952C73.5467 69.4648 73.3951 69.5337 73.2427 69.602L73.1915 69.4879C73.0395 69.5561 72.8868 69.6236 72.7333 69.6905L72.7833 69.8051C72.6294 69.8722 72.4748 69.9386 72.3194 70.0045L72.2705 69.8894C72.1168 69.9544 71.9625 70.0189 71.8074 70.0827L71.8551 70.1983C71.7011 70.2617 71.5465 70.3244 71.3911 70.3866L71.3445 70.2705C71.1895 70.3325 71.0338 70.3939 70.8774 70.4546L70.9228 70.5712C70.766 70.6321 70.6086 70.6923 70.4504 70.752L70.4061 70.635C70.2507 70.6937 70.0946 70.7517 69.9378 70.8091L69.9809 70.9265C69.8243 70.9839 69.667 71.0406 69.509 71.0967L69.467 70.979C69.3095 71.035 69.1513 71.0904 68.9924 71.1451L69.0333 71.2633C68.8744 71.3181 68.7148 71.3723 68.5546 71.4259L68.5148 71.3073C68.3574 71.3599 68.1995 71.4119 68.0409 71.4633L68.0796 71.5822C67.9207 71.6337 67.7612 71.6846 67.6011 71.7349L67.5635 71.6157C67.4038 71.6658 67.2434 71.7154 67.0825 71.7643L67.119 71.8839C66.9586 71.9327 66.7976 71.9809 66.636 72.0285L66.6005 71.9086C66.4412 71.9555 66.2812 72.0018 66.1208 72.0475L66.1552 72.1677C65.9943 72.2135 65.833 72.2587 65.6711 72.3033L65.6377 72.1828C65.4762 72.2273 65.3141 72.2712 65.1514 72.3144L65.1837 72.4352C65.0219 72.4783 64.8596 72.5207 64.6968 72.5625L64.6655 72.4414C64.5044 72.4828 64.3429 72.5236 64.1808 72.5637L64.211 72.685C64.0486 72.7253 63.8857 72.7649 63.7223 72.8039L63.6931 72.6823C63.53 72.7213 63.3664 72.7596 63.2024 72.7973L63.2305 72.9191C63.0675 72.9566 62.904 72.9935 62.74 73.0297L62.7129 72.9077C62.5504 72.9436 62.3874 72.9789 62.224 73.0136L62.2502 73.1359C62.0864 73.1707 61.9223 73.2049 61.7576 73.2385L61.7325 73.116C61.5682 73.1495 61.4034 73.1824 61.2382 73.2146L61.2623 73.3373C61.0982 73.3694 60.9336 73.4009 60.7685 73.4317L60.7454 73.3089C60.5818 73.3395 60.4177 73.3695 60.2532 73.3989L60.2754 73.5219C60.1106 73.5514 59.9454 73.5802 59.7798 73.6084L59.7586 73.4852C59.5933 73.5134 59.4276 73.541 59.2615 73.5679L59.2817 73.6913C59.1165 73.7181 58.9509 73.7443 58.7849 73.7699L58.7657 73.6464C58.6011 73.6718 58.4362 73.6966 58.2709 73.7207L58.2891 73.8444C58.1235 73.8686 57.9575 73.8922 57.7911 73.9153L57.7738 73.7914C57.6078 73.8144 57.4413 73.8367 57.2745 73.8585L57.2909 73.9824C57.1247 74.0041 56.9582 74.0251 56.7913 74.0456L56.776 73.9215C56.6107 73.9418 56.4451 73.9614 56.2792 73.9804L56.2936 74.1046C56.1274 74.1237 55.9608 74.1422 55.7938 74.1601L55.7803 74.0358C55.6137 74.0536 55.4468 74.0708 55.2795 74.0874L55.292 74.2118C55.125 74.2284 54.9577 74.2444 54.79 74.2598L54.7784 74.1353C54.6127 74.1505 54.4466 74.1651 54.2802 74.1791L54.2909 74.3036C54.1242 74.3177 53.9572 74.3311 53.7899 74.3439L53.7802 74.2193C53.6132 74.232 53.4459 74.2442 53.2783 74.2558L53.2871 74.3805C53.1193 74.3921 52.9512 74.4031 52.7829 74.4134L52.775 74.2887C52.6089 74.2989 52.4426 74.3085 52.2759 74.3175L52.2829 74.4423C52.1159 74.4514 51.9487 74.4598 51.7812 74.4677L51.7752 74.3428C51.608 74.3506 51.4405 74.3578 51.2728 74.3644L51.2779 74.4893C51.1098 74.4959 50.9415 74.502 50.7729 74.5074L50.7688 74.3824C50.6022 74.3877 50.4353 74.3925 50.2682 74.3966L50.2714 74.5216C50.1044 74.5257 49.9371 74.5292 49.7696 74.5322L49.7672 74.4072C49.6 74.4101 49.4325 74.4124 49.2648 74.4141L49.2662 74.5391Z" stroke="url(#paint1_linear_1729_5270)" stroke-width="0.25" stroke-dasharray="0.5 0.5"/>
<rect x="44" y="44" width="1" height="31.5071" rx="0.5" fill="url(#paint2_linear_1729_5270)"/>
<g filter="url(#filter0_d_1729_5270)">
<path d="M44 44.5C44 44.2239 44.2239 44 44.5 44C44.7761 44 45 44.2239 45 44.5V50.5C45 50.7761 44.7761 51 44.5 51C44.2239 51 44 50.7761 44 50.5V44.5Z" fill="#632BFF"/>
</g>
<rect x="48" y="44" width="1" height="45" rx="0.5" fill="url(#paint3_linear_1729_5270)"/>
<g filter="url(#filter1_d_1729_5270)">
<path d="M48 44.5C48 44.2239 48.2239 44 48.5 44C48.7761 44 49 44.2239 49 44.5V53.5C49 53.7761 48.7761 54 48.5 54C48.2239 54 48 53.7761 48 53.5V44.5Z" fill="#632BFF"/>
</g>
<rect x="52" y="44" width="1" height="31.5071" rx="0.5" fill="url(#paint4_linear_1729_5270)"/>
<g filter="url(#filter2_d_1729_5270)">
<path d="M52 44.5C52 44.2239 52.2239 44 52.5 44C52.7761 44 53 44.2239 53 44.5V50.5016C53 50.7777 52.7761 51.0016 52.5 51.0016C52.2239 51.0016 52 50.7777 52 50.5016V44.5Z" fill="#632BFF"/>
</g>
<rect x="51" y="51" width="1" height="45" rx="0.500002" transform="rotate(-180 51 51)" fill="url(#paint5_linear_1729_5270)"/>
<g filter="url(#filter3_d_1729_5270)">
<path d="M51 50.5C51 50.7761 50.7761 51 50.5 51C50.2239 51 50 50.7761 50 50.5L50 41.5C50 41.2239 50.2239 41 50.5 41C50.7761 41 51 41.2239 51 41.5L51 50.5Z" fill="#53FDA9"/>
</g>
<rect x="47" y="51" width="1" height="45" rx="0.5" transform="rotate(-180 47 51)" fill="url(#paint6_linear_1729_5270)"/>
<g filter="url(#filter4_d_1729_5270)">
<path d="M47 50.5C47 50.7761 46.7761 51 46.5 51C46.2239 51 46 50.7761 46 50.5L46 41.5C46 41.2239 46.2239 41 46.5 41C46.7761 41 47 41.2239 47 41.5L47 50.5Z" fill="#53FDA9"/>
</g>
<rect x="43" y="51" width="1" height="31.5071" rx="0.5" transform="rotate(-180 43 51)" fill="url(#paint7_linear_1729_5270)"/>
<g filter="url(#filter5_d_1729_5270)">
<path d="M43 50.5C43 50.7761 42.7761 51 42.5 51C42.2239 51 42 50.7761 42 50.5L42 44.4984C42 44.2223 42.2239 43.9984 42.5 43.9984C42.7761 43.9984 43 44.2223 43 44.4984L43 50.5Z" fill="#53FDA9"/>
</g>
<rect x="55" y="51" width="1" height="31.5071" rx="0.5" transform="rotate(-180 55 51)" fill="url(#paint8_linear_1729_5270)"/>
<g filter="url(#filter6_d_1729_5270)">
<path d="M55 50.5C55 50.7761 54.7761 51 54.5 51C54.2239 51 54 50.7761 54 50.5L54 44.4984C54 44.2223 54.2239 43.9984 54.5 43.9984C54.7761 43.9984 55 44.2223 55 44.4984L55 50.5Z" fill="#53FDA9"/>
</g>
<defs>
<filter id="filter0_d_1729_5270" x="40" y="40" width="9" height="15" filterUnits="userSpaceOnUse" color-interpolation-filters="sRGB">
<feFlood flood-opacity="0" result="BackgroundImageFix"/>
<feColorMatrix in="SourceAlpha" type="matrix" values="0 0 0 0 0 0 0 0 0 0 0 0 0 0 0 0 0 0 127 0" result="hardAlpha"/>
<feOffset/>
<feGaussianBlur stdDeviation="2"/>
<feComposite in2="hardAlpha" operator="out"/>
<feColorMatrix type="matrix" values="0 0 0 0 0.388235 0 0 0 0 0.168627 0 0 0 0 1 0 0 0 1 0"/>
<feBlend mode="normal" in2="BackgroundImageFix" result="effect1_dropShadow_1729_5270"/>
<feBlend mode="normal" in="SourceGraphic" in2="effect1_dropShadow_1729_5270" result="shape"/>
</filter>
<filter id="filter1_d_1729_5270" x="44" y="40" width="9" height="18" filterUnits="userSpaceOnUse" color-interpolation-filters="sRGB">
<feFlood flood-opacity="0" result="BackgroundImageFix"/>
<feColorMatrix in="SourceAlpha" type="matrix" values="0 0 0 0 0 0 0 0 0 0 0 0 0 0 0 0 0 0 127 0" result="hardAlpha"/>
<feOffset/>
<feGaussianBlur stdDeviation="2"/>
<feComposite in2="hardAlpha" operator="out"/>
<feColorMatrix type="matrix" values="0 0 0 0 0.388235 0 0 0 0 0.168627 0 0 0 0 1 0 0 0 1 0"/>
<feBlend mode="normal" in2="BackgroundImageFix" result="effect1_dropShadow_1729_5270"/>
<feBlend mode="normal" in="SourceGraphic" in2="effect1_dropShadow_1729_5270" result="shape"/>
</filter>
<filter id="filter2_d_1729_5270" x="48" y="40" width="9" height="15" filterUnits="userSpaceOnUse" color-interpolation-filters="sRGB">
<feFlood flood-opacity="0" result="BackgroundImageFix"/>
<feColorMatrix in="SourceAlpha" type="matrix" values="0 0 0 0 0 0 0 0 0 0 0 0 0 0 0 0 0 0 127 0" result="hardAlpha"/>
<feOffset/>
<feGaussianBlur stdDeviation="2"/>
<feComposite in2="hardAlpha" operator="out"/>
<feColorMatrix type="matrix" values="0 0 0 0 0.388235 0 0 0 0 0.168627 0 0 0 0 1 0 0 0 1 0"/>
<feBlend mode="normal" in2="BackgroundImageFix" result="effect1_dropShadow_1729_5270"/>
<feBlend mode="normal" in="SourceGraphic" in2="effect1_dropShadow_1729_5270" result="shape"/>
</filter>
<filter id="filter3_d_1729_5270" x="46" y="37" width="9" height="18" filterUnits="userSpaceOnUse" color-interpolation-filters="sRGB">
<feFlood flood-opacity="0" result="BackgroundImageFix"/>
<feColorMatrix in="SourceAlpha" type="matrix" values="0 0 0 0 0 0 0 0 0 0 0 0 0 0 0 0 0 0 127 0" result="hardAlpha"/>
<feOffset/>
<feGaussianBlur stdDeviation="2"/>
<feComposite in2="hardAlpha" operator="out"/>
<feColorMatrix type="matrix" values="0 0 0 0 0.32549 0 0 0 0 0.992157 0 0 0 0 0.662745 0 0 0 1 0"/>
<feBlend mode="normal" in2="BackgroundImageFix" result="effect1_dropShadow_1729_5270"/>
<feBlend mode="normal" in="SourceGraphic" in2="effect1_dropShadow_1729_5270" result="shape"/>
</filter>
<filter id="filter4_d_1729_5270" x="42" y="37" width="9" height="18" filterUnits="userSpaceOnUse" color-interpolation-filters="sRGB">
<feFlood flood-opacity="0" result="BackgroundImageFix"/>
<feColorMatrix in="SourceAlpha" type="matrix" values="0 0 0 0 0 0 0 0 0 0 0 0 0 0 0 0 0 0 127 0" result="hardAlpha"/>
<feOffset/>
<feGaussianBlur stdDeviation="2"/>
<feComposite in2="hardAlpha" operator="out"/>
<feColorMatrix type="matrix" values="0 0 0 0 0.32549 0 0 0 0 0.992157 0 0 0 0 0.662745 0 0 0 1 0"/>
<feBlend mode="normal" in2="BackgroundImageFix" result="effect1_dropShadow_1729_5270"/>
<feBlend mode="normal" in="SourceGraphic" in2="effect1_dropShadow_1729_5270" result="shape"/>
</filter>
<filter id="filter5_d_1729_5270" x="38" y="40" width="9" height="15" filterUnits="userSpaceOnUse" color-interpolation-filters="sRGB">
<feFlood flood-opacity="0" result="BackgroundImageFix"/>
<feColorMatrix in="SourceAlpha" type="matrix" values="0 0 0 0 0 0 0 0 0 0 0 0 0 0 0 0 0 0 127 0" result="hardAlpha"/>
<feOffset/>
<feGaussianBlur stdDeviation="2"/>
<feComposite in2="hardAlpha" operator="out"/>
<feColorMatrix type="matrix" values="0 0 0 0 0.32549 0 0 0 0 0.992157 0 0 0 0 0.662745 0 0 0 1 0"/>
<feBlend mode="normal" in2="BackgroundImageFix" result="effect1_dropShadow_1729_5270"/>
<feBlend mode="normal" in="SourceGraphic" in2="effect1_dropShadow_1729_5270" result="shape"/>
</filter>
<filter id="filter6_d_1729_5270" x="50" y="40" width="9" height="15" filterUnits="userSpaceOnUse" color-interpolation-filters="sRGB">
<feFlood flood-opacity="0" result="BackgroundImageFix"/>
<feColorMatrix in="SourceAlpha" type="matrix" values="0 0 0 0 0 0 0 0 0 0 0 0 0 0 0 0 0 0 127 0" result="hardAlpha"/>
<feOffset/>
<feGaussianBlur stdDeviation="2"/>
<feComposite in2="hardAlpha" operator="out"/>
<feColorMatrix type="matrix" values="0 0 0 0 0.32549 0 0 0 0 0.992157 0 0 0 0 0.662745 0 0 0 1 0"/>
<feBlend mode="normal" in2="BackgroundImageFix" result="effect1_dropShadow_1729_5270"/>
<feBlend mode="normal" in="SourceGraphic" in2="effect1_dropShadow_1729_5270" result="shape"/>
</filter>
<linearGradient id="paint0_linear_1729_5270" x1="47.5011" y1="105.993" x2="56.2311" y2="3.56633" gradientUnits="userSpaceOnUse">
<stop stop-color="white"/>
<stop offset="1" stop-color="white" stop-opacity="0"/>
</linearGradient>
<linearGradient id="paint1_linear_1729_5270" x1="-9.03437" y1="47.6367" x2="93.4301" y2="56.2211" gradientUnits="userSpaceOnUse">
<stop stop-color="white"/>
<stop offset="1" stop-color="white" stop-opacity="0"/>
</linearGradient>
<linearGradient id="paint2_linear_1729_5270" x1="44.5" y1="44" x2="44.5" y2="75.5071" gradientUnits="userSpaceOnUse">
<stop stop-color="#632BFF"/>
<stop offset="1" stop-color="#632BFF" stop-opacity="0"/>
</linearGradient>
<linearGradient id="paint3_linear_1729_5270" x1="48.5" y1="44" x2="48.5" y2="89" gradientUnits="userSpaceOnUse">
<stop stop-color="#632BFF"/>
<stop offset="1" stop-color="#632BFF" stop-opacity="0"/>
</linearGradient>
<linearGradient id="paint4_linear_1729_5270" x1="52.5" y1="44" x2="52.5" y2="75.5071" gradientUnits="userSpaceOnUse">
<stop stop-color="#632BFF"/>
<stop offset="1" stop-color="#632BFF" stop-opacity="0"/>
</linearGradient>
<linearGradient id="paint5_linear_1729_5270" x1="51.5" y1="51" x2="51.5" y2="96" gradientUnits="userSpaceOnUse">
<stop stop-color="#53FDA9"/>
<stop offset="1" stop-color="#53FDA9" stop-opacity="0"/>
</linearGradient>
<linearGradient id="paint6_linear_1729_5270" x1="47.5" y1="51" x2="47.5" y2="96" gradientUnits="userSpaceOnUse">
<stop stop-color="#53FDA9"/>
<stop offset="1" stop-color="#53FDA9" stop-opacity="0"/>
</linearGradient>
<linearGradient id="paint7_linear_1729_5270" x1="43.5" y1="51" x2="43.5" y2="82.5071" gradientUnits="userSpaceOnUse">
<stop stop-color="#53FDA9"/>
<stop offset="1" stop-color="#53FDA9" stop-opacity="0"/>
</linearGradient>
<linearGradient id="paint8_linear_1729_5270" x1="55.5" y1="51" x2="55.5" y2="82.5071" gradientUnits="userSpaceOnUse">
<stop stop-color="#53FDA9"/>
<stop offset="1" stop-color="#53FDA9" stop-opacity="0"/>
</linearGradient>
</defs>
</svg>
