<svg width="96" height="96" viewBox="0 0 96 96" fill="none" xmlns="http://www.w3.org/2000/svg">
<path d="M44.5009 21.5232C44.5009 21.5232 45.0023 49.496 36.9793 64.5392C28.9562 79.5824 12.9102 81.5882 12.9102 81.5882" stroke="url(#paint0_linear_1729_3937)" stroke-miterlimit="10" stroke-linecap="round"/>
<path d="M40.5009 24.8358C40.5009 24.8358 41.0023 46.2531 32.9793 57.7709C24.9562 69.2888 8.91016 70.8245 8.91016 70.8245" stroke="url(#paint1_linear_1729_3937)" stroke-miterlimit="10" stroke-linecap="round"/>
<path d="M56.5695 24.8358C56.5695 24.8358 56.068 46.2531 64.091 57.7709C72.1141 69.2888 88.1602 70.8245 88.1602 70.8245" stroke="url(#paint2_linear_1729_3937)" stroke-miterlimit="10" stroke-linecap="round"/>
<path d="M52.4981 21.5C52.4981 21.5 52.022 49.5 59.6395 64.5C67.2571 79.5 82.4922 81.5 82.4922 81.5" stroke="url(#paint3_linear_1729_3937)" stroke-miterlimit="10" stroke-linecap="round"/>
<line x1="48.5" y1="21.5" x2="48.5" y2="73.5" stroke="url(#paint4_linear_1729_3937)" stroke-miterlimit="10" stroke-linecap="round"/>
<defs>
<linearGradient id="paint0_linear_1729_3937" x1="27.8881" y1="21.416" x2="27.8881" y2="81.5888" gradientUnits="userSpaceOnUse">
<stop stop-color="#53FDA9"/>
<stop offset="1" stop-color="#53FDA9" stop-opacity="0"/>
</linearGradient>
<linearGradient id="paint1_linear_1729_3937" x1="23.8881" y1="24.7537" x2="23.8881" y2="70.8249" gradientUnits="userSpaceOnUse">
<stop stop-color="#53FDA9"/>
<stop offset="1" stop-color="#53FDA9" stop-opacity="0"/>
</linearGradient>
<linearGradient id="paint2_linear_1729_3937" x1="73.1822" y1="24.7537" x2="73.1822" y2="70.8249" gradientUnits="userSpaceOnUse">
<stop stop-color="#53FDA9"/>
<stop offset="1" stop-color="#53FDA9" stop-opacity="0"/>
</linearGradient>
<linearGradient id="paint3_linear_1729_3937" x1="68.2712" y1="21.5" x2="68.2712" y2="81.5" gradientUnits="userSpaceOnUse">
<stop stop-color="#53FDA9"/>
<stop offset="1" stop-color="#53FDA9" stop-opacity="0"/>
</linearGradient>
<linearGradient id="paint4_linear_1729_3937" x1="48" y1="21" x2="48" y2="74.5888" gradientUnits="userSpaceOnUse">
<stop stop-color="#632BFF"/>
<stop offset="1" stop-color="#632BFF" stop-opacity="0"/>
</linearGradient>
</defs>
</svg>
