<svg width="160" height="72" viewBox="0 0 160 72" fill="none" xmlns="http://www.w3.org/2000/svg">
<g opacity="0.8" filter="url(#filter0_b_4612_2869)">
<rect width="160" height="72.0013" rx="6" fill="url(#paint0_linear_4612_2869)"/>
<rect x="0.25" y="0.25" width="159.5" height="71.5013" rx="5.75" stroke="url(#paint1_linear_4612_2869)" stroke-width="0.5"/>
</g>
<path d="M88.9258 49.0656C86.6203 49.0656 84.7449 47.1901 84.7449 44.8846V37.1872C88.5517 36.8928 91.3058 36.0865 93.1069 34.7699V44.8846C93.1069 47.1901 91.2313 49.0656 88.9258 49.0656ZM84.7449 27.1171C84.7449 24.8116 86.6203 22.9361 88.9258 22.9361C91.2313 22.9361 93.1069 24.8116 93.1069 27.1171V29.6429C93.066 30.5311 92.8732 31.4437 92.0913 32.2294C91.1759 33.1478 89.1492 34.184 84.7449 34.5562V27.1171ZM75.3113 44.8846C75.3113 47.1901 73.4357 49.0656 71.1303 49.0656C68.8248 49.0656 66.9493 47.1901 66.9493 44.8846V42.5406C66.9912 41.6869 67.1964 40.7557 68.0415 39.905C68.9922 38.9463 71.0187 37.8695 75.3113 37.4666V44.8846ZM71.1303 22.9361C73.4357 22.9361 75.3113 24.8116 75.3113 27.1171V34.8378C71.533 35.162 68.7769 36.0225 66.9493 37.4228V27.1171C66.9493 24.8116 68.8248 22.9361 71.1303 22.9361ZM95.7261 28.606L95.7198 28.162V27.1171C95.7198 23.3712 92.6718 20.3232 88.9258 20.3232C85.1799 20.3232 82.132 23.3712 82.132 27.1171V34.6818C81.4714 34.6952 78.6145 34.6914 77.9242 34.7073V27.1171C77.9242 23.3712 74.8762 20.3232 71.1303 20.3232C67.3844 20.3232 64.3363 23.3712 64.3363 27.1171V42.4109C64.3151 42.8259 64.3239 43.1966 64.3312 43.5017L64.3363 43.8398V44.8846C64.3363 48.6306 67.3844 51.6786 71.1303 51.6786C74.8762 51.6786 77.9242 48.6306 77.9242 44.8846V37.3252C78.5918 37.3088 81.4498 37.3139 82.132 37.3018V44.8846C82.132 48.6306 85.1799 51.6786 88.9258 51.6786C92.6718 51.6786 95.7198 48.6306 95.7198 44.8846V29.7843C95.7415 29.3474 95.7336 28.9474 95.7261 28.606Z" fill="white"/>
<defs>
<filter id="filter0_b_4612_2869" x="-4" y="-4" width="168" height="80.001" filterUnits="userSpaceOnUse" color-interpolation-filters="sRGB">
<feFlood flood-opacity="0" result="BackgroundImageFix"/>
<feGaussianBlur in="BackgroundImage" stdDeviation="2"/>
<feComposite in2="SourceAlpha" operator="in" result="effect1_backgroundBlur_4612_2869"/>
<feBlend mode="normal" in="SourceGraphic" in2="effect1_backgroundBlur_4612_2869" result="shape"/>
</filter>
<linearGradient id="paint0_linear_4612_2869" x1="80" y1="0" x2="80" y2="72.771" gradientUnits="userSpaceOnUse">
<stop stop-color="#101011"/>
<stop offset="0.623266" stop-color="#101011" stop-opacity="0.267357"/>
<stop offset="1" stop-color="#101011" stop-opacity="0"/>
</linearGradient>
<linearGradient id="paint1_linear_4612_2869" x1="80" y1="0" x2="80" y2="72.0013" gradientUnits="userSpaceOnUse">
<stop stop-color="#632BFF"/>
<stop offset="1" stop-opacity="0"/>
</linearGradient>
</defs>
</svg>
