<svg width="160" height="72" viewBox="0 0 160 72" fill="none"
    xmlns="http://www.w3.org/2000/svg">
    <path d="M69.8747 23.5562L79.5007 18L89.1268 23.5562L85.5877 25.6088L79.5007 22.1052L73.4137 25.6088L69.8747 23.5562ZM89.1268 30.5634L85.5877 28.5108L79.5007 32.0144L73.4137 28.5108L69.8747 30.5634V34.6686L75.9617 38.1721V45.1793L79.5007 47.232L83.0397 45.1793V38.1721L89.1268 34.6686V30.5634ZM89.1268 41.6758V37.5706L85.5877 39.6231V43.7283L89.1268 41.6758ZM91.6394 43.1268L85.5523 46.6303V50.7355L95.1784 45.1793V34.0669L91.6394 36.1196V43.1268ZM88.1005 27.0598L91.6394 29.1124V33.2176L95.1784 31.165V27.0598L91.6394 25.0072L88.1005 27.0598ZM75.9617 48.1168V52.222L79.5007 54.2745L83.0397 52.222V48.1168L79.5007 50.1693L75.9617 48.1168ZM69.8747 41.6758L73.4137 43.7283V39.6231L69.8747 37.5706V41.6758ZM75.9617 27.0598L79.5007 29.1124L83.0397 27.0598L79.5007 25.0072L75.9617 27.0598ZM67.362 29.1124L70.901 27.0598L67.362 25.0072L63.823 27.0598V31.165L67.362 33.2176V29.1124ZM67.362 36.1196L63.823 34.0669V45.1793L73.449 50.7355V46.6303L67.362 43.1268V36.1196Z" fill="white"/>
    <path d="M70.3747 23.5562L80.0007 18L89.6268 23.5562L86.0877 25.6088L80.0007 22.1052L73.9137 25.6088L70.3747 23.5562ZM89.6268 30.5634L86.0877 28.5108L80.0007 32.0144L73.9137 28.5108L70.3747 30.5634V34.6686L76.4617 38.1721V45.1793L80.0007 47.232L83.5397 45.1793V38.1721L89.6268 34.6686V30.5634ZM89.6268 41.6758V37.5706L86.0877 39.6231V43.7283L89.6268 41.6758ZM92.1394 43.1268L86.0523 46.6303V50.7355L95.6784 45.1793V34.0669L92.1394 36.1196V43.1268ZM88.6005 27.0598L92.1394 29.1124V33.2176L95.6784 31.165V27.0598L92.1394 25.0072L88.6005 27.0598ZM76.4617 48.1168V52.222L80.0007 54.2745L83.5397 52.222V48.1168L80.0007 50.1693L76.4617 48.1168ZM70.3747 41.6758L73.9137 43.7283V39.6231L70.3747 37.5706V41.6758ZM76.4617 27.0598L80.0007 29.1124L83.5397 27.0598L80.0007 25.0072L76.4617 27.0598ZM67.862 29.1124L71.401 27.0598L67.862 25.0072L64.323 27.0598V31.165L67.862 33.2176V29.1124ZM67.862 36.1196L64.323 34.0669V45.1793L73.949 50.7355V46.6303L67.862 43.1268V36.1196Z" fill="white"/>
    <defs>
        <filter id="filter0_b_4612_2877" x="-4" y="-4" width="168" height="80.001" filterUnits="userSpaceOnUse" color-interpolation-filters="sRGB">
            <feFlood flood-opacity="0" result="BackgroundImageFix"/>
            <feGaussianBlur in="BackgroundImage" stdDeviation="2"/>
            <feComposite in2="SourceAlpha" operator="in" result="effect1_backgroundBlur_4612_2877"/>
            <feBlend mode="normal" in="SourceGraphic" in2="effect1_backgroundBlur_4612_2877" result="shape"/>
        </filter>
        <linearGradient id="paint0_linear_4612_2877" x1="80" y1="0" x2="80" y2="72.771" gradientUnits="userSpaceOnUse">
            <stop stop-color="#101011"/>
            <stop offset="0.623266" stop-color="#101011" stop-opacity="0.267357"/>
            <stop offset="1" stop-color="#101011" stop-opacity="0"/>
        </linearGradient>
        <linearGradient id="paint1_linear_4612_2877" x1="80" y1="0" x2="80" y2="72.0013" gradientUnits="userSpaceOnUse">
            <stop stop-color="#632BFF"/>
            <stop offset="1" stop-opacity="0"/>
        </linearGradient>
    </defs>
</svg>
