<svg width="160" height="72" viewBox="0 0 160 72" fill="none" xmlns="http://www.w3.org/2000/svg">
<g opacity="0.8" filter="url(#filter0_b_4612_2902)">
<rect width="160" height="72.0013" rx="6" fill="url(#paint0_linear_4612_2902)"/>
<rect x="0.25" y="0.25" width="159.5" height="71.5013" rx="5.75" stroke="url(#paint1_linear_4612_2902)" stroke-width="0.5"/>
</g>
<path d="M72.4589 35.8831C72.4241 36.489 72.6313 37.084 73.0349 37.5373C73.4385 37.9905 74.0056 38.265 74.6115 38.3004H74.7364C75.1826 38.2999 75.6189 38.1688 75.9915 37.9232C76.364 37.6776 76.6565 37.3283 76.8329 36.9183C77.0092 36.5084 77.0616 36.0558 76.9837 35.6165C76.9058 35.1771 76.7009 34.7701 76.3944 34.4458C76.0879 34.1216 75.6931 33.8941 75.2588 33.7916C74.8245 33.6891 74.3697 33.716 73.9505 33.8689C73.5313 34.0219 73.1661 34.2943 72.8999 34.6524C72.6337 35.0106 72.4782 35.4388 72.4526 35.8843L72.4589 35.8831Z" fill="white"/>
<path d="M63.941 35.3039C63.7953 35.2957 63.6504 35.331 63.5247 35.4051C63.399 35.4793 63.2981 35.589 63.2348 35.7205C63.1714 35.8519 63.1485 35.9992 63.1688 36.1438C63.1892 36.2883 63.2519 36.4235 63.3491 36.5324C63.4463 36.6413 63.5735 36.7189 63.7148 36.7554C63.8561 36.792 64.0051 36.7859 64.1429 36.7378C64.2807 36.6897 64.4011 36.6019 64.489 36.4854C64.5769 36.3689 64.6283 36.2289 64.6366 36.0832C64.6424 35.9863 64.6289 35.8892 64.597 35.7976C64.5651 35.7059 64.5154 35.6214 64.4508 35.549C64.3861 35.4766 64.3078 35.4176 64.2203 35.3756C64.1329 35.3335 64.0379 35.3091 63.941 35.3039Z" fill="white"/>
<path d="M72.3147 22.6247C72.4445 22.5581 72.5517 22.4545 72.6228 22.3271C72.6938 22.1997 72.7256 22.0541 72.7141 21.9086C72.7026 21.7632 72.6483 21.6244 72.5581 21.5097C72.4679 21.3951 72.3458 21.3097 72.2071 21.2643C72.0685 21.2189 71.9195 21.2155 71.7789 21.2546C71.6383 21.2936 71.5125 21.3734 71.4172 21.4839C71.3218 21.5943 71.2613 21.7305 71.2433 21.8753C71.2252 22.0201 71.2503 22.167 71.3155 22.2975C71.3594 22.3848 71.4201 22.4627 71.4941 22.5264C71.5682 22.5902 71.6541 22.6387 71.747 22.6692C71.8399 22.6996 71.9379 22.7113 72.0353 22.7037C72.1328 22.6961 72.2277 22.6692 72.3147 22.6247Z" fill="white"/>
<path d="M74.6338 26.6667C74.8353 26.5651 75.0022 26.4059 75.1134 26.2094C75.2245 26.0129 75.2748 25.7878 75.2581 25.5627C75.2413 25.3376 75.1582 25.1225 75.0192 24.9446C74.8802 24.7667 74.6916 24.634 74.4772 24.5633C74.2628 24.4926 74.0323 24.487 73.8147 24.5473C73.5972 24.6076 73.4024 24.7311 73.255 24.9021C73.1076 25.0731 73.0142 25.2839 72.9866 25.508C72.959 25.732 72.9985 25.9592 73.1 26.1609C73.1674 26.2948 73.2606 26.4142 73.3742 26.5121C73.4878 26.6101 73.6196 26.6846 73.7621 26.7316C73.9045 26.7786 74.0548 26.7971 74.2044 26.7859C74.354 26.7748 74.4999 26.7343 74.6338 26.6667Z" fill="white"/>
<path d="M66.8329 29.447C66.9884 29.5493 67.1707 29.6031 67.3568 29.6017C67.5428 29.6003 67.7243 29.5437 67.8782 29.4392C68.0321 29.3346 68.1516 29.1867 68.2214 29.0143C68.2913 28.8418 68.3084 28.6525 68.2706 28.4703C68.2329 28.2881 68.1419 28.1212 68.0092 27.9907C67.8766 27.8602 67.7082 27.772 67.5254 27.7373C67.3426 27.7025 67.1536 27.7227 66.9823 27.7954C66.811 27.8681 66.6652 27.9899 66.5631 28.1456C66.4265 28.354 66.3782 28.6081 66.4288 28.8521C66.4793 29.0961 66.6247 29.3101 66.8329 29.447Z" fill="white"/>
<path d="M68.2214 34.8876C67.996 34.8748 67.772 34.9292 67.5775 35.0438C67.383 35.1585 67.2269 35.3281 67.1288 35.5315C67.0308 35.7348 66.9952 35.9626 67.0266 36.1862C67.058 36.4097 67.155 36.6189 67.3053 36.7874C67.4556 36.9558 67.6524 37.0759 67.8709 37.1325C68.0895 37.1891 68.3199 37.1796 68.533 37.1053C68.7462 37.031 68.9325 36.8951 69.0684 36.7149C69.2044 36.5347 69.2839 36.3182 69.2968 36.0929C69.3139 35.7905 69.2102 35.4937 69.0086 35.2677C68.8069 35.0417 68.5238 34.905 68.2214 34.8876Z" fill="white"/>
<path d="M66.9574 42.5601C66.7915 42.644 66.6541 42.7752 66.5626 42.9372C66.4712 43.0991 66.4299 43.2845 66.4438 43.47C66.4577 43.6555 66.5264 43.8326 66.641 43.9791C66.7556 44.1256 66.911 44.2348 67.0877 44.2929C67.2644 44.351 67.4543 44.3555 67.6335 44.3057C67.8127 44.2559 67.9731 44.1541 68.0944 44.0131C68.2158 43.8722 68.2926 43.6984 68.3152 43.5138C68.3378 43.3292 68.3052 43.1421 68.2215 42.976C68.1658 42.8657 68.089 42.7674 67.9953 42.6867C67.9017 42.6061 67.793 42.5447 67.6756 42.5061C67.5583 42.4675 67.4344 42.4524 67.3112 42.4616C67.1879 42.4709 67.0677 42.5044 66.9574 42.5601Z" fill="white"/>
<path d="M71.3913 32.5315C71.6136 32.6772 71.8741 32.7537 72.1399 32.7513C72.4057 32.749 72.6648 32.6678 72.8845 32.5182C73.1041 32.3686 73.2745 32.1572 73.3741 31.9108C73.4736 31.6643 73.4978 31.3939 73.4437 31.1337C73.3896 30.8735 73.2595 30.6351 73.0699 30.4488C72.8803 30.2625 72.6398 30.1366 72.3786 30.0871C72.1175 30.0375 71.8475 30.0664 71.6029 30.1703C71.3582 30.2741 71.1498 30.4482 71.0041 30.6704C70.9071 30.818 70.8402 30.9832 70.8072 31.1567C70.7742 31.3302 70.7757 31.5084 70.8117 31.6813C70.8476 31.8541 70.9173 32.0182 71.0168 32.1641C71.1162 32.31 71.2435 32.4348 71.3913 32.5315Z" fill="white"/>
<path d="M85.4637 26.5766C85.6529 26.7001 85.8746 26.7647 86.1005 26.7622C86.3265 26.7597 86.5467 26.6903 86.7332 26.5627C86.9198 26.4352 87.0643 26.2551 87.1485 26.0454C87.2328 25.8357 87.2529 25.6058 87.2065 25.3846C87.1601 25.1634 87.0491 24.961 86.8877 24.8029C86.7262 24.6448 86.5215 24.5381 86.2994 24.4963C86.0773 24.4545 85.8478 24.4795 85.6399 24.5681C85.432 24.6567 85.2551 24.805 85.1314 24.9941C85.0491 25.1198 84.9924 25.2604 84.9645 25.4081C84.9366 25.5557 84.9382 25.7073 84.9691 25.8543C84.9999 26.0014 85.0595 26.1408 85.1444 26.2648C85.2292 26.3887 85.3377 26.4947 85.4637 26.5766Z" fill="white"/>
<path d="M87.8072 22.5473C87.9296 22.6275 88.0729 22.6696 88.2192 22.6683C88.3655 22.6669 88.5081 22.6223 88.629 22.5399C88.7499 22.4575 88.8436 22.3411 88.8983 22.2055C88.953 22.0698 88.9663 21.9209 88.9364 21.7777C88.9065 21.6346 88.8348 21.5034 88.7303 21.401C88.6259 21.2986 88.4934 21.2294 88.3497 21.2023C88.2059 21.1752 88.0574 21.1913 87.9228 21.2486C87.7882 21.3059 87.6737 21.4019 87.5936 21.5243C87.4864 21.6883 87.4487 21.8882 87.4888 22.08C87.5288 22.2718 87.6433 22.4399 87.8072 22.5473Z" fill="white"/>
<path d="M85.6432 33.7088C85.3435 33.6916 85.0434 33.7336 84.76 33.8324C84.4765 33.9311 84.2153 34.0848 83.9913 34.2845C83.5387 34.6878 83.265 35.2544 83.2302 35.8596C83.1954 36.4648 83.4025 37.059 83.8058 37.5115C84.2092 37.964 84.7758 38.2378 85.381 38.2726C85.4247 38.2726 85.4696 38.2726 85.5133 38.2726C85.9542 38.2723 86.3856 38.1446 86.7554 37.9047C87.1253 37.6648 87.4179 37.3231 87.598 36.9207C87.778 36.5182 87.8378 36.0723 87.7701 35.6367C87.7024 35.2011 87.5101 34.7943 87.2164 34.4655C87.0176 34.2413 86.776 34.0589 86.5059 33.9289C86.2358 33.799 85.9425 33.7242 85.6432 33.7088Z" fill="white"/>
<path d="M75.3827 32.3716C75.5724 32.7506 75.8641 33.0691 76.225 33.2912C76.5859 33.5134 77.0017 33.6304 77.4255 33.629C77.8162 33.6291 78.2004 33.529 78.5414 33.3384C78.8825 33.1478 79.169 32.8729 79.3736 32.5401C79.5782 32.2072 79.6941 31.8275 79.7102 31.4371C79.7264 31.0468 79.6422 30.6588 79.4657 30.3102C79.2747 29.9329 78.9824 29.6163 78.6216 29.3958C78.2608 29.1753 77.8458 29.0595 77.423 29.0615C77.0334 29.0622 76.6506 29.1624 76.3106 29.3526C75.9707 29.5427 75.685 29.8166 75.4806 30.1482C75.2762 30.4798 75.16 30.8581 75.1428 31.2472C75.1257 31.6363 75.2083 32.0234 75.3827 32.3716Z" fill="white"/>
<path d="M93.2975 29.4442C93.4635 29.3605 93.601 29.2293 93.6925 29.0675C93.784 28.9056 93.8255 28.7202 93.8117 28.5348C93.7979 28.3493 93.7295 28.1721 93.615 28.0256C93.5005 27.879 93.3452 27.7697 93.1686 27.7114C92.992 27.6532 92.8021 27.6485 92.6229 27.6982C92.4436 27.7478 92.2832 27.8494 92.1617 27.9902C92.0402 28.131 91.9632 28.3046 91.9404 28.4892C91.9176 28.6737 91.95 28.8609 92.0335 29.0271C92.1459 29.2499 92.3422 29.419 92.5792 29.4972C92.8162 29.5754 93.0746 29.5564 93.2975 29.4442Z" fill="white"/>
<path d="M87.5055 30.1724C87.2681 30.292 87.0715 30.4792 86.9406 30.7105C86.8096 30.9418 86.7502 31.2068 86.7698 31.4719C86.7894 31.7369 86.8872 31.9903 87.0508 32.1998C87.2143 32.4093 87.4364 32.5656 87.6888 32.6489C87.9412 32.7322 88.2126 32.7388 88.4688 32.6679C88.725 32.5969 88.9543 32.4516 89.1279 32.2503C89.3015 32.049 89.4115 31.8007 89.4439 31.5369C89.4764 31.2731 89.4299 31.0056 89.3104 30.7682C89.2311 30.6104 89.1215 30.4699 88.9879 30.3545C88.8542 30.2392 88.6991 30.1513 88.5315 30.096C88.3639 30.0407 88.187 30.0189 88.0109 30.032C87.8349 30.0451 87.6631 30.0928 87.5055 30.1724Z" fill="white"/>
<path d="M80.0411 22.2027C80.2268 22.2133 80.4115 22.1686 80.5719 22.0742C80.7322 21.9797 80.8609 21.8399 80.9417 21.6723C81.0225 21.5048 81.0518 21.317 81.0259 21.1327C81 20.9485 80.92 20.7761 80.7961 20.6373C80.6722 20.4985 80.5099 20.3996 80.3298 20.3531C80.1496 20.3066 79.9597 20.3145 79.7841 20.376C79.6085 20.4374 79.455 20.5495 79.3431 20.6981C79.2313 20.8468 79.166 21.0253 79.1555 21.211C79.1416 21.4599 79.227 21.7042 79.393 21.8902C79.5591 22.0761 79.7922 22.1886 80.0411 22.2027Z" fill="white"/>
<path d="M80.0323 28.1194C80.2976 28.1343 80.5614 28.0701 80.7903 27.9351C81.0192 27.8002 81.2029 27.6003 81.3183 27.361C81.4336 27.1216 81.4754 26.8534 81.4384 26.5902C81.4013 26.3271 81.2871 26.0808 81.1102 25.8826C80.9332 25.6843 80.7015 25.543 80.4442 25.4764C80.187 25.4099 79.9157 25.4211 79.6648 25.5086C79.4139 25.5961 79.1946 25.7561 79.0346 25.9682C78.8746 26.1804 78.781 26.4352 78.7658 26.7005C78.7457 27.0566 78.8678 27.4061 79.1053 27.6721C79.3428 27.9382 79.6762 28.0991 80.0323 28.1194Z" fill="white"/>
<path d="M72.7546 41.8311C72.9919 41.7114 73.1885 41.5241 73.3194 41.2927C73.4502 41.0613 73.5095 40.7963 73.4898 40.5312C73.47 40.2661 73.3721 40.0128 73.2084 39.8034C73.0447 39.5939 72.8225 39.4378 72.57 39.3546C72.3176 39.2714 72.0461 39.265 71.7899 39.3361C71.5338 39.4072 71.3045 39.5527 71.1311 39.7542C70.9576 39.9557 70.8478 40.204 70.8155 40.4679C70.7833 40.7317 70.83 40.9993 70.9497 41.2366C71.1103 41.5547 71.3906 41.796 71.7291 41.9075C72.0675 42.019 72.4364 41.9915 72.7546 41.8311Z" fill="white"/>
<path d="M80.9 30.0775C80.6214 30.5028 80.4925 31.0088 80.5338 31.5155C80.5751 32.0222 80.7842 32.5007 81.128 32.8752C81.4719 33.2497 81.9308 33.4989 82.4321 33.5832C82.9335 33.6676 83.4486 33.5823 83.8961 33.3409C84.3435 33.0995 84.6977 32.7158 84.9025 32.2505C85.1074 31.7852 85.1512 31.2649 85.027 30.7719C84.9028 30.2788 84.6178 29.8413 84.217 29.5285C83.8162 29.2158 83.3226 29.0456 82.8142 29.0449C82.4345 29.0447 82.0607 29.1389 81.7265 29.3192C81.3923 29.4995 81.1083 29.7601 80.9 30.0775Z" fill="white"/>
<path d="M84.8711 39.6321C84.688 39.2691 84.4114 38.9615 84.0698 38.741C83.7282 38.5206 83.3339 38.3953 82.9277 38.378C82.5215 38.3608 82.1181 38.4523 81.759 38.643C81.3999 38.8337 81.0983 39.1168 80.8851 39.463C80.672 39.8092 80.555 40.206 80.5464 40.6125C80.5378 41.019 80.6378 41.4204 80.8361 41.7754C81.0344 42.1303 81.3238 42.4259 81.6744 42.6317C82.0251 42.8374 82.4243 42.9459 82.8309 42.9459C83.1885 42.9435 83.5407 42.858 83.8597 42.6962C84.3993 42.4231 84.8087 41.9473 84.9982 41.373C85.1878 40.7987 85.1421 40.1727 84.8711 39.6321Z" fill="white"/>
<path d="M88.8647 39.4724C88.6425 39.3265 88.382 39.2498 88.1162 39.252C87.8504 39.2542 87.5912 39.3351 87.3714 39.4846C87.1516 39.634 86.9811 39.8453 86.8814 40.0917C86.7816 40.3381 86.7572 40.6085 86.8112 40.8688C86.8652 41.1291 86.9951 41.3675 87.1846 41.5539C87.3741 41.7403 87.6146 41.8664 87.8757 41.9161C88.1368 41.9658 88.4068 41.937 88.6515 41.8333C88.8963 41.7296 89.1048 41.5557 89.2506 41.3334C89.4456 41.0353 89.5144 40.672 89.4421 40.3232C89.3697 39.9744 89.1621 39.6685 88.8647 39.4724Z" fill="white"/>
<path d="M93.2401 36.0419C93.2529 35.8165 93.1985 35.5924 93.0839 35.3979C92.9692 35.2034 92.7995 35.0473 92.5962 34.9493C92.3929 34.8512 92.1651 34.8156 91.9415 34.847C91.718 34.8784 91.5088 34.9754 91.3403 35.1257C91.1719 35.276 91.0518 35.4728 90.9952 35.6914C90.9386 35.9099 90.9481 36.1403 91.0224 36.3535C91.0967 36.5666 91.2326 36.7529 91.4128 36.8889C91.593 37.0248 91.8095 37.1043 92.0348 37.1173C92.3372 37.1343 92.634 37.0306 92.86 36.829C93.086 36.6273 93.2227 36.3442 93.2401 36.0419Z" fill="white"/>
<path d="M96.3996 35.2278C96.2536 35.2194 96.1084 35.2545 95.9823 35.3286C95.8562 35.4027 95.755 35.5126 95.6913 35.6442C95.6277 35.7759 95.6046 35.9235 95.6248 36.0683C95.645 36.2132 95.7078 36.3488 95.8051 36.4579C95.9024 36.5671 96.0299 36.645 96.1714 36.6817C96.313 36.7184 96.4623 36.7124 96.6004 36.6642C96.7385 36.6161 96.8592 36.5281 96.9473 36.4114C97.0354 36.2947 97.0869 36.1544 97.0953 36.0084C97.1062 35.8127 97.0391 35.6207 96.9087 35.4744C96.7783 35.328 96.5952 35.2394 96.3996 35.2278Z" fill="white"/>
<path d="M93.4235 42.5561C93.2679 42.4542 93.0856 42.4007 92.8996 42.4024C92.7136 42.4041 92.5323 42.4609 92.3786 42.5656C92.2249 42.6703 92.1057 42.8182 92.0361 42.9907C91.9664 43.1631 91.9495 43.3523 91.9874 43.5344C92.0253 43.7165 92.1163 43.8833 92.2489 44.0136C92.3816 44.144 92.5499 44.2321 92.7326 44.2668C92.9153 44.3016 93.1042 44.2813 93.2754 44.2087C93.4467 44.1361 93.5925 44.0143 93.6945 43.8588C93.7623 43.7555 93.8091 43.6398 93.8321 43.5184C93.8552 43.397 93.8541 43.2723 93.829 43.1513C93.8038 43.0303 93.755 42.9155 93.6854 42.8133C93.6159 42.7112 93.5269 42.6238 93.4235 42.5561Z" fill="white"/>
<path d="M72.4514 49.4552C72.3292 49.375 72.1859 49.3328 72.0396 49.334C71.8934 49.3352 71.7508 49.3798 71.6299 49.462C71.509 49.5442 71.4152 49.6605 71.3603 49.796C71.3055 49.9316 71.292 50.0803 71.3217 50.2235C71.3514 50.3667 71.4229 50.4979 71.5271 50.6004C71.6313 50.703 71.7636 50.7724 71.9073 50.7997C72.0509 50.8271 72.1994 50.8113 72.3341 50.7543C72.4687 50.6973 72.5835 50.6016 72.6637 50.4794C72.7171 50.3982 72.7539 50.3073 72.7721 50.2119C72.7903 50.1165 72.7895 50.0184 72.7698 49.9233C72.7501 49.8282 72.7118 49.7379 72.6572 49.6576C72.6025 49.5773 72.5326 49.5085 72.4514 49.4552Z" fill="white"/>
<path d="M87.941 49.3784C87.8104 49.4442 87.7023 49.5473 87.6303 49.6746C87.5583 49.8019 87.5256 49.9477 87.5365 50.0935C87.5473 50.2394 87.6012 50.3787 87.6912 50.494C87.7813 50.6092 87.9035 50.6952 88.0424 50.7409C88.1813 50.7867 88.3307 50.7903 88.4716 50.7512C88.6125 50.712 88.7387 50.632 88.8341 50.5212C88.9296 50.4104 88.99 50.2737 89.0078 50.1286C89.0256 49.9834 88.9999 49.8362 88.934 49.7056C88.8904 49.6188 88.8301 49.5415 88.7566 49.4781C88.683 49.4146 88.5977 49.3663 88.5054 49.3359C88.4132 49.3055 88.3159 49.2936 88.219 49.3009C88.1222 49.3082 88.0277 49.3345 87.941 49.3784Z" fill="white"/>
<path d="M79.3564 41.9211C79.6351 41.4959 79.7639 40.9898 79.7226 40.483C79.6813 39.9762 79.4721 39.4977 79.1282 39.1232C78.7843 38.7487 78.3253 38.4996 77.8238 38.4154C77.3224 38.3311 76.8072 38.4165 76.3598 38.6581C75.9123 38.8996 75.5583 39.2834 75.3536 39.7489C75.1489 40.2143 75.1053 40.7347 75.2296 41.2277C75.354 41.7207 75.6393 42.1582 76.0403 42.4708C76.4413 42.7834 76.9351 42.9534 77.4435 42.9537C77.8232 42.955 78.1972 42.8612 78.5313 42.6808C78.8655 42.5005 79.1491 42.2393 79.3564 41.9211Z" fill="white"/>
<path d="M74.7912 45.4275C74.6023 45.3039 74.381 45.2391 74.1553 45.2413C73.9296 45.2434 73.7095 45.3125 73.523 45.4397C73.3366 45.5669 73.1919 45.7465 73.1075 45.9558C73.0231 46.1652 73.0026 46.3949 73.0487 46.6159C73.0948 46.8368 73.2053 47.0392 73.3664 47.1974C73.5275 47.3555 73.7318 47.4624 73.9536 47.5044C74.1754 47.5465 74.4047 47.5218 74.6125 47.4336C74.8203 47.3454 74.9972 47.1975 75.121 47.0087C75.2868 46.7553 75.3451 46.4464 75.2833 46.1499C75.2215 45.8534 75.0445 45.5936 74.7912 45.4275Z" fill="white"/>
<path d="M80.1184 49.7994C79.9327 49.7888 79.7481 49.8335 79.5878 49.9279C79.4275 50.0223 79.2989 50.1621 79.218 50.3296C79.1372 50.4971 79.1078 50.6848 79.1336 50.869C79.1594 51.0532 79.2393 51.2255 79.3631 51.3644C79.4869 51.5032 79.6491 51.6022 79.8291 51.6488C80.0092 51.6955 80.199 51.6877 80.3746 51.6265C80.5502 51.5652 80.7038 51.4533 80.8158 51.3048C80.9278 51.1564 80.9933 50.978 81.004 50.7923C81.0111 50.669 80.9938 50.5454 80.9531 50.4288C80.9124 50.3121 80.8492 50.2046 80.7669 50.1124C80.6847 50.0202 80.5851 49.9451 80.4738 49.8913C80.3626 49.8376 80.2418 49.8064 80.1184 49.7994Z" fill="white"/>
<path d="M80.1279 43.8843C79.8623 43.8682 79.598 43.9312 79.3683 44.0654C79.1386 44.1997 78.9539 44.399 78.8376 44.6383C78.7213 44.8776 78.6786 45.146 78.715 45.4095C78.7514 45.6731 78.8652 45.9199 79.0419 46.1187C79.2187 46.3175 79.4505 46.4594 79.7079 46.5264C79.9654 46.5934 80.2369 46.5825 80.4882 46.495C80.7394 46.4076 80.9591 46.2475 81.1193 46.0351C81.2795 45.8227 81.373 45.5676 81.3881 45.3019C81.4086 44.9469 81.2874 44.5983 81.0512 44.3325C80.8149 44.0667 80.4828 43.9056 80.1279 43.8843Z" fill="white"/>
<path d="M85.6221 45.3365C85.4204 45.4388 85.2536 45.5987 85.1428 45.7958C85.0321 45.993 84.9823 46.2186 84.9998 46.444C85.0173 46.6695 85.1013 46.8847 85.2411 47.0624C85.381 47.2402 85.5704 47.3724 85.7855 47.4424C86.0005 47.5124 86.2315 47.517 86.4492 47.4556C86.6669 47.3943 86.8614 47.2697 87.0083 47.0978C87.1552 46.9258 87.2477 46.7141 87.2742 46.4895C87.3007 46.2649 87.2599 46.0375 87.1571 45.8361C87.0892 45.7024 86.9957 45.5834 86.8817 45.4859C86.7678 45.3884 86.6358 45.3143 86.4932 45.2679C86.3506 45.2215 86.2003 45.2037 86.0508 45.2154C85.9013 45.2272 85.7556 45.2683 85.6221 45.3365Z" fill="white"/>
<defs>
<filter id="filter0_b_4612_2902" x="-4" y="-4" width="168" height="80.001" filterUnits="userSpaceOnUse" color-interpolation-filters="sRGB">
<feFlood flood-opacity="0" result="BackgroundImageFix"/>
<feGaussianBlur in="BackgroundImage" stdDeviation="2"/>
<feComposite in2="SourceAlpha" operator="in" result="effect1_backgroundBlur_4612_2902"/>
<feBlend mode="normal" in="SourceGraphic" in2="effect1_backgroundBlur_4612_2902" result="shape"/>
</filter>
<linearGradient id="paint0_linear_4612_2902" x1="80" y1="0" x2="80" y2="72.771" gradientUnits="userSpaceOnUse">
<stop stop-color="#101011"/>
<stop offset="0.623266" stop-color="#101011" stop-opacity="0.267357"/>
<stop offset="1" stop-color="#101011" stop-opacity="0"/>
</linearGradient>
<linearGradient id="paint1_linear_4612_2902" x1="80" y1="0" x2="80" y2="72.0013" gradientUnits="userSpaceOnUse">
<stop stop-color="#632BFF"/>
<stop offset="1" stop-opacity="0"/>
</linearGradient>
</defs>
</svg>
