<svg width="28" height="28" viewBox="0 0 28 28" fill="none" xmlns="http://www.w3.org/2000/svg">
<rect width="28" height="28" rx="5" fill="#0A091E"/>
<path d="M17.5365 9.4618C16.8367 8.76329 15.9454 8.28783 14.9753 8.09552C14.0051 7.9032 12.9998 8.00268 12.0862 8.38134C11.1726 8.76 10.3918 9.40085 9.84251 10.2229C9.2932 11.045 9 12.0114 9 13C9 13.9886 9.2932 14.955 9.84251 15.7771C10.3918 16.5991 11.1726 17.24 12.0862 17.6187C12.9998 17.9973 14.0051 18.0968 14.9753 17.9045C15.9454 17.7122 16.8367 17.2367 17.5365 16.5382C18.4737 15.5989 19 14.3265 19 13C19 11.6734 18.4737 10.401 17.5365 9.4618ZM16.9854 15.9847C16.3944 16.5737 15.642 16.9744 14.8234 17.1363C14.0047 17.2981 13.1564 17.2139 12.3856 16.8941C11.6148 16.5743 10.9561 16.0333 10.4927 15.3396C10.0293 14.6458 9.78196 13.8303 9.78196 12.9961C9.78196 12.1619 10.0293 11.3464 10.4927 10.6526C10.9561 9.95888 11.6148 9.41795 12.3856 9.09816C13.1564 8.77837 14.0047 8.6941 14.8234 8.85595C15.642 9.01781 16.3944 9.41855 16.9854 10.0076C17.3781 10.4 17.6896 10.8658 17.9022 11.3786C18.1148 11.8914 18.2242 12.4411 18.2242 12.9961C18.2242 13.5512 18.1148 14.1008 17.9022 14.6136C17.6896 15.1264 17.3781 15.5923 16.9854 15.9847Z" fill="#632BFF" stroke="#632BFF" stroke-width="0.3"/>
<path d="M10.5 18C10.2033 18 9.9133 18.088 9.66663 18.2528C9.41995 18.4176 9.2277 18.6519 9.11416 18.926C9.00063 19.2001 8.97095 19.5017 9.02883 19.7926C9.08671 20.0836 9.22957 20.3509 9.43935 20.5607C9.64913 20.7704 9.9164 20.9133 10.2074 20.9712C10.4983 21.029 10.7999 20.9994 11.074 20.8858C11.3481 20.7723 11.5824 20.58 11.7472 20.3333C11.912 20.0867 12 19.7967 12 19.5C11.9993 19.1024 11.841 18.7213 11.5599 18.4401C11.2787 18.159 10.8976 18.0007 10.5 18ZM10.5 20.1604C10.3694 20.1604 10.2417 20.1217 10.1331 20.0491C10.0245 19.9766 9.93983 19.8734 9.88984 19.7527C9.83985 19.632 9.82674 19.4993 9.85223 19.3711C9.87771 19.243 9.94061 19.1253 10.033 19.033C10.1253 18.9406 10.243 18.8777 10.3711 18.8522C10.4993 18.8267 10.632 18.8398 10.7527 18.8898C10.8734 18.9398 10.9766 19.0245 11.0491 19.1331C11.1217 19.2417 11.1604 19.3694 11.1604 19.5C11.1604 19.6752 11.0909 19.8431 10.967 19.967C10.8432 20.0908 10.6752 20.1604 10.5 20.1604Z" fill="#632BFF"/>
<circle cx="10.4727" cy="19.5274" r="1.01954" fill="#632BFF"/>
</svg>
