<svg width="28" height="28" viewBox="0 0 28 28" fill="none" xmlns="http://www.w3.org/2000/svg">
<rect width="28" height="28" rx="5" fill="#0A091E"/>
<path d="M18.2016 11.6016C19.1957 11.6016 20.0016 12.4074 20.0016 13.4016V18.2016C20.0016 19.1957 19.1957 20.0016 18.2016 20.0016H13.4016C12.4075 20.0016 11.6016 19.1957 11.6016 18.2016C11.6016 17.8702 11.8702 17.6016 12.2016 17.6016C12.5329 17.6016 12.8016 17.8702 12.8016 18.2016C12.8016 18.5329 13.0702 18.8016 13.4016 18.8016H18.2016C18.5329 18.8016 18.8016 18.5329 18.8016 18.2016V13.4016C18.8016 13.0702 18.5329 12.8016 18.2016 12.8016C17.8702 12.8016 17.6016 12.5329 17.6016 12.2016C17.6016 11.8702 17.8702 11.6016 18.2016 11.6016Z" fill="#5B2AE3"/>
<path fill-rule="evenodd" clip-rule="evenodd" d="M12.2 15.2C13.8569 15.2 15.2 13.8569 15.2 12.2C15.2 10.5431 13.8569 9.2 12.2 9.2C10.5431 9.2 9.2 10.5431 9.2 12.2C9.2 13.8569 10.5431 15.2 12.2 15.2ZM12.2 16.4C14.5196 16.4 16.4 14.5196 16.4 12.2C16.4 9.8804 14.5196 8 12.2 8C9.8804 8 8 9.8804 8 12.2C8 14.5196 9.8804 16.4 12.2 16.4Z" fill="#5B2AE3"/>
</svg>
