<svg width="12" height="12" viewBox="0 0 12 12" fill="none"
    xmlns="http://www.w3.org/2000/svg">
    <g filter="url(#filter0_i_1858_4034)">
        <path d="M11.8145 7.69091C11.4597 7.30909 10.7322 7.09091 9.70309 7.09091C9.15304 7.09091 8.51428 7.14545 7.82229 7.27273C7.43194 6.89091 7.04158 6.43636 6.66897 5.90909C6.40282 5.54545 6.17216 5.14545 5.95924 4.76364C6.36733 3.49091 6.56251 2.45455 6.56251 1.70909C6.56251 0.872727 6.26087 0 5.39145 0C5.1253 0 4.85915 0.163637 4.7172 0.4C4.32685 1.10909 4.50428 2.65455 5.17853 4.18182C4.93012 4.94545 4.66397 5.67273 4.32685 6.49091C4.04295 7.18182 3.72357 7.89091 3.36871 8.54545C1.41694 9.34546 0.15716 10.2727 0.0152135 11C-0.0380165 11.2727 0.0507001 11.5273 0.245877 11.7273C0.31685 11.7818 0.565257 12 0.991098 12C2.28636 12 3.6526 9.85455 4.34459 8.56364C4.87689 8.38182 5.40919 8.2 5.94149 8.05455C6.52702 7.89091 7.11256 7.76364 7.64486 7.67273C9.0111 8.92727 10.2176 9.12727 10.8209 9.12727C11.5661 9.12727 11.8323 8.81818 11.921 8.56364C12.0807 8.23636 11.9742 7.87273 11.8145 7.69091ZM11.1048 8.21818C11.0516 8.49091 10.7854 8.67273 10.4128 8.67273C10.3064 8.67273 10.2176 8.65455 10.1112 8.63636C9.43693 8.47273 8.79817 8.12727 8.15941 7.58182C8.78043 7.47273 9.31273 7.45455 9.64986 7.45455C10.0225 7.45455 10.3418 7.47273 10.5548 7.52727C10.8032 7.58182 11.1935 7.74545 11.1048 8.21818ZM7.34322 7.36364C6.88189 7.45455 6.38508 7.56364 5.87052 7.70909C5.46242 7.81818 5.03658 7.94545 4.61074 8.09091C4.84141 7.63636 5.03658 7.2 5.21402 6.78182C5.42694 6.27273 5.60437 5.74545 5.7818 5.25455C5.95924 5.56364 6.15441 5.87273 6.34959 6.14545C6.68672 6.58182 7.02384 7 7.34322 7.36364ZM5.01884 0.6C5.08981 0.454545 5.23176 0.381818 5.35596 0.381818C5.72857 0.381818 5.79955 0.818182 5.79955 1.16364C5.79955 1.74545 5.62211 2.63636 5.32048 3.65455C4.80592 2.23636 4.77043 1.05455 5.01884 0.6ZM3.06707 9.07273C2.16216 10.6 1.29273 11.5455 0.760434 11.5455C0.653974 11.5455 0.565257 11.5091 0.494284 11.4545C0.387824 11.3455 0.334594 11.2182 0.370081 11.0727C0.476541 10.5273 1.50566 9.76364 3.06707 9.07273Z" fill="#632BFF"/>
    </g>
    <defs>
        <filter id="filter0_i_1858_4034" x="0" y="0" width="12.8667" height="12.4952" filterUnits="userSpaceOnUse" color-interpolation-filters="sRGB">
            <feFlood flood-opacity="0" result="BackgroundImageFix"/>
            <feBlend mode="normal" in="SourceGraphic" in2="BackgroundImageFix" result="shape"/>
            <feColorMatrix in="SourceAlpha" type="matrix" values="0 0 0 0 0 0 0 0 0 0 0 0 0 0 0 0 0 0 127 0" result="hardAlpha"/>
            <feOffset dx="0.866672" dy="0.495241"/>
            <feGaussianBlur stdDeviation="0.557146"/>
            <feComposite in2="hardAlpha" operator="arithmetic" k2="-1" k3="1"/>
            <feColorMatrix type="matrix" values="0 0 0 0 1 0 0 0 0 1 0 0 0 0 1 0 0 0 0.15 0"/>
            <feBlend mode="normal" in2="shape" result="effect1_innerShadow_1858_4034"/>
        </filter>
    </defs>
</svg>
