<svg width="20" height="20" viewBox="0 0 20 20" fill="none"
    xmlns="http://www.w3.org/2000/svg">
    <path d="M19.6909 12.8182C19.0995 12.1818 17.887 11.8182 16.1718 11.8182C15.2551 11.8182 14.1905 11.9091 13.0372 12.1212C12.3866 11.4848 11.736 10.7273 11.115 9.84848C10.6714 9.24242 10.2869 8.57576 9.93206 7.93939C10.6122 5.81818 10.9375 4.09091 10.9375 2.84848C10.9375 1.45455 10.4348 0 8.98575 0C8.54217 0 8.09858 0.272728 7.86201 0.666667C7.21142 1.84849 7.50714 4.42424 8.63088 6.9697C8.21687 8.24242 7.77329 9.45455 7.21142 10.8182C6.73826 11.9697 6.20596 13.1515 5.61451 14.2424C2.36156 15.5758 0.261934 17.1212 0.0253559 18.3333C-0.0633609 18.7879 0.0845002 19.2121 0.409795 19.5455C0.528084 19.6364 0.942096 20 1.65183 20C3.81061 20 6.08767 16.4242 7.24099 14.2727C8.12815 13.9697 9.01532 13.6667 9.90249 13.4242C10.8784 13.1515 11.8543 12.9394 12.7414 12.7879C15.0185 14.8788 17.0294 15.2121 18.0349 15.2121C19.2769 15.2121 19.7205 14.697 19.8683 14.2727C20.1345 13.7273 19.9571 13.1212 19.6909 12.8182ZM18.508 13.697C18.4193 14.1515 17.9757 14.4545 17.3547 14.4545C17.1773 14.4545 17.0294 14.4242 16.852 14.3939C15.7282 14.1212 14.6636 13.5455 13.599 12.6364C14.6341 12.4545 15.5212 12.4242 16.0831 12.4242C16.7041 12.4242 17.2364 12.4545 17.5913 12.5455C18.0053 12.6364 18.6559 12.9091 18.508 13.697ZM12.2387 12.2727C11.4698 12.4242 10.6418 12.6061 9.7842 12.8485C9.10404 13.0303 8.39431 13.2424 7.68457 13.4848C8.06901 12.7273 8.39431 12 8.69003 11.303C9.0449 10.4545 9.34062 9.57576 9.63634 8.75758C9.93206 9.27273 10.2574 9.78788 10.5827 10.2424C11.1445 10.9697 11.7064 11.6667 12.2387 12.2727ZM8.36473 1C8.48302 0.757576 8.7196 0.636364 8.92661 0.636364C9.54762 0.636364 9.66591 1.36364 9.66591 1.93939C9.66591 2.90909 9.37019 4.39394 8.86746 6.09091C8.00987 3.72727 7.95072 1.75758 8.36473 1ZM5.11178 15.1212C3.6036 17.6667 2.15456 19.2424 1.26739 19.2424C1.08996 19.2424 0.942096 19.1818 0.823807 19.0909C0.646373 18.9091 0.557657 18.697 0.616801 18.4545C0.794235 17.5455 2.50943 16.2727 5.11178 15.1212Z" fill="#632BFF"/>
</svg>
