<svg width="64" height="64" viewBox="0 0 64 64" fill="none" xmlns="http://www.w3.org/2000/svg">
<g clip-path="url(#clip0_1858_4132)">
<g filter="url(#filter0_f_1858_4132)">
<circle cx="31.9991" cy="31.9991" r="19.8428" fill="url(#paint0_linear_1858_4132)"/>
</g>
<g filter="url(#filter1_d_1858_4132)">
<ellipse cx="32.0008" cy="31.0007" rx="27.8953" ry="7.35422" stroke="url(#paint1_linear_1858_4132)" stroke-width="0.25" stroke-linecap="round" stroke-linejoin="round" stroke-dasharray="2 2" shape-rendering="crispEdges"/>
</g>
<g filter="url(#filter2_d_1858_4132)">
<ellipse cx="32.0789" cy="24.7912" rx="23.9149" ry="6.30483" stroke="url(#paint2_linear_1858_4132)" stroke-width="0.25" stroke-linecap="round" stroke-linejoin="round" stroke-dasharray="2 2" shape-rendering="crispEdges"/>
</g>
<g filter="url(#filter3_d_1858_4132)">
<ellipse cx="32.0773" cy="19.7996" rx="19.4797" ry="5.13555" stroke="url(#paint3_linear_1858_4132)" stroke-width="0.25" stroke-linecap="round" stroke-linejoin="round" stroke-dasharray="2 2" shape-rendering="crispEdges"/>
</g>
<g filter="url(#filter4_d_1858_4132)">
<ellipse cx="32.0789" cy="39.2111" rx="23.9149" ry="6.30483" stroke="url(#paint4_linear_1858_4132)" stroke-width="0.25" stroke-linecap="round" stroke-linejoin="round" stroke-dasharray="2 2" shape-rendering="crispEdges"/>
</g>
<g filter="url(#filter5_d_1858_4132)">
<ellipse cx="32.0771" cy="46.2019" rx="19.4794" ry="5.13549" stroke="url(#paint5_linear_1858_4132)" stroke-width="0.25" stroke-linecap="round" stroke-linejoin="round" stroke-dasharray="2 2" shape-rendering="crispEdges"/>
</g>
<path d="M31.5 68.0645L31.5 19.5195C31.5 19.2433 31.7239 19.0195 32 19.0195C32.2761 19.0195 32.5 19.2433 32.5 19.5195L32.5 68.0645L31.5 68.0645Z" fill="url(#paint6_linear_1858_4132)"/>
<path d="M30.5 55.0645L30.5 19.1828C30.5 18.9066 30.2761 18.6827 30 18.6827C29.7239 18.6827 29.5 18.9066 29.5 19.1828L29.5 55.0645L30.5 55.0645Z" fill="url(#paint7_linear_1858_4132)"/>
<path d="M28.5 43.0645L28.5 18.0918C28.5 17.8157 28.2761 17.5918 28 17.5918C27.7239 17.5918 27.5 17.8157 27.5 18.0918L27.5 43.0645L28.5 43.0645Z" fill="url(#paint8_linear_1858_4132)"/>
<path d="M33.5 55.0645L33.5 19.1827C33.5 18.9066 33.7239 18.6827 34 18.6827C34.2761 18.6827 34.5 18.9066 34.5 19.1827L34.5 55.0645L33.5 55.0645Z" fill="url(#paint9_linear_1858_4132)"/>
<path d="M35.5 43.0645L35.5 18.0918C35.5 17.8157 35.7239 17.5918 36 17.5918C36.2761 17.5918 36.5 17.8157 36.5 18.0918L36.5 43.0645L35.5 43.0645Z" fill="url(#paint10_linear_1858_4132)"/>
<ellipse cx="32" cy="14.0645" rx="4.5" ry="4.5" transform="rotate(-180 32 14.0645)" fill="url(#paint11_linear_1858_4132)"/>
<path d="M24.0161 18.4415C23.8783 18.574 23.781 18.7113 23.7282 18.8523L23.8452 18.8961C23.8197 18.9645 23.8071 19.0323 23.8071 19.1001C23.8071 19.1679 23.8197 19.2358 23.8452 19.3042L23.7282 19.348C23.781 19.489 23.8783 19.6263 24.0161 19.7587L24.1027 19.6686C24.2044 19.7664 24.332 19.8633 24.4848 19.9582L24.4188 20.0644C24.5517 20.147 24.7011 20.227 24.8658 20.3042L24.9188 20.191C25.0599 20.2571 25.213 20.3212 25.3775 20.3832L25.3334 20.5002C25.4842 20.557 25.6439 20.6119 25.812 20.6646L25.8494 20.5454C26.0027 20.5934 26.1631 20.6397 26.3304 20.6842L26.2983 20.805C26.4568 20.8471 26.6211 20.8875 26.7909 20.9261L26.8186 20.8042C26.9777 20.8403 27.1417 20.8749 27.3103 20.9078L27.2864 21.0304C27.4487 21.0621 27.6151 21.0921 27.7854 21.1205L27.806 20.9972C27.9682 21.0243 28.1341 21.0499 28.3033 21.0739L28.2857 21.1977C28.4505 21.221 28.6183 21.2429 28.7891 21.2633L28.8039 21.1392C28.968 21.1588 29.135 21.1769 29.3044 21.1936L29.2922 21.318C29.458 21.3343 29.6263 21.3492 29.7967 21.3626L29.8065 21.238C29.9723 21.2511 30.1402 21.2628 30.3101 21.273L30.3025 21.3978C30.4696 21.4078 30.6385 21.4165 30.809 21.4237L30.8143 21.2988C30.9807 21.3059 31.1487 21.3115 31.3181 21.3158L31.315 21.4408C31.4824 21.445 31.6513 21.4478 31.8214 21.4492L31.8225 21.3242C31.9065 21.3249 31.9908 21.3253 32.0754 21.3253C32.16 21.3253 32.2443 21.3249 32.3283 21.3242L32.3294 21.4492C32.4995 21.4478 32.6684 21.445 32.8358 21.4408L32.8327 21.3158C33.0022 21.3115 33.1701 21.3059 33.3365 21.2988L33.3418 21.4237C33.5124 21.4165 33.6812 21.4078 33.8483 21.3978L33.8408 21.273C34.0106 21.2628 34.1785 21.2511 34.3443 21.238L34.3541 21.3626C34.5245 21.3492 34.6928 21.3343 34.8586 21.318L34.8464 21.1936C35.0158 21.1769 35.1828 21.1588 35.347 21.1392L35.3618 21.2633C35.5325 21.2429 35.7004 21.221 35.8651 21.1977L35.8475 21.0739C36.0167 21.0499 36.1826 21.0243 36.3448 20.9972L36.3654 21.1205C36.5357 21.0921 36.7021 21.0621 36.8644 21.0304L36.8405 20.9078C37.0091 20.8749 37.1731 20.8403 37.3322 20.8042L37.3599 20.9261C37.5297 20.8875 37.694 20.8471 37.8525 20.805L37.8204 20.6842C37.9877 20.6397 38.1481 20.5934 38.3014 20.5454L38.3388 20.6646C38.5069 20.6119 38.6666 20.557 38.8174 20.5002L38.7733 20.3832C38.9378 20.3212 39.0909 20.2571 39.232 20.191L39.285 20.3042C39.4497 20.227 39.5991 20.147 39.732 20.0644L39.666 19.9582C39.8188 19.8633 39.9464 19.7664 40.0481 19.6686L40.1347 19.7587C40.2725 19.6263 40.3699 19.489 40.4226 19.348L40.3056 19.3042C40.3311 19.2358 40.3438 19.1679 40.3438 19.1001C40.3438 19.0323 40.3311 18.9645 40.3056 18.8961L40.4226 18.8523C40.3699 18.7113 40.2725 18.574 40.1347 18.4415L40.0481 18.5317C39.9464 18.4339 39.8188 18.337 39.666 18.242L39.732 18.1359C39.5991 18.0533 39.4497 17.9733 39.285 17.8961L39.232 18.0093C39.0909 17.9432 38.9378 17.879 38.7733 17.817L38.8174 17.7001C38.6666 17.6432 38.5069 17.5884 38.3388 17.5356L38.3014 17.6549C38.1481 17.6069 37.9877 17.5605 37.8204 17.5161L37.8525 17.3953C37.694 17.3532 37.5297 17.3128 37.3599 17.2742L37.3322 17.3961C37.1731 17.3599 37.0091 17.3254 36.8405 17.2925L36.8644 17.1698C36.7021 17.1382 36.5357 17.1082 36.3654 17.0798L36.3448 17.203C36.1826 17.176 36.0167 17.1504 35.8475 17.1264L35.8651 17.0026C35.7004 16.9792 35.5325 16.9573 35.3618 16.937L35.347 17.0611C35.1828 17.0415 35.0158 17.0234 34.8464 17.0067L34.8586 16.8823C34.6928 16.866 34.5245 16.8511 34.3541 16.8376L34.3443 16.9623C34.1785 16.9492 34.0106 16.9375 33.8408 16.9273L33.8483 16.8025C33.6812 16.7925 33.5124 16.7838 33.3418 16.7766L33.3365 16.9015C33.1701 16.8944 33.0022 16.8887 32.8327 16.8845L32.8358 16.7595C32.6684 16.7553 32.4995 16.7525 32.3294 16.7511L32.3283 16.8761C32.2443 16.8754 32.16 16.875 32.0754 16.875C31.9908 16.875 31.9065 16.8754 31.8225 16.8761L31.8214 16.7511C31.6513 16.7525 31.4824 16.7553 31.315 16.7595L31.3181 16.8845C31.1487 16.8887 30.9807 16.8944 30.8143 16.9015L30.809 16.7766C30.6385 16.7838 30.4696 16.7925 30.3025 16.8025L30.3101 16.9273C30.1402 16.9375 29.9723 16.9492 29.8065 16.9623L29.7967 16.8376C29.6263 16.8511 29.458 16.866 29.2922 16.8823L29.3044 17.0067C29.135 17.0234 28.968 17.0415 28.8039 17.0611L28.7891 16.937C28.6183 16.9573 28.4505 16.9792 28.2857 17.0026L28.3033 17.1264C28.1341 17.1504 27.9682 17.176 27.806 17.203L27.7854 17.0798C27.6151 17.1082 27.4487 17.1382 27.2864 17.1698L27.3103 17.2925C27.1417 17.3254 26.9777 17.3599 26.8186 17.3961L26.7909 17.2742C26.6211 17.3128 26.4568 17.3532 26.2983 17.3953L26.3304 17.5161C26.1631 17.5605 26.0027 17.6069 25.8494 17.6549L25.812 17.5356C25.6439 17.5884 25.4842 17.6432 25.3334 17.7001L25.3775 17.817C25.213 17.879 25.0599 17.9432 24.9188 18.0093L24.8658 17.8961C24.7011 17.9733 24.5517 18.0533 24.4188 18.1359L24.4848 18.242C24.332 18.337 24.2044 18.4339 24.1027 18.5317L24.0161 18.4415Z" stroke="url(#paint12_linear_1858_4132)" stroke-width="0.25" stroke-dasharray="0.5 0.5"/>
<path d="M24.0161 13.7423C23.8783 13.8748 23.781 14.0121 23.7282 14.1531L23.8452 14.1969C23.8197 14.2652 23.8071 14.3331 23.8071 14.4009C23.8071 14.4687 23.8197 14.5366 23.8452 14.6049L23.7282 14.6488C23.781 14.7898 23.8783 14.9271 24.0161 15.0595L24.1027 14.9694C24.2044 15.0671 24.332 15.164 24.4848 15.259L24.4188 15.3652C24.5517 15.4478 24.7011 15.5278 24.8658 15.605L24.9188 15.4918C25.0599 15.5579 25.213 15.622 25.3775 15.684L25.3334 15.801C25.4842 15.8578 25.6439 15.9127 25.812 15.9654L25.8494 15.8461C26.0027 15.8942 26.1631 15.9405 26.3304 15.985L26.2983 16.1058C26.4568 16.1479 26.6211 16.1883 26.7909 16.2269L26.8186 16.105C26.9777 16.1411 27.1417 16.1757 27.3103 16.2085L27.2864 16.3312C27.4487 16.3628 27.6151 16.3929 27.7854 16.4213L27.806 16.298C27.9682 16.3251 28.1341 16.3507 28.3033 16.3747L28.2857 16.4984C28.4505 16.5218 28.6183 16.5437 28.7891 16.5641L28.8039 16.44C28.968 16.4595 29.135 16.4777 29.3044 16.4944L29.2922 16.6188C29.458 16.6351 29.6263 16.65 29.7967 16.6634L29.8065 16.5388C29.9723 16.5519 30.1402 16.5635 30.3101 16.5738L30.3025 16.6985C30.4696 16.7086 30.6385 16.7173 30.809 16.7245L30.8143 16.5996C30.9807 16.6066 31.1487 16.6123 31.3181 16.6166L31.315 16.7415C31.4824 16.7458 31.6513 16.7486 31.8214 16.75L31.8225 16.625C31.9065 16.6257 31.9908 16.6261 32.0754 16.6261C32.16 16.6261 32.2443 16.6257 32.3283 16.625L32.3294 16.75C32.4995 16.7486 32.6684 16.7458 32.8358 16.7415L32.8327 16.6166C33.0022 16.6123 33.1701 16.6066 33.3365 16.5996L33.3418 16.7245C33.5124 16.7173 33.6812 16.7086 33.8483 16.6985L33.8408 16.5738C34.0106 16.5635 34.1785 16.5519 34.3443 16.5388L34.3541 16.6634C34.5245 16.65 34.6928 16.6351 34.8586 16.6188L34.8464 16.4944C35.0158 16.4777 35.1828 16.4595 35.347 16.44L35.3618 16.5641C35.5325 16.5437 35.7004 16.5218 35.8651 16.4984L35.8475 16.3747C36.0167 16.3507 36.1826 16.3251 36.3448 16.298L36.3654 16.4213C36.5357 16.3929 36.7021 16.3628 36.8644 16.3312L36.8405 16.2085C37.0091 16.1757 37.1731 16.1411 37.3322 16.105L37.3599 16.2269C37.5297 16.1883 37.694 16.1479 37.8525 16.1058L37.8204 15.985C37.9877 15.9405 38.1481 15.8942 38.3014 15.8461L38.3388 15.9654C38.5069 15.9127 38.6666 15.8578 38.8174 15.801L38.7733 15.684C38.9378 15.622 39.0909 15.5579 39.232 15.4918L39.285 15.605C39.4497 15.5278 39.5991 15.4478 39.732 15.3652L39.666 15.259C39.8188 15.164 39.9464 15.0671 40.0481 14.9694L40.1347 15.0595C40.2725 14.9271 40.3699 14.7898 40.4226 14.6488L40.3056 14.6049C40.3311 14.5366 40.3438 14.4687 40.3438 14.4009C40.3438 14.3331 40.3311 14.2652 40.3056 14.1969L40.4226 14.1531C40.3699 14.0121 40.2725 13.8748 40.1347 13.7423L40.0481 13.8325C39.9464 13.7347 39.8188 13.6378 39.666 13.5428L39.732 13.4367C39.5991 13.3541 39.4497 13.274 39.285 13.1969L39.232 13.3101C39.0909 13.244 38.9378 13.1798 38.7733 13.1178L38.8174 13.0008C38.6666 12.944 38.5069 12.8892 38.3388 12.8364L38.3014 12.9557C38.1481 12.9076 37.9877 12.8613 37.8204 12.8169L37.8525 12.6961C37.694 12.6539 37.5297 12.6135 37.3599 12.575L37.3322 12.6968C37.1731 12.6607 37.0091 12.6262 36.8405 12.5933L36.8644 12.4706C36.7021 12.439 36.5357 12.4089 36.3654 12.3805L36.3448 12.5038C36.1826 12.4768 36.0167 12.4512 35.8475 12.4272L35.8651 12.3034C35.7004 12.28 35.5325 12.2581 35.3618 12.2378L35.347 12.3619C35.1828 12.3423 35.0158 12.3241 34.8464 12.3075L34.8586 12.1831C34.6928 12.1668 34.5245 12.1519 34.3541 12.1384L34.3443 12.263C34.1785 12.25 34.0106 12.2383 33.8408 12.2281L33.8483 12.1033C33.6812 12.0932 33.5124 12.0846 33.3418 12.0774L33.3365 12.2022C33.1701 12.1952 33.0022 12.1895 32.8327 12.1853L32.8358 12.0603C32.6684 12.0561 32.4995 12.0533 32.3294 12.0518L32.3283 12.1768C32.2443 12.1761 32.16 12.1758 32.0754 12.1758C31.9908 12.1758 31.9065 12.1761 31.8225 12.1768L31.8214 12.0518C31.6513 12.0533 31.4824 12.0561 31.315 12.0603L31.3181 12.1853C31.1487 12.1895 30.9807 12.1952 30.8143 12.2022L30.809 12.0774C30.6385 12.0846 30.4696 12.0932 30.3025 12.1033L30.3101 12.2281C30.1402 12.2383 29.9723 12.25 29.8065 12.263L29.7967 12.1384C29.6263 12.1519 29.458 12.1668 29.2922 12.1831L29.3044 12.3075C29.135 12.3241 28.968 12.3423 28.8039 12.3619L28.7891 12.2378C28.6183 12.2581 28.4505 12.28 28.2857 12.3034L28.3033 12.4272C28.1341 12.4512 27.9682 12.4768 27.806 12.5038L27.7854 12.3805C27.6151 12.4089 27.4487 12.439 27.2864 12.4706L27.3103 12.5933C27.1417 12.6262 26.9777 12.6607 26.8186 12.6969L26.7909 12.575C26.6211 12.6135 26.4568 12.6539 26.2983 12.6961L26.3304 12.8169C26.1631 12.8613 26.0027 12.9076 25.8494 12.9557L25.812 12.8364C25.6439 12.8892 25.4842 12.944 25.3334 13.0008L25.3775 13.1178C25.213 13.1798 25.0599 13.244 24.9188 13.3101L24.8658 13.1969C24.7011 13.274 24.5517 13.3541 24.4188 13.4367L24.4848 13.5428C24.332 13.6378 24.2044 13.7347 24.1027 13.8325L24.0161 13.7423Z" stroke="url(#paint13_linear_1858_4132)" stroke-width="0.25" stroke-dasharray="0.5 0.5"/>
<path d="M24.0161 8.37123C23.8783 8.50369 23.781 8.64098 23.7282 8.78199L23.8452 8.82581C23.8197 8.89414 23.8071 8.96202 23.8071 9.02983C23.8071 9.09763 23.8197 9.16551 23.8452 9.23384L23.7282 9.27766C23.781 9.41867 23.8783 9.55596 24.0161 9.68842L24.1027 9.59829C24.2044 9.69605 24.332 9.79295 24.4848 9.88792L24.4188 9.99409C24.5517 10.0767 24.7011 10.1567 24.8658 10.2339L24.9188 10.1207C25.0599 10.1868 25.213 10.2509 25.3775 10.3129L25.3334 10.4299C25.4842 10.4867 25.6439 10.5416 25.812 10.5943L25.8494 10.475C26.0027 10.5231 26.1631 10.5694 26.3304 10.6139L26.2983 10.7347C26.4568 10.7768 26.6211 10.8172 26.7909 10.8558L26.8186 10.7339C26.9777 10.77 27.1417 10.8046 27.3103 10.8374L27.2864 10.9601C27.4487 10.9917 27.6151 11.0218 27.7854 11.0502L27.806 10.9269C27.9682 10.954 28.1341 10.9796 28.3033 11.0036L28.2857 11.1273C28.4505 11.1507 28.6183 11.1726 28.7891 11.193L28.8039 11.0689C28.968 11.0884 29.135 11.1066 29.3044 11.1233L29.2922 11.2477C29.458 11.264 29.6263 11.2789 29.7967 11.2923L29.8065 11.1677C29.9723 11.1808 30.1402 11.1924 30.3101 11.2027L30.3025 11.3274C30.4696 11.3375 30.6385 11.3462 30.809 11.3534L30.8143 11.2285C30.9807 11.2355 31.1487 11.2412 31.3181 11.2455L31.315 11.3704C31.4824 11.3747 31.6513 11.3775 31.8214 11.3789L31.8225 11.2539C31.9065 11.2546 31.9908 11.255 32.0754 11.255C32.16 11.255 32.2443 11.2546 32.3283 11.2539L32.3294 11.3789C32.4995 11.3775 32.6684 11.3747 32.8358 11.3704L32.8327 11.2455C33.0022 11.2412 33.1701 11.2355 33.3365 11.2285L33.3418 11.3534C33.5124 11.3462 33.6812 11.3375 33.8483 11.3274L33.8408 11.2027C34.0106 11.1924 34.1785 11.1808 34.3443 11.1677L34.3541 11.2923C34.5245 11.2789 34.6928 11.264 34.8586 11.2477L34.8464 11.1233C35.0158 11.1066 35.1828 11.0884 35.347 11.0689L35.3618 11.193C35.5325 11.1726 35.7004 11.1507 35.8651 11.1273L35.8475 11.0036C36.0167 10.9796 36.1826 10.954 36.3448 10.9269L36.3654 11.0502C36.5357 11.0218 36.7021 10.9917 36.8644 10.9601L36.8405 10.8374C37.0091 10.8046 37.1731 10.77 37.3322 10.7339L37.3599 10.8558C37.5297 10.8172 37.694 10.7768 37.8525 10.7347L37.8204 10.6139C37.9877 10.5694 38.1481 10.5231 38.3014 10.475L38.3388 10.5943C38.5069 10.5416 38.6666 10.4867 38.8174 10.4299L38.7733 10.3129C38.9378 10.2509 39.0909 10.1868 39.232 10.1207L39.285 10.2339C39.4497 10.1567 39.5991 10.0767 39.732 9.99409L39.666 9.88792C39.8188 9.79295 39.9464 9.69605 40.0481 9.59829L40.1347 9.68842C40.2725 9.55596 40.3699 9.41867 40.4226 9.27766L40.3056 9.23384C40.3311 9.16551 40.3438 9.09763 40.3438 9.02982C40.3438 8.96202 40.3311 8.89414 40.3056 8.82581L40.4226 8.78199C40.3699 8.64098 40.2725 8.50369 40.1347 8.37123L40.0481 8.46136C39.9464 8.3636 39.8188 8.2667 39.666 8.17172L39.732 8.06556C39.5991 7.98299 39.4497 7.90295 39.285 7.82577L39.232 7.93897C39.0909 7.87289 38.9378 7.80871 38.7733 7.74672L38.8174 7.62975C38.6666 7.57292 38.5069 7.51806 38.3388 7.46534L38.3014 7.58461C38.1481 7.53654 37.9877 7.49022 37.8204 7.44577L37.8525 7.32496C37.694 7.28284 37.5297 7.24244 37.3599 7.20386L37.3322 7.32576C37.1731 7.28962 37.0091 7.25507 36.8405 7.22221L36.8644 7.09952C36.7021 7.0679 36.5357 7.03785 36.3654 7.00944L36.3448 7.13273C36.1826 7.10567 36.0167 7.08009 35.8475 7.05607L35.8651 6.93231C35.7004 6.90893 35.5325 6.88703 35.3618 6.86666L35.347 6.99079C35.1828 6.9712 35.0158 6.95305 34.8464 6.93638L34.8586 6.81198C34.6928 6.79566 34.5245 6.78076 34.3541 6.76733L34.3443 6.89194C34.1785 6.87888 34.0106 6.86721 33.8408 6.85699L33.8483 6.73221C33.6812 6.72216 33.5124 6.71349 33.3418 6.70626L33.3365 6.83115C33.1701 6.8241 33.0022 6.81842 32.8327 6.81416L32.8358 6.6892C32.6684 6.68499 32.4995 6.68216 32.3294 6.68074L32.3283 6.80574C32.2443 6.80504 32.16 6.80469 32.0754 6.80469C31.9908 6.80469 31.9065 6.80504 31.8225 6.80574L31.8214 6.68074C31.6513 6.68216 31.4824 6.68499 31.315 6.6892L31.3181 6.81416C31.1487 6.81843 30.9807 6.8241 30.8143 6.83115L30.809 6.70626C30.6385 6.71349 30.4696 6.72216 30.3025 6.73221L30.3101 6.85699C30.1402 6.86721 29.9723 6.87888 29.8065 6.89194L29.7967 6.76733C29.6263 6.78076 29.458 6.79566 29.2922 6.81198L29.3044 6.93638C29.135 6.95305 28.968 6.9712 28.8039 6.99079L28.7891 6.86667C28.6183 6.88703 28.4505 6.90893 28.2857 6.93231L28.3033 7.05607C28.1341 7.08009 27.9682 7.10567 27.806 7.13273L27.7854 7.00944C27.6151 7.03785 27.4487 7.0679 27.2864 7.09952L27.3103 7.22221C27.1417 7.25507 26.9777 7.28962 26.8186 7.32576L26.7909 7.20386C26.6211 7.24244 26.4568 7.28285 26.2983 7.32496L26.3304 7.44577C26.1631 7.49022 26.0027 7.53654 25.8494 7.58461L25.812 7.46534C25.6439 7.51806 25.4842 7.57292 25.3334 7.62975L25.3775 7.74672C25.213 7.80872 25.0599 7.87289 24.9188 7.93897L24.8658 7.82577C24.7011 7.90295 24.5517 7.98299 24.4188 8.06556L24.4848 8.17173C24.332 8.2667 24.2044 8.3636 24.1027 8.46136L24.0161 8.37123Z" stroke="url(#paint14_linear_1858_4132)" stroke-width="0.25" stroke-dasharray="0.5 0.5"/>
</g>
<defs>
<filter id="filter0_f_1858_4132" x="5.15625" y="5.15625" width="53.6875" height="53.6855" filterUnits="userSpaceOnUse" color-interpolation-filters="sRGB">
<feFlood flood-opacity="0" result="BackgroundImageFix"/>
<feBlend mode="normal" in="SourceGraphic" in2="BackgroundImageFix" result="shape"/>
<feGaussianBlur stdDeviation="3.5" result="effect1_foregroundBlur_1858_4132"/>
</filter>
<filter id="filter1_d_1858_4132" x="-9.01953" y="10.5215" width="82.0391" height="40.959" filterUnits="userSpaceOnUse" color-interpolation-filters="sRGB">
<feFlood flood-opacity="0" result="BackgroundImageFix"/>
<feColorMatrix in="SourceAlpha" type="matrix" values="0 0 0 0 0 0 0 0 0 0 0 0 0 0 0 0 0 0 127 0" result="hardAlpha"/>
<feOffset/>
<feGaussianBlur stdDeviation="6.5"/>
<feComposite in2="hardAlpha" operator="out"/>
<feColorMatrix type="matrix" values="0 0 0 0 0 0 0 0 0 1 0 0 0 0 0.7 0 0 0 0.25 0"/>
<feBlend mode="normal" in2="BackgroundImageFix" result="effect1_dropShadow_1858_4132"/>
<feBlend mode="normal" in="SourceGraphic" in2="effect1_dropShadow_1858_4132" result="shape"/>
</filter>
<filter id="filter2_d_1858_4132" x="-4.96094" y="5.36133" width="74.0781" height="38.8594" filterUnits="userSpaceOnUse" color-interpolation-filters="sRGB">
<feFlood flood-opacity="0" result="BackgroundImageFix"/>
<feColorMatrix in="SourceAlpha" type="matrix" values="0 0 0 0 0 0 0 0 0 0 0 0 0 0 0 0 0 0 127 0" result="hardAlpha"/>
<feOffset/>
<feGaussianBlur stdDeviation="6.5"/>
<feComposite in2="hardAlpha" operator="out"/>
<feColorMatrix type="matrix" values="0 0 0 0 0 0 0 0 0 1 0 0 0 0 0.7 0 0 0 0.25 0"/>
<feBlend mode="normal" in2="BackgroundImageFix" result="effect1_dropShadow_1858_4132"/>
<feBlend mode="normal" in="SourceGraphic" in2="effect1_dropShadow_1858_4132" result="shape"/>
</filter>
<filter id="filter3_d_1858_4132" x="-0.527344" y="1.53906" width="65.2109" height="36.5215" filterUnits="userSpaceOnUse" color-interpolation-filters="sRGB">
<feFlood flood-opacity="0" result="BackgroundImageFix"/>
<feColorMatrix in="SourceAlpha" type="matrix" values="0 0 0 0 0 0 0 0 0 0 0 0 0 0 0 0 0 0 127 0" result="hardAlpha"/>
<feOffset/>
<feGaussianBlur stdDeviation="6.5"/>
<feComposite in2="hardAlpha" operator="out"/>
<feColorMatrix type="matrix" values="0 0 0 0 0 0 0 0 0 1 0 0 0 0 0.7 0 0 0 0.25 0"/>
<feBlend mode="normal" in2="BackgroundImageFix" result="effect1_dropShadow_1858_4132"/>
<feBlend mode="normal" in="SourceGraphic" in2="effect1_dropShadow_1858_4132" result="shape"/>
</filter>
<filter id="filter4_d_1858_4132" x="-4.96094" y="19.7812" width="74.0781" height="38.8594" filterUnits="userSpaceOnUse" color-interpolation-filters="sRGB">
<feFlood flood-opacity="0" result="BackgroundImageFix"/>
<feColorMatrix in="SourceAlpha" type="matrix" values="0 0 0 0 0 0 0 0 0 0 0 0 0 0 0 0 0 0 127 0" result="hardAlpha"/>
<feOffset/>
<feGaussianBlur stdDeviation="6.5"/>
<feComposite in2="hardAlpha" operator="out"/>
<feColorMatrix type="matrix" values="0 0 0 0 0 0 0 0 0 1 0 0 0 0 0.7 0 0 0 0.25 0"/>
<feBlend mode="normal" in2="BackgroundImageFix" result="effect1_dropShadow_1858_4132"/>
<feBlend mode="normal" in="SourceGraphic" in2="effect1_dropShadow_1858_4132" result="shape"/>
</filter>
<filter id="filter5_d_1858_4132" x="-0.527344" y="27.9414" width="65.207" height="36.5215" filterUnits="userSpaceOnUse" color-interpolation-filters="sRGB">
<feFlood flood-opacity="0" result="BackgroundImageFix"/>
<feColorMatrix in="SourceAlpha" type="matrix" values="0 0 0 0 0 0 0 0 0 0 0 0 0 0 0 0 0 0 127 0" result="hardAlpha"/>
<feOffset/>
<feGaussianBlur stdDeviation="6.5"/>
<feComposite in2="hardAlpha" operator="out"/>
<feColorMatrix type="matrix" values="0 0 0 0 0 0 0 0 0 1 0 0 0 0 0.7 0 0 0 0.25 0"/>
<feBlend mode="normal" in2="BackgroundImageFix" result="effect1_dropShadow_1858_4132"/>
<feBlend mode="normal" in="SourceGraphic" in2="effect1_dropShadow_1858_4132" result="shape"/>
</filter>
<linearGradient id="paint0_linear_1858_4132" x1="45.5265" y1="8.55457" x2="43.5594" y2="54.8579" gradientUnits="userSpaceOnUse">
<stop stop-color="#572AD7"/>
<stop offset="1" stop-color="#3E07B3"/>
</linearGradient>
<linearGradient id="paint1_linear_1858_4132" x1="32.0008" y1="23.6465" x2="32.0008" y2="38.3549" gradientUnits="userSpaceOnUse">
<stop offset="0.170133" stop-color="#53FDA9" stop-opacity="0"/>
<stop offset="0.878479" stop-color="#53FDA9"/>
</linearGradient>
<linearGradient id="paint2_linear_1858_4132" x1="32.0789" y1="18.4863" x2="32.0789" y2="31.096" gradientUnits="userSpaceOnUse">
<stop offset="0.170133" stop-color="white" stop-opacity="0"/>
<stop offset="0.878479" stop-color="white"/>
</linearGradient>
<linearGradient id="paint3_linear_1858_4132" x1="32.0773" y1="14.6641" x2="32.0773" y2="24.9352" gradientUnits="userSpaceOnUse">
<stop offset="0.170133" stop-color="white" stop-opacity="0"/>
<stop offset="0.878479" stop-color="white"/>
</linearGradient>
<linearGradient id="paint4_linear_1858_4132" x1="32.0789" y1="32.9062" x2="32.0789" y2="45.5159" gradientUnits="userSpaceOnUse">
<stop offset="0.170133" stop-color="white" stop-opacity="0"/>
<stop offset="0.878479" stop-color="white"/>
</linearGradient>
<linearGradient id="paint5_linear_1858_4132" x1="32.0771" y1="41.0664" x2="32.0771" y2="51.3374" gradientUnits="userSpaceOnUse">
<stop offset="0.170133" stop-color="white" stop-opacity="0"/>
<stop offset="0.878479" stop-color="white"/>
</linearGradient>
<linearGradient id="paint6_linear_1858_4132" x1="31.9995" y1="8.51444" x2="32.04" y2="62.4384" gradientUnits="userSpaceOnUse">
<stop stop-color="white"/>
<stop offset="1" stop-color="white" stop-opacity="0"/>
</linearGradient>
<linearGradient id="paint7_linear_1858_4132" x1="30.0006" y1="10.8901" x2="29.9783" y2="50.891" gradientUnits="userSpaceOnUse">
<stop stop-color="white"/>
<stop offset="1" stop-color="white" stop-opacity="0"/>
</linearGradient>
<linearGradient id="paint8_linear_1858_4132" x1="28.0006" y1="12.1358" x2="27.9896" y2="40.1424" gradientUnits="userSpaceOnUse">
<stop stop-color="white"/>
<stop offset="1" stop-color="white" stop-opacity="0"/>
</linearGradient>
<linearGradient id="paint9_linear_1858_4132" x1="33.9995" y1="10.8901" x2="34.0217" y2="50.891" gradientUnits="userSpaceOnUse">
<stop stop-color="white"/>
<stop offset="1" stop-color="white" stop-opacity="0"/>
</linearGradient>
<linearGradient id="paint10_linear_1858_4132" x1="35.9995" y1="12.1358" x2="36.0104" y2="40.1424" gradientUnits="userSpaceOnUse">
<stop stop-color="white"/>
<stop offset="1" stop-color="white" stop-opacity="0"/>
</linearGradient>
<linearGradient id="paint11_linear_1858_4132" x1="32" y1="9.56446" x2="32" y2="18.5645" gradientUnits="userSpaceOnUse">
<stop stop-color="#632BFF"/>
<stop offset="1"/>
</linearGradient>
<linearGradient id="paint12_linear_1858_4132" x1="31.9989" y1="21.4289" x2="32.2968" y2="16.7306" gradientUnits="userSpaceOnUse">
<stop stop-color="#53FDA9"/>
<stop offset="1" stop-color="white" stop-opacity="0"/>
</linearGradient>
<linearGradient id="paint13_linear_1858_4132" x1="31.9989" y1="16.7297" x2="32.2968" y2="12.0314" gradientUnits="userSpaceOnUse">
<stop stop-color="#53FDA9"/>
<stop offset="1" stop-color="white" stop-opacity="0"/>
</linearGradient>
<linearGradient id="paint14_linear_1858_4132" x1="31.9989" y1="11.3586" x2="32.2968" y2="6.66032" gradientUnits="userSpaceOnUse">
<stop stop-color="#53FDA9"/>
<stop offset="1" stop-color="white" stop-opacity="0"/>
</linearGradient>
<clipPath id="clip0_1858_4132">
<rect width="64" height="64" fill="white"/>
</clipPath>
</defs>
</svg>
