<svg width="64" height="64" viewBox="0 0 64 64" fill="none" xmlns="http://www.w3.org/2000/svg">
<g clip-path="url(#clip0_1858_4038)">
<rect width="24.1591" height="24.1591" transform="matrix(0.869236 0.494398 -0.869236 0.494398 32 35.7285)" fill="url(#paint0_linear_1858_4038)"/>
<rect width="24.1591" height="24.1591" transform="matrix(0.869236 0.494398 -0.869236 0.494398 32 30.9512)" fill="url(#paint1_linear_1858_4038)"/>
<rect width="24.1591" height="24.1591" transform="matrix(0.869236 0.494398 -0.869236 0.494398 32 26.1738)" fill="url(#paint2_linear_1858_4038)"/>
<rect width="24.1591" height="24.1591" transform="matrix(0.869236 0.494398 -0.869236 0.494398 32 21.3965)" fill="url(#paint3_linear_1858_4038)"/>
<rect width="24.1591" height="24.1591" transform="matrix(0.869236 0.494398 -0.869236 0.494398 32 6.07031)" fill="url(#paint4_linear_1858_4038)"/>
<g filter="url(#filter0_d_1858_4038)">
<rect width="24.1591" height="24.1591" transform="matrix(0.869236 0.494398 -0.869236 0.494398 32 16.8418)" stroke="url(#paint5_linear_1858_4038)" stroke-width="0.25" stroke-linecap="round" stroke-linejoin="round" stroke-dasharray="0.5 0.5" shape-rendering="crispEdges"/>
</g>
<g filter="url(#filter1_d_1858_4038)">
<rect width="24.1591" height="24.1591" transform="matrix(0.869236 0.494398 -0.869236 0.494398 32 14.8418)" stroke="url(#paint6_linear_1858_4038)" stroke-opacity="0.5" stroke-width="0.25" stroke-linecap="round" stroke-linejoin="round" stroke-dasharray="0.5 0.5" shape-rendering="crispEdges"/>
</g>
<g filter="url(#filter2_d_1858_4038)">
<rect width="24.1591" height="24.1591" transform="matrix(0.869236 0.494398 -0.869236 0.494398 32 12.8418)" stroke="url(#paint7_linear_1858_4038)" stroke-opacity="0.2" stroke-width="0.25" stroke-linecap="round" stroke-linejoin="round" stroke-dasharray="0.5 0.5" shape-rendering="crispEdges"/>
</g>
<g filter="url(#filter3_d_1858_4038)">
<rect width="24.1591" height="24.1591" transform="matrix(0.869236 0.494398 -0.869236 0.494398 32 10.8418)" stroke="url(#paint8_linear_1858_4038)" stroke-opacity="0.05" stroke-width="0.25" stroke-linecap="round" stroke-linejoin="round" stroke-dasharray="0.5 0.5" shape-rendering="crispEdges"/>
</g>
<path d="M10.8516 16.332L10.8516 28.7125C10.8516 28.816 10.9355 28.9 11.0391 28.9C11.1426 28.9 11.2266 28.816 11.2266 28.7125L11.2266 16.332L10.8516 16.332Z" fill="url(#paint9_linear_1858_4038)"/>
<path d="M52.7734 16.332L52.7734 28.7125C52.7734 28.816 52.8574 28.9 52.9609 28.9C53.0645 28.9 53.1484 28.816 53.1484 28.7125L53.1484 16.332L52.7734 16.332Z" fill="url(#paint10_linear_1858_4038)"/>
<path d="M31.8125 28.0918L31.8125 40.4722C31.8125 40.5758 31.8964 40.6597 32 40.6597C32.1036 40.6597 32.1875 40.5758 32.1875 40.4722L32.1875 28.0918L31.8125 28.0918Z" fill="url(#paint11_linear_1858_4038)"/>
<path d="M31.8125 4.38281L31.8125 16.7633C31.8125 16.8668 31.8964 16.9508 32 16.9508C32.1036 16.9508 32.1875 16.8668 32.1875 16.7633L32.1875 4.38281L31.8125 4.38281Z" fill="url(#paint12_linear_1858_4038)"/>
<path d="M21.1992 15.5039L21.1992 22.7561C21.1992 22.8597 21.2832 22.9436 21.3867 22.9436C21.4903 22.9436 21.5742 22.8597 21.5742 22.7561L21.5742 15.5039L21.1992 15.5039Z" fill="url(#paint13_linear_1858_4038)"/>
<path d="M42.4375 15.5039L42.4375 22.7561C42.4375 22.8597 42.5214 22.9436 42.625 22.9436C42.7286 22.9436 42.8125 22.8597 42.8125 22.7561L42.8125 15.5039L42.4375 15.5039Z" fill="url(#paint14_linear_1858_4038)"/>
<path d="M21.1992 27.3438L21.1992 34.596C21.1992 34.6995 21.2832 34.7835 21.3867 34.7835C21.4903 34.7835 21.5742 34.6995 21.5742 34.596L21.5742 27.3437L21.1992 27.3438Z" fill="url(#paint15_linear_1858_4038)"/>
<path d="M42.4375 27.3438L42.4375 34.596C42.4375 34.6995 42.5214 34.7835 42.625 34.7835C42.7286 34.7835 42.8125 34.6995 42.8125 34.596L42.8125 27.3437L42.4375 27.3438Z" fill="url(#paint16_linear_1858_4038)"/>
</g>
<defs>
<filter id="filter0_d_1858_4038" x="-2.15234" y="3.75391" width="68.3047" height="50.0645" filterUnits="userSpaceOnUse" color-interpolation-filters="sRGB">
<feFlood flood-opacity="0" result="BackgroundImageFix"/>
<feColorMatrix in="SourceAlpha" type="matrix" values="0 0 0 0 0 0 0 0 0 0 0 0 0 0 0 0 0 0 127 0" result="hardAlpha"/>
<feOffset/>
<feGaussianBlur stdDeviation="6.5"/>
<feComposite in2="hardAlpha" operator="out"/>
<feColorMatrix type="matrix" values="0 0 0 0 0 0 0 0 0 1 0 0 0 0 0.7 0 0 0 0.25 0"/>
<feBlend mode="normal" in2="BackgroundImageFix" result="effect1_dropShadow_1858_4038"/>
<feBlend mode="normal" in="SourceGraphic" in2="effect1_dropShadow_1858_4038" result="shape"/>
</filter>
<filter id="filter1_d_1858_4038" x="-2.15234" y="1.75391" width="68.3047" height="50.0645" filterUnits="userSpaceOnUse" color-interpolation-filters="sRGB">
<feFlood flood-opacity="0" result="BackgroundImageFix"/>
<feColorMatrix in="SourceAlpha" type="matrix" values="0 0 0 0 0 0 0 0 0 0 0 0 0 0 0 0 0 0 127 0" result="hardAlpha"/>
<feOffset/>
<feGaussianBlur stdDeviation="6.5"/>
<feComposite in2="hardAlpha" operator="out"/>
<feColorMatrix type="matrix" values="0 0 0 0 0 0 0 0 0 1 0 0 0 0 0.7 0 0 0 0.25 0"/>
<feBlend mode="normal" in2="BackgroundImageFix" result="effect1_dropShadow_1858_4038"/>
<feBlend mode="normal" in="SourceGraphic" in2="effect1_dropShadow_1858_4038" result="shape"/>
</filter>
<filter id="filter2_d_1858_4038" x="-2.15234" y="-0.246094" width="68.3047" height="50.0645" filterUnits="userSpaceOnUse" color-interpolation-filters="sRGB">
<feFlood flood-opacity="0" result="BackgroundImageFix"/>
<feColorMatrix in="SourceAlpha" type="matrix" values="0 0 0 0 0 0 0 0 0 0 0 0 0 0 0 0 0 0 127 0" result="hardAlpha"/>
<feOffset/>
<feGaussianBlur stdDeviation="6.5"/>
<feComposite in2="hardAlpha" operator="out"/>
<feColorMatrix type="matrix" values="0 0 0 0 0 0 0 0 0 1 0 0 0 0 0.7 0 0 0 0.25 0"/>
<feBlend mode="normal" in2="BackgroundImageFix" result="effect1_dropShadow_1858_4038"/>
<feBlend mode="normal" in="SourceGraphic" in2="effect1_dropShadow_1858_4038" result="shape"/>
</filter>
<filter id="filter3_d_1858_4038" x="-2.15234" y="-2.24609" width="68.3047" height="50.0645" filterUnits="userSpaceOnUse" color-interpolation-filters="sRGB">
<feFlood flood-opacity="0" result="BackgroundImageFix"/>
<feColorMatrix in="SourceAlpha" type="matrix" values="0 0 0 0 0 0 0 0 0 0 0 0 0 0 0 0 0 0 127 0" result="hardAlpha"/>
<feOffset/>
<feGaussianBlur stdDeviation="6.5"/>
<feComposite in2="hardAlpha" operator="out"/>
<feColorMatrix type="matrix" values="0 0 0 0 0 0 0 0 0 1 0 0 0 0 0.7 0 0 0 0.25 0"/>
<feBlend mode="normal" in2="BackgroundImageFix" result="effect1_dropShadow_1858_4038"/>
<feBlend mode="normal" in="SourceGraphic" in2="effect1_dropShadow_1858_4038" result="shape"/>
</filter>
<linearGradient id="paint0_linear_1858_4038" x1="27.0022" y1="26.7519" x2="2.3669" y2="12.9923" gradientUnits="userSpaceOnUse">
<stop stop-color="#632BFF"/>
<stop offset="1" stop-color="#3B257D" stop-opacity="0"/>
</linearGradient>
<linearGradient id="paint1_linear_1858_4038" x1="27.0022" y1="26.7519" x2="2.3669" y2="12.9923" gradientUnits="userSpaceOnUse">
<stop stop-color="#632BFF"/>
<stop offset="1" stop-color="#3B257D" stop-opacity="0"/>
</linearGradient>
<linearGradient id="paint2_linear_1858_4038" x1="27.0022" y1="26.7519" x2="2.3669" y2="12.9923" gradientUnits="userSpaceOnUse">
<stop stop-color="#632BFF"/>
<stop offset="1" stop-color="#3B257D" stop-opacity="0"/>
</linearGradient>
<linearGradient id="paint3_linear_1858_4038" x1="27.0022" y1="26.7519" x2="2.3669" y2="12.9923" gradientUnits="userSpaceOnUse">
<stop stop-color="#632BFF"/>
<stop offset="1" stop-color="#3B257D" stop-opacity="0"/>
</linearGradient>
<linearGradient id="paint4_linear_1858_4038" x1="24.1594" y1="24.1593" x2="-0.213703" y2="0.217553" gradientUnits="userSpaceOnUse">
<stop stop-color="#53FDA9"/>
<stop offset="1" stop-color="#2B0C80" stop-opacity="0"/>
</linearGradient>
<linearGradient id="paint5_linear_1858_4038" x1="12.0796" y1="0" x2="12.0796" y2="24.1591" gradientUnits="userSpaceOnUse">
<stop stop-color="#53FDA9"/>
<stop offset="0.878479" stop-color="#53FDA9"/>
</linearGradient>
<linearGradient id="paint6_linear_1858_4038" x1="12.0796" y1="0" x2="12.0796" y2="24.1591" gradientUnits="userSpaceOnUse">
<stop stop-color="#53FDA9"/>
<stop offset="0.878479" stop-color="#53FDA9"/>
</linearGradient>
<linearGradient id="paint7_linear_1858_4038" x1="12.0796" y1="0" x2="12.0796" y2="24.1591" gradientUnits="userSpaceOnUse">
<stop stop-color="#53FDA9"/>
<stop offset="0.878479" stop-color="#53FDA9"/>
</linearGradient>
<linearGradient id="paint8_linear_1858_4038" x1="12.0796" y1="0" x2="12.0796" y2="24.1591" gradientUnits="userSpaceOnUse">
<stop stop-color="#53FDA9"/>
<stop offset="0.878479" stop-color="#53FDA9"/>
</linearGradient>
<linearGradient id="paint9_linear_1858_4038" x1="11.0389" y1="31.5919" x2="11.046" y2="17.7737" gradientUnits="userSpaceOnUse">
<stop stop-color="#53FDA9"/>
<stop offset="1" stop-color="#53FDA9" stop-opacity="0"/>
</linearGradient>
<linearGradient id="paint10_linear_1858_4038" x1="52.9607" y1="31.5919" x2="52.9678" y2="17.7737" gradientUnits="userSpaceOnUse">
<stop stop-color="#53FDA9"/>
<stop offset="1" stop-color="#53FDA9" stop-opacity="0"/>
</linearGradient>
<linearGradient id="paint11_linear_1858_4038" x1="31.9998" y1="43.3517" x2="32.0069" y2="29.5335" gradientUnits="userSpaceOnUse">
<stop stop-color="#53FDA9"/>
<stop offset="1" stop-color="#53FDA9" stop-opacity="0"/>
</linearGradient>
<linearGradient id="paint12_linear_1858_4038" x1="31.9998" y1="19.6427" x2="32.0069" y2="5.8245" gradientUnits="userSpaceOnUse">
<stop stop-color="#53FDA9"/>
<stop offset="1" stop-color="#53FDA9" stop-opacity="0"/>
</linearGradient>
<linearGradient id="paint13_linear_1858_4038" x1="21.3865" y1="24.5371" x2="21.389" y2="16.3573" gradientUnits="userSpaceOnUse">
<stop stop-color="#53FDA9"/>
<stop offset="1" stop-color="#53FDA9" stop-opacity="0"/>
</linearGradient>
<linearGradient id="paint14_linear_1858_4038" x1="42.6248" y1="24.5371" x2="42.6273" y2="16.3573" gradientUnits="userSpaceOnUse">
<stop stop-color="#53FDA9"/>
<stop offset="1" stop-color="#53FDA9" stop-opacity="0"/>
</linearGradient>
<linearGradient id="paint15_linear_1858_4038" x1="21.3865" y1="36.377" x2="21.389" y2="28.1972" gradientUnits="userSpaceOnUse">
<stop stop-color="#53FDA9"/>
<stop offset="1" stop-color="#53FDA9" stop-opacity="0"/>
</linearGradient>
<linearGradient id="paint16_linear_1858_4038" x1="42.6248" y1="36.377" x2="42.6273" y2="28.1972" gradientUnits="userSpaceOnUse">
<stop stop-color="#53FDA9"/>
<stop offset="1" stop-color="#53FDA9" stop-opacity="0"/>
</linearGradient>
<clipPath id="clip0_1858_4038">
<rect width="64" height="64" fill="white"/>
</clipPath>
</defs>
</svg>
