<svg width="28" height="28" viewBox="0 0 28 28" fill="none" xmlns="http://www.w3.org/2000/svg">
<rect width="28" height="28" rx="5" fill="#0A091E"/>
<path d="M12.7063 19.7063L8.29368 15.2937C7.95139 14.9501 7.75919 14.485 7.75919 14C7.75919 13.515 7.95139 13.0499 8.29368 12.7063L12.7063 8.29368C13.0499 7.95139 13.515 7.75919 14 7.75919C14.485 7.75919 14.9501 7.95139 15.2937 8.29368L19.7063 12.7063C20.0486 13.0498 20.2408 13.515 20.2408 14C20.2408 14.485 20.0486 14.9501 19.7063 15.2937L15.2937 19.7063C14.9501 20.0486 14.4849 20.2408 14 20.2408C13.515 20.2408 13.0498 20.0486 12.7063 19.7063ZM14.588 8.99933C14.4321 8.84337 14.2205 8.75575 14 8.75575C13.7794 8.75575 13.5679 8.84337 13.412 8.99933L8.99933 13.412C8.84337 13.5679 8.75575 13.7794 8.75575 14C8.75575 14.2205 8.84337 14.4321 8.99933 14.588L13.412 19.0007C13.5679 19.1566 13.7794 19.2442 14 19.2442C14.2206 19.2442 14.4321 19.1566 14.588 19.0007L19.0007 14.588C19.1566 14.4321 19.2442 14.2206 19.2442 14C19.2442 13.7794 19.1566 13.5679 19.0007 13.412L14.588 8.99933Z" fill="#632BFF"/>
<path d="M13.9989 12.6094C13.7233 12.6094 13.4539 12.6911 13.2247 12.8442C12.9956 12.9973 12.817 13.215 12.7115 13.4696C12.6061 13.7242 12.5785 14.0044 12.6323 14.2747C12.686 14.545 12.8187 14.7933 13.0136 14.9882C13.2085 15.183 13.4568 15.3158 13.7271 15.3695C13.9974 15.4233 14.2776 15.3957 14.5322 15.2903C14.7868 15.1848 15.0044 15.0062 15.1576 14.777C15.3107 14.5478 15.3924 14.2784 15.3924 14.0028C15.3917 13.6335 15.2447 13.2794 14.9835 13.0183C14.7223 12.7571 14.3683 12.6101 13.9989 12.6094ZM13.9989 14.6164C13.8776 14.6164 13.759 14.5804 13.6581 14.513C13.5572 14.4456 13.4785 14.3497 13.4321 14.2376C13.3857 14.1255 13.3735 14.0022 13.3972 13.8831C13.4208 13.7641 13.4793 13.6548 13.5651 13.569C13.6509 13.4832 13.7602 13.4248 13.8792 13.4011C13.9982 13.3774 14.1216 13.3895 14.2337 13.436C14.3458 13.4824 14.4417 13.5611 14.5091 13.662C14.5765 13.7629 14.6125 13.8815 14.6125 14.0028C14.6125 14.1656 14.5478 14.3216 14.4328 14.4367C14.3177 14.5517 14.1617 14.6164 13.9989 14.6164Z" fill="#632BFF"/>
<circle cx="14.0457" cy="14.0418" r="0.912857" fill="#632BFF"/>
</svg>
