<svg width="96" height="96" viewBox="0 0 96 96" fill="none"
    xmlns="http://www.w3.org/2000/svg">
    <path d="M48.0006 34.2588C48.2078 41.7602 54.2401 47.7925 61.7415 47.9997C54.2401 48.2068 48.2078 54.2391 48.0006 61.7405C47.7935 54.2391 41.7612 48.2068 34.2598 47.9997C41.7612 47.7925 47.7935 41.7602 48.0006 34.2588Z" fill="#53FDA9"/>
    <ellipse cx="48.0008" cy="48.0003" rx="41.147" ry="20.5735" transform="rotate(-44.5427 48.0008 48.0003)" stroke="url(#paint0_linear_4925_2007)" stroke-width="0.5" stroke-linecap="round" stroke-dasharray="1 1"/>
    <path d="M18.6243 19.2172C18.7339 19.0927 18.8467 18.9706 18.9625 18.8511L19.0523 18.938C19.1095 18.879 19.1675 18.8205 19.2263 18.7626C19.2851 18.7048 19.3445 18.6477 19.4045 18.5914L19.3189 18.5003C19.4404 18.3863 19.5642 18.2756 19.6904 18.1679L19.7716 18.263C19.8964 18.1566 20.0237 18.0532 20.1532 17.9529L20.0767 17.854C20.2081 17.7523 20.3418 17.6538 20.4778 17.5584L20.5496 17.6607C20.6839 17.5665 20.8204 17.4754 20.9592 17.3873L20.8922 17.2818C21.0321 17.193 21.1742 17.1073 21.3185 17.0247L21.3806 17.1332C21.523 17.0516 21.6676 16.973 21.8144 16.8975L21.7571 16.7863C21.9039 16.7108 22.0527 16.6382 22.2036 16.5685L22.256 16.682C22.4052 16.6131 22.5565 16.5471 22.7099 16.4839L22.6623 16.3684C22.8144 16.3057 22.9684 16.2459 23.1244 16.1889L23.1673 16.3063C23.3216 16.25 23.4777 16.1964 23.6357 16.1455L23.5974 16.0265C23.7541 15.9761 23.9126 15.9284 24.0728 15.8834L24.1066 16.0037C24.2644 15.9593 24.4239 15.9176 24.5851 15.8784L24.5556 15.757C24.716 15.718 24.878 15.6817 25.0416 15.6478L25.0669 15.7702C25.227 15.7372 25.3885 15.7065 25.5517 15.6784L25.5304 15.5552C25.6939 15.5269 25.8588 15.5012 26.0253 15.4778L26.0426 15.6016C26.2038 15.5789 26.3663 15.5586 26.5302 15.5406L26.5166 15.4163C26.6817 15.3981 26.8482 15.3822 27.0159 15.3687L27.026 15.4932C27.1884 15.4801 27.3521 15.4691 27.517 15.4603L27.5103 15.3354C27.6752 15.3266 27.8414 15.3199 28.0087 15.3153L28.0121 15.4403C28.1765 15.4357 28.3421 15.4333 28.5089 15.4329L28.5086 15.3079C28.6727 15.3076 28.8379 15.3092 29.0041 15.3128L29.0014 15.4377C29.1667 15.4413 29.333 15.4468 29.5003 15.4543L29.5059 15.3294C29.6698 15.3368 29.8347 15.3459 30.0005 15.357L29.9922 15.4817C30.156 15.4926 30.3207 15.5053 30.4863 15.5199L30.4973 15.3954C30.6629 15.4099 30.8294 15.4262 30.9968 15.4444L30.9834 15.5686C31.1453 15.5862 31.3081 15.6054 31.4717 15.6263L31.4875 15.5023C31.6519 15.5233 31.8171 15.546 31.983 15.5704L31.9649 15.6941C32.1277 15.718 32.2914 15.7436 32.4558 15.7707L32.4762 15.6474C32.6382 15.6742 32.801 15.7025 32.9645 15.7325L32.942 15.8554C33.1047 15.8852 33.2682 15.9166 33.4323 15.9494L33.4569 15.8269C33.6185 15.8593 33.7807 15.8931 33.9436 15.9285L33.9171 16.0507C34.0773 16.0854 34.2382 16.1217 34.3996 16.1594L34.428 16.0376C34.5901 16.0755 34.7528 16.1147 34.916 16.1554L34.8857 16.2767C35.0448 16.3164 35.2045 16.3574 35.3646 16.3998L35.3966 16.279C35.5559 16.3212 35.7158 16.3647 35.8761 16.4096L35.8424 16.53C36.0022 16.5747 36.1624 16.6207 36.3232 16.6681L36.3585 16.5482C36.5165 16.5947 36.6748 16.6426 36.8337 16.6916L36.7967 16.8111C36.9537 16.8596 37.1111 16.9093 37.2689 16.9604L37.3074 16.8414C37.4657 16.8926 37.6245 16.945 37.7836 16.9987L37.7437 17.1171C37.8995 17.1696 38.0558 17.2234 38.2124 17.2783L38.2538 17.1603C38.4092 17.2148 38.5651 17.2705 38.7212 17.3273L38.6785 17.4448C38.8342 17.5015 38.9902 17.5593 39.1467 17.6183L39.1908 17.5013C39.3457 17.5597 39.501 17.6193 39.6566 17.68L39.6112 17.7964C39.764 17.856 39.9172 17.9167 40.0706 17.9785L40.1173 17.8625C40.2712 17.9245 40.4254 17.9875 40.5798 18.0516L40.5319 18.1671C40.6852 18.2307 40.8388 18.2954 40.9927 18.3612L41.0418 18.2463C41.1928 18.3108 41.3441 18.3764 41.4956 18.443L41.4453 18.5574C41.5964 18.6238 41.7478 18.6913 41.8994 18.7597L41.9509 18.6458C42.1029 18.7144 42.2551 18.7841 42.4075 18.8547L42.355 18.9681C42.5039 19.0371 42.6531 19.1071 42.8025 19.1781L42.8561 19.0652C43.0052 19.136 43.1546 19.2078 43.3041 19.2806L43.2494 19.393C43.3985 19.4655 43.5479 19.5391 43.6974 19.6135L43.7531 19.5017C43.9016 19.5756 44.0502 19.6505 44.199 19.7263L44.1423 19.8377C44.2886 19.9122 44.4352 19.9877 44.5818 20.0641L44.6396 19.9532C44.7866 20.0297 44.9337 20.1072 45.081 20.1855L45.0223 20.2959C45.1693 20.374 45.3164 20.4531 45.4636 20.533L45.5233 20.4232C45.6679 20.5017 45.8127 20.5811 45.9576 20.6614L45.897 20.7707C46.0412 20.8506 46.1855 20.9313 46.33 21.0129L46.3914 20.904C46.5362 20.9858 46.681 21.0683 46.8259 21.1518L46.7635 21.2601C46.9073 21.3428 47.0511 21.4264 47.1951 21.5108L47.2583 21.403C47.4003 21.4863 47.5424 21.5704 47.6846 21.6553L47.6205 21.7627C47.7624 21.8474 47.9044 21.9329 48.0464 22.0193L48.1114 21.9125C48.2537 21.999 48.396 22.0862 48.5385 22.1743L48.4727 22.2807C48.6131 22.3675 48.7536 22.4551 48.8941 22.5435L48.9607 22.4377C49.1004 22.5256 49.2401 22.6142 49.3798 22.7036L49.3125 22.8089C49.4519 22.8982 49.5915 22.9881 49.731 23.0789L49.7992 22.9741C49.939 23.065 50.0788 23.1566 50.2186 23.249L50.1497 23.3533C50.287 23.4441 50.4244 23.5355 50.5617 23.6277L50.6314 23.5239C50.7686 23.6161 50.9058 23.7089 51.043 23.8024L50.9726 23.9057C51.1096 23.9991 51.2466 24.0932 51.3836 24.188L51.4547 24.0852C51.5918 24.1802 51.7289 24.2758 51.866 24.3721L51.7942 24.4744C51.9287 24.5689 52.0631 24.6641 52.1976 24.76L52.2702 24.6583C52.4049 24.7543 52.5396 24.8511 52.6742 24.9485L52.6009 25.0498C52.7353 25.147 52.8697 25.245 53.004 25.3436L53.078 25.2428C53.2122 25.3414 53.3464 25.4406 53.4806 25.5405L53.4059 25.6407C53.5379 25.739 53.6698 25.8379 53.8017 25.9375L53.877 25.8378C54.0091 25.9375 54.1412 26.038 54.2732 26.139L54.1972 26.2383C54.329 26.3392 54.4607 26.4407 54.5923 26.5429L54.669 26.4441C54.8004 26.5462 54.9318 26.6489 55.0631 26.7522L54.9859 26.8504C55.1153 26.9523 55.2446 27.0547 55.3739 27.1578L55.4518 27.06C55.5813 27.1633 55.7106 27.2671 55.8399 27.3716L55.7614 27.4688C55.8905 27.5732 56.0195 27.6781 56.1484 27.7836L56.2276 27.6869C56.3564 27.7924 56.4851 27.8984 56.6136 28.0051L56.5338 28.1013C56.6606 28.2065 56.7873 28.3122 56.9139 28.4186L56.9943 28.3229C57.1211 28.4294 57.2478 28.5366 57.3743 28.6443L57.2933 28.7395C57.4197 28.847 57.546 28.9551 57.6721 29.0639L57.7537 28.9692C57.8799 29.0779 58.0059 29.1873 58.1319 29.2972L58.0497 29.3914C58.1738 29.4997 58.2978 29.6087 58.4216 29.7181L58.5044 29.6245C58.6285 29.7341 58.7524 29.8443 58.8762 29.9551L58.7929 30.0483C58.9165 30.1589 59.0399 30.2701 59.1633 30.3818L59.2472 30.2892C59.3707 30.4011 59.4941 30.5136 59.6173 30.6266L59.5328 30.7187C59.6543 30.8302 59.7756 30.9422 59.8968 31.0547L59.9819 30.9631C60.1032 31.0758 60.2243 31.1889 60.3453 31.3027L60.2597 31.3937C60.3805 31.5073 60.5012 31.6214 60.6217 31.736L60.7078 31.6454C60.8285 31.7602 60.949 31.8756 61.0693 31.9914L60.9826 32.0815C61.1017 32.1961 61.2205 32.3113 61.3392 32.4269L61.4265 32.3374C61.5449 32.4529 61.6633 32.5689 61.7814 32.6854L61.6936 32.7744C61.8116 32.8908 61.9294 33.0076 62.047 33.125L62.1353 33.0365C62.2531 33.1541 62.3707 33.2722 62.4881 33.3908L62.3993 33.4787C62.4579 33.5379 62.5165 33.5973 62.575 33.6567C62.6336 33.7162 62.692 33.7757 62.7502 33.8353L62.8396 33.7479C62.9563 33.8672 63.0725 33.9866 63.1881 34.1063L63.0983 34.1932C63.2138 34.3126 63.3287 34.4323 63.4432 34.5521L63.5336 34.4657C63.6482 34.5857 63.7623 34.7059 63.8759 34.8262L63.785 34.912C63.8987 35.0325 64.012 35.1532 64.1247 35.2741L64.2161 35.1888C64.33 35.311 64.4434 35.4333 64.5563 35.5558L64.4643 35.6405C64.577 35.7628 64.6892 35.8853 64.8008 36.0079L64.8932 35.9237C65.005 36.0465 65.1162 36.1694 65.2269 36.2925L65.134 36.3761C65.2445 36.4991 65.3546 36.6222 65.4641 36.7455L65.5575 36.6624C65.6686 36.7875 65.7791 36.9126 65.889 37.0379L65.7951 37.1203C65.9048 37.2454 66.014 37.3707 66.1226 37.496L66.2171 37.4142C66.3259 37.5397 66.4341 37.6654 66.5418 37.7912L66.4468 37.8724C66.5543 37.998 66.6612 38.1238 66.7676 38.2496L66.8631 38.1689C66.971 38.2966 67.0783 38.4244 67.185 38.5523L67.0891 38.6324C67.1958 38.7602 67.3019 38.8882 67.4074 39.0162L67.5038 38.9368C67.6095 39.065 67.7146 39.1934 67.8191 39.3219L67.7221 39.4007C67.8265 39.529 67.9302 39.6574 68.0333 39.7858L68.1308 39.7076C68.2354 39.8378 68.3394 39.9682 68.4428 40.0987L68.3448 40.1763C68.4483 40.3069 68.5511 40.4375 68.6534 40.5683L68.7518 40.4913C68.8542 40.6222 68.956 40.7532 69.0572 40.8843L68.9582 40.9607C69.0592 41.0916 69.1596 41.2226 69.2593 41.3536L69.3588 41.2779C69.46 41.4108 69.5606 41.5438 69.6605 41.6769L69.5606 41.752C69.6606 41.8852 69.7601 42.0185 69.8588 42.1519L69.9593 42.0775C70.0582 42.2111 70.1565 42.3447 70.2542 42.4784L70.1532 42.5521C70.2507 42.6856 70.3475 42.8191 70.4437 42.9526L70.5451 42.8796C70.6428 43.0153 70.7399 43.1511 70.8363 43.2868L70.7344 43.3592C70.8308 43.4951 70.9266 43.631 71.0217 43.7669L71.1241 43.6953C71.2194 43.8315 71.314 43.9677 71.4079 44.1039L71.305 44.1748C71.3987 44.3108 71.4918 44.4468 71.5841 44.5828L71.6875 44.5126C71.7817 44.6512 71.8751 44.7898 71.9678 44.9284L71.8639 44.9979C71.9565 45.1364 72.0484 45.2748 72.1396 45.4133L72.244 45.3445C72.3353 45.4832 72.426 45.6219 72.5159 45.7606L72.411 45.8286C72.501 45.9674 72.5903 46.1062 72.6788 46.2449L72.7842 46.1777C72.8743 46.319 72.9637 46.4603 73.0524 46.6015L72.9465 46.6679C73.035 46.8089 73.1228 46.9499 73.2098 47.0907L73.3161 47.0251C73.4033 47.1662 73.4897 47.3073 73.5753 47.4484L73.4684 47.5133C73.5546 47.6552 73.64 47.797 73.7246 47.9388L73.8319 47.8748C73.9177 48.0186 74.0027 48.1623 74.087 48.306L73.9791 48.3692C74.0632 48.5126 74.1464 48.6559 74.2289 48.7992L74.3372 48.7368C74.4199 48.8803 74.5017 49.0238 74.5827 49.1671L74.4739 49.2286C74.556 49.3739 74.6373 49.519 74.7177 49.6641L74.827 49.6034C74.9081 49.7497 74.9884 49.8958 75.0678 50.0418L74.958 50.1015C75.0372 50.2472 75.1156 50.3928 75.1932 50.5383L75.3035 50.4795C75.3814 50.6256 75.4585 50.7717 75.5347 50.9176L75.4239 50.9754C75.5015 51.1239 75.5782 51.2723 75.654 51.4205L75.7653 51.3635C75.8413 51.5121 75.9164 51.6604 75.9905 51.8086L75.8788 51.8646C75.9528 52.0125 76.0259 52.1602 76.0981 52.3077L76.2104 52.2527C76.2838 52.4027 76.3563 52.5526 76.4279 52.7022L76.3151 52.7561C76.3872 52.9068 76.4583 53.0573 76.5285 53.2076L76.6418 53.1547C76.7121 53.3054 76.7815 53.4558 76.85 53.606L76.7362 53.6579C76.8048 53.8083 76.8724 53.9586 76.939 54.1086L77.0533 54.0579C77.1215 54.2115 77.1887 54.3648 77.2549 54.5179L77.1401 54.5675C77.2062 54.7202 77.2712 54.8726 77.3352 55.0248L77.4504 54.9763C77.5146 55.1289 77.5777 55.2812 77.6398 55.4332L77.5241 55.4805C77.5874 55.6354 77.6497 55.79 77.7109 55.9443L77.8271 55.8982C77.8887 56.0537 77.9493 56.2088 78.0087 56.3637L77.8921 56.4085C77.9514 56.5629 78.0096 56.717 78.0668 56.8708L78.1839 56.8273C78.2421 56.9838 78.2992 57.14 78.3551 57.2959L78.2375 57.3381C78.294 57.4954 78.3493 57.6524 78.4035 57.809L78.5216 57.7681C78.5759 57.9252 78.6291 58.0819 78.6811 58.2382L78.5625 58.2776C78.6149 58.4351 78.6662 58.5922 78.7162 58.7489L78.8353 58.7109C78.8864 58.8709 78.9363 59.0304 78.9849 59.1896L78.8654 59.2261C78.9138 59.3847 78.9611 59.5429 79.0071 59.7006L79.1271 59.6656C79.1736 59.8252 79.2189 59.9843 79.2629 60.1429L79.1425 60.1764C79.1873 60.3379 79.2308 60.4988 79.2729 60.6593L79.3938 60.6276C79.4361 60.7886 79.4771 60.9491 79.5167 61.109L79.3954 61.1391C79.4353 61.2999 79.4737 61.4602 79.5109 61.6199L79.6326 61.5916C79.6707 61.7554 79.7074 61.9187 79.7426 62.0814L79.6205 62.1078C79.6555 62.2698 79.6892 62.4313 79.7214 62.592L79.844 62.5675C79.8768 62.7309 79.908 62.8936 79.9378 63.0557L79.8149 63.0783C79.8452 63.243 79.8739 63.4069 79.9011 63.5701L80.0244 63.5496C80.0517 63.7135 80.0774 63.8767 80.1016 64.0392L79.978 64.0576C80.0026 64.2224 80.0255 64.3865 80.0468 64.5497L80.1708 64.5335C80.1925 64.6998 80.2125 64.8654 80.2309 65.03L80.1067 65.0439C80.125 65.2078 80.1416 65.3709 80.1566 65.5331L80.2811 65.5216C80.2965 65.6893 80.3102 65.856 80.3221 66.0219L80.1974 66.0308C80.2093 66.1967 80.2194 66.3616 80.2277 66.5255L80.3525 66.5192C80.3609 66.6851 80.3675 66.8502 80.3722 67.0142L80.2472 67.0178C80.252 67.1852 80.2549 67.3516 80.2558 67.5169L80.3808 67.5162C80.3818 67.6824 80.3807 67.8476 80.3777 68.0117L80.2528 68.0094C80.2497 68.1761 80.2446 68.3417 80.2375 68.506L80.3624 68.5114C80.3552 68.6786 80.3458 68.8447 80.3343 69.0095L80.2096 69.0008C80.1981 69.1655 80.1845 69.329 80.1688 69.4911L80.2932 69.5032C80.2769 69.6707 80.2584 69.8369 80.2376 70.0018L80.1136 69.9861C80.0929 70.1497 80.07 70.3119 80.0448 70.4726L80.1683 70.492C80.1423 70.658 80.1138 70.8226 80.083 70.9856L79.9602 70.9624C79.9294 71.125 79.8962 71.2861 79.8606 71.4455L79.9826 71.4728C79.9461 71.6358 79.9072 71.7972 79.8657 71.957L79.7447 71.9256C79.703 72.0861 79.6587 72.245 79.6118 72.402L79.7316 72.4378C79.684 72.5972 79.6338 72.7549 79.5809 72.9107L79.4625 72.8706C79.4091 73.0277 79.353 73.183 79.2942 73.3364L79.4109 73.3812C79.3514 73.5362 79.2892 73.6892 79.2241 73.8404L79.1093 73.7909C79.0438 73.9432 78.9753 74.0934 78.9041 74.2416L79.0167 74.2958C78.9446 74.4455 78.8697 74.5932 78.7918 74.7387L78.6816 74.6797C78.6036 74.8252 78.5228 74.9686 78.4389 75.1097L78.5464 75.1735C78.4615 75.3165 78.3736 75.4572 78.2826 75.5956L78.1781 75.5269C78.0879 75.6643 77.9946 75.7994 77.8982 75.9321L77.9994 76.0055C77.9018 76.14 77.8011 76.2721 77.6974 76.4019L77.5998 76.3238C77.4974 76.4517 77.392 76.5773 77.2835 76.7005L77.3774 76.7831C77.2677 76.9076 77.155 77.0296 77.0391 77.1492L76.9493 77.0622C76.8921 77.1213 76.8341 77.1798 76.7753 77.2376C76.7165 77.2955 76.6571 77.3526 76.5972 77.4088L76.6827 77.5C76.5613 77.6139 76.4374 77.7247 76.3112 77.8324L76.2301 77.7372C76.1052 77.8437 75.978 77.9471 75.8484 78.0474L75.9249 78.1462C75.7935 78.2479 75.6598 78.3465 75.5238 78.4419L75.452 78.3396C75.3177 78.4338 75.1812 78.5249 75.0424 78.613L75.1094 78.7185C74.9695 78.8073 74.8275 78.8929 74.6832 78.9756L74.6211 78.8671C74.4786 78.9487 74.334 79.0272 74.1873 79.1028L74.2445 79.2139C74.0978 79.2895 73.9489 79.3621 73.7981 79.4318L73.7457 79.3183C73.5964 79.3872 73.4451 79.4532 73.2918 79.5163L73.3394 79.6319C73.1872 79.6946 73.0332 79.7544 72.8772 79.8113L72.8343 79.6939C72.6801 79.7503 72.5239 79.8039 72.3659 79.8548L72.4042 79.9738C72.2475 80.0242 72.0891 80.0719 71.9289 80.1169L71.895 79.9966C71.7373 80.041 71.5777 80.0827 71.4165 80.1218L71.446 80.2433C71.2856 80.2823 71.1236 80.3186 70.96 80.3524L70.9347 80.23C70.7747 80.2631 70.6131 80.2937 70.45 80.3219L70.4713 80.4451C70.3078 80.4733 70.1428 80.4991 69.9764 80.5225L69.959 80.3987C69.7979 80.4213 69.6353 80.4417 69.4714 80.4597L69.4851 80.584C69.32 80.6022 69.1535 80.618 68.9857 80.6316L68.9756 80.507C68.8132 80.5202 68.6496 80.5312 68.4847 80.54L68.4914 80.6648C68.3264 80.6737 68.1603 80.6804 67.9929 80.685L67.9895 80.56C67.8251 80.5645 67.6595 80.567 67.4928 80.5673L67.4931 80.6923C67.3289 80.6927 67.1638 80.6911 66.9975 80.6875L67.0002 80.5625C66.835 80.559 66.6687 80.5535 66.5013 80.546L66.4957 80.6708C66.3318 80.6635 66.1669 80.6543 66.0011 80.6433L66.0094 80.5186C65.8456 80.5077 65.6809 80.4949 65.5153 80.4804L65.5044 80.6049C65.3387 80.5904 65.1722 80.574 65.0048 80.5559L65.0183 80.4316C64.8563 80.4141 64.6936 80.3949 64.53 80.374L64.5141 80.498C64.3497 80.4769 64.1846 80.4543 64.0186 80.4299L64.0368 80.3062C63.8739 80.2823 63.7102 80.2567 63.5459 80.2295L63.5255 80.3529C63.3634 80.3261 63.2006 80.2977 63.0372 80.2678L63.0597 80.1449C62.8969 80.1151 62.7334 80.0837 62.5693 80.0508L62.5448 80.1734C62.3831 80.141 62.2209 80.1071 62.058 80.0718L62.0846 79.9496C61.9243 79.9148 61.7635 79.8786 61.602 79.8409L61.5736 79.9626C61.4115 79.9248 61.2489 79.8856 61.0857 79.8448L61.1159 79.7236C60.9568 79.6839 60.7972 79.6428 60.637 79.6004L60.605 79.7213C60.4457 79.6791 60.2859 79.6356 60.1255 79.5907L60.1592 79.4703C59.9995 79.4256 59.8392 79.3796 59.6784 79.3322L59.6431 79.4521C59.4852 79.4055 59.3268 79.3577 59.168 79.3086L59.2049 79.1892C59.0479 79.1407 58.8905 79.0909 58.7327 79.0399L58.6943 79.1589C58.5359 79.1077 58.3772 79.0553 58.218 79.0016L58.2579 78.8832C58.1021 78.8306 57.9458 78.7769 57.7892 78.722L57.7478 78.8399C57.5924 78.7854 57.4366 78.7298 57.2804 78.6729L57.3232 78.5555C57.1675 78.4988 57.0114 78.441 56.855 78.382L56.8109 78.499C56.6559 78.4405 56.5007 78.381 56.3451 78.3203L56.3905 78.2038C56.2376 78.1442 56.0845 78.0836 55.931 78.0218L55.8843 78.1377C55.7304 78.0758 55.5763 78.0128 55.4218 77.9486L55.4697 77.8332C55.3164 77.7696 55.1628 77.7049 55.009 77.6391L54.9598 77.754C54.8088 77.6895 54.6576 77.6239 54.506 77.5573L54.5563 77.4429C54.4052 77.3764 54.2538 77.309 54.1022 77.2406L54.0508 77.3545C53.8988 77.2859 53.7465 77.2162 53.5941 77.1456L53.6466 77.0322C53.4977 76.9631 53.3485 76.8931 53.1992 76.8222L53.1455 76.9351C52.9964 76.8643 52.8471 76.7925 52.6976 76.7197L52.7523 76.6073C52.6031 76.5347 52.4538 76.4612 52.3043 76.3867L52.2485 76.4986C52.1001 76.4247 51.9514 76.3498 51.8026 76.274L51.8594 76.1626C51.713 76.088 51.5665 76.0126 51.4198 75.9362L51.3621 76.0471C51.2151 75.9705 51.0679 75.8931 50.9206 75.8148L50.9793 75.7044C50.8324 75.6263 50.6853 75.5472 50.538 75.4673L50.4784 75.5771C50.3337 75.4986 50.1889 75.4192 50.044 75.3389L50.1046 75.2296C49.9604 75.1497 49.8161 75.069 49.6717 74.9874L49.6102 75.0962C49.4655 75.0145 49.3207 74.9319 49.1757 74.8485L49.2381 74.7402C49.0944 74.6574 48.9505 74.5738 48.8066 74.4894L48.7433 74.5973C48.6013 74.514 48.4592 74.4298 48.317 74.3449L48.3811 74.2376C48.2392 74.1529 48.0972 74.0673 47.9552 73.981L47.8903 74.0878C47.748 74.0013 47.6056 73.914 47.4632 73.8259L47.5289 73.7196C47.3885 73.6328 47.248 73.5451 47.1075 73.4567L47.041 73.5625C46.9013 73.4747 46.7616 73.386 46.6218 73.2966L46.6892 73.1913C46.5497 73.1021 46.4102 73.0121 46.2706 72.9214L46.2025 73.0262C46.0627 72.9353 45.9229 72.8436 45.783 72.7512L45.8519 72.6469C45.7146 72.5562 45.5773 72.4647 45.4399 72.3725L45.3703 72.4763C45.233 72.3842 45.0958 72.2914 44.9586 72.1978L45.029 72.0946C44.892 72.0012 44.755 71.9071 44.6181 71.8123L44.5469 71.915C44.4098 71.8201 44.2727 71.7245 44.1356 71.6281L44.2075 71.5259C44.073 71.4314 43.9385 71.3361 43.804 71.2402L43.7314 71.342C43.5968 71.246 43.4621 71.1492 43.3274 71.0518L43.4007 70.9505C43.2663 70.8533 43.1319 70.7553 42.9976 70.6567L42.9236 70.7575C42.7894 70.6589 42.6552 70.5597 42.5211 70.4598L42.5957 70.3596C42.4638 70.2613 42.3318 70.1623 42.1999 70.0627L42.1246 70.1625C41.9925 70.0627 41.8604 69.9623 41.7284 69.8613L41.8044 69.762C41.6727 69.6611 41.541 69.5596 41.4093 69.4574L41.3327 69.5561C41.2012 69.4541 41.0698 69.3514 40.9385 69.2481L41.0158 69.1499C40.8864 69.048 40.757 68.9456 40.6278 68.8425L40.5498 68.9402C40.4204 68.837 40.291 68.7331 40.1617 68.6287L40.2402 68.5314C40.1112 68.4271 39.9822 68.3222 39.8533 68.2166L39.7741 68.3134C39.6453 68.2079 39.5166 68.1019 39.388 67.9952L39.4678 67.899C39.341 67.7938 39.2143 67.688 39.0877 67.5817L39.0073 67.6774C38.8805 67.5708 38.7539 67.4637 38.6273 67.356L38.7083 67.2608C38.5819 67.1533 38.4557 67.0451 38.3296 66.9364L38.2479 67.0311C38.1218 66.9223 37.9957 66.813 37.8698 66.7031L37.952 66.6089C37.8279 66.5005 37.7039 66.3916 37.58 66.2821L37.4972 66.3758C37.3731 66.2661 37.2492 66.1559 37.1254 66.0451L37.2088 65.952C37.0852 65.8414 36.9617 65.7302 36.8384 65.6185L36.7545 65.7111C36.6309 65.5992 36.5076 65.4867 36.3843 65.3737L36.4688 65.2815C36.3473 65.1701 36.226 65.0581 36.1048 64.9455L36.0197 65.0371C35.8984 64.9245 35.7773 64.8113 35.6563 64.6976L35.7419 64.6065C35.6211 64.493 35.5005 64.3789 35.38 64.2643L35.2938 64.3548C35.1732 64.24 35.0526 64.1247 34.9323 64.0088L35.019 63.9188C34.9 63.8042 34.7811 63.689 34.6624 63.5734L34.5752 63.6629C34.4567 63.5474 34.3384 63.4314 34.2202 63.3149L34.308 63.2259C34.19 63.1095 34.0722 62.9927 33.9546 62.8753L33.8663 62.9637C33.7485 62.8462 33.6309 62.7281 33.5135 62.6095L33.6023 62.5216C33.5437 62.4624 33.4851 62.403 33.4266 62.3435C33.3681 62.2841 33.3097 62.2246 33.2514 62.165L33.1621 62.2524C33.0454 62.1331 32.9292 62.0136 32.8135 61.894L32.9034 61.8071C32.7879 61.6876 32.6729 61.568 32.5585 61.4482L32.4681 61.5345C32.3534 61.4145 32.2394 61.2944 32.1258 61.1741L32.2167 61.0883C32.1029 60.9677 31.9897 60.847 31.877 60.7262L31.7856 60.8115C31.6716 60.6893 31.5582 60.567 31.4454 60.4445L31.5373 60.3598C31.4246 60.2375 31.3125 60.115 31.2009 59.9924L31.1084 60.0766C30.9966 59.9538 30.8854 59.8308 30.7747 59.7078L30.8677 59.6242C30.7571 59.5012 30.647 59.3781 30.5375 59.2548L30.4441 59.3378C30.333 59.2128 30.2225 59.0877 30.1126 58.9624L30.2066 58.8799C30.0968 58.7548 29.9876 58.6296 29.879 58.5043L29.7845 58.5861C29.6757 58.4606 29.5675 58.3349 29.4598 58.2091L29.5548 58.1278C29.4473 58.0022 29.3404 57.8765 29.234 57.7507L29.1386 57.8314C29.0307 57.7037 28.9233 57.5759 28.8166 57.448L28.9126 57.3679C28.8059 57.2401 28.6998 57.1121 28.5943 56.984L28.4978 57.0635C28.3921 56.9353 28.287 56.8069 28.1825 56.6784L28.2795 56.5995C28.1752 56.4713 28.0714 56.3429 27.9683 56.2145L27.8708 56.2927C27.7662 56.1624 27.6622 56.0321 27.5589 55.9016L27.6568 55.824C27.5534 55.6934 27.4505 55.5627 27.3483 55.432L27.2498 55.509C27.1474 55.3781 27.0456 55.247 26.9445 55.1159L27.0434 55.0396C26.9424 54.9087 26.8421 54.7777 26.7423 54.6467L26.6428 54.7224C26.5416 54.5895 26.4411 54.4565 26.3411 54.3234L26.4411 54.2483C26.341 54.1151 26.2416 53.9817 26.1428 53.8484L26.0424 53.9228C25.9434 53.7892 25.8451 53.6555 25.7475 53.5219L25.8484 53.4481C25.751 53.3147 25.6541 53.1812 25.558 53.0476L25.4565 53.1207C25.3588 52.985 25.2617 52.8492 25.1653 52.7134L25.2673 52.6411C25.1708 52.5052 25.075 52.3693 24.9799 52.2333L24.8775 52.305C24.7822 52.1688 24.6877 52.0326 24.5938 51.8964L24.6967 51.8254C24.6029 51.6895 24.5099 51.5535 24.4175 51.4175L24.3141 51.4877C24.22 51.3491 24.1265 51.2105 24.0338 51.0719L24.1377 51.0024C24.0451 50.8639 23.9532 50.7254 23.862 50.587L23.7576 50.6557C23.6663 50.517 23.5757 50.3784 23.4857 50.2397L23.5906 50.1717C23.5006 50.0329 23.4114 49.8941 23.3228 49.7553L23.2175 49.8226C23.1273 49.6813 23.0379 49.54 22.9492 49.3988L23.0551 49.3323C22.9666 49.1914 22.8789 49.0504 22.7919 48.9095L22.6855 48.9752C22.5984 48.834 22.512 48.6929 22.4263 48.5519L22.5332 48.487C22.447 48.3451 22.3617 48.2032 22.2771 48.0615L22.1697 48.1255C22.0839 47.9817 21.9989 47.8379 21.9147 47.6943L22.0225 47.6311C21.9385 47.4877 21.8552 47.3443 21.7727 47.2011L21.6644 47.2635C21.5818 47.12 21.5 46.9765 21.4189 46.8332L21.5278 46.7717C21.4456 46.6264 21.3644 46.4813 21.2839 46.3362L21.1746 46.3968C21.0935 46.2506 21.0133 46.1045 20.9338 45.9585L21.0437 45.8987C20.9644 45.753 20.886 45.6075 20.8084 45.462L20.6981 45.5208C20.6202 45.3746 20.5431 45.2286 20.4669 45.0827L20.5777 45.0248C20.5001 44.8763 20.4234 44.728 20.3476 44.5798L20.2363 44.6367C20.1604 44.4882 20.0853 44.3398 20.0111 44.1916L20.1229 44.1357C20.0489 43.9878 19.9757 43.8401 19.9035 43.6926L19.7912 43.7475C19.7178 43.5975 19.6453 43.4477 19.5738 43.2981L19.6865 43.2442C19.6144 43.0935 19.5433 42.943 19.4731 42.7927L19.3599 42.8456C19.2895 42.6949 19.2201 42.5445 19.1517 42.3943L19.2654 42.3424C19.1968 42.1919 19.1292 42.0417 19.0626 41.8916L18.9484 41.9424C18.8802 41.7888 18.813 41.6355 18.7468 41.4824L18.8615 41.4328C18.7955 41.2801 18.7305 41.1277 18.6665 40.9755L18.5512 41.024C18.4871 40.8714 18.4239 40.7191 18.3618 40.5671L18.4775 40.5198C18.4142 40.3649 18.3519 40.2103 18.2908 40.056L18.1746 40.1021C18.1129 39.9466 18.0524 39.7914 17.9929 39.6366L18.1096 39.5918C18.0503 39.4373 17.992 39.2832 17.9349 39.1295L17.8177 39.173C17.7595 39.0165 17.7024 38.8603 17.6465 38.7044L17.7641 38.6622C17.7077 38.5048 17.6523 38.3479 17.5982 38.1913L17.48 38.2321C17.4257 38.0751 17.3725 37.9184 17.3205 37.7621L17.4391 37.7226C17.3867 37.5652 17.3355 37.4081 17.2854 37.2514L17.1664 37.2894C17.1152 37.1294 17.0654 36.9699 17.0167 36.8107L17.1363 36.7742C17.0878 36.6156 17.0405 36.4574 16.9946 36.2997L16.8745 36.3347C16.828 36.1751 16.7827 36.016 16.7387 35.8573L16.8592 35.8239C16.8143 35.6624 16.7709 35.5014 16.7287 35.341L16.6078 35.3727C16.5655 35.2117 16.5245 35.0512 16.4849 34.8912L16.6062 34.8612C16.5664 34.7003 16.5279 34.5401 16.4908 34.3804L16.369 34.4087C16.3309 34.2448 16.2942 34.0816 16.259 33.9189L16.3812 33.8925C16.3461 33.7304 16.3124 33.569 16.2802 33.4082L16.1576 33.4328C16.1249 33.2694 16.0936 33.1066 16.0638 32.9445L16.1867 32.9219C16.1565 32.7573 16.1277 32.5934 16.1005 32.4301L15.9772 32.4507C15.9499 32.2868 15.9242 32.1236 15.9 31.9611L16.0236 31.9427C15.9991 31.7779 15.9761 31.6138 15.9548 31.4506L15.8309 31.4668C15.8091 31.3004 15.7891 31.1349 15.7707 30.9702L15.8949 30.9564C15.8766 30.7925 15.86 30.6294 15.8451 30.4672L15.7206 30.4787C15.7051 30.311 15.6914 30.1442 15.6796 29.9784L15.8042 29.9695C15.7923 29.8036 15.7823 29.6387 15.774 29.4748L15.6491 29.4811C15.6407 29.3151 15.6342 29.1501 15.6295 28.9861L15.7544 28.9825C15.7496 28.8151 15.7467 28.6487 15.7458 28.4834L15.6208 28.4841C15.6199 28.3178 15.6209 28.1527 15.6239 27.9886L15.7489 27.9908C15.7519 27.8241 15.757 27.6586 15.7641 27.4943L15.6392 27.4889C15.6465 27.3216 15.6558 27.1556 15.6673 26.9908L15.792 26.9995C15.8035 26.8348 15.8171 26.6713 15.8328 26.5092L15.7084 26.4971C15.7247 26.3295 15.7432 26.1633 15.764 25.9985L15.8881 26.0142C15.9087 25.8506 15.9317 25.6884 15.9568 25.5276L15.8334 25.5083C15.8594 25.3422 15.8878 25.1777 15.9186 25.0147L16.0415 25.0379C16.0722 24.8753 16.1054 24.7142 16.1411 24.5548L16.0191 24.5275C16.0555 24.3644 16.0945 24.203 16.136 24.0433L16.2569 24.0747C16.2987 23.9141 16.3429 23.7553 16.3898 23.5982L16.27 23.5625C16.3176 23.403 16.3679 23.2454 16.4208 23.0895L16.5391 23.1297C16.5925 22.9725 16.6486 22.8172 16.7074 22.6639L16.5907 22.6191C16.6502 22.4641 16.7124 22.311 16.7775 22.1599L16.8923 22.2094C16.9579 22.0571 17.0263 21.9068 17.0976 21.7587L16.9849 21.7045C17.057 21.5547 17.132 21.4071 17.2099 21.2616L17.3201 21.3206C17.398 21.1751 17.4789 21.0317 17.5627 20.8906L17.4552 20.8268C17.5401 20.6838 17.6281 20.5431 17.719 20.4047L17.8235 20.4734C17.9138 20.336 18.0071 20.2009 18.1034 20.0682L18.0022 19.9948C18.0998 19.8603 18.2005 19.7281 18.3043 19.5984L18.4019 19.6765C18.5042 19.5486 18.6096 19.423 18.7181 19.2998L18.6243 19.2172Z" stroke="url(#paint1_linear_4925_2007)" stroke-width="0.25" stroke-dasharray="0.5 0.5"/>
    <defs>
        <linearGradient id="paint0_linear_4925_2007" x1="48.0008" y1="12.6825" x2="48.0008" y2="68.5738" gradientUnits="userSpaceOnUse">
            <stop offset="0.170133" stop-color="#53FDA9" stop-opacity="0"/>
            <stop offset="1" stop-color="#53FDA9"/>
        </linearGradient>
        <linearGradient id="paint1_linear_4925_2007" x1="68.8806" y1="29.196" x2="32.0962" y2="63.5529" gradientUnits="userSpaceOnUse">
            <stop stop-color="white"/>
            <stop offset="1" stop-color="white" stop-opacity="0"/>
        </linearGradient>
    </defs>
</svg>
