<svg width="96" height="96" viewBox="0 0 96 96" fill="none"
    xmlns="http://www.w3.org/2000/svg">
    <path d="M53.7617 54.6619L53.6339 54.447L53.4655 54.5472L53.5226 54.7347L53.7617 54.6619ZM59.8872 74.7897V75.0397H60.2246L60.1264 74.7169L59.8872 74.7897ZM36.1133 74.7897L35.8741 74.7169L35.7759 75.0397H36.1133V74.7897ZM42.2388 54.6618L42.4779 54.7346L42.535 54.5471L42.3666 54.4469L42.2388 54.6618ZM59.5275 44.4494C59.5216 44.3114 59.4049 44.2044 59.267 44.2103C59.129 44.2163 59.022 44.3329 59.0279 44.4708L59.5275 44.4494ZM58.945 43.511C58.9628 43.6479 59.0883 43.7444 59.2252 43.7266C59.3621 43.7087 59.4586 43.5832 59.4408 43.4463L58.945 43.511ZM59.2671 42.4549C59.2373 42.32 59.1039 42.2349 58.969 42.2646C58.8342 42.2944 58.7491 42.4278 58.7788 42.5626L59.2671 42.4549ZM58.5302 41.6327C58.5717 41.7644 58.7121 41.8375 58.8438 41.796C58.9755 41.7546 59.0486 41.6142 59.0071 41.4825L58.5302 41.6327ZM58.6627 40.5363C58.6098 40.4088 58.4635 40.3483 58.336 40.4012C58.2084 40.454 58.1479 40.6003 58.2008 40.7279L58.6627 40.5363ZM57.7933 39.8553C57.8571 39.9778 58.0081 40.0252 58.1305 39.9614C58.253 39.8975 58.3004 39.7465 58.2366 39.6241L57.7933 39.8553ZM57.7324 38.7528C57.6582 38.6364 57.5036 38.6023 57.3872 38.6766C57.2708 38.7509 57.2367 38.9054 57.311 39.0218L57.7324 38.7528ZM56.758 38.2334C56.8421 38.3429 56.999 38.3634 57.1085 38.2793C57.218 38.1952 57.2385 38.0382 57.1544 37.9287L56.758 38.2334ZM56.507 37.158C56.4137 37.0562 56.2556 37.0494 56.1538 37.1427C56.052 37.236 56.0452 37.3941 56.1385 37.4959L56.507 37.158ZM55.4574 36.8148C55.5592 36.9081 55.7173 36.9013 55.8106 36.7995C55.9039 36.6977 55.8971 36.5396 55.7953 36.4463L55.4574 36.8148ZM55.0246 35.7989C54.9151 35.7148 54.7582 35.7353 54.674 35.8448C54.5899 35.9543 54.6104 36.1112 54.7199 36.1954L55.0246 35.7989ZM53.9315 35.6423C54.0479 35.7166 54.2025 35.6825 54.2768 35.5661C54.351 35.4497 54.3169 35.2952 54.2006 35.2209L53.9315 35.6423ZM53.3292 34.7167C53.2068 34.6529 53.0558 34.7004 52.9919 34.8228C52.9281 34.9452 52.9756 35.0962 53.098 35.1601L53.3292 34.7167ZM52.2255 34.7525C52.353 34.8054 52.4993 34.7449 52.5522 34.6173C52.605 34.4898 52.5445 34.3435 52.417 34.2906L52.2255 34.7525ZM51.4708 33.9462C51.3391 33.9047 51.1988 33.9778 51.1573 34.1095C51.1158 34.2412 51.1889 34.3816 51.3206 34.4231L51.4708 33.9462ZM50.3907 34.1745C50.5255 34.2043 50.6589 34.1191 50.6887 33.9843C50.7184 33.8494 50.6333 33.716 50.4984 33.6863L50.3907 34.1745ZM49.507 33.5125C49.3701 33.4947 49.2446 33.5912 49.2268 33.7281C49.2089 33.865 49.3054 33.9905 49.4423 34.0083L49.507 33.5125ZM48.4825 33.9254C48.6204 33.9313 48.7371 33.8243 48.743 33.6863C48.7489 33.5484 48.6419 33.4318 48.5039 33.4258L48.4825 33.9254ZM47.4967 33.4258C47.3588 33.4318 47.2518 33.5484 47.2577 33.6863C47.2636 33.8243 47.3803 33.9313 47.5182 33.9254L47.4967 33.4258ZM46.5584 34.0083C46.6953 33.9905 46.7918 33.865 46.7739 33.7281C46.7561 33.5912 46.6306 33.4947 46.4937 33.5125L46.5584 34.0083ZM45.5022 33.6863C45.3674 33.716 45.2822 33.8494 45.312 33.9843C45.3418 34.1191 45.4752 34.2043 45.61 34.1745L45.5022 33.6863ZM44.6801 34.4231C44.8118 34.3816 44.8849 34.2412 44.8434 34.1095C44.8019 33.9778 44.6615 33.9047 44.5298 33.9462L44.6801 34.4231ZM43.5837 34.2906C43.4562 34.3435 43.3956 34.4898 43.4485 34.6173C43.5014 34.7449 43.6477 34.8054 43.7752 34.7525L43.5837 34.2906ZM42.9027 35.1601C43.0251 35.0962 43.0726 34.9452 43.0087 34.8228C42.9449 34.7004 42.7939 34.6529 42.6715 34.7167L42.9027 35.1601ZM41.8001 35.2209C41.6837 35.2952 41.6496 35.4497 41.7239 35.5661C41.7982 35.6825 41.9528 35.7166 42.0692 35.6423L41.8001 35.2209ZM41.2808 36.1954C41.3902 36.1112 41.4108 35.9543 41.3267 35.8448C41.2425 35.7353 41.0856 35.7148 40.9761 35.7989L41.2808 36.1954ZM40.2054 36.4463C40.1036 36.5396 40.0967 36.6977 40.19 36.7995C40.2834 36.9013 40.4415 36.9081 40.5433 36.8148L40.2054 36.4463ZM39.8622 37.4959C39.9555 37.3941 39.9486 37.236 39.8469 37.1427C39.7451 37.0494 39.5869 37.0562 39.4936 37.158L39.8622 37.4959ZM38.8463 37.9287C38.7621 38.0382 38.7827 38.1952 38.8922 38.2793C39.0016 38.3634 39.1586 38.3429 39.2427 38.2334L38.8463 37.9287ZM38.6897 39.0218C38.764 38.9054 38.7299 38.7509 38.6135 38.6766C38.4971 38.6023 38.3425 38.6364 38.2682 38.7528L38.6897 39.0218ZM37.7641 39.6241C37.7002 39.7465 37.7477 39.8975 37.8701 39.9614C37.9926 40.0252 38.1436 39.9778 38.2074 39.8553L37.7641 39.6241ZM37.7999 40.7279C37.8528 40.6003 37.7922 40.454 37.6647 40.4012C37.5372 40.3483 37.3909 40.4088 37.338 40.5363L37.7999 40.7279ZM36.9935 41.4825C36.9521 41.6142 37.0252 41.7546 37.1569 41.796C37.2886 41.8375 37.429 41.7644 37.4704 41.6327L36.9935 41.4825ZM37.2219 42.5626C37.2516 42.4278 37.1665 42.2944 37.0316 42.2646C36.8968 42.2349 36.7634 42.32 36.7336 42.4549L37.2219 42.5626ZM36.5599 43.4463C36.5421 43.5832 36.6386 43.7087 36.7755 43.7266C36.9124 43.7444 37.0379 43.6479 37.0557 43.511L36.5599 43.4463ZM36.9727 44.4708C36.9787 44.3329 36.8716 44.2163 36.7337 44.2103C36.5958 44.2044 36.4791 44.3114 36.4732 44.4494L36.9727 44.4708ZM36.4729 45.4507C36.4788 45.5886 36.5954 45.6957 36.7333 45.6898C36.8713 45.684 36.9784 45.5674 36.9725 45.4294L36.4729 45.4507ZM37.0535 46.3781C37.0359 46.2411 36.9106 46.1444 36.7736 46.1621C36.6367 46.1797 36.54 46.305 36.5576 46.442L37.0535 46.3781ZM36.7274 47.4227C36.7568 47.5576 36.89 47.6431 37.0249 47.6137C37.1598 47.5843 37.2453 47.451 37.2159 47.3161L36.7274 47.4227ZM37.4589 48.2363C37.4179 48.1045 37.2777 48.0309 37.1459 48.0719C37.0141 48.1129 36.9404 48.253 36.9815 48.3849L37.4589 48.2363ZM37.3182 49.3216C37.3705 49.4493 37.5165 49.5105 37.6443 49.4582C37.7721 49.4059 37.8332 49.2599 37.7809 49.1321L37.3182 49.3216ZM38.1794 49.9966C38.1163 49.8738 37.9655 49.8255 37.8427 49.8887C37.72 49.9519 37.6717 50.1026 37.7349 50.2254L38.1794 49.9966ZM38.228 51.0897C38.3015 51.2066 38.4559 51.2417 38.5728 51.1682C38.6896 51.0946 38.7247 50.9403 38.6512 50.8234L38.228 51.0897ZM39.1925 51.6067C39.1092 51.4966 38.9524 51.4749 38.8423 51.5582C38.7322 51.6415 38.7105 51.7983 38.7938 51.9084L39.1925 51.6067ZM39.4277 52.6754C39.5201 52.7779 39.6782 52.7861 39.7808 52.6937C39.8833 52.6012 39.8915 52.4432 39.7991 52.3406L39.4277 52.6754ZM40.4663 53.0199C40.3654 52.9256 40.2072 52.931 40.1129 53.0319C40.0187 53.1328 40.024 53.291 40.1249 53.3852L40.4663 53.0199ZM40.8805 54.0328C40.9891 54.118 41.1462 54.0991 41.2315 53.9905C41.3168 53.8819 41.2978 53.7248 41.1893 53.6395L40.8805 54.0328ZM41.9626 54.1948C41.8471 54.1191 41.6922 54.1515 41.6165 54.267C41.5409 54.3825 41.5733 54.5375 41.6888 54.6131L41.9626 54.1948ZM41.8604 55.0465C41.8202 55.1786 41.8947 55.3182 42.0268 55.3584C42.1589 55.3986 42.2985 55.3241 42.3387 55.192L41.8604 55.0465ZM42.0603 56.107C42.1005 55.9749 42.026 55.8352 41.8939 55.795C41.7618 55.7548 41.6222 55.8293 41.582 55.9614L42.0603 56.107ZM41.3035 56.8763C41.2633 57.0084 41.3378 57.148 41.4699 57.1882C41.602 57.2284 41.7417 57.1539 41.7819 57.0219L41.3035 56.8763ZM41.5034 57.9368C41.5436 57.8047 41.4691 57.665 41.3371 57.6248C41.205 57.5846 41.0653 57.6591 41.0251 57.7912L41.5034 57.9368ZM40.7467 58.7061C40.7065 58.8382 40.781 58.9778 40.913 59.018C41.0451 59.0582 41.1848 58.9837 41.225 58.8517L40.7467 58.7061ZM40.9466 59.7666C40.9868 59.6345 40.9123 59.4948 40.7802 59.4546C40.6481 59.4144 40.5084 59.4889 40.4682 59.621L40.9466 59.7666ZM40.1898 60.5359C40.1496 60.668 40.2241 60.8076 40.3562 60.8478C40.4883 60.888 40.6279 60.8136 40.6681 60.6815L40.1898 60.5359ZM40.3897 61.5964C40.4299 61.4643 40.3554 61.3246 40.2233 61.2844C40.0912 61.2442 39.9516 61.3187 39.9114 61.4508L40.3897 61.5964ZM39.6329 62.3657C39.5927 62.4978 39.6672 62.6375 39.7993 62.6777C39.9314 62.7178 40.0711 62.6434 40.1113 62.5113L39.6329 62.3657ZM39.8328 63.4262C39.873 63.2941 39.7986 63.1544 39.6665 63.1142C39.5344 63.074 39.3947 63.1485 39.3545 63.2806L39.8328 63.4262ZM39.0761 64.1955C39.0359 64.3276 39.1104 64.4673 39.2425 64.5075C39.3745 64.5477 39.5142 64.4732 39.5544 64.3411L39.0761 64.1955ZM39.276 65.256C39.3162 65.1239 39.2417 64.9842 39.1096 64.944C38.9775 64.9038 38.8378 64.9783 38.7976 65.1104L39.276 65.256ZM38.5192 66.0253C38.479 66.1574 38.5535 66.2971 38.6856 66.3373C38.8177 66.3775 38.9574 66.303 38.9976 66.1709L38.5192 66.0253ZM38.7191 67.0858C38.7593 66.9537 38.6848 66.814 38.5527 66.7738C38.4206 66.7336 38.281 66.8081 38.2408 66.9402L38.7191 67.0858ZM37.9623 67.8551C37.9221 67.9872 37.9966 68.1269 38.1287 68.1671C38.2608 68.2073 38.4005 68.1328 38.4407 68.0007L37.9623 67.8551ZM38.1623 68.9156C38.2025 68.7835 38.128 68.6438 37.9959 68.6036C37.8638 68.5634 37.7241 68.6379 37.6839 68.77L38.1623 68.9156ZM37.4055 69.6849C37.3653 69.817 37.4398 69.9567 37.5719 69.9969C37.704 70.0371 37.8436 69.9626 37.8838 69.8305L37.4055 69.6849ZM37.6054 70.7454C37.6456 70.6133 37.5711 70.4736 37.439 70.4334C37.3069 70.3932 37.1673 70.4677 37.1271 70.5998L37.6054 70.7454ZM36.8486 71.5147C36.8084 71.6468 36.8829 71.7865 37.015 71.8267C37.1471 71.8669 37.2868 71.7924 37.327 71.6603L36.8486 71.5147ZM37.0485 72.5752C37.0887 72.4431 37.0142 72.3034 36.8821 72.2632C36.7501 72.223 36.6104 72.2975 36.5702 72.4296L37.0485 72.5752ZM36.2918 73.3445C36.2516 73.4766 36.3261 73.6163 36.4581 73.6565C36.5902 73.6967 36.7299 73.6222 36.7701 73.4901L36.2918 73.3445ZM36.4917 74.405C36.5319 74.2729 36.4574 74.1332 36.3253 74.093C36.1932 74.0528 36.0535 74.1273 36.0133 74.2594L36.4917 74.405ZM36.6086 75.0397C36.7466 75.0397 36.8586 74.9277 36.8586 74.7897C36.8586 74.6516 36.7466 74.5397 36.6086 74.5397V75.0397ZM37.5992 74.5397C37.4611 74.5397 37.3492 74.6516 37.3492 74.7897C37.3492 74.9277 37.4611 75.0397 37.5992 75.0397V74.5397ZM38.5897 75.0397C38.7278 75.0397 38.8397 74.9277 38.8397 74.7897C38.8397 74.6516 38.7278 74.5397 38.5897 74.5397V75.0397ZM39.5803 74.5397C39.4422 74.5397 39.3303 74.6516 39.3303 74.7897C39.3303 74.9277 39.4422 75.0397 39.5803 75.0397V74.5397ZM40.5709 75.0397C40.709 75.0397 40.8209 74.9277 40.8209 74.7897C40.8209 74.6516 40.709 74.5397 40.5709 74.5397V75.0397ZM41.5615 74.5397C41.4234 74.5397 41.3115 74.6516 41.3115 74.7897C41.3115 74.9277 41.4234 75.0397 41.5615 75.0397V74.5397ZM42.5521 75.0397C42.6901 75.0397 42.8021 74.9277 42.8021 74.7897C42.8021 74.6516 42.6901 74.5397 42.5521 74.5397V75.0397ZM43.5426 74.5397C43.4046 74.5397 43.2926 74.6516 43.2926 74.7897C43.2926 74.9277 43.4046 75.0397 43.5426 75.0397V74.5397ZM44.5332 75.0397C44.6713 75.0397 44.7832 74.9277 44.7832 74.7897C44.7832 74.6516 44.6713 74.5397 44.5332 74.5397V75.0397ZM45.5238 74.5397C45.3857 74.5397 45.2738 74.6516 45.2738 74.7897C45.2738 74.9277 45.3857 75.0397 45.5238 75.0397V74.5397ZM46.5144 75.0397C46.6524 75.0397 46.7644 74.9277 46.7644 74.7897C46.7644 74.6516 46.6524 74.5397 46.5144 74.5397V75.0397ZM47.505 74.5397C47.3669 74.5397 47.255 74.6516 47.255 74.7897C47.255 74.9277 47.3669 75.0397 47.505 75.0397V74.5397ZM48.4955 75.0397C48.6336 75.0397 48.7455 74.9277 48.7455 74.7897C48.7455 74.6516 48.6336 74.5397 48.4955 74.5397V75.0397ZM49.4861 74.5397C49.348 74.5397 49.2361 74.6516 49.2361 74.7897C49.2361 74.9277 49.348 75.0397 49.4861 75.0397V74.5397ZM50.4767 75.0397C50.6148 75.0397 50.7267 74.9277 50.7267 74.7897C50.7267 74.6516 50.6148 74.5397 50.4767 74.5397V75.0397ZM51.4673 74.5397C51.3292 74.5397 51.2173 74.6516 51.2173 74.7897C51.2173 74.9277 51.3292 75.0397 51.4673 75.0397V74.5397ZM52.4579 75.0397C52.5959 75.0397 52.7079 74.9277 52.7079 74.7897C52.7079 74.6516 52.5959 74.5397 52.4579 74.5397V75.0397ZM53.4484 74.5397C53.3104 74.5397 53.1984 74.6516 53.1984 74.7897C53.1984 74.9277 53.3104 75.0397 53.4484 75.0397V74.5397ZM54.439 75.0397C54.5771 75.0397 54.689 74.9277 54.689 74.7897C54.689 74.6516 54.5771 74.5397 54.439 74.5397V75.0397ZM55.4296 74.5397C55.2915 74.5397 55.1796 74.6516 55.1796 74.7897C55.1796 74.9277 55.2915 75.0397 55.4296 75.0397V74.5397ZM56.4202 75.0397C56.5583 75.0397 56.6702 74.9277 56.6702 74.7897C56.6702 74.6516 56.5583 74.5397 56.4202 74.5397V75.0397ZM57.4108 74.5397C57.2727 74.5397 57.1608 74.6516 57.1608 74.7897C57.1608 74.9277 57.2727 75.0397 57.4108 75.0397V74.5397ZM58.4014 75.0397C58.5394 75.0397 58.6514 74.9277 58.6514 74.7897C58.6514 74.6516 58.5394 74.5397 58.4014 74.5397V75.0397ZM59.3919 74.5397C59.2539 74.5397 59.1419 74.6516 59.1419 74.7897C59.1419 74.9277 59.2539 75.0397 59.3919 75.0397V74.5397ZM59.9872 74.2594C59.947 74.1273 59.8073 74.0528 59.6752 74.093C59.5431 74.1332 59.4686 74.2729 59.5088 74.405L59.9872 74.2594ZM59.2304 73.4901C59.2706 73.6222 59.4103 73.6967 59.5424 73.6565C59.6744 73.6163 59.7489 73.4766 59.7087 73.3445L59.2304 73.4901ZM59.4303 72.4296C59.3901 72.2975 59.2504 72.223 59.1184 72.2632C58.9863 72.3034 58.9118 72.4431 58.952 72.5752L59.4303 72.4296ZM58.6735 71.6603C58.7137 71.7924 58.8534 71.8669 58.9855 71.8267C59.1176 71.7865 59.1921 71.6468 59.1519 71.5147L58.6735 71.6603ZM58.8734 70.5998C58.8333 70.4677 58.6936 70.3933 58.5615 70.4335C58.4294 70.4737 58.3549 70.6133 58.3951 70.7454L58.8734 70.5998ZM58.1167 69.8305C58.1569 69.9626 58.2965 70.0371 58.4286 69.9969C58.5607 69.9567 58.6352 69.817 58.595 69.6849L58.1167 69.8305ZM58.3166 68.77C58.2764 68.638 58.1367 68.5635 58.0046 68.6037C57.8725 68.6439 57.798 68.7835 57.8382 68.9156L58.3166 68.77ZM57.5598 68.0007C57.6 68.1328 57.7397 68.2073 57.8718 68.1671C58.0039 68.1269 58.0784 67.9872 58.0382 67.8551L57.5598 68.0007ZM57.7597 66.9402C57.7195 66.8082 57.5799 66.7337 57.4478 66.7739C57.3157 66.8141 57.2412 66.9537 57.2814 67.0858L57.7597 66.9402ZM57.003 66.1709C57.0432 66.303 57.1828 66.3775 57.3149 66.3373C57.447 66.2971 57.5215 66.1574 57.4813 66.0253L57.003 66.1709ZM57.2029 65.1104C57.1627 64.9784 57.023 64.9039 56.8909 64.9441C56.7588 64.9843 56.6843 65.1239 56.7245 65.256L57.2029 65.1104ZM56.4461 64.3411C56.4863 64.4732 56.626 64.5477 56.758 64.5075C56.8901 64.4673 56.9646 64.3276 56.9244 64.1956L56.4461 64.3411ZM56.646 63.2807C56.6058 63.1486 56.4661 63.0741 56.334 63.1143C56.202 63.1545 56.1275 63.2941 56.1677 63.4262L56.646 63.2807ZM55.8892 62.5113C55.9294 62.6434 56.0691 62.7179 56.2012 62.6777C56.3333 62.6375 56.4078 62.4978 56.3676 62.3658L55.8892 62.5113ZM56.0891 61.4509C56.0489 61.3188 55.9093 61.2443 55.7772 61.2845C55.6451 61.3247 55.5706 61.4643 55.6108 61.5964L56.0891 61.4509ZM55.3324 60.6815C55.3726 60.8136 55.5122 60.8881 55.6443 60.8479C55.7764 60.8077 55.8509 60.668 55.8107 60.536L55.3324 60.6815ZM55.5323 59.6211C55.4921 59.489 55.3524 59.4145 55.2203 59.4547C55.0882 59.4949 55.0137 59.6345 55.0539 59.7666L55.5323 59.6211ZM54.7755 58.8517C54.8157 58.9838 54.9554 59.0583 55.0875 59.0181C55.2196 58.9779 55.294 58.8383 55.2538 58.7062L54.7755 58.8517ZM54.9754 57.7913C54.9352 57.6592 54.7955 57.5847 54.6635 57.6249C54.5314 57.6651 54.4569 57.8047 54.4971 57.9368L54.9754 57.7913ZM54.2186 57.0219C54.2588 57.154 54.3985 57.2285 54.5306 57.1883C54.6627 57.1481 54.7372 57.0085 54.697 56.8764L54.2186 57.0219ZM54.4186 55.9615C54.3784 55.8294 54.2387 55.7549 54.1066 55.7951C53.9745 55.8353 53.9 55.975 53.9402 56.107L54.4186 55.9615ZM53.6618 55.1921C53.702 55.3242 53.8416 55.3987 53.9737 55.3585C54.1058 55.3183 54.1803 55.1787 54.1401 55.0466L53.6618 55.1921ZM54.3118 54.6132C54.4273 54.5376 54.4596 54.3826 54.384 54.2671C54.3084 54.1516 54.1534 54.1192 54.0379 54.1949L54.3118 54.6132ZM54.8113 53.6396C54.7027 53.7249 54.6838 53.882 54.7691 53.9906C54.8543 54.0992 55.0115 54.1181 55.1201 54.0329L54.8113 53.6396ZM55.8756 53.3853C55.9765 53.2911 55.9819 53.1329 55.8876 53.032C55.7934 52.9311 55.6352 52.9257 55.5343 53.02L55.8756 53.3853ZM56.2015 52.3407C56.1091 52.4433 56.1173 52.6013 56.2198 52.6938C56.3224 52.7862 56.4805 52.778 56.5729 52.6755L56.2015 52.3407ZM57.2068 51.9085C57.2901 51.7984 57.2684 51.6416 57.1583 51.5583C57.0482 51.475 56.8914 51.4967 56.8081 51.6068L57.2068 51.9085ZM57.3494 50.8235C57.2759 50.9404 57.311 51.0947 57.4279 51.1683C57.5447 51.2418 57.6991 51.2067 57.7726 51.0898L57.3494 50.8235ZM58.2658 50.2255C58.329 50.1027 58.2807 49.952 58.1579 49.8888C58.0351 49.8256 57.8844 49.8739 57.8212 49.9967L58.2658 50.2255ZM58.2197 49.1322C58.1674 49.26 58.2286 49.406 58.3564 49.4583C58.4841 49.5106 58.6301 49.4494 58.6824 49.3216L58.2197 49.1322ZM59.0192 48.3849C59.0602 48.2531 58.9866 48.1129 58.8548 48.0719C58.7229 48.0309 58.5828 48.1045 58.5418 48.2364L59.0192 48.3849ZM58.7848 47.3162C58.7553 47.4511 58.8409 47.5843 58.9757 47.6137C59.1107 47.6431 59.2439 47.5576 59.2733 47.4227L58.7848 47.3162ZM59.4431 46.442C59.4607 46.3051 59.364 46.1797 59.2271 46.1621C59.0901 46.1445 58.9648 46.2412 58.9472 46.3781L59.4431 46.442ZM59.0282 45.4295C59.0223 45.5674 59.1294 45.684 59.2674 45.6898C59.4053 45.6957 59.5219 45.5886 59.5277 45.4507L59.0282 45.4295ZM59.5383 44.953C59.5383 44.7843 59.5347 44.6164 59.5275 44.4494L59.0279 44.4708C59.0348 44.6307 59.0383 44.7914 59.0383 44.953H59.5383ZM59.4408 43.4463C59.397 43.1111 59.3389 42.7804 59.2671 42.4549L58.7788 42.5626C58.8475 42.874 58.9031 43.1903 58.945 43.511L59.4408 43.4463ZM59.0071 41.4825C58.9058 41.1608 58.7907 40.8452 58.6627 40.5363L58.2008 40.7279C58.3233 41.0232 58.4333 41.3251 58.5302 41.6327L59.0071 41.4825ZM58.2366 39.6241C58.0809 39.3257 57.9127 39.0351 57.7324 38.7528L57.311 39.0218C57.4834 39.2919 57.6444 39.57 57.7933 39.8553L58.2366 39.6241ZM57.1544 37.9287C56.9497 37.6624 56.7337 37.4052 56.507 37.158L56.1385 37.4959C56.3554 37.7325 56.5621 37.9785 56.758 38.2334L57.1544 37.9287ZM55.7953 36.4463C55.5481 36.2196 55.2909 36.0036 55.0246 35.7989L54.7199 36.1954C54.9748 36.3912 55.2208 36.5979 55.4574 36.8148L55.7953 36.4463ZM54.2006 35.2209C53.9183 35.0406 53.6276 34.8724 53.3292 34.7167L53.098 35.1601C53.3834 35.3089 53.6614 35.4699 53.9315 35.6423L54.2006 35.2209ZM52.417 34.2906C52.1081 34.1626 51.7925 34.0475 51.4708 33.9462L51.3206 34.4231C51.6283 34.52 51.9301 34.63 52.2255 34.7525L52.417 34.2906ZM50.4984 33.6863C50.1729 33.6144 49.8422 33.5563 49.507 33.5125L49.4423 34.0083C49.763 34.0502 50.0793 34.1058 50.3907 34.1745L50.4984 33.6863ZM48.5039 33.4258C48.337 33.4187 48.1691 33.415 48.0003 33.415V33.915C48.1619 33.915 48.3226 33.9185 48.4825 33.9254L48.5039 33.4258ZM48.0003 33.415C47.8316 33.415 47.6637 33.4187 47.4967 33.4258L47.5182 33.9254C47.678 33.9185 47.8388 33.915 48.0003 33.915V33.415ZM46.4937 33.5125C46.1585 33.5563 45.8278 33.6144 45.5022 33.6863L45.61 34.1745C45.9214 34.1058 46.2377 34.0502 46.5584 34.0083L46.4937 33.5125ZM44.5298 33.9462C44.2081 34.0475 43.8925 34.1626 43.5837 34.2906L43.7752 34.7525C44.0706 34.63 44.3724 34.52 44.6801 34.4231L44.5298 33.9462ZM42.6715 34.7167C42.3731 34.8724 42.0824 35.0406 41.8001 35.2209L42.0692 35.6423C42.3392 35.4699 42.6173 35.3089 42.9027 35.1601L42.6715 34.7167ZM40.9761 35.7989C40.7098 36.0036 40.4526 36.2196 40.2054 36.4463L40.5433 36.8148C40.7798 36.5979 41.0259 36.3912 41.2808 36.1954L40.9761 35.7989ZM39.4936 37.158C39.267 37.4052 39.0509 37.6624 38.8463 37.9287L39.2427 38.2334C39.4386 37.9785 39.6453 37.7325 39.8622 37.4959L39.4936 37.158ZM38.2682 38.7528C38.088 39.0351 37.9197 39.3257 37.7641 39.6241L38.2074 39.8553C38.3563 39.57 38.5173 39.2919 38.6897 39.0218L38.2682 38.7528ZM37.338 40.5363C37.2099 40.8452 37.0949 41.1608 36.9935 41.4825L37.4704 41.6327C37.5674 41.3251 37.6774 41.0232 37.7999 40.7279L37.338 40.5363ZM36.7336 42.4549C36.6618 42.7804 36.6036 43.1111 36.5599 43.4463L37.0557 43.511C37.0975 43.1903 37.1531 42.874 37.2219 42.5626L36.7336 42.4549ZM36.4732 44.4494C36.466 44.6164 36.4624 44.7843 36.4624 44.953H36.9624C36.9624 44.7914 36.9659 44.6307 36.9727 44.4708L36.4732 44.4494ZM36.4624 44.953C36.4624 45.1197 36.4659 45.2856 36.4729 45.4507L36.9725 45.4294C36.9658 45.2715 36.9624 45.1126 36.9624 44.953H36.4624ZM36.5576 46.442C36.6003 46.7735 36.6571 47.1006 36.7274 47.4227L37.2159 47.3161C37.1487 47.0081 37.0944 46.6952 37.0535 46.3781L36.5576 46.442ZM36.9815 48.3849C37.0805 48.7032 37.193 49.0157 37.3182 49.3216L37.7809 49.1321C37.6612 48.8396 37.5536 48.5408 37.4589 48.2363L36.9815 48.3849ZM37.7349 50.2254C37.8871 50.5212 38.0517 50.8095 38.228 51.0897L38.6512 50.8234C38.4825 50.5554 38.325 50.2795 38.1794 49.9966L37.7349 50.2254ZM38.7938 51.9084C38.9941 52.1732 39.2057 52.4291 39.4277 52.6754L39.7991 52.3406C39.5866 52.1049 39.3842 51.8601 39.1925 51.6067L38.7938 51.9084ZM40.1249 53.3852C40.3672 53.6116 40.6193 53.8277 40.8805 54.0328L41.1893 53.6395C40.9394 53.4433 40.6982 53.2365 40.4663 53.0199L40.1249 53.3852ZM41.6888 54.6131C41.8275 54.7039 41.9682 54.7918 42.111 54.8767L42.3666 54.4469C42.23 54.3657 42.0953 54.2816 41.9626 54.1948L41.6888 54.6131ZM41.9996 54.589L41.8604 55.0465L42.3387 55.192L42.4779 54.7346L41.9996 54.589ZM41.582 55.9614L41.3035 56.8763L41.7819 57.0219L42.0603 56.107L41.582 55.9614ZM41.0251 57.7912L40.7467 58.7061L41.225 58.8517L41.5034 57.9368L41.0251 57.7912ZM40.4682 59.621L40.1898 60.5359L40.6681 60.6815L40.9466 59.7666L40.4682 59.621ZM39.9114 61.4508L39.6329 62.3657L40.1113 62.5113L40.3897 61.5964L39.9114 61.4508ZM39.3545 63.2806L39.0761 64.1955L39.5544 64.3411L39.8328 63.4262L39.3545 63.2806ZM38.7976 65.1104L38.5192 66.0253L38.9976 66.1709L39.276 65.256L38.7976 65.1104ZM38.2408 66.9402L37.9623 67.8551L38.4407 68.0007L38.7191 67.0858L38.2408 66.9402ZM37.6839 68.77L37.4055 69.6849L37.8838 69.8305L38.1623 68.9156L37.6839 68.77ZM37.1271 70.5998L36.8486 71.5147L37.327 71.6603L37.6054 70.7454L37.1271 70.5998ZM36.5702 72.4296L36.2918 73.3445L36.7701 73.4901L37.0485 72.5752L36.5702 72.4296ZM36.0133 74.2594L35.8741 74.7169L36.3525 74.8624L36.4917 74.405L36.0133 74.2594ZM36.1133 75.0397H36.6086V74.5397H36.1133V75.0397ZM37.5992 75.0397H38.5897V74.5397H37.5992V75.0397ZM39.5803 75.0397H40.5709V74.5397H39.5803V75.0397ZM41.5615 75.0397H42.5521V74.5397H41.5615V75.0397ZM43.5426 75.0397H44.5332V74.5397H43.5426V75.0397ZM45.5238 75.0397H46.5144V74.5397H45.5238V75.0397ZM47.505 75.0397H48.4955V74.5397H47.505V75.0397ZM49.4861 75.0397H50.4767V74.5397H49.4861V75.0397ZM51.4673 75.0397H52.4579V74.5397H51.4673V75.0397ZM53.4484 75.0397H54.439V74.5397H53.4484V75.0397ZM55.4296 75.0397H56.4202V74.5397H55.4296V75.0397ZM57.4108 75.0397H58.4014V74.5397H57.4108V75.0397ZM59.3919 75.0397H59.8872V74.5397H59.3919V75.0397ZM60.1264 74.7169L59.9872 74.2594L59.5088 74.405L59.648 74.8624L60.1264 74.7169ZM59.7087 73.3445L59.4303 72.4296L58.952 72.5752L59.2304 73.4901L59.7087 73.3445ZM59.1519 71.5147L58.8734 70.5998L58.3951 70.7454L58.6735 71.6603L59.1519 71.5147ZM58.595 69.6849L58.3166 68.77L57.8382 68.9156L58.1167 69.8305L58.595 69.6849ZM58.0382 67.8551L57.7597 66.9402L57.2814 67.0858L57.5598 68.0007L58.0382 67.8551ZM57.4813 66.0253L57.2029 65.1104L56.7245 65.256L57.003 66.1709L57.4813 66.0253ZM56.9244 64.1956L56.646 63.2807L56.1677 63.4262L56.4461 64.3411L56.9244 64.1956ZM56.3676 62.3658L56.0891 61.4509L55.6108 61.5964L55.8892 62.5113L56.3676 62.3658ZM55.8107 60.536L55.5323 59.6211L55.0539 59.7666L55.3324 60.6815L55.8107 60.536ZM55.2538 58.7062L54.9754 57.7913L54.4971 57.9368L54.7755 58.8517L55.2538 58.7062ZM54.697 56.8764L54.4186 55.9615L53.9402 56.107L54.2186 57.0219L54.697 56.8764ZM54.1401 55.0466L54.0009 54.5891L53.5226 54.7347L53.6618 55.1921L54.1401 55.0466ZM53.8895 54.8768C54.0323 54.7919 54.1731 54.704 54.3118 54.6132L54.0379 54.1949C53.9052 54.2817 53.7705 54.3658 53.6339 54.447L53.8895 54.8768ZM55.1201 54.0329C55.3812 53.8278 55.6333 53.6117 55.8756 53.3853L55.5343 53.02C55.3024 53.2366 55.0612 53.4434 54.8113 53.6396L55.1201 54.0329ZM56.5729 52.6755C56.7949 52.4292 57.0065 52.1733 57.2068 51.9085L56.8081 51.6068C56.6164 51.8602 56.414 52.105 56.2015 52.3407L56.5729 52.6755ZM57.7726 51.0898C57.9489 50.8096 58.1136 50.5213 58.2658 50.2255L57.8212 49.9967C57.6756 50.2796 57.5181 50.5554 57.3494 50.8235L57.7726 51.0898ZM58.6824 49.3216C58.8077 49.0157 58.9201 48.7033 59.0192 48.3849L58.5418 48.2364C58.447 48.5408 58.3395 48.8397 58.2197 49.1322L58.6824 49.3216ZM59.2733 47.4227C59.3435 47.1006 59.4003 46.7735 59.4431 46.442L58.9472 46.3781C58.9063 46.6952 58.852 47.0081 58.7848 47.3162L59.2733 47.4227ZM59.5277 45.4507C59.5347 45.2856 59.5383 45.1197 59.5383 44.953H59.0383C59.0383 45.1126 59.0349 45.2715 59.0282 45.4295L59.5277 45.4507Z" fill="url(#paint0_linear_4925_2069)"/>
    <path d="M64.6255 60.9756C66.7474 58.8206 68.4505 56.2658 69.6143 53.4602C70.7781 50.6547 71.3876 47.6594 71.3876 44.5963C71.3876 41.5332 70.7806 38.5041 69.6143 35.7324C68.448 32.9607 66.7474 30.372 64.6255 28.2171C60.3841 23.9206 54.5025 21.21 47.9987 21.21C41.495 21.21 35.6158 23.8935 31.3744 28.2103C29.25 30.372 27.5494 32.9269 26.3856 35.7324C25.2218 38.5379 24.6123 41.5332 24.6123 44.5963C24.6123 47.6594 25.2193 50.6886 26.3856 53.4602C27.5519 56.2319 29.25 58.8206 31.3744 60.9756" stroke="url(#paint1_linear_4925_2069)" stroke-width="0.25" stroke-dasharray="0.5 0.5"/>
    <path d="M48.0003 84.86C68.3574 84.86 84.86 68.3574 84.86 48.0003C84.86 27.6433 68.3574 11.1406 48.0003 11.1406C27.6433 11.1406 11.1406 27.6433 11.1406 48.0003C11.1406 68.3574 27.6433 84.86 48.0003 84.86Z" stroke="url(#paint2_linear_4925_2069)" stroke-width="0.5" stroke-miterlimit="10"/>
    <defs>
        <linearGradient id="paint0_linear_4925_2069" x1="48.0002" y1="18.9287" x2="48.0002" y2="74.7897" gradientUnits="userSpaceOnUse">
            <stop offset="0.170133" stop-color="#53FDA9" stop-opacity="0"/>
            <stop offset="1" stop-color="#53FDA9"/>
        </linearGradient>
        <linearGradient id="paint1_linear_4925_2069" x1="47.2931" y1="68.2219" x2="49.0551" y2="24.8718" gradientUnits="userSpaceOnUse">
            <stop stop-color="white"/>
            <stop offset="1" stop-color="white" stop-opacity="0"/>
        </linearGradient>
        <linearGradient id="paint2_linear_4925_2069" x1="48.0034" y1="11.1406" x2="49.5904" y2="82.3196" gradientUnits="userSpaceOnUse">
            <stop stop-color="#632BFF"/>
            <stop offset="1" stop-color="#632BFF" stop-opacity="0"/>
        </linearGradient>
    </defs>
</svg>
