<svg width="96" height="96" viewBox="0 0 96 96" fill="none" xmlns="http://www.w3.org/2000/svg">
<path d="M46.4722 55.6251C47.199 55.7118 47.423 56.285 47.1809 56.6998M46.4722 55.6251L31.6535 55.726L47.1809 56.6998M46.4722 55.6251L46.4426 55.8733C46.4476 55.8739 46.4526 55.8746 46.4575 55.8752M46.4722 55.6251L46.4739 55.8751L46.4575 55.8752M47.1809 56.6998L43.5287 63.0257L47.1809 56.6998ZM46.4575 55.8752C46.7486 55.9135 46.9035 56.041 46.9723 56.1626C47.0436 56.2884 47.0428 56.4405 46.965 56.5738L46.9644 56.5748L43.3122 62.9007L43.3116 62.9017C43.2213 63.0598 42.9814 63.3076 42.6095 63.5179C42.2436 63.7248 41.7687 63.8843 41.2234 63.8873C40.0454 63.8938 38.3798 63.9117 36.5515 63.9313C35.0727 63.9472 33.4876 63.9643 31.9678 63.9773C27.9591 63.7341 24.336 61.7355 22.6952 59.1775C20.7882 55.9597 18.4159 51.8319 16.6175 48.7027C15.7815 47.2481 15.0695 46.0093 14.5859 45.178C14.3861 44.801 14.3182 44.5392 14.3372 44.2821C14.3569 44.0152 14.4722 43.7195 14.7141 43.2767L18.3649 36.9533C18.4353 36.8313 18.4962 36.7772 18.5354 36.755C18.5679 36.7365 18.5929 36.7348 18.6224 36.7425C18.7057 36.7645 18.8378 36.8715 18.9742 37.0994L18.9736 37.0982L19.1894 36.972L18.9748 37.1003L29.0719 54.3753L29.0719 54.3753L29.0744 54.3794C29.7448 55.4782 30.7871 55.9722 31.6524 55.976L31.6524 55.976L31.6552 55.976L46.4575 55.8752Z" stroke="url(#paint0_linear_4925_2016)" stroke-width="0.5"/>
<path d="M48.5278 39.9472C47.801 39.8605 47.577 39.2873 47.8191 38.8725M48.5278 39.9472L63.3465 39.8462L47.8191 38.8725M48.5278 39.9472L48.5574 39.6989C48.5524 39.6983 48.5474 39.6977 48.5425 39.6971M48.5278 39.9472L48.5261 39.6972L48.5425 39.6971M47.8191 38.8725L51.4713 32.5466L47.8191 38.8725ZM48.5425 39.6971C48.2514 39.6587 48.0965 39.5313 48.0277 39.4097C47.9564 39.2839 47.9572 39.1318 48.035 38.9985L48.0356 38.9975L51.6878 32.6716L51.6884 32.6706C51.7787 32.5125 52.0186 32.2646 52.3905 32.0544C52.7564 31.8475 53.2313 31.688 53.7766 31.685C54.9546 31.6785 56.6202 31.6606 58.4485 31.6409C59.9273 31.625 61.5124 31.608 63.0322 31.5949C67.0409 31.8382 70.664 33.8367 72.3048 36.3948C74.2118 39.6126 76.5841 43.7404 78.3825 46.8696C79.2185 48.3242 79.9305 49.563 80.4141 50.3943C80.6139 50.7713 80.6818 51.0331 80.6628 51.2902C80.6431 51.557 80.5278 51.8528 80.2859 52.2956L76.6351 58.619C76.5647 58.7409 76.5038 58.795 76.4646 58.8173C76.4321 58.8358 76.4071 58.8375 76.3776 58.8297C76.2943 58.8078 76.1622 58.7007 76.0258 58.4729L76.0264 58.4741L75.8106 58.6002L76.0252 58.472L65.9281 41.1969L65.9281 41.1969L65.9256 41.1929C65.2552 40.0941 64.2129 39.6001 63.3476 39.5962L63.3476 39.5962L63.3448 39.5963L48.5425 39.6971Z" stroke="url(#paint1_linear_4925_2016)" stroke-width="0.5"/>
<path d="M41.2266 42.9763C40.7881 43.5624 40.1797 43.4697 39.9415 43.0527M41.2266 42.9763L48.5485 30.0924L39.9415 43.0527M41.2266 42.9763L41.0264 42.8265C41.0234 42.8305 41.0203 42.8345 41.0173 42.8384M41.2266 42.9763L41.0092 42.8527L41.0173 42.8384M39.9415 43.0527L36.2892 36.7268L39.9415 43.0527ZM41.0173 42.8384C40.8386 43.0714 40.6507 43.1418 40.5111 43.1407C40.3665 43.1394 40.2351 43.0627 40.1586 42.9287L40.158 42.9277L36.5058 36.6018L36.5052 36.6008C36.4134 36.4435 36.3187 36.1118 36.3226 35.6846C36.3264 35.2643 36.4257 34.7733 36.6957 34.2995C37.2791 33.2761 38.0964 31.8247 38.9935 30.2315C39.7191 28.943 40.497 27.5616 41.2455 26.239C43.4605 22.889 47.0029 20.7505 50.0387 20.6085C53.7788 20.566 58.5397 20.5754 62.1489 20.5825C63.8266 20.5858 65.2554 20.5886 66.2172 20.5855C66.6436 20.6009 66.9043 20.673 67.1174 20.818C67.3387 20.9685 67.5372 21.2162 67.7997 21.6472L71.4505 27.9705C71.5209 28.0925 71.5373 28.1723 71.537 28.2174C71.5368 28.2547 71.5257 28.2773 71.5043 28.2989C71.4436 28.36 71.2848 28.421 71.0193 28.4252L71.0207 28.4252L71.022 28.6752L71.0182 28.4252L51.0091 28.5321L51.0091 28.532L51.0043 28.5321C49.7175 28.5633 48.7686 29.219 48.3326 29.9665L48.3325 29.9665L48.3312 29.9689L41.0173 42.8384Z" stroke="url(#paint2_linear_4925_2016)" stroke-width="0.5"/>
<path d="M53.7734 52.5941C54.2119 52.008 54.8203 52.1006 55.0585 52.5176M53.7734 52.5941L46.4515 65.4779L55.0585 52.5176M53.7734 52.5941L53.9736 52.7438C53.9766 52.7398 53.9797 52.7358 53.9827 52.7319M53.7734 52.5941L53.9908 52.7176L53.9827 52.7319M55.0585 52.5176L58.7108 58.8435L55.0585 52.5176ZM53.9827 52.7319C54.1614 52.4989 54.3493 52.4285 54.4889 52.4297C54.6335 52.4309 54.7649 52.5076 54.8414 52.6416L54.842 52.6426L58.4942 58.9685L58.4948 58.9695C58.5866 59.1268 58.6813 59.4585 58.6774 59.8857C58.6736 60.306 58.5743 60.797 58.3043 61.2708C57.7209 62.2942 56.9036 63.7456 56.0065 65.3388C55.2809 66.6273 54.503 68.0087 53.7545 69.3313C51.5395 72.6813 47.9971 74.8198 44.9613 74.9618C41.2212 75.0043 36.4603 74.995 32.8511 74.9878C31.1734 74.9845 29.7446 74.9817 28.7828 74.9848C28.3564 74.9694 28.0957 74.8973 27.8826 74.7523C27.6613 74.6018 27.4628 74.3541 27.2003 73.9232L23.5495 67.5998C23.4791 67.4778 23.4627 67.398 23.463 67.353C23.4632 67.3156 23.4743 67.293 23.4957 67.2714C23.5564 67.2103 23.7152 67.1493 23.9807 67.1451L23.9793 67.1451L23.978 66.8951L23.9818 67.1451L43.9909 67.0382L43.9909 67.0383L43.9957 67.0382C45.2825 67.007 46.2314 66.3513 46.6674 65.6038L46.6675 65.6038L46.6688 65.6014L53.9827 52.7319Z" stroke="url(#paint3_linear_4925_2016)" stroke-width="0.5"/>
<path d="M40.3887 50.5722C40.6736 51.2407 40.2937 51.7181 39.8191 51.7159M40.3887 50.5722L32.9806 37.8717L39.8191 51.7159M40.3887 50.5722L40.1587 50.6702C40.1606 50.6749 40.1626 50.6795 40.1645 50.684M40.3887 50.5722L40.1727 50.6982L40.1645 50.684M39.8191 51.7159H32.6011H39.8191ZM40.1645 50.684C40.2754 50.9534 40.2428 51.1499 40.173 51.2692C40.1007 51.3926 39.9712 51.4666 39.8203 51.4659H39.8191L32.6011 51.4659L32.5999 51.4659C32.421 51.4667 32.0911 51.3838 31.7277 51.1684C31.3703 50.9566 30.9994 50.6275 30.7276 50.1601C30.14 49.1497 29.3017 47.7254 28.3815 46.162C27.6373 44.8975 26.8396 43.5421 26.0775 42.2409C24.3052 38.671 24.2253 34.5607 25.6037 31.8784C27.4152 28.639 29.7755 24.5472 31.5648 21.4452C32.3966 20.0033 33.1049 18.7753 33.5775 17.9462C33.8013 17.587 33.9915 17.399 34.2201 17.288C34.4575 17.1728 34.7668 17.125 35.2651 17.1133H42.4802C42.6189 17.1133 42.6945 17.1387 42.7322 17.1609C42.7632 17.1792 42.777 17.1995 42.7849 17.2286C42.8072 17.311 42.7809 17.4778 42.6535 17.7081L42.6541 17.707L42.8715 17.8304L42.6529 17.7092L32.8582 34.9791L32.8581 34.979L32.8559 34.9832C32.2467 36.1062 32.3389 37.2484 32.7633 37.9952L32.7633 37.9952L32.7647 37.9976L40.1645 50.684Z" stroke="url(#paint4_linear_4925_2016)" stroke-width="0.5"/>
<path d="M54.6113 44.754C54.3264 44.0855 54.7063 43.608 55.1809 43.6103M54.6113 44.754L62.0194 57.4545L55.1809 43.6103M54.6113 44.754L54.8413 44.6559C54.8394 44.6513 54.8374 44.6467 54.8355 44.6421M54.6113 44.754L54.8273 44.628L54.8355 44.6421M55.1809 43.6103H62.3989H55.1809ZM54.8355 44.6421C54.7246 44.3728 54.7572 44.1763 54.827 44.0569C54.8993 43.9336 55.0288 43.8596 55.1797 43.8603H55.1809L62.3989 43.8603L62.4001 43.8603C62.579 43.8594 62.9089 43.9424 63.2723 44.1578C63.6297 44.3695 64.0006 44.6986 64.2724 45.1661C64.86 46.1765 65.6983 47.6007 66.6184 49.1642C67.3626 50.4286 68.1604 51.7841 68.9225 53.0853C70.6948 56.6552 70.7747 60.7654 69.3963 63.4478C67.5848 66.6872 65.2245 70.779 63.4352 73.8809C62.6034 75.3229 61.8951 76.5509 61.4225 77.38C61.1987 77.7392 61.0085 77.9272 60.7799 78.0382C60.5425 78.1534 60.2332 78.2011 59.7349 78.2129H52.5198C52.3811 78.2129 52.3055 78.1875 52.2678 78.1652C52.2368 78.1469 52.223 78.1267 52.2151 78.0976C52.1928 78.0151 52.2191 77.8484 52.3465 77.618L52.3459 77.6191L52.1285 77.4958L52.3471 77.617L62.1418 60.3471L62.1419 60.3471L62.1441 60.343C62.7533 59.22 62.6611 58.0777 62.2367 57.331L62.2367 57.331L62.2353 57.3285L54.8355 44.6421Z" stroke="url(#paint5_linear_4925_2016)" stroke-width="0.5"/>
<path d="M2 48C2 73.4051 22.5949 94 48 94C73.4051 94 94 73.4051 94 48C94 22.5949 73.4051 2 48 2C22.5949 2 2 22.5949 2 48Z" stroke="url(#paint6_linear_4925_2016)" stroke-width="0.5" stroke-miterlimit="10"/>
<g filter="url(#filter0_d_4925_2016)">
<path d="M43 48C43 50.7614 45.2386 53 48 53C50.7614 53 53 50.7614 53 48C53 45.2386 50.7614 43 48 43C45.2386 43 43 45.2386 43 48Z" fill="white"/>
</g>
<path d="M18.3272 77.8552C18.1778 77.7788 18.0395 77.6896 17.9127 77.5877L17.991 77.4902C17.9301 77.4413 17.872 77.3892 17.8168 77.3339C17.7615 77.2787 17.7094 77.2206 17.6604 77.1596L17.563 77.238C17.461 77.1111 17.3719 76.9729 17.2954 76.8235L17.4067 76.7665C17.3372 76.6307 17.2783 76.4846 17.23 76.3283L17.1106 76.3651C17.0635 76.2126 17.0265 76.0515 16.9992 75.882L17.1226 75.8621C17.0979 75.7088 17.0814 75.5478 17.0731 75.3794L16.9482 75.3855C16.9404 75.2268 16.9397 75.0621 16.946 74.8915L17.0709 74.8961C17.0766 74.7406 17.0883 74.5799 17.1059 74.414L16.9816 74.4008C16.9987 74.2404 17.0211 74.0755 17.0489 73.9063L17.1722 73.9266C17.198 73.7699 17.2283 73.6094 17.2634 73.4449L17.1411 73.4189C17.1745 73.2623 17.212 73.1023 17.2535 72.9391L17.3747 72.97C17.4148 72.8126 17.4587 72.6521 17.5065 72.4885L17.3865 72.4535C17.4311 72.3006 17.479 72.1451 17.5302 71.9871L17.6491 72.0256C17.6995 71.8699 17.7532 71.7117 17.8099 71.551L17.6921 71.5094C17.7453 71.3588 17.8012 71.2062 17.8599 71.0516L17.9767 71.0959C18.0351 70.942 18.0961 70.7861 18.1598 70.6282L18.0439 70.5814C18.1038 70.4331 18.1659 70.2831 18.2304 70.1313L18.3455 70.1802C18.4096 70.0292 18.4761 69.8764 18.5449 69.722L18.4307 69.6712C18.4964 69.5237 18.5642 69.3746 18.634 69.2241L18.7474 69.2768C18.8161 69.1288 18.8867 68.9794 18.9594 68.8285L18.8467 68.7743C18.9177 68.6268 18.9906 68.478 19.0654 68.3279L19.1773 68.3836C19.2494 68.2387 19.3233 68.0926 19.399 67.9452L19.2878 67.8882C19.3636 67.7403 19.4412 67.5913 19.5205 67.4411L19.6311 67.4995C19.7061 67.3574 19.7827 67.2142 19.8608 67.07L19.7509 67.0105C19.8291 66.866 19.9088 66.7206 19.9901 66.5741L20.0994 66.6347C20.179 66.4912 20.2601 66.3466 20.3427 66.201L20.234 66.1394C20.3141 65.9981 20.3956 65.856 20.4784 65.713L20.5866 65.7756C20.6692 65.6329 20.7532 65.4893 20.8385 65.3448L20.7309 65.2813C20.814 65.1404 20.8985 64.9988 20.9841 64.8563L21.0913 64.9208C21.1752 64.7812 21.2604 64.6409 21.3467 64.4998L21.2401 64.4345C21.3266 64.2931 21.4143 64.151 21.5032 64.0081L21.6093 64.0741C21.6954 63.9358 21.7826 63.7968 21.8708 63.6572L21.7652 63.5904C21.8525 63.4521 21.941 63.3132 22.0305 63.1736L22.1357 63.2411C22.2251 63.1018 22.3155 62.9617 22.4071 62.8211L22.3023 62.7529C22.3914 62.616 22.4815 62.4784 22.5726 62.3402L22.677 62.4091C22.7669 62.2727 22.8578 62.1357 22.9497 61.9982L22.8457 61.9288C22.9377 61.7911 23.0307 61.6528 23.1246 61.5139L23.2282 61.584C23.32 61.4483 23.4127 61.312 23.5064 61.1752L23.4032 61.1046C23.4956 60.9698 23.5888 60.8344 23.6829 60.6986L23.7856 60.7697C23.8796 60.6341 23.9744 60.4979 24.0702 60.3613L23.9678 60.2896C24.0625 60.1543 24.1582 60.0185 24.2546 59.8823L24.3566 59.9545C24.4508 59.8216 24.5457 59.6882 24.6415 59.5544L24.5398 59.4816C24.6357 59.3476 24.7324 59.2132 24.8299 59.0784L24.9312 59.1516C25.0285 59.0169 25.1267 58.8818 25.2256 58.7463L25.1246 58.6726C25.2207 58.541 25.3174 58.4091 25.4149 58.2768L25.5156 58.351C25.6129 58.2189 25.7109 58.0865 25.8097 57.9537L25.7094 57.8791C25.8083 57.7462 25.9079 57.6129 26.0082 57.4793L26.1082 57.5543C26.2069 57.4227 26.3064 57.2908 26.4065 57.1586L26.3069 57.0831C26.4057 56.9527 26.5051 56.8219 26.6053 56.6908L26.7046 56.7667C26.8046 56.6358 26.9053 56.5045 27.0067 56.3729L26.9076 56.2966C27.0091 56.1649 27.1112 56.0329 27.214 55.9006L27.3127 55.9773C27.4128 55.8484 27.5136 55.7192 27.6149 55.5898L27.5165 55.5127C27.6178 55.3834 27.7196 55.2538 27.8221 55.1239L27.9202 55.2014C28.0226 55.0716 28.1256 54.9416 28.2292 54.8113L28.1314 54.7335C28.2344 54.6039 28.3381 54.4741 28.4423 54.344L28.5399 54.4222C28.6421 54.2947 28.7448 54.1669 28.8482 54.0389L28.7509 53.9604C28.8543 53.8323 28.9583 53.704 29.0629 53.5754L29.1598 53.6543C29.2643 53.5258 29.3693 53.3971 29.4749 53.2682L29.3782 53.189C29.4827 53.0614 29.5878 52.9337 29.6933 52.8057L29.7898 52.8852C29.894 52.7589 29.9987 52.6323 30.104 52.5056L30.0078 52.4257C30.1132 52.2989 30.2191 52.1719 30.3255 52.0446L30.4214 52.1248C30.5277 51.9977 30.6345 51.8704 30.7419 51.7429L30.6463 51.6624C30.7523 51.5365 30.8588 51.4104 30.9658 51.2842L31.0611 51.365C31.1672 51.2399 31.2737 51.1147 31.3807 50.9892L31.2856 50.9081C31.3928 50.7826 31.5003 50.6569 31.6084 50.531L31.7033 50.6124C31.8113 50.4867 31.9197 50.3608 32.0287 50.2347L31.9341 50.153C32.0417 50.0285 32.1497 49.9039 32.2582 49.7792L32.3525 49.8612C32.4602 49.7374 32.5684 49.6134 32.677 49.4893L32.583 49.407C32.6917 49.2828 32.8008 49.1584 32.9104 49.0339L33.0043 49.1166C33.1138 48.9922 33.2238 48.8677 33.3342 48.743L33.2406 48.6602C33.3498 48.5369 33.4594 48.4136 33.5694 48.2902L33.6627 48.3734C33.772 48.2508 33.8817 48.1281 33.9918 48.0053L33.8987 47.9219C34.0089 47.799 34.1195 47.676 34.2305 47.553L34.3234 47.6367C34.4343 47.5137 34.5457 47.3906 34.6575 47.2674L34.5649 47.1834C34.6757 47.0613 34.7869 46.9391 34.8985 46.8168L34.9909 46.9011C35.1016 46.7798 35.2126 46.6585 35.3241 46.537L35.2321 46.4525C35.3436 46.3309 35.4556 46.2093 35.568 46.0876L35.6598 46.1724C35.7721 46.0508 35.8847 45.9292 35.9978 45.8074L35.9062 45.7223C36.0187 45.6012 36.1315 45.4801 36.2447 45.3588L36.3361 45.4442C36.4482 45.3242 36.5606 45.2041 36.6734 45.084L36.5823 44.9984C36.6952 44.8782 36.8084 44.758 36.922 44.6377L37.0129 44.7235C37.1265 44.6033 37.2404 44.483 37.3546 44.3627L37.264 44.2766C37.3781 44.1564 37.4926 44.0362 37.6074 43.916L37.6978 44.0023C37.8112 43.8836 37.9249 43.7649 38.0389 43.6461L37.9488 43.5595C38.0629 43.4407 38.1774 43.3218 38.2922 43.2028L38.3822 43.2896C38.4969 43.1708 38.612 43.0519 38.7275 42.933L38.6378 42.8459C38.7533 42.7269 38.8692 42.6079 38.9854 42.4889L39.0748 42.5762C39.1896 42.4585 39.3048 42.3408 39.4203 42.2232L39.3311 42.1356C39.4464 42.0181 39.5621 41.9005 39.6781 41.7829L39.7671 41.8707C39.883 41.7532 39.9993 41.6357 40.1159 41.5182L40.0271 41.4302C40.1438 41.3126 40.2608 41.195 40.3781 41.0774L40.4666 41.1656L40.6426 40.9893L40.8189 40.8133L40.7306 40.7248C40.8482 40.6075 40.9658 40.4905 41.0834 40.3739L41.1715 40.4626C41.289 40.346 41.4065 40.2298 41.524 40.1138L41.4362 40.0249C41.5538 39.9089 41.6713 39.7932 41.7889 39.6778L41.8764 39.767C41.9941 39.6515 42.1118 39.5364 42.2294 39.4215L42.1421 39.3321C42.2612 39.2159 42.3802 39.1 42.4992 38.9845L42.5863 39.0742C42.7052 38.9588 42.8241 38.8437 42.9429 38.7289L42.8561 38.639C42.975 38.5241 43.0939 38.4096 43.2128 38.2955L43.2994 38.3857C43.4182 38.2716 43.5369 38.1579 43.6556 38.0445L43.5693 37.9541C43.6895 37.8393 43.8097 37.7248 43.9299 37.6107L44.0159 37.7014C44.1363 37.5871 44.2566 37.4732 44.3768 37.3596L44.2909 37.2688C44.4113 37.1551 44.5315 37.0419 44.6517 36.929L44.7373 37.0201C44.8574 36.9073 44.9774 36.7949 45.0974 36.6828L45.0121 36.5915C45.1333 36.4782 45.2545 36.3654 45.3756 36.2529L45.4607 36.3445C45.5824 36.2315 45.7041 36.1188 45.8257 36.0065L45.7409 35.9147C45.8626 35.8023 45.9842 35.6904 46.1058 35.5788L46.1903 35.6709C46.3117 35.5594 46.4331 35.4483 46.5544 35.3376L46.4701 35.2453C46.5924 35.1336 46.7146 35.0224 46.8367 34.9116L46.9207 35.0042C47.0439 34.8924 47.167 34.781 47.29 34.6701L47.2062 34.5773C47.3293 34.4662 47.4523 34.3556 47.5752 34.2454L47.6586 34.3385C47.7814 34.2284 47.9041 34.1187 48.0266 34.0095L47.9435 33.9162C48.0669 33.8061 48.1902 33.6965 48.3134 33.5874L48.3963 33.6809C48.5209 33.5705 48.6455 33.4605 48.7698 33.351L48.6872 33.2572C48.8117 33.1476 48.936 33.0384 49.0602 32.9297L49.1426 33.0237C49.2667 32.9151 49.3907 32.807 49.5145 32.6992L49.4325 32.6049C49.5572 32.4964 49.6818 32.3884 49.8062 32.2809L49.888 32.3754C50.014 32.2665 50.14 32.158 50.2657 32.05L50.1843 31.9552C50.3101 31.8471 50.4358 31.7395 50.5614 31.6324L50.6425 31.7275C50.7679 31.6204 50.8932 31.5139 51.0183 31.4079L50.9375 31.3125C51.0637 31.2055 51.1898 31.099 51.3157 30.993L51.3962 31.0886C51.5237 30.9813 51.651 30.8744 51.7781 30.7681L51.6979 30.6722C51.8251 30.5658 51.9522 30.4599 52.079 30.3546L52.1589 30.4507C52.2856 30.3454 52.4122 30.2407 52.5385 30.1365L52.4589 30.0401C52.5869 29.9345 52.7147 29.8294 52.8423 29.725L52.9215 29.8217C53.0504 29.7161 53.1791 29.611 53.3075 29.5066L53.2287 29.4096C53.3573 29.305 53.4856 29.201 53.6137 29.0976L53.6922 29.1949C53.8202 29.0915 53.948 28.9888 54.0755 28.8866L53.9973 28.7891C54.1274 28.6848 54.2572 28.5812 54.3868 28.4781L54.4646 28.576C54.5949 28.4723 54.7249 28.3693 54.8546 28.267L54.7772 28.1688C54.9071 28.0664 55.0367 27.9645 55.166 27.8632L55.243 27.9617C55.3725 27.8603 55.5017 27.7596 55.6305 27.6595L55.5539 27.5607C55.6862 27.458 55.8182 27.3558 55.9499 27.2544L56.0262 27.3534C56.1578 27.252 56.2891 27.1513 56.42 27.0513L56.3441 26.952C56.4752 26.8519 56.606 26.7524 56.7364 26.6536L56.8119 26.7533C56.9441 26.6531 57.076 26.5537 57.2076 26.4549L57.1325 26.3549C57.2662 26.2546 57.3995 26.155 57.5324 26.0561L57.607 26.1564C57.7398 26.0576 57.8722 25.9596 58.0042 25.8623L57.9301 25.7617C58.0624 25.6642 58.1943 25.5674 58.3259 25.4714L58.3996 25.5723C58.5351 25.4734 58.6702 25.3752 58.8049 25.2779L58.7316 25.1766C58.8665 25.0791 59.0009 24.9824 59.1349 24.8866L59.2076 24.9882C59.3415 24.8925 59.4749 24.7975 59.6078 24.7034L59.5356 24.6013C59.6718 24.5049 59.8076 24.4093 59.9428 24.3145L60.0146 24.4169C60.1512 24.3212 60.2874 24.2263 60.423 24.1324L60.3519 24.0296C60.4877 23.9355 60.6231 23.8423 60.7579 23.75L60.8285 23.8531C60.9653 23.7594 61.1015 23.6667 61.2373 23.5749L61.1672 23.4714C61.3061 23.3774 61.4444 23.2845 61.5821 23.1924L61.6515 23.2964C61.789 23.2045 61.926 23.1136 62.0623 23.0237L61.9935 22.9193C62.1317 22.8282 62.2692 22.7381 62.4062 22.649L62.4744 22.7538C62.615 22.6623 62.755 22.5718 62.8944 22.4824L62.8269 22.3772C62.9665 22.2877 63.1054 22.1993 63.2437 22.1119L63.3104 22.2176C63.4501 22.1293 63.5891 22.0421 63.7274 21.9561L63.6614 21.8499C63.8043 21.761 63.9464 21.6733 64.0878 21.5868L64.153 21.6934C64.2941 21.6071 64.4345 21.5219 64.574 21.438L64.5096 21.3309C64.6521 21.2452 64.7937 21.1608 64.9345 21.0776L64.9981 21.1852C65.1426 21.0999 65.2862 21.0159 65.4289 20.9333L65.3663 20.8251C65.5093 20.7423 65.6514 20.6608 65.7927 20.5807L65.8543 20.6894C65.9999 20.6069 66.1444 20.5258 66.288 20.4461L66.2274 20.3368C66.3739 20.2555 66.5193 20.1758 66.6637 20.0976L66.7233 20.2075C66.8675 20.1294 67.0107 20.0528 67.1528 19.9778L67.0944 19.8672C67.2446 19.7879 67.3936 19.7103 67.5414 19.6345L67.5985 19.7457C67.7459 19.6701 67.892 19.5962 68.0369 19.524L67.9812 19.4121C68.1313 19.3374 68.2801 19.2645 68.4276 19.1935L68.4818 19.3061C68.6327 19.2334 68.7821 19.1628 68.93 19.0941L68.8774 18.9808C69.0279 18.9109 69.1769 18.8432 69.3244 18.7775L69.3753 18.8916C69.5297 18.8229 69.6825 18.7564 69.8334 18.6922L69.7846 18.5772C69.9363 18.5127 70.0864 18.4505 70.2347 18.3906L70.2815 18.5066C70.4394 18.4428 70.5953 18.3818 70.7491 18.3235L70.7048 18.2066C70.8595 18.1479 71.0121 18.092 71.1626 18.0388L71.2043 18.1567C71.365 18.0999 71.5232 18.0463 71.6789 17.9958L71.6404 17.8769C71.7984 17.8257 71.9538 17.7778 72.1067 17.7332L72.1418 17.8532C72.3054 17.8054 72.4659 17.7615 72.6233 17.7214L72.5924 17.6003C72.7556 17.5587 72.9155 17.5212 73.0722 17.4878L73.0982 17.6101C73.2626 17.5751 73.4232 17.5447 73.5799 17.519L73.5596 17.3956C73.7288 17.3678 73.8937 17.3454 74.0541 17.3283L74.0673 17.4526C74.2332 17.435 74.3939 17.4233 74.5494 17.4176L74.5448 17.2927C74.7154 17.2864 74.8801 17.2871 75.0388 17.295L75.0327 17.4198C75.2011 17.4281 75.3621 17.4446 75.5154 17.4693L75.5353 17.3459C75.7048 17.3732 75.8659 17.4103 76.0184 17.4573L75.9815 17.5768C76.1378 17.625 76.2839 17.6839 76.4198 17.7534L76.4767 17.6421C76.6261 17.7186 76.7644 17.8078 76.8913 17.9097L76.8129 18.0071C76.8738 18.0561 76.9319 18.1082 76.9872 18.1635C77.0424 18.2187 77.0945 18.2768 77.1435 18.3377L77.2409 18.2594C77.3429 18.3862 77.432 18.5245 77.5085 18.6739L77.3973 18.7309C77.4668 18.8667 77.5257 19.0128 77.5739 19.1691L77.6934 19.1323C77.7404 19.2848 77.7775 19.4459 77.8048 19.6154L77.6814 19.6353C77.7061 19.7886 77.7226 19.9496 77.7309 20.118L77.8557 20.1118C77.8636 20.2706 77.8643 20.4353 77.858 20.6059L77.7331 20.6013C77.7273 20.7568 77.7156 20.9175 77.698 21.0834L77.8223 21.0966C77.8053 21.257 77.7829 21.4219 77.7551 21.5911L77.6317 21.5708C77.606 21.7274 77.5756 21.888 77.5406 22.0525L77.6628 22.0785C77.6295 22.2351 77.592 22.3951 77.5504 22.5583L77.4293 22.5274C77.3892 22.6848 77.3453 22.8453 77.2975 23.0089L77.4175 23.0439C77.3729 23.1968 77.3249 23.3523 77.2738 23.5103L77.1549 23.4718C77.1044 23.6275 77.0508 23.7857 76.994 23.9464L77.1119 23.988C77.0587 24.1385 77.0028 24.2912 76.9441 24.4458L76.8272 24.4015C76.7689 24.5553 76.7079 24.7113 76.6441 24.8692L76.76 24.916C76.7002 25.0643 76.638 25.2143 76.5735 25.3661L76.4585 25.3172C76.3943 25.4682 76.3278 25.6209 76.259 25.7754L76.3732 25.8262C76.3075 25.9737 76.2398 26.1227 76.1699 26.2732L76.0565 26.2206C75.9879 26.3686 75.9172 26.518 75.8446 26.6689L75.9572 26.7231C75.8862 26.8706 75.8133 27.0194 75.7386 27.1695L75.6267 27.1138C75.5545 27.2587 75.4806 27.4048 75.405 27.5522L75.5162 27.6092C75.4404 27.757 75.3628 27.9061 75.2834 28.0563L75.1729 27.9979C75.0979 28.14 75.0213 28.2832 74.9432 28.4274L75.0531 28.4869C74.9749 28.6314 74.8951 28.7768 74.8139 28.9233L74.7046 28.8627C74.6249 29.0062 74.5438 29.1508 74.4613 29.2963L74.57 29.358C74.4899 29.4993 74.4084 29.6414 74.3256 29.7844L74.2174 29.7218C74.1348 29.8645 74.0508 30.0081 73.9655 30.1526L74.0731 30.2161C73.9899 30.357 73.9055 30.4986 73.8198 30.6411L73.7127 30.5766C73.6288 30.7162 73.5436 30.8565 73.4573 30.9976L73.5639 31.0629C73.4774 31.2043 73.3897 31.3464 73.3008 31.4893L73.1946 31.4232C73.1086 31.5615 73.0214 31.7005 72.9331 31.8402L73.0388 31.907C72.9514 32.0453 72.863 32.1842 72.7735 32.3238L72.6682 32.2563C72.5789 32.3956 72.4884 32.5356 72.3969 32.6763L72.5017 32.7445C72.4126 32.8814 72.3225 33.019 72.2314 33.1572L72.127 33.0883C72.0371 33.2247 71.9462 33.3616 71.8543 33.4992L71.9582 33.5686C71.8662 33.7063 71.7733 33.8446 71.6793 33.9834L71.5758 33.9134C71.484 34.0491 71.3912 34.1854 71.2976 34.3221L71.4007 34.3928C71.3084 34.5276 71.2152 34.663 71.1211 34.7988L71.0183 34.7276C70.9244 34.8633 70.8295 34.9995 70.7338 35.1361L70.8362 35.2078C70.7414 35.3431 70.6458 35.4789 70.5493 35.6151L70.4473 35.5428C70.3532 35.6758 70.2582 35.8092 70.1625 35.943L70.2641 36.0158C70.1683 36.1498 70.0716 36.2842 69.9741 36.419L69.8728 36.3458C69.7755 36.4805 69.6773 36.6156 69.5784 36.7511L69.6793 36.8248C69.5833 36.9564 69.4865 37.0883 69.389 37.2206L69.2884 37.1464C69.1911 37.2785 69.093 37.4109 68.9943 37.5437L69.0946 37.6183C68.9957 37.7512 68.8961 37.8845 68.7958 38.0181L68.6958 37.9431C68.597 38.0746 68.4976 38.2066 68.3974 38.3388L68.4971 38.4143C68.3983 38.5447 68.2988 38.6755 68.1987 38.8065L68.0994 38.7307C67.9993 38.8616 67.8986 38.9929 67.7973 39.1245L67.8963 39.2007C67.7949 39.3325 67.6927 39.4645 67.5899 39.5968L67.4912 39.5201C67.3911 39.649 67.2904 39.7782 67.189 39.9076L67.2875 39.9847C67.1862 40.114 67.0843 40.2436 66.9819 40.3735L66.8837 40.296C66.7813 40.4258 66.6783 40.5558 66.5747 40.6861L66.6726 40.7639C66.5695 40.8934 66.4659 41.0233 66.3616 41.1534L66.2641 41.0752C66.1619 41.2027 66.0591 41.3305 65.9558 41.4584L66.0531 41.537C65.9497 41.6651 65.8457 41.7934 65.7411 41.922L65.6441 41.8431C65.5397 41.9716 65.4346 42.1003 65.329 42.2292L65.4257 42.3084C65.3212 42.436 65.2162 42.5637 65.1106 42.6917L65.0142 42.6122C64.91 42.7385 64.8052 42.865 64.7 42.9918L64.7961 43.0716C64.6908 43.1985 64.5849 43.3255 64.4785 43.4528L64.3826 43.3726C64.2763 43.4997 64.1694 43.627 64.0621 43.7545L64.1577 43.835C64.0517 43.9609 63.9452 44.087 63.8382 44.2132L63.7428 44.1324C63.6368 44.2575 63.5303 44.3827 63.4232 44.5082L63.5183 44.5893C63.4112 44.7148 63.3036 44.8405 63.1955 44.9664L63.1007 44.8849C62.9927 45.0107 62.8842 45.1366 62.7753 45.2627L62.8698 45.3444C62.7623 45.4689 62.6543 45.5935 62.5458 45.7182L62.4514 45.6362C62.3437 45.76 62.2356 45.884 62.1269 46.0081L62.221 46.0904C62.1123 46.2146 62.0031 46.339 61.8935 46.4634L61.7997 46.3808C61.6902 46.5052 61.5802 46.6297 61.4698 46.7543L61.5633 46.8372C61.4542 46.9604 61.3446 47.0838 61.2345 47.2072L61.1412 47.124C61.032 47.2466 60.9223 47.3693 60.8122 47.4921L60.9052 47.5755C60.7951 47.6984 60.6844 47.8214 60.5734 47.9444L60.4806 47.8607C60.3697 47.9837 60.2583 48.1068 60.1465 48.23L60.2391 48.314C60.1283 48.4361 60.0171 48.5583 59.9054 48.6806L59.8131 48.5963C59.7024 48.7176 59.5913 48.8389 59.4798 48.9604L59.5719 49.0449C59.4603 49.1664 59.3484 49.2881 59.236 49.4097L59.1442 49.325C59.0319 49.4466 58.9192 49.5682 58.8062 49.69L58.8978 49.775C58.7853 49.8961 58.6725 50.0173 58.5592 50.1386L58.4679 50.0532C58.3558 50.1732 58.2434 50.2933 58.1306 50.4134L58.2217 50.499C58.1088 50.6191 57.9956 50.7394 57.8819 50.8597L57.7911 50.7739C57.6775 50.8941 57.5636 51.0144 57.4493 51.1347L57.54 51.2208C57.4259 51.3409 57.3114 51.4611 57.1966 51.5814L57.1062 51.4951C56.9928 51.6138 56.8791 51.7325 56.765 51.8513L56.8552 51.9379C56.741 52.0567 56.6266 52.1756 56.5117 52.2946L56.4218 52.2077C56.307 52.3266 56.1919 52.4455 56.0765 52.5644L56.1662 52.6515C56.0507 52.7705 55.9348 52.8895 55.8186 53.0085L55.7292 52.9212C55.6143 53.0389 55.4992 53.1565 55.3837 53.2742L55.4729 53.3618C55.3575 53.4793 55.2418 53.5969 55.1258 53.7145L55.0369 53.6267C54.9209 53.7442 54.8047 53.8617 54.6881 53.9792L54.7768 54.0672C54.6602 54.1848 54.5432 54.3024 54.4259 54.42L54.3374 54.3318L54.1613 54.5081L53.9851 54.6841L54.0733 54.7726C53.9557 54.8899 53.8381 55.0069 53.7205 55.1235L53.6325 55.0348C53.515 55.1514 53.3975 55.2676 53.28 55.3835L53.3678 55.4725C53.2502 55.5885 53.1326 55.7042 53.0151 55.8196L52.9275 55.7303C52.8099 55.8458 52.6922 55.961 52.5745 56.0758L52.6618 56.1653C52.5428 56.2815 52.4238 56.3974 52.3048 56.5129L52.2177 56.4232C52.0988 56.5386 51.9799 56.6537 51.861 56.7685L51.9479 56.8584C51.8289 56.9733 51.71 57.0877 51.5912 57.2019L51.5046 57.1117C51.3858 57.2258 51.2671 57.3395 51.1484 57.4529L51.2347 57.5432C51.1145 57.6581 50.9943 57.7726 50.8741 57.8867L50.788 57.796C50.6677 57.9103 50.5474 58.0242 50.4272 58.1377L50.513 58.2286C50.3927 58.3423 50.2725 58.4555 50.1523 58.5684L50.0667 58.4773C49.9466 58.5901 49.8265 58.7025 49.7065 58.8146L49.7919 58.9059C49.6706 59.0191 49.5494 59.132 49.4283 59.2444L49.3433 59.1529C49.2215 59.2659 49.0999 59.3786 48.9783 59.4909L49.0631 59.5827C48.9414 59.6951 48.8197 59.807 48.6982 59.9186L48.6137 59.8265C48.4922 59.938 48.3709 60.0491 48.2496 60.1598L48.3339 60.2521C48.2116 60.3637 48.0894 60.475 47.9673 60.5858L47.8833 60.4932C47.7601 60.605 47.637 60.7164 47.514 60.8273L47.5977 60.9201C47.4747 61.0311 47.3517 61.1418 47.2288 61.2519L47.1453 61.1589C47.0226 61.269 46.8999 61.3787 46.7773 61.4879L46.8605 61.5812C46.7371 61.6913 46.6138 61.8009 46.4905 61.91L46.4076 61.8165C46.283 61.9269 46.1585 62.0369 46.0341 62.1464L46.1167 62.2402C45.9923 62.3498 45.8679 62.459 45.7437 62.5677L45.6614 62.4736C45.5373 62.5823 45.4133 62.6904 45.2895 62.7981L45.3715 62.8925C45.2468 63.001 45.1222 63.109 44.9977 63.2165L44.916 63.122C44.7899 63.2309 44.664 63.3394 44.5382 63.4474L44.6197 63.5422C44.4938 63.6503 44.3681 63.7579 44.2426 63.865L44.1615 63.7699C44.036 63.877 43.9108 63.9835 43.7857 64.0895L43.8665 64.1849C43.7403 64.2919 43.6142 64.3984 43.4883 64.5044L43.4078 64.4088C43.2803 64.5161 43.153 64.623 43.0259 64.7293L43.1061 64.8252C42.9788 64.9316 42.8518 65.0375 42.7249 65.1428L42.6451 65.0467C42.5183 65.1519 42.3918 65.2567 42.2655 65.3609L42.345 65.4573C42.217 65.5629 42.0893 65.6679 41.9617 65.7724L41.8825 65.6757C41.7536 65.7813 41.6249 65.8864 41.4964 65.9908L41.5753 66.0878C41.4467 66.1924 41.3184 66.2964 41.1903 66.3998L41.1117 66.3025C40.9838 66.4058 40.856 66.5086 40.7285 66.6108L40.8067 66.7083C40.6766 66.8126 40.5467 66.9162 40.4172 67.0193L40.3394 66.9214C40.2091 67.025 40.0791 67.128 39.9493 67.2304L40.0268 67.3286C39.8969 67.431 39.7673 67.5329 39.638 67.6342L39.5609 67.5357C39.4315 67.6371 39.3023 67.7378 39.1734 67.8379L39.2501 67.9367C39.1178 68.0394 38.9858 68.1416 38.854 68.243L38.7778 68.144C38.6462 68.2454 38.5149 68.346 38.384 68.4461L38.4598 68.5454C38.3288 68.6455 38.198 68.745 38.0676 68.8438L37.9921 68.7441C37.8598 68.8443 37.7279 68.9437 37.5964 69.0425L37.6714 69.1425C37.5378 69.2428 37.4045 69.3424 37.2716 69.4413L37.197 69.341C37.0642 69.4397 36.9318 69.5378 36.7997 69.6351L36.8739 69.7357C36.7416 69.8332 36.6097 69.93 36.4781 70.026L36.4044 69.9251C36.2689 70.024 36.1338 70.1222 35.9991 70.2195L36.0723 70.3208C35.9375 70.4183 35.8031 70.515 35.6691 70.6108L35.5963 70.5092C35.4625 70.6049 35.3291 70.6999 35.1961 70.794L35.2684 70.896C35.1322 70.9925 34.9964 71.0881 34.8611 71.1829L34.7894 71.0805C34.6528 71.1762 34.5166 71.2711 34.3809 71.365L34.4521 71.4678C34.3163 71.5619 34.1809 71.6551 34.0461 71.7474L33.9754 71.6443C33.8387 71.7379 33.7024 71.8307 33.5667 71.9225L33.6367 72.026C33.4979 72.12 33.3596 72.2129 33.2219 72.3049L33.1525 72.201C33.0149 72.2929 32.878 72.3838 32.7416 72.4737L32.8104 72.5781C32.6723 72.6692 32.5347 72.7593 32.3978 72.8484L32.3296 72.7436C32.1889 72.8351 32.0489 72.9256 31.9096 73.0149L31.9771 73.1202C31.8375 73.2097 31.6986 73.2981 31.5603 73.3855L31.4935 73.2798C31.3538 73.3681 31.2148 73.4553 31.0765 73.5413L31.1426 73.6475C30.9997 73.7364 30.8576 73.8241 30.7162 73.9106L30.6509 73.804C30.5098 73.8903 30.3695 73.9755 30.2299 74.0594L30.2944 74.1665C30.1519 74.2522 30.0103 74.3366 29.8694 74.4198L29.8059 74.3122C29.6614 74.3975 29.5178 74.4815 29.3751 74.5641L29.4377 74.6723C29.2947 74.7551 29.1526 74.8366 29.0113 74.9167L28.9496 74.808C28.8041 74.8905 28.6595 74.9716 28.516 75.0513L28.5766 75.1606C28.4301 75.2418 28.2846 75.3216 28.1402 75.3998L28.0807 75.2899C27.9365 75.368 27.7933 75.4446 27.6512 75.5196L27.7096 75.6301C27.5594 75.7095 27.4103 75.7871 27.2625 75.8629L27.2055 75.7517C27.0581 75.8273 26.912 75.9012 26.7671 75.9734L26.8228 76.0853C26.6727 76.16 26.5239 76.2329 26.3764 76.3039L26.3222 76.1913C26.1713 76.2639 26.0219 76.3346 25.8739 76.4032L25.9265 76.5166C25.776 76.5865 25.627 76.6542 25.4795 76.7199L25.4287 76.6058C25.2742 76.6745 25.1215 76.741 24.9705 76.8052L25.0194 76.9202C24.8676 76.9847 24.7176 77.0469 24.5693 77.1067L24.5225 76.9908C24.3646 77.0546 24.2086 77.1156 24.0548 77.1739L24.0991 77.2908C23.9445 77.3495 23.7918 77.4054 23.6413 77.4586L23.5997 77.3407C23.439 77.3975 23.2808 77.4511 23.1251 77.5016L23.1636 77.6205C23.0056 77.6716 22.8501 77.7196 22.6972 77.7642L22.6622 77.6442C22.4986 77.692 22.3381 77.7359 22.1807 77.776L22.2115 77.8971C22.0484 77.9387 21.8884 77.9762 21.7318 78.0096L21.7058 77.8873C21.5413 77.9223 21.3807 77.9527 21.2241 77.9784L21.2444 78.1018C21.0752 78.1296 20.9103 78.152 20.7499 78.169L20.7367 78.0447C20.5708 78.0624 20.4101 78.074 20.2546 78.0798L20.2592 78.2047C20.0886 78.211 19.9239 78.2103 19.7652 78.2024L19.7713 78.0776C19.6029 78.0693 19.4419 78.0528 19.2886 78.0281L19.2687 78.1515C19.0992 78.1242 18.9381 78.0871 18.7856 78.0401L18.8224 77.9206C18.6661 77.8724 18.52 77.8135 18.3842 77.744L18.3272 77.8552Z" stroke="url(#paint7_linear_4925_2016)" stroke-width="0.25" stroke-dasharray="0.5 0.5"/>
<defs>
<filter id="filter0_d_4925_2016" x="40" y="40" width="16" height="16" filterUnits="userSpaceOnUse" color-interpolation-filters="sRGB">
<feFlood flood-opacity="0" result="BackgroundImageFix"/>
<feColorMatrix in="SourceAlpha" type="matrix" values="0 0 0 0 0 0 0 0 0 0 0 0 0 0 0 0 0 0 127 0" result="hardAlpha"/>
<feOffset/>
<feGaussianBlur stdDeviation="1.5"/>
<feComposite in2="hardAlpha" operator="out"/>
<feColorMatrix type="matrix" values="0 0 0 0 1 0 0 0 0 1 0 0 0 0 1 0 0 0 1 0"/>
<feBlend mode="normal" in2="BackgroundImageFix" result="effect1_dropShadow_4925_2016"/>
<feBlend mode="normal" in="SourceGraphic" in2="effect1_dropShadow_4925_2016" result="shape"/>
</filter>
<linearGradient id="paint0_linear_4925_2016" x1="13.7163" y1="44.5049" x2="44.0953" y2="62.0442" gradientUnits="userSpaceOnUse">
<stop stop-color="#53FDA9"/>
<stop offset="1" stop-opacity="0"/>
</linearGradient>
<linearGradient id="paint1_linear_4925_2016" x1="81.2837" y1="51.0674" x2="50.9047" y2="33.5281" gradientUnits="userSpaceOnUse">
<stop stop-color="#53FDA9"/>
<stop offset="1" stop-opacity="0"/>
</linearGradient>
<linearGradient id="paint2_linear_4925_2016" x1="67.2349" y1="20.1689" x2="36.8559" y2="37.7083" gradientUnits="userSpaceOnUse">
<stop stop-color="#53FDA9"/>
<stop offset="1" stop-opacity="0"/>
</linearGradient>
<linearGradient id="paint3_linear_4925_2016" x1="27.7651" y1="75.4014" x2="58.1441" y2="57.862" gradientUnits="userSpaceOnUse">
<stop stop-color="#53FDA9"/>
<stop offset="1" stop-opacity="0"/>
</linearGradient>
<linearGradient id="paint4_linear_4925_2016" x1="33.721" y1="16.8633" x2="33.721" y2="51.7159" gradientUnits="userSpaceOnUse">
<stop stop-color="#53FDA9"/>
<stop offset="1" stop-opacity="0"/>
</linearGradient>
<linearGradient id="paint5_linear_4925_2016" x1="61.279" y1="78.4629" x2="61.279" y2="43.6103" gradientUnits="userSpaceOnUse">
<stop stop-color="#53FDA9"/>
<stop offset="1" stop-opacity="0"/>
</linearGradient>
<linearGradient id="paint6_linear_4925_2016" x1="94.0001" y1="48.0038" x2="5.17039" y2="49.9844" gradientUnits="userSpaceOnUse">
<stop stop-color="#632BFF"/>
<stop offset="1" stop-color="#632BFF" stop-opacity="0"/>
</linearGradient>
<linearGradient id="paint7_linear_4925_2016" x1="40.3458" y1="41.2337" x2="54.7695" y2="54.2248" gradientUnits="userSpaceOnUse">
<stop stop-color="white"/>
<stop offset="1" stop-color="white" stop-opacity="0"/>
</linearGradient>
</defs>
</svg>
