<svg width="96" height="96" viewBox="0 0 96 96" fill="none"
    xmlns="http://www.w3.org/2000/svg">
    <path d="M74.3171 47.7299C74.3191 47.8979 74.3205 48.0662 74.3212 48.2347L74.1962 48.2351C74.1966 48.3191 74.1968 48.4033 74.1968 48.4875C74.1969 48.5717 74.1968 48.6559 74.1966 48.7399L74.3216 48.7405C74.3211 48.909 74.32 49.0772 74.3183 49.2453L74.1933 49.2438C74.1916 49.4115 74.1892 49.579 74.1863 49.7462L74.3113 49.7486C74.3084 49.9161 74.3049 50.0834 74.3007 50.2505L74.1758 50.2472C74.1716 50.4143 74.1669 50.5812 74.1616 50.7478L74.2865 50.752C74.2811 50.9205 74.2751 51.0889 74.2685 51.2569L74.1436 51.2518C74.137 51.4195 74.1298 51.587 74.122 51.7542L74.2468 51.7602C74.239 51.9277 74.2305 52.095 74.2215 52.2619L74.0967 52.255C74.0877 52.4216 74.078 52.588 74.0678 52.754L74.1926 52.7619C74.1822 52.9303 74.1712 53.0983 74.1597 53.2661L74.035 53.2573C74.0234 53.4249 74.0112 53.5922 73.9984 53.7592L74.1231 53.7689C74.1102 53.9362 74.0968 54.1032 74.0828 54.2699L73.9582 54.2593C73.9442 54.4256 73.9296 54.5917 73.9144 54.7575L74.0389 54.769C74.0236 54.9367 74.0076 55.104 73.991 55.271L73.8666 55.2585C73.85 55.4258 73.8328 55.5927 73.8149 55.7594L73.9392 55.7728C73.9213 55.9398 73.9029 56.1064 73.8838 56.2726L73.7596 56.2582C73.7406 56.4241 73.7209 56.5897 73.7007 56.755L73.8248 56.7704C73.8043 56.9372 73.7833 57.1037 73.7616 57.2699L73.6377 57.2536C73.6159 57.4204 73.5936 57.5868 73.5706 57.7528L73.6944 57.7701C73.6714 57.9365 73.6478 58.1025 73.6236 58.2682L73.4999 58.2499C73.4757 58.4152 73.4509 58.5801 73.4256 58.7447L73.5491 58.7639C73.5235 58.9299 73.4973 59.0955 73.4705 59.2607L73.3471 59.2405C73.3201 59.4066 73.2926 59.5723 73.2644 59.7376L73.3876 59.7588C73.3594 59.9244 73.3305 60.0896 73.3011 60.2544L73.178 60.2323C73.1486 60.3967 73.1186 60.5608 73.088 60.7244L73.2109 60.7476C73.18 60.9126 73.1486 61.0772 73.1165 61.2414L72.9938 61.2172C72.9615 61.3824 72.9286 61.5472 72.8951 61.7115L73.0176 61.7366C72.984 61.9013 72.9499 62.0655 72.9151 62.2292L72.7928 62.2031C72.7581 62.3665 72.7228 62.5294 72.6868 62.6919L72.8089 62.719C72.7726 62.883 72.7358 63.0465 72.6983 63.2096L72.5765 63.1814C72.5388 63.3454 72.5004 63.509 72.4615 63.6721L72.5831 63.7013C72.5441 63.8647 72.5044 64.0276 72.4642 64.19L72.3429 64.1598C72.3027 64.3219 72.262 64.4835 72.2206 64.6445L72.3417 64.6758C72.2999 64.8386 72.2574 65.001 72.2144 65.1627L72.0936 65.1304C72.0503 65.2931 72.0065 65.4552 71.962 65.6167L72.0825 65.6501C72.0379 65.812 71.9927 65.9734 71.9469 66.1342L71.8267 66.0998C71.781 66.2603 71.7347 66.4202 71.6877 66.5796L71.8077 66.615C71.7601 66.7766 71.7119 66.9376 71.6631 67.0981L71.5435 67.0615C71.4946 67.2225 71.445 67.3828 71.3948 67.5425L71.5141 67.5801C71.4638 67.7402 71.4129 67.8998 71.3614 68.0587L71.2425 68.02C71.1911 68.1785 71.1391 68.3365 71.0865 68.4938L71.205 68.5336C71.1515 68.6938 71.0973 68.8534 71.0425 69.0123L70.9243 68.9714C70.8695 69.1303 70.8141 69.2885 70.7581 69.4461L70.8759 69.4881C70.8198 69.646 70.763 69.8033 70.7057 69.96L70.5883 69.9168C70.5309 70.0736 70.4728 70.2297 70.4142 70.3852L70.5312 70.4294C70.4715 70.5876 70.4112 70.7451 70.3503 70.9018L70.2338 70.8564C70.173 71.0128 70.1117 71.1685 70.0497 71.3235L70.1658 71.3701C70.1036 71.5255 70.0409 71.6802 69.9775 71.8341L69.8619 71.7864C69.798 71.9415 69.7336 72.0959 69.6685 72.2495L69.7836 72.2984C69.7178 72.4538 69.6513 72.6085 69.5843 72.7624L69.4697 72.7123C69.4028 72.8658 69.3352 73.0185 69.2671 73.1705L69.3812 73.2218C69.3129 73.3742 69.2439 73.5258 69.1744 73.6766L69.0609 73.6241C68.9902 73.7773 68.919 73.9297 68.8471 74.0812L68.96 74.1349C68.8879 74.2871 68.815 74.4384 68.7416 74.5889L68.6293 74.534C68.556 74.6841 68.4822 74.8334 68.4077 74.9818L68.5195 75.038C68.4442 75.1881 68.3683 75.3373 68.2917 75.4857L68.1806 75.4282C68.1034 75.578 68.0255 75.7268 67.947 75.8747L68.0575 75.9334C67.9788 76.0818 67.8994 76.2292 67.8195 76.3758L67.7097 76.3158C67.63 76.4619 67.5496 76.6071 67.4687 76.7514L67.5777 76.8127C67.4949 76.9603 67.4114 77.107 67.3273 77.2527L67.219 77.1901C67.1351 77.3355 67.0505 77.4799 66.9654 77.6234L67.0729 77.6873C66.9874 77.8312 66.9014 77.9741 66.8147 78.116L66.708 78.0507C66.6205 78.194 66.5324 78.3362 66.4436 78.4774L66.5495 78.544C66.4596 78.6869 66.3692 78.8288 66.2781 78.9696L66.1731 78.9015C66.0823 79.0419 65.9909 79.1811 65.8988 79.3193L66.0029 79.3887C65.91 79.5282 65.8164 79.6667 65.7223 79.804L65.6192 79.7332C65.5238 79.8722 65.4279 80.0101 65.3313 80.1468L65.4334 80.2191C65.3365 80.3563 65.2389 80.4923 65.1407 80.6273L65.0396 80.5536C64.9416 80.6882 64.8431 80.8216 64.7439 80.9538L64.8439 81.0289C64.7423 81.1644 64.64 81.2987 64.537 81.4318L64.4381 81.3552C64.3355 81.4878 64.2323 81.6191 64.1285 81.7492L64.2262 81.8273C64.122 81.9579 64.0172 82.0872 63.9117 82.2153L63.8152 82.1357C63.708 82.2658 63.6003 82.3945 63.4919 82.522L63.5871 82.603C63.478 82.7313 63.3682 82.8583 63.2578 82.9839L63.1639 82.9013C63.054 83.0263 62.9434 83.1501 62.8322 83.2724L62.9248 83.3566C62.8112 83.4816 62.6969 83.6052 62.5821 83.7273L62.4909 83.6416C62.376 83.7639 62.2604 83.8847 62.1442 84.004L62.2338 84.0913C62.1171 84.2111 61.9998 84.3295 61.8818 84.4464L61.7938 84.3576C61.6744 84.4759 61.5544 84.5927 61.4338 84.7079L61.5202 84.7984C61.3984 84.9148 61.2759 85.0296 61.1528 85.1429L61.0681 85.0508C60.9456 85.1636 60.8224 85.2747 60.6987 85.3843L60.7816 85.4779C60.6552 85.5899 60.5281 85.7002 60.4004 85.8088L60.3193 85.7136C60.1917 85.8222 60.0634 85.9291 59.9346 86.0343L60.0137 86.1311C59.8842 86.2369 59.754 86.3409 59.6233 86.4432L59.5461 86.3448C59.4137 86.4484 59.2807 86.5502 59.147 86.6503L59.222 86.7504C59.0873 86.8512 58.952 86.9502 58.8161 87.0474L58.7433 86.9457C58.608 87.0425 58.4722 87.1374 58.3357 87.2304L58.4062 87.3337C58.2665 87.429 58.1262 87.5224 57.9853 87.6138L57.9171 87.5089C57.777 87.5998 57.6363 87.6888 57.495 87.7758L57.5606 87.8823C57.4179 87.9702 57.2745 88.0561 57.1306 88.1401L57.0675 88.0321C56.9226 88.1166 56.7772 88.199 56.6311 88.2794L56.6915 88.3889C56.5446 88.4698 56.3971 88.5487 56.2489 88.6254L56.1913 88.5144C56.0431 88.5912 55.8942 88.6659 55.7449 88.7385L55.7996 88.851C55.6482 88.9245 55.4962 88.9959 55.3437 89.0651L55.2919 88.9513C55.1403 89.02 54.9882 89.0866 54.8356 89.1509L54.8843 89.2661C54.7293 89.3315 54.5737 89.3946 54.4175 89.4555L54.372 89.339C54.2165 89.3996 54.0605 89.4579 53.904 89.5139L53.9463 89.6316C53.7886 89.6881 53.6303 89.7422 53.4715 89.794L53.4325 89.6752C53.2738 89.7269 53.1146 89.7764 52.9549 89.8234L52.9903 89.9433C52.8294 89.9907 52.668 90.0357 52.5061 90.0783L52.4741 89.9574C52.3132 89.9998 52.1517 90.0397 51.9897 90.0772L52.0181 90.199C51.8547 90.2369 51.6907 90.2723 51.5263 90.3052L51.5016 90.1826C51.3384 90.2153 51.1748 90.2455 51.0107 90.2733L51.0317 90.3965C50.8665 90.4244 50.7009 90.4499 50.5349 90.4728L50.5176 90.349C50.3529 90.3717 50.1877 90.3919 50.022 90.4096L50.0355 90.5339C49.8688 90.5517 49.7017 90.567 49.5341 90.5798L49.5245 90.4551C49.3591 90.4677 49.1933 90.4778 49.0271 90.4853L49.033 90.6102C48.8655 90.6178 48.6977 90.6228 48.5295 90.6253L48.5275 90.5003C48.444 90.5015 48.3604 90.5021 48.2767 90.502C48.1931 90.502 48.1095 90.5013 48.0261 90.4999L48.0242 90.6249C47.856 90.6222 47.6882 90.6169 47.5207 90.6091L47.5263 90.4842C47.3602 90.4764 47.1944 90.4661 47.029 90.4533L47.0195 90.5779C46.8519 90.565 46.6848 90.5494 46.518 90.5314L46.5313 90.4071C46.3657 90.3891 46.2005 90.3687 46.0357 90.3457L46.0186 90.4695C45.8525 90.4463 45.6869 90.4207 45.5217 90.3925L45.5425 90.2693C45.3784 90.2413 45.2147 90.2108 45.0515 90.1779L45.0269 90.3004C44.8625 90.2673 44.6985 90.2316 44.535 90.1935L44.5632 90.0718C44.4012 90.034 44.2396 89.9939 44.0786 89.9513L44.0468 90.0721C43.8848 90.0293 43.7233 89.9841 43.5624 89.9365L43.5977 89.8166C43.4379 89.7693 43.2786 89.7197 43.1198 89.6676L43.081 89.7864C42.9221 89.7344 42.7638 89.68 42.6059 89.6233L42.648 89.5057C42.4914 89.4495 42.3354 89.3909 42.1799 89.3301L42.1345 89.4465C41.9782 89.3855 41.8225 89.3221 41.6674 89.2565L41.7159 89.1414C41.5632 89.0768 41.411 89.01 41.2593 88.941L41.2077 89.0548C41.0551 88.9854 40.903 88.9137 40.7515 88.84L40.8061 88.7276C40.6566 88.6548 40.5077 88.5799 40.3593 88.5028L40.3018 88.6138C40.1536 88.5368 40.0059 88.4578 39.8589 88.3766L39.9191 88.2672C39.773 88.1866 39.6274 88.1039 39.4824 88.0192L39.4195 88.1271C39.2754 88.043 39.1319 87.9568 38.989 87.8687L39.0545 87.7624C38.9131 87.6751 38.7723 87.5859 38.632 87.4948L38.564 87.5996C38.4229 87.508 38.2825 87.4144 38.1426 87.3189L38.213 87.2157C38.0764 87.1225 37.9404 87.0274 37.805 86.9304L37.7323 87.032C37.5963 86.9346 37.4608 86.8354 37.326 86.7344L37.4009 86.6344C37.2671 86.5342 37.1339 86.4321 37.0013 86.3283L36.9243 86.4267C36.7934 86.3242 36.6631 86.2199 36.5334 86.114L36.6124 86.0172C36.4834 85.9118 36.355 85.8047 36.2272 85.696L36.1462 85.7911C36.0184 85.6823 35.8911 85.5718 35.7645 85.4597L35.8473 85.3662C35.7234 85.2564 35.6001 85.1451 35.4774 85.0322L35.3929 85.1241C35.2696 85.0106 35.147 84.8956 35.025 84.779L35.1112 84.6887C34.9904 84.5733 34.8703 84.4563 34.7507 84.3378L34.6628 84.4266C34.5447 84.3095 34.4272 84.1909 34.3103 84.0709L34.3998 83.9837C34.2834 83.8642 34.1677 83.7433 34.0525 83.6209L33.9615 83.7064C33.8465 83.5841 33.7321 83.4604 33.6183 83.3352L33.7107 83.2512C33.5994 83.1286 33.4886 83.0048 33.3785 82.8795L33.2846 82.962C33.1741 82.8362 33.0641 82.7091 32.9548 82.5807L33.0499 82.4997C32.9414 82.3722 32.8334 82.2432 32.7261 82.113L32.6297 82.1924C32.524 82.0642 32.419 81.9347 32.3146 81.804L32.4122 81.7261C32.3082 81.5958 32.2048 81.4643 32.102 81.3316L32.0032 81.408C31.9001 81.2748 31.7976 81.1404 31.6957 81.0047L31.7956 80.9297C31.6963 80.7973 31.5975 80.6638 31.4994 80.5291L31.3984 80.6026C31.3 80.4676 31.2022 80.3313 31.1051 80.194L31.2071 80.1219C31.1103 79.985 31.0141 79.847 30.9186 79.7079L30.8156 79.7785C30.7212 79.641 30.6275 79.5025 30.5343 79.3628L30.6383 79.2936C30.5461 79.1553 30.4544 79.0159 30.3634 78.8754L30.2585 78.9432C30.1672 78.8023 30.0766 78.6603 29.9865 78.5173L30.0923 78.4508C30.0033 78.3095 29.915 78.1672 29.8273 78.0238L29.7207 78.0889C29.6338 77.9469 29.5475 77.8038 29.4619 77.6598L29.5693 77.596C29.4839 77.4525 29.3991 77.3079 29.315 77.1624L29.2068 77.2249C29.1225 77.079 29.0388 76.9322 28.9557 76.7845L29.0647 76.7233C28.9835 76.5789 28.903 76.4336 28.823 76.2874L28.7134 76.3472C28.6332 76.2005 28.5536 76.053 28.4747 75.9045L28.5851 75.846C28.5064 75.6979 28.4283 75.549 28.3508 75.3992L28.2398 75.4564C28.163 75.3079 28.0869 75.1586 28.0114 75.0084L28.1231 74.9524C28.0484 74.8038 27.9743 74.6545 27.9009 74.5043L27.7886 74.559C27.7149 74.4084 27.6419 74.257 27.5695 74.1047L27.6824 74.0511C27.6103 73.8995 27.5388 73.747 27.4679 73.5937L27.3545 73.646C27.2847 73.4951 27.2156 73.3434 27.147 73.1909L27.261 73.1398C27.1927 72.9878 27.1249 72.8349 27.0578 72.6813L26.9433 72.7312C26.876 72.5772 26.8093 72.4225 26.7432 72.267L26.8583 72.2182C26.793 72.0645 26.7283 71.91 26.6642 71.7549L26.5487 71.8024C26.4851 71.6484 26.4221 71.4936 26.3598 71.3381L26.4758 71.2917C26.4135 71.1366 26.3519 70.9808 26.291 70.8243L26.1745 70.8696C26.1134 70.7127 26.0528 70.5551 25.993 70.3969L26.1099 70.3528C26.051 70.1973 25.9927 70.0411 25.9351 69.8842L25.8178 69.9272C25.7602 69.7705 25.7032 69.6131 25.6468 69.455L25.7646 69.4132C25.7083 69.2556 25.6527 69.0973 25.5977 68.9383L25.4796 68.9791C25.4246 68.82 25.3701 68.6604 25.3163 68.5001L25.4348 68.4605C25.382 68.303 25.3298 68.145 25.2781 67.9864L25.1593 68.0249C25.1075 67.8659 25.0564 67.7063 25.0059 67.5462L25.1251 67.5087C25.0747 67.3489 25.0249 67.1885 24.9757 67.0275L24.8562 67.0639C24.8071 66.9034 24.7587 66.7423 24.7109 66.5806L24.8308 66.5453C24.7836 66.3859 24.7371 66.2259 24.6911 66.0654L24.5709 66.0996C24.5249 65.9387 24.4795 65.7773 24.4346 65.6153L24.5551 65.5821C24.5104 65.4205 24.4663 65.2583 24.4228 65.0956L24.302 65.1278C24.2588 64.9659 24.2161 64.8035 24.174 64.6406L24.2951 64.6095C24.2535 64.4484 24.2125 64.2868 24.1721 64.1246L24.0508 64.1547C24.0103 63.9922 23.9705 63.8292 23.9312 63.6657L24.0527 63.6367C24.0136 63.4736 23.975 63.31 23.9371 63.1459L23.8153 63.1739C23.7776 63.0108 23.7405 62.8472 23.704 62.6832L23.826 62.6562C23.7898 62.4937 23.7543 62.3307 23.7193 62.1672L23.5971 62.1932C23.562 62.0294 23.5276 61.8652 23.4938 61.7005L23.6162 61.6755C23.5825 61.5111 23.5494 61.3463 23.5169 61.1811L23.3942 61.2051C23.3619 61.0408 23.3302 60.8762 23.2991 60.7111L23.4219 60.6881C23.3911 60.5245 23.3608 60.3604 23.3312 60.1959L23.2082 60.2179C23.1785 60.053 23.1494 59.8878 23.1209 59.7221L23.2441 59.7011C23.2157 59.5358 23.1879 59.37 23.1607 59.2039L23.0373 59.2239C23.0103 59.0586 22.9838 58.893 22.958 58.727L23.0815 58.7079C23.0559 58.5433 23.0308 58.3784 23.0064 58.213L22.8828 58.2311C22.8583 58.0654 22.8345 57.8994 22.8112 57.733L22.935 57.7159C22.9118 57.5498 22.8892 57.3833 22.8672 57.2165L22.7433 57.2326C22.7214 57.0665 22.7001 56.8999 22.6794 56.733L22.8035 56.7178C22.783 56.5525 22.7631 56.3869 22.7438 56.221L22.6196 56.2352C22.6003 56.0689 22.5816 55.9023 22.5635 55.7353L22.6878 55.722C22.6697 55.5554 22.6522 55.3884 22.6353 55.2211L22.511 55.2334C22.4941 55.0664 22.4779 54.8991 22.4623 54.7314L22.5868 54.72C22.5713 54.5542 22.5565 54.3881 22.5422 54.2217L22.4177 54.2322C22.4034 54.0655 22.3898 53.8984 22.3767 53.7311L22.5013 53.7216C22.4883 53.5546 22.4759 53.3872 22.4641 53.2196L22.3394 53.2282C22.3275 53.0605 22.3163 52.8924 22.3057 52.724L22.4305 52.7163C22.42 52.5502 22.4101 52.3839 22.4009 52.2172L22.2761 52.224C22.2668 52.057 22.2581 51.8898 22.25 51.7223L22.3749 51.7164C22.3668 51.5492 22.3593 51.3817 22.3525 51.214L22.2276 51.2189C22.2207 51.0508 22.2145 50.8825 22.2088 50.7139L22.3338 50.7099C22.3282 50.5433 22.3232 50.3764 22.3188 50.2093L22.1939 50.2124C22.1895 50.0454 22.1857 49.8781 22.1826 49.7105L22.3076 49.7084C22.3044 49.5411 22.3018 49.3736 22.2999 49.2059L22.1749 49.2072C22.1729 49.0392 22.1716 48.8709 22.1709 48.7024L22.2959 48.702C22.2955 48.6179 22.2953 48.5338 22.2952 48.4496C22.2952 48.3654 22.2952 48.2812 22.2955 48.1972L22.1705 48.1966C22.171 48.0281 22.1721 47.8598 22.1738 47.6918L22.2988 47.6933C22.3005 47.5256 22.3028 47.3581 22.3057 47.1909L22.1807 47.1885C22.1837 47.021 22.1872 46.8537 22.1913 46.6866L22.3163 46.6899C22.3204 46.5228 22.3251 46.3559 22.3305 46.1893L22.2055 46.1851C22.2109 46.0165 22.2169 45.8482 22.2236 45.6802L22.3485 45.6853C22.3551 45.5175 22.3623 45.3501 22.3701 45.1829L22.2452 45.1769C22.2531 45.0094 22.2615 44.8421 22.2705 44.6752L22.3954 44.6821C22.4044 44.5155 22.414 44.3491 22.4242 44.183L22.2995 44.1752C22.3098 44.0068 22.3208 43.8388 22.3324 43.671L22.4571 43.6798C22.4687 43.5122 22.4808 43.3449 22.4936 43.1779L22.369 43.1682C22.3818 43.0009 22.3952 42.8339 22.4092 42.6672L22.5338 42.6778C22.5478 42.5115 22.5624 42.3454 22.5776 42.1796L22.4531 42.168C22.4685 42.0004 22.4845 41.8331 22.5011 41.6661L22.6254 41.6786C22.6421 41.5113 22.6593 41.3444 22.6771 41.1777L22.5528 41.1642C22.5707 40.9973 22.5892 40.8307 22.6082 40.6645L22.7324 40.6789C22.7515 40.5129 22.7711 40.3473 22.7914 40.1821L22.6673 40.1667C22.6877 39.9999 22.7088 39.8334 22.7304 39.6672L22.8544 39.6835C22.8761 39.5167 22.8985 39.3503 22.9215 39.1842L22.7976 39.1669C22.8206 39.0006 22.8443 38.8345 22.8685 38.6689L22.9922 38.6872C23.0163 38.5219 23.0411 38.3569 23.0665 38.1924L22.9429 38.1732C22.9685 38.0072 22.9947 37.8416 23.0216 37.6764L23.1449 37.6966C23.1719 37.5305 23.1995 37.3648 23.2277 37.1995L23.1044 37.1783C23.1327 37.0127 23.1615 36.8474 23.191 36.6827L23.314 36.7048C23.3434 36.5403 23.3734 36.3763 23.404 36.2127L23.2811 36.1895C23.312 36.0245 23.3435 35.8599 23.3756 35.6957L23.4982 35.7199C23.5305 35.5547 23.5634 35.3899 23.5969 35.2256L23.4744 35.2004C23.508 35.0358 23.5422 34.8716 23.577 34.7079L23.6992 34.734C23.734 34.5706 23.7693 34.4077 23.8052 34.2452L23.6832 34.2181C23.7194 34.0541 23.7563 33.8906 23.7937 33.7275L23.9156 33.7557C23.9533 33.5916 23.9916 33.4281 24.0305 33.265L23.909 33.2358C23.948 33.0724 23.9876 32.9095 24.0278 32.7471L24.1492 32.7773C24.1893 32.6152 24.2301 32.4536 24.2714 32.2926L24.1504 32.2613C24.1922 32.0985 24.2346 31.9361 24.2776 31.7743L24.3984 31.8066C24.4417 31.644 24.4856 31.4819 24.5301 31.3203L24.4096 31.287C24.4541 31.1251 24.4993 30.9637 24.5451 30.8029L24.6654 30.8373C24.7111 30.6768 24.7574 30.5169 24.8043 30.3575L24.6844 30.3221C24.732 30.1605 24.7801 29.9995 24.8289 29.839L24.9485 29.8756C24.9975 29.7146 25.047 29.5543 25.0972 29.3946L24.978 29.357C25.0282 29.1969 25.0791 29.0373 25.1307 28.8784L25.2496 28.9171C25.301 28.7586 25.353 28.6006 25.4056 28.4433L25.287 28.4035C25.3406 28.2433 25.3948 28.0837 25.4496 27.9248L25.5678 27.9657C25.6225 27.8068 25.6779 27.6486 25.7339 27.491L25.6161 27.449C25.6723 27.2911 25.729 27.1338 25.7864 26.9771L25.9038 27.0203C25.9612 26.8635 26.0192 26.7074 26.0778 26.5519L25.9609 26.5077C26.0205 26.3495 26.0808 26.192 26.1417 26.0352L26.2582 26.0807C26.319 25.9243 26.3804 25.7686 26.4424 25.6136L26.3263 25.567C26.3884 25.4116 26.4512 25.2569 26.5146 25.103L26.6302 25.1507C26.694 24.9956 26.7585 24.8412 26.8235 24.6876L26.7084 24.6387C26.7742 24.4833 26.8407 24.3286 26.9078 24.1747L27.0224 24.2248C27.0893 24.0713 27.1568 23.9186 27.2249 23.7666L27.1109 23.7153C27.1792 23.5629 27.2481 23.4113 27.3177 23.2605L27.4312 23.313C27.5018 23.1598 27.5731 23.0074 27.645 22.8559L27.532 22.8022C27.6042 22.65 27.677 22.4987 27.7504 22.3481L27.8628 22.4031C27.936 22.253 28.0099 22.1037 28.0843 21.9553L27.9726 21.8991C28.0479 21.749 28.1238 21.5998 28.2003 21.4514L28.3114 21.5088C28.3887 21.3591 28.4665 21.2103 28.545 21.0624L28.4346 21.0037C28.5133 20.8553 28.5926 20.7079 28.6726 20.5613L28.7823 20.6213C28.8621 20.4752 28.9424 20.33 29.0234 20.1857L28.9143 20.1244C28.9972 19.9768 29.0806 19.8301 29.1647 19.6844L29.273 19.747C29.357 19.6016 29.4415 19.4572 29.5267 19.3137L29.4192 19.2498C29.5046 19.1059 29.5907 18.963 29.6774 18.8211L29.7841 18.8864C29.8716 18.7431 29.9597 18.6009 30.0484 18.4597L29.9426 18.3931C30.0324 18.2502 30.1229 18.1083 30.214 17.9675L30.3189 18.0356C30.4097 17.8952 30.5012 17.7559 30.5932 17.6177L30.4891 17.5483C30.5821 17.4088 30.6756 17.2704 30.7698 17.1331L30.8729 17.2039C30.9682 17.0649 31.0642 16.927 31.1608 16.7903L31.0587 16.718C31.1556 16.5808 31.2532 16.4447 31.3514 16.3098L31.4525 16.3835C31.5504 16.2489 31.649 16.1155 31.7481 15.9833L31.6481 15.9082C31.7498 15.7727 31.8521 15.6384 31.955 15.5053L32.0539 15.5819C32.1565 15.4493 32.2597 15.318 32.3635 15.1879L32.2658 15.1098C32.37 14.9792 32.4749 14.8499 32.5803 14.7218L32.6769 14.8014C32.784 14.6713 32.8918 14.5426 33.0002 14.4151L32.9049 14.3341C33.014 14.2058 33.1238 14.0788 33.2342 13.9532L33.3281 14.0358C33.4381 13.9108 33.5487 13.787 33.6598 13.6647L33.5673 13.5805C33.6809 13.4555 33.7951 13.3319 33.91 13.2097L34.0011 13.2954C34.1161 13.1732 34.2316 13.0524 34.3478 12.9331L34.2582 12.8458C34.3749 12.726 34.4922 12.6076 34.6102 12.4907L34.6983 12.5795C34.8176 12.4612 34.9376 12.3444 35.0583 12.2292L34.9718 12.1387C35.0937 12.0223 35.2161 11.9075 35.3392 11.7942L35.424 11.8862C35.5465 11.7735 35.6696 11.6624 35.7934 11.5528L35.7104 11.4591C35.8369 11.3472 35.9639 11.2369 36.0916 11.1283L36.1727 11.2235C36.3004 11.1149 36.4286 11.008 36.5575 10.9028L36.4784 10.806C36.6079 10.7002 36.738 10.5962 36.8688 10.4938L36.9459 10.5923C37.0783 10.4887 37.2114 10.3869 37.345 10.2868L37.27 10.1867C37.4047 10.0859 37.54 9.98685 37.6759 9.88966L37.7487 9.99137C37.884 9.89464 38.0199 9.79973 38.1563 9.70666L38.0858 9.60335C38.2255 9.50808 38.3658 9.41471 38.5068 9.32328L38.5749 9.42818C38.715 9.33727 38.8558 9.2483 38.9971 9.16128L38.9314 9.05481C39.0742 8.9669 39.2175 8.88096 39.3615 8.79701L39.4246 8.90501C39.5694 8.82053 39.7149 8.73807 39.8609 8.65768L39.8005 8.54816C39.9475 8.46726 40.095 8.38843 40.2431 8.31168L40.3007 8.42269C40.449 8.34587 40.5978 8.27117 40.7472 8.19859L40.6924 8.08614C40.8438 8.01258 40.9958 7.94118 41.1484 7.87198L41.2002 7.98583C41.3517 7.91708 41.5038 7.85051 41.6564 7.78614L41.6077 7.67095C41.7628 7.60557 41.9184 7.54244 42.0746 7.48158L42.1201 7.59806C42.2755 7.53748 42.4315 7.47918 42.588 7.42318L42.5457 7.30548C42.7035 7.24903 42.8618 7.19488 43.0206 7.14308L43.0595 7.26192C43.2182 7.21014 43.3775 7.16072 43.5372 7.11367L43.5017 6.99376C43.6626 6.94637 43.824 6.90137 43.986 6.85878L44.0179 6.97967C44.1789 6.93732 44.3404 6.89739 44.5023 6.85987L44.4739 6.7381C44.6374 6.70024 44.8013 6.66484 44.9657 6.63191L44.9904 6.75447C45.1536 6.72179 45.3173 6.69157 45.4814 6.66382L45.4604 6.54057C45.6255 6.51265 45.7911 6.48722 45.9572 6.46431L45.9744 6.58814C46.1392 6.56541 46.3044 6.54518 46.47 6.52746L46.4565 6.40317C46.6232 6.38534 46.7904 6.37004 46.9579 6.35731L46.9676 6.48195C47.1329 6.46937 47.2987 6.45931 47.4649 6.45178L47.4591 6.32691C47.6265 6.31932 47.7944 6.31429 47.9626 6.31183L47.9646 6.43682C48.0481 6.4356 48.1316 6.43502 48.2153 6.43508C48.299 6.43514 48.3825 6.43584 48.466 6.43718L48.4678 6.3122C48.636 6.3149 48.8039 6.32018 48.9714 6.32801L48.9657 6.45288C49.1319 6.46065 49.2977 6.47095 49.4631 6.48377L49.4725 6.35914C49.6401 6.37212 49.8073 6.38766 49.974 6.40574L49.9607 6.53001C50.1263 6.54796 50.2916 6.56844 50.4564 6.59141L50.4734 6.46761C50.6395 6.49076 50.8052 6.51643 50.9704 6.54459L50.9495 6.66781C51.1137 6.6958 51.2774 6.72626 51.4406 6.75918L51.4651 6.63665C51.6296 6.66982 51.7936 6.70546 51.9571 6.74356L51.9289 6.86529C52.0909 6.90304 52.2524 6.94322 52.4135 6.98579L52.4452 6.86495C52.6072 6.90778 52.7687 6.95301 52.9297 7.00064L52.8944 7.1205C53.0542 7.16778 53.2135 7.21744 53.3723 7.26945L53.411 7.15066C53.5699 7.2027 53.7283 7.25707 53.8861 7.31376L53.844 7.43139C54.0006 7.48763 54.1567 7.54615 54.3122 7.60696L54.3575 7.49054C54.5138 7.55163 54.6695 7.61499 54.8247 7.6806L54.7761 7.79572C54.9289 7.86031 55.081 7.9271 55.2327 7.99607L55.2843 7.8823C55.437 7.95172 55.589 8.02334 55.7406 8.09712L55.686 8.20949C55.8355 8.28229 55.9844 8.35721 56.1327 8.43424L56.1902 8.32332C56.3384 8.40028 56.4861 8.47933 56.6332 8.56044L56.5729 8.66988C56.7191 8.75049 56.8647 8.83315 57.0096 8.91785L57.0726 8.80994C57.2166 8.8941 57.3601 8.98025 57.503 9.06837L57.4375 9.17474C57.5789 9.26197 57.7198 9.35115 57.86 9.44225L57.928 9.33746C58.0691 9.42909 58.2096 9.52266 58.3494 9.61815L58.279 9.72135C58.4156 9.81461 58.5516 9.90972 58.6871 10.0067L58.7597 9.90505C58.8958 10.0024 59.0312 10.1017 59.166 10.2027L59.0912 10.3027C59.225 10.4029 59.3582 10.505 59.4907 10.6088L59.5677 10.5104C59.6986 10.6129 59.8289 10.7172 59.9586 10.8231L59.8796 10.9199C60.0087 11.0253 60.1371 11.1323 60.2649 11.2411L60.3458 11.146C60.4737 11.2548 60.6009 11.3653 60.7275 11.4774L60.6447 11.5709C60.7686 11.6807 60.8919 11.792 61.0146 11.9049L61.0992 11.813C61.2224 11.9265 61.3451 12.0415 61.4671 12.1581L61.3808 12.2484C61.5016 12.3638 61.6218 12.4808 61.7413 12.5992L61.8292 12.5105C61.9474 12.6276 62.0649 12.7462 62.1818 12.8662L62.0923 12.9533C62.2086 13.0728 62.3244 13.1938 62.4395 13.3162L62.5305 13.2306C62.6456 13.353 62.76 13.4767 62.8738 13.6019L62.7813 13.6859C62.8927 13.8084 63.0034 13.9323 63.1136 14.0576L63.2074 13.9751C63.318 14.1009 63.4279 14.228 63.5372 14.3564L63.4421 14.4374C63.5507 14.5649 63.6586 14.6938 63.7659 14.8241L63.8624 14.7447C63.968 14.8729 64.0731 15.0024 64.1775 15.1331L64.0799 15.211C64.1839 15.3413 64.2873 15.4728 64.39 15.6055L64.4888 15.5291C64.592 15.6623 64.6945 15.7967 64.7963 15.9324L64.6964 16.0074C64.7958 16.1397 64.8945 16.2733 64.9927 16.408L65.0937 16.3345C65.1921 16.4695 65.2898 16.6057 65.387 16.7431L65.285 16.8152C65.3818 16.952 65.4779 17.0901 65.5735 17.2292L65.6765 17.1586C65.7708 17.296 65.8646 17.4346 65.9577 17.5742L65.8537 17.6435C65.946 17.7818 66.0376 17.9212 66.1286 18.0617L66.2335 17.9938C66.3248 18.1348 66.4155 18.2768 66.5055 18.4198L66.3997 18.4863C66.4887 18.6276 66.577 18.7699 66.6648 18.9133L66.7714 18.8482C66.8582 18.9902 66.9445 19.1333 67.0302 19.2773L66.9228 19.341C67.0081 19.4846 67.0929 19.6291 67.177 19.7747L67.2852 19.7122C67.3696 19.8581 67.4532 20.0049 67.5363 20.1526L67.4274 20.2138C67.5085 20.3582 67.5891 20.5035 67.669 20.6497L67.7787 20.5899C67.8589 20.7365 67.9384 20.8841 68.0173 21.0326L67.907 21.0911C67.9857 21.2392 68.0638 21.3881 68.1412 21.5379L68.2522 21.4807C68.329 21.6291 68.4051 21.7785 68.4806 21.9287L68.369 21.9847C68.4437 22.1332 68.5177 22.2826 68.5912 22.4328L68.7034 22.3781C68.7771 22.5287 68.8501 22.6801 68.9225 22.8324L68.8096 22.8859C68.8818 23.0376 68.9532 23.1901 69.0241 23.3434L69.1375 23.2911C69.2073 23.442 69.2765 23.5937 69.345 23.7462L69.231 23.7973C69.2994 23.9493 69.3671 24.1022 69.4342 24.2558L69.5488 24.2059C69.6161 24.3599 69.6828 24.5146 69.7488 24.6701L69.6338 24.7189C69.6991 24.8726 69.7637 25.027 69.8278 25.1822L69.9433 25.1347C70.0069 25.2887 70.0699 25.4435 70.1323 25.599L70.0163 25.6454C70.0785 25.8005 70.1401 25.9563 70.2011 26.1127L70.3176 26.0675C70.3787 26.2244 70.4392 26.3819 70.4991 26.5402L70.3822 26.5843C70.441 26.7398 70.4993 26.896 70.5569 27.0529L70.6743 27.0099C70.7318 27.1666 70.7888 27.324 70.8452 27.482L70.7275 27.5239C70.7837 27.6815 70.8393 27.8398 70.8943 27.9988L71.0125 27.958C71.0675 28.1171 71.1219 28.2767 71.1757 28.437L71.0572 28.4766C71.1101 28.634 71.1623 28.7921 71.2139 28.9507L71.3328 28.9122C71.3845 29.0712 71.4357 29.2307 71.4862 29.3909L71.367 29.4284C71.4174 29.5882 71.4672 29.7486 71.5163 29.9096L71.6359 29.8732C71.6849 30.0337 71.7333 30.1948 71.7812 30.3565L71.6613 30.3917C71.7084 30.5512 71.755 30.7112 71.8009 30.8717L71.9211 30.8375C71.9671 30.9984 72.0126 31.1598 72.0574 31.3218L71.9369 31.355C71.9817 31.5166 72.0258 31.6788 72.0693 31.8415L72.19 31.8093C72.2333 31.9712 72.276 32.1336 72.318 32.2965L72.197 32.3276C72.2386 32.4887 72.2796 32.6503 72.32 32.8125L72.4412 32.7824C72.4817 32.9449 72.5216 33.1079 72.5608 33.2713L72.4393 33.3004C72.4785 33.4635 72.517 33.6271 72.555 33.7912L72.6768 33.7632C72.7145 33.9263 72.7516 34.0899 72.7881 34.2539L72.6661 34.2809C72.7022 34.4434 72.7378 34.6064 72.7727 34.7699L72.895 34.7439C72.93 34.9077 72.9644 35.0719 72.9982 35.2366L72.8758 35.2616C72.9095 35.4259 72.9427 35.5907 72.9752 35.756L73.0978 35.732C73.1302 35.8962 73.1619 36.0609 73.193 36.226L73.0701 36.2489C73.101 36.4126 73.1312 36.5767 73.1608 36.7412L73.2839 36.7192C73.3136 36.8841 73.3426 37.0493 73.3711 37.215L73.2479 37.236C73.2764 37.4013 73.3042 37.5671 73.3314 37.7332L73.4547 37.7132C73.4818 37.8785 73.5082 38.0441 73.5341 38.2101L73.4106 38.2292C73.4362 38.3937 73.4612 38.5587 73.4856 38.7241L73.6093 38.706C73.6337 38.8716 73.6576 39.0377 73.6808 39.2041L73.557 39.2212C73.5802 39.3873 73.6028 39.5538 73.6248 39.7206L73.7488 39.7045C73.7707 39.8706 73.792 40.0372 73.8126 40.2041L73.6886 40.2193C73.7091 40.3845 73.729 40.5502 73.7482 40.7161L73.8724 40.7019C73.8917 40.8682 73.9105 41.0348 73.9286 41.2018L73.8043 41.2151C73.8224 41.3817 73.8398 41.5487 73.8567 41.716L73.9811 41.7037C73.9979 41.8707 74.0141 42.038 74.0297 42.2057L73.9053 42.2171C73.9207 42.3829 73.9356 42.549 73.9498 42.7154L74.0743 42.7049C74.0886 42.8716 74.1023 43.0386 74.1153 43.206L73.9907 43.2155C74.0037 43.3825 74.0162 43.5498 74.028 43.7175L74.1527 43.7089C74.1645 43.8766 74.1757 44.0447 74.1863 44.2131L74.0616 44.2207C74.072 44.3868 74.0819 44.5532 74.0912 44.7199L74.216 44.7131C74.2253 44.8801 74.234 45.0473 74.242 45.2148L74.1172 45.2207C74.1252 45.3879 74.1327 45.5554 74.1395 45.7231L74.2644 45.7182C74.2713 45.8862 74.2776 46.0546 74.2832 46.2232L74.1583 46.2272C74.1638 46.3938 74.1688 46.5606 74.1732 46.7278L74.2982 46.7247C74.3025 46.8917 74.3063 47.059 74.3095 47.2266L74.1845 47.2287C74.1876 47.396 74.1902 47.5635 74.1922 47.7312L74.3171 47.7299Z" stroke="url(#paint0_linear_4925_2045)" stroke-width="0.25" stroke-dasharray="0.5 0.5"/>
    <path d="M49.2653 74.5401C49.0972 74.5418 48.929 74.5429 48.7605 74.5434L48.7599 74.4184C48.6758 74.4186 48.5917 74.4187 48.5075 74.4186C48.4233 74.4186 48.3391 74.4184 48.2551 74.418L48.2547 74.543C48.0862 74.5423 47.9179 74.5409 47.7499 74.539L47.7512 74.414C47.5835 74.412 47.416 74.4095 47.2487 74.4063L47.2466 74.5313C47.079 74.5281 46.9117 74.5243 46.7447 74.52L46.7478 74.395C46.5806 74.3906 46.4138 74.3857 46.2471 74.3801L46.2431 74.505C46.0746 74.4994 45.9062 74.4931 45.7382 74.4863L45.7431 74.3614C45.5754 74.3545 45.4079 74.3471 45.2407 74.339L45.2348 74.4638C45.0673 74.4558 44.9001 74.4471 44.7331 74.4378L44.7399 74.313C44.5732 74.3037 44.4068 74.2939 44.2407 74.2834L44.2331 74.4082C44.0647 74.3975 43.8966 74.3863 43.7288 74.3745L43.7375 74.2498C43.5698 74.238 43.4025 74.2256 43.2355 74.2125L43.226 74.3371C43.0586 74.3241 42.8916 74.3104 42.7249 74.2962L42.7354 74.1716C42.569 74.1574 42.4029 74.1425 42.2371 74.1271L42.2257 74.2516C42.058 74.2359 41.8907 74.2197 41.7237 74.2029L41.736 74.0785C41.5687 74.0617 41.4017 74.0442 41.2351 74.0261L41.2218 74.1504C41.0548 74.1323 40.8882 74.1136 40.7219 74.0942L40.7361 73.9701C40.5702 73.9508 40.4045 73.9309 40.2393 73.9104L40.2241 74.0345C40.0572 74.0138 39.8906 73.9925 39.7245 73.9706L39.7406 73.8467C39.5738 73.8247 39.4073 73.8021 39.2412 73.7789L39.2241 73.9027C39.0577 73.8794 38.8916 73.8556 38.726 73.8311L38.744 73.7074C38.5787 73.683 38.4137 73.658 38.2492 73.6324L38.2301 73.7559C38.0641 73.7301 37.8984 73.7036 37.7332 73.6766L37.7532 73.5532C37.5871 73.526 37.4213 73.4982 37.256 73.4698L37.235 73.5929C37.0693 73.5645 36.9041 73.5354 36.7392 73.5057L36.7612 73.3827C36.5967 73.353 36.4326 73.3228 36.2689 73.292L36.246 73.4148C36.0809 73.3837 35.9162 73.352 35.752 73.3197L35.776 73.197C35.6107 73.1645 35.4459 73.1314 35.2816 73.0976L35.2566 73.2201C35.0919 73.1862 34.9277 73.1518 34.7639 73.1168L34.7899 72.9946C34.6264 72.9596 34.4634 72.924 34.3009 72.8879L34.2739 73.0099C34.1099 72.9734 33.9463 72.9363 33.7832 72.8986L33.8112 72.7768C33.6471 72.7389 33.4835 72.7003 33.3203 72.6611L33.2913 72.7827C33.1279 72.7434 32.9649 72.7035 32.8024 72.6631L32.8324 72.5418C32.6703 72.5014 32.5087 72.4604 32.3475 72.4188L32.3165 72.5398C32.1536 72.4978 31.9912 72.4551 31.8293 72.4118L31.8614 72.2911C31.6987 72.2476 31.5366 72.2035 31.375 72.1587L31.3418 72.2792C31.1798 72.2344 31.0184 72.189 30.8575 72.1429L30.8917 72.0227C30.7312 71.9768 30.5712 71.9303 30.4117 71.8831L30.3764 72.003C30.2148 71.9552 30.0537 71.9067 29.8932 71.8577L29.9296 71.7382C29.7686 71.689 29.6082 71.6392 29.4483 71.5888L29.4109 71.708C29.2507 71.6575 29.0911 71.6063 28.9322 71.5546L28.9707 71.4357C28.8121 71.3841 28.654 71.3319 28.4966 71.279L28.457 71.3975C28.2967 71.3437 28.1371 71.2893 27.978 71.2343L28.0187 71.1162C27.8598 71.0612 27.7015 71.0055 27.5439 70.9493L27.502 71.067C27.344 71.0107 27.1866 70.9537 27.0299 70.8961L27.0729 70.7788C26.916 70.7211 26.7598 70.6629 26.6043 70.604L26.5602 70.7209C26.4019 70.661 26.2444 70.6005 26.0875 70.5394L26.1327 70.4229C25.9762 70.3619 25.8205 70.3003 25.6654 70.2381L25.619 70.3541C25.4635 70.2917 25.3087 70.2288 25.1547 70.1652L25.2022 70.0496C25.047 69.9856 24.8926 69.9209 24.7389 69.8556L24.6901 69.9706C24.5346 69.9046 24.3799 69.8379 24.2259 69.7706L24.2758 69.6561C24.1222 69.5889 23.9693 69.5212 23.8172 69.4528L23.7661 69.5668C23.6137 69.4983 23.462 69.4291 23.311 69.3594L23.3633 69.2459C23.2101 69.1751 23.0576 69.1036 22.9059 69.0315L22.8524 69.1444C22.7001 69.072 22.5487 68.9989 22.398 68.9253L22.4528 68.813C22.3026 68.7395 22.1532 68.6655 22.0047 68.5908L21.9487 68.7025C21.7985 68.627 21.6491 68.5508 21.5006 68.4741L21.5579 68.363C21.4081 68.2856 21.2592 68.2075 21.1111 68.1288L21.0526 68.2392C20.9041 68.1602 20.7565 68.0807 20.6099 68.0005L20.6697 67.8908C20.5235 67.8109 20.3781 67.7303 20.2337 67.6492L20.1726 67.7581C20.0248 67.6751 19.878 67.5914 19.7322 67.5071L19.7946 67.3989C19.6491 67.3147 19.5046 67.23 19.361 67.1446L19.2972 67.252C19.1532 67.1663 19.0102 67.0801 18.8682 66.9932L18.9333 66.8866C18.7899 66.7989 18.6476 66.7105 18.5062 66.6216L18.4398 66.7273C18.2967 66.6373 18.1548 66.5466 18.0138 66.4553L18.0817 66.3505C17.9412 66.2594 17.8018 66.1678 17.6635 66.0756L17.5942 66.1795C17.4546 66.0864 17.316 65.9927 17.1786 65.8983L17.2492 65.7953C17.1101 65.6998 16.972 65.6036 16.8352 65.5068L16.7631 65.6088C16.6257 65.5117 16.4895 65.4139 16.3545 65.3155L16.428 65.2145C16.2933 65.1164 16.1597 65.0176 16.0274 64.9182L15.9524 65.0182C15.8167 64.9163 15.6823 64.8138 15.549 64.7107L15.6255 64.6119C15.4927 64.5091 15.3613 64.4057 15.231 64.3017L15.1531 64.3993C15.0224 64.2949 14.8929 64.1899 14.7647 64.0842L14.8441 63.9878C14.7138 63.8805 14.5849 63.7725 14.4573 63.6639L14.3764 63.7591C14.248 63.6498 14.1209 63.5398 13.9951 63.4292L14.0776 63.3354C13.9523 63.2253 13.8284 63.1145 13.7059 63.0032L13.6219 63.0956C13.4967 62.9818 13.373 62.8674 13.2506 62.7523L13.3362 62.6613C13.2138 62.5462 13.0928 62.4305 12.9733 62.3141L12.8862 62.4036C12.7662 62.2867 12.6476 62.1692 12.5305 62.0511L12.6192 61.9632C12.5007 61.8436 12.3838 61.7234 12.2684 61.6026L12.178 61.6889C12.0615 61.5669 11.9464 61.4443 11.833 61.321L11.9249 61.2364C11.812 61.1138 11.7007 60.9905 11.5909 60.8665L11.4974 60.9494C11.3853 60.8227 11.2748 60.6955 11.166 60.5676L11.2611 60.4867C11.1523 60.3589 11.0452 60.2305 10.9398 60.1015L10.8431 60.1805C10.7372 60.0508 10.6329 59.9205 10.5304 59.7896L10.6288 59.7126C10.5249 59.58 10.4229 59.4468 10.3226 59.313L10.2227 59.3879C10.1216 59.2531 10.0224 59.1176 9.92503 58.9816L10.0266 58.9089C9.9297 58.7735 9.83459 58.6375 9.74132 58.5009L9.63813 58.5713C9.54264 58.4314 9.44906 58.2909 9.35743 58.1499L9.46223 58.0819C9.37112 57.9416 9.28194 57.8008 9.19471 57.6593L9.08835 57.7248C9.00022 57.582 8.91407 57.4385 8.82991 57.2944L8.93782 57.2315C8.85312 57.0865 8.77046 56.9409 8.68985 56.7948L8.58042 56.855C8.49931 56.7079 8.42027 56.5603 8.3433 56.4121L8.45422 56.3546C8.37718 56.2062 8.30226 56.0573 8.22947 55.9078L8.1171 55.9624C8.04331 55.8109 7.97169 55.6588 7.90227 55.5062L8.01604 55.4545C7.94707 55.3029 7.88028 55.1507 7.81569 54.998L7.70057 55.0465C7.63496 54.8914 7.57161 54.7357 7.51052 54.5794L7.62692 54.534C7.56613 54.3785 7.50759 54.2224 7.45136 54.0659L7.33373 54.108C7.27704 53.9501 7.22267 53.7918 7.17063 53.6329L7.28941 53.5941C7.23741 53.4353 7.18775 53.276 7.14047 53.1162L7.02061 53.1515C6.97299 52.9906 6.92775 52.8291 6.88492 52.6671L7.00576 52.6353C6.96319 52.4743 6.92301 52.3127 6.88526 52.1507L6.76352 52.1789C6.72543 52.0154 6.68978 51.8514 6.65661 51.687L6.77915 51.6624C6.74623 51.4992 6.71576 51.3355 6.68778 51.1714L6.56455 51.1922C6.53639 51.027 6.51072 50.8614 6.48757 50.6953L6.61137 50.6782C6.5884 50.5134 6.56793 50.3482 6.54997 50.1826L6.4257 50.1958C6.40763 50.0291 6.39209 49.862 6.3791 49.6944L6.50373 49.6849C6.49091 49.5195 6.48061 49.3537 6.47283 49.1875L6.34797 49.1932C6.34014 49.0257 6.33486 48.8579 6.33216 48.6897L6.45714 48.6878C6.4558 48.6044 6.45509 48.5208 6.45503 48.4371C6.45497 48.3535 6.45555 48.2699 6.45677 48.1864L6.33179 48.1844C6.33424 48.0162 6.33929 47.8484 6.34687 47.6809L6.47174 47.6867C6.47927 47.5206 6.48933 47.3548 6.5019 47.1894L6.37726 47.1798C6.39 47.0122 6.40529 46.8451 6.42312 46.6784L6.54742 46.6918C6.56513 46.5262 6.58536 46.361 6.60809 46.1963L6.48427 46.179C6.50718 46.013 6.5326 45.8474 6.56052 45.6822L6.68377 45.7032C6.71151 45.5391 6.74174 45.3755 6.77442 45.2123L6.65185 45.1876C6.68478 45.0232 6.72019 44.8592 6.75805 44.6958L6.87983 44.7242C6.91734 44.5622 6.95727 44.4007 6.99962 44.2398L6.87872 44.2078C6.92131 44.0459 6.96632 43.8845 7.01371 43.7236L7.13362 43.759C7.18067 43.5993 7.23009 43.4401 7.28187 43.2813L7.16302 43.2424C7.21483 43.0836 7.26897 42.9253 7.32542 42.7676L7.44312 42.8098C7.49913 42.6533 7.55743 42.4974 7.61801 42.3419L7.50152 42.2964C7.56238 42.1402 7.62552 41.9846 7.6909 41.8296L7.80609 41.8783C7.87045 41.7256 7.93702 41.5735 8.00577 41.422L7.89192 41.3702C7.96112 41.2177 8.03252 41.0657 8.10608 40.9143L8.21853 40.969C8.29111 40.8197 8.36581 40.6708 8.44263 40.5226L8.33163 40.4649C8.40837 40.3168 8.48721 40.1693 8.5681 40.0223L8.67762 40.0828C8.75802 39.9367 8.84047 39.7913 8.92496 39.6464L8.81695 39.5833C8.9009 39.4394 8.98684 39.296 9.07476 39.1533L9.18122 39.2189C9.26824 39.0776 9.35721 38.9369 9.44812 38.7968L9.34322 38.7286C9.43465 38.5877 9.52801 38.4473 9.62329 38.3076L9.72659 38.3782C9.81967 38.2417 9.91458 38.1058 10.0113 37.9706L9.9096 37.8978C10.0068 37.7618 10.1058 37.6265 10.2066 37.4919L10.3067 37.5669C10.4068 37.4332 10.5086 37.3002 10.6123 37.1678L10.5138 37.0906C10.6161 36.9599 10.7202 36.8297 10.8259 36.7002L10.9228 36.7793C11.028 36.6505 11.1349 36.5222 11.2435 36.3946L11.1482 36.3135C11.2568 36.1858 11.3671 36.0587 11.4791 35.9323L11.5727 36.0152C11.6823 35.8915 11.7934 35.7683 11.9062 35.6458L11.8141 35.5611C11.9274 35.438 12.0422 35.3155 12.1587 35.1937L12.2491 35.2801C12.3643 35.1595 12.4811 35.0395 12.5994 34.9201L12.5106 34.832C12.6275 34.7141 12.7459 34.5967 12.8658 34.48L12.953 34.5697C13.0724 34.4535 13.1931 34.3379 13.3154 34.223L13.2297 34.1318C13.3519 34.0169 13.4754 33.9027 13.6005 33.7891L13.6846 33.8817C13.807 33.7705 13.9307 33.6599 14.0558 33.55L13.9732 33.456C14.0988 33.3456 14.2257 33.2359 14.354 33.1267L14.4351 33.222C14.5625 33.1136 14.6912 33.0058 14.8213 32.8987L14.7418 32.8022C14.8698 32.6967 14.9992 32.5919 15.1297 32.4876L15.2078 32.5854C15.3379 32.4816 15.4692 32.3784 15.6018 32.2758L15.5252 32.1769C15.6583 32.0739 15.7926 31.9716 15.9282 31.8699L16.0033 31.97C16.1355 31.8708 16.2689 31.7722 16.4034 31.6743L16.3298 31.5732C16.4647 31.475 16.6008 31.3774 16.738 31.2805L16.8102 31.3826C16.9469 31.286 17.0848 31.1901 17.2238 31.0947L17.153 30.9916C17.2904 30.8974 17.4288 30.8039 17.5683 30.711L17.6377 30.815C17.7759 30.723 17.9152 30.6316 18.0555 30.5408L17.9875 30.4358C18.1283 30.3447 18.2701 30.2542 18.413 30.1644L18.4797 30.2703C18.6209 30.1815 18.7631 30.0934 18.9063 30.0059L18.841 29.8992C18.983 29.8125 19.1259 29.7264 19.2697 29.641L19.3337 29.7485C19.4771 29.6633 19.6215 29.5788 19.7669 29.4949L19.7043 29.3866C19.85 29.3025 19.9967 29.219 20.1444 29.1362L20.2056 29.2452C20.3499 29.1642 20.4951 29.0839 20.6413 29.0042L20.5813 28.8944C20.7278 28.8144 20.8753 28.7351 21.0236 28.6564L21.0823 28.7668C21.2303 28.6883 21.3791 28.6105 21.5288 28.5333L21.4713 28.4221C21.6197 28.3456 21.769 28.2697 21.919 28.1944L21.9752 28.3061C22.1236 28.2317 22.2729 28.1578 22.423 28.0846L22.3681 27.9723C22.5186 27.8988 22.6699 27.826 22.8221 27.7538L22.8758 27.8668C23.0274 27.7949 23.1797 27.7236 23.3329 27.653L23.2805 27.5395C23.4313 27.4699 23.5829 27.401 23.7352 27.3327L23.7865 27.4468C23.9385 27.3786 24.0912 27.3111 24.2447 27.2442L24.1947 27.1296C24.3486 27.0625 24.5032 26.9961 24.6586 26.9302L24.7075 27.0454C24.8612 26.9803 25.0155 26.9158 25.1706 26.852L25.1229 26.7364C25.2769 26.673 25.4316 26.6103 25.5869 26.5481L25.6335 26.6642C25.7885 26.6022 25.9442 26.5408 26.1006 26.4801L26.0552 26.3635C26.212 26.3026 26.3694 26.2424 26.5276 26.1827L26.5719 26.2997C26.7273 26.241 26.8834 26.183 27.0402 26.1256L26.9971 26.0082C27.1537 25.9509 27.311 25.8941 27.4689 25.838L27.511 25.9558C27.6685 25.8997 27.8267 25.8444 27.9856 25.7896L27.9447 25.6714C28.1036 25.6166 28.2632 25.5624 28.4234 25.5088L28.4632 25.6274C28.6206 25.5748 28.7785 25.5228 28.9371 25.4714L28.8984 25.3525C29.0573 25.301 29.2168 25.2501 29.3769 25.1998L29.4145 25.319C29.5742 25.2689 29.7346 25.2193 29.8955 25.1704L29.859 25.0508C30.0194 25.002 30.1804 24.9538 30.342 24.9062L30.3775 25.0261C30.5368 24.9792 30.6968 24.9329 30.8572 24.8872L30.8228 24.767C30.9836 24.7212 31.145 24.676 31.3069 24.6314L31.3403 24.7519C31.5018 24.7074 31.6639 24.6635 31.8266 24.6203L31.7943 24.4995C31.9561 24.4564 32.1184 24.414 32.2812 24.3722L32.3125 24.4933C32.4736 24.4519 32.6351 24.4111 32.7972 24.371L32.767 24.2497C32.9294 24.2094 33.0923 24.1698 33.2557 24.1308L33.2849 24.2524C33.448 24.2134 33.6116 24.1751 33.7756 24.1374L33.7475 24.0156C33.9105 23.9781 34.074 23.9412 34.238 23.905L34.2651 24.027C34.4276 23.9911 34.5906 23.9558 34.754 23.9211L34.7278 23.7988C34.8916 23.764 35.0557 23.7298 35.2204 23.6963L35.2455 23.8187C35.4098 23.7852 35.5746 23.7523 35.7398 23.7201L35.7157 23.5974C35.8798 23.5653 36.0444 23.5338 36.2095 23.503L36.2326 23.6258C36.3962 23.5952 36.5603 23.5652 36.7248 23.5358L36.7026 23.4128C36.8674 23.3833 37.0326 23.3545 37.1982 23.3263L37.2194 23.4495C37.3847 23.4213 37.5504 23.3937 37.7165 23.3668L37.6963 23.2434C37.8615 23.2166 38.0271 23.1904 38.1931 23.1648L38.2123 23.2883C38.3769 23.2629 38.5418 23.2382 38.7071 23.214L38.6889 23.0903C38.8545 23.0661 39.0205 23.0425 39.1869 23.0195L39.2042 23.1433C39.3702 23.1203 39.5367 23.098 39.7035 23.0762L39.6871 22.9523C39.8533 22.9306 40.0198 22.9096 40.1867 22.8891L40.202 23.0132C40.3673 22.9929 40.5329 22.9733 40.6988 22.9543L40.6844 22.8301C40.8506 22.811 41.0172 22.7925 41.1842 22.7747L41.1977 22.8989C41.3643 22.8811 41.5312 22.8639 41.6985 22.8473L41.686 22.7229C41.853 22.7063 42.0203 22.6903 42.188 22.6749L42.1996 22.7994C42.3653 22.7842 42.5314 22.7696 42.6978 22.7556L42.6871 22.6311C42.8538 22.617 43.0208 22.6036 43.1881 22.5908L43.1978 22.7155C43.3648 22.7027 43.5321 22.6905 43.6997 22.6789L43.6909 22.5542C43.8587 22.5426 44.0268 22.5316 44.1951 22.5213L44.203 22.646C44.369 22.6358 44.5354 22.6262 44.7021 22.6172L44.6951 22.4924C44.8621 22.4833 45.0293 22.4749 45.1968 22.467L45.2028 22.5919C45.37 22.5841 45.5375 22.5769 45.7052 22.5703L45.7001 22.4454C45.8682 22.4388 46.0365 22.4327 46.2051 22.4274L46.2092 22.5523C46.3758 22.547 46.5427 22.5422 46.7098 22.5381L46.7066 22.4131C46.8736 22.409 47.0409 22.4055 47.2084 22.4026L47.2108 22.5275C47.378 22.5246 47.5455 22.5223 47.7132 22.5206L47.7118 22.3956C47.8798 22.3939 48.048 22.3928 48.2165 22.3923L48.2171 22.5173C48.3012 22.5171 48.3853 22.517 48.4695 22.517C48.5537 22.5171 48.6379 22.5173 48.722 22.5177L48.7223 22.3927C48.8908 22.3934 49.0591 22.3948 49.2271 22.3967L49.2258 22.5217C49.3936 22.5237 49.561 22.5262 49.7283 22.5294L49.7305 22.4044C49.898 22.4076 50.0653 22.4113 50.2323 22.4157L50.2293 22.5407C50.3964 22.545 50.5633 22.55 50.7299 22.5556L50.7339 22.4307C50.9025 22.4363 51.0708 22.4426 51.2388 22.4494L51.2339 22.5743C51.4017 22.5812 51.5692 22.5886 51.7364 22.5967L51.7422 22.4718C51.9097 22.4799 52.077 22.4886 52.2439 22.4979L52.2372 22.6227C52.4038 22.632 52.5702 22.6418 52.7363 22.6523L52.744 22.5275C52.9123 22.5381 53.0804 22.5494 53.2482 22.5612L53.2396 22.6859C53.4072 22.6977 53.5745 22.7101 53.7415 22.7232L53.7511 22.5985C53.9184 22.6116 54.0854 22.6253 54.2521 22.6395L54.2416 22.7641C54.408 22.7783 54.5741 22.7931 54.7399 22.8086L54.7513 22.6841C54.919 22.6997 55.0863 22.716 55.2534 22.7328L55.241 22.8572C55.4083 22.874 55.5753 22.8915 55.742 22.9096L55.7553 22.7853C55.9222 22.8034 56.0889 22.8221 56.2551 22.8414L56.2409 22.9656C56.4069 22.9849 56.5725 23.0048 56.7378 23.0253L56.753 22.9012C56.9199 22.9219 57.0864 22.9432 57.2526 22.9651L57.2364 23.089C57.4032 23.111 57.5697 23.1336 57.7358 23.1568L57.7529 23.033C57.9193 23.0563 58.0854 23.0801 58.2511 23.1046L58.233 23.2282C58.3983 23.2527 58.5633 23.2777 58.7279 23.3033L58.7469 23.1798C58.9129 23.2056 59.0786 23.2321 59.2438 23.2591L59.2238 23.3825C59.3899 23.4097 59.5557 23.4375 59.721 23.4659L59.742 23.3427C59.9077 23.3712 60.073 23.4003 60.2378 23.43L60.2158 23.553C60.3803 23.5827 60.5444 23.6129 60.7081 23.6437L60.7311 23.5209C60.8961 23.552 61.0608 23.5837 61.225 23.616L61.201 23.7387C61.3663 23.7712 61.5311 23.8043 61.6954 23.8381L61.7204 23.7156C61.8851 23.7494 62.0494 23.7839 62.2131 23.8189L62.1872 23.9411C62.3506 23.9761 62.5136 24.0116 62.6761 24.0478L62.7031 23.9258C62.8672 23.9623 63.0307 23.9994 63.1938 24.0371L63.1658 24.1589C63.3299 24.1968 63.4935 24.2354 63.6567 24.2746L63.6857 24.153C63.8492 24.1923 64.0121 24.2321 64.1746 24.2726L64.1446 24.3939C64.3067 24.4343 64.4683 24.4753 64.6295 24.5169L64.6606 24.3959C64.8235 24.4379 64.9858 24.4806 65.1477 24.5238L65.1156 24.6446C65.2783 24.6881 65.4404 24.7322 65.6021 24.7769L65.6352 24.6565C65.7972 24.7013 65.9587 24.7467 66.1195 24.7928L66.0853 24.9129C66.2459 24.9589 66.4058 25.0054 66.5653 25.0526L66.6006 24.9327C66.7622 24.9805 66.9233 25.0289 67.0838 25.078L67.0475 25.1975C67.2085 25.2467 67.3689 25.2965 67.5287 25.3469L67.5661 25.2277C67.7263 25.2782 67.8859 25.3293 68.0449 25.3811L68.0063 25.4999C68.165 25.5516 68.323 25.6038 68.4804 25.6566L68.52 25.5381C68.6803 25.5919 68.84 25.6464 68.999 25.7014L68.9583 25.8195C69.1172 25.8745 69.2755 25.9301 69.4332 25.9864L69.475 25.8687C69.633 25.925 69.7904 25.982 69.9471 26.0396L69.9042 26.1569C70.061 26.2146 70.2172 26.2728 70.3727 26.3317L70.4168 26.2148C70.5751 26.2747 70.7327 26.3352 70.8895 26.3963L70.8443 26.5128C71.0008 26.5737 71.1566 26.6354 71.3117 26.6976L71.3581 26.5816C71.5135 26.6439 71.6683 26.7069 71.8224 26.7705L71.7748 26.886C71.93 26.9501 72.0844 27.0148 72.2382 27.0801L72.2869 26.965C72.4424 27.0311 72.5972 27.0978 72.7512 27.1651L72.7013 27.2796C72.8549 27.3467 73.0077 27.4145 73.1598 27.4828L73.2109 27.3689C73.3634 27.4374 73.5151 27.5065 73.666 27.5763L73.6137 27.6898C73.767 27.7606 73.9194 27.8321 74.0711 27.9042L74.1246 27.7913C74.2769 27.8637 74.4284 27.9368 74.579 28.0104L74.5242 28.1227C74.6744 28.1961 74.8238 28.2702 74.9723 28.3449L75.0283 28.2332C75.1785 28.3087 75.3279 28.3849 75.4764 28.4616L75.4191 28.5726C75.5689 28.6501 75.7179 28.7282 75.8659 28.8069L75.9245 28.6965C76.0729 28.7754 76.2205 28.855 76.3672 28.9352L76.3073 29.0448C76.4536 29.1248 76.5989 29.2053 76.7433 29.2865L76.8044 29.1776C76.9522 29.2606 77.099 29.3443 77.2448 29.4286L77.1824 29.5368C77.3279 29.621 77.4724 29.7057 77.616 29.7911L77.6798 29.6837C77.8238 29.7693 77.9668 29.8556 78.1088 29.9425L78.0437 30.0491C78.1871 30.1368 78.3294 30.2251 78.4708 30.3141L78.5373 30.2083C78.6803 30.2984 78.8223 30.3891 78.9632 30.4804L78.8953 30.5852C79.0358 30.6762 79.1752 30.7679 79.3135 30.8601L79.3828 30.7561C79.5224 30.8493 79.661 30.943 79.7985 31.0374L79.7278 31.1404C79.867 31.2359 80.005 31.3321 80.1419 31.4289L80.2139 31.3269C80.3513 31.424 80.4875 31.5218 80.6226 31.6202L80.5491 31.7212C80.6838 31.8193 80.8173 31.9181 80.9497 32.0174L81.0246 31.9175C81.1603 32.0194 81.2948 32.1219 81.428 32.225L81.3515 32.3238C81.4843 32.4266 81.6158 32.53 81.746 32.634L81.8239 32.5364C81.9547 32.6408 82.0841 32.7458 82.2124 32.8515L82.133 32.9479C82.2632 33.0552 82.3921 33.1632 82.5197 33.2718L82.6006 33.1766C82.7291 33.2859 82.8562 33.3959 82.9819 33.5065L82.8995 33.6003C83.0247 33.7104 83.1486 33.8212 83.2711 33.9325L83.3551 33.8401C83.4803 33.9539 83.6041 34.0683 83.7264 34.1833L83.6408 34.2743C83.7632 34.3895 83.8842 34.5052 84.0037 34.6216L84.0908 34.5321C84.2109 34.649 84.3294 34.7665 84.4465 34.8846L84.3578 34.9725C84.4763 35.0921 84.5932 35.2122 84.7087 35.333L84.799 35.2468C84.9156 35.3688 85.0306 35.4914 85.144 35.6147L85.0521 35.6992C85.165 35.8219 85.2764 35.9452 85.3861 36.0691L85.4796 35.9863C85.5918 36.1129 85.7022 36.2402 85.8111 36.368L85.7159 36.449C85.8247 36.5768 85.9318 36.7052 86.0372 36.8342L86.1339 36.7552C86.2399 36.8849 86.3441 37.0152 86.4466 37.1461L86.3483 37.2231C86.4521 37.3557 86.5541 37.4889 86.6544 37.6227L86.7544 37.5478C86.8554 37.6826 86.9546 37.8181 87.052 37.9541L86.9504 38.0268C87.0473 38.1622 87.1424 38.2982 87.2357 38.4348L87.3389 38.3644C87.4344 38.5043 87.528 38.6447 87.6196 38.7858L87.5148 38.8538C87.6059 38.9941 87.6951 39.1349 87.7823 39.2763L87.8887 39.2108C87.9768 39.3537 88.0629 39.4972 88.1471 39.6413L88.0392 39.7042C88.1239 39.8492 88.2066 39.9948 88.2872 40.1409L88.3966 40.0807C88.4777 40.2277 88.5568 40.3754 88.6337 40.5236L88.5228 40.5811C88.5998 40.7295 88.6748 40.8784 88.7476 41.0279L88.8599 40.9733C88.9337 41.1248 89.0053 41.2769 89.0748 41.4295L88.961 41.4811C89.0299 41.6328 89.0967 41.785 89.1613 41.9377L89.2764 41.8892C89.3421 42.0443 89.4054 42.2 89.4665 42.3563L89.3501 42.4017C89.4109 42.5572 89.4694 42.7132 89.5257 42.8698L89.6433 42.8277C89.7 42.9855 89.7544 43.1439 89.8064 43.3028L89.6876 43.3416C89.7396 43.5003 89.7893 43.6596 89.8366 43.8195L89.9564 43.7842C90.004 43.9451 90.0493 44.1066 90.0921 44.2686L89.9713 44.3004C90.0138 44.4614 90.054 44.623 90.0918 44.785L90.2135 44.7568C90.2516 44.9203 90.2872 45.0842 90.3204 45.2487L90.1979 45.2732C90.2308 45.4365 90.2613 45.6002 90.2892 45.7643L90.4125 45.7435C90.4406 45.9087 90.4663 46.0743 90.4895 46.2404L90.3656 46.2575C90.3886 46.4223 90.4091 46.5875 90.4271 46.7531L90.5513 46.7398C90.5694 46.9066 90.5849 47.0737 90.5979 47.2413L90.4733 47.2508C90.4861 47.4162 90.4964 47.582 90.5042 47.7481L90.629 47.7425C90.6369 47.9099 90.6422 48.0778 90.6449 48.246L90.5199 48.2479C90.5212 48.3313 90.5219 48.4149 90.522 48.4986C90.522 48.5822 90.5215 48.6658 90.5202 48.7492L90.6452 48.7512C90.6428 48.9195 90.6377 49.0873 90.6302 49.2548L90.5053 49.2489C90.4978 49.4151 90.4877 49.5809 90.4751 49.7463L90.5998 49.7559C90.587 49.9235 90.5717 50.0906 90.5539 50.2573L90.4296 50.2438C90.4119 50.4095 90.3917 50.5746 90.3689 50.7394L90.4928 50.7567C90.4698 50.9227 90.4444 51.0883 90.4165 51.2535L90.2932 51.2325C90.2655 51.3966 90.2353 51.5602 90.2026 51.7234L90.3252 51.7481C90.2922 51.9125 90.2568 52.0764 90.219 52.2399L90.0972 52.2115C90.0597 52.3735 90.0197 52.5349 89.9774 52.6959L90.0983 52.7279C90.0557 52.8898 90.0107 53.0512 89.9633 53.2121L89.8434 53.1766C89.7964 53.3364 89.7469 53.4956 89.6952 53.6543L89.814 53.6933C89.7622 53.8521 89.708 54.0104 89.6516 54.1681L89.5339 54.1258C89.4779 54.2823 89.4196 54.4383 89.359 54.5937L89.4755 54.6393C89.4146 54.7954 89.3515 54.9511 89.2861 55.1061L89.1709 55.0574C89.1066 55.21 89.04 55.3621 88.9712 55.5137L89.0851 55.5655C89.0159 55.718 88.9445 55.87 88.8709 56.0214L88.7585 55.9666C88.6859 56.116 88.6112 56.2648 88.5344 56.4131L88.6454 56.4707C88.5686 56.6189 88.4898 56.7664 88.4089 56.9133L88.2994 56.8529C88.219 56.999 88.1366 57.1444 88.0521 57.2893L88.1601 57.3524C88.0761 57.4963 87.9902 57.6397 87.9023 57.7824L87.7958 57.7168C87.7088 57.8581 87.6198 57.9988 87.5289 58.1389L87.6338 58.2071C87.5424 58.348 87.449 58.4883 87.3537 58.628L87.2504 58.5575C87.1574 58.694 87.0624 58.8298 86.9657 58.9651L87.0674 59.0379C86.9702 59.1738 86.8712 59.3091 86.7704 59.4438L86.6703 59.3688C86.5702 59.5025 86.4684 59.6355 86.3648 59.7679L86.4632 59.8451C86.3609 59.9758 86.2569 60.106 86.1511 60.2355L86.0542 60.1564C85.949 60.2852 85.8421 60.4135 85.7336 60.5411L85.8288 60.6222C85.7202 60.7499 85.6099 60.877 85.4979 61.0034L85.4043 60.9205C85.2947 61.0442 85.1836 61.1674 85.0708 61.2899L85.1629 61.3746C85.0496 61.4977 84.9348 61.6202 84.8184 61.742L84.7279 61.6556C84.6127 61.7762 84.4959 61.8962 84.3776 62.0156L84.4664 62.1036C84.3495 62.2216 84.2311 62.3389 84.1113 62.4556L84.024 62.366C83.9047 62.4822 83.7839 62.5978 83.6616 62.7127L83.7473 62.8039C83.6252 62.9187 83.5016 63.033 83.3766 63.1466L83.2924 63.054C83.1701 63.1652 83.0463 63.2758 82.9212 63.3857L83.0039 63.4797C82.8783 63.59 82.7513 63.6998 82.623 63.8089L82.542 63.7137C82.4145 63.8221 82.2858 63.9298 82.1557 64.037L82.2353 64.1335C82.1072 64.239 81.9779 64.3438 81.8473 64.448L81.7692 64.3503C81.6391 64.4541 81.5078 64.5573 81.3752 64.6599L81.4518 64.7588C81.3187 64.8618 81.1844 64.9641 81.0489 65.0657L80.9738 64.9657C80.8415 65.0649 80.7081 65.1634 80.5736 65.2614L80.6473 65.3625C80.5123 65.4607 80.3763 65.5583 80.2391 65.6552L80.1668 65.5531C80.0301 65.6497 79.8922 65.7456 79.7532 65.841L79.824 65.9441C79.6867 66.0383 79.5482 66.1318 79.4087 66.2247L79.3393 66.1206C79.2011 66.2127 79.0619 66.3041 78.9215 66.3949L78.9895 66.4999C78.8488 66.591 78.7069 66.6814 78.564 66.7713L78.4974 66.6654C78.3562 66.7542 78.2139 66.8423 78.0707 66.9298L78.136 67.0365C77.9941 67.1232 77.8512 67.2092 77.7073 67.2947L77.6433 67.1872C77.4999 67.2723 77.3555 67.3569 77.2101 67.4408L77.2727 67.5491C77.127 67.6332 76.9803 67.7167 76.8327 67.7995L76.7714 67.6905C76.6271 67.7715 76.4819 67.8518 76.3358 67.9315L76.3958 68.0413C76.2492 68.1212 76.1018 68.2006 75.9534 68.2793L75.8947 68.1688C75.7468 68.2473 75.5979 68.3252 75.4482 68.4024L75.5057 68.5135C75.3573 68.5901 75.2081 68.666 75.058 68.7413L75.0018 68.6295C74.8534 68.704 74.7041 68.7778 74.554 68.8511L74.6089 68.9634C74.4584 69.0369 74.3071 69.1097 74.1549 69.1818L74.1012 69.0689C73.9496 69.1408 73.7973 69.212 73.6441 69.2827L73.6966 69.3962C73.5457 69.4657 73.3941 69.5347 73.2418 69.603L73.1905 69.4889C73.0385 69.557 72.8858 69.6246 72.7323 69.6915L72.7824 69.8061C72.6285 69.8732 72.4738 69.9396 72.3184 70.0054L72.2695 69.8903C72.1159 69.9554 71.9615 70.0199 71.8064 70.0837L71.8541 70.1993C71.7002 70.2627 71.5455 70.3254 71.3901 70.3876L71.3435 70.2715C71.1885 70.3335 71.0328 70.3949 70.8764 70.4556L70.9218 70.5721C70.7651 70.633 70.6076 70.6933 70.4494 70.753L70.4051 70.636C70.2497 70.6946 70.0936 70.7527 69.9368 70.8101L69.9799 70.9275C69.8233 70.9848 69.666 71.0416 69.5081 71.0977L69.4661 70.9799C69.3085 71.0359 69.1503 71.0913 68.9914 71.1461L69.0323 71.2643C68.8734 71.3191 68.7138 71.3733 68.5536 71.4268L68.5138 71.3083C68.3565 71.3609 68.1985 71.4129 68.04 71.4643L68.0787 71.5832C67.9197 71.6347 67.7602 71.6856 67.6001 71.7359L67.5625 71.6166C67.4028 71.6668 67.2424 71.7164 67.0815 71.7653L67.1181 71.8849C66.9576 71.9337 66.7966 71.9819 66.635 72.0295L66.5996 71.9096C66.4402 71.9565 66.2803 72.0028 66.1198 72.0485L66.1542 72.1687C65.9934 72.2145 65.832 72.2597 65.6701 72.3043L65.6367 72.1838C65.4752 72.2283 65.3131 72.2722 65.1504 72.3154L65.1827 72.4362C65.0209 72.4793 64.8586 72.5217 64.6958 72.5635L64.6645 72.4424C64.5035 72.4838 64.3419 72.5245 64.1798 72.5647L64.21 72.686C64.0476 72.7263 63.8847 72.7659 63.7213 72.8049L63.6921 72.6833C63.529 72.7222 63.3654 72.7606 63.2014 72.7983L63.2296 72.9201C63.0665 72.9576 62.903 72.9944 62.739 73.0307L62.7119 72.9087C62.5494 72.9446 62.3865 72.9799 62.2231 73.0146L62.2492 73.1369C62.0855 73.1717 61.9213 73.2059 61.7566 73.2394L61.7315 73.1169C61.5672 73.1504 61.4024 73.1833 61.2372 73.2156L61.2614 73.3383C61.0972 73.3704 60.9326 73.4018 60.7676 73.4327L60.7444 73.3098C60.5808 73.3404 60.4167 73.3704 60.2523 73.3998L60.2744 73.5229C60.1096 73.5523 59.9444 73.5812 59.7788 73.6094L59.7576 73.4862C59.5923 73.5144 59.4266 73.542 59.2605 73.5689L59.2807 73.6923C59.1155 73.7191 58.9499 73.7453 58.7839 73.7709L58.7647 73.6474C58.6001 73.6728 58.4352 73.6975 58.2699 73.7217L58.2882 73.8454C58.1225 73.8696 57.9565 73.8932 57.7901 73.9162L57.7728 73.7924C57.6068 73.8154 57.4403 73.8377 57.2735 73.8595L57.2899 73.9834C57.1237 74.0051 56.9572 74.0261 56.7904 74.0466L56.775 73.9225C56.6097 73.9427 56.4441 73.9624 56.2782 73.9814L56.2926 74.1056C56.1264 74.1247 55.9598 74.1432 55.7928 74.161L55.7794 74.0367C55.6127 74.0546 55.4458 74.0718 55.2785 74.0884L55.291 74.2128C55.124 74.2294 54.9567 74.2454 54.789 74.2607L54.7775 74.1363C54.6117 74.1515 54.4456 74.1661 54.2793 74.1801L54.2899 74.3046C54.1232 74.3186 53.9562 74.332 53.7889 74.3449L53.7792 74.2202C53.6122 74.233 53.4449 74.2452 53.2773 74.2568L53.2861 74.3815C53.1183 74.3931 52.9503 74.404 52.7819 74.4144L52.774 74.2896C52.608 74.2999 52.4416 74.3095 52.275 74.3185L52.2819 74.4433C52.115 74.4524 51.9477 74.4608 51.7802 74.4686L51.7742 74.3438C51.607 74.3516 51.4395 74.3588 51.2718 74.3654L51.2769 74.4903C51.1089 74.4969 50.9405 74.5029 50.772 74.5083L50.7678 74.3834C50.6012 74.3887 50.4343 74.3935 50.2672 74.3976L50.2705 74.5225C50.1034 74.5267 49.9361 74.5302 49.7686 74.5331L49.7662 74.4081C49.599 74.4111 49.4315 74.4134 49.2638 74.4151L49.2653 74.5401Z" stroke="url(#paint1_linear_4925_2045)" stroke-width="0.25" stroke-dasharray="0.5 0.5"/>
    <rect x="44" y="44" width="1" height="31.5071" rx="0.5" fill="url(#paint2_linear_4925_2045)"/>
    <g filter="url(#filter0_d_4925_2045)">
        <path d="M44 44.5C44 44.2239 44.2239 44 44.5 44C44.7761 44 45 44.2239 45 44.5V50.5C45 50.7761 44.7761 51 44.5 51C44.2239 51 44 50.7761 44 50.5V44.5Z" fill="#632BFF"/>
    </g>
    <rect x="48" y="44" width="1" height="45" rx="0.5" fill="url(#paint3_linear_4925_2045)"/>
    <g filter="url(#filter1_d_4925_2045)">
        <path d="M48 44.5C48 44.2239 48.2239 44 48.5 44C48.7761 44 49 44.2239 49 44.5V53.5C49 53.7761 48.7761 54 48.5 54C48.2239 54 48 53.7761 48 53.5V44.5Z" fill="#632BFF"/>
    </g>
    <rect x="52" y="44" width="1" height="31.5071" rx="0.5" fill="url(#paint4_linear_4925_2045)"/>
    <g filter="url(#filter2_d_4925_2045)">
        <path d="M52 44.5C52 44.2239 52.2239 44 52.5 44C52.7761 44 53 44.2239 53 44.5V50.5016C53 50.7777 52.7761 51.0016 52.5 51.0016C52.2239 51.0016 52 50.7777 52 50.5016V44.5Z" fill="#632BFF"/>
    </g>
    <rect x="51" y="51" width="1" height="45" rx="0.500002" transform="rotate(-180 51 51)" fill="url(#paint5_linear_4925_2045)"/>
    <g filter="url(#filter3_d_4925_2045)">
        <path d="M51 50.5C51 50.7761 50.7761 51 50.5 51C50.2239 51 50 50.7761 50 50.5L50 41.5C50 41.2239 50.2239 41 50.5 41C50.7761 41 51 41.2239 51 41.5L51 50.5Z" fill="#53FDA9"/>
    </g>
    <rect x="47" y="51" width="1" height="45" rx="0.5" transform="rotate(-180 47 51)" fill="url(#paint6_linear_4925_2045)"/>
    <g filter="url(#filter4_d_4925_2045)">
        <path d="M47 50.5C47 50.7761 46.7761 51 46.5 51C46.2239 51 46 50.7761 46 50.5L46 41.5C46 41.2239 46.2239 41 46.5 41C46.7761 41 47 41.2239 47 41.5L47 50.5Z" fill="#53FDA9"/>
    </g>
    <rect x="43" y="51" width="1" height="31.5071" rx="0.5" transform="rotate(-180 43 51)" fill="url(#paint7_linear_4925_2045)"/>
    <g filter="url(#filter5_d_4925_2045)">
        <path d="M43 50.5C43 50.7761 42.7761 51 42.5 51C42.2239 51 42 50.7761 42 50.5L42 44.4984C42 44.2223 42.2239 43.9984 42.5 43.9984C42.7761 43.9984 43 44.2223 43 44.4984L43 50.5Z" fill="#53FDA9"/>
    </g>
    <rect x="55" y="51" width="1" height="31.5071" rx="0.5" transform="rotate(-180 55 51)" fill="url(#paint8_linear_4925_2045)"/>
    <g filter="url(#filter6_d_4925_2045)">
        <path d="M55 50.5C55 50.7761 54.7761 51 54.5 51C54.2239 51 54 50.7761 54 50.5L54 44.4984C54 44.2223 54.2239 43.9984 54.5 43.9984C54.7761 43.9984 55 44.2223 55 44.4984L55 50.5Z" fill="#53FDA9"/>
    </g>
    <defs>
        <filter id="filter0_d_4925_2045" x="40" y="40" width="9" height="15" filterUnits="userSpaceOnUse" color-interpolation-filters="sRGB">
            <feFlood flood-opacity="0" result="BackgroundImageFix"/>
            <feColorMatrix in="SourceAlpha" type="matrix" values="0 0 0 0 0 0 0 0 0 0 0 0 0 0 0 0 0 0 127 0" result="hardAlpha"/>
            <feOffset/>
            <feGaussianBlur stdDeviation="2"/>
            <feComposite in2="hardAlpha" operator="out"/>
            <feColorMatrix type="matrix" values="0 0 0 0 0.388235 0 0 0 0 0.168627 0 0 0 0 1 0 0 0 1 0"/>
            <feBlend mode="normal" in2="BackgroundImageFix" result="effect1_dropShadow_4925_2045"/>
            <feBlend mode="normal" in="SourceGraphic" in2="effect1_dropShadow_4925_2045" result="shape"/>
        </filter>
        <filter id="filter1_d_4925_2045" x="44" y="40" width="9" height="18" filterUnits="userSpaceOnUse" color-interpolation-filters="sRGB">
            <feFlood flood-opacity="0" result="BackgroundImageFix"/>
            <feColorMatrix in="SourceAlpha" type="matrix" values="0 0 0 0 0 0 0 0 0 0 0 0 0 0 0 0 0 0 127 0" result="hardAlpha"/>
            <feOffset/>
            <feGaussianBlur stdDeviation="2"/>
            <feComposite in2="hardAlpha" operator="out"/>
            <feColorMatrix type="matrix" values="0 0 0 0 0.388235 0 0 0 0 0.168627 0 0 0 0 1 0 0 0 1 0"/>
            <feBlend mode="normal" in2="BackgroundImageFix" result="effect1_dropShadow_4925_2045"/>
            <feBlend mode="normal" in="SourceGraphic" in2="effect1_dropShadow_4925_2045" result="shape"/>
        </filter>
        <filter id="filter2_d_4925_2045" x="48" y="40" width="9" height="15.002" filterUnits="userSpaceOnUse" color-interpolation-filters="sRGB">
            <feFlood flood-opacity="0" result="BackgroundImageFix"/>
            <feColorMatrix in="SourceAlpha" type="matrix" values="0 0 0 0 0 0 0 0 0 0 0 0 0 0 0 0 0 0 127 0" result="hardAlpha"/>
            <feOffset/>
            <feGaussianBlur stdDeviation="2"/>
            <feComposite in2="hardAlpha" operator="out"/>
            <feColorMatrix type="matrix" values="0 0 0 0 0.388235 0 0 0 0 0.168627 0 0 0 0 1 0 0 0 1 0"/>
            <feBlend mode="normal" in2="BackgroundImageFix" result="effect1_dropShadow_4925_2045"/>
            <feBlend mode="normal" in="SourceGraphic" in2="effect1_dropShadow_4925_2045" result="shape"/>
        </filter>
        <filter id="filter3_d_4925_2045" x="46" y="37" width="9" height="18" filterUnits="userSpaceOnUse" color-interpolation-filters="sRGB">
            <feFlood flood-opacity="0" result="BackgroundImageFix"/>
            <feColorMatrix in="SourceAlpha" type="matrix" values="0 0 0 0 0 0 0 0 0 0 0 0 0 0 0 0 0 0 127 0" result="hardAlpha"/>
            <feOffset/>
            <feGaussianBlur stdDeviation="2"/>
            <feComposite in2="hardAlpha" operator="out"/>
            <feColorMatrix type="matrix" values="0 0 0 0 0.32549 0 0 0 0 0.992157 0 0 0 0 0.662745 0 0 0 1 0"/>
            <feBlend mode="normal" in2="BackgroundImageFix" result="effect1_dropShadow_4925_2045"/>
            <feBlend mode="normal" in="SourceGraphic" in2="effect1_dropShadow_4925_2045" result="shape"/>
        </filter>
        <filter id="filter4_d_4925_2045" x="42" y="37" width="9" height="18" filterUnits="userSpaceOnUse" color-interpolation-filters="sRGB">
            <feFlood flood-opacity="0" result="BackgroundImageFix"/>
            <feColorMatrix in="SourceAlpha" type="matrix" values="0 0 0 0 0 0 0 0 0 0 0 0 0 0 0 0 0 0 127 0" result="hardAlpha"/>
            <feOffset/>
            <feGaussianBlur stdDeviation="2"/>
            <feComposite in2="hardAlpha" operator="out"/>
            <feColorMatrix type="matrix" values="0 0 0 0 0.32549 0 0 0 0 0.992157 0 0 0 0 0.662745 0 0 0 1 0"/>
            <feBlend mode="normal" in2="BackgroundImageFix" result="effect1_dropShadow_4925_2045"/>
            <feBlend mode="normal" in="SourceGraphic" in2="effect1_dropShadow_4925_2045" result="shape"/>
        </filter>
        <filter id="filter5_d_4925_2045" x="38" y="39.998" width="9" height="15.002" filterUnits="userSpaceOnUse" color-interpolation-filters="sRGB">
            <feFlood flood-opacity="0" result="BackgroundImageFix"/>
            <feColorMatrix in="SourceAlpha" type="matrix" values="0 0 0 0 0 0 0 0 0 0 0 0 0 0 0 0 0 0 127 0" result="hardAlpha"/>
            <feOffset/>
            <feGaussianBlur stdDeviation="2"/>
            <feComposite in2="hardAlpha" operator="out"/>
            <feColorMatrix type="matrix" values="0 0 0 0 0.32549 0 0 0 0 0.992157 0 0 0 0 0.662745 0 0 0 1 0"/>
            <feBlend mode="normal" in2="BackgroundImageFix" result="effect1_dropShadow_4925_2045"/>
            <feBlend mode="normal" in="SourceGraphic" in2="effect1_dropShadow_4925_2045" result="shape"/>
        </filter>
        <filter id="filter6_d_4925_2045" x="50" y="39.998" width="9" height="15.002" filterUnits="userSpaceOnUse" color-interpolation-filters="sRGB">
            <feFlood flood-opacity="0" result="BackgroundImageFix"/>
            <feColorMatrix in="SourceAlpha" type="matrix" values="0 0 0 0 0 0 0 0 0 0 0 0 0 0 0 0 0 0 127 0" result="hardAlpha"/>
            <feOffset/>
            <feGaussianBlur stdDeviation="2"/>
            <feComposite in2="hardAlpha" operator="out"/>
            <feColorMatrix type="matrix" values="0 0 0 0 0.32549 0 0 0 0 0.992157 0 0 0 0 0.662745 0 0 0 1 0"/>
            <feBlend mode="normal" in2="BackgroundImageFix" result="effect1_dropShadow_4925_2045"/>
            <feBlend mode="normal" in="SourceGraphic" in2="effect1_dropShadow_4925_2045" result="shape"/>
        </filter>
        <linearGradient id="paint0_linear_4925_2045" x1="47.4999" y1="105.991" x2="56.2298" y2="3.56438" gradientUnits="userSpaceOnUse">
            <stop stop-color="white"/>
            <stop offset="1" stop-color="white" stop-opacity="0"/>
        </linearGradient>
        <linearGradient id="paint1_linear_4925_2045" x1="-9.03534" y1="47.6376" x2="93.4291" y2="56.2221" gradientUnits="userSpaceOnUse">
            <stop stop-color="white"/>
            <stop offset="1" stop-color="white" stop-opacity="0"/>
        </linearGradient>
        <linearGradient id="paint2_linear_4925_2045" x1="44.5" y1="44" x2="44.5" y2="75.5071" gradientUnits="userSpaceOnUse">
            <stop stop-color="#632BFF"/>
            <stop offset="1" stop-color="#632BFF" stop-opacity="0"/>
        </linearGradient>
        <linearGradient id="paint3_linear_4925_2045" x1="48.5" y1="44" x2="48.5" y2="89" gradientUnits="userSpaceOnUse">
            <stop stop-color="#632BFF"/>
            <stop offset="1" stop-color="#632BFF" stop-opacity="0"/>
        </linearGradient>
        <linearGradient id="paint4_linear_4925_2045" x1="52.5" y1="44" x2="52.5" y2="75.5071" gradientUnits="userSpaceOnUse">
            <stop stop-color="#632BFF"/>
            <stop offset="1" stop-color="#632BFF" stop-opacity="0"/>
        </linearGradient>
        <linearGradient id="paint5_linear_4925_2045" x1="51.5" y1="51" x2="51.5" y2="96" gradientUnits="userSpaceOnUse">
            <stop stop-color="#53FDA9"/>
            <stop offset="1" stop-color="#53FDA9" stop-opacity="0"/>
        </linearGradient>
        <linearGradient id="paint6_linear_4925_2045" x1="47.5" y1="51" x2="47.5" y2="96" gradientUnits="userSpaceOnUse">
            <stop stop-color="#53FDA9"/>
            <stop offset="1" stop-color="#53FDA9" stop-opacity="0"/>
        </linearGradient>
        <linearGradient id="paint7_linear_4925_2045" x1="43.5" y1="51" x2="43.5" y2="82.5071" gradientUnits="userSpaceOnUse">
            <stop stop-color="#53FDA9"/>
            <stop offset="1" stop-color="#53FDA9" stop-opacity="0"/>
        </linearGradient>
        <linearGradient id="paint8_linear_4925_2045" x1="55.5" y1="51" x2="55.5" y2="82.5071" gradientUnits="userSpaceOnUse">
            <stop stop-color="#53FDA9"/>
            <stop offset="1" stop-color="#53FDA9" stop-opacity="0"/>
        </linearGradient>
    </defs>
</svg>
