<svg width="96" height="96" viewBox="0 0 96 96" fill="none"
    xmlns="http://www.w3.org/2000/svg">
    <path d="M69.5984 69.8174C67.0941 72.3218 64.121 74.3084 60.8489 75.6637C57.5768 77.0191 54.0698 77.7166 50.5281 77.7166C46.9864 77.7166 43.4794 77.0191 40.2073 75.6637C36.9352 74.3084 33.9621 72.3218 31.4577 69.8174" stroke="url(#paint0_linear_4925_2084)" stroke-miterlimit="10" stroke-linecap="round"/>
    <path d="M66.7582 66.9772C64.6268 69.1085 62.0965 70.7992 59.3117 71.9527C56.527 73.1062 53.5423 73.6999 50.5281 73.6999C47.5139 73.6999 44.5292 73.1062 41.7444 71.9527C38.9596 70.7992 36.4293 69.1085 34.298 66.9772" stroke="url(#paint1_linear_4925_2084)" stroke-miterlimit="10" stroke-linecap="round"/>
    <path d="M63.9179 64.1369C62.1595 65.8953 60.072 67.2901 57.7746 68.2417C55.4772 69.1934 53.0148 69.6832 50.5281 69.6832C48.0414 69.6832 45.579 69.1934 43.2816 68.2417C40.9841 67.2901 38.8966 65.8953 37.1382 64.1369" stroke="url(#paint2_linear_4925_2084)" stroke-miterlimit="10" stroke-linecap="round"/>
    <path d="M70.8157 26.4023C73.3201 28.9066 75.3067 31.8797 76.662 35.1518C78.0173 38.4239 78.7149 41.931 78.7149 45.4727C78.7149 49.0143 78.0173 52.5214 76.662 55.7935C75.3067 59.0656 73.3201 62.0387 70.8157 64.543" stroke="url(#paint3_linear_4925_2084)" stroke-miterlimit="10" stroke-linecap="round"/>
    <path d="M67.9755 29.2426C70.1068 31.3739 71.7975 33.9042 72.951 36.689C74.1045 39.4738 74.6982 42.4584 74.6982 45.4727C74.6982 48.4869 74.1045 51.4716 72.951 54.2563C71.7975 57.0411 70.1068 59.5714 67.9755 61.7028" stroke="url(#paint4_linear_4925_2084)" stroke-miterlimit="10" stroke-linecap="round"/>
    <path d="M65.1352 32.0828C66.8936 33.8412 68.2884 35.9287 69.24 38.2261C70.1916 40.5236 70.6814 42.9859 70.6814 45.4727C70.6814 47.9594 70.1916 50.4218 69.24 52.7192C68.2884 55.0166 66.8936 57.1041 65.1352 58.8625" stroke="url(#paint5_linear_4925_2084)" stroke-miterlimit="10" stroke-linecap="round"/>
    <path d="M27.4006 25.1845C29.9049 22.6802 32.878 20.6936 36.1501 19.3382C39.4222 17.9829 42.9293 17.2853 46.4709 17.2853C50.0126 17.2853 53.5197 17.9829 56.7918 19.3382C60.0639 20.6936 63.037 22.6802 65.5413 25.1845" stroke="url(#paint6_linear_4925_2084)" stroke-miterlimit="10" stroke-linecap="round"/>
    <path d="M30.2408 28.0248C32.3722 25.8934 34.9025 24.2027 37.6873 23.0492C40.472 21.8957 43.4567 21.3021 46.4709 21.3021C49.4852 21.3021 52.4699 21.8957 55.2546 23.0492C58.0394 24.2027 60.5697 25.8934 62.701 28.0248" stroke="url(#paint7_linear_4925_2084)" stroke-miterlimit="10" stroke-linecap="round"/>
    <path d="M33.0811 30.8651C34.8395 29.1067 36.927 27.7119 39.2244 26.7602C41.5219 25.8086 43.9842 25.3188 46.471 25.3188C48.9577 25.3188 51.42 25.8086 53.7175 26.7602C56.0149 27.7119 58.1024 29.1067 59.8608 30.8651" stroke="url(#paint8_linear_4925_2084)" stroke-miterlimit="10" stroke-linecap="round"/>
    <path d="M26.1835 68.5997C23.6792 66.0953 21.6926 63.1222 20.3373 59.8501C18.9819 56.578 18.2843 53.071 18.2843 49.5293C18.2843 45.9876 18.9819 42.4806 20.3373 39.2085C21.6926 35.9364 23.6792 32.9633 26.1835 30.4589" stroke="url(#paint9_linear_4925_2084)" stroke-miterlimit="10" stroke-linecap="round"/>
    <path d="M29.0238 65.7594C26.8924 63.628 25.2017 61.0977 24.0483 58.313C22.8948 55.5282 22.3011 52.5435 22.3011 49.5293C22.3011 46.5151 22.8948 43.5304 24.0483 40.7456C25.2017 37.9609 26.8924 35.4306 29.0238 33.2992" stroke="url(#paint10_linear_4925_2084)" stroke-miterlimit="10" stroke-linecap="round"/>
    <path d="M31.8641 62.9191C30.1057 61.1607 28.7109 59.0733 27.7592 56.7758C26.8076 54.4784 26.3178 52.016 26.3178 49.5293C26.3178 47.0426 26.8076 44.5802 27.7592 42.2828C28.7109 39.9853 30.1057 37.8978 31.8641 36.1395" stroke="url(#paint11_linear_4925_2084)" stroke-miterlimit="10" stroke-linecap="round"/>
    <path d="M54.4643 43.511L53.5378 42.5751L53.4111 42.7016C50.9126 41.2578 47.2323 41.9602 44.5836 44.5715C41.935 47.1827 41.19 50.8485 42.6079 53.3566L42.4812 53.4811L43.4076 54.417C45.8105 56.8415 50.2339 56.3628 53.2882 53.3547C56.3425 50.3465 56.8671 45.9354 54.4643 43.511Z" fill="url(#paint12_linear_4925_2084)"/>
    <path d="M52.3526 52.3916C55.4055 49.3798 55.9316 44.9721 53.5276 42.5469C51.1236 40.1216 46.6999 40.5971 43.6469 43.609C40.594 46.6209 40.068 51.0286 42.472 53.4538C44.876 55.8791 49.2997 55.4035 52.3526 52.3916Z" fill="url(#paint13_linear_4925_2084)"/>
    <defs>
        <linearGradient id="paint0_linear_4925_2084" x1="60.0633" y1="60.2823" x2="40.9929" y2="79.3526" gradientUnits="userSpaceOnUse">
            <stop stop-color="#53FDA9"/>
            <stop offset="1" stop-color="#53FDA9" stop-opacity="0"/>
        </linearGradient>
        <linearGradient id="paint1_linear_4925_2084" x1="58.6431" y1="58.8621" x2="42.413" y2="75.0922" gradientUnits="userSpaceOnUse">
            <stop stop-color="#53FDA9"/>
            <stop offset="1" stop-color="#53FDA9" stop-opacity="0"/>
        </linearGradient>
        <linearGradient id="paint2_linear_4925_2084" x1="57.223" y1="57.442" x2="43.8332" y2="70.8318" gradientUnits="userSpaceOnUse">
            <stop stop-color="#53FDA9"/>
            <stop offset="1" stop-color="#53FDA9" stop-opacity="0"/>
        </linearGradient>
        <linearGradient id="paint3_linear_4925_2084" x1="61.2805" y1="35.9375" x2="80.3509" y2="55.0078" gradientUnits="userSpaceOnUse">
            <stop stop-color="#53FDA9"/>
            <stop offset="1" stop-color="#53FDA9" stop-opacity="0"/>
        </linearGradient>
        <linearGradient id="paint4_linear_4925_2084" x1="59.8604" y1="37.3576" x2="76.0905" y2="53.5877" gradientUnits="userSpaceOnUse">
            <stop stop-color="#53FDA9"/>
            <stop offset="1" stop-color="#53FDA9" stop-opacity="0"/>
        </linearGradient>
        <linearGradient id="paint5_linear_4925_2084" x1="58.4403" y1="38.7777" x2="71.8301" y2="52.1676" gradientUnits="userSpaceOnUse">
            <stop stop-color="#53FDA9"/>
            <stop offset="1" stop-color="#53FDA9" stop-opacity="0"/>
        </linearGradient>
        <linearGradient id="paint6_linear_4925_2084" x1="36.9358" y1="34.7197" x2="56.0061" y2="15.6493" gradientUnits="userSpaceOnUse">
            <stop stop-color="#53FDA9"/>
            <stop offset="1" stop-color="#53FDA9" stop-opacity="0"/>
        </linearGradient>
        <linearGradient id="paint7_linear_4925_2084" x1="38.3559" y1="36.1398" x2="54.586" y2="19.9097" gradientUnits="userSpaceOnUse">
            <stop stop-color="#53FDA9"/>
            <stop offset="1" stop-color="#53FDA9" stop-opacity="0"/>
        </linearGradient>
        <linearGradient id="paint8_linear_4925_2084" x1="39.776" y1="37.56" x2="53.1659" y2="24.1701" gradientUnits="userSpaceOnUse">
            <stop stop-color="#53FDA9"/>
            <stop offset="1" stop-color="#53FDA9" stop-opacity="0"/>
        </linearGradient>
        <linearGradient id="paint9_linear_4925_2084" x1="35.7187" y1="59.0645" x2="16.6484" y2="39.9941" gradientUnits="userSpaceOnUse">
            <stop stop-color="#53FDA9"/>
            <stop offset="1" stop-color="#53FDA9" stop-opacity="0"/>
        </linearGradient>
        <linearGradient id="paint10_linear_4925_2084" x1="37.1389" y1="57.6443" x2="20.9088" y2="41.4142" gradientUnits="userSpaceOnUse">
            <stop stop-color="#53FDA9"/>
            <stop offset="1" stop-color="#53FDA9" stop-opacity="0"/>
        </linearGradient>
        <linearGradient id="paint11_linear_4925_2084" x1="38.559" y1="56.2242" x2="25.1692" y2="42.8344" gradientUnits="userSpaceOnUse">
            <stop stop-color="#53FDA9"/>
            <stop offset="1" stop-color="#53FDA9" stop-opacity="0"/>
        </linearGradient>
        <linearGradient id="paint12_linear_4925_2084" x1="47.5623" y1="47.4825" x2="53.3207" y2="53.3563" gradientUnits="userSpaceOnUse">
            <stop stop-color="#632BFF"/>
            <stop offset="1" stop-color="#632BFF" stop-opacity="0.3"/>
        </linearGradient>
        <linearGradient id="paint13_linear_4925_2084" x1="43.6469" y1="43.609" x2="52.3318" y2="52.4122" gradientUnits="userSpaceOnUse">
            <stop stop-color="#53FDA9"/>
            <stop offset="1" stop-color="#53FDA9"/>
        </linearGradient>
    </defs>
</svg>
