<svg width="96" height="96" viewBox="0 0 96 96" fill="none"
    xmlns="http://www.w3.org/2000/svg">
    <ellipse cx="48.4908" cy="41.2954" rx="37.4908" ry="17.4282" stroke="url(#paint0_linear_4925_2110)" stroke-miterlimit="10" stroke-linecap="round"/>
    <path d="M85.8567 39.3579C85.8567 44.0928 81.723 48.4187 74.9482 51.5681C68.1836 54.7127 58.8297 56.661 48.4908 56.661C38.152 56.661 28.7981 54.7127 22.0335 51.5681C15.2586 48.4187 11.125 44.0928 11.125 39.3579C11.125 34.6229 15.2586 30.297 22.0335 27.1476C28.7981 24.003 38.152 22.0547 48.4908 22.0547C58.8297 22.0547 68.1836 24.003 74.9482 27.1476C81.723 30.297 85.8567 34.6229 85.8567 39.3579Z" stroke="url(#paint1_linear_4925_2110)" stroke-width="0.25"/>
    <path d="M85.8567 43.2329C85.8567 47.9678 81.723 52.2937 74.9482 55.4431C68.1836 58.5877 58.8297 60.536 48.4908 60.536C38.152 60.536 28.7981 58.5877 22.0335 55.4431C15.2586 52.2937 11.125 47.9678 11.125 43.2329C11.125 38.4979 15.2586 34.172 22.0335 31.0226C28.7981 27.878 38.152 25.9297 48.4908 25.9297C58.8297 25.9297 68.1836 27.878 74.9482 31.0226C81.723 34.172 85.8567 38.4979 85.8567 43.2329Z" stroke="url(#paint2_linear_4925_2110)" stroke-width="0.25"/>
    <path d="M85.8567 45.1704C85.8567 49.9053 81.723 54.2312 74.9482 57.3806C68.1836 60.5252 58.8297 62.4735 48.4908 62.4735C38.152 62.4735 28.7981 60.5252 22.0335 57.3806C15.2586 54.2312 11.125 49.9053 11.125 45.1704C11.125 40.4354 15.2586 36.1095 22.0335 32.9601C28.7981 29.8155 38.152 27.8672 48.4908 27.8672C58.8297 27.8672 68.1836 29.8155 74.9482 32.9601C81.723 36.1095 85.8567 40.4354 85.8567 45.1704Z" stroke="url(#paint3_linear_4925_2110)" stroke-width="0.25"/>
    <path d="M85.8567 47.104C85.8567 51.8389 81.723 56.1648 74.9482 59.3142C68.1836 62.4588 58.8297 64.4071 48.4908 64.4071C38.152 64.4071 28.7981 62.4588 22.0335 59.3142C15.2586 56.1648 11.125 51.8389 11.125 47.104C11.125 42.369 15.2586 38.0431 22.0335 34.8937C28.7981 31.7491 38.152 29.8008 48.4908 29.8008C58.8297 29.8008 68.1836 31.7491 74.9482 34.8937C81.723 38.0431 85.8567 42.369 85.8567 47.104Z" stroke="url(#paint4_linear_4925_2110)" stroke-width="0.25"/>
    <path d="M85.8567 49.0415C85.8567 53.7764 81.723 58.1023 74.9482 61.2517C68.1836 64.3963 58.8297 66.3446 48.4908 66.3446C38.152 66.3446 28.7981 64.3963 22.0335 61.2517C15.2586 58.1023 11.125 53.7764 11.125 49.0415C11.125 44.3065 15.2586 39.9806 22.0335 36.8312C28.7981 33.6866 38.152 31.7383 48.4908 31.7383C58.8297 31.7383 68.1836 33.6866 74.9482 36.8312C81.723 39.9806 85.8567 44.3065 85.8567 49.0415Z" stroke="url(#paint5_linear_4925_2110)" stroke-width="0.25"/>
    <path d="M85.8567 50.979C85.8567 55.7139 81.723 60.0398 74.9482 63.1892C68.1836 66.3338 58.8297 68.2821 48.4908 68.2821C38.152 68.2821 28.7981 66.3338 22.0335 63.1892C15.2586 60.0398 11.125 55.7139 11.125 50.979C11.125 46.244 15.2586 41.9181 22.0335 38.7687C28.7981 35.6241 38.152 33.6758 48.4908 33.6758C58.8297 33.6758 68.1836 35.6241 74.9482 38.7687C81.723 41.9181 85.8567 46.244 85.8567 50.979Z" stroke="url(#paint6_linear_4925_2110)" stroke-width="0.25"/>
    <path d="M85.8567 52.9165C85.8567 57.6514 81.723 61.9773 74.9482 65.1267C68.1836 68.2713 58.8297 70.2196 48.4908 70.2196C38.152 70.2196 28.7981 68.2713 22.0335 65.1267C15.2586 61.9773 11.125 57.6514 11.125 52.9165C11.125 48.1815 15.2586 43.8556 22.0335 40.7062C28.7981 37.5616 38.152 35.6133 48.4908 35.6133C58.8297 35.6133 68.1836 37.5616 74.9482 40.7062C81.723 43.8556 85.8567 48.1815 85.8567 52.9165Z" stroke="url(#paint7_linear_4925_2110)" stroke-width="0.25"/>
    <path d="M85.8567 54.85C85.8567 59.585 81.723 63.9109 74.9482 67.0603C68.1836 70.2049 58.8297 72.1532 48.4908 72.1532C38.152 72.1532 28.7981 70.2049 22.0335 67.0603C15.2586 63.9109 11.125 59.585 11.125 54.85C11.125 50.1151 15.2586 45.7892 22.0335 42.6398C28.7981 39.4952 38.152 37.5469 48.4908 37.5469C58.8297 37.5469 68.1836 39.4952 74.9482 42.6398C81.723 45.7892 85.8567 50.1151 85.8567 54.85Z" stroke="url(#paint8_linear_4925_2110)" stroke-width="0.25"/>
    <path d="M85.8567 56.7875C85.8567 61.5225 81.723 65.8484 74.9482 68.9978C68.1836 72.1424 58.8297 74.0907 48.4908 74.0907C38.152 74.0907 28.7981 72.1424 22.0335 68.9978C15.2586 65.8484 11.125 61.5225 11.125 56.7875C11.125 52.0526 15.2586 47.7267 22.0335 44.5773C28.7981 41.4327 38.152 39.4844 48.4908 39.4844C58.8297 39.4844 68.1836 41.4327 74.9482 44.5773C81.723 47.7267 85.8567 52.0526 85.8567 56.7875Z" stroke="url(#paint9_linear_4925_2110)" stroke-width="0.25"/>
    <path d="M85.8567 58.725C85.8567 63.46 81.723 67.7859 74.9482 70.9353C68.1836 74.0799 58.8297 76.0282 48.4908 76.0282C38.152 76.0282 28.7981 74.0799 22.0335 70.9353C15.2586 67.7859 11.125 63.46 11.125 58.725C11.125 53.9901 15.2586 49.6642 22.0335 46.5148C28.7981 43.3702 38.152 41.4219 48.4908 41.4219C58.8297 41.4219 68.1836 43.3702 74.9482 46.5148C81.723 49.6642 85.8567 53.9901 85.8567 58.725Z" stroke="url(#paint10_linear_4925_2110)" stroke-width="0.25"/>
    <path d="M85.8567 60.6586C85.8567 65.3936 81.723 69.7195 74.9482 72.8689C68.1836 76.0135 58.8297 77.9618 48.4908 77.9618C38.152 77.9618 28.7981 76.0135 22.0335 72.8689C15.2586 69.7195 11.125 65.3936 11.125 60.6586C11.125 55.9237 15.2586 51.5978 22.0335 48.4484C28.7981 45.3038 38.152 43.3555 48.4908 43.3555C58.8297 43.3555 68.1836 45.3038 74.9482 48.4484C81.723 51.5978 85.8567 55.9237 85.8567 60.6586Z" stroke="url(#paint11_linear_4925_2110)" stroke-width="0.25"/>
    <path d="M85.8567 62.5961C85.8567 67.3311 81.723 71.657 74.9482 74.8064C68.1836 77.951 58.8297 79.8993 48.4908 79.8993C38.152 79.8993 28.7981 77.951 22.0335 74.8064C15.2586 71.657 11.125 67.3311 11.125 62.5961C11.125 57.8612 15.2586 53.5353 22.0335 50.3859C28.7981 47.2413 38.152 45.293 48.4908 45.293C58.8297 45.293 68.1836 47.2413 74.9482 50.3859C81.723 53.5353 85.8567 57.8612 85.8567 62.5961Z" stroke="url(#paint12_linear_4925_2110)" stroke-width="0.25"/>
    <path d="M85.8567 64.5336C85.8567 69.2686 81.723 73.5945 74.9482 76.7439C68.1836 79.8885 58.8297 81.8368 48.4908 81.8368C38.152 81.8368 28.7981 79.8885 22.0335 76.7439C15.2586 73.5945 11.125 69.2686 11.125 64.5336C11.125 59.7987 15.2586 55.4728 22.0335 52.3234C28.7981 49.1788 38.152 47.2305 48.4908 47.2305C58.8297 47.2305 68.1836 49.1788 74.9482 52.3234C81.723 55.4728 85.8567 59.7987 85.8567 64.5336Z" stroke="url(#paint13_linear_4925_2110)" stroke-width="0.25"/>
    <path d="M85.8567 66.4711C85.8567 71.2061 81.723 75.532 74.9482 78.6814C68.1836 81.826 58.8297 83.7743 48.4908 83.7743C38.152 83.7743 28.7981 81.826 22.0335 78.6814C15.2586 75.532 11.125 71.2061 11.125 66.4711C11.125 61.7362 15.2586 57.4103 22.0335 54.2609C28.7981 51.1163 38.152 49.168 48.4908 49.168C58.8297 49.168 68.1836 51.1163 74.9482 54.2609C81.723 57.4103 85.8567 61.7362 85.8567 66.4711Z" stroke="url(#paint14_linear_4925_2110)" stroke-width="0.25"/>
    <path d="M41.1409 12C41.211 14.3604 43.113 16.2549 45.4737 16.3155L45.7913 16.3236L45.4737 16.3318C43.113 16.3924 41.211 18.2868 41.1409 20.6472C41.0708 18.2868 39.1687 16.3924 36.808 16.3318L36.4905 16.3236L36.808 16.3155C39.1687 16.2549 41.0708 14.3604 41.1409 12Z" fill="white"/>
    <path d="M58.6736 26.2266C58.7437 28.587 60.6457 30.4814 63.0064 30.542L63.324 30.5502L63.0064 30.5583C60.6457 30.6189 58.7437 32.5133 58.6736 34.8738C58.6035 32.5133 56.7014 30.6189 54.3407 30.5583L54.0232 30.5502L54.3407 30.542C56.7014 30.4814 58.6035 28.587 58.6736 26.2266Z" fill="#53FDA9"/>
    <path d="M46.8423 40.4336C46.9124 42.794 48.8145 44.6884 51.1751 44.7491L51.4927 44.7572L51.1751 44.7654C48.8145 44.826 46.9124 46.7204 46.8423 49.0808C46.7722 46.7204 44.8701 44.826 42.5094 44.7654L42.1919 44.7572L42.5094 44.7491C44.8701 44.6884 46.7722 42.794 46.8423 40.4336Z" fill="#53FDA9"/>
    <defs>
        <linearGradient id="paint0_linear_4925_2110" x1="11" y1="23.8672" x2="86.8147" y2="23.8672" gradientUnits="userSpaceOnUse">
            <stop stop-color="#632BFF"/>
            <stop offset="1" stop-color="#632BFF" stop-opacity="0"/>
        </linearGradient>
        <linearGradient id="paint1_linear_4925_2110" x1="48.4908" y1="21.9297" x2="48.4908" y2="56.786" gradientUnits="userSpaceOnUse">
            <stop stop-color="white"/>
            <stop offset="1" stop-color="white"/>
        </linearGradient>
        <linearGradient id="paint2_linear_4925_2110" x1="48.4908" y1="25.8047" x2="48.4908" y2="60.661" gradientUnits="userSpaceOnUse">
            <stop stop-color="white"/>
            <stop offset="1" stop-color="white"/>
        </linearGradient>
        <linearGradient id="paint3_linear_4925_2110" x1="48.4908" y1="27.7422" x2="48.4908" y2="62.5985" gradientUnits="userSpaceOnUse">
            <stop stop-color="white"/>
            <stop offset="1" stop-color="white"/>
        </linearGradient>
        <linearGradient id="paint4_linear_4925_2110" x1="48.4908" y1="29.6758" x2="48.4908" y2="64.5321" gradientUnits="userSpaceOnUse">
            <stop stop-color="white"/>
            <stop offset="1" stop-color="white"/>
        </linearGradient>
        <linearGradient id="paint5_linear_4925_2110" x1="48.4908" y1="31.6133" x2="48.4908" y2="66.4696" gradientUnits="userSpaceOnUse">
            <stop stop-color="white"/>
            <stop offset="1" stop-color="white"/>
        </linearGradient>
        <linearGradient id="paint6_linear_4925_2110" x1="48.4908" y1="33.5508" x2="48.4908" y2="68.4071" gradientUnits="userSpaceOnUse">
            <stop stop-color="white"/>
            <stop offset="1" stop-color="white"/>
        </linearGradient>
        <linearGradient id="paint7_linear_4925_2110" x1="48.4908" y1="35.4883" x2="48.4908" y2="70.3446" gradientUnits="userSpaceOnUse">
            <stop stop-color="white"/>
            <stop offset="1" stop-color="white"/>
        </linearGradient>
        <linearGradient id="paint8_linear_4925_2110" x1="48.4908" y1="37.4219" x2="48.4908" y2="72.2782" gradientUnits="userSpaceOnUse">
            <stop stop-color="white"/>
            <stop offset="1" stop-color="white"/>
        </linearGradient>
        <linearGradient id="paint9_linear_4925_2110" x1="48.4908" y1="39.3594" x2="48.4908" y2="74.2157" gradientUnits="userSpaceOnUse">
            <stop stop-color="white"/>
            <stop offset="1" stop-color="white"/>
        </linearGradient>
        <linearGradient id="paint10_linear_4925_2110" x1="48.4908" y1="41.2969" x2="48.4908" y2="76.1532" gradientUnits="userSpaceOnUse">
            <stop stop-color="white"/>
            <stop offset="1" stop-color="white"/>
        </linearGradient>
        <linearGradient id="paint11_linear_4925_2110" x1="48.4908" y1="43.2305" x2="48.4908" y2="78.0868" gradientUnits="userSpaceOnUse">
            <stop stop-color="white"/>
            <stop offset="1" stop-color="white"/>
        </linearGradient>
        <linearGradient id="paint12_linear_4925_2110" x1="48.4908" y1="45.168" x2="48.4908" y2="80.0243" gradientUnits="userSpaceOnUse">
            <stop stop-color="white"/>
            <stop offset="1" stop-color="white"/>
        </linearGradient>
        <linearGradient id="paint13_linear_4925_2110" x1="48.4908" y1="47.1055" x2="48.4908" y2="81.9618" gradientUnits="userSpaceOnUse">
            <stop stop-color="white"/>
            <stop offset="1" stop-color="white"/>
        </linearGradient>
        <linearGradient id="paint14_linear_4925_2110" x1="48.4908" y1="49.043" x2="48.4908" y2="83.8993" gradientUnits="userSpaceOnUse">
            <stop stop-color="white"/>
            <stop offset="1" stop-color="white"/>
        </linearGradient>
    </defs>
</svg>
