<svg width="40" height="40" viewBox="0 0 40 40" fill="none" xmlns="http://www.w3.org/2000/svg">
<path d="M19.1421 10.3529C19.6237 10.0998 20.3565 10.0998 20.8381 10.3529L25.7521 12.9353C26.0422 13.0877 26.2015 13.3148 26.23 13.5493H26.2347V26.5296C26.2283 26.7853 26.0675 27.0394 25.7521 27.2052L20.8381 29.7875C20.3565 30.0406 19.6237 30.0406 19.1421 29.7875L14.2281 27.2052C13.914 27.0401 13.7633 26.7843 13.7559 26.5296C13.7551 26.5045 13.755 26.4836 13.7557 26.4663L13.7557 13.6326C13.7552 13.6186 13.7552 13.6045 13.7556 13.5906L13.7559 13.5493L13.7581 13.5492C13.7799 13.3122 13.9319 13.0909 14.2281 12.9353L19.1421 10.3529ZM25.4611 20.7909L20.8381 23.2204C20.3565 23.4734 19.6237 23.4734 19.1421 23.2204L14.5292 20.7963V26.5039L19.1421 28.9152C19.4026 29.0538 19.673 29.1887 19.9373 29.2059L19.9901 29.2076C20.2656 29.2086 20.533 29.0694 20.8042 28.9377L25.4611 26.4832V20.7909ZM12.9566 26.2474C12.9566 26.7446 13.0147 27.0716 13.13 27.3019C13.2256 27.4928 13.3691 27.6386 13.631 27.8161L13.646 27.8262C13.7034 27.8647 13.7668 27.9051 13.8438 27.9525L13.9347 28.0079L14.2138 28.1756L13.8135 28.8341L13.5011 28.6463L13.4486 28.6143C13.3583 28.5587 13.2834 28.5112 13.2136 28.4643C12.4671 27.9635 12.1887 27.4177 12.1832 26.2819L12.1831 26.2474H12.9566ZM19.6033 17.3118C19.5675 17.324 19.534 17.3382 19.5034 17.3542L14.5893 19.9366C14.5842 19.9393 14.5792 19.942 14.5746 19.9446L14.5704 19.9471L14.5781 19.9514L14.5893 19.9575L19.5034 22.5399C19.534 22.5559 19.5675 22.5701 19.6033 22.5823V17.3118ZM20.377 17.3118V22.5823C20.4127 22.5701 20.4463 22.5559 20.4768 22.5399L25.3909 19.9575C25.3961 19.9548 25.401 19.9521 25.4057 19.9495L25.4098 19.9471L25.4021 19.9427L25.3909 19.9366L20.4768 17.3542C20.4463 17.3382 20.4127 17.324 20.377 17.3118ZM25.4611 14.47L21.0529 16.7866L25.4611 19.1032V16.7866V14.47ZM14.5292 14.4755V19.0977L18.9272 16.7866L14.5292 14.4755ZM20.4768 11.0334C20.2213 10.8991 19.7589 10.8991 19.5034 11.0334L14.5893 13.6158C14.5842 13.6185 14.5792 13.6212 14.5746 13.6238L14.5704 13.6262L14.5781 13.6306L14.5893 13.6367L19.5034 16.219C19.7589 16.3533 20.2213 16.3533 20.4768 16.219L25.3909 13.6367C25.3961 13.6339 25.401 13.6313 25.4057 13.6286L25.4098 13.6262L25.4021 13.6218L25.3909 13.6158L20.4768 11.0334ZM26.1873 11.3166L26.4997 11.5043L26.5523 11.5364C26.6426 11.5918 26.7174 11.6395 26.7873 11.6864C27.5338 12.1871 27.8122 12.733 27.8176 13.8687L27.8177 13.9033H27.0443C27.0443 13.4059 26.9862 13.0791 26.8708 12.8488C26.7752 12.6579 26.6318 12.512 26.3699 12.3345L26.3549 12.3245C26.2974 12.2859 26.2341 12.2455 26.157 12.198L26.0661 12.1426L25.787 11.9751L26.1873 11.3166Z" fill="white"/>
</svg>
