<svg width="40" height="40" viewBox="0 0 40 40" fill="none" xmlns="http://www.w3.org/2000/svg">
<path d="M22.5956 16.5997C22.3486 19.3902 19.5614 21.915 18.6192 23.5096C17.6907 25.081 17.384 26.5639 18.1191 29.5103C18.1322 29.563 18.0812 29.6103 18.0315 29.5884C17.0692 29.1659 13.6245 27.5955 13.6245 23.446C13.6245 17.9225 19.7977 17.7804 19.3767 10.1526C19.3738 10.0997 19.4317 10.0621 19.476 10.0912C21.5681 11.4666 22.8385 13.8558 22.5956 16.5997Z" fill="white"/>
<path d="M18.5751 29.6881C18.5499 29.68 18.5322 29.6568 18.5308 29.6304C18.4301 27.7722 19.4183 26.5654 20.5282 25.6734C23.0669 23.6332 24.5881 20.8456 23.7678 17.6191C23.7516 17.5551 23.8278 17.5091 23.8734 17.5568C24.5274 18.2411 25.2576 19.3678 25.6336 20.1534C27.187 23.4903 26.358 27.3143 22.641 29.2441C21.4571 29.8318 20.0475 30.1649 18.5751 29.6881Z" fill="white"/>
</svg>
