<svg width="40" height="40" viewBox="0 0 40 40" fill="none" xmlns="http://www.w3.org/2000/svg">
<path d="M25.2649 12.1804L21.6262 17.5805C21.3746 17.9482 21.8584 18.3934 22.2068 18.0837L25.7875 14.9675C25.8844 14.8901 26.0198 14.9482 26.0198 15.0837V24.8193C26.0198 24.9548 25.8456 25.0129 25.7682 24.916L14.9293 11.9481C14.5809 11.5223 14.0777 11.29 13.5164 11.29H13.1293C12.1228 11.29 11.2905 12.1223 11.2905 13.1481V26.8516C11.2905 27.8774 12.1228 28.7097 13.1486 28.7097C13.7873 28.7097 14.3874 28.3806 14.7358 27.8194L18.3745 22.4193C18.6261 22.0516 18.1423 21.6063 17.7939 21.916L14.2132 25.0129C14.1164 25.0902 13.9809 25.0322 13.9809 24.8967V15.1804C13.9809 15.0449 14.1551 14.9869 14.2325 15.0837L25.0714 28.0516C25.4198 28.4774 25.9424 28.7097 26.4843 28.7097H26.8715C27.8973 28.7097 28.7295 27.8774 28.7295 26.8516V13.1481C28.7102 12.1223 27.8779 11.29 26.8521 11.29C26.2133 11.29 25.6133 11.6191 25.2649 12.1804Z" fill="white"/>
</svg>
