<svg width="40" height="40" viewBox="0 0 40 40" fill="none" xmlns="http://www.w3.org/2000/svg">
<path fill-rule="evenodd" clip-rule="evenodd" d="M20.0004 11.29C15.1901 11.29 11.2905 15.1896 11.2905 19.9999C11.2905 24.8101 15.1901 28.7097 20.0004 28.7097C24.8106 28.7097 28.7102 24.8101 28.7102 19.9999C28.7102 15.1896 24.8106 11.29 20.0004 11.29ZM19.2592 22.4662L19.2536 22.4766C19.0605 22.8146 18.9626 22.986 18.827 23.115C18.6792 23.2563 18.5021 23.3589 18.3072 23.4164C18.1292 23.4654 17.9305 23.4654 17.5322 23.4654H15.8418C15.4868 23.4654 15.3107 23.4654 15.2042 23.3966C15.0884 23.3213 15.0178 23.1979 15.0093 23.0604C15.0027 22.9342 15.0903 22.7798 15.2664 22.4718L19.44 15.1162C19.618 14.8035 19.7075 14.6472 19.8205 14.5898C19.942 14.5276 20.0879 14.5276 20.2104 14.5898C20.3234 14.6472 20.4138 14.8035 20.5908 15.1162L21.4487 16.6135L21.4534 16.621C21.6455 16.9563 21.7425 17.1258 21.7849 17.3047C21.832 17.4996 21.832 17.705 21.7849 17.8999C21.7425 18.0797 21.6455 18.2511 21.4506 18.5911L19.2583 22.4662H19.2592ZM24.8671 23.3947C24.7598 23.4654 24.5808 23.4654 24.223 23.4654H21.8009C21.444 23.4654 21.2641 23.4654 21.1586 23.3966C21.0428 23.3213 20.9722 23.1951 20.9637 23.0585C20.9571 22.9333 21.0457 22.7807 21.2227 22.4747L21.2265 22.4671L22.4356 20.3916C22.6136 20.0856 22.7031 19.9339 22.8142 19.8756C22.9366 19.8134 23.0797 19.8134 23.2012 19.8756C23.3114 19.9321 23.398 20.0771 23.5685 20.3662L23.5826 20.3897L24.7955 22.4653C24.8012 22.4756 24.8078 22.485 24.8134 22.4954C24.982 22.7855 25.0677 22.9333 25.0611 23.0557C25.0545 23.1923 24.982 23.3185 24.8661 23.3938L24.8671 23.3947Z" fill="white"/>
</svg>
