<svg width="41" height="40" viewBox="0 0 41 40" fill="none" xmlns="http://www.w3.org/2000/svg">
<path d="M20.4446 12.6209C20.8042 12.6197 21.1568 12.7193 21.4627 12.9082C21.7686 13.0971 22.0155 13.3679 22.1755 13.6898L27.6191 24.5769C27.7668 24.872 27.8366 25.2 27.8219 25.5296C27.8072 25.8593 27.7084 26.1797 27.5349 26.4605C27.3615 26.7412 27.1191 26.9729 26.8309 27.1336C26.5427 27.2943 26.2182 27.3786 25.8882 27.3786H15.0011C14.6711 27.3785 14.3467 27.2941 14.0585 27.1334C13.7704 26.9727 13.5281 26.7409 13.3547 26.4602C13.1814 26.1795 13.0826 25.8591 13.0679 25.5295C13.0532 25.1999 13.1231 24.872 13.2708 24.5769L18.7137 13.6898C18.8737 13.3679 19.1206 13.0971 19.4265 12.9082C19.7324 12.7193 20.0851 12.6197 20.4446 12.6209V12.6209ZM20.4446 11.29C19.8382 11.29 19.2437 11.4588 18.7277 11.7775C18.2118 12.0962 17.7948 12.5523 17.5234 13.0947L12.0798 23.9818C11.8307 24.4798 11.713 25.0332 11.7379 25.5895C11.7628 26.1457 11.9296 26.6864 12.2223 27.1601C12.515 27.6338 12.9239 28.0248 13.4103 28.296C13.8966 28.5671 14.4442 28.7094 15.0011 28.7094H25.8882C26.445 28.7093 26.9925 28.567 27.4788 28.2958C27.9651 28.0246 28.3739 27.6336 28.6666 27.1599C28.9592 26.6862 29.1259 26.1455 29.1508 25.5893C29.1757 25.0331 29.058 24.4797 28.8088 23.9818L23.3658 13.0947C23.0945 12.5523 22.6775 12.0962 22.1615 11.7775C21.6456 11.4588 21.0511 11.29 20.4446 11.29V11.29Z" fill="white"/>
</svg>
