<svg width="41" height="40" viewBox="0 0 41 40" fill="none" xmlns="http://www.w3.org/2000/svg">
<path d="M25.7088 12.1804L22.0701 17.5804C21.8185 17.9481 22.3023 18.3933 22.6507 18.0836L26.2314 14.9675C26.3282 14.89 26.4636 14.9481 26.4636 15.0836V24.819C26.4636 24.9546 26.2894 25.0127 26.212 24.9158L15.3733 11.9481C15.0249 11.5223 14.5217 11.29 13.9604 11.29H13.5733C12.5669 11.29 11.7346 12.1223 11.7346 13.1481V26.8514C11.7346 27.8771 12.5669 28.7094 13.5927 28.7094C14.2314 28.7094 14.8314 28.3803 15.1798 27.8191L18.8185 22.4191C19.0701 22.0514 18.5862 21.6061 18.2378 21.9158L14.6572 25.0127C14.5604 25.09 14.4249 25.032 14.4249 24.8965V15.1804C14.4249 15.0449 14.5991 14.9868 14.6766 15.0836L25.5152 28.0513C25.8636 28.4771 26.3862 28.7094 26.9281 28.7094H27.3153C28.3411 28.7094 29.1733 27.8771 29.1733 26.8514V13.1481C29.154 12.1223 28.3217 11.29 27.2959 11.29C26.6572 11.29 26.0572 11.6191 25.7088 12.1804Z" fill="white"/>
</svg>
