<svg width="41" height="40" viewBox="0 0 41 40" fill="none" xmlns="http://www.w3.org/2000/svg">
<path d="M25.4026 27.2577C24.1218 27.2577 23.0799 26.2158 23.0799 24.935V20.6587C25.1947 20.4952 26.7248 20.0472 27.7254 19.3158V24.935C27.7254 26.2158 26.6834 27.2577 25.4026 27.2577ZM23.0799 15.0643C23.0799 13.7835 24.1218 12.7416 25.4026 12.7416C26.6834 12.7416 27.7254 13.7835 27.7254 15.0643V16.4675C27.7027 16.961 27.5956 17.468 27.1612 17.9045C26.6526 18.4147 25.5267 18.9903 23.0799 19.1971V15.0643ZM17.8391 24.935C17.8391 26.2158 16.7972 27.2577 15.5164 27.2577C14.2356 27.2577 13.1936 26.2158 13.1936 24.935V23.6328C13.2169 23.1585 13.3309 22.6412 13.8004 22.1686C14.3286 21.636 15.4544 21.0378 17.8391 20.814V24.935ZM15.5164 12.7416C16.7972 12.7416 17.8391 13.7835 17.8391 15.0643V19.3536C15.7401 19.5337 14.209 20.0117 13.1936 20.7896V15.0643C13.1936 13.7835 14.2356 12.7416 15.5164 12.7416ZM29.1805 15.8915L29.177 15.6448V15.0643C29.177 12.9833 27.4837 11.29 25.4026 11.29C23.3216 11.29 21.6283 12.9833 21.6283 15.0643V19.2668C21.2614 19.2743 19.6742 19.2722 19.2907 19.281V15.0643C19.2907 12.9833 17.5974 11.29 15.5164 11.29C13.4353 11.29 11.742 12.9833 11.742 15.0643V23.5607C11.7302 23.7913 11.7351 23.9972 11.7392 24.1667L11.742 24.3546V24.935C11.742 27.016 13.4353 28.7094 15.5164 28.7094C17.5974 28.7094 19.2907 27.016 19.2907 24.935V20.7354C19.6616 20.7263 21.2494 20.7291 21.6283 20.7224V24.935C21.6283 27.016 23.3216 28.7094 25.4026 28.7094C27.4837 28.7094 29.177 27.016 29.177 24.935V16.5461C29.1891 16.3034 29.1847 16.0811 29.1805 15.8915Z" fill="white"/>
</svg>
