<svg width="64" height="64" viewBox="0 0 64 64" fill="none" xmlns="http://www.w3.org/2000/svg">
<path d="M38.8219 22.5446L32.0039 18.7031" stroke="#53FDA9" stroke-width="0.5" stroke-linecap="round" stroke-linejoin="round"/>
<path d="M38.8219 22.5423V14.8594L32.0039 18.7008" stroke="#53FDA9" stroke-width="0.5" stroke-linecap="round" stroke-linejoin="round"/>
<path d="M43.3672 25.1034L50.1852 21.2619L43.3672 17.418" stroke="#53FDA9" stroke-width="0.5" stroke-linecap="round" stroke-linejoin="round"/>
<path d="M43.3672 25.1009V17.418" stroke="#53FDA9" stroke-width="0.5" stroke-linecap="round" stroke-linejoin="round"/>
<path d="M47.9117 27.6635L55.8886 23.1665C56.2254 22.9771 56.5059 22.7005 56.7012 22.3655C56.8965 22.0305 56.9995 21.6491 56.9995 21.2606C56.9995 20.8721 56.8965 20.4907 56.7012 20.1556C56.5059 19.8206 56.2254 19.5442 55.8886 19.3548L45.727 13.6261C45.0058 13.2203 44.1933 13.0075 43.3672 13.0078" stroke="#53FDA9" stroke-width="0.5" stroke-linecap="round" stroke-linejoin="round"/>
<path d="M43.3648 37.9079L36.5469 34.0664" stroke="#53FDA9" stroke-width="0.5" stroke-linecap="round" stroke-linejoin="round"/>
<path d="M36.5484 34.068L32.0039 31.5078" stroke="#53FDA9" stroke-width="0.5" stroke-linecap="round" stroke-linejoin="round"/>
<path d="M13.8243 28.9414L8.11839 32.1695C7.78161 32.3592 7.50113 32.636 7.30593 32.9712C7.11072 33.3064 7.00781 33.688 7.00781 34.0766C7.00781 34.4652 7.11072 34.8468 7.30593 35.1821C7.50113 35.5173 7.78161 35.7939 8.11839 35.9836L18.2825 41.7098C19.0034 42.1166 19.8158 42.3301 20.6422 42.3301C21.4685 42.3301 22.2811 42.1166 23.002 41.7098L36.5467 34.0766" stroke="#53FDA9" stroke-width="0.5" stroke-linecap="round" stroke-linejoin="round"/>
<path d="M13.8242 28.943L20.6422 25.1016" stroke="#53FDA9" stroke-width="0.5" stroke-linecap="round" stroke-linejoin="round"/>
<path d="M20.6422 25.1032L13.8242 21.2617V28.9422" stroke="#53FDA9" stroke-width="0.5" stroke-linecap="round" stroke-linejoin="round"/>
<path d="M20.6445 37.9078V35.3477" stroke="#53FDA9" stroke-width="0.5" stroke-linecap="round" stroke-linejoin="round"/>
<path d="M20.6422 37.9095L13.8242 34.068L20.6422 30.2266" stroke="#53FDA9" stroke-width="0.5" stroke-linecap="round" stroke-linejoin="round"/>
<path d="M43.3648 37.9062V45.5892L36.5469 41.7477" stroke="#53FDA9" stroke-width="0.5" stroke-linecap="round" stroke-linejoin="round"/>
<path d="M20.6445 50.0039V52.1072C20.6442 52.4958 20.7469 52.8774 20.9419 53.2126C21.137 53.5479 21.4174 53.8246 21.7541 54.0142L28.5573 57.8482" stroke="#53FDA9" stroke-width="0.5" stroke-linecap="round" stroke-linejoin="round"/>
<path d="M32.0156 44.3098L42.7074 50.3341L44.6923 51.4539C45.0226 51.6402 45.3956 51.7363 45.7741 51.7325C46.1526 51.7288 46.5235 51.6254 46.8501 51.4326C47.1767 51.2398 47.4475 50.9642 47.6356 50.6334C47.8237 50.3026 47.9227 49.9281 47.9226 49.5469V38.2013C47.9233 37.3364 47.6952 36.4869 47.2619 35.7401C46.8285 34.9934 46.2054 34.3764 45.4568 33.9526L32.0206 26.3789" stroke="#53FDA9" stroke-width="0.5" stroke-linecap="round" stroke-linejoin="round"/>
<path d="M32.0039 51.9915V44.3086" stroke="#53FDA9" stroke-width="0.5" stroke-linecap="round" stroke-linejoin="round"/>
<path d="M32.0039 51.9899L38.8219 48.1484" stroke="#53FDA9" stroke-width="0.5" stroke-linecap="round" stroke-linejoin="round"/>
<path d="M20.6437 19.9816L12.4375 15.3579C12.1149 15.176 11.7506 15.0824 11.3809 15.086C11.0111 15.0897 10.6488 15.1906 10.3298 15.3789C10.0107 15.5671 9.74619 15.8361 9.56227 16.1591C9.37834 16.4821 9.28145 16.8479 9.28125 17.2203V26.3781" stroke="#53FDA9" stroke-width="0.5" stroke-linecap="round" stroke-linejoin="round"/>
<path d="M57 28.9446V21.2617" stroke="#53FDA9" stroke-width="0.5" stroke-linecap="round" stroke-linejoin="round"/>
<path d="M43.3648 37.9062L36.5469 41.7477" stroke="#53FDA9" stroke-width="0.5" stroke-linecap="round" stroke-linejoin="round"/>
<path d="M27.4609 46.8712L32.0054 44.3086" stroke="#53FDA9" stroke-width="0.5" stroke-linecap="round" stroke-linejoin="round"/>
<path d="M20.6445 50.0023C21.471 50.003 22.2837 49.7892 23.0043 49.3815L27.4601 46.8711" stroke="#53FDA9" stroke-width="0.5" stroke-linecap="round" stroke-linejoin="round"/>
<path d="M20.6452 50.0041C19.8187 50.0047 19.006 49.7909 18.2854 49.3833L8.12137 43.6571C7.78338 43.4689 7.50193 43.1925 7.30667 42.8569C7.11142 42.5213 7.00958 42.1389 7.01175 41.75" stroke="#53FDA9" stroke-width="0.5" stroke-linecap="round" stroke-linejoin="round"/>
<path d="M32.0039 44.3101L36.5484 41.75" stroke="#53FDA9" stroke-width="0.5" stroke-linecap="round" stroke-linejoin="round"/>
<path d="M7.01172 41.7493V34.0664" stroke="#53FDA9" stroke-width="0.5" stroke-linecap="round" stroke-linejoin="round"/>
<path d="M38.8219 22.5446L32.0039 18.7031" stroke="#53FDA9" stroke-width="0.5" stroke-linecap="round" stroke-linejoin="round"/>
<path d="M47.9117 27.6642L43.3672 25.1016" stroke="#53FDA9" stroke-width="0.5" stroke-linecap="round" stroke-linejoin="round"/>
<path d="M32.0039 26.3811V18.7031" stroke="#53FDA9" stroke-width="0.5" stroke-linecap="round" stroke-linejoin="round"/>
<path d="M47.9102 27.6641L52.2549 30.1124C53.0036 30.5357 53.6267 31.1522 54.0601 31.8985C54.4935 32.6449 54.7215 33.4941 54.7208 34.3587" stroke="#53FDA9" stroke-width="0.5" stroke-linecap="round" stroke-linejoin="round"/>
<path d="M32.0045 31.5078L20.6445 37.9094" stroke="#53FDA9" stroke-width="0.5" stroke-linecap="round" stroke-linejoin="round"/>
<path d="M32.0039 26.3789V31.5066" stroke="#53FDA9" stroke-width="0.5" stroke-linecap="round" stroke-linejoin="round"/>
<path d="M43.3648 25.1031L38.8203 22.543" stroke="#53FDA9" stroke-width="0.5" stroke-linecap="round" stroke-linejoin="round"/>
<path d="M53.6469 47.5938L46.8438 51.4278" stroke="#53FDA9" stroke-width="0.5" stroke-linecap="round" stroke-linejoin="round"/>
<path d="M54.7266 34.3579V34.3555" stroke="#53FDA9" stroke-width="0.5" stroke-linecap="round" stroke-linejoin="round"/>
<path d="M54.7271 34.3594V45.7049C54.7291 46.0883 54.6299 46.4652 54.4397 46.7973C54.2495 47.1293 53.9751 47.4045 53.6445 47.5946" stroke="#53FDA9" stroke-width="0.5" stroke-linecap="round" stroke-linejoin="round"/>
<path d="M27.4609 46.8711V55.947C27.4608 56.3282 27.5598 56.7029 27.7479 57.0336C27.9361 57.3644 28.2069 57.6399 28.5334 57.8327C28.86 58.0255 29.2309 58.1289 29.6094 58.1326C29.988 58.1364 30.3609 58.0404 30.6912 57.8541L36.5499 54.554" stroke="#53FDA9" stroke-width="0.5" stroke-linecap="round" stroke-linejoin="round"/>
<path d="M54.0547 31.8814L55.8868 30.8485C56.2254 30.6608 56.5075 30.3845 56.7032 30.0489C56.8989 29.7132 57.0011 29.3306 56.9989 28.9414" stroke="#53FDA9" stroke-width="0.5" stroke-linecap="round" stroke-linejoin="round"/>
<path d="M17.1289 11.5497C17.4482 11.3542 17.8137 11.2481 18.1874 11.2424C18.561 11.2368 18.9294 11.3316 19.2545 11.5173L21.3159 12.677" stroke="#53FDA9" stroke-width="0.5" stroke-linecap="round" stroke-linejoin="round"/>
<path d="M17.1284 11.5508L10.3672 15.36" stroke="#53FDA9" stroke-width="0.5" stroke-linecap="round" stroke-linejoin="round"/>
<path d="M43.3672 13.0078V17.4179" stroke="#53FDA9" stroke-width="0.5" stroke-linecap="round" stroke-linejoin="round"/>
<path d="M43.357 13.0096V10.9039C43.359 10.5103 43.2544 10.1237 43.0546 9.78546C42.8547 9.44726 42.5671 9.17031 42.2227 8.98438V8.98438" stroke="#53FDA9" stroke-width="0.5" stroke-linecap="round" stroke-linejoin="round"/>
<path d="M27.4609 34.0672V18.9945C27.4599 18.1298 27.6878 17.2805 28.1213 16.5341C28.5547 15.7877 29.1779 15.1713 29.9268 14.7482L31.998 13.5787L40.1352 8.99716C40.4555 8.8171 40.8163 8.72266 41.1832 8.72266C41.55 8.72266 41.9108 8.8171 42.2311 8.99716" stroke="#53FDA9" stroke-width="0.5" stroke-linecap="round" stroke-linejoin="round"/>
<path d="M42.6917 50.3359C42.2581 51.0763 41.6369 51.6874 40.8917 52.1065L36.5469 54.5549" stroke="#53FDA9" stroke-width="0.5" stroke-linecap="round" stroke-linejoin="round"/>
<path d="M9.94454 31.1144C9.51064 30.3679 9.28173 29.5185 9.28125 28.6535V26.3789" stroke="#53FDA9" stroke-width="0.5" stroke-linecap="round" stroke-linejoin="round"/>
<path d="M20.6445 25.1016V30.2243" stroke="#53FDA9" stroke-width="0.5" stroke-linecap="round" stroke-linejoin="round"/>
<path d="M20.6445 19.9805V25.1008" stroke="#53FDA9" stroke-width="0.5" stroke-linecap="round" stroke-linejoin="round"/>
<path d="M20.6445 19.9832V15.156C20.6433 14.291 20.8712 13.4412 21.3046 12.6944C21.7381 11.9476 22.3613 11.3306 23.1103 10.9072L33.3139 5.15625" stroke="#53FDA9" stroke-width="0.5" stroke-linecap="round" stroke-linejoin="round"/>
<path d="M20.6445 35.3493V30.2266" stroke="#53FDA9" stroke-width="0.5" stroke-linecap="round" stroke-linejoin="round"/>
<path d="M33.3242 5.15602C33.6166 4.98886 33.944 4.89336 34.2799 4.8774C34.6158 4.86143 34.9506 4.92543 35.2574 5.06412C35.3234 5.09239 35.3876 5.12477 35.4497 5.161" stroke="#53FDA9" stroke-width="0.5" stroke-linecap="round" stroke-linejoin="round"/>
<path d="M42.2312 8.98423L35.4453 5.16016" stroke="#53FDA9" stroke-width="0.5" stroke-linecap="round" stroke-linejoin="round"/>
</svg>
