<svg width="97" height="96" viewBox="0 0 97 96" fill="none" xmlns="http://www.w3.org/2000/svg">
<path d="M50.9961 48.0026C50.9961 47.6344 51.2946 47.3359 51.6628 47.3359H96.3289C96.6971 47.3359 96.9956 47.6344 96.9956 48.0026C96.9956 48.3708 96.6971 48.6693 96.3289 48.6693H51.6628C51.2946 48.6693 50.9961 48.3708 50.9961 48.0026Z" fill="url(#paint0_linear_1729_4052)"/>
<path d="M46.9961 48.0026C46.9961 47.6344 46.6976 47.3359 46.3294 47.3359H1.66913C1.30323 47.3359 1.00571 47.6309 1.00249 47.9967C0.999241 48.3672 1.29865 48.6693 1.66913 48.6693H46.3294C46.6976 48.6693 46.9961 48.3708 46.9961 48.0026Z" fill="url(#paint1_linear_1729_4052)"/>
<rect x="49.6641" y="49.332" width="46.6662" height="1.33332" rx="0.666658" transform="rotate(90 49.6641 49.332)" fill="url(#paint2_linear_1729_4052)"/>
<rect width="46.6662" height="1.33332" rx="0.666661" transform="matrix(4.37114e-08 -1 -1 -4.37114e-08 49.6641 46.668)" fill="url(#paint3_linear_1729_4052)"/>
<path d="M48.3281 50.0065C48.3281 49.6383 48.6266 49.3398 48.9948 49.3398H78.9945C79.3626 49.3398 79.6611 49.6383 79.6611 50.0065C79.6611 50.3747 79.3626 50.6732 78.9945 50.6732H48.9948C48.6266 50.6732 48.3281 50.3747 48.3281 50.0065Z" fill="url(#paint4_linear_1729_4052)"/>
<path d="M49.6562 46.0065C49.6562 45.6383 49.3578 45.3398 48.9896 45.3398H18.9899C18.6217 45.3398 18.3233 45.6383 18.3233 46.0065C18.3233 46.3747 18.6217 46.6732 18.9899 46.6732H48.9896C49.3578 46.6732 49.6562 46.3747 49.6562 46.0065Z" fill="url(#paint5_linear_1729_4052)"/>
<defs>
<linearGradient id="paint0_linear_1729_4052" x1="51.138" y1="48.6162" x2="96.9974" y2="48.0047" gradientUnits="userSpaceOnUse">
<stop stop-color="#632BFF"/>
<stop offset="1" stop-opacity="0"/>
</linearGradient>
<linearGradient id="paint1_linear_1729_4052" x1="46.8438" y1="48.6161" x2="0.994781" y2="48.005" gradientUnits="userSpaceOnUse">
<stop stop-color="#632BFF"/>
<stop offset="1" stop-opacity="0"/>
</linearGradient>
<linearGradient id="paint2_linear_1729_4052" x1="49.6641" y1="50.6654" x2="96.3313" y2="50.0846" gradientUnits="userSpaceOnUse">
<stop stop-color="#632BFF"/>
<stop offset="1" stop-opacity="0"/>
</linearGradient>
<linearGradient id="paint3_linear_1729_4052" x1="1.68414e-07" y1="1.33334" x2="46.6672" y2="0.752588" gradientUnits="userSpaceOnUse">
<stop stop-color="#632BFF"/>
<stop offset="1" stop-opacity="0"/>
</linearGradient>
<linearGradient id="paint4_linear_1729_4052" x1="48.3281" y1="50.6732" x2="79.6645" y2="50.4113" gradientUnits="userSpaceOnUse">
<stop stop-color="#632BFF"/>
<stop offset="1" stop-opacity="0"/>
</linearGradient>
<linearGradient id="paint5_linear_1729_4052" x1="49.6562" y1="46.6732" x2="18.3199" y2="46.4113" gradientUnits="userSpaceOnUse">
<stop stop-color="#632BFF"/>
<stop offset="1" stop-opacity="0"/>
</linearGradient>
</defs>
</svg>
