<svg width="40" height="40" viewBox="0 0 40 40" fill="none" xmlns="http://www.w3.org/2000/svg">
<path d="M24.9918 16.6117C24.6331 16.3907 24.1669 16.3907 23.7724 16.6117L20.9748 18.3057L19.0739 19.4106L16.2764 21.1047C15.9178 21.3257 15.4515 21.3257 15.057 21.1047L12.8333 19.7789C12.4747 19.558 12.2236 19.1528 12.2236 18.7109V16.0961C12.2236 15.6542 12.4388 15.2491 12.8333 15.0281L15.0211 13.7391C15.3798 13.5181 15.846 13.5181 16.2406 13.7391L18.4284 15.0281C18.787 15.2491 19.0381 15.6542 19.0381 16.0961V17.7902L20.939 16.6485V14.9544C20.939 14.5125 20.7238 14.1074 20.3293 13.8864L16.2764 11.4558C15.9178 11.2348 15.4515 11.2348 15.057 11.4558L10.9325 13.8864C10.5379 14.1074 10.3228 14.5125 10.3228 14.9544V19.8526C10.3228 20.2945 10.5379 20.6996 10.9325 20.9205L15.057 23.3512C15.4157 23.5722 15.8819 23.5722 16.2764 23.3512L19.0739 21.6939L20.9748 20.5523L23.7724 18.895C24.131 18.6741 24.5973 18.6741 24.9918 18.895L27.1796 20.184C27.5383 20.405 27.7893 20.8101 27.7893 21.252V23.8668C27.7893 24.3087 27.5741 24.7138 27.1796 24.9348L24.9918 26.2607C24.6331 26.4816 24.1669 26.4816 23.7724 26.2607L21.5846 24.9717C21.2259 24.7507 20.9748 24.3456 20.9748 23.9036V22.2095L19.0739 23.3512V25.0453C19.0739 25.4872 19.2891 25.8923 19.6837 26.1133L23.8082 28.544C24.1669 28.7649 24.6331 28.7649 25.0276 28.544L29.1522 26.1133C29.5109 25.8923 29.7619 25.4872 29.7619 25.0453V20.1472C29.7619 19.7053 29.5467 19.3001 29.1522 19.0792L24.9918 16.6117Z" fill="white"/>
</svg>
