<svg width="40" height="40" viewBox="0 0 40 40" fill="none" xmlns="http://www.w3.org/2000/svg">
<path d="M15.8104 19.9352C15.791 20.2718 15.9061 20.6023 16.1304 20.8541C16.3546 21.106 16.6696 21.2585 17.0063 21.2781H17.0756C17.3235 21.2778 17.5659 21.205 17.7729 21.0685C17.9799 20.9321 18.1424 20.738 18.2403 20.5103C18.3383 20.2826 18.3674 20.0311 18.3242 19.787C18.2809 19.5429 18.1671 19.3169 17.9968 19.1367C17.8265 18.9565 17.6071 18.8302 17.3659 18.7732C17.1246 18.7163 16.8719 18.7312 16.639 18.8162C16.4062 18.9012 16.2032 19.0525 16.0554 19.2515C15.9075 19.4504 15.8211 19.6884 15.8069 19.9359L15.8104 19.9352Z" fill="white"/>
<path d="M11.0782 19.6129C10.9973 19.6084 10.9168 19.628 10.847 19.6692C10.7772 19.7104 10.7211 19.7713 10.6859 19.8444C10.6507 19.9174 10.638 19.9993 10.6493 20.0795C10.6606 20.1598 10.6954 20.235 10.7494 20.2954C10.8034 20.3559 10.8741 20.3991 10.9526 20.4194C11.0311 20.4397 11.1138 20.4363 11.1904 20.4096C11.267 20.3829 11.3339 20.3341 11.3827 20.2693C11.4315 20.2046 11.4601 20.1269 11.4647 20.0459C11.4679 19.9921 11.4604 19.9381 11.4427 19.8872C11.425 19.8363 11.3974 19.7893 11.3615 19.7491C11.3256 19.7089 11.282 19.6761 11.2334 19.6528C11.1848 19.6294 11.1321 19.6159 11.0782 19.6129Z" fill="white"/>
<path d="M15.7303 12.5692C15.8024 12.5322 15.8619 12.4746 15.9014 12.4038C15.9409 12.333 15.9585 12.2522 15.9521 12.1714C15.9457 12.0906 15.9156 12.0135 15.8655 11.9497C15.8153 11.886 15.7475 11.8386 15.6705 11.8134C15.5934 11.7881 15.5107 11.7863 15.4326 11.808C15.3545 11.8297 15.2846 11.874 15.2316 11.9354C15.1787 11.9968 15.1451 12.0724 15.135 12.1528C15.125 12.2333 15.1389 12.3149 15.1752 12.3874C15.1995 12.4359 15.2332 12.4791 15.2744 12.5146C15.3155 12.55 15.3633 12.577 15.4149 12.5939C15.4665 12.6108 15.5209 12.6173 15.575 12.613C15.6292 12.6088 15.6819 12.5939 15.7303 12.5692Z" fill="white"/>
<path d="M17.0187 14.8147C17.1307 14.7583 17.2234 14.6698 17.2852 14.5607C17.3469 14.4515 17.3749 14.3265 17.3656 14.2014C17.3563 14.0763 17.3101 13.9568 17.2329 13.858C17.1556 13.7592 17.0509 13.6855 16.9317 13.6462C16.8126 13.6069 16.6846 13.6038 16.5637 13.6373C16.4428 13.6708 16.3346 13.7394 16.2527 13.8344C16.1708 13.9294 16.119 14.0465 16.1036 14.171C16.0883 14.2955 16.1102 14.4217 16.1666 14.5337C16.2041 14.6081 16.2559 14.6744 16.319 14.7289C16.3821 14.7833 16.4553 14.8247 16.5345 14.8508C16.6136 14.8769 16.6971 14.8871 16.7802 14.881C16.8633 14.8748 16.9443 14.8523 17.0187 14.8147Z" fill="white"/>
<path d="M12.6849 16.3595C12.7713 16.4163 12.8725 16.4462 12.9759 16.4454C13.0793 16.4446 13.1801 16.4132 13.2656 16.3551C13.3511 16.297 13.4175 16.2149 13.4563 16.119C13.4951 16.0232 13.5046 15.9181 13.4836 15.8168C13.4626 15.7156 13.4121 15.6229 13.3384 15.5504C13.2647 15.4779 13.1712 15.4289 13.0696 15.4096C12.968 15.3903 12.863 15.4015 12.7679 15.4419C12.6727 15.4823 12.5917 15.55 12.535 15.6364C12.4591 15.7522 12.4322 15.8934 12.4603 16.029C12.4884 16.1645 12.5692 16.2834 12.6849 16.3595Z" fill="white"/>
<path d="M13.4563 19.3819C13.3311 19.3748 13.2066 19.405 13.0986 19.4687C12.9905 19.5324 12.9038 19.6266 12.8493 19.7396C12.7949 19.8526 12.7751 19.9791 12.7925 20.1033C12.81 20.2275 12.8639 20.3437 12.9474 20.4373C13.0309 20.5309 13.1402 20.5976 13.2616 20.6291C13.383 20.6605 13.511 20.6552 13.6294 20.6139C13.7479 20.5726 13.8514 20.4972 13.9269 20.3971C14.0024 20.2969 14.0466 20.1767 14.0538 20.0515C14.0633 19.8835 14.0057 19.7186 13.8936 19.593C13.7816 19.4675 13.6243 19.3915 13.4563 19.3819Z" fill="white"/>
<path d="M12.7541 23.6441C12.6619 23.6907 12.5856 23.7636 12.5348 23.8535C12.484 23.9435 12.461 24.0465 12.4688 24.1496C12.4765 24.2526 12.5146 24.351 12.5783 24.4324C12.642 24.5138 12.7283 24.5744 12.8265 24.6067C12.9246 24.639 13.0301 24.6415 13.1297 24.6138C13.2292 24.5862 13.3184 24.5296 13.3858 24.4513C13.4532 24.373 13.4959 24.2765 13.5084 24.1739C13.521 24.0714 13.5029 23.9674 13.4563 23.8751C13.4254 23.8138 13.3827 23.7592 13.3307 23.7144C13.2787 23.6696 13.2183 23.6355 13.1531 23.6141C13.0879 23.5926 13.0191 23.5842 12.9506 23.5894C12.8822 23.5945 12.8154 23.6131 12.7541 23.6441Z" fill="white"/>
<path d="M15.2173 18.0733C15.3408 18.1542 15.4855 18.1967 15.6332 18.1954C15.7808 18.1941 15.9248 18.149 16.0468 18.0659C16.1689 17.9828 16.2635 17.8653 16.3188 17.7284C16.3741 17.5915 16.3876 17.4413 16.3575 17.2967C16.3274 17.1521 16.2552 17.0197 16.1499 16.9162C16.0445 16.8127 15.9109 16.7428 15.7658 16.7153C15.6208 16.6877 15.4708 16.7038 15.3348 16.7615C15.1989 16.8192 15.0832 16.9159 15.0022 17.0394C14.9483 17.1213 14.9111 17.2131 14.8928 17.3095C14.8745 17.4059 14.8753 17.5049 14.8953 17.6009C14.9153 17.697 14.954 17.7881 15.0092 17.8692C15.0645 17.9502 15.1352 18.0196 15.2173 18.0733Z" fill="white"/>
<path d="M23.0354 14.7653C23.1405 14.8339 23.2637 14.8698 23.3892 14.8684C23.5147 14.8671 23.6371 14.8285 23.7407 14.7576C23.8443 14.6867 23.9246 14.5867 23.9714 14.4702C24.0182 14.3537 24.0294 14.226 24.0036 14.1031C23.9778 13.9802 23.9162 13.8678 23.8265 13.7799C23.7368 13.6921 23.6231 13.6328 23.4997 13.6096C23.3763 13.5864 23.2488 13.6003 23.1333 13.6495C23.0178 13.6987 22.9195 13.7811 22.8508 13.8862C22.8051 13.956 22.7736 14.0341 22.7581 14.1161C22.7426 14.1981 22.7435 14.2824 22.7606 14.3641C22.7777 14.4457 22.8108 14.5232 22.858 14.5921C22.9052 14.6609 22.9654 14.7198 23.0354 14.7653Z" fill="white"/>
<path d="M24.3372 12.5268C24.4052 12.5714 24.4848 12.5948 24.5661 12.594C24.6474 12.5933 24.7266 12.5685 24.7937 12.5227C24.8609 12.4769 24.913 12.4123 24.9434 12.3369C24.9738 12.2615 24.9811 12.1788 24.9645 12.0993C24.9479 12.0197 24.9081 11.9469 24.8501 11.89C24.792 11.8331 24.7184 11.7947 24.6386 11.7796C24.5587 11.7645 24.4762 11.7735 24.4014 11.8053C24.3267 11.8372 24.263 11.8905 24.2185 11.9585C24.159 12.0496 24.138 12.1607 24.1603 12.2672C24.1825 12.3738 24.2462 12.4671 24.3372 12.5268Z" fill="white"/>
<path d="M23.1351 18.7277C22.9686 18.7181 22.8019 18.7414 22.6444 18.7963C22.487 18.8512 22.3419 18.9365 22.2174 19.0475C21.966 19.2716 21.8139 19.5863 21.7946 19.9225C21.7753 20.2588 21.8903 20.5889 22.1144 20.8403C22.3385 21.0917 22.6532 21.2438 22.9894 21.2631C23.0137 21.2631 23.0387 21.2631 23.063 21.2631C23.3079 21.263 23.5475 21.192 23.753 21.0587C23.9585 20.9255 24.1211 20.7356 24.2211 20.512C24.3211 20.2885 24.3543 20.0407 24.3167 19.7987C24.2791 19.5567 24.1723 19.3307 24.0091 19.148C23.8987 19.0235 23.7645 18.9221 23.6144 18.85C23.4643 18.7778 23.3014 18.7362 23.1351 18.7277Z" fill="white"/>
<path d="M17.4348 17.9845C17.5402 18.195 17.7022 18.3719 17.9027 18.4953C18.1032 18.6188 18.3342 18.6837 18.5696 18.683C18.7867 18.683 19.0002 18.6275 19.1896 18.5216C19.3791 18.4157 19.5383 18.263 19.6519 18.078C19.7656 17.8931 19.83 17.6822 19.839 17.4653C19.8479 17.2484 19.8012 17.0329 19.7031 16.8392C19.597 16.6296 19.4346 16.4537 19.2342 16.3312C19.0338 16.2087 18.8032 16.1444 18.5683 16.1455C18.3519 16.1459 18.1391 16.2015 17.9503 16.3072C17.7615 16.4128 17.6027 16.565 17.4892 16.7492C17.3756 16.9334 17.311 17.1436 17.3015 17.3598C17.292 17.576 17.3379 17.791 17.4348 17.9845Z" fill="white"/>
<path d="M27.3873 16.3581C27.4795 16.3116 27.5559 16.2387 27.6067 16.1488C27.6576 16.0589 27.6806 15.9559 27.673 15.8529C27.6653 15.7498 27.6273 15.6514 27.5637 15.57C27.5001 15.4886 27.4138 15.4278 27.3157 15.3955C27.2176 15.3631 27.1121 15.3605 27.0125 15.3881C26.9129 15.4156 26.8238 15.4721 26.7563 15.5503C26.6888 15.6285 26.646 15.725 26.6333 15.8275C26.6207 15.9301 26.6387 16.0341 26.6851 16.1264C26.7475 16.2502 26.8566 16.3441 26.9882 16.3876C27.1199 16.431 27.2634 16.4204 27.3873 16.3581Z" fill="white"/>
<path d="M24.1696 16.7627C24.0377 16.8291 23.9285 16.9331 23.8557 17.0616C23.7829 17.1901 23.7499 17.3373 23.7608 17.4846C23.7717 17.6319 23.826 17.7726 23.9169 17.889C24.0078 18.0054 24.1312 18.0922 24.2714 18.1385C24.4116 18.1848 24.5624 18.1885 24.7047 18.149C24.847 18.1096 24.9745 18.0289 25.0709 17.917C25.1673 17.8052 25.2284 17.6673 25.2465 17.5207C25.2645 17.3742 25.2387 17.2255 25.1723 17.0936C25.1282 17.006 25.0673 16.9279 24.9931 16.8638C24.9189 16.7998 24.8327 16.751 24.7396 16.7202C24.6464 16.6895 24.5481 16.6774 24.4503 16.6847C24.3525 16.692 24.2571 16.7185 24.1696 16.7627Z" fill="white"/>
<path d="M20.0228 12.3352C20.126 12.3411 20.2286 12.3162 20.3177 12.2637C20.4068 12.2113 20.4783 12.1336 20.5232 12.0405C20.5681 11.9474 20.5843 11.8431 20.5699 11.7407C20.5556 11.6384 20.5111 11.5426 20.4423 11.4655C20.3734 11.3884 20.2833 11.3335 20.1832 11.3076C20.0831 11.2818 19.9776 11.2862 19.8801 11.3203C19.7825 11.3544 19.6972 11.4167 19.6351 11.4993C19.5729 11.5819 19.5366 11.681 19.5309 11.7842C19.5231 11.9225 19.5705 12.0582 19.6628 12.1615C19.755 12.2649 19.8845 12.3273 20.0228 12.3352Z" fill="white"/>
<path d="M20.0178 15.622C20.1652 15.6302 20.3117 15.5946 20.4389 15.5196C20.566 15.4446 20.6681 15.3336 20.7322 15.2006C20.7963 15.0676 20.8195 14.9186 20.7989 14.7725C20.7784 14.6263 20.7149 14.4895 20.6166 14.3793C20.5183 14.2692 20.3895 14.1907 20.2466 14.1537C20.1037 14.1167 19.953 14.1229 19.8136 14.1716C19.6743 14.2202 19.5524 14.309 19.4635 14.4269C19.3746 14.5448 19.3226 14.6863 19.3142 14.8337C19.303 15.0315 19.3708 15.2257 19.5028 15.3735C19.6347 15.5213 19.82 15.6107 20.0178 15.622Z" fill="white"/>
<path d="M15.9746 23.2395C16.1065 23.173 16.2157 23.0689 16.2884 22.9404C16.3611 22.8118 16.394 22.6646 16.3831 22.5173C16.3721 22.3701 16.3177 22.2293 16.2267 22.113C16.1358 21.9966 16.0124 21.9099 15.8721 21.8637C15.7318 21.8175 15.581 21.8139 15.4387 21.8534C15.2964 21.8929 15.169 21.9737 15.0727 22.0857C14.9763 22.1976 14.9153 22.3356 14.8974 22.4822C14.8794 22.6287 14.9054 22.7774 14.9719 22.9092C15.0611 23.0859 15.2169 23.22 15.4049 23.282C15.5929 23.3439 15.7978 23.3286 15.9746 23.2395Z" fill="white"/>
<path d="M20.4999 16.7094C20.3451 16.9457 20.2735 17.2268 20.2964 17.5083C20.3194 17.7898 20.4355 18.0556 20.6266 18.2637C20.8176 18.4717 21.0725 18.6102 21.3511 18.657C21.6296 18.7039 21.9158 18.6565 22.1644 18.5224C22.413 18.3883 22.6097 18.1751 22.7235 17.9166C22.8373 17.6581 22.8616 17.369 22.7927 17.0951C22.7237 16.8213 22.5653 16.5782 22.3427 16.4044C22.12 16.2307 21.8457 16.1361 21.5633 16.1357C21.3524 16.1356 21.1447 16.188 20.9591 16.2881C20.7734 16.3883 20.6156 16.533 20.4999 16.7094Z" fill="white"/>
<path d="M22.7061 22.0182C22.6044 21.8165 22.4507 21.6456 22.2609 21.5231C22.0712 21.4006 21.8521 21.331 21.6265 21.3215C21.4008 21.3119 21.1766 21.3627 20.9772 21.4686C20.7777 21.5746 20.6101 21.7319 20.4917 21.9242C20.3733 22.1166 20.3083 22.337 20.3035 22.5628C20.2987 22.7887 20.3543 23.0117 20.4644 23.2089C20.5746 23.406 20.7354 23.5703 20.9302 23.6846C21.125 23.7989 21.3468 23.8592 21.5726 23.8592C21.7713 23.8578 21.967 23.8103 22.1442 23.7204C22.444 23.5687 22.6714 23.3044 22.7767 22.9853C22.882 22.6663 22.8566 22.3185 22.7061 22.0182Z" fill="white"/>
<path d="M24.9247 21.9291C24.8012 21.8481 24.6565 21.8055 24.5089 21.8067C24.3612 21.8079 24.2172 21.8528 24.0951 21.9359C23.973 22.0189 23.8782 22.1363 23.8228 22.2732C23.7674 22.4101 23.7539 22.5603 23.7839 22.7049C23.8139 22.8495 23.886 22.9819 23.9913 23.0855C24.0966 23.1891 24.2302 23.2591 24.3752 23.2867C24.5203 23.3144 24.6703 23.2984 24.8063 23.2407C24.9422 23.1831 25.0581 23.0865 25.1391 22.963C25.2474 22.7974 25.2857 22.5956 25.2455 22.4018C25.2053 22.208 25.0899 22.038 24.9247 21.9291Z" fill="white"/>
<path d="M27.3556 20.0235C27.3626 19.8983 27.3324 19.7738 27.2688 19.6657C27.2051 19.5577 27.1108 19.4709 26.9978 19.4165C26.8849 19.362 26.7583 19.3422 26.6341 19.3597C26.5099 19.3771 26.3937 19.431 26.3001 19.5145C26.2065 19.598 26.1398 19.7074 26.1084 19.8288C26.0769 19.9502 26.0822 20.0782 26.1235 20.1966C26.1648 20.315 26.2403 20.4185 26.3404 20.494C26.4405 20.5696 26.5608 20.6137 26.686 20.6209C26.854 20.6304 27.0189 20.5728 27.1444 20.4608C27.27 20.3487 27.3459 20.1915 27.3556 20.0235Z" fill="white"/>
<path d="M29.1109 19.571C29.0298 19.5663 28.9491 19.5858 28.8791 19.627C28.809 19.6682 28.7528 19.7292 28.7174 19.8024C28.6821 19.8755 28.6692 19.9575 28.6805 20.038C28.6917 20.1184 28.7266 20.1938 28.7806 20.2544C28.8347 20.3151 28.9055 20.3583 28.9842 20.3787C29.0628 20.3991 29.1457 20.3958 29.2225 20.369C29.2992 20.3423 29.3663 20.2934 29.4152 20.2286C29.4641 20.1637 29.4928 20.0858 29.4974 20.0047C29.5035 19.896 29.4662 19.7893 29.3938 19.708C29.3213 19.6267 29.2196 19.5774 29.1109 19.571Z" fill="white"/>
<path d="M27.4575 23.6421C27.371 23.5854 27.2698 23.5557 27.1664 23.5567C27.0631 23.5576 26.9624 23.5891 26.877 23.6473C26.7916 23.7055 26.7254 23.7877 26.6867 23.8835C26.648 23.9793 26.6386 24.0844 26.6596 24.1856C26.6807 24.2867 26.7312 24.3794 26.8049 24.4518C26.8786 24.5242 26.9721 24.5732 27.0737 24.5925C27.1752 24.6118 27.2801 24.6005 27.3752 24.5602C27.4703 24.5198 27.5514 24.4522 27.6081 24.3658C27.6457 24.3084 27.6717 24.2441 27.6845 24.1767C27.6973 24.1092 27.6967 24.0399 27.6827 23.9727C27.6688 23.9055 27.6417 23.8417 27.603 23.785C27.5644 23.7282 27.5149 23.6797 27.4575 23.6421Z" fill="white"/>
<path d="M15.8063 27.4755C15.7384 27.431 15.6588 27.4075 15.5776 27.4082C15.4963 27.4089 15.4171 27.4336 15.3499 27.4793C15.2828 27.525 15.2306 27.5896 15.2002 27.6649C15.1697 27.7402 15.1622 27.8228 15.1787 27.9024C15.1952 27.9819 15.2349 28.0548 15.2928 28.1118C15.3507 28.1688 15.4242 28.2073 15.504 28.2225C15.5838 28.2377 15.6663 28.2289 15.7411 28.1973C15.8159 28.1656 15.8797 28.1124 15.9243 28.0445C15.9539 27.9994 15.9744 27.9489 15.9845 27.8959C15.9946 27.8429 15.9941 27.7884 15.9832 27.7356C15.9722 27.6828 15.951 27.6326 15.9206 27.588C15.8903 27.5434 15.8514 27.5051 15.8063 27.4755Z" fill="white"/>
<path d="M24.4117 27.4319C24.3391 27.4685 24.279 27.5257 24.239 27.5965C24.199 27.6672 24.1809 27.7482 24.1869 27.8292C24.193 27.9102 24.2229 27.9876 24.2729 28.0517C24.3229 28.1157 24.3908 28.1634 24.468 28.1889C24.5452 28.2143 24.6282 28.2163 24.7064 28.1945C24.7847 28.1728 24.8548 28.1284 24.9079 28.0668C24.9609 28.0052 24.9944 27.9293 25.0043 27.8487C25.0142 27.768 24.9999 27.6862 24.9633 27.6137C24.9391 27.5655 24.9056 27.5225 24.8648 27.4873C24.8239 27.452 24.7765 27.4252 24.7252 27.4083C24.674 27.3914 24.6199 27.3848 24.5661 27.3889C24.5123 27.3929 24.4598 27.4075 24.4117 27.4319Z" fill="white"/>
<path d="M19.6425 23.2894C19.7973 23.0531 19.8689 22.772 19.8459 22.4904C19.823 22.2089 19.7068 21.9431 19.5157 21.735C19.3246 21.527 19.0696 21.3886 18.7911 21.3418C18.5125 21.295 18.2263 21.3424 17.9777 21.4766C17.7291 21.6108 17.5324 21.824 17.4187 22.0826C17.305 22.3412 17.2807 22.6303 17.3498 22.9042C17.4189 23.1781 17.5774 23.4211 17.8002 23.5948C18.023 23.7685 18.2973 23.8629 18.5798 23.8631C18.7907 23.8638 18.9985 23.8117 19.1841 23.7115C19.3698 23.6113 19.5273 23.4662 19.6425 23.2894Z" fill="white"/>
<path d="M17.1062 25.2373C17.0012 25.1686 16.8783 25.1326 16.7529 25.1338C16.6275 25.135 16.5052 25.1734 16.4016 25.244C16.298 25.3147 16.2177 25.4145 16.1708 25.5308C16.1239 25.6471 16.1125 25.7747 16.1381 25.8975C16.1637 26.0203 16.2251 26.1327 16.3146 26.2205C16.4041 26.3084 16.5176 26.3678 16.6408 26.3911C16.7641 26.4145 16.8914 26.4008 17.0069 26.3518C17.1223 26.3028 17.2206 26.2206 17.2894 26.1157C17.3815 25.9749 17.4139 25.8033 17.3796 25.6386C17.3452 25.4739 17.2469 25.3295 17.1062 25.2373Z" fill="white"/>
<path d="M20.0656 27.6659C19.9624 27.66 19.8599 27.6849 19.7708 27.7373C19.6818 27.7897 19.6103 27.8674 19.5654 27.9604C19.5205 28.0535 19.5041 28.1578 19.5185 28.2601C19.5328 28.3624 19.5772 28.4582 19.646 28.5353C19.7148 28.6124 19.8048 28.6674 19.9049 28.6933C20.0049 28.7193 20.1104 28.7149 20.2079 28.6809C20.3055 28.6469 20.3908 28.5847 20.453 28.5023C20.5153 28.4198 20.5517 28.3207 20.5576 28.2175C20.5615 28.149 20.5519 28.0804 20.5293 28.0156C20.5067 27.9507 20.4716 27.891 20.4259 27.8398C20.3802 27.7885 20.3249 27.7468 20.263 27.717C20.2012 27.6871 20.1341 27.6698 20.0656 27.6659Z" fill="white"/>
<path d="M20.071 24.3803C19.9235 24.3713 19.7766 24.4063 19.649 24.4809C19.5214 24.5555 19.4188 24.6662 19.3542 24.7992C19.2896 24.9321 19.2659 25.0812 19.2861 25.2276C19.3063 25.374 19.3695 25.5112 19.4677 25.6216C19.5659 25.7321 19.6946 25.8109 19.8377 25.8481C19.9807 25.8853 20.1316 25.8793 20.2712 25.8307C20.4107 25.7821 20.5328 25.6932 20.6218 25.5752C20.7108 25.4572 20.7628 25.3154 20.7711 25.1679C20.7825 24.9706 20.7152 24.7769 20.5839 24.6293C20.4527 24.4816 20.2682 24.3921 20.071 24.3803Z" fill="white"/>
<path d="M23.1233 25.1864C23.0112 25.2432 22.9186 25.332 22.857 25.4416C22.7955 25.5511 22.7678 25.6764 22.7775 25.8017C22.7873 25.927 22.8339 26.0465 22.9116 26.1453C22.9893 26.244 23.0946 26.3174 23.2141 26.3563C23.3335 26.3952 23.4618 26.3978 23.5828 26.3637C23.7037 26.3296 23.8118 26.2604 23.8934 26.1649C23.975 26.0693 24.0264 25.9517 24.0411 25.827C24.0558 25.7022 24.0332 25.5758 23.9761 25.4639C23.9384 25.3897 23.8864 25.3235 23.8231 25.2694C23.7598 25.2152 23.6864 25.1741 23.6072 25.1483C23.528 25.1225 23.4445 25.1126 23.3615 25.1191C23.2784 25.1257 23.1975 25.1485 23.1233 25.1864Z" fill="white"/>
</svg>
