<svg width="40" height="40" viewBox="0 0 40 40" fill="none" xmlns="http://www.w3.org/2000/svg">
<path d="M21.8341 23.2086C24.6189 23.2086 26.8765 20.951 26.8765 18.1661C26.8765 15.3812 24.6189 13.1237 21.8341 13.1237C19.0492 13.1237 16.7916 15.3812 16.7916 18.1661C16.7916 20.951 19.0492 23.2086 21.8341 23.2086ZM21.8341 25.0421C18.0366 25.0421 14.958 21.9635 14.958 18.1661C14.958 14.3687 18.0366 11.29 21.8341 11.29C25.6315 11.29 28.7101 14.3687 28.7101 18.1661C28.7101 21.9635 25.6315 25.0421 21.8341 25.0421Z" fill="white"/>
<path d="M18.1666 26.8765C20.9515 26.8765 23.209 24.6189 23.209 21.8341C23.209 19.0492 20.9515 16.7916 18.1666 16.7916C15.3817 16.7916 13.1241 19.0492 13.1241 21.8341C13.1241 24.6189 15.3817 26.8765 18.1666 26.8765ZM18.1666 28.7101C14.3692 28.7101 11.2905 25.6315 11.2905 21.8341C11.2905 18.0366 14.3692 14.958 18.1666 14.958C21.964 14.958 25.0426 18.0366 25.0426 21.8341C25.0426 25.6315 21.964 28.7101 18.1666 28.7101Z" fill="white"/>
<path d="M22.0604 25.0385C22.5369 24.4612 22.8784 23.7847 23.0601 23.0585C23.7862 22.877 24.4626 22.5354 25.04 22.059C25.0136 22.9 24.8326 23.7289 24.5057 24.5041C23.7304 24.8311 22.9015 25.0121 22.0604 25.0385ZM16.9426 16.9409C16.2165 17.1224 15.54 17.464 14.9626 17.9404C14.989 17.0995 15.17 16.2705 15.497 15.4953C16.2722 15.1683 17.1012 14.9873 17.9421 14.9609C17.4657 15.5383 17.1241 16.2148 16.9426 16.9409Z" fill="white"/>
</svg>
