<svg width="40" height="40" viewBox="0 0 40 40" fill="none" xmlns="http://www.w3.org/2000/svg">
<path d="M15.1788 19.9239C15.1566 20.3105 15.2888 20.69 15.5462 20.9791C15.8037 21.2683 16.1654 21.4434 16.5519 21.466H16.6316C16.9162 21.4656 17.1946 21.382 17.4322 21.2253C17.6699 21.0686 17.8565 20.8458 17.969 20.5843C18.0814 20.3228 18.1149 20.0341 18.0652 19.7539C18.0155 19.4736 17.8848 19.214 17.6893 19.0071C17.4937 18.8003 17.2419 18.6552 16.9649 18.5898C16.6878 18.5244 16.3977 18.5415 16.1303 18.6391C15.8629 18.7367 15.6299 18.9104 15.4601 19.1389C15.2903 19.3674 15.1911 19.6406 15.1748 19.9247L15.1788 19.9239Z" fill="white"/>
<path d="M9.74521 19.5554C9.65226 19.5502 9.55985 19.5727 9.47967 19.62C9.39949 19.6673 9.33512 19.7373 9.29471 19.8212C9.25431 19.905 9.23967 19.999 9.25265 20.0912C9.26562 20.1834 9.30564 20.2696 9.36763 20.3391C9.42963 20.4085 9.51081 20.458 9.60094 20.4814C9.69107 20.5047 9.78608 20.5008 9.87398 20.4701C9.96188 20.4394 10.0387 20.3834 10.0948 20.3091C10.1508 20.2348 10.1836 20.1455 10.189 20.0526C10.1926 19.9907 10.184 19.9288 10.1637 19.8703C10.1433 19.8119 10.1116 19.758 10.0704 19.7118C10.0292 19.6656 9.97921 19.628 9.9234 19.6011C9.8676 19.5743 9.80704 19.5588 9.74521 19.5554Z" fill="white"/>
<path d="M15.0868 11.4665C15.1696 11.4239 15.238 11.3579 15.2833 11.2766C15.3286 11.1953 15.3489 11.1024 15.3415 11.0097C15.3342 10.9169 15.2996 10.8284 15.242 10.7552C15.1845 10.6821 15.1066 10.6276 15.0181 10.5986C14.9297 10.5697 14.8347 10.5675 14.745 10.5924C14.6553 10.6174 14.575 10.6683 14.5142 10.7387C14.4534 10.8092 14.4148 10.8961 14.4033 10.9884C14.3918 11.0808 14.4078 11.1745 14.4494 11.2577C14.4774 11.3134 14.5161 11.3631 14.5633 11.4038C14.6106 11.4445 14.6654 11.4754 14.7246 11.4948C14.7839 11.5142 14.8464 11.5217 14.9086 11.5168C14.9707 11.512 15.0313 11.4948 15.0868 11.4665Z" fill="white"/>
<path d="M16.5662 14.0464C16.6948 13.9815 16.8013 13.88 16.8721 13.7547C16.943 13.6293 16.9752 13.4857 16.9645 13.3421C16.9538 13.1985 16.9007 13.0613 16.8121 12.9478C16.7234 12.8344 16.6031 12.7497 16.4663 12.7046C16.3296 12.6595 16.1825 12.656 16.0437 12.6944C15.905 12.7329 15.7807 12.8116 15.6867 12.9207C15.5926 13.0298 15.5331 13.1643 15.5155 13.3072C15.4979 13.4501 15.523 13.5951 15.5878 13.7237C15.6308 13.8092 15.6903 13.8853 15.7628 13.9478C15.8352 14.0102 15.9193 14.0578 16.0102 14.0878C16.101 14.1178 16.1969 14.1295 16.2923 14.1224C16.3877 14.1153 16.4808 14.0895 16.5662 14.0464Z" fill="white"/>
<path d="M11.5899 15.819C11.6891 15.8842 11.8054 15.9186 11.924 15.9177C12.0427 15.9168 12.1585 15.8807 12.2567 15.814C12.3549 15.7473 12.4311 15.653 12.4756 15.5429C12.5202 15.4329 12.5311 15.3122 12.507 15.1959C12.4829 15.0797 12.4249 14.9733 12.3403 14.89C12.2556 14.8068 12.1482 14.7505 12.0316 14.7283C11.915 14.7062 11.7945 14.7191 11.6852 14.7654C11.5759 14.8118 11.4829 14.8895 11.4178 14.9888C11.3306 15.1217 11.2998 15.2838 11.3321 15.4395C11.3643 15.5952 11.4571 15.7317 11.5899 15.819Z" fill="white"/>
<path d="M12.4758 19.2892C12.332 19.2811 12.1891 19.3158 12.065 19.3889C11.941 19.462 11.8414 19.5703 11.7788 19.7C11.7163 19.8297 11.6936 19.975 11.7136 20.1176C11.7337 20.2602 11.7955 20.3937 11.8914 20.5011C11.9873 20.6086 12.1128 20.6852 12.2522 20.7213C12.3916 20.7574 12.5386 20.7513 12.6746 20.7039C12.8105 20.6565 12.9294 20.5699 13.0161 20.4549C13.1028 20.34 13.1535 20.2019 13.1618 20.0581C13.1727 19.8652 13.1065 19.6759 12.9779 19.5317C12.8493 19.3875 12.6687 19.3003 12.4758 19.2892Z" fill="white"/>
<path d="M11.6694 24.1846C11.5635 24.2381 11.4759 24.3218 11.4176 24.4251C11.3593 24.5285 11.3329 24.6467 11.3418 24.765C11.3507 24.8833 11.3944 24.9964 11.4675 25.0898C11.5407 25.1832 11.6398 25.2529 11.7525 25.29C11.8652 25.327 11.9864 25.3299 12.1007 25.2981C12.215 25.2664 12.3173 25.2014 12.3947 25.1115C12.4721 25.0216 12.5211 24.9108 12.5355 24.793C12.55 24.6753 12.5292 24.5559 12.4757 24.4499C12.4402 24.3795 12.3912 24.3168 12.3315 24.2654C12.2717 24.214 12.2024 24.1748 12.1276 24.1502C12.0527 24.1255 11.9737 24.1159 11.8951 24.1218C11.8165 24.1277 11.7398 24.1491 11.6694 24.1846Z" fill="white"/>
<path d="M14.4978 17.7863C14.6396 17.8792 14.8058 17.928 14.9753 17.9265C15.1449 17.925 15.3102 17.8732 15.4503 17.7778C15.5904 17.6824 15.6991 17.5475 15.7626 17.3903C15.8261 17.2331 15.8416 17.0606 15.807 16.8946C15.7725 16.7286 15.6895 16.5766 15.5686 16.4577C15.4477 16.3389 15.2942 16.2586 15.1276 16.227C14.9611 16.1953 14.7889 16.2138 14.6328 16.28C14.4767 16.3463 14.3438 16.4573 14.2508 16.5991C14.189 16.6932 14.1463 16.7986 14.1252 16.9093C14.1042 17.0199 14.1051 17.1336 14.1281 17.2439C14.151 17.3542 14.1955 17.4588 14.2589 17.5519C14.3224 17.645 14.4035 17.7246 14.4978 17.7863Z" fill="white"/>
<path d="M23.4746 13.9881C23.5953 14.0668 23.7367 14.108 23.8809 14.1064C24.025 14.1049 24.1655 14.0606 24.2845 13.9792C24.4034 13.8978 24.4956 13.783 24.5494 13.6492C24.6031 13.5155 24.616 13.3688 24.5864 13.2277C24.5567 13.0866 24.486 12.9575 24.383 12.8566C24.28 12.7557 24.1494 12.6877 24.0077 12.661C23.866 12.6344 23.7196 12.6503 23.587 12.7068C23.4544 12.7633 23.3415 12.8579 23.2627 12.9786C23.2101 13.0587 23.174 13.1485 23.1562 13.2426C23.1384 13.3368 23.1394 13.4335 23.1591 13.5273C23.1788 13.6211 23.2168 13.7101 23.2709 13.7891C23.3251 13.8682 23.3943 13.9358 23.4746 13.9881Z" fill="white"/>
<path d="M24.9694 11.4179C25.0475 11.4691 25.139 11.4959 25.2323 11.4951C25.3256 11.4943 25.4165 11.4658 25.4937 11.4132C25.5708 11.3607 25.6306 11.2864 25.6655 11.1999C25.7004 11.1133 25.7088 11.0184 25.6897 10.927C25.6707 10.8357 25.6249 10.7521 25.5583 10.6867C25.4917 10.6214 25.4072 10.5772 25.3155 10.5599C25.2238 10.5426 25.129 10.5529 25.0432 10.5895C24.9573 10.6261 24.8843 10.6873 24.8332 10.7654C24.7648 10.87 24.7408 10.9975 24.7663 11.1198C24.7919 11.2422 24.8649 11.3494 24.9694 11.4179Z" fill="white"/>
<path d="M23.5892 18.5376C23.3981 18.5266 23.2066 18.5533 23.0258 18.6164C22.845 18.6794 22.6784 18.7774 22.5355 18.9048C22.2468 19.162 22.0722 19.5235 22.05 19.9095C22.0278 20.2956 22.1599 20.6746 22.4172 20.9633C22.6745 21.2519 23.0359 21.4266 23.422 21.4487C23.4499 21.4487 23.4785 21.4487 23.5064 21.4487C23.7876 21.4486 24.0628 21.3671 24.2988 21.2141C24.5347 21.0611 24.7214 20.8431 24.8362 20.5864C24.951 20.3297 24.9892 20.0452 24.946 19.7673C24.9028 19.4894 24.7802 19.23 24.5928 19.0202C24.466 18.8772 24.3119 18.7608 24.1396 18.678C23.9673 18.5951 23.7802 18.5474 23.5892 18.5376Z" fill="white"/>
<path d="M17.0438 17.6848C17.1648 17.9265 17.3509 18.1297 17.5811 18.2714C17.8114 18.4131 18.0766 18.4877 18.3469 18.4868C18.5961 18.4869 18.8412 18.4231 19.0588 18.3015C19.2763 18.1799 19.4591 18.0045 19.5896 17.7922C19.7201 17.5799 19.7941 17.3377 19.8044 17.0886C19.8146 16.8396 19.7609 16.5921 19.6484 16.3698C19.5265 16.1291 19.3401 15.9271 19.1099 15.7865C18.8798 15.6458 18.615 15.572 18.3453 15.5733C18.0968 15.5737 17.8526 15.6376 17.6358 15.7589C17.4189 15.8802 17.2367 16.0549 17.1063 16.2664C16.9759 16.4779 16.9017 16.7193 16.8908 16.9675C16.8799 17.2157 16.9326 17.4626 17.0438 17.6848Z" fill="white"/>
<path d="M28.4716 15.8172C28.5775 15.7638 28.6652 15.6801 28.7235 15.5769C28.7819 15.4736 28.8084 15.3554 28.7996 15.2371C28.7908 15.1188 28.7471 15.0057 28.6741 14.9123C28.601 14.8188 28.5019 14.749 28.3893 14.7119C28.2767 14.6747 28.1555 14.6717 28.0412 14.7034C27.9269 14.735 27.8245 14.7999 27.747 14.8897C27.6695 14.9795 27.6204 15.0903 27.6059 15.208C27.5913 15.3257 27.612 15.4451 27.6653 15.5511C27.737 15.6932 27.8622 15.8011 28.0133 15.851C28.1645 15.9009 28.3293 15.8887 28.4716 15.8172Z" fill="white"/>
<path d="M24.7769 16.2814C24.6254 16.3576 24.5 16.4771 24.4165 16.6246C24.3329 16.7722 24.295 16.9412 24.3075 17.1103C24.32 17.2794 24.3824 17.441 24.4867 17.5746C24.5911 17.7083 24.7327 17.808 24.8937 17.8611C25.0548 17.9143 25.2279 17.9185 25.3913 17.8732C25.5547 17.828 25.701 17.7353 25.8118 17.6068C25.9225 17.4784 25.9926 17.3201 26.0134 17.1518C26.0341 16.9835 26.0044 16.8128 25.9282 16.6614C25.8776 16.5608 25.8077 16.4711 25.7224 16.3975C25.6372 16.324 25.5383 16.2679 25.4313 16.2326C25.3244 16.1973 25.2115 16.1835 25.0992 16.1918C24.9869 16.2002 24.8774 16.2306 24.7769 16.2814Z" fill="white"/>
<path d="M20.0155 11.198C20.134 11.2047 20.2519 11.1762 20.3541 11.1159C20.4564 11.0557 20.5385 10.9665 20.59 10.8596C20.6416 10.7527 20.6603 10.6329 20.6438 10.5154C20.6272 10.3979 20.5762 10.2879 20.4972 10.1994C20.4181 10.1109 20.3146 10.0478 20.1997 10.0181C20.0848 9.98841 19.9636 9.99348 19.8516 10.0327C19.7396 10.0718 19.6417 10.1433 19.5703 10.2382C19.499 10.333 19.4573 10.4468 19.4507 10.5653C19.4417 10.7241 19.4962 10.88 19.6022 10.9986C19.7081 11.1172 19.8568 11.1889 20.0155 11.198Z" fill="white"/>
<path d="M20.0097 14.9721C20.179 14.9815 20.3472 14.9406 20.4932 14.8545C20.6392 14.7684 20.7564 14.641 20.83 14.4883C20.9036 14.3355 20.9303 14.1645 20.9066 13.9966C20.883 13.8287 20.8102 13.6717 20.6973 13.5452C20.5844 13.4187 20.4366 13.3286 20.2725 13.2861C20.1084 13.2437 19.9353 13.2508 19.7753 13.3066C19.6152 13.3625 19.4753 13.4645 19.3733 13.5998C19.2712 13.7352 19.2115 13.8977 19.2018 14.0669C19.189 14.2941 19.2669 14.517 19.4184 14.6868C19.5699 14.8565 19.7826 14.9591 20.0097 14.9721Z" fill="white"/>
<path d="M15.3673 23.7185C15.5187 23.6422 15.6441 23.5227 15.7276 23.375C15.811 23.2274 15.8489 23.0584 15.8363 22.8893C15.8237 22.7202 15.7612 22.5586 15.6568 22.425C15.5523 22.2914 15.4106 22.1918 15.2496 22.1387C15.0885 22.0857 14.9153 22.0816 14.7519 22.127C14.5885 22.1723 14.4423 22.2652 14.3316 22.3937C14.221 22.5222 14.151 22.6806 14.1304 22.8489C14.1098 23.0172 14.1396 23.1879 14.216 23.3393C14.3184 23.5422 14.4972 23.6961 14.7131 23.7673C14.929 23.8384 15.1643 23.8209 15.3673 23.7185Z" fill="white"/>
<path d="M20.5634 16.2212C20.3856 16.4925 20.3034 16.8153 20.3298 17.1385C20.3561 17.4617 20.4895 17.7669 20.7088 18.0058C20.9282 18.2447 21.2209 18.4037 21.5407 18.4575C21.8605 18.5113 22.1892 18.4569 22.4746 18.3029C22.76 18.1489 22.9859 17.9042 23.1166 17.6073C23.2473 17.3105 23.2752 16.9786 23.196 16.6641C23.1168 16.3496 22.935 16.0705 22.6793 15.871C22.4236 15.6715 22.1087 15.5629 21.7844 15.5625C21.5422 15.5623 21.3038 15.6225 21.0906 15.7375C20.8774 15.8524 20.6963 16.0187 20.5634 16.2212Z" fill="white"/>
<path d="M23.0965 22.3159C22.9797 22.0843 22.8032 21.8881 22.5853 21.7475C22.3674 21.6069 22.1159 21.527 21.8568 21.516C21.5976 21.505 21.3403 21.5633 21.1112 21.685C20.8822 21.8066 20.6898 21.9872 20.5538 22.2081C20.4178 22.4289 20.3432 22.682 20.3377 22.9413C20.3322 23.2006 20.396 23.4567 20.5225 23.6831C20.649 23.9095 20.8336 24.0981 21.0573 24.2294C21.281 24.3606 21.5356 24.4298 21.795 24.4298C22.0231 24.4282 22.2478 24.3737 22.4513 24.2705C22.7955 24.0963 23.0566 23.7928 23.1775 23.4265C23.2985 23.0601 23.2693 22.6608 23.0965 22.3159Z" fill="white"/>
<path d="M25.6439 22.2139C25.5022 22.1208 25.336 22.0719 25.1665 22.0733C24.9969 22.0747 24.8316 22.1263 24.6914 22.2216C24.5512 22.317 24.4424 22.4518 24.3788 22.6089C24.3152 22.7661 24.2996 22.9386 24.334 23.1046C24.3685 23.2707 24.4513 23.4227 24.5722 23.5417C24.6931 23.6606 24.8465 23.741 25.0131 23.7727C25.1796 23.8044 25.3519 23.7861 25.508 23.7199C25.6641 23.6537 25.7971 23.5428 25.8901 23.401C26.0145 23.2108 26.0584 22.9791 26.0123 22.7566C25.9661 22.5341 25.8337 22.3389 25.6439 22.2139Z" fill="white"/>
<path d="M28.4353 20.0261C28.4434 19.8823 28.4087 19.7394 28.3356 19.6153C28.2625 19.4913 28.1542 19.3917 28.0245 19.3291C27.8948 19.2666 27.7495 19.2439 27.6069 19.2639C27.4643 19.284 27.3308 19.3458 27.2234 19.4417C27.1159 19.5375 27.0393 19.6631 27.0032 19.8025C26.9671 19.9419 26.9732 20.0889 27.0206 20.2249C27.068 20.3608 27.1547 20.4797 27.2696 20.5664C27.3846 20.6531 27.5227 20.7038 27.6664 20.7121C27.8593 20.723 28.0486 20.6568 28.1928 20.5282C28.337 20.3996 28.4242 20.219 28.4353 20.0261Z" fill="white"/>
<path d="M30.4507 19.5066C30.3576 19.5013 30.2649 19.5237 30.1845 19.5709C30.1041 19.6182 30.0395 19.6883 29.9989 19.7723C29.9583 19.8563 29.9435 19.9504 29.9564 20.0428C29.9694 20.1352 30.0094 20.2217 30.0715 20.2914C30.1335 20.361 30.2148 20.4107 30.3051 20.4341C30.3954 20.4575 30.4907 20.4536 30.5788 20.423C30.6669 20.3923 30.7439 20.3361 30.8001 20.2617C30.8563 20.1872 30.8891 20.0977 30.8945 20.0046C30.9014 19.8798 30.8586 19.7573 30.7755 19.6639C30.6923 19.5706 30.5755 19.514 30.4507 19.5066Z" fill="white"/>
<path d="M28.5522 24.1811C28.453 24.1161 28.3367 24.082 28.218 24.083C28.0994 24.0841 27.9838 24.1203 27.8857 24.1871C27.7877 24.2539 27.7116 24.3483 27.6672 24.4583C27.6228 24.5683 27.6119 24.689 27.6361 24.8052C27.6603 24.9213 27.7183 25.0277 27.803 25.1109C27.8876 25.194 27.9949 25.2502 28.1115 25.2724C28.228 25.2945 28.3485 25.2816 28.4578 25.2353C28.567 25.189 28.66 25.1113 28.7251 25.0121C28.7683 24.9462 28.7982 24.8724 28.8129 24.795C28.8276 24.7175 28.8269 24.6379 28.8109 24.5608C28.7948 24.4836 28.7637 24.4103 28.7193 24.3452C28.6749 24.28 28.6182 24.2243 28.5522 24.1811Z" fill="white"/>
<path d="M15.1741 28.5822C15.0961 28.531 15.0047 28.5041 14.9114 28.5049C14.8181 28.5057 14.7272 28.5341 14.65 28.5865C14.5729 28.639 14.513 28.7131 14.4781 28.7996C14.4431 28.8861 14.4345 28.981 14.4534 29.0723C14.4724 29.1636 14.518 29.2473 14.5844 29.3127C14.6509 29.3782 14.7353 29.4224 14.8269 29.4399C14.9186 29.4574 15.0133 29.4473 15.0992 29.4109C15.1851 29.3745 15.2583 29.3135 15.3095 29.2355C15.3435 29.1838 15.367 29.1258 15.3786 29.0649C15.3902 29.004 15.3897 28.9415 15.3771 28.8808C15.3646 28.8201 15.3401 28.7625 15.3053 28.7113C15.2705 28.6601 15.2259 28.6162 15.1741 28.5822Z" fill="white"/>
<path d="M25.055 28.5322C24.9717 28.5742 24.9027 28.6399 24.8568 28.7211C24.8109 28.8023 24.79 28.8953 24.797 28.9884C24.8039 29.0814 24.8382 29.1703 24.8957 29.2438C24.9531 29.3173 25.0311 29.3722 25.1197 29.4014C25.2083 29.4306 25.3036 29.4328 25.3935 29.4079C25.4834 29.3829 25.5639 29.3319 25.6247 29.2612C25.6856 29.1905 25.7242 29.1033 25.7355 29.0107C25.7469 28.9181 25.7305 28.8242 25.6885 28.7409C25.6606 28.6856 25.6222 28.6363 25.5753 28.5958C25.5284 28.5553 25.4739 28.5245 25.4151 28.5051C25.3562 28.4857 25.2941 28.4781 25.2324 28.4828C25.1706 28.4874 25.1103 28.5042 25.055 28.5322Z" fill="white"/>
<path d="M19.5788 23.776C19.7566 23.5047 19.8388 23.1819 19.8124 22.8586C19.7861 22.5353 19.6526 22.2301 19.4333 21.9912C19.2139 21.7523 18.9211 21.5934 18.6012 21.5397C18.2814 21.4859 17.9527 21.5404 17.6673 21.6945C17.3819 21.8486 17.156 22.0934 17.0254 22.3903C16.8949 22.6872 16.867 23.0192 16.9464 23.3337C17.0257 23.6482 17.2077 23.9272 17.4635 24.1266C17.7193 24.3261 18.0343 24.4345 18.3586 24.4347C18.6008 24.4355 18.8394 24.3757 19.0525 24.2606C19.2657 24.1456 19.4466 23.979 19.5788 23.776Z" fill="white"/>
<path d="M16.6667 26.0124C16.5462 25.9335 16.405 25.8922 16.261 25.8936C16.117 25.895 15.9767 25.939 15.8577 26.0201C15.7388 26.1013 15.6465 26.2159 15.5926 26.3494C15.5388 26.483 15.5257 26.6295 15.5551 26.7704C15.5845 26.9114 15.6551 27.0405 15.7578 27.1414C15.8605 27.2423 15.9909 27.3104 16.1324 27.3373C16.2739 27.3641 16.4201 27.3484 16.5527 27.2921C16.6852 27.2358 16.7981 27.1415 16.877 27.0211C16.9828 26.8594 17.02 26.6623 16.9806 26.4732C16.9412 26.2841 16.8283 26.1183 16.6667 26.0124Z" fill="white"/>
<path d="M20.0647 28.8008C19.9462 28.794 19.8284 28.8226 19.7262 28.8828C19.624 28.943 19.5419 29.0321 19.4903 29.139C19.4387 29.2458 19.42 29.3656 19.4365 29.4831C19.453 29.6006 19.5039 29.7105 19.5829 29.7991C19.6618 29.8876 19.7653 29.9508 19.8801 29.9805C19.995 30.0103 20.1161 30.0053 20.2281 29.9663C20.3401 29.9272 20.4381 29.8558 20.5095 29.7611C20.581 29.6664 20.6228 29.5526 20.6296 29.4342C20.6341 29.3555 20.6231 29.2767 20.5971 29.2023C20.5712 29.1278 20.5308 29.0593 20.4784 29.0004C20.4259 28.9416 20.3624 28.8937 20.2914 28.8594C20.2204 28.8252 20.1434 28.8052 20.0647 28.8008Z" fill="white"/>
<path d="M20.0709 25.0279C19.9015 25.0177 19.7329 25.0579 19.5864 25.1435C19.4399 25.2291 19.322 25.3563 19.2479 25.5089C19.1737 25.6616 19.1465 25.8328 19.1697 26.0009C19.1929 26.169 19.2654 26.3264 19.3782 26.4533C19.491 26.5801 19.6388 26.6706 19.803 26.7133C19.9673 26.7561 20.1405 26.7491 20.3008 26.6933C20.461 26.6375 20.6012 26.5354 20.7033 26.3999C20.8055 26.2645 20.8652 26.1017 20.8749 25.9323C20.8879 25.7058 20.8106 25.4834 20.6599 25.3139C20.5092 25.1443 20.2974 25.0415 20.0709 25.0279Z" fill="white"/>
<path d="M23.5754 25.9554C23.4468 26.0207 23.3404 26.1227 23.2697 26.2484C23.1991 26.3742 23.1673 26.5181 23.1785 26.662C23.1896 26.8058 23.2432 26.9431 23.3324 27.0564C23.4216 27.1698 23.5425 27.2541 23.6797 27.2988C23.8169 27.3434 23.9642 27.3464 24.103 27.3072C24.2419 27.2681 24.366 27.1887 24.4597 27.079C24.5534 26.9693 24.6124 26.8342 24.6293 26.6909C24.6462 26.5477 24.6202 26.4026 24.5546 26.2741C24.5113 26.1888 24.4516 26.1129 24.379 26.0507C24.3063 25.9885 24.2221 25.9413 24.1311 25.9117C24.0402 25.8821 23.9443 25.8707 23.8489 25.8782C23.7536 25.8857 23.6606 25.912 23.5754 25.9554Z" fill="white"/>
</svg>
