<svg width="160" height="72" viewBox="0 0 160 72" fill="none" xmlns="http://www.w3.org/2000/svg">
<g opacity="0.8" filter="url(#filter0_b_4612_3015)">
<rect y="-0.000976562" width="160" height="72.0013" rx="6" fill="url(#paint0_linear_4612_3015)"/>
<rect x="0.25" y="0.249023" width="159.5" height="71.5013" rx="5.75" stroke="url(#paint1_linear_4612_3015)" stroke-width="0.5"/>
</g>
<path d="M95.9619 36.0554C95.8994 33.1699 95.06 30.3544 93.5317 27.9042C92.0034 25.4541 89.8425 23.4596 87.2759 22.1301C84.7092 20.8005 81.8313 20.185 78.9442 20.3479C76.0571 20.5109 73.2671 21.4464 70.867 23.0563C68.4669 24.6661 66.5451 26.8911 65.3033 29.4976C64.0616 32.1041 63.5455 34.9962 63.8094 37.8703C64.0733 40.7444 65.1073 43.4947 66.803 45.8326C68.4987 48.1705 70.7936 50.0098 73.4469 51.1575C74.2306 49.9818 74.8304 48.6939 75.2258 47.3381C75.5488 46.5179 75.8996 45.7111 76.2632 44.9306C77.1404 45.1929 78.0725 45.2125 78.9601 44.9873C79.8476 44.7622 80.6572 44.3007 81.3025 43.6523L81.3565 43.5983C80.564 43.3041 79.7098 43.215 78.8735 43.3392C78.0371 43.4634 77.2459 43.7968 76.5735 44.3085C77.0182 43.3803 77.5035 42.4798 78.0016 41.6055C78.8627 41.9095 79.7905 41.9738 80.6854 41.7913C81.5804 41.6089 82.4086 41.1867 83.0814 40.5701L83.1354 40.5161C82.3698 40.1928 81.5358 40.0642 80.7081 40.1416C79.8805 40.2191 79.085 40.5003 78.3929 40.96C78.891 40.1397 79.4033 39.3329 79.9427 38.5794C80.8338 38.813 81.7721 38.7987 82.6556 38.5379C83.5392 38.2771 84.3343 37.7799 84.9549 37.1001L84.9954 37.0461C84.2595 36.8066 83.4775 36.7427 82.7123 36.8595C81.9471 36.9763 81.2201 37.2706 80.5895 37.7187C80.63 37.6647 80.6841 37.5979 80.724 37.544C81.047 37.1271 81.3843 36.7102 81.7201 36.3068C82.7456 35.9719 83.6602 35.3641 84.3653 34.549C85.0705 33.7338 85.5395 32.7421 85.7219 31.6807L85.7355 31.5997H85.7219C84.6541 31.8769 83.6854 32.4471 82.9257 33.2457C82.1659 34.0442 81.6455 35.0393 81.4234 36.1179C81.1004 36.5078 80.7766 36.8991 80.4671 37.3011C80.7284 36.6193 80.835 35.8881 80.7791 35.1603C80.7233 34.4324 80.5064 33.726 80.1441 33.0918L80.1035 33.1458C79.5538 33.8952 79.2225 34.7818 79.1464 35.7074C79.0703 36.6331 79.2523 37.5617 79.6723 38.3905C79.16 39.117 78.6619 39.8563 78.1901 40.6361C78.3421 39.8522 78.3026 39.0434 78.0751 38.2779C77.8476 37.5125 77.4387 36.813 76.883 36.2387L76.856 36.3061C76.5122 37.1609 76.4109 38.0936 76.563 39.002C76.7151 39.9105 77.1148 40.7596 77.7184 41.4564C77.2466 42.2766 76.8019 43.1239 76.3707 43.9981C76.5017 43.1816 76.4355 42.3457 76.1777 41.5599C75.9199 40.7741 75.478 40.061 74.8885 39.4799L74.8615 39.5474C74.554 40.4434 74.497 41.406 74.6964 42.332C74.8959 43.2579 75.3443 44.1121 75.9935 44.8028C75.7089 45.4078 75.4414 46.0101 75.1852 46.645C75.1148 46.5804 75.0323 46.5302 74.9426 46.4973C74.4829 46.3639 74.0432 46.1695 73.6355 45.9192C73.2983 45.7195 72.9405 45.5571 72.5681 45.4348C71.113 44.964 71.3286 44.2652 70.5758 42.8526C70.3308 42.5618 70.0705 42.2842 69.7959 42.021C69.5412 41.8561 69.3326 41.6293 69.1897 41.3619C69.0237 41.028 68.9186 40.6673 68.8794 40.2966C68.875 40.0916 68.8063 39.8931 68.683 39.7291C68.5597 39.565 68.388 39.4436 68.1921 39.3819C66.0496 38.6426 67.0066 35.8722 67.087 35.5086C67.0541 35.0384 66.9495 34.5759 66.7768 34.1372C66.7587 34.0801 66.7452 34.0217 66.7362 33.9625C66.679 33.6755 66.6895 33.3791 66.7666 33.0967C66.8438 32.8144 66.9856 32.5538 67.1809 32.3355C67.4371 32.0798 68.3265 31.6629 68.5151 31.4208C68.7037 31.1786 68.8381 30.9094 69.0274 30.6815C69.6261 30.0855 70.3177 29.5904 71.0753 29.2157C71.695 28.8797 71.8032 28.019 72.0451 27.7498C72.4493 27.2925 73.0691 27.2925 73.5273 26.8891C73.7564 26.6874 74.0965 26.5795 74.31 26.365C75.3862 25.3812 76.7426 24.7563 78.1908 24.5767C79.1951 24.495 80.206 24.5861 81.1794 24.8459C81.3203 24.8695 81.4597 24.901 81.597 24.9404C83.8199 25.0213 86.4883 25.478 87.4581 26.4197C87.9383 26.8801 88.295 27.4535 88.4956 28.0872C88.6531 28.5779 88.8704 29.0475 89.1424 29.4855L89.7351 30.4535C90.1128 31.0639 90.2337 31.7985 90.0717 32.4974C89.9625 32.8373 89.9531 33.2013 90.0446 33.5464C90.3573 34.0174 90.7235 34.4507 91.1362 34.8375C91.3001 34.9994 91.4806 35.1436 91.6748 35.2678C92.1309 35.5394 92.5718 35.8358 92.9955 36.1556C93.0094 36.2852 92.9879 36.4161 92.9332 36.5345C92.8786 36.6529 92.7929 36.7544 92.6852 36.8281C92.3081 37.164 91.5802 37.6889 91.5802 37.6889C91.6065 37.8374 91.6517 37.9821 91.7147 38.1192C91.8221 38.3074 92.0647 38.6036 91.9843 38.8585C91.9039 39.1135 91.3781 39.3294 91.5261 39.6113C91.6741 39.9075 92.0512 39.9877 91.9438 40.2569C91.8363 40.5125 91.3105 40.9671 91.3646 41.1581C91.4186 41.3491 91.8498 43.1466 90.8522 43.4577C89.6177 43.7014 88.3647 43.8408 87.1066 43.8745C86.9037 43.8862 86.707 43.9491 86.535 44.0573C86.363 44.1655 86.2214 44.3154 86.1233 44.4931C85.9323 44.8485 85.809 45.2362 85.7596 45.6365C85.3957 47.068 84.9135 48.4668 84.318 49.8188C84.318 49.8188 84.2775 49.8997 84.2234 50.0205C84.0927 50.2863 84.0106 50.5732 83.9808 50.8677C84.0655 51.0841 84.1939 51.2809 84.3579 51.4458C84.4442 51.5445 84.5574 51.6161 84.6837 51.6519C84.81 51.6877 84.944 51.6862 85.0694 51.6475C88.2987 50.5243 91.0903 48.4122 93.0462 45.6124C95.0021 42.8127 96.0225 39.4681 95.9619 36.0554Z" fill="white"/>
<defs>
<filter id="filter0_b_4612_3015" x="-4" y="-4.00098" width="168" height="80.001" filterUnits="userSpaceOnUse" color-interpolation-filters="sRGB">
<feFlood flood-opacity="0" result="BackgroundImageFix"/>
<feGaussianBlur in="BackgroundImage" stdDeviation="2"/>
<feComposite in2="SourceAlpha" operator="in" result="effect1_backgroundBlur_4612_3015"/>
<feBlend mode="normal" in="SourceGraphic" in2="effect1_backgroundBlur_4612_3015" result="shape"/>
</filter>
<linearGradient id="paint0_linear_4612_3015" x1="80" y1="-0.000976563" x2="80" y2="72.77" gradientUnits="userSpaceOnUse">
<stop stop-color="#101011"/>
<stop offset="0.623266" stop-color="#101011" stop-opacity="0.267357"/>
<stop offset="1" stop-color="#101011" stop-opacity="0"/>
</linearGradient>
<linearGradient id="paint1_linear_4612_3015" x1="80" y1="-0.000976563" x2="80" y2="72.0003" gradientUnits="userSpaceOnUse">
<stop stop-color="#632BFF"/>
<stop offset="1" stop-opacity="0"/>
</linearGradient>
</defs>
</svg>
