<svg width="160" height="72" viewBox="0 0 160 72" fill="none"
    xmlns="http://www.w3.org/2000/svg">
    <path d="M80.0984 41.1214L84.9545 48.6844L89.4403 46.1046L83.0631 36.1299L80.0984 41.1214Z" fill="white"/>
    <path d="M93.5258 43.0705L93.5225 41.0041L86.554 30.2334L83.9672 34.586L90.6943 45.3826L93.1279 43.9839C93.2457 43.8892 93.3421 43.7708 93.4107 43.6366C93.4793 43.5023 93.5186 43.3553 93.5261 43.2049L93.5258 43.0705Z" fill="white"/>
    <path d="M64.3248 45.0182L67.7595 46.9822L79.1891 28.7929L77.2494 28.7431C75.5966 28.7199 73.8162 29.1461 72.9991 30.47L66.5086 40.453L64.3261 43.7822V45.0192L64.3248 45.0182Z" fill="white"/>
    <path d="M85.7851 28.793L80.6729 28.8114L69.1063 47.7523L73.1491 50.0623L74.2484 48.2119L85.7851 28.793Z" fill="white"/>
    <path d="M95.6784 28.7671C95.655 28.2436 95.5036 27.7335 95.2373 27.2809C94.971 26.8284 94.5978 26.4469 94.1499 26.1693L81.4403 18.9164C80.9866 18.6951 80.4878 18.5801 79.9823 18.5801C79.4767 18.5801 78.9779 18.6951 78.5242 18.9164C78.4181 18.9694 66.1644 26.0219 66.1644 26.0219C65.9941 26.1031 65.8313 26.1987 65.6777 26.3077C65.2798 26.5885 64.9512 26.9551 64.7166 27.38C64.4819 27.8049 64.3474 28.277 64.323 28.7609V43.7821L66.5056 40.4529L66.4888 28.8632C66.499 28.7043 66.5446 28.5497 66.6223 28.4104C66.6999 28.271 66.8078 28.1506 66.9381 28.0576C66.9958 28.0165 79.4587 20.8577 79.4983 20.838C79.6475 20.766 79.8112 20.7281 79.9771 20.7274C80.143 20.7266 80.307 20.7629 80.4569 20.8336L93.0021 27.9946C93.1482 28.0867 93.2699 28.2123 93.3567 28.3608C93.4436 28.5094 93.4932 28.6765 93.5014 28.848V43.2055C93.4983 43.3544 93.4633 43.5009 93.3986 43.6352C93.3339 43.7696 93.2411 43.8886 93.1263 43.9845L90.6929 45.3831L89.4385 46.1051L84.953 48.6847L80.404 51.3009C80.1525 51.389 79.8773 51.3836 79.6295 51.2857L74.2476 48.2139L73.1483 50.0641L77.9851 52.8275C78.1451 52.9176 78.2876 52.9978 78.4045 53.063C78.5857 53.1626 78.7091 53.231 78.7525 53.252C79.1572 53.4279 79.5947 53.5172 80.0364 53.5141C80.4416 53.5147 80.8433 53.4397 81.2206 53.293L94.4331 45.7C94.8058 45.4123 95.1105 45.0469 95.3256 44.6297C95.5406 44.2125 95.6609 43.7535 95.6779 43.2852L95.6784 28.7671Z" fill="white"/>
    <defs>
        <filter id="filter0_b_4612_2970" x="-4" y="-4.00098" width="168" height="80.001" filterUnits="userSpaceOnUse" color-interpolation-filters="sRGB">
            <feFlood flood-opacity="0" result="BackgroundImageFix"/>
            <feGaussianBlur in="BackgroundImage" stdDeviation="2"/>
            <feComposite in2="SourceAlpha" operator="in" result="effect1_backgroundBlur_4612_2970"/>
            <feBlend mode="normal" in="SourceGraphic" in2="effect1_backgroundBlur_4612_2970" result="shape"/>
        </filter>
        <linearGradient id="paint0_linear_4612_2970" x1="80" y1="-0.000976563" x2="80" y2="72.77" gradientUnits="userSpaceOnUse">
            <stop stop-color="#101011"/>
            <stop offset="0.623266" stop-color="#101011" stop-opacity="0.267357"/>
            <stop offset="1" stop-color="#101011" stop-opacity="0"/>
        </linearGradient>
        <linearGradient id="paint1_linear_4612_2970" x1="80" y1="-0.000976563" x2="80" y2="72.0003" gradientUnits="userSpaceOnUse">
            <stop stop-color="#632BFF"/>
            <stop offset="1" stop-opacity="0"/>
        </linearGradient>
    </defs>
</svg>
