<svg width="160" height="72" viewBox="0 0 160 72" fill="none"
    xmlns="http://www.w3.org/2000/svg">
    <path fill-rule="evenodd" clip-rule="evenodd" d="M80.0007 20.3223C71.3423 20.3223 64.323 27.3415 64.323 36C64.323 44.6584 71.3423 51.6777 80.0007 51.6777C88.6591 51.6777 95.6784 44.6584 95.6784 36C95.6784 27.3415 88.6591 20.3223 80.0007 20.3223ZM78.6667 40.4394L78.6565 40.458C78.309 41.0665 78.1328 41.3751 77.8886 41.6073C77.6225 41.8616 77.3038 42.0463 76.953 42.1497C76.6326 42.2378 76.275 42.2378 75.558 42.2378H72.5153C71.8763 42.2378 71.5592 42.2378 71.3677 42.1141C71.1592 41.9785 71.0321 41.7564 71.0168 41.509C71.005 41.2818 71.1626 41.0038 71.4796 40.4495L78.9921 27.2093C79.3125 26.6466 79.4735 26.3652 79.6769 26.2618C79.8956 26.1499 80.1583 26.1499 80.3787 26.2618C80.5821 26.3652 80.7449 26.6466 81.0635 27.2093L82.6077 29.9045L82.6162 29.9181C82.962 30.5215 83.1366 30.8266 83.2129 31.1487C83.2976 31.4996 83.2976 31.8691 83.2129 32.22C83.1366 32.5437 82.962 32.8522 82.6111 33.4641L78.665 40.4394H78.6667ZM88.7608 42.1107C88.5676 42.2378 88.2455 42.2378 87.6014 42.2378H83.2417C82.5993 42.2378 82.2755 42.2378 82.0856 42.1141C81.8771 41.9785 81.75 41.7514 81.7348 41.5056C81.7229 41.2801 81.8823 41.0055 82.2009 40.4546L82.2077 40.441L84.3842 36.7052C84.7045 36.1542 84.8656 35.8813 85.0656 35.7763C85.2859 35.6643 85.5436 35.6643 85.7622 35.7763C85.9606 35.8779 86.1165 36.139 86.4233 36.6594L86.4487 36.7017L88.632 40.4377C88.6422 40.4563 88.6541 40.4733 88.6642 40.4919C88.9676 41.014 89.1219 41.2801 89.11 41.5005C89.0981 41.7463 88.9676 41.9734 88.7591 42.109L88.7608 42.1107Z" fill="white"/>
    <defs>
        <filter id="filter0_b_4612_2865" x="-4" y="-4.00098" width="168" height="80.001" filterUnits="userSpaceOnUse" color-interpolation-filters="sRGB">
            <feFlood flood-opacity="0" result="BackgroundImageFix"/>
            <feGaussianBlur in="BackgroundImage" stdDeviation="2"/>
            <feComposite in2="SourceAlpha" operator="in" result="effect1_backgroundBlur_4612_2865"/>
            <feBlend mode="normal" in="SourceGraphic" in2="effect1_backgroundBlur_4612_2865" result="shape"/>
        </filter>
        <linearGradient id="paint0_linear_4612_2865" x1="80" y1="-0.000976563" x2="80" y2="72.77" gradientUnits="userSpaceOnUse">
            <stop stop-color="#101011"/>
            <stop offset="0.623266" stop-color="#101011" stop-opacity="0.267357"/>
            <stop offset="1" stop-color="#101011" stop-opacity="0"/>
        </linearGradient>
        <linearGradient id="paint1_linear_4612_2865" x1="80" y1="-0.000976563" x2="80" y2="72.0003" gradientUnits="userSpaceOnUse">
            <stop stop-color="#632BFF"/>
            <stop offset="1" stop-opacity="0"/>
        </linearGradient>
    </defs>
</svg>
