<svg width="160" height="72" viewBox="0 0 160 72" fill="none" xmlns="http://www.w3.org/2000/svg">
<g opacity="0.8" filter="url(#filter0_b_4612_3019)">
<rect y="-0.000976562" width="160" height="72.0013" rx="6" fill="url(#paint0_linear_4612_3019)"/>
<rect x="0.25" y="0.249023" width="159.5" height="71.5013" rx="5.75" stroke="url(#paint1_linear_4612_3019)" stroke-width="0.5"/>
</g>
<path d="M78.4557 18.6346C79.3226 18.1791 80.6415 18.1791 81.5084 18.6346L90.3537 23.2829C90.8758 23.5572 91.1625 23.966 91.2139 24.3881H91.2223V47.7527C91.2108 48.213 90.9214 48.6703 90.3537 48.9687L81.5084 53.6169C80.6415 54.0725 79.3226 54.0725 78.4557 53.6169L69.6104 48.9687C69.0451 48.6717 68.7738 48.2111 68.7604 47.7527C68.7591 47.7076 68.7589 47.67 68.7602 47.6388L68.7601 24.5381C68.7592 24.5128 68.7591 24.4876 68.7599 24.4624L68.7604 24.3881L68.7644 24.388C68.8036 23.9614 69.0773 23.563 69.6104 23.2829L78.4557 18.6346ZM89.8298 37.4231L81.5084 41.7961C80.6415 42.2516 79.3226 42.2516 78.4557 41.7961L70.1525 37.4328V47.7065L78.4557 52.0468C78.9246 52.2962 79.4112 52.5391 79.887 52.5701L79.9821 52.5731C80.4779 52.5748 80.9593 52.3243 81.4474 52.0872L89.8298 47.6691V37.4231ZM67.3217 47.2448C67.3217 48.1397 67.4263 48.7282 67.6339 49.1428C67.806 49.4864 68.0642 49.7489 68.5357 50.0685L68.5626 50.0866C68.666 50.156 68.78 50.2287 68.9187 50.3139L69.0824 50.4137L69.5848 50.7155L68.8642 51.9008L68.3019 51.5628L68.2073 51.5051C68.0447 51.4051 67.91 51.3195 67.7843 51.2351C66.4406 50.3337 65.9395 49.3513 65.9296 47.3069L65.9294 47.2448H67.3217ZM79.2857 31.1607C79.2213 31.1827 79.161 31.2081 79.1059 31.237L70.2606 35.8853C70.2514 35.8902 70.2425 35.895 70.2341 35.8998L70.2266 35.9041L70.2405 35.912L70.2606 35.9229L79.1059 40.5712C79.161 40.6001 79.2213 40.6255 79.2857 40.6476V31.1607ZM80.6784 31.1607V40.6476C80.7428 40.6255 80.8032 40.6001 80.8582 40.5712L89.7035 35.9229C89.7128 35.918 89.7216 35.9132 89.73 35.9084L89.7375 35.9041L89.7236 35.8962L89.7035 35.8853L80.8582 31.237C80.8032 31.2081 80.7428 31.1827 80.6784 31.1607ZM89.8298 26.0455L81.8951 30.2153L89.8298 34.3851V30.2153V26.0455ZM70.1525 26.0552V34.3753L78.0688 30.2153L70.1525 26.0552ZM80.8582 19.8595C80.3982 19.6178 79.5659 19.6178 79.1059 19.8595L70.2606 24.5078C70.2514 24.5127 70.2425 24.5175 70.2341 24.5223L70.2266 24.5266L70.2405 24.5345L70.2606 24.5454L79.1059 29.1937C79.5659 29.4354 80.3982 29.4354 80.8582 29.1937L89.7035 24.5454C89.7128 24.5405 89.7216 24.5357 89.73 24.5309L89.7375 24.5266L89.7236 24.5187L89.7035 24.5078L80.8582 19.8595ZM91.137 20.3692L91.6994 20.7071L91.7939 20.7649C91.9565 20.8647 92.0912 20.9505 92.217 21.0348C93.5606 21.9361 94.0618 22.9188 94.0715 24.963L94.0718 25.0253H92.6795C92.6795 24.1301 92.575 23.5417 92.3673 23.1272C92.1953 22.7836 91.937 22.5211 91.4656 22.2016L91.4387 22.1834C91.3352 22.114 91.2212 22.0413 91.0825 21.9559L90.9189 21.8562L90.4165 21.5545L91.137 20.3692Z" fill="white"/>
<defs>
<filter id="filter0_b_4612_3019" x="-4" y="-4.00098" width="168" height="80.001" filterUnits="userSpaceOnUse" color-interpolation-filters="sRGB">
<feFlood flood-opacity="0" result="BackgroundImageFix"/>
<feGaussianBlur in="BackgroundImage" stdDeviation="2"/>
<feComposite in2="SourceAlpha" operator="in" result="effect1_backgroundBlur_4612_3019"/>
<feBlend mode="normal" in="SourceGraphic" in2="effect1_backgroundBlur_4612_3019" result="shape"/>
</filter>
<linearGradient id="paint0_linear_4612_3019" x1="80" y1="-0.000976563" x2="80" y2="72.77" gradientUnits="userSpaceOnUse">
<stop stop-color="#101011"/>
<stop offset="0.623266" stop-color="#101011" stop-opacity="0.267357"/>
<stop offset="1" stop-color="#101011" stop-opacity="0"/>
</linearGradient>
<linearGradient id="paint1_linear_4612_3019" x1="80" y1="-0.000976563" x2="80" y2="72.0003" gradientUnits="userSpaceOnUse">
<stop stop-color="#632BFF"/>
<stop offset="1" stop-opacity="0"/>
</linearGradient>
</defs>
</svg>
