<svg width="40" height="40" viewBox="0 0 40 40" fill="none" xmlns="http://www.w3.org/2000/svg">
<path d="M23.3141 16.0031C25.0083 15.6371 26.7491 16.3797 27.6582 17.8563C28.5673 19.3328 28.4473 21.2225 27.3586 22.572C26.27 23.9215 24.4492 24.4376 22.815 23.8599C21.1807 23.2822 20.088 21.7363 20.0881 20.002H16.4709C16.4681 23.4664 18.7716 26.5087 22.1056 27.4437C25.4394 28.3787 28.9876 26.9774 30.7847 24.0161C32.5818 21.0549 32.1878 17.2585 29.821 14.7299C27.4542 12.2012 23.694 11.5593 20.6232 13.1597C21.7481 13.8621 22.6745 14.841 23.3141 16.0031Z" fill="white"/>
<path d="M16.8626 23.9989C15.1684 24.3649 13.4277 23.6224 12.5186 22.146C11.6094 20.6695 11.7293 18.7799 12.8178 17.4304C13.9063 16.0808 15.7269 15.5646 17.3612 16.142C18.9955 16.7195 20.0884 18.2652 20.0885 19.9994H23.7058C23.7086 16.5349 21.4051 13.4927 18.0712 12.5577C14.7372 11.6227 11.189 13.024 9.39198 15.9852C7.59491 18.9465 7.98889 22.7429 10.3557 25.2715C12.7224 27.8002 16.4826 28.442 19.5534 26.8417C18.4287 26.1394 17.5023 25.1608 16.8626 23.9989Z" fill="white"/>
</svg>
