<svg width="40" height="40" viewBox="0 0 40 40" fill="none" xmlns="http://www.w3.org/2000/svg">
<path d="M23.1355 22.4394V11.291C24.6139 11.291 26.0317 11.8783 27.077 12.9237C28.1224 13.969 28.7097 15.3868 28.7097 16.8652C28.7097 18.3436 28.1224 19.7614 27.077 20.8067C26.0317 21.8521 24.6139 22.4394 23.1355 22.4394Z" fill="white"/>
<path d="M14.4258 22.4394V11.291C15.9042 11.291 17.322 11.8783 18.3673 12.9237C19.4127 13.969 20 15.3868 20 16.8652C20 18.3436 19.4127 19.7614 18.3673 20.8067C17.322 21.8521 15.9042 22.4394 14.4258 22.4394Z" fill="white"/>
<path d="M20 28.7107V20.001L28.7097 28.7107H20Z" fill="white"/>
<path d="M11.2903 28.7107V20.001L20 28.7107H11.2903Z" fill="white"/>
</svg>
