<svg width="40" height="40" viewBox="0 0 40 40" fill="none" xmlns="http://www.w3.org/2000/svg">
<path fill-rule="evenodd" clip-rule="evenodd" d="M21.28 10.9828C20.4879 10.5344 19.512 10.5344 18.72 10.9828L12.5702 14.4642C11.7781 14.9126 11.2903 15.7411 11.2903 16.6377V23.6009C11.2903 24.4974 11.7781 25.326 12.5702 25.7743L18.7199 29.2557C19.512 29.7041 20.4878 29.7041 21.28 29.2557L27.4294 25.7744L27.4299 25.7742C28.222 25.3259 28.7096 24.4974 28.7096 23.6009V16.6377C28.7096 15.7411 28.2218 14.9126 27.4296 14.4641L21.28 10.9828ZM20.8001 11.6522C20.305 11.372 19.6951 11.372 19.1999 11.6523L12.9215 15.2065C12.4265 15.4868 12.1216 16.0045 12.1216 16.565V23.6737C12.1216 24.2339 12.4265 24.7516 12.9213 25.032L12.9217 25.0323L19.1996 28.586L19.2005 28.5865C19.6952 28.8665 20.3047 28.8667 20.7995 28.5865L20.8005 28.586L27.0784 25.0322L27.0787 25.032C27.5737 24.7516 27.8785 24.234 27.8785 23.6737V16.565C27.8785 16.0045 27.5735 15.4868 27.0784 15.2065L20.8001 11.6522ZM19.3588 12.3518C19.7548 12.1276 20.2428 12.1276 20.6388 12.3518L26.5442 15.6949C26.9402 15.9191 27.1842 16.3333 27.1842 16.7816V23.468C27.1842 23.9163 26.9402 24.3305 26.5442 24.5547L20.6391 27.8976L20.6385 27.8979C20.2426 28.1219 19.755 28.1219 19.3591 27.8979L19.3584 27.8976L13.4533 24.5547C13.0573 24.3305 12.8134 23.9163 12.8134 23.468V16.7816C12.8134 16.3333 13.0573 15.9191 13.4533 15.6949L19.3588 12.3518ZM20.5958 16.8581L20.1872 15.917H21.9471C23.2725 15.917 24.347 16.9704 24.347 18.2699C24.347 19.1712 23.83 19.9541 23.0709 20.3493L24.347 23.2894H23.387L21.8211 19.6816H21.9471C22.2201 19.6816 22.4752 19.6071 22.6927 19.4779L22.6933 19.4776L22.6937 19.4773C23.1094 19.2297 23.387 18.7815 23.387 18.2699C23.387 17.4901 22.7423 16.8581 21.9471 16.8581H20.5958ZM18.9074 15.917L15.7076 23.2894H16.6675L18.9074 18.113L21.1472 23.2894H22.1071L18.9074 15.917Z" fill="white"/>
</svg>
