<svg width="40" height="40" viewBox="0 0 40 40" fill="none" xmlns="http://www.w3.org/2000/svg">
<g clip-path="url(#clip0_5018_1996)">
<path d="M1.01014 25.6048C0.825569 25.6048 0.654553 25.5628 0.50183 25.48C0.425224 25.4378 0.355968 25.3869 0.296022 25.3291C0.23575 25.2709 0.183318 25.2042 0.140197 25.1307C0.0969116 25.0567 0.0637537 24.9775 0.0418662 24.8951C0.019652 24.8118 0.00854492 24.7231 0.00854492 24.6318C0.00854492 24.5394 0.0194886 24.4506 0.0413761 24.3677C0.0632636 24.284 0.0965849 24.2045 0.140197 24.1312C0.183318 24.0575 0.235913 23.9908 0.296349 23.9328C0.356621 23.875 0.426367 23.8241 0.503627 23.7817C0.580396 23.7397 0.66321 23.7078 0.749779 23.6867C0.835696 23.6659 0.927493 23.6553 1.02256 23.6553C1.1725 23.6553 1.30677 23.6799 1.43303 23.7302C1.5539 23.779 1.6586 23.8518 1.74403 23.9468L1.57579 24.1085C1.50473 24.0349 1.42339 23.9785 1.33437 23.9411C1.24339 23.903 1.14196 23.8838 1.03268 23.8838C0.960814 23.8838 0.891395 23.8919 0.826386 23.9079C0.761213 23.9239 0.698654 23.9483 0.640179 23.9804C0.522901 24.045 0.430777 24.1351 0.366585 24.2485V24.2484C0.333591 24.3047 0.3086 24.3655 0.292266 24.4291C0.275932 24.4922 0.267765 24.5598 0.267765 24.6299C0.267765 24.7 0.276095 24.7676 0.292266 24.8307C0.3086 24.8941 0.333591 24.9549 0.366585 25.0113C0.432574 25.1247 0.524698 25.2148 0.640179 25.2794C0.698654 25.3115 0.761377 25.3358 0.826386 25.3517C0.891395 25.3677 0.960814 25.3758 1.03268 25.3758C1.14049 25.3758 1.24143 25.3563 1.33241 25.3177C1.42078 25.2802 1.50245 25.2236 1.57562 25.1496L1.74403 25.3111C1.6586 25.4063 1.55341 25.4792 1.43123 25.5281C1.36933 25.5535 1.30334 25.5729 1.23506 25.5854C1.16728 25.598 1.09524 25.6043 1.02092 25.6043C1.01717 25.6048 1.01357 25.6048 1.01014 25.6048ZM33.6506 25.5848H33.3795L33.1697 25.1082L33.1676 25.1033H33.1622H32.1387H32.1333L32.1312 25.1082L31.9217 25.5846H31.6556L32.5205 23.6773H32.7823L33.6506 25.5848ZM32.6513 23.9291L32.6438 23.946L32.2286 24.8887L32.2235 24.9001H32.2361H33.0663H33.0789L33.0738 24.8887L32.6588 23.946L32.6513 23.9291ZM26.3652 25.5848H26.1092V23.909V23.9009H26.101H25.4487V23.6774H27.0259V23.9009H26.3735H26.3653V23.909V25.5848H26.3652ZM20.435 25.5848H20.1756V23.6774H20.435V25.5848ZM8.51478 25.5848H8.24363L8.03407 25.1084L8.03194 25.1035H8.02655H7.00274H6.99752L6.99539 25.1084L6.78583 25.5848H6.51975L7.38479 23.6774H7.6463L8.51478 25.5848ZM7.51399 23.9291L7.50648 23.946L7.09111 24.8887L7.08605 24.9001H7.09862H7.9292H7.94178L7.93672 24.8887L7.52151 23.946L7.51399 23.9291ZM39.9583 25.5832H38.6552V23.6774H38.9145V25.3532V25.3613H38.9227H39.9584V25.5832H39.9583ZM13.7769 25.5832H13.5177V23.6758H14.2609C14.3847 23.6766 14.4966 23.6921 14.5938 23.7219C14.6906 23.7516 14.7753 23.7964 14.8455 23.8551C14.9157 23.9136 14.9691 23.984 15.0044 24.0645C15.0399 24.1452 15.0577 24.2381 15.0577 24.3403C15.0577 24.4425 15.0397 24.5354 15.0044 24.616C14.9691 24.6965 14.9157 24.767 14.8455 24.8255C14.7754 24.8838 14.6906 24.9281 14.5938 24.9573C14.4969 24.9863 14.3849 25.0012 14.2609 25.0012H13.7851H13.7769V25.0093V25.5832ZM13.7769 23.9009V23.909V24.7712V24.7793H13.7851H14.2524C14.3409 24.7793 14.4198 24.7699 14.4868 24.7513C14.5541 24.7327 14.6116 24.7042 14.6576 24.6667C14.7045 24.6294 14.7401 24.5826 14.7637 24.528C14.7868 24.4739 14.7986 24.4107 14.7986 24.3401C14.7986 24.2695 14.7868 24.2063 14.7637 24.1522C14.7403 24.0976 14.7045 24.0508 14.6576 24.0133C14.6106 23.9759 14.5528 23.9475 14.4857 23.9289C14.4187 23.9103 14.3403 23.9009 14.2526 23.9009H13.7853H13.7769Z" fill="white"/>
<path d="M1.00993 25.5959C1.01336 25.5959 1.01695 25.5959 1.02022 25.5959H1.02038C1.09421 25.5959 1.16575 25.5895 1.23305 25.5771C1.30084 25.5646 1.36633 25.5454 1.42759 25.5201H1.42775C1.54617 25.4727 1.64859 25.4026 1.73222 25.3112L1.57541 25.1606C1.50289 25.2326 1.4222 25.2877 1.33514 25.3247C1.24301 25.3638 1.14109 25.3835 1.03214 25.3835C0.959619 25.3835 0.88971 25.3754 0.823884 25.3592C0.758059 25.3431 0.694846 25.3185 0.635717 25.2862H0.635554C0.518766 25.221 0.425663 25.1298 0.35902 25.015C0.325699 24.958 0.300381 24.8965 0.283884 24.8323C0.267387 24.7686 0.259056 24.7005 0.259056 24.6296C0.259056 24.5587 0.267387 24.4904 0.283884 24.4267C0.300545 24.3625 0.325699 24.3008 0.35902 24.2438C0.424029 24.1292 0.517133 24.0381 0.635717 23.9728C0.694683 23.9403 0.758059 23.9157 0.823884 23.8994C0.889547 23.8833 0.959619 23.8751 1.03214 23.8751C1.1424 23.8751 1.24497 23.8947 1.33693 23.9332C1.42465 23.97 1.50485 24.0249 1.57541 24.0965L1.73222 23.9459C1.64859 23.8546 1.54682 23.7845 1.42955 23.7371C1.30427 23.6871 1.17098 23.6626 1.02218 23.6626C0.927768 23.6626 0.836625 23.673 0.751362 23.6937C0.665608 23.7146 0.583449 23.7462 0.507169 23.788C0.4304 23.83 0.361307 23.8804 0.301525 23.9377C0.241742 23.9953 0.189637 24.0613 0.146842 24.1343V24.1344C0.103557 24.2071 0.0705627 24.286 0.0488385 24.3688C0.0272777 24.4511 0.0163339 24.5393 0.0163339 24.631C0.0163339 24.7217 0.027441 24.8095 0.0494918 24.8923C0.071216 24.9739 0.104047 25.0525 0.147006 25.1258C0.1898 25.1987 0.241742 25.2649 0.301525 25.3224C0.36098 25.3798 0.429583 25.4301 0.505699 25.472C0.657115 25.5543 0.826824 25.5959 1.00993 25.5959ZM33.6376 25.5758L32.7767 23.6848H32.5253L31.6678 25.5758H31.9159L32.1276 25.0946H33.1725L33.1767 25.1043L33.3843 25.576H33.6376V25.5758ZM32.6511 23.9079L32.6661 23.9418L33.0913 24.9073H32.211L32.6511 23.9079ZM26.3568 25.5758V23.8919H27.0173V23.6848H25.4565V23.8919H26.117V25.5758H26.3568ZM20.4266 25.5758V23.6848H20.1835V25.5758H20.4266ZM8.50182 25.5758L7.64086 23.6848H7.3898L6.53211 25.5758H6.78022L6.99191 25.0946H8.03696L8.0412 25.1043L8.24864 25.576H8.50182V25.5758ZM7.51378 23.9079L7.95398 24.9073H7.07342L7.08354 24.8845L7.51378 23.9079ZM39.9499 25.5742V25.3687H38.906V23.6848H38.6629V25.5742H39.9499ZM13.7685 25.5742V24.992H14.2607C14.3838 24.992 14.4951 24.9774 14.5911 24.9485C14.687 24.9197 14.7706 24.8758 14.8399 24.8183C14.9091 24.7606 14.9619 24.6912 14.9965 24.6118C15.0315 24.5321 15.0491 24.4405 15.0491 24.3393C15.0491 24.2381 15.0315 24.1465 14.9965 24.0668C14.9617 23.9876 14.909 23.918 14.8399 23.8603C14.7705 23.8025 14.6867 23.7581 14.591 23.7288C14.4947 23.6993 14.3835 23.6838 14.2605 23.683H13.5255V25.5742H13.7685ZM13.7685 23.8919H14.2522C14.3406 23.8919 14.4198 23.9014 14.4874 23.9203C14.5557 23.9392 14.6145 23.9682 14.6623 24.0063C14.7104 24.0446 14.7468 24.0926 14.7708 24.1485C14.7943 24.2035 14.8064 24.2679 14.8064 24.3396C14.8064 24.4113 14.7945 24.4757 14.7708 24.5306C14.7468 24.5865 14.7104 24.6343 14.6625 24.6724C14.6156 24.7106 14.5571 24.7396 14.4887 24.7585C14.4209 24.7772 14.3414 24.7868 14.2522 24.7868H13.7685V23.8919ZM1.00993 25.6122C0.820781 25.6122 0.649601 25.5687 0.497695 25.4864C0.34285 25.401 0.220345 25.2834 0.132795 25.1342C0.0454084 24.985 0 24.8172 0 24.6312C0 24.4449 0.043775 24.2756 0.132795 24.1263C0.220345 23.977 0.34285 23.8597 0.499329 23.7739C0.655481 23.6885 0.830418 23.6465 1.02218 23.6465C1.17343 23.6465 1.30966 23.6717 1.43559 23.7221C1.56006 23.7723 1.66753 23.8479 1.75492 23.9467L1.57508 24.1194C1.43069 23.9666 1.24889 23.8913 1.03231 23.8913C0.88922 23.8913 0.760019 23.9231 0.643884 23.9869C0.527913 24.0508 0.437096 24.1395 0.373394 24.252C0.307732 24.3642 0.275717 24.4902 0.275717 24.6294C0.275717 24.7686 0.307895 24.8944 0.373394 25.0067C0.43873 25.119 0.52971 25.208 0.643884 25.2719C0.760019 25.3354 0.889384 25.3672 1.03231 25.3672C1.24726 25.3672 1.4271 25.2903 1.57508 25.1376L1.75492 25.3102C1.66753 25.4093 1.55989 25.4847 1.43396 25.5351C1.30802 25.5869 1.17016 25.612 1.02055 25.612C1.01695 25.6122 1.01336 25.6122 1.00993 25.6122ZM33.663 25.5921H33.3739L33.162 25.1109H32.1385L31.9268 25.5921H31.6426L32.5148 23.6685H32.7871L33.663 25.5921ZM32.6511 23.9485L32.2359 24.8912H33.0661L32.6511 23.9485ZM26.3731 25.5921H26.1008V23.9082H25.4403V23.6685H27.0338V23.9082H26.3733V25.5921H26.3731ZM20.4429 25.5921H20.1672V23.6685H20.4429V25.5921ZM8.52714 25.5921H8.23803L8.02634 25.1109H7.00253L6.79084 25.5921H6.50679L7.37935 23.6685H7.65147L8.52714 25.5921ZM7.51378 23.9485L7.09841 24.8912H7.92899L7.51378 23.9485ZM39.9662 25.5905H38.6468V23.6685H38.9225V25.3524H39.9664V25.5905H39.9662ZM13.7849 25.5905H13.5093V23.6669H14.2607C14.5111 23.6685 14.7076 23.7288 14.8505 23.8479C14.9934 23.9671 15.0656 24.1315 15.0656 24.3395C15.0656 24.5474 14.9934 24.7117 14.8505 24.8309C14.7076 24.9498 14.5111 25.0083 14.2607 25.0083H13.7849V25.5905ZM13.7849 23.9082V24.7704H14.2522C14.4288 24.7704 14.5616 24.7334 14.6522 24.6597C14.7447 24.5861 14.7901 24.4787 14.7901 24.3395C14.7901 24.2003 14.7447 24.0929 14.6522 24.0191C14.5598 23.9454 14.427 23.9084 14.2522 23.9084H13.7849V23.9082Z" fill="white"/>
<path d="M1.01014 25.6048C0.825569 25.6048 0.654553 25.5628 0.50183 25.48C0.425224 25.4378 0.355968 25.3869 0.296022 25.3291C0.23575 25.2709 0.183318 25.2042 0.140197 25.1307C0.0969116 25.0567 0.0637537 24.9775 0.0418662 24.8951C0.019652 24.8118 0.00854492 24.7231 0.00854492 24.6318C0.00854492 24.5394 0.0194886 24.4506 0.0413761 24.3677C0.0632636 24.284 0.0965849 24.2045 0.140197 24.1312C0.183318 24.0575 0.235913 23.9908 0.296349 23.9328C0.356621 23.875 0.426367 23.8241 0.503627 23.7817C0.580396 23.7397 0.66321 23.7078 0.749779 23.6867C0.835696 23.6659 0.927493 23.6553 1.02256 23.6553C1.1725 23.6553 1.30677 23.6799 1.43303 23.7302C1.5539 23.779 1.6586 23.8518 1.74403 23.9468L1.57579 24.1085C1.50473 24.0349 1.42339 23.9785 1.33437 23.9411C1.24339 23.903 1.14196 23.8838 1.03268 23.8838C0.960814 23.8838 0.891395 23.8919 0.826386 23.9079C0.761213 23.9239 0.698654 23.9483 0.640179 23.9804C0.522901 24.045 0.430777 24.1351 0.366585 24.2485V24.2484C0.333591 24.3047 0.3086 24.3655 0.292266 24.4291C0.275932 24.4922 0.267765 24.5598 0.267765 24.6299C0.267765 24.7 0.276095 24.7676 0.292266 24.8307C0.3086 24.8941 0.333591 24.9549 0.366585 25.0113C0.432574 25.1247 0.524698 25.2148 0.640179 25.2794C0.698654 25.3115 0.761377 25.3358 0.826386 25.3517C0.891395 25.3677 0.960814 25.3758 1.03268 25.3758C1.14049 25.3758 1.24143 25.3563 1.33241 25.3177C1.42078 25.2802 1.50245 25.2236 1.57562 25.1496L1.74403 25.3111C1.6586 25.4063 1.55341 25.4792 1.43123 25.5281C1.36933 25.5535 1.30334 25.5729 1.23506 25.5854C1.16728 25.598 1.09524 25.6043 1.02092 25.6043C1.01717 25.6048 1.01357 25.6048 1.01014 25.6048ZM33.6506 25.5848H33.3795L33.1697 25.1082L33.1676 25.1033H33.1622H32.1387H32.1333L32.1312 25.1082L31.9217 25.5846H31.6556L32.5205 23.6773H32.7823L33.6506 25.5848ZM32.6513 23.9291L32.6438 23.946L32.2286 24.8887L32.2235 24.9001H32.2361H33.0663H33.0789L33.0738 24.8887L32.6588 23.946L32.6513 23.9291ZM26.3652 25.5848H26.1092V23.909V23.9009H26.101H25.4487V23.6774H27.0259V23.9009H26.3735H26.3653V23.909V25.5848H26.3652ZM20.435 25.5848H20.1756V23.6774H20.435V25.5848ZM8.51478 25.5848H8.24363L8.03407 25.1084L8.03194 25.1035H8.02655H7.00274H6.99752L6.99539 25.1084L6.78583 25.5848H6.51975L7.38479 23.6774H7.6463L8.51478 25.5848ZM7.51399 23.9291L7.50648 23.946L7.09111 24.8887L7.08605 24.9001H7.09862H7.9292H7.94178L7.93672 24.8887L7.52151 23.946L7.51399 23.9291ZM39.9583 25.5832H38.6552V23.6774H38.9145V25.3532V25.3613H38.9227H39.9584V25.5832H39.9583ZM13.7769 25.5832H13.5177V23.6758H14.2609C14.3847 23.6766 14.4966 23.6921 14.5938 23.7219C14.6906 23.7516 14.7753 23.7964 14.8455 23.8551C14.9157 23.9136 14.9691 23.984 15.0044 24.0645C15.0399 24.1452 15.0577 24.2381 15.0577 24.3403C15.0577 24.4425 15.0397 24.5354 15.0044 24.616C14.9691 24.6965 14.9157 24.767 14.8455 24.8255C14.7754 24.8838 14.6906 24.9281 14.5938 24.9573C14.4969 24.9863 14.3849 25.0012 14.2609 25.0012H13.7851H13.7769V25.0093V25.5832ZM13.7769 23.9009V23.909V24.7712V24.7793H13.7851H14.2524C14.3409 24.7793 14.4198 24.7699 14.4868 24.7513C14.5541 24.7327 14.6116 24.7042 14.6576 24.6667C14.7045 24.6294 14.7401 24.5826 14.7637 24.528C14.7868 24.4739 14.7986 24.4107 14.7986 24.3401C14.7986 24.2695 14.7868 24.2063 14.7637 24.1522C14.7403 24.0976 14.7045 24.0508 14.6576 24.0133C14.6106 23.9759 14.5528 23.9475 14.4857 23.9289C14.4187 23.9103 14.3403 23.9009 14.2526 23.9009H13.7853H13.7769Z" fill="white"/>
<path d="M1.00993 25.5959C1.01336 25.5959 1.01695 25.5959 1.02022 25.5959H1.02038C1.09421 25.5959 1.16575 25.5895 1.23305 25.5771C1.30084 25.5646 1.36633 25.5454 1.42759 25.5201H1.42775C1.54617 25.4727 1.64859 25.4026 1.73222 25.3112L1.57541 25.1606C1.50289 25.2326 1.4222 25.2877 1.33514 25.3247C1.24301 25.3638 1.14109 25.3835 1.03214 25.3835C0.959619 25.3835 0.88971 25.3754 0.823884 25.3592C0.758059 25.3431 0.694846 25.3185 0.635717 25.2862H0.635554C0.518766 25.221 0.425663 25.1298 0.35902 25.015C0.325699 24.958 0.300381 24.8965 0.283884 24.8323C0.267387 24.7686 0.259056 24.7005 0.259056 24.6296C0.259056 24.5587 0.267387 24.4904 0.283884 24.4267C0.300545 24.3625 0.325699 24.3008 0.35902 24.2438C0.424029 24.1292 0.517133 24.0381 0.635717 23.9728C0.694683 23.9403 0.758059 23.9157 0.823884 23.8994C0.889547 23.8833 0.959619 23.8751 1.03214 23.8751C1.1424 23.8751 1.24497 23.8947 1.33693 23.9332C1.42465 23.97 1.50485 24.0249 1.57541 24.0965L1.73222 23.9459C1.64859 23.8546 1.54682 23.7845 1.42955 23.7371C1.30427 23.6871 1.17098 23.6626 1.02218 23.6626C0.927768 23.6626 0.836625 23.673 0.751362 23.6937C0.665608 23.7146 0.583449 23.7462 0.507332 23.788C0.430563 23.83 0.36147 23.8804 0.301688 23.9377C0.241906 23.9953 0.1898 24.0613 0.147006 24.1343V24.1344C0.103721 24.2071 0.070726 24.286 0.0490018 24.3688C0.027441 24.4511 0.0164973 24.5393 0.0164973 24.631C0.0164973 24.7217 0.0276044 24.8095 0.0496552 24.8923C0.0713793 24.9739 0.104211 25.0525 0.147169 25.1258C0.189964 25.1987 0.241906 25.2649 0.301688 25.3224C0.361144 25.3798 0.429746 25.4301 0.505862 25.472C0.657115 25.5543 0.826824 25.5959 1.00993 25.5959ZM33.6376 25.5758L32.7767 23.6848H32.5253L31.6678 25.5758H31.9159L32.1276 25.0946H33.1725L33.1767 25.1043L33.3843 25.576H33.6376V25.5758ZM32.6511 23.9079L32.6661 23.9418L33.0913 24.9073H32.211L32.6511 23.9079ZM26.3568 25.5758V23.8919H27.0173V23.6848H25.4565V23.8919H26.117V25.5758H26.3568ZM20.4266 25.5758V23.6848H20.1835V25.5758H20.4266ZM8.50182 25.5758L7.64086 23.6848H7.3898L6.53211 25.5758H6.78022L6.99191 25.0946H8.03696L8.0412 25.1043L8.24864 25.576H8.50182V25.5758ZM7.51378 23.9079L7.95398 24.9073H7.07342L7.08354 24.8845L7.51378 23.9079ZM39.9499 25.5742V25.3687H38.906V23.6848H38.6629V25.5742H39.9499ZM13.7685 25.5742V24.992H14.2607C14.3838 24.992 14.4951 24.9774 14.5911 24.9485C14.687 24.9197 14.7706 24.8758 14.8399 24.8183C14.9091 24.7606 14.9619 24.6912 14.9965 24.6118C15.0315 24.5321 15.0491 24.4405 15.0491 24.3393C15.0491 24.2381 15.0315 24.1465 14.9965 24.0668C14.9617 23.9876 14.909 23.918 14.8399 23.8603C14.7705 23.8025 14.6867 23.7581 14.591 23.7288C14.4947 23.6993 14.3835 23.6838 14.2605 23.683H13.5255V25.5742H13.7685ZM13.7685 23.8919H14.2522C14.3406 23.8919 14.4198 23.9014 14.4874 23.9203C14.5557 23.9392 14.6145 23.9682 14.6623 24.0063C14.7104 24.0446 14.7468 24.0926 14.7708 24.1485C14.7943 24.2035 14.8064 24.2679 14.8064 24.3396C14.8064 24.4113 14.7945 24.4757 14.7708 24.5306C14.7468 24.5865 14.7104 24.6343 14.6625 24.6724C14.6156 24.7106 14.5571 24.7396 14.4887 24.7585C14.4209 24.7772 14.3414 24.7868 14.2522 24.7868H13.7685V23.8919ZM1.00993 25.6122C0.820781 25.6122 0.649601 25.5687 0.497695 25.4864C0.34285 25.401 0.220345 25.2834 0.132795 25.1342C0.0454084 24.985 0 24.8172 0 24.6312C0 24.4449 0.043775 24.2756 0.132795 24.1263C0.220345 23.977 0.34285 23.8597 0.499329 23.7739C0.655481 23.6885 0.830418 23.6465 1.02218 23.6465C1.17343 23.6465 1.30966 23.6717 1.43559 23.7221C1.56006 23.7723 1.66753 23.8479 1.75492 23.9467L1.57508 24.1194C1.43069 23.9666 1.24889 23.8913 1.03231 23.8913C0.88922 23.8913 0.760019 23.9231 0.643884 23.9869C0.527913 24.0508 0.437096 24.1395 0.373394 24.252C0.307732 24.3642 0.275717 24.4902 0.275717 24.6294C0.275717 24.7686 0.307895 24.8944 0.373394 25.0067C0.43873 25.119 0.52971 25.208 0.643884 25.2719C0.760019 25.3354 0.889384 25.3672 1.03231 25.3672C1.24726 25.3672 1.4271 25.2903 1.57508 25.1376L1.75492 25.3102C1.66753 25.4093 1.55989 25.4847 1.43396 25.5351C1.30802 25.5869 1.17016 25.612 1.02055 25.612C1.01695 25.6122 1.01336 25.6122 1.00993 25.6122ZM33.663 25.5921H33.3739L33.162 25.1109H32.1385L31.9268 25.5921H31.6426L32.5148 23.6685H32.7871L33.663 25.5921ZM32.6511 23.9485L32.2359 24.8912H33.0661L32.6511 23.9485ZM26.3731 25.5921H26.1008V23.9082H25.4403V23.6685H27.0338V23.9082H26.3733V25.5921H26.3731ZM20.4429 25.5921H20.1672V23.6685H20.4429V25.5921ZM8.52714 25.5921H8.23803L8.02634 25.1109H7.00253L6.79084 25.5921H6.50679L7.37935 23.6685H7.65147L8.52714 25.5921ZM7.51378 23.9485L7.09841 24.8912H7.92899L7.51378 23.9485ZM39.9662 25.5905H38.6468V23.6685H38.9225V25.3524H39.9664V25.5905H39.9662ZM13.7849 25.5905H13.5093V23.6669H14.2607C14.5111 23.6685 14.7076 23.7288 14.8505 23.8479C14.9934 23.9671 15.0656 24.1315 15.0656 24.3395C15.0656 24.5474 14.9934 24.7117 14.8505 24.8309C14.7076 24.9498 14.5111 25.0083 14.2607 25.0083H13.7849V25.5905ZM13.7849 23.9082V24.7704H14.2522C14.4288 24.7704 14.5616 24.7334 14.6522 24.6597C14.7447 24.5861 14.7901 24.4787 14.7901 24.3395C14.7901 24.2003 14.7447 24.0929 14.6522 24.0191C14.5598 23.9454 14.427 23.9084 14.2522 23.9084H13.7849V23.9082Z" fill="white"/>
<path d="M1.01014 25.6048C0.825569 25.6048 0.654553 25.5628 0.50183 25.48C0.425224 25.4378 0.355968 25.3869 0.296022 25.3291C0.23575 25.2709 0.183318 25.2042 0.140197 25.1307C0.0969116 25.0567 0.0637537 24.9775 0.0418662 24.8951C0.019652 24.8118 0.00854492 24.7231 0.00854492 24.6318C0.00854492 24.5394 0.0194886 24.4506 0.0413761 24.3677C0.0632636 24.284 0.0965849 24.2045 0.140197 24.1312C0.183318 24.0575 0.235913 23.9908 0.296349 23.9328C0.356621 23.875 0.426367 23.8241 0.503627 23.7817C0.580396 23.7397 0.66321 23.7078 0.749779 23.6867C0.835696 23.6659 0.927493 23.6553 1.02256 23.6553C1.1725 23.6553 1.30677 23.6799 1.43303 23.7302C1.5539 23.779 1.6586 23.8518 1.74403 23.9468L1.57579 24.1085C1.50473 24.0349 1.42339 23.9785 1.33437 23.9411C1.24339 23.903 1.14196 23.8838 1.03268 23.8838C0.960814 23.8838 0.891395 23.8919 0.826386 23.9079C0.761213 23.9239 0.698654 23.9483 0.640179 23.9804C0.522901 24.045 0.430777 24.1351 0.366585 24.2485V24.2484C0.333591 24.3047 0.3086 24.3655 0.292266 24.4291C0.275932 24.4922 0.267765 24.5598 0.267765 24.6299C0.267765 24.7 0.276095 24.7676 0.292266 24.8307C0.3086 24.8941 0.333591 24.9549 0.366585 25.0113C0.432574 25.1247 0.524698 25.2148 0.640179 25.2794C0.698654 25.3115 0.761377 25.3358 0.826386 25.3517C0.891395 25.3677 0.960814 25.3758 1.03268 25.3758C1.14049 25.3758 1.24143 25.3563 1.33241 25.3177C1.42078 25.2802 1.50245 25.2236 1.57562 25.1496L1.74403 25.3111C1.6586 25.4063 1.55341 25.4792 1.43123 25.5281C1.36933 25.5535 1.30334 25.5729 1.23506 25.5854C1.16728 25.598 1.09524 25.6043 1.02092 25.6043C1.01717 25.6048 1.01357 25.6048 1.01014 25.6048ZM33.6506 25.5848H33.3795L33.1697 25.1082L33.1676 25.1033H33.1622H32.1387H32.1333L32.1312 25.1082L31.9217 25.5846H31.6556L32.5205 23.6773H32.7823L33.6506 25.5848ZM32.6513 23.9291L32.6438 23.946L32.2286 24.8887L32.2235 24.9001H32.2361H33.0663H33.0789L33.0738 24.8887L32.6588 23.946L32.6513 23.9291ZM26.3652 25.5848H26.1092V23.909V23.9009H26.101H25.4487V23.6774H27.0259V23.9009H26.3735H26.3653V23.909V25.5848H26.3652ZM20.435 25.5848H20.1756V23.6774H20.435V25.5848ZM8.51478 25.5848H8.24363L8.03407 25.1084L8.03194 25.1035H8.02655H7.00274H6.99752L6.99539 25.1084L6.78583 25.5848H6.51975L7.38479 23.6774H7.6463L8.51478 25.5848ZM7.51399 23.9291L7.50648 23.946L7.09111 24.8887L7.08605 24.9001H7.09862H7.9292H7.94178L7.93672 24.8887L7.52151 23.946L7.51399 23.9291ZM39.9583 25.5832H38.6552V23.6774H38.9145V25.3532V25.3613H38.9227H39.9584V25.5832H39.9583ZM13.7769 25.5832H13.5177V23.6758H14.2609C14.3847 23.6766 14.4966 23.6921 14.5938 23.7219C14.6906 23.7516 14.7753 23.7964 14.8455 23.8551C14.9157 23.9136 14.9691 23.984 15.0044 24.0645C15.0399 24.1452 15.0577 24.2381 15.0577 24.3403C15.0577 24.4425 15.0397 24.5354 15.0044 24.616C14.9691 24.6965 14.9157 24.767 14.8455 24.8255C14.7754 24.8838 14.6906 24.9281 14.5938 24.9573C14.4969 24.9863 14.3849 25.0012 14.2609 25.0012H13.7851H13.7769V25.0093V25.5832ZM13.7769 23.9009V23.909V24.7712V24.7793H13.7851H14.2524C14.3409 24.7793 14.4198 24.7699 14.4868 24.7513C14.5541 24.7327 14.6116 24.7042 14.6576 24.6667C14.7045 24.6294 14.7401 24.5826 14.7637 24.528C14.7868 24.4739 14.7986 24.4107 14.7986 24.3401C14.7986 24.2695 14.7868 24.2063 14.7637 24.1522C14.7403 24.0976 14.7045 24.0508 14.6576 24.0133C14.6106 23.9759 14.5528 23.9475 14.4857 23.9289C14.4187 23.9103 14.3403 23.9009 14.2526 23.9009H13.7853H13.7769Z" fill="white"/>
<path d="M1.00993 25.5959C1.01336 25.5959 1.01695 25.5959 1.02022 25.5959H1.02038C1.09421 25.5959 1.16575 25.5895 1.23305 25.5771C1.30084 25.5646 1.36633 25.5454 1.42759 25.5201H1.42775C1.54617 25.4727 1.64859 25.4026 1.73222 25.3112L1.57541 25.1606C1.50289 25.2326 1.4222 25.2877 1.33514 25.3247C1.24301 25.3638 1.14109 25.3835 1.03214 25.3835C0.959619 25.3835 0.88971 25.3754 0.823884 25.3592C0.758059 25.3431 0.694846 25.3185 0.635717 25.2862H0.635554C0.518766 25.221 0.425663 25.1298 0.35902 25.015C0.325699 24.958 0.300381 24.8965 0.283884 24.8323C0.267387 24.7686 0.259056 24.7005 0.259056 24.6296C0.259056 24.5587 0.267387 24.4904 0.283884 24.4267C0.300545 24.3625 0.325699 24.3008 0.35902 24.2438C0.424029 24.1292 0.517133 24.0381 0.635717 23.9728C0.694683 23.9403 0.758059 23.9157 0.823884 23.8994C0.889547 23.8833 0.959619 23.8751 1.03214 23.8751C1.1424 23.8751 1.24497 23.8947 1.33693 23.9332C1.42465 23.97 1.50485 24.0249 1.57541 24.0965L1.73222 23.9459C1.64859 23.8546 1.54682 23.7845 1.42955 23.7371C1.30427 23.6871 1.17098 23.6626 1.02218 23.6626C0.927768 23.6626 0.836625 23.673 0.751362 23.6937C0.665608 23.7146 0.583449 23.7462 0.507169 23.788C0.4304 23.83 0.361307 23.8804 0.301525 23.9377C0.241742 23.9953 0.189637 24.0613 0.146842 24.1343V24.1344C0.103557 24.2071 0.0705627 24.286 0.0488385 24.3688C0.0272777 24.4511 0.0163339 24.5393 0.0163339 24.631C0.0163339 24.7217 0.027441 24.8095 0.0494918 24.8923C0.071216 24.9739 0.104047 25.0525 0.147006 25.1258C0.1898 25.1987 0.241742 25.2649 0.301525 25.3224C0.36098 25.3798 0.429583 25.4301 0.505699 25.472C0.657115 25.5543 0.826824 25.5959 1.00993 25.5959ZM33.6376 25.5758L32.7767 23.6848H32.5253L31.6678 25.5758H31.9159L32.1276 25.0946H33.1725L33.1767 25.1043L33.3843 25.576H33.6376V25.5758ZM32.6511 23.9079L32.6661 23.9418L33.0913 24.9073H32.211L32.6511 23.9079ZM26.3568 25.5758V23.8919H27.0173V23.6848H25.4565V23.8919H26.117V25.5758H26.3568ZM20.4266 25.5758V23.6848H20.1835V25.5758H20.4266ZM8.50182 25.5758L7.64086 23.6848H7.3898L6.53211 25.5758H6.78022L6.99191 25.0946H8.03696L8.0412 25.1043L8.24864 25.576H8.50182V25.5758ZM7.51378 23.9079L7.95398 24.9073H7.07342L7.08354 24.8845L7.51378 23.9079ZM39.9499 25.5742V25.3687H38.906V23.6848H38.6629V25.5742H39.9499ZM13.7685 25.5742V24.992H14.2607C14.3838 24.992 14.4951 24.9774 14.5911 24.9485C14.687 24.9197 14.7706 24.8758 14.8399 24.8183C14.9091 24.7606 14.9619 24.6912 14.9965 24.6118C15.0315 24.5321 15.0491 24.4405 15.0491 24.3393C15.0491 24.2381 15.0315 24.1465 14.9965 24.0668C14.9617 23.9876 14.909 23.918 14.8399 23.8603C14.7705 23.8025 14.6867 23.7581 14.591 23.7288C14.4947 23.6993 14.3835 23.6838 14.2605 23.683H13.5255V25.5742H13.7685ZM13.7685 23.8919H14.2522C14.3406 23.8919 14.4198 23.9014 14.4874 23.9203C14.5557 23.9392 14.6145 23.9682 14.6623 24.0063C14.7104 24.0446 14.7468 24.0926 14.7708 24.1485C14.7943 24.2035 14.8064 24.2679 14.8064 24.3396C14.8064 24.4113 14.7945 24.4757 14.7708 24.5306C14.7468 24.5865 14.7104 24.6343 14.6625 24.6724C14.6156 24.7106 14.5571 24.7396 14.4887 24.7585C14.4209 24.7772 14.3414 24.7868 14.2522 24.7868H13.7685V23.8919ZM1.00993 25.6122C0.820781 25.6122 0.649601 25.5687 0.497695 25.4864C0.34285 25.401 0.220345 25.2834 0.132795 25.1342C0.0454084 24.985 0 24.8172 0 24.6312C0 24.4449 0.043775 24.2756 0.132795 24.1263C0.220345 23.977 0.34285 23.8597 0.499329 23.7739C0.655481 23.6885 0.830418 23.6465 1.02218 23.6465C1.17343 23.6465 1.30966 23.6717 1.43559 23.7221C1.56006 23.7723 1.66753 23.8479 1.75492 23.9467L1.57508 24.1194C1.43069 23.9666 1.24889 23.8913 1.03231 23.8913C0.88922 23.8913 0.760019 23.9231 0.643884 23.9869C0.527913 24.0508 0.437096 24.1395 0.373394 24.252C0.307732 24.3642 0.275717 24.4902 0.275717 24.6294C0.275717 24.7686 0.307895 24.8944 0.373394 25.0067C0.43873 25.119 0.52971 25.208 0.643884 25.2719C0.760019 25.3354 0.889384 25.3672 1.03231 25.3672C1.24726 25.3672 1.4271 25.2903 1.57508 25.1376L1.75492 25.3102C1.66753 25.4093 1.55989 25.4847 1.43396 25.5351C1.30802 25.5869 1.17016 25.612 1.02055 25.612C1.01695 25.6122 1.01336 25.6122 1.00993 25.6122ZM33.663 25.5921H33.3739L33.162 25.1109H32.1385L31.9268 25.5921H31.6426L32.5148 23.6685H32.7871L33.663 25.5921ZM32.6511 23.9485L32.2359 24.8912H33.0661L32.6511 23.9485ZM26.3731 25.5921H26.1008V23.9082H25.4403V23.6685H27.0338V23.9082H26.3733V25.5921H26.3731ZM20.4429 25.5921H20.1672V23.6685H20.4429V25.5921ZM8.52714 25.5921H8.23803L8.02634 25.1109H7.00253L6.79084 25.5921H6.50679L7.37935 23.6685H7.65147L8.52714 25.5921ZM7.51378 23.9485L7.09841 24.8912H7.92899L7.51378 23.9485ZM39.9662 25.5905H38.6468V23.6685H38.9225V25.3524H39.9664V25.5905H39.9662ZM13.7849 25.5905H13.5093V23.6669H14.2607C14.5111 23.6685 14.7076 23.7288 14.8505 23.8479C14.9934 23.9671 15.0656 24.1315 15.0656 24.3395C15.0656 24.5474 14.9934 24.7117 14.8505 24.8309C14.7076 24.9498 14.5111 25.0083 14.2607 25.0083H13.7849V25.5905ZM13.7849 23.9082V24.7704H14.2522C14.4288 24.7704 14.5616 24.7334 14.6522 24.6597C14.7447 24.5861 14.7901 24.4787 14.7901 24.3395C14.7901 24.2003 14.7447 24.0929 14.6522 24.0191C14.5598 23.9454 14.427 23.9084 14.2522 23.9084H13.7849V23.9082Z" fill="white"/>
<path d="M14.3465 21.4282V17.7367H15.5382L15.8845 17.7418C16.5232 17.7855 17.9083 17.985 18.89 18.8874C19.5892 19.5315 19.9438 20.3852 19.9456 21.4266H18.4498C18.4498 20.7659 18.2515 20.2626 17.843 19.8869C17.2513 19.3452 16.357 19.1926 15.8847 19.149V21.4282H14.3465ZM3.59223 21.4013C2.1702 21.4013 1.05573 20.7924 0.457419 19.6856C0.0306131 18.8973 0.0052955 18.1325 0.00366211 18.0471V14.5199H1.49806V18.0369C1.50639 18.3523 1.65437 20.0008 3.59239 19.9992H5.91378V21.4013H3.59223ZM11.531 21.3946V18.0454H11.5327C11.5006 17.4701 11.3058 17.024 10.936 16.6868C10.1343 15.9521 8.76438 15.9555 8.73416 15.9555V21.3946H7.19615V14.5283H8.73416C9.01478 14.5267 10.8084 14.5702 12.0068 15.6654C12.6724 16.2742 13.0692 17.086 13.0692 18.0454V21.3946H11.531ZM23.0959 21.388H21.0068C21.0068 21.3427 21.0166 20.2543 21.6571 19.1807C22.2588 18.1727 23.5312 16.9719 26.1803 16.9719V18.374C24.0606 18.374 23.1649 19.3401 22.785 20.1819H26.1805V21.3876L23.0959 21.388ZM27.3362 21.388C27.3362 19.6387 28.2573 18.6643 29.2877 18.1628L29.7582 19.5078C29.2573 19.8248 28.8305 20.3866 28.8305 21.388H27.3362ZM37.0265 21.3863C35.7693 21.3863 34.7507 20.4303 34.7507 19.2513V14.5199H36.2988V18.9275C36.2988 19.6033 36.8838 20.1518 37.6049 20.1518H40.0001V21.3862L37.0265 21.3863ZM32.0933 21.3811L29.6998 14.5199H31.416L33.771 21.3811H32.0933ZM22.4486 15.7241H20.9106V14.5166H26.1953V15.7241H22.4486Z" fill="white"/>
<path d="M14.3465 21.4282V17.7367H15.5382L15.8845 17.7418C16.5232 17.7855 17.9083 17.985 18.89 18.8874C19.5892 19.5315 19.9438 20.3852 19.9456 21.4266H18.4498C18.4498 20.7659 18.2515 20.2626 17.843 19.8869C17.2513 19.3452 16.357 19.1926 15.8847 19.149V21.4282H14.3465ZM3.59223 21.4013C2.1702 21.4013 1.05573 20.7924 0.457419 19.6856C0.0306131 18.8973 0.0052955 18.1325 0.00366211 18.0471V14.5199H1.49806V18.0369C1.50639 18.3523 1.65437 20.0008 3.59239 19.9992H5.91378V21.4013H3.59223ZM11.531 21.3946V18.0454H11.5327C11.5006 17.4701 11.3058 17.024 10.936 16.6868C10.1343 15.9521 8.76438 15.9555 8.73416 15.9555V21.3946H7.19615V14.5283H8.73416C9.01478 14.5267 10.8084 14.5702 12.0068 15.6654C12.6724 16.2742 13.0692 17.086 13.0692 18.0454V21.3946H11.531ZM23.0959 21.388H21.0068C21.0068 21.3427 21.0166 20.2543 21.6571 19.1807C22.2588 18.1727 23.5312 16.9719 26.1803 16.9719V18.374C24.0606 18.374 23.1649 19.3401 22.785 20.1819H26.1805V21.3876L23.0959 21.388ZM27.3362 21.388C27.3362 19.6387 28.2573 18.6643 29.2877 18.1628L29.7582 19.5078C29.2573 19.8248 28.8305 20.3866 28.8305 21.388H27.3362ZM37.0265 21.3863C35.7693 21.3863 34.7507 20.4303 34.7507 19.2513V14.5199H36.2988V18.9275C36.2988 19.6033 36.8838 20.1518 37.6049 20.1518H40.0001V21.3862L37.0265 21.3863ZM32.0933 21.3811L29.6998 14.5199H31.416L33.771 21.3811H32.0933ZM22.4486 15.7241H20.9106V14.5166H26.1953V15.7241H22.4486Z" fill="white"/>
<path d="M4.43555 14.5205V18.212H5.97355V14.5205H4.43555Z" fill="white"/>
<path d="M4.43896 14.5186H5.97436L5.84368 14.6652H4.58597L4.43896 14.5186Z" fill="white"/>
<path opacity="0.77" d="M4.43896 18.217H5.97436L5.84368 18.0703H4.58597L4.43896 18.217Z" fill="white"/>
<path opacity="0.597" d="M4.43896 18.2084V14.5186L4.58597 14.6489V18.0617L4.43896 18.2084Z" fill="white"/>
<path d="M5.97293 18.2084V14.5186L5.82593 14.6489V18.0617L5.97293 18.2084Z" fill="white"/>
<path d="M16.3179 15.755H16.7029C18.0627 15.755 18.3988 17.0012 18.3988 17.7424H19.9368V17.7323C19.9368 16.2883 19.2258 14.5625 17.1416 14.5625H14.3462V15.755H16.3179Z" fill="white"/>
<path d="M14.3462 15.757V14.5625L14.4932 14.7131V15.61L14.3462 15.757Z" fill="white"/>
<path opacity="0.658" d="M14.3462 14.5625H17.1414C19.2256 14.5625 19.9366 16.2883 19.9366 17.7323V17.7424L19.7874 17.5957C19.7433 16.2335 19.0326 14.7092 17.1413 14.7092H14.493L14.3462 14.5625Z" fill="white"/>
<path opacity="0.77" d="M18.5412 17.5957H19.7871L19.9364 17.7323V17.7424H18.3984" fill="white"/>
<path opacity="0.386" d="M14.4903 15.6123H16.6999C18.0684 15.6123 18.4931 16.7991 18.5386 17.5997L18.3959 17.7464C18.3959 17.0051 18.0597 15.759 16.6999 15.759H14.3433L14.4903 15.6123Z" fill="white"/>
</g>
<defs>
<clipPath id="clip0_5018_1996">
<rect width="40" height="39.9992" fill="white" transform="translate(0 0.000976562)"/>
</clipPath>
</defs>
</svg>
