<svg width="40" height="40" viewBox="0 0 40 40" fill="none" xmlns="http://www.w3.org/2000/svg">
<path d="M10.3399 28.1113L9.35474 30.2894H9.68708L9.93436 29.7394H11.0125L11.2558 30.2894H11.6L10.6149 28.1113H10.3399ZM10.8819 29.4447H10.0629L10.4744 28.5288L10.8819 29.4447Z" fill="white"/>
<path d="M13.4335 29.7135L12.1852 28.125H11.9023V30.2891H12.2149V28.6611L13.4968 30.2891H13.7461V28.125H13.4335V29.7135Z" fill="white"/>
<path d="M15.1921 29.3886H15.8251V29.8436C15.6669 29.9682 15.4789 30.0296 15.2673 30.0296C15.0319 30.0296 14.84 29.9524 14.6995 29.8C14.5571 29.6458 14.4859 29.4479 14.4859 29.2066C14.4859 28.981 14.5571 28.7852 14.6995 28.627C14.8419 28.4668 15.018 28.3895 15.2336 28.3895C15.4611 28.3895 15.6649 28.4668 15.839 28.6171L15.8706 28.6447L16.0764 28.4034L16.0447 28.3757C15.93 28.2808 15.8093 28.2076 15.6867 28.1601C15.562 28.1126 15.4137 28.0889 15.2416 28.0889C14.927 28.0889 14.6659 28.1997 14.4621 28.4192C14.2603 28.6388 14.1575 28.9019 14.1575 29.2047C14.1575 29.5211 14.2584 29.7902 14.4582 30.0018C14.658 30.2154 14.927 30.3223 15.2574 30.3223C15.5858 30.3223 15.8766 30.2115 16.1199 29.9939L16.1337 29.9821V29.0919H15.1921V29.3886Z" fill="white"/>
<path d="M16.8998 29.3476H18.0333V29.0488H16.8998V28.4237H18.1678V28.125H16.5813V30.2891H18.1817V29.9924H16.8998V29.3476Z" fill="white"/>
<path d="M18.8908 28.125H18.5723V30.2891H20.0619V29.9885H18.8908V28.125Z" fill="white"/>
<path d="M21.741 29.2777C21.6282 29.1807 21.4481 29.1056 21.2068 29.0541C20.9932 29.0087 20.8488 28.9572 20.7755 28.9018C20.7084 28.8504 20.6747 28.7811 20.6747 28.6921C20.6747 28.6051 20.7103 28.5359 20.7815 28.4805C20.8547 28.4231 20.9536 28.3935 21.0763 28.3935C21.282 28.3935 21.4739 28.4666 21.6499 28.6091L21.6836 28.6367L21.8715 28.3894L21.8398 28.3637C21.6203 28.1877 21.367 28.0986 21.0822 28.0986C20.8745 28.0986 20.7004 28.156 20.5658 28.2688C20.4274 28.3835 20.3581 28.5319 20.3581 28.7079C20.3581 28.888 20.4175 29.0304 20.5362 29.1293C20.651 29.2263 20.8329 29.2995 21.0901 29.3549C21.2919 29.3963 21.4304 29.4458 21.5016 29.5012C21.5668 29.5527 21.5986 29.62 21.5986 29.7089C21.5986 29.8039 21.5629 29.8771 21.4877 29.9364C21.4106 29.9958 21.3057 30.0275 21.1771 30.0275C21.0426 30.0275 20.92 30.0037 20.8151 29.9602C20.7084 29.9147 20.5995 29.8415 20.4926 29.7445L20.461 29.7149L20.2612 29.9502L20.2909 29.978C20.5461 30.2055 20.8408 30.3222 21.1692 30.3222C21.3868 30.3222 21.5668 30.2648 21.7073 30.1501C21.8497 30.0334 21.9209 29.879 21.9209 29.6912C21.919 29.5151 21.8596 29.3766 21.741 29.2777Z" fill="white"/>
<path d="M23.0753 28.125H22.3118V30.2891H23.0753C23.4077 30.2891 23.6846 30.1843 23.8983 29.9806C24.112 29.7748 24.2208 29.5157 24.2208 29.2071C24.2208 28.8985 24.112 28.6373 23.8983 28.4336C23.6886 28.2298 23.4097 28.125 23.0753 28.125ZM23.0753 29.9885H22.6303V28.4257H23.0753C23.3207 28.4257 23.5205 28.5008 23.6708 28.6492C23.8211 28.7976 23.8963 28.9855 23.8963 29.2071C23.8963 29.4326 23.8211 29.6206 23.6728 29.7669C23.5244 29.9153 23.3227 29.9885 23.0753 29.9885Z" fill="white"/>
<path d="M24.9552 29.3476H26.0907V29.0488H24.9552V28.4237H26.2232V28.125H24.6367V30.2891H26.2391V29.9924H24.9552V29.3476Z" fill="white"/>
<path d="M28.2686 29.7348C28.1657 29.8318 28.0628 29.9069 27.964 29.9524C27.8671 29.9999 27.7523 30.0217 27.6257 30.0217C27.4081 30.0217 27.23 29.9445 27.0817 29.7862C26.9353 29.63 26.8601 29.4341 26.8601 29.2046C26.8601 28.9732 26.9333 28.7773 27.0797 28.6211C27.2261 28.4648 27.4041 28.3876 27.6237 28.3876C27.8472 28.3876 28.0569 28.4806 28.2488 28.6606L28.2785 28.6903L28.4902 28.4628L28.4605 28.4351C28.3399 28.3224 28.2152 28.2353 28.0906 28.1759C27.962 28.1165 27.8077 28.0869 27.6276 28.0869C27.3171 28.0869 27.054 28.1958 26.8463 28.4133C26.6386 28.629 26.5337 28.896 26.5337 29.2046C26.5337 29.5172 26.6386 29.7842 26.8423 29.9979C27.0481 30.2115 27.3091 30.3204 27.6178 30.3204C27.8038 30.3204 27.9659 30.2887 28.0985 30.2274C28.231 30.1661 28.3596 30.075 28.4783 29.9544L28.506 29.9267L28.2943 29.7032L28.2686 29.7348Z" fill="white"/>
<path d="M29.7577 29.0805L30.6934 28.125H30.274L29.1385 29.306V28.125H28.8201V30.2891H29.1385V29.7056L29.5361 29.302L30.3176 30.2891H30.7192L29.7577 29.0805Z" fill="white"/>
<path d="M28.3713 25.2959H22.7214C22.9509 25.2148 24.0231 24.7044 24.492 24.3207C24.763 24.0991 24.9766 23.8657 25.0301 23.6698C25.0399 23.6382 25.0439 23.6085 25.0439 23.5788C25.0439 23.5511 25.0399 23.5274 25.032 23.5017C25.0182 23.4503 24.9885 23.4305 24.9291 23.4404C24.8184 23.4562 24.6087 23.5769 24.2466 23.7648C23.7877 24.0022 23.0815 24.3484 22.0152 24.7361C22.0607 24.6807 22.0864 24.6312 22.0864 24.5917C22.0864 24.5799 22.0844 24.5699 22.0804 24.56C22.0646 24.5324 22.0231 24.5264 21.9579 24.5383C22.4583 24.2198 22.7867 23.9962 22.7867 23.9962C23.032 23.8459 23.5226 23.3988 23.8827 22.9418C24.1339 22.6253 24.3218 22.3048 24.3257 22.0774C24.3257 22.0734 24.3257 22.0714 24.3257 22.0695C24.3257 22.0121 24.3139 21.9587 24.2862 21.9151C24.2724 21.8894 24.2545 21.8756 24.2328 21.8716C24.1438 21.8518 23.9717 22.018 23.6116 22.3365C23.2437 22.6589 22.6799 23.1377 21.8035 23.7331C21.8015 23.7351 21.8015 23.7351 21.7995 23.7371C21.7679 23.7668 21.7382 23.7984 21.7046 23.8261C21.5918 23.931 21.4573 24.0101 21.3327 24.101L20.9549 24.3681C20.9133 24.3978 20.8718 24.4255 20.8283 24.4552C20.8302 24.4552 20.8342 24.4532 20.8362 24.4532C21.0083 24.4314 21.1823 24.4255 21.3703 24.475C21.3802 24.4769 21.3861 24.4888 21.3841 24.4987C21.3841 24.5026 21.3821 24.5046 21.3782 24.5086C21.2358 24.6411 21.0775 24.7183 20.9172 24.7816C20.757 24.8488 20.5809 24.8468 20.4128 24.8746C20.2446 24.9022 20.0746 24.928 19.9044 24.9517C19.7323 24.9715 19.5641 24.9953 19.3921 25.0131C19.3822 25.0131 19.3743 25.0071 19.3743 24.9973C19.3743 24.9894 19.3782 24.9833 19.3842 24.9794C19.5424 24.9121 19.7046 24.8529 19.8649 24.7895C20.0251 24.7282 20.1873 24.6708 20.3495 24.6154C20.4702 24.5738 20.5888 24.5166 20.7115 24.4829C20.7768 24.4235 20.8401 24.3661 20.9034 24.3068L21.2496 24.0002C21.2714 23.9804 21.2932 23.9606 21.3149 23.9408C21.3545 23.8716 21.3802 23.8103 21.3802 23.7648C21.3802 23.745 21.3762 23.7292 21.3663 23.7153C21.3604 23.7094 21.3545 23.7055 21.3486 23.7035C22.0092 23.0269 22.486 22.4908 22.486 22.4908C22.6641 22.3108 22.9647 21.8618 23.1982 21.3969C23.3802 21.0308 23.5187 20.657 23.5187 20.3939C23.5187 20.2771 23.4909 20.1822 23.4296 20.1209C23.3268 20.0101 23.216 20.202 22.8856 20.6827C22.5058 21.2366 21.8332 22.1723 20.5454 23.468C20.6008 23.4522 20.6561 23.4384 20.7135 23.4265C20.8223 23.4047 20.9331 23.3869 21.0518 23.385C21.0616 23.385 21.0696 23.3929 21.0696 23.4027C21.0696 23.4087 21.0677 23.4126 21.0656 23.4146C20.9865 23.5037 20.8995 23.5749 20.8085 23.6422C20.7194 23.7094 20.6265 23.7688 20.5316 23.8221C20.4365 23.8755 20.3377 23.9191 20.2328 23.9547C20.128 23.9883 20.0231 24.0219 19.9222 24.0596C19.7185 24.1367 19.5128 24.2099 19.305 24.2811C19.0973 24.3503 18.8916 24.4235 18.6819 24.4888C18.672 24.4928 18.6641 24.4868 18.6601 24.4769C18.6581 24.469 18.6601 24.4611 18.668 24.4572C18.8559 24.3424 19.0459 24.2375 19.2358 24.1268C19.4256 24.0199 19.6176 23.9152 19.8114 23.8122C19.9083 23.7608 20.0014 23.7035 20.0963 23.6481C20.1635 23.6085 20.2328 23.5769 20.304 23.5471C20.5216 23.2465 20.7491 22.8785 20.6561 22.7796C20.6284 22.7559 20.577 22.7717 20.5058 22.8133C20.5058 22.8133 20.5058 22.8133 20.5078 22.8112C21.3486 21.6144 22.0429 20.4671 22.0429 20.4671C22.1616 20.291 22.304 19.9587 22.4088 19.5986C22.4899 19.3157 22.5473 19.017 22.5473 18.7677C22.5473 18.5284 22.496 18.3365 22.3634 18.2455C22.3634 18.2455 22.3297 18.4611 22.1181 18.9398C21.8214 19.6085 21.1784 20.7935 19.7937 22.6293C19.8312 22.6135 19.8668 22.5976 19.9044 22.5818C20.0251 22.5343 20.1477 22.4908 20.2803 22.465C20.2902 22.4631 20.3 22.471 20.302 22.479C20.302 22.4849 20.302 22.4908 20.2981 22.4928C20.215 22.6015 20.124 22.6946 20.029 22.7816C19.9341 22.8706 19.8351 22.9498 19.7343 23.0269C19.6314 23.1021 19.5246 23.1694 19.4118 23.2287C19.3921 23.2386 19.3723 23.2485 19.3525 23.2583C19.3288 23.2702 19.305 23.2821 19.2793 23.296C19.21 23.3315 19.1408 23.3672 19.0716 23.4047C19.0597 23.4106 19.0459 23.4185 19.0321 23.4265C18.8718 23.5155 18.7115 23.6026 18.5493 23.6876C18.4999 23.7153 18.4484 23.741 18.399 23.7688C18.3377 23.8004 18.2763 23.8321 18.215 23.8637C18.0508 23.9487 17.8866 24.0358 17.7204 24.1169C17.7125 24.1209 17.7007 24.1169 17.6987 24.109C17.6947 24.103 17.6967 24.0931 17.7026 24.0892C17.9024 23.931 18.1082 23.7806 18.3119 23.6263C18.3436 23.6026 18.3752 23.5788 18.4069 23.557C18.5078 23.4838 18.6067 23.4106 18.7076 23.3375C18.7808 23.284 18.8559 23.2307 18.9291 23.1773C18.9885 23.1357 19.0479 23.0922 19.1052 23.0467C19.1487 23.015 19.1903 22.9814 19.2338 22.9478C19.3347 22.8706 19.4396 22.8033 19.5503 22.746C19.7224 22.469 19.9282 22.105 19.9282 21.933C19.9282 21.8973 19.9203 21.8716 19.9004 21.8538C19.8649 21.8261 19.7956 21.8618 19.7046 21.9369C20.6937 20.4037 21.6057 18.6411 21.6057 18.6411C21.667 18.5383 21.7303 18.3859 21.7897 18.2079C21.9123 17.84 22.0152 17.3573 22.0152 16.9675C22.0152 16.928 22.0152 16.8904 22.0112 16.8528C21.9974 16.5956 21.9281 16.3919 21.7818 16.3068C21.7818 16.3068 21.7818 16.3147 21.7778 16.3286C21.7778 16.3286 21.7778 16.3286 21.7778 16.3306C21.766 16.4196 21.7026 16.7559 21.4316 17.4087C21.1606 18.0655 20.6779 19.0427 19.8253 20.4057C19.8253 20.4077 19.8233 20.4097 19.8213 20.4116C19.8174 20.4195 19.8114 20.4294 19.8075 20.4394C19.6749 20.6846 19.5128 20.9142 19.3623 21.1515L19.0221 21.6857C19.1666 21.6046 19.3209 21.5334 19.489 21.4799C19.5008 21.476 19.5128 21.4819 19.5167 21.4938C19.5187 21.4997 19.5187 21.5056 19.5147 21.5115C19.3623 21.7865 19.1666 22.0081 18.9568 22.2158C18.852 22.3187 18.7392 22.4117 18.6166 22.4948C18.5869 22.5145 18.5572 22.5343 18.5276 22.5541C18.4366 22.6155 18.3436 22.6768 18.2546 22.742C18.2546 22.742 18.2546 22.742 18.2526 22.742L18.2209 22.7638L17.8945 22.9992L17.7481 23.1001L17.5325 23.2504C17.2872 23.4146 17.0478 23.5848 16.8006 23.745C16.7907 23.7509 16.7788 23.7489 16.7709 23.7391C16.7649 23.7311 16.7669 23.7193 16.7729 23.7134C16.7966 23.6896 16.8184 23.6659 16.8421 23.6422C17.0261 23.4542 17.212 23.2741 17.398 23.0902L17.5879 22.9062L17.7145 22.7836L17.8015 22.7025L18.035 22.4829C18.1022 22.4196 18.1675 22.3543 18.2328 22.289C18.2724 22.2494 18.31 22.2119 18.3495 22.1723C18.4544 22.0695 18.5651 21.9745 18.6858 21.8914C18.7214 21.8677 18.7571 21.8439 18.7926 21.8202C18.8956 21.6046 18.9826 21.385 18.9826 21.2584C18.9826 21.2148 18.9727 21.1812 18.9489 21.1634C18.9133 21.1397 18.852 21.1752 18.7729 21.2464C19.8807 19.4167 20.8916 17.2603 20.8916 17.2603C20.9628 17.1199 21.034 16.9042 21.0914 16.653C21.1685 16.3226 21.22 15.931 21.22 15.5709C21.22 15.3157 21.1922 15.0744 21.1289 14.8825C21.1072 14.8192 21.0835 14.7618 21.0518 14.7104C21.0518 14.7084 21.0498 14.7044 21.0478 14.7025C20.9944 14.6115 20.9251 14.5402 20.8401 14.4987C20.8401 14.5046 20.8381 14.8311 20.6087 15.5749C20.3219 16.5323 19.6414 18.202 18.0805 20.7955C18.1497 20.7302 18.219 20.6669 18.2941 20.6075C18.4227 20.5027 18.5553 20.4018 18.7076 20.3148C18.7195 20.3088 18.7313 20.3128 18.7392 20.3227C18.7432 20.3286 18.7432 20.3345 18.7412 20.3404C18.6819 20.5047 18.6047 20.653 18.5216 20.7974C18.4405 20.9418 18.3495 21.0803 18.2546 21.2129C18.1576 21.3454 18.0528 21.47 17.9361 21.5867C17.8609 21.662 17.7857 21.7371 17.7086 21.8123C17.669 21.8538 17.6275 21.8953 17.5879 21.9369L17.2496 22.293L16.9371 22.6155L16.9074 22.6451C16.674 22.8765 16.4464 23.112 16.211 23.3414C16.2031 23.3493 16.1893 23.3493 16.1814 23.3414C16.1754 23.3355 16.1735 23.3236 16.1794 23.3157C16.3634 23.0427 16.5572 22.7796 16.7471 22.5106L16.8362 22.3879L17.036 22.111L17.3307 21.7173C17.3644 21.6718 17.398 21.6263 17.4316 21.5788C17.4949 21.4918 17.5543 21.4028 17.6156 21.3157C17.6552 21.2604 17.6967 21.2069 17.7402 21.1555C17.7462 21.1476 17.7521 21.1416 17.756 21.1337C17.8134 21.0091 17.8668 20.8805 17.9064 20.7638C17.9064 20.7638 17.9064 20.7638 17.9064 20.7618L17.9084 20.7559L17.9104 20.7499C17.9163 20.7321 17.9222 20.7124 17.9281 20.6945C17.9321 20.6807 17.9361 20.6669 17.94 20.655C17.942 20.6491 17.942 20.6451 17.944 20.6392C17.9479 20.6194 17.9539 20.6016 17.9558 20.5838C17.9558 20.5818 17.9578 20.5779 17.9578 20.5779C17.9598 20.5639 17.9638 20.5521 17.9638 20.5383C17.9638 20.5323 17.9657 20.5264 17.9657 20.5205C17.9677 20.5067 17.9677 20.4927 17.9677 20.4809C17.9677 20.4335 17.9559 20.3978 17.9321 20.3781C17.9163 20.3682 17.8945 20.3702 17.8708 20.382C19.0558 18.196 20.2783 15.0447 20.2783 15.0447C20.2941 15.0071 20.3099 14.9636 20.3219 14.9141C20.3891 14.6787 20.4346 14.3306 20.4346 13.9685C20.4346 13.6342 20.3951 13.288 20.3 13.0111C20.2724 12.928 20.2387 12.8508 20.1972 12.7816C20.13 12.6649 20.0468 12.5719 19.944 12.5145C19.9282 12.5046 19.9124 12.4967 19.8945 12.4888C19.8925 12.4888 19.8886 12.4868 19.8866 12.4849C19.8866 12.4849 19.8866 12.4947 19.8826 12.5126C19.8767 12.5482 19.8668 12.6194 19.8491 12.7282C19.7006 13.5452 19.0301 16.4275 16.3119 21.1832C16.2605 21.2208 16.217 21.2722 16.1774 21.3434C16.0132 21.6382 15.7739 21.9903 15.5543 22.3484C15.4811 22.469 15.4079 22.5917 15.3426 22.7104C15.3426 22.7104 15.3426 22.7124 15.3406 22.7124C15.2298 22.9141 15.1388 23.11 15.0815 23.296C15.0558 23.3731 15.0379 23.4483 15.0281 23.5195C15.0102 23.6362 15.0122 23.745 15.0399 23.8439C15.2199 24.4829 15.2674 24.4038 15.2852 24.7915V24.7975C15.2912 24.932 15.2081 25.0764 15.0973 25.2089C15.0775 25.2326 15.0281 25.288 15.0241 25.292H11.7026L18.7689 9.67773H21.303L28.3713 25.2959Z" fill="white"/>
</svg>
