<svg width="40" height="40" viewBox="0 0 40 40" fill="none" xmlns="http://www.w3.org/2000/svg">
<path d="M25.2644 12.1804L21.6258 17.5804C21.3742 17.9481 21.858 18.3933 22.2064 18.0836L25.787 14.9675C25.8839 14.89 26.0193 14.9481 26.0193 15.0836V24.819C26.0193 24.9546 25.8451 25.0127 25.7677 24.9158L14.929 11.9481C14.5806 11.5223 14.0774 11.29 13.5161 11.29H13.129C12.1225 11.29 11.2903 12.1223 11.2903 13.1481V26.8514C11.2903 27.8771 12.1225 28.7094 13.1483 28.7094C13.7871 28.7094 14.3871 28.3803 14.7354 27.8191L18.3742 22.4191C18.6258 22.0514 18.1419 21.6061 17.7935 21.9158L14.2129 25.0127C14.1161 25.09 13.9806 25.032 13.9806 24.8965V15.1804C13.9806 15.0449 14.1548 14.9868 14.2322 15.0836L25.0709 28.0513C25.4193 28.4771 25.9419 28.7094 26.4838 28.7094H26.8709C27.8968 28.7094 28.729 27.8771 28.729 26.8514V13.1481C28.7096 12.1223 27.8773 11.29 26.8516 11.29C26.2128 11.29 25.6128 11.6191 25.2644 12.1804Z" fill="white"/>
</svg>
