<svg width="40" height="40" viewBox="0 0 40 40" fill="none" xmlns="http://www.w3.org/2000/svg">
<path d="M24.9583 27.2577C23.6775 27.2577 22.6356 26.2158 22.6356 24.935V20.6587C24.7504 20.4952 26.2805 20.0472 27.2811 19.3158V24.935C27.2811 26.2158 26.2391 27.2577 24.9583 27.2577ZM22.6356 15.0643C22.6356 13.7835 23.6775 12.7416 24.9583 12.7416C26.2391 12.7416 27.2811 13.7835 27.2811 15.0643V16.4675C27.2583 16.961 27.1512 17.468 26.7168 17.9045C26.2083 18.4147 25.0824 18.9903 22.6356 19.1971V15.0643ZM17.3948 24.935C17.3948 26.2158 16.3528 27.2577 15.072 27.2577C13.7912 27.2577 12.7493 26.2158 12.7493 24.935V23.6328C12.7726 23.1585 12.8866 22.6412 13.3561 22.1686C13.8842 21.636 15.01 21.0378 17.3948 20.814V24.935ZM15.072 12.7416C16.3528 12.7416 17.3948 13.7835 17.3948 15.0643V19.3536C15.2958 19.5337 13.7646 20.0117 12.7493 20.7896V15.0643C12.7493 13.7835 13.7912 12.7416 15.072 12.7416ZM28.7362 15.8915L28.7326 15.6448V15.0643C28.7326 12.9833 27.0393 11.29 24.9583 11.29C22.8773 11.29 21.184 12.9833 21.184 15.0643V19.2668C20.817 19.2743 19.2299 19.2722 18.8464 19.281V15.0643C18.8464 12.9833 17.1531 11.29 15.072 11.29C12.991 11.29 11.2977 12.9833 11.2977 15.0643V23.5607C11.2859 23.7913 11.2908 23.9972 11.2948 24.1667L11.2977 24.3546V24.935C11.2977 27.016 12.991 28.7094 15.072 28.7094C17.1531 28.7094 18.8464 27.016 18.8464 24.935V20.7354C19.2173 20.7263 20.805 20.7291 21.184 20.7224V24.935C21.184 27.016 22.8773 28.7094 24.9583 28.7094C27.0393 28.7094 28.7326 27.016 28.7326 24.935V16.5461C28.7447 16.3034 28.7403 16.0811 28.7362 15.8915Z" fill="white"/>
</svg>
