<svg width="40" height="40" viewBox="0 0 40 40" fill="none" xmlns="http://www.w3.org/2000/svg">
<path d="M20.0003 12.6209C20.3598 12.6197 20.7125 12.7193 21.0184 12.9082C21.3243 13.0971 21.5712 13.3679 21.7312 13.6898L27.1747 24.5769C27.3225 24.872 27.3923 25.2 27.3775 25.5296C27.3628 25.8593 27.264 26.1797 27.0906 26.4605C26.9171 26.7412 26.6748 26.9729 26.3866 27.1336C26.0984 27.2943 25.7738 27.3786 25.4438 27.3786H14.5567C14.2268 27.3785 13.9023 27.2941 13.6142 27.1334C13.3261 26.9727 13.0838 26.7409 12.9104 26.4602C12.737 26.1795 12.6383 25.8591 12.6236 25.5295C12.6089 25.1999 12.6787 24.872 12.8264 24.5769L18.2694 13.6898C18.4294 13.3679 18.6763 13.0971 18.9822 12.9082C19.2881 12.7193 19.6408 12.6197 20.0003 12.6209ZM20.0003 11.29C19.3938 11.29 18.7993 11.4588 18.2834 11.7775C17.7674 12.0962 17.3504 12.5523 17.0791 13.0947L11.6355 23.9818C11.3863 24.4798 11.2686 25.0332 11.2936 25.5895C11.3185 26.1457 11.4852 26.6864 11.7779 27.1601C12.0706 27.6338 12.4796 28.0248 12.9659 28.296C13.4523 28.5671 13.9999 28.7094 14.5567 28.7094H25.4438C26.0006 28.7094 26.5482 28.567 27.0344 28.2958C27.5207 28.0246 27.9296 27.6336 28.2222 27.1599C28.5149 26.6862 28.6815 26.1455 28.7064 25.5893C28.7313 25.0331 28.6136 24.4797 28.3645 23.9818L22.9215 13.0947C22.6501 12.5523 22.2331 12.0962 21.7172 11.7775C21.2012 11.4588 20.6067 11.29 20.0003 11.29Z" fill="white"/>
</svg>
