<svg width="124" height="40" viewBox="0 0 124 40" fill="none"
    xmlns="http://www.w3.org/2000/svg">
    <path d="M49.4616 23.6239C47.024 23.6239 45.098 22.9566 44.6967 20.9271H58.3016C58.3016 15.1571 54.4722 13.4863 49.6822 13.4863C44.5688 13.4863 40.9551 15.3854 40.9551 20.0641C40.9551 24.7428 44.6767 26.6218 49.4666 26.6218C54.1311 26.6218 57.2408 25.0915 58.0859 21.8553H54.4471C53.5267 23.1498 51.9844 23.6239 49.4616 23.6239ZM49.6547 16.291C51.9644 16.291 53.7625 16.7928 54.3819 18.5765H44.8221C45.3989 16.7878 47.1519 16.291 49.6547 16.291Z" fill="white"/>
    <path d="M71.8879 13.7012L66.9676 24.185L61.5783 13.7012H57.5156L64.0359 26.4052H65.9168L63.3739 31.7989H67.4165L75.943 13.7012H71.8879Z" fill="white"/>
    <path d="M100.693 13.7012L96.5647 23.4851L92.7152 13.7012H88.3466L84.5021 23.5202L80.3743 13.7062H76.2891L81.9567 26.4102H86.8419L90.5409 17.5671L94.2425 26.4102H99.1176L104.785 13.7062L100.693 13.7012Z" fill="white"/>
    <path d="M113.7 13.4863C111.072 13.5081 108.465 13.952 105.978 14.8009L107.282 17.4977C109.306 16.875 111.412 16.5629 113.529 16.572C115.239 16.572 118.319 16.7652 118.319 19.1811C116.449 18.567 114.491 18.2611 112.523 18.2754C108.511 18.2754 104.93 19.3115 104.93 22.6104C104.93 25.4804 107.134 26.6243 110.663 26.6243C113.32 26.6415 115.944 26.0285 118.319 24.8356V26.4086H121.998V20.0089C121.955 15.1897 118.961 13.4863 113.7 13.4863ZM118.319 22.4599C116.438 23.2803 113.7 23.9049 111.711 23.9049C109.807 23.9049 108.589 23.797 108.589 22.4599C108.589 21.1654 110.234 20.7038 112.972 20.7038C114.784 20.6808 116.588 20.9424 118.319 21.479V22.4599Z" fill="white"/>
    <g clip-path="url(#clip0_1306_2372)">
        <path d="M16.736 11.7498C16.7344 11.736 16.7344 11.722 16.736 11.7082V11.6954L16.7455 11.6698L16.7566 11.657C16.7609 11.6503 16.7657 11.6439 16.7708 11.6378L16.7851 11.6266C16.7905 11.6213 16.7963 11.6165 16.8025 11.6122L21.1817 9.13689C21.2058 9.12285 21.2331 9.11548 21.2609 9.11548C21.2887 9.11548 21.316 9.12285 21.3401 9.13689C21.3641 9.15085 21.384 9.17088 21.3979 9.19502C21.4118 9.21916 21.4191 9.24655 21.4193 9.27448V14.1275L24.0215 15.598V6.72076C24.0233 6.49585 23.9639 6.27475 23.85 6.08151C23.7361 5.88827 23.5719 5.73027 23.3753 5.62469C23.1929 5.52242 22.9877 5.46875 22.779 5.46875C22.5704 5.46875 22.3652 5.52242 22.1828 5.62469L15.6289 9.33049C15.1718 9.58897 14.7913 9.96582 14.5262 10.4223C14.2612 10.8787 14.1213 11.3982 14.1211 11.9274V21.3679L16.7233 19.8958L16.736 11.7498Z" fill="#2B088F"/>
        <path d="M28.6484 13.2591C28.6731 13.2732 28.6936 13.2936 28.7078 13.3184C28.722 13.3431 28.7294 13.3713 28.7292 13.3999C28.7291 13.4283 28.7216 13.4561 28.7074 13.4806C28.6932 13.505 28.6729 13.5253 28.6484 13.5392L24.5163 15.8753L27.1121 17.3409L32.1582 14.4879C32.3511 14.3812 32.5118 14.2237 32.6233 14.0321C32.7349 13.8406 32.793 13.6222 32.7917 13.3999C32.7933 13.1774 32.7353 12.9586 32.6237 12.7668C32.5122 12.5749 32.3513 12.4172 32.1582 12.3103L25.6312 8.62049C25.2387 8.39832 24.8009 8.27025 24.3516 8.24609V10.8302L28.6484 13.2591Z" fill="#4311D2"/>
        <path d="M9.75391 22.4751V23.8528L13.8164 21.5566V11.937C13.8162 11.3503 13.9708 10.7743 14.2642 10.2681C14.5576 9.76184 14.9792 9.34375 15.4857 9.05684L22.0395 5.35268C22.2071 5.25783 22.3908 5.19544 22.5812 5.16868L19.0271 3.15898C18.9916 3.13841 18.9552 3.1197 18.9178 3.10296C18.743 3.02423 18.5522 2.98812 18.361 2.99757C18.1698 3.00702 17.9835 3.06182 17.8171 3.15742L11.2632 6.86158C10.8059 7.12023 10.425 7.49727 10.1597 7.95397C9.8944 8.41068 9.75436 8.93053 9.75391 9.46006V22.4719V22.4751Z" fill="#4311D2"/>
        <path d="M21.1979 14.3643L17.0547 12.0234V16.6029L25.6073 21.4383C26.1137 21.7252 26.5354 22.1433 26.8288 22.6495C27.1222 23.1557 27.2768 23.7318 27.2766 24.3184V31.6291C27.2764 31.8443 27.2328 32.0572 27.1483 32.2548L30.7214 30.2339C30.9098 30.1254 31.0661 29.9681 31.1744 29.7783C31.2827 29.5884 31.3389 29.3729 31.3374 29.1539V21.8431C31.3375 21.3141 31.198 20.7945 30.9333 20.338C30.6686 19.8816 30.2882 19.5047 29.8313 19.2462L27.039 17.6685L21.1979 14.3643Z" fill="#4311D2"/>
        <path d="M24.2696 23.9867C24.2751 23.9906 24.2804 23.9949 24.2853 23.9995C24.2949 24.0057 24.3034 24.0132 24.3107 24.0219L24.3265 24.046C24.3325 24.0543 24.3373 24.0635 24.3408 24.0731C24.3415 24.0843 24.3415 24.0956 24.3408 24.1067C24.3415 24.1131 24.3415 24.1196 24.3408 24.126V29.0766C24.3406 29.1045 24.3332 29.1319 24.3194 29.156C24.3055 29.1802 24.2855 29.2002 24.2616 29.2142C24.2379 29.2293 24.2104 29.2371 24.1824 29.2366C24.1552 29.2365 24.1285 29.2293 24.1048 29.2157L19.8032 26.7852L17.2089 28.2509L25.1042 32.7151C25.2917 32.8228 25.504 32.8784 25.7196 32.8761C25.9353 32.8739 26.1465 32.8139 26.3317 32.7023C26.5187 32.5934 26.6738 32.4364 26.7811 32.2473C26.8885 32.0581 26.9444 31.8435 26.943 31.6255V24.3147C26.9428 23.7856 26.8029 23.266 26.5379 22.8096C26.2729 22.3531 25.8923 21.9763 25.4352 21.7178L17.041 16.9688V19.9065L24.2696 23.9867Z" fill="#2B088F"/>
        <path d="M4.25022 9.73429C4.06719 9.62975 3.86012 9.57594 3.64987 9.57819C3.43963 9.58044 3.23373 9.63867 3.05293 9.74711C2.8714 9.85355 2.72089 10.0065 2.61661 10.1906C2.51232 10.3746 2.45796 10.5832 2.459 10.7952V18.1556C2.45949 18.6347 2.57409 19.1066 2.79316 19.5316L5.06115 18.2515V13.3953C5.06088 13.3673 5.06795 13.3397 5.08157 13.3152C5.09519 13.2908 5.11492 13.2704 5.1388 13.2561C5.16287 13.2421 5.19018 13.2347 5.21799 13.2347C5.24579 13.2347 5.2731 13.2421 5.29718 13.2561L9.43883 15.5986V12.6657L4.25022 9.73429Z" fill="#2B088F"/>
        <path d="M9.81333 7.93087L8.62709 7.26045C8.44256 7.15466 8.2334 7.10055 8.02125 7.10364C7.80911 7.10674 7.60164 7.1669 7.42021 7.27802L3.88672 9.27492C4.06932 9.30186 4.2454 9.36263 4.40617 9.45414L9.44112 12.299V9.46211C9.44073 8.92878 9.56847 8.40335 9.81333 7.93087Z" fill="#4311D2"/>
        <path d="M32.3234 14.766L27.4453 17.5229L29.9888 18.963C30.4459 19.222 30.8345 19.5887 31.1213 20.0318L32.1682 19.4398C32.3611 19.333 32.5218 19.1755 32.6334 18.984C32.7449 18.7924 32.8031 18.574 32.8017 18.3518V14.3516C32.6714 14.5207 32.5087 14.6616 32.3234 14.766Z" fill="#2B088F"/>
        <path d="M14.1348 35.7517C14.1337 35.9693 14.1895 36.1834 14.2966 36.3722C14.4036 36.561 14.5582 36.7179 14.7446 36.827C14.9301 36.9385 15.1415 36.9985 15.3574 37.0007C15.5732 37.003 15.7858 36.9474 15.9736 36.8398L19.7367 34.7116L22.5274 33.1355C22.9334 32.9053 23.2796 32.5813 23.5379 32.1899L21.2746 30.9099L16.973 33.3419H16.9619C16.9619 33.3419 16.954 33.3419 16.9492 33.3419C16.9323 33.3496 16.9139 33.3535 16.8954 33.3532C16.8763 33.3534 16.8575 33.3495 16.8399 33.3419H16.8273C16.7974 33.3286 16.7729 33.3055 16.7576 33.2764C16.7576 33.2764 16.7576 33.2763 16.7576 33.2683C16.7535 33.2585 16.7503 33.2484 16.7481 33.238C16.7466 33.2279 16.7466 33.2176 16.7481 33.2076C16.7481 33.2076 16.7481 33.2076 16.7481 33.198V28.5273L14.1459 29.9978L14.1348 35.7517Z" fill="#2B088F"/>
        <path d="M1.63322 22.7397L8.1601 26.4295C8.60046 26.6759 9.09558 26.8051 9.59898 26.8051C10.1024 26.8051 10.5975 26.6759 11.0379 26.4295L19.4939 21.6468L16.8996 20.1796L9.68212 24.2598C9.67481 24.2643 9.66678 24.2676 9.65837 24.2694H9.64569C9.63201 24.2709 9.61823 24.2709 9.60455 24.2694C9.5914 24.2709 9.57811 24.2709 9.56495 24.2694H9.5491C9.54183 24.2671 9.53492 24.2639 9.52853 24.2598L5.15248 21.7844C5.12802 21.7705 5.10759 21.7503 5.0934 21.7259C5.0792 21.7014 5.07171 21.6736 5.07167 21.6453C5.07171 21.6169 5.0792 21.589 5.0934 21.5646C5.10759 21.5401 5.12802 21.5199 5.15248 21.506L9.44934 19.0771V16.1426L5.30924 18.4835L1.64745 20.5524C1.45452 20.6596 1.29387 20.8173 1.18236 21.0091C1.07085 21.2009 1.01263 21.4196 1.01392 21.6421C1.00945 21.8645 1.06467 22.0839 1.1737 22.2772C1.28273 22.4704 1.44153 22.6302 1.63322 22.7397Z" fill="#4311D2"/>
        <path d="M16.8163 28.1127L23.869 24.1253L19.8144 21.834L11.1906 26.7078C10.7037 26.9826 10.1551 27.1264 9.59732 27.1255C9.03961 27.1262 8.49102 26.9824 8.004 26.7078L1.47712 23.018C1.29209 22.9139 1.13034 22.7723 1.00197 22.6021V26.6023C1.00068 26.8247 1.05882 27.0433 1.17033 27.2351C1.28184 27.4269 1.44258 27.5847 1.6355 27.6918L8.16238 31.3816C8.60274 31.628 9.09787 31.7573 9.60126 31.7573C10.1047 31.7573 10.5998 31.628 11.0402 31.3816L16.8179 28.1143L16.8163 28.1127Z" fill="#2B088F"/>
        <path d="M13.8164 30.1719L11.1888 31.6567C10.7487 31.9049 10.2574 32.0463 9.75391 32.0695V33.2728C9.75412 33.4949 9.81292 33.7129 9.92427 33.9045C10.0356 34.096 10.1955 34.2541 10.3874 34.3625L13.9463 36.3737C13.8619 36.1767 13.8183 35.9644 13.818 35.7497L13.8164 30.1719Z" fill="#4311D2"/>
    </g>
    <defs>
        <clipPath id="clip0_1306_2372">
            <rect width="32" height="34" fill="white" transform="translate(1 3)"/>
        </clipPath>
    </defs>
</svg>
