<svg width="100" height="32" viewBox="0 0 100 32" fill="none" xmlns="http://www.w3.org/2000/svg">
<path d="M39.8884 18.8991C37.9226 18.8991 36.3694 18.3653 36.0458 16.7417H47.0174C47.0174 12.1257 43.9292 10.7891 40.0664 10.7891C35.9426 10.7891 33.0283 12.3083 33.0283 16.0513C33.0283 19.7942 36.0296 21.2975 39.8924 21.2975C43.6541 21.2975 46.162 20.0732 46.8435 17.4843H43.909C43.1667 18.5198 41.9229 18.8991 39.8884 18.8991ZM40.0441 13.0328C41.9068 13.0328 43.3568 13.4342 43.8564 14.8612H36.1469C36.6121 13.4302 38.0257 13.0328 40.0441 13.0328Z" fill="white"/>
<path d="M57.9741 10.9609L54.0061 19.348L49.6599 10.9609H46.3835L51.6419 21.1241H53.1587L51.1079 25.4391H54.3681L61.2443 10.9609H57.9741Z" fill="white"/>
<path d="M81.2037 10.9609L77.8748 18.788L74.7703 10.9609H71.2473L68.1469 18.8161L64.818 10.965H61.5234L66.0941 21.1282H70.0338L73.0169 14.0537L76.002 21.1282H79.9336L84.5043 10.965L81.2037 10.9609Z" fill="white"/>
<path d="M91.6933 10.7891C89.5743 10.8065 87.4718 11.1616 85.4662 11.8407L86.5179 13.9982C88.1498 13.5 89.8484 13.2503 91.5558 13.2576C92.9351 13.2576 95.4186 13.4122 95.4186 15.3448C93.9105 14.8536 92.332 14.6089 90.7448 14.6203C87.5089 14.6203 84.6208 15.4492 84.6208 18.0883C84.6208 20.3843 86.3986 21.2995 89.2441 21.2995C91.3873 21.3132 93.5032 20.8228 95.4186 19.8685V21.1269H98.3855V16.0071C98.3511 12.1518 95.9363 10.7891 91.6933 10.7891ZM95.4186 17.9679C93.9018 18.6242 91.6933 19.1239 90.0895 19.1239C88.5545 19.1239 87.5716 19.0376 87.5716 17.9679C87.5716 16.9323 88.8983 16.5631 91.1068 16.5631C92.5679 16.5446 94.0229 16.7539 95.4186 17.1832V17.9679Z" fill="white"/>
<path d="M13.497 9.39986C13.4957 9.38881 13.4957 9.3776 13.497 9.36655V9.3563L13.5047 9.33586L13.5136 9.32561C13.5171 9.32026 13.5209 9.31512 13.525 9.31023L13.5366 9.30129C13.5409 9.29708 13.5456 9.29318 13.5506 9.28973L17.0823 7.30951C17.1017 7.29828 17.1237 7.29239 17.1461 7.29239C17.1685 7.29239 17.1906 7.29828 17.21 7.30951C17.2293 7.32068 17.2454 7.3367 17.2566 7.35602C17.2678 7.37533 17.2737 7.39724 17.2738 7.41958V11.302L19.3724 12.4784V5.37661C19.3738 5.19668 19.326 5.0198 19.2341 4.86521C19.1422 4.71062 19.0098 4.58422 18.8513 4.49976C18.7041 4.41794 18.5386 4.375 18.3704 4.375C18.2021 4.375 18.0367 4.41794 17.8895 4.49976L12.6041 7.4644C12.2355 7.67117 11.9286 7.97266 11.7149 8.33781C11.5012 8.70297 11.3884 9.11859 11.3882 9.54193V17.0943L13.4868 15.9166L13.497 9.39986Z" fill="#2B088F"/>
<path d="M23.1036 10.6061C23.1236 10.6174 23.1401 10.6337 23.1515 10.6535C23.163 10.6733 23.1689 10.6959 23.1687 10.7188C23.1687 10.7415 23.1627 10.7637 23.1512 10.7833C23.1398 10.8028 23.1234 10.819 23.1036 10.8302L19.7713 12.6991L21.8647 13.8715L25.9341 11.5892C26.0897 11.5038 26.2193 11.3778 26.3092 11.2245C26.3992 11.0713 26.4461 10.8966 26.445 10.7188C26.4463 10.5408 26.3995 10.3657 26.3095 10.2122C26.2196 10.0588 26.0898 9.93257 25.9341 9.84704L20.6704 6.89522C20.3538 6.71749 20.0008 6.61503 19.6384 6.5957V8.66299L23.1036 10.6061Z" fill="#4311D2"/>
<path d="M7.86621 17.9797V19.0818L11.1424 17.2449V9.54919C11.1423 9.07989 11.2669 8.61904 11.5036 8.21406C11.7402 7.80908 12.0802 7.47461 12.4886 7.24508L17.7739 4.28175C17.9091 4.20587 18.0573 4.15596 18.2108 4.13456L15.3446 2.52679C15.316 2.51034 15.2866 2.49537 15.2565 2.48198C15.1154 2.41899 14.9616 2.3901 14.8074 2.39766C14.6532 2.40522 14.503 2.44906 14.3688 2.52554L9.08342 5.48887C8.71457 5.6958 8.40738 5.99742 8.19345 6.36279C7.97951 6.72815 7.86658 7.14403 7.86621 7.56766V17.9771V17.9797Z" fill="#4311D2"/>
<path d="M17.0952 11.4919L13.7539 9.61914V13.2827L20.6511 17.151C21.0596 17.3805 21.3996 17.715 21.6362 18.12C21.8728 18.525 21.9975 18.9858 21.9974 19.4551V25.3037C21.9973 25.4758 21.962 25.6462 21.8939 25.8042L24.7754 24.1875C24.9274 24.1007 25.0535 23.9749 25.1408 23.823C25.2281 23.6711 25.2735 23.4987 25.2723 23.3235V17.4749C25.2723 17.0516 25.1598 16.636 24.9463 16.2708C24.7328 15.9057 24.4261 15.6042 24.0576 15.3973L21.8058 14.1352L17.0952 11.4919Z" fill="#4311D2"/>
<path d="M19.5724 19.1886C19.5769 19.1917 19.5811 19.1951 19.5851 19.1989C19.5928 19.2038 19.5997 19.2098 19.6056 19.2167L19.6183 19.236C19.6232 19.2427 19.627 19.25 19.6298 19.2577C19.6304 19.2667 19.6304 19.2757 19.6298 19.2846C19.6304 19.2897 19.6304 19.2949 19.6298 19.3V23.2605C19.6297 23.2828 19.6238 23.3047 19.6125 23.3241C19.6013 23.3434 19.5853 23.3594 19.566 23.3706C19.5469 23.3827 19.5247 23.3889 19.5021 23.3885C19.4802 23.3884 19.4586 23.3826 19.4395 23.3718L15.9705 21.4274L13.8783 22.6L20.2455 26.1713C20.3967 26.2575 20.5679 26.3019 20.7418 26.3001C20.9157 26.2983 21.086 26.2503 21.2354 26.1611C21.3862 26.0739 21.5113 25.9484 21.5979 25.797C21.6845 25.6457 21.7295 25.474 21.7284 25.2996V19.451C21.7282 19.0277 21.6154 18.612 21.4017 18.2469C21.188 17.8817 20.881 17.5802 20.5124 17.3735L13.7429 13.5742V15.9245L19.5724 19.1886Z" fill="#2B088F"/>
<path d="M3.4277 7.78704C3.2801 7.70341 3.1131 7.66037 2.94355 7.66216C2.774 7.66396 2.60795 7.71055 2.46214 7.79729C2.31575 7.88245 2.19437 8.00485 2.11027 8.15206C2.02617 8.29928 1.98232 8.46614 1.98317 8.63577V14.524C1.98356 14.9074 2.07598 15.2849 2.25265 15.6249L4.08168 14.6008V10.7159C4.08146 10.6934 4.08716 10.6714 4.09814 10.6518C4.10913 10.6323 4.12504 10.6159 4.14429 10.6045C4.16371 10.5933 4.18573 10.5874 4.20816 10.5874C4.23058 10.5874 4.2526 10.5933 4.27202 10.6045L7.61206 12.4785V10.1322L3.4277 7.78704Z" fill="#2B088F"/>
<path d="M7.91404 6.34352L6.9574 5.80718C6.80859 5.72256 6.63991 5.67927 6.46882 5.68174C6.29774 5.68422 6.13043 5.73235 5.98411 5.82125L3.13452 7.41876C3.28178 7.44031 3.42378 7.48893 3.55344 7.56214L7.61387 9.83806V7.56852C7.61356 7.14186 7.71658 6.72151 7.91404 6.34352Z" fill="#4311D2"/>
<path d="M26.0673 11.812L22.1333 14.0175L24.1845 15.1696C24.5531 15.3768 24.8665 15.6702 25.0978 16.0247L25.9421 15.551C26.0977 15.4656 26.2273 15.3396 26.3172 15.1864C26.4072 15.0332 26.4541 14.8584 26.453 14.6806V11.4805C26.3479 11.6158 26.2167 11.7285 26.0673 11.812Z" fill="#2B088F"/>
<path d="M11.3992 28.6017C11.3983 28.7758 11.4433 28.9471 11.5297 29.0981C11.616 29.2492 11.7406 29.3747 11.8909 29.462C12.0405 29.5512 12.211 29.5992 12.3851 29.601C12.5592 29.6028 12.7307 29.5583 12.8821 29.4722L15.9169 27.7697L18.1675 26.5088C18.4948 26.3246 18.7741 26.0654 18.9823 25.7523L17.1571 24.7283L13.688 26.6739H13.6791C13.6791 26.6739 13.6727 26.6739 13.6689 26.6739C13.6552 26.6801 13.6404 26.6832 13.6255 26.6829C13.6101 26.6831 13.5949 26.68 13.5808 26.6739H13.5705C13.5465 26.6633 13.5267 26.6448 13.5143 26.6215C13.5143 26.6215 13.5143 26.6215 13.5143 26.6151C13.511 26.6072 13.5085 26.5991 13.5067 26.5908C13.5055 26.5827 13.5055 26.5745 13.5067 26.5664C13.5067 26.5664 13.5067 26.5664 13.5067 26.5588V22.8223L11.4082 23.9986L11.3992 28.6017Z" fill="#2B088F"/>
<path d="M1.31726 18.1917L6.58087 21.1436C6.936 21.3407 7.3353 21.4441 7.74126 21.4441C8.14723 21.4441 8.54653 21.3407 8.90166 21.1436L15.721 17.3175L13.6289 16.1437L7.80831 19.4078C7.80241 19.4115 7.79594 19.4141 7.78916 19.4155H7.77893C7.7679 19.4168 7.75679 19.4168 7.74575 19.4155C7.73515 19.4167 7.72443 19.4167 7.71382 19.4155H7.70104C7.69518 19.4137 7.6896 19.4111 7.68445 19.4078L4.15538 17.4275C4.13565 17.4164 4.11917 17.4003 4.10773 17.3807C4.09628 17.3611 4.09024 17.3389 4.0902 17.3162C4.09024 17.2935 4.09628 17.2712 4.10773 17.2516C4.11917 17.2321 4.13565 17.2159 4.15538 17.2048L7.62059 15.2617V12.9141L4.28179 14.7868L1.32874 16.4419C1.17315 16.5277 1.04359 16.6539 0.953664 16.8073C0.863739 16.9607 0.816788 17.1357 0.81783 17.3136C0.814223 17.4916 0.858751 17.6671 0.946679 17.8217C1.03461 17.9763 1.16267 18.1042 1.31726 18.1917Z" fill="#4311D2"/>
<path d="M13.5616 22.4898L19.2493 19.2999L15.9795 17.4668L9.02479 21.3659C8.6321 21.5857 8.18964 21.7008 7.73985 21.7C7.29008 21.7006 6.84767 21.5855 6.45492 21.3659L1.1913 18.414C1.04209 18.3307 0.911643 18.2174 0.808122 18.0813V21.2814C0.80708 21.4594 0.853969 21.6343 0.943894 21.7877C1.03382 21.9411 1.16345 22.0673 1.31903 22.1531L6.58264 25.1049C6.93777 25.302 7.33707 25.4055 7.74303 25.4055C8.149 25.4055 8.5483 25.302 8.90343 25.1049L13.5629 22.491L13.5616 22.4898Z" fill="#2B088F"/>
<path d="M11.1424 24.1367L9.02342 25.3246C8.66848 25.5232 8.27229 25.6362 7.86621 25.6549V26.6175C7.86638 26.7952 7.9138 26.9696 8.0036 27.1228C8.0934 27.276 8.22234 27.4025 8.37712 27.4892L11.2472 29.0982C11.1791 28.9406 11.1439 28.7707 11.1437 28.599L11.1424 24.1367Z" fill="#4311D2"/>
</svg>
