<svg width="160" height="72" viewBox="0 0 160 72" fill="none"
    xmlns="http://www.w3.org/2000/svg">
    <path d="M95.9609 36.0551C95.8984 33.1697 95.0589 30.3542 93.5307 27.9041C92.0024 25.454 89.8416 23.4595 87.275 22.13C84.7083 20.8005 81.8305 20.185 78.9434 20.3479C76.0564 20.5109 73.2664 21.4464 70.8664 23.0562C68.4663 24.6661 66.5446 26.8909 65.3028 29.4974C64.0611 32.1039 63.5451 34.9959 63.8089 37.87C64.0728 40.7441 65.1068 43.4943 66.8025 45.8321C68.4982 48.17 70.793 50.0092 73.4462 51.1569C74.2299 49.9813 74.8297 48.6934 75.2251 47.3376C75.5481 46.5174 75.8989 45.7106 76.2625 44.9302C77.1397 45.1924 78.0718 45.212 78.9593 44.9869C79.8468 44.7617 80.6564 44.3003 81.3017 43.6518L81.3557 43.5979C80.5632 43.3037 79.709 43.2146 78.8727 43.3388C78.0364 43.463 77.2451 43.7964 76.5727 44.308C77.0175 43.3798 77.5027 42.4794 78.0008 41.6051C78.8619 41.9091 79.7897 41.9734 80.6846 41.791C81.5795 41.6085 82.4078 41.1864 83.0805 40.5697L83.1346 40.5157C82.369 40.1925 81.535 40.0638 80.7073 40.1413C79.8797 40.2187 79.0842 40.4999 78.3922 40.9596C78.8902 40.1393 79.4025 39.3326 79.9419 38.5791C80.833 38.8127 81.7712 38.7983 82.6548 38.5376C83.5383 38.2768 84.3335 37.7796 84.954 37.0998L84.9946 37.0458C84.2586 36.8063 83.4767 36.7424 82.7115 36.8592C81.9463 36.976 81.2193 37.2703 80.5887 37.7184C80.6292 37.6644 80.6833 37.5976 80.7232 37.5437C81.0462 37.1268 81.3835 36.7099 81.7193 36.3066C82.7448 35.9716 83.6593 35.3638 84.3645 34.5487C85.0696 33.7336 85.5386 32.7419 85.721 31.6805L85.7346 31.5995H85.721C84.6532 31.8767 83.6846 32.4469 82.9248 33.2454C82.1651 34.044 81.6447 35.039 81.4226 36.1176C81.0996 36.5075 80.7758 36.8988 80.4663 37.3008C80.7276 36.619 80.8342 35.8878 80.7783 35.16C80.7225 34.4321 80.5056 33.7257 80.1433 33.0916L80.1027 33.1456C79.553 33.8949 79.2218 34.7815 79.1457 35.7072C79.0696 36.6328 79.2515 37.5614 79.6715 38.3902C79.1592 39.1167 78.6611 39.856 78.1894 40.6358C78.3413 39.8519 78.3019 39.043 78.0743 38.2776C77.8468 37.5122 77.4379 36.8127 76.8823 36.2384L76.8552 36.3058C76.5115 37.1606 76.4102 38.0933 76.5623 39.0017C76.7144 39.9101 77.1141 40.7592 77.7176 41.456C77.2459 42.2762 76.8011 43.1235 76.37 43.9977C76.5009 43.1812 76.4348 42.3453 76.177 41.5595C75.9192 40.7737 75.4773 40.0606 74.8878 39.4796L74.8608 39.5471C74.5534 40.443 74.4963 41.4057 74.6958 42.3316C74.8952 43.2575 75.3436 44.1116 75.9928 44.8023C75.7082 45.4074 75.4407 46.0096 75.1845 46.6445C75.1141 46.58 75.0316 46.5298 74.9419 46.4968C74.4822 46.3635 74.0425 46.169 73.6348 45.9187C73.2977 45.7191 72.9398 45.5567 72.5675 45.4344C71.1124 44.9635 71.328 44.2647 70.5752 42.8522C70.3302 42.5614 70.0699 42.2838 69.7953 42.0206C69.5406 41.8557 69.332 41.6289 69.1891 41.3615C69.0231 41.0277 68.918 40.6669 68.8788 40.2963C68.8744 40.0913 68.8057 39.8928 68.6824 39.7287C68.5591 39.5647 68.3874 39.4433 68.1915 39.3816C66.049 38.6423 67.0061 35.8719 67.0865 35.5083C67.0535 35.0381 66.9489 34.5757 66.7762 34.137C66.7582 34.0799 66.7446 34.0215 66.7357 33.9623C66.6785 33.6752 66.6889 33.3789 66.7661 33.0965C66.8433 32.8142 66.9851 32.5536 67.1804 32.3353C67.4365 32.0796 68.326 31.6627 68.5145 31.4206C68.7031 31.1784 68.8376 30.9093 69.0268 30.6813C69.6255 30.0853 70.3171 29.5903 71.0747 29.2155C71.6944 28.8796 71.8026 28.0189 72.0445 27.7497C72.4486 27.2924 73.0684 27.2924 73.5266 26.889C73.7557 26.6873 74.0959 26.5793 74.3093 26.3649C75.3855 25.3812 76.7419 24.7562 78.1901 24.5767C79.1943 24.4949 80.2052 24.586 81.1786 24.8458C81.3195 24.8694 81.4589 24.901 81.5962 24.9403C83.8191 25.0212 86.4874 25.4779 87.4572 26.4196C87.9373 26.88 88.294 27.4533 88.4946 28.087C88.6522 28.5778 88.8694 29.0474 89.1414 29.4854L89.7341 30.4533C90.1118 31.0637 90.2328 31.7983 90.0707 32.4972C89.9615 32.8371 89.9521 33.2011 90.0437 33.5461C90.3563 34.0171 90.7226 34.4504 91.1352 34.8372C91.2991 34.9991 91.4796 35.1434 91.6738 35.2676C92.1299 35.5392 92.5708 35.8355 92.9944 36.1553C93.0083 36.2849 92.9868 36.4158 92.9322 36.5342C92.8776 36.6526 92.7919 36.7541 92.6842 36.8278C92.3071 37.1637 91.5792 37.6885 91.5792 37.6885C91.6055 37.8371 91.6507 37.9817 91.7137 38.1189C91.8211 38.3071 92.0637 38.6032 91.9833 38.8582C91.9029 39.1131 91.3771 39.329 91.5251 39.611C91.6731 39.9071 92.0502 39.9874 91.9428 40.2565C91.8353 40.5122 91.3095 40.9667 91.3636 41.1577C91.4177 41.3488 91.8488 43.1462 90.8513 43.4573C89.6167 43.7009 88.3637 43.8404 87.1057 43.8741C86.9028 43.8858 86.7061 43.9487 86.5341 44.0569C86.3621 44.165 86.2205 44.315 86.1224 44.4927C85.9314 44.8481 85.8081 45.2358 85.7588 45.6361C85.3948 47.0675 84.9126 48.4663 84.3172 49.8183C84.3172 49.8183 84.2766 49.8992 84.2225 50.0199C84.0919 50.2857 84.0097 50.5726 83.9799 50.8672C84.0647 51.0836 84.193 51.2803 84.357 51.4453C84.4434 51.544 84.5566 51.6155 84.6828 51.6513C84.8091 51.6871 84.9431 51.6856 85.0686 51.6469C88.2978 50.5237 91.0893 48.4117 93.0452 45.612C95.001 42.8123 96.0214 39.4677 95.9609 36.0551Z" fill="white"/>
    <defs>
        <filter id="filter0_b_4614_2857" x="-4" y="-4" width="168" height="80.001" filterUnits="userSpaceOnUse" color-interpolation-filters="sRGB">
            <feFlood flood-opacity="0" result="BackgroundImageFix"/>
            <feGaussianBlur in="BackgroundImage" stdDeviation="2"/>
            <feComposite in2="SourceAlpha" operator="in" result="effect1_backgroundBlur_4614_2857"/>
            <feBlend mode="normal" in="SourceGraphic" in2="effect1_backgroundBlur_4614_2857" result="shape"/>
        </filter>
        <linearGradient id="paint0_linear_4614_2857" x1="80" y1="0" x2="80" y2="72.771" gradientUnits="userSpaceOnUse">
            <stop stop-color="#101011"/>
            <stop offset="0.623266" stop-color="#101011" stop-opacity="0.267357"/>
            <stop offset="1" stop-color="#101011" stop-opacity="0"/>
        </linearGradient>
        <linearGradient id="paint1_linear_4614_2857" x1="80" y1="0" x2="80" y2="72.0013" gradientUnits="userSpaceOnUse">
            <stop stop-color="#632BFF"/>
            <stop offset="1" stop-opacity="0"/>
        </linearGradient>
    </defs>
</svg>
