<svg width="160" height="72" viewBox="0 0 160 72" fill="none"
    xmlns="http://www.w3.org/2000/svg">
    <path fill-rule="evenodd" clip-rule="evenodd" d="M79.9999 20.3223C71.3417 20.3223 64.3225 27.3414 64.3225 35.9997C64.3225 44.658 71.3417 51.6771 79.9999 51.6771C88.6582 51.6771 95.6773 44.658 95.6773 35.9997C95.6773 27.3414 88.6582 20.3223 79.9999 20.3223ZM78.6659 40.439L78.6558 40.4576C78.3083 41.0662 78.132 41.3747 77.8879 41.6069C77.6218 41.8612 77.3031 42.0459 76.9523 42.1493C76.6319 42.2374 76.2743 42.2374 75.5573 42.2374H72.5147C71.8756 42.2374 71.5586 42.2374 71.3671 42.1137C71.1586 41.9781 71.0315 41.7561 71.0162 41.5086C71.0044 41.2815 71.162 41.0034 71.4789 40.4492L78.9914 27.2092C79.3118 26.6465 79.4728 26.3651 79.6762 26.2617C79.8948 26.1498 80.1576 26.1498 80.3779 26.2617C80.5814 26.3651 80.7441 26.6465 81.0628 27.2092L82.6069 29.9044L82.6154 29.9179C82.9612 30.5213 83.1358 30.8264 83.212 31.1485C83.2968 31.4994 83.2968 31.8689 83.212 32.2197C83.1358 32.5435 82.9612 32.852 82.6103 33.4639L78.6643 40.439H78.6659ZM88.7599 42.1103C88.5667 42.2374 88.2446 42.2374 87.6005 42.2374H83.2409C82.5984 42.2374 82.2747 42.2374 82.0848 42.1137C81.8763 41.9781 81.7492 41.751 81.734 41.5052C81.7221 41.2797 81.8815 41.0052 82.2001 40.4542L82.2069 40.4407L84.3833 36.7049C84.7037 36.1539 84.8647 35.881 85.0647 35.776C85.285 35.664 85.5427 35.664 85.7614 35.776C85.9597 35.8776 86.1156 36.1387 86.4224 36.6591L86.4478 36.7015L88.6311 40.4373C88.6412 40.456 88.6531 40.4729 88.6633 40.4915C88.9667 41.0136 89.121 41.2797 89.1091 41.5001C89.0972 41.7459 88.9667 41.973 88.7582 42.1086L88.7599 42.1103Z" fill="white"/>
    <defs>
        <filter id="filter0_b_4614_2852" x="-4" y="-4" width="168" height="80.001" filterUnits="userSpaceOnUse" color-interpolation-filters="sRGB">
            <feFlood flood-opacity="0" result="BackgroundImageFix"/>
            <feGaussianBlur in="BackgroundImage" stdDeviation="2"/>
            <feComposite in2="SourceAlpha" operator="in" result="effect1_backgroundBlur_4614_2852"/>
            <feBlend mode="normal" in="SourceGraphic" in2="effect1_backgroundBlur_4614_2852" result="shape"/>
        </filter>
        <linearGradient id="paint0_linear_4614_2852" x1="80" y1="0" x2="80" y2="72.771" gradientUnits="userSpaceOnUse">
            <stop stop-color="#101011"/>
            <stop offset="0.623266" stop-color="#101011" stop-opacity="0.267357"/>
            <stop offset="1" stop-color="#101011" stop-opacity="0"/>
        </linearGradient>
        <linearGradient id="paint1_linear_4614_2852" x1="80" y1="0" x2="80" y2="72.0013" gradientUnits="userSpaceOnUse">
            <stop stop-color="#632BFF"/>
            <stop offset="1" stop-opacity="0"/>
        </linearGradient>
    </defs>
</svg>
