<svg width="160" height="72" viewBox="0 0 160 72" fill="none"
    xmlns="http://www.w3.org/2000/svg">
    <path d="M71.6508 38.6544C71.6508 38.6544 71.3651 39.2066 70.7177 39.7398C70.1655 40.1587 69.6895 40.3301 69.2896 40.5395C71.1938 41.9105 74.3927 40.7871 74.3927 40.7871C74.4689 40.768 74.9069 41.0917 74.983 41.1489C76.4302 41.8724 77.1157 42.1771 78.9056 42.4246C81.0763 42.7103 85.5511 42.8245 81.0763 40.0825C80.1814 39.5303 78.0868 38.3688 78.0868 38.3688C78.0868 38.3688 75.8589 37.1501 74.7736 36.3885C74.7926 35.4364 74.6974 33.9512 74.1262 32.8087C74.069 32.9229 73.5549 34.0844 72.9837 34.9984C72.8123 34.8461 72.6409 34.6938 72.4695 34.5414C70.0513 32.2565 68.9278 29.4764 69.1944 26.1441C69.1944 26.0299 69.3086 25.0968 69.2325 25.1349C69.0421 25.0968 68.3566 27.6294 68.2994 27.8579C68.2804 27.9721 68.09 28.9432 68.0138 28.9432C67.7663 28.9813 66.7571 28.7719 66.7571 28.848C66.8904 29.1146 67.9948 29.8953 67.9948 29.9143C68.0138 30.5237 67.9186 31.7995 68.547 33.6846C69.5943 36.8074 71.6508 38.6544 71.6508 38.6544Z" fill="white"/>
    <path d="M88.5201 42.4443C87.8727 42.273 86.5589 44.1771 85.4545 46.3288C83.9883 46.5002 83.1885 46.7668 82.1793 47.3761C82.0651 47.4523 83.7217 47.4332 84.8832 47.9283C83.0933 50.6512 80.3513 52.2126 77.1714 52.3459C81.0749 53.298 84.7118 52.1174 87.3777 49.0898C88.0631 49.5849 88.5773 50.6322 88.8629 51.5081C88.901 51.6414 89.6817 49.3945 88.4249 47.4713C88.4249 47.4713 88.7486 46.862 88.8248 46.7287C89.377 45.6243 89.5293 42.73 88.5201 42.4443Z" fill="white"/>
    <path d="M70.8516 25.0209C70.1661 26.7346 70.4137 29.0005 71.1944 29.1719C71.9179 29.3052 72.7939 28.296 73.2128 27.6296C73.8602 26.7346 74.241 25.4398 74.241 25.4398C74.241 25.4398 77.2686 25.5921 78.7539 24.145C78.6015 24.1069 76.3737 24.0688 75.0217 23.3643C76.8307 20.6223 79.4203 19.2894 82.6955 19.2132C80.6961 18.3944 75.9928 18.4706 72.6225 22.2027C71.2705 21.2316 70.5279 19.3655 70.5089 19.4798C70.0709 21.9361 71.4038 23.9355 71.4038 23.9355C71.4038 23.9355 71.023 24.602 70.8516 25.0209Z" fill="white"/>
    <path d="M79.4192 21.8612C79.4192 22.5277 81.1139 23.1751 81.7232 23.3084C82.3135 23.4226 83.5512 23.5369 83.5512 23.5369C84.0082 24.984 85.1888 26.1075 85.303 26.1456C85.3221 26.0123 85.0745 24.3557 85.2649 23.7654C88.3687 24.527 90.1015 26.793 91.0726 29.4017C91.2249 28.7352 90.9774 23.3274 85.7981 21.5375C85.9314 21.1757 86.5407 20.4331 87.3405 19.9571C85.7981 19.7476 84.4652 20.6806 84.0272 21.0234C84.0272 21.0234 83.1894 20.871 82.2373 20.8139C81.152 20.7378 79.4192 21.0615 79.4192 21.8612Z" fill="white"/>
    <path d="M80.6954 49.1093C81.1714 47.9288 76.6776 47.8907 76.1825 47.8336C76.1635 47.7383 75.6494 45.8913 74.583 45.0344C74.564 45.1677 74.6211 46.8434 74.2974 47.4908C71.6126 46.7672 69.3085 44.2728 68.6802 42.083C67.8614 46.9386 73.631 49.8329 73.631 49.8329C73.1549 50.8612 72.0696 51.5467 71.9743 51.6609C72.1267 51.718 74.126 52.0227 75.7446 50.5565C75.7446 50.5755 80.1622 50.4422 80.6954 49.1093Z" fill="white"/>
    <path d="M91.8722 41.778C91.8722 41.778 91.8723 40.9973 91.8532 40.5403C91.7961 38.9789 91.3581 37.5317 90.6536 36.1417C90.1204 35.0754 89.4349 34.0852 88.6161 33.2284C88.5019 33.1141 88.2544 32.8856 88.2544 32.8856L87.6831 32.3905C88.7494 31.4004 89.6444 31.0767 90.3108 30.9434C90.3489 30.9434 90.3489 30.8862 90.3108 30.8672C87.9497 30.0103 85.2458 30.9624 85.2458 30.9624C85.2458 30.9624 82.9608 29.5914 79.1144 29.2487C78.0862 29.1535 77.6292 29.858 79.0383 31.6669C80.295 33.076 83.1131 34.0281 83.494 34.1995C83.8177 35.1515 84.3318 36.4654 85.1506 37.208C85.1696 37.2271 85.1887 37.208 85.1887 37.189C85.1696 36.732 85.1887 35.7228 85.322 35.0754C86.1788 35.5514 87.169 36.4464 87.8926 37.1509C90.3108 39.474 90.9773 42.1779 90.6346 45.5292C90.6346 45.6244 91.1106 44.8627 91.3772 43.9297C91.5295 43.3775 91.6628 42.673 91.6628 42.673C91.6628 42.673 92.3864 42.8062 93.2432 42.7491C92.215 42.1779 91.8722 41.778 91.8722 41.778Z" fill="white"/>
    <defs>
        <filter id="filter0_b_4614_2854" x="-4" y="-4" width="168" height="80.001" filterUnits="userSpaceOnUse" color-interpolation-filters="sRGB">
            <feFlood flood-opacity="0" result="BackgroundImageFix"/>
            <feGaussianBlur in="BackgroundImage" stdDeviation="2"/>
            <feComposite in2="SourceAlpha" operator="in" result="effect1_backgroundBlur_4614_2854"/>
            <feBlend mode="normal" in="SourceGraphic" in2="effect1_backgroundBlur_4614_2854" result="shape"/>
        </filter>
        <linearGradient id="paint0_linear_4614_2854" x1="80" y1="0" x2="80" y2="72.771" gradientUnits="userSpaceOnUse">
            <stop stop-color="#101011"/>
            <stop offset="0.623266" stop-color="#101011" stop-opacity="0.267357"/>
            <stop offset="1" stop-color="#101011" stop-opacity="0"/>
        </linearGradient>
        <linearGradient id="paint1_linear_4614_2854" x1="80" y1="0" x2="80" y2="72.0013" gradientUnits="userSpaceOnUse">
            <stop stop-color="#632BFF"/>
            <stop offset="1" stop-opacity="0"/>
        </linearGradient>
    </defs>
</svg>
