<svg width="62" height="40" viewBox="0 0 62 40" fill="none" xmlns="http://www.w3.org/2000/svg">
<path d="M2.60092 21.6664C2.42792 21.6664 2.28376 21.6378 2.16843 21.5805C2.05598 21.5232 1.99976 21.4394 1.99976 21.3291C1.99976 21.2564 2.02571 21.198 2.0776 21.1539C2.13239 21.1076 2.20303 21.0844 2.28953 21.0844C2.35872 21.0844 2.41351 21.0988 2.45387 21.1274C2.49424 21.1561 2.52163 21.187 2.53605 21.22C2.55334 21.2509 2.56199 21.2707 2.56199 21.2795C2.47838 21.3258 2.43657 21.3799 2.43657 21.4416C2.43657 21.4835 2.45387 21.5187 2.48847 21.5474C2.52307 21.5761 2.57064 21.5904 2.63119 21.5904C2.72346 21.5904 2.79554 21.543 2.84744 21.4482C2.90222 21.3512 2.92961 21.1847 2.92961 20.9489V19.0739L2.53172 19.0276V18.9548H3.78595V19.0276L3.38805 19.0739V20.9489C3.38805 21.1032 3.36787 21.2321 3.3275 21.3358C3.29002 21.4372 3.21362 21.5176 3.09828 21.5772C2.98295 21.6367 2.81716 21.6664 2.60092 21.6664Z" fill="white"/>
<path d="M5.77213 21.6664C5.45785 21.6664 5.17673 21.608 4.92877 21.4912C4.68081 21.3743 4.48763 21.2112 4.34923 21.0018C4.21083 20.7901 4.14164 20.5487 4.14164 20.2776C4.14164 20.0064 4.21083 19.7661 4.34923 19.5567C4.48763 19.345 4.68081 19.1808 4.92877 19.0639C5.17673 18.9471 5.45785 18.8887 5.77213 18.8887C6.08641 18.8887 6.36753 18.9471 6.61549 19.0639C6.86345 19.1808 7.05663 19.345 7.19503 19.5567C7.33342 19.7661 7.40262 20.0064 7.40262 20.2776C7.40262 20.5487 7.33342 20.7901 7.19503 21.0018C7.05663 21.2112 6.86345 21.3743 6.61549 21.4912C6.36753 21.608 6.08641 21.6664 5.77213 21.6664ZM5.77213 21.5904C5.97972 21.5904 6.1657 21.5485 6.33004 21.4647C6.49727 21.381 6.62846 21.2597 6.72361 21.101C6.81876 20.94 6.86633 20.7504 6.86633 20.5322V20.0229C6.86633 19.8047 6.81876 19.6162 6.72361 19.4575C6.62846 19.2965 6.49727 19.1742 6.33004 19.0904C6.1657 19.0066 5.97972 18.9647 5.77213 18.9647C5.56165 18.9647 5.37424 19.0066 5.20989 19.0904C5.04554 19.1742 4.9158 19.2965 4.82065 19.4575C4.7255 19.6162 4.67793 19.8047 4.67793 20.0229V20.5322C4.67793 20.7504 4.7255 20.94 4.82065 21.101C4.9158 21.2597 5.04554 21.381 5.20989 21.4647C5.37424 21.5485 5.56165 21.5904 5.77213 21.5904Z" fill="white"/>
<path d="M7.81048 21.6003V21.5309L8.20837 21.4813V19.0739L7.81048 19.0276V18.9548H9.08201V19.0276L8.68411 19.0739V20.1585H10.3276V19.0739L9.92536 19.0276V18.9548H11.2055V19.0276L10.8033 19.0739V21.4813L11.2055 21.5309V21.6003H9.92536V21.5309L10.3276 21.4813V20.2412H8.68411V21.4813L9.08201 21.5309V21.6003H7.81048Z" fill="white"/>
<path d="M11.5655 21.6003V21.5309L11.9677 21.3986V19.1565L11.5655 19.0276V18.9548H12.37L14.234 20.9522V19.1565L13.8318 19.0276V18.9548H14.753V19.0276L14.3421 19.1565V21.6003H14.234L12.0759 19.2822V21.3986L12.4911 21.5309V21.6003H11.5655Z" fill="white"/>
<path d="M16.8147 21.6003V21.5309L17.2126 21.4813V19.0375H16.499L16.1703 19.6922H16.0449V18.9548H18.8604V19.6922H18.7307L18.4063 19.0375H17.6883V21.4813L18.0862 21.5309V21.6003H16.8147Z" fill="white"/>
<path d="M19.138 21.6003V21.5309L19.5359 21.4813V19.0739L19.138 19.0276V18.9548H20.4096V19.0276L20.0117 19.0739V21.4813L20.4096 21.5309V21.6003H19.138Z" fill="white"/>
<path d="M20.7686 21.6003V21.5309L21.1708 21.3986V19.1565L20.7686 19.0276V18.9548H21.5731L23.4371 20.9522V19.1565L23.0349 19.0276V18.9548H23.9561V19.0276L23.5452 19.1565V21.6003H23.4371L21.279 19.2822V21.3986L21.6942 21.5309V21.6003H20.7686Z" fill="white"/>
<path d="M24.2781 21.6003V21.5309L24.676 21.4813V19.0739L24.2781 19.0276V18.9548H26.8817V19.7121H26.7649L26.4319 19.0375H25.1517V20.228H25.714L25.9691 19.7485H26.0816V20.7934H25.9691L25.7096 20.3073H25.1517V21.5209H26.5098L26.8644 20.7934H26.9768V21.6003H24.2781Z" fill="white"/>
<path d="M29.9079 21.6334C29.7464 21.6334 29.6253 21.6036 29.5446 21.5441C29.4638 21.4846 29.409 21.3832 29.3802 21.2399L29.298 20.7967C29.2692 20.6468 29.2014 20.53 29.0948 20.4462C28.991 20.3602 28.8281 20.3172 28.6061 20.3172H28.2687V21.4813L28.6666 21.5309V21.6003H27.3951V21.5309L27.793 21.4813V19.0739L27.3951 19.0276V18.9548H28.6061C29.076 18.9548 29.4163 19.011 29.6267 19.1235C29.8372 19.2359 29.9424 19.4067 29.9424 19.636C29.9424 20.0152 29.6426 20.2346 29.0429 20.2941V20.3139C29.2649 20.3382 29.4422 20.3988 29.5748 20.4958C29.7103 20.5928 29.7954 20.7218 29.83 20.8827L29.8862 21.1671C29.9093 21.2906 29.9352 21.3743 29.9641 21.4184C29.9958 21.4625 30.0434 21.4846 30.1068 21.4846C30.15 21.4846 30.1962 21.4747 30.2452 21.4548C30.2942 21.4328 30.3403 21.4052 30.3836 21.3721L30.4571 21.4317C30.3735 21.5044 30.287 21.5562 30.1976 21.5871C30.1082 21.6179 30.0117 21.6334 29.9079 21.6334ZM28.7531 20.2379C28.9636 20.2379 29.1265 20.1894 29.2418 20.0924C29.36 19.9932 29.4191 19.8477 29.4191 19.6559V19.5864C29.4191 19.2205 29.1481 19.0375 28.6061 19.0375H28.2687V20.2379H28.7531Z" fill="white"/>
<path d="M33.021 21.6664C32.5539 21.6664 32.205 21.5959 31.9744 21.4548C31.7466 21.3115 31.6327 21.1197 31.6327 20.8794C31.6327 20.6479 31.7423 20.4694 31.9614 20.3437C32.1834 20.2158 32.4732 20.1453 32.8307 20.1321V20.1221C32.4732 20.0869 32.2079 20.0218 32.0349 19.927C31.8648 19.83 31.7798 19.6768 31.7798 19.4674C31.7798 19.2822 31.8764 19.14 32.0695 19.0408C32.2656 18.9394 32.5381 18.8887 32.8869 18.8887C33.1205 18.8887 33.3151 18.9317 33.4708 19.0176C33.6294 19.1036 33.7087 19.2183 33.7087 19.3616C33.7087 19.4343 33.6813 19.4916 33.6265 19.5335C33.5746 19.5732 33.5141 19.593 33.4449 19.593C33.3728 19.593 33.3122 19.5765 33.2632 19.5434C33.2142 19.5104 33.1897 19.4619 33.1897 19.3979C33.3108 19.356 33.3713 19.2866 33.3713 19.1896C33.3713 19.1213 33.3324 19.0672 33.2546 19.0276C33.1767 18.9857 33.07 18.9647 32.9345 18.9647C32.7385 18.9647 32.5813 19.0088 32.4631 19.097C32.3478 19.1852 32.2901 19.3031 32.2901 19.4508C32.2901 19.6625 32.3708 19.819 32.5323 19.9204C32.6966 20.0196 32.936 20.0758 33.2502 20.0891V20.1618C32.91 20.1773 32.6534 20.2456 32.4804 20.3668C32.3103 20.4881 32.2252 20.659 32.2252 20.8794C32.2252 21.0271 32.2613 21.155 32.3333 21.263C32.4083 21.3688 32.5078 21.4504 32.6318 21.5077C32.7586 21.5628 32.8999 21.5904 33.0556 21.5904C33.2892 21.5904 33.4795 21.5364 33.6265 21.4284C33.7735 21.3181 33.8471 21.1605 33.8471 20.9555C33.8471 20.8739 33.8312 20.7868 33.7995 20.6942L33.6308 20.6744C33.5011 20.6545 33.3987 20.6446 33.3238 20.6446C33.1998 20.6446 33.096 20.659 33.0124 20.6876C32.9316 20.7163 32.8913 20.7626 32.8913 20.8265C32.8913 20.8574 32.9042 20.8805 32.9302 20.8959C32.9561 20.9114 32.9893 20.9191 33.0297 20.9191C33.0671 20.9191 33.1046 20.9114 33.1421 20.8959C33.1796 20.8805 33.207 20.8585 33.2243 20.8298C33.2935 20.843 33.3454 20.8662 33.38 20.8993C33.4175 20.9301 33.4362 20.9676 33.4362 21.0117C33.4362 21.0646 33.4103 21.1109 33.3584 21.1506C33.3093 21.1903 33.2474 21.2101 33.1724 21.2101C33.0628 21.2101 32.972 21.1737 32.8999 21.101C32.8278 21.0282 32.7918 20.9389 32.7918 20.8331C32.7918 20.7471 32.8192 20.6678 32.874 20.595C32.9287 20.5223 33.008 20.465 33.1118 20.4231C33.2185 20.379 33.3425 20.3569 33.4838 20.3569C33.6222 20.3569 33.7836 20.3679 33.9682 20.39C34.1123 20.4098 34.2334 20.4198 34.3315 20.4198C34.467 20.4198 34.5751 20.4043 34.6558 20.3735C34.7394 20.3404 34.7812 20.2952 34.7812 20.2379C34.7812 20.207 34.7683 20.1839 34.7423 20.1684C34.7193 20.1508 34.6875 20.142 34.6472 20.142C34.6068 20.142 34.5679 20.1497 34.5304 20.1651C34.4958 20.1806 34.4699 20.2037 34.4526 20.2346C34.3805 20.2213 34.3271 20.1993 34.2925 20.1684C34.2579 20.1354 34.2406 20.0968 34.2406 20.0527C34.2406 19.9998 34.2651 19.9535 34.3142 19.9138C34.3661 19.8741 34.4295 19.8543 34.5045 19.8543C34.614 19.8543 34.702 19.8873 34.7683 19.9535C34.8375 20.0174 34.8721 20.1001 34.8721 20.2015C34.8721 20.5476 34.6558 20.7207 34.2233 20.7207C34.0994 20.7207 33.997 20.7163 33.9163 20.7075C33.9393 20.7956 33.9509 20.8761 33.9509 20.9489C33.9509 21.1759 33.8673 21.3523 33.7 21.478C33.5328 21.6036 33.3065 21.6664 33.021 21.6664Z" fill="white"/>
<path d="M36.1589 21.5309L36.5568 21.4813V19.0739L36.1589 19.0276V18.9548H37.517C37.9437 18.9548 38.2608 19.0243 38.4684 19.1631C38.676 19.302 38.7798 19.5026 38.7798 19.765C38.7798 20.0273 38.676 20.228 38.4684 20.3668C38.2608 20.5057 37.9437 20.5752 37.517 20.5752H37.0326V21.4813L37.4305 21.5309V21.6003H36.1589V21.5309ZM37.4564 20.4958C37.9898 20.4958 38.2565 20.2743 38.2565 19.8311V19.6989C38.2565 19.2579 37.9898 19.0375 37.4564 19.0375H37.0326V20.4958H37.4564Z" fill="white"/>
<path d="M38.5172 21.6003V21.5309L38.9411 21.3986L40.191 18.8887H40.2602L41.4409 21.4813L41.8388 21.5309V21.6003H40.5672V21.5309L40.9219 21.4879L40.5543 20.7041H39.4038L39.0535 21.3986L39.4428 21.5309V21.6003H38.5172ZM39.4384 20.6347H40.524L40.005 19.4707L39.4384 20.6347Z" fill="white"/>
<path d="M44.4326 21.6334C44.2712 21.6334 44.1501 21.6036 44.0693 21.5441C43.9886 21.4846 43.9338 21.3832 43.905 21.2399L43.8228 20.7967C43.794 20.6468 43.7262 20.53 43.6196 20.4462C43.5158 20.3602 43.3529 20.3172 43.1308 20.3172H42.7935V21.4813L43.1914 21.5309V21.6003H41.9199V21.5309L42.3178 21.4813V19.0739L41.9199 19.0276V18.9548H43.1308C43.6008 18.9548 43.941 19.011 44.1515 19.1235C44.362 19.2359 44.4672 19.4067 44.4672 19.636C44.4672 20.0152 44.1674 20.2346 43.5677 20.2941V20.3139C43.7897 20.3382 43.967 20.3988 44.0996 20.4958C44.2351 20.5928 44.3202 20.7218 44.3548 20.8827L44.411 21.1671C44.4341 21.2906 44.46 21.3743 44.4889 21.4184C44.5206 21.4625 44.5681 21.4846 44.6316 21.4846C44.6748 21.4846 44.721 21.4747 44.77 21.4548C44.819 21.4328 44.8651 21.4052 44.9084 21.3721L44.9819 21.4317C44.8983 21.5044 44.8118 21.5562 44.7224 21.5871C44.633 21.6179 44.5364 21.6334 44.4326 21.6334ZM43.2779 20.2379C43.4884 20.2379 43.6513 20.1894 43.7666 20.0924C43.8848 19.9932 43.9439 19.8477 43.9439 19.6559V19.5864C43.9439 19.2205 43.6729 19.0375 43.1308 19.0375H42.7935V20.2379H43.2779Z" fill="white"/>
<path d="M45.7671 21.6003V21.5309L46.165 21.4813V19.0375H45.4514L45.1227 19.6922H44.9973V18.9548H47.8128V19.6922H47.6831L47.3587 19.0375H46.6408V21.4813L47.0387 21.5309V21.6003H45.7671Z" fill="white"/>
<path d="M48.1034 21.6003V21.5309L48.5057 21.3986V19.1565L48.1034 19.0276V18.9548H48.9079L50.7719 20.9522V19.1565L50.3697 19.0276V18.9548H51.2909V19.0276L50.88 19.1565V21.6003H50.7719L48.6138 19.2822V21.3986L49.029 21.5309V21.6003H48.1034Z" fill="white"/>
<path d="M51.6129 21.6003V21.5309L52.0108 21.4813V19.0739L51.6129 19.0276V18.9548H54.2165V19.7121H54.0997L53.7667 19.0375H52.4865V20.228H53.0488L53.304 19.7485H53.4164V20.7934H53.304L53.0445 20.3073H52.4865V21.5209H53.8446L54.1992 20.7934H54.3117V21.6003H51.6129Z" fill="white"/>
<path d="M57.2427 21.6334C57.0812 21.6334 56.9601 21.6036 56.8794 21.5441C56.7986 21.4846 56.7439 21.3832 56.715 21.2399L56.6329 20.7967C56.604 20.6468 56.5363 20.53 56.4296 20.4462C56.3258 20.3602 56.1629 20.3172 55.9409 20.3172H55.6035V21.4813L56.0014 21.5309V21.6003H54.7299V21.5309L55.1278 21.4813V19.0739L54.7299 19.0276V18.9548H55.9409C56.4108 18.9548 56.7511 19.011 56.9615 19.1235C57.172 19.2359 57.2773 19.4067 57.2773 19.636C57.2773 20.0152 56.9774 20.2346 56.3777 20.2941V20.3139C56.5997 20.3382 56.777 20.3988 56.9096 20.4958C57.0452 20.5928 57.1302 20.7218 57.1648 20.8827L57.221 21.1671C57.2441 21.2906 57.2701 21.3743 57.2989 21.4184C57.3306 21.4625 57.3782 21.4846 57.4416 21.4846C57.4849 21.4846 57.531 21.4747 57.58 21.4548C57.629 21.4328 57.6752 21.4052 57.7184 21.3721L57.7919 21.4317C57.7083 21.5044 57.6218 21.5562 57.5324 21.5871C57.443 21.6179 57.3465 21.6334 57.2427 21.6334ZM56.0879 20.2379C56.2984 20.2379 56.4613 20.1894 56.5766 20.0924C56.6948 19.9932 56.7539 19.8477 56.7539 19.6559V19.5864C56.7539 19.2205 56.4829 19.0375 55.9409 19.0375H55.6035V20.2379H56.0879Z" fill="white"/>
<path d="M59.2432 21.6664C58.9751 21.6664 58.7112 21.608 58.4518 21.4912L58.0841 21.6334H57.989V20.7835H58.0841L58.4561 21.3986C58.6954 21.5287 58.9693 21.5937 59.2778 21.5937C59.5315 21.5937 59.7406 21.543 59.9049 21.4416C60.0721 21.338 60.1558 21.1936 60.1558 21.0084C60.1558 20.8739 60.1024 20.7681 59.9957 20.6909C59.8891 20.6116 59.7161 20.5487 59.4768 20.5024L58.7588 20.3602C58.508 20.3095 58.3191 20.2235 58.1923 20.1023C58.0654 19.9788 58.002 19.8333 58.002 19.6658C58.002 19.5137 58.0409 19.3792 58.1187 19.2623C58.1995 19.1433 58.3162 19.0518 58.469 18.9879C58.6219 18.9217 58.8035 18.8887 59.014 18.8887C59.2764 18.8887 59.5113 18.9228 59.7189 18.9912L60.0347 18.8887H60.1298V19.5633H60.0347L59.7233 19.0805C59.507 19.0011 59.272 18.9614 59.0183 18.9614C58.7675 18.9614 58.57 19.011 58.4258 19.1102C58.2816 19.2072 58.2096 19.3362 58.2096 19.4971C58.2096 19.6162 58.26 19.7099 58.3609 19.7782C58.4647 19.8466 58.6161 19.9006 58.815 19.9403L59.5892 20.0957C59.84 20.1442 60.026 20.228 60.1471 20.347C60.2711 20.4638 60.3331 20.6424 60.3331 20.8827C60.3331 21.1274 60.2336 21.3192 60.0347 21.4581C59.8386 21.597 59.5748 21.6664 59.2432 21.6664Z" fill="white"/>
</svg>
