<svg width="60" height="40" viewBox="0 0 60 40" fill="none" xmlns="http://www.w3.org/2000/svg">
<mask id="path-1-inside-1_5018_2154" fill="white">
<path d="M9.4256 16.4443H6.89404V16.0078H12.5682V16.4443H9.94937V23.9517H9.4256V16.4443Z"/>
</mask>
<path d="M6.89404 16.4443H-32.106V55.4443H6.89404V16.4443ZM9.4256 16.4443H48.4256V-22.5557H9.4256V16.4443ZM9.4256 23.9517H-29.5744V62.9517H9.4256V23.9517ZM9.94937 23.9517V62.9517H48.9494V23.9517H9.94937ZM9.94937 16.4443V-22.5557H-29.0506V16.4443H9.94937ZM12.5682 16.4443V55.4443H51.5682V16.4443H12.5682ZM12.5682 16.0078H51.5682V-22.9922H12.5682V16.0078ZM6.89404 16.0078V-22.9922H-32.106V16.0078H6.89404ZM6.89404 55.4443H9.4256V-22.5557H6.89404V55.4443ZM-29.5744 16.4443V23.9517H48.4256V16.4443H-29.5744ZM9.4256 62.9517H9.94937V-15.0483H9.4256V62.9517ZM48.9494 23.9517V16.4443H-29.0506V23.9517H48.9494ZM9.94937 55.4443H12.5682V-22.5557H9.94937V55.4443ZM51.5682 16.4443V16.0078H-26.4318V16.4443H51.5682ZM12.5682 -22.9922H6.89404V55.0078H12.5682V-22.9922ZM-32.106 16.0078V16.4443H45.894V16.0078H-32.106Z" fill="white" mask="url(#path-1-inside-1_5018_2154)"/>
<mask id="path-3-inside-2_5018_2154" fill="white">
<path d="M14.3137 16.0078V16.5316H17.5436C20.6426 16.9681 20.2498 20.7654 17.4563 21.0935H14.3137V23.9517H14.7502V21.5947H17.4563C18.7658 22.2494 19.115 23.0787 19.5514 23.9517H20.1625C19.5078 22.9478 19.2895 22.3367 18.0674 21.3328C18.0674 21.3328 20.1625 20.8527 20.1625 18.6267C20.0752 16.7935 18.1984 16.0515 17.5436 16.0078H14.3137Z"/>
</mask>
<path d="M14.3137 16.5316H2.31372V28.5316H14.3137V16.5316ZM14.3137 16.0078V4.00781H2.31372V16.0078H14.3137ZM17.5436 16.0078L18.3419 4.03439L17.9432 4.00781H17.5436V16.0078ZM18.0674 21.3328L15.3869 9.63603L-8.43233 15.0946L10.4505 30.6055L18.0674 21.3328ZM20.1625 23.9517V35.9517H42.315L30.2138 17.3965L20.1625 23.9517ZM19.5514 23.9517L8.8183 29.3182L12.135 35.9517H19.5514V23.9517ZM17.4563 21.5947L22.8229 10.8616L20.2892 9.5947H17.4563V21.5947ZM14.7502 21.5947V9.5947H2.7502V21.5947H14.7502ZM14.7502 23.9517V35.9517H26.7502V23.9517H14.7502ZM14.3137 23.9517H2.31372V35.9517H14.3137V23.9517ZM14.3137 21.0935V9.09345H2.31372V21.0935H14.3137ZM17.4563 21.0935V33.0935H18.1586L18.856 33.0115L17.4563 21.0935ZM17.5436 16.5316L19.2173 4.64886L18.3846 4.53158H17.5436V16.5316ZM20.1625 18.6267H32.1625V18.3411L32.1489 18.0559L20.1625 18.6267ZM26.3137 16.5316V16.0078H2.31372V16.5316H26.3137ZM14.3137 28.0078H17.5436V4.00781H14.3137V28.0078ZM10.4505 30.6055C10.4273 30.5864 10.292 30.473 10.1003 30.2704C10.0054 30.17 9.90868 30.0605 9.81311 29.9439C9.7176 29.8273 9.63672 29.7201 9.57185 29.6296C9.50871 29.5414 9.46808 29.4792 9.45636 29.4611C9.44848 29.4489 9.45726 29.462 9.50754 29.5438C9.53426 29.5873 9.55726 29.625 9.59821 29.6918C9.63472 29.7514 9.68055 29.8261 9.73063 29.907C9.83218 30.0711 9.96065 30.2761 10.1112 30.5069L30.2138 17.3965C30.1641 17.3203 30.1495 17.2945 29.954 16.9764C29.798 16.7225 29.4879 16.2193 29.0836 15.6549C28.1359 14.3317 27.0382 13.1723 25.6843 12.0601L10.4505 30.6055ZM20.1625 11.9517H19.5514V35.9517H20.1625V11.9517ZM30.2846 18.5851C30.2687 18.5535 30.252 18.5198 30.2224 18.4601C30.1964 18.4076 30.1584 18.3309 30.1178 18.2498C30.0367 18.0879 29.9149 17.848 29.7666 17.5753C29.4654 17.0212 29.0065 16.2401 28.3524 15.3874C26.9086 13.5053 25.058 11.9791 22.8229 10.8616L12.0898 32.3278C11.6914 32.1286 11.1936 31.8285 10.6651 31.3951C10.1274 30.9541 9.67538 30.4715 9.31007 29.9953C8.9615 29.5409 8.7536 29.1717 8.68151 29.0391C8.66506 29.0088 8.59974 28.8811 8.8183 29.3182L30.2846 18.5851ZM17.4563 9.5947H14.7502V33.5947H17.4563V9.5947ZM2.7502 21.5947V23.9517H26.7502V21.5947H2.7502ZM14.7502 11.9517H14.3137V35.9517H14.7502V11.9517ZM26.3137 23.9517V21.0935H2.31372V23.9517H26.3137ZM14.3137 33.0935H17.4563V9.09345H14.3137V33.0935ZM18.856 33.0115C26.1473 32.1553 31.3023 26.2904 31.6899 19.5413C31.8818 16.1997 30.8898 12.6025 28.4142 9.65881C25.8876 6.65443 22.4853 5.10915 19.2173 4.64886L15.87 28.4143C14.1515 28.1723 11.8622 27.2653 10.0462 25.106C8.28125 23.0073 7.59748 20.4618 7.72939 18.1651C7.99701 13.5058 11.5589 9.70358 16.0567 9.17536L18.856 33.0115ZM17.5436 4.53158H14.3137V28.5316H17.5436V4.53158ZM16.7454 27.9812C15.3558 27.8886 14.3742 27.558 13.8825 27.3675C13.2693 27.13 12.5827 26.7821 11.8808 26.2573C10.4108 25.1584 8.34706 22.7881 8.17607 19.1974L32.1489 18.0559C31.8906 12.632 28.8449 8.97413 26.2509 7.03497C24.0424 5.38393 21.2296 4.2269 18.3419 4.03439L16.7454 27.9812ZM8.16249 18.6267C8.16249 17.212 8.51819 15.6682 9.3142 14.2171C10.077 12.8265 11.0481 11.8733 11.8514 11.2625C12.634 10.6674 13.3605 10.3158 13.8782 10.1054C14.1523 9.99408 14.413 9.90416 14.656 9.83003C14.7788 9.79256 14.9007 9.75804 15.0216 9.72606C15.0821 9.71004 15.1428 9.69456 15.2035 9.67959C15.2339 9.67211 15.2644 9.66474 15.295 9.65748C15.3102 9.65385 15.3255 9.65025 15.3409 9.64667C15.3485 9.64489 15.3562 9.6431 15.3639 9.64133C15.3677 9.64044 15.3735 9.63911 15.3754 9.63867C15.3811 9.63735 15.3869 9.63603 18.0674 21.3328C20.7479 33.0296 20.7537 33.0283 20.7595 33.0269C20.7614 33.0265 20.7673 33.0252 20.7712 33.0243C20.779 33.0224 20.7868 33.0206 20.7947 33.0188C20.8106 33.0151 20.8266 33.0113 20.8429 33.0074C20.8755 32.9997 20.9089 32.9916 20.9433 32.9831C21.012 32.9662 21.0844 32.9478 21.1603 32.9277C21.3119 32.8876 21.4787 32.8406 21.6588 32.7856C22.0164 32.6766 22.4408 32.5317 22.9113 32.3406C23.8219 31.9707 25.0722 31.3599 26.3785 30.3665C29.2734 28.1652 32.1625 24.1973 32.1625 18.6267H8.16249Z" fill="white" mask="url(#path-3-inside-2_5018_2154)"/>
<mask id="path-5-inside-3_5018_2154" fill="white">
<path d="M22.608 16.0078H22.0842V20.809C22.0842 22.5986 23.2191 23.9804 25.2269 23.9804C27.6711 23.9804 28.675 22.5549 28.6314 20.7992C28.5877 19.0435 28.6314 16.0078 28.6314 16.0078H28.1076V20.7992C28.1076 22.6615 26.6739 23.5749 25.2705 23.5364C23.9174 23.5364 22.608 22.6921 22.608 20.7992V16.0078Z"/>
</mask>
<path d="M22.0842 16.0078V7.00781H13.0842V16.0078H22.0842ZM22.608 16.0078H31.608V7.00781H22.608V16.0078ZM28.1076 16.0078V7.00781H19.1076V16.0078H28.1076ZM28.6314 16.0078L37.6304 16.1372L37.7617 7.00781H28.6314V16.0078ZM28.6314 20.7992L19.6341 21.0229L28.6314 20.7992ZM25.2705 23.5364L25.5175 14.5398L25.394 14.5364H25.2705V23.5364ZM22.0842 25.0078H22.608V7.00781H22.0842V25.0078ZM13.608 16.0078V20.7992H31.608V16.0078H13.608ZM37.1076 20.7992V16.0078H19.1076V20.7992H37.1076ZM28.1076 25.0078H28.6314V7.00781H28.1076V25.0078ZM28.6314 16.0078C19.6323 15.8784 19.6323 15.8785 19.6323 15.8787C19.6323 15.8787 19.6323 15.8788 19.6323 15.879C19.6323 15.8792 19.6323 15.8795 19.6323 15.8798C19.6323 15.8804 19.6323 15.8812 19.6322 15.8822C19.6322 15.8843 19.6322 15.887 19.6321 15.8904C19.632 15.8974 19.6319 15.9071 19.6317 15.9196C19.6314 15.9446 19.6309 15.9805 19.6303 16.0263C19.6291 16.1178 19.6275 16.249 19.6258 16.4112C19.6222 16.7352 19.618 17.186 19.6151 17.6949C19.6096 18.6819 19.6086 19.9975 19.6341 21.0229L37.6286 20.5755C37.6104 19.8452 37.6094 18.7651 37.6149 17.7953C37.6175 17.3258 37.6214 16.908 37.6247 16.6079C37.6263 16.4582 37.6278 16.3384 37.6288 16.2571C37.6294 16.2164 37.6298 16.1854 37.63 16.165C37.6302 16.1549 37.6303 16.1474 37.6304 16.1427C37.6304 16.1404 37.6304 16.1387 37.6304 16.1378C37.6304 16.1373 37.6304 16.1371 37.6304 16.137C37.6304 16.1369 37.6304 16.1369 37.6304 16.1369C37.6304 16.137 37.6304 16.137 37.6304 16.137C37.6304 16.1371 37.6304 16.1372 28.6314 16.0078ZM31.0842 20.809V16.0078H13.0842V20.809H31.0842ZM19.6341 21.0229C19.6132 20.1813 19.8391 18.4148 21.3597 16.8258C22.9363 15.1783 24.6935 14.9804 25.2269 14.9804V32.9804C28.2044 32.9804 31.6858 32.0699 34.3645 29.2707C36.9872 26.53 37.6932 23.1728 37.6286 20.5755L19.6341 21.0229ZM25.2269 14.9804C26.394 14.9804 28.0924 15.4456 29.4621 16.9036C30.7527 18.2774 31.0842 19.8201 31.0842 20.809H13.0842C13.0842 23.5875 13.9831 26.7159 16.3431 29.228C18.7822 31.8244 22.0519 32.9804 25.2269 32.9804V14.9804ZM13.608 20.7992C13.608 23.9745 14.7907 27.2045 17.405 29.5617C19.8527 31.7687 22.8042 32.5364 25.2705 32.5364V14.5364C26.3837 14.5364 28.004 14.8819 29.4587 16.1936C31.08 17.6554 31.608 19.5169 31.608 20.7992H13.608ZM25.0235 32.533C27.6679 32.6056 30.6292 31.8023 33.063 29.722C35.6807 27.4845 37.1076 24.2504 37.1076 20.7992H19.1076C19.1076 19.2103 19.8177 17.3641 21.3676 16.0392C22.7337 14.8716 24.2765 14.5057 25.5175 14.5398L25.0235 32.533Z" fill="white" mask="url(#path-5-inside-3_5018_2154)"/>
<mask id="path-7-inside-4_5018_2154" fill="white">
<path d="M36.0504 16.0078H31.1619V16.4443H36.0504V16.0078Z"/>
</mask>
<path d="M31.1619 16.0078V0.0078125H15.1619V16.0078H31.1619ZM36.0504 16.0078H52.0504V0.0078125H36.0504V16.0078ZM36.0504 16.4443V32.4443H52.0504V16.4443H36.0504ZM31.1619 16.4443H15.1619V32.4443H31.1619V16.4443ZM31.1619 32.0078H36.0504V0.0078125H31.1619V32.0078ZM20.0504 16.0078V16.4443H52.0504V16.0078H20.0504ZM36.0504 0.444288H31.1619V32.4443H36.0504V0.444288ZM47.1619 16.4443V16.0078H15.1619V16.4443H47.1619Z" fill="white" mask="url(#path-7-inside-4_5018_2154)"/>
<mask id="path-9-inside-5_5018_2154" fill="white">
<path d="M36.0504 23.4258H31.1619V23.8623H36.0504V23.4258Z"/>
</mask>
<path d="M31.1619 23.4258V7.42578H15.1619V23.4258H31.1619ZM36.0504 23.4258H52.0504V7.42578H36.0504V23.4258ZM36.0504 23.8623V39.8623H52.0504V23.8623H36.0504ZM31.1619 23.8623H15.1619V39.8623H31.1619V23.8623ZM31.1619 39.4258H36.0504V7.42578H31.1619V39.4258ZM20.0504 23.4258V23.8623H52.0504V23.4258H20.0504ZM36.0504 7.86226H31.1619V39.8623H36.0504V7.86226ZM47.1619 23.8623V23.4258H15.1619V23.8623H47.1619Z" fill="white" mask="url(#path-9-inside-5_5018_2154)"/>
<mask id="path-11-inside-6_5018_2154" fill="white">
<path d="M35.7885 19.6738H31.1619V20.1103H35.7885V19.6738Z"/>
</mask>
<path d="M31.1619 19.6738V3.67383H15.1619V19.6738H31.1619ZM35.7885 19.6738H51.7885V3.67383H35.7885V19.6738ZM35.7885 20.1103V36.1103H51.7885V20.1103H35.7885ZM31.1619 20.1103H15.1619V36.1103H31.1619V20.1103ZM31.1619 35.6738H35.7885V3.67383H31.1619V35.6738ZM19.7885 19.6738V20.1103H51.7885V19.6738H19.7885ZM35.7885 4.1103H31.1619V36.1103H35.7885V4.1103ZM47.1619 20.1103V19.6738H15.1619V20.1103H47.1619Z" fill="white" mask="url(#path-11-inside-6_5018_2154)"/>
<mask id="path-13-inside-7_5018_2154" fill="white">
<path d="M40.8075 22.9041L37.8831 16.0078H37.3594L40.8075 23.9517L44.2557 16.0078H43.7319L40.8075 22.9041Z"/>
</mask>
<path d="M37.8831 16.0078L46.169 12.4942L43.8424 7.00781H37.8831V16.0078ZM40.8075 22.9041L32.5217 26.4177L40.8075 45.9574L49.0933 26.4177L40.8075 22.9041ZM43.7319 16.0078V7.00781H37.7726L35.4461 12.4942L43.7319 16.0078ZM44.2557 16.0078L52.5115 19.5914L57.9736 7.00781H44.2557V16.0078ZM40.8075 23.9517L32.5517 27.5352L40.8075 46.5549L49.0633 27.5352L40.8075 23.9517ZM37.3594 16.0078V7.00781H23.6415L29.1036 19.5914L37.3594 16.0078ZM29.5973 19.5214L32.5217 26.4177L49.0933 19.3905L46.169 12.4942L29.5973 19.5214ZM49.0933 26.4177L52.0177 19.5214L35.4461 12.4942L32.5217 19.3905L49.0933 26.4177ZM43.7319 25.0078H44.2557V7.00781H43.7319V25.0078ZM35.9999 12.4243L32.5517 20.3681L49.0633 27.5352L52.5115 19.5914L35.9999 12.4243ZM49.0633 20.3681L45.6152 12.4243L29.1036 19.5914L32.5517 27.5352L49.0633 20.3681ZM37.3594 25.0078H37.8831V7.00781H37.3594V25.0078Z" fill="white" mask="url(#path-13-inside-7_5018_2154)"/>
<mask id="path-15-inside-8_5018_2154" fill="white">
<path d="M52.2887 17.4942L52.5506 17.2324C52.5506 17.2324 51.7196 15.9199 49.6681 15.9199C47.4421 15.9636 45.6125 17.5845 45.6543 20.0258C45.696 22.4671 47.4421 23.8896 49.4936 23.9947C51.5013 24.0976 52.5506 22.732 52.5506 22.732L52.2887 22.4264C52.2887 22.4264 50.9775 23.6892 49.4936 23.5146C48.0095 23.5146 46.1781 22.1966 46.1781 20.0258C46.1781 17.6486 47.9216 16.3765 49.7118 16.4C51.3704 16.4218 52.2887 17.4942 52.2887 17.4942Z"/>
</mask>
<path d="M52.5506 17.2324L73.7639 38.4455L90.7412 21.468L77.8966 1.18304L52.5506 17.2324ZM52.2887 17.4942L29.5013 37.0066L50.5828 61.6267L73.502 38.7074L52.2887 17.4942ZM52.2887 22.4264L75.0664 2.90267L54.3768 -21.2352L31.4782 0.81808L52.2887 22.4264ZM52.5506 22.732L76.3401 41.0093L91.1768 21.6981L75.3283 3.20821L52.5506 22.732ZM45.6543 20.0258L75.6499 19.5129L45.6543 20.0258ZM49.6681 15.9199V-14.0801H49.374L49.08 -14.0743L49.6681 15.9199ZM49.7118 16.4L50.1055 -13.5974L49.7118 16.4ZM49.4936 23.5146L52.9989 -6.27991L51.2522 -6.4854H49.4936V23.5146ZM49.4936 23.9947L47.9576 53.9554H47.9576L49.4936 23.9947ZM31.3373 -3.98079L31.0755 -3.71891L73.502 38.7074L73.7639 38.4455L31.3373 -3.98079ZM29.511 41.9502L29.7729 42.2557L75.3283 3.20821L75.0664 2.90267L29.511 41.9502ZM75.6499 19.5129C75.7661 26.3064 73.1214 33.2933 67.8092 38.4996C62.7086 43.4984 56.2581 45.7965 50.2562 45.9142L49.08 -14.0743C31.9463 -13.7384 15.3071 -0.0219488 15.6587 20.5387L75.6499 19.5129ZM49.6681 45.9199C43.824 45.9199 38.5887 43.92 34.5625 41.0741C32.6777 39.7419 31.1832 38.3198 30.0202 37.0185C29.4337 36.3623 28.9132 35.7164 28.4516 35.0967C28.2201 34.7858 28.0012 34.4787 27.7943 34.1767C27.6907 34.0256 27.5899 33.8754 27.4917 33.7263C27.4426 33.6517 27.3941 33.5774 27.3463 33.5033C27.3224 33.4662 27.2986 33.4292 27.275 33.3923C27.2632 33.3738 27.2514 33.3554 27.2397 33.3369C27.2338 33.3277 27.225 33.3139 27.2221 33.3093C27.2134 33.2955 27.2046 33.2817 52.5506 17.2324C77.8966 1.18304 77.8878 1.16921 77.8791 1.15539C77.8761 1.15076 77.8673 1.1369 77.8614 1.12765C77.8496 1.10913 77.8378 1.09056 77.8259 1.07193C77.8021 1.03468 77.778 0.997215 77.7537 0.959537C77.705 0.884184 77.6553 0.807963 77.6046 0.730914C77.5032 0.576843 77.3974 0.419284 77.2873 0.258547C77.0671 -0.0626879 76.8284 -0.398031 76.5701 -0.744751C76.0551 -1.43624 75.4536 -2.18473 74.7572 -2.96394C73.3743 -4.51134 71.5437 -6.26151 69.1948 -7.92183C64.2402 -11.424 57.5637 -14.0801 49.6681 -14.0801V45.9199ZM52.2887 17.4942C75.0762 -2.01811 75.0677 -2.02794 75.0593 -2.03778C75.0565 -2.04106 75.048 -2.05092 75.0424 -2.0575C75.0311 -2.07066 75.0197 -2.08386 75.0083 -2.09711C74.9855 -2.12359 74.9624 -2.15022 74.9391 -2.17701C74.8926 -2.23057 74.8452 -2.28475 74.797 -2.33951C74.7005 -2.44901 74.6005 -2.56097 74.4969 -2.67517C74.2899 -2.90341 74.0676 -3.14159 73.8299 -3.38784C73.3559 -3.87881 72.8121 -4.41059 72.1965 -4.96511C70.9797 -6.06102 69.3961 -7.32328 67.4282 -8.54312C63.4618 -11.0018 57.5523 -13.4996 50.1056 -13.5974L49.318 46.3975C43.5299 46.3215 38.9089 44.3708 35.8162 42.4537C34.2853 41.5047 33.0349 40.5119 32.0422 39.6178C31.5385 39.1641 31.0794 38.7163 30.6622 38.2841C30.4528 38.0672 30.2519 37.8521 30.0591 37.6396C29.9626 37.5332 29.8679 37.4273 29.775 37.3218C29.7286 37.2691 29.6826 37.2165 29.6369 37.1639C29.6141 37.1377 29.5914 37.1114 29.5688 37.0852C29.5575 37.0721 29.5462 37.059 29.535 37.0459C29.5293 37.0393 29.5209 37.0295 29.5181 37.0262C29.5097 37.0164 29.5013 37.0066 52.2887 17.4942ZM50.1055 -13.5974C33.3696 -13.8171 16.1781 -0.796375 16.1781 20.0258H76.1781C76.1781 26.6663 73.5062 33.8958 67.6814 39.3018C62.2513 44.3414 55.5035 46.4787 49.318 46.3975L50.1055 -13.5974ZM16.1781 20.0258C16.1781 40.6639 33.4058 53.5146 49.4936 53.5146V-6.4854C57.0646 -6.4854 63.3856 -3.42232 67.7557 0.658964C72.642 5.22238 76.1781 12.0813 76.1781 20.0258H16.1781ZM45.9882 53.3091C55.8674 54.4714 63.2841 50.8281 66.3531 49.0711C68.1919 48.0184 69.6476 46.961 70.6804 46.1435C71.2139 45.7211 71.6805 45.3262 72.0768 44.9767C72.2761 44.8009 72.4608 44.6336 72.6305 44.4768C72.7155 44.3983 72.797 44.3221 72.8751 44.2485C72.9141 44.2116 72.9523 44.1754 72.9897 44.1398C73.0084 44.122 73.0268 44.1043 73.0451 44.0868C73.0542 44.0781 73.0633 44.0694 73.0723 44.0607C73.0768 44.0563 73.0836 44.0499 73.0858 44.0477C73.0926 44.0412 73.0993 44.0348 52.2887 22.4264C31.4782 0.81808 31.4849 0.811628 31.4915 0.805183C31.4938 0.803039 31.5005 0.796582 31.505 0.792287C31.5139 0.783689 31.5229 0.77509 31.5318 0.766492C31.5498 0.749294 31.5678 0.732094 31.5858 0.71489C31.6219 0.680485 31.6582 0.646051 31.6947 0.611595C31.7677 0.542704 31.8417 0.473589 31.9167 0.404291C32.0666 0.265898 32.2216 0.125638 32.3822 -0.0159931C32.7009 -0.297178 33.0535 -0.594801 33.441 -0.901472C34.1815 -1.48766 35.2167 -2.24027 36.5421 -2.99912C38.5845 -4.16843 44.6037 -7.2676 52.9989 -6.27991L45.9882 53.3091ZM52.5506 22.732C28.7611 4.45463 28.7697 4.44346 28.7783 4.4323C28.7812 4.42859 28.7898 4.41741 28.7955 4.40996C28.807 4.39507 28.8185 4.38016 28.8301 4.36525C28.8531 4.33543 28.8764 4.30557 28.8997 4.27568C28.9463 4.21591 28.9935 4.156 29.0411 4.09595C29.1363 3.97588 29.2336 3.85512 29.333 3.73379C29.5316 3.49136 29.7399 3.24526 29.9582 2.99661C30.393 2.50141 30.8782 1.98413 31.4183 1.45791C32.48 0.42331 33.8613 -0.751114 35.6015 -1.86502C39.2159 -4.17859 44.5556 -6.29782 51.0295 -5.96594L47.9576 53.9554C56.4393 54.3902 63.3075 51.6396 67.9485 48.6689C70.2019 47.2264 71.9711 45.717 73.2923 44.4296C73.9621 43.7769 74.545 43.1537 75.045 42.5843C75.2959 42.2985 75.5287 42.0231 75.7437 41.7607C75.8512 41.6294 75.9547 41.501 76.054 41.3758C76.1036 41.3132 76.1523 41.2513 76.2 41.1902C76.2238 41.1597 76.2474 41.1293 76.2708 41.0992C76.2824 41.0841 76.294 41.0691 76.3056 41.0541C76.3114 41.0466 76.32 41.0354 76.3229 41.0316C76.3315 41.0205 76.3401 41.0093 52.5506 22.732ZM51.0295 -5.96594C56.3978 -5.69073 62.5681 -3.60901 67.6554 1.30163C73.0289 6.48848 75.543 13.2616 75.6499 19.5129L15.6587 20.5387C15.8073 29.2313 19.2154 37.9362 25.9852 44.471C32.4688 50.7295 40.5379 53.575 47.9576 53.9554L51.0295 -5.96594Z" fill="white" mask="url(#path-15-inside-8_5018_2154)"/>
</svg>
