<svg width="40" height="40" viewBox="0 0 40 40" fill="none" xmlns="http://www.w3.org/2000/svg">
<path d="M18.5654 26.76L18.2864 26.2871L18.0075 25.8141L17.7293 25.3412L17.4504 24.869L17.1714 24.396L16.8925 23.9238L16.6143 23.4508L16.3353 22.9779L16.0564 22.5049L15.7759 22.0319L15.7319 21.9568C15.6545 21.974 15.576 21.986 15.4969 21.9928C15.4042 22.0014 15.311 22.0031 15.218 21.9981C15.1241 21.9922 15.0309 21.9791 14.939 21.959C14.8441 21.9376 14.7511 21.9087 14.6609 21.8725C14.5916 21.8459 14.5243 21.8148 14.4592 21.7793L14.3834 21.844L14.1045 22.0771L13.8263 22.3102L13.5473 22.5433L13.2684 22.7763L13.047 22.9613C13.1422 23.3214 13.1218 23.702 12.9887 24.0501C12.9705 24.0997 12.9493 24.1479 12.9265 24.1952L12.9887 24.2306L13.2676 24.387L13.5466 24.5434L13.8255 24.6998L14.1083 24.8562L14.3872 25.0118L14.6662 25.1682L14.9444 25.3246L15.2233 25.481L15.5023 25.6374L15.7812 25.7938L16.0594 25.9495L16.3353 26.1044L16.6143 26.2608L16.8925 26.4172L17.1714 26.5736L17.4504 26.73L17.7293 26.8864L18.0075 27.042L18.2864 27.1984L18.5654 27.3548L18.717 27.4405C18.7564 27.3886 18.7989 27.3405 18.8428 27.2901L18.8656 27.2661L18.8428 27.2285L18.5654 26.76Z" fill="white"/>
<path d="M13.2694 21.7977L13.5484 21.5646L13.8273 21.3315L13.8857 21.2827C13.8645 21.2548 13.8463 21.2255 13.8273 21.1969C13.6837 20.9826 13.5885 20.7399 13.5484 20.4856C13.5196 20.302 13.5196 20.1151 13.5484 19.9315C13.5883 19.6771 13.6835 19.4344 13.8273 19.2201C13.8774 19.1446 13.9331 19.073 13.9941 19.0058L13.8273 18.7224L13.5484 18.2494L13.2694 17.7764L12.9905 17.3072L12.7123 16.8343L12.4333 16.3613L12.3014 16.1357C12.2522 16.141 12.2036 16.144 12.1544 16.1455H12.0998C12.0445 16.1455 11.9899 16.1455 11.9353 16.138V21.7383C12.0104 21.7667 12.0836 21.7998 12.1544 21.8376C12.2529 21.8903 12.3463 21.9519 12.4333 22.0218C12.5294 22.0981 12.6172 22.1841 12.6956 22.2782L12.7123 22.2639L12.9905 22.0316L13.2694 21.7977Z" fill="white"/>
<path d="M28.3212 16.2629C28.2262 16.2419 28.1329 16.2134 28.0423 16.1779C28.0294 16.1726 28.0158 16.1681 28.0029 16.1621L27.7633 16.5681L27.4852 17.0411L27.2062 17.5141L26.9273 17.984L26.6483 18.457L26.3701 18.9299L26.3269 19.0051C26.3421 19.0217 26.3557 19.039 26.3701 19.0563C26.4846 19.1907 26.5784 19.3412 26.6483 19.5029C26.7445 19.7257 26.7941 19.9655 26.7941 20.2078C26.7941 20.4502 26.7445 20.69 26.6483 20.9128C26.5922 21.0437 26.5207 21.1676 26.4353 21.282L26.6483 21.4602L26.9273 21.6933L27.2062 21.9264L27.4852 22.1595L27.7065 22.3444C27.7247 22.3249 27.7444 22.3061 27.7633 22.288C27.8487 22.2055 27.9421 22.1317 28.0423 22.0677C28.1307 22.011 28.2241 21.9622 28.3212 21.9218L28.3857 21.8955V16.2749L28.3212 16.2629Z" fill="white"/>
<path d="M26.6485 15.1415L26.3703 15.2167L26.0914 15.2919L25.8124 15.3671L25.5342 15.4423L25.2553 15.5175L24.9763 15.5927L24.6974 15.6679L24.4192 15.7431L24.1402 15.8183L23.8613 15.8935L23.5831 15.9687L23.3041 16.0438L23.0252 16.119L22.7462 16.1942L22.468 16.2694L22.1891 16.3446L21.9617 16.4055C21.9617 16.4401 21.9617 16.4755 21.9617 16.5108C21.9618 16.663 21.9422 16.8147 21.9033 16.9619C21.8685 17.0987 21.8176 17.231 21.7517 17.356L21.9033 17.4853L22.1823 17.7184L22.4612 17.9515L22.7394 18.1846L23.0184 18.4177L23.2973 18.6508L23.5763 18.8839L23.6703 18.9591C23.7278 18.8991 23.7893 18.8431 23.8544 18.7914C23.9418 18.7226 24.0351 18.6617 24.1334 18.6094C24.2251 18.5684 24.3202 18.5352 24.4177 18.5102C24.5084 18.4802 24.6014 18.4576 24.6958 18.4425C24.788 18.4272 24.8813 18.4194 24.9748 18.4192C25.0682 18.4182 25.1615 18.4247 25.2537 18.4387C25.3483 18.4527 25.4416 18.4741 25.5327 18.5026C25.5926 18.5222 25.6517 18.5425 25.7101 18.5681L25.8109 18.3966L26.0898 17.9237L26.3688 17.4515L26.647 16.9785L26.9259 16.5055L27.2049 16.0326L27.38 15.7318C27.3161 15.6639 27.2576 15.5912 27.2049 15.5145C27.1069 15.3713 27.0303 15.2147 26.9775 15.0498L26.9267 15.0641L26.6485 15.1415Z" fill="white"/>
<path d="M21.0741 14.976C21.1734 15.0338 21.2669 15.1011 21.3531 15.1768C21.4575 15.268 21.551 15.3706 21.632 15.4828C21.681 15.5507 21.7253 15.6218 21.7647 15.6956L21.9102 15.6558L22.1892 15.5806L22.4681 15.5054L22.7463 15.4302L23.0253 15.355L23.3042 15.2798L23.5832 15.2046L23.8613 15.1294L24.1403 15.0542L24.4192 14.979L24.6974 14.9038L24.9764 14.8286L25.2553 14.7534L25.5343 14.6783L25.8125 14.6031L26.0914 14.5279L26.3704 14.4527L26.6486 14.3775L26.9071 14.3068C26.9124 14.2639 26.9192 14.2203 26.9275 14.1775C26.9359 14.1346 26.9465 14.091 26.9586 14.0489L26.9275 14.0384L26.6486 13.9436L26.3704 13.8489L26.0914 13.7541L25.8125 13.6594L25.5343 13.5647L25.2553 13.4699L24.9764 13.3744L24.6974 13.2797L24.4177 13.1714L24.1388 13.0767L23.8598 12.9819L23.5839 12.8879L23.3042 12.7954L23.0253 12.7007L22.7501 12.6037L22.4719 12.509L22.193 12.4142L21.914 12.3195L21.7336 12.2578C21.7033 12.3079 21.6707 12.3581 21.6358 12.4082C21.5546 12.5202 21.4611 12.6229 21.3569 12.7142C21.2704 12.7895 21.177 12.8564 21.0779 12.9142C20.989 12.9661 20.8956 13.0101 20.799 13.0458C20.7154 13.0773 20.6295 13.1025 20.542 13.121V14.77C20.6295 14.7884 20.7154 14.8136 20.799 14.8452C20.8942 14.8812 20.9862 14.9249 21.0741 14.976Z" fill="white"/>
<path d="M27.2065 22.9057L26.9276 22.6726L26.6486 22.4395L26.3704 22.2064L26.0915 21.974L25.858 21.7793L25.811 21.8034C25.7217 21.8492 25.6287 21.8874 25.5328 21.9177C25.4419 21.9468 25.3485 21.9682 25.2539 21.9816C25.1653 21.9951 25.0759 22.0019 24.9863 22.0019H24.9749C24.8815 22.0012 24.7882 21.9934 24.696 21.9786C24.6588 21.9725 24.6202 21.9658 24.5853 21.9568L24.4178 22.2417L24.1388 22.7147L23.8599 23.1877L23.584 23.6599L23.305 24.1328L23.0261 24.6058L22.7502 25.0787L22.472 25.5517L22.193 26.0247L21.9141 26.4976L21.6359 26.9698L21.4585 27.2706C21.4918 27.3044 21.5237 27.339 21.554 27.3751L21.6359 27.3292L21.9141 27.1736L22.193 27.0172L22.472 26.8608L22.7502 26.7059L23.0291 26.5495L23.3081 26.3931L23.584 26.236L23.8622 26.0796L24.1411 25.9232L24.4201 25.7668L24.6983 25.6103L24.9772 25.4539L25.2562 25.2983L25.5351 25.1419L25.8133 24.9855L26.0923 24.8291L26.3712 24.6727L26.6494 24.5163L26.9283 24.3607L27.2073 24.2043L27.3096 24.1464C27.18 23.7729 27.18 23.3671 27.3096 22.9937L27.2065 22.9057Z" fill="white"/>
<path d="M19.4018 18.1525C19.3043 18.1072 19.2109 18.0536 19.1228 17.9923C19.0993 17.975 19.0758 17.9585 19.0531 17.9404L18.8439 18.1149L18.5657 18.348L18.2867 18.5811L18.0078 18.8142L17.7296 19.0473L17.4506 19.2804L17.1717 19.5135L17.0413 19.6225C17.1265 19.8673 17.157 20.1276 17.1308 20.3853C17.1047 20.643 17.0224 20.892 16.8897 21.1151C16.8125 21.245 16.719 21.3648 16.6115 21.4715C16.5516 21.5323 16.4869 21.5883 16.4182 21.6391L16.6115 21.9662L16.8897 22.4392L17.1686 22.9122L17.4476 23.3851L17.7266 23.8581L18.0047 24.331L18.2837 24.804L18.5657 25.277L18.8439 25.7499L19.1228 26.2229L19.4018 26.6958L19.495 26.856C19.5556 26.8327 19.6178 26.8131 19.6807 26.7958C19.7148 26.7868 19.7482 26.777 19.783 26.7695V18.2788C19.7482 18.2713 19.7141 18.263 19.6807 18.254C19.585 18.2279 19.4917 18.194 19.4018 18.1525Z" fill="white"/>
<path d="M21.9096 25.0135L22.1886 24.5405L22.4675 24.0676L22.7457 23.5946L23.0246 23.1224L23.3036 22.6494L23.5825 22.1765L23.8607 21.7035L23.8986 21.6388L23.8607 21.608C23.7583 21.5276 23.665 21.4363 23.5825 21.3358C23.4651 21.1931 23.371 21.033 23.3036 20.8614C23.1469 20.4643 23.1386 20.0248 23.2801 19.6222L23.0246 19.4116L22.7457 19.1785L22.4675 18.9454L22.1886 18.7124L21.9096 18.4793L21.6314 18.2462L21.3525 18.0138L21.2676 17.9424C21.2059 17.9902 21.141 18.0339 21.0735 18.0732C20.9846 18.125 20.8912 18.1691 20.7946 18.2048C20.711 18.2363 20.6251 18.2614 20.5376 18.28V26.767C20.625 26.7859 20.7108 26.811 20.7946 26.8422L20.8249 26.8527L21.0735 26.4316L21.3525 25.9586L21.6314 25.4857L21.9096 25.0135Z" fill="white"/>
<path d="M13.5483 16.766L13.8273 17.239L14.1055 17.712L14.3844 18.1849L14.6118 18.5661L14.6656 18.5451C14.7559 18.5093 14.849 18.4806 14.9438 18.4594C15.0357 18.4393 15.1289 18.4262 15.2228 18.4203C15.3157 18.4146 15.409 18.4161 15.5017 18.4248C15.5959 18.433 15.6891 18.4489 15.7807 18.4721C15.8758 18.4963 15.9689 18.5279 16.0589 18.5669C16.1561 18.6088 16.2495 18.6591 16.3378 18.7173C16.4382 18.7844 16.5317 18.8612 16.6168 18.9466L16.6463 18.9752L16.895 18.7669L17.1739 18.5346L17.4529 18.3015L17.7318 18.0684L18.01 17.8353L18.289 17.6022L18.5679 17.3691C18.427 17.1101 18.3533 16.8204 18.3534 16.5262C18.3534 16.4908 18.3534 16.4555 18.3534 16.4209L18.2844 16.4021L18.0055 16.3269L17.7273 16.2517L17.4483 16.1765L17.1694 16.1013L16.8904 16.0261L16.6122 15.9509L16.3333 15.8758L16.0543 15.8006L15.7761 15.7254L15.4972 15.6502L15.2182 15.575L14.9393 15.4998L14.6611 15.4246L14.3821 15.3494L14.1032 15.2742L13.825 15.199L13.7136 15.1689C13.6657 15.2626 13.6096 15.3519 13.546 15.4359C13.4645 15.5444 13.371 15.6436 13.2671 15.7314C13.1924 15.7951 13.1125 15.8527 13.0283 15.9036L13.2671 16.3081L13.5483 16.766Z" fill="white"/>
<path d="M19.4018 12.9939C19.3041 12.9489 19.2107 12.8953 19.1228 12.8337C19.022 12.7638 18.9285 12.684 18.8439 12.5954C18.8049 12.5548 18.7678 12.5119 18.7324 12.4668L18.5657 12.5224L18.2867 12.6142L18.0078 12.7067L17.7296 12.7954L17.4506 12.8879L17.1717 12.9804L16.8927 13.0721L16.6145 13.1713L16.3356 13.2631L16.0566 13.3556L15.7762 13.4435L15.4972 13.536L15.2183 13.6285L14.9423 13.7203L14.6641 13.8127L14.3852 13.9045L14.1085 13.9985L13.8879 14.0737C13.9031 14.1666 13.9107 14.2607 13.9107 14.3549C13.9107 14.3812 13.9107 14.4068 13.9107 14.4301L14.1108 14.485L14.3897 14.5602L14.6687 14.6353L14.9469 14.7105L15.2258 14.7857L15.5048 14.8609L15.7837 14.9361L16.0619 15.0113L16.3409 15.0865L16.6198 15.1617L16.898 15.2369L17.177 15.3121L17.4559 15.3873L17.7349 15.4625L18.0131 15.5377L18.292 15.6128L18.5619 15.688L18.571 15.673C18.6459 15.5326 18.7394 15.4029 18.8492 15.2873C18.9336 15.1983 19.0271 15.1181 19.1281 15.0482C19.2161 14.9866 19.3094 14.933 19.4071 14.888C19.497 14.8465 19.5903 14.8125 19.686 14.7865C19.7194 14.7767 19.7535 14.7684 19.7883 14.7609V13.1119C19.7535 13.1044 19.7201 13.0947 19.686 13.0849C19.5888 13.0625 19.4938 13.0321 19.4018 12.9939Z" fill="white"/>
</svg>
