<svg width="17" height="16" viewBox="0 0 17 16" fill="none"
    xmlns="http://www.w3.org/2000/svg">
    <g clip-path="url(#clip0_4901_2595)">
        <path d="M13.8143 3.45685C12.8038 2.99317 11.7202 2.65156 10.5871 2.4559C10.5665 2.45212 10.5459 2.46156 10.5353 2.48043C10.3959 2.72831 10.2415 3.05168 10.1334 3.30585C8.91479 3.1234 7.70242 3.1234 6.50877 3.30585C6.40065 3.04603 6.24067 2.72831 6.10068 2.48043C6.09005 2.46219 6.06944 2.45275 6.04881 2.4559C4.91642 2.65093 3.83278 2.99255 2.82162 3.45685C2.81287 3.46062 2.80536 3.46692 2.80038 3.47509C0.744945 6.54587 0.181874 9.54118 0.458098 12.4993C0.459348 12.5138 0.467472 12.5277 0.478721 12.5365C1.83484 13.5324 3.14848 14.137 4.43772 14.5377C4.45835 14.544 4.48021 14.5365 4.49334 14.5195C4.79831 14.103 5.07017 13.6639 5.30325 13.2021C5.31701 13.175 5.30388 13.1429 5.27576 13.1322C4.84456 12.9687 4.43396 12.7692 4.039 12.5428C4.00776 12.5245 4.00526 12.4798 4.034 12.4584C4.11711 12.3962 4.20025 12.3314 4.27961 12.2659C4.29397 12.254 4.31398 12.2515 4.33086 12.259C6.9256 13.4437 9.73471 13.4437 12.2988 12.259C12.3157 12.2508 12.3357 12.2533 12.3507 12.2653C12.4301 12.3307 12.5132 12.3962 12.5969 12.4584C12.6257 12.4798 12.6238 12.5245 12.5926 12.5428C12.1976 12.7736 11.787 12.9687 11.3552 13.1316C11.3271 13.1423 11.3146 13.175 11.3283 13.2021C11.5664 13.6632 11.8383 14.1024 12.1376 14.5188C12.1501 14.5365 12.1726 14.544 12.1932 14.5377C13.4887 14.137 14.8023 13.5324 16.1585 12.5365C16.1703 12.5277 16.1779 12.5144 16.1791 12.5C16.5097 9.08 15.6254 6.10926 13.8349 3.47571C13.8306 3.46692 13.8231 3.46062 13.8143 3.45685ZM5.69073 10.6981C4.90954 10.6981 4.26586 9.98093 4.26586 9.10014C4.26586 8.21936 4.89706 7.50216 5.69073 7.50216C6.49064 7.50216 7.12809 8.22565 7.11559 9.10014C7.11559 9.98093 6.48439 10.6981 5.69073 10.6981ZM10.959 10.6981C10.1778 10.6981 9.53411 9.98093 9.53411 9.10014C9.53411 8.21936 10.1653 7.50216 10.959 7.50216C11.7589 7.50216 12.3963 8.22565 12.3838 9.10014C12.3838 9.98093 11.7589 10.6981 10.959 10.6981Z" fill="#632BFF"/>
    </g>
    <defs>
        <clipPath id="clip0_4901_2595">
            <rect width="16" height="16" fill="white" transform="translate(0.319946)"/>
        </clipPath>
    </defs>
</svg>
