<svg width="17" height="16" viewBox="0 0 17 16" fill="none"
    xmlns="http://www.w3.org/2000/svg">
    <path fill-rule="evenodd" clip-rule="evenodd" d="M8.31749 1.36914C6.66699 1.37 5.07061 1.95457 3.8138 3.01834C2.557 4.0821 1.72171 5.55569 1.45731 7.1756C1.19291 8.79552 1.51663 10.4561 2.37059 11.8605C3.22455 13.2649 4.55307 14.3214 6.11858 14.8413C6.46396 14.9054 6.59405 14.6913 6.59405 14.5093C6.59405 14.3273 6.58714 13.7996 6.58484 13.2226C4.65072 13.6405 4.24203 12.4065 4.24203 12.4065C3.92658 11.6052 3.47068 11.3945 3.47068 11.3945C2.83979 10.9664 3.51789 10.9744 3.51789 10.9744C4.2167 11.0236 4.58395 11.6876 4.58395 11.6876C5.20333 12.7441 6.21068 12.4385 6.60671 12.2599C6.66888 11.8123 6.84963 11.5079 7.0488 11.335C5.50381 11.161 3.88053 10.568 3.88053 7.91918C3.87095 7.23221 4.12733 6.56787 4.59662 6.0636C4.52524 5.88961 4.28692 5.18676 4.66454 4.23207C4.66454 4.23207 5.24823 4.04662 6.57679 4.94064C7.71633 4.63079 8.91865 4.63079 10.0582 4.94064C11.3856 4.04662 11.9681 4.23207 11.9681 4.23207C12.3469 5.18447 12.1086 5.88732 12.0372 6.0636C12.508 6.56795 12.7649 7.23345 12.7544 7.92147C12.7544 10.5761 11.1277 11.161 9.58042 11.3316C9.82909 11.5468 10.0513 11.9669 10.0513 12.6125C10.0513 13.5374 10.0432 14.2815 10.0432 14.5093C10.0432 14.6936 10.1687 14.9088 10.521 14.8413C12.0867 14.3214 13.4153 13.2646 14.2693 11.86C15.1232 10.4554 15.4468 8.79454 15.1821 7.17447C14.9174 5.55441 14.0817 4.08081 12.8245 3.01722C11.5672 1.95364 9.97048 1.36945 8.31979 1.36914H8.31749Z" fill="#632BFF"/>
    <path d="M3.99775 11.2934C3.98279 11.3277 3.92753 11.338 3.88263 11.314C3.83773 11.2899 3.80435 11.2453 3.82046 11.2098C3.83658 11.1743 3.89069 11.1651 3.93559 11.1892C3.98049 11.2132 4.01502 11.259 3.99775 11.2934Z" fill="#632BFF"/>
    <path d="M4.27992 11.608C4.25608 11.6199 4.2288 11.6232 4.20276 11.6174C4.17672 11.6115 4.15353 11.5969 4.13717 11.5759C4.09227 11.5278 4.08305 11.4614 4.11759 11.4317C4.15213 11.4019 4.2143 11.4157 4.2592 11.4637C4.3041 11.5118 4.31446 11.5782 4.27992 11.608Z" fill="#632BFF"/>
    <path d="M4.55388 12.0051C4.51128 12.0349 4.43875 12.0051 4.39845 11.9456C4.38731 11.9349 4.37845 11.9221 4.3724 11.9079C4.36634 11.8938 4.36322 11.8785 4.36322 11.8632C4.36322 11.8478 4.36634 11.8325 4.3724 11.8184C4.37845 11.8042 4.38731 11.7914 4.39845 11.7807C4.44105 11.7521 4.51358 11.7807 4.55388 11.8391C4.59417 11.8975 4.59532 11.9753 4.55388 12.0051Z" fill="#632BFF"/>
    <path d="M4.92574 12.3894C4.88775 12.4318 4.81062 12.4203 4.7473 12.3631C4.68398 12.3059 4.66901 12.228 4.707 12.1868C4.74499 12.1456 4.82212 12.157 4.88775 12.2131C4.95337 12.2692 4.96603 12.3482 4.92574 12.3894Z" fill="#632BFF"/>
    <path d="M5.44718 12.6146C5.42991 12.6684 5.35163 12.6925 5.27334 12.6696C5.19506 12.6467 5.14325 12.5826 5.15822 12.5276C5.17318 12.4727 5.25262 12.4475 5.33206 12.4727C5.41149 12.4979 5.46215 12.5585 5.44718 12.6146Z" fill="#632BFF"/>
    <path d="M6.01601 12.6515C6.01601 12.7076 5.95154 12.7557 5.86865 12.7569C5.78576 12.758 5.71783 12.7122 5.71783 12.6561C5.71783 12.6 5.7823 12.5519 5.86519 12.5508C5.94808 12.5497 6.01601 12.5943 6.01601 12.6515Z" fill="#632BFF"/>
    <path d="M6.54552 12.5634C6.55588 12.6195 6.49831 12.6779 6.41542 12.6916C6.33253 12.7053 6.26 12.6721 6.24964 12.6172C6.23928 12.5623 6.29915 12.5027 6.37973 12.4879C6.46032 12.473 6.53515 12.5073 6.54552 12.5634Z" fill="#632BFF"/>
</svg>
