<svg width="17" height="16" viewBox="0 0 17 16" fill="none"
    xmlns="http://www.w3.org/2000/svg">
    <g clip-path="url(#clip0_4901_2590)">
        <path d="M9.34491 8.15141C9.34491 10.6652 7.32457 12.7031 4.8325 12.7031C2.34043 12.7031 0.319946 10.6648 0.319946 8.15141C0.319946 5.63806 2.34028 3.59961 4.8325 3.59961C7.32473 3.59961 9.34491 5.6376 9.34491 8.15141Z" fill="#632BFF"/>
        <path d="M14.2952 8.15236C14.2952 10.5186 13.285 12.4375 12.0389 12.4375C10.7928 12.4375 9.78259 10.5186 9.78259 8.15236C9.78259 5.78614 10.7926 3.86719 12.0387 3.86719C13.2848 3.86719 14.295 5.78553 14.295 8.15236" fill="#632BFF"/>
        <path d="M16.32 8.15133C16.32 10.2709 15.9647 11.9902 15.5264 11.9902C15.0881 11.9902 14.733 10.2713 14.733 8.15133C14.733 6.03133 15.0883 4.3125 15.5264 4.3125C15.9646 4.3125 16.32 6.03117 16.32 8.15133Z" fill="#632BFF"/>
    </g>
    <defs>
        <clipPath id="clip0_4901_2590">
            <rect width="16" height="16" fill="white" transform="translate(0.319946)"/>
        </clipPath>
    </defs>
</svg>
