<svg width="24" height="24" viewBox="0 0 24 24" fill="none"
    xmlns="http://www.w3.org/2000/svg">
    <g>
        <path d="M24.0027 12.0632C24.0027 10.6098 22.8231 9.43014 21.3696 9.43014C20.6534 9.43014 20.0215 9.70398 19.5581 10.1674C17.7676 8.88247 15.282 8.03989 12.5436 7.93457L13.7443 2.31034L17.6412 3.13185C17.6833 4.12189 18.5048 4.92234 19.5159 4.92234C20.5481 4.92234 21.3907 4.07976 21.3907 3.0476C21.3907 2.01543 20.5481 1.17285 19.5159 1.17285C18.7787 1.17285 18.1467 1.59414 17.8518 2.22608L13.4915 1.29924C13.3651 1.27818 13.2387 1.29924 13.1334 1.36243C13.0281 1.42563 12.9649 1.53095 12.9227 1.65734L11.5957 7.93457C8.79409 8.01882 6.28741 8.84034 4.47586 10.1674C4.01244 9.72505 3.35945 9.43014 2.66432 9.43014C1.21086 9.43014 0.03125 10.6098 0.03125 12.0632C0.03125 13.1375 0.663186 14.0433 1.59003 14.4646C1.5479 14.7173 1.52683 14.9912 1.52683 15.265C1.52683 19.3094 6.22422 22.5744 12.038 22.5744C17.8518 22.5744 22.5492 19.3094 22.5492 15.265C22.5492 14.9912 22.5282 14.7384 22.486 14.4856C23.3497 14.0643 24.0027 13.1375 24.0027 12.0632ZM5.99251 13.938C5.99251 12.9058 6.83509 12.0632 7.86725 12.0632C8.89942 12.0632 9.742 12.9058 9.742 13.938C9.742 14.9701 8.89942 15.8127 7.86725 15.8127C6.83509 15.8127 5.99251 14.9701 5.99251 13.938ZM16.4616 18.8881C15.1766 20.1731 12.7332 20.2573 12.017 20.2573C11.3008 20.2573 8.83622 20.152 7.57235 18.8881C7.38277 18.6985 7.38277 18.3826 7.57235 18.193C7.76193 18.0034 8.0779 18.0034 8.26748 18.193C9.06793 18.9934 10.7952 19.2883 12.038 19.2883C13.2808 19.2883 14.9871 18.9934 15.8086 18.193C15.9982 18.0034 16.3141 18.0034 16.5037 18.193C16.6512 18.4036 16.6512 18.6985 16.4616 18.8881ZM16.1245 15.8127C15.0924 15.8127 14.2498 14.9701 14.2498 13.938C14.2498 12.9058 15.0924 12.0632 16.1245 12.0632C17.1567 12.0632 17.9993 12.9058 17.9993 13.938C17.9993 14.9701 17.1567 15.8127 16.1245 15.8127Z" fill="#632BFF"/>
    </g>
</svg>
