<svg width="17" height="16" viewBox="0 0 17 16" fill="none"
    xmlns="http://www.w3.org/2000/svg">
    <g clip-path="url(#clip0_4811_1963)">
        <path d="M16.3214 8.04149C16.3214 7.07252 15.535 6.28611 14.566 6.28611C14.0886 6.28611 13.6673 6.46867 13.3583 6.77762C12.1647 5.92099 10.5076 5.35927 8.68201 5.28906L9.48246 1.53957L12.0804 2.08725C12.1085 2.74727 12.6562 3.28091 13.3302 3.28091C14.0184 3.28091 14.5801 2.71919 14.5801 2.03108C14.5801 1.34297 14.0184 0.78125 13.3302 0.78125C12.8387 0.78125 12.4174 1.06211 12.2208 1.4834L9.31394 0.865509C9.22968 0.851466 9.14543 0.865508 9.07521 0.907637C9.005 0.949766 8.96287 1.01998 8.93478 1.10424L8.05007 5.28906C6.18235 5.34523 4.51123 5.89291 3.30353 6.77762C2.99458 6.48271 2.55925 6.28611 2.09583 6.28611C1.12686 6.28611 0.340454 7.07252 0.340454 8.04149C0.340454 8.75768 0.761745 9.36153 1.37964 9.64239C1.35155 9.81091 1.33751 9.99347 1.33751 10.176C1.33751 12.8723 4.4691 15.049 8.34497 15.049C12.2208 15.049 15.3524 12.8723 15.3524 10.176C15.3524 9.99347 15.3384 9.82495 15.3103 9.65644C15.8861 9.37558 16.3214 8.75768 16.3214 8.04149ZM4.31463 9.29132C4.31463 8.60321 4.87635 8.04149 5.56446 8.04149C6.25256 8.04149 6.81428 8.60321 6.81428 9.29132C6.81428 9.97943 6.25256 10.5411 5.56446 10.5411C4.87635 10.5411 4.31463 9.97943 4.31463 9.29132ZM11.294 12.5914C10.4374 13.4481 8.80839 13.5042 8.33093 13.5042C7.85347 13.5042 6.21043 13.434 5.36785 12.5914C5.24147 12.465 5.24147 12.2544 5.36785 12.128C5.49424 12.0016 5.70489 12.0016 5.83127 12.128C6.36491 12.6616 7.51644 12.8582 8.34497 12.8582C9.17351 12.8582 10.311 12.6616 10.8587 12.128C10.9851 12.0016 11.1957 12.0016 11.3221 12.128C11.4204 12.2684 11.4204 12.465 11.294 12.5914ZM11.0693 10.5411C10.3812 10.5411 9.81949 9.97943 9.81949 9.29132C9.81949 8.60321 10.3812 8.04149 11.0693 8.04149C11.7574 8.04149 12.3191 8.60321 12.3191 9.29132C12.3191 9.97943 11.7574 10.5411 11.0693 10.5411Z" fill="#632BFF"/>
    </g>
    <defs>
        <clipPath id="clip0_4811_1963">
            <rect width="16" height="16" fill="white" transform="translate(0.319946)"/>
        </clipPath>
    </defs>
</svg>
