<svg width="24" height="24" viewBox="0 0 24 24" fill="none" xmlns="http://www.w3.org/2000/svg">
<path fill-rule="evenodd" clip-rule="evenodd" d="M2.03714 11.2928C8.23863 8.59095 12.3739 6.8097 14.443 5.94909C20.3507 3.49187 21.5783 3.06503 22.3784 3.05093C22.5544 3.04783 22.9479 3.09144 23.2028 3.29826C23.418 3.47289 23.4772 3.70879 23.5055 3.87435C23.5338 4.03992 23.5691 4.41709 23.5411 4.7118C23.2209 8.07554 21.8357 16.2385 21.131 20.0059C20.8328 21.6001 20.2456 22.1346 19.6772 22.1869C18.4418 22.3006 17.5037 21.3705 16.3072 20.5862C14.4349 19.3588 13.3772 18.5948 11.5598 17.3972C9.45952 16.0131 10.8211 15.2524 12.018 14.0092C12.3313 13.6839 17.7743 8.73304 17.8796 8.28392C17.8928 8.22775 17.905 8.01838 17.7806 7.90782C17.6563 7.79726 17.4727 7.83507 17.3402 7.86514C17.1524 7.90776 14.1614 9.88471 8.36716 13.796C7.51817 14.379 6.74918 14.663 6.06019 14.6481C5.30064 14.6317 3.83957 14.2187 2.75341 13.8656C1.42119 13.4325 0.362372 13.2036 0.454571 12.4681C0.502595 12.0851 1.03012 11.6933 2.03714 11.2928Z" fill="#632BFF"/>
</svg>
