<svg width="17" height="16" viewBox="0 0 17 16" fill="none"
    xmlns="http://www.w3.org/2000/svg">
    <path fill-rule="evenodd" clip-rule="evenodd" d="M2.04428 7.57646C5.95061 5.87453 8.55544 4.75252 9.85878 4.21042C13.5801 2.66261 14.3533 2.39374 14.8573 2.38486C14.9682 2.38291 15.216 2.41038 15.3766 2.54065C15.5121 2.65065 15.5494 2.79924 15.5673 2.90354C15.5851 3.00783 15.6073 3.24541 15.5897 3.43104C15.388 5.54988 14.5154 10.6917 14.0715 13.0649C13.8837 14.069 13.5138 14.4057 13.1558 14.4386C12.3776 14.5103 11.7867 13.9244 11.033 13.4303C9.85368 12.6573 9.18741 12.176 8.04264 11.4216C6.71965 10.5498 7.57729 10.0706 8.33125 9.28752C8.52857 9.08258 11.9571 5.96404 12.0235 5.68114C12.0318 5.64576 12.0395 5.51387 11.9612 5.44423C11.8828 5.37459 11.7672 5.3984 11.6837 5.41734C11.5654 5.44419 9.68138 6.68947 6.03157 9.15319C5.49679 9.52041 5.0124 9.69934 4.57841 9.68996C4.09996 9.67962 3.17963 9.41944 2.49545 9.19704C1.65629 8.92426 0.989333 8.78004 1.04741 8.31678C1.07766 8.07548 1.40995 7.82871 2.04428 7.57646Z" fill="#632BFF"/>
</svg>
