<svg width="17" height="16" viewBox="0 0 17 16" fill="none"
    xmlns="http://www.w3.org/2000/svg">
    <g clip-path="url(#clip0_4901_2584)">
        <path d="M14.358 4.78678C14.3642 4.92758 14.3642 5.06198 14.3642 5.20278C14.3703 9.47159 11.234 14.3996 5.49853 14.3996C3.80689 14.3996 2.14613 13.894 0.719971 12.9468C0.966924 12.9788 1.21388 12.9916 1.46083 12.9916C2.86229 12.9916 4.22671 12.5052 5.33183 11.6028C3.99828 11.5772 2.82525 10.6748 2.41778 9.35639C2.88699 9.45239 3.36855 9.43319 3.82541 9.29879C2.37456 9.00439 1.33118 7.67959 1.32501 6.13718C1.32501 6.12438 1.32501 6.11158 1.32501 6.09878C1.75718 6.34838 2.24491 6.48918 2.73882 6.50198C1.3744 5.55478 0.948403 3.66677 1.7757 2.18837C3.36238 4.21078 5.69609 5.43318 8.20267 5.56758C7.94954 4.44758 8.29528 3.26997 9.10405 2.47637C10.3573 1.25397 12.333 1.31797 13.5183 2.61717C14.216 2.47637 14.8889 2.20757 15.5001 1.82997C15.2655 2.57877 14.7778 3.21237 14.1296 3.61557C14.7469 3.53877 15.352 3.36597 15.92 3.10997C15.5001 3.76278 14.9692 4.32598 14.358 4.78678Z" fill="#632BFF"/>
    </g>
    <defs>
        <clipPath id="clip0_4901_2584">
            <rect width="16" height="16" fill="white" transform="translate(0.319946)"/>
        </clipPath>
    </defs>
</svg>
