<svg width="17" height="16" viewBox="0 0 17 16" fill="none"
    xmlns="http://www.w3.org/2000/svg">
    <g clip-path="url(#clip0_4901_2586)">
        <path d="M15.9904 4.15327C15.8059 3.46793 15.2655 2.92757 14.5802 2.74306C13.3281 2.40039 8.31991 2.40039 8.31991 2.40039C8.31991 2.40039 3.3117 2.40039 2.05964 2.72988C1.38749 2.91439 0.833947 3.46793 0.649434 4.15327C0.319946 5.40532 0.319946 8.00168 0.319946 8.00168C0.319946 8.00168 0.319946 10.6112 0.649434 11.8501C0.833947 12.5354 1.37431 13.0758 2.05964 13.2603C3.32488 13.603 8.31991 13.603 8.31991 13.603C8.31991 13.603 13.3281 13.603 14.5802 13.2735C15.2655 13.089 15.8059 12.5486 15.9904 11.8633C16.3199 10.6112 16.3199 8.01486 16.3199 8.01486C16.3199 8.01486 16.3331 5.40532 15.9904 4.15327Z" fill="#632BFF"/>
        <path d="M6.72522 10.4009L10.8899 8.00219L6.72522 5.60352V10.4009Z" fill="#1E1B3E"/>
    </g>
    <defs>
        <clipPath id="clip0_4901_2586">
            <rect width="16" height="16" fill="white" transform="translate(0.319946)"/>
        </clipPath>
    </defs>
</svg>
