<svg width="40" height="40" viewBox="0 0 40 40" fill="none" xmlns="http://www.w3.org/2000/svg">
<path d="M28.8671 20.0305C28.8323 18.4275 28.366 16.8633 27.517 15.5022C26.6679 14.141 25.4675 13.033 24.0416 12.2944C22.6157 11.5557 21.0169 11.2138 19.4129 11.3043C17.809 11.3948 16.259 11.9145 14.9257 12.8089C13.5923 13.7033 12.5247 14.9393 11.8348 16.3873C11.145 17.8354 10.8583 19.4421 11.0049 21.0388C11.1515 22.6355 11.7259 24.1634 12.668 25.4622C13.61 26.761 14.8849 27.7828 16.3589 28.4204C16.7943 27.7673 17.1275 27.0518 17.3472 26.2986C17.5267 25.8429 17.7215 25.3947 17.9235 24.9611C18.4109 25.1068 18.9287 25.1177 19.4217 24.9926C19.9148 24.8675 20.3646 24.6112 20.7231 24.2509L20.7531 24.2209C20.3128 24.0575 19.8383 24.008 19.3736 24.077C18.909 24.146 18.4694 24.3312 18.0959 24.6155C18.343 24.0998 18.6125 23.5995 18.8893 23.1139C19.3676 23.2827 19.8831 23.3184 20.3803 23.2171C20.8774 23.1157 21.3376 22.8812 21.7113 22.5386L21.7414 22.5086C21.316 22.329 20.8527 22.2576 20.3929 22.3006C19.9331 22.3436 19.4911 22.4998 19.1067 22.7552C19.3834 22.2995 19.668 21.8513 19.9676 21.4327C20.4627 21.5625 20.9839 21.5545 21.4748 21.4096C21.9657 21.2648 22.4074 20.9885 22.7521 20.6109L22.7747 20.5809C22.3658 20.4478 21.9314 20.4123 21.5063 20.4772C21.0812 20.5421 20.6773 20.7056 20.327 20.9545C20.3495 20.9246 20.3795 20.8875 20.4017 20.8575C20.5811 20.6259 20.7685 20.3943 20.9551 20.1702C21.5248 19.9841 22.0329 19.6465 22.4246 19.1936C22.8164 18.7408 23.0769 18.1898 23.1783 17.6002L23.1858 17.5552H23.1783C22.585 17.7092 22.0469 18.0259 21.6248 18.4696C21.2028 18.9132 20.9137 19.466 20.7903 20.0653C20.6108 20.2819 20.4309 20.4992 20.259 20.7226C20.4042 20.3438 20.4634 19.9376 20.4323 19.5332C20.4013 19.1289 20.2808 18.7364 20.0795 18.3841L20.057 18.4141C19.7516 18.8304 19.5676 19.323 19.5253 19.8372C19.483 20.3514 19.5841 20.8673 19.8174 21.3278C19.5328 21.7314 19.2561 22.1421 18.994 22.5753C19.0784 22.1398 19.0565 21.6905 18.9301 21.2652C18.8037 20.84 18.5765 20.4514 18.2678 20.1323L18.2528 20.1698C18.0619 20.6447 18.0056 21.1628 18.0901 21.6675C18.1746 22.1722 18.3966 22.6439 18.7319 23.031C18.4698 23.4867 18.2228 23.9574 17.9832 24.4431C18.056 23.9895 18.0193 23.5251 17.876 23.0885C17.7328 22.6519 17.4873 22.2558 17.1598 21.933L17.1448 21.9705C16.974 22.4682 16.9423 23.003 17.0531 23.5174C17.1639 24.0318 17.413 24.5064 17.7737 24.8901C17.6156 25.2262 17.467 25.5608 17.3247 25.9135C17.2855 25.8776 17.2397 25.8498 17.1899 25.8314C16.9345 25.7574 16.6902 25.6494 16.4637 25.5103C16.2764 25.3994 16.0776 25.3091 15.8707 25.2412C15.0623 24.9796 15.1821 24.5914 14.7639 23.8067C14.6278 23.6451 14.4832 23.4909 14.3306 23.3447C14.1891 23.253 14.0732 23.1271 13.9938 22.9785C13.9016 22.793 13.8433 22.5926 13.8215 22.3867C13.819 22.2728 13.7809 22.1625 13.7124 22.0714C13.6439 21.9803 13.5485 21.9128 13.4396 21.8786C12.2494 21.4678 12.7811 19.9287 12.8257 19.7267C12.8074 19.4655 12.7493 19.2086 12.6534 18.9649C12.6434 18.9332 12.6358 18.9007 12.6308 18.8678C12.5991 18.7084 12.6049 18.5437 12.6477 18.3868C12.6906 18.23 12.7694 18.0852 12.8779 17.9639C13.0202 17.8219 13.5143 17.5903 13.6191 17.4558C13.7239 17.3212 13.7986 17.1717 13.9037 17.0451C14.2363 16.7139 14.6205 16.4389 15.0414 16.2307C15.3857 16.0441 15.4458 15.5659 15.5802 15.4164C15.8047 15.1623 16.149 15.1623 16.4036 14.9382C16.5309 14.8262 16.7198 14.7662 16.8384 14.647C17.4363 14.1005 18.1898 13.7533 18.9944 13.6536C19.5523 13.6082 20.1139 13.6588 20.6547 13.8031C20.7329 13.8162 20.8104 13.8338 20.8867 13.8556C22.1216 13.9006 23.604 14.1543 24.1428 14.6774C24.4095 14.9332 24.6077 15.2517 24.7192 15.6038C24.8067 15.8764 24.9274 16.1373 25.0785 16.3806L25.4078 16.9184C25.6176 17.2575 25.6848 17.6656 25.5948 18.0539C25.5341 18.2427 25.5289 18.4449 25.5797 18.6366C25.7534 18.8983 25.9569 19.139 26.1861 19.3539C26.2772 19.4438 26.3775 19.524 26.4854 19.593C26.7388 19.7439 26.9837 19.9085 27.219 20.0862C27.2268 20.1582 27.2148 20.2309 27.1845 20.2967C27.1541 20.3625 27.1065 20.4188 27.0467 20.4598C26.8372 20.6464 26.4328 20.938 26.4328 20.938C26.4474 21.0205 26.4725 21.1009 26.5075 21.1771C26.5672 21.2816 26.702 21.4461 26.6573 21.5878C26.6127 21.7294 26.3205 21.8494 26.4028 22.006C26.485 22.1705 26.6945 22.2151 26.6348 22.3646C26.5751 22.5067 26.283 22.7592 26.313 22.8653C26.3431 22.9714 26.5826 23.97 26.0284 24.1428C25.3425 24.2782 24.6464 24.3557 23.9475 24.3744C23.8348 24.3809 23.7255 24.4158 23.63 24.4759C23.5344 24.536 23.4557 24.6193 23.4012 24.7181C23.2951 24.9155 23.2266 25.1309 23.1992 25.3533C22.997 26.1485 22.7291 26.9256 22.3983 27.6767C22.3983 27.6767 22.3758 27.7217 22.3458 27.7887C22.2732 27.9364 22.2275 28.0958 22.211 28.2594C22.2581 28.3797 22.3294 28.489 22.4205 28.5806C22.4685 28.6354 22.5313 28.6752 22.6015 28.6951C22.6717 28.715 22.7461 28.7141 22.8158 28.6926C24.6098 28.0686 26.1606 26.8953 27.2472 25.3399C28.3338 23.7845 28.9007 21.9264 28.8671 20.0305Z" fill="white"/>
</svg>
