<svg width="40" height="40" viewBox="0 0 40 40" fill="none" xmlns="http://www.w3.org/2000/svg">
<path d="M24.9913 16.6116C24.6326 16.3906 24.1664 16.3906 23.7719 16.6116L20.9744 18.3056L19.0735 19.4104L16.2761 21.1045C15.9175 21.3255 15.4512 21.3255 15.0567 21.1045L12.8331 19.7788C12.4744 19.5578 12.2234 19.1527 12.2234 18.7107V16.096C12.2234 15.6541 12.4385 15.249 12.8331 15.028L15.0208 13.7391C15.3795 13.5181 15.8457 13.5181 16.2402 13.7391L18.428 15.028C18.7866 15.249 19.0377 15.6541 19.0377 16.096V17.7901L20.9385 16.6484V14.9544C20.9385 14.5124 20.7234 14.1073 20.3288 13.8864L16.2761 11.4558C15.9175 11.2348 15.4512 11.2348 15.0567 11.4558L10.9322 13.8864C10.5377 14.1073 10.3225 14.5124 10.3225 14.9544V19.8524C10.3225 20.2943 10.5377 20.6994 10.9322 20.9204L15.0567 23.351C15.4153 23.572 15.8816 23.572 16.2761 23.351L19.0735 21.6937L20.9744 20.5521L23.7719 18.8949C24.1305 18.6739 24.5968 18.6739 24.9913 18.8949L27.179 20.1839C27.5377 20.4048 27.7888 20.8099 27.7888 21.2518V23.8666C27.7888 24.3085 27.5736 24.7136 27.179 24.9346L24.9913 26.2604C24.6326 26.4813 24.1664 26.4813 23.7719 26.2604L21.5841 24.9714C21.2254 24.7505 20.9744 24.3453 20.9744 23.9034V22.2094L19.0735 23.351V25.0451C19.0735 25.487 19.2887 25.8921 19.6833 26.113L23.8077 28.5437C24.1664 28.7646 24.6326 28.7646 25.0271 28.5437L29.1516 26.113C29.5103 25.8921 29.7613 25.487 29.7613 25.0451V20.147C29.7613 19.7051 29.5461 19.3 29.1516 19.079L24.9913 16.6116Z" fill="white"/>
</svg>
