<svg width="40" height="40" viewBox="0 0 40 40" fill="none" xmlns="http://www.w3.org/2000/svg">
<mask id="path-1-inside-1_5018_2092" fill="white">
<path d="M3.17498 17.0931H1.11108V16.7373H5.73706V17.0931H3.60199V23.2137H3.17498V17.0931Z"/>
</mask>
<path d="M1.11108 17.0931H-37.8889V56.0931H1.11108V17.0931ZM3.17498 17.0931H42.175V-21.9069H3.17498V17.0931ZM3.17498 23.2137H-35.825V62.2137H3.17498V23.2137ZM3.60199 23.2137V62.2137H42.602V23.2137H3.60199ZM3.60199 17.0931V-21.9069H-35.398V17.0931H3.60199ZM5.73706 17.0931V56.0931H44.7371V17.0931H5.73706ZM5.73706 16.7373H44.7371V-22.2627H5.73706V16.7373ZM1.11108 16.7373V-22.2627H-37.8889V16.7373H1.11108ZM1.11108 56.0931H3.17498V-21.9069H1.11108V56.0931ZM-35.825 17.0931V23.2137H42.175V17.0931H-35.825ZM3.17498 62.2137H3.60199V-15.7863H3.17498V62.2137ZM42.602 23.2137V17.0931H-35.398V23.2137H42.602ZM3.60199 56.0931H5.73706V-21.9069H3.60199V56.0931ZM44.7371 17.0931V16.7373H-33.2629V17.0931H44.7371ZM5.73706 -22.2627H1.11108V55.7373H5.73706V-22.2627ZM-37.8889 16.7373V17.0931H40.1111V16.7373H-37.8889Z" fill="white" mask="url(#path-1-inside-1_5018_2092)"/>
<mask id="path-3-inside-2_5018_2092" fill="white">
<path d="M7.16016 16.7373V17.1643H9.7934C12.3199 17.5202 11.9996 20.616 9.72223 20.8835H7.16016V23.2137H7.516V21.2921H9.72223C10.7898 21.8259 11.0744 22.502 11.4303 23.2137H11.9285C11.3947 22.3952 11.2168 21.897 10.2204 21.0786C10.2204 21.0786 11.9285 20.6872 11.9285 18.8724C11.8573 17.3778 10.3272 16.7729 9.7934 16.7373H7.16016Z"/>
</mask>
<path d="M7.16016 17.1643H-4.83984V29.1643H7.16016V17.1643ZM7.16016 16.7373V4.7373H-4.83984V16.7373H7.16016ZM9.7934 16.7373L10.5916 4.76388L10.193 4.7373H9.7934V16.7373ZM10.2204 21.0786L7.5399 9.38182L-16.2793 14.8404L2.60354 30.3513L10.2204 21.0786ZM11.9285 23.2137V35.2137H34.081L21.9798 16.6585L11.9285 23.2137ZM11.4303 23.2137L0.697161 28.5802L4.01388 35.2137H11.4303V23.2137ZM9.72223 21.2921L15.0888 10.559L12.5551 9.29211H9.72223V21.2921ZM7.516 21.2921V9.29211H-4.484V21.2921H7.516ZM7.516 23.2137V35.2137H19.516V23.2137H7.516ZM7.16016 23.2137H-4.83984V35.2137H7.16016V23.2137ZM7.16016 20.8835V8.88346H-4.83984V20.8835H7.16016ZM9.72223 20.8835V32.8835H10.4245L11.1219 32.8016L9.72223 20.8835ZM9.7934 17.1643L11.467 5.2816L10.6343 5.16432H9.7934V17.1643ZM11.9285 18.8724H23.9285V18.5868L23.9149 18.3016L11.9285 18.8724ZM19.1602 17.1643V16.7373H-4.83984V17.1643H19.1602ZM7.16016 28.7373H9.7934V4.7373H7.16016V28.7373ZM2.60354 30.3513C2.52386 30.2859 2.34371 30.1306 2.11458 29.8884C1.87269 29.6327 1.662 29.3708 1.49203 29.1335C1.35025 28.9355 1.27041 28.7988 1.35326 28.9336C1.3739 28.9672 1.39078 28.9948 1.42547 29.0514C1.45572 29.1008 1.49518 29.1651 1.5387 29.2355C1.62713 29.3784 1.74174 29.5613 1.87714 29.7689L21.9798 16.6585C21.9817 16.6615 21.974 16.6498 21.9467 16.6056C21.8956 16.5231 21.8971 16.5244 21.7998 16.3662C21.668 16.1518 21.3813 15.6859 21.0038 15.1588C20.1095 13.9102 19.0783 12.8253 17.8373 11.8059L2.60354 30.3513ZM11.9285 11.2137H11.4303V35.2137H11.9285V11.2137ZM22.1634 17.8471C22.1526 17.8255 22.1409 17.8019 22.1163 17.7522C22.0952 17.7097 22.0622 17.643 22.0265 17.5719C21.9553 17.4298 21.8437 17.2096 21.706 16.9564C21.4259 16.4412 20.9902 15.6981 20.3643 14.8823C18.9769 13.0737 17.2029 11.616 15.0888 10.559L4.35567 32.0252C3.89681 31.7958 3.34962 31.4634 2.77981 30.9961C2.20078 30.5212 1.7155 30.0031 1.32197 29.4901C0.94518 28.9989 0.714101 28.5916 0.620843 28.4201C0.583229 28.3509 0.498761 28.1834 0.697161 28.5802L22.1634 17.8471ZM9.72223 9.29211H7.516V33.2921H9.72223V9.29211ZM-4.484 21.2921V23.2137H19.516V21.2921H-4.484ZM7.516 11.2137H7.16016V35.2137H7.516V11.2137ZM19.1602 23.2137V20.8835H-4.83984V23.2137H19.1602ZM7.16016 32.8835H9.72223V8.88346H7.16016V32.8835ZM11.1219 32.8016C18.1551 31.9756 23.163 26.3012 23.5395 19.7451C23.7259 16.5 22.7624 13 20.3524 10.1344C17.8915 7.20805 14.5919 5.72172 11.467 5.2816L8.11978 29.047C6.25815 28.7848 3.86599 27.8189 1.98438 25.5815C0.153814 23.4048 -0.558435 20.7622 -0.420976 18.3689C-0.142274 13.5166 3.56675 9.52389 8.32258 8.96537L11.1219 32.8016ZM9.7934 5.16432H7.16016V29.1643H9.7934V5.16432ZM8.99517 28.7107C7.57535 28.6161 6.54942 28.2754 6.00787 28.0656C5.34492 27.8089 4.60318 27.4325 3.84935 26.8689C2.27552 25.6924 0.121099 23.2032 -0.05795 19.4432L23.9149 18.3016C23.6647 13.047 20.7096 9.50809 18.2195 7.64654C16.1148 6.07311 13.4189 4.95236 10.5916 4.76388L8.99517 28.7107ZM-0.0715322 18.8724C-0.0715322 17.3549 0.308354 15.7284 1.14065 14.2112C1.93977 12.7545 2.9592 11.7517 3.81092 11.104C4.64184 10.4722 5.41672 10.0966 5.97078 9.87149C6.26298 9.75278 6.53881 9.65779 6.79239 9.58043C6.92051 9.54135 7.04653 9.50568 7.17022 9.47295C7.23219 9.45655 7.29393 9.4408 7.35544 9.42565C7.38621 9.41807 7.41696 9.41064 7.44769 9.40333C7.46306 9.39968 7.47842 9.39606 7.49379 9.39248C7.50147 9.39069 7.50916 9.3889 7.51684 9.38712C7.52068 9.38624 7.52646 9.3849 7.52837 9.38446C7.53413 9.38314 7.5399 9.38182 10.2204 21.0786C12.9009 32.7754 12.9067 32.7741 12.9125 32.7727C12.9144 32.7723 12.9203 32.7709 12.9241 32.77C12.9319 32.7682 12.9398 32.7664 12.9477 32.7646C12.9634 32.7609 12.9794 32.7571 12.9956 32.7533C13.028 32.7456 13.0612 32.7376 13.0952 32.7292C13.1632 32.7125 13.2345 32.6943 13.309 32.6746C13.4577 32.6352 13.6204 32.5894 13.7952 32.536C14.1422 32.4302 14.5515 32.2904 15.0038 32.1067C15.8781 31.7515 17.08 31.1646 18.338 30.2081C21.1361 28.0803 23.9285 24.2374 23.9285 18.8724H-0.0715322Z" fill="white" mask="url(#path-3-inside-2_5018_2092)"/>
<mask id="path-5-inside-3_5018_2092" fill="white">
<path d="M13.9221 16.7373H13.4951V20.6516C13.4951 22.1106 14.4203 23.2371 16.0572 23.2371C18.0499 23.2371 18.8684 22.075 18.8328 20.6436C18.7972 19.2122 18.8328 16.7373 18.8328 16.7373H18.4058V20.6436C18.4058 22.1619 17.2369 22.9065 16.0928 22.8751C14.9897 22.8751 13.9221 22.1868 13.9221 20.6436V16.7373Z"/>
</mask>
<path d="M13.4951 16.7373V7.7373H4.49512V16.7373H13.4951ZM13.9221 16.7373H22.9221V7.7373H13.9221V16.7373ZM18.4058 16.7373V7.7373H9.40577V16.7373H18.4058ZM18.8328 16.7373L27.8319 16.8667L27.9631 7.7373H18.8328V16.7373ZM18.8328 20.6436L27.83 20.4199L18.8328 20.6436ZM16.0928 22.8751L16.3397 13.8785L16.2163 13.8751H16.0928V22.8751ZM13.4951 25.7373H13.9221V7.7373H13.4951V25.7373ZM4.92213 16.7373V20.6436H22.9221V16.7373H4.92213ZM27.4058 20.6436V16.7373H9.40577V20.6436H27.4058ZM18.4058 25.7373H18.8328V7.7373H18.4058V25.7373ZM18.8328 16.7373C9.83371 16.6079 9.83371 16.608 9.83371 16.6081C9.83371 16.6082 9.8337 16.6083 9.8337 16.6084C9.8337 16.6086 9.8337 16.6089 9.83369 16.6092C9.83368 16.6097 9.83367 16.6105 9.83366 16.6113C9.83364 16.6131 9.8336 16.6154 9.83356 16.6183C9.83348 16.6242 9.83337 16.6323 9.83323 16.6427C9.83294 16.6635 9.83255 16.6933 9.83206 16.7311C9.83109 16.8066 9.82977 16.9146 9.82831 17.048C9.8254 17.3143 9.82191 17.685 9.81958 18.1035C9.81508 18.9097 9.8141 20.004 9.83556 20.8673L27.83 20.4199C27.8159 19.8517 27.8149 18.9929 27.8193 18.2039C27.8214 17.8247 27.8246 17.4872 27.8272 17.2447C27.8286 17.1238 27.8297 17.0272 27.8306 16.9618C27.831 16.9292 27.8313 16.9043 27.8316 16.8882C27.8317 16.8801 27.8317 16.8742 27.8318 16.8706C27.8318 16.8688 27.8318 16.8675 27.8318 16.8669C27.8319 16.8666 27.8319 16.8664 27.8319 16.8663C27.8319 16.8663 27.8319 16.8663 27.8319 16.8664C27.8319 16.8664 27.8319 16.8665 27.8319 16.8665C27.8319 16.8666 27.8319 16.8667 18.8328 16.7373ZM22.4951 20.6516V16.7373H4.49512V20.6516H22.4951ZM9.83556 20.8673C9.81061 19.8635 10.0808 17.9501 11.7032 16.2547C13.3816 14.5008 15.2981 14.2371 16.0572 14.2371V32.2371C18.809 32.2371 22.1311 31.3924 24.708 28.6996C27.2289 26.0653 27.8905 22.855 27.83 20.4199L9.83556 20.8673ZM16.0572 14.2371C17.4098 14.2371 19.2534 14.7661 20.7218 16.3293C22.1112 17.8082 22.4951 19.4974 22.4951 20.6516H4.49512C4.49512 23.2648 5.34163 26.2467 7.60281 28.6537C9.9431 31.1449 13.0677 32.2371 16.0572 32.2371V14.2371ZM4.92213 20.6436C4.92213 23.644 6.04435 26.7476 8.56691 29.0221C10.9229 31.1464 13.7515 31.8751 16.0928 31.8751V13.8751C17.331 13.8751 19.0742 14.2596 20.6207 15.654C22.3337 17.1986 22.9221 19.1864 22.9221 20.6436H4.92213ZM15.8458 31.8717C18.3605 31.9407 21.1909 31.1778 23.526 29.1818C26.045 27.0287 27.4058 23.9227 27.4058 20.6436H9.40577C9.40577 18.8827 10.1821 16.9082 11.8306 15.4991C13.2953 14.2471 14.9691 13.8409 16.3397 13.8785L15.8458 31.8717Z" fill="white" mask="url(#path-5-inside-3_5018_2092)"/>
<mask id="path-7-inside-4_5018_2092" fill="white">
<path d="M24.8812 16.7373H20.8958V17.0931H24.8812V16.7373Z"/>
</mask>
<path d="M20.8958 16.7373V0.737305H4.89575V16.7373H20.8958ZM24.8812 16.7373H40.8812V0.737305H24.8812V16.7373ZM24.8812 17.0931V33.0931H40.8812V17.0931H24.8812ZM20.8958 17.0931H4.89575V33.0931H20.8958V17.0931ZM20.8958 32.7373H24.8812V0.737305H20.8958V32.7373ZM8.88121 16.7373V17.0931H40.8812V16.7373H8.88121ZM24.8812 1.09315H20.8958V33.0931H24.8812V1.09315ZM36.8958 17.0931V16.7373H4.89575V17.0931H36.8958Z" fill="white" mask="url(#path-7-inside-4_5018_2092)"/>
<mask id="path-9-inside-5_5018_2092" fill="white">
<path d="M24.8812 22.7852H20.8958V23.141H24.8812V22.7852Z"/>
</mask>
<path d="M20.8958 22.7852V6.78516H4.89575V22.7852H20.8958ZM24.8812 22.7852H40.8812V6.78516H24.8812V22.7852ZM24.8812 23.141V39.141H40.8812V23.141H24.8812ZM20.8958 23.141H4.89575V39.141H20.8958V23.141ZM20.8958 38.7852H24.8812V6.78516H20.8958V38.7852ZM8.88121 22.7852V23.141H40.8812V22.7852H8.88121ZM24.8812 7.141H20.8958V39.141H24.8812V7.141ZM36.8958 23.141V22.7852H4.89575V23.141H36.8958Z" fill="white" mask="url(#path-9-inside-5_5018_2092)"/>
<mask id="path-11-inside-6_5018_2092" fill="white">
<path d="M24.6677 19.7266H20.8958V20.0824H24.6677V19.7266Z"/>
</mask>
<path d="M20.8958 19.7266V3.72656H4.89575V19.7266H20.8958ZM24.6677 19.7266H40.6677V3.72656H24.6677V19.7266ZM24.6677 20.0824V36.0824H40.6677V20.0824H24.6677ZM20.8958 20.0824H4.89575V36.0824H20.8958V20.0824ZM20.8958 35.7266H24.6677V3.72656H20.8958V35.7266ZM8.6677 19.7266V20.0824H40.6677V19.7266H8.6677ZM24.6677 4.08241H20.8958V36.0824H24.6677V4.08241ZM36.8958 20.0824V19.7266H4.89575V20.0824H36.8958Z" fill="white" mask="url(#path-11-inside-6_5018_2092)"/>
<mask id="path-13-inside-7_5018_2092" fill="white">
<path d="M28.7597 22.3596L26.3755 16.7373H25.9485L28.7597 23.2137L31.5708 16.7373H31.1438L28.7597 22.3596Z"/>
</mask>
<path d="M26.3755 16.7373L34.6613 13.2237L32.3348 7.7373H26.3755V16.7373ZM28.7597 22.3596L20.4738 25.8732L28.7597 45.4129L37.0455 25.8732L28.7597 22.3596ZM31.1438 16.7373V7.7373H25.1845L22.858 13.2237L31.1438 16.7373ZM31.5708 16.7373L39.8266 20.3209L45.2887 7.7373H31.5708V16.7373ZM28.7597 23.2137L20.5039 26.7972L28.7597 45.8169L37.0154 26.7972L28.7597 23.2137ZM25.9485 16.7373V7.7373H12.2306L17.6927 20.3209L25.9485 16.7373ZM18.0897 20.2509L20.4738 25.8732L37.0455 18.846L34.6613 13.2237L18.0897 20.2509ZM37.0455 25.8732L39.4296 20.2509L22.858 13.2237L20.4738 18.846L37.0455 25.8732ZM31.1438 25.7373H31.5708V7.7373H31.1438V25.7373ZM23.315 13.1537L20.5039 19.6301L37.0154 26.7972L39.8266 20.3209L23.315 13.1537ZM37.0154 19.6301L34.2043 13.1537L17.6927 20.3209L20.5039 26.7972L37.0154 19.6301ZM25.9485 25.7373H26.3755V7.7373H25.9485V25.7373Z" fill="white" mask="url(#path-13-inside-7_5018_2092)"/>
<mask id="path-15-inside-8_5018_2092" fill="white">
<path d="M38.1199 17.9495L38.3334 17.736C38.3334 17.736 37.6558 16.666 35.9834 16.666C34.1686 16.7016 32.677 18.0231 32.711 20.0134C32.7451 22.0037 34.1686 23.1634 35.8411 23.2491C37.478 23.333 38.3334 22.2196 38.3334 22.2196L38.1199 21.9706C38.1199 21.9706 37.0509 23 35.8411 22.8577C34.6312 22.8577 33.138 21.7831 33.138 20.0134C33.138 18.0753 34.5595 17.0383 36.019 17.0574C37.3712 17.0752 38.1199 17.9495 38.1199 17.9495Z"/>
</mask>
<path d="M38.3334 17.736L59.5466 38.9492L76.524 21.9717L63.6794 1.68668L38.3334 17.736ZM38.1199 17.9495L15.3324 37.4619L36.414 62.0819L59.3331 39.1627L38.1199 17.9495ZM38.1199 21.9706L60.8975 2.44679L40.208 -21.691L17.3093 0.362209L38.1199 21.9706ZM38.3334 22.2196L62.1229 40.497L76.9595 21.1858L61.1111 2.69588L38.3334 22.2196ZM32.711 20.0134L2.71542 20.5263L32.711 20.0134ZM35.9834 16.666V-13.334H35.6893L35.3953 -13.3282L35.9834 16.666ZM36.019 17.0574L35.6252 47.0549L36.019 17.0574ZM35.8411 22.8577L39.3464 -6.93681L37.5997 -7.1423H35.8411V22.8577ZM35.8411 23.2491L34.3051 53.2098H34.3051L35.8411 23.2491ZM17.1201 -3.47717L16.9066 -3.26366L59.3331 39.1627L59.5466 38.9492L17.1201 -3.47717ZM15.3422 41.4943L15.5557 41.7434L61.1111 2.69588L60.8975 2.44679L15.3422 41.4943ZM62.7066 19.5005C62.8267 26.5195 60.0995 33.694 54.6523 39.0325C49.4168 44.1636 42.779 46.5385 36.5715 46.6602L35.3953 -13.3282C18.6728 -13.0003 2.37156 0.416632 2.71542 20.5263L62.7066 19.5005ZM35.9834 46.666C29.9498 46.666 24.5814 44.6055 20.4694 41.699C18.5418 40.3365 17.0162 38.8841 15.8329 37.5601C15.2363 36.8925 14.7083 36.2371 14.2417 35.6107C14.0077 35.2966 13.787 34.9868 13.5788 34.6831C13.4747 34.5311 13.3734 34.3802 13.2749 34.2306C13.2257 34.1558 13.1771 34.0813 13.1292 34.0071C13.1052 33.97 13.0814 33.933 13.0578 33.896C13.046 33.8775 13.0342 33.8591 13.0225 33.8406C13.0166 33.8314 13.0078 33.8176 13.0049 33.813C12.9961 33.7991 12.9874 33.7853 38.3334 17.736C63.6794 1.68668 63.6706 1.67285 63.6618 1.65902C63.6589 1.6544 63.6501 1.64054 63.6442 1.6313C63.6324 1.61278 63.6206 1.59422 63.6087 1.57561C63.5849 1.53839 63.5609 1.50097 63.5366 1.46335C63.488 1.38811 63.4384 1.31207 63.3878 1.23525C63.2867 1.08163 63.1814 0.924755 63.0719 0.764906C62.8529 0.445448 62.616 0.112709 62.3603 -0.230696C61.8501 -0.91555 61.2561 -1.65457 60.5699 -2.42242C59.2073 -3.94708 57.4078 -5.66695 55.1017 -7.29696C50.2328 -10.7385 43.6895 -13.334 35.9834 -13.334V46.666ZM38.1199 17.9495C60.9073 -1.56285 60.8989 -1.57268 60.8905 -1.58251C60.8877 -1.58579 60.8792 -1.59564 60.8735 -1.60222C60.8622 -1.61538 60.8509 -1.62857 60.8395 -1.6418C60.8167 -1.66826 60.7936 -1.69486 60.7704 -1.7216C60.724 -1.77507 60.6767 -1.8291 60.6287 -1.88367C60.5325 -1.9928 60.433 -2.10421 60.3301 -2.21768C60.1243 -2.44447 59.904 -2.68052 59.6689 -2.92405C59.2002 -3.4096 58.6642 -3.93363 58.0589 -4.47882C56.8628 -5.5561 55.31 -6.79347 53.3825 -7.9883C49.4968 -10.397 43.7063 -12.8442 36.4127 -12.94L35.6252 47.0549C29.6839 46.9769 24.9438 44.9757 21.7705 43.0086C20.1992 42.0345 18.9181 41.0169 17.9046 40.1041C17.3906 39.6411 16.9237 39.1855 16.5012 38.7479C16.2892 38.5283 16.0863 38.311 15.8922 38.0971C15.7951 37.99 15.6999 37.8835 15.6067 37.7777C15.5601 37.7248 15.5139 37.672 15.4682 37.6193C15.4454 37.593 15.4226 37.5667 15.4 37.5405C15.3887 37.5274 15.3774 37.5143 15.3661 37.5012C15.3605 37.4946 15.3521 37.4848 15.3492 37.4815C15.3408 37.4717 15.3324 37.4619 38.1199 17.9495ZM36.4128 -12.94C20.0075 -13.1553 3.13805 -0.369619 3.13805 20.0134H63.138C63.138 26.8735 60.3857 34.2716 54.439 39.7906C48.887 44.9433 41.976 47.1382 35.6252 47.0549L36.4128 -12.94ZM3.13805 20.0134C3.13805 40.2505 20.0275 52.8577 35.8411 52.8577V-7.1423C43.5492 -7.1423 50.0233 -4.01834 54.5122 0.173943C59.5174 4.84835 63.138 11.8683 63.138 20.0134H3.13805ZM32.3358 52.6522C42.0779 53.7984 49.3655 50.2054 52.3397 48.5026C54.131 47.477 55.5479 46.4478 56.5536 45.6517C57.0737 45.24 57.5298 44.8541 57.9189 44.5108C58.1146 44.3382 58.2966 44.1735 58.4645 44.0184C58.5485 43.9407 58.6294 43.8652 58.7069 43.7919C58.7457 43.7553 58.7838 43.7193 58.821 43.6837C58.8396 43.666 58.8581 43.6484 58.8763 43.6309C58.8854 43.6222 58.8945 43.6135 58.9035 43.6048C58.908 43.6005 58.9148 43.594 58.917 43.5918C58.9237 43.5854 58.9304 43.5789 38.1199 21.9706C17.3093 0.362209 17.316 0.355757 17.3227 0.34931C17.3249 0.347162 17.3317 0.340704 17.3361 0.336405C17.3451 0.327801 17.3541 0.319191 17.3631 0.310579C17.381 0.293352 17.3991 0.27611 17.4172 0.25885C17.4534 0.224333 17.4898 0.189734 17.5266 0.155056C17.6001 0.0857239 17.6747 0.0159569 17.7507 -0.0541916C17.9023 -0.194286 18.0602 -0.337034 18.2243 -0.481825C18.5502 -0.769325 18.9133 -1.07593 19.3142 -1.39329C20.0818 -2.00084 21.1558 -2.7816 22.5287 -3.56759C24.6659 -4.79119 30.8141 -7.94062 39.3464 -6.93681L32.3358 52.6522ZM38.3334 22.2196C14.5439 3.94232 14.5525 3.93115 14.5611 3.91999C14.5639 3.91627 14.5725 3.90509 14.5783 3.89764C14.5898 3.88274 14.6013 3.86782 14.6129 3.85289C14.636 3.82304 14.6592 3.79314 14.6826 3.76319C14.7293 3.70329 14.7766 3.6432 14.8244 3.58291C14.92 3.46237 15.0179 3.3409 15.118 3.21865C15.3182 2.97437 15.5287 2.72557 15.75 2.47349C16.1909 1.97144 16.6851 1.44437 17.2371 0.906474C18.3228 -0.15148 19.74 -1.35685 21.5276 -2.50109C25.2368 -4.87536 30.7176 -7.05291 37.377 -6.71152L34.3051 53.2098C42.6014 53.6351 49.3284 50.9428 53.8745 48.0328C56.0806 46.6207 57.8139 45.1422 59.1112 43.8781C59.7689 43.2372 60.3428 42.6238 60.8368 42.0612C61.0847 41.7788 61.3152 41.5062 61.5287 41.2456C61.6355 41.1152 61.7384 40.9875 61.8373 40.8628C61.8868 40.8004 61.9353 40.7387 61.9829 40.6777C62.0067 40.6472 62.0302 40.6169 62.0536 40.5868C62.0652 40.5717 62.0768 40.5567 62.0884 40.5417C62.0942 40.5343 62.1028 40.5231 62.1057 40.5193C62.1143 40.5081 62.1229 40.497 38.3334 22.2196ZM37.377 -6.71152C42.9348 -6.42661 49.2805 -4.27433 54.4968 0.760801C59.9992 6.07215 62.5959 13.0237 62.7066 19.5005L2.71542 20.5263C2.8602 28.9934 6.1857 37.5199 12.8265 43.9301C19.1812 50.0641 27.0749 52.8391 34.3051 53.2098L37.377 -6.71152Z" fill="white" mask="url(#path-15-inside-8_5018_2092)"/>
</svg>
